%TF.GenerationSoftware,KiCad,Pcbnew,(7.0.0-0)*%
%TF.CreationDate,2023-03-14T21:41:36-05:00*%
%TF.ProjectId,RP2040_minimal,52503230-3430-45f6-9d69-6e696d616c2e,REV1*%
%TF.SameCoordinates,Original*%
%TF.FileFunction,Soldermask,Top*%
%TF.FilePolarity,Negative*%
%FSLAX46Y46*%
G04 Gerber Fmt 4.6, Leading zero omitted, Abs format (unit mm)*
G04 Created by KiCad (PCBNEW (7.0.0-0)) date 2023-03-14 21:41:36*
%MOMM*%
%LPD*%
G01*
G04 APERTURE LIST*
G04 Aperture macros list*
%AMRoundRect*
0 Rectangle with rounded corners*
0 $1 Rounding radius*
0 $2 $3 $4 $5 $6 $7 $8 $9 X,Y pos of 4 corners*
0 Add a 4 corners polygon primitive as box body*
4,1,4,$2,$3,$4,$5,$6,$7,$8,$9,$2,$3,0*
0 Add four circle primitives for the rounded corners*
1,1,$1+$1,$2,$3*
1,1,$1+$1,$4,$5*
1,1,$1+$1,$6,$7*
1,1,$1+$1,$8,$9*
0 Add four rect primitives between the rounded corners*
20,1,$1+$1,$2,$3,$4,$5,0*
20,1,$1+$1,$4,$5,$6,$7,0*
20,1,$1+$1,$6,$7,$8,$9,0*
20,1,$1+$1,$8,$9,$2,$3,0*%
G04 Aperture macros list end*
%TA.AperFunction,Profile*%
%ADD10C,0.120000*%
%TD*%
%ADD11RoundRect,0.294750X0.243750X0.456250X-0.243750X0.456250X-0.243750X-0.456250X0.243750X-0.456250X0*%
%ADD12RoundRect,0.198500X-0.147500X-0.172500X0.147500X-0.172500X0.147500X0.172500X-0.147500X0.172500X0*%
%ADD13RoundRect,0.198500X0.147500X0.172500X-0.147500X0.172500X-0.147500X-0.172500X0.147500X-0.172500X0*%
%ADD14RoundRect,0.051000X1.000000X0.750000X-1.000000X0.750000X-1.000000X-0.750000X1.000000X-0.750000X0*%
%ADD15RoundRect,0.051000X1.000000X1.900000X-1.000000X1.900000X-1.000000X-1.900000X1.000000X-1.900000X0*%
%ADD16RoundRect,0.201000X-0.650000X-0.150000X0.650000X-0.150000X0.650000X0.150000X-0.650000X0.150000X0*%
%ADD17RoundRect,0.198500X-0.172500X0.147500X-0.172500X-0.147500X0.172500X-0.147500X0.172500X0.147500X0*%
%ADD18RoundRect,0.101000X-0.050000X0.387500X-0.050000X-0.387500X0.050000X-0.387500X0.050000X0.387500X0*%
%ADD19RoundRect,0.101000X-0.387500X0.050000X-0.387500X-0.050000X0.387500X-0.050000X0.387500X0.050000X0*%
%ADD20RoundRect,0.195000X-1.456000X1.456000X-1.456000X-1.456000X1.456000X-1.456000X1.456000X1.456000X0*%
%ADD21RoundRect,0.198500X0.172500X-0.147500X0.172500X0.147500X-0.172500X0.147500X-0.172500X-0.147500X0*%
%ADD22RoundRect,0.051000X-1.300000X0.950000X-1.300000X-0.950000X1.300000X-0.950000X1.300000X0.950000X0*%
%ADD23RoundRect,0.191000X0.140000X0.170000X-0.140000X0.170000X-0.140000X-0.170000X0.140000X-0.170000X0*%
%ADD24RoundRect,0.201000X0.512500X0.150000X-0.512500X0.150000X-0.512500X-0.150000X0.512500X-0.150000X0*%
%ADD25RoundRect,0.276000X0.225000X0.250000X-0.225000X0.250000X-0.225000X-0.250000X0.225000X-0.250000X0*%
%ADD26RoundRect,0.201000X-0.512500X-0.150000X0.512500X-0.150000X0.512500X0.150000X-0.512500X0.150000X0*%
%ADD27RoundRect,0.050000X0.500000X0.350000X-0.500000X0.350000X-0.500000X-0.350000X0.500000X-0.350000X0*%
%ADD28RoundRect,0.050000X0.300000X0.350000X-0.300000X0.350000X-0.300000X-0.350000X0.300000X-0.350000X0*%
%ADD29RoundRect,0.201000X0.587500X0.150000X-0.587500X0.150000X-0.587500X-0.150000X0.587500X-0.150000X0*%
%ADD30RoundRect,0.191000X-0.170000X0.140000X-0.170000X-0.140000X0.170000X-0.140000X0.170000X0.140000X0*%
%ADD31RoundRect,0.191000X-0.140000X-0.170000X0.140000X-0.170000X0.140000X0.170000X-0.140000X0.170000X0*%
%ADD32RoundRect,0.051000X0.300000X0.575000X-0.300000X0.575000X-0.300000X-0.575000X0.300000X-0.575000X0*%
%ADD33RoundRect,0.051000X0.150000X0.575000X-0.150000X0.575000X-0.150000X-0.575000X0.150000X-0.575000X0*%
%ADD34O,1.102000X1.902000*%
%ADD35O,1.102000X2.302000*%
%ADD36RoundRect,0.301000X-0.375000X-0.625000X0.375000X-0.625000X0.375000X0.625000X-0.375000X0.625000X0*%
%ADD37C,3.302000*%
%ADD38C,1.802000*%
%ADD39C,4.402000*%
G04 APERTURE END LIST*
D10*
%TO.C,P1*%
X4620000Y32750000D02*
X4625000Y38850000D01*
X4025000Y32725000D02*
X-4025000Y32725000D01*
X-4620000Y32750000D02*
X-4620000Y38850000D01*
X4025000Y32725000D02*
G75*
G03*
X4620000Y32750000I297500J12500D01*
G01*
X-4620000Y32750000D02*
G75*
G03*
X-4025000Y32725000I297500J-12500D01*
G01*
%TD*%
D11*
%TO.C,C2*%
X9907500Y19150000D03*
X8032500Y19150000D03*
%TD*%
D12*
%TO.C,C12*%
X-45000Y11682500D03*
X925000Y11682500D03*
%TD*%
%TO.C,C11*%
X-45000Y12682500D03*
X925000Y12682500D03*
%TD*%
D13*
%TO.C,C8*%
X-7115000Y10635000D03*
X-8085000Y10635000D03*
%TD*%
D14*
%TO.C,U1*%
X18280000Y16880000D03*
X18280000Y19180000D03*
D15*
X11980000Y19180000D03*
D14*
X18280000Y21480000D03*
%TD*%
D16*
%TO.C,U4*%
X-13155000Y28412500D03*
X-13155000Y27142500D03*
X-13155000Y25872500D03*
X-13155000Y24602500D03*
X-5955000Y24602500D03*
X-5955000Y25872500D03*
X-5955000Y27142500D03*
X-5955000Y28412500D03*
%TD*%
D17*
%TO.C,C17*%
X-14792519Y16724000D03*
X-14792519Y15754000D03*
%TD*%
D12*
%TO.C,C5*%
X-160000Y15715000D03*
X810000Y15715000D03*
%TD*%
D13*
%TO.C,C7*%
X-3992500Y20402500D03*
X-4962500Y20402500D03*
%TD*%
%TO.C,C10*%
X-11740000Y15279000D03*
X-12710000Y15279000D03*
%TD*%
%TO.C,R5*%
X810876Y14697500D03*
X-159124Y14697500D03*
%TD*%
%TO.C,C4*%
X-11500000Y14172500D03*
X-12470000Y14172500D03*
%TD*%
D11*
%TO.C,C1*%
X16387500Y23940000D03*
X14512500Y23940000D03*
%TD*%
D13*
%TO.C,C6*%
X-7342500Y20432500D03*
X-8312500Y20432500D03*
%TD*%
D18*
%TO.C,U5*%
X-3485000Y19122500D03*
X-3885000Y19122500D03*
X-4285000Y19122500D03*
X-4685000Y19122500D03*
X-5085000Y19122500D03*
X-5485000Y19122500D03*
X-5885000Y19122500D03*
X-6285000Y19122500D03*
X-6685000Y19122500D03*
X-7085000Y19122500D03*
X-7485000Y19122500D03*
X-7885000Y19122500D03*
X-8285000Y19122500D03*
X-8685000Y19122500D03*
D19*
X-9522500Y18285000D03*
X-9522500Y17885000D03*
X-9522500Y17485000D03*
X-9522500Y17085000D03*
X-9522500Y16685000D03*
X-9522500Y16285000D03*
X-9522500Y15885000D03*
X-9522500Y15485000D03*
X-9522500Y15085000D03*
X-9522500Y14685000D03*
X-9522500Y14285000D03*
X-9522500Y13885000D03*
X-9522500Y13485000D03*
X-9522500Y13085000D03*
D18*
X-8685000Y12247500D03*
X-8285000Y12247500D03*
X-7885000Y12247500D03*
X-7485000Y12247500D03*
X-7085000Y12247500D03*
X-6685000Y12247500D03*
X-6285000Y12247500D03*
X-5885000Y12247500D03*
X-5485000Y12247500D03*
X-5085000Y12247500D03*
X-4685000Y12247500D03*
X-4285000Y12247500D03*
X-3885000Y12247500D03*
X-3485000Y12247500D03*
D19*
X-2647500Y13085000D03*
X-2647500Y13485000D03*
X-2647500Y13885000D03*
X-2647500Y14285000D03*
X-2647500Y14685000D03*
X-2647500Y15085000D03*
X-2647500Y15485000D03*
X-2647500Y15885000D03*
X-2647500Y16285000D03*
X-2647500Y16685000D03*
X-2647500Y17085000D03*
X-2647500Y17485000D03*
X-2647500Y17885000D03*
X-2647500Y18285000D03*
D20*
X-6085000Y15685000D03*
%TD*%
D21*
%TO.C,C16*%
X-14792519Y18724000D03*
X-14792519Y19694000D03*
%TD*%
D13*
%TO.C,R6*%
X810876Y13697500D03*
X-159124Y13697500D03*
%TD*%
D21*
%TO.C,C3*%
X10000Y17255000D03*
X10000Y18225000D03*
%TD*%
D12*
%TO.C,C15*%
X-5940000Y29907500D03*
X-4970000Y29907500D03*
%TD*%
D13*
%TO.C,R8*%
X-12422519Y17024000D03*
X-13392519Y17024000D03*
%TD*%
D22*
%TO.C,Y1*%
X-17816838Y20112500D03*
X-17816838Y15812500D03*
%TD*%
D23*
%TO.C,R9*%
X-10910000Y29930000D03*
X-11870000Y29930000D03*
%TD*%
D24*
%TO.C,Q1*%
X-17220000Y24160000D03*
X-17220000Y25110000D03*
X-17220000Y26060000D03*
X-19495000Y26060000D03*
X-19495000Y24160000D03*
%TD*%
D25*
%TO.C,R4*%
X4610000Y9220000D03*
X3060000Y9220000D03*
%TD*%
D26*
%TO.C,S3*%
X18362500Y950000D03*
X18362500Y-950000D03*
X20637500Y0D03*
%TD*%
D25*
%TO.C,R1*%
X11820000Y9320000D03*
X10270000Y9320000D03*
%TD*%
D27*
%TO.C,U3*%
X5040000Y23335000D03*
D28*
X3340000Y23335000D03*
X3340000Y21335000D03*
X5240000Y21335000D03*
%TD*%
D24*
%TO.C,S2*%
X1137500Y-950000D03*
X1137500Y950000D03*
X-1137500Y0D03*
%TD*%
D29*
%TO.C,U2*%
X8250000Y9260000D03*
X8250000Y11160000D03*
X6375000Y10210000D03*
%TD*%
D30*
%TO.C,R2*%
X1854000Y29896000D03*
X1854000Y28936000D03*
%TD*%
D12*
%TO.C,C14*%
X-445000Y10050000D03*
X525000Y10050000D03*
%TD*%
D24*
%TO.C,S1*%
X-18362500Y-950000D03*
X-18362500Y950000D03*
X-20637500Y0D03*
%TD*%
D30*
%TO.C,C18*%
X-16810000Y-20000D03*
X-16810000Y-980000D03*
%TD*%
D17*
%TO.C,C9*%
X-2775000Y11057500D03*
X-2775000Y10087500D03*
%TD*%
%TO.C,C13*%
X-1745000Y11057500D03*
X-1745000Y10087500D03*
%TD*%
D30*
%TO.C,C20*%
X16840000Y1956000D03*
X16840000Y996000D03*
%TD*%
%TO.C,R3*%
X-2430000Y29880000D03*
X-2430000Y28920000D03*
%TD*%
%TO.C,C19*%
X2700000Y40000D03*
X2700000Y-920000D03*
%TD*%
D31*
%TO.C,R7*%
X-13810000Y29940000D03*
X-12850000Y29940000D03*
%TD*%
D32*
%TO.C,P1*%
X3200000Y32125000D03*
X2400000Y32125000D03*
D33*
X1250000Y32125000D03*
X250000Y32125000D03*
X-250000Y32125000D03*
X-1250000Y32125000D03*
D32*
X-2400000Y32125000D03*
X-3200000Y32125000D03*
X-3200000Y32125000D03*
X-2400000Y32125000D03*
D33*
X-1750000Y32125000D03*
X-750000Y32125000D03*
X750000Y32125000D03*
X1750000Y32125000D03*
D32*
X2400000Y32125000D03*
X3200000Y32125000D03*
D34*
X5619999Y33349999D03*
D35*
X5619999Y37349999D03*
D34*
X-5619999Y33349999D03*
D35*
X-5619999Y37349999D03*
%TD*%
D36*
%TO.C,F1*%
X7030000Y25840000D03*
X9830000Y25840000D03*
%TD*%
D37*
%TO.C,H3*%
X0Y-29000000D03*
%TD*%
D38*
%TO.C,REF\u002A\u002A*%
X24580000Y0D03*
X14420000Y0D03*
%TD*%
%TO.C,REF\u002A\u002A*%
X5080000Y0D03*
X-5080000Y0D03*
%TD*%
D37*
%TO.C,H2*%
X-27000000Y14000000D03*
%TD*%
%TO.C,H1*%
X27000000Y14000000D03*
%TD*%
D38*
%TO.C,REF\u002A\u002A*%
X-14420000Y0D03*
X-24580000Y0D03*
%TD*%
D39*
%TO.C,H4*%
X-11000000Y-14000000D03*
%TD*%
%TO.C,H5*%
X11000000Y-14000000D03*
%TD*%
M02*
