%TF.GenerationSoftware,KiCad,Pcbnew,(7.0.0-0)*%
%TF.CreationDate,2023-03-14T21:41:36-05:00*%
%TF.ProjectId,RP2040_minimal,52503230-3430-45f6-9d69-6e696d616c2e,REV1*%
%TF.SameCoordinates,Original*%
%TF.FileFunction,Copper,L1,Top*%
%TF.FilePolarity,Positive*%
%FSLAX46Y46*%
G04 Gerber Fmt 4.6, Leading zero omitted, Abs format (unit mm)*
G04 Created by KiCad (PCBNEW (7.0.0-0)) date 2023-03-14 21:41:36*
%MOMM*%
%LPD*%
G01*
G04 APERTURE LIST*
G04 Aperture macros list*
%AMRoundRect*
0 Rectangle with rounded corners*
0 $1 Rounding radius*
0 $2 $3 $4 $5 $6 $7 $8 $9 X,Y pos of 4 corners*
0 Add a 4 corners polygon primitive as box body*
4,1,4,$2,$3,$4,$5,$6,$7,$8,$9,$2,$3,0*
0 Add four circle primitives for the rounded corners*
1,1,$1+$1,$2,$3*
1,1,$1+$1,$4,$5*
1,1,$1+$1,$6,$7*
1,1,$1+$1,$8,$9*
0 Add four rect primitives between the rounded corners*
20,1,$1+$1,$2,$3,$4,$5,0*
20,1,$1+$1,$4,$5,$6,$7,0*
20,1,$1+$1,$6,$7,$8,$9,0*
20,1,$1+$1,$8,$9,$2,$3,0*%
G04 Aperture macros list end*
%TA.AperFunction,SMDPad,CuDef*%
%ADD10RoundRect,0.243750X0.243750X0.456250X-0.243750X0.456250X-0.243750X-0.456250X0.243750X-0.456250X0*%
%TD*%
%TA.AperFunction,SMDPad,CuDef*%
%ADD11RoundRect,0.147500X-0.147500X-0.172500X0.147500X-0.172500X0.147500X0.172500X-0.147500X0.172500X0*%
%TD*%
%TA.AperFunction,SMDPad,CuDef*%
%ADD12RoundRect,0.147500X0.147500X0.172500X-0.147500X0.172500X-0.147500X-0.172500X0.147500X-0.172500X0*%
%TD*%
%TA.AperFunction,SMDPad,CuDef*%
%ADD13R,2.000000X1.500000*%
%TD*%
%TA.AperFunction,SMDPad,CuDef*%
%ADD14R,2.000000X3.800000*%
%TD*%
%TA.AperFunction,SMDPad,CuDef*%
%ADD15RoundRect,0.150000X-0.650000X-0.150000X0.650000X-0.150000X0.650000X0.150000X-0.650000X0.150000X0*%
%TD*%
%TA.AperFunction,SMDPad,CuDef*%
%ADD16RoundRect,0.147500X-0.172500X0.147500X-0.172500X-0.147500X0.172500X-0.147500X0.172500X0.147500X0*%
%TD*%
%TA.AperFunction,SMDPad,CuDef*%
%ADD17RoundRect,0.050000X-0.050000X0.387500X-0.050000X-0.387500X0.050000X-0.387500X0.050000X0.387500X0*%
%TD*%
%TA.AperFunction,SMDPad,CuDef*%
%ADD18RoundRect,0.050000X-0.387500X0.050000X-0.387500X-0.050000X0.387500X-0.050000X0.387500X0.050000X0*%
%TD*%
%TA.AperFunction,ComponentPad*%
%ADD19C,0.600000*%
%TD*%
%TA.AperFunction,SMDPad,CuDef*%
%ADD20RoundRect,0.144000X-1.456000X1.456000X-1.456000X-1.456000X1.456000X-1.456000X1.456000X1.456000X0*%
%TD*%
%TA.AperFunction,SMDPad,CuDef*%
%ADD21RoundRect,0.147500X0.172500X-0.147500X0.172500X0.147500X-0.172500X0.147500X-0.172500X-0.147500X0*%
%TD*%
%TA.AperFunction,SMDPad,CuDef*%
%ADD22R,2.600000X1.900000*%
%TD*%
%TA.AperFunction,SMDPad,CuDef*%
%ADD23RoundRect,0.140000X0.140000X0.170000X-0.140000X0.170000X-0.140000X-0.170000X0.140000X-0.170000X0*%
%TD*%
%TA.AperFunction,SMDPad,CuDef*%
%ADD24RoundRect,0.150000X0.512500X0.150000X-0.512500X0.150000X-0.512500X-0.150000X0.512500X-0.150000X0*%
%TD*%
%TA.AperFunction,SMDPad,CuDef*%
%ADD25RoundRect,0.225000X0.225000X0.250000X-0.225000X0.250000X-0.225000X-0.250000X0.225000X-0.250000X0*%
%TD*%
%TA.AperFunction,SMDPad,CuDef*%
%ADD26RoundRect,0.150000X-0.512500X-0.150000X0.512500X-0.150000X0.512500X0.150000X-0.512500X0.150000X0*%
%TD*%
%TA.AperFunction,SMDPad,CuDef*%
%ADD27R,1.000000X0.700000*%
%TD*%
%TA.AperFunction,SMDPad,CuDef*%
%ADD28R,0.600000X0.700000*%
%TD*%
%TA.AperFunction,SMDPad,CuDef*%
%ADD29RoundRect,0.150000X0.587500X0.150000X-0.587500X0.150000X-0.587500X-0.150000X0.587500X-0.150000X0*%
%TD*%
%TA.AperFunction,SMDPad,CuDef*%
%ADD30RoundRect,0.140000X-0.170000X0.140000X-0.170000X-0.140000X0.170000X-0.140000X0.170000X0.140000X0*%
%TD*%
%TA.AperFunction,SMDPad,CuDef*%
%ADD31RoundRect,0.140000X-0.140000X-0.170000X0.140000X-0.170000X0.140000X0.170000X-0.140000X0.170000X0*%
%TD*%
%TA.AperFunction,SMDPad,CuDef*%
%ADD32R,0.600000X1.150000*%
%TD*%
%TA.AperFunction,SMDPad,CuDef*%
%ADD33R,0.300000X1.150000*%
%TD*%
%TA.AperFunction,ComponentPad*%
%ADD34O,1.000000X1.800000*%
%TD*%
%TA.AperFunction,ComponentPad*%
%ADD35O,1.000000X2.200000*%
%TD*%
%TA.AperFunction,SMDPad,CuDef*%
%ADD36RoundRect,0.250000X-0.375000X-0.625000X0.375000X-0.625000X0.375000X0.625000X-0.375000X0.625000X0*%
%TD*%
%TA.AperFunction,ViaPad*%
%ADD37C,0.600000*%
%TD*%
%TA.AperFunction,Conductor*%
%ADD38C,0.200000*%
%TD*%
%TA.AperFunction,Conductor*%
%ADD39C,0.150000*%
%TD*%
%TA.AperFunction,Conductor*%
%ADD40C,0.400000*%
%TD*%
%TA.AperFunction,Conductor*%
%ADD41C,0.600000*%
%TD*%
%TA.AperFunction,Conductor*%
%ADD42C,0.250000*%
%TD*%
%TA.AperFunction,Conductor*%
%ADD43C,0.800000*%
%TD*%
%TA.AperFunction,Conductor*%
%ADD44C,0.300000*%
%TD*%
G04 APERTURE END LIST*
D10*
%TO.P,C2,1*%
%TO.N,+3V3*%
X9907500Y19150000D03*
%TO.P,C2,2*%
%TO.N,GND*%
X8032500Y19150000D03*
%TD*%
D11*
%TO.P,C12,1*%
%TO.N,+3V3*%
X-45000Y11682500D03*
%TO.P,C12,2*%
%TO.N,GND*%
X925000Y11682500D03*
%TD*%
%TO.P,C11,1*%
%TO.N,+1V1*%
X-45000Y12682500D03*
%TO.P,C11,2*%
%TO.N,GND*%
X925000Y12682500D03*
%TD*%
D12*
%TO.P,C8,1*%
%TO.N,+3V3*%
X-7115000Y10635000D03*
%TO.P,C8,2*%
%TO.N,GND*%
X-8085000Y10635000D03*
%TD*%
D13*
%TO.P,U1,1,GND*%
%TO.N,GND*%
X18279999Y16879999D03*
%TO.P,U1,2,VO*%
%TO.N,+3V3*%
X18279999Y19179999D03*
D14*
X11979999Y19179999D03*
D13*
%TO.P,U1,3,VI*%
%TO.N,+5V*%
X18279999Y21479999D03*
%TD*%
D15*
%TO.P,U4,1,~{CS}*%
%TO.N,/QSPI_SS*%
X-13155000Y28412500D03*
%TO.P,U4,2,DO(IO1)*%
%TO.N,/QSPI_SD1*%
X-13155000Y27142500D03*
%TO.P,U4,3,IO2*%
%TO.N,/QSPI_SD2*%
X-13155000Y25872500D03*
%TO.P,U4,4,GND*%
%TO.N,GND*%
X-13155000Y24602500D03*
%TO.P,U4,5,DI(IO0)*%
%TO.N,/QSPI_SD0*%
X-5955000Y24602500D03*
%TO.P,U4,6,CLK*%
%TO.N,/QSPI_SCLK*%
X-5955000Y25872500D03*
%TO.P,U4,7,IO3*%
%TO.N,/QSPI_SD3*%
X-5955000Y27142500D03*
%TO.P,U4,8,VCC*%
%TO.N,+3V3*%
X-5955000Y28412500D03*
%TD*%
D16*
%TO.P,C17,1*%
%TO.N,Net-(C17-Pad1)*%
X-14792519Y16724000D03*
%TO.P,C17,2*%
%TO.N,GND*%
X-14792519Y15754000D03*
%TD*%
D11*
%TO.P,C5,1*%
%TO.N,+3V3*%
X-160000Y15715000D03*
%TO.P,C5,2*%
%TO.N,GND*%
X810000Y15715000D03*
%TD*%
D12*
%TO.P,C7,1*%
%TO.N,+3V3*%
X-3992500Y20402500D03*
%TO.P,C7,2*%
%TO.N,GND*%
X-4962500Y20402500D03*
%TD*%
%TO.P,C10,1*%
%TO.N,+3V3*%
X-11740000Y15279000D03*
%TO.P,C10,2*%
%TO.N,GND*%
X-12710000Y15279000D03*
%TD*%
%TO.P,R5,1*%
%TO.N,/USB_D+*%
X810876Y14697500D03*
%TO.P,R5,2*%
%TO.N,Net-(U5-USB_DP)*%
X-159124Y14697500D03*
%TD*%
%TO.P,C4,1*%
%TO.N,+1V1*%
X-11500000Y14172500D03*
%TO.P,C4,2*%
%TO.N,GND*%
X-12470000Y14172500D03*
%TD*%
D10*
%TO.P,C1,1*%
%TO.N,+5V*%
X16387500Y23940000D03*
%TO.P,C1,2*%
%TO.N,GND*%
X14512500Y23940000D03*
%TD*%
D12*
%TO.P,C6,1*%
%TO.N,+3V3*%
X-7342500Y20432500D03*
%TO.P,C6,2*%
%TO.N,GND*%
X-8312500Y20432500D03*
%TD*%
D17*
%TO.P,U5,1,IOVDD*%
%TO.N,+3V3*%
X-3485000Y19122500D03*
%TO.P,U5,2,GPIO0*%
%TO.N,/GPIO0*%
X-3885000Y19122500D03*
%TO.P,U5,3,GPIO1*%
%TO.N,/GPIO1*%
X-4285000Y19122500D03*
%TO.P,U5,4,GPIO2*%
%TO.N,/GPIO2*%
X-4685000Y19122500D03*
%TO.P,U5,5,GPIO3*%
%TO.N,/GPIO3*%
X-5085000Y19122500D03*
%TO.P,U5,6,GPIO4*%
%TO.N,/GPIO4*%
X-5485000Y19122500D03*
%TO.P,U5,7,GPIO5*%
%TO.N,/GPIO5*%
X-5885000Y19122500D03*
%TO.P,U5,8,GPIO6*%
%TO.N,/GPIO6*%
X-6285000Y19122500D03*
%TO.P,U5,9,GPIO7*%
%TO.N,/GPIO7*%
X-6685000Y19122500D03*
%TO.P,U5,10,IOVDD*%
%TO.N,+3V3*%
X-7085000Y19122500D03*
%TO.P,U5,11,GPIO8*%
%TO.N,/GPIO8*%
X-7485000Y19122500D03*
%TO.P,U5,12,GPIO9*%
%TO.N,/GPIO9*%
X-7885000Y19122500D03*
%TO.P,U5,13,GPIO10*%
%TO.N,/GPIO10*%
X-8285000Y19122500D03*
%TO.P,U5,14,GPIO11*%
%TO.N,/GPIO11*%
X-8685000Y19122500D03*
D18*
%TO.P,U5,15,GPIO12*%
%TO.N,/GPIO12*%
X-9522500Y18285000D03*
%TO.P,U5,16,GPIO13*%
%TO.N,/GPIO13*%
X-9522500Y17885000D03*
%TO.P,U5,17,GPIO14*%
%TO.N,/GPIO14*%
X-9522500Y17485000D03*
%TO.P,U5,18,GPIO15*%
%TO.N,LED_D_3V*%
X-9522500Y17085000D03*
%TO.P,U5,19,TESTEN*%
%TO.N,GND*%
X-9522500Y16685000D03*
%TO.P,U5,20,XIN*%
%TO.N,/XIN*%
X-9522500Y16285000D03*
%TO.P,U5,21,XOUT*%
%TO.N,/XOUT*%
X-9522500Y15885000D03*
%TO.P,U5,22,IOVDD*%
%TO.N,+3V3*%
X-9522500Y15485000D03*
%TO.P,U5,23,DVDD*%
%TO.N,+1V1*%
X-9522500Y15085000D03*
%TO.P,U5,24,SWCLK*%
%TO.N,SWCLK*%
X-9522500Y14685000D03*
%TO.P,U5,25,SWD*%
%TO.N,SWD*%
X-9522500Y14285000D03*
%TO.P,U5,26,RUN*%
%TO.N,RUN*%
X-9522500Y13885000D03*
%TO.P,U5,27,GPIO16*%
%TO.N,/GPIO16*%
X-9522500Y13485000D03*
%TO.P,U5,28,GPIO17*%
%TO.N,/GPIO17*%
X-9522500Y13085000D03*
D17*
%TO.P,U5,29,GPIO18*%
%TO.N,GPIO18*%
X-8685000Y12247500D03*
%TO.P,U5,30,GPIO19*%
%TO.N,GPIO19*%
X-8285000Y12247500D03*
%TO.P,U5,31,GPIO20*%
%TO.N,/GPIO20*%
X-7885000Y12247500D03*
%TO.P,U5,32,GPIO21*%
%TO.N,/GPIO21*%
X-7485000Y12247500D03*
%TO.P,U5,33,IOVDD*%
%TO.N,+3V3*%
X-7085000Y12247500D03*
%TO.P,U5,34,GPIO22*%
%TO.N,/GPIO22*%
X-6685000Y12247500D03*
%TO.P,U5,35,GPIO23*%
%TO.N,/GPIO23*%
X-6285000Y12247500D03*
%TO.P,U5,36,GPIO24*%
%TO.N,/GPIO24*%
X-5885000Y12247500D03*
%TO.P,U5,37,GPIO25*%
%TO.N,/GPIO25*%
X-5485000Y12247500D03*
%TO.P,U5,38,GPIO26_ADC0*%
%TO.N,RP_ADC0*%
X-5085000Y12247500D03*
%TO.P,U5,39,GPIO27_ADC1*%
%TO.N,RP_ADC1*%
X-4685000Y12247500D03*
%TO.P,U5,40,GPIO28_ADC2*%
%TO.N,RP_ADC2*%
X-4285000Y12247500D03*
%TO.P,U5,41,GPIO29_ADC3*%
%TO.N,/GPIO29_ADC3*%
X-3885000Y12247500D03*
%TO.P,U5,42,IOVDD*%
%TO.N,+3V3*%
X-3485000Y12247500D03*
D18*
%TO.P,U5,43,ADC_AVDD*%
%TO.N,ADC_AVDD*%
X-2647500Y13085000D03*
%TO.P,U5,44,VREG_IN*%
%TO.N,+3V3*%
X-2647500Y13485000D03*
%TO.P,U5,45,VREG_VOUT*%
%TO.N,+1V1*%
X-2647500Y13885000D03*
%TO.P,U5,46,USB_DM*%
%TO.N,Net-(U5-USB_DM)*%
X-2647500Y14285000D03*
%TO.P,U5,47,USB_DP*%
%TO.N,Net-(U5-USB_DP)*%
X-2647500Y14685000D03*
%TO.P,U5,48,USB_VDD*%
%TO.N,+3V3*%
X-2647500Y15085000D03*
%TO.P,U5,49,IOVDD*%
X-2647500Y15485000D03*
%TO.P,U5,50,DVDD*%
%TO.N,+1V1*%
X-2647500Y15885000D03*
%TO.P,U5,51,QSPI_SD3*%
%TO.N,/QSPI_SD3*%
X-2647500Y16285000D03*
%TO.P,U5,52,QSPI_SCLK*%
%TO.N,/QSPI_SCLK*%
X-2647500Y16685000D03*
%TO.P,U5,53,QSPI_SD0*%
%TO.N,/QSPI_SD0*%
X-2647500Y17085000D03*
%TO.P,U5,54,QSPI_SD2*%
%TO.N,/QSPI_SD2*%
X-2647500Y17485000D03*
%TO.P,U5,55,QSPI_SD1*%
%TO.N,/QSPI_SD1*%
X-2647500Y17885000D03*
%TO.P,U5,56,QSPI_SS*%
%TO.N,/QSPI_SS*%
X-2647500Y18285000D03*
D19*
%TO.P,U5,57,GND*%
%TO.N,GND*%
X-4810000Y16960000D03*
X-6085000Y16960000D03*
X-7360000Y16960000D03*
X-4810000Y15685000D03*
X-6085000Y15685000D03*
D20*
X-6085000Y15685000D03*
D19*
X-7360000Y15685000D03*
X-4810000Y14410000D03*
X-6085000Y14410000D03*
X-7360000Y14410000D03*
%TD*%
D21*
%TO.P,C16,1*%
%TO.N,/XIN*%
X-14792519Y18724000D03*
%TO.P,C16,2*%
%TO.N,GND*%
X-14792519Y19694000D03*
%TD*%
D12*
%TO.P,R6,1*%
%TO.N,/USB_D-*%
X810876Y13697500D03*
%TO.P,R6,2*%
%TO.N,Net-(U5-USB_DM)*%
X-159124Y13697500D03*
%TD*%
D21*
%TO.P,C3,1*%
%TO.N,+1V1*%
X10000Y17255000D03*
%TO.P,C3,2*%
%TO.N,GND*%
X10000Y18225000D03*
%TD*%
D11*
%TO.P,C15,1*%
%TO.N,+3V3*%
X-5940000Y29907500D03*
%TO.P,C15,2*%
%TO.N,GND*%
X-4970000Y29907500D03*
%TD*%
D12*
%TO.P,R8,1*%
%TO.N,/XOUT*%
X-12422519Y17024000D03*
%TO.P,R8,2*%
%TO.N,Net-(C17-Pad1)*%
X-13392519Y17024000D03*
%TD*%
D22*
%TO.P,Y1,1,1*%
%TO.N,/XIN*%
X-17816837Y20112499D03*
%TO.P,Y1,2,2*%
%TO.N,Net-(C17-Pad1)*%
X-17816837Y15812499D03*
%TD*%
D23*
%TO.P,R9,1*%
%TO.N,Net-(R9-Pad1)*%
X-10910000Y29930000D03*
%TO.P,R9,2*%
%TO.N,/QSPI_SS*%
X-11870000Y29930000D03*
%TD*%
D24*
%TO.P,Q1,1,NC*%
%TO.N,unconnected-(Q1-NC-Pad1)*%
X-17220000Y24160000D03*
%TO.P,Q1,2,A*%
%TO.N,LED_D_3V*%
X-17220000Y25110000D03*
%TO.P,Q1,3,GND*%
%TO.N,GND*%
X-17220000Y26060000D03*
%TO.P,Q1,4,Y*%
%TO.N,LED_D_5V*%
X-19495000Y26060000D03*
%TO.P,Q1,5,VCC*%
%TO.N,+5V*%
X-19495000Y24160000D03*
%TD*%
D25*
%TO.P,R4,1*%
%TO.N,+3V*%
X4610000Y9220000D03*
%TO.P,R4,2*%
%TO.N,ADC_AVDD*%
X3060000Y9220000D03*
%TD*%
D26*
%TO.P,S3,1,VCC*%
%TO.N,+3V3*%
X18362500Y950000D03*
%TO.P,S3,2,VOUT*%
%TO.N,RP_ADC2*%
X18362500Y-950000D03*
%TO.P,S3,3,GND*%
%TO.N,GND*%
X20637500Y0D03*
%TD*%
D25*
%TO.P,R1,1*%
%TO.N,+3V3*%
X11820000Y9320000D03*
%TO.P,R1,2*%
%TO.N,+3V*%
X10270000Y9320000D03*
%TD*%
D27*
%TO.P,U3,1,GND*%
%TO.N,GND*%
X5039999Y23334999D03*
D28*
%TO.P,U3,2,I/O1*%
%TO.N,/USB_D-*%
X3339999Y23334999D03*
%TO.P,U3,3,I/O2*%
%TO.N,/USB_D+*%
X3339999Y21334999D03*
%TO.P,U3,4,VCC*%
%TO.N,VBUS*%
X5239999Y21334999D03*
%TD*%
D24*
%TO.P,S2,1,VCC*%
%TO.N,+3V3*%
X1137500Y-950000D03*
%TO.P,S2,2,VOUT*%
%TO.N,RP_ADC1*%
X1137500Y950000D03*
%TO.P,S2,3,GND*%
%TO.N,GND*%
X-1137500Y0D03*
%TD*%
D29*
%TO.P,U2,1,K*%
%TO.N,+3V*%
X8250000Y9260000D03*
%TO.P,U2,2,A*%
%TO.N,GND*%
X8250000Y11160000D03*
%TO.P,U2,3*%
%TO.N,N/C*%
X6375000Y10210000D03*
%TD*%
D30*
%TO.P,R2,1*%
%TO.N,Net-(P1-CC1)*%
X1854000Y29896000D03*
%TO.P,R2,2*%
%TO.N,GND*%
X1854000Y28936000D03*
%TD*%
D11*
%TO.P,C14,1*%
%TO.N,ADC_AVDD*%
X-445000Y10050000D03*
%TO.P,C14,2*%
%TO.N,GND*%
X525000Y10050000D03*
%TD*%
D24*
%TO.P,S1,1,VCC*%
%TO.N,+3V3*%
X-18362500Y-950000D03*
%TO.P,S1,2,VOUT*%
%TO.N,RP_ADC0*%
X-18362500Y950000D03*
%TO.P,S1,3,GND*%
%TO.N,GND*%
X-20637500Y0D03*
%TD*%
D30*
%TO.P,C18,1*%
%TO.N,GND*%
X-16810000Y-20000D03*
%TO.P,C18,2*%
%TO.N,+3V3*%
X-16810000Y-980000D03*
%TD*%
D16*
%TO.P,C9,1*%
%TO.N,+3V3*%
X-2775000Y11057500D03*
%TO.P,C9,2*%
%TO.N,GND*%
X-2775000Y10087500D03*
%TD*%
%TO.P,C13,1*%
%TO.N,ADC_AVDD*%
X-1745000Y11057500D03*
%TO.P,C13,2*%
%TO.N,GND*%
X-1745000Y10087500D03*
%TD*%
D30*
%TO.P,C20,1*%
%TO.N,GND*%
X16840000Y1956000D03*
%TO.P,C20,2*%
%TO.N,+3V3*%
X16840000Y996000D03*
%TD*%
%TO.P,R3,1*%
%TO.N,Net-(P1-CC2)*%
X-2430000Y29880000D03*
%TO.P,R3,2*%
%TO.N,GND*%
X-2430000Y28920000D03*
%TD*%
%TO.P,C19,1*%
%TO.N,GND*%
X2700000Y40000D03*
%TO.P,C19,2*%
%TO.N,+3V3*%
X2700000Y-920000D03*
%TD*%
D31*
%TO.P,R7,1*%
%TO.N,+3V3*%
X-13810000Y29940000D03*
%TO.P,R7,2*%
%TO.N,/QSPI_SS*%
X-12850000Y29940000D03*
%TD*%
D32*
%TO.P,P1,A1*%
%TO.N,GND*%
X3199999Y32124999D03*
%TO.P,P1,A4*%
%TO.N,VBUS*%
X2399999Y32124999D03*
D33*
%TO.P,P1,A5*%
%TO.N,Net-(P1-CC1)*%
X1249999Y32124999D03*
%TO.P,P1,A6*%
%TO.N,/USB_D+*%
X249999Y32124999D03*
%TO.P,P1,A7*%
%TO.N,/USB_D-*%
X-249999Y32124999D03*
%TO.P,P1,A8*%
%TO.N,N/C*%
X-1249999Y32124999D03*
D32*
%TO.P,P1,A9*%
%TO.N,VBUS*%
X-2399999Y32124999D03*
%TO.P,P1,A12*%
%TO.N,GND*%
X-3199999Y32124999D03*
%TO.P,P1,B1*%
X-3199999Y32124999D03*
%TO.P,P1,B4*%
%TO.N,VBUS*%
X-2399999Y32124999D03*
D33*
%TO.P,P1,B5*%
%TO.N,Net-(P1-CC2)*%
X-1749999Y32124999D03*
%TO.P,P1,B6*%
%TO.N,/USB_D+*%
X-749999Y32124999D03*
%TO.P,P1,B7*%
%TO.N,/USB_D-*%
X749999Y32124999D03*
%TO.P,P1,B8*%
%TO.N,N/C*%
X1749999Y32124999D03*
D32*
%TO.P,P1,B9*%
%TO.N,VBUS*%
X2399999Y32124999D03*
%TO.P,P1,B12*%
%TO.N,GND*%
X3199999Y32124999D03*
D34*
%TO.P,P1,S1*%
%TO.N,N/C*%
X5619999Y33349999D03*
D35*
X5619999Y37349999D03*
D34*
X-5619999Y33349999D03*
D35*
X-5619999Y37349999D03*
%TD*%
D36*
%TO.P,F1,1*%
%TO.N,VBUS*%
X7030000Y25840000D03*
%TO.P,F1,2*%
%TO.N,+5V*%
X9830000Y25840000D03*
%TD*%
D37*
%TO.N,+3V3*%
X19810000Y19220000D03*
X-13760000Y30880000D03*
%TO.N,+5V*%
X-27220000Y-2130000D03*
X-29010000Y-2060000D03*
%TO.N,+3V3*%
X-3930000Y13280000D03*
X-7090000Y13400000D03*
X11795000Y10430000D03*
X170000Y16440000D03*
X15990000Y940000D03*
X-16810000Y-1810000D03*
X2690000Y-1690000D03*
X-13700000Y13270000D03*
X-7120000Y9830000D03*
X-3620000Y10970000D03*
X0Y10940000D03*
X-7300000Y21220000D03*
X-4110000Y21140000D03*
X9907500Y20562500D03*
X9907500Y17760000D03*
X11980000Y22180000D03*
X10500000Y22200000D03*
X12440000Y16080000D03*
X11010000Y16140000D03*
X-5940000Y30700000D03*
%TO.N,GND*%
X-13885000Y16247500D03*
X-18692519Y17834000D03*
X-15806838Y16932500D03*
X-20655000Y22097500D03*
X-16962519Y21946500D03*
X-17292519Y13134000D03*
X-5817500Y20372500D03*
X9846000Y11270000D03*
X-8927500Y10647500D03*
X-12622019Y18645000D03*
X-1753648Y9316824D03*
X3616250Y31053750D03*
X-9207500Y20422500D03*
X-16190000Y670000D03*
X13025000Y23780000D03*
X4050000Y31860000D03*
X-4191881Y31851995D03*
X-17210000Y27030000D03*
X1755000Y11682500D03*
X-3680000Y31100000D03*
X-4720000Y29030000D03*
X-2460000Y-60000D03*
X-14781019Y14962000D03*
X-13521990Y15279006D03*
X5433234Y22446766D03*
X-2450000Y28030000D03*
X-20695000Y13134000D03*
X16840000Y2718000D03*
X1742500Y12672500D03*
X2660000Y930000D03*
X6594375Y19100000D03*
X21920000Y178000D03*
X-2830000Y9306824D03*
X-21950000Y-60000D03*
X-14792519Y20550000D03*
X16250000Y16980000D03*
X1615000Y15735000D03*
X-11995331Y24217169D03*
X3134000Y29124000D03*
X70000Y19080000D03*
X-13260000Y14158000D03*
X1355000Y10027500D03*
X-15886838Y18912500D03*
%TO.N,VBUS*%
X2606789Y31209297D03*
X-2433180Y31076713D03*
%TO.N,+1V1*%
X-1284994Y15885000D03*
X-3985000Y14995000D03*
X-10940000Y14860000D03*
X-8195000Y15047500D03*
%TO.N,Net-(D6-DOUT)*%
X23952000Y24308000D03*
X31284502Y749500D03*
%TO.N,/USB_D-*%
X-375500Y30741234D03*
X405000Y29645000D03*
%TO.N,LED_D_5V*%
X-20640000Y26060000D03*
%TO.N,+5V*%
X32690000Y-6010000D03*
X30950000Y-6050000D03*
X16903000Y-4257000D03*
X-17630000Y-24730000D03*
X-31040000Y-1510000D03*
X-21600000Y-3980000D03*
X-2120000Y-4090000D03*
X22061483Y22911483D03*
X32870000Y-2108000D03*
X17856000Y-27040000D03*
X-18370000Y24090000D03*
X-1850000Y-13930000D03*
%TO.N,Net-(D1-DOUT)*%
X-23546000Y23292000D03*
X-32000000Y1520000D03*
%TO.N,Net-(D2-DOUT)*%
X-33706000Y-1600000D03*
X-19990000Y-24206000D03*
%TO.N,Net-(D3-DOUT)*%
X-20244000Y-26492000D03*
X-1956000Y-15062000D03*
%TO.N,Net-(D4-DOUT)*%
X76000Y-13166000D03*
X-19482000Y-5664000D03*
%TO.N,Net-(D5-DOUT)*%
X31318000Y-584000D03*
X20142000Y-23190000D03*
%TO.N,Net-(P1-CC1)*%
X1854000Y30912000D03*
%TO.N,Net-(P1-CC2)*%
X-1702000Y30912000D03*
%TO.N,GPIO18*%
X-14656000Y-17856000D03*
%TO.N,GPIO19*%
X-1702000Y-10490000D03*
X7188000Y-16840000D03*
X-3480000Y-10490000D03*
%TO.N,Net-(D8-DOUT)*%
X-17704000Y-4648000D03*
X-940000Y-6426000D03*
%TO.N,Net-(D10-DIN)*%
X1854000Y-5156000D03*
X18618000Y-6680000D03*
%TO.N,Net-(D10-DOUT)*%
X21412000Y-4902000D03*
X19126000Y-24968000D03*
%TO.N,Net-(R9-Pad1)*%
X-10730000Y31010000D03*
%TD*%
D38*
%TO.N,+3V3*%
X18280000Y19180000D02*
X19770000Y19180000D01*
D39*
X19770000Y19180000D02*
X19810000Y19220000D01*
D38*
X-13810000Y29940000D02*
X-13810000Y30830000D01*
D39*
X-13810000Y30830000D02*
X-13760000Y30880000D01*
D40*
%TO.N,+5V*%
X-27220000Y-2130000D02*
X-27220000Y-3110000D01*
X-26350000Y-3980000D02*
X-21600000Y-3980000D01*
X-27220000Y-3110000D02*
X-26350000Y-3980000D01*
X-29000000Y-2050000D02*
X-28980000Y-2050000D01*
X-29010000Y-2060000D02*
X-29000000Y-2050000D01*
X-29020000Y-2050000D02*
X-29010000Y-2060000D01*
X-30500000Y-2050000D02*
X-29020000Y-2050000D01*
X-31040000Y-1510000D02*
X-30500000Y-2050000D01*
%TO.N,+3V3*%
X9907500Y20562500D02*
X9907500Y19150000D01*
X9907500Y17760000D02*
X9907500Y19150000D01*
D38*
X-7090000Y13400000D02*
X-7070000Y13247500D01*
%TO.N,ADC_AVDD*%
X3060000Y9220000D02*
X247500Y9220000D01*
X247500Y9220000D02*
X-540000Y10007500D01*
D40*
%TO.N,+3V3*%
X11795000Y10430000D02*
X11795000Y9380482D01*
D38*
X-160000Y15715000D02*
X-160000Y16110000D01*
X-160000Y16110000D02*
X170000Y16440000D01*
%TO.N,+1V1*%
X-140000Y17245000D02*
X0Y17245000D01*
X0Y17245000D02*
X0Y17169994D01*
X0Y17169994D02*
X-1284994Y15885000D01*
%TO.N,+3V3*%
X16840000Y996000D02*
X16046000Y996000D01*
X16046000Y996000D02*
X15990000Y940000D01*
X16800000Y930000D02*
X16800000Y956000D01*
X16800000Y956000D02*
X16840000Y996000D01*
X-16800000Y-1040000D02*
X-16810000Y-1810000D01*
D39*
X2690000Y-1690000D02*
X2700000Y-1620000D01*
D38*
X2700000Y-920000D02*
X2690000Y-1690000D01*
%TO.N,GND*%
X-12710000Y14160000D02*
X-13258000Y14160000D01*
X-13258000Y14160000D02*
X-13260000Y14158000D01*
%TO.N,+3V3*%
X-13700000Y13230000D02*
X-13750000Y13280000D01*
X-13700000Y13270000D02*
X-13700000Y13230000D01*
X-13740000Y13270000D02*
X-13700000Y13270000D01*
X-14072004Y13602004D02*
X-13740000Y13270000D01*
X-14072004Y14538496D02*
X-14072004Y13602004D01*
X-14047004Y14563496D02*
X-14072004Y14538496D01*
X-7115000Y10635000D02*
X-7115000Y9835000D01*
X-7115000Y9835000D02*
X-7120000Y9830000D01*
X-2775000Y11057500D02*
X-3532500Y11057500D01*
D39*
X-3532500Y11057500D02*
X-3620000Y10970000D01*
D38*
X-45000Y11682500D02*
X-45000Y10985000D01*
X-45000Y10985000D02*
X0Y10940000D01*
X-7300000Y21220000D02*
X-7290000Y21210000D01*
X-7290000Y21210000D02*
X-7290000Y20243750D01*
X-3992500Y20402500D02*
X-3992500Y20922500D01*
X-3992500Y20922500D02*
X-4167500Y21097500D01*
D40*
X9830000Y19150000D02*
X10000000Y19320000D01*
X12440000Y16080000D02*
X12440000Y18739518D01*
X11010000Y16140000D02*
X11660000Y16790000D01*
X11660000Y16790000D02*
X11660000Y18909518D01*
X11980000Y19180000D02*
X11980000Y20720000D01*
X11980000Y20720000D02*
X10500000Y22200000D01*
X12000000Y19410483D02*
X12000000Y22189518D01*
D39*
%TO.N,GND*%
X-4720000Y29030000D02*
X-4720000Y29997500D01*
X-4720000Y29997500D02*
X-4752500Y30030000D01*
D38*
%TO.N,+3V3*%
X-5940000Y29907500D02*
X-5940000Y30700000D01*
D41*
%TO.N,GND*%
X6594375Y19100000D02*
X7925625Y19100000D01*
D38*
X50000Y18305000D02*
X50000Y19060000D01*
D42*
X3670000Y31107500D02*
X3670000Y31475000D01*
D39*
X-8927500Y10647500D02*
X-8097500Y10647500D01*
X3124000Y29134000D02*
X3134000Y29124000D01*
D38*
X2244000Y29134000D02*
X3124000Y29134000D01*
X1732500Y12682500D02*
X925000Y12682500D01*
X-16190000Y670000D02*
X-16810000Y50000D01*
X-21950000Y-60000D02*
X-21900000Y-70000D01*
D39*
X-12380662Y24602500D02*
X-13155000Y24602500D01*
D38*
X1615000Y15735000D02*
X807500Y15735000D01*
X70000Y18285000D02*
X50000Y18305000D01*
X-17210000Y27030000D02*
X-17210000Y26145000D01*
X-11995331Y24217169D02*
X-12380662Y24602500D01*
D42*
X4030000Y31880000D02*
X4050000Y31860000D01*
D39*
X-13885000Y16247500D02*
X-13979019Y16247500D01*
D42*
X-3680000Y31100000D02*
X-3680000Y31645000D01*
X-3680000Y31645000D02*
X-3200000Y32125000D01*
D39*
X1280000Y10030000D02*
X1260000Y10050000D01*
D38*
X-21020000Y-70000D02*
X-21880000Y-70000D01*
D42*
X-3465000Y31860000D02*
X-4192500Y31860000D01*
D43*
X17380000Y16980000D02*
X17460000Y17060000D01*
D38*
X-12710000Y15279000D02*
X-13521984Y15279000D01*
D39*
X-16810000Y50000D02*
X-16810000Y-20000D01*
D38*
X925000Y11682500D02*
X1755000Y11682500D01*
D39*
X-8097500Y10647500D02*
X-8085000Y10635000D01*
X-2430000Y28920000D02*
X-2430000Y28050000D01*
D38*
X21920000Y178000D02*
X20815500Y178000D01*
X2710000Y20000D02*
X2710000Y840000D01*
D39*
X-14792519Y14973500D02*
X-14781019Y14962000D01*
D38*
X-1770000Y9333176D02*
X-1753648Y9316824D01*
D39*
X-5817500Y20372500D02*
X-5617500Y20572500D01*
D42*
X-3200000Y32125000D02*
X-3465000Y31860000D01*
D38*
X-13521984Y15279000D02*
X-13521990Y15279006D01*
D39*
X-14792519Y15754000D02*
X-14792519Y14973500D01*
D38*
X-20970000Y-20000D02*
X-21020000Y-70000D01*
X20815500Y178000D02*
X20637500Y0D01*
D39*
X-13979019Y16247500D02*
X-14472519Y15754000D01*
X16840000Y2718000D02*
X16770000Y2648000D01*
D40*
X5090000Y22790000D02*
X5090000Y23370000D01*
D43*
X14155000Y23780000D02*
X14235000Y23860000D01*
X13025000Y23780000D02*
X14155000Y23780000D01*
D38*
X-14792519Y19694000D02*
X-14792519Y20550000D01*
D42*
X3670000Y31475000D02*
X3265000Y31880000D01*
D39*
X-9522500Y16685000D02*
X-10662019Y16685000D01*
D38*
X-2830000Y9306824D02*
X-2830000Y9976824D01*
D39*
X-14472519Y15754000D02*
X-14792519Y15754000D01*
D40*
X5433234Y22446766D02*
X5090000Y22790000D01*
D42*
X3616250Y31053750D02*
X3670000Y31107500D01*
D44*
X9846000Y11270000D02*
X8690000Y11270000D01*
D38*
X-21900000Y-70000D02*
X-21890000Y-70000D01*
D44*
X8690000Y11270000D02*
X8526000Y11106000D01*
D38*
X16770000Y2648000D02*
X16770000Y2006000D01*
D39*
X-5617500Y20572500D02*
X-5262500Y20572500D01*
D38*
X-1550000Y-10000D02*
X-2370000Y-10000D01*
D43*
X16250000Y16980000D02*
X17380000Y16980000D01*
D38*
X-1770000Y9966824D02*
X-1770000Y9333176D01*
X-21880000Y-70000D02*
X-21950000Y-60000D01*
X-9207500Y20422500D02*
X-8395000Y20422500D01*
X1742500Y12672500D02*
X1732500Y12682500D01*
D42*
X4070000Y31880000D02*
X4050000Y31860000D01*
D39*
X-10662019Y16685000D02*
X-12622019Y18645000D01*
D42*
X3265000Y31880000D02*
X4030000Y31880000D01*
D39*
X1260000Y10050000D02*
X537831Y10050000D01*
D40*
%TO.N,VBUS*%
X2606789Y31209297D02*
X2606789Y30667211D01*
X7030000Y22400000D02*
X5965000Y21335000D01*
X2400000Y31416086D02*
X2400000Y32125000D01*
X2606789Y31209297D02*
X2400000Y31416086D01*
X5965000Y21335000D02*
X5240000Y21335000D01*
X-2400000Y31109893D02*
X-2400000Y32125000D01*
X2606789Y30667211D02*
X7030000Y26244000D01*
X7030000Y26244000D02*
X7030000Y22400000D01*
X-2433180Y31076713D02*
X-2400000Y31109893D01*
D39*
%TO.N,/XIN*%
X-15443019Y18073500D02*
X-16947838Y18073500D01*
X-12325283Y17924000D02*
X-13992519Y17924000D01*
X-9522500Y16285000D02*
X-10686283Y16285000D01*
X-10686283Y16285000D02*
X-12325283Y17924000D01*
X-16947838Y18073500D02*
X-18907338Y20033000D01*
X-14792519Y18724000D02*
X-15443019Y18073500D01*
X-13992519Y17924000D02*
X-14792519Y18724000D01*
%TO.N,/XOUT*%
X-9522500Y15885000D02*
X-11283519Y15885000D01*
X-11283519Y15885000D02*
X-12422519Y17024000D01*
D38*
%TO.N,+3V3*%
X-1594999Y15332499D02*
X-1059677Y15332499D01*
X-937176Y15455000D02*
X-420000Y15455000D01*
X-2607500Y15482500D02*
X-3445000Y15482500D01*
X-3485000Y19895000D02*
X-3992500Y20402500D01*
X-7115000Y10635000D02*
X-7115000Y12217500D01*
X-1939974Y13482500D02*
X-3437500Y13482500D01*
D39*
X-16840000Y-950000D02*
X-16810000Y-980000D01*
D38*
X-45000Y11682500D02*
X-695000Y12332500D01*
X-11991500Y14707500D02*
X-13903000Y14707500D01*
D39*
X-16950000Y-1120000D02*
X-16810000Y-980000D01*
D38*
X-3437500Y13482500D02*
X-3485000Y13435000D01*
X-420000Y15455000D02*
X-160000Y15715000D01*
X-2607500Y15082500D02*
X-3245000Y15082500D01*
X-13903000Y14707500D02*
X-14047004Y14563496D01*
X-2775000Y11077500D02*
X-2775000Y10870000D01*
X-1745000Y15482500D02*
X-2607500Y15482500D01*
X-11740000Y14959000D02*
X-11991500Y14707500D01*
X-7342500Y20432500D02*
X-7085000Y20175000D01*
X-3485000Y18457500D02*
X-3495000Y18447500D01*
D39*
X-5955000Y29722500D02*
X-5745000Y29932500D01*
D38*
X-7115000Y12217500D02*
X-7085000Y12247500D01*
X-11569000Y15450000D02*
X-11740000Y15279000D01*
X-7200000Y20647500D02*
X-7342500Y20505000D01*
X-3485000Y12247500D02*
X-3485000Y11787500D01*
X-5955000Y28412500D02*
X-5955000Y29722500D01*
X-7085000Y20175000D02*
X-7085000Y19122500D01*
X-3485000Y19122500D02*
X-3485000Y19895000D01*
X-789975Y12332500D02*
X-1939974Y13482500D01*
X-7085000Y12247500D02*
X-7085000Y13232500D01*
X16840000Y996000D02*
X16886000Y950000D01*
X-18362500Y-950000D02*
X-16840000Y-950000D01*
X-2607500Y15082500D02*
X-1844998Y15082500D01*
X-1594999Y15332499D02*
X-1745000Y15482500D01*
X-7342500Y20432500D02*
X-7342500Y20467500D01*
X-695000Y12332500D02*
X-789975Y12332500D01*
X-7085000Y18382500D02*
X-7095000Y18372500D01*
X-1059677Y15332499D02*
X-937176Y15455000D01*
X-8910000Y15450000D02*
X-11569000Y15450000D01*
X-3485000Y13435000D02*
X-3485000Y12247500D01*
X-3485000Y11787500D02*
X-2775000Y11077500D01*
X-7342500Y20505000D02*
X-7342500Y20432500D01*
X-2775000Y10870000D02*
X-2807500Y10837500D01*
X-7085000Y13232500D02*
X-7090000Y13400000D01*
X-1844998Y15082500D02*
X-1594999Y15332499D01*
X-3245000Y15082500D02*
X-3445000Y15282500D01*
X-11740000Y15279000D02*
X-11740000Y14959000D01*
D39*
X2510000Y-1100000D02*
X2590000Y-1020000D01*
D38*
X-7085000Y19122500D02*
X-7085000Y18382500D01*
X16886000Y950000D02*
X18362500Y950000D01*
X1137500Y-950000D02*
X2630000Y-950000D01*
X-3485000Y19122500D02*
X-3485000Y18457500D01*
%TO.N,+1V1*%
X-2647500Y15885000D02*
X-1284994Y15885000D01*
D39*
X-3985000Y14995000D02*
X-3985000Y15185000D01*
D38*
X-1845000Y13882500D02*
X-645000Y12682500D01*
X-2607500Y13882500D02*
X-1845000Y13882500D01*
X-645000Y12682500D02*
X-45000Y12682500D01*
X-10940000Y14860000D02*
X-10750000Y15050000D01*
X-2607500Y13882500D02*
X-3445000Y13882500D01*
X-10940000Y14860000D02*
X-10940000Y14732500D01*
X-10940000Y14732500D02*
X-11500000Y14172500D01*
X-10750000Y15050000D02*
X-9547500Y15050000D01*
D39*
%TO.N,Net-(D6-DOUT)*%
X23952000Y24308000D02*
X26690000Y21570000D01*
X26690000Y21570000D02*
X26690000Y21050000D01*
X26690000Y21050000D02*
X31680000Y16060000D01*
X31680000Y1144998D02*
X31284502Y749500D01*
X31680000Y16060000D02*
X31680000Y1144998D01*
%TO.N,/QSPI_SS*%
X-3960037Y22247500D02*
X-12717500Y22247500D01*
X-11890000Y29870000D02*
X-12945000Y28815000D01*
X-2647500Y18285000D02*
X-2985000Y18622500D01*
X-2985000Y18622500D02*
X-2985000Y21272463D01*
X-13215330Y28412500D02*
X-13155000Y28412500D01*
X-12717500Y22247500D02*
X-14480000Y24010000D01*
X-14480000Y27147830D02*
X-13215330Y28412500D01*
X-12820000Y29870000D02*
X-12890000Y29940000D01*
X-11890000Y29870000D02*
X-12820000Y29870000D01*
X-2985000Y21272463D02*
X-3960037Y22247500D01*
X-14480000Y24010000D02*
X-14480000Y27147830D01*
X-12945000Y28815000D02*
X-12945000Y28462500D01*
%TO.N,/QSPI_SD3*%
X-597500Y17663972D02*
X-597500Y21290000D01*
X-2647500Y16285000D02*
X-1976472Y16285000D01*
X-1976472Y16285000D02*
X-597500Y17663972D01*
X-4245662Y24938162D02*
X-4245662Y25738162D01*
X-4245662Y25738162D02*
X-5650000Y27142500D01*
X-597500Y21290000D02*
X-4245662Y24938162D01*
X-5650000Y27142500D02*
X-5955000Y27142500D01*
%TO.N,/QSPI_SCLK*%
X-5817500Y25872500D02*
X-5955000Y25872500D01*
X-2000736Y16685000D02*
X-927500Y17758236D01*
X-927500Y20982500D02*
X-5817500Y25872500D01*
X-2647500Y16685000D02*
X-2000736Y16685000D01*
X-927500Y17758236D02*
X-927500Y20982500D01*
%TO.N,/QSPI_SD0*%
X-1227500Y17882500D02*
X-1227500Y20855622D01*
X-1227500Y20855622D02*
X-4974378Y24602500D01*
X-2025000Y17085000D02*
X-1227500Y17882500D01*
X-2647500Y17085000D02*
X-2025000Y17085000D01*
X-4974378Y24602500D02*
X-5955000Y24602500D01*
%TO.N,/QSPI_SD2*%
X-1527500Y18028236D02*
X-1527500Y20731358D01*
X-12908199Y25872500D02*
X-13155000Y25872500D01*
X-2070736Y17485000D02*
X-1527500Y18028236D01*
X-1527500Y20731358D02*
X-3703642Y22907500D01*
X-2647500Y17485000D02*
X-2070736Y17485000D01*
X-9943199Y22907500D02*
X-12908199Y25872500D01*
X-3703642Y22907500D02*
X-9943199Y22907500D01*
%TO.N,/QSPI_SD1*%
X-13215330Y27142500D02*
X-13155000Y27142500D01*
X-14180000Y24297170D02*
X-14180000Y26177830D01*
X-2647500Y17885000D02*
X-2095000Y17885000D01*
X-14180000Y26177830D02*
X-13215330Y27142500D01*
X-1875000Y20654594D02*
X-3767906Y22547500D01*
X-1875000Y18105000D02*
X-1875000Y20654594D01*
X-12430330Y22547500D02*
X-14180000Y24297170D01*
X-3767906Y22547500D02*
X-12430330Y22547500D01*
X-2095000Y17885000D02*
X-1875000Y18105000D01*
D40*
%TO.N,/USB_D+*%
X3279338Y19892160D02*
X3279338Y21274338D01*
X-320000Y24995000D02*
X3340000Y21335000D01*
X-320000Y28952396D02*
X-320000Y24995000D01*
D42*
X250000Y32175242D02*
X250000Y30490000D01*
D40*
X3279338Y15348842D02*
X3279338Y18610000D01*
D42*
X-950500Y29582896D02*
X-950500Y30979407D01*
D40*
X-773802Y29406198D02*
X-320000Y28952396D01*
D42*
X-773802Y29406198D02*
X-950500Y29582896D01*
D40*
X2579338Y19510000D02*
X2979338Y19510000D01*
X2627996Y14697500D02*
X3279338Y15348842D01*
X3279338Y19810000D02*
X3279338Y19892160D01*
X2979338Y18910000D02*
X2579338Y18910000D01*
D42*
X-950500Y30979407D02*
X-750000Y31179907D01*
X250000Y30490000D02*
X-803802Y29436198D01*
D40*
X810876Y14697500D02*
X2627996Y14697500D01*
D42*
X-750000Y31179907D02*
X-750000Y32108478D01*
D40*
X2279300Y19210000D02*
G75*
G03*
X2579338Y18910000I300000J0D01*
G01*
X2979338Y19509962D02*
G75*
G03*
X3279338Y19810000I-38J300038D01*
G01*
X3279300Y18610000D02*
G75*
G03*
X2979338Y18910000I-300000J0D01*
G01*
X2579338Y19509962D02*
G75*
G03*
X2279338Y19210000I-38J-299962D01*
G01*
%TO.N,/USB_D-*%
X670000Y29380000D02*
X670000Y25755000D01*
D42*
X-250000Y30866734D02*
X-250000Y31865000D01*
X-375500Y30741234D02*
X-250000Y30866734D01*
D40*
X2971498Y13697500D02*
X810876Y13697500D01*
D42*
X750000Y29990000D02*
X750000Y32125000D01*
D40*
X4290000Y22135000D02*
X4290000Y15016002D01*
D42*
X-301234Y30741234D02*
X-375500Y30741234D01*
X-250000Y31865000D02*
X-280000Y31895000D01*
D40*
X670000Y25755000D02*
X4290000Y22135000D01*
X405000Y29645000D02*
X670000Y29380000D01*
D42*
X405000Y29645000D02*
X750000Y29990000D01*
X-280000Y30720000D02*
X-301234Y30741234D01*
D40*
X3349338Y23225000D02*
X3309338Y23185000D01*
X4290000Y15016002D02*
X2971498Y13697500D01*
D39*
%TO.N,LED_D_5V*%
X-20640000Y26060000D02*
X-19495000Y26060000D01*
D40*
%TO.N,+5V*%
X-32450000Y-1510000D02*
X-31040000Y-1510000D01*
X15285500Y25578000D02*
X21412000Y25578000D01*
X-6300000Y-32890000D02*
X-10200000Y-28990000D01*
X-17630000Y-24730000D02*
X-18699000Y-25799000D01*
D44*
X30950000Y-6050000D02*
X30250000Y-6050000D01*
D40*
X33277010Y15702990D02*
X33277010Y-882990D01*
D44*
X16586000Y-3940000D02*
X16586000Y-3620000D01*
D40*
X-22993261Y-26156739D02*
X-23080000Y-26156739D01*
X-18370000Y24090000D02*
X-18330000Y24090000D01*
X-23080000Y-26156739D02*
X-23080000Y-24672000D01*
X-18527500Y25127500D02*
X-18527500Y24287500D01*
X33800000Y-6000000D02*
X32620000Y-7180000D01*
X-1850000Y-13930000D02*
X200000Y-15980000D01*
X-24196000Y24454000D02*
X-21471381Y27178619D01*
X-18699000Y-25799000D02*
X-22722261Y-25799000D01*
X-33198000Y-3027239D02*
X-35530000Y-695239D01*
X18280000Y22047500D02*
X18280000Y21480000D01*
X24206000Y25832000D02*
X26930000Y23108000D01*
D44*
X27730000Y-3530000D02*
X18105000Y-3530000D01*
D40*
X-32810000Y6440000D02*
X-32810000Y13960000D01*
X-18527500Y25127500D02*
X-19495000Y24160000D01*
X26930000Y22050000D02*
X33277010Y15702990D01*
X33800000Y-1405980D02*
X33800000Y-2020000D01*
D44*
X16903000Y-4257000D02*
X16586000Y-3940000D01*
X18105000Y-3530000D02*
X17935000Y-3700000D01*
D40*
X32870000Y-2108000D02*
X33712000Y-2108000D01*
X5750000Y-32890000D02*
X-6300000Y-32890000D01*
X26930000Y23108000D02*
X26930000Y22050000D01*
X-18527500Y24287500D02*
X-18370000Y24130000D01*
X200000Y-21410000D02*
X7780000Y-28990000D01*
X-23722040Y-24123000D02*
X-33198000Y-14647040D01*
X32830000Y-6000000D02*
X32820000Y-6010000D01*
X-35530000Y3720000D02*
X-32810000Y6440000D01*
X200000Y-15980000D02*
X200000Y-21410000D01*
X-10200000Y-28990000D02*
X-20160000Y-28990000D01*
X-18370000Y24130000D02*
X-18370000Y24090000D01*
X-23080000Y-24672000D02*
X-23629000Y-24123000D01*
X-35530000Y-695239D02*
X-35530000Y-76000D01*
X12402500Y25310000D02*
X15017500Y25310000D01*
X-33884000Y-76000D02*
X-32450000Y-1510000D01*
X21666000Y25832000D02*
X24206000Y25832000D01*
X18100000Y-30910000D02*
X7830000Y-30910000D01*
X18280000Y-30730000D02*
X18100000Y-30910000D01*
X17856000Y-27040000D02*
X18280000Y-27464000D01*
X-21471381Y27178619D02*
X-19244012Y27178619D01*
D44*
X30250000Y-6050000D02*
X27730000Y-3530000D01*
D40*
X15017500Y25310000D02*
X15285500Y25578000D01*
X-18482500Y25172500D02*
X-18527500Y25127500D01*
X-32810000Y13960000D02*
X-24196000Y22574000D01*
X18280000Y-27464000D02*
X18280000Y-30730000D01*
X32820000Y-6010000D02*
X32690000Y-6010000D01*
X21920000Y23052965D02*
X21920000Y25832000D01*
D44*
X17855000Y-3620000D02*
X17935000Y-3700000D01*
D40*
X32620000Y-14921040D02*
X18280000Y-29261040D01*
X9862500Y25832500D02*
X11880000Y25832500D01*
X-22722261Y-25799000D02*
X-23080000Y-26156739D01*
D44*
X-21252000Y-3632000D02*
X-1956000Y-3632000D01*
D40*
X-33198000Y-14647040D02*
X-33198000Y-3027239D01*
D44*
X-1956000Y-3632000D02*
X-1944000Y-3620000D01*
D40*
X32620000Y-7180000D02*
X32620000Y-14921040D01*
X7780000Y-28990000D02*
X7780000Y-30860000D01*
X33277010Y-882990D02*
X33800000Y-1405980D01*
X-35530000Y-76000D02*
X-35530000Y3720000D01*
X-31040000Y-1510000D02*
X-31110000Y-1510000D01*
X-19244012Y27178619D02*
X-18482500Y26417107D01*
X33800000Y-2020000D02*
X33800000Y-6000000D01*
D44*
X-21600000Y-3980000D02*
X-21252000Y-3632000D01*
D40*
X-20160000Y-28990000D02*
X-22993261Y-26156739D01*
X-18330000Y24090000D02*
X-18400000Y24160000D01*
D44*
X-2120000Y-4090000D02*
X-1956000Y-3926000D01*
X-1956000Y-3926000D02*
X-1956000Y-3632000D01*
D40*
X-23629000Y-24123000D02*
X-23722040Y-24123000D01*
D44*
X-1944000Y-3620000D02*
X17855000Y-3620000D01*
D40*
X18280000Y-29261040D02*
X18280000Y-30730000D01*
X33800000Y-6000000D02*
X32830000Y-6000000D01*
X-18482500Y26417107D02*
X-18482500Y25172500D01*
X-35530000Y-76000D02*
X-33884000Y-76000D01*
X22061483Y22911483D02*
X21920000Y23052965D01*
X32690000Y-6010000D02*
X32690000Y-6140000D01*
X21412000Y25578000D02*
X21666000Y25832000D01*
X7830000Y-30910000D02*
X7780000Y-30860000D01*
X15017500Y25310000D02*
X18280000Y22047500D01*
X7780000Y-30860000D02*
X5750000Y-32890000D01*
X-24196000Y22574000D02*
X-24196000Y24454000D01*
X32690000Y-6140000D02*
X32790000Y-6040000D01*
X11880000Y25832500D02*
X12402500Y25310000D01*
X33712000Y-2108000D02*
X33800000Y-2020000D01*
D44*
%TO.N,+3V*%
X10050000Y9260000D02*
X8250000Y9260000D01*
X8250000Y9260000D02*
X8210000Y9220000D01*
X8210000Y9220000D02*
X4610000Y9220000D01*
X10130000Y9220000D02*
X10109000Y9241000D01*
D38*
%TO.N,Net-(U5-USB_DP)*%
X-2721624Y14697500D02*
X-159124Y14697500D01*
%TO.N,Net-(U5-USB_DM)*%
X-1459124Y14297500D02*
X-859124Y13697500D01*
X-859124Y13697500D02*
X-159124Y13697500D01*
X-2721624Y14297500D02*
X-1459124Y14297500D01*
%TO.N,RP_ADC0*%
X-9982000Y2718000D02*
X-17502000Y2718000D01*
X-5085000Y11785736D02*
X-5325000Y11545736D01*
X-5325000Y7375000D02*
X-9982000Y2718000D01*
X-18362500Y1857500D02*
X-18362500Y950000D01*
X-5325000Y11545736D02*
X-5325000Y7375000D01*
X-5085000Y12247500D02*
X-5085000Y11785736D01*
X-17502000Y2718000D02*
X-18362500Y1857500D01*
%TO.N,RP_ADC1*%
X-4685000Y12247500D02*
X-4685000Y11690761D01*
X240000Y2700000D02*
X1137500Y1802500D01*
X1137500Y1802500D02*
X1137500Y950000D01*
X-3620000Y2700000D02*
X240000Y2700000D01*
X-4880000Y3960000D02*
X-3620000Y2700000D01*
X-4685000Y11690761D02*
X-4880000Y11495761D01*
X-4880000Y11495761D02*
X-4880000Y3960000D01*
%TO.N,RP_ADC2*%
X18152500Y-1160000D02*
X9820000Y-1160000D01*
X-3203750Y6528000D02*
X-4285000Y7609250D01*
X9820000Y-1160000D02*
X2132000Y6528000D01*
X18362500Y-950000D02*
X18152500Y-1160000D01*
X-4285000Y7609250D02*
X-4285000Y12247500D01*
X2132000Y6528000D02*
X-3203750Y6528000D01*
D39*
%TO.N,Net-(D1-DOUT)*%
X-23546000Y21604000D02*
X-32140000Y13010000D01*
X-32140000Y1660000D02*
X-32000000Y1520000D01*
X-23546000Y23292000D02*
X-23546000Y21604000D01*
X-32140000Y13010000D02*
X-32140000Y1660000D01*
%TO.N,Net-(D2-DOUT)*%
X-23038000Y-23698000D02*
X-32680000Y-14056000D01*
X-32680000Y-2372000D02*
X-33706000Y-1600000D01*
X-20498000Y-23698000D02*
X-23038000Y-23698000D01*
X-19990000Y-24206000D02*
X-20498000Y-23698000D01*
X-32680000Y-14056000D02*
X-32680000Y-2372000D01*
%TO.N,Net-(D3-DOUT)*%
X-1956000Y-15062000D02*
X-2410000Y-15516000D01*
X-2410000Y-24050000D02*
X-4835000Y-26475000D01*
X-20227000Y-26475000D02*
X-20244000Y-26492000D01*
X-2410000Y-15516000D02*
X-2410000Y-24050000D01*
X-4835000Y-26475000D02*
X-20227000Y-26475000D01*
%TO.N,Net-(D4-DOUT)*%
X-15745000Y-9440000D02*
X-19482000Y-5664000D01*
X76000Y-13166000D02*
X-3650000Y-9440000D01*
X-3650000Y-9440000D02*
X-15745000Y-9440000D01*
%TO.N,Net-(D5-DOUT)*%
X20142000Y-23190000D02*
X23750000Y-23190000D01*
X32030000Y-4575000D02*
X31762537Y-4575000D01*
X23750000Y-23190000D02*
X32030000Y-14910000D01*
X32030000Y-14910000D02*
X32030000Y-4575000D01*
X31318000Y-4130463D02*
X31318000Y-584000D01*
X31762537Y-4575000D02*
X31318000Y-4130463D01*
%TO.N,Net-(P1-CC1)*%
X1854000Y30912000D02*
X1250000Y31516000D01*
X1854000Y29896000D02*
X1854000Y30912000D01*
X1250000Y31516000D02*
X1250000Y32125000D01*
D38*
%TO.N,ADC_AVDD*%
X-1745000Y11057500D02*
X-1550000Y11057500D01*
X-1935000Y12372500D02*
X-2647500Y13085000D01*
X-1550000Y11057500D02*
X-520000Y10027500D01*
X-1935000Y11015000D02*
X-1935000Y12372500D01*
D39*
%TO.N,Net-(P1-CC2)*%
X-2430000Y30184000D02*
X-2430000Y29880000D01*
X-1702000Y30912000D02*
X-1702000Y32077000D01*
X-1702000Y30912000D02*
X-2430000Y30184000D01*
X-1702000Y32077000D02*
X-1750000Y32125000D01*
%TO.N,GPIO18*%
X-13710000Y7760000D02*
X-9222500Y12247500D01*
X-14656000Y-17856000D02*
X-21524000Y-17856000D01*
X-21524000Y-17856000D02*
X-28430000Y-10950000D01*
X-9222500Y12247500D02*
X-8685000Y12247500D01*
X-26030000Y7760000D02*
X-13710000Y7760000D01*
X-28430000Y-10950000D02*
X-28430000Y5360000D01*
X-28430000Y5360000D02*
X-26030000Y7760000D01*
%TO.N,GPIO19*%
X-1448000Y-10744000D02*
X5434000Y-10744000D01*
X-25680000Y7460000D02*
X-13530000Y7460000D01*
X-28010000Y5130000D02*
X-25680000Y7460000D01*
X5434000Y-10744000D02*
X7240000Y-12550000D01*
X-8285000Y11821091D02*
X-8285000Y12247500D01*
X-3734000Y-10744000D02*
X-21996000Y-10744000D01*
X-3480000Y-10490000D02*
X-3734000Y-10744000D01*
X-21996000Y-10744000D02*
X-28010000Y-4730000D01*
X7240000Y-12550000D02*
X7188000Y-16840000D01*
X-8753591Y11352500D02*
X-8285000Y11821091D01*
X-28010000Y-4730000D02*
X-28010000Y5130000D01*
X-9637500Y11352500D02*
X-8753591Y11352500D01*
X-13530000Y7460000D02*
X-9637500Y11352500D01*
X-1702000Y-10490000D02*
X-1448000Y-10744000D01*
%TO.N,Net-(C17-Pad1)*%
X-14792519Y16915019D02*
X-14792519Y16724000D01*
X-16955000Y17647500D02*
X-15525000Y17647500D01*
X-14792519Y16724000D02*
X-14228500Y16724000D01*
X-14228500Y16724000D02*
X-13928500Y17024000D01*
X-15525000Y17647500D02*
X-14792519Y16915019D01*
X-17816838Y16785662D02*
X-16955000Y17647500D01*
X-17816838Y15812500D02*
X-17816838Y16785662D01*
X-13928500Y17024000D02*
X-13392519Y17024000D01*
%TO.N,LED_D_3V*%
X-16332500Y24465330D02*
X-16977170Y25110000D01*
X-16977170Y25110000D02*
X-17220000Y25110000D01*
X-10185000Y17321091D02*
X-10185000Y17425000D01*
X-16332500Y23572500D02*
X-16332500Y24465330D01*
X-9948909Y17085000D02*
X-10185000Y17321091D01*
X-9522500Y17085000D02*
X-9948909Y17085000D01*
X-10185000Y17425000D02*
X-16332500Y23572500D01*
%TO.N,Net-(D8-DOUT)*%
X-2050000Y-8150000D02*
X-940000Y-7040000D01*
X-940000Y-7040000D02*
X-940000Y-6426000D01*
X-17704000Y-4648000D02*
X-17704000Y-5854000D01*
X-15408000Y-8150000D02*
X-2050000Y-8150000D01*
X-17704000Y-5854000D02*
X-15408000Y-8150000D01*
%TO.N,Net-(D10-DIN)*%
X17568000Y-7730000D02*
X4428000Y-7730000D01*
X18618000Y-6680000D02*
X17568000Y-7730000D01*
X4428000Y-7730000D02*
X1854000Y-5156000D01*
%TO.N,Net-(D10-DOUT)*%
X21412000Y-7178000D02*
X21412000Y-4902000D01*
X16915000Y-11675000D02*
X21412000Y-7178000D01*
X16915000Y-22757000D02*
X16915000Y-11675000D01*
X19126000Y-24968000D02*
X16915000Y-22757000D01*
%TO.N,Net-(R9-Pad1)*%
X-10730000Y31010000D02*
X-10730000Y30110000D01*
X-10730000Y30110000D02*
X-10910000Y29930000D01*
%TD*%
%TA.AperFunction,Conductor*%
%TO.N,+3V3*%
G36*
X-8834026Y18560028D02*
G01*
X-8813231Y18546133D01*
X-8754748Y18534500D01*
X-8618892Y18534500D01*
X-8615252Y18534500D01*
X-8556769Y18546133D01*
X-8535975Y18560028D01*
X-8494861Y18572500D01*
X-8475139Y18572500D01*
X-8434026Y18560028D01*
X-8413231Y18546133D01*
X-8354748Y18534500D01*
X-8218892Y18534500D01*
X-8215252Y18534500D01*
X-8156769Y18546133D01*
X-8135975Y18560028D01*
X-8094861Y18572500D01*
X-8075139Y18572500D01*
X-8034026Y18560028D01*
X-8013231Y18546133D01*
X-7954748Y18534500D01*
X-7818892Y18534500D01*
X-7815252Y18534500D01*
X-7756769Y18546133D01*
X-7735975Y18560028D01*
X-7694861Y18572500D01*
X-7675139Y18572500D01*
X-7634026Y18560028D01*
X-7613231Y18546133D01*
X-7554748Y18534500D01*
X-7418892Y18534500D01*
X-7415252Y18534500D01*
X-7356769Y18546133D01*
X-7335975Y18560028D01*
X-7294861Y18572500D01*
X-6875139Y18572500D01*
X-6834026Y18560028D01*
X-6813231Y18546133D01*
X-6754748Y18534500D01*
X-6618892Y18534500D01*
X-6615252Y18534500D01*
X-6556769Y18546133D01*
X-6535975Y18560028D01*
X-6494861Y18572500D01*
X-6475139Y18572500D01*
X-6434026Y18560028D01*
X-6413231Y18546133D01*
X-6354748Y18534500D01*
X-6218892Y18534500D01*
X-6215252Y18534500D01*
X-6156769Y18546133D01*
X-6135975Y18560028D01*
X-6094861Y18572500D01*
X-6075139Y18572500D01*
X-6034026Y18560028D01*
X-6013231Y18546133D01*
X-5954748Y18534500D01*
X-5818892Y18534500D01*
X-5815252Y18534500D01*
X-5756769Y18546133D01*
X-5735975Y18560028D01*
X-5694861Y18572500D01*
X-5675139Y18572500D01*
X-5634026Y18560028D01*
X-5613231Y18546133D01*
X-5554748Y18534500D01*
X-5418892Y18534500D01*
X-5415252Y18534500D01*
X-5356769Y18546133D01*
X-5335975Y18560028D01*
X-5294861Y18572500D01*
X-5275139Y18572500D01*
X-5234026Y18560028D01*
X-5213231Y18546133D01*
X-5154748Y18534500D01*
X-5018892Y18534500D01*
X-5015252Y18534500D01*
X-4956769Y18546133D01*
X-4935975Y18560028D01*
X-4894861Y18572500D01*
X-4875139Y18572500D01*
X-4834026Y18560028D01*
X-4813231Y18546133D01*
X-4754748Y18534500D01*
X-4618892Y18534500D01*
X-4615252Y18534500D01*
X-4556769Y18546133D01*
X-4535975Y18560028D01*
X-4494861Y18572500D01*
X-4475139Y18572500D01*
X-4434026Y18560028D01*
X-4413231Y18546133D01*
X-4354748Y18534500D01*
X-4218892Y18534500D01*
X-4215252Y18534500D01*
X-4156769Y18546133D01*
X-4135975Y18560028D01*
X-4094861Y18572500D01*
X-4075139Y18572500D01*
X-4034026Y18560028D01*
X-4013231Y18546133D01*
X-3954748Y18534500D01*
X-3818892Y18534500D01*
X-3815252Y18534500D01*
X-3756769Y18546133D01*
X-3735975Y18560028D01*
X-3694861Y18572500D01*
X-3444000Y18572500D01*
X-3407000Y18562586D01*
X-3379914Y18535500D01*
X-3370000Y18498500D01*
X-3370000Y15002000D01*
X-3379914Y14965000D01*
X-3407000Y14937914D01*
X-3444000Y14928000D01*
X-3456620Y14928000D01*
X-3493620Y14937914D01*
X-3520706Y14965000D01*
X-3528787Y14995156D01*
X-3529867Y14995000D01*
X-3548303Y15123226D01*
X-3602118Y15241063D01*
X-3686951Y15338967D01*
X-3780509Y15399093D01*
X-3805448Y15425881D01*
X-3814500Y15461345D01*
X-3814500Y17896071D01*
X-3814500Y17898500D01*
X-3819798Y17938746D01*
X-3829712Y17975746D01*
X-3845247Y18013250D01*
X-3869959Y18045455D01*
X-3897045Y18072541D01*
X-3929250Y18097253D01*
X-3933726Y18099107D01*
X-3933731Y18099110D01*
X-3964523Y18111864D01*
X-3964525Y18111865D01*
X-3966754Y18112788D01*
X-3975710Y18115188D01*
X-4001416Y18122076D01*
X-4001423Y18122078D01*
X-4003754Y18122702D01*
X-4006151Y18123018D01*
X-4006158Y18123019D01*
X-4041592Y18127683D01*
X-4044000Y18128000D01*
X-8296000Y18128000D01*
X-8298408Y18127684D01*
X-8298409Y18127683D01*
X-8333843Y18123019D01*
X-8333853Y18123018D01*
X-8336246Y18122702D01*
X-8338575Y18122079D01*
X-8338585Y18122076D01*
X-8370914Y18113413D01*
X-8370917Y18113413D01*
X-8373246Y18112788D01*
X-8375471Y18111867D01*
X-8375478Y18111864D01*
X-8406270Y18099110D01*
X-8406278Y18099106D01*
X-8410750Y18097253D01*
X-8414595Y18094304D01*
X-8414598Y18094301D01*
X-8441036Y18074014D01*
X-8441041Y18074011D01*
X-8442955Y18072541D01*
X-8444659Y18070838D01*
X-8444667Y18070830D01*
X-8468330Y18047167D01*
X-8468338Y18047159D01*
X-8470041Y18045455D01*
X-8471511Y18043541D01*
X-8471514Y18043536D01*
X-8491801Y18017098D01*
X-8491804Y18017095D01*
X-8494753Y18013250D01*
X-8496606Y18008778D01*
X-8496610Y18008770D01*
X-8509364Y17977978D01*
X-8509367Y17977971D01*
X-8510288Y17975746D01*
X-8510913Y17973417D01*
X-8510913Y17973414D01*
X-8519576Y17941085D01*
X-8519579Y17941075D01*
X-8520202Y17938746D01*
X-8520518Y17936353D01*
X-8520519Y17936343D01*
X-8525183Y17900909D01*
X-8525500Y17898500D01*
X-8525500Y17896071D01*
X-8525500Y15781856D01*
X-8539349Y15738753D01*
X-8573508Y15713419D01*
X-8573246Y15712788D01*
X-8606270Y15699110D01*
X-8606278Y15699106D01*
X-8610750Y15697253D01*
X-8614595Y15694304D01*
X-8614598Y15694301D01*
X-8641036Y15674014D01*
X-8641041Y15674011D01*
X-8642955Y15672541D01*
X-8644659Y15670838D01*
X-8644667Y15670830D01*
X-8668330Y15647167D01*
X-8668338Y15647159D01*
X-8670041Y15645455D01*
X-8671511Y15643541D01*
X-8671514Y15643536D01*
X-8691801Y15617098D01*
X-8691804Y15617095D01*
X-8694753Y15613250D01*
X-8696606Y15608778D01*
X-8696610Y15608770D01*
X-8709364Y15577978D01*
X-8709367Y15577971D01*
X-8710288Y15575746D01*
X-8710913Y15573417D01*
X-8710913Y15573414D01*
X-8719576Y15541085D01*
X-8719579Y15541075D01*
X-8720202Y15538746D01*
X-8720518Y15536353D01*
X-8720519Y15536343D01*
X-8725183Y15500909D01*
X-8725500Y15498500D01*
X-8725500Y14846500D01*
X-8725183Y14844092D01*
X-8720519Y14808658D01*
X-8720518Y14808651D01*
X-8720202Y14806254D01*
X-8710288Y14769254D01*
X-8709365Y14767025D01*
X-8709364Y14767023D01*
X-8696610Y14736231D01*
X-8696607Y14736226D01*
X-8694753Y14731750D01*
X-8670041Y14699545D01*
X-8642955Y14672459D01*
X-8610750Y14647747D01*
X-8606272Y14645893D01*
X-8606270Y14645891D01*
X-8594462Y14641001D01*
X-8573246Y14632212D01*
X-8536246Y14622298D01*
X-8496000Y14617000D01*
X-8338528Y14617000D01*
X-8317680Y14614003D01*
X-8259772Y14597000D01*
X-8135520Y14597000D01*
X-8130228Y14597000D01*
X-8072321Y14614003D01*
X-8051472Y14617000D01*
X-7909500Y14617000D01*
X-7872500Y14607086D01*
X-7845414Y14580000D01*
X-7835500Y14543000D01*
X-7835500Y14185032D01*
X-7835255Y14182920D01*
X-7835254Y14182904D01*
X-7833285Y14165932D01*
X-7833284Y14165927D01*
X-7832643Y14160406D01*
X-7830398Y14155322D01*
X-7830397Y14155318D01*
X-7799348Y14085000D01*
X-7788170Y14059685D01*
X-7710315Y13981830D01*
X-7609594Y13937357D01*
X-7584968Y13934500D01*
X-7582825Y13934500D01*
X-4599500Y13934500D01*
X-4562500Y13924586D01*
X-4535414Y13897500D01*
X-4525500Y13860500D01*
X-4525500Y13846500D01*
X-4525183Y13844092D01*
X-4520519Y13808658D01*
X-4520518Y13808651D01*
X-4520202Y13806254D01*
X-4510288Y13769254D01*
X-4509365Y13767025D01*
X-4509364Y13767023D01*
X-4496610Y13736231D01*
X-4496607Y13736226D01*
X-4494753Y13731750D01*
X-4470041Y13699545D01*
X-4442955Y13672459D01*
X-4410750Y13647747D01*
X-4406272Y13645893D01*
X-4406270Y13645891D01*
X-4394462Y13641001D01*
X-4373246Y13632212D01*
X-4336246Y13622298D01*
X-4296000Y13617000D01*
X-4293571Y13617000D01*
X-3444000Y13617000D01*
X-3407000Y13607086D01*
X-3379914Y13580000D01*
X-3370000Y13543000D01*
X-3370000Y13046500D01*
X-3379914Y13009500D01*
X-3407000Y12982414D01*
X-3444000Y12972500D01*
X-8860500Y12972500D01*
X-8897500Y12982414D01*
X-8924586Y13009500D01*
X-8934500Y13046500D01*
X-8934500Y13151108D01*
X-8934500Y13154748D01*
X-8946133Y13213231D01*
X-8957530Y13230287D01*
X-8970000Y13271398D01*
X-8970000Y13298602D01*
X-8957529Y13339714D01*
X-8950184Y13350707D01*
X-8946133Y13356769D01*
X-8934500Y13415252D01*
X-8934500Y13554748D01*
X-8946133Y13613231D01*
X-8957530Y13630287D01*
X-8970000Y13671398D01*
X-8970000Y13698602D01*
X-8957529Y13739714D01*
X-8950184Y13750707D01*
X-8946133Y13756769D01*
X-8934500Y13815252D01*
X-8934500Y13954748D01*
X-8946133Y14013231D01*
X-8957530Y14030287D01*
X-8970000Y14071398D01*
X-8970000Y14098602D01*
X-8957529Y14139714D01*
X-8950184Y14150707D01*
X-8946133Y14156769D01*
X-8934500Y14215252D01*
X-8934500Y14354748D01*
X-8946133Y14413231D01*
X-8957530Y14430287D01*
X-8970000Y14471398D01*
X-8970000Y14498602D01*
X-8957529Y14539714D01*
X-8950184Y14550707D01*
X-8946133Y14556769D01*
X-8934500Y14615252D01*
X-8934500Y14754748D01*
X-8946133Y14813231D01*
X-8957530Y14830287D01*
X-8970000Y14871398D01*
X-8970000Y14898602D01*
X-8957529Y14939714D01*
X-8950184Y14950707D01*
X-8946133Y14956769D01*
X-8934500Y15015252D01*
X-8934500Y15154748D01*
X-8946133Y15213231D01*
X-8957530Y15230287D01*
X-8970000Y15271398D01*
X-8970000Y15698602D01*
X-8957529Y15739714D01*
X-8950184Y15750707D01*
X-8946133Y15756769D01*
X-8934500Y15815252D01*
X-8934500Y15954748D01*
X-8946133Y16013231D01*
X-8957530Y16030287D01*
X-8970000Y16071398D01*
X-8970000Y16098602D01*
X-8957529Y16139714D01*
X-8950184Y16150707D01*
X-8946133Y16156769D01*
X-8934500Y16215252D01*
X-8934500Y16354748D01*
X-8946133Y16413231D01*
X-8957530Y16430287D01*
X-8970000Y16471398D01*
X-8970000Y16498602D01*
X-8957529Y16539714D01*
X-8950184Y16550707D01*
X-8946133Y16556769D01*
X-8934500Y16615252D01*
X-8934500Y16754748D01*
X-8946133Y16813231D01*
X-8957530Y16830287D01*
X-8970000Y16871398D01*
X-8970000Y16898602D01*
X-8957529Y16939714D01*
X-8950184Y16950707D01*
X-8946133Y16956769D01*
X-8934500Y17015252D01*
X-8934500Y17154748D01*
X-8946133Y17213231D01*
X-8957530Y17230287D01*
X-8970000Y17271398D01*
X-8970000Y17298602D01*
X-8957529Y17339714D01*
X-8950184Y17350707D01*
X-8946133Y17356769D01*
X-8934500Y17415252D01*
X-8934500Y17554748D01*
X-8946133Y17613231D01*
X-8957530Y17630287D01*
X-8970000Y17671398D01*
X-8970000Y17698602D01*
X-8957529Y17739714D01*
X-8950184Y17750707D01*
X-8946133Y17756769D01*
X-8934500Y17815252D01*
X-8934500Y17954748D01*
X-8946133Y18013231D01*
X-8957530Y18030287D01*
X-8970000Y18071398D01*
X-8970000Y18098602D01*
X-8957529Y18139714D01*
X-8950184Y18150707D01*
X-8946133Y18156769D01*
X-8934500Y18215252D01*
X-8934500Y18354748D01*
X-8946133Y18413231D01*
X-8957530Y18430287D01*
X-8970000Y18471398D01*
X-8970000Y18498500D01*
X-8960086Y18535500D01*
X-8933000Y18562586D01*
X-8896000Y18572500D01*
X-8875139Y18572500D01*
X-8834026Y18560028D01*
G37*
%TD.AperFunction*%
%TD*%
%TA.AperFunction,Conductor*%
%TO.N,GND*%
G36*
X-16366522Y23132582D02*
G01*
X-16325558Y23105232D01*
X-10538744Y17318418D01*
X-10506134Y17261939D01*
X-10504620Y17256290D01*
X-10504509Y17255878D01*
X-10502130Y17245145D01*
X-10497503Y17218902D01*
X-10497502Y17218899D01*
X-10495588Y17208046D01*
X-10490080Y17198506D01*
X-10488887Y17195228D01*
X-10487408Y17192055D01*
X-10484554Y17181407D01*
X-10478231Y17172376D01*
X-10478229Y17172373D01*
X-10462944Y17150543D01*
X-10457039Y17141275D01*
X-10438194Y17108636D01*
X-10429751Y17101551D01*
X-10428177Y17099676D01*
X-10402215Y17048246D01*
X-10401860Y16990635D01*
X-10449589Y16781611D01*
X-10480874Y16723092D01*
X-10537551Y16688583D01*
X-10603902Y16687654D01*
X-10661522Y16720565D01*
X-12081174Y18140217D01*
X-12088601Y18148321D01*
X-12105744Y18168751D01*
X-12112828Y18177194D01*
X-12122373Y18182705D01*
X-12122374Y18182706D01*
X-12145466Y18196038D01*
X-12154735Y18201944D01*
X-12176565Y18217229D01*
X-12176568Y18217231D01*
X-12185599Y18223554D01*
X-12196247Y18226408D01*
X-12199420Y18227887D01*
X-12202698Y18229080D01*
X-12212238Y18234588D01*
X-12223091Y18236502D01*
X-12223094Y18236503D01*
X-12249337Y18241130D01*
X-12260065Y18243508D01*
X-12285827Y18250411D01*
X-12285829Y18250412D01*
X-12296476Y18253264D01*
X-12307461Y18252303D01*
X-12334011Y18249980D01*
X-12344993Y18249500D01*
X-13805503Y18249500D01*
X-13853721Y18259091D01*
X-13894598Y18286405D01*
X-14185115Y18576922D01*
X-14212429Y18617799D01*
X-14222020Y18666017D01*
X-14222020Y18897867D01*
X-14222020Y18897869D01*
X-14222020Y18902822D01*
X-14229202Y18948166D01*
X-14224585Y19006812D01*
X-14193847Y19056971D01*
X-14109930Y19140888D01*
X-14100294Y19153310D01*
X-14025085Y19280481D01*
X-14018839Y19294917D01*
X-13979616Y19429920D01*
X-13979031Y19441369D01*
X-13990185Y19444000D01*
X-15594853Y19444000D01*
X-15606008Y19441369D01*
X-15605423Y19429920D01*
X-15566200Y19294917D01*
X-15559954Y19280481D01*
X-15484745Y19153310D01*
X-15475106Y19140884D01*
X-15391192Y19056970D01*
X-15360454Y19006812D01*
X-15355838Y18948166D01*
X-15361566Y18912000D01*
X-15363019Y18902823D01*
X-15363019Y18897869D01*
X-15363019Y18666018D01*
X-15372610Y18617800D01*
X-15399923Y18576923D01*
X-15540940Y18435905D01*
X-15581818Y18408591D01*
X-15630036Y18399000D01*
X-16760821Y18399000D01*
X-16809039Y18408591D01*
X-16849916Y18435905D01*
X-17110916Y18696905D01*
X-17141654Y18747064D01*
X-17146270Y18805711D01*
X-17123757Y18860061D01*
X-17079024Y18898267D01*
X-17021821Y18912000D01*
X-16498351Y18912000D01*
X-16492164Y18912000D01*
X-16419098Y18926534D01*
X-16336237Y18981899D01*
X-16280872Y19064760D01*
X-16266338Y19137826D01*
X-16266338Y19946632D01*
X-15606008Y19946632D01*
X-15594853Y19944000D01*
X-15059109Y19944000D01*
X-15046026Y19947507D01*
X-15042519Y19960590D01*
X-14542519Y19960590D01*
X-14539013Y19947507D01*
X-14525929Y19944000D01*
X-13990185Y19944000D01*
X-13979031Y19946632D01*
X-13979616Y19958081D01*
X-14018839Y20093084D01*
X-14025085Y20107520D01*
X-14100294Y20234691D01*
X-14109933Y20247117D01*
X-14214403Y20351587D01*
X-14226829Y20361226D01*
X-14354000Y20436435D01*
X-14368435Y20442681D01*
X-14511742Y20484316D01*
X-14524343Y20486617D01*
X-14525145Y20486680D01*
X-14538753Y20483973D01*
X-14542519Y20470618D01*
X-14542519Y19960590D01*
X-15042519Y19960590D01*
X-15042519Y20470620D01*
X-15046285Y20483973D01*
X-15059891Y20486680D01*
X-15060698Y20486616D01*
X-15073298Y20484315D01*
X-15216604Y20442681D01*
X-15231039Y20436435D01*
X-15358210Y20361226D01*
X-15370636Y20351587D01*
X-15475106Y20247117D01*
X-15484745Y20234691D01*
X-15559954Y20107520D01*
X-15566200Y20093084D01*
X-15605423Y19958081D01*
X-15606008Y19946632D01*
X-16266338Y19946632D01*
X-16266338Y21087174D01*
X-16280872Y21160240D01*
X-16336237Y21243101D01*
X-16346553Y21249994D01*
X-16408781Y21291573D01*
X-16408783Y21291574D01*
X-16419098Y21298466D01*
X-16431746Y21300982D01*
X-16486097Y21311794D01*
X-16486106Y21311795D01*
X-16492164Y21313000D01*
X-19141512Y21313000D01*
X-19147570Y21311796D01*
X-19147580Y21311794D01*
X-19202408Y21300887D01*
X-19202409Y21300887D01*
X-19214578Y21298466D01*
X-19224892Y21291575D01*
X-19224896Y21291573D01*
X-19287124Y21249994D01*
X-19287127Y21249992D01*
X-19297439Y21243101D01*
X-19304330Y21232789D01*
X-19304332Y21232786D01*
X-19345911Y21170558D01*
X-19345913Y21170554D01*
X-19352804Y21160240D01*
X-19355225Y21148071D01*
X-19355225Y21148070D01*
X-19366132Y21093242D01*
X-19366134Y21093232D01*
X-19367338Y21087174D01*
X-19367338Y19137826D01*
X-19366133Y19131768D01*
X-19366132Y19131759D01*
X-19361476Y19108355D01*
X-19352804Y19064760D01*
X-19297439Y18981899D01*
X-19214578Y18926534D01*
X-19141512Y18912000D01*
X-18298854Y18912000D01*
X-18250636Y18902409D01*
X-18209760Y18875096D01*
X-17287840Y17953175D01*
X-17255229Y17896693D01*
X-17255229Y17831471D01*
X-17287840Y17774988D01*
X-18012925Y17049903D01*
X-18053799Y17022591D01*
X-18102017Y17013000D01*
X-19141512Y17013000D01*
X-19147570Y17011796D01*
X-19147580Y17011794D01*
X-19202408Y17000887D01*
X-19202409Y17000887D01*
X-19214578Y16998466D01*
X-19224892Y16991575D01*
X-19224896Y16991573D01*
X-19287124Y16949994D01*
X-19287127Y16949992D01*
X-19297439Y16943101D01*
X-19304330Y16932789D01*
X-19304332Y16932786D01*
X-19345911Y16870558D01*
X-19345913Y16870554D01*
X-19352804Y16860240D01*
X-19355225Y16848071D01*
X-19355225Y16848070D01*
X-19366132Y16793242D01*
X-19366134Y16793232D01*
X-19367338Y16787174D01*
X-19367338Y14837826D01*
X-19366133Y14831768D01*
X-19366132Y14831759D01*
X-19356777Y14784733D01*
X-19352804Y14764760D01*
X-19345912Y14754445D01*
X-19345911Y14754443D01*
X-19304332Y14692215D01*
X-19297439Y14681899D01*
X-19280338Y14670473D01*
X-19244598Y14646592D01*
X-19214578Y14626534D01*
X-19141512Y14612000D01*
X-16498351Y14612000D01*
X-16492164Y14612000D01*
X-16419098Y14626534D01*
X-16336237Y14681899D01*
X-16280872Y14764760D01*
X-16266338Y14837826D01*
X-16266338Y15501369D01*
X-15606008Y15501369D01*
X-15605423Y15489920D01*
X-15566200Y15354917D01*
X-15559954Y15340481D01*
X-15484745Y15213310D01*
X-15475106Y15200884D01*
X-15370636Y15096414D01*
X-15358210Y15086775D01*
X-15231039Y15011566D01*
X-15216604Y15005320D01*
X-15073297Y14963685D01*
X-15060696Y14961384D01*
X-15059894Y14961321D01*
X-15046286Y14964028D01*
X-15042519Y14977382D01*
X-15042519Y15487410D01*
X-15046026Y15500494D01*
X-15059109Y15504000D01*
X-15594853Y15504000D01*
X-15606008Y15501369D01*
X-16266338Y15501369D01*
X-16266338Y16787174D01*
X-16280872Y16860240D01*
X-16336237Y16943101D01*
X-16346553Y16949994D01*
X-16408781Y16991573D01*
X-16408783Y16991574D01*
X-16419098Y16998466D01*
X-16431746Y17000982D01*
X-16486097Y17011794D01*
X-16486106Y17011795D01*
X-16492164Y17013000D01*
X-16498351Y17013000D01*
X-16824984Y17013000D01*
X-16882187Y17026733D01*
X-16926920Y17064939D01*
X-16949433Y17119289D01*
X-16944817Y17177936D01*
X-16914079Y17228095D01*
X-16857079Y17285095D01*
X-16816202Y17312409D01*
X-16767984Y17322000D01*
X-15712016Y17322000D01*
X-15663798Y17312409D01*
X-15622921Y17285095D01*
X-15391685Y17053859D01*
X-15360947Y17003701D01*
X-15356331Y16945055D01*
X-15362244Y16907719D01*
X-15363019Y16902823D01*
X-15363019Y16897870D01*
X-15363019Y16897869D01*
X-15363019Y16550133D01*
X-15363019Y16550121D01*
X-15363018Y16545178D01*
X-15362244Y16540291D01*
X-15362243Y16540278D01*
X-15355838Y16499832D01*
X-15360454Y16441188D01*
X-15391191Y16391031D01*
X-15475109Y16307113D01*
X-15484745Y16294691D01*
X-15559954Y16167520D01*
X-15566200Y16153084D01*
X-15605423Y16018081D01*
X-15606008Y16006632D01*
X-15594853Y16004000D01*
X-14668519Y16004000D01*
X-14605519Y15987119D01*
X-14559400Y15941000D01*
X-14542519Y15878000D01*
X-14542519Y14977380D01*
X-14538754Y14964028D01*
X-14514612Y14959225D01*
X-14455645Y14929962D01*
X-14419484Y14874955D01*
X-14415999Y14809218D01*
X-14421252Y14784733D01*
X-14421594Y14780933D01*
X-14421595Y14780922D01*
X-14431385Y14671942D01*
X-14431390Y14671881D01*
X-14431450Y14671210D01*
X-14431497Y14670507D01*
X-14431499Y14670473D01*
X-14432201Y14659834D01*
X-14432204Y14659784D01*
X-14432249Y14659097D01*
X-14432279Y14658395D01*
X-14432282Y14658331D01*
X-14432710Y14648163D01*
X-14432712Y14648105D01*
X-14432743Y14647363D01*
X-14432756Y14646664D01*
X-14432758Y14646592D01*
X-14432953Y14635954D01*
X-14432954Y14635882D01*
X-14432965Y14635250D01*
X-14429104Y13913191D01*
X-14419237Y12067956D01*
X-14436329Y12003914D01*
X-14483559Y11957409D01*
X-14547858Y11941309D01*
X-21659019Y12089361D01*
X-21758015Y12091423D01*
X-21820030Y12109239D01*
X-21865095Y12155418D01*
X-21881390Y12217850D01*
X-21842293Y23008649D01*
X-21825292Y23071397D01*
X-21779271Y23117320D01*
X-21716484Y23134188D01*
X-16414836Y23142136D01*
X-16366522Y23132582D01*
G37*
%TD.AperFunction*%
%TA.AperFunction,Conductor*%
G36*
X-12818425Y16537049D02*
G01*
X-12806874Y16525498D01*
X-12694541Y16468261D01*
X-12601342Y16453500D01*
X-12364538Y16453501D01*
X-12316319Y16443910D01*
X-12275442Y16416596D01*
X-12044331Y16185485D01*
X-12013192Y16134069D01*
X-12009417Y16074077D01*
X-12033866Y16019164D01*
X-12080974Y15981826D01*
X-12140020Y15970563D01*
X-12197565Y15987936D01*
X-12296481Y16046435D01*
X-12310917Y16052681D01*
X-12445920Y16091904D01*
X-12457369Y16092489D01*
X-12460000Y16081334D01*
X-12460000Y15833480D01*
X-12960000Y15822244D01*
X-12960000Y16081334D01*
X-12962632Y16092489D01*
X-12974081Y16091904D01*
X-13109084Y16052681D01*
X-13123520Y16046435D01*
X-13250691Y15971226D01*
X-13263117Y15961587D01*
X-13373192Y15851511D01*
X-13374245Y15852564D01*
X-13408450Y15824400D01*
X-13462312Y15810957D01*
X-13843689Y15802386D01*
X-13907878Y15818303D01*
X-13955164Y15864538D01*
X-13972520Y15928354D01*
X-13972520Y15964413D01*
X-13972714Y15969350D01*
X-13974904Y15997179D01*
X-13977205Y16009779D01*
X-14018839Y16153085D01*
X-14025088Y16167526D01*
X-14091678Y16280124D01*
X-14109222Y16343384D01*
X-14092563Y16406883D01*
X-14046226Y16453382D01*
X-14016045Y16470806D01*
X-13991815Y16499685D01*
X-13984398Y16507778D01*
X-13960869Y16531307D01*
X-13904387Y16563917D01*
X-13839165Y16563917D01*
X-13792780Y16537136D01*
X-13791906Y16538337D01*
X-13783886Y16532510D01*
X-13776874Y16525498D01*
X-13664541Y16468261D01*
X-13571342Y16453500D01*
X-13213697Y16453501D01*
X-13120497Y16468261D01*
X-13008164Y16525498D01*
X-12996614Y16537049D01*
X-12940130Y16569660D01*
X-12874908Y16569660D01*
X-12818425Y16537049D01*
G37*
%TD.AperFunction*%
%TD*%
%TA.AperFunction,Conductor*%
%TO.N,+3V3*%
G36*
X-14339594Y23390761D02*
G01*
X-14291135Y23360809D01*
X-13516743Y22586416D01*
X-12961545Y22031218D01*
X-12954236Y22023243D01*
X-12929955Y21994306D01*
X-12920561Y21988883D01*
X-12920559Y21988881D01*
X-12897239Y21975417D01*
X-12888117Y21969606D01*
X-12857184Y21947947D01*
X-12846701Y21945138D01*
X-12843366Y21943583D01*
X-12839941Y21942337D01*
X-12830545Y21936912D01*
X-12793357Y21930355D01*
X-12782795Y21928015D01*
X-12746307Y21918237D01*
X-12708690Y21921528D01*
X-12697882Y21922000D01*
X-4146225Y21922000D01*
X-4098772Y21912561D01*
X-4058544Y21885681D01*
X-3590470Y21417607D01*
X-3558243Y21361518D01*
X-3558649Y21296831D01*
X-3591578Y21241150D01*
X-3648068Y21209631D01*
X-3712745Y21210849D01*
X-3728646Y21215469D01*
X-3739910Y21216044D01*
X-3742500Y21205064D01*
X-3742500Y20276500D01*
X-3759113Y20214500D01*
X-3804500Y20169113D01*
X-3866500Y20152500D01*
X-4118500Y20152500D01*
X-4180500Y20169113D01*
X-4225887Y20214500D01*
X-4242500Y20276500D01*
X-4242500Y21205064D01*
X-4245091Y21216044D01*
X-4256357Y21215469D01*
X-4391705Y21176146D01*
X-4405913Y21169998D01*
X-4533294Y21094665D01*
X-4545526Y21085177D01*
X-4630252Y21000451D01*
X-4679615Y20970202D01*
X-4737328Y20965660D01*
X-4783677Y20973000D01*
X-4788556Y20973000D01*
X-5136452Y20973000D01*
X-5136465Y20973000D01*
X-5141322Y20972999D01*
X-5146124Y20972239D01*
X-5146131Y20972238D01*
X-5224887Y20959765D01*
X-5224888Y20959765D01*
X-5234522Y20958239D01*
X-5243208Y20953814D01*
X-5243215Y20953811D01*
X-5326222Y20911515D01*
X-5382517Y20898000D01*
X-5597873Y20898000D01*
X-5608679Y20898472D01*
X-5619542Y20899423D01*
X-5643239Y20901496D01*
X-5664519Y20905248D01*
X-5666286Y20905722D01*
X-5673791Y20908830D01*
X-5681849Y20909891D01*
X-5809441Y20926689D01*
X-5817500Y20927750D01*
X-5825559Y20926689D01*
X-5953147Y20909892D01*
X-5953152Y20909891D01*
X-5961209Y20908830D01*
X-5968719Y20905720D01*
X-5968724Y20905718D01*
X-6087615Y20856472D01*
X-6087617Y20856471D01*
X-6095125Y20853361D01*
X-6101567Y20848418D01*
X-6101572Y20848415D01*
X-6203679Y20770065D01*
X-6203683Y20770062D01*
X-6210121Y20765121D01*
X-6215062Y20758683D01*
X-6215065Y20758679D01*
X-6293415Y20656572D01*
X-6293418Y20656567D01*
X-6298361Y20650125D01*
X-6301471Y20642618D01*
X-6301471Y20642617D01*
X-6309001Y20624438D01*
X-6349894Y20572148D01*
X-6411899Y20548444D01*
X-6477245Y20560117D01*
X-6527207Y20603824D01*
X-6547466Y20667039D01*
X-6547693Y20672822D01*
X-6549893Y20700781D01*
X-6552157Y20713181D01*
X-6593855Y20856705D01*
X-6600003Y20870913D01*
X-6675336Y20998294D01*
X-6684827Y21010530D01*
X-6789471Y21115174D01*
X-6801707Y21124665D01*
X-6929088Y21199998D01*
X-6943296Y21206146D01*
X-7078644Y21245469D01*
X-7089910Y21246044D01*
X-7092500Y21235064D01*
X-7092500Y20306500D01*
X-7109113Y20244500D01*
X-7154500Y20199113D01*
X-7216500Y20182500D01*
X-7468500Y20182500D01*
X-7530500Y20199113D01*
X-7575887Y20244500D01*
X-7592500Y20306500D01*
X-7592500Y21235064D01*
X-7595091Y21246044D01*
X-7606357Y21245469D01*
X-7741705Y21206146D01*
X-7755913Y21199998D01*
X-7883294Y21124665D01*
X-7895526Y21115177D01*
X-7980252Y21030451D01*
X-8029615Y21000202D01*
X-8087328Y20995660D01*
X-8133677Y21003000D01*
X-8138556Y21003000D01*
X-8486452Y21003000D01*
X-8486465Y21003000D01*
X-8491322Y21002999D01*
X-8496124Y21002239D01*
X-8496131Y21002238D01*
X-8574887Y20989765D01*
X-8574888Y20989765D01*
X-8584522Y20988239D01*
X-8593208Y20983814D01*
X-8593215Y20983811D01*
X-8688160Y20935433D01*
X-8688163Y20935431D01*
X-8696855Y20931002D01*
X-8703755Y20924103D01*
X-8703758Y20924100D01*
X-8736773Y20891085D01*
X-8787167Y20860506D01*
X-8845986Y20856651D01*
X-8899940Y20880391D01*
X-8923428Y20898415D01*
X-8923434Y20898418D01*
X-8929875Y20903361D01*
X-8979944Y20924100D01*
X-9056277Y20955718D01*
X-9056280Y20955719D01*
X-9063791Y20958830D01*
X-9071851Y20959892D01*
X-9071854Y20959892D01*
X-9199441Y20976689D01*
X-9207500Y20977750D01*
X-9215559Y20976689D01*
X-9343147Y20959892D01*
X-9343152Y20959891D01*
X-9351209Y20958830D01*
X-9358719Y20955720D01*
X-9358724Y20955718D01*
X-9477615Y20906472D01*
X-9477617Y20906471D01*
X-9485125Y20903361D01*
X-9491567Y20898418D01*
X-9491572Y20898415D01*
X-9593679Y20820065D01*
X-9593683Y20820062D01*
X-9600121Y20815121D01*
X-9605062Y20808683D01*
X-9605065Y20808679D01*
X-9683415Y20706572D01*
X-9683418Y20706567D01*
X-9688361Y20700125D01*
X-9691471Y20692617D01*
X-9691472Y20692615D01*
X-9740718Y20573724D01*
X-9740720Y20573719D01*
X-9743830Y20566209D01*
X-9744891Y20558152D01*
X-9744892Y20558147D01*
X-9761689Y20430559D01*
X-9762750Y20422500D01*
X-9761689Y20414441D01*
X-9749958Y20325331D01*
X-9743830Y20278791D01*
X-9740719Y20271280D01*
X-9740718Y20271277D01*
X-9722185Y20226534D01*
X-9688361Y20144875D01*
X-9683416Y20138431D01*
X-9683415Y20138429D01*
X-9637318Y20078355D01*
X-9600121Y20029879D01*
X-9485125Y19941639D01*
X-9351209Y19886170D01*
X-9207500Y19867250D01*
X-9099210Y19881507D01*
X-9042894Y19875895D01*
X-8994938Y19845843D01*
X-8965331Y19797611D01*
X-8960240Y19741246D01*
X-8980246Y19689726D01*
X-8987206Y19682765D01*
X-8991846Y19672257D01*
X-8991847Y19672255D01*
X-9028819Y19588523D01*
X-9028821Y19588516D01*
X-9032585Y19579991D01*
X-9033660Y19570729D01*
X-9033660Y19570727D01*
X-9035089Y19558415D01*
X-9035090Y19558401D01*
X-9035500Y19554865D01*
X-9035500Y19551291D01*
X-9035500Y19551290D01*
X-9035500Y18940987D01*
X-9044513Y18894577D01*
X-9055439Y18877735D01*
X-9055000Y18877500D01*
X-9149290Y18701057D01*
X-9194900Y18653145D01*
X-9258654Y18635500D01*
X-9951286Y18635500D01*
X-9951304Y18635500D01*
X-9954864Y18635499D01*
X-9958411Y18635088D01*
X-9958423Y18635087D01*
X-9970723Y18633660D01*
X-9970725Y18633660D01*
X-9979991Y18632585D01*
X-9988521Y18628820D01*
X-9988524Y18628818D01*
X-10072255Y18591847D01*
X-10072257Y18591846D01*
X-10082765Y18587206D01*
X-10090888Y18579084D01*
X-10090891Y18579081D01*
X-10154081Y18515891D01*
X-10154084Y18515888D01*
X-10162206Y18507765D01*
X-10166846Y18497257D01*
X-10166847Y18497255D01*
X-10203819Y18413523D01*
X-10203821Y18413516D01*
X-10207585Y18404991D01*
X-10208660Y18395729D01*
X-10208660Y18395727D01*
X-10210089Y18383414D01*
X-10210090Y18383402D01*
X-10210500Y18379865D01*
X-10210500Y18376291D01*
X-10210500Y18376290D01*
X-10210500Y18210188D01*
X-10224015Y18153893D01*
X-10261615Y18109870D01*
X-10315102Y18087715D01*
X-10372818Y18092257D01*
X-10422181Y18122507D01*
X-15357906Y23058232D01*
X-15390909Y23117428D01*
X-15387859Y23185134D01*
X-15349667Y23241123D01*
X-15287746Y23268669D01*
X-14396332Y23395883D01*
X-14339594Y23390761D01*
G37*
%TD.AperFunction*%
%TD*%
%TA.AperFunction,Conductor*%
%TO.N,+3V3*%
G36*
X-13905523Y14870599D02*
G01*
X-13868704Y14851158D01*
X-13806067Y14803095D01*
X-13806063Y14803093D01*
X-13799615Y14798145D01*
X-13792107Y14795036D01*
X-13792105Y14795034D01*
X-13691042Y14753173D01*
X-13642642Y14717278D01*
X-13616877Y14662806D01*
X-13619832Y14602620D01*
X-13649614Y14552929D01*
X-13652621Y14550621D01*
X-13657562Y14544183D01*
X-13657567Y14544177D01*
X-13735915Y14442072D01*
X-13735918Y14442067D01*
X-13740861Y14435625D01*
X-13743971Y14428117D01*
X-13743972Y14428115D01*
X-13793218Y14309224D01*
X-13793220Y14309219D01*
X-13796330Y14301709D01*
X-13797391Y14293652D01*
X-13797392Y14293647D01*
X-13802001Y14258638D01*
X-13815250Y14158000D01*
X-13814189Y14149941D01*
X-13799046Y14034915D01*
X-13796330Y14014291D01*
X-13793219Y14006780D01*
X-13793218Y14006777D01*
X-13775440Y13963857D01*
X-13740861Y13880375D01*
X-13735916Y13873931D01*
X-13735915Y13873929D01*
X-13657565Y13771822D01*
X-13652621Y13765379D01*
X-13537625Y13677139D01*
X-13403709Y13621670D01*
X-13260000Y13602750D01*
X-13116291Y13621670D01*
X-12982375Y13677139D01*
X-12979647Y13679233D01*
X-12937940Y13693594D01*
X-12890683Y13691118D01*
X-12854693Y13674336D01*
X-12854355Y13673998D01*
X-12799412Y13646003D01*
X-12750719Y13621192D01*
X-12750717Y13621192D01*
X-12742022Y13616761D01*
X-12648823Y13602000D01*
X-12291178Y13602001D01*
X-12197978Y13616761D01*
X-12085645Y13673998D01*
X-12072682Y13686962D01*
X-12017094Y13719056D01*
X-11952906Y13719056D01*
X-11897319Y13686962D01*
X-11884355Y13673998D01*
X-11829412Y13646003D01*
X-11780719Y13621192D01*
X-11780717Y13621192D01*
X-11772022Y13616761D01*
X-11678823Y13602000D01*
X-11321178Y13602001D01*
X-11227978Y13616761D01*
X-11115645Y13673998D01*
X-11026498Y13763145D01*
X-10969261Y13875478D01*
X-10954500Y13968677D01*
X-10954501Y14170958D01*
X-10945062Y14218409D01*
X-10918185Y14258635D01*
X-10891531Y14285289D01*
X-10858696Y14308818D01*
X-10820036Y14320544D01*
X-10818938Y14320689D01*
X-10796291Y14323670D01*
X-10662375Y14379139D01*
X-10547379Y14467379D01*
X-10459139Y14582375D01*
X-10446911Y14611898D01*
X-10407537Y14663050D01*
X-10347782Y14687481D01*
X-10283844Y14678564D01*
X-10233054Y14638715D01*
X-10209177Y14578736D01*
X-10208852Y14575929D01*
X-10207585Y14565009D01*
X-10203818Y14556478D01*
X-10203817Y14556474D01*
X-10195824Y14538371D01*
X-10185402Y14494246D01*
X-10185117Y14488323D01*
X-10195537Y14432283D01*
X-10203818Y14413527D01*
X-10203822Y14413516D01*
X-10207585Y14404991D01*
X-10208660Y14395732D01*
X-10208660Y14395729D01*
X-10210089Y14383414D01*
X-10210090Y14383402D01*
X-10210500Y14379865D01*
X-10210500Y14376292D01*
X-10210500Y14376291D01*
X-10210500Y14193715D01*
X-10210500Y14193699D01*
X-10210499Y14190136D01*
X-10210088Y14186589D01*
X-10210087Y14186578D01*
X-10208660Y14174278D01*
X-10207585Y14165009D01*
X-10203818Y14156478D01*
X-10203817Y14156474D01*
X-10194373Y14135085D01*
X-10183808Y14085000D01*
X-10194373Y14034915D01*
X-10203818Y14013526D01*
X-10203821Y14013518D01*
X-10207585Y14004991D01*
X-10208660Y13995729D01*
X-10208660Y13995727D01*
X-10210089Y13983414D01*
X-10210090Y13983402D01*
X-10210500Y13979865D01*
X-10210500Y13976292D01*
X-10210500Y13976291D01*
X-10210500Y13793715D01*
X-10210500Y13793699D01*
X-10210499Y13790136D01*
X-10210088Y13786589D01*
X-10210087Y13786578D01*
X-10209986Y13785711D01*
X-10207585Y13765009D01*
X-10203817Y13756476D01*
X-10194373Y13735087D01*
X-10183808Y13685004D01*
X-10194371Y13634921D01*
X-10203820Y13613521D01*
X-10203823Y13613514D01*
X-10207585Y13604991D01*
X-10208659Y13595736D01*
X-10208660Y13595731D01*
X-10210089Y13583414D01*
X-10210090Y13583402D01*
X-10210500Y13579865D01*
X-10210500Y13576292D01*
X-10210500Y13576291D01*
X-10210500Y13393715D01*
X-10210500Y13393699D01*
X-10210499Y13390136D01*
X-10210088Y13386589D01*
X-10210087Y13386578D01*
X-10208660Y13374278D01*
X-10207585Y13365009D01*
X-10203818Y13356478D01*
X-10203817Y13356474D01*
X-10194374Y13335088D01*
X-10183808Y13285003D01*
X-10194373Y13234917D01*
X-10203817Y13213529D01*
X-10203820Y13213519D01*
X-10207585Y13204991D01*
X-10208660Y13195729D01*
X-10208660Y13195727D01*
X-10210089Y13183414D01*
X-10210090Y13183402D01*
X-10210500Y13179865D01*
X-10210500Y13176292D01*
X-10210500Y13176291D01*
X-10210500Y12993715D01*
X-10210500Y12993699D01*
X-10210499Y12990136D01*
X-10210088Y12986589D01*
X-10210087Y12986578D01*
X-10208660Y12974278D01*
X-10207585Y12965009D01*
X-10162206Y12862235D01*
X-10154081Y12854110D01*
X-10137757Y12837786D01*
X-10112053Y12800304D01*
X-10101582Y12756078D01*
X-10061565Y11926243D01*
X-10069750Y11875591D01*
X-10097740Y11832589D01*
X-10907441Y11022888D01*
X-10946152Y10996648D01*
X-10991828Y10986613D01*
X-14030886Y10905865D01*
X-14094075Y10921246D01*
X-14140789Y10966492D01*
X-14158178Y11029156D01*
X-14177469Y14636616D01*
X-14176975Y14648350D01*
X-14166777Y14761873D01*
X-14147227Y14818375D01*
X-14103509Y14859162D01*
X-14045787Y14874750D01*
X-13946699Y14876757D01*
X-13905523Y14870599D01*
G37*
%TD.AperFunction*%
%TD*%
%TA.AperFunction,Conductor*%
%TO.N,+1V1*%
G36*
X-4007000Y17962586D02*
G01*
X-3979914Y17935500D01*
X-3970000Y17898500D01*
X-3970000Y15172500D01*
X-3844000Y15172500D01*
X-3807000Y15162586D01*
X-3779914Y15135500D01*
X-3770000Y15098500D01*
X-3770000Y14772500D01*
X-3444000Y14772500D01*
X-3407000Y14762586D01*
X-3379914Y14735500D01*
X-3370000Y14698500D01*
X-3370000Y13846500D01*
X-3379914Y13809500D01*
X-3407000Y13782414D01*
X-3444000Y13772500D01*
X-4296000Y13772500D01*
X-4333000Y13782414D01*
X-4360086Y13809500D01*
X-4370000Y13846500D01*
X-4370000Y14070866D01*
X-4363695Y14100756D01*
X-4339604Y14155318D01*
X-4337357Y14160406D01*
X-4334500Y14185032D01*
X-4334500Y17184968D01*
X-4337357Y17209594D01*
X-4363695Y17269244D01*
X-4370000Y17299134D01*
X-4370000Y17362757D01*
X-4370000Y17372500D01*
X-4379743Y17372500D01*
X-4416124Y17372500D01*
X-4456526Y17385011D01*
X-4459685Y17388170D01*
X-4465958Y17390940D01*
X-4465961Y17390942D01*
X-4555318Y17430397D01*
X-4555322Y17430398D01*
X-4560406Y17432643D01*
X-4565927Y17433284D01*
X-4565932Y17433285D01*
X-4582904Y17435254D01*
X-4582920Y17435255D01*
X-4585032Y17435500D01*
X-7584968Y17435500D01*
X-7587080Y17435255D01*
X-7587097Y17435254D01*
X-7604069Y17433285D01*
X-7604076Y17433284D01*
X-7609594Y17432643D01*
X-7614677Y17430399D01*
X-7614683Y17430397D01*
X-7704040Y17390942D01*
X-7704046Y17390939D01*
X-7710315Y17388170D01*
X-7713475Y17385011D01*
X-7753876Y17372500D01*
X-7760257Y17372500D01*
X-7770000Y17372500D01*
X-7770000Y17362757D01*
X-7770000Y17357526D01*
X-7782950Y17315706D01*
X-7783322Y17315164D01*
X-7788170Y17310315D01*
X-7790939Y17304046D01*
X-7790940Y17304043D01*
X-7830397Y17214683D01*
X-7830399Y17214677D01*
X-7832643Y17209594D01*
X-7833284Y17204076D01*
X-7833285Y17204069D01*
X-7835254Y17187097D01*
X-7835255Y17187080D01*
X-7835500Y17184968D01*
X-7835500Y17182825D01*
X-7835500Y14846500D01*
X-7845414Y14809500D01*
X-7872500Y14782414D01*
X-7909500Y14772500D01*
X-8496000Y14772500D01*
X-8533000Y14782414D01*
X-8560086Y14809500D01*
X-8570000Y14846500D01*
X-8570000Y15498500D01*
X-8560086Y15535500D01*
X-8533000Y15562586D01*
X-8496000Y15572500D01*
X-8379743Y15572500D01*
X-8370000Y15572500D01*
X-8370000Y17898500D01*
X-8360086Y17935500D01*
X-8333000Y17962586D01*
X-8296000Y17972500D01*
X-4044000Y17972500D01*
X-4007000Y17962586D01*
G37*
%TD.AperFunction*%
%TD*%
M02*
