%TF.GenerationSoftware,KiCad,Pcbnew,(7.0.0-0)*%
%TF.CreationDate,2023-03-14T21:41:36-05:00*%
%TF.ProjectId,RP2040_minimal,52503230-3430-45f6-9d69-6e696d616c2e,REV1*%
%TF.SameCoordinates,Original*%
%TF.FileFunction,Copper,L3,Inr*%
%TF.FilePolarity,Positive*%
%FSLAX46Y46*%
G04 Gerber Fmt 4.6, Leading zero omitted, Abs format (unit mm)*
G04 Created by KiCad (PCBNEW (7.0.0-0)) date 2023-03-14 21:41:36*
%MOMM*%
%LPD*%
G01*
G04 APERTURE LIST*
%TA.AperFunction,ComponentPad*%
%ADD10C,0.600000*%
%TD*%
%TA.AperFunction,ComponentPad*%
%ADD11O,1.000000X1.800000*%
%TD*%
%TA.AperFunction,ComponentPad*%
%ADD12O,1.000000X2.200000*%
%TD*%
%TA.AperFunction,ViaPad*%
%ADD13C,0.600000*%
%TD*%
G04 APERTURE END LIST*
D10*
%TO.N,GND*%
%TO.C,U5*%
X-4810000Y16960000D03*
X-6085000Y16960000D03*
X-7360000Y16960000D03*
X-4810000Y15685000D03*
X-6085000Y15685000D03*
X-7360000Y15685000D03*
X-4810000Y14410000D03*
X-6085000Y14410000D03*
X-7360000Y14410000D03*
%TD*%
D11*
%TO.N,N/C*%
%TO.C,P1*%
X5619999Y33349999D03*
D12*
X5619999Y37349999D03*
D11*
X-5619999Y33349999D03*
D12*
X-5619999Y37349999D03*
%TD*%
D13*
%TO.N,+3V3*%
X19810000Y19220000D03*
X-13760000Y30880000D03*
%TO.N,+5V*%
X-27220000Y-2130000D03*
X-29010000Y-2060000D03*
%TO.N,+3V3*%
X-3930000Y13280000D03*
X-7090000Y13400000D03*
X11795000Y10430000D03*
X170000Y16440000D03*
X15990000Y940000D03*
X-16810000Y-1810000D03*
X2690000Y-1690000D03*
X-13700000Y13270000D03*
X-7120000Y9830000D03*
X-3620000Y10970000D03*
X0Y10940000D03*
X-7300000Y21220000D03*
X-4110000Y21140000D03*
X9907500Y20562500D03*
X9907500Y17760000D03*
X11980000Y22180000D03*
X10500000Y22200000D03*
X12440000Y16080000D03*
X11010000Y16140000D03*
X-5940000Y30700000D03*
%TO.N,GND*%
X-13885000Y16247500D03*
X-18692519Y17834000D03*
X-15806838Y16932500D03*
X-20655000Y22097500D03*
X-16962519Y21946500D03*
X-17292519Y13134000D03*
X-5817500Y20372500D03*
X9846000Y11270000D03*
X-8927500Y10647500D03*
X-12622019Y18645000D03*
X-1753648Y9316824D03*
X3616250Y31053750D03*
X-9207500Y20422500D03*
X-16190000Y670000D03*
X13025000Y23780000D03*
X4050000Y31860000D03*
X-4191881Y31851995D03*
X-17210000Y27030000D03*
X1755000Y11682500D03*
X-3680000Y31100000D03*
X-4720000Y29030000D03*
X-2460000Y-60000D03*
X-14781019Y14962000D03*
X-13521990Y15279006D03*
X5433234Y22446766D03*
X-2450000Y28030000D03*
X-20695000Y13134000D03*
X16840000Y2718000D03*
X1742500Y12672500D03*
X2660000Y930000D03*
X6594375Y19100000D03*
X21920000Y178000D03*
X-2830000Y9306824D03*
X-21950000Y-60000D03*
X-14792519Y20550000D03*
X16250000Y16980000D03*
X1615000Y15735000D03*
X-11995331Y24217169D03*
X3134000Y29124000D03*
X70000Y19080000D03*
X-13260000Y14158000D03*
X1355000Y10027500D03*
X-15886838Y18912500D03*
%TO.N,VBUS*%
X2606789Y31209297D03*
X-2433180Y31076713D03*
%TO.N,+1V1*%
X-1284994Y15885000D03*
X-3985000Y14995000D03*
X-10940000Y14860000D03*
X-8195000Y15047500D03*
%TO.N,Net-(D6-DOUT)*%
X23952000Y24308000D03*
X31284502Y749500D03*
%TO.N,/USB_D-*%
X-375500Y30741234D03*
X405000Y29645000D03*
%TO.N,LED_D_5V*%
X-20640000Y26060000D03*
%TO.N,+5V*%
X32690000Y-6010000D03*
X30950000Y-6050000D03*
X16903000Y-4257000D03*
X-17630000Y-24730000D03*
X-31040000Y-1510000D03*
X-21600000Y-3980000D03*
X-2120000Y-4090000D03*
X22061483Y22911483D03*
X32870000Y-2108000D03*
X17856000Y-27040000D03*
X-18370000Y24090000D03*
X-1850000Y-13930000D03*
%TO.N,Net-(D1-DOUT)*%
X-23546000Y23292000D03*
X-32000000Y1520000D03*
%TO.N,Net-(D2-DOUT)*%
X-33706000Y-1600000D03*
X-19990000Y-24206000D03*
%TO.N,Net-(D3-DOUT)*%
X-20244000Y-26492000D03*
X-1956000Y-15062000D03*
%TO.N,Net-(D4-DOUT)*%
X76000Y-13166000D03*
X-19482000Y-5664000D03*
%TO.N,Net-(D5-DOUT)*%
X31318000Y-584000D03*
X20142000Y-23190000D03*
%TO.N,Net-(P1-CC1)*%
X1854000Y30912000D03*
%TO.N,Net-(P1-CC2)*%
X-1702000Y30912000D03*
%TO.N,GPIO18*%
X-14656000Y-17856000D03*
%TO.N,GPIO19*%
X-1702000Y-10490000D03*
X7188000Y-16840000D03*
X-3480000Y-10490000D03*
%TO.N,Net-(D8-DOUT)*%
X-17704000Y-4648000D03*
X-940000Y-6426000D03*
%TO.N,Net-(D10-DIN)*%
X1854000Y-5156000D03*
X18618000Y-6680000D03*
%TO.N,Net-(D10-DOUT)*%
X21412000Y-4902000D03*
X19126000Y-24968000D03*
%TO.N,Net-(R9-Pad1)*%
X-10730000Y31010000D03*
%TD*%
%TA.AperFunction,Conductor*%
%TO.N,+3V3*%
G36*
X7027756Y38178493D02*
G01*
X7031662Y38177766D01*
X8237787Y37933178D01*
X8241642Y37932332D01*
X9439322Y37649092D01*
X9443115Y37648131D01*
X10631082Y37326540D01*
X10634871Y37325449D01*
X11811905Y36965836D01*
X11815633Y36964631D01*
X12980488Y36567375D01*
X12984185Y36566047D01*
X14135642Y36131565D01*
X14139323Y36130108D01*
X15276268Y35658821D01*
X15279848Y35657268D01*
X16401007Y35149702D01*
X16404578Y35148016D01*
X16860135Y34923865D01*
X17508852Y34604672D01*
X17512391Y34602859D01*
X18598625Y34024306D01*
X18602038Y34022418D01*
X19669136Y33409235D01*
X19672533Y33407211D01*
X20640736Y32808660D01*
X20719367Y32760050D01*
X20722718Y32757902D01*
X21748164Y32077459D01*
X21751406Y32075232D01*
X22754477Y31362161D01*
X22757678Y31359808D01*
X23737338Y30614844D01*
X23740401Y30612436D01*
X24589444Y29922625D01*
X24695597Y29836380D01*
X24698645Y29833821D01*
X25556585Y29089750D01*
X25628377Y29027487D01*
X25631334Y29024838D01*
X26414614Y28300115D01*
X26534654Y28189050D01*
X26537523Y28186310D01*
X26983812Y27745929D01*
X27413543Y27321887D01*
X27416335Y27319042D01*
X28264106Y26426922D01*
X28266805Y26423988D01*
X29085423Y25505125D01*
X29088027Y25502107D01*
X29712098Y24754561D01*
X29862858Y24573972D01*
X29876735Y24557350D01*
X29879237Y24554252D01*
X30020081Y24374072D01*
X30637156Y23584652D01*
X30639545Y23581492D01*
X31365943Y22587983D01*
X31368217Y22584764D01*
X31437105Y22483892D01*
X32062256Y21568493D01*
X32064451Y21565166D01*
X32725487Y20527080D01*
X32727574Y20523683D01*
X33354893Y19464901D01*
X33356869Y19461440D01*
X33949818Y18383069D01*
X33951683Y18379546D01*
X34509693Y17282616D01*
X34511443Y17279034D01*
X35033890Y16164770D01*
X35035524Y16161134D01*
X35521890Y15030648D01*
X35523406Y15026962D01*
X35973185Y13881422D01*
X35974582Y13877688D01*
X36387306Y12718291D01*
X36388582Y12714515D01*
X36763827Y11542450D01*
X36764981Y11538635D01*
X37102361Y10355113D01*
X37103392Y10351262D01*
X37402552Y9157524D01*
X37403459Y9153643D01*
X37664098Y7950892D01*
X37664880Y7946983D01*
X37886731Y6736445D01*
X37887386Y6732513D01*
X38070205Y5515521D01*
X38070734Y5511570D01*
X38214348Y4289286D01*
X38214749Y4285320D01*
X38318997Y3059094D01*
X38319271Y3055117D01*
X38384053Y1826153D01*
X38384199Y1822170D01*
X38409446Y591762D01*
X38409464Y587776D01*
X38395150Y-642837D01*
X38395039Y-646822D01*
X38341180Y-1876281D01*
X38340942Y-1880260D01*
X38247590Y-3107392D01*
X38247224Y-3111361D01*
X38114477Y-4334868D01*
X38113983Y-4338824D01*
X37941979Y-5557422D01*
X37941358Y-5561359D01*
X37730285Y-6773749D01*
X37729539Y-6777665D01*
X37479591Y-7982709D01*
X37478719Y-7986598D01*
X37190172Y-9182969D01*
X37189175Y-9186829D01*
X36862319Y-10373322D01*
X36861198Y-10377147D01*
X36496396Y-11552454D01*
X36495154Y-11556242D01*
X36092734Y-12719298D01*
X36091370Y-12723043D01*
X35651798Y-13872502D01*
X35650315Y-13876202D01*
X35174003Y-15010991D01*
X35172401Y-15014641D01*
X34659880Y-16133491D01*
X34658162Y-16137088D01*
X34109932Y-17238908D01*
X34108099Y-17242448D01*
X33524736Y-18326079D01*
X33522790Y-18329558D01*
X32904917Y-19393848D01*
X32902861Y-19397263D01*
X32251078Y-20441175D01*
X32248913Y-20444522D01*
X31563905Y-21466959D01*
X31561633Y-21470234D01*
X30844140Y-22470090D01*
X30841764Y-22473291D01*
X30092504Y-23449568D01*
X30090027Y-23452691D01*
X29309741Y-24404423D01*
X29307164Y-24407464D01*
X28496740Y-25333566D01*
X28494067Y-25336524D01*
X27654256Y-26236141D01*
X27651490Y-26239010D01*
X26783214Y-27111153D01*
X26780356Y-27113933D01*
X25884494Y-27957718D01*
X25881549Y-27960404D01*
X24959024Y-28774962D01*
X24955994Y-28777552D01*
X24007757Y-29562043D01*
X24004645Y-29564534D01*
X23031706Y-30318124D01*
X23028516Y-30320514D01*
X22031841Y-31042453D01*
X22028576Y-31044739D01*
X21009214Y-31734268D01*
X21005877Y-31736448D01*
X19964880Y-32392857D01*
X19961474Y-32394929D01*
X18899916Y-33017538D01*
X18896446Y-33019499D01*
X17815403Y-33607677D01*
X17811871Y-33609525D01*
X16712521Y-34162631D01*
X16708932Y-34164365D01*
X15592359Y-34681858D01*
X15588716Y-34683476D01*
X14456070Y-35164818D01*
X14452377Y-35166318D01*
X13304856Y-35611002D01*
X13301116Y-35612382D01*
X12139914Y-36019946D01*
X12136132Y-36021206D01*
X10962392Y-36391247D01*
X10958572Y-36392384D01*
X9773570Y-36724500D01*
X9769715Y-36725514D01*
X8574654Y-37019369D01*
X8570768Y-37020259D01*
X7366853Y-37275555D01*
X7362941Y-37276319D01*
X6151461Y-37492785D01*
X6147526Y-37493423D01*
X4929707Y-37670838D01*
X4925754Y-37671349D01*
X3702874Y-37809527D01*
X3698906Y-37809911D01*
X2472201Y-37908714D01*
X2468223Y-37908970D01*
X1238984Y-37968292D01*
X1235000Y-37968420D01*
X4493Y-37988200D01*
X507Y-37988200D01*
X-1230001Y-37968420D01*
X-1233985Y-37968292D01*
X-2463224Y-37908970D01*
X-2467202Y-37908714D01*
X-3693907Y-37809911D01*
X-3697875Y-37809527D01*
X-4920755Y-37671349D01*
X-4924708Y-37670838D01*
X-6142527Y-37493423D01*
X-6146462Y-37492785D01*
X-7357942Y-37276319D01*
X-7361854Y-37275555D01*
X-8565769Y-37020259D01*
X-8569655Y-37019369D01*
X-9764716Y-36725514D01*
X-9768571Y-36724500D01*
X-10361072Y-36558442D01*
X-10953576Y-36392383D01*
X-10957393Y-36391247D01*
X-12131133Y-36021206D01*
X-12134915Y-36019946D01*
X-13296117Y-35612382D01*
X-13299833Y-35611011D01*
X-14447382Y-35166316D01*
X-14451071Y-35164818D01*
X-15583717Y-34683476D01*
X-15587360Y-34681858D01*
X-16703933Y-34164365D01*
X-16707522Y-34162631D01*
X-17806872Y-33609525D01*
X-17810404Y-33607677D01*
X-18891447Y-33019499D01*
X-18894917Y-33017538D01*
X-19956475Y-32394929D01*
X-19959881Y-32392857D01*
X-21000878Y-31736448D01*
X-21004215Y-31734268D01*
X-22023577Y-31044739D01*
X-22026842Y-31042453D01*
X-22498926Y-30700500D01*
X-23023539Y-30320498D01*
X-23026685Y-30318140D01*
X-23999651Y-29564530D01*
X-24002758Y-29562043D01*
X-24130445Y-29456406D01*
X-24761076Y-28934675D01*
X-1704252Y-28934675D01*
X-1704071Y-28939423D01*
X-1704070Y-28939423D01*
X-1694434Y-29190842D01*
X-1694433Y-29190853D01*
X-1694251Y-29195593D01*
X-1693349Y-29200248D01*
X-1693347Y-29200258D01*
X-1669210Y-29324713D01*
X-1644538Y-29451927D01*
X-1642933Y-29456398D01*
X-1642930Y-29456406D01*
X-1557889Y-29693187D01*
X-1557886Y-29693194D01*
X-1556279Y-29697668D01*
X-1431541Y-29927057D01*
X-1273250Y-30134716D01*
X-1085114Y-30315778D01*
X-871544Y-30465999D01*
X-750391Y-30525986D01*
X-641805Y-30579751D01*
X-641802Y-30579752D01*
X-637547Y-30581859D01*
X-388605Y-30660641D01*
X-130555Y-30700500D01*
X62798Y-30700500D01*
X65177Y-30700500D01*
X260344Y-30685516D01*
X514586Y-30626021D01*
X756766Y-30528414D01*
X981208Y-30394982D01*
X1182652Y-30228852D01*
X1356375Y-30033920D01*
X1498306Y-29814753D01*
X1605118Y-29576489D01*
X1674307Y-29324713D01*
X1704252Y-29065325D01*
X1694251Y-28804407D01*
X1644538Y-28548073D01*
X1556279Y-28302332D01*
X1431541Y-28072943D01*
X1273250Y-27865284D01*
X1085114Y-27684222D01*
X871544Y-27534001D01*
X810772Y-27503911D01*
X641804Y-27420248D01*
X641795Y-27420244D01*
X637547Y-27418141D01*
X633021Y-27416708D01*
X633017Y-27416707D01*
X393131Y-27340791D01*
X393126Y-27340790D01*
X388605Y-27339359D01*
X383925Y-27338636D01*
X383916Y-27338634D01*
X135245Y-27300224D01*
X135239Y-27300223D01*
X130555Y-27299500D01*
X-65177Y-27299500D01*
X-67544Y-27299681D01*
X-67552Y-27299682D01*
X-255599Y-27314119D01*
X-255609Y-27314120D01*
X-260344Y-27314484D01*
X-264972Y-27315566D01*
X-264979Y-27315568D01*
X-509951Y-27372894D01*
X-509956Y-27372895D01*
X-514586Y-27373979D01*
X-519001Y-27375758D01*
X-519003Y-27375759D01*
X-752356Y-27469808D01*
X-752363Y-27469811D01*
X-756766Y-27471586D01*
X-760841Y-27474008D01*
X-760850Y-27474013D01*
X-977121Y-27602587D01*
X-977133Y-27602595D01*
X-981208Y-27605018D01*
X-984868Y-27608036D01*
X-984876Y-27608042D01*
X-1178982Y-27768121D01*
X-1182652Y-27771148D01*
X-1185815Y-27774696D01*
X-1185818Y-27774700D01*
X-1353210Y-27962527D01*
X-1353219Y-27962538D01*
X-1356375Y-27966080D01*
X-1358956Y-27970065D01*
X-1358964Y-27970076D01*
X-1495718Y-28181249D01*
X-1495724Y-28181259D01*
X-1498306Y-28185247D01*
X-1500251Y-28189584D01*
X-1500254Y-28189591D01*
X-1603175Y-28419175D01*
X-1603179Y-28419183D01*
X-1605118Y-28423511D01*
X-1606375Y-28428082D01*
X-1606378Y-28428093D01*
X-1673048Y-28670702D01*
X-1673051Y-28670714D01*
X-1674307Y-28675287D01*
X-1674852Y-28680003D01*
X-1674852Y-28680006D01*
X-1703708Y-28929955D01*
X-1703709Y-28929966D01*
X-1704252Y-28934675D01*
X-24761076Y-28934675D01*
X-24950995Y-28777552D01*
X-24954025Y-28774962D01*
X-25118418Y-28629809D01*
X-25876564Y-27960392D01*
X-25879495Y-27957718D01*
X-25973620Y-27869065D01*
X-26775365Y-27113925D01*
X-26778215Y-27111153D01*
X-26841835Y-27047250D01*
X-27379906Y-26506782D01*
X-27394622Y-26492000D01*
X-20799250Y-26492000D01*
X-20798189Y-26500059D01*
X-20790821Y-26556028D01*
X-20780330Y-26635709D01*
X-20777219Y-26643220D01*
X-20777218Y-26643223D01*
X-20772828Y-26653821D01*
X-20724861Y-26769625D01*
X-20636621Y-26884621D01*
X-20521625Y-26972861D01*
X-20387709Y-27028330D01*
X-20244000Y-27047250D01*
X-20188932Y-27040000D01*
X17300750Y-27040000D01*
X17301811Y-27048059D01*
X17310483Y-27113933D01*
X17319670Y-27183709D01*
X17375139Y-27317625D01*
X17380084Y-27324069D01*
X17380085Y-27324071D01*
X17418381Y-27373979D01*
X17463379Y-27432621D01*
X17578375Y-27520861D01*
X17712291Y-27576330D01*
X17856000Y-27595250D01*
X17999709Y-27576330D01*
X18133625Y-27520861D01*
X18248621Y-27432621D01*
X18336861Y-27317625D01*
X18392330Y-27183709D01*
X18411250Y-27040000D01*
X18392330Y-26896291D01*
X18336861Y-26762375D01*
X18248621Y-26647379D01*
X18242178Y-26642435D01*
X18140071Y-26564085D01*
X18140069Y-26564084D01*
X18133625Y-26559139D01*
X18097592Y-26544214D01*
X18007223Y-26506782D01*
X18007220Y-26506781D01*
X17999709Y-26503670D01*
X17991649Y-26502608D01*
X17991646Y-26502608D01*
X17864059Y-26485811D01*
X17856000Y-26484750D01*
X17847941Y-26485811D01*
X17720353Y-26502608D01*
X17720348Y-26502609D01*
X17712291Y-26503670D01*
X17704781Y-26506780D01*
X17704776Y-26506782D01*
X17585885Y-26556028D01*
X17585883Y-26556029D01*
X17578375Y-26559139D01*
X17571933Y-26564082D01*
X17571928Y-26564085D01*
X17469821Y-26642435D01*
X17469817Y-26642438D01*
X17463379Y-26647379D01*
X17458438Y-26653817D01*
X17458435Y-26653821D01*
X17380085Y-26755928D01*
X17380082Y-26755933D01*
X17375139Y-26762375D01*
X17372029Y-26769883D01*
X17372028Y-26769885D01*
X17322782Y-26888776D01*
X17322780Y-26888781D01*
X17319670Y-26896291D01*
X17318609Y-26904348D01*
X17318608Y-26904353D01*
X17302696Y-27025217D01*
X17300750Y-27040000D01*
X-20188932Y-27040000D01*
X-20100291Y-27028330D01*
X-19966375Y-26972861D01*
X-19851379Y-26884621D01*
X-19763139Y-26769625D01*
X-19707670Y-26635709D01*
X-19688750Y-26492000D01*
X-19707670Y-26348291D01*
X-19763139Y-26214375D01*
X-19851379Y-26099379D01*
X-19966375Y-26011139D01*
X-20002408Y-25996214D01*
X-20092777Y-25958782D01*
X-20092780Y-25958781D01*
X-20100291Y-25955670D01*
X-20108351Y-25954608D01*
X-20108354Y-25954608D01*
X-20235941Y-25937811D01*
X-20244000Y-25936750D01*
X-20252059Y-25937811D01*
X-20379647Y-25954608D01*
X-20379652Y-25954609D01*
X-20387709Y-25955670D01*
X-20395219Y-25958780D01*
X-20395224Y-25958782D01*
X-20514115Y-26008028D01*
X-20514117Y-26008029D01*
X-20521625Y-26011139D01*
X-20528067Y-26016082D01*
X-20528072Y-26016085D01*
X-20630179Y-26094435D01*
X-20630183Y-26094438D01*
X-20636621Y-26099379D01*
X-20641562Y-26105817D01*
X-20641565Y-26105821D01*
X-20719915Y-26207928D01*
X-20719918Y-26207933D01*
X-20724861Y-26214375D01*
X-20727971Y-26221883D01*
X-20727972Y-26221885D01*
X-20777218Y-26340776D01*
X-20777220Y-26340781D01*
X-20780330Y-26348291D01*
X-20781391Y-26356348D01*
X-20781392Y-26356353D01*
X-20793495Y-26448285D01*
X-20799250Y-26492000D01*
X-27394622Y-26492000D01*
X-27646491Y-26239010D01*
X-27649257Y-26236141D01*
X-28489068Y-25336524D01*
X-28491741Y-25333566D01*
X-28603448Y-25205914D01*
X-29302181Y-24407445D01*
X-29304726Y-24404442D01*
X-29467421Y-24206000D01*
X-20545250Y-24206000D01*
X-20544189Y-24214059D01*
X-20527954Y-24337379D01*
X-20526330Y-24349709D01*
X-20523219Y-24357220D01*
X-20523218Y-24357223D01*
X-20492821Y-24430608D01*
X-20470861Y-24483625D01*
X-20465916Y-24490069D01*
X-20465915Y-24490071D01*
X-20404249Y-24570435D01*
X-20382621Y-24598621D01*
X-20267625Y-24686861D01*
X-20133709Y-24742330D01*
X-19990000Y-24761250D01*
X-19846291Y-24742330D01*
X-19816523Y-24730000D01*
X-18185250Y-24730000D01*
X-18184189Y-24738059D01*
X-18181276Y-24760189D01*
X-18166330Y-24873709D01*
X-18110861Y-25007625D01*
X-18022621Y-25122621D01*
X-17907625Y-25210861D01*
X-17773709Y-25266330D01*
X-17630000Y-25285250D01*
X-17486291Y-25266330D01*
X-17352375Y-25210861D01*
X-17237379Y-25122621D01*
X-17149139Y-25007625D01*
X-17132726Y-24968000D01*
X18570750Y-24968000D01*
X18589670Y-25111709D01*
X18592781Y-25119220D01*
X18592782Y-25119223D01*
X18596237Y-25127564D01*
X18645139Y-25245625D01*
X18650084Y-25252069D01*
X18650085Y-25252071D01*
X18661841Y-25267391D01*
X18733379Y-25360621D01*
X18848375Y-25448861D01*
X18982291Y-25504330D01*
X19126000Y-25523250D01*
X19269709Y-25504330D01*
X19403625Y-25448861D01*
X19518621Y-25360621D01*
X19606861Y-25245625D01*
X19662330Y-25111709D01*
X19681250Y-24968000D01*
X19662330Y-24824291D01*
X19606861Y-24690375D01*
X19518621Y-24575379D01*
X19403625Y-24487139D01*
X19319696Y-24452375D01*
X19277223Y-24434782D01*
X19277220Y-24434781D01*
X19269709Y-24431670D01*
X19261649Y-24430608D01*
X19261646Y-24430608D01*
X19134059Y-24413811D01*
X19126000Y-24412750D01*
X19117941Y-24413811D01*
X18990353Y-24430608D01*
X18990348Y-24430609D01*
X18982291Y-24431670D01*
X18974781Y-24434780D01*
X18974776Y-24434782D01*
X18855885Y-24484028D01*
X18855883Y-24484029D01*
X18848375Y-24487139D01*
X18841933Y-24492082D01*
X18841928Y-24492085D01*
X18739821Y-24570435D01*
X18739817Y-24570438D01*
X18733379Y-24575379D01*
X18728438Y-24581817D01*
X18728435Y-24581821D01*
X18650085Y-24683928D01*
X18650082Y-24683933D01*
X18645139Y-24690375D01*
X18642029Y-24697883D01*
X18642028Y-24697885D01*
X18592782Y-24816776D01*
X18592780Y-24816781D01*
X18589670Y-24824291D01*
X18588609Y-24832348D01*
X18588608Y-24832353D01*
X18571811Y-24959941D01*
X18570750Y-24968000D01*
X-17132726Y-24968000D01*
X-17093670Y-24873709D01*
X-17074750Y-24730000D01*
X-17093670Y-24586291D01*
X-17149139Y-24452375D01*
X-17237379Y-24337379D01*
X-17352375Y-24249139D01*
X-17388408Y-24234214D01*
X-17478777Y-24196782D01*
X-17478780Y-24196781D01*
X-17486291Y-24193670D01*
X-17494351Y-24192608D01*
X-17494354Y-24192608D01*
X-17621941Y-24175811D01*
X-17630000Y-24174750D01*
X-17638059Y-24175811D01*
X-17765647Y-24192608D01*
X-17765652Y-24192609D01*
X-17773709Y-24193670D01*
X-17781219Y-24196780D01*
X-17781224Y-24196782D01*
X-17900115Y-24246028D01*
X-17900117Y-24246029D01*
X-17907625Y-24249139D01*
X-17914067Y-24254082D01*
X-17914072Y-24254085D01*
X-18016179Y-24332435D01*
X-18016183Y-24332438D01*
X-18022621Y-24337379D01*
X-18027562Y-24343817D01*
X-18027565Y-24343821D01*
X-18105915Y-24445928D01*
X-18105918Y-24445933D01*
X-18110861Y-24452375D01*
X-18113971Y-24459883D01*
X-18113972Y-24459885D01*
X-18163218Y-24578776D01*
X-18163220Y-24578781D01*
X-18166330Y-24586291D01*
X-18167391Y-24594348D01*
X-18167392Y-24594353D01*
X-18179571Y-24686861D01*
X-18185250Y-24730000D01*
X-19816523Y-24730000D01*
X-19712375Y-24686861D01*
X-19597379Y-24598621D01*
X-19509139Y-24483625D01*
X-19453670Y-24349709D01*
X-19434750Y-24206000D01*
X-19453670Y-24062291D01*
X-19509139Y-23928375D01*
X-19597379Y-23813379D01*
X-19686166Y-23745250D01*
X-19705929Y-23730085D01*
X-19705931Y-23730084D01*
X-19712375Y-23725139D01*
X-19748408Y-23710214D01*
X-19838777Y-23672782D01*
X-19838780Y-23672781D01*
X-19846291Y-23669670D01*
X-19854351Y-23668608D01*
X-19854354Y-23668608D01*
X-19981941Y-23651811D01*
X-19990000Y-23650750D01*
X-19998059Y-23651811D01*
X-20125647Y-23668608D01*
X-20125652Y-23668609D01*
X-20133709Y-23669670D01*
X-20141219Y-23672780D01*
X-20141224Y-23672782D01*
X-20260115Y-23722028D01*
X-20260117Y-23722029D01*
X-20267625Y-23725139D01*
X-20274067Y-23730082D01*
X-20274072Y-23730085D01*
X-20376179Y-23808435D01*
X-20376183Y-23808438D01*
X-20382621Y-23813379D01*
X-20387562Y-23819817D01*
X-20387565Y-23819821D01*
X-20465915Y-23921928D01*
X-20465918Y-23921933D01*
X-20470861Y-23928375D01*
X-20473971Y-23935883D01*
X-20473972Y-23935885D01*
X-20523218Y-24054776D01*
X-20523220Y-24054781D01*
X-20526330Y-24062291D01*
X-20527391Y-24070348D01*
X-20527392Y-24070353D01*
X-20543487Y-24192608D01*
X-20545250Y-24206000D01*
X-29467421Y-24206000D01*
X-29903610Y-23673971D01*
X-30085028Y-23452691D01*
X-30087505Y-23449568D01*
X-30286715Y-23190000D01*
X19586750Y-23190000D01*
X19605670Y-23333709D01*
X19661139Y-23467625D01*
X19749379Y-23582621D01*
X19864375Y-23670861D01*
X19998291Y-23726330D01*
X20142000Y-23745250D01*
X20285709Y-23726330D01*
X20419625Y-23670861D01*
X20534621Y-23582621D01*
X20622861Y-23467625D01*
X20678330Y-23333709D01*
X20697250Y-23190000D01*
X20678330Y-23046291D01*
X20622861Y-22912375D01*
X20534621Y-22797379D01*
X20419625Y-22709139D01*
X20383592Y-22694214D01*
X20293223Y-22656782D01*
X20293220Y-22656781D01*
X20285709Y-22653670D01*
X20277649Y-22652608D01*
X20277646Y-22652608D01*
X20150059Y-22635811D01*
X20142000Y-22634750D01*
X20133941Y-22635811D01*
X20006353Y-22652608D01*
X20006348Y-22652609D01*
X19998291Y-22653670D01*
X19990781Y-22656780D01*
X19990776Y-22656782D01*
X19871885Y-22706028D01*
X19871883Y-22706029D01*
X19864375Y-22709139D01*
X19857933Y-22714082D01*
X19857928Y-22714085D01*
X19755821Y-22792435D01*
X19755817Y-22792438D01*
X19749379Y-22797379D01*
X19744438Y-22803817D01*
X19744435Y-22803821D01*
X19666085Y-22905928D01*
X19666082Y-22905933D01*
X19661139Y-22912375D01*
X19658029Y-22919883D01*
X19658028Y-22919885D01*
X19608782Y-23038776D01*
X19608780Y-23038781D01*
X19605670Y-23046291D01*
X19604609Y-23054348D01*
X19604608Y-23054353D01*
X19587811Y-23181941D01*
X19586750Y-23190000D01*
X-30286715Y-23190000D01*
X-30836765Y-22473291D01*
X-30839141Y-22470090D01*
X-30919826Y-22357652D01*
X-31556651Y-21470210D01*
X-31558890Y-21466982D01*
X-32243914Y-20444522D01*
X-32246079Y-20441175D01*
X-32897862Y-19397263D01*
X-32899918Y-19393848D01*
X-33440873Y-18462049D01*
X-33517805Y-18329533D01*
X-33519724Y-18326103D01*
X-33772800Y-17856000D01*
X-15211250Y-17856000D01*
X-15192330Y-17999709D01*
X-15136861Y-18133625D01*
X-15048621Y-18248621D01*
X-14933625Y-18336861D01*
X-14799709Y-18392330D01*
X-14656000Y-18411250D01*
X-14512291Y-18392330D01*
X-14378375Y-18336861D01*
X-14263379Y-18248621D01*
X-14175139Y-18133625D01*
X-14119670Y-17999709D01*
X-14100750Y-17856000D01*
X-14119670Y-17712291D01*
X-14175139Y-17578375D01*
X-14263379Y-17463379D01*
X-14352166Y-17395250D01*
X-14371929Y-17380085D01*
X-14371931Y-17380084D01*
X-14378375Y-17375139D01*
X-14414408Y-17360214D01*
X-14504777Y-17322782D01*
X-14504780Y-17322781D01*
X-14512291Y-17319670D01*
X-14520351Y-17318608D01*
X-14520354Y-17318608D01*
X-14647941Y-17301811D01*
X-14656000Y-17300750D01*
X-14664059Y-17301811D01*
X-14791647Y-17318608D01*
X-14791652Y-17318609D01*
X-14799709Y-17319670D01*
X-14807219Y-17322780D01*
X-14807224Y-17322782D01*
X-14926115Y-17372028D01*
X-14926117Y-17372029D01*
X-14933625Y-17375139D01*
X-14940067Y-17380082D01*
X-14940072Y-17380085D01*
X-15042179Y-17458435D01*
X-15042183Y-17458438D01*
X-15048621Y-17463379D01*
X-15053562Y-17469817D01*
X-15053565Y-17469821D01*
X-15131915Y-17571928D01*
X-15131918Y-17571933D01*
X-15136861Y-17578375D01*
X-15139971Y-17585883D01*
X-15139972Y-17585885D01*
X-15189218Y-17704776D01*
X-15189220Y-17704781D01*
X-15192330Y-17712291D01*
X-15193391Y-17720348D01*
X-15193392Y-17720353D01*
X-15210189Y-17847941D01*
X-15211250Y-17856000D01*
X-33772800Y-17856000D01*
X-34103109Y-17242432D01*
X-34104933Y-17238908D01*
X-34303417Y-16840000D01*
X6632750Y-16840000D01*
X6651670Y-16983709D01*
X6707139Y-17117625D01*
X6795379Y-17232621D01*
X6910375Y-17320861D01*
X7044291Y-17376330D01*
X7188000Y-17395250D01*
X7331709Y-17376330D01*
X7465625Y-17320861D01*
X7580621Y-17232621D01*
X7668861Y-17117625D01*
X7724330Y-16983709D01*
X7743250Y-16840000D01*
X7724330Y-16696291D01*
X7668861Y-16562375D01*
X7580621Y-16447379D01*
X7465625Y-16359139D01*
X7429592Y-16344214D01*
X7339223Y-16306782D01*
X7339220Y-16306781D01*
X7331709Y-16303670D01*
X7323649Y-16302608D01*
X7323646Y-16302608D01*
X7196059Y-16285811D01*
X7188000Y-16284750D01*
X7179941Y-16285811D01*
X7052353Y-16302608D01*
X7052348Y-16302609D01*
X7044291Y-16303670D01*
X7036781Y-16306780D01*
X7036776Y-16306782D01*
X6917885Y-16356028D01*
X6917883Y-16356029D01*
X6910375Y-16359139D01*
X6903933Y-16364082D01*
X6903928Y-16364085D01*
X6801821Y-16442435D01*
X6801817Y-16442438D01*
X6795379Y-16447379D01*
X6790438Y-16453817D01*
X6790435Y-16453821D01*
X6712085Y-16555928D01*
X6712082Y-16555933D01*
X6707139Y-16562375D01*
X6704029Y-16569883D01*
X6704028Y-16569885D01*
X6654782Y-16688776D01*
X6654780Y-16688781D01*
X6651670Y-16696291D01*
X6650609Y-16704348D01*
X6650608Y-16704353D01*
X6633811Y-16831941D01*
X6632750Y-16840000D01*
X-34303417Y-16840000D01*
X-34653180Y-16137054D01*
X-34654865Y-16133525D01*
X-35167415Y-15014613D01*
X-35168992Y-15011020D01*
X-35561718Y-14075369D01*
X-13254277Y-14075369D01*
X-13253863Y-14079490D01*
X-13253862Y-14079501D01*
X-13224534Y-14371034D01*
X-13224533Y-14371044D01*
X-13224118Y-14375162D01*
X-13223158Y-14379193D01*
X-13223157Y-14379195D01*
X-13163432Y-14629814D01*
X-13154269Y-14668261D01*
X-13045977Y-14949434D01*
X-13043993Y-14953055D01*
X-13043987Y-14953067D01*
X-12979873Y-15070059D01*
X-12901175Y-15213665D01*
X-12898719Y-15216998D01*
X-12898716Y-15217003D01*
X-12808367Y-15339625D01*
X-12722446Y-15456238D01*
X-12512980Y-15672824D01*
X-12393263Y-15767363D01*
X-12279770Y-15856988D01*
X-12279766Y-15856990D01*
X-12276515Y-15859558D01*
X-12017270Y-16013109D01*
X-12013466Y-16014722D01*
X-12013462Y-16014724D01*
X-11908422Y-16059264D01*
X-11739872Y-16130736D01*
X-11449271Y-16210340D01*
X-11150653Y-16250500D01*
X-10926838Y-16250500D01*
X-10924756Y-16250500D01*
X-10699366Y-16235412D01*
X-10404097Y-16175396D01*
X-10119463Y-16076560D01*
X-9850541Y-15940668D01*
X-9602131Y-15770144D01*
X-9378667Y-15568032D01*
X-9184135Y-15337939D01*
X-9022007Y-15083970D01*
X-9011812Y-15062000D01*
X-2511250Y-15062000D01*
X-2510189Y-15070059D01*
X-2507899Y-15087457D01*
X-2492330Y-15205709D01*
X-2436861Y-15339625D01*
X-2348621Y-15454621D01*
X-2233625Y-15542861D01*
X-2099709Y-15598330D01*
X-1956000Y-15617250D01*
X-1812291Y-15598330D01*
X-1678375Y-15542861D01*
X-1563379Y-15454621D01*
X-1475139Y-15339625D01*
X-1419670Y-15205709D01*
X-1400750Y-15062000D01*
X-1419670Y-14918291D01*
X-1475139Y-14784375D01*
X-1563379Y-14669379D01*
X-1569822Y-14664435D01*
X-1569827Y-14664430D01*
X-1614939Y-14629814D01*
X-1654014Y-14578889D01*
X-1662391Y-14515249D01*
X-1637824Y-14455948D01*
X-1586901Y-14416877D01*
X-1572375Y-14410861D01*
X-1457379Y-14322621D01*
X-1369139Y-14207625D01*
X-1314358Y-14075369D01*
X8745723Y-14075369D01*
X8746137Y-14079490D01*
X8746138Y-14079501D01*
X8775466Y-14371034D01*
X8775467Y-14371044D01*
X8775882Y-14375162D01*
X8776842Y-14379193D01*
X8776843Y-14379195D01*
X8836568Y-14629814D01*
X8845731Y-14668261D01*
X8954023Y-14949434D01*
X8956007Y-14953055D01*
X8956013Y-14953067D01*
X9020127Y-15070059D01*
X9098825Y-15213665D01*
X9101281Y-15216998D01*
X9101284Y-15217003D01*
X9191633Y-15339625D01*
X9277554Y-15456238D01*
X9487020Y-15672824D01*
X9606737Y-15767363D01*
X9720230Y-15856988D01*
X9720234Y-15856990D01*
X9723485Y-15859558D01*
X9982730Y-16013109D01*
X9986534Y-16014722D01*
X9986538Y-16014724D01*
X10091578Y-16059264D01*
X10260128Y-16130736D01*
X10550729Y-16210340D01*
X10849347Y-16250500D01*
X11073162Y-16250500D01*
X11075244Y-16250500D01*
X11300634Y-16235412D01*
X11595903Y-16175396D01*
X11880537Y-16076560D01*
X12149459Y-15940668D01*
X12397869Y-15770144D01*
X12621333Y-15568032D01*
X12815865Y-15337939D01*
X12977993Y-15083970D01*
X13104823Y-14810658D01*
X13194093Y-14522879D01*
X13244209Y-14225770D01*
X13254277Y-13924631D01*
X13224118Y-13624838D01*
X13154269Y-13331739D01*
X13045977Y-13050566D01*
X12901175Y-12786335D01*
X12896375Y-12779821D01*
X12724906Y-12547101D01*
X12722446Y-12543762D01*
X12512980Y-12327176D01*
X12386770Y-12227509D01*
X12279769Y-12143011D01*
X12279762Y-12143006D01*
X12276515Y-12140442D01*
X12272954Y-12138332D01*
X12272947Y-12138328D01*
X12020831Y-11989000D01*
X12020828Y-11988998D01*
X12017270Y-11986891D01*
X12013471Y-11985280D01*
X12013461Y-11985275D01*
X11743681Y-11870879D01*
X11743678Y-11870878D01*
X11739872Y-11869264D01*
X11735885Y-11868172D01*
X11735877Y-11868169D01*
X11453278Y-11790757D01*
X11453269Y-11790755D01*
X11449271Y-11789660D01*
X11445164Y-11789107D01*
X11445156Y-11789106D01*
X11154754Y-11750051D01*
X11154746Y-11750050D01*
X11150653Y-11749500D01*
X10924756Y-11749500D01*
X10922682Y-11749638D01*
X10922677Y-11749639D01*
X10703498Y-11764311D01*
X10703492Y-11764311D01*
X10699366Y-11764588D01*
X10695309Y-11765412D01*
X10695306Y-11765413D01*
X10408165Y-11823777D01*
X10408162Y-11823777D01*
X10404097Y-11824604D01*
X10400183Y-11825963D01*
X10400176Y-11825965D01*
X10123375Y-11922081D01*
X10123367Y-11922084D01*
X10119463Y-11923440D01*
X10115771Y-11925305D01*
X10115763Y-11925309D01*
X9854242Y-12057461D01*
X9854232Y-12057466D01*
X9850541Y-12059332D01*
X9847130Y-12061672D01*
X9847124Y-12061677D01*
X9605548Y-12227509D01*
X9605534Y-12227519D01*
X9602131Y-12229856D01*
X9599066Y-12232627D01*
X9599056Y-12232636D01*
X9381741Y-12429187D01*
X9381735Y-12429192D01*
X9378667Y-12431968D01*
X9375998Y-12435123D01*
X9375991Y-12435132D01*
X9186810Y-12658896D01*
X9186804Y-12658903D01*
X9184135Y-12662061D01*
X9181912Y-12665542D01*
X9181904Y-12665554D01*
X9024233Y-12912542D01*
X9024229Y-12912549D01*
X9022007Y-12916030D01*
X9020267Y-12919779D01*
X9020264Y-12919785D01*
X8896922Y-13185580D01*
X8896918Y-13185589D01*
X8895177Y-13189342D01*
X8893951Y-13193291D01*
X8893949Y-13193299D01*
X8815552Y-13446028D01*
X8805907Y-13477121D01*
X8805218Y-13481199D01*
X8805218Y-13481204D01*
X8756479Y-13770150D01*
X8755791Y-13774230D01*
X8755653Y-13778353D01*
X8755652Y-13778365D01*
X8745861Y-14071222D01*
X8745861Y-14071231D01*
X8745723Y-14075369D01*
X-1314358Y-14075369D01*
X-1313670Y-14073709D01*
X-1294750Y-13930000D01*
X-1313670Y-13786291D01*
X-1369139Y-13652375D01*
X-1457379Y-13537379D01*
X-1572375Y-13449139D01*
X-1608408Y-13434214D01*
X-1698777Y-13396782D01*
X-1698780Y-13396781D01*
X-1706291Y-13393670D01*
X-1714351Y-13392608D01*
X-1714354Y-13392608D01*
X-1841941Y-13375811D01*
X-1850000Y-13374750D01*
X-1858059Y-13375811D01*
X-1985647Y-13392608D01*
X-1985652Y-13392609D01*
X-1993709Y-13393670D01*
X-2001219Y-13396780D01*
X-2001224Y-13396782D01*
X-2120115Y-13446028D01*
X-2120117Y-13446029D01*
X-2127625Y-13449139D01*
X-2134067Y-13454082D01*
X-2134072Y-13454085D01*
X-2236179Y-13532435D01*
X-2236183Y-13532438D01*
X-2242621Y-13537379D01*
X-2247562Y-13543817D01*
X-2247565Y-13543821D01*
X-2325915Y-13645928D01*
X-2325918Y-13645933D01*
X-2330861Y-13652375D01*
X-2333971Y-13659883D01*
X-2333972Y-13659885D01*
X-2383218Y-13778776D01*
X-2383220Y-13778781D01*
X-2386330Y-13786291D01*
X-2387391Y-13794348D01*
X-2387392Y-13794353D01*
X-2397680Y-13872502D01*
X-2405250Y-13930000D01*
X-2386330Y-14073709D01*
X-2330861Y-14207625D01*
X-2325916Y-14214069D01*
X-2325915Y-14214071D01*
X-2316938Y-14225770D01*
X-2242621Y-14322621D01*
X-2236179Y-14327564D01*
X-2236174Y-14327569D01*
X-2191062Y-14362185D01*
X-2151988Y-14413107D01*
X-2143610Y-14476744D01*
X-2168172Y-14536045D01*
X-2219094Y-14575120D01*
X-2226115Y-14578028D01*
X-2226117Y-14578029D01*
X-2233625Y-14581139D01*
X-2240067Y-14586082D01*
X-2240072Y-14586085D01*
X-2342179Y-14664435D01*
X-2342183Y-14664438D01*
X-2348621Y-14669379D01*
X-2353562Y-14675817D01*
X-2353565Y-14675821D01*
X-2431915Y-14777928D01*
X-2431918Y-14777933D01*
X-2436861Y-14784375D01*
X-2439971Y-14791883D01*
X-2439972Y-14791885D01*
X-2489218Y-14910776D01*
X-2489220Y-14910781D01*
X-2492330Y-14918291D01*
X-2493391Y-14926348D01*
X-2493392Y-14926353D01*
X-2504775Y-15012817D01*
X-2511250Y-15062000D01*
X-9011812Y-15062000D01*
X-8895177Y-14810658D01*
X-8805907Y-14522879D01*
X-8755791Y-14225770D01*
X-8745723Y-13924631D01*
X-8775882Y-13624838D01*
X-8845731Y-13331739D01*
X-8909564Y-13166000D01*
X-479250Y-13166000D01*
X-460330Y-13309709D01*
X-457219Y-13317220D01*
X-457218Y-13317223D01*
X-433390Y-13374750D01*
X-404861Y-13443625D01*
X-399916Y-13450069D01*
X-399915Y-13450071D01*
X-321565Y-13552178D01*
X-316621Y-13558621D01*
X-201625Y-13646861D01*
X-67709Y-13702330D01*
X76000Y-13721250D01*
X219709Y-13702330D01*
X353625Y-13646861D01*
X468621Y-13558621D01*
X556861Y-13443625D01*
X612330Y-13309709D01*
X631250Y-13166000D01*
X612330Y-13022291D01*
X556861Y-12888375D01*
X468621Y-12773379D01*
X353625Y-12685139D01*
X290268Y-12658896D01*
X227223Y-12632782D01*
X227220Y-12632781D01*
X219709Y-12629670D01*
X211649Y-12628608D01*
X211646Y-12628608D01*
X84059Y-12611811D01*
X76000Y-12610750D01*
X67941Y-12611811D01*
X-59647Y-12628608D01*
X-59652Y-12628609D01*
X-67709Y-12629670D01*
X-75219Y-12632780D01*
X-75224Y-12632782D01*
X-194115Y-12682028D01*
X-194117Y-12682029D01*
X-201625Y-12685139D01*
X-208067Y-12690082D01*
X-208072Y-12690085D01*
X-310179Y-12768435D01*
X-310183Y-12768438D01*
X-316621Y-12773379D01*
X-321562Y-12779817D01*
X-321565Y-12779821D01*
X-399915Y-12881928D01*
X-399918Y-12881933D01*
X-404861Y-12888375D01*
X-407971Y-12895883D01*
X-407972Y-12895885D01*
X-457218Y-13014776D01*
X-457220Y-13014781D01*
X-460330Y-13022291D01*
X-461391Y-13030348D01*
X-461392Y-13030353D01*
X-464053Y-13050566D01*
X-479250Y-13166000D01*
X-8909564Y-13166000D01*
X-8954023Y-13050566D01*
X-9098825Y-12786335D01*
X-9103625Y-12779821D01*
X-9275094Y-12547101D01*
X-9277554Y-12543762D01*
X-9487020Y-12327176D01*
X-9613230Y-12227509D01*
X-9720231Y-12143011D01*
X-9720238Y-12143006D01*
X-9723485Y-12140442D01*
X-9727046Y-12138332D01*
X-9727053Y-12138328D01*
X-9979169Y-11989000D01*
X-9979172Y-11988998D01*
X-9982730Y-11986891D01*
X-9986529Y-11985280D01*
X-9986539Y-11985275D01*
X-10256319Y-11870879D01*
X-10256322Y-11870878D01*
X-10260128Y-11869264D01*
X-10264115Y-11868172D01*
X-10264123Y-11868169D01*
X-10546722Y-11790757D01*
X-10546731Y-11790755D01*
X-10550729Y-11789660D01*
X-10554836Y-11789107D01*
X-10554844Y-11789106D01*
X-10845246Y-11750051D01*
X-10845254Y-11750050D01*
X-10849347Y-11749500D01*
X-11075244Y-11749500D01*
X-11077318Y-11749638D01*
X-11077323Y-11749639D01*
X-11296502Y-11764311D01*
X-11296508Y-11764311D01*
X-11300634Y-11764588D01*
X-11304691Y-11765412D01*
X-11304694Y-11765413D01*
X-11591835Y-11823777D01*
X-11591838Y-11823777D01*
X-11595903Y-11824604D01*
X-11599817Y-11825963D01*
X-11599824Y-11825965D01*
X-11876625Y-11922081D01*
X-11876633Y-11922084D01*
X-11880537Y-11923440D01*
X-11884229Y-11925305D01*
X-11884237Y-11925309D01*
X-12145758Y-12057461D01*
X-12145768Y-12057466D01*
X-12149459Y-12059332D01*
X-12152870Y-12061672D01*
X-12152876Y-12061677D01*
X-12394452Y-12227509D01*
X-12394466Y-12227519D01*
X-12397869Y-12229856D01*
X-12400934Y-12232627D01*
X-12400944Y-12232636D01*
X-12618259Y-12429187D01*
X-12618265Y-12429192D01*
X-12621333Y-12431968D01*
X-12624002Y-12435123D01*
X-12624009Y-12435132D01*
X-12813190Y-12658896D01*
X-12813196Y-12658903D01*
X-12815865Y-12662061D01*
X-12818088Y-12665542D01*
X-12818096Y-12665554D01*
X-12975767Y-12912542D01*
X-12975771Y-12912549D01*
X-12977993Y-12916030D01*
X-12979733Y-12919779D01*
X-12979736Y-12919785D01*
X-13103078Y-13185580D01*
X-13103082Y-13185589D01*
X-13104823Y-13189342D01*
X-13106049Y-13193291D01*
X-13106051Y-13193299D01*
X-13184448Y-13446028D01*
X-13194093Y-13477121D01*
X-13194782Y-13481199D01*
X-13194782Y-13481204D01*
X-13243521Y-13770150D01*
X-13244209Y-13774230D01*
X-13244347Y-13778353D01*
X-13244348Y-13778365D01*
X-13254139Y-14071222D01*
X-13254139Y-14071231D01*
X-13254277Y-14075369D01*
X-35561718Y-14075369D01*
X-35645320Y-13876192D01*
X-35646799Y-13872502D01*
X-35676684Y-13794353D01*
X-36086377Y-12723028D01*
X-36087735Y-12719298D01*
X-36490166Y-11556210D01*
X-36491387Y-11552486D01*
X-36821171Y-10490000D01*
X-4035250Y-10490000D01*
X-4016330Y-10633709D01*
X-3960861Y-10767625D01*
X-3872621Y-10882621D01*
X-3757625Y-10970861D01*
X-3623709Y-11026330D01*
X-3480000Y-11045250D01*
X-3336291Y-11026330D01*
X-3202375Y-10970861D01*
X-3087379Y-10882621D01*
X-2999139Y-10767625D01*
X-2943670Y-10633709D01*
X-2924750Y-10490000D01*
X-2257250Y-10490000D01*
X-2238330Y-10633709D01*
X-2182861Y-10767625D01*
X-2094621Y-10882621D01*
X-1979625Y-10970861D01*
X-1845709Y-11026330D01*
X-1702000Y-11045250D01*
X-1558291Y-11026330D01*
X-1424375Y-10970861D01*
X-1309379Y-10882621D01*
X-1221139Y-10767625D01*
X-1165670Y-10633709D01*
X-1146750Y-10490000D01*
X-1165670Y-10346291D01*
X-1221139Y-10212375D01*
X-1309379Y-10097379D01*
X-1424375Y-10009139D01*
X-1460408Y-9994214D01*
X-1550777Y-9956782D01*
X-1550780Y-9956781D01*
X-1558291Y-9953670D01*
X-1566351Y-9952608D01*
X-1566354Y-9952608D01*
X-1693941Y-9935811D01*
X-1702000Y-9934750D01*
X-1710059Y-9935811D01*
X-1837647Y-9952608D01*
X-1837652Y-9952609D01*
X-1845709Y-9953670D01*
X-1853219Y-9956780D01*
X-1853224Y-9956782D01*
X-1972115Y-10006028D01*
X-1972117Y-10006029D01*
X-1979625Y-10009139D01*
X-1986067Y-10014082D01*
X-1986072Y-10014085D01*
X-2088179Y-10092435D01*
X-2088183Y-10092438D01*
X-2094621Y-10097379D01*
X-2099562Y-10103817D01*
X-2099565Y-10103821D01*
X-2177915Y-10205928D01*
X-2177918Y-10205933D01*
X-2182861Y-10212375D01*
X-2185971Y-10219883D01*
X-2185972Y-10219885D01*
X-2235218Y-10338776D01*
X-2235220Y-10338781D01*
X-2238330Y-10346291D01*
X-2239391Y-10354348D01*
X-2239392Y-10354353D01*
X-2252878Y-10456791D01*
X-2257250Y-10490000D01*
X-2924750Y-10490000D01*
X-2943670Y-10346291D01*
X-2999139Y-10212375D01*
X-3087379Y-10097379D01*
X-3202375Y-10009139D01*
X-3238408Y-9994214D01*
X-3328777Y-9956782D01*
X-3328780Y-9956781D01*
X-3336291Y-9953670D01*
X-3344351Y-9952608D01*
X-3344354Y-9952608D01*
X-3471941Y-9935811D01*
X-3480000Y-9934750D01*
X-3488059Y-9935811D01*
X-3615647Y-9952608D01*
X-3615652Y-9952609D01*
X-3623709Y-9953670D01*
X-3631219Y-9956780D01*
X-3631224Y-9956782D01*
X-3750115Y-10006028D01*
X-3750117Y-10006029D01*
X-3757625Y-10009139D01*
X-3764067Y-10014082D01*
X-3764072Y-10014085D01*
X-3866179Y-10092435D01*
X-3866183Y-10092438D01*
X-3872621Y-10097379D01*
X-3877562Y-10103817D01*
X-3877565Y-10103821D01*
X-3955915Y-10205928D01*
X-3955918Y-10205933D01*
X-3960861Y-10212375D01*
X-3963971Y-10219883D01*
X-3963972Y-10219885D01*
X-4013218Y-10338776D01*
X-4013220Y-10338781D01*
X-4016330Y-10346291D01*
X-4017391Y-10354348D01*
X-4017392Y-10354353D01*
X-4030878Y-10456791D01*
X-4035250Y-10490000D01*
X-36821171Y-10490000D01*
X-36856202Y-10377140D01*
X-36857320Y-10373322D01*
X-37184181Y-9186811D01*
X-37185173Y-9182969D01*
X-37473730Y-7986557D01*
X-37474583Y-7982750D01*
X-37724548Y-6777623D01*
X-37725278Y-6773792D01*
X-37785827Y-6426000D01*
X-1495250Y-6426000D01*
X-1494189Y-6434059D01*
X-1479269Y-6547391D01*
X-1476330Y-6569709D01*
X-1473219Y-6577220D01*
X-1473218Y-6577223D01*
X-1469006Y-6587391D01*
X-1420861Y-6703625D01*
X-1415916Y-6710069D01*
X-1415915Y-6710071D01*
X-1364048Y-6777665D01*
X-1332621Y-6818621D01*
X-1217625Y-6906861D01*
X-1083709Y-6962330D01*
X-940000Y-6981250D01*
X-796291Y-6962330D01*
X-662375Y-6906861D01*
X-547379Y-6818621D01*
X-459139Y-6703625D01*
X-449353Y-6680000D01*
X18062750Y-6680000D01*
X18063811Y-6688059D01*
X18080151Y-6812178D01*
X18081670Y-6823709D01*
X18137139Y-6957625D01*
X18225379Y-7072621D01*
X18340375Y-7160861D01*
X18474291Y-7216330D01*
X18618000Y-7235250D01*
X18761709Y-7216330D01*
X18895625Y-7160861D01*
X19010621Y-7072621D01*
X19098861Y-6957625D01*
X19154330Y-6823709D01*
X19173250Y-6680000D01*
X19154330Y-6536291D01*
X19098861Y-6402375D01*
X19010621Y-6287379D01*
X18921834Y-6219250D01*
X18902071Y-6204085D01*
X18902069Y-6204084D01*
X18895625Y-6199139D01*
X18859592Y-6184214D01*
X18769223Y-6146782D01*
X18769220Y-6146781D01*
X18761709Y-6143670D01*
X18753649Y-6142608D01*
X18753646Y-6142608D01*
X18626059Y-6125811D01*
X18618000Y-6124750D01*
X18609941Y-6125811D01*
X18482353Y-6142608D01*
X18482348Y-6142609D01*
X18474291Y-6143670D01*
X18466781Y-6146780D01*
X18466776Y-6146782D01*
X18347885Y-6196028D01*
X18347883Y-6196029D01*
X18340375Y-6199139D01*
X18333933Y-6204082D01*
X18333928Y-6204085D01*
X18231821Y-6282435D01*
X18231817Y-6282438D01*
X18225379Y-6287379D01*
X18220438Y-6293817D01*
X18220435Y-6293821D01*
X18142085Y-6395928D01*
X18142082Y-6395933D01*
X18137139Y-6402375D01*
X18134029Y-6409883D01*
X18134028Y-6409885D01*
X18084782Y-6528776D01*
X18084780Y-6528781D01*
X18081670Y-6536291D01*
X18080609Y-6544348D01*
X18080608Y-6544353D01*
X18077997Y-6564189D01*
X18062750Y-6680000D01*
X-449353Y-6680000D01*
X-403670Y-6569709D01*
X-384750Y-6426000D01*
X-403670Y-6282291D01*
X-459139Y-6148375D01*
X-534625Y-6050000D01*
X30394750Y-6050000D01*
X30395811Y-6058059D01*
X30408403Y-6153709D01*
X30413670Y-6193709D01*
X30416781Y-6201220D01*
X30416782Y-6201223D01*
X30449460Y-6280114D01*
X30469139Y-6327625D01*
X30557379Y-6442621D01*
X30672375Y-6530861D01*
X30806291Y-6586330D01*
X30950000Y-6605250D01*
X31093709Y-6586330D01*
X31227625Y-6530861D01*
X31342621Y-6442621D01*
X31430861Y-6327625D01*
X31486330Y-6193709D01*
X31505250Y-6050000D01*
X31499984Y-6010000D01*
X32134750Y-6010000D01*
X32135811Y-6018059D01*
X32151853Y-6139914D01*
X32153670Y-6153709D01*
X32156781Y-6161220D01*
X32156782Y-6161223D01*
X32194214Y-6251592D01*
X32209139Y-6287625D01*
X32297379Y-6402621D01*
X32412375Y-6490861D01*
X32546291Y-6546330D01*
X32690000Y-6565250D01*
X32833709Y-6546330D01*
X32967625Y-6490861D01*
X33082621Y-6402621D01*
X33170861Y-6287625D01*
X33226330Y-6153709D01*
X33245250Y-6010000D01*
X33226330Y-5866291D01*
X33170861Y-5732375D01*
X33082621Y-5617379D01*
X33076178Y-5612435D01*
X32974071Y-5534085D01*
X32974069Y-5534084D01*
X32967625Y-5529139D01*
X32887163Y-5495811D01*
X32841223Y-5476782D01*
X32841220Y-5476781D01*
X32833709Y-5473670D01*
X32825649Y-5472608D01*
X32825646Y-5472608D01*
X32698059Y-5455811D01*
X32690000Y-5454750D01*
X32681941Y-5455811D01*
X32554353Y-5472608D01*
X32554348Y-5472609D01*
X32546291Y-5473670D01*
X32538781Y-5476780D01*
X32538776Y-5476782D01*
X32419885Y-5526028D01*
X32419883Y-5526029D01*
X32412375Y-5529139D01*
X32405933Y-5534082D01*
X32405928Y-5534085D01*
X32303821Y-5612435D01*
X32303817Y-5612438D01*
X32297379Y-5617379D01*
X32292438Y-5623817D01*
X32292435Y-5623821D01*
X32214085Y-5725928D01*
X32214082Y-5725933D01*
X32209139Y-5732375D01*
X32206029Y-5739883D01*
X32206028Y-5739885D01*
X32156782Y-5858776D01*
X32156780Y-5858781D01*
X32153670Y-5866291D01*
X32152609Y-5874348D01*
X32152608Y-5874353D01*
X32143752Y-5941625D01*
X32134750Y-6010000D01*
X31499984Y-6010000D01*
X31486330Y-5906291D01*
X31430861Y-5772375D01*
X31342621Y-5657379D01*
X31227625Y-5569139D01*
X31190023Y-5553564D01*
X31101223Y-5516782D01*
X31101220Y-5516781D01*
X31093709Y-5513670D01*
X31085649Y-5512608D01*
X31085646Y-5512608D01*
X30958059Y-5495811D01*
X30950000Y-5494750D01*
X30941941Y-5495811D01*
X30814353Y-5512608D01*
X30814348Y-5512609D01*
X30806291Y-5513670D01*
X30798781Y-5516780D01*
X30798776Y-5516782D01*
X30679885Y-5566028D01*
X30679883Y-5566029D01*
X30672375Y-5569139D01*
X30665933Y-5574082D01*
X30665928Y-5574085D01*
X30563821Y-5652435D01*
X30563817Y-5652438D01*
X30557379Y-5657379D01*
X30552438Y-5663817D01*
X30552435Y-5663821D01*
X30474085Y-5765928D01*
X30474082Y-5765933D01*
X30469139Y-5772375D01*
X30466029Y-5779883D01*
X30466028Y-5779885D01*
X30416782Y-5898776D01*
X30416780Y-5898781D01*
X30413670Y-5906291D01*
X30412609Y-5914348D01*
X30412608Y-5914353D01*
X30409018Y-5941625D01*
X30394750Y-6050000D01*
X-534625Y-6050000D01*
X-547379Y-6033379D01*
X-577847Y-6010000D01*
X-655929Y-5950085D01*
X-655931Y-5950084D01*
X-662375Y-5945139D01*
X-736700Y-5914353D01*
X-788777Y-5892782D01*
X-788780Y-5892781D01*
X-796291Y-5889670D01*
X-804351Y-5888608D01*
X-804354Y-5888608D01*
X-931941Y-5871811D01*
X-940000Y-5870750D01*
X-948059Y-5871811D01*
X-1075647Y-5888608D01*
X-1075652Y-5888609D01*
X-1083709Y-5889670D01*
X-1091219Y-5892780D01*
X-1091224Y-5892782D01*
X-1210115Y-5942028D01*
X-1210117Y-5942029D01*
X-1217625Y-5945139D01*
X-1224067Y-5950082D01*
X-1224072Y-5950085D01*
X-1326179Y-6028435D01*
X-1326183Y-6028438D01*
X-1332621Y-6033379D01*
X-1337562Y-6039817D01*
X-1337565Y-6039821D01*
X-1415915Y-6141928D01*
X-1415918Y-6141933D01*
X-1420861Y-6148375D01*
X-1423971Y-6155883D01*
X-1423972Y-6155885D01*
X-1473218Y-6274776D01*
X-1473220Y-6274781D01*
X-1476330Y-6282291D01*
X-1477391Y-6290348D01*
X-1477392Y-6290353D01*
X-1483147Y-6334071D01*
X-1495250Y-6426000D01*
X-37785827Y-6426000D01*
X-37918489Y-5664000D01*
X-20037250Y-5664000D01*
X-20036189Y-5672059D01*
X-20021994Y-5779885D01*
X-20018330Y-5807709D01*
X-20015219Y-5815220D01*
X-20015218Y-5815223D01*
X-19990726Y-5874353D01*
X-19962861Y-5941625D01*
X-19957916Y-5948069D01*
X-19957915Y-5948071D01*
X-19879565Y-6050178D01*
X-19874621Y-6056621D01*
X-19759625Y-6144861D01*
X-19625709Y-6200330D01*
X-19482000Y-6219250D01*
X-19338291Y-6200330D01*
X-19204375Y-6144861D01*
X-19089379Y-6056621D01*
X-19001139Y-5941625D01*
X-18945670Y-5807709D01*
X-18926750Y-5664000D01*
X-18945670Y-5520291D01*
X-19001139Y-5386375D01*
X-19089379Y-5271379D01*
X-19178166Y-5203250D01*
X-19197929Y-5188085D01*
X-19197931Y-5188084D01*
X-19204375Y-5183139D01*
X-19269895Y-5156000D01*
X-19330777Y-5130782D01*
X-19330780Y-5130781D01*
X-19338291Y-5127670D01*
X-19346351Y-5126608D01*
X-19346354Y-5126608D01*
X-19473941Y-5109811D01*
X-19482000Y-5108750D01*
X-19490059Y-5109811D01*
X-19617647Y-5126608D01*
X-19617652Y-5126609D01*
X-19625709Y-5127670D01*
X-19633219Y-5130780D01*
X-19633224Y-5130782D01*
X-19752115Y-5180028D01*
X-19752117Y-5180029D01*
X-19759625Y-5183139D01*
X-19766067Y-5188082D01*
X-19766072Y-5188085D01*
X-19868179Y-5266435D01*
X-19868183Y-5266438D01*
X-19874621Y-5271379D01*
X-19879562Y-5277817D01*
X-19879565Y-5277821D01*
X-19957915Y-5379928D01*
X-19957918Y-5379933D01*
X-19962861Y-5386375D01*
X-19965971Y-5393883D01*
X-19965972Y-5393885D01*
X-20015218Y-5512776D01*
X-20015220Y-5512781D01*
X-20018330Y-5520291D01*
X-20019391Y-5528348D01*
X-20019392Y-5528353D01*
X-20035727Y-5652435D01*
X-20037250Y-5664000D01*
X-37918489Y-5664000D01*
X-37926606Y-5617379D01*
X-37936359Y-5561359D01*
X-37936980Y-5557422D01*
X-38065344Y-4648000D01*
X-18259250Y-4648000D01*
X-18258189Y-4656059D01*
X-18243669Y-4766353D01*
X-18240330Y-4791709D01*
X-18237219Y-4799220D01*
X-18237218Y-4799223D01*
X-18231822Y-4812250D01*
X-18184861Y-4925625D01*
X-18179916Y-4932069D01*
X-18179915Y-4932071D01*
X-18112173Y-5020353D01*
X-18096621Y-5040621D01*
X-17981625Y-5128861D01*
X-17847709Y-5184330D01*
X-17704000Y-5203250D01*
X-17560291Y-5184330D01*
X-17491895Y-5156000D01*
X1298750Y-5156000D01*
X1299811Y-5164059D01*
X1316151Y-5288178D01*
X1317670Y-5299709D01*
X1373139Y-5433625D01*
X1378084Y-5440069D01*
X1378085Y-5440071D01*
X1444043Y-5526028D01*
X1461379Y-5548621D01*
X1576375Y-5636861D01*
X1710291Y-5692330D01*
X1854000Y-5711250D01*
X1997709Y-5692330D01*
X2131625Y-5636861D01*
X2246621Y-5548621D01*
X2334861Y-5433625D01*
X2390330Y-5299709D01*
X2409250Y-5156000D01*
X2390330Y-5012291D01*
X2344647Y-4902000D01*
X20856750Y-4902000D01*
X20857811Y-4910059D01*
X20874151Y-5034178D01*
X20875670Y-5045709D01*
X20878781Y-5053220D01*
X20878782Y-5053223D01*
X20908063Y-5123914D01*
X20931139Y-5179625D01*
X20936084Y-5186069D01*
X20936085Y-5186071D01*
X20948453Y-5202189D01*
X21019379Y-5294621D01*
X21134375Y-5382861D01*
X21268291Y-5438330D01*
X21412000Y-5457250D01*
X21555709Y-5438330D01*
X21689625Y-5382861D01*
X21804621Y-5294621D01*
X21892861Y-5179625D01*
X21948330Y-5045709D01*
X21967250Y-4902000D01*
X21948330Y-4758291D01*
X21892861Y-4624375D01*
X21804621Y-4509379D01*
X21776191Y-4487564D01*
X21696071Y-4426085D01*
X21696069Y-4426084D01*
X21689625Y-4421139D01*
X21620836Y-4392646D01*
X21563223Y-4368782D01*
X21563220Y-4368781D01*
X21555709Y-4365670D01*
X21547649Y-4364608D01*
X21547646Y-4364608D01*
X21420059Y-4347811D01*
X21412000Y-4346750D01*
X21403941Y-4347811D01*
X21276353Y-4364608D01*
X21276348Y-4364609D01*
X21268291Y-4365670D01*
X21260781Y-4368780D01*
X21260776Y-4368782D01*
X21141885Y-4418028D01*
X21141883Y-4418029D01*
X21134375Y-4421139D01*
X21127933Y-4426082D01*
X21127928Y-4426085D01*
X21025821Y-4504435D01*
X21025817Y-4504438D01*
X21019379Y-4509379D01*
X21014438Y-4515817D01*
X21014435Y-4515821D01*
X20936085Y-4617928D01*
X20936082Y-4617933D01*
X20931139Y-4624375D01*
X20928029Y-4631883D01*
X20928028Y-4631885D01*
X20878782Y-4750776D01*
X20878780Y-4750781D01*
X20875670Y-4758291D01*
X20874609Y-4766348D01*
X20874608Y-4766353D01*
X20868566Y-4812250D01*
X20856750Y-4902000D01*
X2344647Y-4902000D01*
X2334861Y-4878375D01*
X2246621Y-4763379D01*
X2230197Y-4750776D01*
X2138071Y-4680085D01*
X2138069Y-4680084D01*
X2131625Y-4675139D01*
X2066105Y-4648000D01*
X2005223Y-4622782D01*
X2005220Y-4622781D01*
X1997709Y-4619670D01*
X1989649Y-4618608D01*
X1989646Y-4618608D01*
X1862059Y-4601811D01*
X1854000Y-4600750D01*
X1845941Y-4601811D01*
X1718353Y-4618608D01*
X1718348Y-4618609D01*
X1710291Y-4619670D01*
X1702781Y-4622780D01*
X1702776Y-4622782D01*
X1583885Y-4672028D01*
X1583883Y-4672029D01*
X1576375Y-4675139D01*
X1569933Y-4680082D01*
X1569928Y-4680085D01*
X1467821Y-4758435D01*
X1467817Y-4758438D01*
X1461379Y-4763379D01*
X1456438Y-4769817D01*
X1456435Y-4769821D01*
X1378085Y-4871928D01*
X1378082Y-4871933D01*
X1373139Y-4878375D01*
X1370029Y-4885883D01*
X1370028Y-4885885D01*
X1320782Y-5004776D01*
X1320780Y-5004781D01*
X1317670Y-5012291D01*
X1316609Y-5020348D01*
X1316608Y-5020353D01*
X1299811Y-5147941D01*
X1298750Y-5156000D01*
X-17491895Y-5156000D01*
X-17426375Y-5128861D01*
X-17311379Y-5040621D01*
X-17223139Y-4925625D01*
X-17167670Y-4791709D01*
X-17148750Y-4648000D01*
X-17167670Y-4504291D01*
X-17223139Y-4370375D01*
X-17311379Y-4255379D01*
X-17339620Y-4233709D01*
X-17419929Y-4172085D01*
X-17419931Y-4172084D01*
X-17426375Y-4167139D01*
X-17513085Y-4131223D01*
X-17552777Y-4114782D01*
X-17552780Y-4114781D01*
X-17560291Y-4111670D01*
X-17568351Y-4110608D01*
X-17568354Y-4110608D01*
X-17695941Y-4093811D01*
X-17704000Y-4092750D01*
X-17712059Y-4093811D01*
X-17839647Y-4110608D01*
X-17839652Y-4110609D01*
X-17847709Y-4111670D01*
X-17855219Y-4114780D01*
X-17855224Y-4114782D01*
X-17974115Y-4164028D01*
X-17974117Y-4164029D01*
X-17981625Y-4167139D01*
X-17988067Y-4172082D01*
X-17988072Y-4172085D01*
X-18090179Y-4250435D01*
X-18090183Y-4250438D01*
X-18096621Y-4255379D01*
X-18101562Y-4261817D01*
X-18101565Y-4261821D01*
X-18179915Y-4363928D01*
X-18179918Y-4363933D01*
X-18184861Y-4370375D01*
X-18187971Y-4377883D01*
X-18187972Y-4377885D01*
X-18237218Y-4496776D01*
X-18237220Y-4496781D01*
X-18240330Y-4504291D01*
X-18241391Y-4512348D01*
X-18241392Y-4512353D01*
X-18255520Y-4619670D01*
X-18259250Y-4648000D01*
X-38065344Y-4648000D01*
X-38108984Y-4338824D01*
X-38109478Y-4334868D01*
X-38133694Y-4111670D01*
X-38147980Y-3980000D01*
X-22155250Y-3980000D01*
X-22154189Y-3988059D01*
X-22137506Y-4114782D01*
X-22136330Y-4123709D01*
X-22080861Y-4257625D01*
X-22075916Y-4264069D01*
X-22075915Y-4264071D01*
X-22002218Y-4360114D01*
X-21992621Y-4372621D01*
X-21877625Y-4460861D01*
X-21743709Y-4516330D01*
X-21600000Y-4535250D01*
X-21456291Y-4516330D01*
X-21322375Y-4460861D01*
X-21207379Y-4372621D01*
X-21119139Y-4257625D01*
X-21063670Y-4123709D01*
X-21059232Y-4090000D01*
X-2675250Y-4090000D01*
X-2674189Y-4098059D01*
X-2665095Y-4167139D01*
X-2656330Y-4233709D01*
X-2600861Y-4367625D01*
X-2595916Y-4374069D01*
X-2595915Y-4374071D01*
X-2592988Y-4377885D01*
X-2512621Y-4482621D01*
X-2397625Y-4570861D01*
X-2263709Y-4626330D01*
X-2120000Y-4645250D01*
X-1976291Y-4626330D01*
X-1842375Y-4570861D01*
X-1727379Y-4482621D01*
X-1639139Y-4367625D01*
X-1593317Y-4257000D01*
X16347750Y-4257000D01*
X16348811Y-4265059D01*
X16364689Y-4385668D01*
X16366670Y-4400709D01*
X16369781Y-4408220D01*
X16369782Y-4408223D01*
X16402646Y-4487564D01*
X16422139Y-4534625D01*
X16427084Y-4541069D01*
X16427085Y-4541071D01*
X16490118Y-4623217D01*
X16510379Y-4649621D01*
X16625375Y-4737861D01*
X16759291Y-4793330D01*
X16903000Y-4812250D01*
X17046709Y-4793330D01*
X17180625Y-4737861D01*
X17295621Y-4649621D01*
X17383861Y-4534625D01*
X17439330Y-4400709D01*
X17458250Y-4257000D01*
X17439330Y-4113291D01*
X17383861Y-3979375D01*
X17295621Y-3864379D01*
X17237636Y-3819885D01*
X17187071Y-3781085D01*
X17187069Y-3781084D01*
X17180625Y-3776139D01*
X17144592Y-3761214D01*
X17054223Y-3723782D01*
X17054220Y-3723781D01*
X17046709Y-3720670D01*
X17038649Y-3719608D01*
X17038646Y-3719608D01*
X16911059Y-3702811D01*
X16903000Y-3701750D01*
X16894941Y-3702811D01*
X16767353Y-3719608D01*
X16767348Y-3719609D01*
X16759291Y-3720670D01*
X16751781Y-3723780D01*
X16751776Y-3723782D01*
X16632885Y-3773028D01*
X16632883Y-3773029D01*
X16625375Y-3776139D01*
X16618933Y-3781082D01*
X16618928Y-3781085D01*
X16516821Y-3859435D01*
X16516817Y-3859438D01*
X16510379Y-3864379D01*
X16505438Y-3870817D01*
X16505435Y-3870821D01*
X16427085Y-3972928D01*
X16427082Y-3972933D01*
X16422139Y-3979375D01*
X16419029Y-3986883D01*
X16419028Y-3986885D01*
X16369782Y-4105776D01*
X16369780Y-4105781D01*
X16366670Y-4113291D01*
X16365609Y-4121348D01*
X16365608Y-4121353D01*
X16358929Y-4172085D01*
X16347750Y-4257000D01*
X-1593317Y-4257000D01*
X-1583670Y-4233709D01*
X-1564750Y-4090000D01*
X-1583670Y-3946291D01*
X-1639139Y-3812375D01*
X-1727379Y-3697379D01*
X-1842375Y-3609139D01*
X-1906845Y-3582435D01*
X-1968777Y-3556782D01*
X-1968780Y-3556781D01*
X-1976291Y-3553670D01*
X-1984351Y-3552608D01*
X-1984354Y-3552608D01*
X-2111941Y-3535811D01*
X-2120000Y-3534750D01*
X-2128059Y-3535811D01*
X-2255647Y-3552608D01*
X-2255652Y-3552609D01*
X-2263709Y-3553670D01*
X-2271219Y-3556780D01*
X-2271224Y-3556782D01*
X-2390115Y-3606028D01*
X-2390117Y-3606029D01*
X-2397625Y-3609139D01*
X-2404067Y-3614082D01*
X-2404072Y-3614085D01*
X-2506179Y-3692435D01*
X-2506183Y-3692438D01*
X-2512621Y-3697379D01*
X-2517562Y-3703817D01*
X-2517565Y-3703821D01*
X-2595915Y-3805928D01*
X-2595918Y-3805933D01*
X-2600861Y-3812375D01*
X-2603971Y-3819883D01*
X-2603972Y-3819885D01*
X-2653218Y-3938776D01*
X-2653220Y-3938781D01*
X-2656330Y-3946291D01*
X-2657391Y-3954348D01*
X-2657392Y-3954353D01*
X-2661829Y-3988059D01*
X-2675250Y-4090000D01*
X-21059232Y-4090000D01*
X-21044750Y-3980000D01*
X-21063670Y-3836291D01*
X-21119139Y-3702375D01*
X-21207379Y-3587379D01*
X-21213822Y-3582435D01*
X-21315929Y-3504085D01*
X-21315931Y-3504084D01*
X-21322375Y-3499139D01*
X-21358408Y-3484214D01*
X-21448777Y-3446782D01*
X-21448780Y-3446781D01*
X-21456291Y-3443670D01*
X-21464351Y-3442608D01*
X-21464354Y-3442608D01*
X-21591941Y-3425811D01*
X-21600000Y-3424750D01*
X-21608059Y-3425811D01*
X-21735647Y-3442608D01*
X-21735652Y-3442609D01*
X-21743709Y-3443670D01*
X-21751219Y-3446780D01*
X-21751224Y-3446782D01*
X-21870115Y-3496028D01*
X-21870117Y-3496029D01*
X-21877625Y-3499139D01*
X-21884067Y-3504082D01*
X-21884072Y-3504085D01*
X-21986179Y-3582435D01*
X-21986183Y-3582438D01*
X-21992621Y-3587379D01*
X-21997562Y-3593817D01*
X-21997565Y-3593821D01*
X-22075915Y-3695928D01*
X-22075918Y-3695933D01*
X-22080861Y-3702375D01*
X-22083971Y-3709883D01*
X-22083972Y-3709885D01*
X-22133218Y-3828776D01*
X-22133220Y-3828781D01*
X-22136330Y-3836291D01*
X-22137391Y-3844348D01*
X-22137392Y-3844353D01*
X-22154189Y-3971941D01*
X-22155250Y-3980000D01*
X-38147980Y-3980000D01*
X-38242227Y-3111343D01*
X-38242591Y-3107392D01*
X-38277818Y-2644330D01*
X-38335944Y-1880254D01*
X-38336181Y-1876281D01*
X-38341989Y-1743709D01*
X-38348285Y-1600000D01*
X-34261250Y-1600000D01*
X-34260189Y-1608059D01*
X-34243815Y-1732435D01*
X-34242330Y-1743709D01*
X-34186861Y-1877625D01*
X-34181916Y-1884069D01*
X-34181915Y-1884071D01*
X-34103565Y-1986178D01*
X-34098621Y-1992621D01*
X-33983625Y-2080861D01*
X-33849709Y-2136330D01*
X-33706000Y-2155250D01*
X-33562291Y-2136330D01*
X-33428375Y-2080861D01*
X-33313379Y-1992621D01*
X-33225139Y-1877625D01*
X-33169670Y-1743709D01*
X-33150750Y-1600000D01*
X-33162599Y-1510000D01*
X-31595250Y-1510000D01*
X-31594189Y-1518059D01*
X-31584235Y-1593670D01*
X-31576330Y-1653709D01*
X-31573219Y-1661220D01*
X-31573218Y-1661223D01*
X-31552834Y-1710435D01*
X-31520861Y-1787625D01*
X-31515916Y-1794069D01*
X-31515915Y-1794071D01*
X-31451801Y-1877625D01*
X-31432621Y-1902621D01*
X-31317625Y-1990861D01*
X-31183709Y-2046330D01*
X-31040000Y-2065250D01*
X-31000123Y-2060000D01*
X-29565250Y-2060000D01*
X-29546330Y-2203709D01*
X-29543219Y-2211220D01*
X-29543218Y-2211223D01*
X-29514223Y-2281223D01*
X-29490861Y-2337625D01*
X-29402621Y-2452621D01*
X-29287625Y-2540861D01*
X-29153709Y-2596330D01*
X-29010000Y-2615250D01*
X-28866291Y-2596330D01*
X-28732375Y-2540861D01*
X-28617379Y-2452621D01*
X-28529139Y-2337625D01*
X-28473670Y-2203709D01*
X-28463966Y-2130000D01*
X-27775250Y-2130000D01*
X-27774189Y-2138059D01*
X-27758238Y-2259223D01*
X-27756330Y-2273709D01*
X-27700861Y-2407625D01*
X-27612621Y-2522621D01*
X-27497625Y-2610861D01*
X-27363709Y-2666330D01*
X-27220000Y-2685250D01*
X-27076291Y-2666330D01*
X-26942375Y-2610861D01*
X-26827379Y-2522621D01*
X-26739139Y-2407625D01*
X-26683670Y-2273709D01*
X-26664750Y-2130000D01*
X-26667646Y-2108000D01*
X32314750Y-2108000D01*
X32315811Y-2116059D01*
X32328339Y-2211223D01*
X32333670Y-2251709D01*
X32336781Y-2259220D01*
X32336782Y-2259223D01*
X32345895Y-2281223D01*
X32389139Y-2385625D01*
X32477379Y-2500621D01*
X32592375Y-2588861D01*
X32726291Y-2644330D01*
X32870000Y-2663250D01*
X33013709Y-2644330D01*
X33147625Y-2588861D01*
X33262621Y-2500621D01*
X33350861Y-2385625D01*
X33406330Y-2251709D01*
X33425250Y-2108000D01*
X33406330Y-1964291D01*
X33350861Y-1830375D01*
X33262621Y-1715379D01*
X33200067Y-1667379D01*
X33154071Y-1632085D01*
X33154069Y-1632084D01*
X33147625Y-1627139D01*
X33074336Y-1596782D01*
X33021223Y-1574782D01*
X33021220Y-1574781D01*
X33013709Y-1571670D01*
X33005649Y-1570608D01*
X33005646Y-1570608D01*
X32878059Y-1553811D01*
X32870000Y-1552750D01*
X32861941Y-1553811D01*
X32734353Y-1570608D01*
X32734348Y-1570609D01*
X32726291Y-1571670D01*
X32718781Y-1574780D01*
X32718776Y-1574782D01*
X32599885Y-1624028D01*
X32599883Y-1624029D01*
X32592375Y-1627139D01*
X32585933Y-1632082D01*
X32585928Y-1632085D01*
X32483821Y-1710435D01*
X32483817Y-1710438D01*
X32477379Y-1715379D01*
X32472438Y-1721817D01*
X32472435Y-1721821D01*
X32394085Y-1823928D01*
X32394082Y-1823933D01*
X32389139Y-1830375D01*
X32386029Y-1837883D01*
X32386028Y-1837885D01*
X32336782Y-1956776D01*
X32336780Y-1956781D01*
X32333670Y-1964291D01*
X32332609Y-1972348D01*
X32332608Y-1972353D01*
X32315811Y-2099941D01*
X32314750Y-2108000D01*
X-26667646Y-2108000D01*
X-26683670Y-1986291D01*
X-26739139Y-1852375D01*
X-26827379Y-1737379D01*
X-26942375Y-1649139D01*
X-27041552Y-1608059D01*
X-27068777Y-1596782D01*
X-27068780Y-1596781D01*
X-27076291Y-1593670D01*
X-27084351Y-1592608D01*
X-27084354Y-1592608D01*
X-27211941Y-1575811D01*
X-27220000Y-1574750D01*
X-27228059Y-1575811D01*
X-27355647Y-1592608D01*
X-27355652Y-1592609D01*
X-27363709Y-1593670D01*
X-27371219Y-1596780D01*
X-27371224Y-1596782D01*
X-27490115Y-1646028D01*
X-27490117Y-1646029D01*
X-27497625Y-1649139D01*
X-27504067Y-1654082D01*
X-27504072Y-1654085D01*
X-27606179Y-1732435D01*
X-27606183Y-1732438D01*
X-27612621Y-1737379D01*
X-27617562Y-1743817D01*
X-27617565Y-1743821D01*
X-27695915Y-1845928D01*
X-27695918Y-1845933D01*
X-27700861Y-1852375D01*
X-27703971Y-1859883D01*
X-27703972Y-1859885D01*
X-27753218Y-1978776D01*
X-27753220Y-1978781D01*
X-27756330Y-1986291D01*
X-27757391Y-1994348D01*
X-27757392Y-1994353D01*
X-27768781Y-2080861D01*
X-27775250Y-2130000D01*
X-28463966Y-2130000D01*
X-28454750Y-2060000D01*
X-28473670Y-1916291D01*
X-28529139Y-1782375D01*
X-28617379Y-1667379D01*
X-28623822Y-1662435D01*
X-28725929Y-1584085D01*
X-28725931Y-1584084D01*
X-28732375Y-1579139D01*
X-28793523Y-1553811D01*
X-28858777Y-1526782D01*
X-28858780Y-1526781D01*
X-28866291Y-1523670D01*
X-28874351Y-1522608D01*
X-28874354Y-1522608D01*
X-29001941Y-1505811D01*
X-29010000Y-1504750D01*
X-29018059Y-1505811D01*
X-29145647Y-1522608D01*
X-29145652Y-1522609D01*
X-29153709Y-1523670D01*
X-29161219Y-1526780D01*
X-29161224Y-1526782D01*
X-29280115Y-1576028D01*
X-29280117Y-1576029D01*
X-29287625Y-1579139D01*
X-29294067Y-1584082D01*
X-29294072Y-1584085D01*
X-29396179Y-1662435D01*
X-29396183Y-1662438D01*
X-29402621Y-1667379D01*
X-29407562Y-1673817D01*
X-29407565Y-1673821D01*
X-29485915Y-1775928D01*
X-29485918Y-1775933D01*
X-29490861Y-1782375D01*
X-29493971Y-1789883D01*
X-29493972Y-1789885D01*
X-29543218Y-1908776D01*
X-29543220Y-1908781D01*
X-29546330Y-1916291D01*
X-29547391Y-1924348D01*
X-29547392Y-1924353D01*
X-29557030Y-1997564D01*
X-29565250Y-2060000D01*
X-31000123Y-2060000D01*
X-30896291Y-2046330D01*
X-30762375Y-1990861D01*
X-30647379Y-1902621D01*
X-30559139Y-1787625D01*
X-30503670Y-1653709D01*
X-30484750Y-1510000D01*
X-30503670Y-1366291D01*
X-30559139Y-1232375D01*
X-30647379Y-1117379D01*
X-30715821Y-1064861D01*
X-30755929Y-1034085D01*
X-30755931Y-1034084D01*
X-30762375Y-1029139D01*
X-30798408Y-1014214D01*
X-30888777Y-976782D01*
X-30888780Y-976781D01*
X-30896291Y-973670D01*
X-30904351Y-972608D01*
X-30904354Y-972608D01*
X-31031941Y-955811D01*
X-31040000Y-954750D01*
X-31048059Y-955811D01*
X-31175647Y-972608D01*
X-31175652Y-972609D01*
X-31183709Y-973670D01*
X-31191219Y-976780D01*
X-31191224Y-976782D01*
X-31310115Y-1026028D01*
X-31310117Y-1026029D01*
X-31317625Y-1029139D01*
X-31324067Y-1034082D01*
X-31324072Y-1034085D01*
X-31426179Y-1112435D01*
X-31426183Y-1112438D01*
X-31432621Y-1117379D01*
X-31437562Y-1123817D01*
X-31437565Y-1123821D01*
X-31515915Y-1225928D01*
X-31515918Y-1225933D01*
X-31520861Y-1232375D01*
X-31523971Y-1239883D01*
X-31523972Y-1239885D01*
X-31573218Y-1358776D01*
X-31573220Y-1358781D01*
X-31576330Y-1366291D01*
X-31577391Y-1374348D01*
X-31577392Y-1374353D01*
X-31594189Y-1501941D01*
X-31595250Y-1510000D01*
X-33162599Y-1510000D01*
X-33169670Y-1456291D01*
X-33225139Y-1322375D01*
X-33313379Y-1207379D01*
X-33402166Y-1139250D01*
X-33421929Y-1124085D01*
X-33421931Y-1124084D01*
X-33428375Y-1119139D01*
X-33464408Y-1104214D01*
X-33554777Y-1066782D01*
X-33554780Y-1066781D01*
X-33562291Y-1063670D01*
X-33570351Y-1062608D01*
X-33570354Y-1062608D01*
X-33697941Y-1045811D01*
X-33706000Y-1044750D01*
X-33714059Y-1045811D01*
X-33841647Y-1062608D01*
X-33841652Y-1062609D01*
X-33849709Y-1063670D01*
X-33857219Y-1066780D01*
X-33857224Y-1066782D01*
X-33976115Y-1116028D01*
X-33976117Y-1116029D01*
X-33983625Y-1119139D01*
X-33990067Y-1124082D01*
X-33990072Y-1124085D01*
X-34092179Y-1202435D01*
X-34092183Y-1202438D01*
X-34098621Y-1207379D01*
X-34103562Y-1213817D01*
X-34103565Y-1213821D01*
X-34181915Y-1315928D01*
X-34181918Y-1315933D01*
X-34186861Y-1322375D01*
X-34189971Y-1329883D01*
X-34189972Y-1329885D01*
X-34239218Y-1448776D01*
X-34239220Y-1448781D01*
X-34242330Y-1456291D01*
X-34243391Y-1464348D01*
X-34243392Y-1464353D01*
X-34257520Y-1571670D01*
X-34261250Y-1600000D01*
X-38348285Y-1600000D01*
X-38390041Y-646821D01*
X-38390151Y-642837D01*
X-38392306Y-457564D01*
X-38397065Y-48390D01*
X-25534176Y-48390D01*
X-25533225Y-54602D01*
X-25533224Y-54608D01*
X-25505856Y-233259D01*
X-25505854Y-233267D01*
X-25504903Y-239474D01*
X-25502722Y-245364D01*
X-25502720Y-245370D01*
X-25462036Y-355217D01*
X-25437764Y-420753D01*
X-25434438Y-426089D01*
X-25434436Y-426093D01*
X-25341036Y-575941D01*
X-25335509Y-584807D01*
X-25270433Y-653267D01*
X-25207336Y-719646D01*
X-25202323Y-724919D01*
X-25043658Y-835353D01*
X-24866012Y-911587D01*
X-24676656Y-950500D01*
X-24534936Y-950500D01*
X-24531794Y-950500D01*
X-24387679Y-935845D01*
X-24203232Y-877974D01*
X-24034209Y-784159D01*
X-23887532Y-658240D01*
X-23769204Y-505373D01*
X-23684070Y-331816D01*
X-23635615Y-144674D01*
X-23631321Y-60000D01*
X-22505250Y-60000D01*
X-22504189Y-68059D01*
X-22487954Y-191379D01*
X-22486330Y-203709D01*
X-22483219Y-211220D01*
X-22483218Y-211223D01*
X-22479763Y-219564D01*
X-22430861Y-337625D01*
X-22425916Y-344069D01*
X-22425915Y-344071D01*
X-22414159Y-359391D01*
X-22342621Y-452621D01*
X-22227625Y-540861D01*
X-22093709Y-596330D01*
X-21950000Y-615250D01*
X-21806291Y-596330D01*
X-21672375Y-540861D01*
X-21557379Y-452621D01*
X-21469139Y-337625D01*
X-21413670Y-203709D01*
X-21394750Y-60000D01*
X-21396279Y-48390D01*
X-15374176Y-48390D01*
X-15373225Y-54602D01*
X-15373224Y-54608D01*
X-15345856Y-233259D01*
X-15345854Y-233267D01*
X-15344903Y-239474D01*
X-15342722Y-245364D01*
X-15342720Y-245370D01*
X-15302036Y-355217D01*
X-15277764Y-420753D01*
X-15274438Y-426089D01*
X-15274436Y-426093D01*
X-15181036Y-575941D01*
X-15175509Y-584807D01*
X-15110433Y-653267D01*
X-15047336Y-719646D01*
X-15042323Y-724919D01*
X-14883658Y-835353D01*
X-14706012Y-911587D01*
X-14516656Y-950500D01*
X-14374936Y-950500D01*
X-14371794Y-950500D01*
X-14227679Y-935845D01*
X-14043232Y-877974D01*
X-13874209Y-784159D01*
X-13727532Y-658240D01*
X-13609204Y-505373D01*
X-13524070Y-331816D01*
X-13475615Y-144674D01*
X-13470732Y-48390D01*
X-6034176Y-48390D01*
X-6033225Y-54602D01*
X-6033224Y-54608D01*
X-6005856Y-233259D01*
X-6005854Y-233267D01*
X-6004903Y-239474D01*
X-6002722Y-245364D01*
X-6002720Y-245370D01*
X-5962036Y-355217D01*
X-5937764Y-420753D01*
X-5934438Y-426089D01*
X-5934436Y-426093D01*
X-5841036Y-575941D01*
X-5835509Y-584807D01*
X-5770433Y-653267D01*
X-5707336Y-719646D01*
X-5702323Y-724919D01*
X-5543658Y-835353D01*
X-5366012Y-911587D01*
X-5176656Y-950500D01*
X-5034936Y-950500D01*
X-5031794Y-950500D01*
X-4887679Y-935845D01*
X-4703232Y-877974D01*
X-4534209Y-784159D01*
X-4387532Y-658240D01*
X-4269204Y-505373D01*
X-4184070Y-331816D01*
X-4135615Y-144674D01*
X-4131321Y-60000D01*
X-3015250Y-60000D01*
X-3014189Y-68059D01*
X-2997954Y-191379D01*
X-2996330Y-203709D01*
X-2993219Y-211220D01*
X-2993218Y-211223D01*
X-2989763Y-219564D01*
X-2940861Y-337625D01*
X-2935916Y-344069D01*
X-2935915Y-344071D01*
X-2924159Y-359391D01*
X-2852621Y-452621D01*
X-2737625Y-540861D01*
X-2603709Y-596330D01*
X-2460000Y-615250D01*
X-2316291Y-596330D01*
X-2182375Y-540861D01*
X-2067379Y-452621D01*
X-1979139Y-337625D01*
X-1923670Y-203709D01*
X-1904750Y-60000D01*
X-1906279Y-48390D01*
X4125824Y-48390D01*
X4126775Y-54602D01*
X4126776Y-54608D01*
X4154144Y-233259D01*
X4154146Y-233267D01*
X4155097Y-239474D01*
X4157278Y-245364D01*
X4157280Y-245370D01*
X4197964Y-355217D01*
X4222236Y-420753D01*
X4225562Y-426089D01*
X4225564Y-426093D01*
X4318964Y-575941D01*
X4324491Y-584807D01*
X4389567Y-653267D01*
X4452664Y-719646D01*
X4457677Y-724919D01*
X4616342Y-835353D01*
X4793988Y-911587D01*
X4983344Y-950500D01*
X5125064Y-950500D01*
X5128206Y-950500D01*
X5272321Y-935845D01*
X5456768Y-877974D01*
X5625791Y-784159D01*
X5772468Y-658240D01*
X5890796Y-505373D01*
X5975930Y-331816D01*
X6024385Y-144674D01*
X6029268Y-48390D01*
X13465824Y-48390D01*
X13466775Y-54602D01*
X13466776Y-54608D01*
X13494144Y-233259D01*
X13494146Y-233267D01*
X13495097Y-239474D01*
X13497278Y-245364D01*
X13497280Y-245370D01*
X13537964Y-355217D01*
X13562236Y-420753D01*
X13565562Y-426089D01*
X13565564Y-426093D01*
X13658964Y-575941D01*
X13664491Y-584807D01*
X13729567Y-653267D01*
X13792664Y-719646D01*
X13797677Y-724919D01*
X13956342Y-835353D01*
X14133988Y-911587D01*
X14323344Y-950500D01*
X14465064Y-950500D01*
X14468206Y-950500D01*
X14612321Y-935845D01*
X14796768Y-877974D01*
X14965791Y-784159D01*
X15112468Y-658240D01*
X15230796Y-505373D01*
X15315930Y-331816D01*
X15364385Y-144674D01*
X15374176Y48390D01*
X15354320Y178000D01*
X21364750Y178000D01*
X21365811Y169941D01*
X21381813Y48390D01*
X21383670Y34291D01*
X21386781Y26780D01*
X21386782Y26777D01*
X21404757Y-16618D01*
X21439139Y-99625D01*
X21444084Y-106069D01*
X21444085Y-106071D01*
X21505751Y-186435D01*
X21527379Y-214621D01*
X21642375Y-302861D01*
X21776291Y-358330D01*
X21920000Y-377250D01*
X22063709Y-358330D01*
X22197625Y-302861D01*
X22312621Y-214621D01*
X22400861Y-99625D01*
X22422083Y-48390D01*
X23625824Y-48390D01*
X23626775Y-54602D01*
X23626776Y-54608D01*
X23654144Y-233259D01*
X23654146Y-233267D01*
X23655097Y-239474D01*
X23657278Y-245364D01*
X23657280Y-245370D01*
X23697964Y-355217D01*
X23722236Y-420753D01*
X23725562Y-426089D01*
X23725564Y-426093D01*
X23818964Y-575941D01*
X23824491Y-584807D01*
X23889567Y-653267D01*
X23952664Y-719646D01*
X23957677Y-724919D01*
X24116342Y-835353D01*
X24293988Y-911587D01*
X24483344Y-950500D01*
X24625064Y-950500D01*
X24628206Y-950500D01*
X24772321Y-935845D01*
X24956768Y-877974D01*
X25125791Y-784159D01*
X25272468Y-658240D01*
X25329934Y-584000D01*
X30762750Y-584000D01*
X30763811Y-592059D01*
X30774703Y-674795D01*
X30781670Y-727709D01*
X30837139Y-861625D01*
X30842084Y-868069D01*
X30842085Y-868071D01*
X30908597Y-954750D01*
X30925379Y-976621D01*
X31040375Y-1064861D01*
X31174291Y-1120330D01*
X31318000Y-1139250D01*
X31461709Y-1120330D01*
X31595625Y-1064861D01*
X31710621Y-976621D01*
X31798861Y-861625D01*
X31854330Y-727709D01*
X31873250Y-584000D01*
X31854330Y-440291D01*
X31798861Y-306375D01*
X31710621Y-191379D01*
X31649754Y-144674D01*
X31602071Y-108085D01*
X31602069Y-108084D01*
X31595625Y-103139D01*
X31559592Y-88214D01*
X31469223Y-50782D01*
X31469220Y-50781D01*
X31461709Y-47670D01*
X31453649Y-46608D01*
X31453646Y-46608D01*
X31388136Y-37983D01*
X31333198Y-16618D01*
X31303184Y17607D01*
X31269302Y-21029D01*
X31214364Y-42394D01*
X31182353Y-46608D01*
X31182348Y-46609D01*
X31174291Y-47670D01*
X31166781Y-50780D01*
X31166776Y-50782D01*
X31047885Y-100028D01*
X31047883Y-100029D01*
X31040375Y-103139D01*
X31033933Y-108082D01*
X31033928Y-108085D01*
X30931821Y-186435D01*
X30931817Y-186438D01*
X30925379Y-191379D01*
X30920438Y-197817D01*
X30920435Y-197821D01*
X30842085Y-299928D01*
X30842082Y-299933D01*
X30837139Y-306375D01*
X30834029Y-313883D01*
X30834028Y-313885D01*
X30784782Y-432776D01*
X30784780Y-432781D01*
X30781670Y-440291D01*
X30780609Y-448348D01*
X30780608Y-448353D01*
X30772446Y-510350D01*
X30762750Y-584000D01*
X25329934Y-584000D01*
X25390796Y-505373D01*
X25475930Y-331816D01*
X25524385Y-144674D01*
X25534176Y48390D01*
X25504903Y239474D01*
X25437764Y420753D01*
X25385020Y505373D01*
X25338835Y579471D01*
X25338834Y579472D01*
X25335509Y584807D01*
X25202323Y724919D01*
X25167006Y749500D01*
X30729252Y749500D01*
X30730313Y741441D01*
X30742887Y645929D01*
X30748172Y605791D01*
X30751283Y598280D01*
X30751284Y598277D01*
X30764634Y566048D01*
X30803641Y471875D01*
X30808586Y465431D01*
X30808587Y465429D01*
X30858880Y399886D01*
X30891881Y356879D01*
X31006877Y268639D01*
X31140793Y213170D01*
X31212115Y203781D01*
X31214364Y203484D01*
X31269302Y182120D01*
X31299316Y147895D01*
X31333202Y186532D01*
X31388137Y207895D01*
X31428211Y213170D01*
X31562127Y268639D01*
X31677123Y356879D01*
X31765363Y471875D01*
X31820832Y605791D01*
X31839752Y749500D01*
X31820832Y893209D01*
X31765363Y1027125D01*
X31677123Y1142121D01*
X31583355Y1214072D01*
X31568573Y1225415D01*
X31568571Y1225416D01*
X31562127Y1230361D01*
X31514989Y1249886D01*
X31435725Y1282718D01*
X31435722Y1282719D01*
X31428211Y1285830D01*
X31420151Y1286892D01*
X31420148Y1286892D01*
X31292561Y1303689D01*
X31284502Y1304750D01*
X31276443Y1303689D01*
X31148855Y1286892D01*
X31148850Y1286891D01*
X31140793Y1285830D01*
X31133283Y1282720D01*
X31133278Y1282718D01*
X31014387Y1233472D01*
X31014385Y1233471D01*
X31006877Y1230361D01*
X31000435Y1225418D01*
X31000430Y1225415D01*
X30898323Y1147065D01*
X30898319Y1147062D01*
X30891881Y1142121D01*
X30886940Y1135683D01*
X30886937Y1135679D01*
X30808587Y1033572D01*
X30808584Y1033567D01*
X30803641Y1027125D01*
X30800531Y1019617D01*
X30800530Y1019615D01*
X30751284Y900724D01*
X30751282Y900719D01*
X30748172Y893209D01*
X30747111Y885152D01*
X30747110Y885147D01*
X30746414Y879858D01*
X30729252Y749500D01*
X25167006Y749500D01*
X25043658Y835353D01*
X25037884Y837831D01*
X25037882Y837832D01*
X24908838Y893209D01*
X24866012Y911587D01*
X24859858Y912852D01*
X24859857Y912852D01*
X24682814Y949235D01*
X24682809Y949236D01*
X24676656Y950500D01*
X24531794Y950500D01*
X24528683Y950184D01*
X24528670Y950183D01*
X24393931Y936481D01*
X24393928Y936481D01*
X24387679Y935845D01*
X24381681Y933964D01*
X24381680Y933963D01*
X24209235Y879858D01*
X24209230Y879857D01*
X24203232Y877974D01*
X24197736Y874924D01*
X24197730Y874921D01*
X24039708Y787212D01*
X24039702Y787208D01*
X24034209Y784159D01*
X24029444Y780070D01*
X24029439Y780065D01*
X23892300Y662334D01*
X23892295Y662330D01*
X23887532Y658240D01*
X23883689Y653276D01*
X23883682Y653268D01*
X23779579Y518777D01*
X23769204Y505373D01*
X23766436Y499732D01*
X23766432Y499724D01*
X23693939Y351936D01*
X23684070Y331816D01*
X23682493Y325727D01*
X23682492Y325723D01*
X23644244Y178000D01*
X23635615Y144674D01*
X23635296Y138394D01*
X23635296Y138390D01*
X23626142Y-42108D01*
X23626142Y-42113D01*
X23625824Y-48390D01*
X22422083Y-48390D01*
X22456330Y34291D01*
X22475250Y178000D01*
X22456330Y321709D01*
X22400861Y455625D01*
X22312621Y570621D01*
X22290264Y587776D01*
X22204071Y653915D01*
X22204069Y653916D01*
X22197625Y658861D01*
X22151276Y678059D01*
X22071223Y711218D01*
X22071220Y711219D01*
X22063709Y714330D01*
X22055649Y715392D01*
X22055646Y715392D01*
X21928059Y732189D01*
X21920000Y733250D01*
X21911941Y732189D01*
X21784353Y715392D01*
X21784348Y715391D01*
X21776291Y714330D01*
X21768781Y711220D01*
X21768776Y711218D01*
X21649885Y661972D01*
X21649883Y661971D01*
X21642375Y658861D01*
X21635933Y653918D01*
X21635928Y653915D01*
X21533821Y575565D01*
X21533817Y575562D01*
X21527379Y570621D01*
X21522438Y564183D01*
X21522435Y564179D01*
X21444085Y462072D01*
X21444082Y462067D01*
X21439139Y455625D01*
X21436029Y448117D01*
X21436028Y448115D01*
X21386782Y329224D01*
X21386780Y329219D01*
X21383670Y321709D01*
X21382609Y313652D01*
X21382608Y313647D01*
X21365873Y186532D01*
X21364750Y178000D01*
X15354320Y178000D01*
X15344903Y239474D01*
X15277764Y420753D01*
X15225020Y505373D01*
X15178835Y579471D01*
X15178834Y579472D01*
X15175509Y584807D01*
X15042323Y724919D01*
X14883658Y835353D01*
X14877884Y837831D01*
X14877882Y837832D01*
X14748838Y893209D01*
X14706012Y911587D01*
X14699858Y912852D01*
X14699857Y912852D01*
X14522814Y949235D01*
X14522809Y949236D01*
X14516656Y950500D01*
X14371794Y950500D01*
X14368683Y950184D01*
X14368670Y950183D01*
X14233931Y936481D01*
X14233928Y936481D01*
X14227679Y935845D01*
X14221681Y933964D01*
X14221680Y933963D01*
X14049235Y879858D01*
X14049230Y879857D01*
X14043232Y877974D01*
X14037736Y874924D01*
X14037730Y874921D01*
X13879708Y787212D01*
X13879702Y787208D01*
X13874209Y784159D01*
X13869444Y780070D01*
X13869439Y780065D01*
X13732300Y662334D01*
X13732295Y662330D01*
X13727532Y658240D01*
X13723689Y653276D01*
X13723682Y653268D01*
X13619579Y518777D01*
X13609204Y505373D01*
X13606436Y499732D01*
X13606432Y499724D01*
X13533939Y351936D01*
X13524070Y331816D01*
X13522493Y325727D01*
X13522492Y325723D01*
X13484244Y178000D01*
X13475615Y144674D01*
X13475296Y138394D01*
X13475296Y138390D01*
X13466142Y-42108D01*
X13466142Y-42113D01*
X13465824Y-48390D01*
X6029268Y-48390D01*
X6034176Y48390D01*
X6004903Y239474D01*
X5937764Y420753D01*
X5885020Y505373D01*
X5838835Y579471D01*
X5838834Y579472D01*
X5835509Y584807D01*
X5702323Y724919D01*
X5543658Y835353D01*
X5537884Y837831D01*
X5537882Y837832D01*
X5408838Y893209D01*
X5366012Y911587D01*
X5359858Y912852D01*
X5359857Y912852D01*
X5182814Y949235D01*
X5182809Y949236D01*
X5176656Y950500D01*
X5031794Y950500D01*
X5028683Y950184D01*
X5028670Y950183D01*
X4893931Y936481D01*
X4893928Y936481D01*
X4887679Y935845D01*
X4881681Y933964D01*
X4881680Y933963D01*
X4709235Y879858D01*
X4709230Y879857D01*
X4703232Y877974D01*
X4697736Y874924D01*
X4697730Y874921D01*
X4539708Y787212D01*
X4539702Y787208D01*
X4534209Y784159D01*
X4529444Y780070D01*
X4529439Y780065D01*
X4392300Y662334D01*
X4392295Y662330D01*
X4387532Y658240D01*
X4383689Y653276D01*
X4383682Y653268D01*
X4279579Y518777D01*
X4269204Y505373D01*
X4266436Y499732D01*
X4266432Y499724D01*
X4193939Y351936D01*
X4184070Y331816D01*
X4182493Y325727D01*
X4182492Y325723D01*
X4144244Y178000D01*
X4135615Y144674D01*
X4135296Y138394D01*
X4135296Y138390D01*
X4126142Y-42108D01*
X4126142Y-42113D01*
X4125824Y-48390D01*
X-1906279Y-48390D01*
X-1923670Y83709D01*
X-1979139Y217625D01*
X-2067379Y332621D01*
X-2136851Y385929D01*
X-2175929Y415915D01*
X-2175931Y415916D01*
X-2182375Y420861D01*
X-2266304Y455625D01*
X-2308777Y473218D01*
X-2308780Y473219D01*
X-2316291Y476330D01*
X-2324351Y477392D01*
X-2324354Y477392D01*
X-2451941Y494189D01*
X-2460000Y495250D01*
X-2468059Y494189D01*
X-2595647Y477392D01*
X-2595652Y477391D01*
X-2603709Y476330D01*
X-2611219Y473220D01*
X-2611224Y473218D01*
X-2730115Y423972D01*
X-2730117Y423971D01*
X-2737625Y420861D01*
X-2744067Y415918D01*
X-2744072Y415915D01*
X-2846179Y337565D01*
X-2846183Y337562D01*
X-2852621Y332621D01*
X-2857562Y326183D01*
X-2857565Y326179D01*
X-2935915Y224072D01*
X-2935918Y224067D01*
X-2940861Y217625D01*
X-2943971Y210117D01*
X-2943972Y210115D01*
X-2993218Y91224D01*
X-2993220Y91219D01*
X-2996330Y83709D01*
X-2997391Y75652D01*
X-2997392Y75647D01*
X-3014036Y-50782D01*
X-3015250Y-60000D01*
X-4131321Y-60000D01*
X-4125824Y48390D01*
X-4155097Y239474D01*
X-4222236Y420753D01*
X-4274980Y505373D01*
X-4321165Y579471D01*
X-4321166Y579472D01*
X-4324491Y584807D01*
X-4457677Y724919D01*
X-4616342Y835353D01*
X-4622116Y837831D01*
X-4622118Y837832D01*
X-4751162Y893209D01*
X-4793988Y911587D01*
X-4800142Y912852D01*
X-4800143Y912852D01*
X-4883587Y930000D01*
X2104750Y930000D01*
X2105811Y921941D01*
X2121121Y805647D01*
X2123670Y786291D01*
X2179139Y652375D01*
X2184084Y645931D01*
X2184085Y645929D01*
X2262435Y543822D01*
X2267379Y537379D01*
X2382375Y449139D01*
X2516291Y393670D01*
X2660000Y374750D01*
X2803709Y393670D01*
X2937625Y449139D01*
X3052621Y537379D01*
X3140861Y652375D01*
X3196330Y786291D01*
X3215250Y930000D01*
X3196330Y1073709D01*
X3140861Y1207625D01*
X3052621Y1322621D01*
X2982677Y1376291D01*
X2944071Y1405915D01*
X2944069Y1405916D01*
X2937625Y1410861D01*
X2901592Y1425786D01*
X2811223Y1463218D01*
X2811220Y1463219D01*
X2803709Y1466330D01*
X2795649Y1467392D01*
X2795646Y1467392D01*
X2668059Y1484189D01*
X2660000Y1485250D01*
X2651941Y1484189D01*
X2524353Y1467392D01*
X2524348Y1467391D01*
X2516291Y1466330D01*
X2508781Y1463220D01*
X2508776Y1463218D01*
X2389885Y1413972D01*
X2389883Y1413971D01*
X2382375Y1410861D01*
X2375933Y1405918D01*
X2375928Y1405915D01*
X2273821Y1327565D01*
X2273817Y1327562D01*
X2267379Y1322621D01*
X2262438Y1316183D01*
X2262435Y1316179D01*
X2184085Y1214072D01*
X2184082Y1214067D01*
X2179139Y1207625D01*
X2176029Y1200117D01*
X2176028Y1200115D01*
X2126782Y1081224D01*
X2126780Y1081219D01*
X2123670Y1073709D01*
X2122609Y1065652D01*
X2122608Y1065647D01*
X2117537Y1027125D01*
X2104750Y930000D01*
X-4883587Y930000D01*
X-4977186Y949235D01*
X-4977191Y949236D01*
X-4983344Y950500D01*
X-5128206Y950500D01*
X-5131317Y950184D01*
X-5131330Y950183D01*
X-5266069Y936481D01*
X-5266072Y936481D01*
X-5272321Y935845D01*
X-5278319Y933964D01*
X-5278320Y933963D01*
X-5450765Y879858D01*
X-5450770Y879857D01*
X-5456768Y877974D01*
X-5462264Y874924D01*
X-5462270Y874921D01*
X-5620292Y787212D01*
X-5620298Y787208D01*
X-5625791Y784159D01*
X-5630556Y780070D01*
X-5630561Y780065D01*
X-5767700Y662334D01*
X-5767705Y662330D01*
X-5772468Y658240D01*
X-5776311Y653276D01*
X-5776318Y653268D01*
X-5880421Y518777D01*
X-5890796Y505373D01*
X-5893564Y499732D01*
X-5893568Y499724D01*
X-5966061Y351936D01*
X-5975930Y331816D01*
X-5977507Y325727D01*
X-5977508Y325723D01*
X-6015756Y178000D01*
X-6024385Y144674D01*
X-6024704Y138394D01*
X-6024704Y138390D01*
X-6033858Y-42108D01*
X-6033858Y-42113D01*
X-6034176Y-48390D01*
X-13470732Y-48390D01*
X-13465824Y48390D01*
X-13495097Y239474D01*
X-13562236Y420753D01*
X-13614980Y505373D01*
X-13661165Y579471D01*
X-13661166Y579472D01*
X-13664491Y584807D01*
X-13797677Y724919D01*
X-13956342Y835353D01*
X-13962116Y837831D01*
X-13962118Y837832D01*
X-14091162Y893209D01*
X-14133988Y911587D01*
X-14140142Y912852D01*
X-14140143Y912852D01*
X-14317186Y949235D01*
X-14317191Y949236D01*
X-14323344Y950500D01*
X-14468206Y950500D01*
X-14471317Y950184D01*
X-14471330Y950183D01*
X-14606069Y936481D01*
X-14606072Y936481D01*
X-14612321Y935845D01*
X-14618319Y933964D01*
X-14618320Y933963D01*
X-14790765Y879858D01*
X-14790770Y879857D01*
X-14796768Y877974D01*
X-14802264Y874924D01*
X-14802270Y874921D01*
X-14960292Y787212D01*
X-14960298Y787208D01*
X-14965791Y784159D01*
X-14970556Y780070D01*
X-14970561Y780065D01*
X-15107700Y662334D01*
X-15107705Y662330D01*
X-15112468Y658240D01*
X-15116311Y653276D01*
X-15116318Y653268D01*
X-15220421Y518777D01*
X-15230796Y505373D01*
X-15233564Y499732D01*
X-15233568Y499724D01*
X-15306061Y351936D01*
X-15315930Y331816D01*
X-15317507Y325727D01*
X-15317508Y325723D01*
X-15355756Y178000D01*
X-15364385Y144674D01*
X-15364704Y138394D01*
X-15364704Y138390D01*
X-15373858Y-42108D01*
X-15373858Y-42113D01*
X-15374176Y-48390D01*
X-21396279Y-48390D01*
X-21413670Y83709D01*
X-21469139Y217625D01*
X-21557379Y332621D01*
X-21626851Y385929D01*
X-21665929Y415915D01*
X-21665931Y415916D01*
X-21672375Y420861D01*
X-21756304Y455625D01*
X-21798777Y473218D01*
X-21798780Y473219D01*
X-21806291Y476330D01*
X-21814351Y477392D01*
X-21814354Y477392D01*
X-21941941Y494189D01*
X-21950000Y495250D01*
X-21958059Y494189D01*
X-22085647Y477392D01*
X-22085652Y477391D01*
X-22093709Y476330D01*
X-22101219Y473220D01*
X-22101224Y473218D01*
X-22220115Y423972D01*
X-22220117Y423971D01*
X-22227625Y420861D01*
X-22234067Y415918D01*
X-22234072Y415915D01*
X-22336179Y337565D01*
X-22336183Y337562D01*
X-22342621Y332621D01*
X-22347562Y326183D01*
X-22347565Y326179D01*
X-22425915Y224072D01*
X-22425918Y224067D01*
X-22430861Y217625D01*
X-22433971Y210117D01*
X-22433972Y210115D01*
X-22483218Y91224D01*
X-22483220Y91219D01*
X-22486330Y83709D01*
X-22487391Y75652D01*
X-22487392Y75647D01*
X-22504036Y-50782D01*
X-22505250Y-60000D01*
X-23631321Y-60000D01*
X-23625824Y48390D01*
X-23655097Y239474D01*
X-23722236Y420753D01*
X-23774980Y505373D01*
X-23821165Y579471D01*
X-23821166Y579472D01*
X-23824491Y584807D01*
X-23905473Y670000D01*
X-16745250Y670000D01*
X-16744189Y661941D01*
X-16731319Y564179D01*
X-16726330Y526291D01*
X-16723219Y518780D01*
X-16723218Y518777D01*
X-16701121Y465429D01*
X-16670861Y392375D01*
X-16582621Y277379D01*
X-16467625Y189139D01*
X-16333709Y133670D01*
X-16190000Y114750D01*
X-16046291Y133670D01*
X-15912375Y189139D01*
X-15797379Y277379D01*
X-15709139Y392375D01*
X-15653670Y526291D01*
X-15634750Y670000D01*
X-15653670Y813709D01*
X-15709139Y947625D01*
X-15797379Y1062621D01*
X-15890169Y1133822D01*
X-15905929Y1145915D01*
X-15905931Y1145916D01*
X-15912375Y1150861D01*
X-16031286Y1200115D01*
X-16038777Y1203218D01*
X-16038780Y1203219D01*
X-16046291Y1206330D01*
X-16054351Y1207392D01*
X-16054354Y1207392D01*
X-16181941Y1224189D01*
X-16190000Y1225250D01*
X-16198059Y1224189D01*
X-16325647Y1207392D01*
X-16325652Y1207391D01*
X-16333709Y1206330D01*
X-16341219Y1203220D01*
X-16341224Y1203218D01*
X-16460115Y1153972D01*
X-16460117Y1153971D01*
X-16467625Y1150861D01*
X-16474067Y1145918D01*
X-16474072Y1145915D01*
X-16576179Y1067565D01*
X-16576183Y1067562D01*
X-16582621Y1062621D01*
X-16587562Y1056183D01*
X-16587565Y1056179D01*
X-16665915Y954072D01*
X-16665918Y954067D01*
X-16670861Y947625D01*
X-16673971Y940117D01*
X-16673972Y940115D01*
X-16723218Y821224D01*
X-16723220Y821219D01*
X-16726330Y813709D01*
X-16727391Y805652D01*
X-16727392Y805647D01*
X-16744189Y678059D01*
X-16745250Y670000D01*
X-23905473Y670000D01*
X-23957677Y724919D01*
X-24116342Y835353D01*
X-24122116Y837831D01*
X-24122118Y837832D01*
X-24251162Y893209D01*
X-24293988Y911587D01*
X-24300142Y912852D01*
X-24300143Y912852D01*
X-24477186Y949235D01*
X-24477191Y949236D01*
X-24483344Y950500D01*
X-24628206Y950500D01*
X-24631317Y950184D01*
X-24631330Y950183D01*
X-24766069Y936481D01*
X-24766072Y936481D01*
X-24772321Y935845D01*
X-24778319Y933964D01*
X-24778320Y933963D01*
X-24950765Y879858D01*
X-24950770Y879857D01*
X-24956768Y877974D01*
X-24962264Y874924D01*
X-24962270Y874921D01*
X-25120292Y787212D01*
X-25120298Y787208D01*
X-25125791Y784159D01*
X-25130556Y780070D01*
X-25130561Y780065D01*
X-25267700Y662334D01*
X-25267705Y662330D01*
X-25272468Y658240D01*
X-25276311Y653276D01*
X-25276318Y653268D01*
X-25380421Y518777D01*
X-25390796Y505373D01*
X-25393564Y499732D01*
X-25393568Y499724D01*
X-25466061Y351936D01*
X-25475930Y331816D01*
X-25477507Y325727D01*
X-25477508Y325723D01*
X-25515756Y178000D01*
X-25524385Y144674D01*
X-25524704Y138394D01*
X-25524704Y138390D01*
X-25533858Y-42108D01*
X-25533858Y-42113D01*
X-25534176Y-48390D01*
X-38397065Y-48390D01*
X-38404465Y587781D01*
X-38404447Y591762D01*
X-38403994Y613854D01*
X-38385401Y1520000D01*
X-32555250Y1520000D01*
X-32554189Y1511941D01*
X-32540231Y1405915D01*
X-32536330Y1376291D01*
X-32533219Y1368780D01*
X-32533218Y1368777D01*
X-32511431Y1316179D01*
X-32480861Y1242375D01*
X-32475916Y1235931D01*
X-32475915Y1235929D01*
X-32407727Y1147065D01*
X-32392621Y1127379D01*
X-32277625Y1039139D01*
X-32143709Y983670D01*
X-32000000Y964750D01*
X-31856291Y983670D01*
X-31722375Y1039139D01*
X-31607379Y1127379D01*
X-31519139Y1242375D01*
X-31463670Y1376291D01*
X-31444750Y1520000D01*
X-31463670Y1663709D01*
X-31519139Y1797625D01*
X-31607379Y1912621D01*
X-31722375Y2000861D01*
X-31758408Y2015786D01*
X-31848777Y2053218D01*
X-31848780Y2053219D01*
X-31856291Y2056330D01*
X-31864351Y2057392D01*
X-31864354Y2057392D01*
X-31991941Y2074189D01*
X-32000000Y2075250D01*
X-32008059Y2074189D01*
X-32135647Y2057392D01*
X-32135652Y2057391D01*
X-32143709Y2056330D01*
X-32151219Y2053220D01*
X-32151224Y2053218D01*
X-32270115Y2003972D01*
X-32270117Y2003971D01*
X-32277625Y2000861D01*
X-32284067Y1995918D01*
X-32284072Y1995915D01*
X-32386179Y1917565D01*
X-32386183Y1917562D01*
X-32392621Y1912621D01*
X-32397562Y1906183D01*
X-32397565Y1906179D01*
X-32475915Y1804072D01*
X-32475918Y1804067D01*
X-32480861Y1797625D01*
X-32483971Y1790117D01*
X-32483972Y1790115D01*
X-32533218Y1671224D01*
X-32533220Y1671219D01*
X-32536330Y1663709D01*
X-32537391Y1655652D01*
X-32537392Y1655647D01*
X-32554189Y1528059D01*
X-32555250Y1520000D01*
X-38385401Y1520000D01*
X-38379200Y1822186D01*
X-38379054Y1826153D01*
X-38332043Y2718000D01*
X16284750Y2718000D01*
X16303670Y2574291D01*
X16359139Y2440375D01*
X16447379Y2325379D01*
X16562375Y2237139D01*
X16696291Y2181670D01*
X16840000Y2162750D01*
X16983709Y2181670D01*
X17117625Y2237139D01*
X17232621Y2325379D01*
X17320861Y2440375D01*
X17376330Y2574291D01*
X17395250Y2718000D01*
X17376330Y2861709D01*
X17320861Y2995625D01*
X17232621Y3110621D01*
X17117625Y3198861D01*
X17081592Y3213786D01*
X16991223Y3251218D01*
X16991220Y3251219D01*
X16983709Y3254330D01*
X16975649Y3255392D01*
X16975646Y3255392D01*
X16848059Y3272189D01*
X16840000Y3273250D01*
X16831941Y3272189D01*
X16704353Y3255392D01*
X16704348Y3255391D01*
X16696291Y3254330D01*
X16688781Y3251220D01*
X16688776Y3251218D01*
X16569885Y3201972D01*
X16569883Y3201971D01*
X16562375Y3198861D01*
X16555933Y3193918D01*
X16555928Y3193915D01*
X16453821Y3115565D01*
X16453817Y3115562D01*
X16447379Y3110621D01*
X16442438Y3104183D01*
X16442435Y3104179D01*
X16364085Y3002072D01*
X16364082Y3002067D01*
X16359139Y2995625D01*
X16356029Y2988117D01*
X16356028Y2988115D01*
X16306782Y2869224D01*
X16306780Y2869219D01*
X16303670Y2861709D01*
X16302609Y2853652D01*
X16302608Y2853647D01*
X16285811Y2726059D01*
X16284750Y2718000D01*
X-38332043Y2718000D01*
X-38314271Y3055143D01*
X-38313998Y3059094D01*
X-38302536Y3193915D01*
X-38209744Y4285381D01*
X-38209356Y4289226D01*
X-38065732Y5511596D01*
X-38065206Y5515521D01*
X-37882379Y6732563D01*
X-37881741Y6736396D01*
X-37659877Y7947005D01*
X-37659099Y7950892D01*
X-37398451Y9153684D01*
X-37397563Y9157484D01*
X-37360137Y9306824D01*
X-3385250Y9306824D01*
X-3384189Y9298765D01*
X-3368709Y9181178D01*
X-3366330Y9163115D01*
X-3310861Y9029199D01*
X-3222621Y8914203D01*
X-3107625Y8825963D01*
X-2973709Y8770494D01*
X-2830000Y8751574D01*
X-2686291Y8770494D01*
X-2552375Y8825963D01*
X-2437379Y8914203D01*
X-2386364Y8980688D01*
X-2342833Y9016413D01*
X-2287989Y9029201D01*
X-2233145Y9016414D01*
X-2189613Y8980688D01*
X-2151218Y8930651D01*
X-2151213Y8930646D01*
X-2146269Y8924203D01*
X-2031273Y8835963D01*
X-1897357Y8780494D01*
X-1753648Y8761574D01*
X-1609939Y8780494D01*
X-1476023Y8835963D01*
X-1361027Y8924203D01*
X-1272787Y9039199D01*
X-1217318Y9173115D01*
X-1198398Y9316824D01*
X-1217318Y9460533D01*
X-1272787Y9594449D01*
X-1361027Y9709445D01*
X-1367470Y9714389D01*
X-1469577Y9792739D01*
X-1469579Y9792740D01*
X-1476023Y9797685D01*
X-1578283Y9840042D01*
X-1602425Y9850042D01*
X-1602428Y9850043D01*
X-1609939Y9853154D01*
X-1617999Y9854216D01*
X-1618002Y9854216D01*
X-1745589Y9871013D01*
X-1753648Y9872074D01*
X-1761707Y9871013D01*
X-1889295Y9854216D01*
X-1889300Y9854215D01*
X-1897357Y9853154D01*
X-1904867Y9850044D01*
X-1904872Y9850042D01*
X-2023763Y9800796D01*
X-2023765Y9800795D01*
X-2031273Y9797685D01*
X-2037715Y9792742D01*
X-2037720Y9792739D01*
X-2139827Y9714389D01*
X-2139831Y9714386D01*
X-2146269Y9709445D01*
X-2151210Y9703007D01*
X-2151218Y9702998D01*
X-2197286Y9642961D01*
X-2240818Y9607235D01*
X-2295661Y9594448D01*
X-2350505Y9607236D01*
X-2394037Y9642961D01*
X-2432436Y9693003D01*
X-2437379Y9699445D01*
X-2552375Y9787685D01*
X-2588408Y9802610D01*
X-2678777Y9840042D01*
X-2678780Y9840043D01*
X-2686291Y9843154D01*
X-2694351Y9844216D01*
X-2694354Y9844216D01*
X-2821941Y9861013D01*
X-2830000Y9862074D01*
X-2838059Y9861013D01*
X-2965647Y9844216D01*
X-2965652Y9844215D01*
X-2973709Y9843154D01*
X-2981219Y9840044D01*
X-2981224Y9840042D01*
X-3100115Y9790796D01*
X-3100117Y9790795D01*
X-3107625Y9787685D01*
X-3114067Y9782742D01*
X-3114072Y9782739D01*
X-3216179Y9704389D01*
X-3216183Y9704386D01*
X-3222621Y9699445D01*
X-3227562Y9693007D01*
X-3227565Y9693003D01*
X-3305915Y9590896D01*
X-3305918Y9590891D01*
X-3310861Y9584449D01*
X-3313971Y9576941D01*
X-3313972Y9576939D01*
X-3363218Y9458048D01*
X-3363220Y9458043D01*
X-3366330Y9450533D01*
X-3367391Y9442476D01*
X-3367392Y9442471D01*
X-3367518Y9441512D01*
X-3385250Y9306824D01*
X-37360137Y9306824D01*
X-37179530Y10027500D01*
X799750Y10027500D01*
X818670Y9883791D01*
X821781Y9876280D01*
X821782Y9876277D01*
X827665Y9862074D01*
X874139Y9749875D01*
X879084Y9743431D01*
X879085Y9743429D01*
X956177Y9642961D01*
X962379Y9634879D01*
X1077375Y9546639D01*
X1211291Y9491170D01*
X1355000Y9472250D01*
X1498709Y9491170D01*
X1632625Y9546639D01*
X1747621Y9634879D01*
X1835861Y9749875D01*
X1891330Y9883791D01*
X1910250Y10027500D01*
X1891330Y10171209D01*
X1835861Y10305125D01*
X1747621Y10420121D01*
X1632625Y10508361D01*
X1596592Y10523286D01*
X1506223Y10560718D01*
X1506220Y10560719D01*
X1498709Y10563830D01*
X1490649Y10564892D01*
X1490646Y10564892D01*
X1363059Y10581689D01*
X1355000Y10582750D01*
X1346941Y10581689D01*
X1219353Y10564892D01*
X1219348Y10564891D01*
X1211291Y10563830D01*
X1203781Y10560720D01*
X1203776Y10560718D01*
X1084885Y10511472D01*
X1084883Y10511471D01*
X1077375Y10508361D01*
X1070933Y10503418D01*
X1070928Y10503415D01*
X968821Y10425065D01*
X968817Y10425062D01*
X962379Y10420121D01*
X957438Y10413683D01*
X957435Y10413679D01*
X879085Y10311572D01*
X879082Y10311567D01*
X874139Y10305125D01*
X871029Y10297617D01*
X871028Y10297615D01*
X821782Y10178724D01*
X821780Y10178719D01*
X818670Y10171209D01*
X817609Y10163152D01*
X817608Y10163147D01*
X800811Y10035559D01*
X799750Y10027500D01*
X-37179530Y10027500D01*
X-37098388Y10351281D01*
X-37097362Y10355113D01*
X-37093154Y10369875D01*
X-37014013Y10647500D01*
X-9482750Y10647500D01*
X-9481689Y10639441D01*
X-9471735Y10563830D01*
X-9463830Y10503791D01*
X-9408361Y10369875D01*
X-9320121Y10254879D01*
X-9205125Y10166639D01*
X-9071209Y10111170D01*
X-8927500Y10092250D01*
X-8783791Y10111170D01*
X-8649875Y10166639D01*
X-8534879Y10254879D01*
X-8446639Y10369875D01*
X-8391170Y10503791D01*
X-8372250Y10647500D01*
X-8391170Y10791209D01*
X-8446639Y10925125D01*
X-8534879Y11040121D01*
X-8649875Y11128361D01*
X-8700386Y11149283D01*
X-8776277Y11180718D01*
X-8776280Y11180719D01*
X-8783791Y11183830D01*
X-8791851Y11184892D01*
X-8791854Y11184892D01*
X-8919441Y11201689D01*
X-8927500Y11202750D01*
X-8935559Y11201689D01*
X-9063147Y11184892D01*
X-9063152Y11184891D01*
X-9071209Y11183830D01*
X-9078719Y11180720D01*
X-9078724Y11180718D01*
X-9197615Y11131472D01*
X-9197617Y11131471D01*
X-9205125Y11128361D01*
X-9211567Y11123418D01*
X-9211572Y11123415D01*
X-9313679Y11045065D01*
X-9313683Y11045062D01*
X-9320121Y11040121D01*
X-9325062Y11033683D01*
X-9325065Y11033679D01*
X-9403415Y10931572D01*
X-9403418Y10931567D01*
X-9408361Y10925125D01*
X-9411471Y10917617D01*
X-9411472Y10917615D01*
X-9460718Y10798724D01*
X-9460720Y10798719D01*
X-9463830Y10791209D01*
X-9464891Y10783152D01*
X-9464892Y10783147D01*
X-9471545Y10732609D01*
X-9482750Y10647500D01*
X-37014013Y10647500D01*
X-36759971Y11538674D01*
X-36758840Y11542411D01*
X-36383569Y12714557D01*
X-36382322Y12718250D01*
X-35969563Y13877742D01*
X-35968206Y13881369D01*
X-35895979Y14065325D01*
X-28704252Y14065325D01*
X-28704071Y14060577D01*
X-28704070Y14060577D01*
X-28694434Y13809158D01*
X-28694433Y13809147D01*
X-28694251Y13804407D01*
X-28693349Y13799752D01*
X-28693347Y13799742D01*
X-28657491Y13614861D01*
X-28644538Y13548073D01*
X-28642933Y13543602D01*
X-28642930Y13543594D01*
X-28557889Y13306813D01*
X-28557886Y13306806D01*
X-28556279Y13302332D01*
X-28431541Y13072943D01*
X-28428652Y13069153D01*
X-28374685Y12998354D01*
X-28273250Y12865284D01*
X-28085114Y12684222D01*
X-27871544Y12534001D01*
X-27750391Y12474014D01*
X-27641805Y12420249D01*
X-27641802Y12420248D01*
X-27637547Y12418141D01*
X-27388605Y12339359D01*
X-27130555Y12299500D01*
X-26937202Y12299500D01*
X-26934823Y12299500D01*
X-26739656Y12314484D01*
X-26485414Y12373979D01*
X-26243234Y12471586D01*
X-26018792Y12605018D01*
X-25817348Y12771148D01*
X-25643625Y12966080D01*
X-25534881Y13134000D01*
X-21250250Y13134000D01*
X-21231330Y12990291D01*
X-21228219Y12982780D01*
X-21228218Y12982777D01*
X-21214693Y12950125D01*
X-21175861Y12856375D01*
X-21170916Y12849931D01*
X-21170915Y12849929D01*
X-21138854Y12808147D01*
X-21087621Y12741379D01*
X-20972625Y12653139D01*
X-20838709Y12597670D01*
X-20695000Y12578750D01*
X-20551291Y12597670D01*
X-20417375Y12653139D01*
X-20302379Y12741379D01*
X-20214139Y12856375D01*
X-20158670Y12990291D01*
X-20139750Y13134000D01*
X-17847769Y13134000D01*
X-17828849Y12990291D01*
X-17825738Y12982780D01*
X-17825737Y12982777D01*
X-17812212Y12950125D01*
X-17773380Y12856375D01*
X-17768435Y12849931D01*
X-17768434Y12849929D01*
X-17736373Y12808147D01*
X-17685140Y12741379D01*
X-17570144Y12653139D01*
X-17436228Y12597670D01*
X-17292519Y12578750D01*
X-17148810Y12597670D01*
X-17014894Y12653139D01*
X-16989662Y12672500D01*
X1187250Y12672500D01*
X1188311Y12664441D01*
X1199592Y12578750D01*
X1206170Y12528791D01*
X1261639Y12394875D01*
X1266584Y12388431D01*
X1266585Y12388429D01*
X1323605Y12314120D01*
X1349879Y12279879D01*
X1356321Y12274936D01*
X1356324Y12274933D01*
X1361483Y12270974D01*
X1402516Y12215009D01*
X1407055Y12145762D01*
X1373677Y12084921D01*
X1368817Y12080062D01*
X1362379Y12075121D01*
X1357438Y12068683D01*
X1357436Y12068680D01*
X1279085Y11966572D01*
X1279082Y11966567D01*
X1274139Y11960125D01*
X1271029Y11952617D01*
X1271028Y11952615D01*
X1221782Y11833724D01*
X1221780Y11833719D01*
X1218670Y11826209D01*
X1217609Y11818152D01*
X1217608Y11818147D01*
X1208750Y11750861D01*
X1199750Y11682500D01*
X1200811Y11674441D01*
X1217506Y11547625D01*
X1218670Y11538791D01*
X1274139Y11404875D01*
X1362379Y11289879D01*
X1477375Y11201639D01*
X1611291Y11146170D01*
X1755000Y11127250D01*
X1898709Y11146170D01*
X2032625Y11201639D01*
X2121714Y11270000D01*
X9290750Y11270000D01*
X9291811Y11261941D01*
X9307192Y11145109D01*
X9309670Y11126291D01*
X9365139Y10992375D01*
X9453379Y10877379D01*
X9568375Y10789139D01*
X9702291Y10733670D01*
X9846000Y10714750D01*
X9989709Y10733670D01*
X10123625Y10789139D01*
X10238621Y10877379D01*
X10326861Y10992375D01*
X10382330Y11126291D01*
X10401250Y11270000D01*
X10382330Y11413709D01*
X10326861Y11547625D01*
X10238621Y11662621D01*
X10123625Y11750861D01*
X10087592Y11765786D01*
X9997223Y11803218D01*
X9997220Y11803219D01*
X9989709Y11806330D01*
X9981649Y11807392D01*
X9981646Y11807392D01*
X9854059Y11824189D01*
X9846000Y11825250D01*
X9837941Y11824189D01*
X9710353Y11807392D01*
X9710348Y11807391D01*
X9702291Y11806330D01*
X9694781Y11803220D01*
X9694776Y11803218D01*
X9575885Y11753972D01*
X9575883Y11753971D01*
X9568375Y11750861D01*
X9561933Y11745918D01*
X9561928Y11745915D01*
X9459821Y11667565D01*
X9459817Y11667562D01*
X9453379Y11662621D01*
X9448438Y11656183D01*
X9448435Y11656179D01*
X9370085Y11554072D01*
X9370082Y11554067D01*
X9365139Y11547625D01*
X9362029Y11540117D01*
X9362028Y11540115D01*
X9312782Y11421224D01*
X9312780Y11421219D01*
X9309670Y11413709D01*
X9308609Y11405652D01*
X9308608Y11405647D01*
X9307658Y11398429D01*
X9290750Y11270000D01*
X2121714Y11270000D01*
X2147621Y11289879D01*
X2235861Y11404875D01*
X2291330Y11538791D01*
X2310250Y11682500D01*
X2291330Y11826209D01*
X2235861Y11960125D01*
X2147621Y12075121D01*
X2141178Y12080065D01*
X2141173Y12080070D01*
X2136015Y12084028D01*
X2094982Y12139994D01*
X2090445Y12209243D01*
X2123826Y12270084D01*
X2128674Y12274933D01*
X2135121Y12279879D01*
X2223361Y12394875D01*
X2278830Y12528791D01*
X2297750Y12672500D01*
X2278830Y12816209D01*
X2223361Y12950125D01*
X2135121Y13065121D01*
X2020125Y13153361D01*
X1952794Y13181250D01*
X1893723Y13205718D01*
X1893720Y13205719D01*
X1886209Y13208830D01*
X1878149Y13209892D01*
X1878146Y13209892D01*
X1750559Y13226689D01*
X1742500Y13227750D01*
X1734441Y13226689D01*
X1606853Y13209892D01*
X1606848Y13209891D01*
X1598791Y13208830D01*
X1591281Y13205720D01*
X1591276Y13205718D01*
X1472385Y13156472D01*
X1472383Y13156471D01*
X1464875Y13153361D01*
X1458433Y13148418D01*
X1458428Y13148415D01*
X1356321Y13070065D01*
X1356317Y13070062D01*
X1349879Y13065121D01*
X1344938Y13058683D01*
X1344935Y13058679D01*
X1266585Y12956572D01*
X1266582Y12956567D01*
X1261639Y12950125D01*
X1258529Y12942617D01*
X1258528Y12942615D01*
X1209282Y12823724D01*
X1209280Y12823719D01*
X1206170Y12816209D01*
X1205109Y12808152D01*
X1205108Y12808147D01*
X1193032Y12716418D01*
X1187250Y12672500D01*
X-16989662Y12672500D01*
X-16899898Y12741379D01*
X-16811658Y12856375D01*
X-16756189Y12990291D01*
X-16737269Y13134000D01*
X-16756189Y13277709D01*
X-16811658Y13411625D01*
X-16899898Y13526621D01*
X-16906341Y13531565D01*
X-17008448Y13609915D01*
X-17008450Y13609916D01*
X-17014894Y13614861D01*
X-17050927Y13629786D01*
X-17141296Y13667218D01*
X-17141299Y13667219D01*
X-17148810Y13670330D01*
X-17156870Y13671392D01*
X-17156873Y13671392D01*
X-17284460Y13688189D01*
X-17292519Y13689250D01*
X-17300578Y13688189D01*
X-17428166Y13671392D01*
X-17428171Y13671391D01*
X-17436228Y13670330D01*
X-17443738Y13667220D01*
X-17443743Y13667218D01*
X-17562634Y13617972D01*
X-17562636Y13617971D01*
X-17570144Y13614861D01*
X-17576586Y13609918D01*
X-17576591Y13609915D01*
X-17678698Y13531565D01*
X-17678702Y13531562D01*
X-17685140Y13526621D01*
X-17690081Y13520183D01*
X-17690084Y13520179D01*
X-17768434Y13418072D01*
X-17768437Y13418067D01*
X-17773380Y13411625D01*
X-17776490Y13404117D01*
X-17776491Y13404115D01*
X-17825737Y13285224D01*
X-17825739Y13285219D01*
X-17828849Y13277709D01*
X-17829910Y13269652D01*
X-17829911Y13269647D01*
X-17845220Y13153361D01*
X-17847769Y13134000D01*
X-20139750Y13134000D01*
X-20158670Y13277709D01*
X-20214139Y13411625D01*
X-20302379Y13526621D01*
X-20308822Y13531565D01*
X-20410929Y13609915D01*
X-20410931Y13609916D01*
X-20417375Y13614861D01*
X-20453408Y13629786D01*
X-20543777Y13667218D01*
X-20543780Y13667219D01*
X-20551291Y13670330D01*
X-20559351Y13671392D01*
X-20559354Y13671392D01*
X-20686941Y13688189D01*
X-20695000Y13689250D01*
X-20703059Y13688189D01*
X-20830647Y13671392D01*
X-20830652Y13671391D01*
X-20838709Y13670330D01*
X-20846219Y13667220D01*
X-20846224Y13667218D01*
X-20965115Y13617972D01*
X-20965117Y13617971D01*
X-20972625Y13614861D01*
X-20979067Y13609918D01*
X-20979072Y13609915D01*
X-21081179Y13531565D01*
X-21081183Y13531562D01*
X-21087621Y13526621D01*
X-21092562Y13520183D01*
X-21092565Y13520179D01*
X-21170915Y13418072D01*
X-21170918Y13418067D01*
X-21175861Y13411625D01*
X-21178971Y13404117D01*
X-21178972Y13404115D01*
X-21228218Y13285224D01*
X-21228220Y13285219D01*
X-21231330Y13277709D01*
X-21232391Y13269652D01*
X-21232392Y13269647D01*
X-21247701Y13153361D01*
X-21250250Y13134000D01*
X-25534881Y13134000D01*
X-25501694Y13185247D01*
X-25394882Y13423511D01*
X-25325693Y13675287D01*
X-25295748Y13934675D01*
X-25305749Y14195593D01*
X-25355462Y14451927D01*
X-25443721Y14697668D01*
X-25568459Y14927057D01*
X-25595095Y14962000D01*
X-15336269Y14962000D01*
X-15335208Y14953941D01*
X-15320705Y14843777D01*
X-15317349Y14818291D01*
X-15314238Y14810780D01*
X-15314237Y14810777D01*
X-15308190Y14796179D01*
X-15261880Y14684375D01*
X-15256935Y14677931D01*
X-15256934Y14677929D01*
X-15203906Y14608822D01*
X-15173640Y14569379D01*
X-15058644Y14481139D01*
X-14924728Y14425670D01*
X-14781019Y14406750D01*
X-14637310Y14425670D01*
X-14503394Y14481139D01*
X-14388398Y14569379D01*
X-14300158Y14684375D01*
X-14244689Y14818291D01*
X-14227607Y14948041D01*
X-14204985Y15004742D01*
X-14158048Y15043777D01*
X-14098173Y15055685D01*
X-14039872Y15037579D01*
X-14003861Y15000607D01*
X-14002851Y15001381D01*
X-13922202Y14896277D01*
X-13914611Y14886385D01*
X-13799615Y14798145D01*
X-13792107Y14795036D01*
X-13792105Y14795034D01*
X-13691042Y14753173D01*
X-13642642Y14717278D01*
X-13616877Y14662806D01*
X-13619832Y14602620D01*
X-13649614Y14552929D01*
X-13652621Y14550621D01*
X-13657562Y14544183D01*
X-13657567Y14544177D01*
X-13735915Y14442072D01*
X-13735918Y14442067D01*
X-13740861Y14435625D01*
X-13743971Y14428117D01*
X-13743972Y14428115D01*
X-13793218Y14309224D01*
X-13793220Y14309219D01*
X-13796330Y14301709D01*
X-13797391Y14293652D01*
X-13797392Y14293647D01*
X-13810301Y14195593D01*
X-13815250Y14158000D01*
X-13814189Y14149941D01*
X-13803671Y14070045D01*
X-13796330Y14014291D01*
X-13793219Y14006780D01*
X-13793218Y14006777D01*
X-13761852Y13931052D01*
X-13740861Y13880375D01*
X-13735916Y13873931D01*
X-13735915Y13873929D01*
X-13678989Y13799742D01*
X-13652621Y13765379D01*
X-13537625Y13677139D01*
X-13403709Y13621670D01*
X-13260000Y13602750D01*
X-13116291Y13621670D01*
X-12982375Y13677139D01*
X-12867379Y13765379D01*
X-12779139Y13880375D01*
X-12723670Y14014291D01*
X-12704750Y14158000D01*
X-12723670Y14301709D01*
X-12779139Y14435625D01*
X-12867379Y14550621D01*
X-12900361Y14575929D01*
X-12975929Y14633915D01*
X-12975931Y14633916D01*
X-12982375Y14638861D01*
X-13040184Y14662806D01*
X-13090950Y14683834D01*
X-13139351Y14719731D01*
X-13165115Y14774206D01*
X-13162157Y14834394D01*
X-13146808Y14860000D01*
X-11495250Y14860000D01*
X-11494189Y14851941D01*
X-11484374Y14777386D01*
X-11476330Y14716291D01*
X-11473219Y14708780D01*
X-11473218Y14708777D01*
X-11450893Y14654879D01*
X-11420861Y14582375D01*
X-11415916Y14575931D01*
X-11415915Y14575929D01*
X-11340793Y14478029D01*
X-11332621Y14467379D01*
X-11217625Y14379139D01*
X-11083709Y14323670D01*
X-10940000Y14304750D01*
X-10796291Y14323670D01*
X-10662375Y14379139D01*
X-10547379Y14467379D01*
X-10459139Y14582375D01*
X-10403670Y14716291D01*
X-10384750Y14860000D01*
X-10403670Y15003709D01*
X-10421809Y15047500D01*
X-8750250Y15047500D01*
X-8749189Y15039441D01*
X-8734893Y14930848D01*
X-8731330Y14903791D01*
X-8728219Y14896280D01*
X-8728218Y14896277D01*
X-8691472Y14807565D01*
X-8675861Y14769875D01*
X-8670916Y14763431D01*
X-8670915Y14763429D01*
X-8637384Y14719731D01*
X-8587621Y14654879D01*
X-8472625Y14566639D01*
X-8338709Y14511170D01*
X-8195000Y14492250D01*
X-8053597Y14510867D01*
X-7989962Y14502489D01*
X-7939039Y14463415D01*
X-7914475Y14404113D01*
X-7898241Y14280800D01*
X-7896330Y14266291D01*
X-7840861Y14132375D01*
X-7835916Y14125931D01*
X-7835915Y14125929D01*
X-7785768Y14060577D01*
X-7752621Y14017379D01*
X-7637625Y13929139D01*
X-7503709Y13873670D01*
X-7360000Y13854750D01*
X-7216291Y13873670D01*
X-7082375Y13929139D01*
X-6967379Y14017379D01*
X-6879139Y14132375D01*
X-6837061Y14233963D01*
X-6803032Y14280800D01*
X-6751447Y14307084D01*
X-6693553Y14307084D01*
X-6641968Y14280800D01*
X-6607940Y14233963D01*
X-6565861Y14132375D01*
X-6560916Y14125931D01*
X-6560915Y14125929D01*
X-6510768Y14060577D01*
X-6477621Y14017379D01*
X-6362625Y13929139D01*
X-6228709Y13873670D01*
X-6085000Y13854750D01*
X-5941291Y13873670D01*
X-5807375Y13929139D01*
X-5692379Y14017379D01*
X-5604139Y14132375D01*
X-5562061Y14233963D01*
X-5528032Y14280800D01*
X-5476447Y14307084D01*
X-5418553Y14307084D01*
X-5366968Y14280800D01*
X-5332940Y14233963D01*
X-5290861Y14132375D01*
X-5285916Y14125931D01*
X-5285915Y14125929D01*
X-5235768Y14060577D01*
X-5202621Y14017379D01*
X-5087625Y13929139D01*
X-4953709Y13873670D01*
X-4810000Y13854750D01*
X-4666291Y13873670D01*
X-4532375Y13929139D01*
X-4417379Y14017379D01*
X-4380589Y14065325D01*
X25295748Y14065325D01*
X25295929Y14060577D01*
X25295930Y14060577D01*
X25305566Y13809158D01*
X25305567Y13809147D01*
X25305749Y13804407D01*
X25306651Y13799752D01*
X25306653Y13799742D01*
X25342509Y13614861D01*
X25355462Y13548073D01*
X25357067Y13543602D01*
X25357070Y13543594D01*
X25442111Y13306813D01*
X25442114Y13306806D01*
X25443721Y13302332D01*
X25568459Y13072943D01*
X25571348Y13069153D01*
X25625315Y12998354D01*
X25726750Y12865284D01*
X25914886Y12684222D01*
X26128456Y12534001D01*
X26249609Y12474014D01*
X26358195Y12420249D01*
X26358198Y12420248D01*
X26362453Y12418141D01*
X26611395Y12339359D01*
X26869445Y12299500D01*
X27062798Y12299500D01*
X27065177Y12299500D01*
X27260344Y12314484D01*
X27514586Y12373979D01*
X27756766Y12471586D01*
X27981208Y12605018D01*
X28182652Y12771148D01*
X28356375Y12966080D01*
X28498306Y13185247D01*
X28605118Y13423511D01*
X28674307Y13675287D01*
X28704252Y13934675D01*
X28694251Y14195593D01*
X28644538Y14451927D01*
X28556279Y14697668D01*
X28431541Y14927057D01*
X28273250Y15134716D01*
X28172046Y15232115D01*
X28088538Y15312483D01*
X28088536Y15312485D01*
X28085114Y15315778D01*
X27871544Y15465999D01*
X27755584Y15523415D01*
X27641804Y15579752D01*
X27641795Y15579756D01*
X27637547Y15581859D01*
X27633021Y15583292D01*
X27633017Y15583293D01*
X27393131Y15659209D01*
X27393126Y15659210D01*
X27388605Y15660641D01*
X27383925Y15661364D01*
X27383916Y15661366D01*
X27135245Y15699776D01*
X27135239Y15699777D01*
X27130555Y15700500D01*
X26934823Y15700500D01*
X26932456Y15700319D01*
X26932448Y15700318D01*
X26744401Y15685881D01*
X26744391Y15685880D01*
X26739656Y15685516D01*
X26735028Y15684434D01*
X26735021Y15684432D01*
X26490049Y15627106D01*
X26490044Y15627105D01*
X26485414Y15626021D01*
X26480999Y15624242D01*
X26480997Y15624241D01*
X26247644Y15530192D01*
X26247637Y15530189D01*
X26243234Y15528414D01*
X26239159Y15525992D01*
X26239150Y15525987D01*
X26022879Y15397413D01*
X26022867Y15397405D01*
X26018792Y15394982D01*
X26015132Y15391964D01*
X26015124Y15391958D01*
X25821018Y15231879D01*
X25817348Y15228852D01*
X25814185Y15225304D01*
X25814182Y15225300D01*
X25646790Y15037473D01*
X25646781Y15037462D01*
X25643625Y15033920D01*
X25641044Y15029935D01*
X25641036Y15029924D01*
X25504282Y14818751D01*
X25504276Y14818741D01*
X25501694Y14814753D01*
X25499749Y14810416D01*
X25499746Y14810409D01*
X25396825Y14580825D01*
X25396821Y14580817D01*
X25394882Y14576489D01*
X25393625Y14571918D01*
X25393622Y14571907D01*
X25326952Y14329298D01*
X25326949Y14329286D01*
X25325693Y14324713D01*
X25325148Y14319997D01*
X25325148Y14319994D01*
X25296292Y14070045D01*
X25296291Y14070034D01*
X25295748Y14065325D01*
X-4380589Y14065325D01*
X-4329139Y14132375D01*
X-4273670Y14266291D01*
X-4262490Y14351215D01*
X-4237927Y14410514D01*
X-4187003Y14449589D01*
X-4123368Y14457967D01*
X-3985000Y14439750D01*
X-3841291Y14458670D01*
X-3707375Y14514139D01*
X-3592379Y14602379D01*
X-3504139Y14717375D01*
X-3448670Y14851291D01*
X-3429750Y14995000D01*
X-3448670Y15138709D01*
X-3504139Y15272625D01*
X-3592379Y15387621D01*
X-3609722Y15400929D01*
X-3700929Y15470915D01*
X-3700931Y15470916D01*
X-3707375Y15475861D01*
X-3761621Y15498330D01*
X-3833777Y15528218D01*
X-3833780Y15528219D01*
X-3841291Y15531330D01*
X-3849351Y15532392D01*
X-3849354Y15532392D01*
X-3976941Y15549189D01*
X-3985000Y15550250D01*
X-3993059Y15549189D01*
X-3993060Y15549189D01*
X-4117344Y15532827D01*
X-4173388Y15538347D01*
X-4221211Y15568086D01*
X-4250949Y15615909D01*
X-4256468Y15671953D01*
X-4255811Y15676943D01*
X-4254750Y15685000D01*
X-4273670Y15828709D01*
X-4296986Y15885000D01*
X-1840244Y15885000D01*
X-1839183Y15876941D01*
X-1823119Y15754921D01*
X-1821324Y15741291D01*
X-1818213Y15733780D01*
X-1818212Y15733777D01*
X-1787918Y15660641D01*
X-1765855Y15607375D01*
X-1760910Y15600931D01*
X-1760909Y15600929D01*
X-1701430Y15523415D01*
X-1677615Y15492379D01*
X-1562619Y15404139D01*
X-1428703Y15348670D01*
X-1284994Y15329750D01*
X-1141285Y15348670D01*
X-1007369Y15404139D01*
X-892373Y15492379D01*
X-804133Y15607375D01*
X-751270Y15735000D01*
X1059750Y15735000D01*
X1060811Y15726941D01*
X1075563Y15614886D01*
X1078670Y15591291D01*
X1081781Y15583780D01*
X1081782Y15583777D01*
X1095669Y15550250D01*
X1134139Y15457375D01*
X1139084Y15450931D01*
X1139085Y15450929D01*
X1209192Y15359565D01*
X1222379Y15342379D01*
X1337375Y15254139D01*
X1471291Y15198670D01*
X1615000Y15179750D01*
X1758709Y15198670D01*
X1892625Y15254139D01*
X2007621Y15342379D01*
X2095861Y15457375D01*
X2151330Y15591291D01*
X2170250Y15735000D01*
X2151330Y15878709D01*
X2095861Y16012625D01*
X2007621Y16127621D01*
X1892625Y16215861D01*
X1816241Y16247500D01*
X1766223Y16268218D01*
X1766220Y16268219D01*
X1758709Y16271330D01*
X1750649Y16272392D01*
X1750646Y16272392D01*
X1623059Y16289189D01*
X1615000Y16290250D01*
X1606941Y16289189D01*
X1479353Y16272392D01*
X1479348Y16272391D01*
X1471291Y16271330D01*
X1463781Y16268220D01*
X1463776Y16268218D01*
X1344885Y16218972D01*
X1344883Y16218971D01*
X1337375Y16215861D01*
X1330933Y16210918D01*
X1330928Y16210915D01*
X1228821Y16132565D01*
X1228817Y16132562D01*
X1222379Y16127621D01*
X1217438Y16121183D01*
X1217435Y16121179D01*
X1139085Y16019072D01*
X1139082Y16019067D01*
X1134139Y16012625D01*
X1131029Y16005117D01*
X1131028Y16005115D01*
X1081782Y15886224D01*
X1081780Y15886219D01*
X1078670Y15878709D01*
X1077609Y15870652D01*
X1077608Y15870647D01*
X1063024Y15759867D01*
X1059750Y15735000D01*
X-751270Y15735000D01*
X-748664Y15741291D01*
X-729744Y15885000D01*
X-748664Y16028709D01*
X-804133Y16162625D01*
X-892373Y16277621D01*
X-1007369Y16365861D01*
X-1097109Y16403032D01*
X-1133771Y16418218D01*
X-1133774Y16418219D01*
X-1141285Y16421330D01*
X-1149345Y16422392D01*
X-1149348Y16422392D01*
X-1276935Y16439189D01*
X-1284994Y16440250D01*
X-1293053Y16439189D01*
X-1420641Y16422392D01*
X-1420646Y16422391D01*
X-1428703Y16421330D01*
X-1436213Y16418220D01*
X-1436218Y16418218D01*
X-1555109Y16368972D01*
X-1555111Y16368971D01*
X-1562619Y16365861D01*
X-1569061Y16360918D01*
X-1569066Y16360915D01*
X-1671173Y16282565D01*
X-1671177Y16282562D01*
X-1677615Y16277621D01*
X-1682556Y16271183D01*
X-1682559Y16271179D01*
X-1760909Y16169072D01*
X-1760912Y16169067D01*
X-1765855Y16162625D01*
X-1768965Y16155117D01*
X-1768966Y16155115D01*
X-1818212Y16036224D01*
X-1818214Y16036219D01*
X-1821324Y16028709D01*
X-1822385Y16020652D01*
X-1822386Y16020647D01*
X-1831013Y15955115D01*
X-1840244Y15885000D01*
X-4296986Y15885000D01*
X-4329139Y15962625D01*
X-4417379Y16077621D01*
X-4461992Y16111854D01*
X-4525929Y16160915D01*
X-4525931Y16160916D01*
X-4532375Y16165861D01*
X-4633963Y16207940D01*
X-4680800Y16241968D01*
X-4707084Y16293553D01*
X-4707084Y16351447D01*
X-4680800Y16403032D01*
X-4633962Y16437061D01*
X-4532375Y16479139D01*
X-4417379Y16567379D01*
X-4329139Y16682375D01*
X-4273670Y16816291D01*
X-4254750Y16960000D01*
X-4257383Y16980000D01*
X15694750Y16980000D01*
X15695811Y16971941D01*
X15702064Y16924441D01*
X15713670Y16836291D01*
X15716781Y16828780D01*
X15716782Y16828777D01*
X15727563Y16802750D01*
X15769139Y16702375D01*
X15774084Y16695931D01*
X15774085Y16695929D01*
X15852435Y16593822D01*
X15857379Y16587379D01*
X15972375Y16499139D01*
X16106291Y16443670D01*
X16250000Y16424750D01*
X16393709Y16443670D01*
X16527625Y16499139D01*
X16642621Y16587379D01*
X16730861Y16702375D01*
X16786330Y16836291D01*
X16805250Y16980000D01*
X16786330Y17123709D01*
X16730861Y17257625D01*
X16642621Y17372621D01*
X16559456Y17436436D01*
X16534071Y17455915D01*
X16534069Y17455916D01*
X16527625Y17460861D01*
X16465270Y17486689D01*
X16401223Y17513218D01*
X16401220Y17513219D01*
X16393709Y17516330D01*
X16385649Y17517392D01*
X16385646Y17517392D01*
X16258059Y17534189D01*
X16250000Y17535250D01*
X16241941Y17534189D01*
X16114353Y17517392D01*
X16114348Y17517391D01*
X16106291Y17516330D01*
X16098781Y17513220D01*
X16098776Y17513218D01*
X15979885Y17463972D01*
X15979883Y17463971D01*
X15972375Y17460861D01*
X15965933Y17455918D01*
X15965928Y17455915D01*
X15863821Y17377565D01*
X15863817Y17377562D01*
X15857379Y17372621D01*
X15852438Y17366183D01*
X15852435Y17366179D01*
X15774085Y17264072D01*
X15774082Y17264067D01*
X15769139Y17257625D01*
X15766029Y17250117D01*
X15766028Y17250115D01*
X15716782Y17131224D01*
X15716780Y17131219D01*
X15713670Y17123709D01*
X15712609Y17115652D01*
X15712608Y17115647D01*
X15707416Y17076209D01*
X15694750Y16980000D01*
X-4257383Y16980000D01*
X-4273670Y17103709D01*
X-4329139Y17237625D01*
X-4417379Y17352621D01*
X-4532375Y17440861D01*
X-4643015Y17486689D01*
X-4658777Y17493218D01*
X-4658780Y17493219D01*
X-4666291Y17496330D01*
X-4674351Y17497392D01*
X-4674354Y17497392D01*
X-4801941Y17514189D01*
X-4810000Y17515250D01*
X-4818059Y17514189D01*
X-4945647Y17497392D01*
X-4945652Y17497391D01*
X-4953709Y17496330D01*
X-4961219Y17493220D01*
X-4961224Y17493218D01*
X-5080115Y17443972D01*
X-5080117Y17443971D01*
X-5087625Y17440861D01*
X-5094067Y17435918D01*
X-5094072Y17435915D01*
X-5196179Y17357565D01*
X-5196183Y17357562D01*
X-5202621Y17352621D01*
X-5207562Y17346183D01*
X-5207565Y17346179D01*
X-5285915Y17244072D01*
X-5285918Y17244067D01*
X-5290861Y17237625D01*
X-5293969Y17230123D01*
X-5293973Y17230115D01*
X-5332939Y17136039D01*
X-5366968Y17089201D01*
X-5418553Y17062917D01*
X-5476447Y17062917D01*
X-5528032Y17089201D01*
X-5562061Y17136039D01*
X-5601028Y17230115D01*
X-5601030Y17230117D01*
X-5604139Y17237625D01*
X-5692379Y17352621D01*
X-5807375Y17440861D01*
X-5918015Y17486689D01*
X-5933777Y17493218D01*
X-5933780Y17493219D01*
X-5941291Y17496330D01*
X-5949351Y17497392D01*
X-5949354Y17497392D01*
X-6076941Y17514189D01*
X-6085000Y17515250D01*
X-6093059Y17514189D01*
X-6220647Y17497392D01*
X-6220652Y17497391D01*
X-6228709Y17496330D01*
X-6236219Y17493220D01*
X-6236224Y17493218D01*
X-6355115Y17443972D01*
X-6355117Y17443971D01*
X-6362625Y17440861D01*
X-6369067Y17435918D01*
X-6369072Y17435915D01*
X-6471179Y17357565D01*
X-6471183Y17357562D01*
X-6477621Y17352621D01*
X-6482562Y17346183D01*
X-6482565Y17346179D01*
X-6560915Y17244072D01*
X-6560918Y17244067D01*
X-6565861Y17237625D01*
X-6568969Y17230123D01*
X-6568973Y17230115D01*
X-6607939Y17136039D01*
X-6641968Y17089201D01*
X-6693553Y17062917D01*
X-6751447Y17062917D01*
X-6803032Y17089201D01*
X-6837061Y17136039D01*
X-6876028Y17230115D01*
X-6876030Y17230117D01*
X-6879139Y17237625D01*
X-6967379Y17352621D01*
X-7082375Y17440861D01*
X-7193015Y17486689D01*
X-7208777Y17493218D01*
X-7208780Y17493219D01*
X-7216291Y17496330D01*
X-7224351Y17497392D01*
X-7224354Y17497392D01*
X-7351941Y17514189D01*
X-7360000Y17515250D01*
X-7368059Y17514189D01*
X-7495647Y17497392D01*
X-7495652Y17497391D01*
X-7503709Y17496330D01*
X-7511219Y17493220D01*
X-7511224Y17493218D01*
X-7630115Y17443972D01*
X-7630117Y17443971D01*
X-7637625Y17440861D01*
X-7644067Y17435918D01*
X-7644072Y17435915D01*
X-7746179Y17357565D01*
X-7746183Y17357562D01*
X-7752621Y17352621D01*
X-7757562Y17346183D01*
X-7757565Y17346179D01*
X-7835915Y17244072D01*
X-7835918Y17244067D01*
X-7840861Y17237625D01*
X-7843971Y17230117D01*
X-7843972Y17230115D01*
X-7893218Y17111224D01*
X-7893220Y17111219D01*
X-7896330Y17103709D01*
X-7897391Y17095652D01*
X-7897392Y17095647D01*
X-7911556Y16988059D01*
X-7915250Y16960000D01*
X-7914189Y16951941D01*
X-7898241Y16830800D01*
X-7896330Y16816291D01*
X-7893219Y16808780D01*
X-7893218Y16808777D01*
X-7861197Y16731472D01*
X-7840861Y16682375D01*
X-7835916Y16675931D01*
X-7835915Y16675929D01*
X-7814813Y16648429D01*
X-7752621Y16567379D01*
X-7637625Y16479139D01*
X-7630117Y16476030D01*
X-7630115Y16476028D01*
X-7536039Y16437061D01*
X-7489201Y16403032D01*
X-7462917Y16351447D01*
X-7462917Y16293553D01*
X-7489201Y16241968D01*
X-7536039Y16207939D01*
X-7630115Y16168973D01*
X-7630123Y16168969D01*
X-7637625Y16165861D01*
X-7644067Y16160918D01*
X-7644072Y16160915D01*
X-7746179Y16082565D01*
X-7746183Y16082562D01*
X-7752621Y16077621D01*
X-7757562Y16071183D01*
X-7757565Y16071179D01*
X-7835915Y15969072D01*
X-7835918Y15969067D01*
X-7840861Y15962625D01*
X-7843971Y15955117D01*
X-7843972Y15955115D01*
X-7893218Y15836224D01*
X-7893220Y15836219D01*
X-7896330Y15828709D01*
X-7897391Y15820652D01*
X-7897392Y15820647D01*
X-7914475Y15690887D01*
X-7939038Y15631586D01*
X-7989962Y15592512D01*
X-8053600Y15584134D01*
X-8186941Y15601689D01*
X-8195000Y15602750D01*
X-8203059Y15601689D01*
X-8330647Y15584892D01*
X-8330652Y15584891D01*
X-8338709Y15583830D01*
X-8346219Y15580720D01*
X-8346224Y15580718D01*
X-8465115Y15531472D01*
X-8465117Y15531471D01*
X-8472625Y15528361D01*
X-8479067Y15523418D01*
X-8479072Y15523415D01*
X-8581179Y15445065D01*
X-8581183Y15445062D01*
X-8587621Y15440121D01*
X-8592562Y15433683D01*
X-8592565Y15433679D01*
X-8670915Y15331572D01*
X-8670918Y15331567D01*
X-8675861Y15325125D01*
X-8678971Y15317617D01*
X-8678972Y15317615D01*
X-8728218Y15198724D01*
X-8728220Y15198719D01*
X-8731330Y15191209D01*
X-8732391Y15183152D01*
X-8732392Y15183147D01*
X-8743648Y15097647D01*
X-8750250Y15047500D01*
X-10421809Y15047500D01*
X-10459139Y15137625D01*
X-10547379Y15252621D01*
X-10571262Y15270947D01*
X-10655929Y15335915D01*
X-10655931Y15335916D01*
X-10662375Y15340861D01*
X-10707531Y15359565D01*
X-10788777Y15393218D01*
X-10788780Y15393219D01*
X-10796291Y15396330D01*
X-10804351Y15397392D01*
X-10804354Y15397392D01*
X-10931941Y15414189D01*
X-10940000Y15415250D01*
X-10948059Y15414189D01*
X-11075647Y15397392D01*
X-11075652Y15397391D01*
X-11083709Y15396330D01*
X-11091219Y15393220D01*
X-11091224Y15393218D01*
X-11210115Y15343972D01*
X-11210117Y15343971D01*
X-11217625Y15340861D01*
X-11224067Y15335918D01*
X-11224072Y15335915D01*
X-11326179Y15257565D01*
X-11326183Y15257562D01*
X-11332621Y15252621D01*
X-11337562Y15246183D01*
X-11337565Y15246179D01*
X-11415915Y15144072D01*
X-11415918Y15144067D01*
X-11420861Y15137625D01*
X-11423971Y15130117D01*
X-11423972Y15130115D01*
X-11473218Y15011224D01*
X-11473220Y15011219D01*
X-11476330Y15003709D01*
X-11477391Y14995652D01*
X-11477392Y14995647D01*
X-11491838Y14885915D01*
X-11495250Y14860000D01*
X-13146808Y14860000D01*
X-13132375Y14884079D01*
X-13129369Y14886385D01*
X-13041129Y15001381D01*
X-12985660Y15135297D01*
X-12966740Y15279006D01*
X-12985660Y15422715D01*
X-13041129Y15556631D01*
X-13129369Y15671627D01*
X-13156647Y15692558D01*
X-13237919Y15754921D01*
X-13237921Y15754922D01*
X-13244365Y15759867D01*
X-13251871Y15762976D01*
X-13251876Y15762979D01*
X-13341509Y15800105D01*
X-13395633Y15843544D01*
X-13417939Y15909261D01*
X-13403200Y15969486D01*
X-13404139Y15969875D01*
X-13401610Y15975981D01*
X-13401611Y15975981D01*
X-13348670Y16103791D01*
X-13329750Y16247500D01*
X-13348670Y16391209D01*
X-13404139Y16525125D01*
X-13492379Y16640121D01*
X-13521395Y16662386D01*
X-13600929Y16723415D01*
X-13600931Y16723416D01*
X-13607375Y16728361D01*
X-13643408Y16743286D01*
X-13733777Y16780718D01*
X-13733780Y16780719D01*
X-13741291Y16783830D01*
X-13749351Y16784892D01*
X-13749354Y16784892D01*
X-13876941Y16801689D01*
X-13885000Y16802750D01*
X-13893059Y16801689D01*
X-14020647Y16784892D01*
X-14020652Y16784891D01*
X-14028709Y16783830D01*
X-14036219Y16780720D01*
X-14036224Y16780718D01*
X-14155115Y16731472D01*
X-14155117Y16731471D01*
X-14162625Y16728361D01*
X-14169067Y16723418D01*
X-14169072Y16723415D01*
X-14271179Y16645065D01*
X-14271183Y16645062D01*
X-14277621Y16640121D01*
X-14282562Y16633683D01*
X-14282565Y16633679D01*
X-14360915Y16531572D01*
X-14360918Y16531567D01*
X-14365861Y16525125D01*
X-14368971Y16517617D01*
X-14368972Y16517615D01*
X-14418218Y16398724D01*
X-14418220Y16398719D01*
X-14421330Y16391209D01*
X-14422391Y16383152D01*
X-14422392Y16383147D01*
X-14436973Y16272392D01*
X-14440250Y16247500D01*
X-14439189Y16239441D01*
X-14423620Y16121179D01*
X-14421330Y16103791D01*
X-14418219Y16096280D01*
X-14418218Y16096277D01*
X-14386891Y16020647D01*
X-14365861Y15969875D01*
X-14360916Y15963431D01*
X-14360915Y15963429D01*
X-14294550Y15876941D01*
X-14277621Y15854879D01*
X-14162625Y15766639D01*
X-14065482Y15726402D01*
X-14011362Y15682969D01*
X-13989052Y15617259D01*
X-14003787Y15557019D01*
X-14002851Y15556631D01*
X-14005369Y15550554D01*
X-14005371Y15550549D01*
X-14005959Y15549130D01*
X-14005962Y15549123D01*
X-14055208Y15430230D01*
X-14055210Y15430225D01*
X-14058320Y15422715D01*
X-14059381Y15414658D01*
X-14059382Y15414653D01*
X-14075403Y15292966D01*
X-14098026Y15236263D01*
X-14144965Y15197228D01*
X-14204842Y15185322D01*
X-14263143Y15203431D01*
X-14299148Y15240401D01*
X-14300158Y15239625D01*
X-14388398Y15354621D01*
X-14503394Y15442861D01*
X-14583064Y15475861D01*
X-14629796Y15495218D01*
X-14629799Y15495219D01*
X-14637310Y15498330D01*
X-14645370Y15499392D01*
X-14645373Y15499392D01*
X-14772960Y15516189D01*
X-14781019Y15517250D01*
X-14789078Y15516189D01*
X-14916666Y15499392D01*
X-14916671Y15499391D01*
X-14924728Y15498330D01*
X-14932238Y15495220D01*
X-14932243Y15495218D01*
X-15051134Y15445972D01*
X-15051136Y15445971D01*
X-15058644Y15442861D01*
X-15065086Y15437918D01*
X-15065091Y15437915D01*
X-15167198Y15359565D01*
X-15167202Y15359562D01*
X-15173640Y15354621D01*
X-15178581Y15348183D01*
X-15178584Y15348179D01*
X-15256934Y15246072D01*
X-15256937Y15246067D01*
X-15261880Y15239625D01*
X-15264990Y15232117D01*
X-15264991Y15232115D01*
X-15314237Y15113224D01*
X-15314239Y15113219D01*
X-15317349Y15105709D01*
X-15318410Y15097652D01*
X-15318411Y15097647D01*
X-15331933Y14994935D01*
X-15336269Y14962000D01*
X-25595095Y14962000D01*
X-25726750Y15134716D01*
X-25827954Y15232115D01*
X-25911462Y15312483D01*
X-25911464Y15312485D01*
X-25914886Y15315778D01*
X-26128456Y15465999D01*
X-26244416Y15523415D01*
X-26358196Y15579752D01*
X-26358205Y15579756D01*
X-26362453Y15581859D01*
X-26366979Y15583292D01*
X-26366983Y15583293D01*
X-26606869Y15659209D01*
X-26606874Y15659210D01*
X-26611395Y15660641D01*
X-26616075Y15661364D01*
X-26616084Y15661366D01*
X-26864755Y15699776D01*
X-26864761Y15699777D01*
X-26869445Y15700500D01*
X-27065177Y15700500D01*
X-27067544Y15700319D01*
X-27067552Y15700318D01*
X-27255599Y15685881D01*
X-27255609Y15685880D01*
X-27260344Y15685516D01*
X-27264972Y15684434D01*
X-27264979Y15684432D01*
X-27509951Y15627106D01*
X-27509956Y15627105D01*
X-27514586Y15626021D01*
X-27519001Y15624242D01*
X-27519003Y15624241D01*
X-27752356Y15530192D01*
X-27752363Y15530189D01*
X-27756766Y15528414D01*
X-27760841Y15525992D01*
X-27760850Y15525987D01*
X-27977121Y15397413D01*
X-27977133Y15397405D01*
X-27981208Y15394982D01*
X-27984868Y15391964D01*
X-27984876Y15391958D01*
X-28178982Y15231879D01*
X-28182652Y15228852D01*
X-28185815Y15225304D01*
X-28185818Y15225300D01*
X-28353210Y15037473D01*
X-28353219Y15037462D01*
X-28356375Y15033920D01*
X-28358956Y15029935D01*
X-28358964Y15029924D01*
X-28495718Y14818751D01*
X-28495724Y14818741D01*
X-28498306Y14814753D01*
X-28500251Y14810416D01*
X-28500254Y14810409D01*
X-28603175Y14580825D01*
X-28603179Y14580817D01*
X-28605118Y14576489D01*
X-28606375Y14571918D01*
X-28606378Y14571907D01*
X-28673048Y14329298D01*
X-28673051Y14329286D01*
X-28674307Y14324713D01*
X-28674852Y14319997D01*
X-28674852Y14319994D01*
X-28703708Y14070045D01*
X-28703709Y14070034D01*
X-28704252Y14065325D01*
X-35895979Y14065325D01*
X-35518388Y15027010D01*
X-35516911Y15030602D01*
X-35030506Y16161177D01*
X-35028911Y16164727D01*
X-34668924Y16932500D01*
X-16362088Y16932500D01*
X-16361027Y16924441D01*
X-16344867Y16801689D01*
X-16343168Y16788791D01*
X-16340057Y16781280D01*
X-16340056Y16781277D01*
X-16316089Y16723415D01*
X-16287699Y16654875D01*
X-16282754Y16648431D01*
X-16282753Y16648429D01*
X-16276378Y16640121D01*
X-16199459Y16539879D01*
X-16084463Y16451639D01*
X-15950547Y16396170D01*
X-15806838Y16377250D01*
X-15663129Y16396170D01*
X-15529213Y16451639D01*
X-15414217Y16539879D01*
X-15325977Y16654875D01*
X-15270508Y16788791D01*
X-15251588Y16932500D01*
X-15270508Y17076209D01*
X-15325977Y17210125D01*
X-15414217Y17325121D01*
X-15441660Y17346179D01*
X-15522767Y17408415D01*
X-15522769Y17408416D01*
X-15529213Y17413361D01*
X-15596855Y17441379D01*
X-15655615Y17465718D01*
X-15655618Y17465719D01*
X-15663129Y17468830D01*
X-15671189Y17469892D01*
X-15671192Y17469892D01*
X-15798779Y17486689D01*
X-15806838Y17487750D01*
X-15814897Y17486689D01*
X-15942485Y17469892D01*
X-15942490Y17469891D01*
X-15950547Y17468830D01*
X-15958057Y17465720D01*
X-15958062Y17465718D01*
X-16076953Y17416472D01*
X-16076955Y17416471D01*
X-16084463Y17413361D01*
X-16090905Y17408418D01*
X-16090910Y17408415D01*
X-16193017Y17330065D01*
X-16193021Y17330062D01*
X-16199459Y17325121D01*
X-16204400Y17318683D01*
X-16204403Y17318679D01*
X-16282753Y17216572D01*
X-16282756Y17216567D01*
X-16287699Y17210125D01*
X-16290809Y17202617D01*
X-16290810Y17202615D01*
X-16340056Y17083724D01*
X-16340058Y17083719D01*
X-16343168Y17076209D01*
X-16344229Y17068152D01*
X-16344230Y17068147D01*
X-16361027Y16940559D01*
X-16362088Y16932500D01*
X-34668924Y16932500D01*
X-34506423Y17279079D01*
X-34504717Y17282571D01*
X-34224204Y17834000D01*
X-19247769Y17834000D01*
X-19228849Y17690291D01*
X-19173380Y17556375D01*
X-19168435Y17549931D01*
X-19168434Y17549929D01*
X-19140264Y17513218D01*
X-19085140Y17441379D01*
X-18970144Y17353139D01*
X-18836228Y17297670D01*
X-18692519Y17278750D01*
X-18548810Y17297670D01*
X-18414894Y17353139D01*
X-18299898Y17441379D01*
X-18211658Y17556375D01*
X-18156189Y17690291D01*
X-18137269Y17834000D01*
X-18156189Y17977709D01*
X-18211658Y18111625D01*
X-18299898Y18226621D01*
X-18414894Y18314861D01*
X-18450927Y18329786D01*
X-18541296Y18367218D01*
X-18541299Y18367219D01*
X-18548810Y18370330D01*
X-18556870Y18371392D01*
X-18556873Y18371392D01*
X-18684460Y18388189D01*
X-18692519Y18389250D01*
X-18700578Y18388189D01*
X-18828166Y18371392D01*
X-18828171Y18371391D01*
X-18836228Y18370330D01*
X-18843738Y18367220D01*
X-18843743Y18367218D01*
X-18962634Y18317972D01*
X-18962636Y18317971D01*
X-18970144Y18314861D01*
X-18976586Y18309918D01*
X-18976591Y18309915D01*
X-19078698Y18231565D01*
X-19078702Y18231562D01*
X-19085140Y18226621D01*
X-19090081Y18220183D01*
X-19090084Y18220179D01*
X-19168434Y18118072D01*
X-19168437Y18118067D01*
X-19173380Y18111625D01*
X-19176490Y18104117D01*
X-19176491Y18104115D01*
X-19225737Y17985224D01*
X-19225739Y17985219D01*
X-19228849Y17977709D01*
X-19229910Y17969652D01*
X-19229911Y17969647D01*
X-19246708Y17842059D01*
X-19247769Y17834000D01*
X-34224204Y17834000D01*
X-33946665Y18379583D01*
X-33944840Y18383031D01*
X-33653708Y18912500D01*
X-16442088Y18912500D01*
X-16441027Y18904441D01*
X-16425791Y18788709D01*
X-16423168Y18768791D01*
X-16420057Y18761280D01*
X-16420056Y18761277D01*
X-16397731Y18707379D01*
X-16367699Y18634875D01*
X-16362754Y18628431D01*
X-16362753Y18628429D01*
X-16284403Y18526322D01*
X-16279459Y18519879D01*
X-16164463Y18431639D01*
X-16030547Y18376170D01*
X-15886838Y18357250D01*
X-15743129Y18376170D01*
X-15609213Y18431639D01*
X-15494217Y18519879D01*
X-15405977Y18634875D01*
X-15401783Y18645000D01*
X-13177269Y18645000D01*
X-13176208Y18636941D01*
X-13160146Y18514936D01*
X-13158349Y18501291D01*
X-13155238Y18493780D01*
X-13155237Y18493777D01*
X-13117805Y18403408D01*
X-13102880Y18367375D01*
X-13097935Y18360931D01*
X-13097934Y18360929D01*
X-13058789Y18309915D01*
X-13014640Y18252379D01*
X-12899644Y18164139D01*
X-12765728Y18108670D01*
X-12622019Y18089750D01*
X-12478310Y18108670D01*
X-12344394Y18164139D01*
X-12229398Y18252379D01*
X-12141158Y18367375D01*
X-12085689Y18501291D01*
X-12066769Y18645000D01*
X-12085689Y18788709D01*
X-12141158Y18922625D01*
X-12229398Y19037621D01*
X-12284627Y19080000D01*
X-485250Y19080000D01*
X-484189Y19071941D01*
X-468964Y18956291D01*
X-466330Y18936291D01*
X-463219Y18928780D01*
X-463218Y18928777D01*
X-425786Y18838408D01*
X-410861Y18802375D01*
X-405916Y18795931D01*
X-405915Y18795929D01*
X-391278Y18776854D01*
X-322621Y18687379D01*
X-207625Y18599139D01*
X-73709Y18543670D01*
X70000Y18524750D01*
X213709Y18543670D01*
X347625Y18599139D01*
X462621Y18687379D01*
X550861Y18802375D01*
X606330Y18936291D01*
X625250Y19080000D01*
X622617Y19100000D01*
X6039125Y19100000D01*
X6040186Y19091941D01*
X6048185Y19031179D01*
X6058045Y18956291D01*
X6061156Y18948780D01*
X6061157Y18948777D01*
X6098589Y18858408D01*
X6113514Y18822375D01*
X6118459Y18815931D01*
X6118460Y18815929D01*
X6133580Y18796224D01*
X6201754Y18707379D01*
X6316750Y18619139D01*
X6450666Y18563670D01*
X6594375Y18544750D01*
X6738084Y18563670D01*
X6872000Y18619139D01*
X6986996Y18707379D01*
X7075236Y18822375D01*
X7130705Y18956291D01*
X7149625Y19100000D01*
X7130705Y19243709D01*
X7075236Y19377625D01*
X6986996Y19492621D01*
X6903221Y19556904D01*
X6878446Y19575915D01*
X6878444Y19575916D01*
X6872000Y19580861D01*
X6835967Y19595786D01*
X6745598Y19633218D01*
X6745595Y19633219D01*
X6738084Y19636330D01*
X6730024Y19637392D01*
X6730021Y19637392D01*
X6602434Y19654189D01*
X6594375Y19655250D01*
X6586316Y19654189D01*
X6458728Y19637392D01*
X6458723Y19637391D01*
X6450666Y19636330D01*
X6443156Y19633220D01*
X6443151Y19633218D01*
X6324260Y19583972D01*
X6324258Y19583971D01*
X6316750Y19580861D01*
X6310308Y19575918D01*
X6310303Y19575915D01*
X6208196Y19497565D01*
X6208192Y19497562D01*
X6201754Y19492621D01*
X6196813Y19486183D01*
X6196810Y19486179D01*
X6118460Y19384072D01*
X6118457Y19384067D01*
X6113514Y19377625D01*
X6110404Y19370117D01*
X6110403Y19370115D01*
X6061157Y19251224D01*
X6061155Y19251219D01*
X6058045Y19243709D01*
X6056984Y19235652D01*
X6056983Y19235647D01*
X6040186Y19108059D01*
X6039125Y19100000D01*
X622617Y19100000D01*
X606330Y19223709D01*
X550861Y19357625D01*
X462621Y19472621D01*
X347625Y19560861D01*
X291829Y19583972D01*
X221223Y19613218D01*
X221220Y19613219D01*
X213709Y19616330D01*
X205649Y19617392D01*
X205646Y19617392D01*
X78059Y19634189D01*
X70000Y19635250D01*
X61941Y19634189D01*
X-65647Y19617392D01*
X-65652Y19617391D01*
X-73709Y19616330D01*
X-81219Y19613220D01*
X-81224Y19613218D01*
X-200115Y19563972D01*
X-200117Y19563971D01*
X-207625Y19560861D01*
X-214067Y19555918D01*
X-214072Y19555915D01*
X-316179Y19477565D01*
X-316183Y19477562D01*
X-322621Y19472621D01*
X-327562Y19466183D01*
X-327565Y19466179D01*
X-405915Y19364072D01*
X-405918Y19364067D01*
X-410861Y19357625D01*
X-413971Y19350117D01*
X-413972Y19350115D01*
X-463218Y19231224D01*
X-463220Y19231219D01*
X-466330Y19223709D01*
X-467391Y19215652D01*
X-467392Y19215647D01*
X-478803Y19128972D01*
X-485250Y19080000D01*
X-12284627Y19080000D01*
X-12344394Y19125861D01*
X-12380427Y19140786D01*
X-12470796Y19178218D01*
X-12470799Y19178219D01*
X-12478310Y19181330D01*
X-12486370Y19182392D01*
X-12486373Y19182392D01*
X-12613960Y19199189D01*
X-12622019Y19200250D01*
X-12630078Y19199189D01*
X-12757666Y19182392D01*
X-12757671Y19182391D01*
X-12765728Y19181330D01*
X-12773238Y19178220D01*
X-12773243Y19178218D01*
X-12892134Y19128972D01*
X-12892136Y19128971D01*
X-12899644Y19125861D01*
X-12906086Y19120918D01*
X-12906091Y19120915D01*
X-13008198Y19042565D01*
X-13008202Y19042562D01*
X-13014640Y19037621D01*
X-13019581Y19031183D01*
X-13019584Y19031179D01*
X-13097934Y18929072D01*
X-13097937Y18929067D01*
X-13102880Y18922625D01*
X-13105990Y18915117D01*
X-13105991Y18915115D01*
X-13155237Y18796224D01*
X-13155239Y18796219D01*
X-13158349Y18788709D01*
X-13159410Y18780652D01*
X-13159411Y18780647D01*
X-13176208Y18653059D01*
X-13177269Y18645000D01*
X-15401783Y18645000D01*
X-15350508Y18768791D01*
X-15331588Y18912500D01*
X-15350508Y19056209D01*
X-15405977Y19190125D01*
X-15494217Y19305121D01*
X-15578918Y19370115D01*
X-15602767Y19388415D01*
X-15602769Y19388416D01*
X-15609213Y19393361D01*
X-15645246Y19408286D01*
X-15735615Y19445718D01*
X-15735618Y19445719D01*
X-15743129Y19448830D01*
X-15751189Y19449892D01*
X-15751192Y19449892D01*
X-15878779Y19466689D01*
X-15886838Y19467750D01*
X-15894897Y19466689D01*
X-16022485Y19449892D01*
X-16022490Y19449891D01*
X-16030547Y19448830D01*
X-16038057Y19445720D01*
X-16038062Y19445718D01*
X-16156953Y19396472D01*
X-16156955Y19396471D01*
X-16164463Y19393361D01*
X-16170905Y19388418D01*
X-16170910Y19388415D01*
X-16273017Y19310065D01*
X-16273021Y19310062D01*
X-16279459Y19305121D01*
X-16284400Y19298683D01*
X-16284403Y19298679D01*
X-16362753Y19196572D01*
X-16362756Y19196567D01*
X-16367699Y19190125D01*
X-16370809Y19182617D01*
X-16370810Y19182615D01*
X-16420056Y19063724D01*
X-16420058Y19063719D01*
X-16423168Y19056209D01*
X-16424229Y19048152D01*
X-16424230Y19048147D01*
X-16435261Y18964354D01*
X-16442088Y18912500D01*
X-33653708Y18912500D01*
X-33351850Y19461476D01*
X-33349914Y19464867D01*
X-32722550Y20523724D01*
X-32720503Y20527057D01*
X-32705893Y20550000D01*
X-15347769Y20550000D01*
X-15346708Y20541941D01*
X-15344752Y20527080D01*
X-15328849Y20406291D01*
X-15325738Y20398780D01*
X-15325737Y20398777D01*
X-15288305Y20308408D01*
X-15273380Y20272375D01*
X-15185140Y20157379D01*
X-15070144Y20069139D01*
X-14936228Y20013670D01*
X-14792519Y19994750D01*
X-14648810Y20013670D01*
X-14514894Y20069139D01*
X-14399898Y20157379D01*
X-14311658Y20272375D01*
X-14256189Y20406291D01*
X-14254055Y20422500D01*
X-9762750Y20422500D01*
X-9743830Y20278791D01*
X-9740719Y20271280D01*
X-9740718Y20271277D01*
X-9723120Y20228791D01*
X-9688361Y20144875D01*
X-9683416Y20138431D01*
X-9683415Y20138429D01*
X-9627860Y20066029D01*
X-9600121Y20029879D01*
X-9485125Y19941639D01*
X-9351209Y19886170D01*
X-9207500Y19867250D01*
X-9063791Y19886170D01*
X-8929875Y19941639D01*
X-8814879Y20029879D01*
X-8726639Y20144875D01*
X-8671170Y20278791D01*
X-8658833Y20372500D01*
X-6372750Y20372500D01*
X-6371689Y20364441D01*
X-6358720Y20265929D01*
X-6353830Y20228791D01*
X-6350719Y20221280D01*
X-6350718Y20221277D01*
X-6319071Y20144875D01*
X-6298361Y20094875D01*
X-6293416Y20088431D01*
X-6293415Y20088429D01*
X-6248488Y20029879D01*
X-6210121Y19979879D01*
X-6095125Y19891639D01*
X-5961209Y19836170D01*
X-5817500Y19817250D01*
X-5673791Y19836170D01*
X-5539875Y19891639D01*
X-5424879Y19979879D01*
X-5336639Y20094875D01*
X-5281170Y20228791D01*
X-5262250Y20372500D01*
X-5281170Y20516209D01*
X-5336639Y20650125D01*
X-5424879Y20765121D01*
X-5431322Y20770065D01*
X-5533429Y20848415D01*
X-5533431Y20848416D01*
X-5539875Y20853361D01*
X-5575908Y20868286D01*
X-5666277Y20905718D01*
X-5666280Y20905719D01*
X-5673791Y20908830D01*
X-5681851Y20909892D01*
X-5681854Y20909892D01*
X-5809441Y20926689D01*
X-5817500Y20927750D01*
X-5825559Y20926689D01*
X-5953147Y20909892D01*
X-5953152Y20909891D01*
X-5961209Y20908830D01*
X-5968719Y20905720D01*
X-5968724Y20905718D01*
X-6087615Y20856472D01*
X-6087617Y20856471D01*
X-6095125Y20853361D01*
X-6101567Y20848418D01*
X-6101572Y20848415D01*
X-6203679Y20770065D01*
X-6203683Y20770062D01*
X-6210121Y20765121D01*
X-6215062Y20758683D01*
X-6215065Y20758679D01*
X-6293415Y20656572D01*
X-6293418Y20656567D01*
X-6298361Y20650125D01*
X-6301471Y20642617D01*
X-6301472Y20642615D01*
X-6350718Y20523724D01*
X-6350720Y20523719D01*
X-6353830Y20516209D01*
X-6354891Y20508152D01*
X-6354892Y20508147D01*
X-6365106Y20430559D01*
X-6372750Y20372500D01*
X-8658833Y20372500D01*
X-8652250Y20422500D01*
X-8671170Y20566209D01*
X-8726639Y20700125D01*
X-8814879Y20815121D01*
X-8929875Y20903361D01*
X-8965908Y20918286D01*
X-9056277Y20955718D01*
X-9056280Y20955719D01*
X-9063791Y20958830D01*
X-9071851Y20959892D01*
X-9071854Y20959892D01*
X-9199441Y20976689D01*
X-9207500Y20977750D01*
X-9215559Y20976689D01*
X-9343147Y20959892D01*
X-9343152Y20959891D01*
X-9351209Y20958830D01*
X-9358719Y20955720D01*
X-9358724Y20955718D01*
X-9477615Y20906472D01*
X-9477617Y20906471D01*
X-9485125Y20903361D01*
X-9491567Y20898418D01*
X-9491572Y20898415D01*
X-9593679Y20820065D01*
X-9593683Y20820062D01*
X-9600121Y20815121D01*
X-9605062Y20808683D01*
X-9605065Y20808679D01*
X-9683415Y20706572D01*
X-9683418Y20706567D01*
X-9688361Y20700125D01*
X-9691471Y20692617D01*
X-9691472Y20692615D01*
X-9740718Y20573724D01*
X-9740720Y20573719D01*
X-9743830Y20566209D01*
X-9744891Y20558152D01*
X-9744892Y20558147D01*
X-9761689Y20430559D01*
X-9762750Y20422500D01*
X-14254055Y20422500D01*
X-14237269Y20550000D01*
X-14256189Y20693709D01*
X-14311658Y20827625D01*
X-14399898Y20942621D01*
X-14514894Y21030861D01*
X-14550927Y21045786D01*
X-14641296Y21083218D01*
X-14641299Y21083219D01*
X-14648810Y21086330D01*
X-14656870Y21087392D01*
X-14656873Y21087392D01*
X-14784460Y21104189D01*
X-14792519Y21105250D01*
X-14800578Y21104189D01*
X-14928166Y21087392D01*
X-14928171Y21087391D01*
X-14936228Y21086330D01*
X-14943738Y21083220D01*
X-14943743Y21083218D01*
X-15062634Y21033972D01*
X-15062636Y21033971D01*
X-15070144Y21030861D01*
X-15076586Y21025918D01*
X-15076591Y21025915D01*
X-15178698Y20947565D01*
X-15178702Y20947562D01*
X-15185140Y20942621D01*
X-15190081Y20936183D01*
X-15190084Y20936179D01*
X-15268434Y20834072D01*
X-15268437Y20834067D01*
X-15273380Y20827625D01*
X-15276490Y20820117D01*
X-15276491Y20820115D01*
X-15325737Y20701224D01*
X-15325739Y20701219D01*
X-15328849Y20693709D01*
X-15329910Y20685652D01*
X-15329911Y20685647D01*
X-15334587Y20650125D01*
X-15347769Y20550000D01*
X-32705893Y20550000D01*
X-32059436Y21565191D01*
X-32057275Y21568467D01*
X-31695984Y22097500D01*
X-21210250Y22097500D01*
X-21209189Y22089441D01*
X-21192516Y21962795D01*
X-21191330Y21953791D01*
X-21188219Y21946280D01*
X-21188218Y21946277D01*
X-21173372Y21910436D01*
X-21135861Y21819875D01*
X-21047621Y21704879D01*
X-20932625Y21616639D01*
X-20798709Y21561170D01*
X-20655000Y21542250D01*
X-20511291Y21561170D01*
X-20377375Y21616639D01*
X-20262379Y21704879D01*
X-20174139Y21819875D01*
X-20121690Y21946500D01*
X-17517769Y21946500D01*
X-17516708Y21938441D01*
X-17501099Y21819875D01*
X-17498849Y21802791D01*
X-17443380Y21668875D01*
X-17355140Y21553879D01*
X-17240144Y21465639D01*
X-17106228Y21410170D01*
X-16962519Y21391250D01*
X-16818810Y21410170D01*
X-16684894Y21465639D01*
X-16569898Y21553879D01*
X-16481658Y21668875D01*
X-16426189Y21802791D01*
X-16407269Y21946500D01*
X-16426189Y22090209D01*
X-16481658Y22224125D01*
X-16569898Y22339121D01*
X-16616819Y22375125D01*
X-16678448Y22422415D01*
X-16678450Y22422416D01*
X-16684894Y22427361D01*
X-16720927Y22442286D01*
X-16731743Y22446766D01*
X4877984Y22446766D01*
X4879045Y22438707D01*
X4888404Y22367615D01*
X4896904Y22303057D01*
X4952373Y22169141D01*
X5040613Y22054145D01*
X5155609Y21965905D01*
X5289525Y21910436D01*
X5433234Y21891516D01*
X5576943Y21910436D01*
X5710859Y21965905D01*
X5825855Y22054145D01*
X5914095Y22169141D01*
X5969564Y22303057D01*
X5988484Y22446766D01*
X5969564Y22590475D01*
X5914095Y22724391D01*
X5825855Y22839387D01*
X5754114Y22894436D01*
X5731898Y22911483D01*
X21506233Y22911483D01*
X21507294Y22903424D01*
X21519443Y22811139D01*
X21525153Y22767774D01*
X21528264Y22760263D01*
X21528265Y22760260D01*
X21546233Y22716881D01*
X21580622Y22633858D01*
X21585567Y22627414D01*
X21585568Y22627412D01*
X21627002Y22573415D01*
X21668862Y22518862D01*
X21783858Y22430622D01*
X21917774Y22375153D01*
X22061483Y22356233D01*
X22205192Y22375153D01*
X22339108Y22430622D01*
X22454104Y22518862D01*
X22542344Y22633858D01*
X22597813Y22767774D01*
X22616733Y22911483D01*
X22597813Y23055192D01*
X22542344Y23189108D01*
X22454104Y23304104D01*
X22447661Y23309048D01*
X22345554Y23387398D01*
X22345552Y23387399D01*
X22339108Y23392344D01*
X22253878Y23427647D01*
X22212706Y23444701D01*
X22212703Y23444702D01*
X22205192Y23447813D01*
X22197132Y23448875D01*
X22197129Y23448875D01*
X22069542Y23465672D01*
X22061483Y23466733D01*
X22053424Y23465672D01*
X21925836Y23448875D01*
X21925831Y23448874D01*
X21917774Y23447813D01*
X21910264Y23444703D01*
X21910259Y23444701D01*
X21791368Y23395455D01*
X21791366Y23395454D01*
X21783858Y23392344D01*
X21777416Y23387401D01*
X21777411Y23387398D01*
X21675304Y23309048D01*
X21675300Y23309045D01*
X21668862Y23304104D01*
X21663921Y23297666D01*
X21663918Y23297662D01*
X21585568Y23195555D01*
X21585565Y23195550D01*
X21580622Y23189108D01*
X21577512Y23181600D01*
X21577511Y23181598D01*
X21528265Y23062707D01*
X21528263Y23062702D01*
X21525153Y23055192D01*
X21524092Y23047135D01*
X21524091Y23047130D01*
X21518152Y23002016D01*
X21506233Y22911483D01*
X5731898Y22911483D01*
X5717305Y22922681D01*
X5717303Y22922682D01*
X5710859Y22927627D01*
X5674826Y22942552D01*
X5584457Y22979984D01*
X5584454Y22979985D01*
X5576943Y22983096D01*
X5568883Y22984158D01*
X5568880Y22984158D01*
X5441293Y23000955D01*
X5433234Y23002016D01*
X5425175Y23000955D01*
X5297587Y22984158D01*
X5297582Y22984157D01*
X5289525Y22983096D01*
X5282015Y22979986D01*
X5282010Y22979984D01*
X5163119Y22930738D01*
X5163117Y22930737D01*
X5155609Y22927627D01*
X5149167Y22922684D01*
X5149162Y22922681D01*
X5047055Y22844331D01*
X5047051Y22844328D01*
X5040613Y22839387D01*
X5035672Y22832949D01*
X5035669Y22832945D01*
X4957319Y22730838D01*
X4957316Y22730833D01*
X4952373Y22724391D01*
X4949263Y22716883D01*
X4949262Y22716881D01*
X4900016Y22597990D01*
X4900014Y22597985D01*
X4896904Y22590475D01*
X4895843Y22582418D01*
X4895842Y22582413D01*
X4886825Y22513919D01*
X4877984Y22446766D01*
X-16731743Y22446766D01*
X-16811296Y22479718D01*
X-16811299Y22479719D01*
X-16818810Y22482830D01*
X-16826870Y22483892D01*
X-16826873Y22483892D01*
X-16954460Y22500689D01*
X-16962519Y22501750D01*
X-16970578Y22500689D01*
X-17098166Y22483892D01*
X-17098171Y22483891D01*
X-17106228Y22482830D01*
X-17113738Y22479720D01*
X-17113743Y22479718D01*
X-17232634Y22430472D01*
X-17232636Y22430471D01*
X-17240144Y22427361D01*
X-17246586Y22422418D01*
X-17246591Y22422415D01*
X-17348698Y22344065D01*
X-17348702Y22344062D01*
X-17355140Y22339121D01*
X-17360081Y22332683D01*
X-17360084Y22332679D01*
X-17438434Y22230572D01*
X-17438437Y22230567D01*
X-17443380Y22224125D01*
X-17446490Y22216617D01*
X-17446491Y22216615D01*
X-17495737Y22097724D01*
X-17495739Y22097719D01*
X-17498849Y22090209D01*
X-17499910Y22082152D01*
X-17499911Y22082147D01*
X-17502749Y22060588D01*
X-17517769Y21946500D01*
X-20121690Y21946500D01*
X-20118670Y21953791D01*
X-20099750Y22097500D01*
X-20118670Y22241209D01*
X-20174139Y22375125D01*
X-20262379Y22490121D01*
X-20377375Y22578361D01*
X-20495796Y22627412D01*
X-20503777Y22630718D01*
X-20503780Y22630719D01*
X-20511291Y22633830D01*
X-20519351Y22634892D01*
X-20519354Y22634892D01*
X-20646941Y22651689D01*
X-20655000Y22652750D01*
X-20663059Y22651689D01*
X-20790647Y22634892D01*
X-20790652Y22634891D01*
X-20798709Y22633830D01*
X-20806219Y22630720D01*
X-20806224Y22630718D01*
X-20925115Y22581472D01*
X-20925117Y22581471D01*
X-20932625Y22578361D01*
X-20939067Y22573418D01*
X-20939072Y22573415D01*
X-21041179Y22495065D01*
X-21041183Y22495062D01*
X-21047621Y22490121D01*
X-21052562Y22483683D01*
X-21052565Y22483679D01*
X-21130915Y22381572D01*
X-21130918Y22381567D01*
X-21135861Y22375125D01*
X-21138971Y22367617D01*
X-21138972Y22367615D01*
X-21188218Y22248724D01*
X-21188220Y22248719D01*
X-21191330Y22241209D01*
X-21192391Y22233152D01*
X-21192392Y22233147D01*
X-21200818Y22169141D01*
X-21210250Y22097500D01*
X-31695984Y22097500D01*
X-31363189Y22584806D01*
X-31360974Y22587943D01*
X-30846207Y23292000D01*
X-24101250Y23292000D01*
X-24100189Y23283941D01*
X-24094748Y23242609D01*
X-24082330Y23148291D01*
X-24079219Y23140780D01*
X-24079218Y23140777D01*
X-24043768Y23055192D01*
X-24026861Y23014375D01*
X-24021916Y23007931D01*
X-24021915Y23007929D01*
X-24003675Y22984158D01*
X-23938621Y22899379D01*
X-23823625Y22811139D01*
X-23689709Y22755670D01*
X-23546000Y22736750D01*
X-23402291Y22755670D01*
X-23268375Y22811139D01*
X-23153379Y22899379D01*
X-23065139Y23014375D01*
X-23009670Y23148291D01*
X-22990750Y23292000D01*
X-23009670Y23435709D01*
X-23065139Y23569625D01*
X-23153379Y23684621D01*
X-23242166Y23752750D01*
X-23261929Y23767915D01*
X-23261931Y23767916D01*
X-23268375Y23772861D01*
X-23348209Y23805929D01*
X-23394777Y23825218D01*
X-23394780Y23825219D01*
X-23402291Y23828330D01*
X-23410351Y23829392D01*
X-23410354Y23829392D01*
X-23537941Y23846189D01*
X-23546000Y23847250D01*
X-23554059Y23846189D01*
X-23681647Y23829392D01*
X-23681652Y23829391D01*
X-23689709Y23828330D01*
X-23697219Y23825220D01*
X-23697224Y23825218D01*
X-23816115Y23775972D01*
X-23816117Y23775971D01*
X-23823625Y23772861D01*
X-23830067Y23767918D01*
X-23830072Y23767915D01*
X-23932179Y23689565D01*
X-23932183Y23689562D01*
X-23938621Y23684621D01*
X-23943562Y23678183D01*
X-23943565Y23678179D01*
X-24021915Y23576072D01*
X-24021918Y23576067D01*
X-24026861Y23569625D01*
X-24029971Y23562117D01*
X-24029972Y23562115D01*
X-24079218Y23443224D01*
X-24079220Y23443219D01*
X-24082330Y23435709D01*
X-24083391Y23427652D01*
X-24083392Y23427647D01*
X-24088693Y23387379D01*
X-24101250Y23292000D01*
X-30846207Y23292000D01*
X-30634517Y23581532D01*
X-30632180Y23584622D01*
X-30237135Y24090000D01*
X-18925250Y24090000D01*
X-18924189Y24081941D01*
X-18916552Y24023929D01*
X-18906330Y23946291D01*
X-18903219Y23938780D01*
X-18903218Y23938777D01*
X-18896195Y23921822D01*
X-18850861Y23812375D01*
X-18845916Y23805931D01*
X-18845915Y23805929D01*
X-18790106Y23733198D01*
X-18762621Y23697379D01*
X-18647625Y23609139D01*
X-18513709Y23553670D01*
X-18370000Y23534750D01*
X-18226291Y23553670D01*
X-18092375Y23609139D01*
X-17977379Y23697379D01*
X-17889139Y23812375D01*
X-17833670Y23946291D01*
X-17814750Y24090000D01*
X-17831492Y24217169D01*
X-12550581Y24217169D01*
X-12549520Y24209110D01*
X-12543620Y24164291D01*
X-12531661Y24073460D01*
X-12528550Y24065949D01*
X-12528549Y24065946D01*
X-12516926Y24037886D01*
X-12476192Y23939544D01*
X-12471247Y23933100D01*
X-12471246Y23933098D01*
X-12453857Y23910436D01*
X-12387952Y23824548D01*
X-12272956Y23736308D01*
X-12139040Y23680839D01*
X-11995331Y23661919D01*
X-11851622Y23680839D01*
X-11717706Y23736308D01*
X-11660766Y23780000D01*
X12469750Y23780000D01*
X12470811Y23771941D01*
X12482944Y23679778D01*
X12488670Y23636291D01*
X12491781Y23628780D01*
X12491782Y23628777D01*
X12519394Y23562115D01*
X12544139Y23502375D01*
X12632379Y23387379D01*
X12747375Y23299139D01*
X12881291Y23243670D01*
X13025000Y23224750D01*
X13168709Y23243670D01*
X13302625Y23299139D01*
X13417621Y23387379D01*
X13505861Y23502375D01*
X13561330Y23636291D01*
X13580250Y23780000D01*
X13561330Y23923709D01*
X13505861Y24057625D01*
X13417621Y24172621D01*
X13338010Y24233709D01*
X13309071Y24255915D01*
X13309069Y24255916D01*
X13302625Y24260861D01*
X13266592Y24275786D01*
X13188820Y24308000D01*
X23396750Y24308000D01*
X23397811Y24299941D01*
X23402546Y24263972D01*
X23415670Y24164291D01*
X23471139Y24030375D01*
X23559379Y23915379D01*
X23674375Y23827139D01*
X23808291Y23771670D01*
X23952000Y23752750D01*
X24095709Y23771670D01*
X24229625Y23827139D01*
X24344621Y23915379D01*
X24432861Y24030375D01*
X24488330Y24164291D01*
X24507250Y24308000D01*
X24488330Y24451709D01*
X24432861Y24585625D01*
X24344621Y24700621D01*
X24279765Y24750387D01*
X24236071Y24783915D01*
X24236069Y24783916D01*
X24229625Y24788861D01*
X24193592Y24803786D01*
X24103223Y24841218D01*
X24103220Y24841219D01*
X24095709Y24844330D01*
X24087649Y24845392D01*
X24087646Y24845392D01*
X23960059Y24862189D01*
X23952000Y24863250D01*
X23943941Y24862189D01*
X23816353Y24845392D01*
X23816348Y24845391D01*
X23808291Y24844330D01*
X23800781Y24841220D01*
X23800776Y24841218D01*
X23681885Y24791972D01*
X23681883Y24791971D01*
X23674375Y24788861D01*
X23667933Y24783918D01*
X23667928Y24783915D01*
X23565821Y24705565D01*
X23565817Y24705562D01*
X23559379Y24700621D01*
X23554438Y24694183D01*
X23554435Y24694179D01*
X23476085Y24592072D01*
X23476082Y24592067D01*
X23471139Y24585625D01*
X23468029Y24578117D01*
X23468028Y24578115D01*
X23418782Y24459224D01*
X23418780Y24459219D01*
X23415670Y24451709D01*
X23414609Y24443652D01*
X23414608Y24443647D01*
X23397847Y24316330D01*
X23396750Y24308000D01*
X13188820Y24308000D01*
X13176223Y24313218D01*
X13176220Y24313219D01*
X13168709Y24316330D01*
X13160649Y24317392D01*
X13160646Y24317392D01*
X13033059Y24334189D01*
X13025000Y24335250D01*
X13016941Y24334189D01*
X12889353Y24317392D01*
X12889348Y24317391D01*
X12881291Y24316330D01*
X12873781Y24313220D01*
X12873776Y24313218D01*
X12754885Y24263972D01*
X12754883Y24263971D01*
X12747375Y24260861D01*
X12740933Y24255918D01*
X12740928Y24255915D01*
X12638821Y24177565D01*
X12638817Y24177562D01*
X12632379Y24172621D01*
X12627438Y24166183D01*
X12627435Y24166179D01*
X12549085Y24064072D01*
X12549082Y24064067D01*
X12544139Y24057625D01*
X12541029Y24050117D01*
X12541028Y24050115D01*
X12491782Y23931224D01*
X12491780Y23931219D01*
X12488670Y23923709D01*
X12487609Y23915652D01*
X12487608Y23915647D01*
X12475001Y23819886D01*
X12469750Y23780000D01*
X-11660766Y23780000D01*
X-11602710Y23824548D01*
X-11514470Y23939544D01*
X-11459001Y24073460D01*
X-11440081Y24217169D01*
X-11459001Y24360878D01*
X-11514470Y24494794D01*
X-11602710Y24609790D01*
X-11609153Y24614734D01*
X-11711260Y24693084D01*
X-11711262Y24693085D01*
X-11717706Y24698030D01*
X-11753739Y24712955D01*
X-11844108Y24750387D01*
X-11844111Y24750388D01*
X-11851622Y24753499D01*
X-11859682Y24754561D01*
X-11859685Y24754561D01*
X-11987272Y24771358D01*
X-11995331Y24772419D01*
X-12003390Y24771358D01*
X-12130978Y24754561D01*
X-12130983Y24754560D01*
X-12139040Y24753499D01*
X-12146550Y24750389D01*
X-12146555Y24750387D01*
X-12265446Y24701141D01*
X-12265448Y24701140D01*
X-12272956Y24698030D01*
X-12279398Y24693087D01*
X-12279403Y24693084D01*
X-12381510Y24614734D01*
X-12381514Y24614731D01*
X-12387952Y24609790D01*
X-12392893Y24603352D01*
X-12392896Y24603348D01*
X-12471246Y24501241D01*
X-12471249Y24501236D01*
X-12476192Y24494794D01*
X-12479302Y24487286D01*
X-12479303Y24487284D01*
X-12528549Y24368393D01*
X-12528551Y24368388D01*
X-12531661Y24360878D01*
X-12532722Y24352821D01*
X-12532723Y24352816D01*
X-12537526Y24316330D01*
X-12550581Y24217169D01*
X-17831492Y24217169D01*
X-17833670Y24233709D01*
X-17889139Y24367625D01*
X-17977379Y24482621D01*
X-18092375Y24570861D01*
X-18143584Y24592072D01*
X-18218777Y24623218D01*
X-18218780Y24623219D01*
X-18226291Y24626330D01*
X-18234351Y24627392D01*
X-18234354Y24627392D01*
X-18361941Y24644189D01*
X-18370000Y24645250D01*
X-18378059Y24644189D01*
X-18505647Y24627392D01*
X-18505652Y24627391D01*
X-18513709Y24626330D01*
X-18521219Y24623220D01*
X-18521224Y24623218D01*
X-18640115Y24573972D01*
X-18640117Y24573971D01*
X-18647625Y24570861D01*
X-18654067Y24565918D01*
X-18654072Y24565915D01*
X-18756179Y24487565D01*
X-18756183Y24487562D01*
X-18762621Y24482621D01*
X-18767562Y24476183D01*
X-18767565Y24476179D01*
X-18845915Y24374072D01*
X-18845918Y24374067D01*
X-18850861Y24367625D01*
X-18853971Y24360117D01*
X-18853972Y24360115D01*
X-18903218Y24241224D01*
X-18903220Y24241219D01*
X-18906330Y24233709D01*
X-18907391Y24225652D01*
X-18907392Y24225647D01*
X-18924189Y24098059D01*
X-18925250Y24090000D01*
X-30237135Y24090000D01*
X-29874208Y24554290D01*
X-29871770Y24557309D01*
X-29083011Y25502128D01*
X-29080443Y25505104D01*
X-28586084Y26060000D01*
X-21195250Y26060000D01*
X-21176330Y25916291D01*
X-21120861Y25782375D01*
X-21032621Y25667379D01*
X-20917625Y25579139D01*
X-20783709Y25523670D01*
X-20640000Y25504750D01*
X-20496291Y25523670D01*
X-20362375Y25579139D01*
X-20247379Y25667379D01*
X-20159139Y25782375D01*
X-20103670Y25916291D01*
X-20084750Y26060000D01*
X-20103670Y26203709D01*
X-20159139Y26337625D01*
X-20247379Y26452621D01*
X-20276218Y26474750D01*
X-20355929Y26535915D01*
X-20355931Y26535916D01*
X-20362375Y26540861D01*
X-20398408Y26555786D01*
X-20488777Y26593218D01*
X-20488780Y26593219D01*
X-20496291Y26596330D01*
X-20504351Y26597392D01*
X-20504354Y26597392D01*
X-20631941Y26614189D01*
X-20640000Y26615250D01*
X-20648059Y26614189D01*
X-20775647Y26597392D01*
X-20775652Y26597391D01*
X-20783709Y26596330D01*
X-20791219Y26593220D01*
X-20791224Y26593218D01*
X-20910115Y26543972D01*
X-20910117Y26543971D01*
X-20917625Y26540861D01*
X-20924067Y26535918D01*
X-20924072Y26535915D01*
X-21026179Y26457565D01*
X-21026183Y26457562D01*
X-21032621Y26452621D01*
X-21037562Y26446183D01*
X-21037565Y26446179D01*
X-21115915Y26344072D01*
X-21115918Y26344067D01*
X-21120861Y26337625D01*
X-21123971Y26330117D01*
X-21123972Y26330115D01*
X-21173218Y26211224D01*
X-21173220Y26211219D01*
X-21176330Y26203709D01*
X-21177391Y26195652D01*
X-21177392Y26195647D01*
X-21194189Y26068059D01*
X-21195250Y26060000D01*
X-28586084Y26060000D01*
X-28261783Y26424014D01*
X-28259131Y26426897D01*
X-27686010Y27030000D01*
X-17765250Y27030000D01*
X-17746330Y26886291D01*
X-17690861Y26752375D01*
X-17602621Y26637379D01*
X-17487625Y26549139D01*
X-17353709Y26493670D01*
X-17210000Y26474750D01*
X-17066291Y26493670D01*
X-16932375Y26549139D01*
X-16817379Y26637379D01*
X-16729139Y26752375D01*
X-16673670Y26886291D01*
X-16654750Y27030000D01*
X-16673670Y27173709D01*
X-16729139Y27307625D01*
X-16817379Y27422621D01*
X-16886697Y27475811D01*
X-16925929Y27505915D01*
X-16925931Y27505916D01*
X-16932375Y27510861D01*
X-17017279Y27546029D01*
X-17058777Y27563218D01*
X-17058780Y27563219D01*
X-17066291Y27566330D01*
X-17074351Y27567392D01*
X-17074354Y27567392D01*
X-17201941Y27584189D01*
X-17210000Y27585250D01*
X-17218059Y27584189D01*
X-17345647Y27567392D01*
X-17345652Y27567391D01*
X-17353709Y27566330D01*
X-17361219Y27563220D01*
X-17361224Y27563218D01*
X-17480115Y27513972D01*
X-17480117Y27513971D01*
X-17487625Y27510861D01*
X-17494067Y27505918D01*
X-17494072Y27505915D01*
X-17596179Y27427565D01*
X-17596183Y27427562D01*
X-17602621Y27422621D01*
X-17607562Y27416183D01*
X-17607565Y27416179D01*
X-17685915Y27314072D01*
X-17685918Y27314067D01*
X-17690861Y27307625D01*
X-17693971Y27300117D01*
X-17693972Y27300115D01*
X-17743218Y27181224D01*
X-17743220Y27181219D01*
X-17746330Y27173709D01*
X-17747391Y27165652D01*
X-17747392Y27165647D01*
X-17764189Y27038059D01*
X-17765250Y27030000D01*
X-27686010Y27030000D01*
X-27411312Y27319068D01*
X-27408569Y27321863D01*
X-26690931Y28030000D01*
X-3005250Y28030000D01*
X-2986330Y27886291D01*
X-2930861Y27752375D01*
X-2842621Y27637379D01*
X-2727625Y27549139D01*
X-2593709Y27493670D01*
X-2450000Y27474750D01*
X-2306291Y27493670D01*
X-2172375Y27549139D01*
X-2057379Y27637379D01*
X-1969139Y27752375D01*
X-1913670Y27886291D01*
X-1894750Y28030000D01*
X-1913670Y28173709D01*
X-1969139Y28307625D01*
X-2057379Y28422621D01*
X-2126697Y28475811D01*
X-2165929Y28505915D01*
X-2165931Y28505916D01*
X-2172375Y28510861D01*
X-2257279Y28546029D01*
X-2298777Y28563218D01*
X-2298780Y28563219D01*
X-2306291Y28566330D01*
X-2314351Y28567392D01*
X-2314354Y28567392D01*
X-2441941Y28584189D01*
X-2450000Y28585250D01*
X-2458059Y28584189D01*
X-2585647Y28567392D01*
X-2585652Y28567391D01*
X-2593709Y28566330D01*
X-2601219Y28563220D01*
X-2601224Y28563218D01*
X-2720115Y28513972D01*
X-2720117Y28513971D01*
X-2727625Y28510861D01*
X-2734067Y28505918D01*
X-2734072Y28505915D01*
X-2836179Y28427565D01*
X-2836183Y28427562D01*
X-2842621Y28422621D01*
X-2847562Y28416183D01*
X-2847565Y28416179D01*
X-2925915Y28314072D01*
X-2925918Y28314067D01*
X-2930861Y28307625D01*
X-2933971Y28300117D01*
X-2933972Y28300115D01*
X-2983218Y28181224D01*
X-2983220Y28181219D01*
X-2986330Y28173709D01*
X-2987391Y28165652D01*
X-2987392Y28165647D01*
X-3004189Y28038059D01*
X-3005250Y28030000D01*
X-26690931Y28030000D01*
X-26532494Y28186339D01*
X-26529700Y28189008D01*
X-25626305Y29024866D01*
X-25623421Y29027449D01*
X-25620480Y29030000D01*
X-5275250Y29030000D01*
X-5256330Y28886291D01*
X-5253219Y28878780D01*
X-5253218Y28878777D01*
X-5237127Y28839929D01*
X-5200861Y28752375D01*
X-5112621Y28637379D01*
X-4997625Y28549139D01*
X-4863709Y28493670D01*
X-4720000Y28474750D01*
X-4576291Y28493670D01*
X-4442375Y28549139D01*
X-4327379Y28637379D01*
X-4239139Y28752375D01*
X-4183670Y28886291D01*
X-4164750Y29030000D01*
X-4183670Y29173709D01*
X-4239139Y29307625D01*
X-4327379Y29422621D01*
X-4442375Y29510861D01*
X-4478408Y29525786D01*
X-4568777Y29563218D01*
X-4568780Y29563219D01*
X-4576291Y29566330D01*
X-4584351Y29567392D01*
X-4584354Y29567392D01*
X-4711941Y29584189D01*
X-4720000Y29585250D01*
X-4728059Y29584189D01*
X-4855647Y29567392D01*
X-4855652Y29567391D01*
X-4863709Y29566330D01*
X-4871219Y29563220D01*
X-4871224Y29563218D01*
X-4990115Y29513972D01*
X-4990117Y29513971D01*
X-4997625Y29510861D01*
X-5004067Y29505918D01*
X-5004072Y29505915D01*
X-5106179Y29427565D01*
X-5106183Y29427562D01*
X-5112621Y29422621D01*
X-5117562Y29416183D01*
X-5117565Y29416179D01*
X-5195915Y29314072D01*
X-5195918Y29314067D01*
X-5200861Y29307625D01*
X-5203971Y29300117D01*
X-5203972Y29300115D01*
X-5253218Y29181224D01*
X-5253220Y29181219D01*
X-5256330Y29173709D01*
X-5257391Y29165652D01*
X-5257392Y29165647D01*
X-5267244Y29090811D01*
X-5275250Y29030000D01*
X-25620480Y29030000D01*
X-24911363Y29645000D01*
X-150250Y29645000D01*
X-149189Y29636941D01*
X-132501Y29510179D01*
X-131330Y29501291D01*
X-75861Y29367375D01*
X12379Y29252379D01*
X127375Y29164139D01*
X261291Y29108670D01*
X405000Y29089750D01*
X548709Y29108670D01*
X585719Y29124000D01*
X2578750Y29124000D01*
X2579811Y29115941D01*
X2592186Y29021941D01*
X2597670Y28980291D01*
X2653139Y28846375D01*
X2741379Y28731379D01*
X2856375Y28643139D01*
X2990291Y28587670D01*
X3134000Y28568750D01*
X3277709Y28587670D01*
X3411625Y28643139D01*
X3526621Y28731379D01*
X3614861Y28846375D01*
X3670330Y28980291D01*
X3689250Y29124000D01*
X3670330Y29267709D01*
X3614861Y29401625D01*
X3526621Y29516621D01*
X3465895Y29563218D01*
X3418071Y29599915D01*
X3418069Y29599916D01*
X3411625Y29604861D01*
X3334176Y29636941D01*
X3285223Y29657218D01*
X3285220Y29657219D01*
X3277709Y29660330D01*
X3269649Y29661392D01*
X3269646Y29661392D01*
X3142059Y29678189D01*
X3134000Y29679250D01*
X3125941Y29678189D01*
X2998353Y29661392D01*
X2998348Y29661391D01*
X2990291Y29660330D01*
X2982781Y29657220D01*
X2982776Y29657218D01*
X2863885Y29607972D01*
X2863883Y29607971D01*
X2856375Y29604861D01*
X2849933Y29599918D01*
X2849928Y29599915D01*
X2747821Y29521565D01*
X2747817Y29521562D01*
X2741379Y29516621D01*
X2736438Y29510183D01*
X2736435Y29510179D01*
X2658085Y29408072D01*
X2658082Y29408067D01*
X2653139Y29401625D01*
X2650029Y29394117D01*
X2650028Y29394115D01*
X2600782Y29275224D01*
X2600780Y29275219D01*
X2597670Y29267709D01*
X2596609Y29259652D01*
X2596608Y29259647D01*
X2586284Y29181224D01*
X2578750Y29124000D01*
X585719Y29124000D01*
X682625Y29164139D01*
X797621Y29252379D01*
X885861Y29367375D01*
X941330Y29501291D01*
X960250Y29645000D01*
X941330Y29788709D01*
X885861Y29922625D01*
X797621Y30037621D01*
X791170Y30042571D01*
X689071Y30120915D01*
X689069Y30120916D01*
X682625Y30125861D01*
X646592Y30140786D01*
X556223Y30178218D01*
X556220Y30178219D01*
X548709Y30181330D01*
X540649Y30182392D01*
X540646Y30182392D01*
X413059Y30199189D01*
X405000Y30200250D01*
X396941Y30199189D01*
X269353Y30182392D01*
X269348Y30182391D01*
X261291Y30181330D01*
X253781Y30178220D01*
X253776Y30178218D01*
X127375Y30125861D01*
X126276Y30128512D01*
X82075Y30116202D01*
X67386Y30119641D01*
X63519Y30096154D01*
X25496Y30047688D01*
X18827Y30042571D01*
X18817Y30042562D01*
X12379Y30037621D01*
X7438Y30031183D01*
X7435Y30031179D01*
X-70915Y29929072D01*
X-70918Y29929067D01*
X-75861Y29922625D01*
X-78971Y29915117D01*
X-78972Y29915115D01*
X-128218Y29796224D01*
X-128220Y29796219D01*
X-131330Y29788709D01*
X-132391Y29780652D01*
X-132392Y29780647D01*
X-145741Y29679250D01*
X-150250Y29645000D01*
X-24911363Y29645000D01*
X-24693616Y29833847D01*
X-24690633Y29836351D01*
X-23735385Y30612450D01*
X-23732369Y30614821D01*
X-23212692Y31010000D01*
X-11285250Y31010000D01*
X-11284189Y31001941D01*
X-11267725Y30876881D01*
X-11266330Y30866291D01*
X-11263219Y30858780D01*
X-11263218Y30858777D01*
X-11252392Y30832640D01*
X-11210861Y30732375D01*
X-11205916Y30725931D01*
X-11205915Y30725929D01*
X-11127565Y30623822D01*
X-11122621Y30617379D01*
X-11007625Y30529139D01*
X-10873709Y30473670D01*
X-10730000Y30454750D01*
X-10586291Y30473670D01*
X-10452375Y30529139D01*
X-10337379Y30617379D01*
X-10249139Y30732375D01*
X-10193670Y30866291D01*
X-10174750Y31010000D01*
X-10193670Y31153709D01*
X-10249139Y31287625D01*
X-10337379Y31402621D01*
X-10392892Y31445218D01*
X-10445929Y31485915D01*
X-10445931Y31485916D01*
X-10452375Y31490861D01*
X-10557998Y31534611D01*
X-10578777Y31543218D01*
X-10578780Y31543219D01*
X-10586291Y31546330D01*
X-10594351Y31547392D01*
X-10594354Y31547392D01*
X-10721941Y31564189D01*
X-10730000Y31565250D01*
X-10738059Y31564189D01*
X-10865647Y31547392D01*
X-10865652Y31547391D01*
X-10873709Y31546330D01*
X-10881219Y31543220D01*
X-10881224Y31543218D01*
X-11000115Y31493972D01*
X-11000117Y31493971D01*
X-11007625Y31490861D01*
X-11014067Y31485918D01*
X-11014072Y31485915D01*
X-11116179Y31407565D01*
X-11116183Y31407562D01*
X-11122621Y31402621D01*
X-11127562Y31396183D01*
X-11127565Y31396179D01*
X-11205915Y31294072D01*
X-11205918Y31294067D01*
X-11210861Y31287625D01*
X-11213971Y31280117D01*
X-11213972Y31280115D01*
X-11263218Y31161224D01*
X-11263220Y31161219D01*
X-11266330Y31153709D01*
X-11267391Y31145652D01*
X-11267392Y31145647D01*
X-11272340Y31108060D01*
X-11285250Y31010000D01*
X-23212692Y31010000D01*
X-22752650Y31359830D01*
X-22749518Y31362132D01*
X-21746379Y32075252D01*
X-21743194Y32077440D01*
X-20717691Y32757921D01*
X-20714401Y32760030D01*
X-19667507Y33407227D01*
X-19664165Y33409219D01*
X-18597013Y34022433D01*
X-18593652Y34024292D01*
X-17507367Y34602873D01*
X-17503886Y34604656D01*
X-16399555Y35148028D01*
X-16396032Y35149691D01*
X-15274826Y35657279D01*
X-15271292Y35658811D01*
X-14134303Y36130117D01*
X-14130665Y36131557D01*
X-12979167Y36566054D01*
X-12975509Y36567368D01*
X-11810616Y36964637D01*
X-11806924Y36965830D01*
X-10629856Y37325454D01*
X-10626100Y37326536D01*
X-9438102Y37648135D01*
X-9434338Y37649089D01*
X-8236630Y37932335D01*
X-8232801Y37933175D01*
X-7026652Y38177768D01*
X-7022779Y38178490D01*
X-6492984Y38268303D01*
X-6432675Y38263558D01*
X-6381786Y38230843D01*
X-6352433Y38177943D01*
X-6351604Y38117453D01*
X-6370500Y38037721D01*
X-6370500Y36706291D01*
X-6370084Y36702725D01*
X-6370083Y36702722D01*
X-6356080Y36582916D01*
X-6356079Y36582910D01*
X-6355241Y36575745D01*
X-6352774Y36568966D01*
X-6352772Y36568959D01*
X-6300734Y36425986D01*
X-6295237Y36410883D01*
X-6291267Y36404847D01*
X-6291265Y36404843D01*
X-6202801Y36270341D01*
X-6198830Y36264304D01*
X-6071218Y36143908D01*
X-5919281Y36056188D01*
X-5751210Y36005870D01*
X-5576065Y35995669D01*
X-5403289Y36026135D01*
X-5242196Y36095623D01*
X-5118548Y36187677D01*
X-5055308Y36211741D01*
X-4988849Y36199024D01*
X-4938962Y36153310D01*
X-4920500Y36088213D01*
X-4920500Y34409314D01*
X-4933690Y34353663D01*
X-4970452Y34309851D01*
X-5022968Y34287198D01*
X-5080064Y34290523D01*
X-5129594Y34319120D01*
X-5163528Y34351135D01*
X-5168782Y34356092D01*
X-5175038Y34359704D01*
X-5314464Y34440201D01*
X-5314466Y34440202D01*
X-5320719Y34443812D01*
X-5353154Y34453523D01*
X-5481870Y34492059D01*
X-5481877Y34492061D01*
X-5488790Y34494130D01*
X-5495999Y34494550D01*
X-5496005Y34494551D01*
X-5656726Y34503912D01*
X-5656734Y34503912D01*
X-5663935Y34504331D01*
X-5671047Y34503078D01*
X-5671047Y34503077D01*
X-5829595Y34475120D01*
X-5829597Y34475120D01*
X-5836711Y34473865D01*
X-5843344Y34471005D01*
X-5843347Y34471003D01*
X-5991170Y34407239D01*
X-5991173Y34407238D01*
X-5997804Y34404377D01*
X-6003595Y34400067D01*
X-6003600Y34400063D01*
X-6132739Y34303922D01*
X-6132743Y34303919D01*
X-6138530Y34299610D01*
X-6143168Y34294084D01*
X-6143172Y34294079D01*
X-6246661Y34170746D01*
X-6246665Y34170741D01*
X-6251302Y34165214D01*
X-6254540Y34158769D01*
X-6254542Y34158764D01*
X-6326801Y34014884D01*
X-6326804Y34014879D01*
X-6330040Y34008433D01*
X-6331705Y34001411D01*
X-6331706Y34001406D01*
X-6368835Y33844750D01*
X-6368836Y33844743D01*
X-6370500Y33837721D01*
X-6370500Y32906291D01*
X-6370084Y32902725D01*
X-6370083Y32902722D01*
X-6356080Y32782916D01*
X-6356079Y32782910D01*
X-6355241Y32775745D01*
X-6352774Y32768966D01*
X-6352772Y32768959D01*
X-6300734Y32625986D01*
X-6295237Y32610883D01*
X-6291267Y32604847D01*
X-6291265Y32604843D01*
X-6202801Y32470341D01*
X-6198830Y32464304D01*
X-6071218Y32343908D01*
X-5919281Y32256188D01*
X-5751210Y32205870D01*
X-5576065Y32195669D01*
X-5403289Y32226135D01*
X-5242196Y32295623D01*
X-5101470Y32400390D01*
X-5048949Y32462983D01*
X-4999049Y32498787D01*
X-4938084Y32506254D01*
X-4881015Y32483548D01*
X-4841843Y32436240D01*
X-4835615Y32423056D01*
X-4835613Y32423053D01*
X-4832411Y32416275D01*
X-4827681Y32410462D01*
X-4827680Y32410460D01*
X-4752819Y32318451D01*
X-4740719Y32303580D01*
X-4710093Y32280484D01*
X-4672669Y32234512D01*
X-4660860Y32176420D01*
X-4674250Y32130245D01*
X-4672742Y32129620D01*
X-4725099Y32003219D01*
X-4725101Y32003214D01*
X-4728211Y31995704D01*
X-4729272Y31987647D01*
X-4729273Y31987642D01*
X-4745016Y31868059D01*
X-4747131Y31851995D01*
X-4746070Y31843938D01*
X-4746070Y31843936D01*
X-4730068Y31722386D01*
X-4728211Y31708286D01*
X-4725100Y31700775D01*
X-4725099Y31700772D01*
X-4696158Y31630902D01*
X-4672742Y31574370D01*
X-4667797Y31567926D01*
X-4667796Y31567924D01*
X-4589731Y31466189D01*
X-4584502Y31459374D01*
X-4469506Y31371134D01*
X-4335590Y31315665D01*
X-4327528Y31314604D01*
X-4319681Y31312501D01*
X-4320262Y31310334D01*
X-4272688Y31290627D01*
X-4233614Y31239704D01*
X-4225236Y31176067D01*
X-4230142Y31138799D01*
X-4235250Y31100000D01*
X-4234189Y31091941D01*
X-4224568Y31018859D01*
X-4216330Y30956291D01*
X-4213219Y30948780D01*
X-4213218Y30948777D01*
X-4197173Y30910041D01*
X-4160861Y30822375D01*
X-4155916Y30815931D01*
X-4155915Y30815929D01*
X-4125548Y30776354D01*
X-4072621Y30707379D01*
X-3957625Y30619139D01*
X-3823709Y30563670D01*
X-3680000Y30544750D01*
X-3536291Y30563670D01*
X-3402375Y30619139D01*
X-3287379Y30707379D01*
X-3199139Y30822375D01*
X-3175973Y30878305D01*
X-3141945Y30925140D01*
X-3090361Y30951424D01*
X-3032466Y30951424D01*
X-2980881Y30925140D01*
X-2946853Y30878303D01*
X-2914041Y30799088D01*
X-2909096Y30792644D01*
X-2909095Y30792642D01*
X-2863626Y30733386D01*
X-2825801Y30684092D01*
X-2710805Y30595852D01*
X-2576889Y30540383D01*
X-2433180Y30521463D01*
X-2289471Y30540383D01*
X-2241747Y30560151D01*
X-2188887Y30569471D01*
X-2137037Y30555576D01*
X-2106736Y30530149D01*
X-2105313Y30531571D01*
X-2099567Y30525825D01*
X-2094621Y30519379D01*
X-2088179Y30514436D01*
X-2088178Y30514435D01*
X-2031729Y30471120D01*
X-1979625Y30431139D01*
X-1845709Y30375670D01*
X-1702000Y30356750D01*
X-1558291Y30375670D01*
X-1424375Y30431139D01*
X-1309379Y30519379D01*
X-1221139Y30634375D01*
X-1167206Y30764584D01*
X-1128134Y30815503D01*
X-1115839Y30820596D01*
X-990738Y30820596D01*
X-954272Y30792615D01*
X-929708Y30733314D01*
X-913789Y30612403D01*
X-911830Y30597525D01*
X-908719Y30590014D01*
X-908718Y30590011D01*
X-877414Y30514436D01*
X-856361Y30463609D01*
X-851416Y30457165D01*
X-851415Y30457163D01*
X-791271Y30378783D01*
X-768121Y30348613D01*
X-653125Y30260373D01*
X-519209Y30204904D01*
X-375500Y30185984D01*
X-231791Y30204904D01*
X-97875Y30260373D01*
X-96761Y30257682D01*
X-52863Y30270027D01*
X-37896Y30266556D01*
X-33993Y30290141D01*
X4011Y30338553D01*
X10675Y30343667D01*
X10674Y30343667D01*
X17121Y30348613D01*
X105361Y30463609D01*
X160830Y30597525D01*
X179750Y30741234D01*
X160830Y30884943D01*
X105361Y31018859D01*
X17121Y31133855D01*
X10678Y31138799D01*
X-91429Y31217149D01*
X-91431Y31217150D01*
X-97875Y31222095D01*
X-133908Y31237020D01*
X-224277Y31274452D01*
X-224280Y31274453D01*
X-231791Y31277564D01*
X-239851Y31278626D01*
X-239854Y31278626D01*
X-367441Y31295423D01*
X-375500Y31296484D01*
X-383559Y31295423D01*
X-511147Y31278626D01*
X-511152Y31278625D01*
X-519209Y31277564D01*
X-526719Y31274454D01*
X-526724Y31274452D01*
X-645615Y31225206D01*
X-645617Y31225205D01*
X-653125Y31222095D01*
X-659567Y31217152D01*
X-659572Y31217149D01*
X-761679Y31138799D01*
X-761683Y31138796D01*
X-768121Y31133855D01*
X-773062Y31127417D01*
X-773065Y31127413D01*
X-851415Y31025306D01*
X-851418Y31025301D01*
X-856361Y31018859D01*
X-859471Y31011352D01*
X-859471Y31011351D01*
X-910293Y30888654D01*
X-949367Y30837731D01*
X-990738Y30820596D01*
X-1115839Y30820596D01*
X-1086765Y30832640D01*
X-1123230Y30860620D01*
X-1147793Y30919922D01*
X-1151592Y30948777D01*
X-1165670Y31055709D01*
X-1221139Y31189625D01*
X-1309379Y31304621D01*
X-1424375Y31392861D01*
X-1462494Y31408650D01*
X-1550777Y31445218D01*
X-1550780Y31445219D01*
X-1558291Y31448330D01*
X-1566351Y31449392D01*
X-1566354Y31449392D01*
X-1693941Y31466189D01*
X-1702000Y31467250D01*
X-1710059Y31466189D01*
X-1837647Y31449392D01*
X-1837652Y31449391D01*
X-1845709Y31448330D01*
X-1853220Y31445220D01*
X-1853220Y31445219D01*
X-1893431Y31428563D01*
X-1946298Y31419243D01*
X-1998150Y31433141D01*
X-2028440Y31458565D01*
X-2029864Y31457140D01*
X-2035616Y31462892D01*
X-2040559Y31469334D01*
X-2077350Y31497565D01*
X-2149109Y31552628D01*
X-2149111Y31552629D01*
X-2155555Y31557574D01*
X-2199835Y31575915D01*
X-2281957Y31609931D01*
X-2281960Y31609932D01*
X-2289471Y31613043D01*
X-2297531Y31614105D01*
X-2297534Y31614105D01*
X-2425121Y31630902D01*
X-2433180Y31631963D01*
X-2441239Y31630902D01*
X-2568827Y31614105D01*
X-2568832Y31614104D01*
X-2576889Y31613043D01*
X-2584399Y31609933D01*
X-2584404Y31609931D01*
X-2703295Y31560685D01*
X-2703297Y31560684D01*
X-2710805Y31557574D01*
X-2717247Y31552631D01*
X-2717252Y31552628D01*
X-2819359Y31474278D01*
X-2819363Y31474275D01*
X-2825801Y31469334D01*
X-2830742Y31462896D01*
X-2830745Y31462892D01*
X-2909095Y31360785D01*
X-2909098Y31360780D01*
X-2914041Y31354338D01*
X-2917151Y31346832D01*
X-2917150Y31346832D01*
X-2937207Y31298410D01*
X-2971237Y31251573D01*
X-3022822Y31225290D01*
X-3080717Y31225290D01*
X-3132301Y31251575D01*
X-3166328Y31298410D01*
X-3199139Y31377625D01*
X-3287379Y31492621D01*
X-3293822Y31497565D01*
X-3395929Y31575915D01*
X-3395931Y31575916D01*
X-3402375Y31580861D01*
X-3472557Y31609931D01*
X-3528777Y31633218D01*
X-3528780Y31633219D01*
X-3536291Y31636330D01*
X-3544353Y31637392D01*
X-3552200Y31639494D01*
X-3551621Y31641658D01*
X-3599208Y31661379D01*
X-3638272Y31712300D01*
X-3646646Y31775928D01*
X-3636631Y31851995D01*
X-3655551Y31995704D01*
X-3711020Y32129620D01*
X-3784218Y32225013D01*
X-3809245Y32288346D01*
X-3797054Y32355344D01*
X-3751322Y32405801D01*
X-3685842Y32424500D01*
X3537819Y32424500D01*
X3603300Y32405801D01*
X3649031Y32355343D01*
X3661222Y32288345D01*
X3636194Y32225013D01*
X3574088Y32144078D01*
X3574080Y32144065D01*
X3569139Y32137625D01*
X3566029Y32130117D01*
X3566028Y32130115D01*
X3516782Y32011224D01*
X3516780Y32011219D01*
X3513670Y32003709D01*
X3512609Y31995652D01*
X3512608Y31995647D01*
X3495811Y31868059D01*
X3494750Y31860000D01*
X3495811Y31851941D01*
X3509807Y31745627D01*
X3512866Y31722392D01*
X3512867Y31722386D01*
X3513670Y31716291D01*
X3513002Y31716204D01*
X3514129Y31664540D01*
X3488058Y31611673D01*
X3440522Y31576818D01*
X3359404Y31543218D01*
X3338625Y31534611D01*
X3332182Y31529668D01*
X3332173Y31529662D01*
X3256002Y31471214D01*
X3196701Y31446651D01*
X3133063Y31455029D01*
X3082140Y31494103D01*
X3014406Y31582375D01*
X2999410Y31601918D01*
X2947620Y31641658D01*
X2890860Y31685212D01*
X2890858Y31685213D01*
X2884414Y31690158D01*
X2848381Y31705083D01*
X2758012Y31742515D01*
X2758009Y31742516D01*
X2750498Y31745627D01*
X2742438Y31746689D01*
X2742435Y31746689D01*
X2614848Y31763486D01*
X2606789Y31764547D01*
X2598730Y31763486D01*
X2471142Y31746689D01*
X2471137Y31746688D01*
X2463080Y31745627D01*
X2455570Y31742517D01*
X2455565Y31742515D01*
X2336674Y31693269D01*
X2336672Y31693268D01*
X2329164Y31690158D01*
X2322722Y31685215D01*
X2322717Y31685212D01*
X2220610Y31606862D01*
X2220606Y31606859D01*
X2214168Y31601918D01*
X2209227Y31595480D01*
X2209219Y31595471D01*
X2129236Y31491236D01*
X2092860Y31459335D01*
X2047046Y31443784D01*
X2001473Y31446771D01*
X1997709Y31448330D01*
X1989651Y31449391D01*
X1862059Y31466189D01*
X1854000Y31467250D01*
X1845941Y31466189D01*
X1718353Y31449392D01*
X1718348Y31449391D01*
X1710291Y31448330D01*
X1702781Y31445220D01*
X1702776Y31445218D01*
X1583885Y31395972D01*
X1583883Y31395971D01*
X1576375Y31392861D01*
X1569933Y31387918D01*
X1569928Y31387915D01*
X1467821Y31309565D01*
X1467817Y31309562D01*
X1461379Y31304621D01*
X1456438Y31298183D01*
X1456435Y31298179D01*
X1378085Y31196072D01*
X1378082Y31196067D01*
X1373139Y31189625D01*
X1370029Y31182117D01*
X1370028Y31182115D01*
X1320782Y31063224D01*
X1320780Y31063219D01*
X1317670Y31055709D01*
X1316609Y31047652D01*
X1316608Y31047647D01*
X1304581Y30956291D01*
X1298750Y30912000D01*
X1299811Y30903941D01*
X1315649Y30783636D01*
X1317670Y30768291D01*
X1320781Y30760780D01*
X1320782Y30760777D01*
X1335466Y30725326D01*
X1373139Y30634375D01*
X1378084Y30627931D01*
X1378085Y30627929D01*
X1422942Y30569471D01*
X1461379Y30519379D01*
X1576375Y30431139D01*
X1710291Y30375670D01*
X1854000Y30356750D01*
X1997709Y30375670D01*
X2131625Y30431139D01*
X2246621Y30519379D01*
X2320784Y30616029D01*
X2331551Y30630061D01*
X2367928Y30661963D01*
X2413745Y30677515D01*
X2459314Y30674527D01*
X2463080Y30672967D01*
X2606789Y30654047D01*
X2750498Y30672967D01*
X2884414Y30728436D01*
X2890861Y30733384D01*
X2890866Y30733386D01*
X2967035Y30791833D01*
X3026336Y30816397D01*
X3089974Y30808019D01*
X3140897Y30768945D01*
X3218680Y30667577D01*
X3218685Y30667572D01*
X3223629Y30661129D01*
X3338625Y30572889D01*
X3472541Y30517420D01*
X3616250Y30498500D01*
X3759959Y30517420D01*
X3893875Y30572889D01*
X4008871Y30661129D01*
X4097111Y30776125D01*
X4152580Y30910041D01*
X4171500Y31053750D01*
X4152580Y31197459D01*
X4153247Y31197547D01*
X4152118Y31249206D01*
X4178189Y31302076D01*
X4225723Y31336931D01*
X4327625Y31379139D01*
X4442621Y31467379D01*
X4530861Y31582375D01*
X4586330Y31716291D01*
X4605250Y31860000D01*
X4586330Y32003709D01*
X4564013Y32057586D01*
X4555041Y32115774D01*
X4573919Y32171543D01*
X4616392Y32212318D01*
X4617827Y32213150D01*
X4624723Y32216102D01*
X4740719Y32303580D01*
X4832411Y32416275D01*
X4839833Y32431987D01*
X4879004Y32479296D01*
X4936075Y32502003D01*
X4997042Y32494536D01*
X5040363Y32463450D01*
X5041170Y32464304D01*
X5168782Y32343908D01*
X5320719Y32256188D01*
X5488790Y32205870D01*
X5663935Y32195669D01*
X5836711Y32226135D01*
X5997804Y32295623D01*
X6138530Y32400390D01*
X6251302Y32534786D01*
X6330040Y32691567D01*
X6370500Y32862279D01*
X6370500Y33793709D01*
X6355241Y33924255D01*
X6295237Y34089117D01*
X6241548Y34170746D01*
X6202800Y34229660D01*
X6202799Y34229661D01*
X6198830Y34235696D01*
X6071218Y34356092D01*
X6064962Y34359704D01*
X5925536Y34440201D01*
X5925534Y34440202D01*
X5919281Y34443812D01*
X5886846Y34453523D01*
X5758130Y34492059D01*
X5758123Y34492061D01*
X5751210Y34494130D01*
X5744001Y34494550D01*
X5743995Y34494551D01*
X5583274Y34503912D01*
X5583266Y34503912D01*
X5576065Y34504331D01*
X5568953Y34503078D01*
X5568953Y34503077D01*
X5410405Y34475120D01*
X5410403Y34475120D01*
X5403289Y34473865D01*
X5396656Y34471005D01*
X5396653Y34471003D01*
X5248830Y34407239D01*
X5248827Y34407238D01*
X5242196Y34404377D01*
X5236405Y34400066D01*
X5236395Y34400060D01*
X5119909Y34313339D01*
X5056644Y34289272D01*
X4990165Y34302014D01*
X4940283Y34347770D01*
X4921862Y34412902D01*
X4923236Y36088213D01*
X4936461Y36143830D01*
X4973236Y36187606D01*
X5025743Y36210229D01*
X5082819Y36206891D01*
X5132328Y36178301D01*
X5168782Y36143908D01*
X5320719Y36056188D01*
X5488790Y36005870D01*
X5663935Y35995669D01*
X5836711Y36026135D01*
X5997804Y36095623D01*
X6138530Y36200390D01*
X6251302Y36334786D01*
X6330040Y36491567D01*
X6370500Y36662279D01*
X6370500Y37993709D01*
X6355241Y38124255D01*
X6356061Y38124351D01*
X6356794Y38178041D01*
X6386145Y38230945D01*
X6437035Y38263664D01*
X6497348Y38268410D01*
X7027756Y38178493D01*
G37*
%TD.AperFunction*%
%TD*%
M02*
