%TF.GenerationSoftware,KiCad,Pcbnew,(7.0.0-0)*%
%TF.CreationDate,2023-02-22T23:02:48-06:00*%
%TF.ProjectId,first_keeb,66697273-745f-46b6-9565-622e6b696361,rev?*%
%TF.SameCoordinates,Original*%
%TF.FileFunction,Legend,Top*%
%TF.FilePolarity,Positive*%
%FSLAX46Y46*%
G04 Gerber Fmt 4.6, Leading zero omitted, Abs format (unit mm)*
G04 Created by KiCad (PCBNEW (7.0.0-0)) date 2023-02-22 23:02:48*
%MOMM*%
%LPD*%
G01*
G04 APERTURE LIST*
%ADD10C,0.150000*%
%ADD11C,0.120000*%
%ADD12C,0.210000*%
G04 APERTURE END LIST*
D10*
%TO.C,REF\u002A\u002A*%
X109696666Y-116097380D02*
X109363333Y-115621190D01*
X109125238Y-116097380D02*
X109125238Y-115097380D01*
X109125238Y-115097380D02*
X109506190Y-115097380D01*
X109506190Y-115097380D02*
X109601428Y-115145000D01*
X109601428Y-115145000D02*
X109649047Y-115192619D01*
X109649047Y-115192619D02*
X109696666Y-115287857D01*
X109696666Y-115287857D02*
X109696666Y-115430714D01*
X109696666Y-115430714D02*
X109649047Y-115525952D01*
X109649047Y-115525952D02*
X109601428Y-115573571D01*
X109601428Y-115573571D02*
X109506190Y-115621190D01*
X109506190Y-115621190D02*
X109125238Y-115621190D01*
X110125238Y-115573571D02*
X110458571Y-115573571D01*
X110601428Y-116097380D02*
X110125238Y-116097380D01*
X110125238Y-116097380D02*
X110125238Y-115097380D01*
X110125238Y-115097380D02*
X110601428Y-115097380D01*
X111363333Y-115573571D02*
X111030000Y-115573571D01*
X111030000Y-116097380D02*
X111030000Y-115097380D01*
X111030000Y-115097380D02*
X111506190Y-115097380D01*
X112030000Y-115097380D02*
X112030000Y-115335476D01*
X111791905Y-115240238D02*
X112030000Y-115335476D01*
X112030000Y-115335476D02*
X112268095Y-115240238D01*
X111887143Y-115525952D02*
X112030000Y-115335476D01*
X112030000Y-115335476D02*
X112172857Y-115525952D01*
X112791905Y-115097380D02*
X112791905Y-115335476D01*
X112553810Y-115240238D02*
X112791905Y-115335476D01*
X112791905Y-115335476D02*
X113030000Y-115240238D01*
X112649048Y-115525952D02*
X112791905Y-115335476D01*
X112791905Y-115335476D02*
X112934762Y-115525952D01*
X91736666Y-122645380D02*
X91403333Y-122169190D01*
X91165238Y-122645380D02*
X91165238Y-121645380D01*
X91165238Y-121645380D02*
X91546190Y-121645380D01*
X91546190Y-121645380D02*
X91641428Y-121693000D01*
X91641428Y-121693000D02*
X91689047Y-121740619D01*
X91689047Y-121740619D02*
X91736666Y-121835857D01*
X91736666Y-121835857D02*
X91736666Y-121978714D01*
X91736666Y-121978714D02*
X91689047Y-122073952D01*
X91689047Y-122073952D02*
X91641428Y-122121571D01*
X91641428Y-122121571D02*
X91546190Y-122169190D01*
X91546190Y-122169190D02*
X91165238Y-122169190D01*
X92165238Y-122121571D02*
X92498571Y-122121571D01*
X92641428Y-122645380D02*
X92165238Y-122645380D01*
X92165238Y-122645380D02*
X92165238Y-121645380D01*
X92165238Y-121645380D02*
X92641428Y-121645380D01*
X93403333Y-122121571D02*
X93070000Y-122121571D01*
X93070000Y-122645380D02*
X93070000Y-121645380D01*
X93070000Y-121645380D02*
X93546190Y-121645380D01*
X94070000Y-121645380D02*
X94070000Y-121883476D01*
X93831905Y-121788238D02*
X94070000Y-121883476D01*
X94070000Y-121883476D02*
X94308095Y-121788238D01*
X93927143Y-122073952D02*
X94070000Y-121883476D01*
X94070000Y-121883476D02*
X94212857Y-122073952D01*
X94831905Y-121645380D02*
X94831905Y-121883476D01*
X94593810Y-121788238D02*
X94831905Y-121883476D01*
X94831905Y-121883476D02*
X95070000Y-121788238D01*
X94689048Y-122073952D02*
X94831905Y-121883476D01*
X94831905Y-121883476D02*
X94974762Y-122073952D01*
X71166666Y-122645380D02*
X70833333Y-122169190D01*
X70595238Y-122645380D02*
X70595238Y-121645380D01*
X70595238Y-121645380D02*
X70976190Y-121645380D01*
X70976190Y-121645380D02*
X71071428Y-121693000D01*
X71071428Y-121693000D02*
X71119047Y-121740619D01*
X71119047Y-121740619D02*
X71166666Y-121835857D01*
X71166666Y-121835857D02*
X71166666Y-121978714D01*
X71166666Y-121978714D02*
X71119047Y-122073952D01*
X71119047Y-122073952D02*
X71071428Y-122121571D01*
X71071428Y-122121571D02*
X70976190Y-122169190D01*
X70976190Y-122169190D02*
X70595238Y-122169190D01*
X71595238Y-122121571D02*
X71928571Y-122121571D01*
X72071428Y-122645380D02*
X71595238Y-122645380D01*
X71595238Y-122645380D02*
X71595238Y-121645380D01*
X71595238Y-121645380D02*
X72071428Y-121645380D01*
X72833333Y-122121571D02*
X72500000Y-122121571D01*
X72500000Y-122645380D02*
X72500000Y-121645380D01*
X72500000Y-121645380D02*
X72976190Y-121645380D01*
X73500000Y-121645380D02*
X73500000Y-121883476D01*
X73261905Y-121788238D02*
X73500000Y-121883476D01*
X73500000Y-121883476D02*
X73738095Y-121788238D01*
X73357143Y-122073952D02*
X73500000Y-121883476D01*
X73500000Y-121883476D02*
X73642857Y-122073952D01*
X74261905Y-121645380D02*
X74261905Y-121883476D01*
X74023810Y-121788238D02*
X74261905Y-121883476D01*
X74261905Y-121883476D02*
X74500000Y-121788238D01*
X74119048Y-122073952D02*
X74261905Y-121883476D01*
X74261905Y-121883476D02*
X74404762Y-122073952D01*
X109696666Y-60167380D02*
X109363333Y-59691190D01*
X109125238Y-60167380D02*
X109125238Y-59167380D01*
X109125238Y-59167380D02*
X109506190Y-59167380D01*
X109506190Y-59167380D02*
X109601428Y-59215000D01*
X109601428Y-59215000D02*
X109649047Y-59262619D01*
X109649047Y-59262619D02*
X109696666Y-59357857D01*
X109696666Y-59357857D02*
X109696666Y-59500714D01*
X109696666Y-59500714D02*
X109649047Y-59595952D01*
X109649047Y-59595952D02*
X109601428Y-59643571D01*
X109601428Y-59643571D02*
X109506190Y-59691190D01*
X109506190Y-59691190D02*
X109125238Y-59691190D01*
X110125238Y-59643571D02*
X110458571Y-59643571D01*
X110601428Y-60167380D02*
X110125238Y-60167380D01*
X110125238Y-60167380D02*
X110125238Y-59167380D01*
X110125238Y-59167380D02*
X110601428Y-59167380D01*
X111363333Y-59643571D02*
X111030000Y-59643571D01*
X111030000Y-60167380D02*
X111030000Y-59167380D01*
X111030000Y-59167380D02*
X111506190Y-59167380D01*
X112030000Y-59167380D02*
X112030000Y-59405476D01*
X111791905Y-59310238D02*
X112030000Y-59405476D01*
X112030000Y-59405476D02*
X112268095Y-59310238D01*
X111887143Y-59595952D02*
X112030000Y-59405476D01*
X112030000Y-59405476D02*
X112172857Y-59595952D01*
X112791905Y-59167380D02*
X112791905Y-59405476D01*
X112553810Y-59310238D02*
X112791905Y-59405476D01*
X112791905Y-59405476D02*
X113030000Y-59310238D01*
X112649048Y-59595952D02*
X112791905Y-59405476D01*
X112791905Y-59405476D02*
X112934762Y-59595952D01*
%TO.C,SSD1306*%
X78833333Y-75573761D02*
X78976190Y-75621380D01*
X78976190Y-75621380D02*
X79214285Y-75621380D01*
X79214285Y-75621380D02*
X79309523Y-75573761D01*
X79309523Y-75573761D02*
X79357142Y-75526142D01*
X79357142Y-75526142D02*
X79404761Y-75430904D01*
X79404761Y-75430904D02*
X79404761Y-75335666D01*
X79404761Y-75335666D02*
X79357142Y-75240428D01*
X79357142Y-75240428D02*
X79309523Y-75192809D01*
X79309523Y-75192809D02*
X79214285Y-75145190D01*
X79214285Y-75145190D02*
X79023809Y-75097571D01*
X79023809Y-75097571D02*
X78928571Y-75049952D01*
X78928571Y-75049952D02*
X78880952Y-75002333D01*
X78880952Y-75002333D02*
X78833333Y-74907095D01*
X78833333Y-74907095D02*
X78833333Y-74811857D01*
X78833333Y-74811857D02*
X78880952Y-74716619D01*
X78880952Y-74716619D02*
X78928571Y-74669000D01*
X78928571Y-74669000D02*
X79023809Y-74621380D01*
X79023809Y-74621380D02*
X79261904Y-74621380D01*
X79261904Y-74621380D02*
X79404761Y-74669000D01*
X79785714Y-75573761D02*
X79928571Y-75621380D01*
X79928571Y-75621380D02*
X80166666Y-75621380D01*
X80166666Y-75621380D02*
X80261904Y-75573761D01*
X80261904Y-75573761D02*
X80309523Y-75526142D01*
X80309523Y-75526142D02*
X80357142Y-75430904D01*
X80357142Y-75430904D02*
X80357142Y-75335666D01*
X80357142Y-75335666D02*
X80309523Y-75240428D01*
X80309523Y-75240428D02*
X80261904Y-75192809D01*
X80261904Y-75192809D02*
X80166666Y-75145190D01*
X80166666Y-75145190D02*
X79976190Y-75097571D01*
X79976190Y-75097571D02*
X79880952Y-75049952D01*
X79880952Y-75049952D02*
X79833333Y-75002333D01*
X79833333Y-75002333D02*
X79785714Y-74907095D01*
X79785714Y-74907095D02*
X79785714Y-74811857D01*
X79785714Y-74811857D02*
X79833333Y-74716619D01*
X79833333Y-74716619D02*
X79880952Y-74669000D01*
X79880952Y-74669000D02*
X79976190Y-74621380D01*
X79976190Y-74621380D02*
X80214285Y-74621380D01*
X80214285Y-74621380D02*
X80357142Y-74669000D01*
X80785714Y-75621380D02*
X80785714Y-74621380D01*
X80785714Y-74621380D02*
X81023809Y-74621380D01*
X81023809Y-74621380D02*
X81166666Y-74669000D01*
X81166666Y-74669000D02*
X81261904Y-74764238D01*
X81261904Y-74764238D02*
X81309523Y-74859476D01*
X81309523Y-74859476D02*
X81357142Y-75049952D01*
X81357142Y-75049952D02*
X81357142Y-75192809D01*
X81357142Y-75192809D02*
X81309523Y-75383285D01*
X81309523Y-75383285D02*
X81261904Y-75478523D01*
X81261904Y-75478523D02*
X81166666Y-75573761D01*
X81166666Y-75573761D02*
X81023809Y-75621380D01*
X81023809Y-75621380D02*
X80785714Y-75621380D01*
X82309523Y-75621380D02*
X81738095Y-75621380D01*
X82023809Y-75621380D02*
X82023809Y-74621380D01*
X82023809Y-74621380D02*
X81928571Y-74764238D01*
X81928571Y-74764238D02*
X81833333Y-74859476D01*
X81833333Y-74859476D02*
X81738095Y-74907095D01*
X82642857Y-74621380D02*
X83261904Y-74621380D01*
X83261904Y-74621380D02*
X82928571Y-75002333D01*
X82928571Y-75002333D02*
X83071428Y-75002333D01*
X83071428Y-75002333D02*
X83166666Y-75049952D01*
X83166666Y-75049952D02*
X83214285Y-75097571D01*
X83214285Y-75097571D02*
X83261904Y-75192809D01*
X83261904Y-75192809D02*
X83261904Y-75430904D01*
X83261904Y-75430904D02*
X83214285Y-75526142D01*
X83214285Y-75526142D02*
X83166666Y-75573761D01*
X83166666Y-75573761D02*
X83071428Y-75621380D01*
X83071428Y-75621380D02*
X82785714Y-75621380D01*
X82785714Y-75621380D02*
X82690476Y-75573761D01*
X82690476Y-75573761D02*
X82642857Y-75526142D01*
X83880952Y-74621380D02*
X83976190Y-74621380D01*
X83976190Y-74621380D02*
X84071428Y-74669000D01*
X84071428Y-74669000D02*
X84119047Y-74716619D01*
X84119047Y-74716619D02*
X84166666Y-74811857D01*
X84166666Y-74811857D02*
X84214285Y-75002333D01*
X84214285Y-75002333D02*
X84214285Y-75240428D01*
X84214285Y-75240428D02*
X84166666Y-75430904D01*
X84166666Y-75430904D02*
X84119047Y-75526142D01*
X84119047Y-75526142D02*
X84071428Y-75573761D01*
X84071428Y-75573761D02*
X83976190Y-75621380D01*
X83976190Y-75621380D02*
X83880952Y-75621380D01*
X83880952Y-75621380D02*
X83785714Y-75573761D01*
X83785714Y-75573761D02*
X83738095Y-75526142D01*
X83738095Y-75526142D02*
X83690476Y-75430904D01*
X83690476Y-75430904D02*
X83642857Y-75240428D01*
X83642857Y-75240428D02*
X83642857Y-75002333D01*
X83642857Y-75002333D02*
X83690476Y-74811857D01*
X83690476Y-74811857D02*
X83738095Y-74716619D01*
X83738095Y-74716619D02*
X83785714Y-74669000D01*
X83785714Y-74669000D02*
X83880952Y-74621380D01*
X85071428Y-74621380D02*
X84880952Y-74621380D01*
X84880952Y-74621380D02*
X84785714Y-74669000D01*
X84785714Y-74669000D02*
X84738095Y-74716619D01*
X84738095Y-74716619D02*
X84642857Y-74859476D01*
X84642857Y-74859476D02*
X84595238Y-75049952D01*
X84595238Y-75049952D02*
X84595238Y-75430904D01*
X84595238Y-75430904D02*
X84642857Y-75526142D01*
X84642857Y-75526142D02*
X84690476Y-75573761D01*
X84690476Y-75573761D02*
X84785714Y-75621380D01*
X84785714Y-75621380D02*
X84976190Y-75621380D01*
X84976190Y-75621380D02*
X85071428Y-75573761D01*
X85071428Y-75573761D02*
X85119047Y-75526142D01*
X85119047Y-75526142D02*
X85166666Y-75430904D01*
X85166666Y-75430904D02*
X85166666Y-75192809D01*
X85166666Y-75192809D02*
X85119047Y-75097571D01*
X85119047Y-75097571D02*
X85071428Y-75049952D01*
X85071428Y-75049952D02*
X84976190Y-75002333D01*
X84976190Y-75002333D02*
X84785714Y-75002333D01*
X84785714Y-75002333D02*
X84690476Y-75049952D01*
X84690476Y-75049952D02*
X84642857Y-75097571D01*
X84642857Y-75097571D02*
X84595238Y-75192809D01*
%TO.C,REF\u002A\u002A*%
X23696666Y-60147380D02*
X23363333Y-59671190D01*
X23125238Y-60147380D02*
X23125238Y-59147380D01*
X23125238Y-59147380D02*
X23506190Y-59147380D01*
X23506190Y-59147380D02*
X23601428Y-59195000D01*
X23601428Y-59195000D02*
X23649047Y-59242619D01*
X23649047Y-59242619D02*
X23696666Y-59337857D01*
X23696666Y-59337857D02*
X23696666Y-59480714D01*
X23696666Y-59480714D02*
X23649047Y-59575952D01*
X23649047Y-59575952D02*
X23601428Y-59623571D01*
X23601428Y-59623571D02*
X23506190Y-59671190D01*
X23506190Y-59671190D02*
X23125238Y-59671190D01*
X24125238Y-59623571D02*
X24458571Y-59623571D01*
X24601428Y-60147380D02*
X24125238Y-60147380D01*
X24125238Y-60147380D02*
X24125238Y-59147380D01*
X24125238Y-59147380D02*
X24601428Y-59147380D01*
X25363333Y-59623571D02*
X25030000Y-59623571D01*
X25030000Y-60147380D02*
X25030000Y-59147380D01*
X25030000Y-59147380D02*
X25506190Y-59147380D01*
X26030000Y-59147380D02*
X26030000Y-59385476D01*
X25791905Y-59290238D02*
X26030000Y-59385476D01*
X26030000Y-59385476D02*
X26268095Y-59290238D01*
X25887143Y-59575952D02*
X26030000Y-59385476D01*
X26030000Y-59385476D02*
X26172857Y-59575952D01*
X26791905Y-59147380D02*
X26791905Y-59385476D01*
X26553810Y-59290238D02*
X26791905Y-59385476D01*
X26791905Y-59385476D02*
X27030000Y-59290238D01*
X26649048Y-59575952D02*
X26791905Y-59385476D01*
X26791905Y-59385476D02*
X26934762Y-59575952D01*
%TO.C,SHUNT*%
X59293334Y-76093833D02*
X59393334Y-76127166D01*
X59393334Y-76127166D02*
X59560001Y-76127166D01*
X59560001Y-76127166D02*
X59626667Y-76093833D01*
X59626667Y-76093833D02*
X59660001Y-76060500D01*
X59660001Y-76060500D02*
X59693334Y-75993833D01*
X59693334Y-75993833D02*
X59693334Y-75927166D01*
X59693334Y-75927166D02*
X59660001Y-75860500D01*
X59660001Y-75860500D02*
X59626667Y-75827166D01*
X59626667Y-75827166D02*
X59560001Y-75793833D01*
X59560001Y-75793833D02*
X59426667Y-75760500D01*
X59426667Y-75760500D02*
X59360001Y-75727166D01*
X59360001Y-75727166D02*
X59326667Y-75693833D01*
X59326667Y-75693833D02*
X59293334Y-75627166D01*
X59293334Y-75627166D02*
X59293334Y-75560500D01*
X59293334Y-75560500D02*
X59326667Y-75493833D01*
X59326667Y-75493833D02*
X59360001Y-75460500D01*
X59360001Y-75460500D02*
X59426667Y-75427166D01*
X59426667Y-75427166D02*
X59593334Y-75427166D01*
X59593334Y-75427166D02*
X59693334Y-75460500D01*
X59993334Y-76127166D02*
X59993334Y-75427166D01*
X59993334Y-75760500D02*
X60393334Y-75760500D01*
X60393334Y-76127166D02*
X60393334Y-75427166D01*
X60726667Y-75427166D02*
X60726667Y-75993833D01*
X60726667Y-75993833D02*
X60760001Y-76060500D01*
X60760001Y-76060500D02*
X60793334Y-76093833D01*
X60793334Y-76093833D02*
X60860001Y-76127166D01*
X60860001Y-76127166D02*
X60993334Y-76127166D01*
X60993334Y-76127166D02*
X61060001Y-76093833D01*
X61060001Y-76093833D02*
X61093334Y-76060500D01*
X61093334Y-76060500D02*
X61126667Y-75993833D01*
X61126667Y-75993833D02*
X61126667Y-75427166D01*
X61460000Y-76127166D02*
X61460000Y-75427166D01*
X61460000Y-75427166D02*
X61860000Y-76127166D01*
X61860000Y-76127166D02*
X61860000Y-75427166D01*
X62093333Y-75427166D02*
X62493333Y-75427166D01*
X62293333Y-76127166D02*
X62293333Y-75427166D01*
%TO.C,U1*%
X42558095Y-88022380D02*
X42558095Y-88831904D01*
X42558095Y-88831904D02*
X42605714Y-88927142D01*
X42605714Y-88927142D02*
X42653333Y-88974761D01*
X42653333Y-88974761D02*
X42748571Y-89022380D01*
X42748571Y-89022380D02*
X42939047Y-89022380D01*
X42939047Y-89022380D02*
X43034285Y-88974761D01*
X43034285Y-88974761D02*
X43081904Y-88927142D01*
X43081904Y-88927142D02*
X43129523Y-88831904D01*
X43129523Y-88831904D02*
X43129523Y-88022380D01*
X44129523Y-89022380D02*
X43558095Y-89022380D01*
X43843809Y-89022380D02*
X43843809Y-88022380D01*
X43843809Y-88022380D02*
X43748571Y-88165238D01*
X43748571Y-88165238D02*
X43653333Y-88260476D01*
X43653333Y-88260476D02*
X43558095Y-88308095D01*
X29785013Y-77298134D02*
X29704201Y-77325072D01*
X29704201Y-77325072D02*
X29623388Y-77405884D01*
X29623388Y-77405884D02*
X29569514Y-77513633D01*
X29569514Y-77513633D02*
X29569514Y-77621383D01*
X29569514Y-77621383D02*
X29596451Y-77702195D01*
X29596451Y-77702195D02*
X29677263Y-77836882D01*
X29677263Y-77836882D02*
X29758075Y-77917695D01*
X29758075Y-77917695D02*
X29892762Y-77998507D01*
X29892762Y-77998507D02*
X29973575Y-78025444D01*
X29973575Y-78025444D02*
X30081324Y-78025444D01*
X30081324Y-78025444D02*
X30189074Y-77971569D01*
X30189074Y-77971569D02*
X30242949Y-77917695D01*
X30242949Y-77917695D02*
X30296823Y-77809945D01*
X30296823Y-77809945D02*
X30296823Y-77756070D01*
X30296823Y-77756070D02*
X30108262Y-77567508D01*
X30108262Y-77567508D02*
X30000512Y-77675258D01*
X30593135Y-77567508D02*
X30027449Y-77001823D01*
X30027449Y-77001823D02*
X30242949Y-76786324D01*
X30242949Y-76786324D02*
X30323761Y-76759386D01*
X30323761Y-76759386D02*
X30377636Y-76759386D01*
X30377636Y-76759386D02*
X30458448Y-76786324D01*
X30458448Y-76786324D02*
X30539260Y-76867136D01*
X30539260Y-76867136D02*
X30566197Y-76947948D01*
X30566197Y-76947948D02*
X30566197Y-77001823D01*
X30566197Y-77001823D02*
X30539260Y-77082635D01*
X30539260Y-77082635D02*
X30323761Y-77298134D01*
X31024133Y-76382263D02*
X31401257Y-76759386D01*
X30673947Y-76301450D02*
X30943321Y-76840198D01*
X30943321Y-76840198D02*
X31293507Y-76490012D01*
X55369638Y-92807509D02*
X55288826Y-92834446D01*
X55288826Y-92834446D02*
X55208014Y-92915258D01*
X55208014Y-92915258D02*
X55154139Y-93023008D01*
X55154139Y-93023008D02*
X55154139Y-93130758D01*
X55154139Y-93130758D02*
X55181077Y-93211570D01*
X55181077Y-93211570D02*
X55261889Y-93346257D01*
X55261889Y-93346257D02*
X55342701Y-93427069D01*
X55342701Y-93427069D02*
X55477388Y-93507881D01*
X55477388Y-93507881D02*
X55558200Y-93534819D01*
X55558200Y-93534819D02*
X55665950Y-93534819D01*
X55665950Y-93534819D02*
X55773699Y-93480944D01*
X55773699Y-93480944D02*
X55827574Y-93427069D01*
X55827574Y-93427069D02*
X55881449Y-93319319D01*
X55881449Y-93319319D02*
X55881449Y-93265445D01*
X55881449Y-93265445D02*
X55692887Y-93076883D01*
X55692887Y-93076883D02*
X55585138Y-93184632D01*
X56177760Y-93076883D02*
X55612075Y-92511197D01*
X55612075Y-92511197D02*
X55827574Y-92295698D01*
X55827574Y-92295698D02*
X55908386Y-92268761D01*
X55908386Y-92268761D02*
X55962261Y-92268761D01*
X55962261Y-92268761D02*
X56043073Y-92295698D01*
X56043073Y-92295698D02*
X56123886Y-92376510D01*
X56123886Y-92376510D02*
X56150823Y-92457323D01*
X56150823Y-92457323D02*
X56150823Y-92511197D01*
X56150823Y-92511197D02*
X56123886Y-92592010D01*
X56123886Y-92592010D02*
X55908386Y-92807509D01*
X56204698Y-92026324D02*
X56204698Y-91972449D01*
X56204698Y-91972449D02*
X56231635Y-91891637D01*
X56231635Y-91891637D02*
X56366322Y-91756950D01*
X56366322Y-91756950D02*
X56447134Y-91730013D01*
X56447134Y-91730013D02*
X56501009Y-91730013D01*
X56501009Y-91730013D02*
X56581821Y-91756950D01*
X56581821Y-91756950D02*
X56635696Y-91810825D01*
X56635696Y-91810825D02*
X56689571Y-91918574D01*
X56689571Y-91918574D02*
X56689571Y-92565072D01*
X56689571Y-92565072D02*
X57039757Y-92214886D01*
X56743446Y-91487576D02*
X56743446Y-91433701D01*
X56743446Y-91433701D02*
X56770383Y-91352889D01*
X56770383Y-91352889D02*
X56905070Y-91218202D01*
X56905070Y-91218202D02*
X56985883Y-91191264D01*
X56985883Y-91191264D02*
X57039757Y-91191264D01*
X57039757Y-91191264D02*
X57120570Y-91218202D01*
X57120570Y-91218202D02*
X57174444Y-91272077D01*
X57174444Y-91272077D02*
X57228319Y-91379826D01*
X57228319Y-91379826D02*
X57228319Y-92026324D01*
X57228319Y-92026324D02*
X57578505Y-91676138D01*
X35810475Y-115110809D02*
X35924761Y-115148904D01*
X35924761Y-115148904D02*
X36115237Y-115148904D01*
X36115237Y-115148904D02*
X36191428Y-115110809D01*
X36191428Y-115110809D02*
X36229523Y-115072714D01*
X36229523Y-115072714D02*
X36267618Y-114996523D01*
X36267618Y-114996523D02*
X36267618Y-114920333D01*
X36267618Y-114920333D02*
X36229523Y-114844142D01*
X36229523Y-114844142D02*
X36191428Y-114806047D01*
X36191428Y-114806047D02*
X36115237Y-114767952D01*
X36115237Y-114767952D02*
X35962856Y-114729857D01*
X35962856Y-114729857D02*
X35886666Y-114691761D01*
X35886666Y-114691761D02*
X35848571Y-114653666D01*
X35848571Y-114653666D02*
X35810475Y-114577476D01*
X35810475Y-114577476D02*
X35810475Y-114501285D01*
X35810475Y-114501285D02*
X35848571Y-114425095D01*
X35848571Y-114425095D02*
X35886666Y-114387000D01*
X35886666Y-114387000D02*
X35962856Y-114348904D01*
X35962856Y-114348904D02*
X36153333Y-114348904D01*
X36153333Y-114348904D02*
X36267618Y-114387000D01*
X36534285Y-114348904D02*
X36724761Y-115148904D01*
X36724761Y-115148904D02*
X36877142Y-114577476D01*
X36877142Y-114577476D02*
X37029523Y-115148904D01*
X37029523Y-115148904D02*
X37220000Y-114348904D01*
X37981905Y-115072714D02*
X37943809Y-115110809D01*
X37943809Y-115110809D02*
X37829524Y-115148904D01*
X37829524Y-115148904D02*
X37753333Y-115148904D01*
X37753333Y-115148904D02*
X37639047Y-115110809D01*
X37639047Y-115110809D02*
X37562857Y-115034619D01*
X37562857Y-115034619D02*
X37524762Y-114958428D01*
X37524762Y-114958428D02*
X37486666Y-114806047D01*
X37486666Y-114806047D02*
X37486666Y-114691761D01*
X37486666Y-114691761D02*
X37524762Y-114539380D01*
X37524762Y-114539380D02*
X37562857Y-114463190D01*
X37562857Y-114463190D02*
X37639047Y-114387000D01*
X37639047Y-114387000D02*
X37753333Y-114348904D01*
X37753333Y-114348904D02*
X37829524Y-114348904D01*
X37829524Y-114348904D02*
X37943809Y-114387000D01*
X37943809Y-114387000D02*
X37981905Y-114425095D01*
X38705714Y-115148904D02*
X38324762Y-115148904D01*
X38324762Y-115148904D02*
X38324762Y-114348904D01*
X38972381Y-115148904D02*
X38972381Y-114348904D01*
X39429524Y-115148904D02*
X39086666Y-114691761D01*
X39429524Y-114348904D02*
X38972381Y-114806047D01*
X29785013Y-84918134D02*
X29704201Y-84945072D01*
X29704201Y-84945072D02*
X29623388Y-85025884D01*
X29623388Y-85025884D02*
X29569514Y-85133633D01*
X29569514Y-85133633D02*
X29569514Y-85241383D01*
X29569514Y-85241383D02*
X29596451Y-85322195D01*
X29596451Y-85322195D02*
X29677263Y-85456882D01*
X29677263Y-85456882D02*
X29758075Y-85537695D01*
X29758075Y-85537695D02*
X29892762Y-85618507D01*
X29892762Y-85618507D02*
X29973575Y-85645444D01*
X29973575Y-85645444D02*
X30081324Y-85645444D01*
X30081324Y-85645444D02*
X30189074Y-85591569D01*
X30189074Y-85591569D02*
X30242949Y-85537695D01*
X30242949Y-85537695D02*
X30296823Y-85429945D01*
X30296823Y-85429945D02*
X30296823Y-85376070D01*
X30296823Y-85376070D02*
X30108262Y-85187508D01*
X30108262Y-85187508D02*
X30000512Y-85295258D01*
X30593135Y-85187508D02*
X30027449Y-84621823D01*
X30027449Y-84621823D02*
X30242949Y-84406324D01*
X30242949Y-84406324D02*
X30323761Y-84379386D01*
X30323761Y-84379386D02*
X30377636Y-84379386D01*
X30377636Y-84379386D02*
X30458448Y-84406324D01*
X30458448Y-84406324D02*
X30539260Y-84487136D01*
X30539260Y-84487136D02*
X30566197Y-84567948D01*
X30566197Y-84567948D02*
X30566197Y-84621823D01*
X30566197Y-84621823D02*
X30539260Y-84702635D01*
X30539260Y-84702635D02*
X30323761Y-84918134D01*
X30835571Y-83813701D02*
X30727822Y-83921450D01*
X30727822Y-83921450D02*
X30700884Y-84002263D01*
X30700884Y-84002263D02*
X30700884Y-84056137D01*
X30700884Y-84056137D02*
X30727822Y-84190824D01*
X30727822Y-84190824D02*
X30808634Y-84325511D01*
X30808634Y-84325511D02*
X31024133Y-84541011D01*
X31024133Y-84541011D02*
X31104945Y-84567948D01*
X31104945Y-84567948D02*
X31158820Y-84567948D01*
X31158820Y-84567948D02*
X31239632Y-84541011D01*
X31239632Y-84541011D02*
X31347382Y-84433261D01*
X31347382Y-84433261D02*
X31374319Y-84352449D01*
X31374319Y-84352449D02*
X31374319Y-84298574D01*
X31374319Y-84298574D02*
X31347382Y-84217762D01*
X31347382Y-84217762D02*
X31212695Y-84083075D01*
X31212695Y-84083075D02*
X31131883Y-84056137D01*
X31131883Y-84056137D02*
X31078008Y-84056137D01*
X31078008Y-84056137D02*
X30997196Y-84083075D01*
X30997196Y-84083075D02*
X30889446Y-84190824D01*
X30889446Y-84190824D02*
X30862509Y-84271637D01*
X30862509Y-84271637D02*
X30862509Y-84325511D01*
X30862509Y-84325511D02*
X30889446Y-84406324D01*
X29885013Y-87428134D02*
X29804201Y-87455072D01*
X29804201Y-87455072D02*
X29723388Y-87535884D01*
X29723388Y-87535884D02*
X29669514Y-87643633D01*
X29669514Y-87643633D02*
X29669514Y-87751383D01*
X29669514Y-87751383D02*
X29696451Y-87832195D01*
X29696451Y-87832195D02*
X29777263Y-87966882D01*
X29777263Y-87966882D02*
X29858075Y-88047695D01*
X29858075Y-88047695D02*
X29992762Y-88128507D01*
X29992762Y-88128507D02*
X30073575Y-88155444D01*
X30073575Y-88155444D02*
X30181324Y-88155444D01*
X30181324Y-88155444D02*
X30289074Y-88101569D01*
X30289074Y-88101569D02*
X30342949Y-88047695D01*
X30342949Y-88047695D02*
X30396823Y-87939945D01*
X30396823Y-87939945D02*
X30396823Y-87886070D01*
X30396823Y-87886070D02*
X30208262Y-87697508D01*
X30208262Y-87697508D02*
X30100512Y-87805258D01*
X30693135Y-87697508D02*
X30127449Y-87131823D01*
X30127449Y-87131823D02*
X30342949Y-86916324D01*
X30342949Y-86916324D02*
X30423761Y-86889386D01*
X30423761Y-86889386D02*
X30477636Y-86889386D01*
X30477636Y-86889386D02*
X30558448Y-86916324D01*
X30558448Y-86916324D02*
X30639260Y-86997136D01*
X30639260Y-86997136D02*
X30666197Y-87077948D01*
X30666197Y-87077948D02*
X30666197Y-87131823D01*
X30666197Y-87131823D02*
X30639260Y-87212635D01*
X30639260Y-87212635D02*
X30423761Y-87428134D01*
X30639260Y-86620012D02*
X31016384Y-86242889D01*
X31016384Y-86242889D02*
X31339632Y-87051011D01*
X55194048Y-72565224D02*
X55544234Y-72215038D01*
X55544234Y-72215038D02*
X55571172Y-72619099D01*
X55571172Y-72619099D02*
X55651984Y-72538287D01*
X55651984Y-72538287D02*
X55732796Y-72511350D01*
X55732796Y-72511350D02*
X55786671Y-72511350D01*
X55786671Y-72511350D02*
X55867483Y-72538287D01*
X55867483Y-72538287D02*
X56002170Y-72672974D01*
X56002170Y-72672974D02*
X56029107Y-72753786D01*
X56029107Y-72753786D02*
X56029107Y-72807661D01*
X56029107Y-72807661D02*
X56002170Y-72888473D01*
X56002170Y-72888473D02*
X55840546Y-73050098D01*
X55840546Y-73050098D02*
X55759733Y-73077035D01*
X55759733Y-73077035D02*
X55705859Y-73077035D01*
X55705859Y-72053414D02*
X56460106Y-72430537D01*
X56460106Y-72430537D02*
X56082982Y-71676290D01*
X56217669Y-71541603D02*
X56567855Y-71191417D01*
X56567855Y-71191417D02*
X56594793Y-71595478D01*
X56594793Y-71595478D02*
X56675605Y-71514666D01*
X56675605Y-71514666D02*
X56756417Y-71487728D01*
X56756417Y-71487728D02*
X56810292Y-71487728D01*
X56810292Y-71487728D02*
X56891104Y-71514666D01*
X56891104Y-71514666D02*
X57025791Y-71649353D01*
X57025791Y-71649353D02*
X57052729Y-71730165D01*
X57052729Y-71730165D02*
X57052729Y-71784040D01*
X57052729Y-71784040D02*
X57025791Y-71864852D01*
X57025791Y-71864852D02*
X56864167Y-72026476D01*
X56864167Y-72026476D02*
X56783355Y-72053414D01*
X56783355Y-72053414D02*
X56729480Y-72053414D01*
X57295165Y-71703227D02*
X57726164Y-71272229D01*
X57510665Y-70787356D02*
X57699226Y-70598794D01*
X58076350Y-70814293D02*
X57806976Y-71083667D01*
X57806976Y-71083667D02*
X57241291Y-70517982D01*
X57241291Y-70517982D02*
X57510665Y-70248608D01*
X58318787Y-70571856D02*
X57753102Y-70006171D01*
X57753102Y-70006171D02*
X58642036Y-70248607D01*
X58642036Y-70248607D02*
X58076350Y-69682922D01*
X55369638Y-87727509D02*
X55288826Y-87754446D01*
X55288826Y-87754446D02*
X55208014Y-87835258D01*
X55208014Y-87835258D02*
X55154139Y-87943008D01*
X55154139Y-87943008D02*
X55154139Y-88050758D01*
X55154139Y-88050758D02*
X55181077Y-88131570D01*
X55181077Y-88131570D02*
X55261889Y-88266257D01*
X55261889Y-88266257D02*
X55342701Y-88347069D01*
X55342701Y-88347069D02*
X55477388Y-88427881D01*
X55477388Y-88427881D02*
X55558200Y-88454819D01*
X55558200Y-88454819D02*
X55665950Y-88454819D01*
X55665950Y-88454819D02*
X55773699Y-88400944D01*
X55773699Y-88400944D02*
X55827574Y-88347069D01*
X55827574Y-88347069D02*
X55881449Y-88239319D01*
X55881449Y-88239319D02*
X55881449Y-88185445D01*
X55881449Y-88185445D02*
X55692887Y-87996883D01*
X55692887Y-87996883D02*
X55585138Y-88104632D01*
X56177760Y-87996883D02*
X55612075Y-87431197D01*
X55612075Y-87431197D02*
X55827574Y-87215698D01*
X55827574Y-87215698D02*
X55908386Y-87188761D01*
X55908386Y-87188761D02*
X55962261Y-87188761D01*
X55962261Y-87188761D02*
X56043073Y-87215698D01*
X56043073Y-87215698D02*
X56123886Y-87296510D01*
X56123886Y-87296510D02*
X56150823Y-87377323D01*
X56150823Y-87377323D02*
X56150823Y-87431197D01*
X56150823Y-87431197D02*
X56123886Y-87512010D01*
X56123886Y-87512010D02*
X55908386Y-87727509D01*
X56204698Y-86946324D02*
X56204698Y-86892449D01*
X56204698Y-86892449D02*
X56231635Y-86811637D01*
X56231635Y-86811637D02*
X56366322Y-86676950D01*
X56366322Y-86676950D02*
X56447134Y-86650013D01*
X56447134Y-86650013D02*
X56501009Y-86650013D01*
X56501009Y-86650013D02*
X56581821Y-86676950D01*
X56581821Y-86676950D02*
X56635696Y-86730825D01*
X56635696Y-86730825D02*
X56689571Y-86838574D01*
X56689571Y-86838574D02*
X56689571Y-87485072D01*
X56689571Y-87485072D02*
X57039757Y-87134886D01*
X56958945Y-86084327D02*
X56851196Y-86192077D01*
X56851196Y-86192077D02*
X56824258Y-86272889D01*
X56824258Y-86272889D02*
X56824258Y-86326764D01*
X56824258Y-86326764D02*
X56851196Y-86461451D01*
X56851196Y-86461451D02*
X56932008Y-86596138D01*
X56932008Y-86596138D02*
X57147507Y-86811637D01*
X57147507Y-86811637D02*
X57228319Y-86838574D01*
X57228319Y-86838574D02*
X57282194Y-86838574D01*
X57282194Y-86838574D02*
X57363006Y-86811637D01*
X57363006Y-86811637D02*
X57470756Y-86703887D01*
X57470756Y-86703887D02*
X57497693Y-86623075D01*
X57497693Y-86623075D02*
X57497693Y-86569200D01*
X57497693Y-86569200D02*
X57470756Y-86488388D01*
X57470756Y-86488388D02*
X57336069Y-86353701D01*
X57336069Y-86353701D02*
X57255257Y-86326764D01*
X57255257Y-86326764D02*
X57201382Y-86326764D01*
X57201382Y-86326764D02*
X57120570Y-86353701D01*
X57120570Y-86353701D02*
X57012820Y-86461451D01*
X57012820Y-86461451D02*
X56985883Y-86542263D01*
X56985883Y-86542263D02*
X56985883Y-86596138D01*
X56985883Y-86596138D02*
X57012820Y-86676950D01*
X29758076Y-69705072D02*
X29677263Y-69732009D01*
X29677263Y-69732009D02*
X29596451Y-69812821D01*
X29596451Y-69812821D02*
X29542576Y-69920571D01*
X29542576Y-69920571D02*
X29542576Y-70028320D01*
X29542576Y-70028320D02*
X29569514Y-70109133D01*
X29569514Y-70109133D02*
X29650326Y-70243820D01*
X29650326Y-70243820D02*
X29731138Y-70324632D01*
X29731138Y-70324632D02*
X29865825Y-70405444D01*
X29865825Y-70405444D02*
X29946637Y-70432381D01*
X29946637Y-70432381D02*
X30054387Y-70432381D01*
X30054387Y-70432381D02*
X30162137Y-70378507D01*
X30162137Y-70378507D02*
X30216011Y-70324632D01*
X30216011Y-70324632D02*
X30269886Y-70216882D01*
X30269886Y-70216882D02*
X30269886Y-70163007D01*
X30269886Y-70163007D02*
X30081324Y-69974446D01*
X30081324Y-69974446D02*
X29973575Y-70082195D01*
X30566198Y-69974446D02*
X30000512Y-69408760D01*
X30000512Y-69408760D02*
X30889446Y-69651197D01*
X30889446Y-69651197D02*
X30323761Y-69085511D01*
X31158820Y-69381823D02*
X30593135Y-68816137D01*
X30593135Y-68816137D02*
X30727822Y-68681450D01*
X30727822Y-68681450D02*
X30835571Y-68627576D01*
X30835571Y-68627576D02*
X30943321Y-68627576D01*
X30943321Y-68627576D02*
X31024133Y-68654513D01*
X31024133Y-68654513D02*
X31158820Y-68735325D01*
X31158820Y-68735325D02*
X31239632Y-68816137D01*
X31239632Y-68816137D02*
X31320445Y-68950824D01*
X31320445Y-68950824D02*
X31347382Y-69031637D01*
X31347382Y-69031637D02*
X31347382Y-69139386D01*
X31347382Y-69139386D02*
X31293507Y-69247136D01*
X31293507Y-69247136D02*
X31158820Y-69381823D01*
X29261638Y-105507509D02*
X29180826Y-105534446D01*
X29180826Y-105534446D02*
X29100014Y-105615258D01*
X29100014Y-105615258D02*
X29046139Y-105723008D01*
X29046139Y-105723008D02*
X29046139Y-105830758D01*
X29046139Y-105830758D02*
X29073077Y-105911570D01*
X29073077Y-105911570D02*
X29153889Y-106046257D01*
X29153889Y-106046257D02*
X29234701Y-106127069D01*
X29234701Y-106127069D02*
X29369388Y-106207881D01*
X29369388Y-106207881D02*
X29450200Y-106234819D01*
X29450200Y-106234819D02*
X29557950Y-106234819D01*
X29557950Y-106234819D02*
X29665699Y-106180944D01*
X29665699Y-106180944D02*
X29719574Y-106127069D01*
X29719574Y-106127069D02*
X29773449Y-106019319D01*
X29773449Y-106019319D02*
X29773449Y-105965445D01*
X29773449Y-105965445D02*
X29584887Y-105776883D01*
X29584887Y-105776883D02*
X29477138Y-105884632D01*
X30069760Y-105776883D02*
X29504075Y-105211197D01*
X29504075Y-105211197D02*
X29719574Y-104995698D01*
X29719574Y-104995698D02*
X29800386Y-104968761D01*
X29800386Y-104968761D02*
X29854261Y-104968761D01*
X29854261Y-104968761D02*
X29935073Y-104995698D01*
X29935073Y-104995698D02*
X30015886Y-105076510D01*
X30015886Y-105076510D02*
X30042823Y-105157323D01*
X30042823Y-105157323D02*
X30042823Y-105211197D01*
X30042823Y-105211197D02*
X30015886Y-105292010D01*
X30015886Y-105292010D02*
X29800386Y-105507509D01*
X30931757Y-104914886D02*
X30608508Y-105238135D01*
X30770133Y-105076510D02*
X30204447Y-104510825D01*
X30204447Y-104510825D02*
X30231385Y-104645512D01*
X30231385Y-104645512D02*
X30231385Y-104753261D01*
X30231385Y-104753261D02*
X30204447Y-104834074D01*
X30554634Y-104160638D02*
X30904820Y-103810452D01*
X30904820Y-103810452D02*
X30931757Y-104214513D01*
X30931757Y-104214513D02*
X31012570Y-104133701D01*
X31012570Y-104133701D02*
X31093382Y-104106764D01*
X31093382Y-104106764D02*
X31147257Y-104106764D01*
X31147257Y-104106764D02*
X31228069Y-104133701D01*
X31228069Y-104133701D02*
X31362756Y-104268388D01*
X31362756Y-104268388D02*
X31389693Y-104349200D01*
X31389693Y-104349200D02*
X31389693Y-104403075D01*
X31389693Y-104403075D02*
X31362756Y-104483887D01*
X31362756Y-104483887D02*
X31201131Y-104645512D01*
X31201131Y-104645512D02*
X31120319Y-104672449D01*
X31120319Y-104672449D02*
X31066444Y-104672449D01*
X55369638Y-100427509D02*
X55288826Y-100454446D01*
X55288826Y-100454446D02*
X55208014Y-100535258D01*
X55208014Y-100535258D02*
X55154139Y-100643008D01*
X55154139Y-100643008D02*
X55154139Y-100750758D01*
X55154139Y-100750758D02*
X55181077Y-100831570D01*
X55181077Y-100831570D02*
X55261889Y-100966257D01*
X55261889Y-100966257D02*
X55342701Y-101047069D01*
X55342701Y-101047069D02*
X55477388Y-101127881D01*
X55477388Y-101127881D02*
X55558200Y-101154819D01*
X55558200Y-101154819D02*
X55665950Y-101154819D01*
X55665950Y-101154819D02*
X55773699Y-101100944D01*
X55773699Y-101100944D02*
X55827574Y-101047069D01*
X55827574Y-101047069D02*
X55881449Y-100939319D01*
X55881449Y-100939319D02*
X55881449Y-100885445D01*
X55881449Y-100885445D02*
X55692887Y-100696883D01*
X55692887Y-100696883D02*
X55585138Y-100804632D01*
X56177760Y-100696883D02*
X55612075Y-100131197D01*
X55612075Y-100131197D02*
X55827574Y-99915698D01*
X55827574Y-99915698D02*
X55908386Y-99888761D01*
X55908386Y-99888761D02*
X55962261Y-99888761D01*
X55962261Y-99888761D02*
X56043073Y-99915698D01*
X56043073Y-99915698D02*
X56123886Y-99996510D01*
X56123886Y-99996510D02*
X56150823Y-100077323D01*
X56150823Y-100077323D02*
X56150823Y-100131197D01*
X56150823Y-100131197D02*
X56123886Y-100212010D01*
X56123886Y-100212010D02*
X55908386Y-100427509D01*
X56204698Y-99646324D02*
X56204698Y-99592449D01*
X56204698Y-99592449D02*
X56231635Y-99511637D01*
X56231635Y-99511637D02*
X56366322Y-99376950D01*
X56366322Y-99376950D02*
X56447134Y-99350013D01*
X56447134Y-99350013D02*
X56501009Y-99350013D01*
X56501009Y-99350013D02*
X56581821Y-99376950D01*
X56581821Y-99376950D02*
X56635696Y-99430825D01*
X56635696Y-99430825D02*
X56689571Y-99538574D01*
X56689571Y-99538574D02*
X56689571Y-100185072D01*
X56689571Y-100185072D02*
X57039757Y-99834886D01*
X56824258Y-98919014D02*
X56878133Y-98865139D01*
X56878133Y-98865139D02*
X56958945Y-98838202D01*
X56958945Y-98838202D02*
X57012820Y-98838202D01*
X57012820Y-98838202D02*
X57093632Y-98865139D01*
X57093632Y-98865139D02*
X57228319Y-98945951D01*
X57228319Y-98945951D02*
X57363006Y-99080638D01*
X57363006Y-99080638D02*
X57443818Y-99215326D01*
X57443818Y-99215326D02*
X57470756Y-99296138D01*
X57470756Y-99296138D02*
X57470756Y-99350013D01*
X57470756Y-99350013D02*
X57443818Y-99430825D01*
X57443818Y-99430825D02*
X57389944Y-99484700D01*
X57389944Y-99484700D02*
X57309131Y-99511637D01*
X57309131Y-99511637D02*
X57255257Y-99511637D01*
X57255257Y-99511637D02*
X57174444Y-99484700D01*
X57174444Y-99484700D02*
X57039757Y-99403887D01*
X57039757Y-99403887D02*
X56905070Y-99269200D01*
X56905070Y-99269200D02*
X56824258Y-99134513D01*
X56824258Y-99134513D02*
X56797321Y-99053701D01*
X56797321Y-99053701D02*
X56797321Y-98999826D01*
X56797321Y-98999826D02*
X56824258Y-98919014D01*
X29215638Y-110587509D02*
X29134826Y-110614446D01*
X29134826Y-110614446D02*
X29054014Y-110695258D01*
X29054014Y-110695258D02*
X29000139Y-110803008D01*
X29000139Y-110803008D02*
X29000139Y-110910758D01*
X29000139Y-110910758D02*
X29027077Y-110991570D01*
X29027077Y-110991570D02*
X29107889Y-111126257D01*
X29107889Y-111126257D02*
X29188701Y-111207069D01*
X29188701Y-111207069D02*
X29323388Y-111287881D01*
X29323388Y-111287881D02*
X29404200Y-111314819D01*
X29404200Y-111314819D02*
X29511950Y-111314819D01*
X29511950Y-111314819D02*
X29619699Y-111260944D01*
X29619699Y-111260944D02*
X29673574Y-111207069D01*
X29673574Y-111207069D02*
X29727449Y-111099319D01*
X29727449Y-111099319D02*
X29727449Y-111045445D01*
X29727449Y-111045445D02*
X29538887Y-110856883D01*
X29538887Y-110856883D02*
X29431138Y-110964632D01*
X30023760Y-110856883D02*
X29458075Y-110291197D01*
X29458075Y-110291197D02*
X29673574Y-110075698D01*
X29673574Y-110075698D02*
X29754386Y-110048761D01*
X29754386Y-110048761D02*
X29808261Y-110048761D01*
X29808261Y-110048761D02*
X29889073Y-110075698D01*
X29889073Y-110075698D02*
X29969886Y-110156510D01*
X29969886Y-110156510D02*
X29996823Y-110237323D01*
X29996823Y-110237323D02*
X29996823Y-110291197D01*
X29996823Y-110291197D02*
X29969886Y-110372010D01*
X29969886Y-110372010D02*
X29754386Y-110587509D01*
X30885757Y-109994886D02*
X30562508Y-110318135D01*
X30724133Y-110156510D02*
X30158447Y-109590825D01*
X30158447Y-109590825D02*
X30185385Y-109725512D01*
X30185385Y-109725512D02*
X30185385Y-109833261D01*
X30185385Y-109833261D02*
X30158447Y-109914074D01*
X30993507Y-109132889D02*
X31370631Y-109510013D01*
X30643321Y-109052077D02*
X30912695Y-109590825D01*
X30912695Y-109590825D02*
X31262881Y-109240638D01*
X29261638Y-113127509D02*
X29180826Y-113154446D01*
X29180826Y-113154446D02*
X29100014Y-113235258D01*
X29100014Y-113235258D02*
X29046139Y-113343008D01*
X29046139Y-113343008D02*
X29046139Y-113450758D01*
X29046139Y-113450758D02*
X29073077Y-113531570D01*
X29073077Y-113531570D02*
X29153889Y-113666257D01*
X29153889Y-113666257D02*
X29234701Y-113747069D01*
X29234701Y-113747069D02*
X29369388Y-113827881D01*
X29369388Y-113827881D02*
X29450200Y-113854819D01*
X29450200Y-113854819D02*
X29557950Y-113854819D01*
X29557950Y-113854819D02*
X29665699Y-113800944D01*
X29665699Y-113800944D02*
X29719574Y-113747069D01*
X29719574Y-113747069D02*
X29773449Y-113639319D01*
X29773449Y-113639319D02*
X29773449Y-113585445D01*
X29773449Y-113585445D02*
X29584887Y-113396883D01*
X29584887Y-113396883D02*
X29477138Y-113504632D01*
X30069760Y-113396883D02*
X29504075Y-112831197D01*
X29504075Y-112831197D02*
X29719574Y-112615698D01*
X29719574Y-112615698D02*
X29800386Y-112588761D01*
X29800386Y-112588761D02*
X29854261Y-112588761D01*
X29854261Y-112588761D02*
X29935073Y-112615698D01*
X29935073Y-112615698D02*
X30015886Y-112696510D01*
X30015886Y-112696510D02*
X30042823Y-112777323D01*
X30042823Y-112777323D02*
X30042823Y-112831197D01*
X30042823Y-112831197D02*
X30015886Y-112912010D01*
X30015886Y-112912010D02*
X29800386Y-113127509D01*
X30931757Y-112534886D02*
X30608508Y-112858135D01*
X30770133Y-112696510D02*
X30204447Y-112130825D01*
X30204447Y-112130825D02*
X30231385Y-112265512D01*
X30231385Y-112265512D02*
X30231385Y-112373261D01*
X30231385Y-112373261D02*
X30204447Y-112454074D01*
X30877883Y-111457390D02*
X30608509Y-111726764D01*
X30608509Y-111726764D02*
X30850945Y-112023075D01*
X30850945Y-112023075D02*
X30850945Y-111969200D01*
X30850945Y-111969200D02*
X30877883Y-111888388D01*
X30877883Y-111888388D02*
X31012570Y-111753701D01*
X31012570Y-111753701D02*
X31093382Y-111726764D01*
X31093382Y-111726764D02*
X31147257Y-111726764D01*
X31147257Y-111726764D02*
X31228069Y-111753701D01*
X31228069Y-111753701D02*
X31362756Y-111888388D01*
X31362756Y-111888388D02*
X31389693Y-111969200D01*
X31389693Y-111969200D02*
X31389693Y-112023075D01*
X31389693Y-112023075D02*
X31362756Y-112103887D01*
X31362756Y-112103887D02*
X31228069Y-112238574D01*
X31228069Y-112238574D02*
X31147257Y-112265512D01*
X31147257Y-112265512D02*
X31093382Y-112265512D01*
X55358076Y-95105072D02*
X55277263Y-95132009D01*
X55277263Y-95132009D02*
X55196451Y-95212821D01*
X55196451Y-95212821D02*
X55142576Y-95320571D01*
X55142576Y-95320571D02*
X55142576Y-95428320D01*
X55142576Y-95428320D02*
X55169514Y-95509133D01*
X55169514Y-95509133D02*
X55250326Y-95643820D01*
X55250326Y-95643820D02*
X55331138Y-95724632D01*
X55331138Y-95724632D02*
X55465825Y-95805444D01*
X55465825Y-95805444D02*
X55546637Y-95832381D01*
X55546637Y-95832381D02*
X55654387Y-95832381D01*
X55654387Y-95832381D02*
X55762137Y-95778507D01*
X55762137Y-95778507D02*
X55816011Y-95724632D01*
X55816011Y-95724632D02*
X55869886Y-95616882D01*
X55869886Y-95616882D02*
X55869886Y-95563007D01*
X55869886Y-95563007D02*
X55681324Y-95374446D01*
X55681324Y-95374446D02*
X55573575Y-95482195D01*
X56166198Y-95374446D02*
X55600512Y-94808760D01*
X55600512Y-94808760D02*
X56489446Y-95051197D01*
X56489446Y-95051197D02*
X55923761Y-94485511D01*
X56758820Y-94781823D02*
X56193135Y-94216137D01*
X56193135Y-94216137D02*
X56327822Y-94081450D01*
X56327822Y-94081450D02*
X56435571Y-94027576D01*
X56435571Y-94027576D02*
X56543321Y-94027576D01*
X56543321Y-94027576D02*
X56624133Y-94054513D01*
X56624133Y-94054513D02*
X56758820Y-94135325D01*
X56758820Y-94135325D02*
X56839632Y-94216137D01*
X56839632Y-94216137D02*
X56920445Y-94350824D01*
X56920445Y-94350824D02*
X56947382Y-94431637D01*
X56947382Y-94431637D02*
X56947382Y-94539386D01*
X56947382Y-94539386D02*
X56893507Y-94647136D01*
X56893507Y-94647136D02*
X56758820Y-94781823D01*
X55161764Y-75097509D02*
X55511950Y-74747322D01*
X55511950Y-74747322D02*
X55538887Y-75151383D01*
X55538887Y-75151383D02*
X55619699Y-75070571D01*
X55619699Y-75070571D02*
X55700512Y-75043634D01*
X55700512Y-75043634D02*
X55754386Y-75043634D01*
X55754386Y-75043634D02*
X55835199Y-75070571D01*
X55835199Y-75070571D02*
X55969886Y-75205258D01*
X55969886Y-75205258D02*
X55996823Y-75286070D01*
X55996823Y-75286070D02*
X55996823Y-75339945D01*
X55996823Y-75339945D02*
X55969886Y-75420757D01*
X55969886Y-75420757D02*
X55808261Y-75582382D01*
X55808261Y-75582382D02*
X55727449Y-75609319D01*
X55727449Y-75609319D02*
X55673574Y-75609319D01*
X55673574Y-74585698D02*
X56427822Y-74962821D01*
X56427822Y-74962821D02*
X56050698Y-74208574D01*
X56185385Y-74073887D02*
X56535571Y-73723701D01*
X56535571Y-73723701D02*
X56562508Y-74127762D01*
X56562508Y-74127762D02*
X56643321Y-74046950D01*
X56643321Y-74046950D02*
X56724133Y-74020013D01*
X56724133Y-74020013D02*
X56778008Y-74020013D01*
X56778008Y-74020013D02*
X56858820Y-74046950D01*
X56858820Y-74046950D02*
X56993507Y-74181637D01*
X56993507Y-74181637D02*
X57020444Y-74262449D01*
X57020444Y-74262449D02*
X57020444Y-74316324D01*
X57020444Y-74316324D02*
X56993507Y-74397136D01*
X56993507Y-74397136D02*
X56831882Y-74558761D01*
X56831882Y-74558761D02*
X56751070Y-74585698D01*
X56751070Y-74585698D02*
X56697195Y-74585698D01*
X56110292Y-90550351D02*
X55652356Y-90469539D01*
X55787043Y-90873600D02*
X55221358Y-90307914D01*
X55221358Y-90307914D02*
X55436857Y-90092415D01*
X55436857Y-90092415D02*
X55517669Y-90065478D01*
X55517669Y-90065478D02*
X55571544Y-90065478D01*
X55571544Y-90065478D02*
X55652356Y-90092415D01*
X55652356Y-90092415D02*
X55733168Y-90173227D01*
X55733168Y-90173227D02*
X55760106Y-90254040D01*
X55760106Y-90254040D02*
X55760106Y-90307914D01*
X55760106Y-90307914D02*
X55733168Y-90388727D01*
X55733168Y-90388727D02*
X55517669Y-90604226D01*
X55787043Y-89742229D02*
X56244979Y-90200165D01*
X56244979Y-90200165D02*
X56325791Y-90227102D01*
X56325791Y-90227102D02*
X56379666Y-90227102D01*
X56379666Y-90227102D02*
X56460478Y-90200165D01*
X56460478Y-90200165D02*
X56568228Y-90092415D01*
X56568228Y-90092415D02*
X56595165Y-90011603D01*
X56595165Y-90011603D02*
X56595165Y-89957728D01*
X56595165Y-89957728D02*
X56568228Y-89876916D01*
X56568228Y-89876916D02*
X56110292Y-89418980D01*
X56945351Y-89715292D02*
X56379666Y-89149606D01*
X56379666Y-89149606D02*
X57268600Y-89392043D01*
X57268600Y-89392043D02*
X56702915Y-88826358D01*
X29115638Y-100427509D02*
X29034826Y-100454446D01*
X29034826Y-100454446D02*
X28954014Y-100535258D01*
X28954014Y-100535258D02*
X28900139Y-100643008D01*
X28900139Y-100643008D02*
X28900139Y-100750758D01*
X28900139Y-100750758D02*
X28927077Y-100831570D01*
X28927077Y-100831570D02*
X29007889Y-100966257D01*
X29007889Y-100966257D02*
X29088701Y-101047069D01*
X29088701Y-101047069D02*
X29223388Y-101127881D01*
X29223388Y-101127881D02*
X29304200Y-101154819D01*
X29304200Y-101154819D02*
X29411950Y-101154819D01*
X29411950Y-101154819D02*
X29519699Y-101100944D01*
X29519699Y-101100944D02*
X29573574Y-101047069D01*
X29573574Y-101047069D02*
X29627449Y-100939319D01*
X29627449Y-100939319D02*
X29627449Y-100885445D01*
X29627449Y-100885445D02*
X29438887Y-100696883D01*
X29438887Y-100696883D02*
X29331138Y-100804632D01*
X29923760Y-100696883D02*
X29358075Y-100131197D01*
X29358075Y-100131197D02*
X29573574Y-99915698D01*
X29573574Y-99915698D02*
X29654386Y-99888761D01*
X29654386Y-99888761D02*
X29708261Y-99888761D01*
X29708261Y-99888761D02*
X29789073Y-99915698D01*
X29789073Y-99915698D02*
X29869886Y-99996510D01*
X29869886Y-99996510D02*
X29896823Y-100077323D01*
X29896823Y-100077323D02*
X29896823Y-100131197D01*
X29896823Y-100131197D02*
X29869886Y-100212010D01*
X29869886Y-100212010D02*
X29654386Y-100427509D01*
X30785757Y-99834886D02*
X30462508Y-100158135D01*
X30624133Y-99996510D02*
X30058447Y-99430825D01*
X30058447Y-99430825D02*
X30085385Y-99565512D01*
X30085385Y-99565512D02*
X30085385Y-99673261D01*
X30085385Y-99673261D02*
X30058447Y-99754074D01*
X31324505Y-99296138D02*
X31001257Y-99619387D01*
X31162881Y-99457762D02*
X30597196Y-98892077D01*
X30597196Y-98892077D02*
X30624133Y-99026764D01*
X30624133Y-99026764D02*
X30624133Y-99134513D01*
X30624133Y-99134513D02*
X30597196Y-99215326D01*
X29785013Y-89998134D02*
X29704201Y-90025072D01*
X29704201Y-90025072D02*
X29623388Y-90105884D01*
X29623388Y-90105884D02*
X29569514Y-90213633D01*
X29569514Y-90213633D02*
X29569514Y-90321383D01*
X29569514Y-90321383D02*
X29596451Y-90402195D01*
X29596451Y-90402195D02*
X29677263Y-90536882D01*
X29677263Y-90536882D02*
X29758075Y-90617695D01*
X29758075Y-90617695D02*
X29892762Y-90698507D01*
X29892762Y-90698507D02*
X29973575Y-90725444D01*
X29973575Y-90725444D02*
X30081324Y-90725444D01*
X30081324Y-90725444D02*
X30189074Y-90671569D01*
X30189074Y-90671569D02*
X30242949Y-90617695D01*
X30242949Y-90617695D02*
X30296823Y-90509945D01*
X30296823Y-90509945D02*
X30296823Y-90456070D01*
X30296823Y-90456070D02*
X30108262Y-90267508D01*
X30108262Y-90267508D02*
X30000512Y-90375258D01*
X30593135Y-90267508D02*
X30027449Y-89701823D01*
X30027449Y-89701823D02*
X30242949Y-89486324D01*
X30242949Y-89486324D02*
X30323761Y-89459386D01*
X30323761Y-89459386D02*
X30377636Y-89459386D01*
X30377636Y-89459386D02*
X30458448Y-89486324D01*
X30458448Y-89486324D02*
X30539260Y-89567136D01*
X30539260Y-89567136D02*
X30566197Y-89647948D01*
X30566197Y-89647948D02*
X30566197Y-89701823D01*
X30566197Y-89701823D02*
X30539260Y-89782635D01*
X30539260Y-89782635D02*
X30323761Y-89998134D01*
X30916384Y-89297762D02*
X30835571Y-89324699D01*
X30835571Y-89324699D02*
X30781697Y-89324699D01*
X30781697Y-89324699D02*
X30700884Y-89297762D01*
X30700884Y-89297762D02*
X30673947Y-89270824D01*
X30673947Y-89270824D02*
X30647010Y-89190012D01*
X30647010Y-89190012D02*
X30647010Y-89136137D01*
X30647010Y-89136137D02*
X30673947Y-89055325D01*
X30673947Y-89055325D02*
X30781697Y-88947576D01*
X30781697Y-88947576D02*
X30862509Y-88920638D01*
X30862509Y-88920638D02*
X30916384Y-88920638D01*
X30916384Y-88920638D02*
X30997196Y-88947576D01*
X30997196Y-88947576D02*
X31024133Y-88974513D01*
X31024133Y-88974513D02*
X31051071Y-89055325D01*
X31051071Y-89055325D02*
X31051071Y-89109200D01*
X31051071Y-89109200D02*
X31024133Y-89190012D01*
X31024133Y-89190012D02*
X30916384Y-89297762D01*
X30916384Y-89297762D02*
X30889446Y-89378574D01*
X30889446Y-89378574D02*
X30889446Y-89432449D01*
X30889446Y-89432449D02*
X30916384Y-89513261D01*
X30916384Y-89513261D02*
X31024133Y-89621011D01*
X31024133Y-89621011D02*
X31104945Y-89647948D01*
X31104945Y-89647948D02*
X31158820Y-89647948D01*
X31158820Y-89647948D02*
X31239632Y-89621011D01*
X31239632Y-89621011D02*
X31347382Y-89513261D01*
X31347382Y-89513261D02*
X31374319Y-89432449D01*
X31374319Y-89432449D02*
X31374319Y-89378574D01*
X31374319Y-89378574D02*
X31347382Y-89297762D01*
X31347382Y-89297762D02*
X31239632Y-89190012D01*
X31239632Y-89190012D02*
X31158820Y-89163075D01*
X31158820Y-89163075D02*
X31104945Y-89163075D01*
X31104945Y-89163075D02*
X31024133Y-89190012D01*
X29685013Y-67128134D02*
X29604201Y-67155072D01*
X29604201Y-67155072D02*
X29523388Y-67235884D01*
X29523388Y-67235884D02*
X29469514Y-67343633D01*
X29469514Y-67343633D02*
X29469514Y-67451383D01*
X29469514Y-67451383D02*
X29496451Y-67532195D01*
X29496451Y-67532195D02*
X29577263Y-67666882D01*
X29577263Y-67666882D02*
X29658075Y-67747695D01*
X29658075Y-67747695D02*
X29792762Y-67828507D01*
X29792762Y-67828507D02*
X29873575Y-67855444D01*
X29873575Y-67855444D02*
X29981324Y-67855444D01*
X29981324Y-67855444D02*
X30089074Y-67801569D01*
X30089074Y-67801569D02*
X30142949Y-67747695D01*
X30142949Y-67747695D02*
X30196823Y-67639945D01*
X30196823Y-67639945D02*
X30196823Y-67586070D01*
X30196823Y-67586070D02*
X30008262Y-67397508D01*
X30008262Y-67397508D02*
X29900512Y-67505258D01*
X30493135Y-67397508D02*
X29927449Y-66831823D01*
X29927449Y-66831823D02*
X30142949Y-66616324D01*
X30142949Y-66616324D02*
X30223761Y-66589386D01*
X30223761Y-66589386D02*
X30277636Y-66589386D01*
X30277636Y-66589386D02*
X30358448Y-66616324D01*
X30358448Y-66616324D02*
X30439260Y-66697136D01*
X30439260Y-66697136D02*
X30466197Y-66777948D01*
X30466197Y-66777948D02*
X30466197Y-66831823D01*
X30466197Y-66831823D02*
X30439260Y-66912635D01*
X30439260Y-66912635D02*
X30223761Y-67128134D01*
X31355132Y-66535511D02*
X31031883Y-66858760D01*
X31193507Y-66697136D02*
X30627822Y-66131450D01*
X30627822Y-66131450D02*
X30654759Y-66266137D01*
X30654759Y-66266137D02*
X30654759Y-66373887D01*
X30654759Y-66373887D02*
X30627822Y-66454699D01*
X29785013Y-64598134D02*
X29704201Y-64625072D01*
X29704201Y-64625072D02*
X29623388Y-64705884D01*
X29623388Y-64705884D02*
X29569514Y-64813633D01*
X29569514Y-64813633D02*
X29569514Y-64921383D01*
X29569514Y-64921383D02*
X29596451Y-65002195D01*
X29596451Y-65002195D02*
X29677263Y-65136882D01*
X29677263Y-65136882D02*
X29758075Y-65217695D01*
X29758075Y-65217695D02*
X29892762Y-65298507D01*
X29892762Y-65298507D02*
X29973575Y-65325444D01*
X29973575Y-65325444D02*
X30081324Y-65325444D01*
X30081324Y-65325444D02*
X30189074Y-65271569D01*
X30189074Y-65271569D02*
X30242949Y-65217695D01*
X30242949Y-65217695D02*
X30296823Y-65109945D01*
X30296823Y-65109945D02*
X30296823Y-65056070D01*
X30296823Y-65056070D02*
X30108262Y-64867508D01*
X30108262Y-64867508D02*
X30000512Y-64975258D01*
X30593135Y-64867508D02*
X30027449Y-64301823D01*
X30027449Y-64301823D02*
X30242949Y-64086324D01*
X30242949Y-64086324D02*
X30323761Y-64059386D01*
X30323761Y-64059386D02*
X30377636Y-64059386D01*
X30377636Y-64059386D02*
X30458448Y-64086324D01*
X30458448Y-64086324D02*
X30539260Y-64167136D01*
X30539260Y-64167136D02*
X30566197Y-64247948D01*
X30566197Y-64247948D02*
X30566197Y-64301823D01*
X30566197Y-64301823D02*
X30539260Y-64382635D01*
X30539260Y-64382635D02*
X30323761Y-64598134D01*
X30700884Y-63628388D02*
X30754759Y-63574513D01*
X30754759Y-63574513D02*
X30835571Y-63547576D01*
X30835571Y-63547576D02*
X30889446Y-63547576D01*
X30889446Y-63547576D02*
X30970258Y-63574513D01*
X30970258Y-63574513D02*
X31104945Y-63655325D01*
X31104945Y-63655325D02*
X31239632Y-63790012D01*
X31239632Y-63790012D02*
X31320445Y-63924699D01*
X31320445Y-63924699D02*
X31347382Y-64005511D01*
X31347382Y-64005511D02*
X31347382Y-64059386D01*
X31347382Y-64059386D02*
X31320445Y-64140198D01*
X31320445Y-64140198D02*
X31266570Y-64194073D01*
X31266570Y-64194073D02*
X31185758Y-64221011D01*
X31185758Y-64221011D02*
X31131883Y-64221011D01*
X31131883Y-64221011D02*
X31051071Y-64194073D01*
X31051071Y-64194073D02*
X30916384Y-64113261D01*
X30916384Y-64113261D02*
X30781697Y-63978574D01*
X30781697Y-63978574D02*
X30700884Y-63843887D01*
X30700884Y-63843887D02*
X30673947Y-63763075D01*
X30673947Y-63763075D02*
X30673947Y-63709200D01*
X30673947Y-63709200D02*
X30700884Y-63628388D01*
X55369638Y-113127509D02*
X55288826Y-113154446D01*
X55288826Y-113154446D02*
X55208014Y-113235258D01*
X55208014Y-113235258D02*
X55154139Y-113343008D01*
X55154139Y-113343008D02*
X55154139Y-113450758D01*
X55154139Y-113450758D02*
X55181077Y-113531570D01*
X55181077Y-113531570D02*
X55261889Y-113666257D01*
X55261889Y-113666257D02*
X55342701Y-113747069D01*
X55342701Y-113747069D02*
X55477388Y-113827881D01*
X55477388Y-113827881D02*
X55558200Y-113854819D01*
X55558200Y-113854819D02*
X55665950Y-113854819D01*
X55665950Y-113854819D02*
X55773699Y-113800944D01*
X55773699Y-113800944D02*
X55827574Y-113747069D01*
X55827574Y-113747069D02*
X55881449Y-113639319D01*
X55881449Y-113639319D02*
X55881449Y-113585445D01*
X55881449Y-113585445D02*
X55692887Y-113396883D01*
X55692887Y-113396883D02*
X55585138Y-113504632D01*
X56177760Y-113396883D02*
X55612075Y-112831197D01*
X55612075Y-112831197D02*
X55827574Y-112615698D01*
X55827574Y-112615698D02*
X55908386Y-112588761D01*
X55908386Y-112588761D02*
X55962261Y-112588761D01*
X55962261Y-112588761D02*
X56043073Y-112615698D01*
X56043073Y-112615698D02*
X56123886Y-112696510D01*
X56123886Y-112696510D02*
X56150823Y-112777323D01*
X56150823Y-112777323D02*
X56150823Y-112831197D01*
X56150823Y-112831197D02*
X56123886Y-112912010D01*
X56123886Y-112912010D02*
X55908386Y-113127509D01*
X57039757Y-112534886D02*
X56716508Y-112858135D01*
X56878133Y-112696510D02*
X56312447Y-112130825D01*
X56312447Y-112130825D02*
X56339385Y-112265512D01*
X56339385Y-112265512D02*
X56339385Y-112373261D01*
X56339385Y-112373261D02*
X56312447Y-112454074D01*
X56958945Y-111484327D02*
X56851196Y-111592077D01*
X56851196Y-111592077D02*
X56824258Y-111672889D01*
X56824258Y-111672889D02*
X56824258Y-111726764D01*
X56824258Y-111726764D02*
X56851196Y-111861451D01*
X56851196Y-111861451D02*
X56932008Y-111996138D01*
X56932008Y-111996138D02*
X57147507Y-112211637D01*
X57147507Y-112211637D02*
X57228319Y-112238574D01*
X57228319Y-112238574D02*
X57282194Y-112238574D01*
X57282194Y-112238574D02*
X57363006Y-112211637D01*
X57363006Y-112211637D02*
X57470756Y-112103887D01*
X57470756Y-112103887D02*
X57497693Y-112023075D01*
X57497693Y-112023075D02*
X57497693Y-111969200D01*
X57497693Y-111969200D02*
X57470756Y-111888388D01*
X57470756Y-111888388D02*
X57336069Y-111753701D01*
X57336069Y-111753701D02*
X57255257Y-111726764D01*
X57255257Y-111726764D02*
X57201382Y-111726764D01*
X57201382Y-111726764D02*
X57120570Y-111753701D01*
X57120570Y-111753701D02*
X57012820Y-111861451D01*
X57012820Y-111861451D02*
X56985883Y-111942263D01*
X56985883Y-111942263D02*
X56985883Y-111996138D01*
X56985883Y-111996138D02*
X57012820Y-112076950D01*
X55423514Y-83347880D02*
X55692888Y-83078506D01*
X55531263Y-83563380D02*
X55154140Y-82809132D01*
X55154140Y-82809132D02*
X55908387Y-83186256D01*
X55854512Y-82162635D02*
X55773700Y-82189572D01*
X55773700Y-82189572D02*
X55692888Y-82270385D01*
X55692888Y-82270385D02*
X55639013Y-82378134D01*
X55639013Y-82378134D02*
X55639013Y-82485884D01*
X55639013Y-82485884D02*
X55665950Y-82566696D01*
X55665950Y-82566696D02*
X55746762Y-82701383D01*
X55746762Y-82701383D02*
X55827575Y-82782195D01*
X55827575Y-82782195D02*
X55962262Y-82863007D01*
X55962262Y-82863007D02*
X56043074Y-82889945D01*
X56043074Y-82889945D02*
X56150823Y-82889945D01*
X56150823Y-82889945D02*
X56258573Y-82836070D01*
X56258573Y-82836070D02*
X56312448Y-82782195D01*
X56312448Y-82782195D02*
X56366323Y-82674446D01*
X56366323Y-82674446D02*
X56366323Y-82620571D01*
X56366323Y-82620571D02*
X56177761Y-82432009D01*
X56177761Y-82432009D02*
X56070011Y-82539759D01*
X56662634Y-82432009D02*
X56096949Y-81866324D01*
X56096949Y-81866324D02*
X56985883Y-82108760D01*
X56985883Y-82108760D02*
X56420197Y-81543075D01*
X57255257Y-81839386D02*
X56689571Y-81273701D01*
X56689571Y-81273701D02*
X56824258Y-81139014D01*
X56824258Y-81139014D02*
X56932008Y-81085139D01*
X56932008Y-81085139D02*
X57039758Y-81085139D01*
X57039758Y-81085139D02*
X57120570Y-81112077D01*
X57120570Y-81112077D02*
X57255257Y-81192889D01*
X57255257Y-81192889D02*
X57336069Y-81273701D01*
X57336069Y-81273701D02*
X57416881Y-81408388D01*
X57416881Y-81408388D02*
X57443819Y-81489200D01*
X57443819Y-81489200D02*
X57443819Y-81596950D01*
X57443819Y-81596950D02*
X57389944Y-81704699D01*
X57389944Y-81704699D02*
X57255257Y-81839386D01*
X29758076Y-107805072D02*
X29677263Y-107832009D01*
X29677263Y-107832009D02*
X29596451Y-107912821D01*
X29596451Y-107912821D02*
X29542576Y-108020571D01*
X29542576Y-108020571D02*
X29542576Y-108128320D01*
X29542576Y-108128320D02*
X29569514Y-108209133D01*
X29569514Y-108209133D02*
X29650326Y-108343820D01*
X29650326Y-108343820D02*
X29731138Y-108424632D01*
X29731138Y-108424632D02*
X29865825Y-108505444D01*
X29865825Y-108505444D02*
X29946637Y-108532381D01*
X29946637Y-108532381D02*
X30054387Y-108532381D01*
X30054387Y-108532381D02*
X30162137Y-108478507D01*
X30162137Y-108478507D02*
X30216011Y-108424632D01*
X30216011Y-108424632D02*
X30269886Y-108316882D01*
X30269886Y-108316882D02*
X30269886Y-108263007D01*
X30269886Y-108263007D02*
X30081324Y-108074446D01*
X30081324Y-108074446D02*
X29973575Y-108182195D01*
X30566198Y-108074446D02*
X30000512Y-107508760D01*
X30000512Y-107508760D02*
X30889446Y-107751197D01*
X30889446Y-107751197D02*
X30323761Y-107185511D01*
X31158820Y-107481823D02*
X30593135Y-106916137D01*
X30593135Y-106916137D02*
X30727822Y-106781450D01*
X30727822Y-106781450D02*
X30835571Y-106727576D01*
X30835571Y-106727576D02*
X30943321Y-106727576D01*
X30943321Y-106727576D02*
X31024133Y-106754513D01*
X31024133Y-106754513D02*
X31158820Y-106835325D01*
X31158820Y-106835325D02*
X31239632Y-106916137D01*
X31239632Y-106916137D02*
X31320445Y-107050824D01*
X31320445Y-107050824D02*
X31347382Y-107131637D01*
X31347382Y-107131637D02*
X31347382Y-107239386D01*
X31347382Y-107239386D02*
X31293507Y-107347136D01*
X31293507Y-107347136D02*
X31158820Y-107481823D01*
X55358076Y-107805072D02*
X55277263Y-107832009D01*
X55277263Y-107832009D02*
X55196451Y-107912821D01*
X55196451Y-107912821D02*
X55142576Y-108020571D01*
X55142576Y-108020571D02*
X55142576Y-108128320D01*
X55142576Y-108128320D02*
X55169514Y-108209133D01*
X55169514Y-108209133D02*
X55250326Y-108343820D01*
X55250326Y-108343820D02*
X55331138Y-108424632D01*
X55331138Y-108424632D02*
X55465825Y-108505444D01*
X55465825Y-108505444D02*
X55546637Y-108532381D01*
X55546637Y-108532381D02*
X55654387Y-108532381D01*
X55654387Y-108532381D02*
X55762137Y-108478507D01*
X55762137Y-108478507D02*
X55816011Y-108424632D01*
X55816011Y-108424632D02*
X55869886Y-108316882D01*
X55869886Y-108316882D02*
X55869886Y-108263007D01*
X55869886Y-108263007D02*
X55681324Y-108074446D01*
X55681324Y-108074446D02*
X55573575Y-108182195D01*
X56166198Y-108074446D02*
X55600512Y-107508760D01*
X55600512Y-107508760D02*
X56489446Y-107751197D01*
X56489446Y-107751197D02*
X55923761Y-107185511D01*
X56758820Y-107481823D02*
X56193135Y-106916137D01*
X56193135Y-106916137D02*
X56327822Y-106781450D01*
X56327822Y-106781450D02*
X56435571Y-106727576D01*
X56435571Y-106727576D02*
X56543321Y-106727576D01*
X56543321Y-106727576D02*
X56624133Y-106754513D01*
X56624133Y-106754513D02*
X56758820Y-106835325D01*
X56758820Y-106835325D02*
X56839632Y-106916137D01*
X56839632Y-106916137D02*
X56920445Y-107050824D01*
X56920445Y-107050824D02*
X56947382Y-107131637D01*
X56947382Y-107131637D02*
X56947382Y-107239386D01*
X56947382Y-107239386D02*
X56893507Y-107347136D01*
X56893507Y-107347136D02*
X56758820Y-107481823D01*
X29261638Y-97887509D02*
X29180826Y-97914446D01*
X29180826Y-97914446D02*
X29100014Y-97995258D01*
X29100014Y-97995258D02*
X29046139Y-98103008D01*
X29046139Y-98103008D02*
X29046139Y-98210758D01*
X29046139Y-98210758D02*
X29073077Y-98291570D01*
X29073077Y-98291570D02*
X29153889Y-98426257D01*
X29153889Y-98426257D02*
X29234701Y-98507069D01*
X29234701Y-98507069D02*
X29369388Y-98587881D01*
X29369388Y-98587881D02*
X29450200Y-98614819D01*
X29450200Y-98614819D02*
X29557950Y-98614819D01*
X29557950Y-98614819D02*
X29665699Y-98560944D01*
X29665699Y-98560944D02*
X29719574Y-98507069D01*
X29719574Y-98507069D02*
X29773449Y-98399319D01*
X29773449Y-98399319D02*
X29773449Y-98345445D01*
X29773449Y-98345445D02*
X29584887Y-98156883D01*
X29584887Y-98156883D02*
X29477138Y-98264632D01*
X30069760Y-98156883D02*
X29504075Y-97591197D01*
X29504075Y-97591197D02*
X29719574Y-97375698D01*
X29719574Y-97375698D02*
X29800386Y-97348761D01*
X29800386Y-97348761D02*
X29854261Y-97348761D01*
X29854261Y-97348761D02*
X29935073Y-97375698D01*
X29935073Y-97375698D02*
X30015886Y-97456510D01*
X30015886Y-97456510D02*
X30042823Y-97537323D01*
X30042823Y-97537323D02*
X30042823Y-97591197D01*
X30042823Y-97591197D02*
X30015886Y-97672010D01*
X30015886Y-97672010D02*
X29800386Y-97887509D01*
X30931757Y-97294886D02*
X30608508Y-97618135D01*
X30770133Y-97456510D02*
X30204447Y-96890825D01*
X30204447Y-96890825D02*
X30231385Y-97025512D01*
X30231385Y-97025512D02*
X30231385Y-97133261D01*
X30231385Y-97133261D02*
X30204447Y-97214074D01*
X30716258Y-96379014D02*
X30770133Y-96325139D01*
X30770133Y-96325139D02*
X30850945Y-96298202D01*
X30850945Y-96298202D02*
X30904820Y-96298202D01*
X30904820Y-96298202D02*
X30985632Y-96325139D01*
X30985632Y-96325139D02*
X31120319Y-96405951D01*
X31120319Y-96405951D02*
X31255006Y-96540638D01*
X31255006Y-96540638D02*
X31335818Y-96675326D01*
X31335818Y-96675326D02*
X31362756Y-96756138D01*
X31362756Y-96756138D02*
X31362756Y-96810013D01*
X31362756Y-96810013D02*
X31335818Y-96890825D01*
X31335818Y-96890825D02*
X31281944Y-96944700D01*
X31281944Y-96944700D02*
X31201131Y-96971637D01*
X31201131Y-96971637D02*
X31147257Y-96971637D01*
X31147257Y-96971637D02*
X31066444Y-96944700D01*
X31066444Y-96944700D02*
X30931757Y-96863887D01*
X30931757Y-96863887D02*
X30797070Y-96729200D01*
X30797070Y-96729200D02*
X30716258Y-96594513D01*
X30716258Y-96594513D02*
X30689321Y-96513701D01*
X30689321Y-96513701D02*
X30689321Y-96459826D01*
X30689321Y-96459826D02*
X30716258Y-96379014D01*
X55369638Y-97897509D02*
X55288826Y-97924446D01*
X55288826Y-97924446D02*
X55208014Y-98005258D01*
X55208014Y-98005258D02*
X55154139Y-98113008D01*
X55154139Y-98113008D02*
X55154139Y-98220758D01*
X55154139Y-98220758D02*
X55181077Y-98301570D01*
X55181077Y-98301570D02*
X55261889Y-98436257D01*
X55261889Y-98436257D02*
X55342701Y-98517069D01*
X55342701Y-98517069D02*
X55477388Y-98597881D01*
X55477388Y-98597881D02*
X55558200Y-98624819D01*
X55558200Y-98624819D02*
X55665950Y-98624819D01*
X55665950Y-98624819D02*
X55773699Y-98570944D01*
X55773699Y-98570944D02*
X55827574Y-98517069D01*
X55827574Y-98517069D02*
X55881449Y-98409319D01*
X55881449Y-98409319D02*
X55881449Y-98355445D01*
X55881449Y-98355445D02*
X55692887Y-98166883D01*
X55692887Y-98166883D02*
X55585138Y-98274632D01*
X56177760Y-98166883D02*
X55612075Y-97601197D01*
X55612075Y-97601197D02*
X55827574Y-97385698D01*
X55827574Y-97385698D02*
X55908386Y-97358761D01*
X55908386Y-97358761D02*
X55962261Y-97358761D01*
X55962261Y-97358761D02*
X56043073Y-97385698D01*
X56043073Y-97385698D02*
X56123886Y-97466510D01*
X56123886Y-97466510D02*
X56150823Y-97547323D01*
X56150823Y-97547323D02*
X56150823Y-97601197D01*
X56150823Y-97601197D02*
X56123886Y-97682010D01*
X56123886Y-97682010D02*
X55908386Y-97897509D01*
X56204698Y-97116324D02*
X56204698Y-97062449D01*
X56204698Y-97062449D02*
X56231635Y-96981637D01*
X56231635Y-96981637D02*
X56366322Y-96846950D01*
X56366322Y-96846950D02*
X56447134Y-96820013D01*
X56447134Y-96820013D02*
X56501009Y-96820013D01*
X56501009Y-96820013D02*
X56581821Y-96846950D01*
X56581821Y-96846950D02*
X56635696Y-96900825D01*
X56635696Y-96900825D02*
X56689571Y-97008574D01*
X56689571Y-97008574D02*
X56689571Y-97655072D01*
X56689571Y-97655072D02*
X57039757Y-97304886D01*
X57578505Y-96766138D02*
X57255257Y-97089387D01*
X57416881Y-96927762D02*
X56851196Y-96362077D01*
X56851196Y-96362077D02*
X56878133Y-96496764D01*
X56878133Y-96496764D02*
X56878133Y-96604513D01*
X56878133Y-96604513D02*
X56851196Y-96685326D01*
X55369638Y-79853509D02*
X55288826Y-79880446D01*
X55288826Y-79880446D02*
X55208014Y-79961258D01*
X55208014Y-79961258D02*
X55154139Y-80069008D01*
X55154139Y-80069008D02*
X55154139Y-80176758D01*
X55154139Y-80176758D02*
X55181077Y-80257570D01*
X55181077Y-80257570D02*
X55261889Y-80392257D01*
X55261889Y-80392257D02*
X55342701Y-80473069D01*
X55342701Y-80473069D02*
X55477388Y-80553881D01*
X55477388Y-80553881D02*
X55558200Y-80580819D01*
X55558200Y-80580819D02*
X55665950Y-80580819D01*
X55665950Y-80580819D02*
X55773699Y-80526944D01*
X55773699Y-80526944D02*
X55827574Y-80473069D01*
X55827574Y-80473069D02*
X55881449Y-80365319D01*
X55881449Y-80365319D02*
X55881449Y-80311445D01*
X55881449Y-80311445D02*
X55692887Y-80122883D01*
X55692887Y-80122883D02*
X55585138Y-80230632D01*
X56177760Y-80122883D02*
X55612075Y-79557197D01*
X55612075Y-79557197D02*
X55827574Y-79341698D01*
X55827574Y-79341698D02*
X55908386Y-79314761D01*
X55908386Y-79314761D02*
X55962261Y-79314761D01*
X55962261Y-79314761D02*
X56043073Y-79341698D01*
X56043073Y-79341698D02*
X56123886Y-79422510D01*
X56123886Y-79422510D02*
X56150823Y-79503323D01*
X56150823Y-79503323D02*
X56150823Y-79557197D01*
X56150823Y-79557197D02*
X56123886Y-79638010D01*
X56123886Y-79638010D02*
X55908386Y-79853509D01*
X56204698Y-79072324D02*
X56204698Y-79018449D01*
X56204698Y-79018449D02*
X56231635Y-78937637D01*
X56231635Y-78937637D02*
X56366322Y-78802950D01*
X56366322Y-78802950D02*
X56447134Y-78776013D01*
X56447134Y-78776013D02*
X56501009Y-78776013D01*
X56501009Y-78776013D02*
X56581821Y-78802950D01*
X56581821Y-78802950D02*
X56635696Y-78856825D01*
X56635696Y-78856825D02*
X56689571Y-78964574D01*
X56689571Y-78964574D02*
X56689571Y-79611072D01*
X56689571Y-79611072D02*
X57039757Y-79260886D01*
X57039757Y-78614388D02*
X56958945Y-78641326D01*
X56958945Y-78641326D02*
X56905070Y-78641326D01*
X56905070Y-78641326D02*
X56824258Y-78614388D01*
X56824258Y-78614388D02*
X56797321Y-78587451D01*
X56797321Y-78587451D02*
X56770383Y-78506638D01*
X56770383Y-78506638D02*
X56770383Y-78452764D01*
X56770383Y-78452764D02*
X56797321Y-78371951D01*
X56797321Y-78371951D02*
X56905070Y-78264202D01*
X56905070Y-78264202D02*
X56985883Y-78237264D01*
X56985883Y-78237264D02*
X57039757Y-78237264D01*
X57039757Y-78237264D02*
X57120570Y-78264202D01*
X57120570Y-78264202D02*
X57147507Y-78291139D01*
X57147507Y-78291139D02*
X57174444Y-78371951D01*
X57174444Y-78371951D02*
X57174444Y-78425826D01*
X57174444Y-78425826D02*
X57147507Y-78506638D01*
X57147507Y-78506638D02*
X57039757Y-78614388D01*
X57039757Y-78614388D02*
X57012820Y-78695200D01*
X57012820Y-78695200D02*
X57012820Y-78749075D01*
X57012820Y-78749075D02*
X57039757Y-78829887D01*
X57039757Y-78829887D02*
X57147507Y-78937637D01*
X57147507Y-78937637D02*
X57228319Y-78964574D01*
X57228319Y-78964574D02*
X57282194Y-78964574D01*
X57282194Y-78964574D02*
X57363006Y-78937637D01*
X57363006Y-78937637D02*
X57470756Y-78829887D01*
X57470756Y-78829887D02*
X57497693Y-78749075D01*
X57497693Y-78749075D02*
X57497693Y-78695200D01*
X57497693Y-78695200D02*
X57470756Y-78614388D01*
X57470756Y-78614388D02*
X57363006Y-78506638D01*
X57363006Y-78506638D02*
X57282194Y-78479701D01*
X57282194Y-78479701D02*
X57228319Y-78479701D01*
X57228319Y-78479701D02*
X57147507Y-78506638D01*
X55358076Y-69705072D02*
X55277263Y-69732009D01*
X55277263Y-69732009D02*
X55196451Y-69812821D01*
X55196451Y-69812821D02*
X55142576Y-69920571D01*
X55142576Y-69920571D02*
X55142576Y-70028320D01*
X55142576Y-70028320D02*
X55169514Y-70109133D01*
X55169514Y-70109133D02*
X55250326Y-70243820D01*
X55250326Y-70243820D02*
X55331138Y-70324632D01*
X55331138Y-70324632D02*
X55465825Y-70405444D01*
X55465825Y-70405444D02*
X55546637Y-70432381D01*
X55546637Y-70432381D02*
X55654387Y-70432381D01*
X55654387Y-70432381D02*
X55762137Y-70378507D01*
X55762137Y-70378507D02*
X55816011Y-70324632D01*
X55816011Y-70324632D02*
X55869886Y-70216882D01*
X55869886Y-70216882D02*
X55869886Y-70163007D01*
X55869886Y-70163007D02*
X55681324Y-69974446D01*
X55681324Y-69974446D02*
X55573575Y-70082195D01*
X56166198Y-69974446D02*
X55600512Y-69408760D01*
X55600512Y-69408760D02*
X56489446Y-69651197D01*
X56489446Y-69651197D02*
X55923761Y-69085511D01*
X56758820Y-69381823D02*
X56193135Y-68816137D01*
X56193135Y-68816137D02*
X56327822Y-68681450D01*
X56327822Y-68681450D02*
X56435571Y-68627576D01*
X56435571Y-68627576D02*
X56543321Y-68627576D01*
X56543321Y-68627576D02*
X56624133Y-68654513D01*
X56624133Y-68654513D02*
X56758820Y-68735325D01*
X56758820Y-68735325D02*
X56839632Y-68816137D01*
X56839632Y-68816137D02*
X56920445Y-68950824D01*
X56920445Y-68950824D02*
X56947382Y-69031637D01*
X56947382Y-69031637D02*
X56947382Y-69139386D01*
X56947382Y-69139386D02*
X56893507Y-69247136D01*
X56893507Y-69247136D02*
X56758820Y-69381823D01*
X55192390Y-67676883D02*
X55946637Y-68054006D01*
X55946637Y-68054006D02*
X55569513Y-67299759D01*
X56269886Y-67676883D02*
X56377635Y-67623008D01*
X56377635Y-67623008D02*
X56512322Y-67488321D01*
X56512322Y-67488321D02*
X56539260Y-67407509D01*
X56539260Y-67407509D02*
X56539260Y-67353634D01*
X56539260Y-67353634D02*
X56512322Y-67272822D01*
X56512322Y-67272822D02*
X56458447Y-67218947D01*
X56458447Y-67218947D02*
X56377635Y-67192010D01*
X56377635Y-67192010D02*
X56323760Y-67192010D01*
X56323760Y-67192010D02*
X56242948Y-67218947D01*
X56242948Y-67218947D02*
X56108261Y-67299759D01*
X56108261Y-67299759D02*
X56027449Y-67326697D01*
X56027449Y-67326697D02*
X55973574Y-67326697D01*
X55973574Y-67326697D02*
X55892762Y-67299759D01*
X55892762Y-67299759D02*
X55838887Y-67245884D01*
X55838887Y-67245884D02*
X55811950Y-67165072D01*
X55811950Y-67165072D02*
X55811950Y-67111197D01*
X55811950Y-67111197D02*
X55838887Y-67030385D01*
X55838887Y-67030385D02*
X55973574Y-66895698D01*
X55973574Y-66895698D02*
X56081324Y-66841823D01*
X56700884Y-66761011D02*
X56970258Y-67030385D01*
X56216011Y-66653261D02*
X56700884Y-66761011D01*
X56700884Y-66761011D02*
X56593135Y-66276138D01*
X57293507Y-66653262D02*
X57401256Y-66599387D01*
X57401256Y-66599387D02*
X57535943Y-66464700D01*
X57535943Y-66464700D02*
X57562881Y-66383888D01*
X57562881Y-66383888D02*
X57562881Y-66330013D01*
X57562881Y-66330013D02*
X57535943Y-66249201D01*
X57535943Y-66249201D02*
X57482069Y-66195326D01*
X57482069Y-66195326D02*
X57401256Y-66168388D01*
X57401256Y-66168388D02*
X57347382Y-66168388D01*
X57347382Y-66168388D02*
X57266569Y-66195326D01*
X57266569Y-66195326D02*
X57131882Y-66276138D01*
X57131882Y-66276138D02*
X57051070Y-66303075D01*
X57051070Y-66303075D02*
X56997195Y-66303075D01*
X56997195Y-66303075D02*
X56916383Y-66276138D01*
X56916383Y-66276138D02*
X56862508Y-66222263D01*
X56862508Y-66222263D02*
X56835571Y-66141451D01*
X56835571Y-66141451D02*
X56835571Y-66087576D01*
X56835571Y-66087576D02*
X56862508Y-66006764D01*
X56862508Y-66006764D02*
X56997195Y-65872077D01*
X56997195Y-65872077D02*
X57104945Y-65818202D01*
X29785013Y-79838134D02*
X29704201Y-79865072D01*
X29704201Y-79865072D02*
X29623388Y-79945884D01*
X29623388Y-79945884D02*
X29569514Y-80053633D01*
X29569514Y-80053633D02*
X29569514Y-80161383D01*
X29569514Y-80161383D02*
X29596451Y-80242195D01*
X29596451Y-80242195D02*
X29677263Y-80376882D01*
X29677263Y-80376882D02*
X29758075Y-80457695D01*
X29758075Y-80457695D02*
X29892762Y-80538507D01*
X29892762Y-80538507D02*
X29973575Y-80565444D01*
X29973575Y-80565444D02*
X30081324Y-80565444D01*
X30081324Y-80565444D02*
X30189074Y-80511569D01*
X30189074Y-80511569D02*
X30242949Y-80457695D01*
X30242949Y-80457695D02*
X30296823Y-80349945D01*
X30296823Y-80349945D02*
X30296823Y-80296070D01*
X30296823Y-80296070D02*
X30108262Y-80107508D01*
X30108262Y-80107508D02*
X30000512Y-80215258D01*
X30593135Y-80107508D02*
X30027449Y-79541823D01*
X30027449Y-79541823D02*
X30242949Y-79326324D01*
X30242949Y-79326324D02*
X30323761Y-79299386D01*
X30323761Y-79299386D02*
X30377636Y-79299386D01*
X30377636Y-79299386D02*
X30458448Y-79326324D01*
X30458448Y-79326324D02*
X30539260Y-79407136D01*
X30539260Y-79407136D02*
X30566197Y-79487948D01*
X30566197Y-79487948D02*
X30566197Y-79541823D01*
X30566197Y-79541823D02*
X30539260Y-79622635D01*
X30539260Y-79622635D02*
X30323761Y-79838134D01*
X30862509Y-78706763D02*
X30593135Y-78976137D01*
X30593135Y-78976137D02*
X30835571Y-79272449D01*
X30835571Y-79272449D02*
X30835571Y-79218574D01*
X30835571Y-79218574D02*
X30862509Y-79137762D01*
X30862509Y-79137762D02*
X30997196Y-79003075D01*
X30997196Y-79003075D02*
X31078008Y-78976137D01*
X31078008Y-78976137D02*
X31131883Y-78976137D01*
X31131883Y-78976137D02*
X31212695Y-79003075D01*
X31212695Y-79003075D02*
X31347382Y-79137762D01*
X31347382Y-79137762D02*
X31374319Y-79218574D01*
X31374319Y-79218574D02*
X31374319Y-79272449D01*
X31374319Y-79272449D02*
X31347382Y-79353261D01*
X31347382Y-79353261D02*
X31212695Y-79487948D01*
X31212695Y-79487948D02*
X31131883Y-79514885D01*
X31131883Y-79514885D02*
X31078008Y-79514885D01*
X29758076Y-82405072D02*
X29677263Y-82432009D01*
X29677263Y-82432009D02*
X29596451Y-82512821D01*
X29596451Y-82512821D02*
X29542576Y-82620571D01*
X29542576Y-82620571D02*
X29542576Y-82728320D01*
X29542576Y-82728320D02*
X29569514Y-82809133D01*
X29569514Y-82809133D02*
X29650326Y-82943820D01*
X29650326Y-82943820D02*
X29731138Y-83024632D01*
X29731138Y-83024632D02*
X29865825Y-83105444D01*
X29865825Y-83105444D02*
X29946637Y-83132381D01*
X29946637Y-83132381D02*
X30054387Y-83132381D01*
X30054387Y-83132381D02*
X30162137Y-83078507D01*
X30162137Y-83078507D02*
X30216011Y-83024632D01*
X30216011Y-83024632D02*
X30269886Y-82916882D01*
X30269886Y-82916882D02*
X30269886Y-82863007D01*
X30269886Y-82863007D02*
X30081324Y-82674446D01*
X30081324Y-82674446D02*
X29973575Y-82782195D01*
X30566198Y-82674446D02*
X30000512Y-82108760D01*
X30000512Y-82108760D02*
X30889446Y-82351197D01*
X30889446Y-82351197D02*
X30323761Y-81785511D01*
X31158820Y-82081823D02*
X30593135Y-81516137D01*
X30593135Y-81516137D02*
X30727822Y-81381450D01*
X30727822Y-81381450D02*
X30835571Y-81327576D01*
X30835571Y-81327576D02*
X30943321Y-81327576D01*
X30943321Y-81327576D02*
X31024133Y-81354513D01*
X31024133Y-81354513D02*
X31158820Y-81435325D01*
X31158820Y-81435325D02*
X31239632Y-81516137D01*
X31239632Y-81516137D02*
X31320445Y-81650824D01*
X31320445Y-81650824D02*
X31347382Y-81731637D01*
X31347382Y-81731637D02*
X31347382Y-81839386D01*
X31347382Y-81839386D02*
X31293507Y-81947136D01*
X31293507Y-81947136D02*
X31158820Y-82081823D01*
X55369638Y-85197509D02*
X55288826Y-85224446D01*
X55288826Y-85224446D02*
X55208014Y-85305258D01*
X55208014Y-85305258D02*
X55154139Y-85413008D01*
X55154139Y-85413008D02*
X55154139Y-85520758D01*
X55154139Y-85520758D02*
X55181077Y-85601570D01*
X55181077Y-85601570D02*
X55261889Y-85736257D01*
X55261889Y-85736257D02*
X55342701Y-85817069D01*
X55342701Y-85817069D02*
X55477388Y-85897881D01*
X55477388Y-85897881D02*
X55558200Y-85924819D01*
X55558200Y-85924819D02*
X55665950Y-85924819D01*
X55665950Y-85924819D02*
X55773699Y-85870944D01*
X55773699Y-85870944D02*
X55827574Y-85817069D01*
X55827574Y-85817069D02*
X55881449Y-85709319D01*
X55881449Y-85709319D02*
X55881449Y-85655445D01*
X55881449Y-85655445D02*
X55692887Y-85466883D01*
X55692887Y-85466883D02*
X55585138Y-85574632D01*
X56177760Y-85466883D02*
X55612075Y-84901197D01*
X55612075Y-84901197D02*
X55827574Y-84685698D01*
X55827574Y-84685698D02*
X55908386Y-84658761D01*
X55908386Y-84658761D02*
X55962261Y-84658761D01*
X55962261Y-84658761D02*
X56043073Y-84685698D01*
X56043073Y-84685698D02*
X56123886Y-84766510D01*
X56123886Y-84766510D02*
X56150823Y-84847323D01*
X56150823Y-84847323D02*
X56150823Y-84901197D01*
X56150823Y-84901197D02*
X56123886Y-84982010D01*
X56123886Y-84982010D02*
X55908386Y-85197509D01*
X56204698Y-84416324D02*
X56204698Y-84362449D01*
X56204698Y-84362449D02*
X56231635Y-84281637D01*
X56231635Y-84281637D02*
X56366322Y-84146950D01*
X56366322Y-84146950D02*
X56447134Y-84120013D01*
X56447134Y-84120013D02*
X56501009Y-84120013D01*
X56501009Y-84120013D02*
X56581821Y-84146950D01*
X56581821Y-84146950D02*
X56635696Y-84200825D01*
X56635696Y-84200825D02*
X56689571Y-84308574D01*
X56689571Y-84308574D02*
X56689571Y-84955072D01*
X56689571Y-84955072D02*
X57039757Y-84604886D01*
X56662634Y-83850638D02*
X57039757Y-83473515D01*
X57039757Y-83473515D02*
X57363006Y-84281637D01*
X55369638Y-110587509D02*
X55288826Y-110614446D01*
X55288826Y-110614446D02*
X55208014Y-110695258D01*
X55208014Y-110695258D02*
X55154139Y-110803008D01*
X55154139Y-110803008D02*
X55154139Y-110910758D01*
X55154139Y-110910758D02*
X55181077Y-110991570D01*
X55181077Y-110991570D02*
X55261889Y-111126257D01*
X55261889Y-111126257D02*
X55342701Y-111207069D01*
X55342701Y-111207069D02*
X55477388Y-111287881D01*
X55477388Y-111287881D02*
X55558200Y-111314819D01*
X55558200Y-111314819D02*
X55665950Y-111314819D01*
X55665950Y-111314819D02*
X55773699Y-111260944D01*
X55773699Y-111260944D02*
X55827574Y-111207069D01*
X55827574Y-111207069D02*
X55881449Y-111099319D01*
X55881449Y-111099319D02*
X55881449Y-111045445D01*
X55881449Y-111045445D02*
X55692887Y-110856883D01*
X55692887Y-110856883D02*
X55585138Y-110964632D01*
X56177760Y-110856883D02*
X55612075Y-110291197D01*
X55612075Y-110291197D02*
X55827574Y-110075698D01*
X55827574Y-110075698D02*
X55908386Y-110048761D01*
X55908386Y-110048761D02*
X55962261Y-110048761D01*
X55962261Y-110048761D02*
X56043073Y-110075698D01*
X56043073Y-110075698D02*
X56123886Y-110156510D01*
X56123886Y-110156510D02*
X56150823Y-110237323D01*
X56150823Y-110237323D02*
X56150823Y-110291197D01*
X56150823Y-110291197D02*
X56123886Y-110372010D01*
X56123886Y-110372010D02*
X55908386Y-110587509D01*
X57039757Y-109994886D02*
X56716508Y-110318135D01*
X56878133Y-110156510D02*
X56312447Y-109590825D01*
X56312447Y-109590825D02*
X56339385Y-109725512D01*
X56339385Y-109725512D02*
X56339385Y-109833261D01*
X56339385Y-109833261D02*
X56312447Y-109914074D01*
X56662634Y-109240638D02*
X57039757Y-108863515D01*
X57039757Y-108863515D02*
X57363006Y-109671637D01*
X55426704Y-78140690D02*
X55696078Y-77871316D01*
X55534454Y-78356189D02*
X55157330Y-77601942D01*
X55157330Y-77601942D02*
X55911578Y-77979066D01*
X56100139Y-77790504D02*
X55534454Y-77224819D01*
X55534454Y-77224819D02*
X55669141Y-77090132D01*
X55669141Y-77090132D02*
X55776890Y-77036257D01*
X55776890Y-77036257D02*
X55884640Y-77036257D01*
X55884640Y-77036257D02*
X55965452Y-77063194D01*
X55965452Y-77063194D02*
X56100139Y-77144006D01*
X56100139Y-77144006D02*
X56180951Y-77224819D01*
X56180951Y-77224819D02*
X56261764Y-77359506D01*
X56261764Y-77359506D02*
X56288701Y-77440318D01*
X56288701Y-77440318D02*
X56288701Y-77548067D01*
X56288701Y-77548067D02*
X56234826Y-77655817D01*
X56234826Y-77655817D02*
X56100139Y-77790504D01*
X56935199Y-76847695D02*
X56935199Y-76901570D01*
X56935199Y-76901570D02*
X56881324Y-77009319D01*
X56881324Y-77009319D02*
X56827449Y-77063194D01*
X56827449Y-77063194D02*
X56719699Y-77117069D01*
X56719699Y-77117069D02*
X56611950Y-77117069D01*
X56611950Y-77117069D02*
X56531138Y-77090132D01*
X56531138Y-77090132D02*
X56396451Y-77009319D01*
X56396451Y-77009319D02*
X56315638Y-76928507D01*
X56315638Y-76928507D02*
X56234826Y-76793820D01*
X56234826Y-76793820D02*
X56207889Y-76713008D01*
X56207889Y-76713008D02*
X56207889Y-76605258D01*
X56207889Y-76605258D02*
X56261764Y-76497509D01*
X56261764Y-76497509D02*
X56315638Y-76443634D01*
X56315638Y-76443634D02*
X56423388Y-76389759D01*
X56423388Y-76389759D02*
X56477263Y-76389759D01*
X57150698Y-76847695D02*
X57581696Y-76416696D01*
X57016011Y-75743261D02*
X57770258Y-76120385D01*
X57770258Y-76120385D02*
X57393135Y-75366138D01*
X58470630Y-75420013D02*
X58012695Y-75339201D01*
X58147382Y-75743262D02*
X57581696Y-75177576D01*
X57581696Y-75177576D02*
X57797195Y-74962077D01*
X57797195Y-74962077D02*
X57878008Y-74935139D01*
X57878008Y-74935139D02*
X57931882Y-74935139D01*
X57931882Y-74935139D02*
X58012695Y-74962077D01*
X58012695Y-74962077D02*
X58093507Y-75042889D01*
X58093507Y-75042889D02*
X58120444Y-75123701D01*
X58120444Y-75123701D02*
X58120444Y-75177576D01*
X58120444Y-75177576D02*
X58093507Y-75258388D01*
X58093507Y-75258388D02*
X57878008Y-75473888D01*
X58416756Y-74881265D02*
X58605317Y-74692703D01*
X58982441Y-74908202D02*
X58713067Y-75177576D01*
X58713067Y-75177576D02*
X58147382Y-74611891D01*
X58147382Y-74611891D02*
X58416756Y-74342517D01*
X59117128Y-74180892D02*
X58928567Y-74369454D01*
X59224878Y-74665765D02*
X58659193Y-74100080D01*
X58659193Y-74100080D02*
X58928567Y-73830706D01*
X47224761Y-115110809D02*
X47339047Y-115148904D01*
X47339047Y-115148904D02*
X47529523Y-115148904D01*
X47529523Y-115148904D02*
X47605714Y-115110809D01*
X47605714Y-115110809D02*
X47643809Y-115072714D01*
X47643809Y-115072714D02*
X47681904Y-114996523D01*
X47681904Y-114996523D02*
X47681904Y-114920333D01*
X47681904Y-114920333D02*
X47643809Y-114844142D01*
X47643809Y-114844142D02*
X47605714Y-114806047D01*
X47605714Y-114806047D02*
X47529523Y-114767952D01*
X47529523Y-114767952D02*
X47377142Y-114729857D01*
X47377142Y-114729857D02*
X47300952Y-114691761D01*
X47300952Y-114691761D02*
X47262857Y-114653666D01*
X47262857Y-114653666D02*
X47224761Y-114577476D01*
X47224761Y-114577476D02*
X47224761Y-114501285D01*
X47224761Y-114501285D02*
X47262857Y-114425095D01*
X47262857Y-114425095D02*
X47300952Y-114387000D01*
X47300952Y-114387000D02*
X47377142Y-114348904D01*
X47377142Y-114348904D02*
X47567619Y-114348904D01*
X47567619Y-114348904D02*
X47681904Y-114387000D01*
X47948571Y-114348904D02*
X48139047Y-115148904D01*
X48139047Y-115148904D02*
X48291428Y-114577476D01*
X48291428Y-114577476D02*
X48443809Y-115148904D01*
X48443809Y-115148904D02*
X48634286Y-114348904D01*
X48939048Y-115148904D02*
X48939048Y-114348904D01*
X48939048Y-114348904D02*
X49129524Y-114348904D01*
X49129524Y-114348904D02*
X49243810Y-114387000D01*
X49243810Y-114387000D02*
X49320000Y-114463190D01*
X49320000Y-114463190D02*
X49358095Y-114539380D01*
X49358095Y-114539380D02*
X49396191Y-114691761D01*
X49396191Y-114691761D02*
X49396191Y-114806047D01*
X49396191Y-114806047D02*
X49358095Y-114958428D01*
X49358095Y-114958428D02*
X49320000Y-115034619D01*
X49320000Y-115034619D02*
X49243810Y-115110809D01*
X49243810Y-115110809D02*
X49129524Y-115148904D01*
X49129524Y-115148904D02*
X48939048Y-115148904D01*
X49739048Y-115148904D02*
X49739048Y-114348904D01*
X50272381Y-114348904D02*
X50424762Y-114348904D01*
X50424762Y-114348904D02*
X50500952Y-114387000D01*
X50500952Y-114387000D02*
X50577143Y-114463190D01*
X50577143Y-114463190D02*
X50615238Y-114615571D01*
X50615238Y-114615571D02*
X50615238Y-114882238D01*
X50615238Y-114882238D02*
X50577143Y-115034619D01*
X50577143Y-115034619D02*
X50500952Y-115110809D01*
X50500952Y-115110809D02*
X50424762Y-115148904D01*
X50424762Y-115148904D02*
X50272381Y-115148904D01*
X50272381Y-115148904D02*
X50196190Y-115110809D01*
X50196190Y-115110809D02*
X50120000Y-115034619D01*
X50120000Y-115034619D02*
X50081904Y-114882238D01*
X50081904Y-114882238D02*
X50081904Y-114615571D01*
X50081904Y-114615571D02*
X50120000Y-114463190D01*
X50120000Y-114463190D02*
X50196190Y-114387000D01*
X50196190Y-114387000D02*
X50272381Y-114348904D01*
X29785013Y-74758134D02*
X29704201Y-74785072D01*
X29704201Y-74785072D02*
X29623388Y-74865884D01*
X29623388Y-74865884D02*
X29569514Y-74973633D01*
X29569514Y-74973633D02*
X29569514Y-75081383D01*
X29569514Y-75081383D02*
X29596451Y-75162195D01*
X29596451Y-75162195D02*
X29677263Y-75296882D01*
X29677263Y-75296882D02*
X29758075Y-75377695D01*
X29758075Y-75377695D02*
X29892762Y-75458507D01*
X29892762Y-75458507D02*
X29973575Y-75485444D01*
X29973575Y-75485444D02*
X30081324Y-75485444D01*
X30081324Y-75485444D02*
X30189074Y-75431569D01*
X30189074Y-75431569D02*
X30242949Y-75377695D01*
X30242949Y-75377695D02*
X30296823Y-75269945D01*
X30296823Y-75269945D02*
X30296823Y-75216070D01*
X30296823Y-75216070D02*
X30108262Y-75027508D01*
X30108262Y-75027508D02*
X30000512Y-75135258D01*
X30593135Y-75027508D02*
X30027449Y-74461823D01*
X30027449Y-74461823D02*
X30242949Y-74246324D01*
X30242949Y-74246324D02*
X30323761Y-74219386D01*
X30323761Y-74219386D02*
X30377636Y-74219386D01*
X30377636Y-74219386D02*
X30458448Y-74246324D01*
X30458448Y-74246324D02*
X30539260Y-74327136D01*
X30539260Y-74327136D02*
X30566197Y-74407948D01*
X30566197Y-74407948D02*
X30566197Y-74461823D01*
X30566197Y-74461823D02*
X30539260Y-74542635D01*
X30539260Y-74542635D02*
X30323761Y-74758134D01*
X30539260Y-73950012D02*
X30889446Y-73599826D01*
X30889446Y-73599826D02*
X30916384Y-74003887D01*
X30916384Y-74003887D02*
X30997196Y-73923075D01*
X30997196Y-73923075D02*
X31078008Y-73896137D01*
X31078008Y-73896137D02*
X31131883Y-73896137D01*
X31131883Y-73896137D02*
X31212695Y-73923075D01*
X31212695Y-73923075D02*
X31347382Y-74057762D01*
X31347382Y-74057762D02*
X31374319Y-74138574D01*
X31374319Y-74138574D02*
X31374319Y-74192449D01*
X31374319Y-74192449D02*
X31347382Y-74273261D01*
X31347382Y-74273261D02*
X31185758Y-74434885D01*
X31185758Y-74434885D02*
X31104945Y-74461823D01*
X31104945Y-74461823D02*
X31051071Y-74461823D01*
X55369638Y-102967509D02*
X55288826Y-102994446D01*
X55288826Y-102994446D02*
X55208014Y-103075258D01*
X55208014Y-103075258D02*
X55154139Y-103183008D01*
X55154139Y-103183008D02*
X55154139Y-103290758D01*
X55154139Y-103290758D02*
X55181077Y-103371570D01*
X55181077Y-103371570D02*
X55261889Y-103506257D01*
X55261889Y-103506257D02*
X55342701Y-103587069D01*
X55342701Y-103587069D02*
X55477388Y-103667881D01*
X55477388Y-103667881D02*
X55558200Y-103694819D01*
X55558200Y-103694819D02*
X55665950Y-103694819D01*
X55665950Y-103694819D02*
X55773699Y-103640944D01*
X55773699Y-103640944D02*
X55827574Y-103587069D01*
X55827574Y-103587069D02*
X55881449Y-103479319D01*
X55881449Y-103479319D02*
X55881449Y-103425445D01*
X55881449Y-103425445D02*
X55692887Y-103236883D01*
X55692887Y-103236883D02*
X55585138Y-103344632D01*
X56177760Y-103236883D02*
X55612075Y-102671197D01*
X55612075Y-102671197D02*
X55827574Y-102455698D01*
X55827574Y-102455698D02*
X55908386Y-102428761D01*
X55908386Y-102428761D02*
X55962261Y-102428761D01*
X55962261Y-102428761D02*
X56043073Y-102455698D01*
X56043073Y-102455698D02*
X56123886Y-102536510D01*
X56123886Y-102536510D02*
X56150823Y-102617323D01*
X56150823Y-102617323D02*
X56150823Y-102671197D01*
X56150823Y-102671197D02*
X56123886Y-102752010D01*
X56123886Y-102752010D02*
X55908386Y-102967509D01*
X57039757Y-102374886D02*
X56716508Y-102698135D01*
X56878133Y-102536510D02*
X56312447Y-101970825D01*
X56312447Y-101970825D02*
X56339385Y-102105512D01*
X56339385Y-102105512D02*
X56339385Y-102213261D01*
X56339385Y-102213261D02*
X56312447Y-102294074D01*
X57309131Y-102105512D02*
X57416881Y-101997762D01*
X57416881Y-101997762D02*
X57443818Y-101916950D01*
X57443818Y-101916950D02*
X57443818Y-101863075D01*
X57443818Y-101863075D02*
X57416881Y-101728388D01*
X57416881Y-101728388D02*
X57336069Y-101593701D01*
X57336069Y-101593701D02*
X57120570Y-101378202D01*
X57120570Y-101378202D02*
X57039757Y-101351264D01*
X57039757Y-101351264D02*
X56985883Y-101351264D01*
X56985883Y-101351264D02*
X56905070Y-101378202D01*
X56905070Y-101378202D02*
X56797321Y-101485951D01*
X56797321Y-101485951D02*
X56770383Y-101566764D01*
X56770383Y-101566764D02*
X56770383Y-101620638D01*
X56770383Y-101620638D02*
X56797321Y-101701451D01*
X56797321Y-101701451D02*
X56932008Y-101836138D01*
X56932008Y-101836138D02*
X57012820Y-101863075D01*
X57012820Y-101863075D02*
X57066695Y-101863075D01*
X57066695Y-101863075D02*
X57147507Y-101836138D01*
X57147507Y-101836138D02*
X57255257Y-101728388D01*
X57255257Y-101728388D02*
X57282194Y-101647576D01*
X57282194Y-101647576D02*
X57282194Y-101593701D01*
X57282194Y-101593701D02*
X57255257Y-101512889D01*
X29115638Y-102967509D02*
X29034826Y-102994446D01*
X29034826Y-102994446D02*
X28954014Y-103075258D01*
X28954014Y-103075258D02*
X28900139Y-103183008D01*
X28900139Y-103183008D02*
X28900139Y-103290758D01*
X28900139Y-103290758D02*
X28927077Y-103371570D01*
X28927077Y-103371570D02*
X29007889Y-103506257D01*
X29007889Y-103506257D02*
X29088701Y-103587069D01*
X29088701Y-103587069D02*
X29223388Y-103667881D01*
X29223388Y-103667881D02*
X29304200Y-103694819D01*
X29304200Y-103694819D02*
X29411950Y-103694819D01*
X29411950Y-103694819D02*
X29519699Y-103640944D01*
X29519699Y-103640944D02*
X29573574Y-103587069D01*
X29573574Y-103587069D02*
X29627449Y-103479319D01*
X29627449Y-103479319D02*
X29627449Y-103425445D01*
X29627449Y-103425445D02*
X29438887Y-103236883D01*
X29438887Y-103236883D02*
X29331138Y-103344632D01*
X29923760Y-103236883D02*
X29358075Y-102671197D01*
X29358075Y-102671197D02*
X29573574Y-102455698D01*
X29573574Y-102455698D02*
X29654386Y-102428761D01*
X29654386Y-102428761D02*
X29708261Y-102428761D01*
X29708261Y-102428761D02*
X29789073Y-102455698D01*
X29789073Y-102455698D02*
X29869886Y-102536510D01*
X29869886Y-102536510D02*
X29896823Y-102617323D01*
X29896823Y-102617323D02*
X29896823Y-102671197D01*
X29896823Y-102671197D02*
X29869886Y-102752010D01*
X29869886Y-102752010D02*
X29654386Y-102967509D01*
X30785757Y-102374886D02*
X30462508Y-102698135D01*
X30624133Y-102536510D02*
X30058447Y-101970825D01*
X30058447Y-101970825D02*
X30085385Y-102105512D01*
X30085385Y-102105512D02*
X30085385Y-102213261D01*
X30085385Y-102213261D02*
X30058447Y-102294074D01*
X30489446Y-101647576D02*
X30489446Y-101593701D01*
X30489446Y-101593701D02*
X30516383Y-101512889D01*
X30516383Y-101512889D02*
X30651070Y-101378202D01*
X30651070Y-101378202D02*
X30731883Y-101351264D01*
X30731883Y-101351264D02*
X30785757Y-101351264D01*
X30785757Y-101351264D02*
X30866570Y-101378202D01*
X30866570Y-101378202D02*
X30920444Y-101432077D01*
X30920444Y-101432077D02*
X30974319Y-101539826D01*
X30974319Y-101539826D02*
X30974319Y-102186324D01*
X30974319Y-102186324D02*
X31324505Y-101836138D01*
X29785013Y-92538134D02*
X29704201Y-92565072D01*
X29704201Y-92565072D02*
X29623388Y-92645884D01*
X29623388Y-92645884D02*
X29569514Y-92753633D01*
X29569514Y-92753633D02*
X29569514Y-92861383D01*
X29569514Y-92861383D02*
X29596451Y-92942195D01*
X29596451Y-92942195D02*
X29677263Y-93076882D01*
X29677263Y-93076882D02*
X29758075Y-93157695D01*
X29758075Y-93157695D02*
X29892762Y-93238507D01*
X29892762Y-93238507D02*
X29973575Y-93265444D01*
X29973575Y-93265444D02*
X30081324Y-93265444D01*
X30081324Y-93265444D02*
X30189074Y-93211569D01*
X30189074Y-93211569D02*
X30242949Y-93157695D01*
X30242949Y-93157695D02*
X30296823Y-93049945D01*
X30296823Y-93049945D02*
X30296823Y-92996070D01*
X30296823Y-92996070D02*
X30108262Y-92807508D01*
X30108262Y-92807508D02*
X30000512Y-92915258D01*
X30593135Y-92807508D02*
X30027449Y-92241823D01*
X30027449Y-92241823D02*
X30242949Y-92026324D01*
X30242949Y-92026324D02*
X30323761Y-91999386D01*
X30323761Y-91999386D02*
X30377636Y-91999386D01*
X30377636Y-91999386D02*
X30458448Y-92026324D01*
X30458448Y-92026324D02*
X30539260Y-92107136D01*
X30539260Y-92107136D02*
X30566197Y-92187948D01*
X30566197Y-92187948D02*
X30566197Y-92241823D01*
X30566197Y-92241823D02*
X30539260Y-92322635D01*
X30539260Y-92322635D02*
X30323761Y-92538134D01*
X31185758Y-92214885D02*
X31293507Y-92107136D01*
X31293507Y-92107136D02*
X31320445Y-92026324D01*
X31320445Y-92026324D02*
X31320445Y-91972449D01*
X31320445Y-91972449D02*
X31293507Y-91837762D01*
X31293507Y-91837762D02*
X31212695Y-91703075D01*
X31212695Y-91703075D02*
X30997196Y-91487576D01*
X30997196Y-91487576D02*
X30916384Y-91460638D01*
X30916384Y-91460638D02*
X30862509Y-91460638D01*
X30862509Y-91460638D02*
X30781697Y-91487576D01*
X30781697Y-91487576D02*
X30673947Y-91595325D01*
X30673947Y-91595325D02*
X30647010Y-91676137D01*
X30647010Y-91676137D02*
X30647010Y-91730012D01*
X30647010Y-91730012D02*
X30673947Y-91810824D01*
X30673947Y-91810824D02*
X30808634Y-91945511D01*
X30808634Y-91945511D02*
X30889446Y-91972449D01*
X30889446Y-91972449D02*
X30943321Y-91972449D01*
X30943321Y-91972449D02*
X31024133Y-91945511D01*
X31024133Y-91945511D02*
X31131883Y-91837762D01*
X31131883Y-91837762D02*
X31158820Y-91756950D01*
X31158820Y-91756950D02*
X31158820Y-91703075D01*
X31158820Y-91703075D02*
X31131883Y-91622263D01*
X55369638Y-105507509D02*
X55288826Y-105534446D01*
X55288826Y-105534446D02*
X55208014Y-105615258D01*
X55208014Y-105615258D02*
X55154139Y-105723008D01*
X55154139Y-105723008D02*
X55154139Y-105830758D01*
X55154139Y-105830758D02*
X55181077Y-105911570D01*
X55181077Y-105911570D02*
X55261889Y-106046257D01*
X55261889Y-106046257D02*
X55342701Y-106127069D01*
X55342701Y-106127069D02*
X55477388Y-106207881D01*
X55477388Y-106207881D02*
X55558200Y-106234819D01*
X55558200Y-106234819D02*
X55665950Y-106234819D01*
X55665950Y-106234819D02*
X55773699Y-106180944D01*
X55773699Y-106180944D02*
X55827574Y-106127069D01*
X55827574Y-106127069D02*
X55881449Y-106019319D01*
X55881449Y-106019319D02*
X55881449Y-105965445D01*
X55881449Y-105965445D02*
X55692887Y-105776883D01*
X55692887Y-105776883D02*
X55585138Y-105884632D01*
X56177760Y-105776883D02*
X55612075Y-105211197D01*
X55612075Y-105211197D02*
X55827574Y-104995698D01*
X55827574Y-104995698D02*
X55908386Y-104968761D01*
X55908386Y-104968761D02*
X55962261Y-104968761D01*
X55962261Y-104968761D02*
X56043073Y-104995698D01*
X56043073Y-104995698D02*
X56123886Y-105076510D01*
X56123886Y-105076510D02*
X56150823Y-105157323D01*
X56150823Y-105157323D02*
X56150823Y-105211197D01*
X56150823Y-105211197D02*
X56123886Y-105292010D01*
X56123886Y-105292010D02*
X55908386Y-105507509D01*
X57039757Y-104914886D02*
X56716508Y-105238135D01*
X56878133Y-105076510D02*
X56312447Y-104510825D01*
X56312447Y-104510825D02*
X56339385Y-104645512D01*
X56339385Y-104645512D02*
X56339385Y-104753261D01*
X56339385Y-104753261D02*
X56312447Y-104834074D01*
X57039757Y-104268388D02*
X56958945Y-104295326D01*
X56958945Y-104295326D02*
X56905070Y-104295326D01*
X56905070Y-104295326D02*
X56824258Y-104268388D01*
X56824258Y-104268388D02*
X56797321Y-104241451D01*
X56797321Y-104241451D02*
X56770383Y-104160638D01*
X56770383Y-104160638D02*
X56770383Y-104106764D01*
X56770383Y-104106764D02*
X56797321Y-104025951D01*
X56797321Y-104025951D02*
X56905070Y-103918202D01*
X56905070Y-103918202D02*
X56985883Y-103891264D01*
X56985883Y-103891264D02*
X57039757Y-103891264D01*
X57039757Y-103891264D02*
X57120570Y-103918202D01*
X57120570Y-103918202D02*
X57147507Y-103945139D01*
X57147507Y-103945139D02*
X57174444Y-104025951D01*
X57174444Y-104025951D02*
X57174444Y-104079826D01*
X57174444Y-104079826D02*
X57147507Y-104160638D01*
X57147507Y-104160638D02*
X57039757Y-104268388D01*
X57039757Y-104268388D02*
X57012820Y-104349200D01*
X57012820Y-104349200D02*
X57012820Y-104403075D01*
X57012820Y-104403075D02*
X57039757Y-104483887D01*
X57039757Y-104483887D02*
X57147507Y-104591637D01*
X57147507Y-104591637D02*
X57228319Y-104618574D01*
X57228319Y-104618574D02*
X57282194Y-104618574D01*
X57282194Y-104618574D02*
X57363006Y-104591637D01*
X57363006Y-104591637D02*
X57470756Y-104483887D01*
X57470756Y-104483887D02*
X57497693Y-104403075D01*
X57497693Y-104403075D02*
X57497693Y-104349200D01*
X57497693Y-104349200D02*
X57470756Y-104268388D01*
X57470756Y-104268388D02*
X57363006Y-104160638D01*
X57363006Y-104160638D02*
X57282194Y-104133701D01*
X57282194Y-104133701D02*
X57228319Y-104133701D01*
X57228319Y-104133701D02*
X57147507Y-104160638D01*
X29685013Y-72218134D02*
X29604201Y-72245072D01*
X29604201Y-72245072D02*
X29523388Y-72325884D01*
X29523388Y-72325884D02*
X29469514Y-72433633D01*
X29469514Y-72433633D02*
X29469514Y-72541383D01*
X29469514Y-72541383D02*
X29496451Y-72622195D01*
X29496451Y-72622195D02*
X29577263Y-72756882D01*
X29577263Y-72756882D02*
X29658075Y-72837695D01*
X29658075Y-72837695D02*
X29792762Y-72918507D01*
X29792762Y-72918507D02*
X29873575Y-72945444D01*
X29873575Y-72945444D02*
X29981324Y-72945444D01*
X29981324Y-72945444D02*
X30089074Y-72891569D01*
X30089074Y-72891569D02*
X30142949Y-72837695D01*
X30142949Y-72837695D02*
X30196823Y-72729945D01*
X30196823Y-72729945D02*
X30196823Y-72676070D01*
X30196823Y-72676070D02*
X30008262Y-72487508D01*
X30008262Y-72487508D02*
X29900512Y-72595258D01*
X30493135Y-72487508D02*
X29927449Y-71921823D01*
X29927449Y-71921823D02*
X30142949Y-71706324D01*
X30142949Y-71706324D02*
X30223761Y-71679386D01*
X30223761Y-71679386D02*
X30277636Y-71679386D01*
X30277636Y-71679386D02*
X30358448Y-71706324D01*
X30358448Y-71706324D02*
X30439260Y-71787136D01*
X30439260Y-71787136D02*
X30466197Y-71867948D01*
X30466197Y-71867948D02*
X30466197Y-71921823D01*
X30466197Y-71921823D02*
X30439260Y-72002635D01*
X30439260Y-72002635D02*
X30223761Y-72218134D01*
X30520072Y-71436950D02*
X30520072Y-71383075D01*
X30520072Y-71383075D02*
X30547010Y-71302263D01*
X30547010Y-71302263D02*
X30681697Y-71167576D01*
X30681697Y-71167576D02*
X30762509Y-71140638D01*
X30762509Y-71140638D02*
X30816384Y-71140638D01*
X30816384Y-71140638D02*
X30897196Y-71167576D01*
X30897196Y-71167576D02*
X30951071Y-71221450D01*
X30951071Y-71221450D02*
X31004945Y-71329200D01*
X31004945Y-71329200D02*
X31004945Y-71975698D01*
X31004945Y-71975698D02*
X31355132Y-71625511D01*
X55225046Y-65134226D02*
X55979294Y-65511350D01*
X55979294Y-65511350D02*
X55602170Y-64757102D01*
X56248667Y-64649353D02*
X56356417Y-64595478D01*
X56356417Y-64595478D02*
X56410292Y-64595478D01*
X56410292Y-64595478D02*
X56491104Y-64622416D01*
X56491104Y-64622416D02*
X56571916Y-64703228D01*
X56571916Y-64703228D02*
X56598854Y-64784040D01*
X56598854Y-64784040D02*
X56598854Y-64837915D01*
X56598854Y-64837915D02*
X56571916Y-64918727D01*
X56571916Y-64918727D02*
X56356417Y-65134226D01*
X56356417Y-65134226D02*
X55790732Y-64568541D01*
X55790732Y-64568541D02*
X55979293Y-64379979D01*
X55979293Y-64379979D02*
X56060106Y-64353042D01*
X56060106Y-64353042D02*
X56113980Y-64353042D01*
X56113980Y-64353042D02*
X56194793Y-64379979D01*
X56194793Y-64379979D02*
X56248667Y-64433854D01*
X56248667Y-64433854D02*
X56275605Y-64514666D01*
X56275605Y-64514666D02*
X56275605Y-64568541D01*
X56275605Y-64568541D02*
X56248667Y-64649353D01*
X56248667Y-64649353D02*
X56060106Y-64837915D01*
X56356417Y-64002855D02*
X56814353Y-64460791D01*
X56814353Y-64460791D02*
X56895165Y-64487729D01*
X56895165Y-64487729D02*
X56949040Y-64487729D01*
X56949040Y-64487729D02*
X57029852Y-64460791D01*
X57029852Y-64460791D02*
X57137602Y-64353042D01*
X57137602Y-64353042D02*
X57164539Y-64272229D01*
X57164539Y-64272229D02*
X57164539Y-64218355D01*
X57164539Y-64218355D02*
X57137602Y-64137542D01*
X57137602Y-64137542D02*
X56679666Y-63679607D01*
X57460850Y-63975918D02*
X57568600Y-63922043D01*
X57568600Y-63922043D02*
X57703287Y-63787356D01*
X57703287Y-63787356D02*
X57730224Y-63706544D01*
X57730224Y-63706544D02*
X57730224Y-63652669D01*
X57730224Y-63652669D02*
X57703287Y-63571857D01*
X57703287Y-63571857D02*
X57649412Y-63517982D01*
X57649412Y-63517982D02*
X57568600Y-63491045D01*
X57568600Y-63491045D02*
X57514725Y-63491045D01*
X57514725Y-63491045D02*
X57433913Y-63517982D01*
X57433913Y-63517982D02*
X57299226Y-63598794D01*
X57299226Y-63598794D02*
X57218414Y-63625732D01*
X57218414Y-63625732D02*
X57164539Y-63625732D01*
X57164539Y-63625732D02*
X57083727Y-63598794D01*
X57083727Y-63598794D02*
X57029852Y-63544920D01*
X57029852Y-63544920D02*
X57002914Y-63464107D01*
X57002914Y-63464107D02*
X57002914Y-63410233D01*
X57002914Y-63410233D02*
X57029852Y-63329420D01*
X57029852Y-63329420D02*
X57164539Y-63194733D01*
X57164539Y-63194733D02*
X57272288Y-63140859D01*
X29758076Y-95105072D02*
X29677263Y-95132009D01*
X29677263Y-95132009D02*
X29596451Y-95212821D01*
X29596451Y-95212821D02*
X29542576Y-95320571D01*
X29542576Y-95320571D02*
X29542576Y-95428320D01*
X29542576Y-95428320D02*
X29569514Y-95509133D01*
X29569514Y-95509133D02*
X29650326Y-95643820D01*
X29650326Y-95643820D02*
X29731138Y-95724632D01*
X29731138Y-95724632D02*
X29865825Y-95805444D01*
X29865825Y-95805444D02*
X29946637Y-95832381D01*
X29946637Y-95832381D02*
X30054387Y-95832381D01*
X30054387Y-95832381D02*
X30162137Y-95778507D01*
X30162137Y-95778507D02*
X30216011Y-95724632D01*
X30216011Y-95724632D02*
X30269886Y-95616882D01*
X30269886Y-95616882D02*
X30269886Y-95563007D01*
X30269886Y-95563007D02*
X30081324Y-95374446D01*
X30081324Y-95374446D02*
X29973575Y-95482195D01*
X30566198Y-95374446D02*
X30000512Y-94808760D01*
X30000512Y-94808760D02*
X30889446Y-95051197D01*
X30889446Y-95051197D02*
X30323761Y-94485511D01*
X31158820Y-94781823D02*
X30593135Y-94216137D01*
X30593135Y-94216137D02*
X30727822Y-94081450D01*
X30727822Y-94081450D02*
X30835571Y-94027576D01*
X30835571Y-94027576D02*
X30943321Y-94027576D01*
X30943321Y-94027576D02*
X31024133Y-94054513D01*
X31024133Y-94054513D02*
X31158820Y-94135325D01*
X31158820Y-94135325D02*
X31239632Y-94216137D01*
X31239632Y-94216137D02*
X31320445Y-94350824D01*
X31320445Y-94350824D02*
X31347382Y-94431637D01*
X31347382Y-94431637D02*
X31347382Y-94539386D01*
X31347382Y-94539386D02*
X31293507Y-94647136D01*
X31293507Y-94647136D02*
X31158820Y-94781823D01*
%TO.C,REF\u002A\u002A*%
X71126666Y-97573380D02*
X70793333Y-97097190D01*
X70555238Y-97573380D02*
X70555238Y-96573380D01*
X70555238Y-96573380D02*
X70936190Y-96573380D01*
X70936190Y-96573380D02*
X71031428Y-96621000D01*
X71031428Y-96621000D02*
X71079047Y-96668619D01*
X71079047Y-96668619D02*
X71126666Y-96763857D01*
X71126666Y-96763857D02*
X71126666Y-96906714D01*
X71126666Y-96906714D02*
X71079047Y-97001952D01*
X71079047Y-97001952D02*
X71031428Y-97049571D01*
X71031428Y-97049571D02*
X70936190Y-97097190D01*
X70936190Y-97097190D02*
X70555238Y-97097190D01*
X71555238Y-97049571D02*
X71888571Y-97049571D01*
X72031428Y-97573380D02*
X71555238Y-97573380D01*
X71555238Y-97573380D02*
X71555238Y-96573380D01*
X71555238Y-96573380D02*
X72031428Y-96573380D01*
X72793333Y-97049571D02*
X72460000Y-97049571D01*
X72460000Y-97573380D02*
X72460000Y-96573380D01*
X72460000Y-96573380D02*
X72936190Y-96573380D01*
X73460000Y-96573380D02*
X73460000Y-96811476D01*
X73221905Y-96716238D02*
X73460000Y-96811476D01*
X73460000Y-96811476D02*
X73698095Y-96716238D01*
X73317143Y-97001952D02*
X73460000Y-96811476D01*
X73460000Y-96811476D02*
X73602857Y-97001952D01*
X74221905Y-96573380D02*
X74221905Y-96811476D01*
X73983810Y-96716238D02*
X74221905Y-96811476D01*
X74221905Y-96811476D02*
X74460000Y-96716238D01*
X74079048Y-97001952D02*
X74221905Y-96811476D01*
X74221905Y-96811476D02*
X74364762Y-97001952D01*
X91126666Y-97573380D02*
X90793333Y-97097190D01*
X90555238Y-97573380D02*
X90555238Y-96573380D01*
X90555238Y-96573380D02*
X90936190Y-96573380D01*
X90936190Y-96573380D02*
X91031428Y-96621000D01*
X91031428Y-96621000D02*
X91079047Y-96668619D01*
X91079047Y-96668619D02*
X91126666Y-96763857D01*
X91126666Y-96763857D02*
X91126666Y-96906714D01*
X91126666Y-96906714D02*
X91079047Y-97001952D01*
X91079047Y-97001952D02*
X91031428Y-97049571D01*
X91031428Y-97049571D02*
X90936190Y-97097190D01*
X90936190Y-97097190D02*
X90555238Y-97097190D01*
X91555238Y-97049571D02*
X91888571Y-97049571D01*
X92031428Y-97573380D02*
X91555238Y-97573380D01*
X91555238Y-97573380D02*
X91555238Y-96573380D01*
X91555238Y-96573380D02*
X92031428Y-96573380D01*
X92793333Y-97049571D02*
X92460000Y-97049571D01*
X92460000Y-97573380D02*
X92460000Y-96573380D01*
X92460000Y-96573380D02*
X92936190Y-96573380D01*
X93460000Y-96573380D02*
X93460000Y-96811476D01*
X93221905Y-96716238D02*
X93460000Y-96811476D01*
X93460000Y-96811476D02*
X93698095Y-96716238D01*
X93317143Y-97001952D02*
X93460000Y-96811476D01*
X93460000Y-96811476D02*
X93602857Y-97001952D01*
X94221905Y-96573380D02*
X94221905Y-96811476D01*
X93983810Y-96716238D02*
X94221905Y-96811476D01*
X94221905Y-96811476D02*
X94460000Y-96716238D01*
X94079048Y-97001952D02*
X94221905Y-96811476D01*
X94221905Y-96811476D02*
X94364762Y-97001952D01*
X91176666Y-109157380D02*
X90843333Y-108681190D01*
X90605238Y-109157380D02*
X90605238Y-108157380D01*
X90605238Y-108157380D02*
X90986190Y-108157380D01*
X90986190Y-108157380D02*
X91081428Y-108205000D01*
X91081428Y-108205000D02*
X91129047Y-108252619D01*
X91129047Y-108252619D02*
X91176666Y-108347857D01*
X91176666Y-108347857D02*
X91176666Y-108490714D01*
X91176666Y-108490714D02*
X91129047Y-108585952D01*
X91129047Y-108585952D02*
X91081428Y-108633571D01*
X91081428Y-108633571D02*
X90986190Y-108681190D01*
X90986190Y-108681190D02*
X90605238Y-108681190D01*
X91605238Y-108633571D02*
X91938571Y-108633571D01*
X92081428Y-109157380D02*
X91605238Y-109157380D01*
X91605238Y-109157380D02*
X91605238Y-108157380D01*
X91605238Y-108157380D02*
X92081428Y-108157380D01*
X92843333Y-108633571D02*
X92510000Y-108633571D01*
X92510000Y-109157380D02*
X92510000Y-108157380D01*
X92510000Y-108157380D02*
X92986190Y-108157380D01*
X93510000Y-108157380D02*
X93510000Y-108395476D01*
X93271905Y-108300238D02*
X93510000Y-108395476D01*
X93510000Y-108395476D02*
X93748095Y-108300238D01*
X93367143Y-108585952D02*
X93510000Y-108395476D01*
X93510000Y-108395476D02*
X93652857Y-108585952D01*
X94271905Y-108157380D02*
X94271905Y-108395476D01*
X94033810Y-108300238D02*
X94271905Y-108395476D01*
X94271905Y-108395476D02*
X94510000Y-108300238D01*
X94129048Y-108585952D02*
X94271905Y-108395476D01*
X94271905Y-108395476D02*
X94414762Y-108585952D01*
X71026666Y-109047380D02*
X70693333Y-108571190D01*
X70455238Y-109047380D02*
X70455238Y-108047380D01*
X70455238Y-108047380D02*
X70836190Y-108047380D01*
X70836190Y-108047380D02*
X70931428Y-108095000D01*
X70931428Y-108095000D02*
X70979047Y-108142619D01*
X70979047Y-108142619D02*
X71026666Y-108237857D01*
X71026666Y-108237857D02*
X71026666Y-108380714D01*
X71026666Y-108380714D02*
X70979047Y-108475952D01*
X70979047Y-108475952D02*
X70931428Y-108523571D01*
X70931428Y-108523571D02*
X70836190Y-108571190D01*
X70836190Y-108571190D02*
X70455238Y-108571190D01*
X71455238Y-108523571D02*
X71788571Y-108523571D01*
X71931428Y-109047380D02*
X71455238Y-109047380D01*
X71455238Y-109047380D02*
X71455238Y-108047380D01*
X71455238Y-108047380D02*
X71931428Y-108047380D01*
X72693333Y-108523571D02*
X72360000Y-108523571D01*
X72360000Y-109047380D02*
X72360000Y-108047380D01*
X72360000Y-108047380D02*
X72836190Y-108047380D01*
X73360000Y-108047380D02*
X73360000Y-108285476D01*
X73121905Y-108190238D02*
X73360000Y-108285476D01*
X73360000Y-108285476D02*
X73598095Y-108190238D01*
X73217143Y-108475952D02*
X73360000Y-108285476D01*
X73360000Y-108285476D02*
X73502857Y-108475952D01*
X74121905Y-108047380D02*
X74121905Y-108285476D01*
X73883810Y-108190238D02*
X74121905Y-108285476D01*
X74121905Y-108285476D02*
X74360000Y-108190238D01*
X73979048Y-108475952D02*
X74121905Y-108285476D01*
X74121905Y-108285476D02*
X74264762Y-108475952D01*
%TO.C,10uF*%
X59778571Y-65757380D02*
X59207143Y-65757380D01*
X59492857Y-65757380D02*
X59492857Y-64757380D01*
X59492857Y-64757380D02*
X59397619Y-64900238D01*
X59397619Y-64900238D02*
X59302381Y-64995476D01*
X59302381Y-64995476D02*
X59207143Y-65043095D01*
X60397619Y-64757380D02*
X60492857Y-64757380D01*
X60492857Y-64757380D02*
X60588095Y-64805000D01*
X60588095Y-64805000D02*
X60635714Y-64852619D01*
X60635714Y-64852619D02*
X60683333Y-64947857D01*
X60683333Y-64947857D02*
X60730952Y-65138333D01*
X60730952Y-65138333D02*
X60730952Y-65376428D01*
X60730952Y-65376428D02*
X60683333Y-65566904D01*
X60683333Y-65566904D02*
X60635714Y-65662142D01*
X60635714Y-65662142D02*
X60588095Y-65709761D01*
X60588095Y-65709761D02*
X60492857Y-65757380D01*
X60492857Y-65757380D02*
X60397619Y-65757380D01*
X60397619Y-65757380D02*
X60302381Y-65709761D01*
X60302381Y-65709761D02*
X60254762Y-65662142D01*
X60254762Y-65662142D02*
X60207143Y-65566904D01*
X60207143Y-65566904D02*
X60159524Y-65376428D01*
X60159524Y-65376428D02*
X60159524Y-65138333D01*
X60159524Y-65138333D02*
X60207143Y-64947857D01*
X60207143Y-64947857D02*
X60254762Y-64852619D01*
X60254762Y-64852619D02*
X60302381Y-64805000D01*
X60302381Y-64805000D02*
X60397619Y-64757380D01*
X61588095Y-65090714D02*
X61588095Y-65757380D01*
X61159524Y-65090714D02*
X61159524Y-65614523D01*
X61159524Y-65614523D02*
X61207143Y-65709761D01*
X61207143Y-65709761D02*
X61302381Y-65757380D01*
X61302381Y-65757380D02*
X61445238Y-65757380D01*
X61445238Y-65757380D02*
X61540476Y-65709761D01*
X61540476Y-65709761D02*
X61588095Y-65662142D01*
X62397619Y-65233571D02*
X62064286Y-65233571D01*
X62064286Y-65757380D02*
X62064286Y-64757380D01*
X62064286Y-64757380D02*
X62540476Y-64757380D01*
%TO.C,REF\u002A\u002A*%
X23696666Y-116097380D02*
X23363333Y-115621190D01*
X23125238Y-116097380D02*
X23125238Y-115097380D01*
X23125238Y-115097380D02*
X23506190Y-115097380D01*
X23506190Y-115097380D02*
X23601428Y-115145000D01*
X23601428Y-115145000D02*
X23649047Y-115192619D01*
X23649047Y-115192619D02*
X23696666Y-115287857D01*
X23696666Y-115287857D02*
X23696666Y-115430714D01*
X23696666Y-115430714D02*
X23649047Y-115525952D01*
X23649047Y-115525952D02*
X23601428Y-115573571D01*
X23601428Y-115573571D02*
X23506190Y-115621190D01*
X23506190Y-115621190D02*
X23125238Y-115621190D01*
X24125238Y-115573571D02*
X24458571Y-115573571D01*
X24601428Y-116097380D02*
X24125238Y-116097380D01*
X24125238Y-116097380D02*
X24125238Y-115097380D01*
X24125238Y-115097380D02*
X24601428Y-115097380D01*
X25363333Y-115573571D02*
X25030000Y-115573571D01*
X25030000Y-116097380D02*
X25030000Y-115097380D01*
X25030000Y-115097380D02*
X25506190Y-115097380D01*
X26030000Y-115097380D02*
X26030000Y-115335476D01*
X25791905Y-115240238D02*
X26030000Y-115335476D01*
X26030000Y-115335476D02*
X26268095Y-115240238D01*
X25887143Y-115525952D02*
X26030000Y-115335476D01*
X26030000Y-115335476D02*
X26172857Y-115525952D01*
X26791905Y-115097380D02*
X26791905Y-115335476D01*
X26553810Y-115240238D02*
X26791905Y-115335476D01*
X26791905Y-115335476D02*
X27030000Y-115240238D01*
X26649048Y-115525952D02*
X26791905Y-115335476D01*
X26791905Y-115335476D02*
X26934762Y-115525952D01*
D11*
X87228000Y-126870000D02*
X98658000Y-126870000D01*
D12*
X87228000Y-120250000D02*
X98658000Y-120250000D01*
X98658000Y-120250000D02*
X98658000Y-139150000D01*
X98658000Y-139150000D02*
X87228000Y-139150000D01*
X87228000Y-139150000D02*
X87228000Y-120250000D01*
D11*
X66658000Y-126870000D02*
X78088000Y-126870000D01*
D12*
X66658000Y-120250000D02*
X78088000Y-120250000D01*
X78088000Y-120250000D02*
X78088000Y-139150000D01*
X78088000Y-139150000D02*
X66658000Y-139150000D01*
X66658000Y-139150000D02*
X66658000Y-120250000D01*
D11*
%TO.C,SSD1306*%
X68600000Y-62700000D02*
X96000000Y-62700000D01*
X68600000Y-90000000D02*
X68600000Y-62700000D01*
X69022000Y-65995000D02*
X92122000Y-65995000D01*
X69022000Y-82595000D02*
X69022000Y-65995000D01*
X77301000Y-63189000D02*
X77301000Y-65602000D01*
X77301000Y-63189000D02*
X87080000Y-63189000D01*
X87080000Y-63189000D02*
X87080000Y-65602000D01*
X87080000Y-65602000D02*
X77301000Y-65602000D01*
X92122000Y-65995000D02*
X95208000Y-65995000D01*
X92122000Y-82595000D02*
X69022000Y-82595000D01*
X92122000Y-82595000D02*
X95462000Y-82620000D01*
X95462000Y-65983000D02*
X95208000Y-65995000D01*
X95462000Y-82620000D02*
X95462000Y-65983000D01*
X96000000Y-62700000D02*
X96000000Y-90000000D01*
X96000000Y-90000000D02*
X68600000Y-90000000D01*
%TO.C,SHUNT*%
X61620000Y-76790000D02*
X59460000Y-76790000D01*
X61620000Y-76790000D02*
X61620000Y-77720000D01*
X61620000Y-79950000D02*
X60160000Y-79950000D01*
X61620000Y-79950000D02*
X61620000Y-79020000D01*
%TO.C,U1*%
X32820000Y-63155000D02*
X32820000Y-63455000D01*
X32820000Y-63155000D02*
X53820000Y-63155000D01*
X32820000Y-65555000D02*
X32820000Y-65955000D01*
X32820000Y-65822000D02*
X35827000Y-65822000D01*
X32820000Y-68155000D02*
X32820000Y-68555000D01*
X32820000Y-70655000D02*
X32820000Y-71055000D01*
X32820000Y-73255000D02*
X32820000Y-73655000D01*
X32820000Y-75755000D02*
X32820000Y-76155000D01*
X32820000Y-78255000D02*
X32820000Y-78655000D01*
X32820000Y-80855000D02*
X32820000Y-81255000D01*
X32820000Y-83355000D02*
X32820000Y-83755000D01*
X32820000Y-85955000D02*
X32820000Y-86355000D01*
X32820000Y-88455000D02*
X32820000Y-88855000D01*
X32820000Y-90955000D02*
X32820000Y-91355000D01*
X32820000Y-93555000D02*
X32820000Y-93955000D01*
X32820000Y-96055000D02*
X32820000Y-96455000D01*
X32820000Y-98655000D02*
X32820000Y-99055000D01*
X32820000Y-101155000D02*
X32820000Y-101555000D01*
X32820000Y-103755000D02*
X32820000Y-104155000D01*
X32820000Y-106255000D02*
X32820000Y-106655000D01*
X32820000Y-108755000D02*
X32820000Y-109155000D01*
X32820000Y-111355000D02*
X32820000Y-111755000D01*
X35827000Y-65822000D02*
X35827000Y-63155000D01*
X39620000Y-114155000D02*
X32820000Y-114155000D01*
X41820000Y-114155000D02*
X42220000Y-114155000D01*
X44420000Y-114155000D02*
X44820000Y-114155000D01*
X53820000Y-63155000D02*
X53820000Y-63455000D01*
X53820000Y-65555000D02*
X53820000Y-65955000D01*
X53820000Y-68155000D02*
X53820000Y-68555000D01*
X53820000Y-70655000D02*
X53820000Y-71055000D01*
X53820000Y-73255000D02*
X53820000Y-73655000D01*
X53820000Y-75755000D02*
X53820000Y-76155000D01*
X53820000Y-78255000D02*
X53820000Y-78655000D01*
X53820000Y-80855000D02*
X53820000Y-81255000D01*
X53820000Y-83355000D02*
X53820000Y-83755000D01*
X53820000Y-85955000D02*
X53820000Y-86355000D01*
X53820000Y-88455000D02*
X53820000Y-88855000D01*
X53820000Y-90955000D02*
X53820000Y-91355000D01*
X53820000Y-93555000D02*
X53820000Y-93955000D01*
X53820000Y-96055000D02*
X53820000Y-96455000D01*
X53820000Y-98655000D02*
X53820000Y-99055000D01*
X53820000Y-101155000D02*
X53820000Y-101555000D01*
X53820000Y-103755000D02*
X53820000Y-104155000D01*
X53820000Y-106255000D02*
X53820000Y-106655000D01*
X53820000Y-108755000D02*
X53820000Y-109155000D01*
X53820000Y-111355000D02*
X53820000Y-111755000D01*
X53820000Y-114155000D02*
X47020000Y-114155000D01*
%TO.C,REF\u002A\u002A*%
X65475000Y-98095000D02*
X79445000Y-98095000D01*
X65475000Y-112065000D02*
X65475000Y-98095000D01*
X79445000Y-98095000D02*
X79445000Y-112065000D01*
X79445000Y-112065000D02*
X65475000Y-112065000D01*
X85475000Y-98095000D02*
X99445000Y-98095000D01*
X85475000Y-112065000D02*
X85475000Y-98095000D01*
X99445000Y-98095000D02*
X99445000Y-112065000D01*
X99445000Y-112065000D02*
X85475000Y-112065000D01*
X89890000Y-109670000D02*
X95010000Y-109670000D01*
X89890000Y-109990000D02*
X89890000Y-109670000D01*
X90010000Y-114910000D02*
X95010000Y-114910000D01*
X69740000Y-109560000D02*
X74860000Y-109560000D01*
X69740000Y-109880000D02*
X69740000Y-109560000D01*
X69860000Y-114800000D02*
X74860000Y-114800000D01*
%TO.C,10uF*%
X57908748Y-66265000D02*
X58431252Y-66265000D01*
X57908748Y-67735000D02*
X58431252Y-67735000D01*
%TD*%
M02*
