%TF.GenerationSoftware,KiCad,Pcbnew,(7.0.0-0)*%
%TF.CreationDate,2023-02-22T23:02:48-06:00*%
%TF.ProjectId,first_keeb,66697273-745f-46b6-9565-622e6b696361,rev?*%
%TF.SameCoordinates,Original*%
%TF.FileFunction,Copper,L1,Top*%
%TF.FilePolarity,Positive*%
%FSLAX46Y46*%
G04 Gerber Fmt 4.6, Leading zero omitted, Abs format (unit mm)*
G04 Created by KiCad (PCBNEW (7.0.0-0)) date 2023-02-22 23:02:48*
%MOMM*%
%LPD*%
G01*
G04 APERTURE LIST*
G04 Aperture macros list*
%AMRoundRect*
0 Rectangle with rounded corners*
0 $1 Rounding radius*
0 $2 $3 $4 $5 $6 $7 $8 $9 X,Y pos of 4 corners*
0 Add a 4 corners polygon primitive as box body*
4,1,4,$2,$3,$4,$5,$6,$7,$8,$9,$2,$3,0*
0 Add four circle primitives for the rounded corners*
1,1,$1+$1,$2,$3*
1,1,$1+$1,$4,$5*
1,1,$1+$1,$6,$7*
1,1,$1+$1,$8,$9*
0 Add four rect primitives between the rounded corners*
20,1,$1+$1,$2,$3,$4,$5,0*
20,1,$1+$1,$4,$5,$6,$7,0*
20,1,$1+$1,$6,$7,$8,$9,0*
20,1,$1+$1,$8,$9,$2,$3,0*%
G04 Aperture macros list end*
%TA.AperFunction,ComponentPad*%
%ADD10C,1.700000*%
%TD*%
%TA.AperFunction,ComponentPad*%
%ADD11C,2.000000*%
%TD*%
%TA.AperFunction,ComponentPad*%
%ADD12O,1.600000X2.000000*%
%TD*%
%TA.AperFunction,SMDPad,CuDef*%
%ADD13R,0.900000X0.800000*%
%TD*%
%TA.AperFunction,ComponentPad*%
%ADD14O,1.700000X1.700000*%
%TD*%
%TA.AperFunction,SMDPad,CuDef*%
%ADD15R,3.500000X1.700000*%
%TD*%
%TA.AperFunction,ComponentPad*%
%ADD16R,1.700000X1.700000*%
%TD*%
%TA.AperFunction,SMDPad,CuDef*%
%ADD17R,1.700000X3.500000*%
%TD*%
%TA.AperFunction,SMDPad,CuDef*%
%ADD18R,1.500000X1.000000*%
%TD*%
%TA.AperFunction,SMDPad,CuDef*%
%ADD19RoundRect,0.250000X-0.250000X-0.475000X0.250000X-0.475000X0.250000X0.475000X-0.250000X0.475000X0*%
%TD*%
%TA.AperFunction,ViaPad*%
%ADD20C,0.800000*%
%TD*%
%TA.AperFunction,Conductor*%
%ADD21C,0.250000*%
%TD*%
%TA.AperFunction,Conductor*%
%ADD22C,0.200000*%
%TD*%
G04 APERTURE END LIST*
D10*
%TO.P,REF\u002A\u002A,1*%
%TO.N,N/C*%
X90520000Y-124260000D03*
%TO.P,REF\u002A\u002A,2*%
%TO.N,GND*%
X95010000Y-124310000D03*
D11*
%TO.P,REF\u002A\u002A,3*%
X89260000Y-121770000D03*
%TO.P,REF\u002A\u002A,4*%
X96270000Y-121770000D03*
%TD*%
D10*
%TO.P,REF\u002A\u002A,1*%
%TO.N,N/C*%
X69950000Y-124260000D03*
%TO.P,REF\u002A\u002A,2*%
%TO.N,GND*%
X74440000Y-124310000D03*
D11*
%TO.P,REF\u002A\u002A,3*%
X68690000Y-121770000D03*
%TO.P,REF\u002A\u002A,4*%
X75700000Y-121770000D03*
%TD*%
D12*
%TO.P,SSD1306,1*%
%TO.N,GND*%
X78379999Y-64399999D03*
%TO.P,SSD1306,2*%
%TO.N,N/C*%
X80919999Y-64399999D03*
%TO.P,SSD1306,3*%
X83459999Y-64399999D03*
%TO.P,SSD1306,4*%
X85999999Y-64399999D03*
%TD*%
D13*
%TO.P,SHUNT,1*%
%TO.N,N/C*%
X59859999Y-77419999D03*
%TO.P,SHUNT,2*%
%TO.N,GND*%
X59859999Y-79319999D03*
%TO.P,SHUNT,3*%
%TO.N,N/C*%
X61859999Y-78369999D03*
%TD*%
D14*
%TO.P,U1,1*%
%TO.N,N/C*%
X34429999Y-64524999D03*
D15*
X33529999Y-64524999D03*
D14*
%TO.P,U1,2*%
X34429999Y-67064999D03*
D15*
X33529999Y-67064999D03*
D16*
%TO.P,U1,3*%
X34429999Y-69604999D03*
D15*
%TO.N,GND*%
X33529999Y-69604999D03*
D14*
%TO.P,U1,4*%
%TO.N,N/C*%
X34429999Y-72144999D03*
D15*
X33529999Y-72144999D03*
D14*
%TO.P,U1,5*%
X34429999Y-74684999D03*
D15*
X33529999Y-74684999D03*
D14*
%TO.P,U1,6*%
X34429999Y-77224999D03*
D15*
X33529999Y-77224999D03*
D14*
%TO.P,U1,7*%
X34429999Y-79764999D03*
D15*
X33529999Y-79764999D03*
D16*
%TO.P,U1,8*%
X34429999Y-82304999D03*
D15*
%TO.N,GND*%
X33529999Y-82304999D03*
D14*
%TO.P,U1,9*%
%TO.N,N/C*%
X34429999Y-84844999D03*
D15*
X33529999Y-84844999D03*
D14*
%TO.P,U1,10*%
X34429999Y-87384999D03*
D15*
X33529999Y-87384999D03*
D14*
%TO.P,U1,11*%
X34429999Y-89924999D03*
D15*
X33529999Y-89924999D03*
D14*
%TO.P,U1,12*%
X34429999Y-92464999D03*
D15*
X33529999Y-92464999D03*
D16*
%TO.P,U1,13*%
X34429999Y-95004999D03*
D15*
%TO.N,GND*%
X33529999Y-95004999D03*
D14*
%TO.P,U1,14*%
%TO.N,N/C*%
X34429999Y-97544999D03*
D15*
X33529999Y-97544999D03*
D14*
%TO.P,U1,15*%
X34429999Y-100084999D03*
D15*
X33529999Y-100084999D03*
D14*
%TO.P,U1,16*%
X34429999Y-102624999D03*
D15*
X33529999Y-102624999D03*
D14*
%TO.P,U1,17*%
X34429999Y-105164999D03*
D15*
X33529999Y-105164999D03*
D16*
%TO.P,U1,18*%
X34429999Y-107704999D03*
D15*
%TO.N,GND*%
X33529999Y-107704999D03*
D14*
%TO.P,U1,19*%
%TO.N,N/C*%
X34429999Y-110244999D03*
D15*
X33529999Y-110244999D03*
D14*
%TO.P,U1,20*%
X34429999Y-112784999D03*
D15*
X33529999Y-112784999D03*
D14*
%TO.P,U1,21*%
X52209999Y-112784999D03*
D15*
X53109999Y-112784999D03*
D14*
%TO.P,U1,22*%
X52209999Y-110244999D03*
D15*
X53109999Y-110244999D03*
D16*
%TO.P,U1,23*%
X52209999Y-107704999D03*
D15*
%TO.N,GND*%
X53109999Y-107704999D03*
D14*
%TO.P,U1,24*%
%TO.N,N/C*%
X52209999Y-105164999D03*
D15*
X53109999Y-105164999D03*
D14*
%TO.P,U1,25*%
X52209999Y-102624999D03*
D15*
X53109999Y-102624999D03*
D14*
%TO.P,U1,26*%
X52209999Y-100084999D03*
D15*
X53109999Y-100084999D03*
D14*
%TO.P,U1,27*%
X52209999Y-97544999D03*
D15*
X53109999Y-97544999D03*
D16*
%TO.P,U1,28*%
X52209999Y-95004999D03*
D15*
%TO.N,GND*%
X53109999Y-95004999D03*
D14*
%TO.P,U1,29*%
%TO.N,N/C*%
X52209999Y-92464999D03*
D15*
X53109999Y-92464999D03*
D14*
%TO.P,U1,30*%
X52209999Y-89924999D03*
D15*
X53109999Y-89924999D03*
D14*
%TO.P,U1,31*%
X52209999Y-87384999D03*
D15*
X53109999Y-87384999D03*
D14*
%TO.P,U1,32*%
X52209999Y-84844999D03*
D15*
X53109999Y-84844999D03*
D16*
%TO.P,U1,33*%
%TO.N,AGND*%
X52209999Y-82304999D03*
D15*
X53109999Y-82304999D03*
D14*
%TO.P,U1,34*%
%TO.N,N/C*%
X52209999Y-79764999D03*
D15*
X53109999Y-79764999D03*
D14*
%TO.P,U1,35*%
X52209999Y-77224999D03*
D15*
X53109999Y-77224999D03*
D14*
%TO.P,U1,36*%
X52209999Y-74684999D03*
D15*
X53109999Y-74684999D03*
D14*
%TO.P,U1,37*%
X52209999Y-72144999D03*
D15*
X53109999Y-72144999D03*
D16*
%TO.P,U1,38*%
X52209999Y-69604999D03*
D15*
%TO.N,GND*%
X53109999Y-69604999D03*
D14*
%TO.P,U1,39*%
%TO.N,N/C*%
X52209999Y-67064999D03*
D15*
X53109999Y-67064999D03*
D14*
%TO.P,U1,40*%
X52209999Y-64524999D03*
D15*
X53109999Y-64524999D03*
D14*
%TO.P,U1,41*%
X40779999Y-112554999D03*
D17*
X40779999Y-113454999D03*
D16*
%TO.P,U1,42*%
X43319999Y-112554999D03*
D17*
X43319999Y-113454999D03*
D14*
%TO.P,U1,43*%
X45859999Y-112554999D03*
D17*
X45859999Y-113454999D03*
%TD*%
D18*
%TO.P,REF\u002A\u002A,1*%
%TO.N,N/C*%
X90059999Y-110689999D03*
%TO.P,REF\u002A\u002A,2*%
X90059999Y-113889999D03*
%TO.P,REF\u002A\u002A,3*%
%TO.N,GND*%
X94959999Y-113889999D03*
%TO.P,REF\u002A\u002A,4*%
%TO.N,N/C*%
X94959999Y-110689999D03*
%TD*%
%TO.P,REF\u002A\u002A,1*%
%TO.N,N/C*%
X69909999Y-110579999D03*
%TO.P,REF\u002A\u002A,2*%
X69909999Y-113779999D03*
%TO.P,REF\u002A\u002A,3*%
%TO.N,GND*%
X74809999Y-113779999D03*
%TO.P,REF\u002A\u002A,4*%
%TO.N,N/C*%
X74809999Y-110579999D03*
%TD*%
D19*
%TO.P,10uF,1*%
%TO.N,N/C*%
X57220000Y-67000000D03*
%TO.P,10uF,2*%
%TO.N,GND*%
X59120000Y-67000000D03*
%TD*%
D20*
%TO.N,*%
X61040000Y-110340000D03*
X72460000Y-110530000D03*
X78160000Y-102340000D03*
X45360000Y-100840000D03*
X71240000Y-102270000D03*
X81240000Y-101920000D03*
X87920000Y-111600000D03*
X81230000Y-97190000D03*
X46530000Y-94530000D03*
X89250000Y-107140000D03*
X81200000Y-110750000D03*
X69360000Y-111770000D03*
%TO.N,AGND*%
X66560000Y-100980000D03*
X90410000Y-108790000D03*
X70970000Y-107300000D03*
%TO.N,GND*%
X84980000Y-112920000D03*
X65130000Y-112330000D03*
%TD*%
D21*
%TO.N,*%
X61355000Y-119390000D02*
X83020000Y-119390000D01*
X52210000Y-110245000D02*
X61355000Y-119390000D01*
X83020000Y-119390000D02*
X87890000Y-124260000D01*
X87890000Y-124260000D02*
X90520000Y-124260000D01*
D22*
X52210000Y-112785000D02*
X63685000Y-124260000D01*
X63685000Y-124260000D02*
X69950000Y-124260000D01*
X69910000Y-113780000D02*
X69910000Y-114090000D01*
X69910000Y-114090000D02*
X70950000Y-115130000D01*
D21*
X85240000Y-115130000D02*
X87940000Y-112430000D01*
X70950000Y-115130000D02*
X85240000Y-115130000D01*
X94960000Y-110890000D02*
X94960000Y-110690000D01*
X87940000Y-112430000D02*
X93420000Y-112430000D01*
X93420000Y-112430000D02*
X94960000Y-110890000D01*
X52210000Y-110245000D02*
X53145000Y-110245000D01*
X57155000Y-67065000D02*
X57220000Y-67000000D01*
D22*
X89980000Y-110770000D02*
X90060000Y-110690000D01*
X90060000Y-110690000D02*
X90310000Y-110690000D01*
D21*
X45340000Y-99900000D02*
X45330000Y-99910000D01*
X52405000Y-77420000D02*
X59860000Y-77420000D01*
X87760000Y-111440000D02*
X87920000Y-111600000D01*
X81850000Y-110690000D02*
X87760000Y-110690000D01*
X71300000Y-101470000D02*
X71290000Y-101480000D01*
X52210000Y-74685000D02*
X45340000Y-81555000D01*
X77255000Y-102270000D02*
X78090000Y-102270000D01*
X71300000Y-96315000D02*
X77255000Y-102270000D01*
X45340000Y-94170000D02*
X45340000Y-99900000D01*
X52210000Y-77225000D02*
X52235000Y-77200000D01*
X87760000Y-110690000D02*
X90060000Y-110690000D01*
X45550000Y-94380000D02*
X46380000Y-94380000D01*
X46380000Y-94380000D02*
X46530000Y-94530000D01*
X87760000Y-110690000D02*
X87760000Y-111440000D01*
X71300000Y-102210000D02*
X71240000Y-102270000D01*
X81240000Y-101920000D02*
X81230000Y-101930000D01*
X45340000Y-94170000D02*
X45550000Y-94380000D01*
D22*
X72460000Y-110530000D02*
X72510000Y-110580000D01*
D21*
X71300000Y-96315000D02*
X71300000Y-101470000D01*
X52210000Y-77225000D02*
X52405000Y-77420000D01*
X78090000Y-102270000D02*
X78160000Y-102340000D01*
X81790000Y-110750000D02*
X81850000Y-110690000D01*
X69510000Y-111620000D02*
X69360000Y-111770000D01*
X69910000Y-111620000D02*
X69510000Y-111620000D01*
D22*
X61040000Y-108180000D02*
X55485000Y-102625000D01*
D21*
X81230000Y-97190000D02*
X81230000Y-101910000D01*
X81200000Y-110750000D02*
X80550000Y-110750000D01*
D22*
X72510000Y-110580000D02*
X74810000Y-110580000D01*
D21*
X71300000Y-101470000D02*
X71300000Y-102210000D01*
X79270000Y-112030000D02*
X70320000Y-112030000D01*
X52210000Y-77225000D02*
X71300000Y-96315000D01*
X70635000Y-74685000D02*
X80920000Y-64400000D01*
X52210000Y-67065000D02*
X57155000Y-67065000D01*
D22*
X55485000Y-102625000D02*
X52210000Y-102625000D01*
D21*
X80550000Y-110750000D02*
X79270000Y-112030000D01*
X70440000Y-111110000D02*
X69910000Y-110580000D01*
X45340000Y-81555000D02*
X45340000Y-94170000D01*
D22*
X61040000Y-110340000D02*
X61040000Y-108180000D01*
D21*
X45330000Y-99910000D02*
X45330000Y-100810000D01*
X69910000Y-111620000D02*
X69910000Y-110580000D01*
X70320000Y-112030000D02*
X69910000Y-111620000D01*
X81200000Y-110750000D02*
X81790000Y-110750000D01*
X52210000Y-74685000D02*
X70635000Y-74685000D01*
X81230000Y-101910000D02*
X81240000Y-101920000D01*
X45330000Y-100810000D02*
X45360000Y-100840000D01*
%TD*%
%TA.AperFunction,Conductor*%
%TO.N,GND*%
G36*
X49670000Y-59470000D02*
G01*
X50063392Y-73860179D01*
X50063796Y-73874978D01*
X50063796Y-73874981D01*
X50117162Y-75827134D01*
X50108407Y-75876405D01*
X50080889Y-75918203D01*
X44947793Y-81051300D01*
X44939444Y-81058898D01*
X44932982Y-81063000D01*
X44927641Y-81068686D01*
X44927639Y-81068689D01*
X44886339Y-81112668D01*
X44883634Y-81115460D01*
X44863865Y-81135230D01*
X44861481Y-81138302D01*
X44861478Y-81138306D01*
X44861322Y-81138508D01*
X44853752Y-81147370D01*
X44823414Y-81179679D01*
X44819659Y-81186507D01*
X44819658Y-81186510D01*
X44813579Y-81197567D01*
X44802903Y-81213819D01*
X44795168Y-81223791D01*
X44795160Y-81223802D01*
X44790386Y-81229959D01*
X44787291Y-81237110D01*
X44787288Y-81237116D01*
X44772786Y-81270628D01*
X44767648Y-81281115D01*
X44750065Y-81313098D01*
X44750061Y-81313106D01*
X44746305Y-81319940D01*
X44744366Y-81327491D01*
X44744363Y-81327499D01*
X44741225Y-81339722D01*
X44734926Y-81358119D01*
X44726819Y-81376855D01*
X44725599Y-81384553D01*
X44725598Y-81384559D01*
X44719888Y-81420611D01*
X44717520Y-81432045D01*
X44708438Y-81467417D01*
X44708436Y-81467426D01*
X44706500Y-81474970D01*
X44706500Y-81482766D01*
X44706500Y-81495385D01*
X44704972Y-81514783D01*
X44701780Y-81534943D01*
X44702514Y-81542708D01*
X44702514Y-81542711D01*
X44705950Y-81579058D01*
X44706500Y-81590727D01*
X44706500Y-94091154D01*
X44705968Y-94102437D01*
X44704298Y-94109909D01*
X44704543Y-94117705D01*
X44704543Y-94117707D01*
X44706439Y-94178017D01*
X44706500Y-94181913D01*
X44706500Y-99775359D01*
X44702604Y-99806196D01*
X44696500Y-99829970D01*
X44696500Y-99837771D01*
X44696500Y-99850385D01*
X44694973Y-99869783D01*
X44693998Y-99875942D01*
X44691780Y-99889943D01*
X44692514Y-99897708D01*
X44692514Y-99897711D01*
X44695950Y-99934058D01*
X44696500Y-99945727D01*
X44696500Y-100171561D01*
X44688264Y-100215998D01*
X44664650Y-100254533D01*
X44625307Y-100298227D01*
X44625302Y-100298232D01*
X44620960Y-100303056D01*
X44617714Y-100308676D01*
X44617711Y-100308682D01*
X44528721Y-100462817D01*
X44528718Y-100462822D01*
X44525473Y-100468444D01*
X44523467Y-100474616D01*
X44523465Y-100474622D01*
X44468465Y-100643892D01*
X44468463Y-100643901D01*
X44466458Y-100650072D01*
X44465780Y-100656522D01*
X44465778Y-100656532D01*
X44447778Y-100827795D01*
X44446496Y-100840000D01*
X44447175Y-100846460D01*
X44465778Y-101023467D01*
X44465779Y-101023475D01*
X44466458Y-101029928D01*
X44468463Y-101036100D01*
X44468465Y-101036107D01*
X44515611Y-101181204D01*
X44525473Y-101211556D01*
X44528720Y-101217180D01*
X44528721Y-101217182D01*
X44608290Y-101355000D01*
X44620960Y-101376944D01*
X44748747Y-101518866D01*
X44753997Y-101522680D01*
X44754000Y-101522683D01*
X44896863Y-101626479D01*
X44903248Y-101631118D01*
X45077712Y-101708794D01*
X45084070Y-101710145D01*
X45084072Y-101710146D01*
X45120874Y-101717968D01*
X45264513Y-101748500D01*
X45448984Y-101748500D01*
X45455487Y-101748500D01*
X45642288Y-101708794D01*
X45816752Y-101631118D01*
X45971253Y-101518866D01*
X46099040Y-101376944D01*
X46194527Y-101211556D01*
X46253542Y-101029928D01*
X46273504Y-100840000D01*
X46253542Y-100650072D01*
X46194527Y-100468444D01*
X46099040Y-100303056D01*
X45995350Y-100187896D01*
X45971736Y-100149361D01*
X45963500Y-100104924D01*
X45963500Y-100034641D01*
X45967396Y-100003803D01*
X45973500Y-99980030D01*
X45973500Y-99959615D01*
X45975027Y-99940217D01*
X45976002Y-99934058D01*
X45978220Y-99920057D01*
X45974050Y-99875942D01*
X45973500Y-99864273D01*
X45973500Y-95467651D01*
X45988527Y-95408483D01*
X46029965Y-95363656D01*
X46087771Y-95344033D01*
X46147935Y-95354371D01*
X46168790Y-95363656D01*
X46247712Y-95398794D01*
X46254070Y-95400145D01*
X46254072Y-95400146D01*
X46290874Y-95407968D01*
X46434513Y-95438500D01*
X46618984Y-95438500D01*
X46625487Y-95438500D01*
X46812288Y-95398794D01*
X46986752Y-95321118D01*
X47141253Y-95208866D01*
X47269040Y-95066944D01*
X47364527Y-94901556D01*
X47423542Y-94719928D01*
X47443504Y-94530000D01*
X47423542Y-94340072D01*
X47364527Y-94158444D01*
X47269040Y-93993056D01*
X47141253Y-93851134D01*
X47136003Y-93847319D01*
X47135999Y-93847316D01*
X46992006Y-93742699D01*
X46992004Y-93742697D01*
X46986752Y-93738882D01*
X46980821Y-93736241D01*
X46980817Y-93736239D01*
X46818226Y-93663849D01*
X46818219Y-93663846D01*
X46812288Y-93661206D01*
X46805935Y-93659855D01*
X46805927Y-93659853D01*
X46631849Y-93622852D01*
X46631846Y-93622851D01*
X46625487Y-93621500D01*
X46434513Y-93621500D01*
X46428154Y-93622851D01*
X46428150Y-93622852D01*
X46254072Y-93659853D01*
X46254061Y-93659856D01*
X46247712Y-93661206D01*
X46241774Y-93663849D01*
X46241773Y-93663850D01*
X46147935Y-93705629D01*
X46087771Y-93715967D01*
X46029965Y-93696344D01*
X45988527Y-93651517D01*
X45973500Y-93592349D01*
X45973500Y-81868766D01*
X45982939Y-81821313D01*
X46009819Y-81781085D01*
X46938010Y-80852894D01*
X49962546Y-77828357D01*
X50011260Y-77798322D01*
X50068280Y-77793364D01*
X50121453Y-77814542D01*
X50159450Y-77857345D01*
X50174176Y-77912653D01*
X50329692Y-83601358D01*
X50360000Y-84710000D01*
X50367128Y-84718097D01*
X50367129Y-84718099D01*
X50820575Y-85233213D01*
X50843512Y-85271359D01*
X50851500Y-85315146D01*
X50851500Y-85743638D01*
X50858011Y-85804201D01*
X50860717Y-85811458D01*
X50860719Y-85811463D01*
X50906011Y-85932894D01*
X50909111Y-85941204D01*
X50914425Y-85948303D01*
X50914428Y-85948308D01*
X50983584Y-86040690D01*
X51005483Y-86088642D01*
X51005483Y-86141358D01*
X50983584Y-86189310D01*
X50914428Y-86281691D01*
X50914423Y-86281699D01*
X50909111Y-86288796D01*
X50906013Y-86297099D01*
X50906011Y-86297105D01*
X50860719Y-86418536D01*
X50860717Y-86418543D01*
X50858011Y-86425799D01*
X50857182Y-86433500D01*
X50857182Y-86433505D01*
X50851853Y-86483075D01*
X50851500Y-86486362D01*
X50851500Y-86489672D01*
X50851500Y-87323688D01*
X50851076Y-87333927D01*
X50846844Y-87385000D01*
X50847268Y-87390117D01*
X50851076Y-87436072D01*
X50851500Y-87446312D01*
X50851500Y-88283638D01*
X50858011Y-88344201D01*
X50860717Y-88351458D01*
X50860719Y-88351463D01*
X50906011Y-88472894D01*
X50909111Y-88481204D01*
X50914425Y-88488303D01*
X50914428Y-88488308D01*
X50983584Y-88580690D01*
X51005483Y-88628642D01*
X51005483Y-88681358D01*
X50983584Y-88729310D01*
X50914428Y-88821691D01*
X50914423Y-88821699D01*
X50909111Y-88828796D01*
X50906013Y-88837099D01*
X50906011Y-88837105D01*
X50860719Y-88958536D01*
X50860717Y-88958543D01*
X50858011Y-88965799D01*
X50857182Y-88973500D01*
X50857182Y-88973505D01*
X50851853Y-89023075D01*
X50851500Y-89026362D01*
X50851500Y-89029672D01*
X50851500Y-89863688D01*
X50851076Y-89873927D01*
X50846844Y-89925000D01*
X50847268Y-89930117D01*
X50851076Y-89976072D01*
X50851500Y-89986312D01*
X50851500Y-90823638D01*
X50858011Y-90884201D01*
X50860717Y-90891458D01*
X50860719Y-90891463D01*
X50897604Y-90990354D01*
X50909111Y-91021204D01*
X50914425Y-91028302D01*
X50914428Y-91028308D01*
X50983584Y-91120690D01*
X51005483Y-91168642D01*
X51005483Y-91221358D01*
X50983584Y-91269310D01*
X50914428Y-91361691D01*
X50914423Y-91361699D01*
X50909111Y-91368796D01*
X50906013Y-91377099D01*
X50906011Y-91377105D01*
X50860719Y-91498536D01*
X50860717Y-91498543D01*
X50858011Y-91505799D01*
X50857182Y-91513500D01*
X50857182Y-91513505D01*
X50851853Y-91563075D01*
X50851500Y-91566362D01*
X50851500Y-91569672D01*
X50851500Y-92403688D01*
X50851076Y-92413927D01*
X50846844Y-92465000D01*
X50847268Y-92470117D01*
X50851076Y-92516072D01*
X50851500Y-92526312D01*
X50851500Y-93363638D01*
X50858011Y-93424201D01*
X50860717Y-93431458D01*
X50860719Y-93431463D01*
X50906011Y-93552894D01*
X50909111Y-93561204D01*
X50914425Y-93568303D01*
X50914426Y-93568304D01*
X50983584Y-93660688D01*
X51005483Y-93708640D01*
X51005483Y-93761356D01*
X50983585Y-93809309D01*
X50914425Y-93901696D01*
X50914422Y-93901700D01*
X50909111Y-93908796D01*
X50906013Y-93917099D01*
X50906011Y-93917105D01*
X50860719Y-94038536D01*
X50860717Y-94038543D01*
X50858011Y-94045799D01*
X50857182Y-94053500D01*
X50857182Y-94053505D01*
X50851880Y-94102823D01*
X50851500Y-94106362D01*
X50851500Y-95903638D01*
X50858011Y-95964201D01*
X50860717Y-95971458D01*
X50860719Y-95971463D01*
X50906011Y-96092894D01*
X50909111Y-96101204D01*
X50914425Y-96108303D01*
X50914428Y-96108308D01*
X50983584Y-96200690D01*
X51005483Y-96248642D01*
X51005483Y-96301358D01*
X50983584Y-96349310D01*
X50914428Y-96441691D01*
X50914423Y-96441699D01*
X50909111Y-96448796D01*
X50906013Y-96457099D01*
X50906011Y-96457105D01*
X50860719Y-96578536D01*
X50860717Y-96578543D01*
X50858011Y-96585799D01*
X50857182Y-96593500D01*
X50857182Y-96593505D01*
X50851853Y-96643075D01*
X50851500Y-96646362D01*
X50851500Y-96649672D01*
X50851500Y-97483688D01*
X50851076Y-97493927D01*
X50846844Y-97545000D01*
X50847268Y-97550117D01*
X50851076Y-97596072D01*
X50851500Y-97606312D01*
X50851500Y-98443638D01*
X50858011Y-98504201D01*
X50860717Y-98511458D01*
X50860719Y-98511463D01*
X50906011Y-98632894D01*
X50909111Y-98641204D01*
X50914425Y-98648303D01*
X50914428Y-98648308D01*
X50983584Y-98740690D01*
X51005483Y-98788642D01*
X51005483Y-98841358D01*
X50983584Y-98889310D01*
X50914428Y-98981691D01*
X50914423Y-98981699D01*
X50909111Y-98988796D01*
X50906013Y-98997099D01*
X50906011Y-98997105D01*
X50860719Y-99118536D01*
X50860717Y-99118543D01*
X50858011Y-99125799D01*
X50857182Y-99133500D01*
X50857182Y-99133505D01*
X50851853Y-99183075D01*
X50851500Y-99186362D01*
X50851500Y-99189672D01*
X50851500Y-100023688D01*
X50851076Y-100033927D01*
X50846844Y-100085000D01*
X50847268Y-100090117D01*
X50851076Y-100136072D01*
X50851500Y-100146312D01*
X50851500Y-100983638D01*
X50851852Y-100986918D01*
X50851853Y-100986924D01*
X50857140Y-101036107D01*
X50858011Y-101044201D01*
X50860717Y-101051458D01*
X50860719Y-101051463D01*
X50906011Y-101172894D01*
X50909111Y-101181204D01*
X50914425Y-101188303D01*
X50914428Y-101188308D01*
X50983584Y-101280690D01*
X51005483Y-101328642D01*
X51005483Y-101381358D01*
X50983584Y-101429310D01*
X50914428Y-101521691D01*
X50914423Y-101521699D01*
X50909111Y-101528796D01*
X50906013Y-101537099D01*
X50906011Y-101537105D01*
X50860719Y-101658536D01*
X50860717Y-101658543D01*
X50858011Y-101665799D01*
X50857182Y-101673500D01*
X50857182Y-101673505D01*
X50853243Y-101710146D01*
X50851500Y-101726362D01*
X50851500Y-101729672D01*
X50851500Y-102563688D01*
X50851076Y-102573927D01*
X50846844Y-102625000D01*
X50847268Y-102630117D01*
X50851076Y-102676072D01*
X50851500Y-102686312D01*
X50851500Y-103523638D01*
X50851852Y-103526918D01*
X50851853Y-103526924D01*
X50854673Y-103553157D01*
X50858011Y-103584201D01*
X50860717Y-103591458D01*
X50860719Y-103591463D01*
X50906011Y-103712894D01*
X50909111Y-103721204D01*
X50914425Y-103728303D01*
X50914428Y-103728308D01*
X50983584Y-103820690D01*
X51005483Y-103868642D01*
X51005483Y-103921358D01*
X50983584Y-103969310D01*
X50914428Y-104061691D01*
X50914423Y-104061699D01*
X50909111Y-104068796D01*
X50906013Y-104077099D01*
X50906011Y-104077105D01*
X50860719Y-104198536D01*
X50860717Y-104198543D01*
X50858011Y-104205799D01*
X50857182Y-104213500D01*
X50857182Y-104213505D01*
X50851853Y-104263075D01*
X50851500Y-104266362D01*
X50851500Y-104269672D01*
X50851500Y-105103688D01*
X50851076Y-105113927D01*
X50846844Y-105165000D01*
X50847268Y-105170117D01*
X50851076Y-105216072D01*
X50851500Y-105226312D01*
X50851500Y-106063638D01*
X50858011Y-106124201D01*
X50860717Y-106131458D01*
X50860719Y-106131463D01*
X50906011Y-106252894D01*
X50909111Y-106261204D01*
X50914425Y-106268303D01*
X50914426Y-106268304D01*
X50983584Y-106360688D01*
X51005483Y-106408640D01*
X51005483Y-106461356D01*
X50983585Y-106509309D01*
X50914425Y-106601696D01*
X50914422Y-106601700D01*
X50909111Y-106608796D01*
X50906013Y-106617099D01*
X50906011Y-106617105D01*
X50860719Y-106738536D01*
X50860717Y-106738543D01*
X50858011Y-106745799D01*
X50857182Y-106753500D01*
X50857182Y-106753505D01*
X50856986Y-106755332D01*
X50851500Y-106806362D01*
X50851500Y-108603638D01*
X50851852Y-108606918D01*
X50851853Y-108606924D01*
X50855613Y-108641903D01*
X50858011Y-108664201D01*
X50860717Y-108671458D01*
X50860719Y-108671463D01*
X50906011Y-108792894D01*
X50909111Y-108801204D01*
X50914425Y-108808303D01*
X50914428Y-108808308D01*
X50983584Y-108900690D01*
X51005483Y-108948642D01*
X51005483Y-109001358D01*
X50983584Y-109049310D01*
X50914428Y-109141691D01*
X50914423Y-109141699D01*
X50909111Y-109148796D01*
X50906013Y-109157099D01*
X50906011Y-109157105D01*
X50860719Y-109278536D01*
X50860717Y-109278543D01*
X50858011Y-109285799D01*
X50857182Y-109293500D01*
X50857182Y-109293505D01*
X50851853Y-109343075D01*
X50851500Y-109346362D01*
X50851500Y-109349672D01*
X50851500Y-110183688D01*
X50851076Y-110193927D01*
X50846844Y-110245000D01*
X50847268Y-110250117D01*
X50851076Y-110296072D01*
X50851500Y-110306312D01*
X50851500Y-110584025D01*
X35774865Y-111223300D01*
X35781989Y-111204201D01*
X35788500Y-111143638D01*
X35788500Y-110306312D01*
X35788924Y-110296072D01*
X35792732Y-110250117D01*
X35793156Y-110245000D01*
X35788923Y-110193927D01*
X35788500Y-110183688D01*
X35788500Y-109349672D01*
X35788500Y-109346362D01*
X35781989Y-109285799D01*
X35730889Y-109148796D01*
X35656414Y-109049310D01*
X35634516Y-109001358D01*
X35634516Y-108948642D01*
X35656415Y-108900689D01*
X35667037Y-108886500D01*
X35730889Y-108801204D01*
X35781989Y-108664201D01*
X35788500Y-108603638D01*
X35788500Y-106806362D01*
X35781989Y-106745799D01*
X35730889Y-106608796D01*
X35725573Y-106601694D01*
X35725571Y-106601691D01*
X35656415Y-106509309D01*
X35634516Y-106461357D01*
X35634516Y-106408640D01*
X35656413Y-106360691D01*
X35730889Y-106261204D01*
X35781989Y-106124201D01*
X35788500Y-106063638D01*
X35788500Y-105226312D01*
X35788924Y-105216072D01*
X35792732Y-105170117D01*
X35793156Y-105165000D01*
X35788923Y-105113927D01*
X35788500Y-105103688D01*
X35788500Y-104269672D01*
X35788500Y-104266362D01*
X35781989Y-104205799D01*
X35730889Y-104068796D01*
X35656414Y-103969310D01*
X35634516Y-103921358D01*
X35634516Y-103868642D01*
X35656415Y-103820689D01*
X35730889Y-103721204D01*
X35781989Y-103584201D01*
X35788500Y-103523638D01*
X35788500Y-102686312D01*
X35788924Y-102676072D01*
X35792732Y-102630117D01*
X35793156Y-102625000D01*
X35788923Y-102573927D01*
X35788500Y-102563688D01*
X35788500Y-101729672D01*
X35788500Y-101726362D01*
X35781989Y-101665799D01*
X35730889Y-101528796D01*
X35656414Y-101429310D01*
X35634516Y-101381358D01*
X35634516Y-101328642D01*
X35656415Y-101280689D01*
X35730889Y-101181204D01*
X35781989Y-101044201D01*
X35788500Y-100983638D01*
X35788500Y-100146312D01*
X35788924Y-100136072D01*
X35792732Y-100090117D01*
X35793156Y-100085000D01*
X35788923Y-100033927D01*
X35788500Y-100023688D01*
X35788500Y-99189672D01*
X35788500Y-99186362D01*
X35781989Y-99125799D01*
X35730889Y-98988796D01*
X35656414Y-98889310D01*
X35634516Y-98841358D01*
X35634516Y-98788642D01*
X35656415Y-98740689D01*
X35730889Y-98641204D01*
X35781989Y-98504201D01*
X35788500Y-98443638D01*
X35788500Y-97606312D01*
X35788924Y-97596072D01*
X35792732Y-97550117D01*
X35793156Y-97545000D01*
X35788923Y-97493927D01*
X35788500Y-97483688D01*
X35788500Y-96649672D01*
X35788500Y-96646362D01*
X35781989Y-96585799D01*
X35730889Y-96448796D01*
X35656414Y-96349310D01*
X35634516Y-96301358D01*
X35634516Y-96248642D01*
X35656415Y-96200689D01*
X35667037Y-96186500D01*
X35730889Y-96101204D01*
X35781989Y-95964201D01*
X35788500Y-95903638D01*
X35788500Y-94106362D01*
X35781989Y-94045799D01*
X35730889Y-93908796D01*
X35725573Y-93901694D01*
X35725571Y-93901691D01*
X35656415Y-93809309D01*
X35634516Y-93761357D01*
X35634516Y-93708640D01*
X35656413Y-93660691D01*
X35730889Y-93561204D01*
X35781989Y-93424201D01*
X35788500Y-93363638D01*
X35788500Y-92526312D01*
X35788924Y-92516072D01*
X35792732Y-92470117D01*
X35793156Y-92465000D01*
X35788923Y-92413927D01*
X35788500Y-92403688D01*
X35788500Y-91569672D01*
X35788500Y-91566362D01*
X35781989Y-91505799D01*
X35730889Y-91368796D01*
X35656414Y-91269310D01*
X35634516Y-91221358D01*
X35634516Y-91168642D01*
X35656415Y-91120689D01*
X35730889Y-91021204D01*
X35781989Y-90884201D01*
X35788500Y-90823638D01*
X35788500Y-89986312D01*
X35788924Y-89976072D01*
X35792732Y-89930117D01*
X35793156Y-89925000D01*
X35788923Y-89873927D01*
X35788500Y-89863688D01*
X35788500Y-89029672D01*
X35788500Y-89026362D01*
X35781989Y-88965799D01*
X35730889Y-88828796D01*
X35656414Y-88729310D01*
X35634516Y-88681358D01*
X35634516Y-88628642D01*
X35656415Y-88580689D01*
X35730889Y-88481204D01*
X35781989Y-88344201D01*
X35788500Y-88283638D01*
X35788500Y-87446312D01*
X35788924Y-87436072D01*
X35792732Y-87390117D01*
X35793156Y-87385000D01*
X35788923Y-87333927D01*
X35788500Y-87323688D01*
X35788500Y-86489672D01*
X35788500Y-86486362D01*
X35781989Y-86425799D01*
X35730889Y-86288796D01*
X35656414Y-86189310D01*
X35634516Y-86141358D01*
X35634516Y-86088642D01*
X35656415Y-86040689D01*
X35730889Y-85941204D01*
X35781989Y-85804201D01*
X35788500Y-85743638D01*
X35788500Y-84906312D01*
X35788924Y-84896072D01*
X35792732Y-84850117D01*
X35793156Y-84845000D01*
X35788923Y-84793927D01*
X35788500Y-84783688D01*
X35788500Y-83949672D01*
X35788500Y-83946362D01*
X35781989Y-83885799D01*
X35730889Y-83748796D01*
X35656414Y-83649310D01*
X35634516Y-83601358D01*
X35634516Y-83548642D01*
X35656415Y-83500689D01*
X35667037Y-83486500D01*
X35730889Y-83401204D01*
X35781989Y-83264201D01*
X35788500Y-83203638D01*
X35788500Y-81406362D01*
X35781989Y-81345799D01*
X35730889Y-81208796D01*
X35656414Y-81109310D01*
X35634516Y-81061358D01*
X35634516Y-81008642D01*
X35656415Y-80960689D01*
X35730889Y-80861204D01*
X35781989Y-80724201D01*
X35788500Y-80663638D01*
X35788500Y-79826312D01*
X35788924Y-79816072D01*
X35792732Y-79770117D01*
X35793156Y-79765000D01*
X35788923Y-79713927D01*
X35788500Y-79703688D01*
X35788500Y-78869672D01*
X35788500Y-78866362D01*
X35781989Y-78805799D01*
X35730889Y-78668796D01*
X35656414Y-78569310D01*
X35634516Y-78521358D01*
X35634516Y-78468642D01*
X35656415Y-78420689D01*
X35730889Y-78321204D01*
X35781989Y-78184201D01*
X35788500Y-78123638D01*
X35788500Y-77286312D01*
X35788924Y-77276072D01*
X35792732Y-77230117D01*
X35793156Y-77225000D01*
X35788923Y-77173927D01*
X35788500Y-77163688D01*
X35788500Y-76329672D01*
X35788500Y-76326362D01*
X35781989Y-76265799D01*
X35730889Y-76128796D01*
X35656414Y-76029310D01*
X35634516Y-75981358D01*
X35634516Y-75928642D01*
X35656415Y-75880689D01*
X35659622Y-75876405D01*
X35730889Y-75781204D01*
X35781989Y-75644201D01*
X35788500Y-75583638D01*
X35788500Y-74746312D01*
X35788924Y-74736072D01*
X35792732Y-74690117D01*
X35793156Y-74685000D01*
X35788923Y-74633927D01*
X35788500Y-74623688D01*
X35788500Y-73789672D01*
X35788500Y-73786362D01*
X35781989Y-73725799D01*
X35730889Y-73588796D01*
X35656414Y-73489310D01*
X35634516Y-73441358D01*
X35634516Y-73388642D01*
X35656415Y-73340689D01*
X35730889Y-73241204D01*
X35781989Y-73104201D01*
X35788500Y-73043638D01*
X35788500Y-72206312D01*
X35788924Y-72196072D01*
X35792732Y-72150117D01*
X35793156Y-72145000D01*
X35788923Y-72093927D01*
X35788500Y-72083688D01*
X35788500Y-71249672D01*
X35788500Y-71246362D01*
X35781989Y-71185799D01*
X35730889Y-71048796D01*
X35656414Y-70949310D01*
X35634516Y-70901358D01*
X35634516Y-70848642D01*
X35656415Y-70800689D01*
X35667037Y-70786500D01*
X35730889Y-70701204D01*
X35781989Y-70564201D01*
X35788500Y-70503638D01*
X35788500Y-68706362D01*
X35781989Y-68645799D01*
X35730889Y-68508796D01*
X35656414Y-68409310D01*
X35634516Y-68361358D01*
X35634516Y-68308642D01*
X35656415Y-68260689D01*
X35667079Y-68246444D01*
X35730889Y-68161204D01*
X35781989Y-68024201D01*
X35788500Y-67963638D01*
X35788500Y-67685000D01*
X39631693Y-67685000D01*
X39632164Y-67690386D01*
X39632164Y-67690399D01*
X39633315Y-67703558D01*
X39633662Y-67719920D01*
X39632934Y-67736128D01*
X39632934Y-67736135D01*
X39632685Y-67741691D01*
X39633431Y-67747204D01*
X39633432Y-67747207D01*
X39643494Y-67821491D01*
X39644144Y-67827327D01*
X39648821Y-67880781D01*
X39650885Y-67904371D01*
X39652285Y-67909596D01*
X39656602Y-67925707D01*
X39659703Y-67941147D01*
X39662346Y-67960658D01*
X39662347Y-67960663D01*
X39663094Y-67966175D01*
X39664814Y-67971468D01*
X39664815Y-67971473D01*
X39686911Y-68039480D01*
X39688754Y-68045701D01*
X39704856Y-68105791D01*
X39707880Y-68117076D01*
X39710168Y-68121984D01*
X39710169Y-68121985D01*
X39718675Y-68140228D01*
X39724221Y-68154307D01*
X39731376Y-68176326D01*
X39733097Y-68181621D01*
X39735734Y-68186521D01*
X39735736Y-68186526D01*
X39767979Y-68246444D01*
X39771167Y-68252798D01*
X39798653Y-68311742D01*
X39798655Y-68311746D01*
X39800944Y-68316654D01*
X39804044Y-68321081D01*
X39804052Y-68321094D01*
X39817580Y-68340415D01*
X39825195Y-68352771D01*
X39832255Y-68365889D01*
X39840444Y-68381106D01*
X39843919Y-68385463D01*
X39884192Y-68435964D01*
X39888820Y-68442153D01*
X39924145Y-68492603D01*
X39924148Y-68492607D01*
X39927251Y-68497038D01*
X39931081Y-68500868D01*
X39931082Y-68500869D01*
X39950199Y-68519986D01*
X39959465Y-68530354D01*
X39981686Y-68558218D01*
X39989316Y-68564884D01*
X40031935Y-68602119D01*
X40038032Y-68607819D01*
X40082962Y-68652749D01*
X40111481Y-68672718D01*
X40112384Y-68673350D01*
X40122847Y-68681546D01*
X40152282Y-68707263D01*
X40157059Y-68710117D01*
X40157063Y-68710120D01*
X40206598Y-68739715D01*
X40214123Y-68744589D01*
X40256876Y-68774526D01*
X40263346Y-68779056D01*
X40299049Y-68795704D01*
X40310216Y-68801625D01*
X40346750Y-68823453D01*
X40402762Y-68844474D01*
X40411598Y-68848186D01*
X40462924Y-68872120D01*
X40468153Y-68873521D01*
X40504281Y-68883201D01*
X40515763Y-68886884D01*
X40549394Y-68899506D01*
X40558839Y-68903051D01*
X40614286Y-68913113D01*
X40624236Y-68915344D01*
X40675629Y-68929115D01*
X40721745Y-68933149D01*
X40733069Y-68934668D01*
X40781733Y-68943500D01*
X40834642Y-68943500D01*
X40845449Y-68943972D01*
X40895000Y-68948307D01*
X40948616Y-68943616D01*
X40950376Y-68943500D01*
X40951522Y-68943500D01*
X41006390Y-68938561D01*
X41006398Y-68938650D01*
X41006698Y-68938534D01*
X41114371Y-68929115D01*
X41115896Y-68928706D01*
X41120622Y-68928281D01*
X41224956Y-68899485D01*
X41225704Y-68899282D01*
X41327076Y-68872120D01*
X41330169Y-68870677D01*
X41332230Y-68870019D01*
X41333624Y-68869495D01*
X41338993Y-68868014D01*
X41433340Y-68822577D01*
X41434638Y-68821962D01*
X41526654Y-68779056D01*
X41531105Y-68775939D01*
X41531701Y-68775595D01*
X41536816Y-68772892D01*
X41538061Y-68772147D01*
X41543093Y-68769725D01*
X41625079Y-68710157D01*
X41626663Y-68709027D01*
X41692532Y-68662905D01*
X41702601Y-68655856D01*
X41702602Y-68655854D01*
X41707038Y-68652749D01*
X41710866Y-68648920D01*
X41715016Y-68645438D01*
X41715195Y-68645652D01*
X41717678Y-68643530D01*
X41717661Y-68643510D01*
X41721852Y-68639847D01*
X41726363Y-68636571D01*
X41793923Y-68565908D01*
X41795869Y-68563917D01*
X41805920Y-68553866D01*
X41862749Y-68497038D01*
X41865858Y-68492597D01*
X41868728Y-68489177D01*
X41877431Y-68478566D01*
X41882912Y-68472834D01*
X41934901Y-68394072D01*
X41936750Y-68391351D01*
X41989056Y-68316654D01*
X41992535Y-68309191D01*
X42001436Y-68293276D01*
X42007709Y-68283774D01*
X42043439Y-68200177D01*
X42045045Y-68196581D01*
X42082120Y-68117076D01*
X42085146Y-68105782D01*
X42090899Y-68089143D01*
X42094552Y-68080595D01*
X42096743Y-68075470D01*
X42116203Y-67990203D01*
X42117301Y-67985773D01*
X42139115Y-67904371D01*
X42140436Y-67889264D01*
X42143072Y-67872481D01*
X42147151Y-67854615D01*
X42150919Y-67770689D01*
X42151260Y-67765539D01*
X42158307Y-67685000D01*
X44481693Y-67685000D01*
X44482164Y-67690386D01*
X44482164Y-67690399D01*
X44483315Y-67703558D01*
X44483662Y-67719920D01*
X44482934Y-67736128D01*
X44482934Y-67736135D01*
X44482685Y-67741691D01*
X44483431Y-67747204D01*
X44483432Y-67747207D01*
X44493494Y-67821491D01*
X44494144Y-67827327D01*
X44498821Y-67880781D01*
X44500885Y-67904371D01*
X44502285Y-67909596D01*
X44506602Y-67925707D01*
X44509703Y-67941147D01*
X44512346Y-67960658D01*
X44512347Y-67960663D01*
X44513094Y-67966175D01*
X44514814Y-67971468D01*
X44514815Y-67971473D01*
X44536911Y-68039480D01*
X44538754Y-68045701D01*
X44554856Y-68105791D01*
X44557880Y-68117076D01*
X44560168Y-68121984D01*
X44560169Y-68121985D01*
X44568675Y-68140228D01*
X44574221Y-68154307D01*
X44581376Y-68176326D01*
X44583097Y-68181621D01*
X44585734Y-68186521D01*
X44585736Y-68186526D01*
X44617979Y-68246444D01*
X44621167Y-68252798D01*
X44648653Y-68311742D01*
X44648655Y-68311746D01*
X44650944Y-68316654D01*
X44654044Y-68321081D01*
X44654052Y-68321094D01*
X44667580Y-68340415D01*
X44675195Y-68352771D01*
X44682255Y-68365889D01*
X44690444Y-68381106D01*
X44693919Y-68385463D01*
X44734192Y-68435964D01*
X44738820Y-68442153D01*
X44774145Y-68492603D01*
X44774148Y-68492607D01*
X44777251Y-68497038D01*
X44781081Y-68500868D01*
X44781082Y-68500869D01*
X44800199Y-68519986D01*
X44809465Y-68530354D01*
X44831686Y-68558218D01*
X44839316Y-68564884D01*
X44881935Y-68602119D01*
X44888032Y-68607819D01*
X44932962Y-68652749D01*
X44961481Y-68672718D01*
X44962384Y-68673350D01*
X44972847Y-68681546D01*
X45002282Y-68707263D01*
X45007059Y-68710117D01*
X45007063Y-68710120D01*
X45056598Y-68739715D01*
X45064123Y-68744589D01*
X45106876Y-68774526D01*
X45113346Y-68779056D01*
X45149049Y-68795704D01*
X45160216Y-68801625D01*
X45196750Y-68823453D01*
X45252762Y-68844474D01*
X45261598Y-68848186D01*
X45312924Y-68872120D01*
X45318153Y-68873521D01*
X45354281Y-68883201D01*
X45365763Y-68886884D01*
X45399394Y-68899506D01*
X45408839Y-68903051D01*
X45464286Y-68913113D01*
X45474236Y-68915344D01*
X45525629Y-68929115D01*
X45571745Y-68933149D01*
X45583069Y-68934668D01*
X45631733Y-68943500D01*
X45684642Y-68943500D01*
X45695449Y-68943972D01*
X45745000Y-68948307D01*
X45798616Y-68943616D01*
X45800376Y-68943500D01*
X45801522Y-68943500D01*
X45856390Y-68938561D01*
X45856398Y-68938650D01*
X45856698Y-68938534D01*
X45964371Y-68929115D01*
X45965896Y-68928706D01*
X45970622Y-68928281D01*
X46074956Y-68899485D01*
X46075704Y-68899282D01*
X46177076Y-68872120D01*
X46180169Y-68870677D01*
X46182230Y-68870019D01*
X46183624Y-68869495D01*
X46188993Y-68868014D01*
X46283340Y-68822577D01*
X46284638Y-68821962D01*
X46376654Y-68779056D01*
X46381105Y-68775939D01*
X46381701Y-68775595D01*
X46386816Y-68772892D01*
X46388061Y-68772147D01*
X46393093Y-68769725D01*
X46475079Y-68710157D01*
X46476663Y-68709027D01*
X46542532Y-68662905D01*
X46552601Y-68655856D01*
X46552602Y-68655854D01*
X46557038Y-68652749D01*
X46560866Y-68648920D01*
X46565016Y-68645438D01*
X46565195Y-68645652D01*
X46567678Y-68643530D01*
X46567661Y-68643510D01*
X46571852Y-68639847D01*
X46576363Y-68636571D01*
X46643923Y-68565908D01*
X46645869Y-68563917D01*
X46655920Y-68553866D01*
X46712749Y-68497038D01*
X46715858Y-68492597D01*
X46718728Y-68489177D01*
X46727431Y-68478566D01*
X46732912Y-68472834D01*
X46784901Y-68394072D01*
X46786750Y-68391351D01*
X46839056Y-68316654D01*
X46842535Y-68309191D01*
X46851436Y-68293276D01*
X46857709Y-68283774D01*
X46893439Y-68200177D01*
X46895045Y-68196581D01*
X46932120Y-68117076D01*
X46935146Y-68105782D01*
X46940899Y-68089143D01*
X46944552Y-68080595D01*
X46946743Y-68075470D01*
X46966203Y-67990203D01*
X46967301Y-67985773D01*
X46989115Y-67904371D01*
X46990436Y-67889264D01*
X46993072Y-67872481D01*
X46997151Y-67854615D01*
X47000919Y-67770689D01*
X47001260Y-67765539D01*
X47008307Y-67685000D01*
X47006683Y-67666447D01*
X47006337Y-67650078D01*
X47007065Y-67633868D01*
X47007315Y-67628309D01*
X47006567Y-67622786D01*
X46996504Y-67548503D01*
X46995853Y-67542661D01*
X46993953Y-67520943D01*
X46989115Y-67465629D01*
X46987713Y-67460398D01*
X46987712Y-67460390D01*
X46983399Y-67444295D01*
X46980295Y-67428844D01*
X46977653Y-67409342D01*
X46976906Y-67403825D01*
X46953078Y-67330492D01*
X46951245Y-67324301D01*
X46933521Y-67258153D01*
X46932120Y-67252924D01*
X46921322Y-67229769D01*
X46915774Y-67215682D01*
X46908625Y-67193679D01*
X46906903Y-67188379D01*
X46904259Y-67183465D01*
X46872010Y-67123536D01*
X46868834Y-67117208D01*
X46839056Y-67053347D01*
X46822421Y-67029591D01*
X46814800Y-67017223D01*
X46802195Y-66993798D01*
X46802194Y-66993796D01*
X46799556Y-66988894D01*
X46791442Y-66978719D01*
X46755799Y-66934023D01*
X46751171Y-66927835D01*
X46712749Y-66872962D01*
X46689798Y-66850011D01*
X46680533Y-66839643D01*
X46661788Y-66816138D01*
X46661786Y-66816136D01*
X46658314Y-66811782D01*
X46608063Y-66767879D01*
X46601966Y-66762179D01*
X46560867Y-66721080D01*
X46560866Y-66721079D01*
X46557038Y-66717251D01*
X46527615Y-66696649D01*
X46517153Y-66688454D01*
X46491916Y-66666405D01*
X46487718Y-66662737D01*
X46433414Y-66630291D01*
X46425889Y-66625419D01*
X46381083Y-66594045D01*
X46381080Y-66594043D01*
X46376654Y-66590944D01*
X46340960Y-66574299D01*
X46329777Y-66568371D01*
X46298027Y-66549401D01*
X46298025Y-66549400D01*
X46293250Y-66546547D01*
X46237236Y-66525524D01*
X46228403Y-66521814D01*
X46181979Y-66500166D01*
X46181976Y-66500164D01*
X46177076Y-66497880D01*
X46171859Y-66496482D01*
X46171848Y-66496478D01*
X46135704Y-66486793D01*
X46124231Y-66483113D01*
X46086367Y-66468903D01*
X46086368Y-66468903D01*
X46081161Y-66466949D01*
X46075691Y-66465956D01*
X46075690Y-66465956D01*
X46025703Y-66456884D01*
X46015756Y-66454652D01*
X45969605Y-66442286D01*
X45969589Y-66442283D01*
X45964371Y-66440885D01*
X45958979Y-66440413D01*
X45958978Y-66440413D01*
X45918258Y-66436850D01*
X45906928Y-66435330D01*
X45863741Y-66427493D01*
X45863737Y-66427492D01*
X45858267Y-66426500D01*
X45852701Y-66426500D01*
X45805358Y-66426500D01*
X45794551Y-66426028D01*
X45750395Y-66422165D01*
X45745000Y-66421693D01*
X45739605Y-66422165D01*
X45739602Y-66422165D01*
X45691403Y-66426381D01*
X45689610Y-66426500D01*
X45688478Y-66426500D01*
X45685726Y-66426747D01*
X45685718Y-66426748D01*
X45633629Y-66431436D01*
X45633322Y-66431463D01*
X45528946Y-66440594D01*
X45528928Y-66440596D01*
X45525629Y-66440885D01*
X45524103Y-66441293D01*
X45519378Y-66441719D01*
X45514012Y-66443199D01*
X45514011Y-66443200D01*
X45415218Y-66470465D01*
X45414355Y-66470700D01*
X45312924Y-66497880D01*
X45309832Y-66499320D01*
X45307762Y-66499982D01*
X45306365Y-66500506D01*
X45301007Y-66501986D01*
X45295994Y-66504399D01*
X45295986Y-66504403D01*
X45206681Y-66547408D01*
X45205289Y-66548068D01*
X45118246Y-66588658D01*
X45118232Y-66588665D01*
X45113347Y-66590944D01*
X45108928Y-66594037D01*
X45108269Y-66594418D01*
X45103185Y-66597105D01*
X45101921Y-66597859D01*
X45096907Y-66600275D01*
X45092411Y-66603541D01*
X45092395Y-66603551D01*
X45014977Y-66659798D01*
X45013218Y-66661053D01*
X44937394Y-66714147D01*
X44937389Y-66714150D01*
X44932962Y-66717251D01*
X44929137Y-66721074D01*
X44924989Y-66724556D01*
X44924814Y-66724347D01*
X44922316Y-66726479D01*
X44922331Y-66726496D01*
X44918142Y-66730155D01*
X44913637Y-66733429D01*
X44909793Y-66737449D01*
X44909782Y-66737459D01*
X44846054Y-66804112D01*
X44844112Y-66806099D01*
X44781076Y-66869136D01*
X44781071Y-66869141D01*
X44777251Y-66872962D01*
X44774153Y-66877384D01*
X44771374Y-66880697D01*
X44762585Y-66891414D01*
X44760938Y-66893137D01*
X44760929Y-66893147D01*
X44757088Y-66897166D01*
X44754031Y-66901796D01*
X44754019Y-66901812D01*
X44705108Y-66975909D01*
X44703198Y-66978719D01*
X44654048Y-67048913D01*
X44654044Y-67048918D01*
X44650944Y-67053347D01*
X44648658Y-67058248D01*
X44648655Y-67058254D01*
X44647461Y-67060815D01*
X44638577Y-67076702D01*
X44635355Y-67081583D01*
X44635352Y-67081587D01*
X44632291Y-67086226D01*
X44630107Y-67091333D01*
X44630105Y-67091339D01*
X44596565Y-67169808D01*
X44594927Y-67173474D01*
X44560167Y-67248018D01*
X44560164Y-67248024D01*
X44557880Y-67252924D01*
X44556479Y-67258149D01*
X44556479Y-67258151D01*
X44554852Y-67264224D01*
X44549104Y-67280846D01*
X44543257Y-67294530D01*
X44542020Y-67299946D01*
X44542018Y-67299955D01*
X44523807Y-67379747D01*
X44522691Y-67384248D01*
X44502284Y-67460404D01*
X44502281Y-67460415D01*
X44500885Y-67465629D01*
X44500414Y-67471008D01*
X44500413Y-67471016D01*
X44499563Y-67480736D01*
X44496927Y-67497510D01*
X44494087Y-67509951D01*
X44494083Y-67509974D01*
X44492849Y-67515385D01*
X44492599Y-67520939D01*
X44492599Y-67520943D01*
X44489080Y-67599274D01*
X44488733Y-67604513D01*
X44482164Y-67679605D01*
X44482164Y-67679616D01*
X44481693Y-67685000D01*
X42158307Y-67685000D01*
X42156683Y-67666447D01*
X42156337Y-67650078D01*
X42157065Y-67633868D01*
X42157315Y-67628309D01*
X42156567Y-67622786D01*
X42146504Y-67548503D01*
X42145853Y-67542661D01*
X42143953Y-67520943D01*
X42139115Y-67465629D01*
X42137713Y-67460398D01*
X42137712Y-67460390D01*
X42133399Y-67444295D01*
X42130295Y-67428844D01*
X42127653Y-67409342D01*
X42126906Y-67403825D01*
X42103078Y-67330492D01*
X42101245Y-67324301D01*
X42083521Y-67258153D01*
X42082120Y-67252924D01*
X42071322Y-67229769D01*
X42065774Y-67215682D01*
X42058625Y-67193679D01*
X42056903Y-67188379D01*
X42054259Y-67183465D01*
X42022010Y-67123536D01*
X42018834Y-67117208D01*
X41989056Y-67053347D01*
X41972421Y-67029591D01*
X41964800Y-67017223D01*
X41952195Y-66993798D01*
X41952194Y-66993796D01*
X41949556Y-66988894D01*
X41941442Y-66978719D01*
X41905799Y-66934023D01*
X41901171Y-66927835D01*
X41862749Y-66872962D01*
X41839798Y-66850011D01*
X41830533Y-66839643D01*
X41811788Y-66816138D01*
X41811786Y-66816136D01*
X41808314Y-66811782D01*
X41758063Y-66767879D01*
X41751966Y-66762179D01*
X41710867Y-66721080D01*
X41710866Y-66721079D01*
X41707038Y-66717251D01*
X41677615Y-66696649D01*
X41667153Y-66688454D01*
X41641916Y-66666405D01*
X41637718Y-66662737D01*
X41583414Y-66630291D01*
X41575889Y-66625419D01*
X41531083Y-66594045D01*
X41531080Y-66594043D01*
X41526654Y-66590944D01*
X41490960Y-66574299D01*
X41479777Y-66568371D01*
X41448027Y-66549401D01*
X41448025Y-66549400D01*
X41443250Y-66546547D01*
X41387236Y-66525524D01*
X41378403Y-66521814D01*
X41331979Y-66500166D01*
X41331976Y-66500164D01*
X41327076Y-66497880D01*
X41321859Y-66496482D01*
X41321848Y-66496478D01*
X41285704Y-66486793D01*
X41274231Y-66483113D01*
X41236367Y-66468903D01*
X41236368Y-66468903D01*
X41231161Y-66466949D01*
X41225691Y-66465956D01*
X41225690Y-66465956D01*
X41175703Y-66456884D01*
X41165756Y-66454652D01*
X41119605Y-66442286D01*
X41119589Y-66442283D01*
X41114371Y-66440885D01*
X41108979Y-66440413D01*
X41108978Y-66440413D01*
X41068258Y-66436850D01*
X41056928Y-66435330D01*
X41013741Y-66427493D01*
X41013737Y-66427492D01*
X41008267Y-66426500D01*
X41002701Y-66426500D01*
X40955358Y-66426500D01*
X40944551Y-66426028D01*
X40900395Y-66422165D01*
X40895000Y-66421693D01*
X40889605Y-66422165D01*
X40889602Y-66422165D01*
X40841403Y-66426381D01*
X40839610Y-66426500D01*
X40838478Y-66426500D01*
X40835726Y-66426747D01*
X40835718Y-66426748D01*
X40783629Y-66431436D01*
X40783322Y-66431463D01*
X40678946Y-66440594D01*
X40678928Y-66440596D01*
X40675629Y-66440885D01*
X40674103Y-66441293D01*
X40669378Y-66441719D01*
X40664012Y-66443199D01*
X40664011Y-66443200D01*
X40565218Y-66470465D01*
X40564355Y-66470700D01*
X40462924Y-66497880D01*
X40459832Y-66499320D01*
X40457762Y-66499982D01*
X40456365Y-66500506D01*
X40451007Y-66501986D01*
X40445994Y-66504399D01*
X40445986Y-66504403D01*
X40356681Y-66547408D01*
X40355289Y-66548068D01*
X40268246Y-66588658D01*
X40268232Y-66588665D01*
X40263347Y-66590944D01*
X40258928Y-66594037D01*
X40258269Y-66594418D01*
X40253185Y-66597105D01*
X40251921Y-66597859D01*
X40246907Y-66600275D01*
X40242411Y-66603541D01*
X40242395Y-66603551D01*
X40164977Y-66659798D01*
X40163218Y-66661053D01*
X40087394Y-66714147D01*
X40087389Y-66714150D01*
X40082962Y-66717251D01*
X40079137Y-66721074D01*
X40074989Y-66724556D01*
X40074814Y-66724347D01*
X40072316Y-66726479D01*
X40072331Y-66726496D01*
X40068142Y-66730155D01*
X40063637Y-66733429D01*
X40059793Y-66737449D01*
X40059782Y-66737459D01*
X39996054Y-66804112D01*
X39994112Y-66806099D01*
X39931076Y-66869136D01*
X39931071Y-66869141D01*
X39927251Y-66872962D01*
X39924153Y-66877384D01*
X39921374Y-66880697D01*
X39912585Y-66891414D01*
X39910938Y-66893137D01*
X39910929Y-66893147D01*
X39907088Y-66897166D01*
X39904031Y-66901796D01*
X39904019Y-66901812D01*
X39855108Y-66975909D01*
X39853198Y-66978719D01*
X39804048Y-67048913D01*
X39804044Y-67048918D01*
X39800944Y-67053347D01*
X39798658Y-67058248D01*
X39798655Y-67058254D01*
X39797461Y-67060815D01*
X39788577Y-67076702D01*
X39785355Y-67081583D01*
X39785352Y-67081587D01*
X39782291Y-67086226D01*
X39780107Y-67091333D01*
X39780105Y-67091339D01*
X39746565Y-67169808D01*
X39744927Y-67173474D01*
X39710167Y-67248018D01*
X39710164Y-67248024D01*
X39707880Y-67252924D01*
X39706479Y-67258149D01*
X39706479Y-67258151D01*
X39704852Y-67264224D01*
X39699104Y-67280846D01*
X39693257Y-67294530D01*
X39692020Y-67299946D01*
X39692018Y-67299955D01*
X39673807Y-67379747D01*
X39672691Y-67384248D01*
X39652284Y-67460404D01*
X39652281Y-67460415D01*
X39650885Y-67465629D01*
X39650414Y-67471008D01*
X39650413Y-67471016D01*
X39649563Y-67480736D01*
X39646927Y-67497510D01*
X39644087Y-67509951D01*
X39644083Y-67509974D01*
X39642849Y-67515385D01*
X39642599Y-67520939D01*
X39642599Y-67520943D01*
X39639080Y-67599274D01*
X39638733Y-67604513D01*
X39632164Y-67679605D01*
X39632164Y-67679616D01*
X39631693Y-67685000D01*
X35788500Y-67685000D01*
X35788500Y-67126312D01*
X35788924Y-67116072D01*
X35792732Y-67070117D01*
X35793156Y-67065000D01*
X35788923Y-67013927D01*
X35788500Y-67003688D01*
X35788500Y-66169672D01*
X35788500Y-66166362D01*
X35781989Y-66105799D01*
X35730889Y-65968796D01*
X35656414Y-65869310D01*
X35634516Y-65821358D01*
X35634516Y-65768642D01*
X35656415Y-65720689D01*
X35730889Y-65621204D01*
X35781989Y-65484201D01*
X35788500Y-65423638D01*
X35788500Y-64655000D01*
X39181673Y-64655000D01*
X39182096Y-64660105D01*
X39182096Y-64660107D01*
X39188766Y-64740616D01*
X39189077Y-64745590D01*
X39191620Y-64805434D01*
X39192857Y-64834551D01*
X39193967Y-64839705D01*
X39193968Y-64839707D01*
X39197163Y-64854533D01*
X39199522Y-64870411D01*
X39200949Y-64887626D01*
X39202205Y-64892587D01*
X39202207Y-64892597D01*
X39222871Y-64974198D01*
X39223882Y-64978511D01*
X39236547Y-65037277D01*
X39243370Y-65068932D01*
X39245333Y-65073817D01*
X39249707Y-65084702D01*
X39254854Y-65100496D01*
X39256989Y-65108927D01*
X39256992Y-65108936D01*
X39258251Y-65113907D01*
X39275252Y-65152665D01*
X39295505Y-65198838D01*
X39297007Y-65202413D01*
X39330802Y-65286516D01*
X39330806Y-65286524D01*
X39332767Y-65291404D01*
X39339877Y-65302952D01*
X39347839Y-65318147D01*
X39352016Y-65327669D01*
X39354817Y-65331956D01*
X39354821Y-65331963D01*
X39404626Y-65408196D01*
X39406396Y-65410987D01*
X39458476Y-65495569D01*
X39461953Y-65499520D01*
X39461954Y-65499521D01*
X39465162Y-65503166D01*
X39475880Y-65517258D01*
X39479686Y-65523083D01*
X39547161Y-65596380D01*
X39548980Y-65598401D01*
X39586806Y-65641380D01*
X39616881Y-65675551D01*
X39620976Y-65678857D01*
X39620980Y-65678861D01*
X39622067Y-65679738D01*
X39630479Y-65687622D01*
X39630530Y-65687568D01*
X39634308Y-65691046D01*
X39637780Y-65694818D01*
X39719153Y-65758153D01*
X39720739Y-65759410D01*
X39803424Y-65826175D01*
X39808018Y-65828741D01*
X39812390Y-65831696D01*
X39812333Y-65831779D01*
X39813450Y-65832519D01*
X39813638Y-65832232D01*
X39817936Y-65835040D01*
X39821983Y-65838190D01*
X39826492Y-65840630D01*
X39826495Y-65840632D01*
X39915605Y-65888855D01*
X39917062Y-65889656D01*
X39971077Y-65919831D01*
X40012740Y-65943105D01*
X40017707Y-65944860D01*
X40018891Y-65945395D01*
X40023308Y-65947141D01*
X40027273Y-65949287D01*
X40131231Y-65984976D01*
X40132195Y-65985312D01*
X40233831Y-66021223D01*
X40233839Y-66021225D01*
X40238806Y-66022980D01*
X40243998Y-66023869D01*
X40245429Y-66024242D01*
X40245901Y-66024342D01*
X40248049Y-66025080D01*
X40360006Y-66043762D01*
X40360237Y-66043801D01*
X40475119Y-66063500D01*
X40478288Y-66063500D01*
X40654827Y-66063500D01*
X40706580Y-66063500D01*
X40711712Y-66063500D01*
X40716773Y-66062655D01*
X40716778Y-66062655D01*
X40742402Y-66058378D01*
X40766022Y-66054436D01*
X40775867Y-66053197D01*
X40833898Y-66048259D01*
X40883607Y-66035314D01*
X40894388Y-66033015D01*
X40941951Y-66025080D01*
X40997278Y-66006085D01*
X41006271Y-66003375D01*
X41065924Y-65987844D01*
X41109603Y-65968099D01*
X41120388Y-65963821D01*
X41162727Y-65949287D01*
X41217178Y-65919818D01*
X41225075Y-65915902D01*
X41284402Y-65889086D01*
X41321259Y-65864173D01*
X41331683Y-65857852D01*
X41342979Y-65851739D01*
X41368017Y-65838190D01*
X41419592Y-65798046D01*
X41426295Y-65793182D01*
X41450070Y-65777113D01*
X41483047Y-65754825D01*
X41512693Y-65726410D01*
X41522320Y-65718089D01*
X41552220Y-65694818D01*
X41558845Y-65687622D01*
X41573598Y-65671595D01*
X41598796Y-65644221D01*
X41604191Y-65638717D01*
X41656144Y-65588925D01*
X41678515Y-65558676D01*
X41686972Y-65548437D01*
X41710314Y-65523083D01*
X41749790Y-65462657D01*
X41753907Y-65456739D01*
X41775959Y-65426924D01*
X41798715Y-65396157D01*
X41814109Y-65365622D01*
X41821015Y-65353640D01*
X41837984Y-65327669D01*
X41868373Y-65258385D01*
X41871158Y-65252471D01*
X41906657Y-65182067D01*
X41915665Y-65152651D01*
X41920669Y-65139165D01*
X41931749Y-65113907D01*
X41951158Y-65037258D01*
X41952783Y-65031444D01*
X41976864Y-64952815D01*
X41980333Y-64925720D01*
X41983119Y-64911049D01*
X41989051Y-64887626D01*
X41995861Y-64805427D01*
X41996442Y-64799922D01*
X42007318Y-64714995D01*
X42006304Y-64691131D01*
X42006615Y-64675650D01*
X42008327Y-64655000D01*
X44631673Y-64655000D01*
X44632096Y-64660105D01*
X44632096Y-64660107D01*
X44638766Y-64740616D01*
X44639077Y-64745590D01*
X44641620Y-64805434D01*
X44642857Y-64834551D01*
X44643967Y-64839705D01*
X44643968Y-64839707D01*
X44647163Y-64854533D01*
X44649522Y-64870411D01*
X44650949Y-64887626D01*
X44652205Y-64892587D01*
X44652207Y-64892597D01*
X44672871Y-64974198D01*
X44673882Y-64978511D01*
X44686547Y-65037277D01*
X44693370Y-65068932D01*
X44695333Y-65073817D01*
X44699707Y-65084702D01*
X44704854Y-65100496D01*
X44706989Y-65108927D01*
X44706992Y-65108936D01*
X44708251Y-65113907D01*
X44725252Y-65152665D01*
X44745505Y-65198838D01*
X44747007Y-65202413D01*
X44780802Y-65286516D01*
X44780806Y-65286524D01*
X44782767Y-65291404D01*
X44789877Y-65302952D01*
X44797839Y-65318147D01*
X44802016Y-65327669D01*
X44804817Y-65331956D01*
X44804821Y-65331963D01*
X44854626Y-65408196D01*
X44856396Y-65410987D01*
X44908476Y-65495569D01*
X44911953Y-65499520D01*
X44911954Y-65499521D01*
X44915162Y-65503166D01*
X44925880Y-65517258D01*
X44929686Y-65523083D01*
X44997161Y-65596380D01*
X44998980Y-65598401D01*
X45036806Y-65641380D01*
X45066881Y-65675551D01*
X45070976Y-65678857D01*
X45070980Y-65678861D01*
X45072067Y-65679738D01*
X45080479Y-65687622D01*
X45080530Y-65687568D01*
X45084308Y-65691046D01*
X45087780Y-65694818D01*
X45169153Y-65758153D01*
X45170739Y-65759410D01*
X45253424Y-65826175D01*
X45258018Y-65828741D01*
X45262390Y-65831696D01*
X45262333Y-65831779D01*
X45263450Y-65832519D01*
X45263638Y-65832232D01*
X45267936Y-65835040D01*
X45271983Y-65838190D01*
X45276492Y-65840630D01*
X45276495Y-65840632D01*
X45365605Y-65888855D01*
X45367062Y-65889656D01*
X45421077Y-65919831D01*
X45462740Y-65943105D01*
X45467707Y-65944860D01*
X45468891Y-65945395D01*
X45473308Y-65947141D01*
X45477273Y-65949287D01*
X45581231Y-65984976D01*
X45582195Y-65985312D01*
X45683831Y-66021223D01*
X45683839Y-66021225D01*
X45688806Y-66022980D01*
X45693998Y-66023869D01*
X45695429Y-66024242D01*
X45695901Y-66024342D01*
X45698049Y-66025080D01*
X45810006Y-66043762D01*
X45810237Y-66043801D01*
X45925119Y-66063500D01*
X45928288Y-66063500D01*
X46104827Y-66063500D01*
X46156580Y-66063500D01*
X46161712Y-66063500D01*
X46166773Y-66062655D01*
X46166778Y-66062655D01*
X46192402Y-66058378D01*
X46216022Y-66054436D01*
X46225867Y-66053197D01*
X46283898Y-66048259D01*
X46333607Y-66035314D01*
X46344388Y-66033015D01*
X46391951Y-66025080D01*
X46447278Y-66006085D01*
X46456271Y-66003375D01*
X46515924Y-65987844D01*
X46559603Y-65968099D01*
X46570388Y-65963821D01*
X46612727Y-65949287D01*
X46667178Y-65919818D01*
X46675075Y-65915902D01*
X46734402Y-65889086D01*
X46771259Y-65864173D01*
X46781683Y-65857852D01*
X46792979Y-65851739D01*
X46818017Y-65838190D01*
X46869592Y-65798046D01*
X46876295Y-65793182D01*
X46900070Y-65777113D01*
X46933047Y-65754825D01*
X46962693Y-65726410D01*
X46972320Y-65718089D01*
X47002220Y-65694818D01*
X47008845Y-65687622D01*
X47023598Y-65671595D01*
X47048796Y-65644221D01*
X47054191Y-65638717D01*
X47106144Y-65588925D01*
X47128515Y-65558676D01*
X47136972Y-65548437D01*
X47160314Y-65523083D01*
X47199790Y-65462657D01*
X47203907Y-65456739D01*
X47225959Y-65426924D01*
X47248715Y-65396157D01*
X47264109Y-65365622D01*
X47271015Y-65353640D01*
X47287984Y-65327669D01*
X47318373Y-65258385D01*
X47321158Y-65252471D01*
X47356657Y-65182067D01*
X47365665Y-65152651D01*
X47370669Y-65139165D01*
X47381749Y-65113907D01*
X47401158Y-65037258D01*
X47402783Y-65031444D01*
X47426864Y-64952815D01*
X47430333Y-64925720D01*
X47433119Y-64911049D01*
X47439051Y-64887626D01*
X47445861Y-64805427D01*
X47446442Y-64799922D01*
X47457318Y-64714995D01*
X47456304Y-64691131D01*
X47456615Y-64675650D01*
X47458327Y-64655000D01*
X47451233Y-64569392D01*
X47450922Y-64564427D01*
X47449465Y-64530117D01*
X47447143Y-64475449D01*
X47442836Y-64455465D01*
X47440476Y-64439577D01*
X47439051Y-64422374D01*
X47437792Y-64417402D01*
X47437791Y-64417396D01*
X47417125Y-64335790D01*
X47416113Y-64331472D01*
X47404087Y-64275670D01*
X47396630Y-64241068D01*
X47390291Y-64225294D01*
X47385143Y-64209496D01*
X47383008Y-64201066D01*
X47383008Y-64201065D01*
X47381749Y-64196093D01*
X47344478Y-64111124D01*
X47342982Y-64107562D01*
X47309196Y-64023481D01*
X47309195Y-64023480D01*
X47307233Y-64018596D01*
X47304472Y-64014112D01*
X47304470Y-64014108D01*
X47300126Y-64007053D01*
X47292157Y-63991844D01*
X47290044Y-63987027D01*
X47290042Y-63987023D01*
X47287984Y-63982331D01*
X47235379Y-63901813D01*
X47233608Y-63899021D01*
X47184286Y-63818916D01*
X47184283Y-63818912D01*
X47181524Y-63814431D01*
X47174843Y-63806840D01*
X47164113Y-63792732D01*
X47160314Y-63786917D01*
X47156838Y-63783141D01*
X47092872Y-63713656D01*
X47091018Y-63711597D01*
X47026600Y-63638404D01*
X47026598Y-63638403D01*
X47023119Y-63634449D01*
X47017926Y-63630256D01*
X47009516Y-63622374D01*
X47009467Y-63622429D01*
X47005690Y-63618951D01*
X47002220Y-63615182D01*
X46948674Y-63573505D01*
X46920928Y-63551909D01*
X46919192Y-63550532D01*
X46840678Y-63487137D01*
X46840676Y-63487136D01*
X46836576Y-63483825D01*
X46831977Y-63481256D01*
X46827613Y-63478306D01*
X46827690Y-63478191D01*
X46826570Y-63477442D01*
X46826359Y-63477766D01*
X46822063Y-63474959D01*
X46818017Y-63471810D01*
X46724383Y-63421138D01*
X46722937Y-63420342D01*
X46631860Y-63369464D01*
X46631853Y-63369461D01*
X46627260Y-63366895D01*
X46622302Y-63365142D01*
X46621110Y-63364604D01*
X46616688Y-63362856D01*
X46612727Y-63360713D01*
X46557911Y-63341894D01*
X46508779Y-63325026D01*
X46507736Y-63324662D01*
X46406168Y-63288777D01*
X46406163Y-63288775D01*
X46401194Y-63287020D01*
X46395996Y-63286128D01*
X46394576Y-63285759D01*
X46394101Y-63285658D01*
X46391951Y-63284920D01*
X46386895Y-63284076D01*
X46386894Y-63284076D01*
X46280000Y-63266238D01*
X46279803Y-63266204D01*
X46164881Y-63246500D01*
X46161712Y-63246500D01*
X45928288Y-63246500D01*
X45923227Y-63247344D01*
X45923220Y-63247345D01*
X45873987Y-63255560D01*
X45864098Y-63256804D01*
X45811356Y-63261293D01*
X45811347Y-63261294D01*
X45806102Y-63261741D01*
X45801001Y-63263069D01*
X45800996Y-63263070D01*
X45756414Y-63274678D01*
X45745581Y-63276988D01*
X45703103Y-63284076D01*
X45703095Y-63284077D01*
X45698049Y-63284920D01*
X45693204Y-63286583D01*
X45693193Y-63286586D01*
X45642739Y-63303906D01*
X45633727Y-63306622D01*
X45579179Y-63320826D01*
X45579165Y-63320830D01*
X45574076Y-63322156D01*
X45569276Y-63324325D01*
X45569272Y-63324327D01*
X45530406Y-63341894D01*
X45519603Y-63346179D01*
X45477273Y-63360713D01*
X45472777Y-63363145D01*
X45472761Y-63363153D01*
X45422828Y-63390175D01*
X45414891Y-63394110D01*
X45360402Y-63418741D01*
X45360388Y-63418748D01*
X45355598Y-63420914D01*
X45351240Y-63423859D01*
X45351230Y-63423865D01*
X45318732Y-63445829D01*
X45308319Y-63452145D01*
X45276491Y-63469370D01*
X45276487Y-63469371D01*
X45271983Y-63471810D01*
X45267947Y-63474950D01*
X45267929Y-63474963D01*
X45220419Y-63511942D01*
X45213697Y-63516822D01*
X45161311Y-63552229D01*
X45161307Y-63552231D01*
X45156953Y-63555175D01*
X45153162Y-63558807D01*
X45153151Y-63558817D01*
X45127312Y-63583582D01*
X45117680Y-63591908D01*
X45091825Y-63612032D01*
X45091814Y-63612041D01*
X45087780Y-63615182D01*
X45084315Y-63618944D01*
X45084306Y-63618954D01*
X45041209Y-63665768D01*
X45035785Y-63671302D01*
X44987657Y-63717431D01*
X44987651Y-63717436D01*
X44983856Y-63721075D01*
X44980729Y-63725301D01*
X44980726Y-63725306D01*
X44961478Y-63751329D01*
X44953020Y-63761567D01*
X44933158Y-63783144D01*
X44933151Y-63783151D01*
X44929686Y-63786917D01*
X44926885Y-63791202D01*
X44926885Y-63791204D01*
X44890207Y-63847343D01*
X44886096Y-63853253D01*
X44844415Y-63909610D01*
X44844411Y-63909615D01*
X44841285Y-63913843D01*
X44838919Y-63918534D01*
X44838910Y-63918550D01*
X44825890Y-63944373D01*
X44818982Y-63956360D01*
X44804819Y-63978039D01*
X44804814Y-63978047D01*
X44802016Y-63982331D01*
X44799959Y-63987019D01*
X44799957Y-63987024D01*
X44771645Y-64051568D01*
X44768819Y-64057568D01*
X44733343Y-64127933D01*
X44731800Y-64132968D01*
X44731799Y-64132973D01*
X44724334Y-64157345D01*
X44719330Y-64170833D01*
X44708251Y-64196093D01*
X44706997Y-64201043D01*
X44706990Y-64201065D01*
X44688843Y-64272727D01*
X44687203Y-64278593D01*
X44664678Y-64352146D01*
X44664675Y-64352158D01*
X44663136Y-64357185D01*
X44662468Y-64362398D01*
X44662466Y-64362409D01*
X44659666Y-64384277D01*
X44656878Y-64398958D01*
X44652207Y-64417402D01*
X44652205Y-64417413D01*
X44650949Y-64422374D01*
X44650525Y-64427481D01*
X44650525Y-64427486D01*
X44644138Y-64504554D01*
X44643558Y-64510060D01*
X44633350Y-64589784D01*
X44633349Y-64589790D01*
X44632682Y-64595005D01*
X44632905Y-64600255D01*
X44633695Y-64618857D01*
X44633383Y-64634347D01*
X44632096Y-64649889D01*
X44631673Y-64655000D01*
X42008327Y-64655000D01*
X42001233Y-64569392D01*
X42000922Y-64564427D01*
X41999465Y-64530117D01*
X41997143Y-64475449D01*
X41992836Y-64455465D01*
X41990476Y-64439577D01*
X41989051Y-64422374D01*
X41987792Y-64417402D01*
X41987791Y-64417396D01*
X41967125Y-64335790D01*
X41966113Y-64331472D01*
X41954087Y-64275670D01*
X41946630Y-64241068D01*
X41940291Y-64225294D01*
X41935143Y-64209496D01*
X41933008Y-64201066D01*
X41933008Y-64201065D01*
X41931749Y-64196093D01*
X41894478Y-64111124D01*
X41892982Y-64107562D01*
X41859196Y-64023481D01*
X41859195Y-64023480D01*
X41857233Y-64018596D01*
X41854472Y-64014112D01*
X41854470Y-64014108D01*
X41850126Y-64007053D01*
X41842157Y-63991844D01*
X41840044Y-63987027D01*
X41840042Y-63987023D01*
X41837984Y-63982331D01*
X41785379Y-63901813D01*
X41783608Y-63899021D01*
X41734286Y-63818916D01*
X41734283Y-63818912D01*
X41731524Y-63814431D01*
X41724843Y-63806840D01*
X41714113Y-63792732D01*
X41710314Y-63786917D01*
X41706838Y-63783141D01*
X41642872Y-63713656D01*
X41641018Y-63711597D01*
X41576600Y-63638404D01*
X41576598Y-63638403D01*
X41573119Y-63634449D01*
X41567926Y-63630256D01*
X41559516Y-63622374D01*
X41559467Y-63622429D01*
X41555690Y-63618951D01*
X41552220Y-63615182D01*
X41498674Y-63573505D01*
X41470928Y-63551909D01*
X41469192Y-63550532D01*
X41390678Y-63487137D01*
X41390676Y-63487136D01*
X41386576Y-63483825D01*
X41381977Y-63481256D01*
X41377613Y-63478306D01*
X41377690Y-63478191D01*
X41376570Y-63477442D01*
X41376359Y-63477766D01*
X41372063Y-63474959D01*
X41368017Y-63471810D01*
X41274383Y-63421138D01*
X41272937Y-63420342D01*
X41181860Y-63369464D01*
X41181853Y-63369461D01*
X41177260Y-63366895D01*
X41172302Y-63365142D01*
X41171110Y-63364604D01*
X41166688Y-63362856D01*
X41162727Y-63360713D01*
X41107911Y-63341894D01*
X41058779Y-63325026D01*
X41057736Y-63324662D01*
X40956168Y-63288777D01*
X40956163Y-63288775D01*
X40951194Y-63287020D01*
X40945996Y-63286128D01*
X40944576Y-63285759D01*
X40944101Y-63285658D01*
X40941951Y-63284920D01*
X40936895Y-63284076D01*
X40936894Y-63284076D01*
X40830000Y-63266238D01*
X40829803Y-63266204D01*
X40714881Y-63246500D01*
X40711712Y-63246500D01*
X40478288Y-63246500D01*
X40473227Y-63247344D01*
X40473220Y-63247345D01*
X40423987Y-63255560D01*
X40414098Y-63256804D01*
X40361356Y-63261293D01*
X40361347Y-63261294D01*
X40356102Y-63261741D01*
X40351001Y-63263069D01*
X40350996Y-63263070D01*
X40306414Y-63274678D01*
X40295581Y-63276988D01*
X40253103Y-63284076D01*
X40253095Y-63284077D01*
X40248049Y-63284920D01*
X40243204Y-63286583D01*
X40243193Y-63286586D01*
X40192739Y-63303906D01*
X40183727Y-63306622D01*
X40129179Y-63320826D01*
X40129165Y-63320830D01*
X40124076Y-63322156D01*
X40119276Y-63324325D01*
X40119272Y-63324327D01*
X40080406Y-63341894D01*
X40069603Y-63346179D01*
X40027273Y-63360713D01*
X40022777Y-63363145D01*
X40022761Y-63363153D01*
X39972828Y-63390175D01*
X39964891Y-63394110D01*
X39910402Y-63418741D01*
X39910388Y-63418748D01*
X39905598Y-63420914D01*
X39901240Y-63423859D01*
X39901230Y-63423865D01*
X39868732Y-63445829D01*
X39858319Y-63452145D01*
X39826491Y-63469370D01*
X39826487Y-63469371D01*
X39821983Y-63471810D01*
X39817947Y-63474950D01*
X39817929Y-63474963D01*
X39770419Y-63511942D01*
X39763697Y-63516822D01*
X39711311Y-63552229D01*
X39711307Y-63552231D01*
X39706953Y-63555175D01*
X39703162Y-63558807D01*
X39703151Y-63558817D01*
X39677312Y-63583582D01*
X39667680Y-63591908D01*
X39641825Y-63612032D01*
X39641814Y-63612041D01*
X39637780Y-63615182D01*
X39634315Y-63618944D01*
X39634306Y-63618954D01*
X39591209Y-63665768D01*
X39585785Y-63671302D01*
X39537657Y-63717431D01*
X39537651Y-63717436D01*
X39533856Y-63721075D01*
X39530729Y-63725301D01*
X39530726Y-63725306D01*
X39511478Y-63751329D01*
X39503020Y-63761567D01*
X39483158Y-63783144D01*
X39483151Y-63783151D01*
X39479686Y-63786917D01*
X39476885Y-63791202D01*
X39476885Y-63791204D01*
X39440207Y-63847343D01*
X39436096Y-63853253D01*
X39394415Y-63909610D01*
X39394411Y-63909615D01*
X39391285Y-63913843D01*
X39388919Y-63918534D01*
X39388910Y-63918550D01*
X39375890Y-63944373D01*
X39368982Y-63956360D01*
X39354819Y-63978039D01*
X39354814Y-63978047D01*
X39352016Y-63982331D01*
X39349959Y-63987019D01*
X39349957Y-63987024D01*
X39321645Y-64051568D01*
X39318819Y-64057568D01*
X39283343Y-64127933D01*
X39281800Y-64132968D01*
X39281799Y-64132973D01*
X39274334Y-64157345D01*
X39269330Y-64170833D01*
X39258251Y-64196093D01*
X39256997Y-64201043D01*
X39256990Y-64201065D01*
X39238843Y-64272727D01*
X39237203Y-64278593D01*
X39214678Y-64352146D01*
X39214675Y-64352158D01*
X39213136Y-64357185D01*
X39212468Y-64362398D01*
X39212466Y-64362409D01*
X39209666Y-64384277D01*
X39206878Y-64398958D01*
X39202207Y-64417402D01*
X39202205Y-64417413D01*
X39200949Y-64422374D01*
X39200525Y-64427481D01*
X39200525Y-64427486D01*
X39194138Y-64504554D01*
X39193558Y-64510060D01*
X39183350Y-64589784D01*
X39183349Y-64589790D01*
X39182682Y-64595005D01*
X39182905Y-64600255D01*
X39183695Y-64618857D01*
X39183383Y-64634347D01*
X39182096Y-64649889D01*
X39181673Y-64655000D01*
X35788500Y-64655000D01*
X35788500Y-64586312D01*
X35788924Y-64576072D01*
X35792732Y-64530117D01*
X35793156Y-64525000D01*
X35788923Y-64473927D01*
X35788500Y-64463688D01*
X35788500Y-63629672D01*
X35788500Y-63626362D01*
X35781989Y-63565799D01*
X35730889Y-63428796D01*
X35643261Y-63311739D01*
X35632797Y-63303906D01*
X35533304Y-63229426D01*
X35533303Y-63229425D01*
X35526204Y-63224111D01*
X35517896Y-63221012D01*
X35517894Y-63221011D01*
X35396463Y-63175719D01*
X35396458Y-63175717D01*
X35389201Y-63173011D01*
X35381497Y-63172182D01*
X35381494Y-63172182D01*
X35331924Y-63166853D01*
X35331918Y-63166852D01*
X35328638Y-63166500D01*
X31731362Y-63166500D01*
X31728082Y-63166852D01*
X31728075Y-63166853D01*
X31678505Y-63172182D01*
X31678500Y-63172182D01*
X31670799Y-63173011D01*
X31663543Y-63175717D01*
X31663536Y-63175719D01*
X31542105Y-63221011D01*
X31542099Y-63221013D01*
X31533796Y-63224111D01*
X31526698Y-63229423D01*
X31526695Y-63229426D01*
X31423835Y-63306426D01*
X31423831Y-63306429D01*
X31416739Y-63311739D01*
X31411429Y-63318831D01*
X31411426Y-63318835D01*
X31334426Y-63421695D01*
X31334423Y-63421698D01*
X31329111Y-63428796D01*
X31326013Y-63437099D01*
X31326011Y-63437105D01*
X31280719Y-63558536D01*
X31280717Y-63558543D01*
X31278011Y-63565799D01*
X31277182Y-63573500D01*
X31277182Y-63573505D01*
X31271853Y-63623075D01*
X31271500Y-63626362D01*
X31271500Y-65423638D01*
X31271852Y-65426918D01*
X31271853Y-65426924D01*
X31275694Y-65462657D01*
X31278011Y-65484201D01*
X31280717Y-65491458D01*
X31280719Y-65491463D01*
X31326011Y-65612894D01*
X31329111Y-65621204D01*
X31334425Y-65628303D01*
X31334428Y-65628308D01*
X31403584Y-65720690D01*
X31425483Y-65768642D01*
X31425483Y-65821358D01*
X31403584Y-65869310D01*
X31334428Y-65961691D01*
X31334423Y-65961699D01*
X31329111Y-65968796D01*
X31326013Y-65977099D01*
X31326011Y-65977105D01*
X31280719Y-66098536D01*
X31280717Y-66098543D01*
X31278011Y-66105799D01*
X31277182Y-66113500D01*
X31277182Y-66113505D01*
X31271853Y-66163075D01*
X31271500Y-66166362D01*
X31271500Y-67963638D01*
X31271852Y-67966918D01*
X31271853Y-67966924D01*
X31274116Y-67987978D01*
X31278011Y-68024201D01*
X31280717Y-68031458D01*
X31280719Y-68031463D01*
X31321287Y-68140228D01*
X31329111Y-68161204D01*
X31334425Y-68168303D01*
X31334426Y-68168304D01*
X31408893Y-68267780D01*
X31430792Y-68315733D01*
X31430792Y-68368449D01*
X31408893Y-68416402D01*
X31341962Y-68505810D01*
X31333547Y-68521222D01*
X31289111Y-68640358D01*
X31285573Y-68655332D01*
X31280353Y-68703885D01*
X31280000Y-68710482D01*
X31280000Y-69338674D01*
X31283450Y-69351549D01*
X31296326Y-69355000D01*
X32947500Y-69355000D01*
X33009500Y-69371613D01*
X33054887Y-69417000D01*
X33071500Y-69479000D01*
X33071500Y-69731000D01*
X33054887Y-69793000D01*
X33009500Y-69838387D01*
X32947500Y-69855000D01*
X31296326Y-69855000D01*
X31283450Y-69858450D01*
X31280000Y-69871326D01*
X31280000Y-70499518D01*
X31280353Y-70506114D01*
X31285573Y-70554667D01*
X31289111Y-70569641D01*
X31333547Y-70688777D01*
X31341962Y-70704189D01*
X31408893Y-70793597D01*
X31430792Y-70841549D01*
X31430792Y-70894266D01*
X31408893Y-70942218D01*
X31334428Y-71041691D01*
X31334423Y-71041699D01*
X31329111Y-71048796D01*
X31326013Y-71057099D01*
X31326011Y-71057105D01*
X31280719Y-71178536D01*
X31280717Y-71178543D01*
X31278011Y-71185799D01*
X31277182Y-71193500D01*
X31277182Y-71193505D01*
X31271853Y-71243075D01*
X31271500Y-71246362D01*
X31271500Y-73043638D01*
X31278011Y-73104201D01*
X31280717Y-73111458D01*
X31280719Y-73111463D01*
X31326011Y-73232894D01*
X31329111Y-73241204D01*
X31334425Y-73248303D01*
X31334428Y-73248308D01*
X31403584Y-73340690D01*
X31425483Y-73388642D01*
X31425483Y-73441358D01*
X31403584Y-73489310D01*
X31334428Y-73581691D01*
X31334423Y-73581699D01*
X31329111Y-73588796D01*
X31326013Y-73597099D01*
X31326011Y-73597105D01*
X31280719Y-73718536D01*
X31280717Y-73718543D01*
X31278011Y-73725799D01*
X31277182Y-73733500D01*
X31277182Y-73733505D01*
X31271853Y-73783075D01*
X31271500Y-73786362D01*
X31271500Y-75583638D01*
X31278011Y-75644201D01*
X31280717Y-75651458D01*
X31280719Y-75651463D01*
X31326011Y-75772894D01*
X31329111Y-75781204D01*
X31334425Y-75788303D01*
X31334428Y-75788308D01*
X31403584Y-75880690D01*
X31425483Y-75928642D01*
X31425483Y-75981358D01*
X31403584Y-76029310D01*
X31334428Y-76121691D01*
X31334423Y-76121699D01*
X31329111Y-76128796D01*
X31326013Y-76137099D01*
X31326011Y-76137105D01*
X31280719Y-76258536D01*
X31280717Y-76258543D01*
X31278011Y-76265799D01*
X31277182Y-76273500D01*
X31277182Y-76273505D01*
X31271853Y-76323075D01*
X31271500Y-76326362D01*
X31271500Y-78123638D01*
X31278011Y-78184201D01*
X31280717Y-78191458D01*
X31280719Y-78191463D01*
X31310344Y-78270889D01*
X31329111Y-78321204D01*
X31334425Y-78328303D01*
X31334428Y-78328308D01*
X31403584Y-78420690D01*
X31425483Y-78468642D01*
X31425483Y-78521358D01*
X31403584Y-78569310D01*
X31334428Y-78661691D01*
X31334423Y-78661699D01*
X31329111Y-78668796D01*
X31326013Y-78677099D01*
X31326011Y-78677105D01*
X31280719Y-78798536D01*
X31280717Y-78798543D01*
X31278011Y-78805799D01*
X31277182Y-78813500D01*
X31277182Y-78813505D01*
X31271853Y-78863075D01*
X31271500Y-78866362D01*
X31271500Y-80663638D01*
X31278011Y-80724201D01*
X31280717Y-80731458D01*
X31280719Y-80731463D01*
X31326011Y-80852894D01*
X31329111Y-80861204D01*
X31334425Y-80868303D01*
X31334426Y-80868304D01*
X31408893Y-80967780D01*
X31430792Y-81015733D01*
X31430792Y-81068449D01*
X31408893Y-81116402D01*
X31341962Y-81205810D01*
X31333547Y-81221222D01*
X31289111Y-81340358D01*
X31285573Y-81355332D01*
X31280353Y-81403885D01*
X31280000Y-81410482D01*
X31280000Y-82038674D01*
X31283450Y-82051549D01*
X31296326Y-82055000D01*
X32947500Y-82055000D01*
X33009500Y-82071613D01*
X33054887Y-82117000D01*
X33071500Y-82179000D01*
X33071500Y-82431000D01*
X33054887Y-82493000D01*
X33009500Y-82538387D01*
X32947500Y-82555000D01*
X31296326Y-82555000D01*
X31283450Y-82558450D01*
X31280000Y-82571326D01*
X31280000Y-83199518D01*
X31280353Y-83206114D01*
X31285573Y-83254667D01*
X31289111Y-83269641D01*
X31333547Y-83388777D01*
X31341962Y-83404189D01*
X31408893Y-83493597D01*
X31430792Y-83541549D01*
X31430792Y-83594266D01*
X31408893Y-83642218D01*
X31334428Y-83741691D01*
X31334423Y-83741699D01*
X31329111Y-83748796D01*
X31326013Y-83757099D01*
X31326011Y-83757105D01*
X31280719Y-83878536D01*
X31280717Y-83878543D01*
X31278011Y-83885799D01*
X31277182Y-83893500D01*
X31277182Y-83893505D01*
X31271853Y-83943075D01*
X31271500Y-83946362D01*
X31271500Y-85743638D01*
X31278011Y-85804201D01*
X31280717Y-85811458D01*
X31280719Y-85811463D01*
X31326011Y-85932894D01*
X31329111Y-85941204D01*
X31334425Y-85948303D01*
X31334428Y-85948308D01*
X31403584Y-86040690D01*
X31425483Y-86088642D01*
X31425483Y-86141358D01*
X31403584Y-86189310D01*
X31334428Y-86281691D01*
X31334423Y-86281699D01*
X31329111Y-86288796D01*
X31326013Y-86297099D01*
X31326011Y-86297105D01*
X31280719Y-86418536D01*
X31280717Y-86418543D01*
X31278011Y-86425799D01*
X31277182Y-86433500D01*
X31277182Y-86433505D01*
X31271853Y-86483075D01*
X31271500Y-86486362D01*
X31271500Y-88283638D01*
X31278011Y-88344201D01*
X31280717Y-88351458D01*
X31280719Y-88351463D01*
X31326011Y-88472894D01*
X31329111Y-88481204D01*
X31334425Y-88488303D01*
X31334428Y-88488308D01*
X31403584Y-88580690D01*
X31425483Y-88628642D01*
X31425483Y-88681358D01*
X31403584Y-88729310D01*
X31334428Y-88821691D01*
X31334423Y-88821699D01*
X31329111Y-88828796D01*
X31326013Y-88837099D01*
X31326011Y-88837105D01*
X31280719Y-88958536D01*
X31280717Y-88958543D01*
X31278011Y-88965799D01*
X31277182Y-88973500D01*
X31277182Y-88973505D01*
X31271853Y-89023075D01*
X31271500Y-89026362D01*
X31271500Y-90823638D01*
X31278011Y-90884201D01*
X31280717Y-90891458D01*
X31280719Y-90891463D01*
X31317604Y-90990354D01*
X31329111Y-91021204D01*
X31334425Y-91028302D01*
X31334428Y-91028308D01*
X31403584Y-91120690D01*
X31425483Y-91168642D01*
X31425483Y-91221358D01*
X31403584Y-91269310D01*
X31334428Y-91361691D01*
X31334423Y-91361699D01*
X31329111Y-91368796D01*
X31326013Y-91377099D01*
X31326011Y-91377105D01*
X31280719Y-91498536D01*
X31280717Y-91498543D01*
X31278011Y-91505799D01*
X31277182Y-91513500D01*
X31277182Y-91513505D01*
X31271853Y-91563075D01*
X31271500Y-91566362D01*
X31271500Y-93363638D01*
X31278011Y-93424201D01*
X31280717Y-93431458D01*
X31280719Y-93431463D01*
X31326011Y-93552894D01*
X31329111Y-93561204D01*
X31334425Y-93568303D01*
X31334426Y-93568304D01*
X31408893Y-93667780D01*
X31430792Y-93715733D01*
X31430792Y-93768449D01*
X31408893Y-93816402D01*
X31341962Y-93905810D01*
X31333547Y-93921222D01*
X31289111Y-94040358D01*
X31285573Y-94055332D01*
X31280353Y-94103885D01*
X31280000Y-94110482D01*
X31280000Y-94738674D01*
X31283450Y-94751549D01*
X31296326Y-94755000D01*
X32947500Y-94755000D01*
X33009500Y-94771613D01*
X33054887Y-94817000D01*
X33071500Y-94879000D01*
X33071500Y-95131000D01*
X33054887Y-95193000D01*
X33009500Y-95238387D01*
X32947500Y-95255000D01*
X31296326Y-95255000D01*
X31283450Y-95258450D01*
X31280000Y-95271326D01*
X31280000Y-95899518D01*
X31280353Y-95906114D01*
X31285573Y-95954667D01*
X31289111Y-95969641D01*
X31333547Y-96088777D01*
X31341962Y-96104189D01*
X31408893Y-96193597D01*
X31430792Y-96241549D01*
X31430792Y-96294266D01*
X31408893Y-96342218D01*
X31334428Y-96441691D01*
X31334423Y-96441699D01*
X31329111Y-96448796D01*
X31326013Y-96457099D01*
X31326011Y-96457105D01*
X31280719Y-96578536D01*
X31280717Y-96578543D01*
X31278011Y-96585799D01*
X31277182Y-96593500D01*
X31277182Y-96593505D01*
X31271853Y-96643075D01*
X31271500Y-96646362D01*
X31271500Y-98443638D01*
X31278011Y-98504201D01*
X31280717Y-98511458D01*
X31280719Y-98511463D01*
X31326011Y-98632894D01*
X31329111Y-98641204D01*
X31334425Y-98648303D01*
X31334428Y-98648308D01*
X31403584Y-98740690D01*
X31425483Y-98788642D01*
X31425483Y-98841358D01*
X31403584Y-98889310D01*
X31334428Y-98981691D01*
X31334423Y-98981699D01*
X31329111Y-98988796D01*
X31326013Y-98997099D01*
X31326011Y-98997105D01*
X31280719Y-99118536D01*
X31280717Y-99118543D01*
X31278011Y-99125799D01*
X31277182Y-99133500D01*
X31277182Y-99133505D01*
X31271853Y-99183075D01*
X31271500Y-99186362D01*
X31271500Y-100983638D01*
X31271852Y-100986918D01*
X31271853Y-100986924D01*
X31277140Y-101036107D01*
X31278011Y-101044201D01*
X31280717Y-101051458D01*
X31280719Y-101051463D01*
X31326011Y-101172894D01*
X31329111Y-101181204D01*
X31334425Y-101188303D01*
X31334428Y-101188308D01*
X31403584Y-101280690D01*
X31425483Y-101328642D01*
X31425483Y-101381358D01*
X31403584Y-101429310D01*
X31334428Y-101521691D01*
X31334423Y-101521699D01*
X31329111Y-101528796D01*
X31326013Y-101537099D01*
X31326011Y-101537105D01*
X31280719Y-101658536D01*
X31280717Y-101658543D01*
X31278011Y-101665799D01*
X31277182Y-101673500D01*
X31277182Y-101673505D01*
X31273243Y-101710146D01*
X31271500Y-101726362D01*
X31271500Y-103523638D01*
X31271852Y-103526918D01*
X31271853Y-103526924D01*
X31274673Y-103553157D01*
X31278011Y-103584201D01*
X31280717Y-103591458D01*
X31280719Y-103591463D01*
X31326011Y-103712894D01*
X31329111Y-103721204D01*
X31334425Y-103728303D01*
X31334428Y-103728308D01*
X31403584Y-103820690D01*
X31425483Y-103868642D01*
X31425483Y-103921358D01*
X31403584Y-103969310D01*
X31334428Y-104061691D01*
X31334423Y-104061699D01*
X31329111Y-104068796D01*
X31326013Y-104077099D01*
X31326011Y-104077105D01*
X31280719Y-104198536D01*
X31280717Y-104198543D01*
X31278011Y-104205799D01*
X31277182Y-104213500D01*
X31277182Y-104213505D01*
X31271853Y-104263075D01*
X31271500Y-104266362D01*
X31271500Y-106063638D01*
X31278011Y-106124201D01*
X31280717Y-106131458D01*
X31280719Y-106131463D01*
X31326011Y-106252894D01*
X31329111Y-106261204D01*
X31334425Y-106268303D01*
X31334426Y-106268304D01*
X31408893Y-106367780D01*
X31430792Y-106415733D01*
X31430792Y-106468449D01*
X31408893Y-106516402D01*
X31341962Y-106605810D01*
X31333547Y-106621222D01*
X31289111Y-106740358D01*
X31285573Y-106755332D01*
X31280353Y-106803885D01*
X31280000Y-106810482D01*
X31280000Y-107438674D01*
X31283450Y-107451549D01*
X31296326Y-107455000D01*
X32947500Y-107455000D01*
X33009500Y-107471613D01*
X33054887Y-107517000D01*
X33071500Y-107579000D01*
X33071500Y-107831000D01*
X33054887Y-107893000D01*
X33009500Y-107938387D01*
X32947500Y-107955000D01*
X31296326Y-107955000D01*
X31283450Y-107958450D01*
X31280000Y-107971326D01*
X31280000Y-108599518D01*
X31280353Y-108606114D01*
X31285573Y-108654667D01*
X31289111Y-108669641D01*
X31333547Y-108788777D01*
X31341962Y-108804189D01*
X31408893Y-108893597D01*
X31430792Y-108941549D01*
X31430792Y-108994266D01*
X31408893Y-109042218D01*
X31334428Y-109141691D01*
X31334423Y-109141699D01*
X31329111Y-109148796D01*
X31326013Y-109157099D01*
X31326011Y-109157105D01*
X31280719Y-109278536D01*
X31280717Y-109278543D01*
X31278011Y-109285799D01*
X31277182Y-109293500D01*
X31277182Y-109293505D01*
X31271853Y-109343075D01*
X31271500Y-109346362D01*
X31271500Y-111143638D01*
X31278011Y-111204201D01*
X31280717Y-111211458D01*
X31280719Y-111211463D01*
X31326011Y-111332894D01*
X31329111Y-111341204D01*
X31334425Y-111348303D01*
X31334428Y-111348308D01*
X31380337Y-111409635D01*
X28070000Y-111550000D01*
X28126594Y-117085645D01*
X28110675Y-117085210D01*
X28110672Y-117085209D01*
X28040404Y-117083289D01*
X27979907Y-117065611D01*
X27935915Y-117020478D01*
X27919792Y-116959551D01*
X27820219Y-59027494D01*
X27837303Y-58964473D01*
X27884033Y-58918868D01*
X27947449Y-58903324D01*
X49670000Y-59470000D01*
G37*
%TD.AperFunction*%
%TA.AperFunction,Conductor*%
G36*
X55505894Y-103527893D02*
G01*
X55558640Y-103559189D01*
X60334118Y-108334667D01*
X60365903Y-108389122D01*
X60426966Y-108608677D01*
X60431500Y-108641903D01*
X60431500Y-109610478D01*
X60423264Y-109654916D01*
X60399650Y-109693450D01*
X60305306Y-109798228D01*
X60305301Y-109798234D01*
X60300960Y-109803056D01*
X60297714Y-109808676D01*
X60297711Y-109808682D01*
X60208721Y-109962817D01*
X60208718Y-109962822D01*
X60205473Y-109968444D01*
X60203467Y-109974616D01*
X60203465Y-109974622D01*
X60148465Y-110143892D01*
X60148463Y-110143901D01*
X60146458Y-110150072D01*
X60145780Y-110156522D01*
X60145778Y-110156532D01*
X60142252Y-110190080D01*
X55368500Y-110392496D01*
X55368500Y-109346362D01*
X55361989Y-109285799D01*
X55310889Y-109148796D01*
X55231105Y-109042218D01*
X55209207Y-108994266D01*
X55209207Y-108941549D01*
X55231107Y-108893596D01*
X55298037Y-108804190D01*
X55306452Y-108788777D01*
X55350888Y-108669641D01*
X55354426Y-108654667D01*
X55359646Y-108606114D01*
X55360000Y-108599518D01*
X55360000Y-107971326D01*
X55356549Y-107958450D01*
X55343674Y-107955000D01*
X53692500Y-107955000D01*
X53630500Y-107938387D01*
X53585113Y-107893000D01*
X53568500Y-107831000D01*
X53568500Y-107579000D01*
X53585113Y-107517000D01*
X53630500Y-107471613D01*
X53692500Y-107455000D01*
X55343674Y-107455000D01*
X55356549Y-107451549D01*
X55360000Y-107438674D01*
X55360000Y-106810482D01*
X55359646Y-106803885D01*
X55354426Y-106755332D01*
X55350888Y-106740358D01*
X55306452Y-106621222D01*
X55298035Y-106605805D01*
X55231107Y-106516402D01*
X55209207Y-106468449D01*
X55209207Y-106415733D01*
X55231104Y-106367783D01*
X55310889Y-106261204D01*
X55361989Y-106124201D01*
X55368500Y-106063638D01*
X55368500Y-104266362D01*
X55361989Y-104205799D01*
X55310889Y-104068796D01*
X55236414Y-103969310D01*
X55214516Y-103921358D01*
X55214516Y-103868642D01*
X55236415Y-103820689D01*
X55310889Y-103721204D01*
X55354777Y-103603534D01*
X55389756Y-103553157D01*
X55444601Y-103525704D01*
X55505894Y-103527893D01*
G37*
%TD.AperFunction*%
%TA.AperFunction,Conductor*%
G36*
X55464326Y-90958031D02*
G01*
X55512773Y-90990354D01*
X55541120Y-91041231D01*
X59567691Y-105519088D01*
X59568239Y-105583500D01*
X59536403Y-105639496D01*
X59480772Y-105671966D01*
X59416358Y-105672149D01*
X59360544Y-105639995D01*
X55949225Y-102228676D01*
X55938530Y-102216481D01*
X55923934Y-102197459D01*
X55923930Y-102197455D01*
X55918987Y-102191013D01*
X55887074Y-102166525D01*
X55887072Y-102166523D01*
X55791876Y-102093476D01*
X55784367Y-102090365D01*
X55784366Y-102090365D01*
X55651359Y-102035271D01*
X55651352Y-102035269D01*
X55643851Y-102032162D01*
X55635796Y-102031101D01*
X55635795Y-102031101D01*
X55624456Y-102029608D01*
X55524885Y-102016500D01*
X55524884Y-102016500D01*
X55524876Y-102016499D01*
X55493061Y-102012311D01*
X55493060Y-102012311D01*
X55491965Y-102012166D01*
X55491958Y-102012165D01*
X55485001Y-102011250D01*
X55485121Y-102010333D01*
X55430500Y-101995698D01*
X55385113Y-101950311D01*
X55368500Y-101888311D01*
X55368500Y-101729672D01*
X55368500Y-101726362D01*
X55361989Y-101665799D01*
X55310889Y-101528796D01*
X55236414Y-101429310D01*
X55214516Y-101381358D01*
X55214516Y-101328642D01*
X55236415Y-101280689D01*
X55310889Y-101181204D01*
X55361989Y-101044201D01*
X55368500Y-100983638D01*
X55368500Y-99186362D01*
X55361989Y-99125799D01*
X55310889Y-98988796D01*
X55236414Y-98889310D01*
X55214516Y-98841358D01*
X55214516Y-98788642D01*
X55236415Y-98740689D01*
X55310889Y-98641204D01*
X55361989Y-98504201D01*
X55368500Y-98443638D01*
X55368500Y-96646362D01*
X55361989Y-96585799D01*
X55310889Y-96448796D01*
X55231105Y-96342218D01*
X55209207Y-96294266D01*
X55209207Y-96241549D01*
X55231107Y-96193596D01*
X55298037Y-96104190D01*
X55306452Y-96088777D01*
X55350888Y-95969641D01*
X55354426Y-95954667D01*
X55359646Y-95906114D01*
X55360000Y-95899518D01*
X55360000Y-95271326D01*
X55356549Y-95258450D01*
X55343674Y-95255000D01*
X53692500Y-95255000D01*
X53630500Y-95238387D01*
X53585113Y-95193000D01*
X53568500Y-95131000D01*
X53568500Y-94879000D01*
X53585113Y-94817000D01*
X53630500Y-94771613D01*
X53692500Y-94755000D01*
X55343674Y-94755000D01*
X55356549Y-94751549D01*
X55360000Y-94738674D01*
X55360000Y-94110482D01*
X55359646Y-94103885D01*
X55354426Y-94055332D01*
X55350888Y-94040358D01*
X55306452Y-93921222D01*
X55298035Y-93905805D01*
X55231107Y-93816402D01*
X55209207Y-93768449D01*
X55209207Y-93715733D01*
X55231104Y-93667783D01*
X55310889Y-93561204D01*
X55361989Y-93424201D01*
X55368500Y-93363638D01*
X55368500Y-91566362D01*
X55361989Y-91505799D01*
X55310889Y-91368796D01*
X55236414Y-91269310D01*
X55214516Y-91221358D01*
X55214516Y-91168642D01*
X55236415Y-91120689D01*
X55310889Y-91021204D01*
X55313449Y-91014339D01*
X55351955Y-90971899D01*
X55406465Y-90951391D01*
X55464326Y-90958031D01*
G37*
%TD.AperFunction*%
%TD*%
%TA.AperFunction,Conductor*%
%TO.N,AGND*%
G36*
X55522318Y-81452335D02*
G01*
X55571680Y-81482584D01*
X63115457Y-89026362D01*
X70630181Y-96541086D01*
X70657061Y-96581314D01*
X70666500Y-96628767D01*
X70666500Y-101357249D01*
X70664973Y-101376647D01*
X70653000Y-101452234D01*
X70652999Y-101452241D01*
X70651780Y-101459943D01*
X70652514Y-101467708D01*
X70652514Y-101467711D01*
X70655692Y-101501329D01*
X70649971Y-101551933D01*
X70624392Y-101595970D01*
X70505307Y-101728227D01*
X70505302Y-101728233D01*
X70500960Y-101733056D01*
X70497714Y-101738676D01*
X70497711Y-101738682D01*
X70408721Y-101892817D01*
X70408718Y-101892822D01*
X70405473Y-101898444D01*
X70403467Y-101904616D01*
X70403465Y-101904622D01*
X70348465Y-102073892D01*
X70348463Y-102073901D01*
X70346458Y-102080072D01*
X70345780Y-102086522D01*
X70345778Y-102086532D01*
X70335927Y-102180269D01*
X70326496Y-102270000D01*
X70327175Y-102276460D01*
X70345778Y-102453467D01*
X70345779Y-102453475D01*
X70346458Y-102459928D01*
X70348463Y-102466100D01*
X70348465Y-102466107D01*
X70403465Y-102635377D01*
X70405473Y-102641556D01*
X70408720Y-102647180D01*
X70408721Y-102647182D01*
X70497597Y-102801120D01*
X70500960Y-102806944D01*
X70628747Y-102948866D01*
X70633997Y-102952680D01*
X70634000Y-102952683D01*
X70718448Y-103014038D01*
X70783248Y-103061118D01*
X70957712Y-103138794D01*
X70964070Y-103140145D01*
X70964072Y-103140146D01*
X71000874Y-103147968D01*
X71144513Y-103178500D01*
X71328984Y-103178500D01*
X71335487Y-103178500D01*
X71522288Y-103138794D01*
X71696752Y-103061118D01*
X71851253Y-102948866D01*
X71979040Y-102806944D01*
X72074527Y-102641556D01*
X72133542Y-102459928D01*
X72153504Y-102270000D01*
X72133542Y-102080072D01*
X72074527Y-101898444D01*
X71979040Y-101733056D01*
X71965350Y-101717852D01*
X71941736Y-101679318D01*
X71933500Y-101634880D01*
X71933500Y-101529615D01*
X71935027Y-101510217D01*
X71935065Y-101509972D01*
X71938220Y-101490057D01*
X71934050Y-101445942D01*
X71933500Y-101434273D01*
X71933500Y-98143766D01*
X71947015Y-98087471D01*
X71984615Y-98043448D01*
X72038102Y-98021293D01*
X72095818Y-98025835D01*
X72145180Y-98056084D01*
X74489114Y-100400019D01*
X76751302Y-102662207D01*
X76758898Y-102670555D01*
X76763000Y-102677018D01*
X76812684Y-102723674D01*
X76815447Y-102726352D01*
X76835230Y-102746135D01*
X76838306Y-102748521D01*
X76838503Y-102748674D01*
X76847382Y-102756258D01*
X76879679Y-102786586D01*
X76897565Y-102796418D01*
X76913829Y-102807102D01*
X76923792Y-102814831D01*
X76923795Y-102814833D01*
X76929959Y-102819614D01*
X76937122Y-102822713D01*
X76937123Y-102822714D01*
X76970616Y-102837207D01*
X76981112Y-102842348D01*
X77019940Y-102863695D01*
X77039716Y-102868772D01*
X77058123Y-102875075D01*
X77069691Y-102880081D01*
X77069692Y-102880081D01*
X77076855Y-102883181D01*
X77120621Y-102890112D01*
X77132041Y-102892477D01*
X77174970Y-102903500D01*
X77195385Y-102903500D01*
X77214783Y-102905027D01*
X77234943Y-102908220D01*
X77273476Y-102904577D01*
X77279058Y-102904050D01*
X77290727Y-102903500D01*
X77389663Y-102903500D01*
X77440098Y-102914220D01*
X77481812Y-102944527D01*
X77548747Y-103018866D01*
X77553997Y-103022680D01*
X77554000Y-103022683D01*
X77610538Y-103063760D01*
X77703248Y-103131118D01*
X77877712Y-103208794D01*
X77884070Y-103210145D01*
X77884072Y-103210146D01*
X77920874Y-103217968D01*
X78064513Y-103248500D01*
X78248984Y-103248500D01*
X78255487Y-103248500D01*
X78442288Y-103208794D01*
X78616752Y-103131118D01*
X78771253Y-103018866D01*
X78899040Y-102876944D01*
X78994527Y-102711556D01*
X79027802Y-102609144D01*
X79053016Y-102565126D01*
X79093748Y-102534887D01*
X79143175Y-102523491D01*
X80478343Y-102496000D01*
X80530160Y-102506181D01*
X80573042Y-102537000D01*
X80628747Y-102598866D01*
X80633997Y-102602680D01*
X80634000Y-102602683D01*
X80775346Y-102705377D01*
X80783248Y-102711118D01*
X80789181Y-102713759D01*
X80789182Y-102713760D01*
X80940758Y-102781246D01*
X80957712Y-102788794D01*
X80964070Y-102790145D01*
X80964072Y-102790146D01*
X80993570Y-102796416D01*
X81144513Y-102828500D01*
X81328984Y-102828500D01*
X81335487Y-102828500D01*
X81522288Y-102788794D01*
X81696752Y-102711118D01*
X81851253Y-102598866D01*
X81935637Y-102505146D01*
X81976183Y-102475369D01*
X82025221Y-102464150D01*
X98619484Y-102122481D01*
X98680785Y-102137256D01*
X98726895Y-102180269D01*
X98745888Y-102240398D01*
X98874516Y-104870499D01*
X98862683Y-104929732D01*
X98824269Y-104976347D01*
X98768389Y-104999283D01*
X98708303Y-104993096D01*
X98658269Y-104959255D01*
X98630159Y-104905790D01*
X98609193Y-104819367D01*
X98584704Y-104718424D01*
X98497396Y-104527247D01*
X98375486Y-104356048D01*
X98295632Y-104279908D01*
X98227651Y-104215088D01*
X98227649Y-104215086D01*
X98223378Y-104211014D01*
X98124210Y-104147282D01*
X98051544Y-104100582D01*
X98051541Y-104100580D01*
X98046572Y-104097387D01*
X98041092Y-104095193D01*
X98041086Y-104095190D01*
X97856939Y-104021469D01*
X97856932Y-104021467D01*
X97851457Y-104019275D01*
X97845662Y-104018158D01*
X97845655Y-104018156D01*
X97650882Y-103980617D01*
X97650879Y-103980616D01*
X97645085Y-103979500D01*
X97487575Y-103979500D01*
X97484646Y-103979779D01*
X97484639Y-103979780D01*
X97336662Y-103993910D01*
X97336656Y-103993911D01*
X97330782Y-103994472D01*
X97325112Y-103996136D01*
X97325111Y-103996137D01*
X97134787Y-104052021D01*
X97134782Y-104052022D01*
X97129125Y-104053684D01*
X97123884Y-104056385D01*
X97123881Y-104056387D01*
X96947568Y-104147282D01*
X96947564Y-104147284D01*
X96942318Y-104149989D01*
X96937676Y-104153638D01*
X96937672Y-104153642D01*
X96781759Y-104276254D01*
X96781752Y-104276260D01*
X96777114Y-104279908D01*
X96773250Y-104284367D01*
X96773245Y-104284372D01*
X96643347Y-104434282D01*
X96639481Y-104438744D01*
X96636530Y-104443854D01*
X96636528Y-104443858D01*
X96537352Y-104615635D01*
X96537349Y-104615640D01*
X96534396Y-104620756D01*
X96532465Y-104626335D01*
X96532461Y-104626344D01*
X96467587Y-104813785D01*
X96467584Y-104813794D01*
X96465656Y-104819367D01*
X96464816Y-104825203D01*
X96464815Y-104825211D01*
X96436585Y-105021558D01*
X96436584Y-105021564D01*
X96435746Y-105027398D01*
X96436026Y-105033282D01*
X96436026Y-105033289D01*
X96442713Y-105173667D01*
X96445746Y-105237330D01*
X96447135Y-105243058D01*
X96447137Y-105243067D01*
X96493904Y-105435839D01*
X96495296Y-105441576D01*
X96497749Y-105446947D01*
X96558115Y-105579131D01*
X96582604Y-105632753D01*
X96586031Y-105637566D01*
X96586032Y-105637567D01*
X96645626Y-105721256D01*
X96704514Y-105803952D01*
X96856622Y-105948986D01*
X97033428Y-106062613D01*
X97038911Y-106064808D01*
X97038913Y-106064809D01*
X97223060Y-106138530D01*
X97228543Y-106140725D01*
X97434915Y-106180500D01*
X97589471Y-106180500D01*
X97592425Y-106180500D01*
X97749218Y-106165528D01*
X97950875Y-106106316D01*
X98137682Y-106010011D01*
X98302886Y-105880092D01*
X98440519Y-105721256D01*
X98545604Y-105539244D01*
X98614344Y-105340633D01*
X98642058Y-105147873D01*
X98664927Y-105092022D01*
X98711454Y-105053581D01*
X98770618Y-105041658D01*
X98828402Y-105059077D01*
X98871119Y-105101713D01*
X98888648Y-105159464D01*
X99113440Y-109755874D01*
X99098333Y-109821518D01*
X99051136Y-109869578D01*
X98985777Y-109885872D01*
X96070032Y-109796220D01*
X96032880Y-109789318D01*
X95999532Y-109771546D01*
X95963304Y-109744426D01*
X95963303Y-109744425D01*
X95956204Y-109739111D01*
X95947896Y-109736012D01*
X95947894Y-109736011D01*
X95826463Y-109690719D01*
X95826458Y-109690717D01*
X95819201Y-109688011D01*
X95811497Y-109687182D01*
X95811494Y-109687182D01*
X95761924Y-109681853D01*
X95761918Y-109681852D01*
X95758638Y-109681500D01*
X94161362Y-109681500D01*
X94158082Y-109681852D01*
X94158075Y-109681853D01*
X94108505Y-109687182D01*
X94108500Y-109687182D01*
X94100799Y-109688011D01*
X94093541Y-109690718D01*
X94093533Y-109690720D01*
X94005555Y-109723534D01*
X93958411Y-109731293D01*
X63757861Y-108802701D01*
X63708648Y-108790851D01*
X63668271Y-108760321D01*
X63643460Y-108716201D01*
X63144266Y-107140000D01*
X88336496Y-107140000D01*
X88337175Y-107146460D01*
X88355778Y-107323467D01*
X88355779Y-107323475D01*
X88356458Y-107329928D01*
X88358463Y-107336100D01*
X88358465Y-107336107D01*
X88394203Y-107446095D01*
X88415473Y-107511556D01*
X88510960Y-107676944D01*
X88638747Y-107818866D01*
X88643997Y-107822680D01*
X88644000Y-107822683D01*
X88786863Y-107926479D01*
X88793248Y-107931118D01*
X88967712Y-108008794D01*
X88974070Y-108010145D01*
X88974072Y-108010146D01*
X89010874Y-108017968D01*
X89154513Y-108048500D01*
X89338984Y-108048500D01*
X89345487Y-108048500D01*
X89532288Y-108008794D01*
X89706752Y-107931118D01*
X89861253Y-107818866D01*
X89989040Y-107676944D01*
X90084527Y-107511556D01*
X90143542Y-107329928D01*
X90163504Y-107140000D01*
X90143542Y-106950072D01*
X90084527Y-106768444D01*
X89989040Y-106603056D01*
X89861253Y-106461134D01*
X89856003Y-106457319D01*
X89855999Y-106457316D01*
X89712006Y-106352699D01*
X89712004Y-106352697D01*
X89706752Y-106348882D01*
X89700821Y-106346241D01*
X89700817Y-106346239D01*
X89538226Y-106273849D01*
X89538219Y-106273846D01*
X89532288Y-106271206D01*
X89525935Y-106269855D01*
X89525927Y-106269853D01*
X89351849Y-106232852D01*
X89351846Y-106232851D01*
X89345487Y-106231500D01*
X89154513Y-106231500D01*
X89148154Y-106232851D01*
X89148150Y-106232852D01*
X88974072Y-106269853D01*
X88974061Y-106269856D01*
X88967712Y-106271206D01*
X88961782Y-106273845D01*
X88961773Y-106273849D01*
X88799182Y-106346239D01*
X88799174Y-106346243D01*
X88793248Y-106348882D01*
X88787999Y-106352695D01*
X88787993Y-106352699D01*
X88644000Y-106457316D01*
X88643991Y-106457323D01*
X88638747Y-106461134D01*
X88634403Y-106465957D01*
X88634400Y-106465961D01*
X88515307Y-106598228D01*
X88510960Y-106603056D01*
X88507714Y-106608676D01*
X88507711Y-106608682D01*
X88418721Y-106762817D01*
X88418718Y-106762822D01*
X88415473Y-106768444D01*
X88413467Y-106774616D01*
X88413465Y-106774622D01*
X88358465Y-106943892D01*
X88358463Y-106943901D01*
X88356458Y-106950072D01*
X88355780Y-106956522D01*
X88355778Y-106956532D01*
X88348382Y-107026909D01*
X88336496Y-107140000D01*
X63144266Y-107140000D01*
X62475190Y-105027398D01*
X66275746Y-105027398D01*
X66276026Y-105033282D01*
X66276026Y-105033289D01*
X66282713Y-105173667D01*
X66285746Y-105237330D01*
X66287135Y-105243058D01*
X66287137Y-105243067D01*
X66333904Y-105435839D01*
X66335296Y-105441576D01*
X66337749Y-105446947D01*
X66398115Y-105579131D01*
X66422604Y-105632753D01*
X66426031Y-105637566D01*
X66426032Y-105637567D01*
X66485626Y-105721256D01*
X66544514Y-105803952D01*
X66696622Y-105948986D01*
X66873428Y-106062613D01*
X66878911Y-106064808D01*
X66878913Y-106064809D01*
X67063060Y-106138530D01*
X67068543Y-106140725D01*
X67274915Y-106180500D01*
X67429471Y-106180500D01*
X67432425Y-106180500D01*
X67589218Y-106165528D01*
X67790875Y-106106316D01*
X67977682Y-106010011D01*
X68142886Y-105880092D01*
X68280519Y-105721256D01*
X68385604Y-105539244D01*
X68454344Y-105340633D01*
X68484254Y-105132602D01*
X68479243Y-105027398D01*
X76435746Y-105027398D01*
X76436026Y-105033282D01*
X76436026Y-105033289D01*
X76442713Y-105173667D01*
X76445746Y-105237330D01*
X76447135Y-105243058D01*
X76447137Y-105243067D01*
X76493904Y-105435839D01*
X76495296Y-105441576D01*
X76497749Y-105446947D01*
X76558115Y-105579131D01*
X76582604Y-105632753D01*
X76586031Y-105637566D01*
X76586032Y-105637567D01*
X76645626Y-105721256D01*
X76704514Y-105803952D01*
X76856622Y-105948986D01*
X77033428Y-106062613D01*
X77038911Y-106064808D01*
X77038913Y-106064809D01*
X77223060Y-106138530D01*
X77228543Y-106140725D01*
X77434915Y-106180500D01*
X77589471Y-106180500D01*
X77592425Y-106180500D01*
X77749218Y-106165528D01*
X77950875Y-106106316D01*
X78137682Y-106010011D01*
X78302886Y-105880092D01*
X78440519Y-105721256D01*
X78545604Y-105539244D01*
X78614344Y-105340633D01*
X78644254Y-105132602D01*
X78639243Y-105027398D01*
X86275746Y-105027398D01*
X86276026Y-105033282D01*
X86276026Y-105033289D01*
X86282713Y-105173667D01*
X86285746Y-105237330D01*
X86287135Y-105243058D01*
X86287137Y-105243067D01*
X86333904Y-105435839D01*
X86335296Y-105441576D01*
X86337749Y-105446947D01*
X86398115Y-105579131D01*
X86422604Y-105632753D01*
X86426031Y-105637566D01*
X86426032Y-105637567D01*
X86485626Y-105721256D01*
X86544514Y-105803952D01*
X86696622Y-105948986D01*
X86873428Y-106062613D01*
X86878911Y-106064808D01*
X86878913Y-106064809D01*
X87063060Y-106138530D01*
X87068543Y-106140725D01*
X87274915Y-106180500D01*
X87429471Y-106180500D01*
X87432425Y-106180500D01*
X87589218Y-106165528D01*
X87790875Y-106106316D01*
X87977682Y-106010011D01*
X88142886Y-105880092D01*
X88280519Y-105721256D01*
X88385604Y-105539244D01*
X88454344Y-105340633D01*
X88484254Y-105132602D01*
X88474254Y-104922670D01*
X88424704Y-104718424D01*
X88337396Y-104527247D01*
X88215486Y-104356048D01*
X88135632Y-104279908D01*
X88067651Y-104215088D01*
X88067649Y-104215086D01*
X88063378Y-104211014D01*
X87964210Y-104147282D01*
X87891544Y-104100582D01*
X87891541Y-104100580D01*
X87886572Y-104097387D01*
X87881092Y-104095193D01*
X87881086Y-104095190D01*
X87696939Y-104021469D01*
X87696932Y-104021467D01*
X87691457Y-104019275D01*
X87685662Y-104018158D01*
X87685655Y-104018156D01*
X87490882Y-103980617D01*
X87490879Y-103980616D01*
X87485085Y-103979500D01*
X87327575Y-103979500D01*
X87324646Y-103979779D01*
X87324639Y-103979780D01*
X87176662Y-103993910D01*
X87176656Y-103993911D01*
X87170782Y-103994472D01*
X87165112Y-103996136D01*
X87165111Y-103996137D01*
X86974787Y-104052021D01*
X86974782Y-104052022D01*
X86969125Y-104053684D01*
X86963884Y-104056385D01*
X86963881Y-104056387D01*
X86787568Y-104147282D01*
X86787564Y-104147284D01*
X86782318Y-104149989D01*
X86777676Y-104153638D01*
X86777672Y-104153642D01*
X86621759Y-104276254D01*
X86621752Y-104276260D01*
X86617114Y-104279908D01*
X86613250Y-104284367D01*
X86613245Y-104284372D01*
X86483347Y-104434282D01*
X86479481Y-104438744D01*
X86476530Y-104443854D01*
X86476528Y-104443858D01*
X86377352Y-104615635D01*
X86377349Y-104615640D01*
X86374396Y-104620756D01*
X86372465Y-104626335D01*
X86372461Y-104626344D01*
X86307587Y-104813785D01*
X86307584Y-104813794D01*
X86305656Y-104819367D01*
X86304816Y-104825203D01*
X86304815Y-104825211D01*
X86276585Y-105021558D01*
X86276584Y-105021564D01*
X86275746Y-105027398D01*
X78639243Y-105027398D01*
X78634254Y-104922670D01*
X78584704Y-104718424D01*
X78497396Y-104527247D01*
X78375486Y-104356048D01*
X78295632Y-104279908D01*
X78227651Y-104215088D01*
X78227649Y-104215086D01*
X78223378Y-104211014D01*
X78124210Y-104147282D01*
X78051544Y-104100582D01*
X78051541Y-104100580D01*
X78046572Y-104097387D01*
X78041092Y-104095193D01*
X78041086Y-104095190D01*
X77856939Y-104021469D01*
X77856932Y-104021467D01*
X77851457Y-104019275D01*
X77845662Y-104018158D01*
X77845655Y-104018156D01*
X77650882Y-103980617D01*
X77650879Y-103980616D01*
X77645085Y-103979500D01*
X77487575Y-103979500D01*
X77484646Y-103979779D01*
X77484639Y-103979780D01*
X77336662Y-103993910D01*
X77336656Y-103993911D01*
X77330782Y-103994472D01*
X77325112Y-103996136D01*
X77325111Y-103996137D01*
X77134787Y-104052021D01*
X77134782Y-104052022D01*
X77129125Y-104053684D01*
X77123884Y-104056385D01*
X77123881Y-104056387D01*
X76947568Y-104147282D01*
X76947564Y-104147284D01*
X76942318Y-104149989D01*
X76937676Y-104153638D01*
X76937672Y-104153642D01*
X76781759Y-104276254D01*
X76781752Y-104276260D01*
X76777114Y-104279908D01*
X76773250Y-104284367D01*
X76773245Y-104284372D01*
X76643347Y-104434282D01*
X76639481Y-104438744D01*
X76636530Y-104443854D01*
X76636528Y-104443858D01*
X76537352Y-104615635D01*
X76537349Y-104615640D01*
X76534396Y-104620756D01*
X76532465Y-104626335D01*
X76532461Y-104626344D01*
X76467587Y-104813785D01*
X76467584Y-104813794D01*
X76465656Y-104819367D01*
X76464816Y-104825203D01*
X76464815Y-104825211D01*
X76436585Y-105021558D01*
X76436584Y-105021564D01*
X76435746Y-105027398D01*
X68479243Y-105027398D01*
X68474254Y-104922670D01*
X68424704Y-104718424D01*
X68337396Y-104527247D01*
X68215486Y-104356048D01*
X68135632Y-104279908D01*
X68067651Y-104215088D01*
X68067649Y-104215086D01*
X68063378Y-104211014D01*
X67964210Y-104147282D01*
X67891544Y-104100582D01*
X67891541Y-104100580D01*
X67886572Y-104097387D01*
X67881092Y-104095193D01*
X67881086Y-104095190D01*
X67696939Y-104021469D01*
X67696932Y-104021467D01*
X67691457Y-104019275D01*
X67685662Y-104018158D01*
X67685655Y-104018156D01*
X67490882Y-103980617D01*
X67490879Y-103980616D01*
X67485085Y-103979500D01*
X67327575Y-103979500D01*
X67324646Y-103979779D01*
X67324639Y-103979780D01*
X67176662Y-103993910D01*
X67176656Y-103993911D01*
X67170782Y-103994472D01*
X67165112Y-103996136D01*
X67165111Y-103996137D01*
X66974787Y-104052021D01*
X66974782Y-104052022D01*
X66969125Y-104053684D01*
X66963884Y-104056385D01*
X66963881Y-104056387D01*
X66787568Y-104147282D01*
X66787564Y-104147284D01*
X66782318Y-104149989D01*
X66777676Y-104153638D01*
X66777672Y-104153642D01*
X66621759Y-104276254D01*
X66621752Y-104276260D01*
X66617114Y-104279908D01*
X66613250Y-104284367D01*
X66613245Y-104284372D01*
X66483347Y-104434282D01*
X66479481Y-104438744D01*
X66476530Y-104443854D01*
X66476528Y-104443858D01*
X66377352Y-104615635D01*
X66377349Y-104615640D01*
X66374396Y-104620756D01*
X66372465Y-104626335D01*
X66372461Y-104626344D01*
X66307587Y-104813785D01*
X66307584Y-104813794D01*
X66305656Y-104819367D01*
X66304816Y-104825203D01*
X66304815Y-104825211D01*
X66276585Y-105021558D01*
X66276584Y-105021564D01*
X66275746Y-105027398D01*
X62475190Y-105027398D01*
X57130000Y-88150000D01*
X55273516Y-86161584D01*
X55245210Y-86112008D01*
X55242115Y-86055002D01*
X55264887Y-86002654D01*
X55310889Y-85941204D01*
X55361989Y-85804201D01*
X55368500Y-85743638D01*
X55368500Y-83946362D01*
X55361989Y-83885799D01*
X55310889Y-83748796D01*
X55231105Y-83642218D01*
X55209207Y-83594266D01*
X55209207Y-83541549D01*
X55231107Y-83493596D01*
X55298037Y-83404190D01*
X55306452Y-83388777D01*
X55350888Y-83269641D01*
X55354426Y-83254667D01*
X55359646Y-83206114D01*
X55360000Y-83199518D01*
X55360000Y-82571326D01*
X55356549Y-82558450D01*
X55343674Y-82555000D01*
X52193328Y-82555000D01*
X51830902Y-82055000D01*
X55343674Y-82055000D01*
X55356549Y-82051549D01*
X55360000Y-82038674D01*
X55360000Y-81570266D01*
X55373515Y-81513971D01*
X55411115Y-81469948D01*
X55464602Y-81447793D01*
X55522318Y-81452335D01*
G37*
%TD.AperFunction*%
%TD*%
%TA.AperFunction,Conductor*%
%TO.N,GND*%
G36*
X60133597Y-110272436D02*
G01*
X60126496Y-110340000D01*
X60127175Y-110346460D01*
X60145778Y-110523467D01*
X60145779Y-110523475D01*
X60146458Y-110529928D01*
X60148463Y-110536100D01*
X60148465Y-110536107D01*
X60198763Y-110690905D01*
X60205473Y-110711556D01*
X60208720Y-110717180D01*
X60208721Y-110717182D01*
X60274750Y-110831548D01*
X60300960Y-110876944D01*
X60428747Y-111018866D01*
X60433997Y-111022680D01*
X60434000Y-111022683D01*
X60494920Y-111066944D01*
X60583248Y-111131118D01*
X60589181Y-111133759D01*
X60589182Y-111133760D01*
X60747395Y-111204201D01*
X60757712Y-111208794D01*
X60764070Y-111210145D01*
X60764072Y-111210146D01*
X60800874Y-111217968D01*
X60944513Y-111248500D01*
X61128984Y-111248500D01*
X61135487Y-111248500D01*
X61322288Y-111208794D01*
X61496752Y-111131118D01*
X61651253Y-111018866D01*
X61779040Y-110876944D01*
X61874527Y-110711556D01*
X61933542Y-110529928D01*
X61953504Y-110340000D01*
X61952825Y-110333540D01*
X61952825Y-110327038D01*
X61955906Y-110327038D01*
X61965429Y-110272436D01*
X62011879Y-110221290D01*
X62078481Y-110202941D01*
X68529176Y-110290073D01*
X68590464Y-110307237D01*
X68635165Y-110352546D01*
X68651500Y-110414062D01*
X68651500Y-111128638D01*
X68651852Y-111131913D01*
X68651853Y-111131930D01*
X68652351Y-111136560D01*
X68647077Y-111187858D01*
X68627562Y-111221831D01*
X68629128Y-111222969D01*
X68625305Y-111228229D01*
X68620960Y-111233056D01*
X68617716Y-111238674D01*
X68617710Y-111238683D01*
X68528721Y-111392817D01*
X68528718Y-111392822D01*
X68525473Y-111398444D01*
X68523467Y-111404616D01*
X68523465Y-111404622D01*
X68468465Y-111573892D01*
X68468463Y-111573901D01*
X68466458Y-111580072D01*
X68465780Y-111586522D01*
X68465778Y-111586532D01*
X68449697Y-111739540D01*
X68446496Y-111770000D01*
X68447175Y-111776460D01*
X68465778Y-111953467D01*
X68465779Y-111953475D01*
X68466458Y-111959928D01*
X68468463Y-111966100D01*
X68468465Y-111966107D01*
X68470236Y-111971556D01*
X68525473Y-112141556D01*
X68528720Y-112147180D01*
X68528721Y-112147182D01*
X68570261Y-112219132D01*
X68620960Y-112306944D01*
X68748747Y-112448866D01*
X68753997Y-112452680D01*
X68754000Y-112452683D01*
X68829580Y-112507595D01*
X68903248Y-112561118D01*
X68944791Y-112579614D01*
X68958384Y-112585666D01*
X69004464Y-112621093D01*
X69029337Y-112673626D01*
X69027540Y-112731722D01*
X68999467Y-112782616D01*
X68951285Y-112815127D01*
X68922110Y-112826009D01*
X68922104Y-112826012D01*
X68913796Y-112829111D01*
X68906698Y-112834423D01*
X68906695Y-112834426D01*
X68803835Y-112911426D01*
X68803831Y-112911429D01*
X68796739Y-112916739D01*
X68791429Y-112923831D01*
X68791426Y-112923835D01*
X68714426Y-113026695D01*
X68714423Y-113026698D01*
X68709111Y-113033796D01*
X68706013Y-113042099D01*
X68706011Y-113042105D01*
X68660719Y-113163536D01*
X68660717Y-113163543D01*
X68658011Y-113170799D01*
X68657182Y-113178500D01*
X68657182Y-113178505D01*
X68656986Y-113180332D01*
X68651500Y-113231362D01*
X68651500Y-114328638D01*
X68651852Y-114331918D01*
X68651853Y-114331924D01*
X68654790Y-114359247D01*
X68658011Y-114389201D01*
X68660717Y-114396458D01*
X68660719Y-114396463D01*
X68706011Y-114517894D01*
X68709111Y-114526204D01*
X68796739Y-114643261D01*
X68913796Y-114730889D01*
X69050799Y-114781989D01*
X69111362Y-114788500D01*
X69696589Y-114788500D01*
X69744042Y-114797939D01*
X69784270Y-114824819D01*
X70381503Y-115422052D01*
X70398517Y-115443287D01*
X70458000Y-115537018D01*
X70463691Y-115542362D01*
X70539132Y-115613206D01*
X70574679Y-115646586D01*
X70644492Y-115684966D01*
X70704935Y-115718195D01*
X70714940Y-115723695D01*
X70869970Y-115763500D01*
X85161154Y-115763500D01*
X85172437Y-115764031D01*
X85179909Y-115765702D01*
X85248017Y-115763560D01*
X85251913Y-115763500D01*
X85275958Y-115763500D01*
X85279856Y-115763500D01*
X85283724Y-115763011D01*
X85283947Y-115762983D01*
X85295608Y-115762064D01*
X85339889Y-115760673D01*
X85359490Y-115754977D01*
X85378541Y-115751032D01*
X85398797Y-115748474D01*
X85430022Y-115736110D01*
X85439993Y-115732163D01*
X85451043Y-115728379D01*
X85493593Y-115716018D01*
X85511165Y-115705625D01*
X85528632Y-115697068D01*
X85547617Y-115689552D01*
X85583475Y-115663498D01*
X85593223Y-115657096D01*
X85631362Y-115634542D01*
X85645793Y-115620110D01*
X85660588Y-115607472D01*
X85677107Y-115595472D01*
X85705360Y-115561318D01*
X85713203Y-115552699D01*
X88166084Y-113099819D01*
X88206313Y-113072939D01*
X88253766Y-113063500D01*
X88710465Y-113063500D01*
X88767940Y-113077624D01*
X88812321Y-113116780D01*
X88833498Y-113172047D01*
X88826647Y-113230834D01*
X88810719Y-113273536D01*
X88810717Y-113273543D01*
X88808011Y-113280799D01*
X88807182Y-113288500D01*
X88807182Y-113288505D01*
X88806986Y-113290332D01*
X88801500Y-113341362D01*
X88801500Y-114438638D01*
X88801852Y-114441918D01*
X88801853Y-114441924D01*
X88806705Y-114487061D01*
X88808011Y-114499201D01*
X88810717Y-114506458D01*
X88810719Y-114506463D01*
X88856011Y-114627894D01*
X88859111Y-114636204D01*
X88946739Y-114753261D01*
X89063796Y-114840889D01*
X89200799Y-114891989D01*
X89261362Y-114898500D01*
X90855328Y-114898500D01*
X90858638Y-114898500D01*
X90919201Y-114891989D01*
X91056204Y-114840889D01*
X91173261Y-114753261D01*
X91260889Y-114636204D01*
X91311989Y-114499201D01*
X91318500Y-114438638D01*
X91318500Y-114434518D01*
X93710000Y-114434518D01*
X93710353Y-114441114D01*
X93715573Y-114489667D01*
X93719111Y-114504641D01*
X93763547Y-114623777D01*
X93771962Y-114639189D01*
X93847498Y-114740092D01*
X93859907Y-114752501D01*
X93960810Y-114828037D01*
X93976222Y-114836452D01*
X94095358Y-114880888D01*
X94110332Y-114884426D01*
X94158885Y-114889646D01*
X94165482Y-114890000D01*
X94693674Y-114890000D01*
X94706549Y-114886549D01*
X94710000Y-114873674D01*
X95210000Y-114873674D01*
X95213450Y-114886549D01*
X95226326Y-114890000D01*
X95754518Y-114890000D01*
X95761114Y-114889646D01*
X95809667Y-114884426D01*
X95824641Y-114880888D01*
X95943777Y-114836452D01*
X95959189Y-114828037D01*
X96060092Y-114752501D01*
X96072501Y-114740092D01*
X96148037Y-114639189D01*
X96156452Y-114623777D01*
X96200888Y-114504641D01*
X96204426Y-114489667D01*
X96209646Y-114441114D01*
X96210000Y-114434518D01*
X96210000Y-114156326D01*
X96206549Y-114143450D01*
X96193674Y-114140000D01*
X95226326Y-114140000D01*
X95213450Y-114143450D01*
X95210000Y-114156326D01*
X95210000Y-114873674D01*
X94710000Y-114873674D01*
X94710000Y-114156326D01*
X94706549Y-114143450D01*
X94693674Y-114140000D01*
X93726326Y-114140000D01*
X93713450Y-114143450D01*
X93710000Y-114156326D01*
X93710000Y-114434518D01*
X91318500Y-114434518D01*
X91318500Y-113341362D01*
X91311989Y-113280799D01*
X91308135Y-113270466D01*
X91293353Y-113230834D01*
X91286502Y-113172047D01*
X91307679Y-113116780D01*
X91352060Y-113077624D01*
X91409535Y-113063500D01*
X93341154Y-113063500D01*
X93352437Y-113064031D01*
X93359909Y-113065702D01*
X93428017Y-113063560D01*
X93431913Y-113063500D01*
X93455958Y-113063500D01*
X93459856Y-113063500D01*
X93463724Y-113063011D01*
X93463947Y-113062983D01*
X93475608Y-113062064D01*
X93519889Y-113060673D01*
X93539490Y-113054977D01*
X93558541Y-113051032D01*
X93578797Y-113048474D01*
X93586046Y-113045603D01*
X93593609Y-113043662D01*
X93593974Y-113045085D01*
X93639463Y-113038370D01*
X93693342Y-113055890D01*
X93733804Y-113095547D01*
X93752402Y-113149064D01*
X93745254Y-113205267D01*
X93719112Y-113275357D01*
X93715573Y-113290332D01*
X93710353Y-113338885D01*
X93710000Y-113345482D01*
X93710000Y-113623674D01*
X93713450Y-113636549D01*
X93726326Y-113640000D01*
X94693674Y-113640000D01*
X94706549Y-113636549D01*
X94710000Y-113623674D01*
X95210000Y-113623674D01*
X95213450Y-113636549D01*
X95226326Y-113640000D01*
X96193674Y-113640000D01*
X96206549Y-113636549D01*
X96210000Y-113623674D01*
X96210000Y-113345482D01*
X96209646Y-113338885D01*
X96204426Y-113290332D01*
X96200888Y-113275358D01*
X96156452Y-113156222D01*
X96148037Y-113140810D01*
X96072501Y-113039907D01*
X96060092Y-113027498D01*
X95959189Y-112951962D01*
X95943777Y-112943547D01*
X95824641Y-112899111D01*
X95809667Y-112895573D01*
X95761114Y-112890353D01*
X95754518Y-112890000D01*
X95226326Y-112890000D01*
X95213450Y-112893450D01*
X95210000Y-112906326D01*
X95210000Y-113623674D01*
X94710000Y-113623674D01*
X94710000Y-112906326D01*
X94706549Y-112893450D01*
X94693674Y-112890000D01*
X94165477Y-112890000D01*
X94161491Y-112890213D01*
X94103348Y-112879178D01*
X94056942Y-112842451D01*
X94032843Y-112788399D01*
X94036541Y-112729333D01*
X94067190Y-112678712D01*
X95011085Y-111734819D01*
X95051314Y-111707939D01*
X95098767Y-111698500D01*
X95755328Y-111698500D01*
X95758638Y-111698500D01*
X95819201Y-111691989D01*
X95956204Y-111640889D01*
X96073261Y-111553261D01*
X96160889Y-111436204D01*
X96211989Y-111299201D01*
X96218500Y-111238638D01*
X96218500Y-110789769D01*
X96235393Y-110727286D01*
X96281469Y-110681828D01*
X96344175Y-110665780D01*
X103936401Y-110768330D01*
X103998059Y-110785713D01*
X104042813Y-110831548D01*
X104058719Y-110893604D01*
X103894384Y-126756785D01*
X103877347Y-126818240D01*
X103832020Y-126863101D01*
X103770391Y-126879500D01*
X28349462Y-126879500D01*
X28287828Y-126863098D01*
X28242500Y-126818230D01*
X28225468Y-126756768D01*
X28213822Y-125617655D01*
X28070000Y-111550000D01*
X31380337Y-111409635D01*
X31403584Y-111440690D01*
X31425483Y-111488642D01*
X31425483Y-111541358D01*
X31403584Y-111589310D01*
X31334428Y-111681691D01*
X31334423Y-111681699D01*
X31329111Y-111688796D01*
X31326013Y-111697099D01*
X31326011Y-111697105D01*
X31280719Y-111818536D01*
X31280717Y-111818543D01*
X31278011Y-111825799D01*
X31277182Y-111833500D01*
X31277182Y-111833505D01*
X31271853Y-111883075D01*
X31271500Y-111886362D01*
X31271500Y-113683638D01*
X31278011Y-113744201D01*
X31280717Y-113751458D01*
X31280719Y-113751463D01*
X31326011Y-113872894D01*
X31329111Y-113881204D01*
X31416739Y-113998261D01*
X31533796Y-114085889D01*
X31670799Y-114136989D01*
X31731362Y-114143500D01*
X34317431Y-114143500D01*
X35325328Y-114143500D01*
X35328638Y-114143500D01*
X35389201Y-114136989D01*
X35526204Y-114085889D01*
X35643261Y-113998261D01*
X35730889Y-113881204D01*
X35781989Y-113744201D01*
X35788500Y-113683638D01*
X35788500Y-112846312D01*
X35788924Y-112836072D01*
X35792732Y-112790117D01*
X35793156Y-112785000D01*
X35788923Y-112733927D01*
X35788500Y-112723688D01*
X35788500Y-112555000D01*
X39416844Y-112555000D01*
X39417268Y-112560117D01*
X39421076Y-112606072D01*
X39421500Y-112616312D01*
X39421500Y-115253638D01*
X39428011Y-115314201D01*
X39430717Y-115321458D01*
X39430719Y-115321463D01*
X39476011Y-115442894D01*
X39479111Y-115451204D01*
X39484425Y-115458303D01*
X39484426Y-115458304D01*
X39560192Y-115559516D01*
X39566739Y-115568261D01*
X39683796Y-115655889D01*
X39820799Y-115706989D01*
X39881362Y-115713500D01*
X41675328Y-115713500D01*
X41678638Y-115713500D01*
X41739201Y-115706989D01*
X41876204Y-115655889D01*
X41975689Y-115581414D01*
X42023642Y-115559516D01*
X42076358Y-115559516D01*
X42124310Y-115581414D01*
X42223796Y-115655889D01*
X42360799Y-115706989D01*
X42421362Y-115713500D01*
X44215328Y-115713500D01*
X44218638Y-115713500D01*
X44279201Y-115706989D01*
X44416204Y-115655889D01*
X44515689Y-115581414D01*
X44563642Y-115559516D01*
X44616358Y-115559516D01*
X44664310Y-115581414D01*
X44763796Y-115655889D01*
X44900799Y-115706989D01*
X44961362Y-115713500D01*
X46755328Y-115713500D01*
X46758638Y-115713500D01*
X46819201Y-115706989D01*
X46956204Y-115655889D01*
X47073261Y-115568261D01*
X47160889Y-115451204D01*
X47211989Y-115314201D01*
X47218500Y-115253638D01*
X47218500Y-112616312D01*
X47218924Y-112606072D01*
X47222732Y-112560117D01*
X47223156Y-112555000D01*
X47218923Y-112503927D01*
X47218500Y-112493688D01*
X47218500Y-111659672D01*
X47218500Y-111656362D01*
X47211989Y-111595799D01*
X47160889Y-111458796D01*
X47073261Y-111341739D01*
X47061445Y-111332894D01*
X46963304Y-111259426D01*
X46963303Y-111259425D01*
X46956204Y-111254111D01*
X46947896Y-111251012D01*
X46947894Y-111251011D01*
X46826463Y-111205719D01*
X46826458Y-111205717D01*
X46819201Y-111203011D01*
X46811497Y-111202182D01*
X46811494Y-111202182D01*
X46761924Y-111196853D01*
X46761918Y-111196852D01*
X46758638Y-111196500D01*
X44961362Y-111196500D01*
X44958082Y-111196852D01*
X44958075Y-111196853D01*
X44908505Y-111202182D01*
X44908500Y-111202182D01*
X44900799Y-111203011D01*
X44893543Y-111205717D01*
X44893536Y-111205719D01*
X44772105Y-111251011D01*
X44772099Y-111251013D01*
X44763796Y-111254111D01*
X44756699Y-111259423D01*
X44756691Y-111259428D01*
X44664310Y-111328584D01*
X44616358Y-111350483D01*
X44563642Y-111350483D01*
X44515690Y-111328584D01*
X44423308Y-111259428D01*
X44423303Y-111259425D01*
X44416204Y-111254111D01*
X44407896Y-111251012D01*
X44407894Y-111251011D01*
X44286463Y-111205719D01*
X44286458Y-111205717D01*
X44279201Y-111203011D01*
X44271497Y-111202182D01*
X44271494Y-111202182D01*
X44221924Y-111196853D01*
X44221918Y-111196852D01*
X44218638Y-111196500D01*
X42421362Y-111196500D01*
X42418082Y-111196852D01*
X42418075Y-111196853D01*
X42368505Y-111202182D01*
X42368500Y-111202182D01*
X42360799Y-111203011D01*
X42353543Y-111205717D01*
X42353536Y-111205719D01*
X42232105Y-111251011D01*
X42232099Y-111251013D01*
X42223796Y-111254111D01*
X42216699Y-111259423D01*
X42216691Y-111259428D01*
X42124310Y-111328584D01*
X42076358Y-111350483D01*
X42023642Y-111350483D01*
X41975690Y-111328584D01*
X41883308Y-111259428D01*
X41883303Y-111259425D01*
X41876204Y-111254111D01*
X41867896Y-111251012D01*
X41867894Y-111251011D01*
X41746463Y-111205719D01*
X41746458Y-111205717D01*
X41739201Y-111203011D01*
X41731497Y-111202182D01*
X41731494Y-111202182D01*
X41681924Y-111196853D01*
X41681918Y-111196852D01*
X41678638Y-111196500D01*
X39881362Y-111196500D01*
X39878082Y-111196852D01*
X39878075Y-111196853D01*
X39828505Y-111202182D01*
X39828500Y-111202182D01*
X39820799Y-111203011D01*
X39813543Y-111205717D01*
X39813536Y-111205719D01*
X39692105Y-111251011D01*
X39692099Y-111251013D01*
X39683796Y-111254111D01*
X39676698Y-111259423D01*
X39676695Y-111259426D01*
X39573835Y-111336426D01*
X39573831Y-111336429D01*
X39566739Y-111341739D01*
X39561429Y-111348831D01*
X39561426Y-111348835D01*
X39484426Y-111451695D01*
X39484423Y-111451698D01*
X39479111Y-111458796D01*
X39476013Y-111467099D01*
X39476011Y-111467105D01*
X39430719Y-111588536D01*
X39430717Y-111588543D01*
X39428011Y-111595799D01*
X39427182Y-111603500D01*
X39427182Y-111603505D01*
X39423735Y-111635573D01*
X39421500Y-111656362D01*
X39421500Y-111659672D01*
X39421500Y-112493688D01*
X39421076Y-112503927D01*
X39416844Y-112555000D01*
X35788500Y-112555000D01*
X35788500Y-111889672D01*
X35788500Y-111886362D01*
X35781989Y-111825799D01*
X35730889Y-111688796D01*
X35656414Y-111589309D01*
X35634516Y-111541358D01*
X35634516Y-111488642D01*
X35656415Y-111440689D01*
X35656416Y-111440688D01*
X35730889Y-111341204D01*
X35774865Y-111223299D01*
X50851500Y-110584025D01*
X50851500Y-111143638D01*
X50851852Y-111146918D01*
X50851853Y-111146924D01*
X50856433Y-111189528D01*
X50858011Y-111204201D01*
X50860717Y-111211458D01*
X50860719Y-111211463D01*
X50906011Y-111332894D01*
X50909111Y-111341204D01*
X50977591Y-111432683D01*
X50983584Y-111440688D01*
X51005483Y-111488640D01*
X51005483Y-111541356D01*
X50983585Y-111589309D01*
X50914425Y-111681696D01*
X50914422Y-111681700D01*
X50909111Y-111688796D01*
X50906013Y-111697099D01*
X50906011Y-111697105D01*
X50860719Y-111818536D01*
X50860717Y-111818543D01*
X50858011Y-111825799D01*
X50857182Y-111833500D01*
X50857182Y-111833505D01*
X50851853Y-111883075D01*
X50851500Y-111886362D01*
X50851500Y-111889672D01*
X50851500Y-112723688D01*
X50851076Y-112733927D01*
X50846844Y-112785000D01*
X50847268Y-112790117D01*
X50851076Y-112836072D01*
X50851500Y-112846312D01*
X50851500Y-113683638D01*
X50858011Y-113744201D01*
X50860717Y-113751458D01*
X50860719Y-113751463D01*
X50906011Y-113872894D01*
X50909111Y-113881204D01*
X50996739Y-113998261D01*
X51113796Y-114085889D01*
X51250799Y-114136989D01*
X51311362Y-114143500D01*
X52097431Y-114143500D01*
X52656589Y-114143500D01*
X52704042Y-114152939D01*
X52744270Y-114179819D01*
X63220778Y-124656327D01*
X63231472Y-124668521D01*
X63251013Y-124693987D01*
X63257455Y-124698930D01*
X63257459Y-124698934D01*
X63282919Y-124718470D01*
X63282929Y-124718478D01*
X63378124Y-124791524D01*
X63526149Y-124852838D01*
X63685000Y-124873751D01*
X63693059Y-124872690D01*
X63693061Y-124872690D01*
X63716829Y-124869561D01*
X63733013Y-124868500D01*
X68657710Y-124868500D01*
X68716727Y-124883445D01*
X68761519Y-124924678D01*
X68871474Y-125092977D01*
X68871477Y-125092981D01*
X68874278Y-125097268D01*
X68877752Y-125101041D01*
X68877753Y-125101043D01*
X69023288Y-125259135D01*
X69023291Y-125259138D01*
X69026760Y-125262906D01*
X69030801Y-125266051D01*
X69200376Y-125398039D01*
X69200381Y-125398042D01*
X69204424Y-125401189D01*
X69208931Y-125403628D01*
X69208934Y-125403630D01*
X69397919Y-125505903D01*
X69402426Y-125508342D01*
X69615365Y-125581444D01*
X69837431Y-125618500D01*
X70057436Y-125618500D01*
X70062569Y-125618500D01*
X70284635Y-125581444D01*
X70497574Y-125508342D01*
X70652309Y-125424604D01*
X73682316Y-125424604D01*
X73689747Y-125432713D01*
X73757991Y-125480498D01*
X73767323Y-125485886D01*
X73971602Y-125581143D01*
X73981736Y-125584831D01*
X74199446Y-125643166D01*
X74210077Y-125645041D01*
X74434605Y-125664685D01*
X74445395Y-125664685D01*
X74669922Y-125645041D01*
X74680553Y-125643166D01*
X74898263Y-125584831D01*
X74908397Y-125581143D01*
X75112671Y-125485888D01*
X75122016Y-125480492D01*
X75190248Y-125432715D01*
X75197681Y-125424603D01*
X75191768Y-125415321D01*
X74451542Y-124675095D01*
X74440000Y-124668431D01*
X74428457Y-124675095D01*
X73688230Y-125415321D01*
X73682316Y-125424604D01*
X70652309Y-125424604D01*
X70695576Y-125401189D01*
X70873240Y-125262906D01*
X71025722Y-125097268D01*
X71148860Y-124908791D01*
X71239296Y-124702616D01*
X71294564Y-124484368D01*
X71308566Y-124315395D01*
X73085315Y-124315395D01*
X73104958Y-124539922D01*
X73106833Y-124550553D01*
X73165168Y-124768263D01*
X73168856Y-124778397D01*
X73264110Y-124982668D01*
X73269508Y-124992018D01*
X73317284Y-125060249D01*
X73325395Y-125067682D01*
X73334674Y-125061771D01*
X74074904Y-124321542D01*
X74081568Y-124310000D01*
X74074904Y-124298457D01*
X73334674Y-123558227D01*
X73325396Y-123552316D01*
X73317283Y-123559750D01*
X73269505Y-123627986D01*
X73264111Y-123637330D01*
X73168856Y-123841602D01*
X73165168Y-123851736D01*
X73106833Y-124069446D01*
X73104958Y-124080077D01*
X73085315Y-124304605D01*
X73085315Y-124315395D01*
X71308566Y-124315395D01*
X71313156Y-124260000D01*
X71294564Y-124035632D01*
X71239296Y-123817384D01*
X71148860Y-123611209D01*
X71025722Y-123422732D01*
X70873240Y-123257094D01*
X70838338Y-123229928D01*
X70793972Y-123195396D01*
X73682316Y-123195396D01*
X73688227Y-123204674D01*
X75545321Y-125061768D01*
X75554603Y-125067681D01*
X75562715Y-125060248D01*
X75610492Y-124992016D01*
X75615888Y-124982671D01*
X75711143Y-124778397D01*
X75714831Y-124768263D01*
X75773166Y-124550553D01*
X75775041Y-124539922D01*
X75794685Y-124315395D01*
X75794685Y-124304605D01*
X75775041Y-124080077D01*
X75773166Y-124069446D01*
X75714831Y-123851736D01*
X75711143Y-123841602D01*
X75615889Y-123637332D01*
X75610491Y-123627982D01*
X75496456Y-123465123D01*
X75474296Y-123402110D01*
X75488042Y-123336743D01*
X75533703Y-123287991D01*
X75598031Y-123270000D01*
X75819161Y-123270000D01*
X75829356Y-123269155D01*
X76064431Y-123229928D01*
X76074343Y-123227417D01*
X76299760Y-123150032D01*
X76309114Y-123145929D01*
X76518723Y-123032495D01*
X76527281Y-123026903D01*
X76556146Y-123004437D01*
X76564250Y-122993250D01*
X76557589Y-122981142D01*
X75346447Y-121770000D01*
X76058431Y-121770000D01*
X76065095Y-121781542D01*
X76913653Y-122630100D01*
X76923034Y-122636024D01*
X76931002Y-122628299D01*
X77020924Y-122490664D01*
X77025792Y-122481669D01*
X77121527Y-122263414D01*
X77124846Y-122253747D01*
X77183353Y-122022712D01*
X77185037Y-122012618D01*
X77204717Y-121775117D01*
X77204717Y-121764883D01*
X77185037Y-121527381D01*
X77183353Y-121517287D01*
X77124846Y-121286252D01*
X77121527Y-121276585D01*
X77025792Y-121058330D01*
X77020924Y-121049335D01*
X76931002Y-120911699D01*
X76923034Y-120903974D01*
X76913653Y-120909898D01*
X76065095Y-121758457D01*
X76058431Y-121770000D01*
X75346447Y-121770000D01*
X74486345Y-120909898D01*
X74476964Y-120903974D01*
X74468997Y-120911699D01*
X74379072Y-121049338D01*
X74374207Y-121058328D01*
X74278472Y-121276585D01*
X74275153Y-121286252D01*
X74216646Y-121517287D01*
X74214962Y-121527381D01*
X74195283Y-121764883D01*
X74195283Y-121775117D01*
X74214962Y-122012618D01*
X74216646Y-122022712D01*
X74275153Y-122253747D01*
X74278472Y-122263414D01*
X74374207Y-122481671D01*
X74379072Y-122490661D01*
X74509424Y-122690179D01*
X74515707Y-122698252D01*
X74562539Y-122749124D01*
X74591025Y-122800793D01*
X74592408Y-122859777D01*
X74566375Y-122912724D01*
X74518819Y-122947646D01*
X74460507Y-122956637D01*
X74445390Y-122955315D01*
X74434605Y-122955315D01*
X74210077Y-122974958D01*
X74199446Y-122976833D01*
X73981736Y-123035168D01*
X73971602Y-123038856D01*
X73767330Y-123134111D01*
X73757986Y-123139505D01*
X73689750Y-123187283D01*
X73682316Y-123195396D01*
X70793972Y-123195396D01*
X70699623Y-123121960D01*
X70699615Y-123121955D01*
X70695576Y-123118811D01*
X70691071Y-123116373D01*
X70691065Y-123116369D01*
X70502080Y-123014096D01*
X70502074Y-123014093D01*
X70497574Y-123011658D01*
X70492733Y-123009996D01*
X70492726Y-123009993D01*
X70289488Y-122940222D01*
X70289487Y-122940221D01*
X70284635Y-122938556D01*
X70279585Y-122937713D01*
X70279576Y-122937711D01*
X70067631Y-122902344D01*
X70067622Y-122902343D01*
X70062569Y-122901500D01*
X69969745Y-122901500D01*
X69904084Y-122882688D01*
X69858345Y-122831961D01*
X69846406Y-122764709D01*
X69871891Y-122701338D01*
X69880574Y-122690180D01*
X70010927Y-122490661D01*
X70015792Y-122481671D01*
X70111527Y-122263414D01*
X70114846Y-122253747D01*
X70173353Y-122022712D01*
X70175037Y-122012618D01*
X70194717Y-121775117D01*
X70194717Y-121764883D01*
X70175037Y-121527381D01*
X70173353Y-121517287D01*
X70114846Y-121286252D01*
X70111527Y-121276585D01*
X70015792Y-121058330D01*
X70010924Y-121049335D01*
X69921002Y-120911699D01*
X69913034Y-120903974D01*
X69903653Y-120909898D01*
X68690000Y-122123553D01*
X67832408Y-122981143D01*
X67825749Y-122993248D01*
X67833855Y-123004439D01*
X67862717Y-123026903D01*
X67871279Y-123032496D01*
X68080885Y-123145929D01*
X68090239Y-123150032D01*
X68315656Y-123227417D01*
X68325568Y-123229928D01*
X68560643Y-123269155D01*
X68570839Y-123270000D01*
X68744930Y-123270000D01*
X68808404Y-123287477D01*
X68853985Y-123334983D01*
X68868824Y-123399124D01*
X68848739Y-123461822D01*
X68761519Y-123595322D01*
X68716727Y-123636555D01*
X68657710Y-123651500D01*
X63988411Y-123651500D01*
X63940958Y-123642061D01*
X63900730Y-123615181D01*
X62060666Y-121775117D01*
X67185283Y-121775117D01*
X67204962Y-122012618D01*
X67206646Y-122022712D01*
X67265153Y-122253747D01*
X67268472Y-122263414D01*
X67364208Y-122481673D01*
X67369070Y-122490656D01*
X67458999Y-122628304D01*
X67466963Y-122636024D01*
X67476345Y-122630100D01*
X68324904Y-121781542D01*
X68331568Y-121770000D01*
X68324904Y-121758457D01*
X67476345Y-120909898D01*
X67466964Y-120903974D01*
X67458997Y-120911699D01*
X67369072Y-121049338D01*
X67364207Y-121058328D01*
X67268472Y-121276585D01*
X67265153Y-121286252D01*
X67206646Y-121517287D01*
X67204962Y-121527381D01*
X67185283Y-121764883D01*
X67185283Y-121775117D01*
X62060666Y-121775117D01*
X54640730Y-114355181D01*
X54610480Y-114305818D01*
X54605938Y-114248102D01*
X54628093Y-114194615D01*
X54672116Y-114157015D01*
X54728411Y-114143500D01*
X54905328Y-114143500D01*
X54908638Y-114143500D01*
X54969201Y-114136989D01*
X55067068Y-114100485D01*
X55113353Y-114092703D01*
X55159214Y-114102680D01*
X55198083Y-114128987D01*
X60851302Y-119782207D01*
X60858898Y-119790555D01*
X60863000Y-119797018D01*
X60912684Y-119843674D01*
X60915447Y-119846352D01*
X60935230Y-119866135D01*
X60938306Y-119868521D01*
X60938503Y-119868674D01*
X60947382Y-119876258D01*
X60979679Y-119906586D01*
X60997565Y-119916418D01*
X61013829Y-119927102D01*
X61023792Y-119934831D01*
X61023795Y-119934833D01*
X61029959Y-119939614D01*
X61037122Y-119942713D01*
X61037123Y-119942714D01*
X61070616Y-119957207D01*
X61081112Y-119962348D01*
X61119940Y-119983695D01*
X61139716Y-119988772D01*
X61158123Y-119995075D01*
X61169691Y-120000081D01*
X61169692Y-120000081D01*
X61176855Y-120003181D01*
X61220621Y-120010112D01*
X61232041Y-120012477D01*
X61274970Y-120023500D01*
X61295385Y-120023500D01*
X61314783Y-120025027D01*
X61334943Y-120028220D01*
X61373476Y-120024577D01*
X61379058Y-120024050D01*
X61390727Y-120023500D01*
X68547601Y-120023500D01*
X68608115Y-120039269D01*
X68653239Y-120082565D01*
X68671495Y-120142376D01*
X68658241Y-120203490D01*
X68616847Y-120250364D01*
X68565440Y-120268408D01*
X68565706Y-120270000D01*
X68325568Y-120310071D01*
X68315656Y-120312582D01*
X68090239Y-120389967D01*
X68080885Y-120394070D01*
X67871276Y-120507504D01*
X67862717Y-120513096D01*
X67833854Y-120535560D01*
X67825748Y-120546749D01*
X67832408Y-120558855D01*
X68678457Y-121404904D01*
X68689999Y-121411568D01*
X68701542Y-121404904D01*
X69547590Y-120558855D01*
X69554250Y-120546749D01*
X69546143Y-120535559D01*
X69517286Y-120513099D01*
X69508719Y-120507503D01*
X69299114Y-120394070D01*
X69289760Y-120389967D01*
X69064343Y-120312582D01*
X69054431Y-120310071D01*
X68814294Y-120270000D01*
X68814559Y-120268408D01*
X68763153Y-120250364D01*
X68721759Y-120203490D01*
X68708505Y-120142376D01*
X68726761Y-120082565D01*
X68771885Y-120039269D01*
X68832399Y-120023500D01*
X75557601Y-120023500D01*
X75618115Y-120039269D01*
X75663239Y-120082565D01*
X75681495Y-120142376D01*
X75668241Y-120203490D01*
X75626847Y-120250364D01*
X75575440Y-120268408D01*
X75575706Y-120270000D01*
X75335568Y-120310071D01*
X75325656Y-120312582D01*
X75100239Y-120389967D01*
X75090885Y-120394070D01*
X74881276Y-120507504D01*
X74872717Y-120513096D01*
X74843854Y-120535560D01*
X74835748Y-120546749D01*
X74842408Y-120558855D01*
X75688457Y-121404904D01*
X75699999Y-121411568D01*
X75711542Y-121404904D01*
X76557590Y-120558855D01*
X76564250Y-120546749D01*
X76556143Y-120535559D01*
X76527286Y-120513099D01*
X76518719Y-120507503D01*
X76309114Y-120394070D01*
X76299760Y-120389967D01*
X76074343Y-120312582D01*
X76064431Y-120310071D01*
X75824294Y-120270000D01*
X75824559Y-120268408D01*
X75773153Y-120250364D01*
X75731759Y-120203490D01*
X75718505Y-120142376D01*
X75736761Y-120082565D01*
X75781885Y-120039269D01*
X75842399Y-120023500D01*
X82706234Y-120023500D01*
X82753687Y-120032939D01*
X82793915Y-120059819D01*
X87386302Y-124652207D01*
X87393898Y-124660555D01*
X87398000Y-124667018D01*
X87447684Y-124713674D01*
X87450447Y-124716352D01*
X87470230Y-124736135D01*
X87473306Y-124738521D01*
X87473503Y-124738674D01*
X87482383Y-124746259D01*
X87505815Y-124768263D01*
X87514679Y-124776586D01*
X87532565Y-124786418D01*
X87548829Y-124797102D01*
X87558792Y-124804831D01*
X87558795Y-124804833D01*
X87564959Y-124809614D01*
X87572122Y-124812713D01*
X87572123Y-124812714D01*
X87605616Y-124827207D01*
X87616112Y-124832348D01*
X87654940Y-124853695D01*
X87674716Y-124858772D01*
X87693123Y-124865075D01*
X87704691Y-124870081D01*
X87704692Y-124870081D01*
X87711855Y-124873181D01*
X87755621Y-124880112D01*
X87767041Y-124882477D01*
X87809970Y-124893500D01*
X87830385Y-124893500D01*
X87849783Y-124895027D01*
X87869943Y-124898220D01*
X87908476Y-124894577D01*
X87914058Y-124894050D01*
X87925727Y-124893500D01*
X89244044Y-124893500D01*
X89303062Y-124908445D01*
X89347853Y-124949679D01*
X89441470Y-125092972D01*
X89441478Y-125092982D01*
X89444278Y-125097268D01*
X89447752Y-125101041D01*
X89447753Y-125101043D01*
X89593288Y-125259135D01*
X89593291Y-125259138D01*
X89596760Y-125262906D01*
X89600801Y-125266051D01*
X89770376Y-125398039D01*
X89770381Y-125398042D01*
X89774424Y-125401189D01*
X89778931Y-125403628D01*
X89778934Y-125403630D01*
X89967919Y-125505903D01*
X89972426Y-125508342D01*
X90185365Y-125581444D01*
X90407431Y-125618500D01*
X90627436Y-125618500D01*
X90632569Y-125618500D01*
X90854635Y-125581444D01*
X91067574Y-125508342D01*
X91222309Y-125424604D01*
X94252316Y-125424604D01*
X94259747Y-125432713D01*
X94327991Y-125480498D01*
X94337323Y-125485886D01*
X94541602Y-125581143D01*
X94551736Y-125584831D01*
X94769446Y-125643166D01*
X94780077Y-125645041D01*
X95004605Y-125664685D01*
X95015395Y-125664685D01*
X95239922Y-125645041D01*
X95250553Y-125643166D01*
X95468263Y-125584831D01*
X95478397Y-125581143D01*
X95682671Y-125485888D01*
X95692016Y-125480492D01*
X95760248Y-125432715D01*
X95767681Y-125424603D01*
X95761768Y-125415321D01*
X95021542Y-124675095D01*
X95010000Y-124668431D01*
X94998457Y-124675095D01*
X94258230Y-125415321D01*
X94252316Y-125424604D01*
X91222309Y-125424604D01*
X91265576Y-125401189D01*
X91443240Y-125262906D01*
X91595722Y-125097268D01*
X91718860Y-124908791D01*
X91809296Y-124702616D01*
X91864564Y-124484368D01*
X91878566Y-124315395D01*
X93655315Y-124315395D01*
X93674958Y-124539922D01*
X93676833Y-124550553D01*
X93735168Y-124768263D01*
X93738856Y-124778397D01*
X93834110Y-124982668D01*
X93839508Y-124992018D01*
X93887284Y-125060249D01*
X93895395Y-125067682D01*
X93904674Y-125061771D01*
X94644904Y-124321542D01*
X94651568Y-124310000D01*
X94644904Y-124298457D01*
X93904674Y-123558227D01*
X93895396Y-123552316D01*
X93887283Y-123559750D01*
X93839505Y-123627986D01*
X93834111Y-123637330D01*
X93738856Y-123841602D01*
X93735168Y-123851736D01*
X93676833Y-124069446D01*
X93674958Y-124080077D01*
X93655315Y-124304605D01*
X93655315Y-124315395D01*
X91878566Y-124315395D01*
X91883156Y-124260000D01*
X91864564Y-124035632D01*
X91809296Y-123817384D01*
X91718860Y-123611209D01*
X91595722Y-123422732D01*
X91443240Y-123257094D01*
X91408338Y-123229928D01*
X91363972Y-123195396D01*
X94252316Y-123195396D01*
X94258227Y-123204674D01*
X96115321Y-125061768D01*
X96124603Y-125067681D01*
X96132715Y-125060248D01*
X96180492Y-124992016D01*
X96185888Y-124982671D01*
X96281143Y-124778397D01*
X96284831Y-124768263D01*
X96343166Y-124550553D01*
X96345041Y-124539922D01*
X96364685Y-124315395D01*
X96364685Y-124304605D01*
X96345041Y-124080077D01*
X96343166Y-124069446D01*
X96284831Y-123851736D01*
X96281143Y-123841602D01*
X96185889Y-123637332D01*
X96180491Y-123627982D01*
X96066456Y-123465123D01*
X96044296Y-123402110D01*
X96058042Y-123336743D01*
X96103703Y-123287991D01*
X96168031Y-123270000D01*
X96389161Y-123270000D01*
X96399356Y-123269155D01*
X96634431Y-123229928D01*
X96644343Y-123227417D01*
X96869760Y-123150032D01*
X96879114Y-123145929D01*
X97088723Y-123032495D01*
X97097281Y-123026903D01*
X97126146Y-123004437D01*
X97134250Y-122993250D01*
X97127589Y-122981142D01*
X95916447Y-121770000D01*
X96628431Y-121770000D01*
X96635095Y-121781542D01*
X97483653Y-122630100D01*
X97493034Y-122636024D01*
X97501002Y-122628299D01*
X97590924Y-122490664D01*
X97595792Y-122481669D01*
X97691527Y-122263414D01*
X97694846Y-122253747D01*
X97753353Y-122022712D01*
X97755037Y-122012618D01*
X97774717Y-121775117D01*
X97774717Y-121764883D01*
X97755037Y-121527381D01*
X97753353Y-121517287D01*
X97694846Y-121286252D01*
X97691527Y-121276585D01*
X97595792Y-121058330D01*
X97590924Y-121049335D01*
X97501002Y-120911699D01*
X97493034Y-120903974D01*
X97483653Y-120909898D01*
X96635095Y-121758457D01*
X96628431Y-121770000D01*
X95916447Y-121770000D01*
X95056345Y-120909898D01*
X95046964Y-120903974D01*
X95038997Y-120911699D01*
X94949072Y-121049338D01*
X94944207Y-121058328D01*
X94848472Y-121276585D01*
X94845153Y-121286252D01*
X94786646Y-121517287D01*
X94784962Y-121527381D01*
X94765283Y-121764883D01*
X94765283Y-121775117D01*
X94784962Y-122012618D01*
X94786646Y-122022712D01*
X94845153Y-122253747D01*
X94848472Y-122263414D01*
X94944207Y-122481671D01*
X94949072Y-122490661D01*
X95079424Y-122690179D01*
X95085707Y-122698252D01*
X95132539Y-122749124D01*
X95161025Y-122800793D01*
X95162408Y-122859777D01*
X95136375Y-122912724D01*
X95088819Y-122947646D01*
X95030507Y-122956637D01*
X95015390Y-122955315D01*
X95004605Y-122955315D01*
X94780077Y-122974958D01*
X94769446Y-122976833D01*
X94551736Y-123035168D01*
X94541602Y-123038856D01*
X94337330Y-123134111D01*
X94327986Y-123139505D01*
X94259750Y-123187283D01*
X94252316Y-123195396D01*
X91363972Y-123195396D01*
X91269623Y-123121960D01*
X91269615Y-123121955D01*
X91265576Y-123118811D01*
X91261071Y-123116373D01*
X91261065Y-123116369D01*
X91072080Y-123014096D01*
X91072074Y-123014093D01*
X91067574Y-123011658D01*
X91062733Y-123009996D01*
X91062726Y-123009993D01*
X90859488Y-122940222D01*
X90859487Y-122940221D01*
X90854635Y-122938556D01*
X90849585Y-122937713D01*
X90849576Y-122937711D01*
X90637631Y-122902344D01*
X90637622Y-122902343D01*
X90632569Y-122901500D01*
X90539745Y-122901500D01*
X90474084Y-122882688D01*
X90428345Y-122831961D01*
X90416406Y-122764709D01*
X90441891Y-122701338D01*
X90450574Y-122690180D01*
X90580927Y-122490661D01*
X90585792Y-122481671D01*
X90681527Y-122263414D01*
X90684846Y-122253747D01*
X90743353Y-122022712D01*
X90745037Y-122012618D01*
X90764717Y-121775117D01*
X90764717Y-121764883D01*
X90745037Y-121527381D01*
X90743353Y-121517287D01*
X90684846Y-121286252D01*
X90681527Y-121276585D01*
X90585792Y-121058330D01*
X90580924Y-121049335D01*
X90491002Y-120911699D01*
X90483034Y-120903974D01*
X90473653Y-120909898D01*
X89260000Y-122123553D01*
X88402408Y-122981143D01*
X88395749Y-122993248D01*
X88403855Y-123004439D01*
X88432717Y-123026903D01*
X88441279Y-123032496D01*
X88650885Y-123145929D01*
X88660239Y-123150032D01*
X88885656Y-123227417D01*
X88895568Y-123229928D01*
X89130643Y-123269155D01*
X89140839Y-123270000D01*
X89314930Y-123270000D01*
X89378404Y-123287477D01*
X89423985Y-123334982D01*
X89438824Y-123399124D01*
X89418739Y-123461821D01*
X89347853Y-123570321D01*
X89303062Y-123611555D01*
X89244044Y-123626500D01*
X88203766Y-123626500D01*
X88156313Y-123617061D01*
X88116085Y-123590181D01*
X86301021Y-121775117D01*
X87755283Y-121775117D01*
X87774962Y-122012618D01*
X87776646Y-122022712D01*
X87835153Y-122253747D01*
X87838472Y-122263414D01*
X87934208Y-122481673D01*
X87939070Y-122490656D01*
X88028999Y-122628304D01*
X88036963Y-122636024D01*
X88046345Y-122630100D01*
X88894904Y-121781542D01*
X88901568Y-121770000D01*
X88894904Y-121758457D01*
X88046345Y-120909898D01*
X88036964Y-120903974D01*
X88028997Y-120911699D01*
X87939072Y-121049338D01*
X87934207Y-121058328D01*
X87838472Y-121276585D01*
X87835153Y-121286252D01*
X87776646Y-121517287D01*
X87774962Y-121527381D01*
X87755283Y-121764883D01*
X87755283Y-121775117D01*
X86301021Y-121775117D01*
X85072653Y-120546749D01*
X88395748Y-120546749D01*
X88402408Y-120558855D01*
X89248457Y-121404904D01*
X89259999Y-121411568D01*
X89271542Y-121404904D01*
X90117590Y-120558855D01*
X90124250Y-120546749D01*
X95405748Y-120546749D01*
X95412408Y-120558855D01*
X96258457Y-121404904D01*
X96269999Y-121411568D01*
X96281542Y-121404904D01*
X97127590Y-120558855D01*
X97134250Y-120546749D01*
X97126143Y-120535559D01*
X97097286Y-120513099D01*
X97088719Y-120507503D01*
X96879114Y-120394070D01*
X96869760Y-120389967D01*
X96644343Y-120312582D01*
X96634431Y-120310071D01*
X96399356Y-120270844D01*
X96389161Y-120270000D01*
X96150839Y-120270000D01*
X96140643Y-120270844D01*
X95905568Y-120310071D01*
X95895656Y-120312582D01*
X95670239Y-120389967D01*
X95660885Y-120394070D01*
X95451276Y-120507504D01*
X95442717Y-120513096D01*
X95413854Y-120535560D01*
X95405748Y-120546749D01*
X90124250Y-120546749D01*
X90116143Y-120535559D01*
X90087286Y-120513099D01*
X90078719Y-120507503D01*
X89869114Y-120394070D01*
X89859760Y-120389967D01*
X89634343Y-120312582D01*
X89624431Y-120310071D01*
X89389356Y-120270844D01*
X89379161Y-120270000D01*
X89140839Y-120270000D01*
X89130643Y-120270844D01*
X88895568Y-120310071D01*
X88885656Y-120312582D01*
X88660239Y-120389967D01*
X88650885Y-120394070D01*
X88441276Y-120507504D01*
X88432717Y-120513096D01*
X88403854Y-120535560D01*
X88395748Y-120546749D01*
X85072653Y-120546749D01*
X83523695Y-118997790D01*
X83516103Y-118989448D01*
X83512000Y-118982982D01*
X83462316Y-118936326D01*
X83459550Y-118933645D01*
X83442527Y-118916622D01*
X83439770Y-118913865D01*
X83436486Y-118911317D01*
X83427624Y-118903746D01*
X83401009Y-118878754D01*
X83401003Y-118878749D01*
X83395321Y-118873414D01*
X83388488Y-118869658D01*
X83388482Y-118869653D01*
X83377429Y-118863576D01*
X83361174Y-118852899D01*
X83351209Y-118845170D01*
X83351206Y-118845168D01*
X83345041Y-118840386D01*
X83304376Y-118822789D01*
X83293884Y-118817649D01*
X83261896Y-118800063D01*
X83261894Y-118800062D01*
X83255060Y-118796305D01*
X83235284Y-118791227D01*
X83216881Y-118784926D01*
X83205309Y-118779918D01*
X83205301Y-118779915D01*
X83198145Y-118776819D01*
X83190440Y-118775598D01*
X83190438Y-118775598D01*
X83154381Y-118769887D01*
X83142955Y-118767521D01*
X83100030Y-118756500D01*
X83092228Y-118756500D01*
X83079615Y-118756500D01*
X83060217Y-118754973D01*
X83047766Y-118753001D01*
X83040057Y-118751780D01*
X83032291Y-118752514D01*
X83032288Y-118752514D01*
X82995942Y-118755950D01*
X82984273Y-118756500D01*
X61668766Y-118756500D01*
X61621313Y-118747061D01*
X61581085Y-118720181D01*
X55404819Y-112543914D01*
X55377939Y-112503686D01*
X55368500Y-112456233D01*
X55368500Y-111889672D01*
X55368500Y-111886362D01*
X55361989Y-111825799D01*
X55310889Y-111688796D01*
X55236414Y-111589309D01*
X55214516Y-111541358D01*
X55214516Y-111488642D01*
X55236415Y-111440689D01*
X55236416Y-111440688D01*
X55310889Y-111341204D01*
X55361989Y-111204201D01*
X55368500Y-111143638D01*
X55368500Y-110392496D01*
X60142252Y-110190080D01*
X60133597Y-110272436D01*
G37*
%TD.AperFunction*%
%TA.AperFunction,Conductor*%
G36*
X86963551Y-111342342D02*
G01*
X87009291Y-111393142D01*
X87021161Y-111460460D01*
X87006496Y-111600000D01*
X87007175Y-111606460D01*
X87025778Y-111783467D01*
X87025779Y-111783475D01*
X87026458Y-111789928D01*
X87028463Y-111796100D01*
X87028465Y-111796107D01*
X87083465Y-111965377D01*
X87085473Y-111971556D01*
X87180960Y-112136944D01*
X87185002Y-112141434D01*
X87207078Y-112194733D01*
X87202535Y-112252447D01*
X87172285Y-112301809D01*
X85013914Y-114460181D01*
X84973686Y-114487061D01*
X84926233Y-114496500D01*
X76179912Y-114496500D01*
X76114118Y-114477606D01*
X76068375Y-114426680D01*
X76056623Y-114359244D01*
X76059645Y-114331130D01*
X76060000Y-114324518D01*
X76060000Y-114046326D01*
X76056549Y-114033450D01*
X76043674Y-114030000D01*
X73576326Y-114030000D01*
X73563450Y-114033450D01*
X73560000Y-114046326D01*
X73560000Y-114324518D01*
X73560354Y-114331130D01*
X73563377Y-114359244D01*
X73551625Y-114426680D01*
X73505882Y-114477606D01*
X73440088Y-114496500D01*
X71288500Y-114496500D01*
X71222707Y-114477606D01*
X71176964Y-114426683D01*
X71165210Y-114359247D01*
X71168146Y-114331929D01*
X71168500Y-114328638D01*
X71168500Y-113231362D01*
X71161989Y-113170799D01*
X71110889Y-113033796D01*
X71023261Y-112916739D01*
X71016164Y-112911426D01*
X71016162Y-112911424D01*
X70983224Y-112886767D01*
X70944740Y-112839012D01*
X70933850Y-112778654D01*
X70953219Y-112720461D01*
X70998107Y-112678668D01*
X71057534Y-112663500D01*
X73676648Y-112663500D01*
X73736075Y-112678668D01*
X73780963Y-112720460D01*
X73800332Y-112778653D01*
X73789443Y-112839010D01*
X73750960Y-112886766D01*
X73709908Y-112917497D01*
X73697498Y-112929907D01*
X73621962Y-113030810D01*
X73613547Y-113046222D01*
X73569111Y-113165358D01*
X73565573Y-113180332D01*
X73560353Y-113228885D01*
X73560000Y-113235482D01*
X73560000Y-113513674D01*
X73563450Y-113526549D01*
X73576326Y-113530000D01*
X76043674Y-113530000D01*
X76056549Y-113526549D01*
X76060000Y-113513674D01*
X76060000Y-113235482D01*
X76059646Y-113228885D01*
X76054426Y-113180332D01*
X76050888Y-113165358D01*
X76006452Y-113046222D01*
X75998037Y-113030810D01*
X75922501Y-112929907D01*
X75910091Y-112917497D01*
X75869040Y-112886766D01*
X75830557Y-112839010D01*
X75819668Y-112778653D01*
X75839037Y-112720460D01*
X75883925Y-112678668D01*
X75943352Y-112663500D01*
X79191154Y-112663500D01*
X79202437Y-112664031D01*
X79209909Y-112665702D01*
X79278017Y-112663560D01*
X79281913Y-112663500D01*
X79305958Y-112663500D01*
X79309856Y-112663500D01*
X79313724Y-112663011D01*
X79313947Y-112662983D01*
X79325608Y-112662064D01*
X79369889Y-112660673D01*
X79389490Y-112654977D01*
X79408541Y-112651032D01*
X79428797Y-112648474D01*
X79460022Y-112636110D01*
X79469993Y-112632163D01*
X79481043Y-112628379D01*
X79523593Y-112616018D01*
X79541165Y-112605625D01*
X79558632Y-112597068D01*
X79577617Y-112589552D01*
X79613475Y-112563498D01*
X79623223Y-112557096D01*
X79661362Y-112534542D01*
X79675793Y-112520110D01*
X79690588Y-112507472D01*
X79707107Y-112495472D01*
X79735360Y-112461318D01*
X79743203Y-112452699D01*
X80621777Y-111574125D01*
X80663005Y-111546837D01*
X80711620Y-111537827D01*
X80759891Y-111548528D01*
X80875499Y-111600000D01*
X80917712Y-111618794D01*
X80924070Y-111620145D01*
X80924072Y-111620146D01*
X80960874Y-111627968D01*
X81104513Y-111658500D01*
X81288984Y-111658500D01*
X81295487Y-111658500D01*
X81482288Y-111618794D01*
X81656752Y-111541118D01*
X81811253Y-111428866D01*
X81820441Y-111418661D01*
X81853422Y-111392660D01*
X81888616Y-111380713D01*
X81889889Y-111380673D01*
X81909490Y-111374977D01*
X81928541Y-111371032D01*
X81948797Y-111368474D01*
X81980022Y-111356110D01*
X81989993Y-111352163D01*
X82001043Y-111348379D01*
X82043593Y-111336018D01*
X82048068Y-111333371D01*
X82095737Y-111323500D01*
X86897841Y-111323500D01*
X86963551Y-111342342D01*
G37*
%TD.AperFunction*%
%TD*%
%TA.AperFunction,NonConductor*%
G36*
X71431556Y-110329276D02*
G01*
X71496530Y-110348701D01*
X71541570Y-110399407D01*
X71553198Y-110466224D01*
X71547175Y-110523538D01*
X71546496Y-110530000D01*
X71547175Y-110536460D01*
X71565778Y-110713467D01*
X71565779Y-110713475D01*
X71566458Y-110719928D01*
X71568463Y-110726100D01*
X71568465Y-110726107D01*
X71617476Y-110876944D01*
X71625473Y-110901556D01*
X71628720Y-110907180D01*
X71628721Y-110907182D01*
X71690414Y-111014038D01*
X71720960Y-111066944D01*
X71824101Y-111181494D01*
X71831335Y-111189528D01*
X71858617Y-111239154D01*
X71860989Y-111295735D01*
X71837955Y-111347470D01*
X71794320Y-111383568D01*
X71739185Y-111396500D01*
X71263265Y-111396500D01*
X71205790Y-111382376D01*
X71161409Y-111343220D01*
X71140232Y-111287954D01*
X71147083Y-111229167D01*
X71157147Y-111202182D01*
X71161989Y-111189201D01*
X71168500Y-111128638D01*
X71168500Y-110451409D01*
X71185393Y-110388926D01*
X71231469Y-110343468D01*
X71294170Y-110327421D01*
X71431556Y-110329276D01*
G37*
%TD.AperFunction*%
%TA.AperFunction,NonConductor*%
G36*
X76453534Y-110397110D02*
G01*
X79665924Y-110440500D01*
X79721727Y-110454618D01*
X79765147Y-110492418D01*
X79786818Y-110545752D01*
X79782069Y-110603124D01*
X79751923Y-110652169D01*
X79043914Y-111360181D01*
X79003686Y-111387061D01*
X78956233Y-111396500D01*
X76163265Y-111396500D01*
X76105790Y-111382376D01*
X76061409Y-111343220D01*
X76040232Y-111287954D01*
X76047083Y-111229167D01*
X76057147Y-111202182D01*
X76061989Y-111189201D01*
X76068500Y-111128638D01*
X76068500Y-110517596D01*
X76085393Y-110455113D01*
X76131469Y-110409655D01*
X76194175Y-110393607D01*
X76453534Y-110397110D01*
G37*
%TD.AperFunction*%
%TA.AperFunction,NonConductor*%
G36*
X93579175Y-110628432D02*
G01*
X93640464Y-110645596D01*
X93685165Y-110690905D01*
X93701500Y-110752421D01*
X93701500Y-111201232D01*
X93692061Y-111248685D01*
X93665181Y-111288913D01*
X93193914Y-111760181D01*
X93153686Y-111787061D01*
X93106233Y-111796500D01*
X91220893Y-111796500D01*
X91161466Y-111781332D01*
X91116578Y-111739540D01*
X91097209Y-111681347D01*
X91108098Y-111620989D01*
X91146582Y-111573234D01*
X91166160Y-111558577D01*
X91166160Y-111558576D01*
X91173261Y-111553261D01*
X91260889Y-111436204D01*
X91311989Y-111299201D01*
X91318500Y-111238638D01*
X91318500Y-110723583D01*
X91335393Y-110661100D01*
X91381469Y-110615642D01*
X91444175Y-110599594D01*
X93579175Y-110628432D01*
G37*
%TD.AperFunction*%
%TA.AperFunction,Conductor*%
%TO.N,GND*%
G36*
X96676778Y-59416997D02*
G01*
X96722307Y-59463031D01*
X96738427Y-59525738D01*
X96331557Y-92055445D01*
X96314074Y-92117394D01*
X96267891Y-92162231D01*
X96205453Y-92177876D01*
X68229518Y-91700844D01*
X68183682Y-91691216D01*
X68144687Y-91665273D01*
X56120175Y-79840172D01*
X56120000Y-79840000D01*
X56043549Y-79764518D01*
X58910000Y-79764518D01*
X58910353Y-79771114D01*
X58915573Y-79819667D01*
X58919111Y-79834641D01*
X58963547Y-79953777D01*
X58971962Y-79969189D01*
X59047498Y-80070092D01*
X59059907Y-80082501D01*
X59160810Y-80158037D01*
X59176222Y-80166452D01*
X59295358Y-80210888D01*
X59310332Y-80214426D01*
X59358885Y-80219646D01*
X59365482Y-80220000D01*
X59593674Y-80220000D01*
X59606549Y-80216549D01*
X59610000Y-80203674D01*
X60110000Y-80203674D01*
X60113450Y-80216549D01*
X60126326Y-80220000D01*
X60354518Y-80220000D01*
X60361114Y-80219646D01*
X60409667Y-80214426D01*
X60424641Y-80210888D01*
X60543777Y-80166452D01*
X60559189Y-80158037D01*
X60660092Y-80082501D01*
X60672501Y-80070092D01*
X60748037Y-79969189D01*
X60756452Y-79953777D01*
X60800888Y-79834641D01*
X60804426Y-79819667D01*
X60809646Y-79771114D01*
X60810000Y-79764518D01*
X60810000Y-79586326D01*
X60806549Y-79573450D01*
X60793674Y-79570000D01*
X60126326Y-79570000D01*
X60113450Y-79573450D01*
X60110000Y-79586326D01*
X60110000Y-80203674D01*
X59610000Y-80203674D01*
X59610000Y-79586326D01*
X59606549Y-79573450D01*
X59593674Y-79570000D01*
X58926326Y-79570000D01*
X58913450Y-79573450D01*
X58910000Y-79586326D01*
X58910000Y-79764518D01*
X56043549Y-79764518D01*
X55405380Y-79134440D01*
X55378091Y-79094019D01*
X55368500Y-79046201D01*
X55368500Y-78869672D01*
X55368500Y-78866362D01*
X55361989Y-78805799D01*
X55310889Y-78668796D01*
X55236414Y-78569310D01*
X55214516Y-78521358D01*
X55214516Y-78468642D01*
X55236415Y-78420689D01*
X55310889Y-78321204D01*
X55361989Y-78184201D01*
X55364134Y-78164247D01*
X55384732Y-78107999D01*
X55429296Y-78067969D01*
X55487424Y-78053500D01*
X58887531Y-78053500D01*
X58943036Y-78066616D01*
X58986798Y-78103190D01*
X59041424Y-78176162D01*
X59041426Y-78176164D01*
X59046739Y-78183261D01*
X59053835Y-78188573D01*
X59156694Y-78265573D01*
X59156696Y-78265574D01*
X59163795Y-78270888D01*
X59163796Y-78270889D01*
X59163289Y-78271565D01*
X59204796Y-78311612D01*
X59222157Y-78374882D01*
X59204805Y-78438155D01*
X59166657Y-78474971D01*
X59167911Y-78476647D01*
X59059907Y-78557498D01*
X59047498Y-78569907D01*
X58971962Y-78670810D01*
X58963547Y-78686222D01*
X58919111Y-78805358D01*
X58915573Y-78820332D01*
X58910353Y-78868885D01*
X58910000Y-78875482D01*
X58910000Y-79053674D01*
X58913450Y-79066549D01*
X58926326Y-79070000D01*
X60793674Y-79070000D01*
X60807811Y-79066211D01*
X60814556Y-79059467D01*
X60858904Y-79030966D01*
X60911084Y-79023463D01*
X60961666Y-79038315D01*
X61001504Y-79072834D01*
X61046739Y-79133261D01*
X61163796Y-79220889D01*
X61300799Y-79271989D01*
X61361362Y-79278500D01*
X62355328Y-79278500D01*
X62358638Y-79278500D01*
X62419201Y-79271989D01*
X62556204Y-79220889D01*
X62673261Y-79133261D01*
X62760889Y-79016204D01*
X62811989Y-78879201D01*
X62818500Y-78818638D01*
X62818500Y-77921362D01*
X62811989Y-77860799D01*
X62760889Y-77723796D01*
X62673261Y-77606739D01*
X62556204Y-77519111D01*
X62547896Y-77516012D01*
X62547894Y-77516011D01*
X62426463Y-77470719D01*
X62426458Y-77470717D01*
X62419201Y-77468011D01*
X62411497Y-77467182D01*
X62411494Y-77467182D01*
X62361924Y-77461853D01*
X62361918Y-77461852D01*
X62358638Y-77461500D01*
X61361362Y-77461500D01*
X61358082Y-77461852D01*
X61358075Y-77461853D01*
X61308505Y-77467182D01*
X61308500Y-77467182D01*
X61300799Y-77468011D01*
X61293543Y-77470717D01*
X61293536Y-77470719D01*
X61172105Y-77516011D01*
X61172099Y-77516013D01*
X61163796Y-77519111D01*
X61156698Y-77524423D01*
X61156695Y-77524426D01*
X61053835Y-77601426D01*
X61053831Y-77601429D01*
X61046739Y-77606739D01*
X61041427Y-77613833D01*
X61035153Y-77620109D01*
X61034378Y-77619334D01*
X60994013Y-77651864D01*
X60933655Y-77662754D01*
X60875461Y-77643386D01*
X60833668Y-77598497D01*
X60818500Y-77539070D01*
X60818500Y-76974672D01*
X60818500Y-76971362D01*
X60811989Y-76910799D01*
X60760889Y-76773796D01*
X60673261Y-76656739D01*
X60556204Y-76569111D01*
X60547896Y-76566012D01*
X60547894Y-76566011D01*
X60426463Y-76520719D01*
X60426458Y-76520717D01*
X60419201Y-76518011D01*
X60411497Y-76517182D01*
X60411494Y-76517182D01*
X60361924Y-76511853D01*
X60361918Y-76511852D01*
X60358638Y-76511500D01*
X59361362Y-76511500D01*
X59358082Y-76511852D01*
X59358075Y-76511853D01*
X59308505Y-76517182D01*
X59308500Y-76517182D01*
X59300799Y-76518011D01*
X59293543Y-76520717D01*
X59293536Y-76520719D01*
X59172105Y-76566011D01*
X59172099Y-76566013D01*
X59163796Y-76569111D01*
X59156698Y-76574423D01*
X59156695Y-76574426D01*
X59053835Y-76651426D01*
X59053831Y-76651429D01*
X59046739Y-76656739D01*
X59041429Y-76663831D01*
X59041424Y-76663837D01*
X58986798Y-76736810D01*
X58943036Y-76773384D01*
X58887531Y-76786500D01*
X55492500Y-76786500D01*
X55430500Y-76769887D01*
X55385113Y-76724500D01*
X55368500Y-76662500D01*
X55368500Y-76329672D01*
X55368500Y-76326362D01*
X55361989Y-76265799D01*
X55310889Y-76128796D01*
X55236414Y-76029310D01*
X55214516Y-75981358D01*
X55214516Y-75928642D01*
X55236415Y-75880689D01*
X55310889Y-75781204D01*
X55361989Y-75644201D01*
X55368500Y-75583638D01*
X55368500Y-75442500D01*
X55385113Y-75380500D01*
X55430500Y-75335113D01*
X55492500Y-75318500D01*
X70556154Y-75318500D01*
X70567437Y-75319031D01*
X70574909Y-75320702D01*
X70643017Y-75318560D01*
X70646913Y-75318500D01*
X70670958Y-75318500D01*
X70674856Y-75318500D01*
X70678724Y-75318011D01*
X70678947Y-75317983D01*
X70690608Y-75317064D01*
X70734889Y-75315673D01*
X70754490Y-75309977D01*
X70773541Y-75306032D01*
X70793797Y-75303474D01*
X70825022Y-75291110D01*
X70834993Y-75287163D01*
X70846043Y-75283379D01*
X70888593Y-75271018D01*
X70906165Y-75260625D01*
X70923632Y-75252068D01*
X70942617Y-75244552D01*
X70978475Y-75218498D01*
X70988223Y-75212096D01*
X71026362Y-75189542D01*
X71040793Y-75175110D01*
X71055588Y-75162472D01*
X71072107Y-75150472D01*
X71100360Y-75116318D01*
X71108203Y-75107699D01*
X80349915Y-65865987D01*
X80410751Y-65832610D01*
X80470162Y-65836501D01*
X80470757Y-65834284D01*
X80686680Y-65892141D01*
X80686682Y-65892141D01*
X80691913Y-65893543D01*
X80920000Y-65913498D01*
X81148087Y-65893543D01*
X81369243Y-65834284D01*
X81576749Y-65737523D01*
X81764300Y-65606198D01*
X81926198Y-65444300D01*
X82057523Y-65256749D01*
X82077619Y-65213650D01*
X82123374Y-65161478D01*
X82190000Y-65142058D01*
X82256626Y-65161478D01*
X82302380Y-65213650D01*
X82322477Y-65256749D01*
X82325584Y-65261186D01*
X82450696Y-65439865D01*
X82450699Y-65439869D01*
X82453802Y-65444300D01*
X82615700Y-65606198D01*
X82620132Y-65609301D01*
X82620134Y-65609303D01*
X82647276Y-65628308D01*
X82803251Y-65737523D01*
X83010757Y-65834284D01*
X83015977Y-65835682D01*
X83015978Y-65835683D01*
X83226680Y-65892141D01*
X83226682Y-65892141D01*
X83231913Y-65893543D01*
X83460000Y-65913498D01*
X83688087Y-65893543D01*
X83909243Y-65834284D01*
X84116749Y-65737523D01*
X84304300Y-65606198D01*
X84466198Y-65444300D01*
X84597523Y-65256749D01*
X84617619Y-65213650D01*
X84663374Y-65161478D01*
X84730000Y-65142058D01*
X84796626Y-65161478D01*
X84842380Y-65213650D01*
X84862477Y-65256749D01*
X84865584Y-65261186D01*
X84990696Y-65439865D01*
X84990699Y-65439869D01*
X84993802Y-65444300D01*
X85155700Y-65606198D01*
X85160132Y-65609301D01*
X85160134Y-65609303D01*
X85187276Y-65628308D01*
X85343251Y-65737523D01*
X85550757Y-65834284D01*
X85555977Y-65835682D01*
X85555978Y-65835683D01*
X85766680Y-65892141D01*
X85766682Y-65892141D01*
X85771913Y-65893543D01*
X86000000Y-65913498D01*
X86228087Y-65893543D01*
X86449243Y-65834284D01*
X86656749Y-65737523D01*
X86844300Y-65606198D01*
X87006198Y-65444300D01*
X87137523Y-65256749D01*
X87234284Y-65049243D01*
X87293543Y-64828087D01*
X87308500Y-64657127D01*
X87308500Y-64142873D01*
X87293543Y-63971913D01*
X87234284Y-63750757D01*
X87137523Y-63543251D01*
X87006198Y-63355700D01*
X86844300Y-63193802D01*
X86839869Y-63190699D01*
X86839865Y-63190696D01*
X86661186Y-63065584D01*
X86661187Y-63065584D01*
X86656749Y-63062477D01*
X86651834Y-63060185D01*
X86454146Y-62968002D01*
X86454143Y-62968000D01*
X86449243Y-62965716D01*
X86444028Y-62964318D01*
X86444021Y-62964316D01*
X86233319Y-62907858D01*
X86233308Y-62907856D01*
X86228087Y-62906457D01*
X86222695Y-62905985D01*
X86222688Y-62905984D01*
X86005395Y-62886974D01*
X86000000Y-62886502D01*
X85994605Y-62886974D01*
X85777311Y-62905984D01*
X85777302Y-62905985D01*
X85771913Y-62906457D01*
X85766692Y-62907855D01*
X85766680Y-62907858D01*
X85555978Y-62964316D01*
X85555967Y-62964319D01*
X85550757Y-62965716D01*
X85545860Y-62967999D01*
X85545853Y-62968002D01*
X85348165Y-63060185D01*
X85348159Y-63060188D01*
X85343251Y-63062477D01*
X85338817Y-63065581D01*
X85338813Y-63065584D01*
X85160134Y-63190696D01*
X85160124Y-63190703D01*
X85155700Y-63193802D01*
X85151874Y-63197627D01*
X85151868Y-63197633D01*
X84997633Y-63351868D01*
X84997627Y-63351874D01*
X84993802Y-63355700D01*
X84990703Y-63360124D01*
X84990696Y-63360134D01*
X84865584Y-63538813D01*
X84865581Y-63538817D01*
X84862477Y-63543251D01*
X84860189Y-63548156D01*
X84860187Y-63548161D01*
X84851963Y-63565799D01*
X84848370Y-63573505D01*
X84842382Y-63586346D01*
X84796625Y-63638521D01*
X84730000Y-63657941D01*
X84663375Y-63638521D01*
X84617618Y-63586346D01*
X84597523Y-63543251D01*
X84466198Y-63355700D01*
X84304300Y-63193802D01*
X84299869Y-63190699D01*
X84299865Y-63190696D01*
X84121186Y-63065584D01*
X84121187Y-63065584D01*
X84116749Y-63062477D01*
X84111834Y-63060185D01*
X83914146Y-62968002D01*
X83914143Y-62968000D01*
X83909243Y-62965716D01*
X83904028Y-62964318D01*
X83904021Y-62964316D01*
X83693319Y-62907858D01*
X83693308Y-62907856D01*
X83688087Y-62906457D01*
X83682695Y-62905985D01*
X83682688Y-62905984D01*
X83465395Y-62886974D01*
X83460000Y-62886502D01*
X83454605Y-62886974D01*
X83237311Y-62905984D01*
X83237302Y-62905985D01*
X83231913Y-62906457D01*
X83226692Y-62907855D01*
X83226680Y-62907858D01*
X83015978Y-62964316D01*
X83015967Y-62964319D01*
X83010757Y-62965716D01*
X83005860Y-62967999D01*
X83005853Y-62968002D01*
X82808165Y-63060185D01*
X82808159Y-63060188D01*
X82803251Y-63062477D01*
X82798817Y-63065581D01*
X82798813Y-63065584D01*
X82620134Y-63190696D01*
X82620124Y-63190703D01*
X82615700Y-63193802D01*
X82611874Y-63197627D01*
X82611868Y-63197633D01*
X82457633Y-63351868D01*
X82457627Y-63351874D01*
X82453802Y-63355700D01*
X82450703Y-63360124D01*
X82450696Y-63360134D01*
X82325584Y-63538813D01*
X82325581Y-63538817D01*
X82322477Y-63543251D01*
X82320189Y-63548156D01*
X82320187Y-63548161D01*
X82311963Y-63565799D01*
X82308370Y-63573505D01*
X82302382Y-63586346D01*
X82256625Y-63638521D01*
X82190000Y-63657941D01*
X82123375Y-63638521D01*
X82077618Y-63586346D01*
X82057523Y-63543251D01*
X81926198Y-63355700D01*
X81764300Y-63193802D01*
X81759869Y-63190699D01*
X81759865Y-63190696D01*
X81581186Y-63065584D01*
X81581187Y-63065584D01*
X81576749Y-63062477D01*
X81571834Y-63060185D01*
X81374146Y-62968002D01*
X81374143Y-62968000D01*
X81369243Y-62965716D01*
X81364028Y-62964318D01*
X81364021Y-62964316D01*
X81153319Y-62907858D01*
X81153308Y-62907856D01*
X81148087Y-62906457D01*
X81142695Y-62905985D01*
X81142688Y-62905984D01*
X80925395Y-62886974D01*
X80920000Y-62886502D01*
X80914605Y-62886974D01*
X80697311Y-62905984D01*
X80697302Y-62905985D01*
X80691913Y-62906457D01*
X80686692Y-62907855D01*
X80686680Y-62907858D01*
X80475978Y-62964316D01*
X80475967Y-62964319D01*
X80470757Y-62965716D01*
X80465860Y-62967999D01*
X80465853Y-62968002D01*
X80268165Y-63060185D01*
X80268159Y-63060188D01*
X80263251Y-63062477D01*
X80258817Y-63065581D01*
X80258813Y-63065584D01*
X80080134Y-63190696D01*
X80080124Y-63190703D01*
X80075700Y-63193802D01*
X80071874Y-63197627D01*
X80071868Y-63197633D01*
X79917633Y-63351868D01*
X79917627Y-63351874D01*
X79913802Y-63355700D01*
X79910703Y-63360124D01*
X79910696Y-63360134D01*
X79785584Y-63538813D01*
X79785581Y-63538817D01*
X79782477Y-63543251D01*
X79780189Y-63548156D01*
X79780187Y-63548161D01*
X79757693Y-63596401D01*
X79711936Y-63648577D01*
X79645311Y-63667996D01*
X79578686Y-63648576D01*
X79532929Y-63596401D01*
X79512420Y-63552419D01*
X79507032Y-63543087D01*
X79382767Y-63365618D01*
X79375830Y-63357352D01*
X79222647Y-63204169D01*
X79214381Y-63197232D01*
X79036912Y-63072967D01*
X79027580Y-63067579D01*
X78831234Y-62976022D01*
X78821092Y-62972330D01*
X78643780Y-62924820D01*
X78632551Y-62924452D01*
X78630000Y-62935395D01*
X78630000Y-64526000D01*
X78613387Y-64588000D01*
X78568000Y-64633387D01*
X78506000Y-64650000D01*
X77096326Y-64650000D01*
X77083450Y-64653450D01*
X77080630Y-64663972D01*
X77094386Y-64821206D01*
X77096260Y-64831837D01*
X77152332Y-65041097D01*
X77156020Y-65051231D01*
X77247579Y-65247580D01*
X77252967Y-65256912D01*
X77377232Y-65434381D01*
X77384169Y-65442647D01*
X77537352Y-65595830D01*
X77545618Y-65602767D01*
X77723087Y-65727032D01*
X77732419Y-65732420D01*
X77928768Y-65823979D01*
X77938902Y-65827667D01*
X78148162Y-65883739D01*
X78158794Y-65885613D01*
X78243027Y-65892982D01*
X78307707Y-65918134D01*
X78348743Y-65974099D01*
X78353282Y-66043348D01*
X78319902Y-66104191D01*
X70408914Y-74015181D01*
X70368686Y-74042061D01*
X70321233Y-74051500D01*
X55492500Y-74051500D01*
X55430500Y-74034887D01*
X55385113Y-73989500D01*
X55368500Y-73927500D01*
X55368500Y-73789672D01*
X55368500Y-73786362D01*
X55361989Y-73725799D01*
X55310889Y-73588796D01*
X55236414Y-73489310D01*
X55214516Y-73441358D01*
X55214516Y-73388642D01*
X55236415Y-73340689D01*
X55310889Y-73241204D01*
X55361989Y-73104201D01*
X55368500Y-73043638D01*
X55368500Y-71246362D01*
X55361989Y-71185799D01*
X55310889Y-71048796D01*
X55231105Y-70942218D01*
X55209207Y-70894266D01*
X55209207Y-70841549D01*
X55231107Y-70793596D01*
X55298037Y-70704190D01*
X55306452Y-70688777D01*
X55350888Y-70569641D01*
X55354426Y-70554667D01*
X55359646Y-70506114D01*
X55360000Y-70499518D01*
X55360000Y-69871326D01*
X55356549Y-69858450D01*
X55343674Y-69855000D01*
X53692500Y-69855000D01*
X53630500Y-69838387D01*
X53585113Y-69793000D01*
X53568500Y-69731000D01*
X53568500Y-69479000D01*
X53585113Y-69417000D01*
X53630500Y-69371613D01*
X53692500Y-69355000D01*
X55343674Y-69355000D01*
X55356549Y-69351549D01*
X55360000Y-69338674D01*
X55360000Y-68710482D01*
X55359646Y-68703885D01*
X55354426Y-68655332D01*
X55350888Y-68640358D01*
X55306452Y-68521222D01*
X55298035Y-68505805D01*
X55231107Y-68416402D01*
X55209207Y-68368449D01*
X55209207Y-68315733D01*
X55231104Y-68267783D01*
X55310889Y-68161204D01*
X55361989Y-68024201D01*
X55368500Y-67963638D01*
X55368500Y-67822500D01*
X55385113Y-67760500D01*
X55430500Y-67715113D01*
X55492500Y-67698500D01*
X56155460Y-67698500D01*
X56205676Y-67709123D01*
X56247288Y-67739172D01*
X56273166Y-67783497D01*
X56277885Y-67797738D01*
X56370970Y-67948652D01*
X56496348Y-68074030D01*
X56595419Y-68135137D01*
X56641112Y-68163322D01*
X56641114Y-68163323D01*
X56647262Y-68167115D01*
X56815574Y-68222887D01*
X56919455Y-68233500D01*
X57520544Y-68233499D01*
X57624426Y-68222887D01*
X57792738Y-68167115D01*
X57943652Y-68074030D01*
X58069030Y-67948652D01*
X58072824Y-67942500D01*
X58077303Y-67936837D01*
X58079095Y-67938254D01*
X58111735Y-67906048D01*
X58168092Y-67888701D01*
X58226089Y-67899347D01*
X58272611Y-67935578D01*
X58282790Y-67948451D01*
X58396544Y-68062205D01*
X58407805Y-68071109D01*
X58544733Y-68155567D01*
X58557732Y-68161629D01*
X58710874Y-68212375D01*
X58724041Y-68215194D01*
X58816890Y-68224680D01*
X58823168Y-68225000D01*
X58853674Y-68225000D01*
X58866549Y-68221549D01*
X58870000Y-68208674D01*
X58870000Y-68208673D01*
X59370000Y-68208673D01*
X59373450Y-68221548D01*
X59386326Y-68224999D01*
X59416829Y-68224999D01*
X59423111Y-68224678D01*
X59515959Y-68215194D01*
X59529122Y-68212376D01*
X59682267Y-68161629D01*
X59695266Y-68155567D01*
X59832194Y-68071109D01*
X59843455Y-68062205D01*
X59957205Y-67948455D01*
X59966109Y-67937194D01*
X60050567Y-67800266D01*
X60056629Y-67787267D01*
X60107375Y-67634125D01*
X60110194Y-67620958D01*
X60119680Y-67528109D01*
X60120000Y-67521832D01*
X60120000Y-67266326D01*
X60116549Y-67253450D01*
X60103674Y-67250000D01*
X59386326Y-67250000D01*
X59373450Y-67253450D01*
X59370000Y-67266326D01*
X59370000Y-68208673D01*
X58870000Y-68208673D01*
X58870000Y-66733674D01*
X59370000Y-66733674D01*
X59373450Y-66746549D01*
X59386326Y-66750000D01*
X60103673Y-66750000D01*
X60116548Y-66746549D01*
X60119999Y-66733674D01*
X60119999Y-66478171D01*
X60119678Y-66471888D01*
X60110194Y-66379040D01*
X60107376Y-66365877D01*
X60056629Y-66212732D01*
X60050567Y-66199733D01*
X59966109Y-66062805D01*
X59957205Y-66051544D01*
X59843455Y-65937794D01*
X59832194Y-65928890D01*
X59695266Y-65844432D01*
X59682267Y-65838370D01*
X59529125Y-65787624D01*
X59515958Y-65784805D01*
X59423109Y-65775319D01*
X59416832Y-65775000D01*
X59386326Y-65775000D01*
X59373450Y-65778450D01*
X59370000Y-65791326D01*
X59370000Y-66733674D01*
X58870000Y-66733674D01*
X58870000Y-65791327D01*
X58866549Y-65778451D01*
X58853674Y-65775001D01*
X58823171Y-65775001D01*
X58816888Y-65775321D01*
X58724040Y-65784805D01*
X58710877Y-65787623D01*
X58557732Y-65838370D01*
X58544733Y-65844432D01*
X58407805Y-65928890D01*
X58396544Y-65937794D01*
X58282791Y-66051547D01*
X58272609Y-66064424D01*
X58226096Y-66100648D01*
X58168112Y-66111299D01*
X58111763Y-66093968D01*
X58079090Y-66061749D01*
X58077303Y-66063163D01*
X58072823Y-66057497D01*
X58069030Y-66051348D01*
X57943652Y-65925970D01*
X57851794Y-65869311D01*
X57798887Y-65836677D01*
X57798881Y-65836674D01*
X57792738Y-65832885D01*
X57785880Y-65830612D01*
X57785877Y-65830611D01*
X57630850Y-65779241D01*
X57630844Y-65779239D01*
X57624426Y-65777113D01*
X57617696Y-65776425D01*
X57617694Y-65776425D01*
X57523674Y-65766819D01*
X57523660Y-65766818D01*
X57520545Y-65766500D01*
X57517397Y-65766500D01*
X56922604Y-65766500D01*
X56922584Y-65766500D01*
X56919456Y-65766501D01*
X56916343Y-65766818D01*
X56916323Y-65766820D01*
X56822313Y-65776424D01*
X56822307Y-65776425D01*
X56815574Y-65777113D01*
X56809144Y-65779243D01*
X56809142Y-65779244D01*
X56654122Y-65830611D01*
X56654115Y-65830613D01*
X56647262Y-65832885D01*
X56641121Y-65836672D01*
X56641112Y-65836677D01*
X56517333Y-65913026D01*
X56496348Y-65925970D01*
X56491240Y-65931077D01*
X56491236Y-65931081D01*
X56376081Y-66046236D01*
X56376077Y-66046240D01*
X56370970Y-66051348D01*
X56367178Y-66057495D01*
X56367177Y-66057497D01*
X56281677Y-66196112D01*
X56281672Y-66196121D01*
X56277885Y-66202262D01*
X56275613Y-66209115D01*
X56275611Y-66209122D01*
X56230089Y-66346503D01*
X56204211Y-66390829D01*
X56162599Y-66420877D01*
X56112383Y-66431500D01*
X55492500Y-66431500D01*
X55430500Y-66414887D01*
X55385113Y-66369500D01*
X55368500Y-66307500D01*
X55368500Y-66169672D01*
X55368500Y-66166362D01*
X55361989Y-66105799D01*
X55310889Y-65968796D01*
X55236414Y-65869310D01*
X55214516Y-65821358D01*
X55214516Y-65768642D01*
X55236415Y-65720689D01*
X55310889Y-65621204D01*
X55361989Y-65484201D01*
X55368500Y-65423638D01*
X55368500Y-64136027D01*
X77080630Y-64136027D01*
X77083450Y-64146549D01*
X77096326Y-64150000D01*
X78113674Y-64150000D01*
X78126549Y-64146549D01*
X78130000Y-64133674D01*
X78130000Y-62935395D01*
X78127448Y-62924452D01*
X78116219Y-62924820D01*
X77938907Y-62972330D01*
X77928765Y-62976022D01*
X77732419Y-63067579D01*
X77723087Y-63072967D01*
X77545618Y-63197232D01*
X77537352Y-63204169D01*
X77384169Y-63357352D01*
X77377232Y-63365618D01*
X77252967Y-63543087D01*
X77247579Y-63552419D01*
X77156020Y-63748768D01*
X77152332Y-63758902D01*
X77096260Y-63968162D01*
X77094386Y-63978793D01*
X77080630Y-64136027D01*
X55368500Y-64136027D01*
X55368500Y-63626362D01*
X55361989Y-63565799D01*
X55310889Y-63428796D01*
X55223261Y-63311739D01*
X55106204Y-63224111D01*
X55097896Y-63221012D01*
X55097894Y-63221011D01*
X54976463Y-63175719D01*
X54976458Y-63175717D01*
X54969201Y-63173011D01*
X54961497Y-63172182D01*
X54961494Y-63172182D01*
X54911924Y-63166853D01*
X54911918Y-63166852D01*
X54908638Y-63166500D01*
X51311362Y-63166500D01*
X51308082Y-63166852D01*
X51308075Y-63166853D01*
X51258505Y-63172182D01*
X51258500Y-63172182D01*
X51250799Y-63173011D01*
X51243543Y-63175717D01*
X51243536Y-63175719D01*
X51122105Y-63221011D01*
X51122099Y-63221013D01*
X51113796Y-63224111D01*
X51106698Y-63229423D01*
X51106695Y-63229426D01*
X51003835Y-63306426D01*
X51003831Y-63306429D01*
X50996739Y-63311739D01*
X50991429Y-63318831D01*
X50991426Y-63318835D01*
X50914426Y-63421695D01*
X50914423Y-63421698D01*
X50909111Y-63428796D01*
X50906013Y-63437099D01*
X50906011Y-63437105D01*
X50860719Y-63558536D01*
X50860717Y-63558543D01*
X50858011Y-63565799D01*
X50857182Y-63573500D01*
X50857182Y-63573505D01*
X50855802Y-63586346D01*
X50851500Y-63626362D01*
X50851500Y-63629672D01*
X50851500Y-64463688D01*
X50851076Y-64473927D01*
X50846844Y-64525000D01*
X50847268Y-64530117D01*
X50851076Y-64576072D01*
X50851500Y-64586312D01*
X50851500Y-65423638D01*
X50851852Y-65426918D01*
X50851853Y-65426924D01*
X50853543Y-65442647D01*
X50858011Y-65484201D01*
X50860717Y-65491458D01*
X50860719Y-65491463D01*
X50904672Y-65609303D01*
X50909111Y-65621204D01*
X50914425Y-65628303D01*
X50914428Y-65628308D01*
X50983584Y-65720690D01*
X51005483Y-65768642D01*
X51005483Y-65821358D01*
X50983584Y-65869310D01*
X50914428Y-65961691D01*
X50914423Y-65961699D01*
X50909111Y-65968796D01*
X50906013Y-65977099D01*
X50906011Y-65977105D01*
X50860719Y-66098536D01*
X50860717Y-66098543D01*
X50858011Y-66105799D01*
X50857182Y-66113500D01*
X50857182Y-66113505D01*
X50851853Y-66163075D01*
X50851500Y-66166362D01*
X50851500Y-66169672D01*
X50851500Y-67003688D01*
X50851076Y-67013927D01*
X50846844Y-67065000D01*
X50847268Y-67070117D01*
X50851076Y-67116072D01*
X50851500Y-67126312D01*
X50851500Y-67963638D01*
X50858011Y-68024201D01*
X50860717Y-68031458D01*
X50860719Y-68031463D01*
X50906011Y-68152894D01*
X50909111Y-68161204D01*
X50914425Y-68168303D01*
X50914428Y-68168308D01*
X50983584Y-68260690D01*
X51005483Y-68308642D01*
X51005483Y-68361358D01*
X50983584Y-68409310D01*
X50914428Y-68501691D01*
X50914423Y-68501699D01*
X50909111Y-68508796D01*
X50906013Y-68517099D01*
X50906011Y-68517105D01*
X50860719Y-68638536D01*
X50860717Y-68638543D01*
X50858011Y-68645799D01*
X50857182Y-68653500D01*
X50857182Y-68653505D01*
X50856986Y-68655332D01*
X50851500Y-68706362D01*
X50851500Y-70503638D01*
X50858011Y-70564201D01*
X50860717Y-70571458D01*
X50860719Y-70571463D01*
X50906011Y-70692894D01*
X50909111Y-70701204D01*
X50914425Y-70708303D01*
X50914428Y-70708308D01*
X50983584Y-70800690D01*
X51005483Y-70848642D01*
X51005483Y-70901358D01*
X50983584Y-70949310D01*
X50914428Y-71041691D01*
X50914423Y-71041699D01*
X50909111Y-71048796D01*
X50906013Y-71057099D01*
X50906011Y-71057105D01*
X50860719Y-71178536D01*
X50860717Y-71178543D01*
X50858011Y-71185799D01*
X50857182Y-71193500D01*
X50857182Y-71193505D01*
X50851853Y-71243075D01*
X50851500Y-71246362D01*
X50851500Y-71249672D01*
X50851500Y-72083688D01*
X50851076Y-72093927D01*
X50846844Y-72145000D01*
X50847268Y-72150117D01*
X50851076Y-72196072D01*
X50851500Y-72206312D01*
X50851500Y-73043638D01*
X50858011Y-73104201D01*
X50860717Y-73111458D01*
X50860719Y-73111463D01*
X50906011Y-73232894D01*
X50909111Y-73241204D01*
X50914425Y-73248303D01*
X50914428Y-73248308D01*
X50983584Y-73340690D01*
X51005483Y-73388642D01*
X51005483Y-73441358D01*
X50983584Y-73489310D01*
X50914428Y-73581691D01*
X50914423Y-73581699D01*
X50909111Y-73588796D01*
X50906013Y-73597099D01*
X50906011Y-73597105D01*
X50860719Y-73718536D01*
X50860717Y-73718543D01*
X50858011Y-73725799D01*
X50857182Y-73733500D01*
X50857182Y-73733505D01*
X50851853Y-73783075D01*
X50851500Y-73786362D01*
X50851500Y-73789672D01*
X50851500Y-74341613D01*
X50838057Y-74397767D01*
X50800641Y-74441745D01*
X50747367Y-74464011D01*
X50689784Y-74459738D01*
X50640380Y-74429852D01*
X50073929Y-73870582D01*
X50073927Y-73870581D01*
X50063392Y-73860179D01*
X49670000Y-59470000D01*
X96614253Y-59400187D01*
X96676778Y-59416997D01*
G37*
%TD.AperFunction*%
%TD*%
%TA.AperFunction,NonConductor*%
G36*
X60844539Y-78146614D02*
G01*
X60886332Y-78191503D01*
X60901500Y-78250930D01*
X60901500Y-78503253D01*
X60886332Y-78562680D01*
X60844540Y-78607568D01*
X60786346Y-78626937D01*
X60725989Y-78616047D01*
X60678233Y-78577564D01*
X60672501Y-78569907D01*
X60660092Y-78557498D01*
X60552089Y-78476647D01*
X60553343Y-78474971D01*
X60515198Y-78438161D01*
X60497842Y-78374885D01*
X60515204Y-78311611D01*
X60556710Y-78271565D01*
X60556204Y-78270889D01*
X60556204Y-78270888D01*
X60673261Y-78183261D01*
X60678574Y-78176163D01*
X60684847Y-78169891D01*
X60685621Y-78170665D01*
X60725987Y-78138136D01*
X60786345Y-78127246D01*
X60844539Y-78146614D01*
G37*
%TD.AperFunction*%
M02*
