%TF.GenerationSoftware,KiCad,Pcbnew,(7.0.0-0)*%
%TF.CreationDate,2023-02-22T19:20:36-06:00*%
%TF.ProjectId,first_keeb,66697273-745f-46b6-9565-622e6b696361,rev?*%
%TF.SameCoordinates,Original*%
%TF.FileFunction,Soldermask,Top*%
%TF.FilePolarity,Negative*%
%FSLAX46Y46*%
G04 Gerber Fmt 4.6, Leading zero omitted, Abs format (unit mm)*
G04 Created by KiCad (PCBNEW (7.0.0-0)) date 2023-02-22 19:20:36*
%MOMM*%
%LPD*%
G01*
G04 APERTURE LIST*
G04 Aperture macros list*
%AMRoundRect*
0 Rectangle with rounded corners*
0 $1 Rounding radius*
0 $2 $3 $4 $5 $6 $7 $8 $9 X,Y pos of 4 corners*
0 Add a 4 corners polygon primitive as box body*
4,1,4,$2,$3,$4,$5,$6,$7,$8,$9,$2,$3,0*
0 Add four circle primitives for the rounded corners*
1,1,$1+$1,$2,$3*
1,1,$1+$1,$4,$5*
1,1,$1+$1,$6,$7*
1,1,$1+$1,$8,$9*
0 Add four rect primitives between the rounded corners*
20,1,$1+$1,$2,$3,$4,$5,0*
20,1,$1+$1,$4,$5,$6,$7,0*
20,1,$1+$1,$6,$7,$8,$9,0*
20,1,$1+$1,$8,$9,$2,$3,0*%
G04 Aperture macros list end*
%ADD10RoundRect,0.250000X-0.250000X-0.475000X0.250000X-0.475000X0.250000X0.475000X-0.250000X0.475000X0*%
%ADD11R,0.900000X0.800000*%
%ADD12C,1.700000*%
%ADD13R,1.500000X1.000000*%
%ADD14R,0.700000X0.500000*%
%ADD15O,1.600000X2.000000*%
%ADD16R,1.700000X3.500000*%
%ADD17O,1.700000X1.700000*%
%ADD18R,1.700000X1.700000*%
%ADD19R,3.500000X1.700000*%
%ADD20O,1.500000X1.500000*%
%ADD21O,1.800000X1.800000*%
G04 APERTURE END LIST*
D10*
%TO.C,10uF*%
X57220000Y-67000000D03*
X59120000Y-67000000D03*
%TD*%
D11*
%TO.C,SHUNT*%
X61859999Y-78369999D03*
X59859999Y-79319999D03*
X59859999Y-77419999D03*
%TD*%
D12*
%TO.C,REF\u002A\u002A*%
X67380000Y-105080000D03*
X77540000Y-105080000D03*
%TD*%
%TO.C,REF\u002A\u002A*%
X87380000Y-105080000D03*
X97540000Y-105080000D03*
%TD*%
D13*
%TO.C,REF\u002A\u002A*%
X90059999Y-110689999D03*
X90059999Y-113889999D03*
X94959999Y-113889999D03*
X94959999Y-110689999D03*
%TD*%
%TO.C,REF\u002A\u002A*%
X69909999Y-110579999D03*
X69909999Y-113779999D03*
X74809999Y-113779999D03*
X74809999Y-110579999D03*
%TD*%
D14*
%TO.C,SW2*%
X85909999Y-124899999D03*
X89509999Y-124899999D03*
X85909999Y-127099999D03*
X89509999Y-127099999D03*
%TD*%
%TO.C,SW1*%
X73789999Y-124819999D03*
X77389999Y-124819999D03*
X73789999Y-127019999D03*
X77389999Y-127019999D03*
%TD*%
D15*
%TO.C,SSD1306*%
X80919999Y-64399999D03*
X78379999Y-64399999D03*
X83459999Y-64399999D03*
X85999999Y-64399999D03*
%TD*%
D16*
%TO.C,U1*%
X45859999Y-113454999D03*
D17*
X45859999Y-112554999D03*
D16*
X43319999Y-113454999D03*
D18*
X43319999Y-112554999D03*
D17*
X40779999Y-112554999D03*
D16*
X40779999Y-113454999D03*
D19*
X53109999Y-64524999D03*
D17*
X52209999Y-64524999D03*
X52209999Y-67064999D03*
D19*
X53109999Y-67064999D03*
D18*
X52209999Y-69604999D03*
D19*
X53109999Y-69604999D03*
D17*
X52209999Y-72144999D03*
D19*
X53109999Y-72144999D03*
X53109999Y-74684999D03*
D17*
X52209999Y-74684999D03*
X52209999Y-77224999D03*
D19*
X53109999Y-77224999D03*
D17*
X52209999Y-79764999D03*
D19*
X53109999Y-79764999D03*
D18*
X52209999Y-82304999D03*
D19*
X53109999Y-82304999D03*
X53109999Y-84844999D03*
D17*
X52209999Y-84844999D03*
D19*
X53109999Y-87384999D03*
D17*
X52209999Y-87384999D03*
X52209999Y-89924999D03*
D19*
X53109999Y-89924999D03*
X53109999Y-92464999D03*
D17*
X52209999Y-92464999D03*
D19*
X53109999Y-95004999D03*
D18*
X52209999Y-95004999D03*
D19*
X53109999Y-97544999D03*
D17*
X52209999Y-97544999D03*
X52209999Y-100084999D03*
D19*
X53109999Y-100084999D03*
D17*
X52209999Y-102624999D03*
D19*
X53109999Y-102624999D03*
X53109999Y-105164999D03*
D17*
X52209999Y-105164999D03*
D18*
X52209999Y-107704999D03*
D19*
X53109999Y-107704999D03*
D17*
X52209999Y-110244999D03*
D19*
X53109999Y-110244999D03*
D17*
X52209999Y-112784999D03*
D19*
X53109999Y-112784999D03*
D17*
X34429999Y-112784999D03*
D19*
X33529999Y-112784999D03*
X33529999Y-110244999D03*
D17*
X34429999Y-110244999D03*
D18*
X34429999Y-107704999D03*
D19*
X33529999Y-107704999D03*
D17*
X34429999Y-105164999D03*
D19*
X33529999Y-105164999D03*
D17*
X34429999Y-102624999D03*
D19*
X33529999Y-102624999D03*
X33529999Y-100084999D03*
D17*
X34429999Y-100084999D03*
X34429999Y-97544999D03*
D19*
X33529999Y-97544999D03*
X33529999Y-95004999D03*
D18*
X34429999Y-95004999D03*
D19*
X33529999Y-92464999D03*
D17*
X34429999Y-92464999D03*
X34429999Y-89924999D03*
D19*
X33529999Y-89924999D03*
X33529999Y-87384999D03*
D17*
X34429999Y-87384999D03*
X34429999Y-84844999D03*
D19*
X33529999Y-84844999D03*
X33529999Y-82304999D03*
D18*
X34429999Y-82304999D03*
D17*
X34429999Y-79764999D03*
D19*
X33529999Y-79764999D03*
X33529999Y-77224999D03*
D17*
X34429999Y-77224999D03*
D19*
X33529999Y-74684999D03*
D17*
X34429999Y-74684999D03*
D19*
X33529999Y-72144999D03*
D17*
X34429999Y-72144999D03*
D18*
X34429999Y-69604999D03*
D19*
X33529999Y-69604999D03*
X33529999Y-67064999D03*
D17*
X34429999Y-67064999D03*
D19*
X33529999Y-64524999D03*
D17*
X34429999Y-64524999D03*
D20*
X45744999Y-67684999D03*
X40894999Y-67684999D03*
D21*
X40594999Y-64654999D03*
X46044999Y-64654999D03*
%TD*%
M02*
