%TF.GenerationSoftware,KiCad,Pcbnew,(7.0.0-0)*%
%TF.CreationDate,2023-03-08T23:01:28-06:00*%
%TF.ProjectId,RP2040_minimal,52503230-3430-45f6-9d69-6e696d616c2e,REV1*%
%TF.SameCoordinates,Original*%
%TF.FileFunction,Soldermask,Top*%
%TF.FilePolarity,Negative*%
%FSLAX46Y46*%
G04 Gerber Fmt 4.6, Leading zero omitted, Abs format (unit mm)*
G04 Created by KiCad (PCBNEW (7.0.0-0)) date 2023-03-08 23:01:28*
%MOMM*%
%LPD*%
G01*
G04 APERTURE LIST*
%TA.AperFunction,Profile*%
%ADD10C,0.120000*%
%TD*%
%ADD11C,0.021144*%
%ADD12C,2.402000*%
%ADD13C,4.302000*%
G04 APERTURE END LIST*
D10*
%TO.C,REF\u002A\u002A*%
X-26675000Y7250000D02*
X-12325000Y7250000D01*
X-12325000Y7250000D02*
X-12325000Y-7250000D01*
X-12325000Y-7250000D02*
X-26675000Y-7250000D01*
X-26675000Y-7250000D02*
X-26675000Y7250000D01*
X-7175000Y7250000D02*
X7175000Y7250000D01*
X7175000Y7250000D02*
X7175000Y-7250000D01*
X7175000Y-7250000D02*
X-7175000Y-7250000D01*
X-7175000Y-7250000D02*
X-7175000Y7250000D01*
X12325000Y7250000D02*
X26675000Y7250000D01*
X26675000Y7250000D02*
X26675000Y-7250000D01*
X26675000Y-7250000D02*
X12325000Y-7250000D01*
X12325000Y-7250000D02*
X12325000Y7250000D01*
D11*
G36*
X131998825Y12232086D02*
G01*
X132007025Y12223164D01*
X132677940Y11061021D01*
X133348858Y9898878D01*
X133359318Y9871613D01*
X133369778Y9844347D01*
X127082756Y9844347D01*
X127092110Y9860207D01*
X127101410Y9876066D01*
X127486298Y10542005D01*
X127871182Y11207944D01*
X127894472Y11222337D01*
X127917763Y11236730D01*
X128479441Y11395918D01*
X129041115Y11555107D01*
X129527451Y11681629D01*
X130013786Y11808151D01*
X130510695Y11924507D01*
X131007603Y12040864D01*
X131356495Y12115169D01*
X131705387Y12189474D01*
X131848005Y12215241D01*
X131990625Y12241007D01*
X131998825Y12232086D01*
G37*
X131998825Y12232086D02*
X132007025Y12223164D01*
X132677940Y11061021D01*
X133348858Y9898878D01*
X133359318Y9871613D01*
X133369778Y9844347D01*
X127082756Y9844347D01*
X127092110Y9860207D01*
X127101410Y9876066D01*
X127486298Y10542005D01*
X127871182Y11207944D01*
X127894472Y11222337D01*
X127917763Y11236730D01*
X128479441Y11395918D01*
X129041115Y11555107D01*
X129527451Y11681629D01*
X130013786Y11808151D01*
X130510695Y11924507D01*
X131007603Y12040864D01*
X131356495Y12115169D01*
X131705387Y12189474D01*
X131848005Y12215241D01*
X131990625Y12241007D01*
X131998825Y12232086D01*
G36*
X140359539Y13058359D02*
G01*
X140734375Y13058324D01*
X141389874Y13036927D01*
X142045368Y13015531D01*
X143102619Y12951784D01*
X143472660Y12920302D01*
X143842697Y12888821D01*
X144346790Y12835716D01*
X144850887Y12782611D01*
X145075932Y12753292D01*
X145300976Y12723973D01*
X145333057Y12676287D01*
X145365139Y12628601D01*
X147100437Y9624165D01*
X148835735Y6619730D01*
X148703701Y6609158D01*
X148571667Y6598586D01*
X150337002Y3543128D01*
X152102337Y487670D01*
X152122978Y450659D01*
X152143620Y413660D01*
X135648987Y413660D01*
X135648991Y423155D01*
X135648991Y432655D01*
X137417160Y3494134D01*
X139185330Y6555612D01*
X139195549Y6582243D01*
X139205769Y6608873D01*
X137733265Y6614304D01*
X136260765Y6619734D01*
X138091953Y9791466D01*
X139923149Y12963222D01*
X139953919Y13010798D01*
X139984699Y13058394D01*
X140359539Y13058359D01*
G37*
X140359539Y13058359D02*
X140734375Y13058324D01*
X141389874Y13036927D01*
X142045368Y13015531D01*
X143102619Y12951784D01*
X143472660Y12920302D01*
X143842697Y12888821D01*
X144346790Y12835716D01*
X144850887Y12782611D01*
X145075932Y12753292D01*
X145300976Y12723973D01*
X145333057Y12676287D01*
X145365139Y12628601D01*
X147100437Y9624165D01*
X148835735Y6619730D01*
X148703701Y6609158D01*
X148571667Y6598586D01*
X150337002Y3543128D01*
X152102337Y487670D01*
X152122978Y450659D01*
X152143620Y413660D01*
X135648987Y413660D01*
X135648991Y423155D01*
X135648991Y432655D01*
X137417160Y3494134D01*
X139185330Y6555612D01*
X139195549Y6582243D01*
X139205769Y6608873D01*
X137733265Y6614304D01*
X136260765Y6619734D01*
X138091953Y9791466D01*
X139923149Y12963222D01*
X139953919Y13010798D01*
X139984699Y13058394D01*
X140359539Y13058359D01*
G36*
X112688782Y445376D02*
G01*
X113678412Y-1267372D01*
X113679282Y-1299091D01*
X108287310Y-1299091D01*
X108287310Y-1286101D01*
X108287308Y-1286090D01*
X108287308Y-1273100D01*
X108504045Y-1028169D01*
X108720782Y-783243D01*
X109078675Y-390956D01*
X109436569Y1330D01*
X110188789Y752678D01*
X110941011Y1504026D01*
X111296856Y1831075D01*
X111652700Y2158124D01*
X111699151Y2158124D01*
X112688782Y445376D01*
G37*
X112688782Y445376D02*
X113678412Y-1267372D01*
X113679282Y-1299091D01*
X108287310Y-1299091D01*
X108287310Y-1286101D01*
X108287308Y-1286090D01*
X108287308Y-1273100D01*
X108504045Y-1028169D01*
X108720782Y-783243D01*
X109078675Y-390956D01*
X109436569Y1330D01*
X110188789Y752678D01*
X110941011Y1504026D01*
X111296856Y1831075D01*
X111652700Y2158124D01*
X111699151Y2158124D01*
X112688782Y445376D01*
G36*
X128281143Y1254505D02*
G01*
X128305664Y1227765D01*
X132410784Y-5883674D01*
X136515904Y-12995113D01*
X136515904Y-13013313D01*
X120019705Y-13013313D01*
X120026539Y-12985610D01*
X120033339Y-12957780D01*
X124144981Y-5838268D01*
X128256622Y1281245D01*
X128281143Y1254505D01*
G37*
X128281143Y1254505D02*
X128305664Y1227765D01*
X132410784Y-5883674D01*
X136515904Y-12995113D01*
X136515904Y-13013313D01*
X120019705Y-13013313D01*
X120026539Y-12985610D01*
X120033339Y-12957780D01*
X124144981Y-5838268D01*
X128256622Y1281245D01*
X128281143Y1254505D01*
G36*
X113612541Y-8816144D02*
G01*
X116741480Y-14234559D01*
X119870419Y-19652978D01*
X107288622Y-19652978D01*
X107318928Y-19605401D01*
X107349231Y-19557832D01*
X110465546Y-14160030D01*
X113581862Y-8762224D01*
X113612541Y-8816144D01*
G37*
X113612541Y-8816144D02*
X116741480Y-14234559D01*
X119870419Y-19652978D01*
X107288622Y-19652978D01*
X107318928Y-19605401D01*
X107349231Y-19557832D01*
X110465546Y-14160030D01*
X113581862Y-8762224D01*
X113612541Y-8816144D01*
G36*
X160315987Y-1879335D02*
G01*
X164776283Y-9607305D01*
X164786854Y-9607318D01*
X164797424Y-9607334D01*
X166066128Y-7406389D01*
X167334827Y-5205442D01*
X167356899Y-5174802D01*
X167378971Y-5144163D01*
X168945942Y-7857675D01*
X170512913Y-10571187D01*
X167935337Y-10576587D01*
X165357758Y-10581987D01*
X165357758Y-10607229D01*
X168845402Y-16647294D01*
X172333050Y-22687356D01*
X172347172Y-22724355D01*
X172361294Y-22761365D01*
X139349369Y-22761365D01*
X139349369Y-22726396D01*
X147565926Y-8497381D01*
X155782482Y5731632D01*
X155819080Y5790134D01*
X155855690Y5848636D01*
X160315987Y-1879335D01*
G37*
X160315987Y-1879335D02*
X164776283Y-9607305D01*
X164786854Y-9607318D01*
X164797424Y-9607334D01*
X166066128Y-7406389D01*
X167334827Y-5205442D01*
X167356899Y-5174802D01*
X167378971Y-5144163D01*
X168945942Y-7857675D01*
X170512913Y-10571187D01*
X167935337Y-10576587D01*
X165357758Y-10581987D01*
X165357758Y-10607229D01*
X168845402Y-16647294D01*
X172333050Y-22687356D01*
X172347172Y-22724355D01*
X172361294Y-22761365D01*
X139349369Y-22761365D01*
X139349369Y-22726396D01*
X147565926Y-8497381D01*
X155782482Y5731632D01*
X155819080Y5790134D01*
X155855690Y5848636D01*
X160315987Y-1879335D01*
G36*
X178062893Y-17316354D02*
G01*
X178152889Y-17686304D01*
X178247616Y-18104007D01*
X178342342Y-18521715D01*
X178456448Y-19092630D01*
X178570553Y-19663545D01*
X178666004Y-20234460D01*
X178761456Y-20805376D01*
X178814625Y-21185987D01*
X178867802Y-21566598D01*
X178899479Y-21809766D01*
X178931179Y-22052934D01*
X179016476Y-22835298D01*
X179048435Y-23184190D01*
X179080387Y-23533082D01*
X179112141Y-24008848D01*
X179143894Y-24484609D01*
X179165455Y-24939226D01*
X179187016Y-25393846D01*
X179200832Y-26466958D01*
X179214634Y-27540079D01*
X171845776Y-27540079D01*
X171852825Y-27518991D01*
X171859829Y-27497892D01*
X174904713Y-22222700D01*
X177949596Y-16947507D01*
X177961239Y-16946958D01*
X177972881Y-16946407D01*
X178062893Y-17316354D01*
G37*
X178062893Y-17316354D02*
X178152889Y-17686304D01*
X178247616Y-18104007D01*
X178342342Y-18521715D01*
X178456448Y-19092630D01*
X178570553Y-19663545D01*
X178666004Y-20234460D01*
X178761456Y-20805376D01*
X178814625Y-21185987D01*
X178867802Y-21566598D01*
X178899479Y-21809766D01*
X178931179Y-22052934D01*
X179016476Y-22835298D01*
X179048435Y-23184190D01*
X179080387Y-23533082D01*
X179112141Y-24008848D01*
X179143894Y-24484609D01*
X179165455Y-24939226D01*
X179187016Y-25393846D01*
X179200832Y-26466958D01*
X179214634Y-27540079D01*
X171845776Y-27540079D01*
X171852825Y-27518991D01*
X171859829Y-27497892D01*
X174904713Y-22222700D01*
X177949596Y-16947507D01*
X177961239Y-16946958D01*
X177972881Y-16946407D01*
X178062893Y-17316354D01*
G36*
X152115738Y-30553251D02*
G01*
X153661953Y-33232973D01*
X155208168Y-35912691D01*
X155208168Y-35934648D01*
X148930599Y-35934648D01*
X149098965Y-35643919D01*
X149267342Y-35353174D01*
X150667728Y-32927793D01*
X152068115Y-30502408D01*
X152115738Y-30553251D01*
G37*
X152115738Y-30553251D02*
X153661953Y-33232973D01*
X155208168Y-35912691D01*
X155208168Y-35934648D01*
X148930599Y-35934648D01*
X149098965Y-35643919D01*
X149267342Y-35353174D01*
X150667728Y-32927793D01*
X152068115Y-30502408D01*
X152115738Y-30553251D01*
G36*
X171291973Y-33241567D02*
G01*
X171307705Y-33244466D01*
X173779354Y-37523408D01*
X176251003Y-41802354D01*
X176261875Y-41828264D01*
X176272747Y-41854173D01*
X176097988Y-42261735D01*
X175923237Y-42669298D01*
X175750263Y-43049909D01*
X175577282Y-43430520D01*
X175412190Y-43774129D01*
X175247097Y-44117738D01*
X164997227Y-44117738D01*
X165028130Y-44059644D01*
X165059040Y-44001493D01*
X168167637Y-38620080D01*
X171276234Y-33238668D01*
X171291973Y-33241567D01*
G37*
X171291973Y-33241567D02*
X171307705Y-33244466D01*
X173779354Y-37523408D01*
X176251003Y-41802354D01*
X176261875Y-41828264D01*
X176272747Y-41854173D01*
X176097988Y-42261735D01*
X175923237Y-42669298D01*
X175750263Y-43049909D01*
X175577282Y-43430520D01*
X175412190Y-43774129D01*
X175247097Y-44117738D01*
X164997227Y-44117738D01*
X165028130Y-44059644D01*
X165059040Y-44001493D01*
X168167637Y-38620080D01*
X171276234Y-33238668D01*
X171291973Y-33241567D01*
G36*
X109550000Y-43510000D02*
G01*
X113655458Y-50619882D01*
X113669639Y-50656892D01*
X113683819Y-50693902D01*
X107422657Y-50693902D01*
X107287003Y-50519453D01*
X107151349Y-50345006D01*
X106845674Y-49932676D01*
X106539998Y-49520349D01*
X106263807Y-49127317D01*
X105987616Y-48734285D01*
X105713467Y-48323804D01*
X105439318Y-47913328D01*
X105242333Y-47606721D01*
X105045349Y-47300119D01*
X104797979Y-46898363D01*
X104550609Y-46496610D01*
X104275227Y-46020845D01*
X103999844Y-45545083D01*
X103757255Y-45101037D01*
X103514665Y-44656991D01*
X103258985Y-44160081D01*
X103003305Y-43663171D01*
X102762356Y-43155691D01*
X102521407Y-42648214D01*
X102368020Y-42306764D01*
X102214634Y-41965318D01*
X105395735Y-36452714D01*
X105420139Y-36426424D01*
X105444543Y-36400114D01*
X109550000Y-43510000D01*
G37*
X109550000Y-43510000D02*
X113655458Y-50619882D01*
X113669639Y-50656892D01*
X113683819Y-50693902D01*
X107422657Y-50693902D01*
X107287003Y-50519453D01*
X107151349Y-50345006D01*
X106845674Y-49932676D01*
X106539998Y-49520349D01*
X106263807Y-49127317D01*
X105987616Y-48734285D01*
X105713467Y-48323804D01*
X105439318Y-47913328D01*
X105242333Y-47606721D01*
X105045349Y-47300119D01*
X104797979Y-46898363D01*
X104550609Y-46496610D01*
X104275227Y-46020845D01*
X103999844Y-45545083D01*
X103757255Y-45101037D01*
X103514665Y-44656991D01*
X103258985Y-44160081D01*
X103003305Y-43663171D01*
X102762356Y-43155691D01*
X102521407Y-42648214D01*
X102368020Y-42306764D01*
X102214634Y-41965318D01*
X105395735Y-36452714D01*
X105420139Y-36426424D01*
X105444543Y-36400114D01*
X109550000Y-43510000D01*
G36*
X152114628Y-49372316D02*
G01*
X155208157Y-54734926D01*
X155208157Y-54753725D01*
X148949219Y-54753725D01*
X148949219Y-54726411D01*
X150508667Y-52024560D01*
X152068111Y-49322717D01*
X152114628Y-49372316D01*
G37*
X152114628Y-49372316D02*
X155208157Y-54734926D01*
X155208157Y-54753725D01*
X148949219Y-54753725D01*
X148949219Y-54726411D01*
X150508667Y-52024560D01*
X152068111Y-49322717D01*
X152114628Y-49372316D01*
G36*
X110436575Y-52815507D02*
G01*
X110439585Y-52819108D01*
X111341376Y-54381212D01*
X112243169Y-55943315D01*
X112236469Y-55950014D01*
X112229770Y-55956712D01*
X111585334Y-55336381D01*
X110941011Y-54716073D01*
X110450323Y-54200998D01*
X109959637Y-53685922D01*
X109956037Y-53664773D01*
X109952437Y-53643632D01*
X110193000Y-53227769D01*
X110433565Y-52811906D01*
X110436575Y-52815507D01*
G37*
X110436575Y-52815507D02*
X110439585Y-52819108D01*
X111341376Y-54381212D01*
X112243169Y-55943315D01*
X112236469Y-55950014D01*
X112229770Y-55956712D01*
X111585334Y-55336381D01*
X110941011Y-54716073D01*
X110450323Y-54200998D01*
X109959637Y-53685922D01*
X109956037Y-53664773D01*
X109952437Y-53643632D01*
X110193000Y-53227769D01*
X110433565Y-52811906D01*
X110436575Y-52815507D01*
G36*
X132291573Y-26784101D02*
G01*
X132307022Y-26789400D01*
X140646740Y-41231462D01*
X148986454Y-55673524D01*
X145478905Y-55678827D01*
X141971352Y-55684129D01*
X141971352Y-55707941D01*
X143126953Y-57710046D01*
X144282551Y-59712144D01*
X144426777Y-59960596D01*
X144571003Y-60209047D01*
X131989809Y-60209047D01*
X132020344Y-60151018D01*
X132050875Y-60092874D01*
X133321425Y-57893793D01*
X134591976Y-55694711D01*
X125091488Y-55684144D01*
X115591001Y-55673578D01*
X123933563Y-41226190D01*
X132276123Y-26778802D01*
X132291573Y-26784101D01*
G37*
X132291573Y-26784101D02*
X132307022Y-26789400D01*
X140646740Y-41231462D01*
X148986454Y-55673524D01*
X145478905Y-55678827D01*
X141971352Y-55684129D01*
X141971352Y-55707941D01*
X143126953Y-57710046D01*
X144282551Y-59712144D01*
X144426777Y-59960596D01*
X144571003Y-60209047D01*
X131989809Y-60209047D01*
X132020344Y-60151018D01*
X132050875Y-60092874D01*
X133321425Y-57893793D01*
X134591976Y-55694711D01*
X125091488Y-55684144D01*
X115591001Y-55673578D01*
X123933563Y-41226190D01*
X132276123Y-26778802D01*
X132291573Y-26784101D01*
%TD*%
D12*
%TO.C,REF\u002A\u002A*%
X-10000000Y-20000000D03*
%TD*%
%TO.C,REF\u002A\u002A*%
X10000000Y-20000000D03*
%TD*%
D13*
%TO.C,H3*%
X0Y-29000000D03*
%TD*%
%TO.C,H2*%
X27000000Y14000000D03*
%TD*%
%TO.C,H1*%
X-27000000Y14000000D03*
%TD*%
G36*
X-8787464Y15775387D02*
G01*
X-8742176Y15729902D01*
X-6890881Y12507238D01*
X-6874402Y12445202D01*
X-6891150Y12383238D01*
X-6936635Y12337950D01*
X-6998671Y12321471D01*
X-10715227Y12329535D01*
X-10777191Y12346283D01*
X-10822479Y12391768D01*
X-10838958Y12453804D01*
X-10822210Y12515768D01*
X-8956949Y15730368D01*
X-8911464Y15775656D01*
X-8849428Y15792135D01*
X-8787464Y15775387D01*
G37*
G36*
X-32468829Y9649508D02*
G01*
X-32423541Y9604023D01*
X-28506984Y2786233D01*
X-28490505Y2724197D01*
X-28507253Y2662233D01*
X-28552738Y2616945D01*
X-28614774Y2600466D01*
X-36477433Y2617525D01*
X-36539397Y2634273D01*
X-36584685Y2679758D01*
X-36601164Y2741794D01*
X-36584416Y2803758D01*
X-32638314Y9604489D01*
X-32592829Y9649777D01*
X-32530793Y9666256D01*
X-32468829Y9649508D01*
G37*
G36*
X32131171Y8849508D02*
G01*
X32176459Y8804023D01*
X36093016Y1986233D01*
X36109495Y1924197D01*
X36092747Y1862233D01*
X36047262Y1816945D01*
X35985226Y1800466D01*
X28122567Y1817525D01*
X28060603Y1834273D01*
X28015315Y1879758D01*
X27998836Y1941794D01*
X28015584Y2003758D01*
X31961686Y8804489D01*
X32007171Y8849777D01*
X32069207Y8866256D01*
X32131171Y8849508D01*
G37*
G36*
X35131171Y-350492D02*
G01*
X35176459Y-395977D01*
X39093016Y-7213767D01*
X39109495Y-7275803D01*
X39092747Y-7337767D01*
X39047262Y-7383055D01*
X38985226Y-7399534D01*
X31122567Y-7382475D01*
X31060603Y-7365727D01*
X31015315Y-7320242D01*
X30998836Y-7258206D01*
X31015584Y-7196242D01*
X34961686Y-395511D01*
X35007171Y-350223D01*
X35069207Y-333744D01*
X35131171Y-350492D01*
G37*
G36*
X25931171Y-8550492D02*
G01*
X25976459Y-8595977D01*
X29893016Y-15413767D01*
X29909495Y-15475803D01*
X29892747Y-15537767D01*
X29847262Y-15583055D01*
X29785226Y-15599534D01*
X21922567Y-15582475D01*
X21860603Y-15565727D01*
X21815315Y-15520242D01*
X21798836Y-15458206D01*
X21815584Y-15396242D01*
X25761686Y-8595511D01*
X25807171Y-8550223D01*
X25869207Y-8533744D01*
X25931171Y-8550492D01*
G37*
G36*
X18982536Y-8314613D02*
G01*
X19027824Y-8360098D01*
X20879119Y-11582762D01*
X20895598Y-11644798D01*
X20878850Y-11706762D01*
X20833365Y-11752050D01*
X20771329Y-11768529D01*
X17054773Y-11760465D01*
X16992809Y-11743717D01*
X16947521Y-11698232D01*
X16931042Y-11636196D01*
X16947790Y-11574232D01*
X18813051Y-8359632D01*
X18858536Y-8314344D01*
X18920572Y-8297865D01*
X18982536Y-8314613D01*
G37*
G36*
X16023377Y-21168482D02*
G01*
X16068665Y-21213967D01*
X19985222Y-28031757D01*
X20001701Y-28093793D01*
X19984953Y-28155757D01*
X19939468Y-28201045D01*
X19877432Y-28217524D01*
X12014773Y-28200465D01*
X11952809Y-28183717D01*
X11907521Y-28138232D01*
X11891042Y-28076196D01*
X11907790Y-28014232D01*
X15853892Y-21213501D01*
X15899377Y-21168213D01*
X15961413Y-21151734D01*
X16023377Y-21168482D01*
G37*
G36*
X4331171Y-21150492D02*
G01*
X4376459Y-21195977D01*
X8293016Y-28013767D01*
X8309495Y-28075803D01*
X8292747Y-28137767D01*
X8247262Y-28183055D01*
X8185226Y-28199534D01*
X322567Y-28182475D01*
X260603Y-28165727D01*
X215315Y-28120242D01*
X198836Y-28058206D01*
X215584Y-27996242D01*
X4161686Y-21195511D01*
X4207171Y-21150223D01*
X4269207Y-21133744D01*
X4331171Y-21150492D01*
G37*
G36*
X3731171Y-30950492D02*
G01*
X3776459Y-30995977D01*
X7693016Y-37813767D01*
X7709495Y-37875803D01*
X7692747Y-37937767D01*
X7647262Y-37983055D01*
X7585226Y-37999534D01*
X-277433Y-37982475D01*
X-339397Y-37965727D01*
X-384685Y-37920242D01*
X-401164Y-37858206D01*
X-384416Y-37796242D01*
X3561686Y-30995511D01*
X3607171Y-30950223D01*
X3669207Y-30933744D01*
X3731171Y-30950492D01*
G37*
G36*
X-5147464Y-32444613D02*
G01*
X-5102176Y-32490098D01*
X-3250881Y-35712762D01*
X-3234402Y-35774798D01*
X-3251150Y-35836762D01*
X-3296635Y-35882050D01*
X-3358671Y-35898529D01*
X-7075227Y-35890465D01*
X-7137191Y-35873717D01*
X-7182479Y-35828232D01*
X-7198958Y-35766196D01*
X-7182210Y-35704232D01*
X-5316949Y-32489632D01*
X-5271464Y-32444344D01*
X-5209428Y-32427865D01*
X-5147464Y-32444613D01*
G37*
G36*
X-15307464Y-27364613D02*
G01*
X-15262176Y-27410098D01*
X-13410881Y-30632762D01*
X-13394402Y-30694798D01*
X-13411150Y-30756762D01*
X-13456635Y-30802050D01*
X-13518671Y-30818529D01*
X-17235227Y-30810465D01*
X-17297191Y-30793717D01*
X-17342479Y-30748232D01*
X-17358958Y-30686196D01*
X-17342210Y-30624232D01*
X-15476949Y-27409632D01*
X-15431464Y-27364344D01*
X-15369428Y-27347865D01*
X-15307464Y-27364613D01*
G37*
G36*
X-19117464Y-19744613D02*
G01*
X-19072176Y-19790098D01*
X-17220881Y-23012762D01*
X-17204402Y-23074798D01*
X-17221150Y-23136762D01*
X-17266635Y-23182050D01*
X-17328671Y-23198529D01*
X-21045227Y-23190465D01*
X-21107191Y-23173717D01*
X-21152479Y-23128232D01*
X-21168958Y-23066196D01*
X-21152210Y-23004232D01*
X-19286949Y-19789632D01*
X-19241464Y-19744344D01*
X-19179428Y-19727865D01*
X-19117464Y-19744613D01*
G37*
G36*
X-16965258Y-10630746D02*
G01*
X-16919970Y-10676231D01*
X-15068675Y-13898895D01*
X-15052196Y-13960931D01*
X-15068944Y-14022895D01*
X-15114429Y-14068183D01*
X-15176465Y-14084662D01*
X-18893021Y-14076598D01*
X-18954985Y-14059850D01*
X-19000273Y-14014365D01*
X-19016752Y-13952329D01*
X-19000004Y-13890365D01*
X-17134743Y-10675765D01*
X-17089258Y-10630477D01*
X-17027222Y-10613998D01*
X-16965258Y-10630746D01*
G37*
G36*
X5946433Y-10845618D02*
G01*
X5991721Y-10891103D01*
X7843016Y-14113767D01*
X7859495Y-14175803D01*
X7842747Y-14237767D01*
X7797262Y-14283055D01*
X7735226Y-14299534D01*
X4018670Y-14291470D01*
X3956706Y-14274722D01*
X3911418Y-14229237D01*
X3894939Y-14167201D01*
X3911687Y-14105237D01*
X5776948Y-10890637D01*
X5822433Y-10845349D01*
X5884469Y-10828870D01*
X5946433Y-10845618D01*
G37*
G36*
X11362536Y-9584613D02*
G01*
X11407824Y-9630098D01*
X13259119Y-12852762D01*
X13275598Y-12914798D01*
X13258850Y-12976762D01*
X13213365Y-13022050D01*
X13151329Y-13038529D01*
X9434773Y-13030465D01*
X9372809Y-13013717D01*
X9327521Y-12968232D01*
X9311042Y-12906196D01*
X9327790Y-12844232D01*
X11193051Y-9629632D01*
X11238536Y-9584344D01*
X11300572Y-9567865D01*
X11362536Y-9584613D01*
G37*
G36*
X-23176623Y-8568482D02*
G01*
X-23131335Y-8613967D01*
X-19214778Y-15431757D01*
X-19198299Y-15493793D01*
X-19215047Y-15555757D01*
X-19260532Y-15601045D01*
X-19322568Y-15617524D01*
X-27185227Y-15600465D01*
X-27247191Y-15583717D01*
X-27292479Y-15538232D01*
X-27308958Y-15476196D01*
X-27292210Y-15414232D01*
X-23346108Y-8613501D01*
X-23300623Y-8568213D01*
X-23238587Y-8551734D01*
X-23176623Y-8568482D01*
G37*
G36*
X-31268829Y-3550492D02*
G01*
X-31223541Y-3595977D01*
X-27306984Y-10413767D01*
X-27290505Y-10475803D01*
X-27307253Y-10537767D01*
X-27352738Y-10583055D01*
X-27414774Y-10599534D01*
X-35277433Y-10582475D01*
X-35339397Y-10565727D01*
X-35384685Y-10520242D01*
X-35401164Y-10458206D01*
X-35384416Y-10396242D01*
X-31438314Y-3595511D01*
X-31392829Y-3550223D01*
X-31330793Y-3533744D01*
X-31268829Y-3550492D01*
G37*
G36*
X-5068829Y-8750492D02*
G01*
X-5023541Y-8795977D01*
X-1106984Y-15613767D01*
X-1090505Y-15675803D01*
X-1107253Y-15737767D01*
X-1152738Y-15783055D01*
X-1214774Y-15799534D01*
X-9077433Y-15782475D01*
X-9139397Y-15765727D01*
X-9184685Y-15720242D01*
X-9201164Y-15658206D01*
X-9184416Y-15596242D01*
X-5238314Y-8795511D01*
X-5192829Y-8750223D01*
X-5130793Y-8733744D01*
X-5068829Y-8750492D01*
G37*
G36*
X27872536Y24705387D02*
G01*
X27917824Y24659902D01*
X29769119Y21437238D01*
X29785598Y21375202D01*
X29768850Y21313238D01*
X29723365Y21267950D01*
X29661329Y21251471D01*
X25944773Y21259535D01*
X25882809Y21276283D01*
X25837521Y21321768D01*
X25821042Y21383804D01*
X25837790Y21445768D01*
X27703051Y24660368D01*
X27748536Y24705656D01*
X27810572Y24722135D01*
X27872536Y24705387D01*
G37*
G36*
X9331171Y14649508D02*
G01*
X9376459Y14604023D01*
X13293016Y7786233D01*
X13309495Y7724197D01*
X13292747Y7662233D01*
X13247262Y7616945D01*
X13185226Y7600466D01*
X5322567Y7617525D01*
X5260603Y7634273D01*
X5215315Y7679758D01*
X5198836Y7741794D01*
X5215584Y7803758D01*
X9161686Y14604489D01*
X9207171Y14649777D01*
X9269207Y14666256D01*
X9331171Y14649508D01*
G37*
G36*
X11304218Y36617651D02*
G01*
X11349506Y36572166D01*
X17331325Y26159248D01*
X17347804Y26097212D01*
X17331056Y26035248D01*
X17285571Y25989960D01*
X17223535Y25973481D01*
X5214773Y25999535D01*
X5152809Y26016283D01*
X5107521Y26061768D01*
X5091042Y26123804D01*
X5107790Y26185768D01*
X11134733Y36572632D01*
X11180218Y36617920D01*
X11242254Y36634399D01*
X11304218Y36617651D01*
G37*
G36*
X-1337464Y29785387D02*
G01*
X-1292176Y29739902D01*
X559119Y26517238D01*
X575598Y26455202D01*
X558850Y26393238D01*
X513365Y26347950D01*
X451329Y26331471D01*
X-3265227Y26339535D01*
X-3327191Y26356283D01*
X-3372479Y26401768D01*
X-3388958Y26463804D01*
X-3372210Y26525768D01*
X-1506949Y29740368D01*
X-1461464Y29785656D01*
X-1399428Y29802135D01*
X-1337464Y29785387D01*
G37*
G36*
X-7687464Y33595387D02*
G01*
X-7642176Y33549902D01*
X-5790881Y30327238D01*
X-5774402Y30265202D01*
X-5791150Y30203238D01*
X-5836635Y30157950D01*
X-5898671Y30141471D01*
X-9615227Y30149535D01*
X-9677191Y30166283D01*
X-9722479Y30211768D01*
X-9738958Y30273804D01*
X-9722210Y30335768D01*
X-7856949Y33550368D01*
X-7811464Y33595656D01*
X-7749428Y33612135D01*
X-7687464Y33595387D01*
G37*
G36*
X20623377Y16031518D02*
G01*
X20668665Y15986033D01*
X24585222Y9168243D01*
X24601701Y9106207D01*
X24584953Y9044243D01*
X24539468Y8998955D01*
X24477432Y8982476D01*
X16614773Y8999535D01*
X16552809Y9016283D01*
X16507521Y9061768D01*
X16491042Y9123804D01*
X16507790Y9185768D01*
X20453892Y15986499D01*
X20499377Y16031787D01*
X20561413Y16048266D01*
X20623377Y16031518D01*
G37*
G36*
X-18944460Y31118913D02*
G01*
X-18899172Y31073428D01*
X-12917353Y20660510D01*
X-12900874Y20598474D01*
X-12917622Y20536510D01*
X-12963107Y20491222D01*
X-13025143Y20474743D01*
X-25033905Y20500797D01*
X-25095869Y20517545D01*
X-25141157Y20563030D01*
X-25157636Y20625066D01*
X-25140888Y20687030D01*
X-19113945Y31073894D01*
X-19068460Y31119182D01*
X-19006424Y31135661D01*
X-18944460Y31118913D01*
G37*
G36*
X-2714083Y23374138D02*
G01*
X-2668795Y23328653D01*
X-817500Y20105989D01*
X-801021Y20043953D01*
X-817769Y19981989D01*
X-863254Y19936701D01*
X-925290Y19920222D01*
X-4641846Y19928286D01*
X-4703810Y19945034D01*
X-4749098Y19990519D01*
X-4765577Y20052555D01*
X-4748829Y20114519D01*
X-2883568Y23329119D01*
X-2838083Y23374407D01*
X-2776047Y23390886D01*
X-2714083Y23374138D01*
G37*
G36*
X5012536Y14545387D02*
G01*
X5057824Y14499902D01*
X6909119Y11277238D01*
X6925598Y11215202D01*
X6908850Y11153238D01*
X6863365Y11107950D01*
X6801329Y11091471D01*
X3084773Y11099535D01*
X3022809Y11116283D01*
X2977521Y11161768D01*
X2961042Y11223804D01*
X2977790Y11285768D01*
X4843051Y14500368D01*
X4888536Y14545656D01*
X4950572Y14562135D01*
X5012536Y14545387D01*
G37*
G36*
X6282536Y20895387D02*
G01*
X6327824Y20849902D01*
X8179119Y17627238D01*
X8195598Y17565202D01*
X8178850Y17503238D01*
X8133365Y17457950D01*
X8071329Y17441471D01*
X4354773Y17449535D01*
X4292809Y17466283D01*
X4247521Y17511768D01*
X4231042Y17573804D01*
X4247790Y17635768D01*
X6113051Y20850368D01*
X6158536Y20895656D01*
X6220572Y20912135D01*
X6282536Y20895387D01*
G37*
G36*
X132322067Y-26790450D02*
G01*
X132322068Y-26790451D01*
X132322386Y-26790865D01*
X140657628Y-41225176D01*
X148992864Y-55659484D01*
X148993132Y-55660484D01*
X148993132Y-55660485D01*
X148992418Y-55662017D01*
X148990785Y-55662455D01*
X148989400Y-55661485D01*
X140654164Y-41227176D01*
X140654161Y-41227174D01*
X132318921Y-26792864D01*
X132318840Y-26791019D01*
X132320306Y-26789894D01*
X132322067Y-26790450D01*
G37*
G36*
X132263779Y-26779731D02*
G01*
X132264493Y-26781263D01*
X132264493Y-26781264D01*
X132264225Y-26782264D01*
X129484863Y-31595476D01*
X123926140Y-41221902D01*
X123926140Y-41221903D01*
X115588051Y-55661543D01*
X115586319Y-55660543D01*
X115586315Y-55660539D01*
X115584588Y-55659542D01*
X123922674Y-41219905D01*
X123922676Y-41219900D01*
X129481399Y-31593476D01*
X129481398Y-31593476D01*
X132260761Y-26780263D01*
X132262146Y-26779293D01*
X132263779Y-26779731D01*
G37*
G36*
X152867115Y-50651587D02*
G01*
X155214573Y-54720888D01*
X155214841Y-54721887D01*
X155214841Y-54721889D01*
X155214126Y-54723421D01*
X155212493Y-54723859D01*
X155211109Y-54722888D01*
X152863651Y-50653585D01*
X152863651Y-50651585D01*
X152865384Y-50650586D01*
X152867115Y-50651587D01*
G37*
G36*
X151514647Y-50262483D02*
G01*
X151514647Y-50264483D01*
X150501244Y-52020274D01*
X150501243Y-52020275D01*
X149603745Y-53575250D01*
X149602013Y-53576250D01*
X149600281Y-53575250D01*
X149600281Y-53573250D01*
X150497779Y-52018274D01*
X150497780Y-52018271D01*
X151511183Y-50262483D01*
X151512915Y-50261483D01*
X151514647Y-50262483D01*
G37*
G36*
X171264418Y-33240281D02*
G01*
X171264337Y-33242126D01*
X168160216Y-38615791D01*
X168160215Y-38615792D01*
X165051618Y-43997205D01*
X165051563Y-43997173D01*
X165051137Y-43997941D01*
X165050983Y-43998069D01*
X165049909Y-43998521D01*
X165048766Y-43998297D01*
X165046359Y-43997017D01*
X165045380Y-43995819D01*
X165045548Y-43994282D01*
X165045775Y-43993872D01*
X165046990Y-43992914D01*
X165048526Y-43993109D01*
X165049154Y-43993472D01*
X168156750Y-38613792D01*
X168156750Y-38613791D01*
X171260870Y-33240129D01*
X171261188Y-33239715D01*
X171261191Y-33239712D01*
X171262952Y-33239156D01*
X171264418Y-33240281D01*
G37*
G36*
X105386829Y-36448855D02*
G01*
X105386927Y-36450818D01*
X105386925Y-36450822D01*
X105386868Y-36450928D01*
X104717187Y-37611434D01*
X102209734Y-41956658D01*
X102208350Y-41957628D01*
X102206717Y-41957190D01*
X102206002Y-41955658D01*
X102206002Y-41955656D01*
X102206270Y-41954656D01*
X104713723Y-37609434D01*
X104713723Y-37609433D01*
X105383406Y-36448924D01*
X105385098Y-36447924D01*
X105386829Y-36448855D01*
G37*
G36*
X3670209Y-30805763D02*
G01*
X3671492Y-30806234D01*
X3679053Y-30812606D01*
X3679498Y-30813139D01*
X7802117Y-37989633D01*
X7802353Y-37990286D01*
X7804049Y-38000027D01*
X7803809Y-38001374D01*
X7803083Y-38002625D01*
X7802033Y-38003502D01*
X7792736Y-38006863D01*
X7792052Y-38006982D01*
X-484287Y-37989027D01*
X-484971Y-37988905D01*
X-494256Y-37985502D01*
X-495302Y-37984621D01*
X-496022Y-37983369D01*
X-496257Y-37982020D01*
X-495899Y-37980017D01*
X-488738Y-37980017D01*
X7796540Y-37997992D01*
X3669467Y-30813745D01*
X-488738Y-37980017D01*
X-495899Y-37980017D01*
X-494518Y-37972286D01*
X-494279Y-37971634D01*
X3659438Y-30813095D01*
X3659886Y-30812564D01*
X3667475Y-30806224D01*
X3668763Y-30805759D01*
X3670209Y-30805763D01*
G37*
G36*
X-5208426Y-32299884D02*
G01*
X-5207143Y-32300355D01*
X-5199582Y-32306727D01*
X-5199137Y-32307260D01*
X-3141780Y-35888628D01*
X-3141544Y-35889281D01*
X-3139848Y-35899022D01*
X-3140088Y-35900369D01*
X-3140814Y-35901620D01*
X-3141864Y-35902497D01*
X-3151161Y-35905858D01*
X-3151845Y-35905977D01*
X-7282081Y-35897017D01*
X-7282765Y-35896895D01*
X-7292050Y-35893492D01*
X-7293096Y-35892611D01*
X-7293816Y-35891359D01*
X-7294051Y-35890010D01*
X-7293693Y-35888007D01*
X-7286532Y-35888007D01*
X-3147357Y-35896987D01*
X-5209168Y-32307866D01*
X-7286532Y-35888007D01*
X-7293693Y-35888007D01*
X-7292312Y-35880276D01*
X-7292073Y-35879624D01*
X-5219197Y-32307216D01*
X-5218749Y-32306685D01*
X-5211160Y-32300345D01*
X-5209872Y-32299880D01*
X-5208426Y-32299884D01*
G37*
G36*
X-15368426Y-27219884D02*
G01*
X-15367143Y-27220355D01*
X-15359582Y-27226727D01*
X-15359137Y-27227260D01*
X-13301780Y-30808628D01*
X-13301544Y-30809281D01*
X-13299848Y-30819022D01*
X-13300088Y-30820369D01*
X-13300814Y-30821620D01*
X-13301864Y-30822497D01*
X-13311161Y-30825858D01*
X-13311845Y-30825977D01*
X-17442081Y-30817017D01*
X-17442765Y-30816895D01*
X-17452050Y-30813492D01*
X-17453096Y-30812611D01*
X-17453816Y-30811359D01*
X-17454051Y-30810010D01*
X-17453693Y-30808007D01*
X-17446532Y-30808007D01*
X-13307357Y-30816987D01*
X-15369168Y-27227866D01*
X-17446532Y-30808007D01*
X-17453693Y-30808007D01*
X-17452312Y-30800276D01*
X-17452073Y-30799624D01*
X-15379197Y-27227216D01*
X-15378749Y-27226685D01*
X-15371160Y-27220345D01*
X-15369872Y-27219880D01*
X-15368426Y-27219884D01*
G37*
G36*
X4270209Y-21005763D02*
G01*
X4271492Y-21006234D01*
X4279053Y-21012606D01*
X4279498Y-21013139D01*
X8402117Y-28189633D01*
X8402353Y-28190286D01*
X8404049Y-28200027D01*
X8403809Y-28201374D01*
X8403083Y-28202625D01*
X8402033Y-28203502D01*
X8392736Y-28206863D01*
X8392052Y-28206982D01*
X2055255Y-28193234D01*
X2029527Y-28201604D01*
X2013941Y-28223304D01*
X2014227Y-28250357D01*
X2036424Y-28315745D01*
X2036040Y-28317700D01*
X2034158Y-28318353D01*
X2032645Y-28317058D01*
X1986337Y-28186759D01*
X1986589Y-28184934D01*
X1988226Y-28184089D01*
X8396540Y-28197992D01*
X4269467Y-21013745D01*
X793042Y-27005034D01*
X791937Y-27005930D01*
X790515Y-27005864D01*
X755485Y-26990649D01*
X754347Y-26989321D01*
X754689Y-26987605D01*
X756250Y-26986815D01*
X782084Y-26986406D01*
X804388Y-26967545D01*
X4259438Y-21013095D01*
X4259886Y-21012564D01*
X4267475Y-21006224D01*
X4268763Y-21005759D01*
X4270209Y-21005763D01*
G37*
G36*
X15962415Y-21023753D02*
G01*
X15963698Y-21024224D01*
X15971259Y-21030596D01*
X15971704Y-21031129D01*
X20094323Y-28207623D01*
X20094559Y-28208276D01*
X20096255Y-28218017D01*
X20096015Y-28219364D01*
X20095289Y-28220615D01*
X20094239Y-28221492D01*
X20084942Y-28224853D01*
X20084258Y-28224972D01*
X11807919Y-28207017D01*
X11807235Y-28206895D01*
X11797950Y-28203492D01*
X11796904Y-28202611D01*
X11796184Y-28201359D01*
X11795949Y-28200010D01*
X11796307Y-28198007D01*
X11803468Y-28198007D01*
X20088746Y-28215982D01*
X15961673Y-21031735D01*
X11803468Y-28198007D01*
X11796307Y-28198007D01*
X11797688Y-28190276D01*
X11797927Y-28189624D01*
X15951644Y-21031085D01*
X15952092Y-21030554D01*
X15959681Y-21024214D01*
X15960969Y-21023749D01*
X15962415Y-21023753D01*
G37*
G36*
X177940206Y-16944922D02*
G01*
X177940125Y-16946767D01*
X176131726Y-20079778D01*
X174897289Y-22218415D01*
X171852604Y-27493260D01*
X171852510Y-27493975D01*
X171852039Y-27495023D01*
X171851566Y-27495568D01*
X171851556Y-27495598D01*
X171851557Y-27495599D01*
X171844696Y-27516269D01*
X171844671Y-27516302D01*
X171844658Y-27516385D01*
X171842285Y-27523481D01*
X171840787Y-27524807D01*
X171838890Y-27524173D01*
X171838491Y-27522213D01*
X171840864Y-27515114D01*
X171840908Y-27515070D01*
X171840899Y-27515009D01*
X171847761Y-27494339D01*
X171847761Y-27494338D01*
X171847817Y-27494171D01*
X171847820Y-27494162D01*
X171848042Y-27493964D01*
X171848027Y-27493675D01*
X171848838Y-27491870D01*
X171849271Y-27491523D01*
X171849059Y-27491401D01*
X174893825Y-22216415D01*
X174893825Y-22216414D01*
X176128262Y-20077778D01*
X176128261Y-20077778D01*
X177936659Y-16944769D01*
X177936977Y-16944355D01*
X177936979Y-16944353D01*
X177938740Y-16943797D01*
X177940206Y-16944922D01*
G37*
G36*
X-16999267Y-18196017D02*
G01*
X-16997984Y-18196488D01*
X-16990423Y-18202860D01*
X-16989978Y-18203393D01*
X-12867359Y-25379887D01*
X-12867123Y-25380540D01*
X-12865427Y-25390281D01*
X-12865667Y-25391628D01*
X-12866393Y-25392879D01*
X-12867443Y-25393756D01*
X-12876740Y-25397117D01*
X-12877424Y-25397236D01*
X-21153763Y-25379281D01*
X-21154447Y-25379159D01*
X-21163732Y-25375756D01*
X-21164778Y-25374875D01*
X-21165498Y-25373623D01*
X-21165733Y-25372274D01*
X-21163994Y-25362540D01*
X-21163755Y-25361888D01*
X-19946843Y-23264652D01*
X-19941621Y-23235413D01*
X-19956229Y-23209986D01*
X-19984116Y-23199767D01*
X-21252081Y-23197017D01*
X-21252765Y-23196895D01*
X-21262050Y-23193492D01*
X-21263096Y-23192611D01*
X-21263816Y-23191359D01*
X-21264051Y-23190010D01*
X-21263693Y-23188007D01*
X-21256532Y-23188007D01*
X-19897143Y-23190956D01*
X-19895858Y-23191427D01*
X-19895177Y-23192613D01*
X-19895417Y-23193960D01*
X-21158214Y-25370271D01*
X-12872936Y-25388246D01*
X-17000009Y-18203999D01*
X-18498563Y-20786615D01*
X-18500297Y-20787611D01*
X-18502027Y-20786607D01*
X-19179168Y-19607866D01*
X-21256532Y-23188007D01*
X-21263693Y-23188007D01*
X-21262312Y-23180276D01*
X-21262073Y-23179624D01*
X-19189197Y-19607216D01*
X-19188749Y-19606685D01*
X-19181160Y-19600345D01*
X-19179872Y-19599880D01*
X-19178426Y-19599884D01*
X-19177143Y-19600355D01*
X-19169582Y-19606727D01*
X-19169137Y-19607260D01*
X-18537536Y-20706725D01*
X-18514825Y-20725866D01*
X-18485500Y-20725930D01*
X-18462708Y-20706888D01*
X-17010038Y-18203349D01*
X-17009590Y-18202818D01*
X-17002001Y-18196478D01*
X-17000713Y-18196013D01*
X-16999267Y-18196017D01*
G37*
G36*
X113623290Y-8809614D02*
G01*
X113623429Y-8809857D01*
X116752364Y-14228267D01*
X116752369Y-14228273D01*
X119876829Y-19638937D01*
X119877097Y-19639937D01*
X119877097Y-19639938D01*
X119876383Y-19641470D01*
X119874750Y-19641908D01*
X119873365Y-19640938D01*
X116748904Y-14230273D01*
X116748901Y-14230271D01*
X113619964Y-8811857D01*
X113619957Y-8811845D01*
X113619815Y-8811595D01*
X113619828Y-8809597D01*
X113621564Y-8808607D01*
X113623290Y-8809614D01*
G37*
G36*
X165440848Y-10591190D02*
G01*
X165441163Y-10592958D01*
X165439933Y-10594266D01*
X165411738Y-10604584D01*
X165397115Y-10629973D01*
X165402279Y-10659191D01*
X168856288Y-16641004D01*
X168856496Y-16641519D01*
X168856497Y-16641523D01*
X168856075Y-16643311D01*
X168854372Y-16643999D01*
X168852825Y-16643008D01*
X165366598Y-10605397D01*
X165366330Y-10604397D01*
X165366330Y-10592537D01*
X165366914Y-10591124D01*
X165368326Y-10590537D01*
X165439242Y-10590388D01*
X165440848Y-10591190D01*
G37*
G36*
X68830939Y-2130012D02*
G01*
X68832222Y-2130483D01*
X68839783Y-2136855D01*
X68840228Y-2137388D01*
X77093370Y-16504136D01*
X77093606Y-16504789D01*
X77095302Y-16514530D01*
X77095062Y-16515877D01*
X77094336Y-16517128D01*
X77093286Y-16518005D01*
X77083989Y-16521366D01*
X77083305Y-16521485D01*
X60514761Y-16485540D01*
X60514077Y-16485418D01*
X60504792Y-16482015D01*
X60503746Y-16481134D01*
X60503026Y-16479882D01*
X60502791Y-16478533D01*
X60503149Y-16476530D01*
X60510310Y-16476530D01*
X77087793Y-16512495D01*
X68830197Y-2137994D01*
X60510310Y-16476530D01*
X60503149Y-16476530D01*
X60504530Y-16468799D01*
X60504769Y-16468147D01*
X68820168Y-2137344D01*
X68820616Y-2136813D01*
X68828205Y-2130473D01*
X68829493Y-2130008D01*
X68830939Y-2130012D01*
G37*
G36*
X-5129791Y-8605763D02*
G01*
X-5128508Y-8606234D01*
X-5120947Y-8612606D01*
X-5120502Y-8613139D01*
X-997883Y-15789633D01*
X-997647Y-15790286D01*
X-995951Y-15800027D01*
X-996191Y-15801374D01*
X-996917Y-15802625D01*
X-997967Y-15803502D01*
X-1007264Y-15806863D01*
X-1007948Y-15806982D01*
X-9284287Y-15789027D01*
X-9284971Y-15788905D01*
X-9294256Y-15785502D01*
X-9295302Y-15784621D01*
X-9296022Y-15783369D01*
X-9296257Y-15782020D01*
X-9295899Y-15780017D01*
X-9288738Y-15780017D01*
X-1003460Y-15797992D01*
X-5130533Y-8613745D01*
X-9288738Y-15780017D01*
X-9295899Y-15780017D01*
X-9294518Y-15772286D01*
X-9294279Y-15771634D01*
X-5140562Y-8613095D01*
X-5140114Y-8612564D01*
X-5132525Y-8606224D01*
X-5131237Y-8605759D01*
X-5129791Y-8605763D01*
G37*
G36*
X-23237585Y-8423753D02*
G01*
X-23236302Y-8424224D01*
X-23228741Y-8430596D01*
X-23228296Y-8431129D01*
X-19105677Y-15607623D01*
X-19105441Y-15608276D01*
X-19103745Y-15618017D01*
X-19103985Y-15619364D01*
X-19104711Y-15620615D01*
X-19105761Y-15621492D01*
X-19115058Y-15624853D01*
X-19115742Y-15624972D01*
X-27392081Y-15607017D01*
X-27392765Y-15606895D01*
X-27402050Y-15603492D01*
X-27403096Y-15602611D01*
X-27403816Y-15601359D01*
X-27404051Y-15600010D01*
X-27403693Y-15598007D01*
X-27396532Y-15598007D01*
X-19111254Y-15615982D01*
X-23238327Y-8431735D01*
X-27396532Y-15598007D01*
X-27403693Y-15598007D01*
X-27402312Y-15590276D01*
X-27402073Y-15589624D01*
X-23248356Y-8431085D01*
X-23247908Y-8430554D01*
X-23240319Y-8424214D01*
X-23239031Y-8423749D01*
X-23237585Y-8423753D01*
G37*
G36*
X25870209Y-8405763D02*
G01*
X25871492Y-8406234D01*
X25879053Y-8412606D01*
X25879498Y-8413139D01*
X30002117Y-15589633D01*
X30002353Y-15590286D01*
X30004049Y-15600027D01*
X30003809Y-15601374D01*
X30003083Y-15602625D01*
X30002033Y-15603502D01*
X29992736Y-15606863D01*
X29992052Y-15606982D01*
X21715713Y-15589027D01*
X21715029Y-15588905D01*
X21705744Y-15585502D01*
X21704698Y-15584621D01*
X21703978Y-15583369D01*
X21703743Y-15582020D01*
X21704101Y-15580017D01*
X21711262Y-15580017D01*
X29996540Y-15597992D01*
X25869467Y-8413745D01*
X21711262Y-15580017D01*
X21704101Y-15580017D01*
X21705482Y-15572286D01*
X21705721Y-15571634D01*
X25859438Y-8413095D01*
X25859886Y-8412564D01*
X25867475Y-8406224D01*
X25868763Y-8405759D01*
X25870209Y-8405763D01*
G37*
G36*
X5885471Y-10700889D02*
G01*
X5886754Y-10701360D01*
X5894315Y-10707732D01*
X5894760Y-10708265D01*
X7952117Y-14289633D01*
X7952353Y-14290286D01*
X7954049Y-14300027D01*
X7953809Y-14301374D01*
X7953083Y-14302625D01*
X7952033Y-14303502D01*
X7942736Y-14306863D01*
X7942052Y-14306982D01*
X3811816Y-14298022D01*
X3811132Y-14297900D01*
X3801847Y-14294497D01*
X3800801Y-14293616D01*
X3800081Y-14292364D01*
X3799846Y-14291015D01*
X3800204Y-14289012D01*
X3807365Y-14289012D01*
X7946540Y-14297992D01*
X5884729Y-10708871D01*
X3807365Y-14289012D01*
X3800204Y-14289012D01*
X3801585Y-14281281D01*
X3801824Y-14280629D01*
X5874700Y-10708221D01*
X5875148Y-10707690D01*
X5882737Y-10701350D01*
X5884025Y-10700885D01*
X5885471Y-10700889D01*
G37*
G36*
X112503158Y-10611515D02*
G01*
X112503158Y-10613515D01*
X110458123Y-14155742D01*
X110456738Y-14156712D01*
X110455105Y-14156274D01*
X110454391Y-14154742D01*
X110454391Y-14154741D01*
X110454659Y-14153741D01*
X112499694Y-10611515D01*
X112501426Y-10610515D01*
X112503158Y-10611515D01*
G37*
G36*
X-17026220Y-10486017D02*
G01*
X-17024937Y-10486488D01*
X-17017376Y-10492860D01*
X-17016931Y-10493393D01*
X-14959574Y-14074761D01*
X-14959338Y-14075414D01*
X-14957642Y-14085155D01*
X-14957882Y-14086502D01*
X-14958608Y-14087753D01*
X-14959658Y-14088630D01*
X-14968955Y-14091991D01*
X-14969639Y-14092110D01*
X-19099875Y-14083150D01*
X-19100559Y-14083028D01*
X-19109844Y-14079625D01*
X-19110890Y-14078744D01*
X-19111610Y-14077492D01*
X-19111845Y-14076143D01*
X-19111487Y-14074140D01*
X-19104326Y-14074140D01*
X-14965151Y-14083120D01*
X-17026962Y-10493999D01*
X-19104326Y-14074140D01*
X-19111487Y-14074140D01*
X-19110106Y-14066409D01*
X-19109867Y-14065757D01*
X-17036991Y-10493349D01*
X-17036543Y-10492818D01*
X-17028954Y-10486478D01*
X-17027666Y-10486013D01*
X-17026220Y-10486017D01*
G37*
G36*
X11301574Y-9439884D02*
G01*
X11302857Y-9440355D01*
X11310418Y-9446727D01*
X11310863Y-9447260D01*
X13368220Y-13028628D01*
X13368456Y-13029281D01*
X13370152Y-13039022D01*
X13369912Y-13040369D01*
X13369186Y-13041620D01*
X13368136Y-13042497D01*
X13358839Y-13045858D01*
X13358155Y-13045977D01*
X9227919Y-13037017D01*
X9227235Y-13036895D01*
X9217950Y-13033492D01*
X9216904Y-13032611D01*
X9216184Y-13031359D01*
X9215949Y-13030010D01*
X9216307Y-13028007D01*
X9223468Y-13028007D01*
X13362643Y-13036987D01*
X11300832Y-9447866D01*
X9223468Y-13028007D01*
X9216307Y-13028007D01*
X9217688Y-13020276D01*
X9217927Y-13019624D01*
X11290803Y-9447216D01*
X11291251Y-9446685D01*
X11298840Y-9440345D01*
X11300128Y-9439880D01*
X11301574Y-9439884D01*
G37*
G36*
X128244968Y1280069D02*
G01*
X128244929Y1278139D01*
X124137559Y-5833980D01*
X124137558Y-5833981D01*
X120444783Y-12228202D01*
X120443051Y-12229202D01*
X120441319Y-12228202D01*
X120441319Y-12226202D01*
X124134093Y-5831981D01*
X124134093Y-5831980D01*
X128241459Y1280131D01*
X128241591Y1280331D01*
X128241597Y1280339D01*
X128243357Y1281133D01*
X128244968Y1280069D01*
G37*
G36*
X18921574Y-8169884D02*
G01*
X18922857Y-8170355D01*
X18930418Y-8176727D01*
X18930863Y-8177260D01*
X20988220Y-11758628D01*
X20988456Y-11759281D01*
X20990152Y-11769022D01*
X20989912Y-11770369D01*
X20989186Y-11771620D01*
X20988136Y-11772497D01*
X20978839Y-11775858D01*
X20978155Y-11775977D01*
X16847919Y-11767017D01*
X16847235Y-11766895D01*
X16837950Y-11763492D01*
X16836904Y-11762611D01*
X16836184Y-11761359D01*
X16835949Y-11760010D01*
X16836307Y-11758007D01*
X16843468Y-11758007D01*
X20982643Y-11766987D01*
X18920832Y-8177866D01*
X16843468Y-11758007D01*
X16836307Y-11758007D01*
X16837688Y-11750276D01*
X16837927Y-11749624D01*
X18910803Y-8177216D01*
X18911251Y-8176685D01*
X18918840Y-8170345D01*
X18920128Y-8169880D01*
X18921574Y-8169884D01*
G37*
G36*
X-31329791Y-3405763D02*
G01*
X-31328508Y-3406234D01*
X-31320947Y-3412606D01*
X-31320502Y-3413139D01*
X-27197883Y-10589633D01*
X-27197647Y-10590286D01*
X-27195951Y-10600027D01*
X-27196191Y-10601374D01*
X-27196917Y-10602625D01*
X-27197967Y-10603502D01*
X-27207264Y-10606863D01*
X-27207948Y-10606982D01*
X-35484287Y-10589027D01*
X-35484971Y-10588905D01*
X-35494256Y-10585502D01*
X-35495302Y-10584621D01*
X-35496022Y-10583369D01*
X-35496257Y-10582020D01*
X-35495899Y-10580017D01*
X-35488738Y-10580017D01*
X-27203460Y-10597992D01*
X-31330533Y-3413745D01*
X-35488738Y-10580017D01*
X-35495899Y-10580017D01*
X-35494518Y-10572286D01*
X-35494279Y-10571634D01*
X-31340562Y-3413095D01*
X-31340114Y-3412564D01*
X-31332525Y-3406224D01*
X-31331237Y-3405759D01*
X-31329791Y-3405763D01*
G37*
G36*
X155870428Y5847834D02*
G01*
X155870431Y5847832D01*
X155871054Y5847168D01*
X160326876Y-1873049D01*
X160326876Y-1873050D01*
X164749420Y-9535611D01*
X164772181Y-9554709D01*
X164801518Y-9554702D01*
X164824265Y-9535593D01*
X166055236Y-7400110D01*
X166055239Y-7400104D01*
X166055662Y-7399372D01*
X166057395Y-7400370D01*
X166058673Y-7401108D01*
X166058969Y-7401108D01*
X166058969Y-7401109D01*
X166058929Y-7401256D01*
X166059127Y-7401370D01*
X166058702Y-7402104D01*
X166058702Y-7402108D01*
X164793053Y-9597751D01*
X164792319Y-9598484D01*
X164791317Y-9598752D01*
X164786867Y-9598746D01*
X164786864Y-9598746D01*
X164782388Y-9598740D01*
X164780659Y-9597740D01*
X160323411Y-1875050D01*
X160323410Y-1875050D01*
X160323410Y-1875049D01*
X155867587Y5845170D01*
X155867455Y5846894D01*
X155868716Y5848077D01*
X155870428Y5847834D01*
G37*
G36*
X167394015Y-5145212D02*
G01*
X167394016Y-5145213D01*
X167394334Y-5145627D01*
X168956829Y-7851387D01*
X168957097Y-7852387D01*
X168957097Y-7852388D01*
X168956511Y-7853802D01*
X168955097Y-7854388D01*
X168953683Y-7853802D01*
X168953682Y-7853801D01*
X168953364Y-7853387D01*
X167390869Y-5147626D01*
X167390788Y-5145781D01*
X167392254Y-5144656D01*
X167394015Y-5145212D01*
G37*
G36*
X35070209Y-205763D02*
G01*
X35071492Y-206234D01*
X35079053Y-212606D01*
X35079498Y-213139D01*
X39202117Y-7389633D01*
X39202353Y-7390286D01*
X39204049Y-7400027D01*
X39203809Y-7401374D01*
X39203083Y-7402625D01*
X39202033Y-7403502D01*
X39192736Y-7406863D01*
X39192052Y-7406982D01*
X30915713Y-7389027D01*
X30915029Y-7388905D01*
X30905744Y-7385502D01*
X30904698Y-7384621D01*
X30903978Y-7383369D01*
X30903743Y-7382020D01*
X30904101Y-7380017D01*
X30911262Y-7380017D01*
X39196540Y-7397992D01*
X35069467Y-213745D01*
X30911262Y-7380017D01*
X30904101Y-7380017D01*
X30905482Y-7372286D01*
X30905721Y-7371634D01*
X35059438Y-213095D01*
X35059886Y-212564D01*
X35067475Y-206224D01*
X35068763Y-205759D01*
X35070209Y-205763D01*
G37*
G36*
X-82219267Y4753983D02*
G01*
X-82217984Y4753512D01*
X-82210423Y4747140D01*
X-82209978Y4746607D01*
X-76022097Y-6025015D01*
X-76021861Y-6025668D01*
X-76020165Y-6035409D01*
X-76020405Y-6036756D01*
X-76021131Y-6038007D01*
X-76022181Y-6038884D01*
X-76031478Y-6042245D01*
X-76032162Y-6042364D01*
X-88454604Y-6015414D01*
X-88455288Y-6015292D01*
X-88464573Y-6011889D01*
X-88465619Y-6011008D01*
X-88466339Y-6009756D01*
X-88466574Y-6008407D01*
X-88466216Y-6006404D01*
X-88459055Y-6006404D01*
X-76027674Y-6033374D01*
X-82220009Y4746001D01*
X-88459055Y-6006404D01*
X-88466216Y-6006404D01*
X-88464835Y-5998673D01*
X-88464596Y-5998021D01*
X-82230038Y4746651D01*
X-82229590Y4747182D01*
X-82222001Y4753522D01*
X-82220713Y4753987D01*
X-82219267Y4753983D01*
G37*
G36*
X128315361Y1235290D02*
G01*
X128315753Y1234756D01*
X128316035Y1232975D01*
X128317329Y1232566D01*
X128317331Y1232564D01*
X128317649Y1232150D01*
X132421672Y-5877389D01*
X132421672Y-5879389D01*
X132419940Y-5880389D01*
X132418208Y-5879389D01*
X128314183Y1230152D01*
X128314111Y1231772D01*
X128312924Y1231985D01*
X128312650Y1232195D01*
X128311988Y1233098D01*
X128311870Y1233422D01*
X128312102Y1235241D01*
X128313719Y1236106D01*
X128315361Y1235290D01*
G37*
G36*
X139190416Y6600358D02*
G01*
X139192059Y6599488D01*
X139192276Y6597642D01*
X139187546Y6585315D01*
X139187546Y6585313D01*
X139177627Y6559466D01*
X139177492Y6559183D01*
X137409738Y3498422D01*
X137409737Y3498421D01*
X135646043Y444692D01*
X135644351Y443692D01*
X135642620Y444624D01*
X135642522Y446586D01*
X135642523Y446588D01*
X135642580Y446694D01*
X137406273Y3500422D01*
X137406273Y3500423D01*
X139157063Y6531810D01*
X139162234Y6561006D01*
X139147642Y6586391D01*
X139119481Y6596740D01*
X139118253Y6598050D01*
X139118571Y6599817D01*
X139120178Y6600617D01*
X139190416Y6600358D01*
G37*
G36*
X32070209Y8994237D02*
G01*
X32071492Y8993766D01*
X32079053Y8987394D01*
X32079498Y8986861D01*
X36202117Y1810367D01*
X36202353Y1809714D01*
X36204049Y1799973D01*
X36203809Y1798626D01*
X36203083Y1797375D01*
X36202033Y1796498D01*
X36192736Y1793137D01*
X36192052Y1793018D01*
X27915713Y1810973D01*
X27915029Y1811095D01*
X27905744Y1814498D01*
X27904698Y1815379D01*
X27903978Y1816631D01*
X27903743Y1817980D01*
X27904101Y1819983D01*
X27911262Y1819983D01*
X36196540Y1802008D01*
X32069467Y8986255D01*
X27911262Y1819983D01*
X27904101Y1819983D01*
X27905482Y1827714D01*
X27905721Y1828366D01*
X32059438Y8986905D01*
X32059886Y8987436D01*
X32067475Y8993776D01*
X32068763Y8994241D01*
X32070209Y8994237D01*
G37*
G36*
X-32529791Y9794237D02*
G01*
X-32528508Y9793766D01*
X-32520947Y9787394D01*
X-32520502Y9786861D01*
X-28397883Y2610367D01*
X-28397647Y2609714D01*
X-28395951Y2599973D01*
X-28396191Y2598626D01*
X-28396917Y2597375D01*
X-28397967Y2596498D01*
X-28407264Y2593137D01*
X-28407948Y2593018D01*
X-36684287Y2610973D01*
X-36684971Y2611095D01*
X-36694256Y2614498D01*
X-36695302Y2615379D01*
X-36696022Y2616631D01*
X-36696257Y2617980D01*
X-36695899Y2619983D01*
X-36688738Y2619983D01*
X-28403460Y2602008D01*
X-32530533Y9786255D01*
X-36688738Y2619983D01*
X-36695899Y2619983D01*
X-36694518Y2627714D01*
X-36694279Y2628366D01*
X-32540562Y9786905D01*
X-32540114Y9787436D01*
X-32532525Y9793776D01*
X-32531237Y9794241D01*
X-32529791Y9794237D01*
G37*
G36*
X74149409Y18846851D02*
G01*
X74150692Y18846380D01*
X74158253Y18840008D01*
X74158698Y18839475D01*
X82411840Y4472727D01*
X82412076Y4472074D01*
X82413772Y4462333D01*
X82413532Y4460986D01*
X82412806Y4459735D01*
X82411756Y4458858D01*
X82402459Y4455497D01*
X82401775Y4455378D01*
X65833231Y4491323D01*
X65832547Y4491445D01*
X65823262Y4494848D01*
X65822216Y4495729D01*
X65821496Y4496981D01*
X65821261Y4498330D01*
X65821619Y4500333D01*
X65828780Y4500333D01*
X82406263Y4464368D01*
X74148667Y18838869D01*
X65828780Y4500333D01*
X65821619Y4500333D01*
X65823000Y4508064D01*
X65823239Y4508716D01*
X74138638Y18839519D01*
X74139086Y18840050D01*
X74146675Y18846390D01*
X74147963Y18846855D01*
X74149409Y18846851D01*
G37*
G36*
X100513083Y20204072D02*
G01*
X100514366Y20203601D01*
X100521927Y20197229D01*
X100522372Y20196696D01*
X108775514Y5829948D01*
X108775750Y5829295D01*
X108777446Y5819554D01*
X108777206Y5818207D01*
X108776480Y5816956D01*
X108775430Y5816079D01*
X108766133Y5812718D01*
X108765449Y5812599D01*
X92196905Y5848544D01*
X92196221Y5848666D01*
X92186936Y5852069D01*
X92185890Y5852950D01*
X92185170Y5854202D01*
X92184935Y5855551D01*
X92185293Y5857554D01*
X92192454Y5857554D01*
X108769937Y5821589D01*
X100512341Y20196090D01*
X92192454Y5857554D01*
X92185293Y5857554D01*
X92186674Y5865285D01*
X92186913Y5865937D01*
X100502312Y20196740D01*
X100502760Y20197271D01*
X100510349Y20203611D01*
X100511637Y20204076D01*
X100513083Y20204072D01*
G37*
G36*
X138084212Y9798167D02*
G01*
X138084798Y9796753D01*
X138084411Y9795820D01*
X138084529Y9795752D01*
X136257815Y6631771D01*
X136256123Y6630771D01*
X136254392Y6631703D01*
X136254294Y6633665D01*
X136254295Y6633667D01*
X136254352Y6633773D01*
X138081065Y9797752D01*
X138081182Y9797684D01*
X138081383Y9798167D01*
X138082797Y9798753D01*
X138082798Y9798753D01*
X138084212Y9798167D01*
G37*
G36*
X9270209Y14794237D02*
G01*
X9271492Y14793766D01*
X9279053Y14787394D01*
X9279498Y14786861D01*
X13402117Y7610367D01*
X13402353Y7609714D01*
X13404049Y7599973D01*
X13403809Y7598626D01*
X13403083Y7597375D01*
X13402033Y7596498D01*
X13392736Y7593137D01*
X13392052Y7593018D01*
X5115713Y7610973D01*
X5115029Y7611095D01*
X5105744Y7614498D01*
X5104698Y7615379D01*
X5103978Y7616631D01*
X5103743Y7617980D01*
X5104101Y7619983D01*
X5111262Y7619983D01*
X13396540Y7602008D01*
X9269467Y14786255D01*
X5111262Y7619983D01*
X5104101Y7619983D01*
X5105482Y7627714D01*
X5105721Y7628366D01*
X7078575Y11028396D01*
X7083662Y11051108D01*
X7084266Y11052149D01*
X7101461Y11067837D01*
X9259438Y14786905D01*
X9259886Y14787436D01*
X9267475Y14793776D01*
X9268763Y14794241D01*
X9270209Y14794237D01*
G37*
G36*
X20562415Y16176247D02*
G01*
X20563698Y16175776D01*
X20571259Y16169404D01*
X20571704Y16168871D01*
X24694323Y8992377D01*
X24694559Y8991724D01*
X24696255Y8981983D01*
X24696015Y8980636D01*
X24695289Y8979385D01*
X24694239Y8978508D01*
X24684942Y8975147D01*
X24684258Y8975028D01*
X16407919Y8992983D01*
X16407235Y8993105D01*
X16397950Y8996508D01*
X16396904Y8997389D01*
X16396184Y8998641D01*
X16395949Y8999990D01*
X16396307Y9001993D01*
X16403468Y9001993D01*
X24688746Y8984018D01*
X20561673Y16168265D01*
X16403468Y9001993D01*
X16396307Y9001993D01*
X16397688Y9009724D01*
X16397927Y9010376D01*
X20551644Y16168915D01*
X20552092Y16169446D01*
X20559681Y16175786D01*
X20560969Y16176251D01*
X20562415Y16176247D01*
G37*
G36*
X4951574Y14690116D02*
G01*
X4952857Y14689645D01*
X4960418Y14683273D01*
X4960863Y14682740D01*
X7018221Y11101372D01*
X7018457Y11100719D01*
X7020314Y11090049D01*
X7020074Y11088702D01*
X7019024Y11087825D01*
X7008836Y11084142D01*
X7008152Y11084023D01*
X2877919Y11092983D01*
X2877235Y11093105D01*
X2867950Y11096508D01*
X2866904Y11097389D01*
X2866184Y11098641D01*
X2865949Y11099990D01*
X2866307Y11101993D01*
X2873468Y11101993D01*
X7012643Y11093013D01*
X4950832Y14682134D01*
X2873468Y11101993D01*
X2866307Y11101993D01*
X2867688Y11109724D01*
X2867927Y11110376D01*
X4940803Y14682784D01*
X4941251Y14683315D01*
X4948840Y14689655D01*
X4950128Y14690120D01*
X4951574Y14690116D01*
G37*
G36*
X-8848426Y15920116D02*
G01*
X-8847143Y15919645D01*
X-8839582Y15913273D01*
X-8839137Y15912740D01*
X-6781780Y12331372D01*
X-6781544Y12330719D01*
X-6779848Y12320978D01*
X-6780088Y12319631D01*
X-6780814Y12318380D01*
X-6781864Y12317503D01*
X-6791161Y12314142D01*
X-6791845Y12314023D01*
X-10922081Y12322983D01*
X-10922765Y12323105D01*
X-10932050Y12326508D01*
X-10933096Y12327389D01*
X-10933816Y12328641D01*
X-10934051Y12329990D01*
X-10933693Y12331993D01*
X-10926532Y12331993D01*
X-6787357Y12323013D01*
X-8849168Y15912134D01*
X-10926532Y12331993D01*
X-10933693Y12331993D01*
X-10932312Y12339724D01*
X-10932073Y12340376D01*
X-8859197Y15912784D01*
X-8858749Y15913315D01*
X-8851160Y15919655D01*
X-8849872Y15920120D01*
X-8848426Y15920116D01*
G37*
G36*
X6221574Y21040116D02*
G01*
X6222857Y21039645D01*
X6230418Y21033273D01*
X6230863Y21032740D01*
X8288220Y17451372D01*
X8288456Y17450719D01*
X8290152Y17440978D01*
X8289912Y17439631D01*
X8289186Y17438380D01*
X8288136Y17437503D01*
X8278839Y17434142D01*
X8278155Y17434023D01*
X4147919Y17442983D01*
X4147235Y17443105D01*
X4137950Y17446508D01*
X4136904Y17447389D01*
X4136184Y17448641D01*
X4135949Y17449990D01*
X4136307Y17451993D01*
X4143468Y17451993D01*
X8282643Y17443013D01*
X6220832Y21032134D01*
X4143468Y17451993D01*
X4136307Y17451993D01*
X4137688Y17459724D01*
X4137927Y17460376D01*
X6210803Y21032784D01*
X6211251Y21033315D01*
X6218840Y21039655D01*
X6220128Y21040120D01*
X6221574Y21040116D01*
G37*
G36*
X-2775045Y23518867D02*
G01*
X-2773762Y23518396D01*
X-2766201Y23512024D01*
X-2765756Y23511491D01*
X-708399Y19930123D01*
X-708163Y19929470D01*
X-706467Y19919729D01*
X-706707Y19918382D01*
X-707433Y19917131D01*
X-708483Y19916254D01*
X-717780Y19912893D01*
X-718464Y19912774D01*
X-4848700Y19921734D01*
X-4849384Y19921856D01*
X-4858669Y19925259D01*
X-4859715Y19926140D01*
X-4860435Y19927392D01*
X-4860670Y19928741D01*
X-4860312Y19930744D01*
X-4853151Y19930744D01*
X-713976Y19921764D01*
X-2775787Y23510885D01*
X-4853151Y19930744D01*
X-4860312Y19930744D01*
X-4858931Y19938475D01*
X-4858692Y19939127D01*
X-2785816Y23511535D01*
X-2785368Y23512066D01*
X-2777779Y23518406D01*
X-2776491Y23518871D01*
X-2775045Y23518867D01*
G37*
G36*
X-19005422Y31263642D02*
G01*
X-19004139Y31263171D01*
X-18996578Y31256799D01*
X-18996133Y31256266D01*
X-12808252Y20484644D01*
X-12808016Y20483991D01*
X-12806320Y20474250D01*
X-12806560Y20472903D01*
X-12807286Y20471652D01*
X-12808336Y20470775D01*
X-12817633Y20467414D01*
X-12818317Y20467295D01*
X-25240759Y20494245D01*
X-25241443Y20494367D01*
X-25250728Y20497770D01*
X-25251774Y20498651D01*
X-25252494Y20499903D01*
X-25252729Y20501252D01*
X-25252371Y20503255D01*
X-25245210Y20503255D01*
X-12813829Y20476285D01*
X-19006164Y31255660D01*
X-25245210Y20503255D01*
X-25252371Y20503255D01*
X-25250990Y20510986D01*
X-25250751Y20511638D01*
X-19016193Y31256310D01*
X-19015745Y31256841D01*
X-19008156Y31263181D01*
X-19006868Y31263646D01*
X-19005422Y31263642D01*
G37*
G36*
X27811574Y24850116D02*
G01*
X27812857Y24849645D01*
X27820418Y24843273D01*
X27820863Y24842740D01*
X29878220Y21261372D01*
X29878456Y21260719D01*
X29880152Y21250978D01*
X29879912Y21249631D01*
X29879186Y21248380D01*
X29878136Y21247503D01*
X29868839Y21244142D01*
X29868155Y21244023D01*
X25737919Y21252983D01*
X25737235Y21253105D01*
X25727950Y21256508D01*
X25726904Y21257389D01*
X25726184Y21258641D01*
X25725949Y21259990D01*
X25726307Y21261993D01*
X25733468Y21261993D01*
X29872643Y21253013D01*
X27810832Y24842134D01*
X25733468Y21261993D01*
X25726307Y21261993D01*
X25727688Y21269724D01*
X25727927Y21270376D01*
X27800803Y24842784D01*
X27801251Y24843315D01*
X27808840Y24849655D01*
X27810128Y24850120D01*
X27811574Y24850116D01*
G37*
G36*
X11243256Y36762380D02*
G01*
X11244539Y36761909D01*
X11252100Y36755537D01*
X11252545Y36755004D01*
X17440426Y25983382D01*
X17440662Y25982729D01*
X17442358Y25972988D01*
X17442118Y25971641D01*
X17441392Y25970390D01*
X17440342Y25969513D01*
X17431045Y25966152D01*
X17430361Y25966033D01*
X5007919Y25992983D01*
X5007235Y25993105D01*
X4997950Y25996508D01*
X4996904Y25997389D01*
X4996184Y25998641D01*
X4995949Y25999990D01*
X4996307Y26001993D01*
X5003468Y26001993D01*
X17434849Y25975023D01*
X11242514Y36754398D01*
X5003468Y26001993D01*
X4996307Y26001993D01*
X4997688Y26009724D01*
X4997927Y26010376D01*
X11232485Y36755048D01*
X11232933Y36755579D01*
X11240522Y36761919D01*
X11241810Y36762384D01*
X11243256Y36762380D01*
G37*
G36*
X-1398426Y29930116D02*
G01*
X-1397143Y29929645D01*
X-1389582Y29923273D01*
X-1389137Y29922740D01*
X668220Y26341372D01*
X668456Y26340719D01*
X670152Y26330978D01*
X669912Y26329631D01*
X669186Y26328380D01*
X668136Y26327503D01*
X658839Y26324142D01*
X658155Y26324023D01*
X-3472081Y26332983D01*
X-3472765Y26333105D01*
X-3482050Y26336508D01*
X-3483096Y26337389D01*
X-3483816Y26338641D01*
X-3484051Y26339990D01*
X-3483693Y26341993D01*
X-3476532Y26341993D01*
X662643Y26333013D01*
X-1399168Y29922134D01*
X-3476532Y26341993D01*
X-3483693Y26341993D01*
X-3482312Y26349724D01*
X-3482073Y26350376D01*
X-1409197Y29922784D01*
X-1408749Y29923315D01*
X-1401160Y29929655D01*
X-1399872Y29930120D01*
X-1398426Y29930116D01*
G37*
G36*
X113149409Y41046851D02*
G01*
X113150692Y41046380D01*
X113158253Y41040008D01*
X113158698Y41039475D01*
X121411840Y26672727D01*
X121412076Y26672074D01*
X121413772Y26662333D01*
X121413532Y26660986D01*
X121412806Y26659735D01*
X121411756Y26658858D01*
X121402459Y26655497D01*
X121401775Y26655378D01*
X104833231Y26691323D01*
X104832547Y26691445D01*
X104823262Y26694848D01*
X104822216Y26695729D01*
X104821496Y26696981D01*
X104821261Y26698330D01*
X104821619Y26700333D01*
X104828780Y26700333D01*
X121406263Y26664368D01*
X113148667Y41038869D01*
X104828780Y26700333D01*
X104821619Y26700333D01*
X104823000Y26708064D01*
X104823239Y26708716D01*
X113138638Y41039519D01*
X113139086Y41040050D01*
X113146675Y41046390D01*
X113147963Y41046855D01*
X113149409Y41046851D01*
G37*
G36*
X-7748426Y33740116D02*
G01*
X-7747143Y33739645D01*
X-7739582Y33733273D01*
X-7739137Y33732740D01*
X-5681780Y30151372D01*
X-5681544Y30150719D01*
X-5679848Y30140978D01*
X-5680088Y30139631D01*
X-5680814Y30138380D01*
X-5681864Y30137503D01*
X-5691161Y30134142D01*
X-5691845Y30134023D01*
X-9822081Y30142983D01*
X-9822765Y30143105D01*
X-9832050Y30146508D01*
X-9833096Y30147389D01*
X-9833816Y30148641D01*
X-9834051Y30149990D01*
X-9833693Y30151993D01*
X-9826532Y30151993D01*
X-5687357Y30143013D01*
X-7749168Y33732134D01*
X-9826532Y30151993D01*
X-9833693Y30151993D01*
X-9832312Y30159724D01*
X-9832073Y30160376D01*
X-7759197Y33732784D01*
X-7758749Y33733315D01*
X-7751160Y33739655D01*
X-7749872Y33740120D01*
X-7748426Y33740116D01*
G37*
G36*
X149804947Y50389365D02*
G01*
X149806230Y50388894D01*
X149813791Y50382522D01*
X149814236Y50381989D01*
X156002117Y39610367D01*
X156002353Y39609714D01*
X156004049Y39599973D01*
X156003809Y39598626D01*
X156003083Y39597375D01*
X156002033Y39596498D01*
X155992736Y39593137D01*
X155992052Y39593018D01*
X143569610Y39619968D01*
X143568926Y39620090D01*
X143559641Y39623493D01*
X143558595Y39624374D01*
X143557875Y39625626D01*
X143557640Y39626975D01*
X143557998Y39628978D01*
X143565159Y39628978D01*
X155996540Y39602008D01*
X149804205Y50381383D01*
X143565159Y39628978D01*
X143557998Y39628978D01*
X143559379Y39636709D01*
X143559618Y39637361D01*
X149794176Y50382033D01*
X149794624Y50382564D01*
X149802213Y50388904D01*
X149803501Y50389369D01*
X149804947Y50389365D01*
G37*
G36*
X135949409Y59446851D02*
G01*
X135950692Y59446380D01*
X135958253Y59440008D01*
X135958698Y59439475D01*
X144211840Y45072727D01*
X144212076Y45072074D01*
X144213772Y45062333D01*
X144213532Y45060986D01*
X144212806Y45059735D01*
X144211756Y45058858D01*
X144202459Y45055497D01*
X144201775Y45055378D01*
X127633231Y45091323D01*
X127632547Y45091445D01*
X127623262Y45094848D01*
X127622216Y45095729D01*
X127621496Y45096981D01*
X127621261Y45098330D01*
X127621619Y45100333D01*
X127628780Y45100333D01*
X144206263Y45064368D01*
X135948667Y59438869D01*
X127628780Y45100333D01*
X127621619Y45100333D01*
X127623000Y45108064D01*
X127623239Y45108716D01*
X135938638Y59439519D01*
X135939086Y59440050D01*
X135946675Y59446390D01*
X135947963Y59446855D01*
X135949409Y59446851D01*
G37*
G36*
X86549409Y80046851D02*
G01*
X86550692Y80046380D01*
X86558253Y80040008D01*
X86558698Y80039475D01*
X94811840Y65672727D01*
X94812076Y65672074D01*
X94813772Y65662333D01*
X94813532Y65660986D01*
X94812806Y65659735D01*
X94811756Y65658858D01*
X94802459Y65655497D01*
X94801775Y65655378D01*
X78233231Y65691323D01*
X78232547Y65691445D01*
X78223262Y65694848D01*
X78222216Y65695729D01*
X78221496Y65696981D01*
X78221261Y65698330D01*
X78221619Y65700333D01*
X78228780Y65700333D01*
X94806263Y65664368D01*
X86548667Y80038869D01*
X78228780Y65700333D01*
X78221619Y65700333D01*
X78223000Y65708064D01*
X78223239Y65708716D01*
X86538638Y80039519D01*
X86539086Y80040050D01*
X86546675Y80046390D01*
X86547963Y80046855D01*
X86549409Y80046851D01*
G37*
M02*
