G04 #@! TF.GenerationSoftware,KiCad,Pcbnew,(7.0.0-0)*
G04 #@! TF.CreationDate,2023-03-03T19:29:23-06:00*
G04 #@! TF.ProjectId,RP2040_minimal,52503230-3430-45f6-9d69-6e696d616c2e,REV1*
G04 #@! TF.SameCoordinates,Original*
G04 #@! TF.FileFunction,Soldermask,Bot*
G04 #@! TF.FilePolarity,Negative*
%FSLAX46Y46*%
G04 Gerber Fmt 4.6, Leading zero omitted, Abs format (unit mm)*
G04 Created by KiCad (PCBNEW (7.0.0-0)) date 2023-03-03 19:29:23*
%MOMM*%
%LPD*%
G01*
G04 APERTURE LIST*
G04 Aperture macros list*
%AMRoundRect*
0 Rectangle with rounded corners*
0 $1 Rounding radius*
0 $2 $3 $4 $5 $6 $7 $8 $9 X,Y pos of 4 corners*
0 Add a 4 corners polygon primitive as box body*
4,1,4,$2,$3,$4,$5,$6,$7,$8,$9,$2,$3,0*
0 Add four circle primitives for the rounded corners*
1,1,$1+$1,$2,$3*
1,1,$1+$1,$4,$5*
1,1,$1+$1,$6,$7*
1,1,$1+$1,$8,$9*
0 Add four rect primitives between the rounded corners*
20,1,$1+$1,$2,$3,$4,$5,0*
20,1,$1+$1,$4,$5,$6,$7,0*
20,1,$1+$1,$6,$7,$8,$9,0*
20,1,$1+$1,$8,$9,$2,$3,0*%
G04 Aperture macros list end*
%ADD10RoundRect,0.051000X-0.750000X-0.450000X0.750000X-0.450000X0.750000X0.450000X-0.750000X0.450000X0*%
%ADD11RoundRect,0.191000X0.140000X0.170000X-0.140000X0.170000X-0.140000X-0.170000X0.140000X-0.170000X0*%
%ADD12C,1.802000*%
%ADD13C,2.802000*%
%ADD14RoundRect,0.294750X0.243750X0.456250X-0.243750X0.456250X-0.243750X-0.456250X0.243750X-0.456250X0*%
%ADD15RoundRect,0.198500X0.147500X0.172500X-0.147500X0.172500X-0.147500X-0.172500X0.147500X-0.172500X0*%
%ADD16RoundRect,0.198500X-0.147500X-0.172500X0.147500X-0.172500X0.147500X0.172500X-0.147500X0.172500X0*%
%ADD17RoundRect,0.051000X-0.750000X1.000000X-0.750000X-1.000000X0.750000X-1.000000X0.750000X1.000000X0*%
%ADD18RoundRect,0.051000X-1.900000X1.000000X-1.900000X-1.000000X1.900000X-1.000000X1.900000X1.000000X0*%
%ADD19RoundRect,0.201000X0.650000X0.150000X-0.650000X0.150000X-0.650000X-0.150000X0.650000X-0.150000X0*%
%ADD20RoundRect,0.198500X-0.172500X0.147500X-0.172500X-0.147500X0.172500X-0.147500X0.172500X0.147500X0*%
%ADD21RoundRect,0.294750X-0.243750X-0.456250X0.243750X-0.456250X0.243750X0.456250X-0.243750X0.456250X0*%
%ADD22RoundRect,0.198500X0.172500X-0.147500X0.172500X0.147500X-0.172500X0.147500X-0.172500X-0.147500X0*%
%ADD23RoundRect,0.101000X-0.050000X0.387500X-0.050000X-0.387500X0.050000X-0.387500X0.050000X0.387500X0*%
%ADD24RoundRect,0.101000X-0.387500X0.050000X-0.387500X-0.050000X0.387500X-0.050000X0.387500X0.050000X0*%
%ADD25RoundRect,0.195000X-1.456000X1.456000X-1.456000X-1.456000X1.456000X-1.456000X1.456000X1.456000X0*%
%ADD26RoundRect,0.051000X-1.300000X0.950000X-1.300000X-0.950000X1.300000X-0.950000X1.300000X0.950000X0*%
%ADD27RoundRect,0.191000X-0.170000X0.140000X-0.170000X-0.140000X0.170000X-0.140000X0.170000X0.140000X0*%
%ADD28RoundRect,0.051000X0.750570X-0.449580X0.750570X0.449580X-0.750570X0.449580X-0.750570X-0.449580X0*%
%ADD29RoundRect,0.276000X-0.225000X-0.250000X0.225000X-0.250000X0.225000X0.250000X-0.225000X0.250000X0*%
%ADD30RoundRect,0.201000X-0.150000X0.512500X-0.150000X-0.512500X0.150000X-0.512500X0.150000X0.512500X0*%
%ADD31RoundRect,0.051000X-0.450000X-0.400000X0.450000X-0.400000X0.450000X0.400000X-0.450000X0.400000X0*%
%ADD32C,0.752000*%
%ADD33RoundRect,0.051000X-0.300000X-0.575000X0.300000X-0.575000X0.300000X0.575000X-0.300000X0.575000X0*%
%ADD34RoundRect,0.051000X-0.150000X-0.575000X0.150000X-0.575000X0.150000X0.575000X-0.150000X0.575000X0*%
%ADD35O,1.102000X1.902000*%
%ADD36O,1.102000X2.202000*%
%ADD37RoundRect,0.050000X-0.300000X-0.350000X0.300000X-0.350000X0.300000X0.350000X-0.300000X0.350000X0*%
%ADD38RoundRect,0.050000X-0.500000X-0.350000X0.500000X-0.350000X0.500000X0.350000X-0.500000X0.350000X0*%
%ADD39RoundRect,0.201000X-0.587500X-0.150000X0.587500X-0.150000X0.587500X0.150000X-0.587500X0.150000X0*%
%ADD40RoundRect,0.191000X-0.140000X-0.170000X0.140000X-0.170000X0.140000X0.170000X-0.140000X0.170000X0*%
%ADD41RoundRect,0.191000X0.170000X-0.140000X0.170000X0.140000X-0.170000X0.140000X-0.170000X-0.140000X0*%
%ADD42RoundRect,0.051000X-0.750570X0.449580X-0.750570X-0.449580X0.750570X-0.449580X0.750570X0.449580X0*%
%ADD43RoundRect,0.301000X0.375000X0.625000X-0.375000X0.625000X-0.375000X-0.625000X0.375000X-0.625000X0*%
G04 APERTURE END LIST*
D10*
X72820000Y-87080000D03*
X72820000Y-83780000D03*
X77720000Y-83780000D03*
X77720000Y-87080000D03*
D11*
X70880000Y-87040000D03*
X69920000Y-87040000D03*
D12*
X114420000Y-100000000D03*
X124580000Y-100000000D03*
X94920000Y-100000000D03*
X105080000Y-100000000D03*
X75420000Y-100000000D03*
X85580000Y-100000000D03*
D13*
X100270000Y-130980000D03*
D14*
X82762500Y-82890000D03*
X84637500Y-82890000D03*
D15*
X101207500Y-89970000D03*
X100237500Y-89970000D03*
X101207500Y-88970000D03*
X100237500Y-88970000D03*
D16*
X108277500Y-91017500D03*
X109247500Y-91017500D03*
D17*
X87510000Y-74130000D03*
D18*
X85210000Y-80430000D03*
D17*
X85210000Y-74130000D03*
X82910000Y-74130000D03*
D19*
X105890000Y-74995000D03*
X105890000Y-76265000D03*
X105890000Y-77535000D03*
X105890000Y-78805000D03*
X113090000Y-78805000D03*
X113090000Y-77535000D03*
X113090000Y-76265000D03*
X113090000Y-74995000D03*
D20*
X116325019Y-85908500D03*
X116325019Y-84938500D03*
D15*
X101322500Y-85937500D03*
X100352500Y-85937500D03*
D16*
X105155000Y-81250000D03*
X106125000Y-81250000D03*
X113272500Y-86383500D03*
X114242500Y-86383500D03*
X100351624Y-86955000D03*
X101321624Y-86955000D03*
X113032500Y-87490000D03*
X114002500Y-87490000D03*
D21*
X91257500Y-76670000D03*
X89382500Y-76670000D03*
D16*
X108505000Y-81220000D03*
X109475000Y-81220000D03*
D22*
X108880000Y-72525000D03*
X108880000Y-73495000D03*
D23*
X104647500Y-82530000D03*
X105047500Y-82530000D03*
X105447500Y-82530000D03*
X105847500Y-82530000D03*
X106247500Y-82530000D03*
X106647500Y-82530000D03*
X107047500Y-82530000D03*
X107447500Y-82530000D03*
X107847500Y-82530000D03*
X108247500Y-82530000D03*
X108647500Y-82530000D03*
X109047500Y-82530000D03*
X109447500Y-82530000D03*
X109847500Y-82530000D03*
D24*
X110685000Y-83367500D03*
X110685000Y-83767500D03*
X110685000Y-84167500D03*
X110685000Y-84567500D03*
X110685000Y-84967500D03*
X110685000Y-85367500D03*
X110685000Y-85767500D03*
X110685000Y-86167500D03*
X110685000Y-86567500D03*
X110685000Y-86967500D03*
X110685000Y-87367500D03*
X110685000Y-87767500D03*
X110685000Y-88167500D03*
X110685000Y-88567500D03*
D23*
X109847500Y-89405000D03*
X109447500Y-89405000D03*
X109047500Y-89405000D03*
X108647500Y-89405000D03*
X108247500Y-89405000D03*
X107847500Y-89405000D03*
X107447500Y-89405000D03*
X107047500Y-89405000D03*
X106647500Y-89405000D03*
X106247500Y-89405000D03*
X105847500Y-89405000D03*
X105447500Y-89405000D03*
X105047500Y-89405000D03*
X104647500Y-89405000D03*
D24*
X103810000Y-88567500D03*
X103810000Y-88167500D03*
X103810000Y-87767500D03*
X103810000Y-87367500D03*
X103810000Y-86967500D03*
X103810000Y-86567500D03*
X103810000Y-86167500D03*
X103810000Y-85767500D03*
X103810000Y-85367500D03*
X103810000Y-84967500D03*
X103810000Y-84567500D03*
X103810000Y-84167500D03*
X103810000Y-83767500D03*
X103810000Y-83367500D03*
D25*
X107247500Y-85967500D03*
D22*
X116325019Y-81968500D03*
X116325019Y-82938500D03*
D16*
X100351624Y-87955000D03*
X101321624Y-87955000D03*
D15*
X101332500Y-84857500D03*
X100362500Y-84857500D03*
D22*
X107460000Y-72545000D03*
X107460000Y-73515000D03*
D16*
X114925019Y-84638500D03*
X113955019Y-84638500D03*
D26*
X120441019Y-85929500D03*
X120441019Y-81629500D03*
D27*
X79480000Y-96190000D03*
X79480000Y-97150000D03*
X72589360Y-118469800D03*
X72589360Y-119429800D03*
D28*
X124174680Y-113339800D03*
X124174680Y-116540200D03*
X119175960Y-116540200D03*
X119175960Y-113339800D03*
D29*
X98092500Y-91881000D03*
X99642500Y-91881000D03*
D30*
X118550000Y-98862500D03*
X120450000Y-98862500D03*
X119500000Y-101137500D03*
D31*
X74280000Y-83580000D03*
X72280000Y-82630000D03*
X72280000Y-84530000D03*
D32*
X97110000Y-68915000D03*
X102890000Y-68915000D03*
D33*
X96800000Y-69990000D03*
X97600000Y-69990000D03*
D34*
X98750000Y-69990000D03*
X99750000Y-69990000D03*
X100250000Y-69990000D03*
X101250000Y-69990000D03*
D33*
X102400000Y-69990000D03*
X103200000Y-69990000D03*
X103200000Y-69990000D03*
X102400000Y-69990000D03*
D34*
X101750000Y-69990000D03*
X100750000Y-69990000D03*
X99250000Y-69990000D03*
X98250000Y-69990000D03*
D33*
X97600000Y-69990000D03*
X96800000Y-69990000D03*
D35*
X95679999Y-65234999D03*
D36*
X95679999Y-69414999D03*
D35*
X104319999Y-65234999D03*
D36*
X104319999Y-69414999D03*
D29*
X90562500Y-91541000D03*
X92112500Y-91541000D03*
D37*
X96610000Y-78795000D03*
X98510000Y-78795000D03*
X98510000Y-76795000D03*
D38*
X96810000Y-76795000D03*
D30*
X99050000Y-98862500D03*
X100950000Y-98862500D03*
X100000000Y-101137500D03*
D39*
X94090000Y-91625000D03*
X94090000Y-89725000D03*
X95965000Y-90675000D03*
D27*
X98080000Y-71740000D03*
X98080000Y-72700000D03*
X75910000Y-83420000D03*
X75910000Y-82460000D03*
D20*
X101820000Y-91725000D03*
X101820000Y-92695000D03*
D30*
X79550000Y-98862500D03*
X81450000Y-98862500D03*
X80500000Y-101137500D03*
D20*
X103970000Y-90815000D03*
X103970000Y-91785000D03*
X102910000Y-90825000D03*
X102910000Y-91795000D03*
D40*
X126229320Y-113920000D03*
X127189320Y-113920000D03*
X96760000Y-98580000D03*
X97720000Y-98580000D03*
D27*
X101740000Y-71760000D03*
X101740000Y-72720000D03*
D40*
X116280000Y-98580000D03*
X117240000Y-98580000D03*
D41*
X70980000Y-83350000D03*
X70980000Y-84310000D03*
D42*
X74540000Y-118020000D03*
X74540000Y-114819600D03*
X79538720Y-114819600D03*
X79538720Y-118020000D03*
D27*
X113130000Y-73420000D03*
X113130000Y-72460000D03*
D43*
X91080000Y-73400000D03*
X93880000Y-73400000D03*
M02*
