G04 #@! TF.GenerationSoftware,KiCad,Pcbnew,(7.0.0-0)*
G04 #@! TF.CreationDate,2023-03-03T19:29:23-06:00*
G04 #@! TF.ProjectId,RP2040_minimal,52503230-3430-45f6-9d69-6e696d616c2e,REV1*
G04 #@! TF.SameCoordinates,Original*
G04 #@! TF.FileFunction,Legend,Bot*
G04 #@! TF.FilePolarity,Positive*
%FSLAX46Y46*%
G04 Gerber Fmt 4.6, Leading zero omitted, Abs format (unit mm)*
G04 Created by KiCad (PCBNEW (7.0.0-0)) date 2023-03-03 19:29:23*
%MOMM*%
%LPD*%
G01*
G04 APERTURE LIST*
%ADD10C,0.150000*%
%ADD11C,0.200000*%
%ADD12C,0.120000*%
%ADD13C,0.100000*%
G04 APERTURE END LIST*
D10*
X76008094Y-89297380D02*
X76008094Y-88297380D01*
X76008094Y-88297380D02*
X75769999Y-88297380D01*
X75769999Y-88297380D02*
X75627142Y-88345000D01*
X75627142Y-88345000D02*
X75531904Y-88440238D01*
X75531904Y-88440238D02*
X75484285Y-88535476D01*
X75484285Y-88535476D02*
X75436666Y-88725952D01*
X75436666Y-88725952D02*
X75436666Y-88868809D01*
X75436666Y-88868809D02*
X75484285Y-89059285D01*
X75484285Y-89059285D02*
X75531904Y-89154523D01*
X75531904Y-89154523D02*
X75627142Y-89249761D01*
X75627142Y-89249761D02*
X75769999Y-89297380D01*
X75769999Y-89297380D02*
X76008094Y-89297380D01*
X74579523Y-88297380D02*
X74769999Y-88297380D01*
X74769999Y-88297380D02*
X74865237Y-88345000D01*
X74865237Y-88345000D02*
X74912856Y-88392619D01*
X74912856Y-88392619D02*
X75008094Y-88535476D01*
X75008094Y-88535476D02*
X75055713Y-88725952D01*
X75055713Y-88725952D02*
X75055713Y-89106904D01*
X75055713Y-89106904D02*
X75008094Y-89202142D01*
X75008094Y-89202142D02*
X74960475Y-89249761D01*
X74960475Y-89249761D02*
X74865237Y-89297380D01*
X74865237Y-89297380D02*
X74674761Y-89297380D01*
X74674761Y-89297380D02*
X74579523Y-89249761D01*
X74579523Y-89249761D02*
X74531904Y-89202142D01*
X74531904Y-89202142D02*
X74484285Y-89106904D01*
X74484285Y-89106904D02*
X74484285Y-88868809D01*
X74484285Y-88868809D02*
X74531904Y-88773571D01*
X74531904Y-88773571D02*
X74579523Y-88725952D01*
X74579523Y-88725952D02*
X74674761Y-88678333D01*
X74674761Y-88678333D02*
X74865237Y-88678333D01*
X74865237Y-88678333D02*
X74960475Y-88725952D01*
X74960475Y-88725952D02*
X75008094Y-88773571D01*
X75008094Y-88773571D02*
X75055713Y-88868809D01*
X70834285Y-87397380D02*
X71405713Y-87397380D01*
X71119999Y-87397380D02*
X71119999Y-86397380D01*
X71119999Y-86397380D02*
X71215237Y-86540238D01*
X71215237Y-86540238D02*
X71310475Y-86635476D01*
X71310475Y-86635476D02*
X71405713Y-86683095D01*
X71042857Y-86152142D02*
X71090476Y-86199761D01*
X71090476Y-86199761D02*
X71233333Y-86247380D01*
X71233333Y-86247380D02*
X71328571Y-86247380D01*
X71328571Y-86247380D02*
X71471428Y-86199761D01*
X71471428Y-86199761D02*
X71566666Y-86104523D01*
X71566666Y-86104523D02*
X71614285Y-86009285D01*
X71614285Y-86009285D02*
X71661904Y-85818809D01*
X71661904Y-85818809D02*
X71661904Y-85675952D01*
X71661904Y-85675952D02*
X71614285Y-85485476D01*
X71614285Y-85485476D02*
X71566666Y-85390238D01*
X71566666Y-85390238D02*
X71471428Y-85295000D01*
X71471428Y-85295000D02*
X71328571Y-85247380D01*
X71328571Y-85247380D02*
X71233333Y-85247380D01*
X71233333Y-85247380D02*
X71090476Y-85295000D01*
X71090476Y-85295000D02*
X71042857Y-85342619D01*
X70661904Y-85342619D02*
X70614285Y-85295000D01*
X70614285Y-85295000D02*
X70519047Y-85247380D01*
X70519047Y-85247380D02*
X70280952Y-85247380D01*
X70280952Y-85247380D02*
X70185714Y-85295000D01*
X70185714Y-85295000D02*
X70138095Y-85342619D01*
X70138095Y-85342619D02*
X70090476Y-85437857D01*
X70090476Y-85437857D02*
X70090476Y-85533095D01*
X70090476Y-85533095D02*
X70138095Y-85675952D01*
X70138095Y-85675952D02*
X70709523Y-86247380D01*
X70709523Y-86247380D02*
X70090476Y-86247380D01*
X69757142Y-85247380D02*
X69090476Y-85247380D01*
X69090476Y-85247380D02*
X69519047Y-86247380D01*
X83866666Y-81512142D02*
X83914285Y-81559761D01*
X83914285Y-81559761D02*
X84057142Y-81607380D01*
X84057142Y-81607380D02*
X84152380Y-81607380D01*
X84152380Y-81607380D02*
X84295237Y-81559761D01*
X84295237Y-81559761D02*
X84390475Y-81464523D01*
X84390475Y-81464523D02*
X84438094Y-81369285D01*
X84438094Y-81369285D02*
X84485713Y-81178809D01*
X84485713Y-81178809D02*
X84485713Y-81035952D01*
X84485713Y-81035952D02*
X84438094Y-80845476D01*
X84438094Y-80845476D02*
X84390475Y-80750238D01*
X84390475Y-80750238D02*
X84295237Y-80655000D01*
X84295237Y-80655000D02*
X84152380Y-80607380D01*
X84152380Y-80607380D02*
X84057142Y-80607380D01*
X84057142Y-80607380D02*
X83914285Y-80655000D01*
X83914285Y-80655000D02*
X83866666Y-80702619D01*
X83485713Y-80702619D02*
X83438094Y-80655000D01*
X83438094Y-80655000D02*
X83342856Y-80607380D01*
X83342856Y-80607380D02*
X83104761Y-80607380D01*
X83104761Y-80607380D02*
X83009523Y-80655000D01*
X83009523Y-80655000D02*
X82961904Y-80702619D01*
X82961904Y-80702619D02*
X82914285Y-80797857D01*
X82914285Y-80797857D02*
X82914285Y-80893095D01*
X82914285Y-80893095D02*
X82961904Y-81035952D01*
X82961904Y-81035952D02*
X83533332Y-81607380D01*
X83533332Y-81607380D02*
X82914285Y-81607380D01*
X98670357Y-91196142D02*
X98717976Y-91243761D01*
X98717976Y-91243761D02*
X98860833Y-91291380D01*
X98860833Y-91291380D02*
X98956071Y-91291380D01*
X98956071Y-91291380D02*
X99098928Y-91243761D01*
X99098928Y-91243761D02*
X99194166Y-91148523D01*
X99194166Y-91148523D02*
X99241785Y-91053285D01*
X99241785Y-91053285D02*
X99289404Y-90862809D01*
X99289404Y-90862809D02*
X99289404Y-90719952D01*
X99289404Y-90719952D02*
X99241785Y-90529476D01*
X99241785Y-90529476D02*
X99194166Y-90434238D01*
X99194166Y-90434238D02*
X99098928Y-90339000D01*
X99098928Y-90339000D02*
X98956071Y-90291380D01*
X98956071Y-90291380D02*
X98860833Y-90291380D01*
X98860833Y-90291380D02*
X98717976Y-90339000D01*
X98717976Y-90339000D02*
X98670357Y-90386619D01*
X97717976Y-91291380D02*
X98289404Y-91291380D01*
X98003690Y-91291380D02*
X98003690Y-90291380D01*
X98003690Y-90291380D02*
X98098928Y-90434238D01*
X98098928Y-90434238D02*
X98194166Y-90529476D01*
X98194166Y-90529476D02*
X98289404Y-90577095D01*
X97337023Y-90386619D02*
X97289404Y-90339000D01*
X97289404Y-90339000D02*
X97194166Y-90291380D01*
X97194166Y-90291380D02*
X96956071Y-90291380D01*
X96956071Y-90291380D02*
X96860833Y-90339000D01*
X96860833Y-90339000D02*
X96813214Y-90386619D01*
X96813214Y-90386619D02*
X96765595Y-90481857D01*
X96765595Y-90481857D02*
X96765595Y-90577095D01*
X96765595Y-90577095D02*
X96813214Y-90719952D01*
X96813214Y-90719952D02*
X97384642Y-91291380D01*
X97384642Y-91291380D02*
X96765595Y-91291380D01*
X97850357Y-89932142D02*
X97897976Y-89979761D01*
X97897976Y-89979761D02*
X98040833Y-90027380D01*
X98040833Y-90027380D02*
X98136071Y-90027380D01*
X98136071Y-90027380D02*
X98278928Y-89979761D01*
X98278928Y-89979761D02*
X98374166Y-89884523D01*
X98374166Y-89884523D02*
X98421785Y-89789285D01*
X98421785Y-89789285D02*
X98469404Y-89598809D01*
X98469404Y-89598809D02*
X98469404Y-89455952D01*
X98469404Y-89455952D02*
X98421785Y-89265476D01*
X98421785Y-89265476D02*
X98374166Y-89170238D01*
X98374166Y-89170238D02*
X98278928Y-89075000D01*
X98278928Y-89075000D02*
X98136071Y-89027380D01*
X98136071Y-89027380D02*
X98040833Y-89027380D01*
X98040833Y-89027380D02*
X97897976Y-89075000D01*
X97897976Y-89075000D02*
X97850357Y-89122619D01*
X96897976Y-90027380D02*
X97469404Y-90027380D01*
X97183690Y-90027380D02*
X97183690Y-89027380D01*
X97183690Y-89027380D02*
X97278928Y-89170238D01*
X97278928Y-89170238D02*
X97374166Y-89265476D01*
X97374166Y-89265476D02*
X97469404Y-89313095D01*
X95945595Y-90027380D02*
X96517023Y-90027380D01*
X96231309Y-90027380D02*
X96231309Y-89027380D01*
X96231309Y-89027380D02*
X96326547Y-89170238D01*
X96326547Y-89170238D02*
X96421785Y-89265476D01*
X96421785Y-89265476D02*
X96517023Y-89313095D01*
X108929166Y-92459642D02*
X108976785Y-92507261D01*
X108976785Y-92507261D02*
X109119642Y-92554880D01*
X109119642Y-92554880D02*
X109214880Y-92554880D01*
X109214880Y-92554880D02*
X109357737Y-92507261D01*
X109357737Y-92507261D02*
X109452975Y-92412023D01*
X109452975Y-92412023D02*
X109500594Y-92316785D01*
X109500594Y-92316785D02*
X109548213Y-92126309D01*
X109548213Y-92126309D02*
X109548213Y-91983452D01*
X109548213Y-91983452D02*
X109500594Y-91792976D01*
X109500594Y-91792976D02*
X109452975Y-91697738D01*
X109452975Y-91697738D02*
X109357737Y-91602500D01*
X109357737Y-91602500D02*
X109214880Y-91554880D01*
X109214880Y-91554880D02*
X109119642Y-91554880D01*
X109119642Y-91554880D02*
X108976785Y-91602500D01*
X108976785Y-91602500D02*
X108929166Y-91650119D01*
X108357737Y-91983452D02*
X108452975Y-91935833D01*
X108452975Y-91935833D02*
X108500594Y-91888214D01*
X108500594Y-91888214D02*
X108548213Y-91792976D01*
X108548213Y-91792976D02*
X108548213Y-91745357D01*
X108548213Y-91745357D02*
X108500594Y-91650119D01*
X108500594Y-91650119D02*
X108452975Y-91602500D01*
X108452975Y-91602500D02*
X108357737Y-91554880D01*
X108357737Y-91554880D02*
X108167261Y-91554880D01*
X108167261Y-91554880D02*
X108072023Y-91602500D01*
X108072023Y-91602500D02*
X108024404Y-91650119D01*
X108024404Y-91650119D02*
X107976785Y-91745357D01*
X107976785Y-91745357D02*
X107976785Y-91792976D01*
X107976785Y-91792976D02*
X108024404Y-91888214D01*
X108024404Y-91888214D02*
X108072023Y-91935833D01*
X108072023Y-91935833D02*
X108167261Y-91983452D01*
X108167261Y-91983452D02*
X108357737Y-91983452D01*
X108357737Y-91983452D02*
X108452975Y-92031071D01*
X108452975Y-92031071D02*
X108500594Y-92078690D01*
X108500594Y-92078690D02*
X108548213Y-92173928D01*
X108548213Y-92173928D02*
X108548213Y-92364404D01*
X108548213Y-92364404D02*
X108500594Y-92459642D01*
X108500594Y-92459642D02*
X108452975Y-92507261D01*
X108452975Y-92507261D02*
X108357737Y-92554880D01*
X108357737Y-92554880D02*
X108167261Y-92554880D01*
X108167261Y-92554880D02*
X108072023Y-92507261D01*
X108072023Y-92507261D02*
X108024404Y-92459642D01*
X108024404Y-92459642D02*
X107976785Y-92364404D01*
X107976785Y-92364404D02*
X107976785Y-92173928D01*
X107976785Y-92173928D02*
X108024404Y-92078690D01*
X108024404Y-92078690D02*
X108072023Y-92031071D01*
X108072023Y-92031071D02*
X108167261Y-91983452D01*
X81471904Y-76647380D02*
X81471904Y-77456904D01*
X81471904Y-77456904D02*
X81424285Y-77552142D01*
X81424285Y-77552142D02*
X81376666Y-77599761D01*
X81376666Y-77599761D02*
X81281428Y-77647380D01*
X81281428Y-77647380D02*
X81090952Y-77647380D01*
X81090952Y-77647380D02*
X80995714Y-77599761D01*
X80995714Y-77599761D02*
X80948095Y-77552142D01*
X80948095Y-77552142D02*
X80900476Y-77456904D01*
X80900476Y-77456904D02*
X80900476Y-76647380D01*
X79900476Y-77647380D02*
X80471904Y-77647380D01*
X80186190Y-77647380D02*
X80186190Y-76647380D01*
X80186190Y-76647380D02*
X80281428Y-76790238D01*
X80281428Y-76790238D02*
X80376666Y-76885476D01*
X80376666Y-76885476D02*
X80471904Y-76933095D01*
X110214404Y-80059880D02*
X110214404Y-80869404D01*
X110214404Y-80869404D02*
X110166785Y-80964642D01*
X110166785Y-80964642D02*
X110119166Y-81012261D01*
X110119166Y-81012261D02*
X110023928Y-81059880D01*
X110023928Y-81059880D02*
X109833452Y-81059880D01*
X109833452Y-81059880D02*
X109738214Y-81012261D01*
X109738214Y-81012261D02*
X109690595Y-80964642D01*
X109690595Y-80964642D02*
X109642976Y-80869404D01*
X109642976Y-80869404D02*
X109642976Y-80059880D01*
X108738214Y-80393214D02*
X108738214Y-81059880D01*
X108976309Y-80012261D02*
X109214404Y-80726547D01*
X109214404Y-80726547D02*
X108595357Y-80726547D01*
X117411161Y-86565642D02*
X117458780Y-86518023D01*
X117458780Y-86518023D02*
X117506399Y-86375166D01*
X117506399Y-86375166D02*
X117506399Y-86279928D01*
X117506399Y-86279928D02*
X117458780Y-86137071D01*
X117458780Y-86137071D02*
X117363542Y-86041833D01*
X117363542Y-86041833D02*
X117268304Y-85994214D01*
X117268304Y-85994214D02*
X117077828Y-85946595D01*
X117077828Y-85946595D02*
X116934971Y-85946595D01*
X116934971Y-85946595D02*
X116744495Y-85994214D01*
X116744495Y-85994214D02*
X116649257Y-86041833D01*
X116649257Y-86041833D02*
X116554019Y-86137071D01*
X116554019Y-86137071D02*
X116506399Y-86279928D01*
X116506399Y-86279928D02*
X116506399Y-86375166D01*
X116506399Y-86375166D02*
X116554019Y-86518023D01*
X116554019Y-86518023D02*
X116601638Y-86565642D01*
X117506399Y-87518023D02*
X117506399Y-86946595D01*
X117506399Y-87232309D02*
X116506399Y-87232309D01*
X116506399Y-87232309D02*
X116649257Y-87137071D01*
X116649257Y-87137071D02*
X116744495Y-87041833D01*
X116744495Y-87041833D02*
X116792114Y-86946595D01*
X116934971Y-88089452D02*
X116887352Y-87994214D01*
X116887352Y-87994214D02*
X116839733Y-87946595D01*
X116839733Y-87946595D02*
X116744495Y-87898976D01*
X116744495Y-87898976D02*
X116696876Y-87898976D01*
X116696876Y-87898976D02*
X116601638Y-87946595D01*
X116601638Y-87946595D02*
X116554019Y-87994214D01*
X116554019Y-87994214D02*
X116506399Y-88089452D01*
X116506399Y-88089452D02*
X116506399Y-88279928D01*
X116506399Y-88279928D02*
X116554019Y-88375166D01*
X116554019Y-88375166D02*
X116601638Y-88422785D01*
X116601638Y-88422785D02*
X116696876Y-88470404D01*
X116696876Y-88470404D02*
X116744495Y-88470404D01*
X116744495Y-88470404D02*
X116839733Y-88422785D01*
X116839733Y-88422785D02*
X116887352Y-88375166D01*
X116887352Y-88375166D02*
X116934971Y-88279928D01*
X116934971Y-88279928D02*
X116934971Y-88089452D01*
X116934971Y-88089452D02*
X116982590Y-87994214D01*
X116982590Y-87994214D02*
X117030209Y-87946595D01*
X117030209Y-87946595D02*
X117125447Y-87898976D01*
X117125447Y-87898976D02*
X117315923Y-87898976D01*
X117315923Y-87898976D02*
X117411161Y-87946595D01*
X117411161Y-87946595D02*
X117458780Y-87994214D01*
X117458780Y-87994214D02*
X117506399Y-88089452D01*
X117506399Y-88089452D02*
X117506399Y-88279928D01*
X117506399Y-88279928D02*
X117458780Y-88375166D01*
X117458780Y-88375166D02*
X117411161Y-88422785D01*
X117411161Y-88422785D02*
X117315923Y-88470404D01*
X117315923Y-88470404D02*
X117125447Y-88470404D01*
X117125447Y-88470404D02*
X117030209Y-88422785D01*
X117030209Y-88422785D02*
X116982590Y-88375166D01*
X116982590Y-88375166D02*
X116934971Y-88279928D01*
X98489166Y-86009642D02*
X98536785Y-86057261D01*
X98536785Y-86057261D02*
X98679642Y-86104880D01*
X98679642Y-86104880D02*
X98774880Y-86104880D01*
X98774880Y-86104880D02*
X98917737Y-86057261D01*
X98917737Y-86057261D02*
X99012975Y-85962023D01*
X99012975Y-85962023D02*
X99060594Y-85866785D01*
X99060594Y-85866785D02*
X99108213Y-85676309D01*
X99108213Y-85676309D02*
X99108213Y-85533452D01*
X99108213Y-85533452D02*
X99060594Y-85342976D01*
X99060594Y-85342976D02*
X99012975Y-85247738D01*
X99012975Y-85247738D02*
X98917737Y-85152500D01*
X98917737Y-85152500D02*
X98774880Y-85104880D01*
X98774880Y-85104880D02*
X98679642Y-85104880D01*
X98679642Y-85104880D02*
X98536785Y-85152500D01*
X98536785Y-85152500D02*
X98489166Y-85200119D01*
X97584404Y-85104880D02*
X98060594Y-85104880D01*
X98060594Y-85104880D02*
X98108213Y-85581071D01*
X98108213Y-85581071D02*
X98060594Y-85533452D01*
X98060594Y-85533452D02*
X97965356Y-85485833D01*
X97965356Y-85485833D02*
X97727261Y-85485833D01*
X97727261Y-85485833D02*
X97632023Y-85533452D01*
X97632023Y-85533452D02*
X97584404Y-85581071D01*
X97584404Y-85581071D02*
X97536785Y-85676309D01*
X97536785Y-85676309D02*
X97536785Y-85914404D01*
X97536785Y-85914404D02*
X97584404Y-86009642D01*
X97584404Y-86009642D02*
X97632023Y-86057261D01*
X97632023Y-86057261D02*
X97727261Y-86104880D01*
X97727261Y-86104880D02*
X97965356Y-86104880D01*
X97965356Y-86104880D02*
X98060594Y-86057261D01*
X98060594Y-86057261D02*
X98108213Y-86009642D01*
X105806666Y-82692142D02*
X105854285Y-82739761D01*
X105854285Y-82739761D02*
X105997142Y-82787380D01*
X105997142Y-82787380D02*
X106092380Y-82787380D01*
X106092380Y-82787380D02*
X106235237Y-82739761D01*
X106235237Y-82739761D02*
X106330475Y-82644523D01*
X106330475Y-82644523D02*
X106378094Y-82549285D01*
X106378094Y-82549285D02*
X106425713Y-82358809D01*
X106425713Y-82358809D02*
X106425713Y-82215952D01*
X106425713Y-82215952D02*
X106378094Y-82025476D01*
X106378094Y-82025476D02*
X106330475Y-81930238D01*
X106330475Y-81930238D02*
X106235237Y-81835000D01*
X106235237Y-81835000D02*
X106092380Y-81787380D01*
X106092380Y-81787380D02*
X105997142Y-81787380D01*
X105997142Y-81787380D02*
X105854285Y-81835000D01*
X105854285Y-81835000D02*
X105806666Y-81882619D01*
X105473332Y-81787380D02*
X104806666Y-81787380D01*
X104806666Y-81787380D02*
X105235237Y-82787380D01*
X112444642Y-85240642D02*
X112492261Y-85193023D01*
X112492261Y-85193023D02*
X112539880Y-85050166D01*
X112539880Y-85050166D02*
X112539880Y-84954928D01*
X112539880Y-84954928D02*
X112492261Y-84812071D01*
X112492261Y-84812071D02*
X112397023Y-84716833D01*
X112397023Y-84716833D02*
X112301785Y-84669214D01*
X112301785Y-84669214D02*
X112111309Y-84621595D01*
X112111309Y-84621595D02*
X111968452Y-84621595D01*
X111968452Y-84621595D02*
X111777976Y-84669214D01*
X111777976Y-84669214D02*
X111682738Y-84716833D01*
X111682738Y-84716833D02*
X111587500Y-84812071D01*
X111587500Y-84812071D02*
X111539880Y-84954928D01*
X111539880Y-84954928D02*
X111539880Y-85050166D01*
X111539880Y-85050166D02*
X111587500Y-85193023D01*
X111587500Y-85193023D02*
X111635119Y-85240642D01*
X112539880Y-86193023D02*
X112539880Y-85621595D01*
X112539880Y-85907309D02*
X111539880Y-85907309D01*
X111539880Y-85907309D02*
X111682738Y-85812071D01*
X111682738Y-85812071D02*
X111777976Y-85716833D01*
X111777976Y-85716833D02*
X111825595Y-85621595D01*
X111539880Y-86812071D02*
X111539880Y-86907309D01*
X111539880Y-86907309D02*
X111587500Y-87002547D01*
X111587500Y-87002547D02*
X111635119Y-87050166D01*
X111635119Y-87050166D02*
X111730357Y-87097785D01*
X111730357Y-87097785D02*
X111920833Y-87145404D01*
X111920833Y-87145404D02*
X112158928Y-87145404D01*
X112158928Y-87145404D02*
X112349404Y-87097785D01*
X112349404Y-87097785D02*
X112444642Y-87050166D01*
X112444642Y-87050166D02*
X112492261Y-87002547D01*
X112492261Y-87002547D02*
X112539880Y-86907309D01*
X112539880Y-86907309D02*
X112539880Y-86812071D01*
X112539880Y-86812071D02*
X112492261Y-86716833D01*
X112492261Y-86716833D02*
X112444642Y-86669214D01*
X112444642Y-86669214D02*
X112349404Y-86621595D01*
X112349404Y-86621595D02*
X112158928Y-86573976D01*
X112158928Y-86573976D02*
X111920833Y-86573976D01*
X111920833Y-86573976D02*
X111730357Y-86621595D01*
X111730357Y-86621595D02*
X111635119Y-86669214D01*
X111635119Y-86669214D02*
X111587500Y-86716833D01*
X111587500Y-86716833D02*
X111539880Y-86812071D01*
X97488290Y-87412380D02*
X97821623Y-86936190D01*
X98059718Y-87412380D02*
X98059718Y-86412380D01*
X98059718Y-86412380D02*
X97678766Y-86412380D01*
X97678766Y-86412380D02*
X97583528Y-86460000D01*
X97583528Y-86460000D02*
X97535909Y-86507619D01*
X97535909Y-86507619D02*
X97488290Y-86602857D01*
X97488290Y-86602857D02*
X97488290Y-86745714D01*
X97488290Y-86745714D02*
X97535909Y-86840952D01*
X97535909Y-86840952D02*
X97583528Y-86888571D01*
X97583528Y-86888571D02*
X97678766Y-86936190D01*
X97678766Y-86936190D02*
X98059718Y-86936190D01*
X96583528Y-86412380D02*
X97059718Y-86412380D01*
X97059718Y-86412380D02*
X97107337Y-86888571D01*
X97107337Y-86888571D02*
X97059718Y-86840952D01*
X97059718Y-86840952D02*
X96964480Y-86793333D01*
X96964480Y-86793333D02*
X96726385Y-86793333D01*
X96726385Y-86793333D02*
X96631147Y-86840952D01*
X96631147Y-86840952D02*
X96583528Y-86888571D01*
X96583528Y-86888571D02*
X96535909Y-86983809D01*
X96535909Y-86983809D02*
X96535909Y-87221904D01*
X96535909Y-87221904D02*
X96583528Y-87317142D01*
X96583528Y-87317142D02*
X96631147Y-87364761D01*
X96631147Y-87364761D02*
X96726385Y-87412380D01*
X96726385Y-87412380D02*
X96964480Y-87412380D01*
X96964480Y-87412380D02*
X97059718Y-87364761D01*
X97059718Y-87364761D02*
X97107337Y-87317142D01*
X113904642Y-88723333D02*
X113952261Y-88675714D01*
X113952261Y-88675714D02*
X113999880Y-88532857D01*
X113999880Y-88532857D02*
X113999880Y-88437619D01*
X113999880Y-88437619D02*
X113952261Y-88294762D01*
X113952261Y-88294762D02*
X113857023Y-88199524D01*
X113857023Y-88199524D02*
X113761785Y-88151905D01*
X113761785Y-88151905D02*
X113571309Y-88104286D01*
X113571309Y-88104286D02*
X113428452Y-88104286D01*
X113428452Y-88104286D02*
X113237976Y-88151905D01*
X113237976Y-88151905D02*
X113142738Y-88199524D01*
X113142738Y-88199524D02*
X113047500Y-88294762D01*
X113047500Y-88294762D02*
X112999880Y-88437619D01*
X112999880Y-88437619D02*
X112999880Y-88532857D01*
X112999880Y-88532857D02*
X113047500Y-88675714D01*
X113047500Y-88675714D02*
X113095119Y-88723333D01*
X113333214Y-89580476D02*
X113999880Y-89580476D01*
X112952261Y-89342381D02*
X113666547Y-89104286D01*
X113666547Y-89104286D02*
X113666547Y-89723333D01*
X90486666Y-78592142D02*
X90534285Y-78639761D01*
X90534285Y-78639761D02*
X90677142Y-78687380D01*
X90677142Y-78687380D02*
X90772380Y-78687380D01*
X90772380Y-78687380D02*
X90915237Y-78639761D01*
X90915237Y-78639761D02*
X91010475Y-78544523D01*
X91010475Y-78544523D02*
X91058094Y-78449285D01*
X91058094Y-78449285D02*
X91105713Y-78258809D01*
X91105713Y-78258809D02*
X91105713Y-78115952D01*
X91105713Y-78115952D02*
X91058094Y-77925476D01*
X91058094Y-77925476D02*
X91010475Y-77830238D01*
X91010475Y-77830238D02*
X90915237Y-77735000D01*
X90915237Y-77735000D02*
X90772380Y-77687380D01*
X90772380Y-77687380D02*
X90677142Y-77687380D01*
X90677142Y-77687380D02*
X90534285Y-77735000D01*
X90534285Y-77735000D02*
X90486666Y-77782619D01*
X89534285Y-78687380D02*
X90105713Y-78687380D01*
X89819999Y-78687380D02*
X89819999Y-77687380D01*
X89819999Y-77687380D02*
X89915237Y-77830238D01*
X89915237Y-77830238D02*
X90010475Y-77925476D01*
X90010475Y-77925476D02*
X90105713Y-77973095D01*
X109156666Y-82662142D02*
X109204285Y-82709761D01*
X109204285Y-82709761D02*
X109347142Y-82757380D01*
X109347142Y-82757380D02*
X109442380Y-82757380D01*
X109442380Y-82757380D02*
X109585237Y-82709761D01*
X109585237Y-82709761D02*
X109680475Y-82614523D01*
X109680475Y-82614523D02*
X109728094Y-82519285D01*
X109728094Y-82519285D02*
X109775713Y-82328809D01*
X109775713Y-82328809D02*
X109775713Y-82185952D01*
X109775713Y-82185952D02*
X109728094Y-81995476D01*
X109728094Y-81995476D02*
X109680475Y-81900238D01*
X109680475Y-81900238D02*
X109585237Y-81805000D01*
X109585237Y-81805000D02*
X109442380Y-81757380D01*
X109442380Y-81757380D02*
X109347142Y-81757380D01*
X109347142Y-81757380D02*
X109204285Y-81805000D01*
X109204285Y-81805000D02*
X109156666Y-81852619D01*
X108299523Y-81757380D02*
X108489999Y-81757380D01*
X108489999Y-81757380D02*
X108585237Y-81805000D01*
X108585237Y-81805000D02*
X108632856Y-81852619D01*
X108632856Y-81852619D02*
X108728094Y-81995476D01*
X108728094Y-81995476D02*
X108775713Y-82185952D01*
X108775713Y-82185952D02*
X108775713Y-82566904D01*
X108775713Y-82566904D02*
X108728094Y-82662142D01*
X108728094Y-82662142D02*
X108680475Y-82709761D01*
X108680475Y-82709761D02*
X108585237Y-82757380D01*
X108585237Y-82757380D02*
X108394761Y-82757380D01*
X108394761Y-82757380D02*
X108299523Y-82709761D01*
X108299523Y-82709761D02*
X108251904Y-82662142D01*
X108251904Y-82662142D02*
X108204285Y-82566904D01*
X108204285Y-82566904D02*
X108204285Y-82328809D01*
X108204285Y-82328809D02*
X108251904Y-82233571D01*
X108251904Y-82233571D02*
X108299523Y-82185952D01*
X108299523Y-82185952D02*
X108394761Y-82138333D01*
X108394761Y-82138333D02*
X108585237Y-82138333D01*
X108585237Y-82138333D02*
X108680475Y-82185952D01*
X108680475Y-82185952D02*
X108728094Y-82233571D01*
X108728094Y-82233571D02*
X108775713Y-82328809D01*
X109152142Y-69352142D02*
X109199761Y-69304523D01*
X109199761Y-69304523D02*
X109247380Y-69161666D01*
X109247380Y-69161666D02*
X109247380Y-69066428D01*
X109247380Y-69066428D02*
X109199761Y-68923571D01*
X109199761Y-68923571D02*
X109104523Y-68828333D01*
X109104523Y-68828333D02*
X109009285Y-68780714D01*
X109009285Y-68780714D02*
X108818809Y-68733095D01*
X108818809Y-68733095D02*
X108675952Y-68733095D01*
X108675952Y-68733095D02*
X108485476Y-68780714D01*
X108485476Y-68780714D02*
X108390238Y-68828333D01*
X108390238Y-68828333D02*
X108295000Y-68923571D01*
X108295000Y-68923571D02*
X108247380Y-69066428D01*
X108247380Y-69066428D02*
X108247380Y-69161666D01*
X108247380Y-69161666D02*
X108295000Y-69304523D01*
X108295000Y-69304523D02*
X108342619Y-69352142D01*
X109247380Y-70304523D02*
X109247380Y-69733095D01*
X109247380Y-70018809D02*
X108247380Y-70018809D01*
X108247380Y-70018809D02*
X108390238Y-69923571D01*
X108390238Y-69923571D02*
X108485476Y-69828333D01*
X108485476Y-69828333D02*
X108533095Y-69733095D01*
X108247380Y-71161666D02*
X108247380Y-70971190D01*
X108247380Y-70971190D02*
X108295000Y-70875952D01*
X108295000Y-70875952D02*
X108342619Y-70828333D01*
X108342619Y-70828333D02*
X108485476Y-70733095D01*
X108485476Y-70733095D02*
X108675952Y-70685476D01*
X108675952Y-70685476D02*
X109056904Y-70685476D01*
X109056904Y-70685476D02*
X109152142Y-70733095D01*
X109152142Y-70733095D02*
X109199761Y-70780714D01*
X109199761Y-70780714D02*
X109247380Y-70875952D01*
X109247380Y-70875952D02*
X109247380Y-71066428D01*
X109247380Y-71066428D02*
X109199761Y-71161666D01*
X109199761Y-71161666D02*
X109152142Y-71209285D01*
X109152142Y-71209285D02*
X109056904Y-71256904D01*
X109056904Y-71256904D02*
X108818809Y-71256904D01*
X108818809Y-71256904D02*
X108723571Y-71209285D01*
X108723571Y-71209285D02*
X108675952Y-71161666D01*
X108675952Y-71161666D02*
X108628333Y-71066428D01*
X108628333Y-71066428D02*
X108628333Y-70875952D01*
X108628333Y-70875952D02*
X108675952Y-70780714D01*
X108675952Y-70780714D02*
X108723571Y-70733095D01*
X108723571Y-70733095D02*
X108818809Y-70685476D01*
X102014880Y-81495595D02*
X102824404Y-81495595D01*
X102824404Y-81495595D02*
X102919642Y-81543214D01*
X102919642Y-81543214D02*
X102967261Y-81590833D01*
X102967261Y-81590833D02*
X103014880Y-81686071D01*
X103014880Y-81686071D02*
X103014880Y-81876547D01*
X103014880Y-81876547D02*
X102967261Y-81971785D01*
X102967261Y-81971785D02*
X102919642Y-82019404D01*
X102919642Y-82019404D02*
X102824404Y-82067023D01*
X102824404Y-82067023D02*
X102014880Y-82067023D01*
X102014880Y-83019404D02*
X102014880Y-82543214D01*
X102014880Y-82543214D02*
X102491071Y-82495595D01*
X102491071Y-82495595D02*
X102443452Y-82543214D01*
X102443452Y-82543214D02*
X102395833Y-82638452D01*
X102395833Y-82638452D02*
X102395833Y-82876547D01*
X102395833Y-82876547D02*
X102443452Y-82971785D01*
X102443452Y-82971785D02*
X102491071Y-83019404D01*
X102491071Y-83019404D02*
X102586309Y-83067023D01*
X102586309Y-83067023D02*
X102824404Y-83067023D01*
X102824404Y-83067023D02*
X102919642Y-83019404D01*
X102919642Y-83019404D02*
X102967261Y-82971785D01*
X102967261Y-82971785D02*
X103014880Y-82876547D01*
X103014880Y-82876547D02*
X103014880Y-82638452D01*
X103014880Y-82638452D02*
X102967261Y-82543214D01*
X102967261Y-82543214D02*
X102919642Y-82495595D01*
X116497161Y-79495642D02*
X116544780Y-79448023D01*
X116544780Y-79448023D02*
X116592399Y-79305166D01*
X116592399Y-79305166D02*
X116592399Y-79209928D01*
X116592399Y-79209928D02*
X116544780Y-79067071D01*
X116544780Y-79067071D02*
X116449542Y-78971833D01*
X116449542Y-78971833D02*
X116354304Y-78924214D01*
X116354304Y-78924214D02*
X116163828Y-78876595D01*
X116163828Y-78876595D02*
X116020971Y-78876595D01*
X116020971Y-78876595D02*
X115830495Y-78924214D01*
X115830495Y-78924214D02*
X115735257Y-78971833D01*
X115735257Y-78971833D02*
X115640019Y-79067071D01*
X115640019Y-79067071D02*
X115592399Y-79209928D01*
X115592399Y-79209928D02*
X115592399Y-79305166D01*
X115592399Y-79305166D02*
X115640019Y-79448023D01*
X115640019Y-79448023D02*
X115687638Y-79495642D01*
X116592399Y-80448023D02*
X116592399Y-79876595D01*
X116592399Y-80162309D02*
X115592399Y-80162309D01*
X115592399Y-80162309D02*
X115735257Y-80067071D01*
X115735257Y-80067071D02*
X115830495Y-79971833D01*
X115830495Y-79971833D02*
X115878114Y-79876595D01*
X115592399Y-80781357D02*
X115592399Y-81448023D01*
X115592399Y-81448023D02*
X116592399Y-81019452D01*
X97488290Y-88712380D02*
X97821623Y-88236190D01*
X98059718Y-88712380D02*
X98059718Y-87712380D01*
X98059718Y-87712380D02*
X97678766Y-87712380D01*
X97678766Y-87712380D02*
X97583528Y-87760000D01*
X97583528Y-87760000D02*
X97535909Y-87807619D01*
X97535909Y-87807619D02*
X97488290Y-87902857D01*
X97488290Y-87902857D02*
X97488290Y-88045714D01*
X97488290Y-88045714D02*
X97535909Y-88140952D01*
X97535909Y-88140952D02*
X97583528Y-88188571D01*
X97583528Y-88188571D02*
X97678766Y-88236190D01*
X97678766Y-88236190D02*
X98059718Y-88236190D01*
X96631147Y-87712380D02*
X96821623Y-87712380D01*
X96821623Y-87712380D02*
X96916861Y-87760000D01*
X96916861Y-87760000D02*
X96964480Y-87807619D01*
X96964480Y-87807619D02*
X97059718Y-87950476D01*
X97059718Y-87950476D02*
X97107337Y-88140952D01*
X97107337Y-88140952D02*
X97107337Y-88521904D01*
X97107337Y-88521904D02*
X97059718Y-88617142D01*
X97059718Y-88617142D02*
X97012099Y-88664761D01*
X97012099Y-88664761D02*
X96916861Y-88712380D01*
X96916861Y-88712380D02*
X96726385Y-88712380D01*
X96726385Y-88712380D02*
X96631147Y-88664761D01*
X96631147Y-88664761D02*
X96583528Y-88617142D01*
X96583528Y-88617142D02*
X96535909Y-88521904D01*
X96535909Y-88521904D02*
X96535909Y-88283809D01*
X96535909Y-88283809D02*
X96583528Y-88188571D01*
X96583528Y-88188571D02*
X96631147Y-88140952D01*
X96631147Y-88140952D02*
X96726385Y-88093333D01*
X96726385Y-88093333D02*
X96916861Y-88093333D01*
X96916861Y-88093333D02*
X97012099Y-88140952D01*
X97012099Y-88140952D02*
X97059718Y-88188571D01*
X97059718Y-88188571D02*
X97107337Y-88283809D01*
X98499166Y-84439642D02*
X98546785Y-84487261D01*
X98546785Y-84487261D02*
X98689642Y-84534880D01*
X98689642Y-84534880D02*
X98784880Y-84534880D01*
X98784880Y-84534880D02*
X98927737Y-84487261D01*
X98927737Y-84487261D02*
X99022975Y-84392023D01*
X99022975Y-84392023D02*
X99070594Y-84296785D01*
X99070594Y-84296785D02*
X99118213Y-84106309D01*
X99118213Y-84106309D02*
X99118213Y-83963452D01*
X99118213Y-83963452D02*
X99070594Y-83772976D01*
X99070594Y-83772976D02*
X99022975Y-83677738D01*
X99022975Y-83677738D02*
X98927737Y-83582500D01*
X98927737Y-83582500D02*
X98784880Y-83534880D01*
X98784880Y-83534880D02*
X98689642Y-83534880D01*
X98689642Y-83534880D02*
X98546785Y-83582500D01*
X98546785Y-83582500D02*
X98499166Y-83630119D01*
X98165832Y-83534880D02*
X97546785Y-83534880D01*
X97546785Y-83534880D02*
X97880118Y-83915833D01*
X97880118Y-83915833D02*
X97737261Y-83915833D01*
X97737261Y-83915833D02*
X97642023Y-83963452D01*
X97642023Y-83963452D02*
X97594404Y-84011071D01*
X97594404Y-84011071D02*
X97546785Y-84106309D01*
X97546785Y-84106309D02*
X97546785Y-84344404D01*
X97546785Y-84344404D02*
X97594404Y-84439642D01*
X97594404Y-84439642D02*
X97642023Y-84487261D01*
X97642023Y-84487261D02*
X97737261Y-84534880D01*
X97737261Y-84534880D02*
X98022975Y-84534880D01*
X98022975Y-84534880D02*
X98118213Y-84487261D01*
X98118213Y-84487261D02*
X98165832Y-84439642D01*
X107632142Y-69372142D02*
X107679761Y-69324523D01*
X107679761Y-69324523D02*
X107727380Y-69181666D01*
X107727380Y-69181666D02*
X107727380Y-69086428D01*
X107727380Y-69086428D02*
X107679761Y-68943571D01*
X107679761Y-68943571D02*
X107584523Y-68848333D01*
X107584523Y-68848333D02*
X107489285Y-68800714D01*
X107489285Y-68800714D02*
X107298809Y-68753095D01*
X107298809Y-68753095D02*
X107155952Y-68753095D01*
X107155952Y-68753095D02*
X106965476Y-68800714D01*
X106965476Y-68800714D02*
X106870238Y-68848333D01*
X106870238Y-68848333D02*
X106775000Y-68943571D01*
X106775000Y-68943571D02*
X106727380Y-69086428D01*
X106727380Y-69086428D02*
X106727380Y-69181666D01*
X106727380Y-69181666D02*
X106775000Y-69324523D01*
X106775000Y-69324523D02*
X106822619Y-69372142D01*
X107727380Y-70324523D02*
X107727380Y-69753095D01*
X107727380Y-70038809D02*
X106727380Y-70038809D01*
X106727380Y-70038809D02*
X106870238Y-69943571D01*
X106870238Y-69943571D02*
X106965476Y-69848333D01*
X106965476Y-69848333D02*
X107013095Y-69753095D01*
X106727380Y-71229285D02*
X106727380Y-70753095D01*
X106727380Y-70753095D02*
X107203571Y-70705476D01*
X107203571Y-70705476D02*
X107155952Y-70753095D01*
X107155952Y-70753095D02*
X107108333Y-70848333D01*
X107108333Y-70848333D02*
X107108333Y-71086428D01*
X107108333Y-71086428D02*
X107155952Y-71181666D01*
X107155952Y-71181666D02*
X107203571Y-71229285D01*
X107203571Y-71229285D02*
X107298809Y-71276904D01*
X107298809Y-71276904D02*
X107536904Y-71276904D01*
X107536904Y-71276904D02*
X107632142Y-71229285D01*
X107632142Y-71229285D02*
X107679761Y-71181666D01*
X107679761Y-71181666D02*
X107727380Y-71086428D01*
X107727380Y-71086428D02*
X107727380Y-70848333D01*
X107727380Y-70848333D02*
X107679761Y-70753095D01*
X107679761Y-70753095D02*
X107632142Y-70705476D01*
X114892399Y-83071833D02*
X114416209Y-82738500D01*
X114892399Y-82500405D02*
X113892399Y-82500405D01*
X113892399Y-82500405D02*
X113892399Y-82881357D01*
X113892399Y-82881357D02*
X113940019Y-82976595D01*
X113940019Y-82976595D02*
X113987638Y-83024214D01*
X113987638Y-83024214D02*
X114082876Y-83071833D01*
X114082876Y-83071833D02*
X114225733Y-83071833D01*
X114225733Y-83071833D02*
X114320971Y-83024214D01*
X114320971Y-83024214D02*
X114368590Y-82976595D01*
X114368590Y-82976595D02*
X114416209Y-82881357D01*
X114416209Y-82881357D02*
X114416209Y-82500405D01*
X114320971Y-83643262D02*
X114273352Y-83548024D01*
X114273352Y-83548024D02*
X114225733Y-83500405D01*
X114225733Y-83500405D02*
X114130495Y-83452786D01*
X114130495Y-83452786D02*
X114082876Y-83452786D01*
X114082876Y-83452786D02*
X113987638Y-83500405D01*
X113987638Y-83500405D02*
X113940019Y-83548024D01*
X113940019Y-83548024D02*
X113892399Y-83643262D01*
X113892399Y-83643262D02*
X113892399Y-83833738D01*
X113892399Y-83833738D02*
X113940019Y-83928976D01*
X113940019Y-83928976D02*
X113987638Y-83976595D01*
X113987638Y-83976595D02*
X114082876Y-84024214D01*
X114082876Y-84024214D02*
X114130495Y-84024214D01*
X114130495Y-84024214D02*
X114225733Y-83976595D01*
X114225733Y-83976595D02*
X114273352Y-83928976D01*
X114273352Y-83928976D02*
X114320971Y-83833738D01*
X114320971Y-83833738D02*
X114320971Y-83643262D01*
X114320971Y-83643262D02*
X114368590Y-83548024D01*
X114368590Y-83548024D02*
X114416209Y-83500405D01*
X114416209Y-83500405D02*
X114511447Y-83452786D01*
X114511447Y-83452786D02*
X114701923Y-83452786D01*
X114701923Y-83452786D02*
X114797161Y-83500405D01*
X114797161Y-83500405D02*
X114844780Y-83548024D01*
X114844780Y-83548024D02*
X114892399Y-83643262D01*
X114892399Y-83643262D02*
X114892399Y-83833738D01*
X114892399Y-83833738D02*
X114844780Y-83928976D01*
X114844780Y-83928976D02*
X114797161Y-83976595D01*
X114797161Y-83976595D02*
X114701923Y-84024214D01*
X114701923Y-84024214D02*
X114511447Y-84024214D01*
X114511447Y-84024214D02*
X114416209Y-83976595D01*
X114416209Y-83976595D02*
X114368590Y-83928976D01*
X114368590Y-83928976D02*
X114320971Y-83833738D01*
X117732209Y-83303309D02*
X118208399Y-83303309D01*
X117208399Y-82969976D02*
X117732209Y-83303309D01*
X117732209Y-83303309D02*
X117208399Y-83636642D01*
X118208399Y-84493785D02*
X118208399Y-83922357D01*
X118208399Y-84208071D02*
X117208399Y-84208071D01*
X117208399Y-84208071D02*
X117351257Y-84112833D01*
X117351257Y-84112833D02*
X117446495Y-84017595D01*
X117446495Y-84017595D02*
X117494114Y-83922357D01*
D11*
X122473414Y-111897380D02*
X122473414Y-110897380D01*
X122473414Y-110897380D02*
X122235319Y-110897380D01*
X122235319Y-110897380D02*
X122092462Y-110945000D01*
X122092462Y-110945000D02*
X121997224Y-111040238D01*
X121997224Y-111040238D02*
X121949605Y-111135476D01*
X121949605Y-111135476D02*
X121901986Y-111325952D01*
X121901986Y-111325952D02*
X121901986Y-111468809D01*
X121901986Y-111468809D02*
X121949605Y-111659285D01*
X121949605Y-111659285D02*
X121997224Y-111754523D01*
X121997224Y-111754523D02*
X122092462Y-111849761D01*
X122092462Y-111849761D02*
X122235319Y-111897380D01*
X122235319Y-111897380D02*
X122473414Y-111897380D01*
X120949605Y-111897380D02*
X121521033Y-111897380D01*
X121235319Y-111897380D02*
X121235319Y-110897380D01*
X121235319Y-110897380D02*
X121330557Y-111040238D01*
X121330557Y-111040238D02*
X121425795Y-111135476D01*
X121425795Y-111135476D02*
X121521033Y-111183095D01*
D10*
X99034166Y-93678380D02*
X99367499Y-93202190D01*
X99605594Y-93678380D02*
X99605594Y-92678380D01*
X99605594Y-92678380D02*
X99224642Y-92678380D01*
X99224642Y-92678380D02*
X99129404Y-92726000D01*
X99129404Y-92726000D02*
X99081785Y-92773619D01*
X99081785Y-92773619D02*
X99034166Y-92868857D01*
X99034166Y-92868857D02*
X99034166Y-93011714D01*
X99034166Y-93011714D02*
X99081785Y-93106952D01*
X99081785Y-93106952D02*
X99129404Y-93154571D01*
X99129404Y-93154571D02*
X99224642Y-93202190D01*
X99224642Y-93202190D02*
X99605594Y-93202190D01*
X98177023Y-93011714D02*
X98177023Y-93678380D01*
X98415118Y-92630761D02*
X98653213Y-93345047D01*
X98653213Y-93345047D02*
X98034166Y-93345047D01*
X122219761Y-97452381D02*
X122267380Y-97595238D01*
X122267380Y-97595238D02*
X122267380Y-97833333D01*
X122267380Y-97833333D02*
X122219761Y-97928571D01*
X122219761Y-97928571D02*
X122172142Y-97976190D01*
X122172142Y-97976190D02*
X122076904Y-98023809D01*
X122076904Y-98023809D02*
X121981666Y-98023809D01*
X121981666Y-98023809D02*
X121886428Y-97976190D01*
X121886428Y-97976190D02*
X121838809Y-97928571D01*
X121838809Y-97928571D02*
X121791190Y-97833333D01*
X121791190Y-97833333D02*
X121743571Y-97642857D01*
X121743571Y-97642857D02*
X121695952Y-97547619D01*
X121695952Y-97547619D02*
X121648333Y-97500000D01*
X121648333Y-97500000D02*
X121553095Y-97452381D01*
X121553095Y-97452381D02*
X121457857Y-97452381D01*
X121457857Y-97452381D02*
X121362619Y-97500000D01*
X121362619Y-97500000D02*
X121315000Y-97547619D01*
X121315000Y-97547619D02*
X121267380Y-97642857D01*
X121267380Y-97642857D02*
X121267380Y-97880952D01*
X121267380Y-97880952D02*
X121315000Y-98023809D01*
X122219761Y-98404762D02*
X122267380Y-98547619D01*
X122267380Y-98547619D02*
X122267380Y-98785714D01*
X122267380Y-98785714D02*
X122219761Y-98880952D01*
X122219761Y-98880952D02*
X122172142Y-98928571D01*
X122172142Y-98928571D02*
X122076904Y-98976190D01*
X122076904Y-98976190D02*
X121981666Y-98976190D01*
X121981666Y-98976190D02*
X121886428Y-98928571D01*
X121886428Y-98928571D02*
X121838809Y-98880952D01*
X121838809Y-98880952D02*
X121791190Y-98785714D01*
X121791190Y-98785714D02*
X121743571Y-98595238D01*
X121743571Y-98595238D02*
X121695952Y-98500000D01*
X121695952Y-98500000D02*
X121648333Y-98452381D01*
X121648333Y-98452381D02*
X121553095Y-98404762D01*
X121553095Y-98404762D02*
X121457857Y-98404762D01*
X121457857Y-98404762D02*
X121362619Y-98452381D01*
X121362619Y-98452381D02*
X121315000Y-98500000D01*
X121315000Y-98500000D02*
X121267380Y-98595238D01*
X121267380Y-98595238D02*
X121267380Y-98833333D01*
X121267380Y-98833333D02*
X121315000Y-98976190D01*
X121267380Y-99309524D02*
X121267380Y-99928571D01*
X121267380Y-99928571D02*
X121648333Y-99595238D01*
X121648333Y-99595238D02*
X121648333Y-99738095D01*
X121648333Y-99738095D02*
X121695952Y-99833333D01*
X121695952Y-99833333D02*
X121743571Y-99880952D01*
X121743571Y-99880952D02*
X121838809Y-99928571D01*
X121838809Y-99928571D02*
X122076904Y-99928571D01*
X122076904Y-99928571D02*
X122172142Y-99880952D01*
X122172142Y-99880952D02*
X122219761Y-99833333D01*
X122219761Y-99833333D02*
X122267380Y-99738095D01*
X122267380Y-99738095D02*
X122267380Y-99452381D01*
X122267380Y-99452381D02*
X122219761Y-99357143D01*
X122219761Y-99357143D02*
X122172142Y-99309524D01*
X122267380Y-100404762D02*
X122267380Y-100595238D01*
X122267380Y-100595238D02*
X122219761Y-100690476D01*
X122219761Y-100690476D02*
X122172142Y-100738095D01*
X122172142Y-100738095D02*
X122029285Y-100833333D01*
X122029285Y-100833333D02*
X121838809Y-100880952D01*
X121838809Y-100880952D02*
X121457857Y-100880952D01*
X121457857Y-100880952D02*
X121362619Y-100833333D01*
X121362619Y-100833333D02*
X121315000Y-100785714D01*
X121315000Y-100785714D02*
X121267380Y-100690476D01*
X121267380Y-100690476D02*
X121267380Y-100500000D01*
X121267380Y-100500000D02*
X121315000Y-100404762D01*
X121315000Y-100404762D02*
X121362619Y-100357143D01*
X121362619Y-100357143D02*
X121457857Y-100309524D01*
X121457857Y-100309524D02*
X121695952Y-100309524D01*
X121695952Y-100309524D02*
X121791190Y-100357143D01*
X121791190Y-100357143D02*
X121838809Y-100404762D01*
X121838809Y-100404762D02*
X121886428Y-100500000D01*
X121886428Y-100500000D02*
X121886428Y-100690476D01*
X121886428Y-100690476D02*
X121838809Y-100785714D01*
X121838809Y-100785714D02*
X121791190Y-100833333D01*
X121791190Y-100833333D02*
X121695952Y-100880952D01*
X121743571Y-101309524D02*
X121743571Y-101642857D01*
X122267380Y-101785714D02*
X122267380Y-101309524D01*
X122267380Y-101309524D02*
X121267380Y-101309524D01*
X121267380Y-101309524D02*
X121267380Y-101785714D01*
X121267380Y-102071429D02*
X121267380Y-102642857D01*
X122267380Y-102357143D02*
X121267380Y-102357143D01*
X73246666Y-86228833D02*
X73313333Y-86195500D01*
X73313333Y-86195500D02*
X73380000Y-86128833D01*
X73380000Y-86128833D02*
X73480000Y-86028833D01*
X73480000Y-86028833D02*
X73546666Y-85995500D01*
X73546666Y-85995500D02*
X73613333Y-85995500D01*
X73580000Y-86162166D02*
X73646666Y-86128833D01*
X73646666Y-86128833D02*
X73713333Y-86062166D01*
X73713333Y-86062166D02*
X73746666Y-85928833D01*
X73746666Y-85928833D02*
X73746666Y-85695500D01*
X73746666Y-85695500D02*
X73713333Y-85562166D01*
X73713333Y-85562166D02*
X73646666Y-85495500D01*
X73646666Y-85495500D02*
X73580000Y-85462166D01*
X73580000Y-85462166D02*
X73446666Y-85462166D01*
X73446666Y-85462166D02*
X73380000Y-85495500D01*
X73380000Y-85495500D02*
X73313333Y-85562166D01*
X73313333Y-85562166D02*
X73280000Y-85695500D01*
X73280000Y-85695500D02*
X73280000Y-85928833D01*
X73280000Y-85928833D02*
X73313333Y-86062166D01*
X73313333Y-86062166D02*
X73380000Y-86128833D01*
X73380000Y-86128833D02*
X73446666Y-86162166D01*
X73446666Y-86162166D02*
X73580000Y-86162166D01*
X72613333Y-86162166D02*
X73013333Y-86162166D01*
X72813333Y-86162166D02*
X72813333Y-85462166D01*
X72813333Y-85462166D02*
X72880000Y-85562166D01*
X72880000Y-85562166D02*
X72946667Y-85628833D01*
X72946667Y-85628833D02*
X73013333Y-85662166D01*
X99231905Y-67942619D02*
X99231905Y-68942619D01*
X99231905Y-68942619D02*
X99612857Y-68942619D01*
X99612857Y-68942619D02*
X99708095Y-68895000D01*
X99708095Y-68895000D02*
X99755714Y-68847380D01*
X99755714Y-68847380D02*
X99803333Y-68752142D01*
X99803333Y-68752142D02*
X99803333Y-68609285D01*
X99803333Y-68609285D02*
X99755714Y-68514047D01*
X99755714Y-68514047D02*
X99708095Y-68466428D01*
X99708095Y-68466428D02*
X99612857Y-68418809D01*
X99612857Y-68418809D02*
X99231905Y-68418809D01*
X100755714Y-67942619D02*
X100184286Y-67942619D01*
X100470000Y-67942619D02*
X100470000Y-68942619D01*
X100470000Y-68942619D02*
X100374762Y-68799761D01*
X100374762Y-68799761D02*
X100279524Y-68704523D01*
X100279524Y-68704523D02*
X100184286Y-68656904D01*
X91504166Y-93338380D02*
X91837499Y-92862190D01*
X92075594Y-93338380D02*
X92075594Y-92338380D01*
X92075594Y-92338380D02*
X91694642Y-92338380D01*
X91694642Y-92338380D02*
X91599404Y-92386000D01*
X91599404Y-92386000D02*
X91551785Y-92433619D01*
X91551785Y-92433619D02*
X91504166Y-92528857D01*
X91504166Y-92528857D02*
X91504166Y-92671714D01*
X91504166Y-92671714D02*
X91551785Y-92766952D01*
X91551785Y-92766952D02*
X91599404Y-92814571D01*
X91599404Y-92814571D02*
X91694642Y-92862190D01*
X91694642Y-92862190D02*
X92075594Y-92862190D01*
X90551785Y-93338380D02*
X91123213Y-93338380D01*
X90837499Y-93338380D02*
X90837499Y-92338380D01*
X90837499Y-92338380D02*
X90932737Y-92481238D01*
X90932737Y-92481238D02*
X91027975Y-92576476D01*
X91027975Y-92576476D02*
X91123213Y-92624095D01*
X98093333Y-79352166D02*
X98093333Y-79918833D01*
X98093333Y-79918833D02*
X98060000Y-79985500D01*
X98060000Y-79985500D02*
X98026666Y-80018833D01*
X98026666Y-80018833D02*
X97960000Y-80052166D01*
X97960000Y-80052166D02*
X97826666Y-80052166D01*
X97826666Y-80052166D02*
X97760000Y-80018833D01*
X97760000Y-80018833D02*
X97726666Y-79985500D01*
X97726666Y-79985500D02*
X97693333Y-79918833D01*
X97693333Y-79918833D02*
X97693333Y-79352166D01*
X97426667Y-79352166D02*
X96993333Y-79352166D01*
X96993333Y-79352166D02*
X97226667Y-79618833D01*
X97226667Y-79618833D02*
X97126667Y-79618833D01*
X97126667Y-79618833D02*
X97060000Y-79652166D01*
X97060000Y-79652166D02*
X97026667Y-79685500D01*
X97026667Y-79685500D02*
X96993333Y-79752166D01*
X96993333Y-79752166D02*
X96993333Y-79918833D01*
X96993333Y-79918833D02*
X97026667Y-79985500D01*
X97026667Y-79985500D02*
X97060000Y-80018833D01*
X97060000Y-80018833D02*
X97126667Y-80052166D01*
X97126667Y-80052166D02*
X97326667Y-80052166D01*
X97326667Y-80052166D02*
X97393333Y-80018833D01*
X97393333Y-80018833D02*
X97426667Y-79985500D01*
X98393333Y-75585500D02*
X98160000Y-75585500D01*
X98060000Y-75952166D02*
X98393333Y-75952166D01*
X98393333Y-75952166D02*
X98393333Y-75252166D01*
X98393333Y-75252166D02*
X98060000Y-75252166D01*
X97793333Y-75918833D02*
X97693333Y-75952166D01*
X97693333Y-75952166D02*
X97526667Y-75952166D01*
X97526667Y-75952166D02*
X97460000Y-75918833D01*
X97460000Y-75918833D02*
X97426667Y-75885500D01*
X97426667Y-75885500D02*
X97393333Y-75818833D01*
X97393333Y-75818833D02*
X97393333Y-75752166D01*
X97393333Y-75752166D02*
X97426667Y-75685500D01*
X97426667Y-75685500D02*
X97460000Y-75652166D01*
X97460000Y-75652166D02*
X97526667Y-75618833D01*
X97526667Y-75618833D02*
X97660000Y-75585500D01*
X97660000Y-75585500D02*
X97726667Y-75552166D01*
X97726667Y-75552166D02*
X97760000Y-75518833D01*
X97760000Y-75518833D02*
X97793333Y-75452166D01*
X97793333Y-75452166D02*
X97793333Y-75385500D01*
X97793333Y-75385500D02*
X97760000Y-75318833D01*
X97760000Y-75318833D02*
X97726667Y-75285500D01*
X97726667Y-75285500D02*
X97660000Y-75252166D01*
X97660000Y-75252166D02*
X97493333Y-75252166D01*
X97493333Y-75252166D02*
X97393333Y-75285500D01*
X97093333Y-75952166D02*
X97093333Y-75252166D01*
X97093333Y-75252166D02*
X96926666Y-75252166D01*
X96926666Y-75252166D02*
X96826666Y-75285500D01*
X96826666Y-75285500D02*
X96760000Y-75352166D01*
X96760000Y-75352166D02*
X96726666Y-75418833D01*
X96726666Y-75418833D02*
X96693333Y-75552166D01*
X96693333Y-75552166D02*
X96693333Y-75652166D01*
X96693333Y-75652166D02*
X96726666Y-75785500D01*
X96726666Y-75785500D02*
X96760000Y-75852166D01*
X96760000Y-75852166D02*
X96826666Y-75918833D01*
X96826666Y-75918833D02*
X96926666Y-75952166D01*
X96926666Y-75952166D02*
X97093333Y-75952166D01*
X102719761Y-97452381D02*
X102767380Y-97595238D01*
X102767380Y-97595238D02*
X102767380Y-97833333D01*
X102767380Y-97833333D02*
X102719761Y-97928571D01*
X102719761Y-97928571D02*
X102672142Y-97976190D01*
X102672142Y-97976190D02*
X102576904Y-98023809D01*
X102576904Y-98023809D02*
X102481666Y-98023809D01*
X102481666Y-98023809D02*
X102386428Y-97976190D01*
X102386428Y-97976190D02*
X102338809Y-97928571D01*
X102338809Y-97928571D02*
X102291190Y-97833333D01*
X102291190Y-97833333D02*
X102243571Y-97642857D01*
X102243571Y-97642857D02*
X102195952Y-97547619D01*
X102195952Y-97547619D02*
X102148333Y-97500000D01*
X102148333Y-97500000D02*
X102053095Y-97452381D01*
X102053095Y-97452381D02*
X101957857Y-97452381D01*
X101957857Y-97452381D02*
X101862619Y-97500000D01*
X101862619Y-97500000D02*
X101815000Y-97547619D01*
X101815000Y-97547619D02*
X101767380Y-97642857D01*
X101767380Y-97642857D02*
X101767380Y-97880952D01*
X101767380Y-97880952D02*
X101815000Y-98023809D01*
X102719761Y-98404762D02*
X102767380Y-98547619D01*
X102767380Y-98547619D02*
X102767380Y-98785714D01*
X102767380Y-98785714D02*
X102719761Y-98880952D01*
X102719761Y-98880952D02*
X102672142Y-98928571D01*
X102672142Y-98928571D02*
X102576904Y-98976190D01*
X102576904Y-98976190D02*
X102481666Y-98976190D01*
X102481666Y-98976190D02*
X102386428Y-98928571D01*
X102386428Y-98928571D02*
X102338809Y-98880952D01*
X102338809Y-98880952D02*
X102291190Y-98785714D01*
X102291190Y-98785714D02*
X102243571Y-98595238D01*
X102243571Y-98595238D02*
X102195952Y-98500000D01*
X102195952Y-98500000D02*
X102148333Y-98452381D01*
X102148333Y-98452381D02*
X102053095Y-98404762D01*
X102053095Y-98404762D02*
X101957857Y-98404762D01*
X101957857Y-98404762D02*
X101862619Y-98452381D01*
X101862619Y-98452381D02*
X101815000Y-98500000D01*
X101815000Y-98500000D02*
X101767380Y-98595238D01*
X101767380Y-98595238D02*
X101767380Y-98833333D01*
X101767380Y-98833333D02*
X101815000Y-98976190D01*
X101767380Y-99309524D02*
X101767380Y-99928571D01*
X101767380Y-99928571D02*
X102148333Y-99595238D01*
X102148333Y-99595238D02*
X102148333Y-99738095D01*
X102148333Y-99738095D02*
X102195952Y-99833333D01*
X102195952Y-99833333D02*
X102243571Y-99880952D01*
X102243571Y-99880952D02*
X102338809Y-99928571D01*
X102338809Y-99928571D02*
X102576904Y-99928571D01*
X102576904Y-99928571D02*
X102672142Y-99880952D01*
X102672142Y-99880952D02*
X102719761Y-99833333D01*
X102719761Y-99833333D02*
X102767380Y-99738095D01*
X102767380Y-99738095D02*
X102767380Y-99452381D01*
X102767380Y-99452381D02*
X102719761Y-99357143D01*
X102719761Y-99357143D02*
X102672142Y-99309524D01*
X102767380Y-100404762D02*
X102767380Y-100595238D01*
X102767380Y-100595238D02*
X102719761Y-100690476D01*
X102719761Y-100690476D02*
X102672142Y-100738095D01*
X102672142Y-100738095D02*
X102529285Y-100833333D01*
X102529285Y-100833333D02*
X102338809Y-100880952D01*
X102338809Y-100880952D02*
X101957857Y-100880952D01*
X101957857Y-100880952D02*
X101862619Y-100833333D01*
X101862619Y-100833333D02*
X101815000Y-100785714D01*
X101815000Y-100785714D02*
X101767380Y-100690476D01*
X101767380Y-100690476D02*
X101767380Y-100500000D01*
X101767380Y-100500000D02*
X101815000Y-100404762D01*
X101815000Y-100404762D02*
X101862619Y-100357143D01*
X101862619Y-100357143D02*
X101957857Y-100309524D01*
X101957857Y-100309524D02*
X102195952Y-100309524D01*
X102195952Y-100309524D02*
X102291190Y-100357143D01*
X102291190Y-100357143D02*
X102338809Y-100404762D01*
X102338809Y-100404762D02*
X102386428Y-100500000D01*
X102386428Y-100500000D02*
X102386428Y-100690476D01*
X102386428Y-100690476D02*
X102338809Y-100785714D01*
X102338809Y-100785714D02*
X102291190Y-100833333D01*
X102291190Y-100833333D02*
X102195952Y-100880952D01*
X102243571Y-101309524D02*
X102243571Y-101642857D01*
X102767380Y-101785714D02*
X102767380Y-101309524D01*
X102767380Y-101309524D02*
X101767380Y-101309524D01*
X101767380Y-101309524D02*
X101767380Y-101785714D01*
X101767380Y-102071429D02*
X101767380Y-102642857D01*
X102767380Y-102357143D02*
X101767380Y-102357143D01*
X77717380Y-82167142D02*
X77241190Y-81833809D01*
X77717380Y-81595714D02*
X76717380Y-81595714D01*
X76717380Y-81595714D02*
X76717380Y-81976666D01*
X76717380Y-81976666D02*
X76765000Y-82071904D01*
X76765000Y-82071904D02*
X76812619Y-82119523D01*
X76812619Y-82119523D02*
X76907857Y-82167142D01*
X76907857Y-82167142D02*
X77050714Y-82167142D01*
X77050714Y-82167142D02*
X77145952Y-82119523D01*
X77145952Y-82119523D02*
X77193571Y-82071904D01*
X77193571Y-82071904D02*
X77241190Y-81976666D01*
X77241190Y-81976666D02*
X77241190Y-81595714D01*
X77717380Y-83119523D02*
X77717380Y-82548095D01*
X77717380Y-82833809D02*
X76717380Y-82833809D01*
X76717380Y-82833809D02*
X76860238Y-82738571D01*
X76860238Y-82738571D02*
X76955476Y-82643333D01*
X76955476Y-82643333D02*
X77003095Y-82548095D01*
X76717380Y-83738571D02*
X76717380Y-83833809D01*
X76717380Y-83833809D02*
X76765000Y-83929047D01*
X76765000Y-83929047D02*
X76812619Y-83976666D01*
X76812619Y-83976666D02*
X76907857Y-84024285D01*
X76907857Y-84024285D02*
X77098333Y-84071904D01*
X77098333Y-84071904D02*
X77336428Y-84071904D01*
X77336428Y-84071904D02*
X77526904Y-84024285D01*
X77526904Y-84024285D02*
X77622142Y-83976666D01*
X77622142Y-83976666D02*
X77669761Y-83929047D01*
X77669761Y-83929047D02*
X77717380Y-83833809D01*
X77717380Y-83833809D02*
X77717380Y-83738571D01*
X77717380Y-83738571D02*
X77669761Y-83643333D01*
X77669761Y-83643333D02*
X77622142Y-83595714D01*
X77622142Y-83595714D02*
X77526904Y-83548095D01*
X77526904Y-83548095D02*
X77336428Y-83500476D01*
X77336428Y-83500476D02*
X77098333Y-83500476D01*
X77098333Y-83500476D02*
X76907857Y-83548095D01*
X76907857Y-83548095D02*
X76812619Y-83595714D01*
X76812619Y-83595714D02*
X76765000Y-83643333D01*
X76765000Y-83643333D02*
X76717380Y-83738571D01*
X83219761Y-97452381D02*
X83267380Y-97595238D01*
X83267380Y-97595238D02*
X83267380Y-97833333D01*
X83267380Y-97833333D02*
X83219761Y-97928571D01*
X83219761Y-97928571D02*
X83172142Y-97976190D01*
X83172142Y-97976190D02*
X83076904Y-98023809D01*
X83076904Y-98023809D02*
X82981666Y-98023809D01*
X82981666Y-98023809D02*
X82886428Y-97976190D01*
X82886428Y-97976190D02*
X82838809Y-97928571D01*
X82838809Y-97928571D02*
X82791190Y-97833333D01*
X82791190Y-97833333D02*
X82743571Y-97642857D01*
X82743571Y-97642857D02*
X82695952Y-97547619D01*
X82695952Y-97547619D02*
X82648333Y-97500000D01*
X82648333Y-97500000D02*
X82553095Y-97452381D01*
X82553095Y-97452381D02*
X82457857Y-97452381D01*
X82457857Y-97452381D02*
X82362619Y-97500000D01*
X82362619Y-97500000D02*
X82315000Y-97547619D01*
X82315000Y-97547619D02*
X82267380Y-97642857D01*
X82267380Y-97642857D02*
X82267380Y-97880952D01*
X82267380Y-97880952D02*
X82315000Y-98023809D01*
X83219761Y-98404762D02*
X83267380Y-98547619D01*
X83267380Y-98547619D02*
X83267380Y-98785714D01*
X83267380Y-98785714D02*
X83219761Y-98880952D01*
X83219761Y-98880952D02*
X83172142Y-98928571D01*
X83172142Y-98928571D02*
X83076904Y-98976190D01*
X83076904Y-98976190D02*
X82981666Y-98976190D01*
X82981666Y-98976190D02*
X82886428Y-98928571D01*
X82886428Y-98928571D02*
X82838809Y-98880952D01*
X82838809Y-98880952D02*
X82791190Y-98785714D01*
X82791190Y-98785714D02*
X82743571Y-98595238D01*
X82743571Y-98595238D02*
X82695952Y-98500000D01*
X82695952Y-98500000D02*
X82648333Y-98452381D01*
X82648333Y-98452381D02*
X82553095Y-98404762D01*
X82553095Y-98404762D02*
X82457857Y-98404762D01*
X82457857Y-98404762D02*
X82362619Y-98452381D01*
X82362619Y-98452381D02*
X82315000Y-98500000D01*
X82315000Y-98500000D02*
X82267380Y-98595238D01*
X82267380Y-98595238D02*
X82267380Y-98833333D01*
X82267380Y-98833333D02*
X82315000Y-98976190D01*
X82267380Y-99309524D02*
X82267380Y-99928571D01*
X82267380Y-99928571D02*
X82648333Y-99595238D01*
X82648333Y-99595238D02*
X82648333Y-99738095D01*
X82648333Y-99738095D02*
X82695952Y-99833333D01*
X82695952Y-99833333D02*
X82743571Y-99880952D01*
X82743571Y-99880952D02*
X82838809Y-99928571D01*
X82838809Y-99928571D02*
X83076904Y-99928571D01*
X83076904Y-99928571D02*
X83172142Y-99880952D01*
X83172142Y-99880952D02*
X83219761Y-99833333D01*
X83219761Y-99833333D02*
X83267380Y-99738095D01*
X83267380Y-99738095D02*
X83267380Y-99452381D01*
X83267380Y-99452381D02*
X83219761Y-99357143D01*
X83219761Y-99357143D02*
X83172142Y-99309524D01*
X83267380Y-100404762D02*
X83267380Y-100595238D01*
X83267380Y-100595238D02*
X83219761Y-100690476D01*
X83219761Y-100690476D02*
X83172142Y-100738095D01*
X83172142Y-100738095D02*
X83029285Y-100833333D01*
X83029285Y-100833333D02*
X82838809Y-100880952D01*
X82838809Y-100880952D02*
X82457857Y-100880952D01*
X82457857Y-100880952D02*
X82362619Y-100833333D01*
X82362619Y-100833333D02*
X82315000Y-100785714D01*
X82315000Y-100785714D02*
X82267380Y-100690476D01*
X82267380Y-100690476D02*
X82267380Y-100500000D01*
X82267380Y-100500000D02*
X82315000Y-100404762D01*
X82315000Y-100404762D02*
X82362619Y-100357143D01*
X82362619Y-100357143D02*
X82457857Y-100309524D01*
X82457857Y-100309524D02*
X82695952Y-100309524D01*
X82695952Y-100309524D02*
X82791190Y-100357143D01*
X82791190Y-100357143D02*
X82838809Y-100404762D01*
X82838809Y-100404762D02*
X82886428Y-100500000D01*
X82886428Y-100500000D02*
X82886428Y-100690476D01*
X82886428Y-100690476D02*
X82838809Y-100785714D01*
X82838809Y-100785714D02*
X82791190Y-100833333D01*
X82791190Y-100833333D02*
X82695952Y-100880952D01*
X82743571Y-101309524D02*
X82743571Y-101642857D01*
X83267380Y-101785714D02*
X83267380Y-101309524D01*
X83267380Y-101309524D02*
X82267380Y-101309524D01*
X82267380Y-101309524D02*
X82267380Y-101785714D01*
X82267380Y-102071429D02*
X82267380Y-102642857D01*
X83267380Y-102357143D02*
X82267380Y-102357143D01*
X69907380Y-83793333D02*
X69431190Y-83460000D01*
X69907380Y-83221905D02*
X68907380Y-83221905D01*
X68907380Y-83221905D02*
X68907380Y-83602857D01*
X68907380Y-83602857D02*
X68955000Y-83698095D01*
X68955000Y-83698095D02*
X69002619Y-83745714D01*
X69002619Y-83745714D02*
X69097857Y-83793333D01*
X69097857Y-83793333D02*
X69240714Y-83793333D01*
X69240714Y-83793333D02*
X69335952Y-83745714D01*
X69335952Y-83745714D02*
X69383571Y-83698095D01*
X69383571Y-83698095D02*
X69431190Y-83602857D01*
X69431190Y-83602857D02*
X69431190Y-83221905D01*
X69907380Y-84269524D02*
X69907380Y-84460000D01*
X69907380Y-84460000D02*
X69859761Y-84555238D01*
X69859761Y-84555238D02*
X69812142Y-84602857D01*
X69812142Y-84602857D02*
X69669285Y-84698095D01*
X69669285Y-84698095D02*
X69478809Y-84745714D01*
X69478809Y-84745714D02*
X69097857Y-84745714D01*
X69097857Y-84745714D02*
X69002619Y-84698095D01*
X69002619Y-84698095D02*
X68955000Y-84650476D01*
X68955000Y-84650476D02*
X68907380Y-84555238D01*
X68907380Y-84555238D02*
X68907380Y-84364762D01*
X68907380Y-84364762D02*
X68955000Y-84269524D01*
X68955000Y-84269524D02*
X69002619Y-84221905D01*
X69002619Y-84221905D02*
X69097857Y-84174286D01*
X69097857Y-84174286D02*
X69335952Y-84174286D01*
X69335952Y-84174286D02*
X69431190Y-84221905D01*
X69431190Y-84221905D02*
X69478809Y-84269524D01*
X69478809Y-84269524D02*
X69526428Y-84364762D01*
X69526428Y-84364762D02*
X69526428Y-84555238D01*
X69526428Y-84555238D02*
X69478809Y-84650476D01*
X69478809Y-84650476D02*
X69431190Y-84698095D01*
X69431190Y-84698095D02*
X69335952Y-84745714D01*
D11*
X77717454Y-120197180D02*
X77717454Y-119197180D01*
X77717454Y-119197180D02*
X77479359Y-119197180D01*
X77479359Y-119197180D02*
X77336502Y-119244800D01*
X77336502Y-119244800D02*
X77241264Y-119340038D01*
X77241264Y-119340038D02*
X77193645Y-119435276D01*
X77193645Y-119435276D02*
X77146026Y-119625752D01*
X77146026Y-119625752D02*
X77146026Y-119768609D01*
X77146026Y-119768609D02*
X77193645Y-119959085D01*
X77193645Y-119959085D02*
X77241264Y-120054323D01*
X77241264Y-120054323D02*
X77336502Y-120149561D01*
X77336502Y-120149561D02*
X77479359Y-120197180D01*
X77479359Y-120197180D02*
X77717454Y-120197180D01*
X76812692Y-119197180D02*
X76193645Y-119197180D01*
X76193645Y-119197180D02*
X76526978Y-119578133D01*
X76526978Y-119578133D02*
X76384121Y-119578133D01*
X76384121Y-119578133D02*
X76288883Y-119625752D01*
X76288883Y-119625752D02*
X76241264Y-119673371D01*
X76241264Y-119673371D02*
X76193645Y-119768609D01*
X76193645Y-119768609D02*
X76193645Y-120006704D01*
X76193645Y-120006704D02*
X76241264Y-120101942D01*
X76241264Y-120101942D02*
X76288883Y-120149561D01*
X76288883Y-120149561D02*
X76384121Y-120197180D01*
X76384121Y-120197180D02*
X76669835Y-120197180D01*
X76669835Y-120197180D02*
X76765073Y-120149561D01*
X76765073Y-120149561D02*
X76812692Y-120101942D01*
D10*
X92813333Y-71423571D02*
X93146666Y-71423571D01*
X93146666Y-71947380D02*
X93146666Y-70947380D01*
X93146666Y-70947380D02*
X92670476Y-70947380D01*
X91765714Y-71947380D02*
X92337142Y-71947380D01*
X92051428Y-71947380D02*
X92051428Y-70947380D01*
X92051428Y-70947380D02*
X92146666Y-71090238D01*
X92146666Y-71090238D02*
X92241904Y-71185476D01*
X92241904Y-71185476D02*
X92337142Y-71233095D01*
D12*
X71620000Y-88180000D02*
X78920000Y-88180000D01*
X71620000Y-82680000D02*
X78920000Y-82680000D01*
X78920000Y-82680000D02*
X78920000Y-83830000D01*
X70507836Y-87400000D02*
X70292164Y-87400000D01*
X70507836Y-86680000D02*
X70292164Y-86680000D01*
X83958578Y-82180000D02*
X83441422Y-82180000D01*
X83958578Y-83600000D02*
X83441422Y-83600000D01*
X81800000Y-79190000D02*
X83060000Y-79190000D01*
X88620000Y-79190000D02*
X87360000Y-79190000D01*
X88620000Y-75430000D02*
X88620000Y-79190000D01*
X81800000Y-73180000D02*
X81800000Y-79190000D01*
X106765000Y-74175000D02*
X106765000Y-74435000D01*
X106765000Y-79625000D02*
X106765000Y-79365000D01*
X109490000Y-74175000D02*
X106765000Y-74175000D01*
X109490000Y-74175000D02*
X112215000Y-74175000D01*
X109490000Y-79625000D02*
X106765000Y-79625000D01*
X109490000Y-79625000D02*
X112215000Y-79625000D01*
X112215000Y-74175000D02*
X112215000Y-74435000D01*
X112215000Y-74435000D02*
X113890000Y-74435000D01*
X112215000Y-79625000D02*
X112215000Y-79365000D01*
X90061422Y-77380000D02*
X90578578Y-77380000D01*
X90061422Y-75960000D02*
X90578578Y-75960000D01*
X110857500Y-82357500D02*
X110207500Y-82357500D01*
X110857500Y-83007500D02*
X110857500Y-82357500D01*
X103637500Y-83007500D02*
X103637500Y-82357500D01*
X110857500Y-88927500D02*
X110857500Y-89577500D01*
X103637500Y-88927500D02*
X103637500Y-89577500D01*
X110857500Y-89577500D02*
X110207500Y-89577500D01*
X103637500Y-89577500D02*
X104287500Y-89577500D01*
X118581019Y-80779500D02*
X118581019Y-86779500D01*
X122301019Y-80779500D02*
X122301019Y-86779500D01*
X79840000Y-96562164D02*
X79840000Y-96777836D01*
X79120000Y-96562164D02*
X79120000Y-96777836D01*
X72949360Y-118841964D02*
X72949360Y-119057636D01*
X72229360Y-118841964D02*
X72229360Y-119057636D01*
D10*
X121475320Y-117440000D02*
X119175320Y-115190000D01*
D11*
X119475320Y-117440000D02*
X119175320Y-117190000D01*
D12*
X98726920Y-91371000D02*
X99008080Y-91371000D01*
X98726920Y-92391000D02*
X99008080Y-92391000D01*
X121060000Y-100000000D02*
X121060000Y-100800000D01*
X74040000Y-85160000D02*
X74040000Y-84230000D01*
X74040000Y-85160000D02*
X71880000Y-85160000D01*
X74040000Y-82000000D02*
X74040000Y-82930000D01*
X74040000Y-82000000D02*
X72580000Y-82000000D01*
X95330000Y-64210000D02*
X95330000Y-63060000D01*
X95330000Y-66310000D02*
X95330000Y-68110000D01*
X104670000Y-64210000D02*
X104670000Y-63060000D01*
X104670000Y-66310000D02*
X104670000Y-68110000D01*
D13*
X105000000Y-62635000D02*
X95000000Y-62635000D01*
X95530000Y-69985000D02*
X104470000Y-69985000D01*
X104470000Y-69985000D02*
X104470000Y-62635000D01*
X104470000Y-62635000D02*
X95530000Y-62635000D01*
X95530000Y-62635000D02*
X95530000Y-69985000D01*
D12*
X91196920Y-91031000D02*
X91478080Y-91031000D01*
X91196920Y-92051000D02*
X91478080Y-92051000D01*
D10*
X99160000Y-78595000D02*
X99160000Y-76995000D01*
X99160000Y-78595000D02*
X95960000Y-78595000D01*
X99160000Y-76995000D02*
X95960000Y-76995000D01*
X95960000Y-78595000D02*
X95960000Y-76995000D01*
X95960000Y-76595000D02*
X95960000Y-76295000D01*
D12*
X101560000Y-100000000D02*
X101560000Y-100800000D01*
X95027500Y-89115000D02*
X94377500Y-89115000D01*
X95027500Y-89115000D02*
X95677500Y-89115000D01*
X95027500Y-92235000D02*
X93352500Y-92235000D01*
X95027500Y-92235000D02*
X95677500Y-92235000D01*
X98440000Y-72112164D02*
X98440000Y-72327836D01*
X97720000Y-72112164D02*
X97720000Y-72327836D01*
X75550000Y-82832164D02*
X75550000Y-83047836D01*
X76270000Y-82832164D02*
X76270000Y-83047836D01*
X82060000Y-100000000D02*
X82060000Y-100800000D01*
X126601484Y-113560000D02*
X126817156Y-113560000D01*
X126601484Y-114280000D02*
X126817156Y-114280000D01*
X97132164Y-98220000D02*
X97347836Y-98220000D01*
X97132164Y-98940000D02*
X97347836Y-98940000D01*
X102100000Y-72132164D02*
X102100000Y-72347836D01*
X101380000Y-72132164D02*
X101380000Y-72347836D01*
X116652164Y-98220000D02*
X116867836Y-98220000D01*
X116652164Y-98940000D02*
X116867836Y-98940000D01*
X71340000Y-83937836D02*
X71340000Y-83722164D01*
X70620000Y-83937836D02*
X70620000Y-83722164D01*
D10*
X77239360Y-113919800D02*
X79539360Y-116169800D01*
D11*
X79239360Y-113919800D02*
X79539360Y-114169800D01*
D12*
X112770000Y-72832164D02*
X112770000Y-73047836D01*
X113490000Y-72832164D02*
X113490000Y-73047836D01*
X93082064Y-72490000D02*
X91877936Y-72490000D01*
X93082064Y-74310000D02*
X91877936Y-74310000D01*
M02*
