M48
INCH
T1C0.0138
T2C0.0138
T3C0.0236
%
G90
G05
T1
X2.7701Y-4.6
X2.8212Y-4.6886
X3.0724Y-4.6917
X3.1165Y-3.2984
X3.1307Y-3.7484
X3.1311Y-4.4787
X3.1945Y-2.9134
X3.2055Y-3.9783
X3.2126Y-3.265
X3.3177Y-3.1004
X3.6495Y-3.5221
X3.6522Y-3.0197
X3.7791Y-3.8673
X3.7811Y-2.7988
X3.8063Y-2.9882
X3.8264Y-2.8626
X3.9028Y-2.7114
X3.9047Y-3.9878
X3.9137Y-3.5421
X3.9142Y-3.5031
X3.9192Y-3.3826
X3.92Y-3.3408
X3.951Y-2.7136
X4.0059Y-2.8957
X4.0139Y-3.6799
X4.0334Y-3.3767
X4.0508Y-3.6453
X4.0626Y-2.8059
X4.0929Y-3.6472
X4.1397Y-3.4117
X4.2118Y-3.2
X4.2421Y-2.8205
X4.2862Y-2.8177
X4.3054Y-3.4096
X4.3343Y-3.5829
X4.3453Y-3.198
X4.3995Y-3.0968
X4.4281Y-3.4174
X4.4943Y-3.2684
X4.5297Y-3.4009
X4.5297Y-3.445
X4.5443Y-3.3659
X4.5453Y-3.8713
X4.5793Y-3.4134
X4.5797Y-3.1934
X4.5819Y-4.3813
X4.6362Y-3.2585
X4.6382Y-3.3491
X4.6451Y-4.5894
X4.6652Y-3.1384
X4.6705Y-3.9857
X4.6782Y-3.4854
X4.7333Y-3.3003
X4.7927Y-3.1369
X4.8002Y-3.4854
X4.9293Y-4.5124
X5.0094Y-4.5242
T2
X4.1721Y-3.3344
X4.1721Y-3.3845
X4.1721Y-3.4347
X4.2223Y-3.3344
X4.2223Y-3.3845
X4.2223Y-3.4347
X4.2725Y-3.3344
X4.2725Y-3.3845
X4.2725Y-3.4347
T3
G00X3.7669Y-2.5526
M15
G01X3.7669Y-2.5841
M16
G05
G00X3.7669Y-2.7112
M15
G01X3.7669Y-2.7545
M16
G05
G00X4.1071Y-2.5526
M15
G01X4.1071Y-2.5841
M16
G05
G00X4.1071Y-2.7112
M15
G01X4.1071Y-2.7545
M16
G05
T0
M30
