G04 #@! TF.GenerationSoftware,KiCad,Pcbnew,(7.0.0-0)*
G04 #@! TF.CreationDate,2023-03-03T19:29:23-06:00*
G04 #@! TF.ProjectId,RP2040_minimal,52503230-3430-45f6-9d69-6e696d616c2e,REV1*
G04 #@! TF.SameCoordinates,Original*
G04 #@! TF.FileFunction,Legend,Top*
G04 #@! TF.FilePolarity,Positive*
%FSLAX46Y46*%
G04 Gerber Fmt 4.6, Leading zero omitted, Abs format (unit mm)*
G04 Created by KiCad (PCBNEW (7.0.0-0)) date 2023-03-03 19:29:23*
%MOMM*%
%LPD*%
G01*
G04 APERTURE LIST*
%ADD10C,0.150000*%
%ADD11C,0.200000*%
%ADD12C,0.100000*%
%ADD13C,0.120000*%
%ADD14C,0.050000*%
G04 APERTURE END LIST*
D10*
X87321905Y-84257380D02*
X87321905Y-83257380D01*
X87321905Y-83257380D02*
X87560000Y-83257380D01*
X87560000Y-83257380D02*
X87702857Y-83305000D01*
X87702857Y-83305000D02*
X87798095Y-83400238D01*
X87798095Y-83400238D02*
X87845714Y-83495476D01*
X87845714Y-83495476D02*
X87893333Y-83685952D01*
X87893333Y-83685952D02*
X87893333Y-83828809D01*
X87893333Y-83828809D02*
X87845714Y-84019285D01*
X87845714Y-84019285D02*
X87798095Y-84114523D01*
X87798095Y-84114523D02*
X87702857Y-84209761D01*
X87702857Y-84209761D02*
X87560000Y-84257380D01*
X87560000Y-84257380D02*
X87321905Y-84257380D01*
X88798095Y-83257380D02*
X88321905Y-83257380D01*
X88321905Y-83257380D02*
X88274286Y-83733571D01*
X88274286Y-83733571D02*
X88321905Y-83685952D01*
X88321905Y-83685952D02*
X88417143Y-83638333D01*
X88417143Y-83638333D02*
X88655238Y-83638333D01*
X88655238Y-83638333D02*
X88750476Y-83685952D01*
X88750476Y-83685952D02*
X88798095Y-83733571D01*
X88798095Y-83733571D02*
X88845714Y-83828809D01*
X88845714Y-83828809D02*
X88845714Y-84066904D01*
X88845714Y-84066904D02*
X88798095Y-84162142D01*
X88798095Y-84162142D02*
X88750476Y-84209761D01*
X88750476Y-84209761D02*
X88655238Y-84257380D01*
X88655238Y-84257380D02*
X88417143Y-84257380D01*
X88417143Y-84257380D02*
X88321905Y-84209761D01*
X88321905Y-84209761D02*
X88274286Y-84162142D01*
X92495714Y-82357380D02*
X91924286Y-82357380D01*
X92210000Y-82357380D02*
X92210000Y-81357380D01*
X92210000Y-81357380D02*
X92114762Y-81500238D01*
X92114762Y-81500238D02*
X92019524Y-81595476D01*
X92019524Y-81595476D02*
X91924286Y-81643095D01*
X92127142Y-81152142D02*
X92079523Y-81199761D01*
X92079523Y-81199761D02*
X91936666Y-81247380D01*
X91936666Y-81247380D02*
X91841428Y-81247380D01*
X91841428Y-81247380D02*
X91698571Y-81199761D01*
X91698571Y-81199761D02*
X91603333Y-81104523D01*
X91603333Y-81104523D02*
X91555714Y-81009285D01*
X91555714Y-81009285D02*
X91508095Y-80818809D01*
X91508095Y-80818809D02*
X91508095Y-80675952D01*
X91508095Y-80675952D02*
X91555714Y-80485476D01*
X91555714Y-80485476D02*
X91603333Y-80390238D01*
X91603333Y-80390238D02*
X91698571Y-80295000D01*
X91698571Y-80295000D02*
X91841428Y-80247380D01*
X91841428Y-80247380D02*
X91936666Y-80247380D01*
X91936666Y-80247380D02*
X92079523Y-80295000D01*
X92079523Y-80295000D02*
X92127142Y-80342619D01*
X92508095Y-80342619D02*
X92555714Y-80295000D01*
X92555714Y-80295000D02*
X92650952Y-80247380D01*
X92650952Y-80247380D02*
X92889047Y-80247380D01*
X92889047Y-80247380D02*
X92984285Y-80295000D01*
X92984285Y-80295000D02*
X93031904Y-80342619D01*
X93031904Y-80342619D02*
X93079523Y-80437857D01*
X93079523Y-80437857D02*
X93079523Y-80533095D01*
X93079523Y-80533095D02*
X93031904Y-80675952D01*
X93031904Y-80675952D02*
X92460476Y-81247380D01*
X92460476Y-81247380D02*
X93079523Y-81247380D01*
X93936666Y-80247380D02*
X93746190Y-80247380D01*
X93746190Y-80247380D02*
X93650952Y-80295000D01*
X93650952Y-80295000D02*
X93603333Y-80342619D01*
X93603333Y-80342619D02*
X93508095Y-80485476D01*
X93508095Y-80485476D02*
X93460476Y-80675952D01*
X93460476Y-80675952D02*
X93460476Y-81056904D01*
X93460476Y-81056904D02*
X93508095Y-81152142D01*
X93508095Y-81152142D02*
X93555714Y-81199761D01*
X93555714Y-81199761D02*
X93650952Y-81247380D01*
X93650952Y-81247380D02*
X93841428Y-81247380D01*
X93841428Y-81247380D02*
X93936666Y-81199761D01*
X93936666Y-81199761D02*
X93984285Y-81152142D01*
X93984285Y-81152142D02*
X94031904Y-81056904D01*
X94031904Y-81056904D02*
X94031904Y-80818809D01*
X94031904Y-80818809D02*
X93984285Y-80723571D01*
X93984285Y-80723571D02*
X93936666Y-80675952D01*
X93936666Y-80675952D02*
X93841428Y-80628333D01*
X93841428Y-80628333D02*
X93650952Y-80628333D01*
X93650952Y-80628333D02*
X93555714Y-80675952D01*
X93555714Y-80675952D02*
X93508095Y-80723571D01*
X93508095Y-80723571D02*
X93460476Y-80818809D01*
X88666667Y-116269761D02*
X88809524Y-116317380D01*
X88809524Y-116317380D02*
X89047619Y-116317380D01*
X89047619Y-116317380D02*
X89142857Y-116269761D01*
X89142857Y-116269761D02*
X89190476Y-116222142D01*
X89190476Y-116222142D02*
X89238095Y-116126904D01*
X89238095Y-116126904D02*
X89238095Y-116031666D01*
X89238095Y-116031666D02*
X89190476Y-115936428D01*
X89190476Y-115936428D02*
X89142857Y-115888809D01*
X89142857Y-115888809D02*
X89047619Y-115841190D01*
X89047619Y-115841190D02*
X88857143Y-115793571D01*
X88857143Y-115793571D02*
X88761905Y-115745952D01*
X88761905Y-115745952D02*
X88714286Y-115698333D01*
X88714286Y-115698333D02*
X88666667Y-115603095D01*
X88666667Y-115603095D02*
X88666667Y-115507857D01*
X88666667Y-115507857D02*
X88714286Y-115412619D01*
X88714286Y-115412619D02*
X88761905Y-115365000D01*
X88761905Y-115365000D02*
X88857143Y-115317380D01*
X88857143Y-115317380D02*
X89095238Y-115317380D01*
X89095238Y-115317380D02*
X89238095Y-115365000D01*
X89571429Y-115317380D02*
X89809524Y-116317380D01*
X89809524Y-116317380D02*
X90000000Y-115603095D01*
X90000000Y-115603095D02*
X90190476Y-116317380D01*
X90190476Y-116317380D02*
X90428572Y-115317380D01*
X90761905Y-115412619D02*
X90809524Y-115365000D01*
X90809524Y-115365000D02*
X90904762Y-115317380D01*
X90904762Y-115317380D02*
X91142857Y-115317380D01*
X91142857Y-115317380D02*
X91238095Y-115365000D01*
X91238095Y-115365000D02*
X91285714Y-115412619D01*
X91285714Y-115412619D02*
X91333333Y-115507857D01*
X91333333Y-115507857D02*
X91333333Y-115603095D01*
X91333333Y-115603095D02*
X91285714Y-115745952D01*
X91285714Y-115745952D02*
X90714286Y-116317380D01*
X90714286Y-116317380D02*
X91333333Y-116317380D01*
X108666667Y-116269761D02*
X108809524Y-116317380D01*
X108809524Y-116317380D02*
X109047619Y-116317380D01*
X109047619Y-116317380D02*
X109142857Y-116269761D01*
X109142857Y-116269761D02*
X109190476Y-116222142D01*
X109190476Y-116222142D02*
X109238095Y-116126904D01*
X109238095Y-116126904D02*
X109238095Y-116031666D01*
X109238095Y-116031666D02*
X109190476Y-115936428D01*
X109190476Y-115936428D02*
X109142857Y-115888809D01*
X109142857Y-115888809D02*
X109047619Y-115841190D01*
X109047619Y-115841190D02*
X108857143Y-115793571D01*
X108857143Y-115793571D02*
X108761905Y-115745952D01*
X108761905Y-115745952D02*
X108714286Y-115698333D01*
X108714286Y-115698333D02*
X108666667Y-115603095D01*
X108666667Y-115603095D02*
X108666667Y-115507857D01*
X108666667Y-115507857D02*
X108714286Y-115412619D01*
X108714286Y-115412619D02*
X108761905Y-115365000D01*
X108761905Y-115365000D02*
X108857143Y-115317380D01*
X108857143Y-115317380D02*
X109095238Y-115317380D01*
X109095238Y-115317380D02*
X109238095Y-115365000D01*
X109571429Y-115317380D02*
X109809524Y-116317380D01*
X109809524Y-116317380D02*
X110000000Y-115603095D01*
X110000000Y-115603095D02*
X110190476Y-116317380D01*
X110190476Y-116317380D02*
X110428572Y-115317380D01*
X111333333Y-116317380D02*
X110761905Y-116317380D01*
X111047619Y-116317380D02*
X111047619Y-115317380D01*
X111047619Y-115317380D02*
X110952381Y-115460238D01*
X110952381Y-115460238D02*
X110857143Y-115555476D01*
X110857143Y-115555476D02*
X110761905Y-115603095D01*
D11*
X120901905Y-110867380D02*
X120901905Y-109867380D01*
X120901905Y-109867380D02*
X121140000Y-109867380D01*
X121140000Y-109867380D02*
X121282857Y-109915000D01*
X121282857Y-109915000D02*
X121378095Y-110010238D01*
X121378095Y-110010238D02*
X121425714Y-110105476D01*
X121425714Y-110105476D02*
X121473333Y-110295952D01*
X121473333Y-110295952D02*
X121473333Y-110438809D01*
X121473333Y-110438809D02*
X121425714Y-110629285D01*
X121425714Y-110629285D02*
X121378095Y-110724523D01*
X121378095Y-110724523D02*
X121282857Y-110819761D01*
X121282857Y-110819761D02*
X121140000Y-110867380D01*
X121140000Y-110867380D02*
X120901905Y-110867380D01*
X121854286Y-109962619D02*
X121901905Y-109915000D01*
X121901905Y-109915000D02*
X121997143Y-109867380D01*
X121997143Y-109867380D02*
X122235238Y-109867380D01*
X122235238Y-109867380D02*
X122330476Y-109915000D01*
X122330476Y-109915000D02*
X122378095Y-109962619D01*
X122378095Y-109962619D02*
X122425714Y-110057857D01*
X122425714Y-110057857D02*
X122425714Y-110153095D01*
X122425714Y-110153095D02*
X122378095Y-110295952D01*
X122378095Y-110295952D02*
X121806667Y-110867380D01*
X121806667Y-110867380D02*
X122425714Y-110867380D01*
D12*
X101673809Y-63026309D02*
X101673809Y-63526309D01*
X101673809Y-63526309D02*
X101483333Y-63526309D01*
X101483333Y-63526309D02*
X101435714Y-63502500D01*
X101435714Y-63502500D02*
X101411904Y-63478690D01*
X101411904Y-63478690D02*
X101388095Y-63431071D01*
X101388095Y-63431071D02*
X101388095Y-63359642D01*
X101388095Y-63359642D02*
X101411904Y-63312023D01*
X101411904Y-63312023D02*
X101435714Y-63288214D01*
X101435714Y-63288214D02*
X101483333Y-63264404D01*
X101483333Y-63264404D02*
X101673809Y-63264404D01*
X100888095Y-63073928D02*
X100911904Y-63050119D01*
X100911904Y-63050119D02*
X100983333Y-63026309D01*
X100983333Y-63026309D02*
X101030952Y-63026309D01*
X101030952Y-63026309D02*
X101102380Y-63050119D01*
X101102380Y-63050119D02*
X101149999Y-63097738D01*
X101149999Y-63097738D02*
X101173809Y-63145357D01*
X101173809Y-63145357D02*
X101197618Y-63240595D01*
X101197618Y-63240595D02*
X101197618Y-63312023D01*
X101197618Y-63312023D02*
X101173809Y-63407261D01*
X101173809Y-63407261D02*
X101149999Y-63454880D01*
X101149999Y-63454880D02*
X101102380Y-63502500D01*
X101102380Y-63502500D02*
X101030952Y-63526309D01*
X101030952Y-63526309D02*
X100983333Y-63526309D01*
X100983333Y-63526309D02*
X100911904Y-63502500D01*
X100911904Y-63502500D02*
X100888095Y-63478690D01*
X100507142Y-63288214D02*
X100435714Y-63264404D01*
X100435714Y-63264404D02*
X100411904Y-63240595D01*
X100411904Y-63240595D02*
X100388095Y-63192976D01*
X100388095Y-63192976D02*
X100388095Y-63121547D01*
X100388095Y-63121547D02*
X100411904Y-63073928D01*
X100411904Y-63073928D02*
X100435714Y-63050119D01*
X100435714Y-63050119D02*
X100483333Y-63026309D01*
X100483333Y-63026309D02*
X100673809Y-63026309D01*
X100673809Y-63026309D02*
X100673809Y-63526309D01*
X100673809Y-63526309D02*
X100507142Y-63526309D01*
X100507142Y-63526309D02*
X100459523Y-63502500D01*
X100459523Y-63502500D02*
X100435714Y-63478690D01*
X100435714Y-63478690D02*
X100411904Y-63431071D01*
X100411904Y-63431071D02*
X100411904Y-63383452D01*
X100411904Y-63383452D02*
X100435714Y-63335833D01*
X100435714Y-63335833D02*
X100459523Y-63312023D01*
X100459523Y-63312023D02*
X100507142Y-63288214D01*
X100507142Y-63288214D02*
X100673809Y-63288214D01*
X99873809Y-63288214D02*
X99707142Y-63288214D01*
X99635714Y-63026309D02*
X99873809Y-63026309D01*
X99873809Y-63026309D02*
X99873809Y-63526309D01*
X99873809Y-63526309D02*
X99635714Y-63526309D01*
X99207142Y-63026309D02*
X99207142Y-63526309D01*
X99207142Y-63050119D02*
X99254761Y-63026309D01*
X99254761Y-63026309D02*
X99349999Y-63026309D01*
X99349999Y-63026309D02*
X99397618Y-63050119D01*
X99397618Y-63050119D02*
X99421428Y-63073928D01*
X99421428Y-63073928D02*
X99445237Y-63121547D01*
X99445237Y-63121547D02*
X99445237Y-63264404D01*
X99445237Y-63264404D02*
X99421428Y-63312023D01*
X99421428Y-63312023D02*
X99397618Y-63335833D01*
X99397618Y-63335833D02*
X99349999Y-63359642D01*
X99349999Y-63359642D02*
X99254761Y-63359642D01*
X99254761Y-63359642D02*
X99207142Y-63335833D01*
X98754761Y-63359642D02*
X98754761Y-62954880D01*
X98754761Y-62954880D02*
X98778571Y-62907261D01*
X98778571Y-62907261D02*
X98802380Y-62883452D01*
X98802380Y-62883452D02*
X98849999Y-62859642D01*
X98849999Y-62859642D02*
X98921428Y-62859642D01*
X98921428Y-62859642D02*
X98969047Y-62883452D01*
X98754761Y-63050119D02*
X98802380Y-63026309D01*
X98802380Y-63026309D02*
X98897618Y-63026309D01*
X98897618Y-63026309D02*
X98945237Y-63050119D01*
X98945237Y-63050119D02*
X98969047Y-63073928D01*
X98969047Y-63073928D02*
X98992856Y-63121547D01*
X98992856Y-63121547D02*
X98992856Y-63264404D01*
X98992856Y-63264404D02*
X98969047Y-63312023D01*
X98969047Y-63312023D02*
X98945237Y-63335833D01*
X98945237Y-63335833D02*
X98897618Y-63359642D01*
X98897618Y-63359642D02*
X98802380Y-63359642D01*
X98802380Y-63359642D02*
X98754761Y-63335833D01*
X98326190Y-63050119D02*
X98373809Y-63026309D01*
X98373809Y-63026309D02*
X98469047Y-63026309D01*
X98469047Y-63026309D02*
X98516666Y-63050119D01*
X98516666Y-63050119D02*
X98540475Y-63097738D01*
X98540475Y-63097738D02*
X98540475Y-63288214D01*
X98540475Y-63288214D02*
X98516666Y-63335833D01*
X98516666Y-63335833D02*
X98469047Y-63359642D01*
X98469047Y-63359642D02*
X98373809Y-63359642D01*
X98373809Y-63359642D02*
X98326190Y-63335833D01*
X98326190Y-63335833D02*
X98302380Y-63288214D01*
X98302380Y-63288214D02*
X98302380Y-63240595D01*
X98302380Y-63240595D02*
X98540475Y-63192976D01*
D11*
X74921265Y-113417180D02*
X74921265Y-112417180D01*
X74921265Y-112417180D02*
X75159360Y-112417180D01*
X75159360Y-112417180D02*
X75302217Y-112464800D01*
X75302217Y-112464800D02*
X75397455Y-112560038D01*
X75397455Y-112560038D02*
X75445074Y-112655276D01*
X75445074Y-112655276D02*
X75492693Y-112845752D01*
X75492693Y-112845752D02*
X75492693Y-112988609D01*
X75492693Y-112988609D02*
X75445074Y-113179085D01*
X75445074Y-113179085D02*
X75397455Y-113274323D01*
X75397455Y-113274323D02*
X75302217Y-113369561D01*
X75302217Y-113369561D02*
X75159360Y-113417180D01*
X75159360Y-113417180D02*
X74921265Y-113417180D01*
X76349836Y-112750514D02*
X76349836Y-113417180D01*
X76111741Y-112369561D02*
X75873646Y-113083847D01*
X75873646Y-113083847D02*
X76492693Y-113083847D01*
D13*
X91710000Y-83140000D02*
X84410000Y-83140000D01*
X91710000Y-77640000D02*
X84410000Y-77640000D01*
X84410000Y-77640000D02*
X84410000Y-78790000D01*
X92662164Y-82400000D02*
X92877836Y-82400000D01*
X92662164Y-81680000D02*
X92877836Y-81680000D01*
X86770000Y-116770000D02*
X93230000Y-116770000D01*
X86770000Y-116800000D02*
X86770000Y-116770000D01*
X86770000Y-118700000D02*
X86770000Y-121300000D01*
X86770000Y-123230000D02*
X86770000Y-123200000D01*
X86770000Y-123230000D02*
X93230000Y-123230000D01*
X93230000Y-116770000D02*
X93230000Y-116800000D01*
X93230000Y-118700000D02*
X93230000Y-121300000D01*
X93230000Y-123230000D02*
X93230000Y-123200000D01*
X112515000Y-93015000D02*
X126485000Y-93015000D01*
X112515000Y-106985000D02*
X112515000Y-93015000D01*
X126485000Y-93015000D02*
X126485000Y-106985000D01*
X126485000Y-106985000D02*
X112515000Y-106985000D01*
X93015000Y-93015000D02*
X106985000Y-93015000D01*
X93015000Y-106985000D02*
X93015000Y-93015000D01*
X106985000Y-93015000D02*
X106985000Y-106985000D01*
X106985000Y-106985000D02*
X93015000Y-106985000D01*
X106770000Y-116770000D02*
X113230000Y-116770000D01*
X106770000Y-116800000D02*
X106770000Y-116770000D01*
X106770000Y-118700000D02*
X106770000Y-121300000D01*
X106770000Y-123230000D02*
X106770000Y-123200000D01*
X106770000Y-123230000D02*
X113230000Y-123230000D01*
X113230000Y-116770000D02*
X113230000Y-116800000D01*
X113230000Y-118700000D02*
X113230000Y-121300000D01*
X113230000Y-123230000D02*
X113230000Y-123200000D01*
X73515000Y-93015000D02*
X87485000Y-93015000D01*
X73515000Y-106985000D02*
X73515000Y-93015000D01*
X87485000Y-93015000D02*
X87485000Y-106985000D01*
X87485000Y-106985000D02*
X73515000Y-106985000D01*
D14*
X81610000Y-81680000D02*
X81610000Y-72880000D01*
X88810000Y-81680000D02*
X81610000Y-81680000D01*
X81610000Y-72880000D02*
X88810000Y-72880000D01*
X88810000Y-72880000D02*
X88810000Y-81680000D01*
D10*
X121900000Y-116410000D02*
X124200000Y-114160000D01*
D11*
X123900000Y-116410000D02*
X124200000Y-116160000D01*
D13*
X121060000Y-100000000D02*
X121060000Y-99200000D01*
X117940000Y-100000000D02*
X117940000Y-98200000D01*
X117940000Y-100000000D02*
X117940000Y-100800000D01*
D12*
X95530000Y-69985000D02*
X104470000Y-69985000D01*
X104470000Y-69985000D02*
X104470000Y-62635000D01*
X104470000Y-62635000D02*
X95530000Y-62635000D01*
X95530000Y-62635000D02*
X95530000Y-69985000D01*
D10*
X75709360Y-118999800D02*
X78009360Y-116749800D01*
D11*
X77709360Y-118999800D02*
X78009360Y-118749800D01*
D13*
X101560000Y-100000000D02*
X101560000Y-99200000D01*
X98440000Y-100000000D02*
X98440000Y-98200000D01*
X98440000Y-100000000D02*
X98440000Y-100800000D01*
X82060000Y-100000000D02*
X82060000Y-99200000D01*
X78940000Y-100000000D02*
X78940000Y-98200000D01*
X78940000Y-100000000D02*
X78940000Y-100800000D01*
X117007836Y-111960000D02*
X116792164Y-111960000D01*
X117007836Y-112680000D02*
X116792164Y-112680000D01*
X71009360Y-116211964D02*
X71009360Y-116427636D01*
X71729360Y-116211964D02*
X71729360Y-116427636D01*
M02*
