G04 #@! TF.GenerationSoftware,KiCad,Pcbnew,(7.0.0-0)*
G04 #@! TF.CreationDate,2023-03-03T19:29:23-06:00*
G04 #@! TF.ProjectId,RP2040_minimal,52503230-3430-45f6-9d69-6e696d616c2e,REV1*
G04 #@! TF.SameCoordinates,Original*
G04 #@! TF.FileFunction,Paste,Bot*
G04 #@! TF.FilePolarity,Positive*
%FSLAX46Y46*%
G04 Gerber Fmt 4.6, Leading zero omitted, Abs format (unit mm)*
G04 Created by KiCad (PCBNEW (7.0.0-0)) date 2023-03-03 19:29:23*
%MOMM*%
%LPD*%
G01*
G04 APERTURE LIST*
G04 Aperture macros list*
%AMRoundRect*
0 Rectangle with rounded corners*
0 $1 Rounding radius*
0 $2 $3 $4 $5 $6 $7 $8 $9 X,Y pos of 4 corners*
0 Add a 4 corners polygon primitive as box body*
4,1,4,$2,$3,$4,$5,$6,$7,$8,$9,$2,$3,0*
0 Add four circle primitives for the rounded corners*
1,1,$1+$1,$2,$3*
1,1,$1+$1,$4,$5*
1,1,$1+$1,$6,$7*
1,1,$1+$1,$8,$9*
0 Add four rect primitives between the rounded corners*
20,1,$1+$1,$2,$3,$4,$5,0*
20,1,$1+$1,$4,$5,$6,$7,0*
20,1,$1+$1,$6,$7,$8,$9,0*
20,1,$1+$1,$8,$9,$2,$3,0*%
G04 Aperture macros list end*
%ADD10R,1.500000X0.900000*%
%ADD11RoundRect,0.140000X0.140000X0.170000X-0.140000X0.170000X-0.140000X-0.170000X0.140000X-0.170000X0*%
%ADD12RoundRect,0.243750X0.243750X0.456250X-0.243750X0.456250X-0.243750X-0.456250X0.243750X-0.456250X0*%
%ADD13RoundRect,0.147500X0.147500X0.172500X-0.147500X0.172500X-0.147500X-0.172500X0.147500X-0.172500X0*%
%ADD14RoundRect,0.147500X-0.147500X-0.172500X0.147500X-0.172500X0.147500X0.172500X-0.147500X0.172500X0*%
%ADD15R,1.500000X2.000000*%
%ADD16R,3.800000X2.000000*%
%ADD17RoundRect,0.150000X0.650000X0.150000X-0.650000X0.150000X-0.650000X-0.150000X0.650000X-0.150000X0*%
%ADD18RoundRect,0.147500X-0.172500X0.147500X-0.172500X-0.147500X0.172500X-0.147500X0.172500X0.147500X0*%
%ADD19RoundRect,0.243750X-0.243750X-0.456250X0.243750X-0.456250X0.243750X0.456250X-0.243750X0.456250X0*%
%ADD20RoundRect,0.147500X0.172500X-0.147500X0.172500X0.147500X-0.172500X0.147500X-0.172500X-0.147500X0*%
%ADD21RoundRect,0.250000X-0.292217X0.292217X-0.292217X-0.292217X0.292217X-0.292217X0.292217X0.292217X0*%
%ADD22RoundRect,0.050000X-0.050000X0.387500X-0.050000X-0.387500X0.050000X-0.387500X0.050000X0.387500X0*%
%ADD23RoundRect,0.050000X-0.387500X0.050000X-0.387500X-0.050000X0.387500X-0.050000X0.387500X0.050000X0*%
%ADD24R,2.600000X1.900000*%
%ADD25RoundRect,0.140000X-0.170000X0.140000X-0.170000X-0.140000X0.170000X-0.140000X0.170000X0.140000X0*%
%ADD26R,1.501140X0.899160*%
%ADD27RoundRect,0.225000X-0.225000X-0.250000X0.225000X-0.250000X0.225000X0.250000X-0.225000X0.250000X0*%
%ADD28RoundRect,0.150000X-0.150000X0.512500X-0.150000X-0.512500X0.150000X-0.512500X0.150000X0.512500X0*%
%ADD29R,0.900000X0.800000*%
%ADD30R,0.600000X1.150000*%
%ADD31R,0.300000X1.150000*%
%ADD32R,0.600000X0.700000*%
%ADD33R,1.000000X0.700000*%
%ADD34RoundRect,0.150000X-0.587500X-0.150000X0.587500X-0.150000X0.587500X0.150000X-0.587500X0.150000X0*%
%ADD35RoundRect,0.140000X-0.140000X-0.170000X0.140000X-0.170000X0.140000X0.170000X-0.140000X0.170000X0*%
%ADD36RoundRect,0.140000X0.170000X-0.140000X0.170000X0.140000X-0.170000X0.140000X-0.170000X-0.140000X0*%
%ADD37RoundRect,0.250000X0.375000X0.625000X-0.375000X0.625000X-0.375000X-0.625000X0.375000X-0.625000X0*%
G04 APERTURE END LIST*
D10*
X72819999Y-87079999D03*
X72819999Y-83779999D03*
X77719999Y-83779999D03*
X77719999Y-87079999D03*
D11*
X70880000Y-87040000D03*
X69920000Y-87040000D03*
D12*
X82762500Y-82890000D03*
X84637500Y-82890000D03*
D13*
X101207500Y-89970000D03*
X100237500Y-89970000D03*
X101207500Y-88970000D03*
X100237500Y-88970000D03*
D14*
X108277500Y-91017500D03*
X109247500Y-91017500D03*
D15*
X87509999Y-74129999D03*
D16*
X85209999Y-80429999D03*
D15*
X85209999Y-74129999D03*
X82909999Y-74129999D03*
D17*
X105890000Y-74995000D03*
X105890000Y-76265000D03*
X105890000Y-77535000D03*
X105890000Y-78805000D03*
X113090000Y-78805000D03*
X113090000Y-77535000D03*
X113090000Y-76265000D03*
X113090000Y-74995000D03*
D18*
X116325019Y-85908500D03*
X116325019Y-84938500D03*
D13*
X101322500Y-85937500D03*
X100352500Y-85937500D03*
D14*
X105155000Y-81250000D03*
X106125000Y-81250000D03*
X113272500Y-86383500D03*
X114242500Y-86383500D03*
X100351624Y-86955000D03*
X101321624Y-86955000D03*
X113032500Y-87490000D03*
X114002500Y-87490000D03*
D19*
X91257500Y-76670000D03*
X89382500Y-76670000D03*
D14*
X108505000Y-81220000D03*
X109475000Y-81220000D03*
D20*
X108880000Y-72525000D03*
X108880000Y-73495000D03*
D21*
X107885000Y-85330000D03*
X106610000Y-85330000D03*
X107885000Y-86605000D03*
X106610000Y-86605000D03*
D22*
X104647500Y-82530000D03*
X105047500Y-82530000D03*
X105447500Y-82530000D03*
X105847500Y-82530000D03*
X106247500Y-82530000D03*
X106647500Y-82530000D03*
X107047500Y-82530000D03*
X107447500Y-82530000D03*
X107847500Y-82530000D03*
X108247500Y-82530000D03*
X108647500Y-82530000D03*
X109047500Y-82530000D03*
X109447500Y-82530000D03*
X109847500Y-82530000D03*
D23*
X110685000Y-83367500D03*
X110685000Y-83767500D03*
X110685000Y-84167500D03*
X110685000Y-84567500D03*
X110685000Y-84967500D03*
X110685000Y-85367500D03*
X110685000Y-85767500D03*
X110685000Y-86167500D03*
X110685000Y-86567500D03*
X110685000Y-86967500D03*
X110685000Y-87367500D03*
X110685000Y-87767500D03*
X110685000Y-88167500D03*
X110685000Y-88567500D03*
D22*
X109847500Y-89405000D03*
X109447500Y-89405000D03*
X109047500Y-89405000D03*
X108647500Y-89405000D03*
X108247500Y-89405000D03*
X107847500Y-89405000D03*
X107447500Y-89405000D03*
X107047500Y-89405000D03*
X106647500Y-89405000D03*
X106247500Y-89405000D03*
X105847500Y-89405000D03*
X105447500Y-89405000D03*
X105047500Y-89405000D03*
X104647500Y-89405000D03*
D23*
X103810000Y-88567500D03*
X103810000Y-88167500D03*
X103810000Y-87767500D03*
X103810000Y-87367500D03*
X103810000Y-86967500D03*
X103810000Y-86567500D03*
X103810000Y-86167500D03*
X103810000Y-85767500D03*
X103810000Y-85367500D03*
X103810000Y-84967500D03*
X103810000Y-84567500D03*
X103810000Y-84167500D03*
X103810000Y-83767500D03*
X103810000Y-83367500D03*
D20*
X116325019Y-81968500D03*
X116325019Y-82938500D03*
D14*
X100351624Y-87955000D03*
X101321624Y-87955000D03*
D13*
X101332500Y-84857500D03*
X100362500Y-84857500D03*
D20*
X107460000Y-72545000D03*
X107460000Y-73515000D03*
D14*
X114925019Y-84638500D03*
X113955019Y-84638500D03*
D24*
X120441018Y-85929499D03*
X120441018Y-81629499D03*
D25*
X79480000Y-96190000D03*
X79480000Y-97150000D03*
X72589360Y-118469800D03*
X72589360Y-119429800D03*
D26*
X124174679Y-113339799D03*
X124174679Y-116540199D03*
X119175959Y-116540199D03*
X119175959Y-113339799D03*
D27*
X98092500Y-91881000D03*
X99642500Y-91881000D03*
D28*
X118550000Y-98862500D03*
X120450000Y-98862500D03*
X119500000Y-101137500D03*
D29*
X74279999Y-83579999D03*
X72279999Y-82629999D03*
X72279999Y-84529999D03*
D30*
X96799999Y-69989999D03*
X97599999Y-69989999D03*
D31*
X98749999Y-69989999D03*
X99749999Y-69989999D03*
X100249999Y-69989999D03*
X101249999Y-69989999D03*
D30*
X102399999Y-69989999D03*
X103199999Y-69989999D03*
X103199999Y-69989999D03*
X102399999Y-69989999D03*
D31*
X101749999Y-69989999D03*
X100749999Y-69989999D03*
X99249999Y-69989999D03*
X98249999Y-69989999D03*
D30*
X97599999Y-69989999D03*
X96799999Y-69989999D03*
D27*
X90562500Y-91541000D03*
X92112500Y-91541000D03*
D32*
X96609999Y-78794999D03*
X98509999Y-78794999D03*
X98509999Y-76794999D03*
D33*
X96809999Y-76794999D03*
D28*
X99050000Y-98862500D03*
X100950000Y-98862500D03*
X100000000Y-101137500D03*
D34*
X94090000Y-91625000D03*
X94090000Y-89725000D03*
X95965000Y-90675000D03*
D25*
X98080000Y-71740000D03*
X98080000Y-72700000D03*
X75910000Y-83420000D03*
X75910000Y-82460000D03*
D18*
X101820000Y-91725000D03*
X101820000Y-92695000D03*
D28*
X79550000Y-98862500D03*
X81450000Y-98862500D03*
X80500000Y-101137500D03*
D18*
X103970000Y-90815000D03*
X103970000Y-91785000D03*
X102910000Y-90825000D03*
X102910000Y-91795000D03*
D35*
X126229320Y-113920000D03*
X127189320Y-113920000D03*
X96760000Y-98580000D03*
X97720000Y-98580000D03*
D25*
X101740000Y-71760000D03*
X101740000Y-72720000D03*
D35*
X116280000Y-98580000D03*
X117240000Y-98580000D03*
D36*
X70980000Y-83350000D03*
X70980000Y-84310000D03*
D26*
X74539999Y-118019999D03*
X74539999Y-114819599D03*
X79538719Y-114819599D03*
X79538719Y-118019999D03*
D25*
X113130000Y-73420000D03*
X113130000Y-72460000D03*
D37*
X91080000Y-73400000D03*
X93880000Y-73400000D03*
M02*
