%TF.GenerationSoftware,KiCad,Pcbnew,(7.0.0-0)*%
%TF.CreationDate,2023-03-07T01:41:50-06:00*%
%TF.ProjectId,RP2040_minimal,52503230-3430-45f6-9d69-6e696d616c2e,REV1*%
%TF.SameCoordinates,Original*%
%TF.FileFunction,Legend,Top*%
%TF.FilePolarity,Positive*%
%FSLAX46Y46*%
G04 Gerber Fmt 4.6, Leading zero omitted, Abs format (unit mm)*
G04 Created by KiCad (PCBNEW (7.0.0-0)) date 2023-03-07 01:41:50*
%MOMM*%
%LPD*%
G01*
G04 APERTURE LIST*
G04 Aperture macros list*
%AMRoundRect*
0 Rectangle with rounded corners*
0 $1 Rounding radius*
0 $2 $3 $4 $5 $6 $7 $8 $9 X,Y pos of 4 corners*
0 Add a 4 corners polygon primitive as box body*
4,1,4,$2,$3,$4,$5,$6,$7,$8,$9,$2,$3,0*
0 Add four circle primitives for the rounded corners*
1,1,$1+$1,$2,$3*
1,1,$1+$1,$4,$5*
1,1,$1+$1,$6,$7*
1,1,$1+$1,$8,$9*
0 Add four rect primitives between the rounded corners*
20,1,$1+$1,$2,$3,$4,$5,0*
20,1,$1+$1,$4,$5,$6,$7,0*
20,1,$1+$1,$6,$7,$8,$9,0*
20,1,$1+$1,$8,$9,$2,$3,0*%
G04 Aperture macros list end*
%ADD10C,0.150000*%
%ADD11C,0.120000*%
%ADD12C,0.100000*%
%ADD13C,1.802000*%
%ADD14RoundRect,0.051000X0.350000X0.350000X-0.350000X0.350000X-0.350000X-0.350000X0.350000X-0.350000X0*%
%ADD15RoundRect,0.191000X0.140000X0.170000X-0.140000X0.170000X-0.140000X-0.170000X0.140000X-0.170000X0*%
%ADD16RoundRect,0.421000X-0.835000X-0.370000X0.835000X-0.370000X0.835000X0.370000X-0.835000X0.370000X0*%
%ADD17RoundRect,0.426000X-0.777500X-0.375000X0.777500X-0.375000X0.777500X0.375000X-0.777500X0.375000X0*%
%ADD18RoundRect,0.441000X-0.782500X-0.390000X0.782500X-0.390000X0.782500X0.390000X-0.782500X0.390000X0*%
%ADD19RoundRect,0.456000X-0.782500X-0.405000X0.782500X-0.405000X0.782500X0.405000X-0.782500X0.405000X0*%
%ADD20RoundRect,0.461000X-0.702500X-0.410000X0.702500X-0.410000X0.702500X0.410000X-0.702500X0.410000X0*%
%ADD21RoundRect,0.426000X-0.707500X-0.375000X0.707500X-0.375000X0.707500X0.375000X-0.707500X0.375000X0*%
%ADD22RoundRect,0.418500X-0.775000X-0.367500X0.775000X-0.367500X0.775000X0.367500X-0.775000X0.367500X0*%
%ADD23RoundRect,0.418500X-0.762500X-0.367500X0.762500X-0.367500X0.762500X0.367500X-0.762500X0.367500X0*%
%ADD24RoundRect,0.201000X0.512500X0.150000X-0.512500X0.150000X-0.512500X-0.150000X0.512500X-0.150000X0*%
%ADD25RoundRect,0.191000X-0.170000X0.140000X-0.170000X-0.140000X0.170000X-0.140000X0.170000X0.140000X0*%
%ADD26RoundRect,0.294750X0.243750X0.456250X-0.243750X0.456250X-0.243750X-0.456250X0.243750X-0.456250X0*%
%ADD27RoundRect,0.198500X-0.147500X-0.172500X0.147500X-0.172500X0.147500X0.172500X-0.147500X0.172500X0*%
%ADD28RoundRect,0.198500X0.147500X0.172500X-0.147500X0.172500X-0.147500X-0.172500X0.147500X-0.172500X0*%
%ADD29RoundRect,0.051000X1.000000X0.750000X-1.000000X0.750000X-1.000000X-0.750000X1.000000X-0.750000X0*%
%ADD30RoundRect,0.051000X1.000000X1.900000X-1.000000X1.900000X-1.000000X-1.900000X1.000000X-1.900000X0*%
%ADD31RoundRect,0.201000X-0.650000X-0.150000X0.650000X-0.150000X0.650000X0.150000X-0.650000X0.150000X0*%
%ADD32RoundRect,0.198500X-0.172500X0.147500X-0.172500X-0.147500X0.172500X-0.147500X0.172500X0.147500X0*%
%ADD33RoundRect,0.195000X-1.456000X1.456000X-1.456000X-1.456000X1.456000X-1.456000X1.456000X1.456000X0*%
%ADD34RoundRect,0.101000X-0.387500X0.050000X-0.387500X-0.050000X0.387500X-0.050000X0.387500X0.050000X0*%
%ADD35RoundRect,0.101000X-0.050000X0.387500X-0.050000X-0.387500X0.050000X-0.387500X0.050000X0.387500X0*%
%ADD36RoundRect,0.198500X0.172500X-0.147500X0.172500X0.147500X-0.172500X0.147500X-0.172500X-0.147500X0*%
%ADD37RoundRect,0.051000X-1.300000X0.950000X-1.300000X-0.950000X1.300000X-0.950000X1.300000X0.950000X0*%
%ADD38RoundRect,0.251000X0.200000X0.800000X-0.200000X0.800000X-0.200000X-0.800000X0.200000X-0.800000X0*%
%ADD39RoundRect,0.276000X0.225000X0.250000X-0.225000X0.250000X-0.225000X-0.250000X0.225000X-0.250000X0*%
%ADD40RoundRect,0.191000X0.170000X-0.140000X0.170000X0.140000X-0.170000X0.140000X-0.170000X-0.140000X0*%
%ADD41C,3.302000*%
%ADD42C,0.752000*%
%ADD43RoundRect,0.051000X0.300000X0.575000X-0.300000X0.575000X-0.300000X-0.575000X0.300000X-0.575000X0*%
%ADD44RoundRect,0.051000X0.150000X0.575000X-0.150000X0.575000X-0.150000X-0.575000X0.150000X-0.575000X0*%
%ADD45O,1.102000X2.202000*%
%ADD46O,1.102000X1.902000*%
%ADD47RoundRect,0.050000X0.300000X0.350000X-0.300000X0.350000X-0.300000X-0.350000X0.300000X-0.350000X0*%
%ADD48RoundRect,0.050000X0.500000X0.350000X-0.500000X0.350000X-0.500000X-0.350000X0.500000X-0.350000X0*%
%ADD49RoundRect,0.201000X0.587500X0.150000X-0.587500X0.150000X-0.587500X-0.150000X0.587500X-0.150000X0*%
%ADD50RoundRect,0.051000X-0.350000X-0.350000X0.350000X-0.350000X0.350000X0.350000X-0.350000X0.350000X0*%
%ADD51RoundRect,0.051000X-0.350000X0.350000X-0.350000X-0.350000X0.350000X-0.350000X0.350000X0.350000X0*%
%ADD52RoundRect,0.301000X-0.375000X-0.625000X0.375000X-0.625000X0.375000X0.625000X-0.375000X0.625000X0*%
G04 APERTURE END LIST*
D10*
%TO.C,D10*%
X18285714Y-7217380D02*
X18285714Y-6217380D01*
X18285714Y-6217380D02*
X18523809Y-6217380D01*
X18523809Y-6217380D02*
X18666666Y-6265000D01*
X18666666Y-6265000D02*
X18761904Y-6360238D01*
X18761904Y-6360238D02*
X18809523Y-6455476D01*
X18809523Y-6455476D02*
X18857142Y-6645952D01*
X18857142Y-6645952D02*
X18857142Y-6788809D01*
X18857142Y-6788809D02*
X18809523Y-6979285D01*
X18809523Y-6979285D02*
X18761904Y-7074523D01*
X18761904Y-7074523D02*
X18666666Y-7169761D01*
X18666666Y-7169761D02*
X18523809Y-7217380D01*
X18523809Y-7217380D02*
X18285714Y-7217380D01*
X19809523Y-7217380D02*
X19238095Y-7217380D01*
X19523809Y-7217380D02*
X19523809Y-6217380D01*
X19523809Y-6217380D02*
X19428571Y-6360238D01*
X19428571Y-6360238D02*
X19333333Y-6455476D01*
X19333333Y-6455476D02*
X19238095Y-6503095D01*
X20428571Y-6217380D02*
X20523809Y-6217380D01*
X20523809Y-6217380D02*
X20619047Y-6265000D01*
X20619047Y-6265000D02*
X20666666Y-6312619D01*
X20666666Y-6312619D02*
X20714285Y-6407857D01*
X20714285Y-6407857D02*
X20761904Y-6598333D01*
X20761904Y-6598333D02*
X20761904Y-6836428D01*
X20761904Y-6836428D02*
X20714285Y-7026904D01*
X20714285Y-7026904D02*
X20666666Y-7122142D01*
X20666666Y-7122142D02*
X20619047Y-7169761D01*
X20619047Y-7169761D02*
X20523809Y-7217380D01*
X20523809Y-7217380D02*
X20428571Y-7217380D01*
X20428571Y-7217380D02*
X20333333Y-7169761D01*
X20333333Y-7169761D02*
X20285714Y-7122142D01*
X20285714Y-7122142D02*
X20238095Y-7026904D01*
X20238095Y-7026904D02*
X20190476Y-6836428D01*
X20190476Y-6836428D02*
X20190476Y-6598333D01*
X20190476Y-6598333D02*
X20238095Y-6407857D01*
X20238095Y-6407857D02*
X20285714Y-6312619D01*
X20285714Y-6312619D02*
X20333333Y-6265000D01*
X20333333Y-6265000D02*
X20428571Y-6217380D01*
%TO.C,D9*%
X-738095Y-7217380D02*
X-738095Y-6217380D01*
X-738095Y-6217380D02*
X-500000Y-6217380D01*
X-500000Y-6217380D02*
X-357143Y-6265000D01*
X-357143Y-6265000D02*
X-261905Y-6360238D01*
X-261905Y-6360238D02*
X-214286Y-6455476D01*
X-214286Y-6455476D02*
X-166667Y-6645952D01*
X-166667Y-6645952D02*
X-166667Y-6788809D01*
X-166667Y-6788809D02*
X-214286Y-6979285D01*
X-214286Y-6979285D02*
X-261905Y-7074523D01*
X-261905Y-7074523D02*
X-357143Y-7169761D01*
X-357143Y-7169761D02*
X-500000Y-7217380D01*
X-500000Y-7217380D02*
X-738095Y-7217380D01*
X309524Y-7217380D02*
X500000Y-7217380D01*
X500000Y-7217380D02*
X595238Y-7169761D01*
X595238Y-7169761D02*
X642857Y-7122142D01*
X642857Y-7122142D02*
X738095Y-6979285D01*
X738095Y-6979285D02*
X785714Y-6788809D01*
X785714Y-6788809D02*
X785714Y-6407857D01*
X785714Y-6407857D02*
X738095Y-6312619D01*
X738095Y-6312619D02*
X690476Y-6265000D01*
X690476Y-6265000D02*
X595238Y-6217380D01*
X595238Y-6217380D02*
X404762Y-6217380D01*
X404762Y-6217380D02*
X309524Y-6265000D01*
X309524Y-6265000D02*
X261905Y-6312619D01*
X261905Y-6312619D02*
X214286Y-6407857D01*
X214286Y-6407857D02*
X214286Y-6645952D01*
X214286Y-6645952D02*
X261905Y-6741190D01*
X261905Y-6741190D02*
X309524Y-6788809D01*
X309524Y-6788809D02*
X404762Y-6836428D01*
X404762Y-6836428D02*
X595238Y-6836428D01*
X595238Y-6836428D02*
X690476Y-6788809D01*
X690476Y-6788809D02*
X738095Y-6741190D01*
X738095Y-6741190D02*
X785714Y-6645952D01*
%TO.C,D8*%
X-20238095Y-7217380D02*
X-20238095Y-6217380D01*
X-20238095Y-6217380D02*
X-20000000Y-6217380D01*
X-20000000Y-6217380D02*
X-19857143Y-6265000D01*
X-19857143Y-6265000D02*
X-19761905Y-6360238D01*
X-19761905Y-6360238D02*
X-19714286Y-6455476D01*
X-19714286Y-6455476D02*
X-19666667Y-6645952D01*
X-19666667Y-6645952D02*
X-19666667Y-6788809D01*
X-19666667Y-6788809D02*
X-19714286Y-6979285D01*
X-19714286Y-6979285D02*
X-19761905Y-7074523D01*
X-19761905Y-7074523D02*
X-19857143Y-7169761D01*
X-19857143Y-7169761D02*
X-20000000Y-7217380D01*
X-20000000Y-7217380D02*
X-20238095Y-7217380D01*
X-19095238Y-6645952D02*
X-19190476Y-6598333D01*
X-19190476Y-6598333D02*
X-19238095Y-6550714D01*
X-19238095Y-6550714D02*
X-19285714Y-6455476D01*
X-19285714Y-6455476D02*
X-19285714Y-6407857D01*
X-19285714Y-6407857D02*
X-19238095Y-6312619D01*
X-19238095Y-6312619D02*
X-19190476Y-6265000D01*
X-19190476Y-6265000D02*
X-19095238Y-6217380D01*
X-19095238Y-6217380D02*
X-18904762Y-6217380D01*
X-18904762Y-6217380D02*
X-18809524Y-6265000D01*
X-18809524Y-6265000D02*
X-18761905Y-6312619D01*
X-18761905Y-6312619D02*
X-18714286Y-6407857D01*
X-18714286Y-6407857D02*
X-18714286Y-6455476D01*
X-18714286Y-6455476D02*
X-18761905Y-6550714D01*
X-18761905Y-6550714D02*
X-18809524Y-6598333D01*
X-18809524Y-6598333D02*
X-18904762Y-6645952D01*
X-18904762Y-6645952D02*
X-19095238Y-6645952D01*
X-19095238Y-6645952D02*
X-19190476Y-6693571D01*
X-19190476Y-6693571D02*
X-19238095Y-6741190D01*
X-19238095Y-6741190D02*
X-19285714Y-6836428D01*
X-19285714Y-6836428D02*
X-19285714Y-7026904D01*
X-19285714Y-7026904D02*
X-19238095Y-7122142D01*
X-19238095Y-7122142D02*
X-19190476Y-7169761D01*
X-19190476Y-7169761D02*
X-19095238Y-7217380D01*
X-19095238Y-7217380D02*
X-18904762Y-7217380D01*
X-18904762Y-7217380D02*
X-18809524Y-7169761D01*
X-18809524Y-7169761D02*
X-18761905Y-7122142D01*
X-18761905Y-7122142D02*
X-18714286Y-7026904D01*
X-18714286Y-7026904D02*
X-18714286Y-6836428D01*
X-18714286Y-6836428D02*
X-18761905Y-6741190D01*
X-18761905Y-6741190D02*
X-18809524Y-6693571D01*
X-18809524Y-6693571D02*
X-18904762Y-6645952D01*
%TO.C,C30*%
X16337142Y-6382142D02*
X16289523Y-6429761D01*
X16289523Y-6429761D02*
X16146666Y-6477380D01*
X16146666Y-6477380D02*
X16051428Y-6477380D01*
X16051428Y-6477380D02*
X15908571Y-6429761D01*
X15908571Y-6429761D02*
X15813333Y-6334523D01*
X15813333Y-6334523D02*
X15765714Y-6239285D01*
X15765714Y-6239285D02*
X15718095Y-6048809D01*
X15718095Y-6048809D02*
X15718095Y-5905952D01*
X15718095Y-5905952D02*
X15765714Y-5715476D01*
X15765714Y-5715476D02*
X15813333Y-5620238D01*
X15813333Y-5620238D02*
X15908571Y-5525000D01*
X15908571Y-5525000D02*
X16051428Y-5477380D01*
X16051428Y-5477380D02*
X16146666Y-5477380D01*
X16146666Y-5477380D02*
X16289523Y-5525000D01*
X16289523Y-5525000D02*
X16337142Y-5572619D01*
X16670476Y-5477380D02*
X17289523Y-5477380D01*
X17289523Y-5477380D02*
X16956190Y-5858333D01*
X16956190Y-5858333D02*
X17099047Y-5858333D01*
X17099047Y-5858333D02*
X17194285Y-5905952D01*
X17194285Y-5905952D02*
X17241904Y-5953571D01*
X17241904Y-5953571D02*
X17289523Y-6048809D01*
X17289523Y-6048809D02*
X17289523Y-6286904D01*
X17289523Y-6286904D02*
X17241904Y-6382142D01*
X17241904Y-6382142D02*
X17194285Y-6429761D01*
X17194285Y-6429761D02*
X17099047Y-6477380D01*
X17099047Y-6477380D02*
X16813333Y-6477380D01*
X16813333Y-6477380D02*
X16718095Y-6429761D01*
X16718095Y-6429761D02*
X16670476Y-6382142D01*
X17908571Y-5477380D02*
X18003809Y-5477380D01*
X18003809Y-5477380D02*
X18099047Y-5525000D01*
X18099047Y-5525000D02*
X18146666Y-5572619D01*
X18146666Y-5572619D02*
X18194285Y-5667857D01*
X18194285Y-5667857D02*
X18241904Y-5858333D01*
X18241904Y-5858333D02*
X18241904Y-6096428D01*
X18241904Y-6096428D02*
X18194285Y-6286904D01*
X18194285Y-6286904D02*
X18146666Y-6382142D01*
X18146666Y-6382142D02*
X18099047Y-6429761D01*
X18099047Y-6429761D02*
X18003809Y-6477380D01*
X18003809Y-6477380D02*
X17908571Y-6477380D01*
X17908571Y-6477380D02*
X17813333Y-6429761D01*
X17813333Y-6429761D02*
X17765714Y-6382142D01*
X17765714Y-6382142D02*
X17718095Y-6286904D01*
X17718095Y-6286904D02*
X17670476Y-6096428D01*
X17670476Y-6096428D02*
X17670476Y-5858333D01*
X17670476Y-5858333D02*
X17718095Y-5667857D01*
X17718095Y-5667857D02*
X17765714Y-5572619D01*
X17765714Y-5572619D02*
X17813333Y-5525000D01*
X17813333Y-5525000D02*
X17908571Y-5477380D01*
%TO.C,C29*%
X-3162858Y-6332142D02*
X-3210477Y-6379761D01*
X-3210477Y-6379761D02*
X-3353334Y-6427380D01*
X-3353334Y-6427380D02*
X-3448572Y-6427380D01*
X-3448572Y-6427380D02*
X-3591429Y-6379761D01*
X-3591429Y-6379761D02*
X-3686667Y-6284523D01*
X-3686667Y-6284523D02*
X-3734286Y-6189285D01*
X-3734286Y-6189285D02*
X-3781905Y-5998809D01*
X-3781905Y-5998809D02*
X-3781905Y-5855952D01*
X-3781905Y-5855952D02*
X-3734286Y-5665476D01*
X-3734286Y-5665476D02*
X-3686667Y-5570238D01*
X-3686667Y-5570238D02*
X-3591429Y-5475000D01*
X-3591429Y-5475000D02*
X-3448572Y-5427380D01*
X-3448572Y-5427380D02*
X-3353334Y-5427380D01*
X-3353334Y-5427380D02*
X-3210477Y-5475000D01*
X-3210477Y-5475000D02*
X-3162858Y-5522619D01*
X-2781905Y-5522619D02*
X-2734286Y-5475000D01*
X-2734286Y-5475000D02*
X-2639048Y-5427380D01*
X-2639048Y-5427380D02*
X-2400953Y-5427380D01*
X-2400953Y-5427380D02*
X-2305715Y-5475000D01*
X-2305715Y-5475000D02*
X-2258096Y-5522619D01*
X-2258096Y-5522619D02*
X-2210477Y-5617857D01*
X-2210477Y-5617857D02*
X-2210477Y-5713095D01*
X-2210477Y-5713095D02*
X-2258096Y-5855952D01*
X-2258096Y-5855952D02*
X-2829524Y-6427380D01*
X-2829524Y-6427380D02*
X-2210477Y-6427380D01*
X-1734286Y-6427380D02*
X-1543810Y-6427380D01*
X-1543810Y-6427380D02*
X-1448572Y-6379761D01*
X-1448572Y-6379761D02*
X-1400953Y-6332142D01*
X-1400953Y-6332142D02*
X-1305715Y-6189285D01*
X-1305715Y-6189285D02*
X-1258096Y-5998809D01*
X-1258096Y-5998809D02*
X-1258096Y-5617857D01*
X-1258096Y-5617857D02*
X-1305715Y-5522619D01*
X-1305715Y-5522619D02*
X-1353334Y-5475000D01*
X-1353334Y-5475000D02*
X-1448572Y-5427380D01*
X-1448572Y-5427380D02*
X-1639048Y-5427380D01*
X-1639048Y-5427380D02*
X-1734286Y-5475000D01*
X-1734286Y-5475000D02*
X-1781905Y-5522619D01*
X-1781905Y-5522619D02*
X-1829524Y-5617857D01*
X-1829524Y-5617857D02*
X-1829524Y-5855952D01*
X-1829524Y-5855952D02*
X-1781905Y-5951190D01*
X-1781905Y-5951190D02*
X-1734286Y-5998809D01*
X-1734286Y-5998809D02*
X-1639048Y-6046428D01*
X-1639048Y-6046428D02*
X-1448572Y-6046428D01*
X-1448572Y-6046428D02*
X-1353334Y-5998809D01*
X-1353334Y-5998809D02*
X-1305715Y-5951190D01*
X-1305715Y-5951190D02*
X-1258096Y-5855952D01*
%TO.C,C28*%
X-22682858Y-6382142D02*
X-22730477Y-6429761D01*
X-22730477Y-6429761D02*
X-22873334Y-6477380D01*
X-22873334Y-6477380D02*
X-22968572Y-6477380D01*
X-22968572Y-6477380D02*
X-23111429Y-6429761D01*
X-23111429Y-6429761D02*
X-23206667Y-6334523D01*
X-23206667Y-6334523D02*
X-23254286Y-6239285D01*
X-23254286Y-6239285D02*
X-23301905Y-6048809D01*
X-23301905Y-6048809D02*
X-23301905Y-5905952D01*
X-23301905Y-5905952D02*
X-23254286Y-5715476D01*
X-23254286Y-5715476D02*
X-23206667Y-5620238D01*
X-23206667Y-5620238D02*
X-23111429Y-5525000D01*
X-23111429Y-5525000D02*
X-22968572Y-5477380D01*
X-22968572Y-5477380D02*
X-22873334Y-5477380D01*
X-22873334Y-5477380D02*
X-22730477Y-5525000D01*
X-22730477Y-5525000D02*
X-22682858Y-5572619D01*
X-22301905Y-5572619D02*
X-22254286Y-5525000D01*
X-22254286Y-5525000D02*
X-22159048Y-5477380D01*
X-22159048Y-5477380D02*
X-21920953Y-5477380D01*
X-21920953Y-5477380D02*
X-21825715Y-5525000D01*
X-21825715Y-5525000D02*
X-21778096Y-5572619D01*
X-21778096Y-5572619D02*
X-21730477Y-5667857D01*
X-21730477Y-5667857D02*
X-21730477Y-5763095D01*
X-21730477Y-5763095D02*
X-21778096Y-5905952D01*
X-21778096Y-5905952D02*
X-22349524Y-6477380D01*
X-22349524Y-6477380D02*
X-21730477Y-6477380D01*
X-21159048Y-5905952D02*
X-21254286Y-5858333D01*
X-21254286Y-5858333D02*
X-21301905Y-5810714D01*
X-21301905Y-5810714D02*
X-21349524Y-5715476D01*
X-21349524Y-5715476D02*
X-21349524Y-5667857D01*
X-21349524Y-5667857D02*
X-21301905Y-5572619D01*
X-21301905Y-5572619D02*
X-21254286Y-5525000D01*
X-21254286Y-5525000D02*
X-21159048Y-5477380D01*
X-21159048Y-5477380D02*
X-20968572Y-5477380D01*
X-20968572Y-5477380D02*
X-20873334Y-5525000D01*
X-20873334Y-5525000D02*
X-20825715Y-5572619D01*
X-20825715Y-5572619D02*
X-20778096Y-5667857D01*
X-20778096Y-5667857D02*
X-20778096Y-5715476D01*
X-20778096Y-5715476D02*
X-20825715Y-5810714D01*
X-20825715Y-5810714D02*
X-20873334Y-5858333D01*
X-20873334Y-5858333D02*
X-20968572Y-5905952D01*
X-20968572Y-5905952D02*
X-21159048Y-5905952D01*
X-21159048Y-5905952D02*
X-21254286Y-5953571D01*
X-21254286Y-5953571D02*
X-21301905Y-6001190D01*
X-21301905Y-6001190D02*
X-21349524Y-6096428D01*
X-21349524Y-6096428D02*
X-21349524Y-6286904D01*
X-21349524Y-6286904D02*
X-21301905Y-6382142D01*
X-21301905Y-6382142D02*
X-21254286Y-6429761D01*
X-21254286Y-6429761D02*
X-21159048Y-6477380D01*
X-21159048Y-6477380D02*
X-20968572Y-6477380D01*
X-20968572Y-6477380D02*
X-20873334Y-6429761D01*
X-20873334Y-6429761D02*
X-20825715Y-6382142D01*
X-20825715Y-6382142D02*
X-20778096Y-6286904D01*
X-20778096Y-6286904D02*
X-20778096Y-6096428D01*
X-20778096Y-6096428D02*
X-20825715Y-6001190D01*
X-20825715Y-6001190D02*
X-20873334Y-5953571D01*
X-20873334Y-5953571D02*
X-20968572Y-5905952D01*
%TO.C,SW3*%
X8916667Y-15819761D02*
X9059524Y-15867380D01*
X9059524Y-15867380D02*
X9297619Y-15867380D01*
X9297619Y-15867380D02*
X9392857Y-15819761D01*
X9392857Y-15819761D02*
X9440476Y-15772142D01*
X9440476Y-15772142D02*
X9488095Y-15676904D01*
X9488095Y-15676904D02*
X9488095Y-15581666D01*
X9488095Y-15581666D02*
X9440476Y-15486428D01*
X9440476Y-15486428D02*
X9392857Y-15438809D01*
X9392857Y-15438809D02*
X9297619Y-15391190D01*
X9297619Y-15391190D02*
X9107143Y-15343571D01*
X9107143Y-15343571D02*
X9011905Y-15295952D01*
X9011905Y-15295952D02*
X8964286Y-15248333D01*
X8964286Y-15248333D02*
X8916667Y-15153095D01*
X8916667Y-15153095D02*
X8916667Y-15057857D01*
X8916667Y-15057857D02*
X8964286Y-14962619D01*
X8964286Y-14962619D02*
X9011905Y-14915000D01*
X9011905Y-14915000D02*
X9107143Y-14867380D01*
X9107143Y-14867380D02*
X9345238Y-14867380D01*
X9345238Y-14867380D02*
X9488095Y-14915000D01*
X9821429Y-14867380D02*
X10059524Y-15867380D01*
X10059524Y-15867380D02*
X10250000Y-15153095D01*
X10250000Y-15153095D02*
X10440476Y-15867380D01*
X10440476Y-15867380D02*
X10678572Y-14867380D01*
X10964286Y-14867380D02*
X11583333Y-14867380D01*
X11583333Y-14867380D02*
X11250000Y-15248333D01*
X11250000Y-15248333D02*
X11392857Y-15248333D01*
X11392857Y-15248333D02*
X11488095Y-15295952D01*
X11488095Y-15295952D02*
X11535714Y-15343571D01*
X11535714Y-15343571D02*
X11583333Y-15438809D01*
X11583333Y-15438809D02*
X11583333Y-15676904D01*
X11583333Y-15676904D02*
X11535714Y-15772142D01*
X11535714Y-15772142D02*
X11488095Y-15819761D01*
X11488095Y-15819761D02*
X11392857Y-15867380D01*
X11392857Y-15867380D02*
X11107143Y-15867380D01*
X11107143Y-15867380D02*
X11011905Y-15819761D01*
X11011905Y-15819761D02*
X10964286Y-15772142D01*
%TO.C,SW2*%
X-11083333Y-15819761D02*
X-10940476Y-15867380D01*
X-10940476Y-15867380D02*
X-10702381Y-15867380D01*
X-10702381Y-15867380D02*
X-10607143Y-15819761D01*
X-10607143Y-15819761D02*
X-10559524Y-15772142D01*
X-10559524Y-15772142D02*
X-10511905Y-15676904D01*
X-10511905Y-15676904D02*
X-10511905Y-15581666D01*
X-10511905Y-15581666D02*
X-10559524Y-15486428D01*
X-10559524Y-15486428D02*
X-10607143Y-15438809D01*
X-10607143Y-15438809D02*
X-10702381Y-15391190D01*
X-10702381Y-15391190D02*
X-10892857Y-15343571D01*
X-10892857Y-15343571D02*
X-10988095Y-15295952D01*
X-10988095Y-15295952D02*
X-11035714Y-15248333D01*
X-11035714Y-15248333D02*
X-11083333Y-15153095D01*
X-11083333Y-15153095D02*
X-11083333Y-15057857D01*
X-11083333Y-15057857D02*
X-11035714Y-14962619D01*
X-11035714Y-14962619D02*
X-10988095Y-14915000D01*
X-10988095Y-14915000D02*
X-10892857Y-14867380D01*
X-10892857Y-14867380D02*
X-10654762Y-14867380D01*
X-10654762Y-14867380D02*
X-10511905Y-14915000D01*
X-10178571Y-14867380D02*
X-9940476Y-15867380D01*
X-9940476Y-15867380D02*
X-9750000Y-15153095D01*
X-9750000Y-15153095D02*
X-9559524Y-15867380D01*
X-9559524Y-15867380D02*
X-9321428Y-14867380D01*
X-8988095Y-14962619D02*
X-8940476Y-14915000D01*
X-8940476Y-14915000D02*
X-8845238Y-14867380D01*
X-8845238Y-14867380D02*
X-8607143Y-14867380D01*
X-8607143Y-14867380D02*
X-8511905Y-14915000D01*
X-8511905Y-14915000D02*
X-8464286Y-14962619D01*
X-8464286Y-14962619D02*
X-8416667Y-15057857D01*
X-8416667Y-15057857D02*
X-8416667Y-15153095D01*
X-8416667Y-15153095D02*
X-8464286Y-15295952D01*
X-8464286Y-15295952D02*
X-9035714Y-15867380D01*
X-9035714Y-15867380D02*
X-8416667Y-15867380D01*
%TO.C,Q1*%
X-18595239Y25197381D02*
X-18690477Y25245000D01*
X-18690477Y25245000D02*
X-18785715Y25340239D01*
X-18785715Y25340239D02*
X-18928572Y25483096D01*
X-18928572Y25483096D02*
X-19023810Y25530715D01*
X-19023810Y25530715D02*
X-19119048Y25530715D01*
X-19071429Y25292620D02*
X-19166667Y25340239D01*
X-19166667Y25340239D02*
X-19261905Y25435477D01*
X-19261905Y25435477D02*
X-19309524Y25625953D01*
X-19309524Y25625953D02*
X-19309524Y25959286D01*
X-19309524Y25959286D02*
X-19261905Y26149762D01*
X-19261905Y26149762D02*
X-19166667Y26245000D01*
X-19166667Y26245000D02*
X-19071429Y26292620D01*
X-19071429Y26292620D02*
X-18880953Y26292620D01*
X-18880953Y26292620D02*
X-18785715Y26245000D01*
X-18785715Y26245000D02*
X-18690477Y26149762D01*
X-18690477Y26149762D02*
X-18642858Y25959286D01*
X-18642858Y25959286D02*
X-18642858Y25625953D01*
X-18642858Y25625953D02*
X-18690477Y25435477D01*
X-18690477Y25435477D02*
X-18785715Y25340239D01*
X-18785715Y25340239D02*
X-18880953Y25292620D01*
X-18880953Y25292620D02*
X-19071429Y25292620D01*
X-17690477Y25292620D02*
X-18261905Y25292620D01*
X-17976191Y25292620D02*
X-17976191Y26292620D01*
X-17976191Y26292620D02*
X-18071429Y26149762D01*
X-18071429Y26149762D02*
X-18166667Y26054524D01*
X-18166667Y26054524D02*
X-18261905Y26006905D01*
%TO.C,C27*%
X26542142Y24417143D02*
X26589761Y24369524D01*
X26589761Y24369524D02*
X26637380Y24226667D01*
X26637380Y24226667D02*
X26637380Y24131429D01*
X26637380Y24131429D02*
X26589761Y23988572D01*
X26589761Y23988572D02*
X26494523Y23893334D01*
X26494523Y23893334D02*
X26399285Y23845715D01*
X26399285Y23845715D02*
X26208809Y23798096D01*
X26208809Y23798096D02*
X26065952Y23798096D01*
X26065952Y23798096D02*
X25875476Y23845715D01*
X25875476Y23845715D02*
X25780238Y23893334D01*
X25780238Y23893334D02*
X25685000Y23988572D01*
X25685000Y23988572D02*
X25637380Y24131429D01*
X25637380Y24131429D02*
X25637380Y24226667D01*
X25637380Y24226667D02*
X25685000Y24369524D01*
X25685000Y24369524D02*
X25732619Y24417143D01*
X25732619Y24798096D02*
X25685000Y24845715D01*
X25685000Y24845715D02*
X25637380Y24940953D01*
X25637380Y24940953D02*
X25637380Y25179048D01*
X25637380Y25179048D02*
X25685000Y25274286D01*
X25685000Y25274286D02*
X25732619Y25321905D01*
X25732619Y25321905D02*
X25827857Y25369524D01*
X25827857Y25369524D02*
X25923095Y25369524D01*
X25923095Y25369524D02*
X26065952Y25321905D01*
X26065952Y25321905D02*
X26637380Y24750477D01*
X26637380Y24750477D02*
X26637380Y25369524D01*
X25637380Y25702858D02*
X25637380Y26369524D01*
X25637380Y26369524D02*
X26637380Y25940953D01*
%TO.C,C24*%
X572142Y-16892857D02*
X619761Y-16940476D01*
X619761Y-16940476D02*
X667380Y-17083333D01*
X667380Y-17083333D02*
X667380Y-17178571D01*
X667380Y-17178571D02*
X619761Y-17321428D01*
X619761Y-17321428D02*
X524523Y-17416666D01*
X524523Y-17416666D02*
X429285Y-17464285D01*
X429285Y-17464285D02*
X238809Y-17511904D01*
X238809Y-17511904D02*
X95952Y-17511904D01*
X95952Y-17511904D02*
X-94524Y-17464285D01*
X-94524Y-17464285D02*
X-189762Y-17416666D01*
X-189762Y-17416666D02*
X-285000Y-17321428D01*
X-285000Y-17321428D02*
X-332620Y-17178571D01*
X-332620Y-17178571D02*
X-332620Y-17083333D01*
X-332620Y-17083333D02*
X-285000Y-16940476D01*
X-285000Y-16940476D02*
X-237381Y-16892857D01*
X-237381Y-16511904D02*
X-285000Y-16464285D01*
X-285000Y-16464285D02*
X-332620Y-16369047D01*
X-332620Y-16369047D02*
X-332620Y-16130952D01*
X-332620Y-16130952D02*
X-285000Y-16035714D01*
X-285000Y-16035714D02*
X-237381Y-15988095D01*
X-237381Y-15988095D02*
X-142143Y-15940476D01*
X-142143Y-15940476D02*
X-46905Y-15940476D01*
X-46905Y-15940476D02*
X95952Y-15988095D01*
X95952Y-15988095D02*
X667380Y-16559523D01*
X667380Y-16559523D02*
X667380Y-15940476D01*
X714Y-15083333D02*
X667380Y-15083333D01*
X-380239Y-15321428D02*
X334047Y-15559523D01*
X334047Y-15559523D02*
X334047Y-14940476D01*
%TO.C,C2*%
X8103333Y17287858D02*
X8055714Y17240239D01*
X8055714Y17240239D02*
X7912857Y17192620D01*
X7912857Y17192620D02*
X7817619Y17192620D01*
X7817619Y17192620D02*
X7674762Y17240239D01*
X7674762Y17240239D02*
X7579524Y17335477D01*
X7579524Y17335477D02*
X7531905Y17430715D01*
X7531905Y17430715D02*
X7484286Y17621191D01*
X7484286Y17621191D02*
X7484286Y17764048D01*
X7484286Y17764048D02*
X7531905Y17954524D01*
X7531905Y17954524D02*
X7579524Y18049762D01*
X7579524Y18049762D02*
X7674762Y18145000D01*
X7674762Y18145000D02*
X7817619Y18192620D01*
X7817619Y18192620D02*
X7912857Y18192620D01*
X7912857Y18192620D02*
X8055714Y18145000D01*
X8055714Y18145000D02*
X8103333Y18097381D01*
X8484286Y18097381D02*
X8531905Y18145000D01*
X8531905Y18145000D02*
X8627143Y18192620D01*
X8627143Y18192620D02*
X8865238Y18192620D01*
X8865238Y18192620D02*
X8960476Y18145000D01*
X8960476Y18145000D02*
X9008095Y18097381D01*
X9008095Y18097381D02*
X9055714Y18002143D01*
X9055714Y18002143D02*
X9055714Y17906905D01*
X9055714Y17906905D02*
X9008095Y17764048D01*
X9008095Y17764048D02*
X8436667Y17192620D01*
X8436667Y17192620D02*
X9055714Y17192620D01*
%TO.C,C12*%
X2492142Y10456358D02*
X2444523Y10408739D01*
X2444523Y10408739D02*
X2301666Y10361120D01*
X2301666Y10361120D02*
X2206428Y10361120D01*
X2206428Y10361120D02*
X2063571Y10408739D01*
X2063571Y10408739D02*
X1968333Y10503977D01*
X1968333Y10503977D02*
X1920714Y10599215D01*
X1920714Y10599215D02*
X1873095Y10789691D01*
X1873095Y10789691D02*
X1873095Y10932548D01*
X1873095Y10932548D02*
X1920714Y11123024D01*
X1920714Y11123024D02*
X1968333Y11218262D01*
X1968333Y11218262D02*
X2063571Y11313500D01*
X2063571Y11313500D02*
X2206428Y11361120D01*
X2206428Y11361120D02*
X2301666Y11361120D01*
X2301666Y11361120D02*
X2444523Y11313500D01*
X2444523Y11313500D02*
X2492142Y11265881D01*
X3444523Y10361120D02*
X2873095Y10361120D01*
X3158809Y10361120D02*
X3158809Y11361120D01*
X3158809Y11361120D02*
X3063571Y11218262D01*
X3063571Y11218262D02*
X2968333Y11123024D01*
X2968333Y11123024D02*
X2873095Y11075405D01*
X3825476Y11265881D02*
X3873095Y11313500D01*
X3873095Y11313500D02*
X3968333Y11361120D01*
X3968333Y11361120D02*
X4206428Y11361120D01*
X4206428Y11361120D02*
X4301666Y11313500D01*
X4301666Y11313500D02*
X4349285Y11265881D01*
X4349285Y11265881D02*
X4396904Y11170643D01*
X4396904Y11170643D02*
X4396904Y11075405D01*
X4396904Y11075405D02*
X4349285Y10932548D01*
X4349285Y10932548D02*
X3777857Y10361120D01*
X3777857Y10361120D02*
X4396904Y10361120D01*
%TO.C,C11*%
X3342142Y12105358D02*
X3294523Y12057739D01*
X3294523Y12057739D02*
X3151666Y12010120D01*
X3151666Y12010120D02*
X3056428Y12010120D01*
X3056428Y12010120D02*
X2913571Y12057739D01*
X2913571Y12057739D02*
X2818333Y12152977D01*
X2818333Y12152977D02*
X2770714Y12248215D01*
X2770714Y12248215D02*
X2723095Y12438691D01*
X2723095Y12438691D02*
X2723095Y12581548D01*
X2723095Y12581548D02*
X2770714Y12772024D01*
X2770714Y12772024D02*
X2818333Y12867262D01*
X2818333Y12867262D02*
X2913571Y12962500D01*
X2913571Y12962500D02*
X3056428Y13010120D01*
X3056428Y13010120D02*
X3151666Y13010120D01*
X3151666Y13010120D02*
X3294523Y12962500D01*
X3294523Y12962500D02*
X3342142Y12914881D01*
X4294523Y12010120D02*
X3723095Y12010120D01*
X4008809Y12010120D02*
X4008809Y13010120D01*
X4008809Y13010120D02*
X3913571Y12867262D01*
X3913571Y12867262D02*
X3818333Y12772024D01*
X3818333Y12772024D02*
X3723095Y12724405D01*
X5246904Y12010120D02*
X4675476Y12010120D01*
X4961190Y12010120D02*
X4961190Y13010120D01*
X4961190Y13010120D02*
X4865952Y12867262D01*
X4865952Y12867262D02*
X4770714Y12772024D01*
X4770714Y12772024D02*
X4675476Y12724405D01*
%TO.C,C8*%
X-7766667Y9192858D02*
X-7814286Y9145239D01*
X-7814286Y9145239D02*
X-7957143Y9097620D01*
X-7957143Y9097620D02*
X-8052381Y9097620D01*
X-8052381Y9097620D02*
X-8195238Y9145239D01*
X-8195238Y9145239D02*
X-8290476Y9240477D01*
X-8290476Y9240477D02*
X-8338095Y9335715D01*
X-8338095Y9335715D02*
X-8385714Y9526191D01*
X-8385714Y9526191D02*
X-8385714Y9669048D01*
X-8385714Y9669048D02*
X-8338095Y9859524D01*
X-8338095Y9859524D02*
X-8290476Y9954762D01*
X-8290476Y9954762D02*
X-8195238Y10050000D01*
X-8195238Y10050000D02*
X-8052381Y10097620D01*
X-8052381Y10097620D02*
X-7957143Y10097620D01*
X-7957143Y10097620D02*
X-7814286Y10050000D01*
X-7814286Y10050000D02*
X-7766667Y10002381D01*
X-7195238Y9669048D02*
X-7290476Y9716667D01*
X-7290476Y9716667D02*
X-7338095Y9764286D01*
X-7338095Y9764286D02*
X-7385714Y9859524D01*
X-7385714Y9859524D02*
X-7385714Y9907143D01*
X-7385714Y9907143D02*
X-7338095Y10002381D01*
X-7338095Y10002381D02*
X-7290476Y10050000D01*
X-7290476Y10050000D02*
X-7195238Y10097620D01*
X-7195238Y10097620D02*
X-7004762Y10097620D01*
X-7004762Y10097620D02*
X-6909524Y10050000D01*
X-6909524Y10050000D02*
X-6861905Y10002381D01*
X-6861905Y10002381D02*
X-6814286Y9907143D01*
X-6814286Y9907143D02*
X-6814286Y9859524D01*
X-6814286Y9859524D02*
X-6861905Y9764286D01*
X-6861905Y9764286D02*
X-6909524Y9716667D01*
X-6909524Y9716667D02*
X-7004762Y9669048D01*
X-7004762Y9669048D02*
X-7195238Y9669048D01*
X-7195238Y9669048D02*
X-7290476Y9621429D01*
X-7290476Y9621429D02*
X-7338095Y9573810D01*
X-7338095Y9573810D02*
X-7385714Y9478572D01*
X-7385714Y9478572D02*
X-7385714Y9288096D01*
X-7385714Y9288096D02*
X-7338095Y9192858D01*
X-7338095Y9192858D02*
X-7290476Y9145239D01*
X-7290476Y9145239D02*
X-7195238Y9097620D01*
X-7195238Y9097620D02*
X-7004762Y9097620D01*
X-7004762Y9097620D02*
X-6909524Y9145239D01*
X-6909524Y9145239D02*
X-6861905Y9192858D01*
X-6861905Y9192858D02*
X-6814286Y9288096D01*
X-6814286Y9288096D02*
X-6814286Y9478572D01*
X-6814286Y9478572D02*
X-6861905Y9573810D01*
X-6861905Y9573810D02*
X-6909524Y9621429D01*
X-6909524Y9621429D02*
X-7004762Y9669048D01*
%TO.C,U1*%
X14302380Y11820596D02*
X15111904Y11820596D01*
X15111904Y11820596D02*
X15207142Y11868215D01*
X15207142Y11868215D02*
X15254761Y11915834D01*
X15254761Y11915834D02*
X15302380Y12011072D01*
X15302380Y12011072D02*
X15302380Y12201548D01*
X15302380Y12201548D02*
X15254761Y12296786D01*
X15254761Y12296786D02*
X15207142Y12344405D01*
X15207142Y12344405D02*
X15111904Y12392024D01*
X15111904Y12392024D02*
X14302380Y12392024D01*
X15302380Y13392024D02*
X15302380Y12820596D01*
X15302380Y13106310D02*
X14302380Y13106310D01*
X14302380Y13106310D02*
X14445238Y13011072D01*
X14445238Y13011072D02*
X14540476Y12915834D01*
X14540476Y12915834D02*
X14588095Y12820596D01*
%TO.C,U4*%
X-10279405Y23347620D02*
X-10279405Y22538096D01*
X-10279405Y22538096D02*
X-10231786Y22442858D01*
X-10231786Y22442858D02*
X-10184167Y22395239D01*
X-10184167Y22395239D02*
X-10088929Y22347620D01*
X-10088929Y22347620D02*
X-9898453Y22347620D01*
X-9898453Y22347620D02*
X-9803215Y22395239D01*
X-9803215Y22395239D02*
X-9755596Y22442858D01*
X-9755596Y22442858D02*
X-9707977Y22538096D01*
X-9707977Y22538096D02*
X-9707977Y23347620D01*
X-8803215Y23014286D02*
X-8803215Y22347620D01*
X-9041310Y23395239D02*
X-9279405Y22680953D01*
X-9279405Y22680953D02*
X-8660358Y22680953D01*
%TO.C,C17*%
X-15334377Y13811143D02*
X-15286758Y13763524D01*
X-15286758Y13763524D02*
X-15239139Y13620667D01*
X-15239139Y13620667D02*
X-15239139Y13525429D01*
X-15239139Y13525429D02*
X-15286758Y13382572D01*
X-15286758Y13382572D02*
X-15381996Y13287334D01*
X-15381996Y13287334D02*
X-15477234Y13239715D01*
X-15477234Y13239715D02*
X-15667710Y13192096D01*
X-15667710Y13192096D02*
X-15810567Y13192096D01*
X-15810567Y13192096D02*
X-16001043Y13239715D01*
X-16001043Y13239715D02*
X-16096281Y13287334D01*
X-16096281Y13287334D02*
X-16191519Y13382572D01*
X-16191519Y13382572D02*
X-16239139Y13525429D01*
X-16239139Y13525429D02*
X-16239139Y13620667D01*
X-16239139Y13620667D02*
X-16191519Y13763524D01*
X-16191519Y13763524D02*
X-16143900Y13811143D01*
X-15239139Y14763524D02*
X-15239139Y14192096D01*
X-15239139Y14477810D02*
X-16239139Y14477810D01*
X-16239139Y14477810D02*
X-16096281Y14382572D01*
X-16096281Y14382572D02*
X-16001043Y14287334D01*
X-16001043Y14287334D02*
X-15953424Y14192096D01*
X-16239139Y15096858D02*
X-16239139Y15763524D01*
X-16239139Y15763524D02*
X-15239139Y15334953D01*
%TO.C,C5*%
X2673333Y15642858D02*
X2625714Y15595239D01*
X2625714Y15595239D02*
X2482857Y15547620D01*
X2482857Y15547620D02*
X2387619Y15547620D01*
X2387619Y15547620D02*
X2244762Y15595239D01*
X2244762Y15595239D02*
X2149524Y15690477D01*
X2149524Y15690477D02*
X2101905Y15785715D01*
X2101905Y15785715D02*
X2054286Y15976191D01*
X2054286Y15976191D02*
X2054286Y16119048D01*
X2054286Y16119048D02*
X2101905Y16309524D01*
X2101905Y16309524D02*
X2149524Y16404762D01*
X2149524Y16404762D02*
X2244762Y16500000D01*
X2244762Y16500000D02*
X2387619Y16547620D01*
X2387619Y16547620D02*
X2482857Y16547620D01*
X2482857Y16547620D02*
X2625714Y16500000D01*
X2625714Y16500000D02*
X2673333Y16452381D01*
X3578095Y16547620D02*
X3101905Y16547620D01*
X3101905Y16547620D02*
X3054286Y16071429D01*
X3054286Y16071429D02*
X3101905Y16119048D01*
X3101905Y16119048D02*
X3197143Y16166667D01*
X3197143Y16166667D02*
X3435238Y16166667D01*
X3435238Y16166667D02*
X3530476Y16119048D01*
X3530476Y16119048D02*
X3578095Y16071429D01*
X3578095Y16071429D02*
X3625714Y15976191D01*
X3625714Y15976191D02*
X3625714Y15738096D01*
X3625714Y15738096D02*
X3578095Y15642858D01*
X3578095Y15642858D02*
X3530476Y15595239D01*
X3530476Y15595239D02*
X3435238Y15547620D01*
X3435238Y15547620D02*
X3197143Y15547620D01*
X3197143Y15547620D02*
X3101905Y15595239D01*
X3101905Y15595239D02*
X3054286Y15642858D01*
%TO.C,C7*%
X-4644167Y18960358D02*
X-4691786Y18912739D01*
X-4691786Y18912739D02*
X-4834643Y18865120D01*
X-4834643Y18865120D02*
X-4929881Y18865120D01*
X-4929881Y18865120D02*
X-5072738Y18912739D01*
X-5072738Y18912739D02*
X-5167976Y19007977D01*
X-5167976Y19007977D02*
X-5215595Y19103215D01*
X-5215595Y19103215D02*
X-5263214Y19293691D01*
X-5263214Y19293691D02*
X-5263214Y19436548D01*
X-5263214Y19436548D02*
X-5215595Y19627024D01*
X-5215595Y19627024D02*
X-5167976Y19722262D01*
X-5167976Y19722262D02*
X-5072738Y19817500D01*
X-5072738Y19817500D02*
X-4929881Y19865120D01*
X-4929881Y19865120D02*
X-4834643Y19865120D01*
X-4834643Y19865120D02*
X-4691786Y19817500D01*
X-4691786Y19817500D02*
X-4644167Y19769881D01*
X-4310833Y19865120D02*
X-3644167Y19865120D01*
X-3644167Y19865120D02*
X-4072738Y18865120D01*
%TO.C,C10*%
X-10367858Y15136143D02*
X-10320239Y15088524D01*
X-10320239Y15088524D02*
X-10272620Y14945667D01*
X-10272620Y14945667D02*
X-10272620Y14850429D01*
X-10272620Y14850429D02*
X-10320239Y14707572D01*
X-10320239Y14707572D02*
X-10415477Y14612334D01*
X-10415477Y14612334D02*
X-10510715Y14564715D01*
X-10510715Y14564715D02*
X-10701191Y14517096D01*
X-10701191Y14517096D02*
X-10844048Y14517096D01*
X-10844048Y14517096D02*
X-11034524Y14564715D01*
X-11034524Y14564715D02*
X-11129762Y14612334D01*
X-11129762Y14612334D02*
X-11225000Y14707572D01*
X-11225000Y14707572D02*
X-11272620Y14850429D01*
X-11272620Y14850429D02*
X-11272620Y14945667D01*
X-11272620Y14945667D02*
X-11225000Y15088524D01*
X-11225000Y15088524D02*
X-11177381Y15136143D01*
X-10272620Y16088524D02*
X-10272620Y15517096D01*
X-10272620Y15802810D02*
X-11272620Y15802810D01*
X-11272620Y15802810D02*
X-11129762Y15707572D01*
X-11129762Y15707572D02*
X-11034524Y15612334D01*
X-11034524Y15612334D02*
X-10986905Y15517096D01*
X-11272620Y16707572D02*
X-11272620Y16802810D01*
X-11272620Y16802810D02*
X-11225000Y16898048D01*
X-11225000Y16898048D02*
X-11177381Y16945667D01*
X-11177381Y16945667D02*
X-11082143Y16993286D01*
X-11082143Y16993286D02*
X-10891667Y17040905D01*
X-10891667Y17040905D02*
X-10653572Y17040905D01*
X-10653572Y17040905D02*
X-10463096Y16993286D01*
X-10463096Y16993286D02*
X-10367858Y16945667D01*
X-10367858Y16945667D02*
X-10320239Y16898048D01*
X-10320239Y16898048D02*
X-10272620Y16802810D01*
X-10272620Y16802810D02*
X-10272620Y16707572D01*
X-10272620Y16707572D02*
X-10320239Y16612334D01*
X-10320239Y16612334D02*
X-10367858Y16564715D01*
X-10367858Y16564715D02*
X-10463096Y16517096D01*
X-10463096Y16517096D02*
X-10653572Y16469477D01*
X-10653572Y16469477D02*
X-10891667Y16469477D01*
X-10891667Y16469477D02*
X-11082143Y16517096D01*
X-11082143Y16517096D02*
X-11177381Y16564715D01*
X-11177381Y16564715D02*
X-11225000Y16612334D01*
X-11225000Y16612334D02*
X-11272620Y16707572D01*
%TO.C,R5*%
X3674209Y14240120D02*
X3340876Y14716310D01*
X3102781Y14240120D02*
X3102781Y15240120D01*
X3102781Y15240120D02*
X3483733Y15240120D01*
X3483733Y15240120D02*
X3578971Y15192500D01*
X3578971Y15192500D02*
X3626590Y15144881D01*
X3626590Y15144881D02*
X3674209Y15049643D01*
X3674209Y15049643D02*
X3674209Y14906786D01*
X3674209Y14906786D02*
X3626590Y14811548D01*
X3626590Y14811548D02*
X3578971Y14763929D01*
X3578971Y14763929D02*
X3483733Y14716310D01*
X3483733Y14716310D02*
X3102781Y14716310D01*
X4578971Y15240120D02*
X4102781Y15240120D01*
X4102781Y15240120D02*
X4055162Y14763929D01*
X4055162Y14763929D02*
X4102781Y14811548D01*
X4102781Y14811548D02*
X4198019Y14859167D01*
X4198019Y14859167D02*
X4436114Y14859167D01*
X4436114Y14859167D02*
X4531352Y14811548D01*
X4531352Y14811548D02*
X4578971Y14763929D01*
X4578971Y14763929D02*
X4626590Y14668691D01*
X4626590Y14668691D02*
X4626590Y14430596D01*
X4626590Y14430596D02*
X4578971Y14335358D01*
X4578971Y14335358D02*
X4531352Y14287739D01*
X4531352Y14287739D02*
X4436114Y14240120D01*
X4436114Y14240120D02*
X4198019Y14240120D01*
X4198019Y14240120D02*
X4102781Y14287739D01*
X4102781Y14287739D02*
X4055162Y14335358D01*
%TO.C,C4*%
X-11827858Y12605834D02*
X-11780239Y12558215D01*
X-11780239Y12558215D02*
X-11732620Y12415358D01*
X-11732620Y12415358D02*
X-11732620Y12320120D01*
X-11732620Y12320120D02*
X-11780239Y12177263D01*
X-11780239Y12177263D02*
X-11875477Y12082025D01*
X-11875477Y12082025D02*
X-11970715Y12034406D01*
X-11970715Y12034406D02*
X-12161191Y11986787D01*
X-12161191Y11986787D02*
X-12304048Y11986787D01*
X-12304048Y11986787D02*
X-12494524Y12034406D01*
X-12494524Y12034406D02*
X-12589762Y12082025D01*
X-12589762Y12082025D02*
X-12685000Y12177263D01*
X-12685000Y12177263D02*
X-12732620Y12320120D01*
X-12732620Y12320120D02*
X-12732620Y12415358D01*
X-12732620Y12415358D02*
X-12685000Y12558215D01*
X-12685000Y12558215D02*
X-12637381Y12605834D01*
X-12399286Y13462977D02*
X-11732620Y13462977D01*
X-12780239Y13224882D02*
X-12065953Y12986787D01*
X-12065953Y12986787D02*
X-12065953Y13605834D01*
%TO.C,C1*%
X15283333Y22017858D02*
X15235714Y21970239D01*
X15235714Y21970239D02*
X15092857Y21922620D01*
X15092857Y21922620D02*
X14997619Y21922620D01*
X14997619Y21922620D02*
X14854762Y21970239D01*
X14854762Y21970239D02*
X14759524Y22065477D01*
X14759524Y22065477D02*
X14711905Y22160715D01*
X14711905Y22160715D02*
X14664286Y22351191D01*
X14664286Y22351191D02*
X14664286Y22494048D01*
X14664286Y22494048D02*
X14711905Y22684524D01*
X14711905Y22684524D02*
X14759524Y22779762D01*
X14759524Y22779762D02*
X14854762Y22875000D01*
X14854762Y22875000D02*
X14997619Y22922620D01*
X14997619Y22922620D02*
X15092857Y22922620D01*
X15092857Y22922620D02*
X15235714Y22875000D01*
X15235714Y22875000D02*
X15283333Y22827381D01*
X16235714Y21922620D02*
X15664286Y21922620D01*
X15950000Y21922620D02*
X15950000Y22922620D01*
X15950000Y22922620D02*
X15854762Y22779762D01*
X15854762Y22779762D02*
X15759524Y22684524D01*
X15759524Y22684524D02*
X15664286Y22636905D01*
%TO.C,C6*%
X-7994167Y18990358D02*
X-8041786Y18942739D01*
X-8041786Y18942739D02*
X-8184643Y18895120D01*
X-8184643Y18895120D02*
X-8279881Y18895120D01*
X-8279881Y18895120D02*
X-8422738Y18942739D01*
X-8422738Y18942739D02*
X-8517976Y19037977D01*
X-8517976Y19037977D02*
X-8565595Y19133215D01*
X-8565595Y19133215D02*
X-8613214Y19323691D01*
X-8613214Y19323691D02*
X-8613214Y19466548D01*
X-8613214Y19466548D02*
X-8565595Y19657024D01*
X-8565595Y19657024D02*
X-8517976Y19752262D01*
X-8517976Y19752262D02*
X-8422738Y19847500D01*
X-8422738Y19847500D02*
X-8279881Y19895120D01*
X-8279881Y19895120D02*
X-8184643Y19895120D01*
X-8184643Y19895120D02*
X-8041786Y19847500D01*
X-8041786Y19847500D02*
X-7994167Y19799881D01*
X-7137024Y19895120D02*
X-7327500Y19895120D01*
X-7327500Y19895120D02*
X-7422738Y19847500D01*
X-7422738Y19847500D02*
X-7470357Y19799881D01*
X-7470357Y19799881D02*
X-7565595Y19657024D01*
X-7565595Y19657024D02*
X-7613214Y19466548D01*
X-7613214Y19466548D02*
X-7613214Y19085596D01*
X-7613214Y19085596D02*
X-7565595Y18990358D01*
X-7565595Y18990358D02*
X-7517976Y18942739D01*
X-7517976Y18942739D02*
X-7422738Y18895120D01*
X-7422738Y18895120D02*
X-7232262Y18895120D01*
X-7232262Y18895120D02*
X-7137024Y18942739D01*
X-7137024Y18942739D02*
X-7089405Y18990358D01*
X-7089405Y18990358D02*
X-7041786Y19085596D01*
X-7041786Y19085596D02*
X-7041786Y19323691D01*
X-7041786Y19323691D02*
X-7089405Y19418929D01*
X-7089405Y19418929D02*
X-7137024Y19466548D01*
X-7137024Y19466548D02*
X-7232262Y19514167D01*
X-7232262Y19514167D02*
X-7422738Y19514167D01*
X-7422738Y19514167D02*
X-7517976Y19466548D01*
X-7517976Y19466548D02*
X-7565595Y19418929D01*
X-7565595Y19418929D02*
X-7613214Y19323691D01*
%TO.C,U5*%
X-2117620Y18633096D02*
X-1308096Y18633096D01*
X-1308096Y18633096D02*
X-1212858Y18680715D01*
X-1212858Y18680715D02*
X-1165239Y18728334D01*
X-1165239Y18728334D02*
X-1117620Y18823572D01*
X-1117620Y18823572D02*
X-1117620Y19014048D01*
X-1117620Y19014048D02*
X-1165239Y19109286D01*
X-1165239Y19109286D02*
X-1212858Y19156905D01*
X-1212858Y19156905D02*
X-1308096Y19204524D01*
X-1308096Y19204524D02*
X-2117620Y19204524D01*
X-2117620Y20156905D02*
X-2117620Y19680715D01*
X-2117620Y19680715D02*
X-1641429Y19633096D01*
X-1641429Y19633096D02*
X-1689048Y19680715D01*
X-1689048Y19680715D02*
X-1736667Y19775953D01*
X-1736667Y19775953D02*
X-1736667Y20014048D01*
X-1736667Y20014048D02*
X-1689048Y20109286D01*
X-1689048Y20109286D02*
X-1641429Y20156905D01*
X-1641429Y20156905D02*
X-1546191Y20204524D01*
X-1546191Y20204524D02*
X-1308096Y20204524D01*
X-1308096Y20204524D02*
X-1212858Y20156905D01*
X-1212858Y20156905D02*
X-1165239Y20109286D01*
X-1165239Y20109286D02*
X-1117620Y20014048D01*
X-1117620Y20014048D02*
X-1117620Y19775953D01*
X-1117620Y19775953D02*
X-1165239Y19680715D01*
X-1165239Y19680715D02*
X-1212858Y19633096D01*
%TO.C,C16*%
X-14420377Y20881143D02*
X-14372758Y20833524D01*
X-14372758Y20833524D02*
X-14325139Y20690667D01*
X-14325139Y20690667D02*
X-14325139Y20595429D01*
X-14325139Y20595429D02*
X-14372758Y20452572D01*
X-14372758Y20452572D02*
X-14467996Y20357334D01*
X-14467996Y20357334D02*
X-14563234Y20309715D01*
X-14563234Y20309715D02*
X-14753710Y20262096D01*
X-14753710Y20262096D02*
X-14896567Y20262096D01*
X-14896567Y20262096D02*
X-15087043Y20309715D01*
X-15087043Y20309715D02*
X-15182281Y20357334D01*
X-15182281Y20357334D02*
X-15277519Y20452572D01*
X-15277519Y20452572D02*
X-15325139Y20595429D01*
X-15325139Y20595429D02*
X-15325139Y20690667D01*
X-15325139Y20690667D02*
X-15277519Y20833524D01*
X-15277519Y20833524D02*
X-15229900Y20881143D01*
X-14325139Y21833524D02*
X-14325139Y21262096D01*
X-14325139Y21547810D02*
X-15325139Y21547810D01*
X-15325139Y21547810D02*
X-15182281Y21452572D01*
X-15182281Y21452572D02*
X-15087043Y21357334D01*
X-15087043Y21357334D02*
X-15039424Y21262096D01*
X-15325139Y22690667D02*
X-15325139Y22500191D01*
X-15325139Y22500191D02*
X-15277519Y22404953D01*
X-15277519Y22404953D02*
X-15229900Y22357334D01*
X-15229900Y22357334D02*
X-15087043Y22262096D01*
X-15087043Y22262096D02*
X-14896567Y22214477D01*
X-14896567Y22214477D02*
X-14515615Y22214477D01*
X-14515615Y22214477D02*
X-14420377Y22262096D01*
X-14420377Y22262096D02*
X-14372758Y22309715D01*
X-14372758Y22309715D02*
X-14325139Y22404953D01*
X-14325139Y22404953D02*
X-14325139Y22595429D01*
X-14325139Y22595429D02*
X-14372758Y22690667D01*
X-14372758Y22690667D02*
X-14420377Y22738286D01*
X-14420377Y22738286D02*
X-14515615Y22785905D01*
X-14515615Y22785905D02*
X-14753710Y22785905D01*
X-14753710Y22785905D02*
X-14848948Y22738286D01*
X-14848948Y22738286D02*
X-14896567Y22690667D01*
X-14896567Y22690667D02*
X-14944186Y22595429D01*
X-14944186Y22595429D02*
X-14944186Y22404953D01*
X-14944186Y22404953D02*
X-14896567Y22309715D01*
X-14896567Y22309715D02*
X-14848948Y22262096D01*
X-14848948Y22262096D02*
X-14753710Y22214477D01*
%TO.C,R6*%
X3674209Y12940120D02*
X3340876Y13416310D01*
X3102781Y12940120D02*
X3102781Y13940120D01*
X3102781Y13940120D02*
X3483733Y13940120D01*
X3483733Y13940120D02*
X3578971Y13892500D01*
X3578971Y13892500D02*
X3626590Y13844881D01*
X3626590Y13844881D02*
X3674209Y13749643D01*
X3674209Y13749643D02*
X3674209Y13606786D01*
X3674209Y13606786D02*
X3626590Y13511548D01*
X3626590Y13511548D02*
X3578971Y13463929D01*
X3578971Y13463929D02*
X3483733Y13416310D01*
X3483733Y13416310D02*
X3102781Y13416310D01*
X4531352Y13940120D02*
X4340876Y13940120D01*
X4340876Y13940120D02*
X4245638Y13892500D01*
X4245638Y13892500D02*
X4198019Y13844881D01*
X4198019Y13844881D02*
X4102781Y13702024D01*
X4102781Y13702024D02*
X4055162Y13511548D01*
X4055162Y13511548D02*
X4055162Y13130596D01*
X4055162Y13130596D02*
X4102781Y13035358D01*
X4102781Y13035358D02*
X4150400Y12987739D01*
X4150400Y12987739D02*
X4245638Y12940120D01*
X4245638Y12940120D02*
X4436114Y12940120D01*
X4436114Y12940120D02*
X4531352Y12987739D01*
X4531352Y12987739D02*
X4578971Y13035358D01*
X4578971Y13035358D02*
X4626590Y13130596D01*
X4626590Y13130596D02*
X4626590Y13368691D01*
X4626590Y13368691D02*
X4578971Y13463929D01*
X4578971Y13463929D02*
X4531352Y13511548D01*
X4531352Y13511548D02*
X4436114Y13559167D01*
X4436114Y13559167D02*
X4245638Y13559167D01*
X4245638Y13559167D02*
X4150400Y13511548D01*
X4150400Y13511548D02*
X4102781Y13463929D01*
X4102781Y13463929D02*
X4055162Y13368691D01*
%TO.C,C3*%
X2663333Y17212858D02*
X2615714Y17165239D01*
X2615714Y17165239D02*
X2472857Y17117620D01*
X2472857Y17117620D02*
X2377619Y17117620D01*
X2377619Y17117620D02*
X2234762Y17165239D01*
X2234762Y17165239D02*
X2139524Y17260477D01*
X2139524Y17260477D02*
X2091905Y17355715D01*
X2091905Y17355715D02*
X2044286Y17546191D01*
X2044286Y17546191D02*
X2044286Y17689048D01*
X2044286Y17689048D02*
X2091905Y17879524D01*
X2091905Y17879524D02*
X2139524Y17974762D01*
X2139524Y17974762D02*
X2234762Y18070000D01*
X2234762Y18070000D02*
X2377619Y18117620D01*
X2377619Y18117620D02*
X2472857Y18117620D01*
X2472857Y18117620D02*
X2615714Y18070000D01*
X2615714Y18070000D02*
X2663333Y18022381D01*
X2996667Y18117620D02*
X3615714Y18117620D01*
X3615714Y18117620D02*
X3282381Y17736667D01*
X3282381Y17736667D02*
X3425238Y17736667D01*
X3425238Y17736667D02*
X3520476Y17689048D01*
X3520476Y17689048D02*
X3568095Y17641429D01*
X3568095Y17641429D02*
X3615714Y17546191D01*
X3615714Y17546191D02*
X3615714Y17308096D01*
X3615714Y17308096D02*
X3568095Y17212858D01*
X3568095Y17212858D02*
X3520476Y17165239D01*
X3520476Y17165239D02*
X3425238Y17117620D01*
X3425238Y17117620D02*
X3139524Y17117620D01*
X3139524Y17117620D02*
X3044286Y17165239D01*
X3044286Y17165239D02*
X2996667Y17212858D01*
%TO.C,C15*%
X-3082858Y29535358D02*
X-3130477Y29487739D01*
X-3130477Y29487739D02*
X-3273334Y29440120D01*
X-3273334Y29440120D02*
X-3368572Y29440120D01*
X-3368572Y29440120D02*
X-3511429Y29487739D01*
X-3511429Y29487739D02*
X-3606667Y29582977D01*
X-3606667Y29582977D02*
X-3654286Y29678215D01*
X-3654286Y29678215D02*
X-3701905Y29868691D01*
X-3701905Y29868691D02*
X-3701905Y30011548D01*
X-3701905Y30011548D02*
X-3654286Y30202024D01*
X-3654286Y30202024D02*
X-3606667Y30297262D01*
X-3606667Y30297262D02*
X-3511429Y30392500D01*
X-3511429Y30392500D02*
X-3368572Y30440120D01*
X-3368572Y30440120D02*
X-3273334Y30440120D01*
X-3273334Y30440120D02*
X-3130477Y30392500D01*
X-3130477Y30392500D02*
X-3082858Y30344881D01*
X-2130477Y29440120D02*
X-2701905Y29440120D01*
X-2416191Y29440120D02*
X-2416191Y30440120D01*
X-2416191Y30440120D02*
X-2511429Y30297262D01*
X-2511429Y30297262D02*
X-2606667Y30202024D01*
X-2606667Y30202024D02*
X-2701905Y30154405D01*
X-1225715Y30440120D02*
X-1701905Y30440120D01*
X-1701905Y30440120D02*
X-1749524Y29963929D01*
X-1749524Y29963929D02*
X-1701905Y30011548D01*
X-1701905Y30011548D02*
X-1606667Y30059167D01*
X-1606667Y30059167D02*
X-1368572Y30059167D01*
X-1368572Y30059167D02*
X-1273334Y30011548D01*
X-1273334Y30011548D02*
X-1225715Y29963929D01*
X-1225715Y29963929D02*
X-1178096Y29868691D01*
X-1178096Y29868691D02*
X-1178096Y29630596D01*
X-1178096Y29630596D02*
X-1225715Y29535358D01*
X-1225715Y29535358D02*
X-1273334Y29487739D01*
X-1273334Y29487739D02*
X-1368572Y29440120D01*
X-1368572Y29440120D02*
X-1606667Y29440120D01*
X-1606667Y29440120D02*
X-1701905Y29487739D01*
X-1701905Y29487739D02*
X-1749524Y29535358D01*
%TO.C,R8*%
X-12625139Y18257334D02*
X-13101329Y17924001D01*
X-12625139Y17685906D02*
X-13625139Y17685906D01*
X-13625139Y17685906D02*
X-13625139Y18066858D01*
X-13625139Y18066858D02*
X-13577519Y18162096D01*
X-13577519Y18162096D02*
X-13529900Y18209715D01*
X-13529900Y18209715D02*
X-13434662Y18257334D01*
X-13434662Y18257334D02*
X-13291805Y18257334D01*
X-13291805Y18257334D02*
X-13196567Y18209715D01*
X-13196567Y18209715D02*
X-13148948Y18162096D01*
X-13148948Y18162096D02*
X-13101329Y18066858D01*
X-13101329Y18066858D02*
X-13101329Y17685906D01*
X-13196567Y18828763D02*
X-13244186Y18733525D01*
X-13244186Y18733525D02*
X-13291805Y18685906D01*
X-13291805Y18685906D02*
X-13387043Y18638287D01*
X-13387043Y18638287D02*
X-13434662Y18638287D01*
X-13434662Y18638287D02*
X-13529900Y18685906D01*
X-13529900Y18685906D02*
X-13577519Y18733525D01*
X-13577519Y18733525D02*
X-13625139Y18828763D01*
X-13625139Y18828763D02*
X-13625139Y19019239D01*
X-13625139Y19019239D02*
X-13577519Y19114477D01*
X-13577519Y19114477D02*
X-13529900Y19162096D01*
X-13529900Y19162096D02*
X-13434662Y19209715D01*
X-13434662Y19209715D02*
X-13387043Y19209715D01*
X-13387043Y19209715D02*
X-13291805Y19162096D01*
X-13291805Y19162096D02*
X-13244186Y19114477D01*
X-13244186Y19114477D02*
X-13196567Y19019239D01*
X-13196567Y19019239D02*
X-13196567Y18828763D01*
X-13196567Y18828763D02*
X-13148948Y18733525D01*
X-13148948Y18733525D02*
X-13101329Y18685906D01*
X-13101329Y18685906D02*
X-13006091Y18638287D01*
X-13006091Y18638287D02*
X-12815615Y18638287D01*
X-12815615Y18638287D02*
X-12720377Y18685906D01*
X-12720377Y18685906D02*
X-12672758Y18733525D01*
X-12672758Y18733525D02*
X-12625139Y18828763D01*
X-12625139Y18828763D02*
X-12625139Y19019239D01*
X-12625139Y19019239D02*
X-12672758Y19114477D01*
X-12672758Y19114477D02*
X-12720377Y19162096D01*
X-12720377Y19162096D02*
X-12815615Y19209715D01*
X-12815615Y19209715D02*
X-13006091Y19209715D01*
X-13006091Y19209715D02*
X-13101329Y19162096D01*
X-13101329Y19162096D02*
X-13148948Y19114477D01*
X-13148948Y19114477D02*
X-13196567Y19019239D01*
%TO.C,Y1*%
X-15325648Y17486310D02*
X-14849458Y17486310D01*
X-15849458Y17152977D02*
X-15325648Y17486310D01*
X-15325648Y17486310D02*
X-15849458Y17819643D01*
X-14849458Y18676786D02*
X-14849458Y18105358D01*
X-14849458Y18391072D02*
X-15849458Y18391072D01*
X-15849458Y18391072D02*
X-15706600Y18295834D01*
X-15706600Y18295834D02*
X-15611362Y18200596D01*
X-15611362Y18200596D02*
X-15563743Y18105358D01*
%TO.C,C26*%
X33392142Y-3322857D02*
X33439761Y-3370476D01*
X33439761Y-3370476D02*
X33487380Y-3513333D01*
X33487380Y-3513333D02*
X33487380Y-3608571D01*
X33487380Y-3608571D02*
X33439761Y-3751428D01*
X33439761Y-3751428D02*
X33344523Y-3846666D01*
X33344523Y-3846666D02*
X33249285Y-3894285D01*
X33249285Y-3894285D02*
X33058809Y-3941904D01*
X33058809Y-3941904D02*
X32915952Y-3941904D01*
X32915952Y-3941904D02*
X32725476Y-3894285D01*
X32725476Y-3894285D02*
X32630238Y-3846666D01*
X32630238Y-3846666D02*
X32535000Y-3751428D01*
X32535000Y-3751428D02*
X32487380Y-3608571D01*
X32487380Y-3608571D02*
X32487380Y-3513333D01*
X32487380Y-3513333D02*
X32535000Y-3370476D01*
X32535000Y-3370476D02*
X32582619Y-3322857D01*
X32582619Y-2941904D02*
X32535000Y-2894285D01*
X32535000Y-2894285D02*
X32487380Y-2799047D01*
X32487380Y-2799047D02*
X32487380Y-2560952D01*
X32487380Y-2560952D02*
X32535000Y-2465714D01*
X32535000Y-2465714D02*
X32582619Y-2418095D01*
X32582619Y-2418095D02*
X32677857Y-2370476D01*
X32677857Y-2370476D02*
X32773095Y-2370476D01*
X32773095Y-2370476D02*
X32915952Y-2418095D01*
X32915952Y-2418095D02*
X33487380Y-2989523D01*
X33487380Y-2989523D02*
X33487380Y-2370476D01*
X32487380Y-1513333D02*
X32487380Y-1703809D01*
X32487380Y-1703809D02*
X32535000Y-1799047D01*
X32535000Y-1799047D02*
X32582619Y-1846666D01*
X32582619Y-1846666D02*
X32725476Y-1941904D01*
X32725476Y-1941904D02*
X32915952Y-1989523D01*
X32915952Y-1989523D02*
X33296904Y-1989523D01*
X33296904Y-1989523D02*
X33392142Y-1941904D01*
X33392142Y-1941904D02*
X33439761Y-1894285D01*
X33439761Y-1894285D02*
X33487380Y-1799047D01*
X33487380Y-1799047D02*
X33487380Y-1608571D01*
X33487380Y-1608571D02*
X33439761Y-1513333D01*
X33439761Y-1513333D02*
X33392142Y-1465714D01*
X33392142Y-1465714D02*
X33296904Y-1418095D01*
X33296904Y-1418095D02*
X33058809Y-1418095D01*
X33058809Y-1418095D02*
X32963571Y-1465714D01*
X32963571Y-1465714D02*
X32915952Y-1513333D01*
X32915952Y-1513333D02*
X32868333Y-1608571D01*
X32868333Y-1608571D02*
X32868333Y-1799047D01*
X32868333Y-1799047D02*
X32915952Y-1894285D01*
X32915952Y-1894285D02*
X32963571Y-1941904D01*
X32963571Y-1941904D02*
X33058809Y-1989523D01*
%TO.C,SW1*%
X-10367671Y31507739D02*
X-10224814Y31460120D01*
X-10224814Y31460120D02*
X-9986719Y31460120D01*
X-9986719Y31460120D02*
X-9891481Y31507739D01*
X-9891481Y31507739D02*
X-9843862Y31555358D01*
X-9843862Y31555358D02*
X-9796243Y31650596D01*
X-9796243Y31650596D02*
X-9796243Y31745834D01*
X-9796243Y31745834D02*
X-9843862Y31841072D01*
X-9843862Y31841072D02*
X-9891481Y31888691D01*
X-9891481Y31888691D02*
X-9986719Y31936310D01*
X-9986719Y31936310D02*
X-10177195Y31983929D01*
X-10177195Y31983929D02*
X-10272433Y32031548D01*
X-10272433Y32031548D02*
X-10320052Y32079167D01*
X-10320052Y32079167D02*
X-10367671Y32174405D01*
X-10367671Y32174405D02*
X-10367671Y32269643D01*
X-10367671Y32269643D02*
X-10320052Y32364881D01*
X-10320052Y32364881D02*
X-10272433Y32412500D01*
X-10272433Y32412500D02*
X-10177195Y32460120D01*
X-10177195Y32460120D02*
X-9939100Y32460120D01*
X-9939100Y32460120D02*
X-9796243Y32412500D01*
X-9462909Y32460120D02*
X-9224814Y31460120D01*
X-9224814Y31460120D02*
X-9034338Y32174405D01*
X-9034338Y32174405D02*
X-8843862Y31460120D01*
X-8843862Y31460120D02*
X-8605766Y32460120D01*
X-7701005Y31460120D02*
X-8272433Y31460120D01*
X-7986719Y31460120D02*
X-7986719Y32460120D01*
X-7986719Y32460120D02*
X-8081957Y32317262D01*
X-8081957Y32317262D02*
X-8177195Y32222024D01*
X-8177195Y32222024D02*
X-8272433Y32174405D01*
%TO.C,R4*%
X7223333Y9122620D02*
X6890000Y9598810D01*
X6651905Y9122620D02*
X6651905Y10122620D01*
X6651905Y10122620D02*
X7032857Y10122620D01*
X7032857Y10122620D02*
X7128095Y10075000D01*
X7128095Y10075000D02*
X7175714Y10027381D01*
X7175714Y10027381D02*
X7223333Y9932143D01*
X7223333Y9932143D02*
X7223333Y9789286D01*
X7223333Y9789286D02*
X7175714Y9694048D01*
X7175714Y9694048D02*
X7128095Y9646429D01*
X7128095Y9646429D02*
X7032857Y9598810D01*
X7032857Y9598810D02*
X6651905Y9598810D01*
X8080476Y9789286D02*
X8080476Y9122620D01*
X7842381Y10170239D02*
X7604286Y9455953D01*
X7604286Y9455953D02*
X8223333Y9455953D01*
%TO.C,C25*%
X14732142Y-26912857D02*
X14779761Y-26960476D01*
X14779761Y-26960476D02*
X14827380Y-27103333D01*
X14827380Y-27103333D02*
X14827380Y-27198571D01*
X14827380Y-27198571D02*
X14779761Y-27341428D01*
X14779761Y-27341428D02*
X14684523Y-27436666D01*
X14684523Y-27436666D02*
X14589285Y-27484285D01*
X14589285Y-27484285D02*
X14398809Y-27531904D01*
X14398809Y-27531904D02*
X14255952Y-27531904D01*
X14255952Y-27531904D02*
X14065476Y-27484285D01*
X14065476Y-27484285D02*
X13970238Y-27436666D01*
X13970238Y-27436666D02*
X13875000Y-27341428D01*
X13875000Y-27341428D02*
X13827380Y-27198571D01*
X13827380Y-27198571D02*
X13827380Y-27103333D01*
X13827380Y-27103333D02*
X13875000Y-26960476D01*
X13875000Y-26960476D02*
X13922619Y-26912857D01*
X13922619Y-26531904D02*
X13875000Y-26484285D01*
X13875000Y-26484285D02*
X13827380Y-26389047D01*
X13827380Y-26389047D02*
X13827380Y-26150952D01*
X13827380Y-26150952D02*
X13875000Y-26055714D01*
X13875000Y-26055714D02*
X13922619Y-26008095D01*
X13922619Y-26008095D02*
X14017857Y-25960476D01*
X14017857Y-25960476D02*
X14113095Y-25960476D01*
X14113095Y-25960476D02*
X14255952Y-26008095D01*
X14255952Y-26008095D02*
X14827380Y-26579523D01*
X14827380Y-26579523D02*
X14827380Y-25960476D01*
X13827380Y-25055714D02*
X13827380Y-25531904D01*
X13827380Y-25531904D02*
X14303571Y-25579523D01*
X14303571Y-25579523D02*
X14255952Y-25531904D01*
X14255952Y-25531904D02*
X14208333Y-25436666D01*
X14208333Y-25436666D02*
X14208333Y-25198571D01*
X14208333Y-25198571D02*
X14255952Y-25103333D01*
X14255952Y-25103333D02*
X14303571Y-25055714D01*
X14303571Y-25055714D02*
X14398809Y-25008095D01*
X14398809Y-25008095D02*
X14636904Y-25008095D01*
X14636904Y-25008095D02*
X14732142Y-25055714D01*
X14732142Y-25055714D02*
X14779761Y-25103333D01*
X14779761Y-25103333D02*
X14827380Y-25198571D01*
X14827380Y-25198571D02*
X14827380Y-25436666D01*
X14827380Y-25436666D02*
X14779761Y-25531904D01*
X14779761Y-25531904D02*
X14732142Y-25579523D01*
%TO.C,H3*%
X-761905Y-25167380D02*
X-761905Y-24167380D01*
X-761905Y-24643571D02*
X-190477Y-24643571D01*
X-190477Y-25167380D02*
X-190477Y-24167380D01*
X190476Y-24167380D02*
X809523Y-24167380D01*
X809523Y-24167380D02*
X476190Y-24548333D01*
X476190Y-24548333D02*
X619047Y-24548333D01*
X619047Y-24548333D02*
X714285Y-24595952D01*
X714285Y-24595952D02*
X761904Y-24643571D01*
X761904Y-24643571D02*
X809523Y-24738809D01*
X809523Y-24738809D02*
X809523Y-24976904D01*
X809523Y-24976904D02*
X761904Y-25072142D01*
X761904Y-25072142D02*
X714285Y-25119761D01*
X714285Y-25119761D02*
X619047Y-25167380D01*
X619047Y-25167380D02*
X333333Y-25167380D01*
X333333Y-25167380D02*
X238095Y-25119761D01*
X238095Y-25119761D02*
X190476Y-25072142D01*
%TO.C,P1*%
X768094Y34367381D02*
X768094Y33367381D01*
X768094Y33367381D02*
X387142Y33367381D01*
X387142Y33367381D02*
X291904Y33415000D01*
X291904Y33415000D02*
X244285Y33462620D01*
X244285Y33462620D02*
X196666Y33557858D01*
X196666Y33557858D02*
X196666Y33700715D01*
X196666Y33700715D02*
X244285Y33795953D01*
X244285Y33795953D02*
X291904Y33843572D01*
X291904Y33843572D02*
X387142Y33891191D01*
X387142Y33891191D02*
X768094Y33891191D01*
X-755715Y34367381D02*
X-184287Y34367381D01*
X-470001Y34367381D02*
X-470001Y33367381D01*
X-470001Y33367381D02*
X-374763Y33510239D01*
X-374763Y33510239D02*
X-279525Y33605477D01*
X-279525Y33605477D02*
X-184287Y33653096D01*
%TO.C,D2*%
X-32738095Y-2367380D02*
X-32738095Y-1367380D01*
X-32738095Y-1367380D02*
X-32500000Y-1367380D01*
X-32500000Y-1367380D02*
X-32357143Y-1415000D01*
X-32357143Y-1415000D02*
X-32261905Y-1510238D01*
X-32261905Y-1510238D02*
X-32214286Y-1605476D01*
X-32214286Y-1605476D02*
X-32166667Y-1795952D01*
X-32166667Y-1795952D02*
X-32166667Y-1938809D01*
X-32166667Y-1938809D02*
X-32214286Y-2129285D01*
X-32214286Y-2129285D02*
X-32261905Y-2224523D01*
X-32261905Y-2224523D02*
X-32357143Y-2319761D01*
X-32357143Y-2319761D02*
X-32500000Y-2367380D01*
X-32500000Y-2367380D02*
X-32738095Y-2367380D01*
X-31785714Y-1462619D02*
X-31738095Y-1415000D01*
X-31738095Y-1415000D02*
X-31642857Y-1367380D01*
X-31642857Y-1367380D02*
X-31404762Y-1367380D01*
X-31404762Y-1367380D02*
X-31309524Y-1415000D01*
X-31309524Y-1415000D02*
X-31261905Y-1462619D01*
X-31261905Y-1462619D02*
X-31214286Y-1557857D01*
X-31214286Y-1557857D02*
X-31214286Y-1653095D01*
X-31214286Y-1653095D02*
X-31261905Y-1795952D01*
X-31261905Y-1795952D02*
X-31833333Y-2367380D01*
X-31833333Y-2367380D02*
X-31214286Y-2367380D01*
%TO.C,R1*%
X14238333Y7125120D02*
X13905000Y7601310D01*
X13666905Y7125120D02*
X13666905Y8125120D01*
X13666905Y8125120D02*
X14047857Y8125120D01*
X14047857Y8125120D02*
X14143095Y8077500D01*
X14143095Y8077500D02*
X14190714Y8029881D01*
X14190714Y8029881D02*
X14238333Y7934643D01*
X14238333Y7934643D02*
X14238333Y7791786D01*
X14238333Y7791786D02*
X14190714Y7696548D01*
X14190714Y7696548D02*
X14143095Y7648929D01*
X14143095Y7648929D02*
X14047857Y7601310D01*
X14047857Y7601310D02*
X13666905Y7601310D01*
X15190714Y7125120D02*
X14619286Y7125120D01*
X14905000Y7125120D02*
X14905000Y8125120D01*
X14905000Y8125120D02*
X14809762Y7982262D01*
X14809762Y7982262D02*
X14714524Y7887024D01*
X14714524Y7887024D02*
X14619286Y7839405D01*
%TO.C,C21*%
X-19457858Y24487143D02*
X-19410239Y24439524D01*
X-19410239Y24439524D02*
X-19362620Y24296667D01*
X-19362620Y24296667D02*
X-19362620Y24201429D01*
X-19362620Y24201429D02*
X-19410239Y24058572D01*
X-19410239Y24058572D02*
X-19505477Y23963334D01*
X-19505477Y23963334D02*
X-19600715Y23915715D01*
X-19600715Y23915715D02*
X-19791191Y23868096D01*
X-19791191Y23868096D02*
X-19934048Y23868096D01*
X-19934048Y23868096D02*
X-20124524Y23915715D01*
X-20124524Y23915715D02*
X-20219762Y23963334D01*
X-20219762Y23963334D02*
X-20315000Y24058572D01*
X-20315000Y24058572D02*
X-20362620Y24201429D01*
X-20362620Y24201429D02*
X-20362620Y24296667D01*
X-20362620Y24296667D02*
X-20315000Y24439524D01*
X-20315000Y24439524D02*
X-20267381Y24487143D01*
X-20267381Y24868096D02*
X-20315000Y24915715D01*
X-20315000Y24915715D02*
X-20362620Y25010953D01*
X-20362620Y25010953D02*
X-20362620Y25249048D01*
X-20362620Y25249048D02*
X-20315000Y25344286D01*
X-20315000Y25344286D02*
X-20267381Y25391905D01*
X-20267381Y25391905D02*
X-20172143Y25439524D01*
X-20172143Y25439524D02*
X-20076905Y25439524D01*
X-20076905Y25439524D02*
X-19934048Y25391905D01*
X-19934048Y25391905D02*
X-19362620Y24820477D01*
X-19362620Y24820477D02*
X-19362620Y25439524D01*
X-19362620Y26391905D02*
X-19362620Y25820477D01*
X-19362620Y26106191D02*
X-20362620Y26106191D01*
X-20362620Y26106191D02*
X-20219762Y26010953D01*
X-20219762Y26010953D02*
X-20124524Y25915715D01*
X-20124524Y25915715D02*
X-20076905Y25820477D01*
%TO.C,U3*%
X3756666Y20777834D02*
X3756666Y20211167D01*
X3756666Y20211167D02*
X3790000Y20144500D01*
X3790000Y20144500D02*
X3823333Y20111167D01*
X3823333Y20111167D02*
X3890000Y20077834D01*
X3890000Y20077834D02*
X4023333Y20077834D01*
X4023333Y20077834D02*
X4090000Y20111167D01*
X4090000Y20111167D02*
X4123333Y20144500D01*
X4123333Y20144500D02*
X4156666Y20211167D01*
X4156666Y20211167D02*
X4156666Y20777834D01*
X4423333Y20777834D02*
X4856666Y20777834D01*
X4856666Y20777834D02*
X4623333Y20511167D01*
X4623333Y20511167D02*
X4723333Y20511167D01*
X4723333Y20511167D02*
X4789999Y20477834D01*
X4789999Y20477834D02*
X4823333Y20444500D01*
X4823333Y20444500D02*
X4856666Y20377834D01*
X4856666Y20377834D02*
X4856666Y20211167D01*
X4856666Y20211167D02*
X4823333Y20144500D01*
X4823333Y20144500D02*
X4789999Y20111167D01*
X4789999Y20111167D02*
X4723333Y20077834D01*
X4723333Y20077834D02*
X4523333Y20077834D01*
X4523333Y20077834D02*
X4456666Y20111167D01*
X4456666Y20111167D02*
X4423333Y20144500D01*
X3456666Y24544500D02*
X3690000Y24544500D01*
X3790000Y24177834D02*
X3456666Y24177834D01*
X3456666Y24177834D02*
X3456666Y24877834D01*
X3456666Y24877834D02*
X3790000Y24877834D01*
X4056666Y24211167D02*
X4156666Y24177834D01*
X4156666Y24177834D02*
X4323333Y24177834D01*
X4323333Y24177834D02*
X4389999Y24211167D01*
X4389999Y24211167D02*
X4423333Y24244500D01*
X4423333Y24244500D02*
X4456666Y24311167D01*
X4456666Y24311167D02*
X4456666Y24377834D01*
X4456666Y24377834D02*
X4423333Y24444500D01*
X4423333Y24444500D02*
X4389999Y24477834D01*
X4389999Y24477834D02*
X4323333Y24511167D01*
X4323333Y24511167D02*
X4189999Y24544500D01*
X4189999Y24544500D02*
X4123333Y24577834D01*
X4123333Y24577834D02*
X4089999Y24611167D01*
X4089999Y24611167D02*
X4056666Y24677834D01*
X4056666Y24677834D02*
X4056666Y24744500D01*
X4056666Y24744500D02*
X4089999Y24811167D01*
X4089999Y24811167D02*
X4123333Y24844500D01*
X4123333Y24844500D02*
X4189999Y24877834D01*
X4189999Y24877834D02*
X4356666Y24877834D01*
X4356666Y24877834D02*
X4456666Y24844500D01*
X4756666Y24177834D02*
X4756666Y24877834D01*
X4756666Y24877834D02*
X4923333Y24877834D01*
X4923333Y24877834D02*
X5023333Y24844500D01*
X5023333Y24844500D02*
X5090000Y24777834D01*
X5090000Y24777834D02*
X5123333Y24711167D01*
X5123333Y24711167D02*
X5156666Y24577834D01*
X5156666Y24577834D02*
X5156666Y24477834D01*
X5156666Y24477834D02*
X5123333Y24344500D01*
X5123333Y24344500D02*
X5090000Y24277834D01*
X5090000Y24277834D02*
X5023333Y24211167D01*
X5023333Y24211167D02*
X4923333Y24177834D01*
X4923333Y24177834D02*
X4756666Y24177834D01*
%TO.C,C22*%
X-35117858Y-642857D02*
X-35070239Y-690476D01*
X-35070239Y-690476D02*
X-35022620Y-833333D01*
X-35022620Y-833333D02*
X-35022620Y-928571D01*
X-35022620Y-928571D02*
X-35070239Y-1071428D01*
X-35070239Y-1071428D02*
X-35165477Y-1166666D01*
X-35165477Y-1166666D02*
X-35260715Y-1214285D01*
X-35260715Y-1214285D02*
X-35451191Y-1261904D01*
X-35451191Y-1261904D02*
X-35594048Y-1261904D01*
X-35594048Y-1261904D02*
X-35784524Y-1214285D01*
X-35784524Y-1214285D02*
X-35879762Y-1166666D01*
X-35879762Y-1166666D02*
X-35975000Y-1071428D01*
X-35975000Y-1071428D02*
X-36022620Y-928571D01*
X-36022620Y-928571D02*
X-36022620Y-833333D01*
X-36022620Y-833333D02*
X-35975000Y-690476D01*
X-35975000Y-690476D02*
X-35927381Y-642857D01*
X-35927381Y-261904D02*
X-35975000Y-214285D01*
X-35975000Y-214285D02*
X-36022620Y-119047D01*
X-36022620Y-119047D02*
X-36022620Y119048D01*
X-36022620Y119048D02*
X-35975000Y214286D01*
X-35975000Y214286D02*
X-35927381Y261905D01*
X-35927381Y261905D02*
X-35832143Y309524D01*
X-35832143Y309524D02*
X-35736905Y309524D01*
X-35736905Y309524D02*
X-35594048Y261905D01*
X-35594048Y261905D02*
X-35022620Y-309523D01*
X-35022620Y-309523D02*
X-35022620Y309524D01*
X-35927381Y690477D02*
X-35975000Y738096D01*
X-35975000Y738096D02*
X-36022620Y833334D01*
X-36022620Y833334D02*
X-36022620Y1071429D01*
X-36022620Y1071429D02*
X-35975000Y1166667D01*
X-35975000Y1166667D02*
X-35927381Y1214286D01*
X-35927381Y1214286D02*
X-35832143Y1261905D01*
X-35832143Y1261905D02*
X-35736905Y1261905D01*
X-35736905Y1261905D02*
X-35594048Y1214286D01*
X-35594048Y1214286D02*
X-35022620Y642858D01*
X-35022620Y642858D02*
X-35022620Y1261905D01*
%TO.C,D5*%
X17091905Y-28477380D02*
X17091905Y-27477380D01*
X17091905Y-27477380D02*
X17330000Y-27477380D01*
X17330000Y-27477380D02*
X17472857Y-27525000D01*
X17472857Y-27525000D02*
X17568095Y-27620238D01*
X17568095Y-27620238D02*
X17615714Y-27715476D01*
X17615714Y-27715476D02*
X17663333Y-27905952D01*
X17663333Y-27905952D02*
X17663333Y-28048809D01*
X17663333Y-28048809D02*
X17615714Y-28239285D01*
X17615714Y-28239285D02*
X17568095Y-28334523D01*
X17568095Y-28334523D02*
X17472857Y-28429761D01*
X17472857Y-28429761D02*
X17330000Y-28477380D01*
X17330000Y-28477380D02*
X17091905Y-28477380D01*
X18568095Y-27477380D02*
X18091905Y-27477380D01*
X18091905Y-27477380D02*
X18044286Y-27953571D01*
X18044286Y-27953571D02*
X18091905Y-27905952D01*
X18091905Y-27905952D02*
X18187143Y-27858333D01*
X18187143Y-27858333D02*
X18425238Y-27858333D01*
X18425238Y-27858333D02*
X18520476Y-27905952D01*
X18520476Y-27905952D02*
X18568095Y-27953571D01*
X18568095Y-27953571D02*
X18615714Y-28048809D01*
X18615714Y-28048809D02*
X18615714Y-28286904D01*
X18615714Y-28286904D02*
X18568095Y-28382142D01*
X18568095Y-28382142D02*
X18520476Y-28429761D01*
X18520476Y-28429761D02*
X18425238Y-28477380D01*
X18425238Y-28477380D02*
X18187143Y-28477380D01*
X18187143Y-28477380D02*
X18091905Y-28429761D01*
X18091905Y-28429761D02*
X18044286Y-28382142D01*
%TO.C,H2*%
X-27761905Y17832620D02*
X-27761905Y18832620D01*
X-27761905Y18356429D02*
X-27190477Y18356429D01*
X-27190477Y17832620D02*
X-27190477Y18832620D01*
X-26761905Y18737381D02*
X-26714286Y18785000D01*
X-26714286Y18785000D02*
X-26619048Y18832620D01*
X-26619048Y18832620D02*
X-26380953Y18832620D01*
X-26380953Y18832620D02*
X-26285715Y18785000D01*
X-26285715Y18785000D02*
X-26238096Y18737381D01*
X-26238096Y18737381D02*
X-26190477Y18642143D01*
X-26190477Y18642143D02*
X-26190477Y18546905D01*
X-26190477Y18546905D02*
X-26238096Y18404048D01*
X-26238096Y18404048D02*
X-26809524Y17832620D01*
X-26809524Y17832620D02*
X-26190477Y17832620D01*
%TO.C,C23*%
X-21195358Y-27917142D02*
X-21242977Y-27964761D01*
X-21242977Y-27964761D02*
X-21385834Y-28012380D01*
X-21385834Y-28012380D02*
X-21481072Y-28012380D01*
X-21481072Y-28012380D02*
X-21623929Y-27964761D01*
X-21623929Y-27964761D02*
X-21719167Y-27869523D01*
X-21719167Y-27869523D02*
X-21766786Y-27774285D01*
X-21766786Y-27774285D02*
X-21814405Y-27583809D01*
X-21814405Y-27583809D02*
X-21814405Y-27440952D01*
X-21814405Y-27440952D02*
X-21766786Y-27250476D01*
X-21766786Y-27250476D02*
X-21719167Y-27155238D01*
X-21719167Y-27155238D02*
X-21623929Y-27060000D01*
X-21623929Y-27060000D02*
X-21481072Y-27012380D01*
X-21481072Y-27012380D02*
X-21385834Y-27012380D01*
X-21385834Y-27012380D02*
X-21242977Y-27060000D01*
X-21242977Y-27060000D02*
X-21195358Y-27107619D01*
X-20814405Y-27107619D02*
X-20766786Y-27060000D01*
X-20766786Y-27060000D02*
X-20671548Y-27012380D01*
X-20671548Y-27012380D02*
X-20433453Y-27012380D01*
X-20433453Y-27012380D02*
X-20338215Y-27060000D01*
X-20338215Y-27060000D02*
X-20290596Y-27107619D01*
X-20290596Y-27107619D02*
X-20242977Y-27202857D01*
X-20242977Y-27202857D02*
X-20242977Y-27298095D01*
X-20242977Y-27298095D02*
X-20290596Y-27440952D01*
X-20290596Y-27440952D02*
X-20862024Y-28012380D01*
X-20862024Y-28012380D02*
X-20242977Y-28012380D01*
X-19909643Y-27012380D02*
X-19290596Y-27012380D01*
X-19290596Y-27012380D02*
X-19623929Y-27393333D01*
X-19623929Y-27393333D02*
X-19481072Y-27393333D01*
X-19481072Y-27393333D02*
X-19385834Y-27440952D01*
X-19385834Y-27440952D02*
X-19338215Y-27488571D01*
X-19338215Y-27488571D02*
X-19290596Y-27583809D01*
X-19290596Y-27583809D02*
X-19290596Y-27821904D01*
X-19290596Y-27821904D02*
X-19338215Y-27917142D01*
X-19338215Y-27917142D02*
X-19385834Y-27964761D01*
X-19385834Y-27964761D02*
X-19481072Y-28012380D01*
X-19481072Y-28012380D02*
X-19766786Y-28012380D01*
X-19766786Y-28012380D02*
X-19862024Y-27964761D01*
X-19862024Y-27964761D02*
X-19909643Y-27917142D01*
%TO.C,D7*%
X22261905Y26632620D02*
X22261905Y27632620D01*
X22261905Y27632620D02*
X22500000Y27632620D01*
X22500000Y27632620D02*
X22642857Y27585000D01*
X22642857Y27585000D02*
X22738095Y27489762D01*
X22738095Y27489762D02*
X22785714Y27394524D01*
X22785714Y27394524D02*
X22833333Y27204048D01*
X22833333Y27204048D02*
X22833333Y27061191D01*
X22833333Y27061191D02*
X22785714Y26870715D01*
X22785714Y26870715D02*
X22738095Y26775477D01*
X22738095Y26775477D02*
X22642857Y26680239D01*
X22642857Y26680239D02*
X22500000Y26632620D01*
X22500000Y26632620D02*
X22261905Y26632620D01*
X23166667Y27632620D02*
X23833333Y27632620D01*
X23833333Y27632620D02*
X23404762Y26632620D01*
%TO.C,REF\u002A\u002A*%
X-15333334Y-9167380D02*
X-15666667Y-8691190D01*
X-15904762Y-9167380D02*
X-15904762Y-8167380D01*
X-15904762Y-8167380D02*
X-15523810Y-8167380D01*
X-15523810Y-8167380D02*
X-15428572Y-8215000D01*
X-15428572Y-8215000D02*
X-15380953Y-8262619D01*
X-15380953Y-8262619D02*
X-15333334Y-8357857D01*
X-15333334Y-8357857D02*
X-15333334Y-8500714D01*
X-15333334Y-8500714D02*
X-15380953Y-8595952D01*
X-15380953Y-8595952D02*
X-15428572Y-8643571D01*
X-15428572Y-8643571D02*
X-15523810Y-8691190D01*
X-15523810Y-8691190D02*
X-15904762Y-8691190D01*
X-14904762Y-8643571D02*
X-14571429Y-8643571D01*
X-14428572Y-9167380D02*
X-14904762Y-9167380D01*
X-14904762Y-9167380D02*
X-14904762Y-8167380D01*
X-14904762Y-8167380D02*
X-14428572Y-8167380D01*
X-13666667Y-8643571D02*
X-14000000Y-8643571D01*
X-14000000Y-9167380D02*
X-14000000Y-8167380D01*
X-14000000Y-8167380D02*
X-13523810Y-8167380D01*
X-13000000Y-8167380D02*
X-13000000Y-8405476D01*
X-13238095Y-8310238D02*
X-13000000Y-8405476D01*
X-13000000Y-8405476D02*
X-12761905Y-8310238D01*
X-13142857Y-8595952D02*
X-13000000Y-8405476D01*
X-13000000Y-8405476D02*
X-12857143Y-8595952D01*
X-12238095Y-8167380D02*
X-12238095Y-8405476D01*
X-12476190Y-8310238D02*
X-12238095Y-8405476D01*
X-12238095Y-8405476D02*
X-12000000Y-8310238D01*
X-12380952Y-8595952D02*
X-12238095Y-8405476D01*
X-12238095Y-8405476D02*
X-12095238Y-8595952D01*
%TO.C,H1*%
X26238095Y17832620D02*
X26238095Y18832620D01*
X26238095Y18356429D02*
X26809523Y18356429D01*
X26809523Y17832620D02*
X26809523Y18832620D01*
X27809523Y17832620D02*
X27238095Y17832620D01*
X27523809Y17832620D02*
X27523809Y18832620D01*
X27523809Y18832620D02*
X27428571Y18689762D01*
X27428571Y18689762D02*
X27333333Y18594524D01*
X27333333Y18594524D02*
X27238095Y18546905D01*
%TO.C,D3*%
X-18738095Y-28367380D02*
X-18738095Y-27367380D01*
X-18738095Y-27367380D02*
X-18500000Y-27367380D01*
X-18500000Y-27367380D02*
X-18357143Y-27415000D01*
X-18357143Y-27415000D02*
X-18261905Y-27510238D01*
X-18261905Y-27510238D02*
X-18214286Y-27605476D01*
X-18214286Y-27605476D02*
X-18166667Y-27795952D01*
X-18166667Y-27795952D02*
X-18166667Y-27938809D01*
X-18166667Y-27938809D02*
X-18214286Y-28129285D01*
X-18214286Y-28129285D02*
X-18261905Y-28224523D01*
X-18261905Y-28224523D02*
X-18357143Y-28319761D01*
X-18357143Y-28319761D02*
X-18500000Y-28367380D01*
X-18500000Y-28367380D02*
X-18738095Y-28367380D01*
X-17833333Y-27367380D02*
X-17214286Y-27367380D01*
X-17214286Y-27367380D02*
X-17547619Y-27748333D01*
X-17547619Y-27748333D02*
X-17404762Y-27748333D01*
X-17404762Y-27748333D02*
X-17309524Y-27795952D01*
X-17309524Y-27795952D02*
X-17261905Y-27843571D01*
X-17261905Y-27843571D02*
X-17214286Y-27938809D01*
X-17214286Y-27938809D02*
X-17214286Y-28176904D01*
X-17214286Y-28176904D02*
X-17261905Y-28272142D01*
X-17261905Y-28272142D02*
X-17309524Y-28319761D01*
X-17309524Y-28319761D02*
X-17404762Y-28367380D01*
X-17404762Y-28367380D02*
X-17690476Y-28367380D01*
X-17690476Y-28367380D02*
X-17785714Y-28319761D01*
X-17785714Y-28319761D02*
X-17833333Y-28272142D01*
%TO.C,D1*%
X-23738095Y26632620D02*
X-23738095Y27632620D01*
X-23738095Y27632620D02*
X-23500000Y27632620D01*
X-23500000Y27632620D02*
X-23357143Y27585000D01*
X-23357143Y27585000D02*
X-23261905Y27489762D01*
X-23261905Y27489762D02*
X-23214286Y27394524D01*
X-23214286Y27394524D02*
X-23166667Y27204048D01*
X-23166667Y27204048D02*
X-23166667Y27061191D01*
X-23166667Y27061191D02*
X-23214286Y26870715D01*
X-23214286Y26870715D02*
X-23261905Y26775477D01*
X-23261905Y26775477D02*
X-23357143Y26680239D01*
X-23357143Y26680239D02*
X-23500000Y26632620D01*
X-23500000Y26632620D02*
X-23738095Y26632620D01*
X-22214286Y26632620D02*
X-22785714Y26632620D01*
X-22500000Y26632620D02*
X-22500000Y27632620D01*
X-22500000Y27632620D02*
X-22595238Y27489762D01*
X-22595238Y27489762D02*
X-22690476Y27394524D01*
X-22690476Y27394524D02*
X-22785714Y27346905D01*
%TO.C,REF\u002A\u002A*%
X12666666Y-9167380D02*
X12333333Y-8691190D01*
X12095238Y-9167380D02*
X12095238Y-8167380D01*
X12095238Y-8167380D02*
X12476190Y-8167380D01*
X12476190Y-8167380D02*
X12571428Y-8215000D01*
X12571428Y-8215000D02*
X12619047Y-8262619D01*
X12619047Y-8262619D02*
X12666666Y-8357857D01*
X12666666Y-8357857D02*
X12666666Y-8500714D01*
X12666666Y-8500714D02*
X12619047Y-8595952D01*
X12619047Y-8595952D02*
X12571428Y-8643571D01*
X12571428Y-8643571D02*
X12476190Y-8691190D01*
X12476190Y-8691190D02*
X12095238Y-8691190D01*
X13095238Y-8643571D02*
X13428571Y-8643571D01*
X13571428Y-9167380D02*
X13095238Y-9167380D01*
X13095238Y-9167380D02*
X13095238Y-8167380D01*
X13095238Y-8167380D02*
X13571428Y-8167380D01*
X14333333Y-8643571D02*
X14000000Y-8643571D01*
X14000000Y-9167380D02*
X14000000Y-8167380D01*
X14000000Y-8167380D02*
X14476190Y-8167380D01*
X15000000Y-8167380D02*
X15000000Y-8405476D01*
X14761905Y-8310238D02*
X15000000Y-8405476D01*
X15000000Y-8405476D02*
X15238095Y-8310238D01*
X14857143Y-8595952D02*
X15000000Y-8405476D01*
X15000000Y-8405476D02*
X15142857Y-8595952D01*
X15761905Y-8167380D02*
X15761905Y-8405476D01*
X15523810Y-8310238D02*
X15761905Y-8405476D01*
X15761905Y-8405476D02*
X16000000Y-8310238D01*
X15619048Y-8595952D02*
X15761905Y-8405476D01*
X15761905Y-8405476D02*
X15904762Y-8595952D01*
%TO.C,D6*%
X33767380Y-638094D02*
X32767380Y-638094D01*
X32767380Y-638094D02*
X32767380Y-399999D01*
X32767380Y-399999D02*
X32815000Y-257142D01*
X32815000Y-257142D02*
X32910238Y-161904D01*
X32910238Y-161904D02*
X33005476Y-114285D01*
X33005476Y-114285D02*
X33195952Y-66666D01*
X33195952Y-66666D02*
X33338809Y-66666D01*
X33338809Y-66666D02*
X33529285Y-114285D01*
X33529285Y-114285D02*
X33624523Y-161904D01*
X33624523Y-161904D02*
X33719761Y-257142D01*
X33719761Y-257142D02*
X33767380Y-399999D01*
X33767380Y-399999D02*
X33767380Y-638094D01*
X32767380Y790477D02*
X32767380Y600001D01*
X32767380Y600001D02*
X32815000Y504763D01*
X32815000Y504763D02*
X32862619Y457144D01*
X32862619Y457144D02*
X33005476Y361906D01*
X33005476Y361906D02*
X33195952Y314287D01*
X33195952Y314287D02*
X33576904Y314287D01*
X33576904Y314287D02*
X33672142Y361906D01*
X33672142Y361906D02*
X33719761Y409525D01*
X33719761Y409525D02*
X33767380Y504763D01*
X33767380Y504763D02*
X33767380Y695239D01*
X33767380Y695239D02*
X33719761Y790477D01*
X33719761Y790477D02*
X33672142Y838096D01*
X33672142Y838096D02*
X33576904Y885715D01*
X33576904Y885715D02*
X33338809Y885715D01*
X33338809Y885715D02*
X33243571Y838096D01*
X33243571Y838096D02*
X33195952Y790477D01*
X33195952Y790477D02*
X33148333Y695239D01*
X33148333Y695239D02*
X33148333Y504763D01*
X33148333Y504763D02*
X33195952Y409525D01*
X33195952Y409525D02*
X33243571Y361906D01*
X33243571Y361906D02*
X33338809Y314287D01*
%TO.C,D4*%
X-738095Y-16367380D02*
X-738095Y-15367380D01*
X-738095Y-15367380D02*
X-500000Y-15367380D01*
X-500000Y-15367380D02*
X-357143Y-15415000D01*
X-357143Y-15415000D02*
X-261905Y-15510238D01*
X-261905Y-15510238D02*
X-214286Y-15605476D01*
X-214286Y-15605476D02*
X-166667Y-15795952D01*
X-166667Y-15795952D02*
X-166667Y-15938809D01*
X-166667Y-15938809D02*
X-214286Y-16129285D01*
X-214286Y-16129285D02*
X-261905Y-16224523D01*
X-261905Y-16224523D02*
X-357143Y-16319761D01*
X-357143Y-16319761D02*
X-500000Y-16367380D01*
X-500000Y-16367380D02*
X-738095Y-16367380D01*
X690476Y-15700714D02*
X690476Y-16367380D01*
X452381Y-15319761D02*
X214286Y-16034047D01*
X214286Y-16034047D02*
X833333Y-16034047D01*
%TO.C,F1*%
X8096666Y27816429D02*
X7763333Y27816429D01*
X7763333Y27292620D02*
X7763333Y28292620D01*
X7763333Y28292620D02*
X8239523Y28292620D01*
X9144285Y27292620D02*
X8572857Y27292620D01*
X8858571Y27292620D02*
X8858571Y28292620D01*
X8858571Y28292620D02*
X8763333Y28149762D01*
X8763333Y28149762D02*
X8668095Y28054524D01*
X8668095Y28054524D02*
X8572857Y28006905D01*
D11*
%TO.C,REF\u002A\u002A*%
X-12515000Y-6985000D02*
X-26485000Y-6985000D01*
X-12515000Y6985000D02*
X-12515000Y-6985000D01*
X-26485000Y-6985000D02*
X-26485000Y6985000D01*
X-26485000Y6985000D02*
X-12515000Y6985000D01*
X12515000Y6985000D02*
X26485000Y6985000D01*
X12515000Y-6985000D02*
X12515000Y6985000D01*
X26485000Y6985000D02*
X26485000Y-6985000D01*
X26485000Y-6985000D02*
X12515000Y-6985000D01*
X6985000Y-6985000D02*
X-6985000Y-6985000D01*
X6985000Y6985000D02*
X6985000Y-6985000D01*
X-6985000Y-6985000D02*
X-6985000Y6985000D01*
X-6985000Y6985000D02*
X6985000Y6985000D01*
%TO.C,D10*%
X20920000Y-6000000D02*
X18080000Y-6000000D01*
X20920000Y-6000000D02*
X20920000Y-5350000D01*
X20920000Y-3700000D02*
X18080000Y-3700000D01*
%TO.C,D9*%
X1420000Y-6000000D02*
X-1420000Y-6000000D01*
X1420000Y-6000000D02*
X1420000Y-5350000D01*
X1420000Y-3700000D02*
X-1420000Y-3700000D01*
%TO.C,D8*%
X-18080000Y-3700000D02*
X-20920000Y-3700000D01*
X-18080000Y-6000000D02*
X-18080000Y-5350000D01*
X-18080000Y-6000000D02*
X-20920000Y-6000000D01*
%TO.C,C30*%
X17087836Y-5310000D02*
X16872164Y-5310000D01*
X17087836Y-4590000D02*
X16872164Y-4590000D01*
%TO.C,C29*%
X-2412164Y-4540000D02*
X-2627836Y-4540000D01*
X-2412164Y-5260000D02*
X-2627836Y-5260000D01*
%TO.C,C28*%
X-21932164Y-5310000D02*
X-22147836Y-5310000D01*
X-21932164Y-4590000D02*
X-22147836Y-4590000D01*
%TO.C,SW3*%
X7750000Y-22250000D02*
X12250000Y-22250000D01*
X12250000Y-22250000D02*
X12250000Y-17750000D01*
X12250000Y-17750000D02*
X7750000Y-17750000D01*
X7750000Y-17750000D02*
X7750000Y-22250000D01*
%TO.C,SW2*%
X-12250000Y-22250000D02*
X-7750000Y-22250000D01*
X-7750000Y-22250000D02*
X-7750000Y-17750000D01*
X-7750000Y-17750000D02*
X-12250000Y-17750000D01*
X-12250000Y-17750000D02*
X-12250000Y-22250000D01*
%TO.C,Q1*%
X-18500000Y29620000D02*
X-17700000Y29620000D01*
X-18500000Y26500000D02*
X-16700000Y26500000D01*
X-18500000Y26500000D02*
X-19300000Y26500000D01*
X-18500000Y29620000D02*
X-19300000Y29620000D01*
%TO.C,C27*%
X24750000Y25167836D02*
X24750000Y24952164D01*
X25470000Y25167836D02*
X25470000Y24952164D01*
%TO.C,C24*%
X-1220000Y-16142164D02*
X-1220000Y-16357836D01*
X-500000Y-16142164D02*
X-500000Y-16357836D01*
%TO.C,C2*%
X8528578Y18500000D02*
X8011422Y18500000D01*
X8528578Y19920000D02*
X8011422Y19920000D01*
%TO.C,U1*%
X19230000Y15770000D02*
X13220000Y15770000D01*
X16980000Y22590000D02*
X13220000Y22590000D01*
X13220000Y15770000D02*
X13220000Y17030000D01*
X13220000Y22590000D02*
X13220000Y21330000D01*
%TO.C,U4*%
X-6830000Y23782500D02*
X-6830000Y24042500D01*
X-6830000Y29232500D02*
X-6830000Y28972500D01*
X-9555000Y23782500D02*
X-6830000Y23782500D01*
X-9555000Y23782500D02*
X-12280000Y23782500D01*
X-9555000Y29232500D02*
X-6830000Y29232500D01*
X-9555000Y29232500D02*
X-12280000Y29232500D01*
X-12280000Y23782500D02*
X-12280000Y24042500D01*
X-12280000Y28972500D02*
X-13955000Y28972500D01*
X-12280000Y29232500D02*
X-12280000Y28972500D01*
%TO.C,C1*%
X15708578Y23230000D02*
X15191422Y23230000D01*
X15708578Y24650000D02*
X15191422Y24650000D01*
%TO.C,U5*%
X-9695000Y12075000D02*
X-9045000Y12075000D01*
X-2475000Y12075000D02*
X-3125000Y12075000D01*
X-9695000Y12725000D02*
X-9695000Y12075000D01*
X-2475000Y12725000D02*
X-2475000Y12075000D01*
X-9695000Y18645000D02*
X-9695000Y19295000D01*
X-2475000Y18645000D02*
X-2475000Y19295000D01*
X-9695000Y19295000D02*
X-9045000Y19295000D01*
%TO.C,Y1*%
X-19676838Y20962500D02*
X-19676838Y14962500D01*
X-15956838Y20962500D02*
X-15956838Y14962500D01*
%TO.C,C26*%
X31600000Y-2572164D02*
X31600000Y-2787836D01*
X32320000Y-2572164D02*
X32320000Y-2787836D01*
%TO.C,SW1*%
X-11104338Y35647500D02*
X-6964338Y35647500D01*
X-11104338Y35347500D02*
X-11104338Y35647500D01*
X-11104338Y32507500D02*
X-11104338Y32807500D01*
X-6964338Y35647500D02*
X-6964338Y35347500D01*
X-6964338Y32807500D02*
X-6964338Y32507500D01*
X-6964338Y32507500D02*
X-11104338Y32507500D01*
%TO.C,R4*%
X7530580Y10410000D02*
X7249420Y10410000D01*
X7530580Y11430000D02*
X7249420Y11430000D01*
%TO.C,C25*%
X15980000Y-26377836D02*
X15980000Y-26162164D01*
X15260000Y-26377836D02*
X15260000Y-26162164D01*
%TO.C,P1*%
X4670000Y36000000D02*
X4670000Y34200000D01*
X4670000Y38100000D02*
X4670000Y39250000D01*
X-4670000Y36000000D02*
X-4670000Y34200000D01*
X-4670000Y38100000D02*
X-4670000Y39250000D01*
D12*
X-5000000Y39675000D02*
X5000000Y39675000D01*
X4470000Y32325000D02*
X-4470000Y32325000D01*
X-4470000Y32325000D02*
X-4470000Y39675000D01*
X-4470000Y39675000D02*
X4470000Y39675000D01*
X4470000Y39675000D02*
X4470000Y32325000D01*
D11*
%TO.C,D2*%
X-30580000Y-1150000D02*
X-30580000Y-500000D01*
X-30580000Y-1150000D02*
X-33420000Y-1150000D01*
X-30580000Y1150000D02*
X-33420000Y1150000D01*
%TO.C,R1*%
X14740580Y10510000D02*
X14459420Y10510000D01*
X14740580Y11530000D02*
X14459420Y11530000D01*
%TO.C,C21*%
X-21250000Y25237836D02*
X-21250000Y25022164D01*
X-20530000Y25237836D02*
X-20530000Y25022164D01*
D10*
%TO.C,U3*%
X2690000Y23135000D02*
X5890000Y23135000D01*
X2690000Y21535000D02*
X2690000Y23135000D01*
X2690000Y21535000D02*
X5890000Y21535000D01*
X5890000Y23535000D02*
X5890000Y23835000D01*
X5890000Y21535000D02*
X5890000Y23135000D01*
D11*
%TO.C,C22*%
X-33870000Y-107836D02*
X-33870000Y107836D01*
X-34590000Y-107836D02*
X-34590000Y107836D01*
%TO.C,D5*%
X19250000Y-27260000D02*
X19250000Y-26610000D01*
X19250000Y-27260000D02*
X16410000Y-27260000D01*
X19250000Y-24960000D02*
X16410000Y-24960000D01*
%TO.C,U2*%
X10867500Y10350000D02*
X12542500Y10350000D01*
X10867500Y10350000D02*
X10217500Y10350000D01*
X10867500Y13470000D02*
X11517500Y13470000D01*
X10867500Y13470000D02*
X10217500Y13470000D01*
%TO.C,R2*%
X2309338Y30187836D02*
X2309338Y29972164D01*
X1589338Y30187836D02*
X1589338Y29972164D01*
%TO.C,C23*%
X-20444664Y-26125000D02*
X-20660336Y-26125000D01*
X-20444664Y-26845000D02*
X-20660336Y-26845000D01*
%TO.C,D7*%
X21580000Y26150000D02*
X21580000Y25500000D01*
X21580000Y26150000D02*
X24420000Y26150000D01*
X21580000Y23850000D02*
X24420000Y23850000D01*
%TO.C,D3*%
X-16580000Y-27150000D02*
X-16580000Y-26500000D01*
X-16580000Y-27150000D02*
X-19420000Y-27150000D01*
X-16580000Y-24850000D02*
X-19420000Y-24850000D01*
%TO.C,D1*%
X-24420000Y26150000D02*
X-24420000Y25500000D01*
X-24420000Y26150000D02*
X-21580000Y26150000D01*
X-24420000Y23850000D02*
X-21580000Y23850000D01*
%TO.C,R3*%
X-2070000Y29507836D02*
X-2070000Y29292164D01*
X-2790000Y29507836D02*
X-2790000Y29292164D01*
%TO.C,D6*%
X32550000Y1520000D02*
X31900000Y1520000D01*
X32550000Y1520000D02*
X32550000Y-1320000D01*
X30250000Y1520000D02*
X30250000Y-1320000D01*
%TO.C,D4*%
X1420000Y-15150000D02*
X1420000Y-14500000D01*
X1420000Y-15150000D02*
X-1420000Y-15150000D01*
X1420000Y-12850000D02*
X-1420000Y-12850000D01*
%TO.C,R7*%
X-13345000Y30625336D02*
X-13345000Y30409664D01*
X-12625000Y30625336D02*
X-12625000Y30409664D01*
%TO.C,F1*%
X7827936Y26750000D02*
X9032064Y26750000D01*
X7827936Y24930000D02*
X9032064Y24930000D01*
%TO.C,S3*%
X17940000Y0D02*
X17940000Y-800000D01*
X21060000Y0D02*
X21060000Y-1800000D01*
X21060000Y0D02*
X21060000Y800000D01*
%TO.C,S2*%
X0Y1560000D02*
X-800000Y1560000D01*
X0Y-1560000D02*
X-1800000Y-1560000D01*
X0Y-1560000D02*
X800000Y-1560000D01*
%TO.C,S1*%
X-19500000Y-1560000D02*
X-18700000Y-1560000D01*
X-19500000Y-1560000D02*
X-21300000Y-1560000D01*
X-19500000Y1560000D02*
X-20300000Y1560000D01*
%TD*%
%LPC*%
D13*
%TO.C,REF\u002A\u002A*%
X-14420000Y0D03*
X-24580000Y0D03*
%TD*%
%TO.C,REF\u002A\u002A*%
X14420000Y0D03*
X24580000Y0D03*
%TD*%
%TO.C,REF\u002A\u002A*%
X5080000Y0D03*
X-5080000Y0D03*
%TD*%
D14*
%TO.C,D10*%
X20415000Y-5400000D03*
X20415000Y-4300000D03*
X18585000Y-4300000D03*
X18585000Y-5400000D03*
%TD*%
%TO.C,D9*%
X915000Y-5400000D03*
X915000Y-4300000D03*
X-915000Y-4300000D03*
X-915000Y-5400000D03*
%TD*%
%TO.C,D8*%
X-20415000Y-5400000D03*
X-20415000Y-4300000D03*
X-18585000Y-4300000D03*
X-18585000Y-5400000D03*
%TD*%
D15*
%TO.C,C30*%
X16500000Y-4950000D03*
X17460000Y-4950000D03*
%TD*%
%TO.C,C29*%
X-2040000Y-4900000D03*
X-3000000Y-4900000D03*
%TD*%
%TO.C,C28*%
X-22520000Y-4950000D03*
X-21560000Y-4950000D03*
%TD*%
D16*
%TO.C,SW3*%
X6945000Y-18260000D03*
D17*
X12977500Y-18250000D03*
D18*
X7002500Y-21780000D03*
D19*
X13012500Y-21810000D03*
%TD*%
D20*
%TO.C,SW2*%
X-7062500Y-21820000D03*
D21*
X-12907500Y-21750000D03*
D22*
X-7032500Y-18265000D03*
D23*
X-12980000Y-18265000D03*
%TD*%
D24*
%TO.C,Q1*%
X-17362500Y27110000D03*
X-17362500Y28060000D03*
X-17362500Y29010000D03*
X-19637500Y29010000D03*
X-19637500Y27110000D03*
%TD*%
D25*
%TO.C,C27*%
X25110000Y25540000D03*
X25110000Y24580000D03*
%TD*%
%TO.C,C24*%
X-860000Y-15770000D03*
X-860000Y-16730000D03*
%TD*%
D26*
%TO.C,C2*%
X9207500Y19210000D03*
X7332500Y19210000D03*
%TD*%
D27*
%TO.C,C12*%
X925000Y11682500D03*
X-45000Y11682500D03*
%TD*%
%TO.C,C11*%
X925000Y12682500D03*
X-45000Y12682500D03*
%TD*%
D28*
%TO.C,C8*%
X-7115000Y10635000D03*
X-8085000Y10635000D03*
%TD*%
D29*
%TO.C,U1*%
X18280000Y16880000D03*
X18280000Y19180000D03*
D30*
X11980000Y19180000D03*
D29*
X18280000Y21480000D03*
%TD*%
D31*
%TO.C,U4*%
X-5955000Y28412500D03*
X-5955000Y27142500D03*
X-5955000Y25872500D03*
X-5955000Y24602500D03*
X-13155000Y24602500D03*
X-13155000Y25872500D03*
X-13155000Y27142500D03*
X-13155000Y28412500D03*
%TD*%
D32*
%TO.C,C17*%
X-14792519Y16724000D03*
X-14792519Y15754000D03*
%TD*%
D27*
%TO.C,C5*%
X810000Y15715000D03*
X-160000Y15715000D03*
%TD*%
D28*
%TO.C,C7*%
X-3992500Y20402500D03*
X-4962500Y20402500D03*
%TD*%
%TO.C,C10*%
X-12710000Y15279000D03*
X-11740000Y15279000D03*
%TD*%
%TO.C,R5*%
X-159124Y14697500D03*
X810876Y14697500D03*
%TD*%
%TO.C,C4*%
X-12470000Y14172500D03*
X-11500000Y14172500D03*
%TD*%
D26*
%TO.C,C1*%
X16387500Y23940000D03*
X14512500Y23940000D03*
%TD*%
D28*
%TO.C,C6*%
X-7342500Y20432500D03*
X-8312500Y20432500D03*
%TD*%
D33*
%TO.C,U5*%
X-6085000Y15685000D03*
D34*
X-2647500Y18285000D03*
X-2647500Y17885000D03*
X-2647500Y17485000D03*
X-2647500Y17085000D03*
X-2647500Y16685000D03*
X-2647500Y16285000D03*
X-2647500Y15885000D03*
X-2647500Y15485000D03*
X-2647500Y15085000D03*
X-2647500Y14685000D03*
X-2647500Y14285000D03*
X-2647500Y13885000D03*
X-2647500Y13485000D03*
X-2647500Y13085000D03*
D35*
X-3485000Y12247500D03*
X-3885000Y12247500D03*
X-4285000Y12247500D03*
X-4685000Y12247500D03*
X-5085000Y12247500D03*
X-5485000Y12247500D03*
X-5885000Y12247500D03*
X-6285000Y12247500D03*
X-6685000Y12247500D03*
X-7085000Y12247500D03*
X-7485000Y12247500D03*
X-7885000Y12247500D03*
X-8285000Y12247500D03*
X-8685000Y12247500D03*
D34*
X-9522500Y13085000D03*
X-9522500Y13485000D03*
X-9522500Y13885000D03*
X-9522500Y14285000D03*
X-9522500Y14685000D03*
X-9522500Y15085000D03*
X-9522500Y15485000D03*
X-9522500Y15885000D03*
X-9522500Y16285000D03*
X-9522500Y16685000D03*
X-9522500Y17085000D03*
X-9522500Y17485000D03*
X-9522500Y17885000D03*
X-9522500Y18285000D03*
D35*
X-8685000Y19122500D03*
X-8285000Y19122500D03*
X-7885000Y19122500D03*
X-7485000Y19122500D03*
X-7085000Y19122500D03*
X-6685000Y19122500D03*
X-6285000Y19122500D03*
X-5885000Y19122500D03*
X-5485000Y19122500D03*
X-5085000Y19122500D03*
X-4685000Y19122500D03*
X-4285000Y19122500D03*
X-3885000Y19122500D03*
X-3485000Y19122500D03*
%TD*%
D36*
%TO.C,C16*%
X-14792519Y18724000D03*
X-14792519Y19694000D03*
%TD*%
D28*
%TO.C,R6*%
X-159124Y13697500D03*
X810876Y13697500D03*
%TD*%
D27*
%TO.C,C3*%
X800000Y16795000D03*
X-170000Y16795000D03*
%TD*%
%TO.C,C15*%
X-4970000Y29907500D03*
X-5940000Y29907500D03*
%TD*%
D28*
%TO.C,R8*%
X-13392519Y17024000D03*
X-12422519Y17024000D03*
%TD*%
D37*
%TO.C,Y1*%
X-17816838Y15812500D03*
X-17816838Y20112500D03*
%TD*%
D25*
%TO.C,C26*%
X31960000Y-3160000D03*
X31960000Y-2200000D03*
%TD*%
D38*
%TO.C,SW1*%
X-11134338Y34077500D03*
X-6934338Y34077500D03*
%TD*%
D39*
%TO.C,R4*%
X8165000Y10920000D03*
X6615000Y10920000D03*
%TD*%
D40*
%TO.C,C25*%
X15620000Y-25790000D03*
X15620000Y-26750000D03*
%TD*%
D41*
%TO.C,H3*%
X0Y-29000000D03*
%TD*%
D42*
%TO.C,P1*%
X2890000Y33395000D03*
X-2890000Y33395000D03*
D43*
X3200000Y32320000D03*
X2400000Y32320000D03*
D44*
X1250000Y32320000D03*
X250000Y32320000D03*
X-250000Y32320000D03*
X-1250000Y32320000D03*
D43*
X-2400000Y32320000D03*
X-3200000Y32320000D03*
X-3200000Y32320000D03*
X-2400000Y32320000D03*
D44*
X-1750000Y32320000D03*
X-750000Y32320000D03*
X750000Y32320000D03*
X1750000Y32320000D03*
D43*
X2400000Y32320000D03*
X3200000Y32320000D03*
D45*
X4319999Y32894999D03*
D46*
X4319999Y37074999D03*
D45*
X-4319999Y32894999D03*
D46*
X-4319999Y37074999D03*
%TD*%
D14*
%TO.C,D2*%
X-31085000Y-550000D03*
X-31085000Y550000D03*
X-32915000Y550000D03*
X-32915000Y-550000D03*
%TD*%
D39*
%TO.C,R1*%
X15375000Y11020000D03*
X13825000Y11020000D03*
%TD*%
D25*
%TO.C,C21*%
X-20890000Y24650000D03*
X-20890000Y25610000D03*
%TD*%
D47*
%TO.C,U3*%
X5240000Y21335000D03*
X3340000Y21335000D03*
X3340000Y23335000D03*
D48*
X5040000Y23335000D03*
%TD*%
D40*
%TO.C,C22*%
X-34230000Y480000D03*
X-34230000Y-480000D03*
%TD*%
D14*
%TO.C,D5*%
X18745000Y-26660000D03*
X18745000Y-25560000D03*
X16915000Y-25560000D03*
X16915000Y-26660000D03*
%TD*%
D41*
%TO.C,H2*%
X-27000000Y14000000D03*
%TD*%
D49*
%TO.C,U2*%
X11805000Y10960000D03*
X11805000Y12860000D03*
X9930000Y11910000D03*
%TD*%
D25*
%TO.C,R2*%
X1949338Y30560000D03*
X1949338Y29600000D03*
%TD*%
D15*
%TO.C,C23*%
X-21032500Y-26485000D03*
X-20072500Y-26485000D03*
%TD*%
D50*
%TO.C,D7*%
X22085000Y25550000D03*
X22085000Y24450000D03*
X23915000Y24450000D03*
X23915000Y25550000D03*
%TD*%
D41*
%TO.C,REF\u002A\u002A*%
X-14000000Y-13000000D03*
%TD*%
D27*
%TO.C,C14*%
X-445000Y10050000D03*
X525000Y10050000D03*
%TD*%
D41*
%TO.C,H1*%
X27000000Y14000000D03*
%TD*%
D32*
%TO.C,C9*%
X-2775000Y10087500D03*
X-2775000Y11057500D03*
%TD*%
D14*
%TO.C,D3*%
X-17085000Y-26550000D03*
X-17085000Y-25450000D03*
X-18915000Y-25450000D03*
X-18915000Y-26550000D03*
%TD*%
D32*
%TO.C,C13*%
X-1745000Y10087500D03*
X-1745000Y11057500D03*
%TD*%
D50*
%TO.C,D1*%
X-23915000Y25550000D03*
X-23915000Y24450000D03*
X-22085000Y24450000D03*
X-22085000Y25550000D03*
%TD*%
D25*
%TO.C,R3*%
X-2430000Y29880000D03*
X-2430000Y28920000D03*
%TD*%
D41*
%TO.C,REF\u002A\u002A*%
X14000000Y-13000000D03*
%TD*%
D51*
%TO.C,D6*%
X31950000Y1015000D03*
X30850000Y1015000D03*
X30850000Y-815000D03*
X31950000Y-815000D03*
%TD*%
D14*
%TO.C,D4*%
X915000Y-14550000D03*
X915000Y-13450000D03*
X-915000Y-13450000D03*
X-915000Y-14550000D03*
%TD*%
D25*
%TO.C,R7*%
X-12985000Y30037500D03*
X-12985000Y30997500D03*
%TD*%
D52*
%TO.C,F1*%
X7030000Y25840000D03*
X9830000Y25840000D03*
%TD*%
M02*
