%TF.GenerationSoftware,KiCad,Pcbnew,(7.0.0-0)*%
%TF.CreationDate,2023-03-07T01:41:50-06:00*%
%TF.ProjectId,RP2040_minimal,52503230-3430-45f6-9d69-6e696d616c2e,REV1*%
%TF.SameCoordinates,Original*%
%TF.FileFunction,Soldermask,Top*%
%TF.FilePolarity,Negative*%
%FSLAX46Y46*%
G04 Gerber Fmt 4.6, Leading zero omitted, Abs format (unit mm)*
G04 Created by KiCad (PCBNEW (7.0.0-0)) date 2023-03-07 01:41:50*
%MOMM*%
%LPD*%
G01*
G04 APERTURE LIST*
G04 Aperture macros list*
%AMRoundRect*
0 Rectangle with rounded corners*
0 $1 Rounding radius*
0 $2 $3 $4 $5 $6 $7 $8 $9 X,Y pos of 4 corners*
0 Add a 4 corners polygon primitive as box body*
4,1,4,$2,$3,$4,$5,$6,$7,$8,$9,$2,$3,0*
0 Add four circle primitives for the rounded corners*
1,1,$1+$1,$2,$3*
1,1,$1+$1,$4,$5*
1,1,$1+$1,$6,$7*
1,1,$1+$1,$8,$9*
0 Add four rect primitives between the rounded corners*
20,1,$1+$1,$2,$3,$4,$5,0*
20,1,$1+$1,$4,$5,$6,$7,0*
20,1,$1+$1,$6,$7,$8,$9,0*
20,1,$1+$1,$8,$9,$2,$3,0*%
G04 Aperture macros list end*
%ADD10C,1.802000*%
%ADD11RoundRect,0.051000X0.350000X0.350000X-0.350000X0.350000X-0.350000X-0.350000X0.350000X-0.350000X0*%
%ADD12RoundRect,0.191000X0.140000X0.170000X-0.140000X0.170000X-0.140000X-0.170000X0.140000X-0.170000X0*%
%ADD13RoundRect,0.421000X-0.835000X-0.370000X0.835000X-0.370000X0.835000X0.370000X-0.835000X0.370000X0*%
%ADD14RoundRect,0.426000X-0.777500X-0.375000X0.777500X-0.375000X0.777500X0.375000X-0.777500X0.375000X0*%
%ADD15RoundRect,0.441000X-0.782500X-0.390000X0.782500X-0.390000X0.782500X0.390000X-0.782500X0.390000X0*%
%ADD16RoundRect,0.456000X-0.782500X-0.405000X0.782500X-0.405000X0.782500X0.405000X-0.782500X0.405000X0*%
%ADD17RoundRect,0.461000X-0.702500X-0.410000X0.702500X-0.410000X0.702500X0.410000X-0.702500X0.410000X0*%
%ADD18RoundRect,0.426000X-0.707500X-0.375000X0.707500X-0.375000X0.707500X0.375000X-0.707500X0.375000X0*%
%ADD19RoundRect,0.418500X-0.775000X-0.367500X0.775000X-0.367500X0.775000X0.367500X-0.775000X0.367500X0*%
%ADD20RoundRect,0.418500X-0.762500X-0.367500X0.762500X-0.367500X0.762500X0.367500X-0.762500X0.367500X0*%
%ADD21RoundRect,0.201000X0.512500X0.150000X-0.512500X0.150000X-0.512500X-0.150000X0.512500X-0.150000X0*%
%ADD22RoundRect,0.191000X-0.170000X0.140000X-0.170000X-0.140000X0.170000X-0.140000X0.170000X0.140000X0*%
%ADD23RoundRect,0.294750X0.243750X0.456250X-0.243750X0.456250X-0.243750X-0.456250X0.243750X-0.456250X0*%
%ADD24RoundRect,0.198500X-0.147500X-0.172500X0.147500X-0.172500X0.147500X0.172500X-0.147500X0.172500X0*%
%ADD25RoundRect,0.198500X0.147500X0.172500X-0.147500X0.172500X-0.147500X-0.172500X0.147500X-0.172500X0*%
%ADD26RoundRect,0.051000X1.000000X0.750000X-1.000000X0.750000X-1.000000X-0.750000X1.000000X-0.750000X0*%
%ADD27RoundRect,0.051000X1.000000X1.900000X-1.000000X1.900000X-1.000000X-1.900000X1.000000X-1.900000X0*%
%ADD28RoundRect,0.201000X-0.650000X-0.150000X0.650000X-0.150000X0.650000X0.150000X-0.650000X0.150000X0*%
%ADD29RoundRect,0.198500X-0.172500X0.147500X-0.172500X-0.147500X0.172500X-0.147500X0.172500X0.147500X0*%
%ADD30RoundRect,0.195000X-1.456000X1.456000X-1.456000X-1.456000X1.456000X-1.456000X1.456000X1.456000X0*%
%ADD31RoundRect,0.101000X-0.387500X0.050000X-0.387500X-0.050000X0.387500X-0.050000X0.387500X0.050000X0*%
%ADD32RoundRect,0.101000X-0.050000X0.387500X-0.050000X-0.387500X0.050000X-0.387500X0.050000X0.387500X0*%
%ADD33RoundRect,0.198500X0.172500X-0.147500X0.172500X0.147500X-0.172500X0.147500X-0.172500X-0.147500X0*%
%ADD34RoundRect,0.051000X-1.300000X0.950000X-1.300000X-0.950000X1.300000X-0.950000X1.300000X0.950000X0*%
%ADD35RoundRect,0.251000X0.200000X0.800000X-0.200000X0.800000X-0.200000X-0.800000X0.200000X-0.800000X0*%
%ADD36RoundRect,0.276000X0.225000X0.250000X-0.225000X0.250000X-0.225000X-0.250000X0.225000X-0.250000X0*%
%ADD37RoundRect,0.191000X0.170000X-0.140000X0.170000X0.140000X-0.170000X0.140000X-0.170000X-0.140000X0*%
%ADD38C,3.302000*%
%ADD39C,0.752000*%
%ADD40RoundRect,0.051000X0.300000X0.575000X-0.300000X0.575000X-0.300000X-0.575000X0.300000X-0.575000X0*%
%ADD41RoundRect,0.051000X0.150000X0.575000X-0.150000X0.575000X-0.150000X-0.575000X0.150000X-0.575000X0*%
%ADD42O,1.102000X2.202000*%
%ADD43O,1.102000X1.902000*%
%ADD44RoundRect,0.050000X0.300000X0.350000X-0.300000X0.350000X-0.300000X-0.350000X0.300000X-0.350000X0*%
%ADD45RoundRect,0.050000X0.500000X0.350000X-0.500000X0.350000X-0.500000X-0.350000X0.500000X-0.350000X0*%
%ADD46RoundRect,0.201000X0.587500X0.150000X-0.587500X0.150000X-0.587500X-0.150000X0.587500X-0.150000X0*%
%ADD47RoundRect,0.051000X-0.350000X-0.350000X0.350000X-0.350000X0.350000X0.350000X-0.350000X0.350000X0*%
%ADD48RoundRect,0.051000X-0.350000X0.350000X-0.350000X-0.350000X0.350000X-0.350000X0.350000X0.350000X0*%
%ADD49RoundRect,0.301000X-0.375000X-0.625000X0.375000X-0.625000X0.375000X0.625000X-0.375000X0.625000X0*%
G04 APERTURE END LIST*
D10*
%TO.C,REF\u002A\u002A*%
X-14420000Y0D03*
X-24580000Y0D03*
%TD*%
%TO.C,REF\u002A\u002A*%
X14420000Y0D03*
X24580000Y0D03*
%TD*%
%TO.C,REF\u002A\u002A*%
X5080000Y0D03*
X-5080000Y0D03*
%TD*%
D11*
%TO.C,D10*%
X20415000Y-5400000D03*
X20415000Y-4300000D03*
X18585000Y-4300000D03*
X18585000Y-5400000D03*
%TD*%
%TO.C,D9*%
X915000Y-5400000D03*
X915000Y-4300000D03*
X-915000Y-4300000D03*
X-915000Y-5400000D03*
%TD*%
%TO.C,D8*%
X-20415000Y-5400000D03*
X-20415000Y-4300000D03*
X-18585000Y-4300000D03*
X-18585000Y-5400000D03*
%TD*%
D12*
%TO.C,C30*%
X16500000Y-4950000D03*
X17460000Y-4950000D03*
%TD*%
%TO.C,C29*%
X-2040000Y-4900000D03*
X-3000000Y-4900000D03*
%TD*%
%TO.C,C28*%
X-22520000Y-4950000D03*
X-21560000Y-4950000D03*
%TD*%
D13*
%TO.C,SW3*%
X6945000Y-18260000D03*
D14*
X12977500Y-18250000D03*
D15*
X7002500Y-21780000D03*
D16*
X13012500Y-21810000D03*
%TD*%
D17*
%TO.C,SW2*%
X-7062500Y-21820000D03*
D18*
X-12907500Y-21750000D03*
D19*
X-7032500Y-18265000D03*
D20*
X-12980000Y-18265000D03*
%TD*%
D21*
%TO.C,Q1*%
X-17362500Y27110000D03*
X-17362500Y28060000D03*
X-17362500Y29010000D03*
X-19637500Y29010000D03*
X-19637500Y27110000D03*
%TD*%
D22*
%TO.C,C27*%
X25110000Y25540000D03*
X25110000Y24580000D03*
%TD*%
%TO.C,C24*%
X-860000Y-15770000D03*
X-860000Y-16730000D03*
%TD*%
D23*
%TO.C,C2*%
X9207500Y19210000D03*
X7332500Y19210000D03*
%TD*%
D24*
%TO.C,C12*%
X925000Y11682500D03*
X-45000Y11682500D03*
%TD*%
%TO.C,C11*%
X925000Y12682500D03*
X-45000Y12682500D03*
%TD*%
D25*
%TO.C,C8*%
X-7115000Y10635000D03*
X-8085000Y10635000D03*
%TD*%
D26*
%TO.C,U1*%
X18280000Y16880000D03*
X18280000Y19180000D03*
D27*
X11980000Y19180000D03*
D26*
X18280000Y21480000D03*
%TD*%
D28*
%TO.C,U4*%
X-5955000Y28412500D03*
X-5955000Y27142500D03*
X-5955000Y25872500D03*
X-5955000Y24602500D03*
X-13155000Y24602500D03*
X-13155000Y25872500D03*
X-13155000Y27142500D03*
X-13155000Y28412500D03*
%TD*%
D29*
%TO.C,C17*%
X-14792519Y16724000D03*
X-14792519Y15754000D03*
%TD*%
D24*
%TO.C,C5*%
X810000Y15715000D03*
X-160000Y15715000D03*
%TD*%
D25*
%TO.C,C7*%
X-3992500Y20402500D03*
X-4962500Y20402500D03*
%TD*%
%TO.C,C10*%
X-12710000Y15279000D03*
X-11740000Y15279000D03*
%TD*%
%TO.C,R5*%
X-159124Y14697500D03*
X810876Y14697500D03*
%TD*%
%TO.C,C4*%
X-12470000Y14172500D03*
X-11500000Y14172500D03*
%TD*%
D23*
%TO.C,C1*%
X16387500Y23940000D03*
X14512500Y23940000D03*
%TD*%
D25*
%TO.C,C6*%
X-7342500Y20432500D03*
X-8312500Y20432500D03*
%TD*%
D30*
%TO.C,U5*%
X-6085000Y15685000D03*
D31*
X-2647500Y18285000D03*
X-2647500Y17885000D03*
X-2647500Y17485000D03*
X-2647500Y17085000D03*
X-2647500Y16685000D03*
X-2647500Y16285000D03*
X-2647500Y15885000D03*
X-2647500Y15485000D03*
X-2647500Y15085000D03*
X-2647500Y14685000D03*
X-2647500Y14285000D03*
X-2647500Y13885000D03*
X-2647500Y13485000D03*
X-2647500Y13085000D03*
D32*
X-3485000Y12247500D03*
X-3885000Y12247500D03*
X-4285000Y12247500D03*
X-4685000Y12247500D03*
X-5085000Y12247500D03*
X-5485000Y12247500D03*
X-5885000Y12247500D03*
X-6285000Y12247500D03*
X-6685000Y12247500D03*
X-7085000Y12247500D03*
X-7485000Y12247500D03*
X-7885000Y12247500D03*
X-8285000Y12247500D03*
X-8685000Y12247500D03*
D31*
X-9522500Y13085000D03*
X-9522500Y13485000D03*
X-9522500Y13885000D03*
X-9522500Y14285000D03*
X-9522500Y14685000D03*
X-9522500Y15085000D03*
X-9522500Y15485000D03*
X-9522500Y15885000D03*
X-9522500Y16285000D03*
X-9522500Y16685000D03*
X-9522500Y17085000D03*
X-9522500Y17485000D03*
X-9522500Y17885000D03*
X-9522500Y18285000D03*
D32*
X-8685000Y19122500D03*
X-8285000Y19122500D03*
X-7885000Y19122500D03*
X-7485000Y19122500D03*
X-7085000Y19122500D03*
X-6685000Y19122500D03*
X-6285000Y19122500D03*
X-5885000Y19122500D03*
X-5485000Y19122500D03*
X-5085000Y19122500D03*
X-4685000Y19122500D03*
X-4285000Y19122500D03*
X-3885000Y19122500D03*
X-3485000Y19122500D03*
%TD*%
D33*
%TO.C,C16*%
X-14792519Y18724000D03*
X-14792519Y19694000D03*
%TD*%
D25*
%TO.C,R6*%
X-159124Y13697500D03*
X810876Y13697500D03*
%TD*%
D24*
%TO.C,C3*%
X800000Y16795000D03*
X-170000Y16795000D03*
%TD*%
%TO.C,C15*%
X-4970000Y29907500D03*
X-5940000Y29907500D03*
%TD*%
D25*
%TO.C,R8*%
X-13392519Y17024000D03*
X-12422519Y17024000D03*
%TD*%
D34*
%TO.C,Y1*%
X-17816838Y15812500D03*
X-17816838Y20112500D03*
%TD*%
D22*
%TO.C,C26*%
X31960000Y-3160000D03*
X31960000Y-2200000D03*
%TD*%
D35*
%TO.C,SW1*%
X-11134338Y34077500D03*
X-6934338Y34077500D03*
%TD*%
D36*
%TO.C,R4*%
X8165000Y10920000D03*
X6615000Y10920000D03*
%TD*%
D37*
%TO.C,C25*%
X15620000Y-25790000D03*
X15620000Y-26750000D03*
%TD*%
D38*
%TO.C,H3*%
X0Y-29000000D03*
%TD*%
D39*
%TO.C,P1*%
X2890000Y33395000D03*
X-2890000Y33395000D03*
D40*
X3200000Y32320000D03*
X2400000Y32320000D03*
D41*
X1250000Y32320000D03*
X250000Y32320000D03*
X-250000Y32320000D03*
X-1250000Y32320000D03*
D40*
X-2400000Y32320000D03*
X-3200000Y32320000D03*
X-3200000Y32320000D03*
X-2400000Y32320000D03*
D41*
X-1750000Y32320000D03*
X-750000Y32320000D03*
X750000Y32320000D03*
X1750000Y32320000D03*
D40*
X2400000Y32320000D03*
X3200000Y32320000D03*
D42*
X4319999Y32894999D03*
D43*
X4319999Y37074999D03*
D42*
X-4319999Y32894999D03*
D43*
X-4319999Y37074999D03*
%TD*%
D11*
%TO.C,D2*%
X-31085000Y-550000D03*
X-31085000Y550000D03*
X-32915000Y550000D03*
X-32915000Y-550000D03*
%TD*%
D36*
%TO.C,R1*%
X15375000Y11020000D03*
X13825000Y11020000D03*
%TD*%
D22*
%TO.C,C21*%
X-20890000Y24650000D03*
X-20890000Y25610000D03*
%TD*%
D44*
%TO.C,U3*%
X5240000Y21335000D03*
X3340000Y21335000D03*
X3340000Y23335000D03*
D45*
X5040000Y23335000D03*
%TD*%
D37*
%TO.C,C22*%
X-34230000Y480000D03*
X-34230000Y-480000D03*
%TD*%
D11*
%TO.C,D5*%
X18745000Y-26660000D03*
X18745000Y-25560000D03*
X16915000Y-25560000D03*
X16915000Y-26660000D03*
%TD*%
D38*
%TO.C,H2*%
X-27000000Y14000000D03*
%TD*%
D46*
%TO.C,U2*%
X11805000Y10960000D03*
X11805000Y12860000D03*
X9930000Y11910000D03*
%TD*%
D22*
%TO.C,R2*%
X1949338Y30560000D03*
X1949338Y29600000D03*
%TD*%
D12*
%TO.C,C23*%
X-21032500Y-26485000D03*
X-20072500Y-26485000D03*
%TD*%
D47*
%TO.C,D7*%
X22085000Y25550000D03*
X22085000Y24450000D03*
X23915000Y24450000D03*
X23915000Y25550000D03*
%TD*%
D38*
%TO.C,REF\u002A\u002A*%
X-14000000Y-13000000D03*
%TD*%
D24*
%TO.C,C14*%
X-445000Y10050000D03*
X525000Y10050000D03*
%TD*%
D38*
%TO.C,H1*%
X27000000Y14000000D03*
%TD*%
D29*
%TO.C,C9*%
X-2775000Y10087500D03*
X-2775000Y11057500D03*
%TD*%
D11*
%TO.C,D3*%
X-17085000Y-26550000D03*
X-17085000Y-25450000D03*
X-18915000Y-25450000D03*
X-18915000Y-26550000D03*
%TD*%
D29*
%TO.C,C13*%
X-1745000Y10087500D03*
X-1745000Y11057500D03*
%TD*%
D47*
%TO.C,D1*%
X-23915000Y25550000D03*
X-23915000Y24450000D03*
X-22085000Y24450000D03*
X-22085000Y25550000D03*
%TD*%
D22*
%TO.C,R3*%
X-2430000Y29880000D03*
X-2430000Y28920000D03*
%TD*%
D38*
%TO.C,REF\u002A\u002A*%
X14000000Y-13000000D03*
%TD*%
D48*
%TO.C,D6*%
X31950000Y1015000D03*
X30850000Y1015000D03*
X30850000Y-815000D03*
X31950000Y-815000D03*
%TD*%
D11*
%TO.C,D4*%
X915000Y-14550000D03*
X915000Y-13450000D03*
X-915000Y-13450000D03*
X-915000Y-14550000D03*
%TD*%
D22*
%TO.C,R7*%
X-12985000Y30037500D03*
X-12985000Y30997500D03*
%TD*%
D49*
%TO.C,F1*%
X7030000Y25840000D03*
X9830000Y25840000D03*
%TD*%
M02*
