%TF.GenerationSoftware,KiCad,Pcbnew,(7.0.0-0)*%
%TF.CreationDate,2023-03-07T01:41:50-06:00*%
%TF.ProjectId,RP2040_minimal,52503230-3430-45f6-9d69-6e696d616c2e,REV1*%
%TF.SameCoordinates,Original*%
%TF.FileFunction,Legend,Bot*%
%TF.FilePolarity,Positive*%
%FSLAX46Y46*%
G04 Gerber Fmt 4.6, Leading zero omitted, Abs format (unit mm)*
G04 Created by KiCad (PCBNEW (7.0.0-0)) date 2023-03-07 01:41:50*
%MOMM*%
%LPD*%
G01*
G04 APERTURE LIST*
G04 Aperture macros list*
%AMRoundRect*
0 Rectangle with rounded corners*
0 $1 Rounding radius*
0 $2 $3 $4 $5 $6 $7 $8 $9 X,Y pos of 4 corners*
0 Add a 4 corners polygon primitive as box body*
4,1,4,$2,$3,$4,$5,$6,$7,$8,$9,$2,$3,0*
0 Add four circle primitives for the rounded corners*
1,1,$1+$1,$2,$3*
1,1,$1+$1,$4,$5*
1,1,$1+$1,$6,$7*
1,1,$1+$1,$8,$9*
0 Add four rect primitives between the rounded corners*
20,1,$1+$1,$2,$3,$4,$5,0*
20,1,$1+$1,$4,$5,$6,$7,0*
20,1,$1+$1,$6,$7,$8,$9,0*
20,1,$1+$1,$8,$9,$2,$3,0*%
G04 Aperture macros list end*
%ADD10C,0.150000*%
%ADD11C,0.100000*%
%ADD12C,0.120000*%
%ADD13C,0.050000*%
%ADD14C,1.802000*%
%ADD15RoundRect,0.191000X-0.170000X0.140000X-0.170000X-0.140000X0.170000X-0.140000X0.170000X0.140000X0*%
%ADD16RoundRect,0.191000X0.140000X0.170000X-0.140000X0.170000X-0.140000X-0.170000X0.140000X-0.170000X0*%
%ADD17RoundRect,0.191000X-0.140000X-0.170000X0.140000X-0.170000X0.140000X0.170000X-0.140000X0.170000X0*%
%ADD18C,3.302000*%
%ADD19C,0.752000*%
%ADD20O,1.102000X2.202000*%
%ADD21O,1.102000X1.902000*%
%ADD22RoundRect,0.201000X0.150000X-0.512500X0.150000X0.512500X-0.150000X0.512500X-0.150000X-0.512500X0*%
%ADD23RoundRect,0.201000X-0.512500X-0.150000X0.512500X-0.150000X0.512500X0.150000X-0.512500X0.150000X0*%
G04 APERTURE END LIST*
D10*
%TO.C,C18*%
X-22927858Y312858D02*
X-22880239Y360477D01*
X-22880239Y360477D02*
X-22832620Y503334D01*
X-22832620Y503334D02*
X-22832620Y598572D01*
X-22832620Y598572D02*
X-22880239Y741429D01*
X-22880239Y741429D02*
X-22975477Y836667D01*
X-22975477Y836667D02*
X-23070715Y884286D01*
X-23070715Y884286D02*
X-23261191Y931905D01*
X-23261191Y931905D02*
X-23404048Y931905D01*
X-23404048Y931905D02*
X-23594524Y884286D01*
X-23594524Y884286D02*
X-23689762Y836667D01*
X-23689762Y836667D02*
X-23785000Y741429D01*
X-23785000Y741429D02*
X-23832620Y598572D01*
X-23832620Y598572D02*
X-23832620Y503334D01*
X-23832620Y503334D02*
X-23785000Y360477D01*
X-23785000Y360477D02*
X-23737381Y312858D01*
X-22832620Y-639523D02*
X-22832620Y-68095D01*
X-22832620Y-353809D02*
X-23832620Y-353809D01*
X-23832620Y-353809D02*
X-23689762Y-258571D01*
X-23689762Y-258571D02*
X-23594524Y-163333D01*
X-23594524Y-163333D02*
X-23546905Y-68095D01*
X-23404048Y-1210952D02*
X-23451667Y-1115714D01*
X-23451667Y-1115714D02*
X-23499286Y-1068095D01*
X-23499286Y-1068095D02*
X-23594524Y-1020476D01*
X-23594524Y-1020476D02*
X-23642143Y-1020476D01*
X-23642143Y-1020476D02*
X-23737381Y-1068095D01*
X-23737381Y-1068095D02*
X-23785000Y-1115714D01*
X-23785000Y-1115714D02*
X-23832620Y-1210952D01*
X-23832620Y-1210952D02*
X-23832620Y-1401428D01*
X-23832620Y-1401428D02*
X-23785000Y-1496666D01*
X-23785000Y-1496666D02*
X-23737381Y-1544285D01*
X-23737381Y-1544285D02*
X-23642143Y-1591904D01*
X-23642143Y-1591904D02*
X-23594524Y-1591904D01*
X-23594524Y-1591904D02*
X-23499286Y-1544285D01*
X-23499286Y-1544285D02*
X-23451667Y-1496666D01*
X-23451667Y-1496666D02*
X-23404048Y-1401428D01*
X-23404048Y-1401428D02*
X-23404048Y-1210952D01*
X-23404048Y-1210952D02*
X-23356429Y-1115714D01*
X-23356429Y-1115714D02*
X-23308810Y-1068095D01*
X-23308810Y-1068095D02*
X-23213572Y-1020476D01*
X-23213572Y-1020476D02*
X-23023096Y-1020476D01*
X-23023096Y-1020476D02*
X-22927858Y-1068095D01*
X-22927858Y-1068095D02*
X-22880239Y-1115714D01*
X-22880239Y-1115714D02*
X-22832620Y-1210952D01*
X-22832620Y-1210952D02*
X-22832620Y-1401428D01*
X-22832620Y-1401428D02*
X-22880239Y-1496666D01*
X-22880239Y-1496666D02*
X-22927858Y-1544285D01*
X-22927858Y-1544285D02*
X-23023096Y-1591904D01*
X-23023096Y-1591904D02*
X-23213572Y-1591904D01*
X-23213572Y-1591904D02*
X-23308810Y-1544285D01*
X-23308810Y-1544285D02*
X-23356429Y-1496666D01*
X-23356429Y-1496666D02*
X-23404048Y-1401428D01*
%TO.C,C20*%
X22932857Y-482142D02*
X22980476Y-529761D01*
X22980476Y-529761D02*
X23123333Y-577380D01*
X23123333Y-577380D02*
X23218571Y-577380D01*
X23218571Y-577380D02*
X23361428Y-529761D01*
X23361428Y-529761D02*
X23456666Y-434523D01*
X23456666Y-434523D02*
X23504285Y-339285D01*
X23504285Y-339285D02*
X23551904Y-148809D01*
X23551904Y-148809D02*
X23551904Y-5952D01*
X23551904Y-5952D02*
X23504285Y184524D01*
X23504285Y184524D02*
X23456666Y279762D01*
X23456666Y279762D02*
X23361428Y375000D01*
X23361428Y375000D02*
X23218571Y422620D01*
X23218571Y422620D02*
X23123333Y422620D01*
X23123333Y422620D02*
X22980476Y375000D01*
X22980476Y375000D02*
X22932857Y327381D01*
X22551904Y327381D02*
X22504285Y375000D01*
X22504285Y375000D02*
X22409047Y422620D01*
X22409047Y422620D02*
X22170952Y422620D01*
X22170952Y422620D02*
X22075714Y375000D01*
X22075714Y375000D02*
X22028095Y327381D01*
X22028095Y327381D02*
X21980476Y232143D01*
X21980476Y232143D02*
X21980476Y136905D01*
X21980476Y136905D02*
X22028095Y-5952D01*
X22028095Y-5952D02*
X22599523Y-577380D01*
X22599523Y-577380D02*
X21980476Y-577380D01*
X21361428Y422620D02*
X21266190Y422620D01*
X21266190Y422620D02*
X21170952Y375000D01*
X21170952Y375000D02*
X21123333Y327381D01*
X21123333Y327381D02*
X21075714Y232143D01*
X21075714Y232143D02*
X21028095Y41667D01*
X21028095Y41667D02*
X21028095Y-196428D01*
X21028095Y-196428D02*
X21075714Y-386904D01*
X21075714Y-386904D02*
X21123333Y-482142D01*
X21123333Y-482142D02*
X21170952Y-529761D01*
X21170952Y-529761D02*
X21266190Y-577380D01*
X21266190Y-577380D02*
X21361428Y-577380D01*
X21361428Y-577380D02*
X21456666Y-529761D01*
X21456666Y-529761D02*
X21504285Y-482142D01*
X21504285Y-482142D02*
X21551904Y-386904D01*
X21551904Y-386904D02*
X21599523Y-196428D01*
X21599523Y-196428D02*
X21599523Y41667D01*
X21599523Y41667D02*
X21551904Y232143D01*
X21551904Y232143D02*
X21504285Y327381D01*
X21504285Y327381D02*
X21456666Y375000D01*
X21456666Y375000D02*
X21361428Y422620D01*
%TO.C,C19*%
X-2427143Y-2452142D02*
X-2379524Y-2499761D01*
X-2379524Y-2499761D02*
X-2236667Y-2547380D01*
X-2236667Y-2547380D02*
X-2141429Y-2547380D01*
X-2141429Y-2547380D02*
X-1998572Y-2499761D01*
X-1998572Y-2499761D02*
X-1903334Y-2404523D01*
X-1903334Y-2404523D02*
X-1855715Y-2309285D01*
X-1855715Y-2309285D02*
X-1808096Y-2118809D01*
X-1808096Y-2118809D02*
X-1808096Y-1975952D01*
X-1808096Y-1975952D02*
X-1855715Y-1785476D01*
X-1855715Y-1785476D02*
X-1903334Y-1690238D01*
X-1903334Y-1690238D02*
X-1998572Y-1595000D01*
X-1998572Y-1595000D02*
X-2141429Y-1547380D01*
X-2141429Y-1547380D02*
X-2236667Y-1547380D01*
X-2236667Y-1547380D02*
X-2379524Y-1595000D01*
X-2379524Y-1595000D02*
X-2427143Y-1642619D01*
X-3379524Y-2547380D02*
X-2808096Y-2547380D01*
X-3093810Y-2547380D02*
X-3093810Y-1547380D01*
X-3093810Y-1547380D02*
X-2998572Y-1690238D01*
X-2998572Y-1690238D02*
X-2903334Y-1785476D01*
X-2903334Y-1785476D02*
X-2808096Y-1833095D01*
X-3855715Y-2547380D02*
X-4046191Y-2547380D01*
X-4046191Y-2547380D02*
X-4141429Y-2499761D01*
X-4141429Y-2499761D02*
X-4189048Y-2452142D01*
X-4189048Y-2452142D02*
X-4284286Y-2309285D01*
X-4284286Y-2309285D02*
X-4331905Y-2118809D01*
X-4331905Y-2118809D02*
X-4331905Y-1737857D01*
X-4331905Y-1737857D02*
X-4284286Y-1642619D01*
X-4284286Y-1642619D02*
X-4236667Y-1595000D01*
X-4236667Y-1595000D02*
X-4141429Y-1547380D01*
X-4141429Y-1547380D02*
X-3950953Y-1547380D01*
X-3950953Y-1547380D02*
X-3855715Y-1595000D01*
X-3855715Y-1595000D02*
X-3808096Y-1642619D01*
X-3808096Y-1642619D02*
X-3760477Y-1737857D01*
X-3760477Y-1737857D02*
X-3760477Y-1975952D01*
X-3760477Y-1975952D02*
X-3808096Y-2071190D01*
X-3808096Y-2071190D02*
X-3855715Y-2118809D01*
X-3855715Y-2118809D02*
X-3950953Y-2166428D01*
X-3950953Y-2166428D02*
X-4141429Y-2166428D01*
X-4141429Y-2166428D02*
X-4236667Y-2118809D01*
X-4236667Y-2118809D02*
X-4284286Y-2071190D01*
X-4284286Y-2071190D02*
X-4331905Y-1975952D01*
D11*
%TO.C,P1*%
X-1673810Y39283691D02*
X-1673810Y38783691D01*
X-1673810Y38783691D02*
X-1483334Y38783691D01*
X-1483334Y38783691D02*
X-1435715Y38807500D01*
X-1435715Y38807500D02*
X-1411905Y38831310D01*
X-1411905Y38831310D02*
X-1388096Y38878929D01*
X-1388096Y38878929D02*
X-1388096Y38950358D01*
X-1388096Y38950358D02*
X-1411905Y38997977D01*
X-1411905Y38997977D02*
X-1435715Y39021786D01*
X-1435715Y39021786D02*
X-1483334Y39045596D01*
X-1483334Y39045596D02*
X-1673810Y39045596D01*
X-888096Y39236072D02*
X-911905Y39259881D01*
X-911905Y39259881D02*
X-983334Y39283691D01*
X-983334Y39283691D02*
X-1030953Y39283691D01*
X-1030953Y39283691D02*
X-1102381Y39259881D01*
X-1102381Y39259881D02*
X-1150000Y39212262D01*
X-1150000Y39212262D02*
X-1173810Y39164643D01*
X-1173810Y39164643D02*
X-1197619Y39069405D01*
X-1197619Y39069405D02*
X-1197619Y38997977D01*
X-1197619Y38997977D02*
X-1173810Y38902739D01*
X-1173810Y38902739D02*
X-1150000Y38855120D01*
X-1150000Y38855120D02*
X-1102381Y38807500D01*
X-1102381Y38807500D02*
X-1030953Y38783691D01*
X-1030953Y38783691D02*
X-983334Y38783691D01*
X-983334Y38783691D02*
X-911905Y38807500D01*
X-911905Y38807500D02*
X-888096Y38831310D01*
X-507143Y39021786D02*
X-435715Y39045596D01*
X-435715Y39045596D02*
X-411905Y39069405D01*
X-411905Y39069405D02*
X-388096Y39117024D01*
X-388096Y39117024D02*
X-388096Y39188453D01*
X-388096Y39188453D02*
X-411905Y39236072D01*
X-411905Y39236072D02*
X-435715Y39259881D01*
X-435715Y39259881D02*
X-483334Y39283691D01*
X-483334Y39283691D02*
X-673810Y39283691D01*
X-673810Y39283691D02*
X-673810Y38783691D01*
X-673810Y38783691D02*
X-507143Y38783691D01*
X-507143Y38783691D02*
X-459524Y38807500D01*
X-459524Y38807500D02*
X-435715Y38831310D01*
X-435715Y38831310D02*
X-411905Y38878929D01*
X-411905Y38878929D02*
X-411905Y38926548D01*
X-411905Y38926548D02*
X-435715Y38974167D01*
X-435715Y38974167D02*
X-459524Y38997977D01*
X-459524Y38997977D02*
X-507143Y39021786D01*
X-507143Y39021786D02*
X-673810Y39021786D01*
X126190Y39021786D02*
X292857Y39021786D01*
X364285Y39283691D02*
X126190Y39283691D01*
X126190Y39283691D02*
X126190Y38783691D01*
X126190Y38783691D02*
X364285Y38783691D01*
X792857Y39283691D02*
X792857Y38783691D01*
X792857Y39259881D02*
X745238Y39283691D01*
X745238Y39283691D02*
X650000Y39283691D01*
X650000Y39283691D02*
X602381Y39259881D01*
X602381Y39259881D02*
X578571Y39236072D01*
X578571Y39236072D02*
X554762Y39188453D01*
X554762Y39188453D02*
X554762Y39045596D01*
X554762Y39045596D02*
X578571Y38997977D01*
X578571Y38997977D02*
X602381Y38974167D01*
X602381Y38974167D02*
X650000Y38950358D01*
X650000Y38950358D02*
X745238Y38950358D01*
X745238Y38950358D02*
X792857Y38974167D01*
X1245238Y38950358D02*
X1245238Y39355120D01*
X1245238Y39355120D02*
X1221428Y39402739D01*
X1221428Y39402739D02*
X1197619Y39426548D01*
X1197619Y39426548D02*
X1150000Y39450358D01*
X1150000Y39450358D02*
X1078571Y39450358D01*
X1078571Y39450358D02*
X1030952Y39426548D01*
X1245238Y39259881D02*
X1197619Y39283691D01*
X1197619Y39283691D02*
X1102381Y39283691D01*
X1102381Y39283691D02*
X1054762Y39259881D01*
X1054762Y39259881D02*
X1030952Y39236072D01*
X1030952Y39236072D02*
X1007143Y39188453D01*
X1007143Y39188453D02*
X1007143Y39045596D01*
X1007143Y39045596D02*
X1030952Y38997977D01*
X1030952Y38997977D02*
X1054762Y38974167D01*
X1054762Y38974167D02*
X1102381Y38950358D01*
X1102381Y38950358D02*
X1197619Y38950358D01*
X1197619Y38950358D02*
X1245238Y38974167D01*
X1673809Y39259881D02*
X1626190Y39283691D01*
X1626190Y39283691D02*
X1530952Y39283691D01*
X1530952Y39283691D02*
X1483333Y39259881D01*
X1483333Y39259881D02*
X1459524Y39212262D01*
X1459524Y39212262D02*
X1459524Y39021786D01*
X1459524Y39021786D02*
X1483333Y38974167D01*
X1483333Y38974167D02*
X1530952Y38950358D01*
X1530952Y38950358D02*
X1626190Y38950358D01*
X1626190Y38950358D02*
X1673809Y38974167D01*
X1673809Y38974167D02*
X1697619Y39021786D01*
X1697619Y39021786D02*
X1697619Y39069405D01*
X1697619Y39069405D02*
X1459524Y39117024D01*
D10*
%TO.C,S3*%
X17419761Y2547619D02*
X17467380Y2404762D01*
X17467380Y2404762D02*
X17467380Y2166667D01*
X17467380Y2166667D02*
X17419761Y2071429D01*
X17419761Y2071429D02*
X17372142Y2023810D01*
X17372142Y2023810D02*
X17276904Y1976191D01*
X17276904Y1976191D02*
X17181666Y1976191D01*
X17181666Y1976191D02*
X17086428Y2023810D01*
X17086428Y2023810D02*
X17038809Y2071429D01*
X17038809Y2071429D02*
X16991190Y2166667D01*
X16991190Y2166667D02*
X16943571Y2357143D01*
X16943571Y2357143D02*
X16895952Y2452381D01*
X16895952Y2452381D02*
X16848333Y2500000D01*
X16848333Y2500000D02*
X16753095Y2547619D01*
X16753095Y2547619D02*
X16657857Y2547619D01*
X16657857Y2547619D02*
X16562619Y2500000D01*
X16562619Y2500000D02*
X16515000Y2452381D01*
X16515000Y2452381D02*
X16467380Y2357143D01*
X16467380Y2357143D02*
X16467380Y2119048D01*
X16467380Y2119048D02*
X16515000Y1976191D01*
X17419761Y1595238D02*
X17467380Y1452381D01*
X17467380Y1452381D02*
X17467380Y1214286D01*
X17467380Y1214286D02*
X17419761Y1119048D01*
X17419761Y1119048D02*
X17372142Y1071429D01*
X17372142Y1071429D02*
X17276904Y1023810D01*
X17276904Y1023810D02*
X17181666Y1023810D01*
X17181666Y1023810D02*
X17086428Y1071429D01*
X17086428Y1071429D02*
X17038809Y1119048D01*
X17038809Y1119048D02*
X16991190Y1214286D01*
X16991190Y1214286D02*
X16943571Y1404762D01*
X16943571Y1404762D02*
X16895952Y1500000D01*
X16895952Y1500000D02*
X16848333Y1547619D01*
X16848333Y1547619D02*
X16753095Y1595238D01*
X16753095Y1595238D02*
X16657857Y1595238D01*
X16657857Y1595238D02*
X16562619Y1547619D01*
X16562619Y1547619D02*
X16515000Y1500000D01*
X16515000Y1500000D02*
X16467380Y1404762D01*
X16467380Y1404762D02*
X16467380Y1166667D01*
X16467380Y1166667D02*
X16515000Y1023810D01*
X16467380Y690476D02*
X16467380Y71429D01*
X16467380Y71429D02*
X16848333Y404762D01*
X16848333Y404762D02*
X16848333Y261905D01*
X16848333Y261905D02*
X16895952Y166667D01*
X16895952Y166667D02*
X16943571Y119048D01*
X16943571Y119048D02*
X17038809Y71429D01*
X17038809Y71429D02*
X17276904Y71429D01*
X17276904Y71429D02*
X17372142Y119048D01*
X17372142Y119048D02*
X17419761Y166667D01*
X17419761Y166667D02*
X17467380Y261905D01*
X17467380Y261905D02*
X17467380Y547619D01*
X17467380Y547619D02*
X17419761Y642857D01*
X17419761Y642857D02*
X17372142Y690476D01*
X17467380Y-404762D02*
X17467380Y-595238D01*
X17467380Y-595238D02*
X17419761Y-690476D01*
X17419761Y-690476D02*
X17372142Y-738095D01*
X17372142Y-738095D02*
X17229285Y-833333D01*
X17229285Y-833333D02*
X17038809Y-880952D01*
X17038809Y-880952D02*
X16657857Y-880952D01*
X16657857Y-880952D02*
X16562619Y-833333D01*
X16562619Y-833333D02*
X16515000Y-785714D01*
X16515000Y-785714D02*
X16467380Y-690476D01*
X16467380Y-690476D02*
X16467380Y-500000D01*
X16467380Y-500000D02*
X16515000Y-404762D01*
X16515000Y-404762D02*
X16562619Y-357143D01*
X16562619Y-357143D02*
X16657857Y-309524D01*
X16657857Y-309524D02*
X16895952Y-309524D01*
X16895952Y-309524D02*
X16991190Y-357143D01*
X16991190Y-357143D02*
X17038809Y-404762D01*
X17038809Y-404762D02*
X17086428Y-500000D01*
X17086428Y-500000D02*
X17086428Y-690476D01*
X17086428Y-690476D02*
X17038809Y-785714D01*
X17038809Y-785714D02*
X16991190Y-833333D01*
X16991190Y-833333D02*
X16895952Y-880952D01*
X16943571Y-1309524D02*
X16943571Y-1642857D01*
X17467380Y-1785714D02*
X17467380Y-1309524D01*
X17467380Y-1309524D02*
X16467380Y-1309524D01*
X16467380Y-1309524D02*
X16467380Y-1785714D01*
X16467380Y-2071429D02*
X16467380Y-2642857D01*
X17467380Y-2357143D02*
X16467380Y-2357143D01*
%TO.C,S2*%
X2547618Y2080239D02*
X2404761Y2032620D01*
X2404761Y2032620D02*
X2166666Y2032620D01*
X2166666Y2032620D02*
X2071428Y2080239D01*
X2071428Y2080239D02*
X2023809Y2127858D01*
X2023809Y2127858D02*
X1976190Y2223096D01*
X1976190Y2223096D02*
X1976190Y2318334D01*
X1976190Y2318334D02*
X2023809Y2413572D01*
X2023809Y2413572D02*
X2071428Y2461191D01*
X2071428Y2461191D02*
X2166666Y2508810D01*
X2166666Y2508810D02*
X2357142Y2556429D01*
X2357142Y2556429D02*
X2452380Y2604048D01*
X2452380Y2604048D02*
X2499999Y2651667D01*
X2499999Y2651667D02*
X2547618Y2746905D01*
X2547618Y2746905D02*
X2547618Y2842143D01*
X2547618Y2842143D02*
X2499999Y2937381D01*
X2499999Y2937381D02*
X2452380Y2985000D01*
X2452380Y2985000D02*
X2357142Y3032620D01*
X2357142Y3032620D02*
X2119047Y3032620D01*
X2119047Y3032620D02*
X1976190Y2985000D01*
X1595237Y2080239D02*
X1452380Y2032620D01*
X1452380Y2032620D02*
X1214285Y2032620D01*
X1214285Y2032620D02*
X1119047Y2080239D01*
X1119047Y2080239D02*
X1071428Y2127858D01*
X1071428Y2127858D02*
X1023809Y2223096D01*
X1023809Y2223096D02*
X1023809Y2318334D01*
X1023809Y2318334D02*
X1071428Y2413572D01*
X1071428Y2413572D02*
X1119047Y2461191D01*
X1119047Y2461191D02*
X1214285Y2508810D01*
X1214285Y2508810D02*
X1404761Y2556429D01*
X1404761Y2556429D02*
X1499999Y2604048D01*
X1499999Y2604048D02*
X1547618Y2651667D01*
X1547618Y2651667D02*
X1595237Y2746905D01*
X1595237Y2746905D02*
X1595237Y2842143D01*
X1595237Y2842143D02*
X1547618Y2937381D01*
X1547618Y2937381D02*
X1499999Y2985000D01*
X1499999Y2985000D02*
X1404761Y3032620D01*
X1404761Y3032620D02*
X1166666Y3032620D01*
X1166666Y3032620D02*
X1023809Y2985000D01*
X690475Y3032620D02*
X71428Y3032620D01*
X71428Y3032620D02*
X404761Y2651667D01*
X404761Y2651667D02*
X261904Y2651667D01*
X261904Y2651667D02*
X166666Y2604048D01*
X166666Y2604048D02*
X119047Y2556429D01*
X119047Y2556429D02*
X71428Y2461191D01*
X71428Y2461191D02*
X71428Y2223096D01*
X71428Y2223096D02*
X119047Y2127858D01*
X119047Y2127858D02*
X166666Y2080239D01*
X166666Y2080239D02*
X261904Y2032620D01*
X261904Y2032620D02*
X547618Y2032620D01*
X547618Y2032620D02*
X642856Y2080239D01*
X642856Y2080239D02*
X690475Y2127858D01*
X-404763Y2032620D02*
X-595239Y2032620D01*
X-595239Y2032620D02*
X-690477Y2080239D01*
X-690477Y2080239D02*
X-738096Y2127858D01*
X-738096Y2127858D02*
X-833334Y2270715D01*
X-833334Y2270715D02*
X-880953Y2461191D01*
X-880953Y2461191D02*
X-880953Y2842143D01*
X-880953Y2842143D02*
X-833334Y2937381D01*
X-833334Y2937381D02*
X-785715Y2985000D01*
X-785715Y2985000D02*
X-690477Y3032620D01*
X-690477Y3032620D02*
X-500001Y3032620D01*
X-500001Y3032620D02*
X-404763Y2985000D01*
X-404763Y2985000D02*
X-357144Y2937381D01*
X-357144Y2937381D02*
X-309525Y2842143D01*
X-309525Y2842143D02*
X-309525Y2604048D01*
X-309525Y2604048D02*
X-357144Y2508810D01*
X-357144Y2508810D02*
X-404763Y2461191D01*
X-404763Y2461191D02*
X-500001Y2413572D01*
X-500001Y2413572D02*
X-690477Y2413572D01*
X-690477Y2413572D02*
X-785715Y2461191D01*
X-785715Y2461191D02*
X-833334Y2508810D01*
X-833334Y2508810D02*
X-880953Y2604048D01*
X-1309525Y2556429D02*
X-1642858Y2556429D01*
X-1785715Y2032620D02*
X-1309525Y2032620D01*
X-1309525Y2032620D02*
X-1309525Y3032620D01*
X-1309525Y3032620D02*
X-1785715Y3032620D01*
X-2071430Y3032620D02*
X-2642858Y3032620D01*
X-2357144Y2032620D02*
X-2357144Y3032620D01*
%TO.C,S1*%
X-16952382Y2080239D02*
X-17095239Y2032620D01*
X-17095239Y2032620D02*
X-17333334Y2032620D01*
X-17333334Y2032620D02*
X-17428572Y2080239D01*
X-17428572Y2080239D02*
X-17476191Y2127858D01*
X-17476191Y2127858D02*
X-17523810Y2223096D01*
X-17523810Y2223096D02*
X-17523810Y2318334D01*
X-17523810Y2318334D02*
X-17476191Y2413572D01*
X-17476191Y2413572D02*
X-17428572Y2461191D01*
X-17428572Y2461191D02*
X-17333334Y2508810D01*
X-17333334Y2508810D02*
X-17142858Y2556429D01*
X-17142858Y2556429D02*
X-17047620Y2604048D01*
X-17047620Y2604048D02*
X-17000001Y2651667D01*
X-17000001Y2651667D02*
X-16952382Y2746905D01*
X-16952382Y2746905D02*
X-16952382Y2842143D01*
X-16952382Y2842143D02*
X-17000001Y2937381D01*
X-17000001Y2937381D02*
X-17047620Y2985000D01*
X-17047620Y2985000D02*
X-17142858Y3032620D01*
X-17142858Y3032620D02*
X-17380953Y3032620D01*
X-17380953Y3032620D02*
X-17523810Y2985000D01*
X-17904763Y2080239D02*
X-18047620Y2032620D01*
X-18047620Y2032620D02*
X-18285715Y2032620D01*
X-18285715Y2032620D02*
X-18380953Y2080239D01*
X-18380953Y2080239D02*
X-18428572Y2127858D01*
X-18428572Y2127858D02*
X-18476191Y2223096D01*
X-18476191Y2223096D02*
X-18476191Y2318334D01*
X-18476191Y2318334D02*
X-18428572Y2413572D01*
X-18428572Y2413572D02*
X-18380953Y2461191D01*
X-18380953Y2461191D02*
X-18285715Y2508810D01*
X-18285715Y2508810D02*
X-18095239Y2556429D01*
X-18095239Y2556429D02*
X-18000001Y2604048D01*
X-18000001Y2604048D02*
X-17952382Y2651667D01*
X-17952382Y2651667D02*
X-17904763Y2746905D01*
X-17904763Y2746905D02*
X-17904763Y2842143D01*
X-17904763Y2842143D02*
X-17952382Y2937381D01*
X-17952382Y2937381D02*
X-18000001Y2985000D01*
X-18000001Y2985000D02*
X-18095239Y3032620D01*
X-18095239Y3032620D02*
X-18333334Y3032620D01*
X-18333334Y3032620D02*
X-18476191Y2985000D01*
X-18809525Y3032620D02*
X-19428572Y3032620D01*
X-19428572Y3032620D02*
X-19095239Y2651667D01*
X-19095239Y2651667D02*
X-19238096Y2651667D01*
X-19238096Y2651667D02*
X-19333334Y2604048D01*
X-19333334Y2604048D02*
X-19380953Y2556429D01*
X-19380953Y2556429D02*
X-19428572Y2461191D01*
X-19428572Y2461191D02*
X-19428572Y2223096D01*
X-19428572Y2223096D02*
X-19380953Y2127858D01*
X-19380953Y2127858D02*
X-19333334Y2080239D01*
X-19333334Y2080239D02*
X-19238096Y2032620D01*
X-19238096Y2032620D02*
X-18952382Y2032620D01*
X-18952382Y2032620D02*
X-18857144Y2080239D01*
X-18857144Y2080239D02*
X-18809525Y2127858D01*
X-19904763Y2032620D02*
X-20095239Y2032620D01*
X-20095239Y2032620D02*
X-20190477Y2080239D01*
X-20190477Y2080239D02*
X-20238096Y2127858D01*
X-20238096Y2127858D02*
X-20333334Y2270715D01*
X-20333334Y2270715D02*
X-20380953Y2461191D01*
X-20380953Y2461191D02*
X-20380953Y2842143D01*
X-20380953Y2842143D02*
X-20333334Y2937381D01*
X-20333334Y2937381D02*
X-20285715Y2985000D01*
X-20285715Y2985000D02*
X-20190477Y3032620D01*
X-20190477Y3032620D02*
X-20000001Y3032620D01*
X-20000001Y3032620D02*
X-19904763Y2985000D01*
X-19904763Y2985000D02*
X-19857144Y2937381D01*
X-19857144Y2937381D02*
X-19809525Y2842143D01*
X-19809525Y2842143D02*
X-19809525Y2604048D01*
X-19809525Y2604048D02*
X-19857144Y2508810D01*
X-19857144Y2508810D02*
X-19904763Y2461191D01*
X-19904763Y2461191D02*
X-20000001Y2413572D01*
X-20000001Y2413572D02*
X-20190477Y2413572D01*
X-20190477Y2413572D02*
X-20285715Y2461191D01*
X-20285715Y2461191D02*
X-20333334Y2508810D01*
X-20333334Y2508810D02*
X-20380953Y2604048D01*
X-20809525Y2556429D02*
X-21142858Y2556429D01*
X-21285715Y2032620D02*
X-20809525Y2032620D01*
X-20809525Y2032620D02*
X-20809525Y3032620D01*
X-20809525Y3032620D02*
X-21285715Y3032620D01*
X-21571430Y3032620D02*
X-22142858Y3032620D01*
X-21857144Y2032620D02*
X-21857144Y3032620D01*
D12*
%TO.C,C18*%
X-22400000Y-222164D02*
X-22400000Y-437836D01*
X-21680000Y-222164D02*
X-21680000Y-437836D01*
%TO.C,C20*%
X22397836Y-1730000D02*
X22182164Y-1730000D01*
X22397836Y-1010000D02*
X22182164Y-1010000D01*
%TO.C,C19*%
X-3177836Y-660000D02*
X-2962164Y-660000D01*
X-3177836Y-1380000D02*
X-2962164Y-1380000D01*
D13*
%TO.C,U1*%
X19530000Y15580000D02*
X19530000Y22780000D01*
X19530000Y22780000D02*
X10730000Y22780000D01*
X10730000Y15580000D02*
X19530000Y15580000D01*
X10730000Y22780000D02*
X10730000Y15580000D01*
D11*
%TO.C,P1*%
X4470000Y32325000D02*
X-4470000Y32325000D01*
X-4470000Y32325000D02*
X-4470000Y39675000D01*
X-4470000Y39675000D02*
X4470000Y39675000D01*
X4470000Y39675000D02*
X4470000Y32325000D01*
D12*
%TO.C,S3*%
X17940000Y0D02*
X17940000Y800000D01*
%TO.C,S2*%
X0Y1560000D02*
X800000Y1560000D01*
%TO.C,S1*%
X-19500000Y1560000D02*
X-18700000Y1560000D01*
%TD*%
%LPC*%
D14*
%TO.C,REF\u002A\u002A*%
X-14420000Y0D03*
X-24580000Y0D03*
%TD*%
%TO.C,REF\u002A\u002A*%
X14420000Y0D03*
X24580000Y0D03*
%TD*%
%TO.C,REF\u002A\u002A*%
X5080000Y0D03*
X-5080000Y0D03*
%TD*%
D15*
%TO.C,C18*%
X-22040000Y-810000D03*
X-22040000Y150000D03*
%TD*%
D16*
%TO.C,C20*%
X22770000Y-1370000D03*
X21810000Y-1370000D03*
%TD*%
D17*
%TO.C,C19*%
X-3550000Y-1020000D03*
X-2590000Y-1020000D03*
%TD*%
D18*
%TO.C,H3*%
X0Y-29000000D03*
%TD*%
D19*
%TO.C,P1*%
X2890000Y33395000D03*
X-2890000Y33395000D03*
D20*
X4319999Y32894999D03*
D21*
X4319999Y37074999D03*
D20*
X-4319999Y32894999D03*
D21*
X-4319999Y37074999D03*
%TD*%
D18*
%TO.C,H2*%
X-27000000Y14000000D03*
%TD*%
%TO.C,REF\u002A\u002A*%
X-14000000Y-13000000D03*
%TD*%
%TO.C,H1*%
X27000000Y14000000D03*
%TD*%
%TO.C,REF\u002A\u002A*%
X14000000Y-13000000D03*
%TD*%
D22*
%TO.C,S3*%
X20450000Y-1137500D03*
X18550000Y-1137500D03*
X19500000Y1137500D03*
%TD*%
D23*
%TO.C,S2*%
X-1137500Y-950000D03*
X-1137500Y950000D03*
X1137500Y0D03*
%TD*%
%TO.C,S1*%
X-18362500Y0D03*
X-20637500Y950000D03*
X-20637500Y-950000D03*
%TD*%
M02*
