%TF.GenerationSoftware,KiCad,Pcbnew,(7.0.0-0)*%
%TF.CreationDate,2023-03-14T21:41:36-05:00*%
%TF.ProjectId,RP2040_minimal,52503230-3430-45f6-9d69-6e696d616c2e,REV1*%
%TF.SameCoordinates,Original*%
%TF.FileFunction,Paste,Top*%
%TF.FilePolarity,Positive*%
%FSLAX46Y46*%
G04 Gerber Fmt 4.6, Leading zero omitted, Abs format (unit mm)*
G04 Created by KiCad (PCBNEW (7.0.0-0)) date 2023-03-14 21:41:36*
%MOMM*%
%LPD*%
G01*
G04 APERTURE LIST*
G04 Aperture macros list*
%AMRoundRect*
0 Rectangle with rounded corners*
0 $1 Rounding radius*
0 $2 $3 $4 $5 $6 $7 $8 $9 X,Y pos of 4 corners*
0 Add a 4 corners polygon primitive as box body*
4,1,4,$2,$3,$4,$5,$6,$7,$8,$9,$2,$3,0*
0 Add four circle primitives for the rounded corners*
1,1,$1+$1,$2,$3*
1,1,$1+$1,$4,$5*
1,1,$1+$1,$6,$7*
1,1,$1+$1,$8,$9*
0 Add four rect primitives between the rounded corners*
20,1,$1+$1,$2,$3,$4,$5,0*
20,1,$1+$1,$4,$5,$6,$7,0*
20,1,$1+$1,$6,$7,$8,$9,0*
20,1,$1+$1,$8,$9,$2,$3,0*%
G04 Aperture macros list end*
%ADD10RoundRect,0.243750X0.243750X0.456250X-0.243750X0.456250X-0.243750X-0.456250X0.243750X-0.456250X0*%
%ADD11RoundRect,0.147500X-0.147500X-0.172500X0.147500X-0.172500X0.147500X0.172500X-0.147500X0.172500X0*%
%ADD12RoundRect,0.147500X0.147500X0.172500X-0.147500X0.172500X-0.147500X-0.172500X0.147500X-0.172500X0*%
%ADD13R,2.000000X1.500000*%
%ADD14R,2.000000X3.800000*%
%ADD15RoundRect,0.150000X-0.650000X-0.150000X0.650000X-0.150000X0.650000X0.150000X-0.650000X0.150000X0*%
%ADD16RoundRect,0.147500X-0.172500X0.147500X-0.172500X-0.147500X0.172500X-0.147500X0.172500X0.147500X0*%
%ADD17RoundRect,0.250000X-0.292217X0.292217X-0.292217X-0.292217X0.292217X-0.292217X0.292217X0.292217X0*%
%ADD18RoundRect,0.050000X-0.050000X0.387500X-0.050000X-0.387500X0.050000X-0.387500X0.050000X0.387500X0*%
%ADD19RoundRect,0.050000X-0.387500X0.050000X-0.387500X-0.050000X0.387500X-0.050000X0.387500X0.050000X0*%
%ADD20RoundRect,0.147500X0.172500X-0.147500X0.172500X0.147500X-0.172500X0.147500X-0.172500X-0.147500X0*%
%ADD21R,2.600000X1.900000*%
%ADD22RoundRect,0.140000X0.140000X0.170000X-0.140000X0.170000X-0.140000X-0.170000X0.140000X-0.170000X0*%
%ADD23RoundRect,0.150000X0.512500X0.150000X-0.512500X0.150000X-0.512500X-0.150000X0.512500X-0.150000X0*%
%ADD24RoundRect,0.225000X0.225000X0.250000X-0.225000X0.250000X-0.225000X-0.250000X0.225000X-0.250000X0*%
%ADD25RoundRect,0.150000X-0.512500X-0.150000X0.512500X-0.150000X0.512500X0.150000X-0.512500X0.150000X0*%
%ADD26R,1.000000X0.700000*%
%ADD27R,0.600000X0.700000*%
%ADD28RoundRect,0.150000X0.587500X0.150000X-0.587500X0.150000X-0.587500X-0.150000X0.587500X-0.150000X0*%
%ADD29RoundRect,0.140000X-0.170000X0.140000X-0.170000X-0.140000X0.170000X-0.140000X0.170000X0.140000X0*%
%ADD30RoundRect,0.140000X-0.140000X-0.170000X0.140000X-0.170000X0.140000X0.170000X-0.140000X0.170000X0*%
%ADD31R,0.600000X1.150000*%
%ADD32R,0.300000X1.150000*%
%ADD33RoundRect,0.250000X-0.375000X-0.625000X0.375000X-0.625000X0.375000X0.625000X-0.375000X0.625000X0*%
G04 APERTURE END LIST*
D10*
%TO.C,C2*%
X9907500Y19150000D03*
X8032500Y19150000D03*
%TD*%
D11*
%TO.C,C12*%
X-45000Y11682500D03*
X925000Y11682500D03*
%TD*%
%TO.C,C11*%
X-45000Y12682500D03*
X925000Y12682500D03*
%TD*%
D12*
%TO.C,C8*%
X-7115000Y10635000D03*
X-8085000Y10635000D03*
%TD*%
D13*
%TO.C,U1*%
X18279999Y16879999D03*
X18279999Y19179999D03*
D14*
X11979999Y19179999D03*
D13*
X18279999Y21479999D03*
%TD*%
D15*
%TO.C,U4*%
X-13155000Y28412500D03*
X-13155000Y27142500D03*
X-13155000Y25872500D03*
X-13155000Y24602500D03*
X-5955000Y24602500D03*
X-5955000Y25872500D03*
X-5955000Y27142500D03*
X-5955000Y28412500D03*
%TD*%
D16*
%TO.C,C17*%
X-14792519Y16724000D03*
X-14792519Y15754000D03*
%TD*%
D11*
%TO.C,C5*%
X-160000Y15715000D03*
X810000Y15715000D03*
%TD*%
D12*
%TO.C,C7*%
X-3992500Y20402500D03*
X-4962500Y20402500D03*
%TD*%
%TO.C,C10*%
X-11740000Y15279000D03*
X-12710000Y15279000D03*
%TD*%
%TO.C,R5*%
X810876Y14697500D03*
X-159124Y14697500D03*
%TD*%
%TO.C,C4*%
X-11500000Y14172500D03*
X-12470000Y14172500D03*
%TD*%
D10*
%TO.C,C1*%
X16387500Y23940000D03*
X14512500Y23940000D03*
%TD*%
D12*
%TO.C,C6*%
X-7342500Y20432500D03*
X-8312500Y20432500D03*
%TD*%
D17*
%TO.C,U5*%
X-5447500Y16322500D03*
X-6722500Y16322500D03*
X-5447500Y15047500D03*
X-6722500Y15047500D03*
D18*
X-3485000Y19122500D03*
X-3885000Y19122500D03*
X-4285000Y19122500D03*
X-4685000Y19122500D03*
X-5085000Y19122500D03*
X-5485000Y19122500D03*
X-5885000Y19122500D03*
X-6285000Y19122500D03*
X-6685000Y19122500D03*
X-7085000Y19122500D03*
X-7485000Y19122500D03*
X-7885000Y19122500D03*
X-8285000Y19122500D03*
X-8685000Y19122500D03*
D19*
X-9522500Y18285000D03*
X-9522500Y17885000D03*
X-9522500Y17485000D03*
X-9522500Y17085000D03*
X-9522500Y16685000D03*
X-9522500Y16285000D03*
X-9522500Y15885000D03*
X-9522500Y15485000D03*
X-9522500Y15085000D03*
X-9522500Y14685000D03*
X-9522500Y14285000D03*
X-9522500Y13885000D03*
X-9522500Y13485000D03*
X-9522500Y13085000D03*
D18*
X-8685000Y12247500D03*
X-8285000Y12247500D03*
X-7885000Y12247500D03*
X-7485000Y12247500D03*
X-7085000Y12247500D03*
X-6685000Y12247500D03*
X-6285000Y12247500D03*
X-5885000Y12247500D03*
X-5485000Y12247500D03*
X-5085000Y12247500D03*
X-4685000Y12247500D03*
X-4285000Y12247500D03*
X-3885000Y12247500D03*
X-3485000Y12247500D03*
D19*
X-2647500Y13085000D03*
X-2647500Y13485000D03*
X-2647500Y13885000D03*
X-2647500Y14285000D03*
X-2647500Y14685000D03*
X-2647500Y15085000D03*
X-2647500Y15485000D03*
X-2647500Y15885000D03*
X-2647500Y16285000D03*
X-2647500Y16685000D03*
X-2647500Y17085000D03*
X-2647500Y17485000D03*
X-2647500Y17885000D03*
X-2647500Y18285000D03*
%TD*%
D20*
%TO.C,C16*%
X-14792519Y18724000D03*
X-14792519Y19694000D03*
%TD*%
D12*
%TO.C,R6*%
X810876Y13697500D03*
X-159124Y13697500D03*
%TD*%
D20*
%TO.C,C3*%
X10000Y17255000D03*
X10000Y18225000D03*
%TD*%
D11*
%TO.C,C15*%
X-5940000Y29907500D03*
X-4970000Y29907500D03*
%TD*%
D12*
%TO.C,R8*%
X-12422519Y17024000D03*
X-13392519Y17024000D03*
%TD*%
D21*
%TO.C,Y1*%
X-17816837Y20112499D03*
X-17816837Y15812499D03*
%TD*%
D22*
%TO.C,R9*%
X-10910000Y29930000D03*
X-11870000Y29930000D03*
%TD*%
D23*
%TO.C,Q1*%
X-17220000Y24160000D03*
X-17220000Y25110000D03*
X-17220000Y26060000D03*
X-19495000Y26060000D03*
X-19495000Y24160000D03*
%TD*%
D24*
%TO.C,R4*%
X4610000Y9220000D03*
X3060000Y9220000D03*
%TD*%
D25*
%TO.C,S3*%
X18362500Y950000D03*
X18362500Y-950000D03*
X20637500Y0D03*
%TD*%
D24*
%TO.C,R1*%
X11820000Y9320000D03*
X10270000Y9320000D03*
%TD*%
D26*
%TO.C,U3*%
X5039999Y23334999D03*
D27*
X3339999Y23334999D03*
X3339999Y21334999D03*
X5239999Y21334999D03*
%TD*%
D23*
%TO.C,S2*%
X1137500Y-950000D03*
X1137500Y950000D03*
X-1137500Y0D03*
%TD*%
D28*
%TO.C,U2*%
X8250000Y9260000D03*
X8250000Y11160000D03*
X6375000Y10210000D03*
%TD*%
D29*
%TO.C,R2*%
X1854000Y29896000D03*
X1854000Y28936000D03*
%TD*%
D11*
%TO.C,C14*%
X-445000Y10050000D03*
X525000Y10050000D03*
%TD*%
D23*
%TO.C,S1*%
X-18362500Y-950000D03*
X-18362500Y950000D03*
X-20637500Y0D03*
%TD*%
D29*
%TO.C,C18*%
X-16810000Y-20000D03*
X-16810000Y-980000D03*
%TD*%
D16*
%TO.C,C9*%
X-2775000Y11057500D03*
X-2775000Y10087500D03*
%TD*%
%TO.C,C13*%
X-1745000Y11057500D03*
X-1745000Y10087500D03*
%TD*%
D29*
%TO.C,C20*%
X16840000Y1956000D03*
X16840000Y996000D03*
%TD*%
%TO.C,R3*%
X-2430000Y29880000D03*
X-2430000Y28920000D03*
%TD*%
%TO.C,C19*%
X2700000Y40000D03*
X2700000Y-920000D03*
%TD*%
D30*
%TO.C,R7*%
X-13810000Y29940000D03*
X-12850000Y29940000D03*
%TD*%
D31*
%TO.C,P1*%
X3199999Y32124999D03*
X2399999Y32124999D03*
D32*
X1249999Y32124999D03*
X249999Y32124999D03*
X-249999Y32124999D03*
X-1249999Y32124999D03*
D31*
X-2399999Y32124999D03*
X-3199999Y32124999D03*
X-3199999Y32124999D03*
X-2399999Y32124999D03*
D32*
X-1749999Y32124999D03*
X-749999Y32124999D03*
X749999Y32124999D03*
X1749999Y32124999D03*
D31*
X2399999Y32124999D03*
X3199999Y32124999D03*
%TD*%
D33*
%TO.C,F1*%
X7030000Y25840000D03*
X9830000Y25840000D03*
%TD*%
M02*
