G04 #@! TF.GenerationSoftware,KiCad,Pcbnew,(7.0.0-0)*
G04 #@! TF.CreationDate,2023-03-04T17:00:40-06:00*
G04 #@! TF.ProjectId,RP2040_minimal,52503230-3430-45f6-9d69-6e696d616c2e,REV1*
G04 #@! TF.SameCoordinates,Original*
G04 #@! TF.FileFunction,Legend,Bot*
G04 #@! TF.FilePolarity,Positive*
%FSLAX46Y46*%
G04 Gerber Fmt 4.6, Leading zero omitted, Abs format (unit mm)*
G04 Created by KiCad (PCBNEW (7.0.0-0)) date 2023-03-04 17:00:40*
%MOMM*%
%LPD*%
G01*
G04 APERTURE LIST*
%ADD10C,4.000000*%
%ADD11C,0.150000*%
%ADD12C,0.120000*%
%ADD13C,0.100000*%
G04 APERTURE END LIST*
D10*
X138000000Y-100000000D02*
G75*
G03*
X138000000Y-100000000I-38000000J0D01*
G01*
D11*
X100761904Y-132867380D02*
X100761904Y-131867380D01*
X100761904Y-132343571D02*
X100190476Y-132343571D01*
X100190476Y-132867380D02*
X100190476Y-131867380D01*
X99238095Y-131867380D02*
X99714285Y-131867380D01*
X99714285Y-131867380D02*
X99761904Y-132343571D01*
X99761904Y-132343571D02*
X99714285Y-132295952D01*
X99714285Y-132295952D02*
X99619047Y-132248333D01*
X99619047Y-132248333D02*
X99380952Y-132248333D01*
X99380952Y-132248333D02*
X99285714Y-132295952D01*
X99285714Y-132295952D02*
X99238095Y-132343571D01*
X99238095Y-132343571D02*
X99190476Y-132438809D01*
X99190476Y-132438809D02*
X99190476Y-132676904D01*
X99190476Y-132676904D02*
X99238095Y-132772142D01*
X99238095Y-132772142D02*
X99285714Y-132819761D01*
X99285714Y-132819761D02*
X99380952Y-132867380D01*
X99380952Y-132867380D02*
X99619047Y-132867380D01*
X99619047Y-132867380D02*
X99714285Y-132819761D01*
X99714285Y-132819761D02*
X99761904Y-132772142D01*
X71761904Y-83867380D02*
X71761904Y-82867380D01*
X71761904Y-83343571D02*
X71190476Y-83343571D01*
X71190476Y-83867380D02*
X71190476Y-82867380D01*
X70285714Y-83200714D02*
X70285714Y-83867380D01*
X70523809Y-82819761D02*
X70761904Y-83534047D01*
X70761904Y-83534047D02*
X70142857Y-83534047D01*
X129761904Y-83867380D02*
X129761904Y-82867380D01*
X129761904Y-83343571D02*
X129190476Y-83343571D01*
X129190476Y-83867380D02*
X129190476Y-82867380D01*
X128190476Y-83867380D02*
X128761904Y-83867380D01*
X128476190Y-83867380D02*
X128476190Y-82867380D01*
X128476190Y-82867380D02*
X128571428Y-83010238D01*
X128571428Y-83010238D02*
X128666666Y-83105476D01*
X128666666Y-83105476D02*
X128761904Y-83153095D01*
X83866666Y-81512142D02*
X83914285Y-81559761D01*
X83914285Y-81559761D02*
X84057142Y-81607380D01*
X84057142Y-81607380D02*
X84152380Y-81607380D01*
X84152380Y-81607380D02*
X84295237Y-81559761D01*
X84295237Y-81559761D02*
X84390475Y-81464523D01*
X84390475Y-81464523D02*
X84438094Y-81369285D01*
X84438094Y-81369285D02*
X84485713Y-81178809D01*
X84485713Y-81178809D02*
X84485713Y-81035952D01*
X84485713Y-81035952D02*
X84438094Y-80845476D01*
X84438094Y-80845476D02*
X84390475Y-80750238D01*
X84390475Y-80750238D02*
X84295237Y-80655000D01*
X84295237Y-80655000D02*
X84152380Y-80607380D01*
X84152380Y-80607380D02*
X84057142Y-80607380D01*
X84057142Y-80607380D02*
X83914285Y-80655000D01*
X83914285Y-80655000D02*
X83866666Y-80702619D01*
X83485713Y-80702619D02*
X83438094Y-80655000D01*
X83438094Y-80655000D02*
X83342856Y-80607380D01*
X83342856Y-80607380D02*
X83104761Y-80607380D01*
X83104761Y-80607380D02*
X83009523Y-80655000D01*
X83009523Y-80655000D02*
X82961904Y-80702619D01*
X82961904Y-80702619D02*
X82914285Y-80797857D01*
X82914285Y-80797857D02*
X82914285Y-80893095D01*
X82914285Y-80893095D02*
X82961904Y-81035952D01*
X82961904Y-81035952D02*
X83533332Y-81607380D01*
X83533332Y-81607380D02*
X82914285Y-81607380D01*
X98670357Y-91196142D02*
X98717976Y-91243761D01*
X98717976Y-91243761D02*
X98860833Y-91291380D01*
X98860833Y-91291380D02*
X98956071Y-91291380D01*
X98956071Y-91291380D02*
X99098928Y-91243761D01*
X99098928Y-91243761D02*
X99194166Y-91148523D01*
X99194166Y-91148523D02*
X99241785Y-91053285D01*
X99241785Y-91053285D02*
X99289404Y-90862809D01*
X99289404Y-90862809D02*
X99289404Y-90719952D01*
X99289404Y-90719952D02*
X99241785Y-90529476D01*
X99241785Y-90529476D02*
X99194166Y-90434238D01*
X99194166Y-90434238D02*
X99098928Y-90339000D01*
X99098928Y-90339000D02*
X98956071Y-90291380D01*
X98956071Y-90291380D02*
X98860833Y-90291380D01*
X98860833Y-90291380D02*
X98717976Y-90339000D01*
X98717976Y-90339000D02*
X98670357Y-90386619D01*
X97717976Y-91291380D02*
X98289404Y-91291380D01*
X98003690Y-91291380D02*
X98003690Y-90291380D01*
X98003690Y-90291380D02*
X98098928Y-90434238D01*
X98098928Y-90434238D02*
X98194166Y-90529476D01*
X98194166Y-90529476D02*
X98289404Y-90577095D01*
X97337023Y-90386619D02*
X97289404Y-90339000D01*
X97289404Y-90339000D02*
X97194166Y-90291380D01*
X97194166Y-90291380D02*
X96956071Y-90291380D01*
X96956071Y-90291380D02*
X96860833Y-90339000D01*
X96860833Y-90339000D02*
X96813214Y-90386619D01*
X96813214Y-90386619D02*
X96765595Y-90481857D01*
X96765595Y-90481857D02*
X96765595Y-90577095D01*
X96765595Y-90577095D02*
X96813214Y-90719952D01*
X96813214Y-90719952D02*
X97384642Y-91291380D01*
X97384642Y-91291380D02*
X96765595Y-91291380D01*
X97850357Y-89932142D02*
X97897976Y-89979761D01*
X97897976Y-89979761D02*
X98040833Y-90027380D01*
X98040833Y-90027380D02*
X98136071Y-90027380D01*
X98136071Y-90027380D02*
X98278928Y-89979761D01*
X98278928Y-89979761D02*
X98374166Y-89884523D01*
X98374166Y-89884523D02*
X98421785Y-89789285D01*
X98421785Y-89789285D02*
X98469404Y-89598809D01*
X98469404Y-89598809D02*
X98469404Y-89455952D01*
X98469404Y-89455952D02*
X98421785Y-89265476D01*
X98421785Y-89265476D02*
X98374166Y-89170238D01*
X98374166Y-89170238D02*
X98278928Y-89075000D01*
X98278928Y-89075000D02*
X98136071Y-89027380D01*
X98136071Y-89027380D02*
X98040833Y-89027380D01*
X98040833Y-89027380D02*
X97897976Y-89075000D01*
X97897976Y-89075000D02*
X97850357Y-89122619D01*
X96897976Y-90027380D02*
X97469404Y-90027380D01*
X97183690Y-90027380D02*
X97183690Y-89027380D01*
X97183690Y-89027380D02*
X97278928Y-89170238D01*
X97278928Y-89170238D02*
X97374166Y-89265476D01*
X97374166Y-89265476D02*
X97469404Y-89313095D01*
X95945595Y-90027380D02*
X96517023Y-90027380D01*
X96231309Y-90027380D02*
X96231309Y-89027380D01*
X96231309Y-89027380D02*
X96326547Y-89170238D01*
X96326547Y-89170238D02*
X96421785Y-89265476D01*
X96421785Y-89265476D02*
X96517023Y-89313095D01*
X108929166Y-92459642D02*
X108976785Y-92507261D01*
X108976785Y-92507261D02*
X109119642Y-92554880D01*
X109119642Y-92554880D02*
X109214880Y-92554880D01*
X109214880Y-92554880D02*
X109357737Y-92507261D01*
X109357737Y-92507261D02*
X109452975Y-92412023D01*
X109452975Y-92412023D02*
X109500594Y-92316785D01*
X109500594Y-92316785D02*
X109548213Y-92126309D01*
X109548213Y-92126309D02*
X109548213Y-91983452D01*
X109548213Y-91983452D02*
X109500594Y-91792976D01*
X109500594Y-91792976D02*
X109452975Y-91697738D01*
X109452975Y-91697738D02*
X109357737Y-91602500D01*
X109357737Y-91602500D02*
X109214880Y-91554880D01*
X109214880Y-91554880D02*
X109119642Y-91554880D01*
X109119642Y-91554880D02*
X108976785Y-91602500D01*
X108976785Y-91602500D02*
X108929166Y-91650119D01*
X108357737Y-91983452D02*
X108452975Y-91935833D01*
X108452975Y-91935833D02*
X108500594Y-91888214D01*
X108500594Y-91888214D02*
X108548213Y-91792976D01*
X108548213Y-91792976D02*
X108548213Y-91745357D01*
X108548213Y-91745357D02*
X108500594Y-91650119D01*
X108500594Y-91650119D02*
X108452975Y-91602500D01*
X108452975Y-91602500D02*
X108357737Y-91554880D01*
X108357737Y-91554880D02*
X108167261Y-91554880D01*
X108167261Y-91554880D02*
X108072023Y-91602500D01*
X108072023Y-91602500D02*
X108024404Y-91650119D01*
X108024404Y-91650119D02*
X107976785Y-91745357D01*
X107976785Y-91745357D02*
X107976785Y-91792976D01*
X107976785Y-91792976D02*
X108024404Y-91888214D01*
X108024404Y-91888214D02*
X108072023Y-91935833D01*
X108072023Y-91935833D02*
X108167261Y-91983452D01*
X108167261Y-91983452D02*
X108357737Y-91983452D01*
X108357737Y-91983452D02*
X108452975Y-92031071D01*
X108452975Y-92031071D02*
X108500594Y-92078690D01*
X108500594Y-92078690D02*
X108548213Y-92173928D01*
X108548213Y-92173928D02*
X108548213Y-92364404D01*
X108548213Y-92364404D02*
X108500594Y-92459642D01*
X108500594Y-92459642D02*
X108452975Y-92507261D01*
X108452975Y-92507261D02*
X108357737Y-92554880D01*
X108357737Y-92554880D02*
X108167261Y-92554880D01*
X108167261Y-92554880D02*
X108072023Y-92507261D01*
X108072023Y-92507261D02*
X108024404Y-92459642D01*
X108024404Y-92459642D02*
X107976785Y-92364404D01*
X107976785Y-92364404D02*
X107976785Y-92173928D01*
X107976785Y-92173928D02*
X108024404Y-92078690D01*
X108024404Y-92078690D02*
X108072023Y-92031071D01*
X108072023Y-92031071D02*
X108167261Y-91983452D01*
X81471904Y-76647380D02*
X81471904Y-77456904D01*
X81471904Y-77456904D02*
X81424285Y-77552142D01*
X81424285Y-77552142D02*
X81376666Y-77599761D01*
X81376666Y-77599761D02*
X81281428Y-77647380D01*
X81281428Y-77647380D02*
X81090952Y-77647380D01*
X81090952Y-77647380D02*
X80995714Y-77599761D01*
X80995714Y-77599761D02*
X80948095Y-77552142D01*
X80948095Y-77552142D02*
X80900476Y-77456904D01*
X80900476Y-77456904D02*
X80900476Y-76647380D01*
X79900476Y-77647380D02*
X80471904Y-77647380D01*
X80186190Y-77647380D02*
X80186190Y-76647380D01*
X80186190Y-76647380D02*
X80281428Y-76790238D01*
X80281428Y-76790238D02*
X80376666Y-76885476D01*
X80376666Y-76885476D02*
X80471904Y-76933095D01*
X110054404Y-78969880D02*
X110054404Y-79779404D01*
X110054404Y-79779404D02*
X110006785Y-79874642D01*
X110006785Y-79874642D02*
X109959166Y-79922261D01*
X109959166Y-79922261D02*
X109863928Y-79969880D01*
X109863928Y-79969880D02*
X109673452Y-79969880D01*
X109673452Y-79969880D02*
X109578214Y-79922261D01*
X109578214Y-79922261D02*
X109530595Y-79874642D01*
X109530595Y-79874642D02*
X109482976Y-79779404D01*
X109482976Y-79779404D02*
X109482976Y-78969880D01*
X108578214Y-79303214D02*
X108578214Y-79969880D01*
X108816309Y-78922261D02*
X109054404Y-79636547D01*
X109054404Y-79636547D02*
X108435357Y-79636547D01*
X117411161Y-86565642D02*
X117458780Y-86518023D01*
X117458780Y-86518023D02*
X117506399Y-86375166D01*
X117506399Y-86375166D02*
X117506399Y-86279928D01*
X117506399Y-86279928D02*
X117458780Y-86137071D01*
X117458780Y-86137071D02*
X117363542Y-86041833D01*
X117363542Y-86041833D02*
X117268304Y-85994214D01*
X117268304Y-85994214D02*
X117077828Y-85946595D01*
X117077828Y-85946595D02*
X116934971Y-85946595D01*
X116934971Y-85946595D02*
X116744495Y-85994214D01*
X116744495Y-85994214D02*
X116649257Y-86041833D01*
X116649257Y-86041833D02*
X116554019Y-86137071D01*
X116554019Y-86137071D02*
X116506399Y-86279928D01*
X116506399Y-86279928D02*
X116506399Y-86375166D01*
X116506399Y-86375166D02*
X116554019Y-86518023D01*
X116554019Y-86518023D02*
X116601638Y-86565642D01*
X117506399Y-87518023D02*
X117506399Y-86946595D01*
X117506399Y-87232309D02*
X116506399Y-87232309D01*
X116506399Y-87232309D02*
X116649257Y-87137071D01*
X116649257Y-87137071D02*
X116744495Y-87041833D01*
X116744495Y-87041833D02*
X116792114Y-86946595D01*
X116934971Y-88089452D02*
X116887352Y-87994214D01*
X116887352Y-87994214D02*
X116839733Y-87946595D01*
X116839733Y-87946595D02*
X116744495Y-87898976D01*
X116744495Y-87898976D02*
X116696876Y-87898976D01*
X116696876Y-87898976D02*
X116601638Y-87946595D01*
X116601638Y-87946595D02*
X116554019Y-87994214D01*
X116554019Y-87994214D02*
X116506399Y-88089452D01*
X116506399Y-88089452D02*
X116506399Y-88279928D01*
X116506399Y-88279928D02*
X116554019Y-88375166D01*
X116554019Y-88375166D02*
X116601638Y-88422785D01*
X116601638Y-88422785D02*
X116696876Y-88470404D01*
X116696876Y-88470404D02*
X116744495Y-88470404D01*
X116744495Y-88470404D02*
X116839733Y-88422785D01*
X116839733Y-88422785D02*
X116887352Y-88375166D01*
X116887352Y-88375166D02*
X116934971Y-88279928D01*
X116934971Y-88279928D02*
X116934971Y-88089452D01*
X116934971Y-88089452D02*
X116982590Y-87994214D01*
X116982590Y-87994214D02*
X117030209Y-87946595D01*
X117030209Y-87946595D02*
X117125447Y-87898976D01*
X117125447Y-87898976D02*
X117315923Y-87898976D01*
X117315923Y-87898976D02*
X117411161Y-87946595D01*
X117411161Y-87946595D02*
X117458780Y-87994214D01*
X117458780Y-87994214D02*
X117506399Y-88089452D01*
X117506399Y-88089452D02*
X117506399Y-88279928D01*
X117506399Y-88279928D02*
X117458780Y-88375166D01*
X117458780Y-88375166D02*
X117411161Y-88422785D01*
X117411161Y-88422785D02*
X117315923Y-88470404D01*
X117315923Y-88470404D02*
X117125447Y-88470404D01*
X117125447Y-88470404D02*
X117030209Y-88422785D01*
X117030209Y-88422785D02*
X116982590Y-88375166D01*
X116982590Y-88375166D02*
X116934971Y-88279928D01*
X98489166Y-86009642D02*
X98536785Y-86057261D01*
X98536785Y-86057261D02*
X98679642Y-86104880D01*
X98679642Y-86104880D02*
X98774880Y-86104880D01*
X98774880Y-86104880D02*
X98917737Y-86057261D01*
X98917737Y-86057261D02*
X99012975Y-85962023D01*
X99012975Y-85962023D02*
X99060594Y-85866785D01*
X99060594Y-85866785D02*
X99108213Y-85676309D01*
X99108213Y-85676309D02*
X99108213Y-85533452D01*
X99108213Y-85533452D02*
X99060594Y-85342976D01*
X99060594Y-85342976D02*
X99012975Y-85247738D01*
X99012975Y-85247738D02*
X98917737Y-85152500D01*
X98917737Y-85152500D02*
X98774880Y-85104880D01*
X98774880Y-85104880D02*
X98679642Y-85104880D01*
X98679642Y-85104880D02*
X98536785Y-85152500D01*
X98536785Y-85152500D02*
X98489166Y-85200119D01*
X97584404Y-85104880D02*
X98060594Y-85104880D01*
X98060594Y-85104880D02*
X98108213Y-85581071D01*
X98108213Y-85581071D02*
X98060594Y-85533452D01*
X98060594Y-85533452D02*
X97965356Y-85485833D01*
X97965356Y-85485833D02*
X97727261Y-85485833D01*
X97727261Y-85485833D02*
X97632023Y-85533452D01*
X97632023Y-85533452D02*
X97584404Y-85581071D01*
X97584404Y-85581071D02*
X97536785Y-85676309D01*
X97536785Y-85676309D02*
X97536785Y-85914404D01*
X97536785Y-85914404D02*
X97584404Y-86009642D01*
X97584404Y-86009642D02*
X97632023Y-86057261D01*
X97632023Y-86057261D02*
X97727261Y-86104880D01*
X97727261Y-86104880D02*
X97965356Y-86104880D01*
X97965356Y-86104880D02*
X98060594Y-86057261D01*
X98060594Y-86057261D02*
X98108213Y-86009642D01*
X105806666Y-82692142D02*
X105854285Y-82739761D01*
X105854285Y-82739761D02*
X105997142Y-82787380D01*
X105997142Y-82787380D02*
X106092380Y-82787380D01*
X106092380Y-82787380D02*
X106235237Y-82739761D01*
X106235237Y-82739761D02*
X106330475Y-82644523D01*
X106330475Y-82644523D02*
X106378094Y-82549285D01*
X106378094Y-82549285D02*
X106425713Y-82358809D01*
X106425713Y-82358809D02*
X106425713Y-82215952D01*
X106425713Y-82215952D02*
X106378094Y-82025476D01*
X106378094Y-82025476D02*
X106330475Y-81930238D01*
X106330475Y-81930238D02*
X106235237Y-81835000D01*
X106235237Y-81835000D02*
X106092380Y-81787380D01*
X106092380Y-81787380D02*
X105997142Y-81787380D01*
X105997142Y-81787380D02*
X105854285Y-81835000D01*
X105854285Y-81835000D02*
X105806666Y-81882619D01*
X105473332Y-81787380D02*
X104806666Y-81787380D01*
X104806666Y-81787380D02*
X105235237Y-82787380D01*
X112444642Y-85240642D02*
X112492261Y-85193023D01*
X112492261Y-85193023D02*
X112539880Y-85050166D01*
X112539880Y-85050166D02*
X112539880Y-84954928D01*
X112539880Y-84954928D02*
X112492261Y-84812071D01*
X112492261Y-84812071D02*
X112397023Y-84716833D01*
X112397023Y-84716833D02*
X112301785Y-84669214D01*
X112301785Y-84669214D02*
X112111309Y-84621595D01*
X112111309Y-84621595D02*
X111968452Y-84621595D01*
X111968452Y-84621595D02*
X111777976Y-84669214D01*
X111777976Y-84669214D02*
X111682738Y-84716833D01*
X111682738Y-84716833D02*
X111587500Y-84812071D01*
X111587500Y-84812071D02*
X111539880Y-84954928D01*
X111539880Y-84954928D02*
X111539880Y-85050166D01*
X111539880Y-85050166D02*
X111587500Y-85193023D01*
X111587500Y-85193023D02*
X111635119Y-85240642D01*
X112539880Y-86193023D02*
X112539880Y-85621595D01*
X112539880Y-85907309D02*
X111539880Y-85907309D01*
X111539880Y-85907309D02*
X111682738Y-85812071D01*
X111682738Y-85812071D02*
X111777976Y-85716833D01*
X111777976Y-85716833D02*
X111825595Y-85621595D01*
X111539880Y-86812071D02*
X111539880Y-86907309D01*
X111539880Y-86907309D02*
X111587500Y-87002547D01*
X111587500Y-87002547D02*
X111635119Y-87050166D01*
X111635119Y-87050166D02*
X111730357Y-87097785D01*
X111730357Y-87097785D02*
X111920833Y-87145404D01*
X111920833Y-87145404D02*
X112158928Y-87145404D01*
X112158928Y-87145404D02*
X112349404Y-87097785D01*
X112349404Y-87097785D02*
X112444642Y-87050166D01*
X112444642Y-87050166D02*
X112492261Y-87002547D01*
X112492261Y-87002547D02*
X112539880Y-86907309D01*
X112539880Y-86907309D02*
X112539880Y-86812071D01*
X112539880Y-86812071D02*
X112492261Y-86716833D01*
X112492261Y-86716833D02*
X112444642Y-86669214D01*
X112444642Y-86669214D02*
X112349404Y-86621595D01*
X112349404Y-86621595D02*
X112158928Y-86573976D01*
X112158928Y-86573976D02*
X111920833Y-86573976D01*
X111920833Y-86573976D02*
X111730357Y-86621595D01*
X111730357Y-86621595D02*
X111635119Y-86669214D01*
X111635119Y-86669214D02*
X111587500Y-86716833D01*
X111587500Y-86716833D02*
X111539880Y-86812071D01*
X97488290Y-87412380D02*
X97821623Y-86936190D01*
X98059718Y-87412380D02*
X98059718Y-86412380D01*
X98059718Y-86412380D02*
X97678766Y-86412380D01*
X97678766Y-86412380D02*
X97583528Y-86460000D01*
X97583528Y-86460000D02*
X97535909Y-86507619D01*
X97535909Y-86507619D02*
X97488290Y-86602857D01*
X97488290Y-86602857D02*
X97488290Y-86745714D01*
X97488290Y-86745714D02*
X97535909Y-86840952D01*
X97535909Y-86840952D02*
X97583528Y-86888571D01*
X97583528Y-86888571D02*
X97678766Y-86936190D01*
X97678766Y-86936190D02*
X98059718Y-86936190D01*
X96583528Y-86412380D02*
X97059718Y-86412380D01*
X97059718Y-86412380D02*
X97107337Y-86888571D01*
X97107337Y-86888571D02*
X97059718Y-86840952D01*
X97059718Y-86840952D02*
X96964480Y-86793333D01*
X96964480Y-86793333D02*
X96726385Y-86793333D01*
X96726385Y-86793333D02*
X96631147Y-86840952D01*
X96631147Y-86840952D02*
X96583528Y-86888571D01*
X96583528Y-86888571D02*
X96535909Y-86983809D01*
X96535909Y-86983809D02*
X96535909Y-87221904D01*
X96535909Y-87221904D02*
X96583528Y-87317142D01*
X96583528Y-87317142D02*
X96631147Y-87364761D01*
X96631147Y-87364761D02*
X96726385Y-87412380D01*
X96726385Y-87412380D02*
X96964480Y-87412380D01*
X96964480Y-87412380D02*
X97059718Y-87364761D01*
X97059718Y-87364761D02*
X97107337Y-87317142D01*
X113904642Y-88723333D02*
X113952261Y-88675714D01*
X113952261Y-88675714D02*
X113999880Y-88532857D01*
X113999880Y-88532857D02*
X113999880Y-88437619D01*
X113999880Y-88437619D02*
X113952261Y-88294762D01*
X113952261Y-88294762D02*
X113857023Y-88199524D01*
X113857023Y-88199524D02*
X113761785Y-88151905D01*
X113761785Y-88151905D02*
X113571309Y-88104286D01*
X113571309Y-88104286D02*
X113428452Y-88104286D01*
X113428452Y-88104286D02*
X113237976Y-88151905D01*
X113237976Y-88151905D02*
X113142738Y-88199524D01*
X113142738Y-88199524D02*
X113047500Y-88294762D01*
X113047500Y-88294762D02*
X112999880Y-88437619D01*
X112999880Y-88437619D02*
X112999880Y-88532857D01*
X112999880Y-88532857D02*
X113047500Y-88675714D01*
X113047500Y-88675714D02*
X113095119Y-88723333D01*
X113333214Y-89580476D02*
X113999880Y-89580476D01*
X112952261Y-89342381D02*
X113666547Y-89104286D01*
X113666547Y-89104286D02*
X113666547Y-89723333D01*
X91802142Y-73143333D02*
X91849761Y-73095714D01*
X91849761Y-73095714D02*
X91897380Y-72952857D01*
X91897380Y-72952857D02*
X91897380Y-72857619D01*
X91897380Y-72857619D02*
X91849761Y-72714762D01*
X91849761Y-72714762D02*
X91754523Y-72619524D01*
X91754523Y-72619524D02*
X91659285Y-72571905D01*
X91659285Y-72571905D02*
X91468809Y-72524286D01*
X91468809Y-72524286D02*
X91325952Y-72524286D01*
X91325952Y-72524286D02*
X91135476Y-72571905D01*
X91135476Y-72571905D02*
X91040238Y-72619524D01*
X91040238Y-72619524D02*
X90945000Y-72714762D01*
X90945000Y-72714762D02*
X90897380Y-72857619D01*
X90897380Y-72857619D02*
X90897380Y-72952857D01*
X90897380Y-72952857D02*
X90945000Y-73095714D01*
X90945000Y-73095714D02*
X90992619Y-73143333D01*
X91897380Y-74095714D02*
X91897380Y-73524286D01*
X91897380Y-73810000D02*
X90897380Y-73810000D01*
X90897380Y-73810000D02*
X91040238Y-73714762D01*
X91040238Y-73714762D02*
X91135476Y-73619524D01*
X91135476Y-73619524D02*
X91183095Y-73524286D01*
X109156666Y-82662142D02*
X109204285Y-82709761D01*
X109204285Y-82709761D02*
X109347142Y-82757380D01*
X109347142Y-82757380D02*
X109442380Y-82757380D01*
X109442380Y-82757380D02*
X109585237Y-82709761D01*
X109585237Y-82709761D02*
X109680475Y-82614523D01*
X109680475Y-82614523D02*
X109728094Y-82519285D01*
X109728094Y-82519285D02*
X109775713Y-82328809D01*
X109775713Y-82328809D02*
X109775713Y-82185952D01*
X109775713Y-82185952D02*
X109728094Y-81995476D01*
X109728094Y-81995476D02*
X109680475Y-81900238D01*
X109680475Y-81900238D02*
X109585237Y-81805000D01*
X109585237Y-81805000D02*
X109442380Y-81757380D01*
X109442380Y-81757380D02*
X109347142Y-81757380D01*
X109347142Y-81757380D02*
X109204285Y-81805000D01*
X109204285Y-81805000D02*
X109156666Y-81852619D01*
X108299523Y-81757380D02*
X108489999Y-81757380D01*
X108489999Y-81757380D02*
X108585237Y-81805000D01*
X108585237Y-81805000D02*
X108632856Y-81852619D01*
X108632856Y-81852619D02*
X108728094Y-81995476D01*
X108728094Y-81995476D02*
X108775713Y-82185952D01*
X108775713Y-82185952D02*
X108775713Y-82566904D01*
X108775713Y-82566904D02*
X108728094Y-82662142D01*
X108728094Y-82662142D02*
X108680475Y-82709761D01*
X108680475Y-82709761D02*
X108585237Y-82757380D01*
X108585237Y-82757380D02*
X108394761Y-82757380D01*
X108394761Y-82757380D02*
X108299523Y-82709761D01*
X108299523Y-82709761D02*
X108251904Y-82662142D01*
X108251904Y-82662142D02*
X108204285Y-82566904D01*
X108204285Y-82566904D02*
X108204285Y-82328809D01*
X108204285Y-82328809D02*
X108251904Y-82233571D01*
X108251904Y-82233571D02*
X108299523Y-82185952D01*
X108299523Y-82185952D02*
X108394761Y-82138333D01*
X108394761Y-82138333D02*
X108585237Y-82138333D01*
X108585237Y-82138333D02*
X108680475Y-82185952D01*
X108680475Y-82185952D02*
X108728094Y-82233571D01*
X108728094Y-82233571D02*
X108775713Y-82328809D01*
X108782142Y-68212142D02*
X108829761Y-68164523D01*
X108829761Y-68164523D02*
X108877380Y-68021666D01*
X108877380Y-68021666D02*
X108877380Y-67926428D01*
X108877380Y-67926428D02*
X108829761Y-67783571D01*
X108829761Y-67783571D02*
X108734523Y-67688333D01*
X108734523Y-67688333D02*
X108639285Y-67640714D01*
X108639285Y-67640714D02*
X108448809Y-67593095D01*
X108448809Y-67593095D02*
X108305952Y-67593095D01*
X108305952Y-67593095D02*
X108115476Y-67640714D01*
X108115476Y-67640714D02*
X108020238Y-67688333D01*
X108020238Y-67688333D02*
X107925000Y-67783571D01*
X107925000Y-67783571D02*
X107877380Y-67926428D01*
X107877380Y-67926428D02*
X107877380Y-68021666D01*
X107877380Y-68021666D02*
X107925000Y-68164523D01*
X107925000Y-68164523D02*
X107972619Y-68212142D01*
X108877380Y-69164523D02*
X108877380Y-68593095D01*
X108877380Y-68878809D02*
X107877380Y-68878809D01*
X107877380Y-68878809D02*
X108020238Y-68783571D01*
X108020238Y-68783571D02*
X108115476Y-68688333D01*
X108115476Y-68688333D02*
X108163095Y-68593095D01*
X107877380Y-70021666D02*
X107877380Y-69831190D01*
X107877380Y-69831190D02*
X107925000Y-69735952D01*
X107925000Y-69735952D02*
X107972619Y-69688333D01*
X107972619Y-69688333D02*
X108115476Y-69593095D01*
X108115476Y-69593095D02*
X108305952Y-69545476D01*
X108305952Y-69545476D02*
X108686904Y-69545476D01*
X108686904Y-69545476D02*
X108782142Y-69593095D01*
X108782142Y-69593095D02*
X108829761Y-69640714D01*
X108829761Y-69640714D02*
X108877380Y-69735952D01*
X108877380Y-69735952D02*
X108877380Y-69926428D01*
X108877380Y-69926428D02*
X108829761Y-70021666D01*
X108829761Y-70021666D02*
X108782142Y-70069285D01*
X108782142Y-70069285D02*
X108686904Y-70116904D01*
X108686904Y-70116904D02*
X108448809Y-70116904D01*
X108448809Y-70116904D02*
X108353571Y-70069285D01*
X108353571Y-70069285D02*
X108305952Y-70021666D01*
X108305952Y-70021666D02*
X108258333Y-69926428D01*
X108258333Y-69926428D02*
X108258333Y-69735952D01*
X108258333Y-69735952D02*
X108305952Y-69640714D01*
X108305952Y-69640714D02*
X108353571Y-69593095D01*
X108353571Y-69593095D02*
X108448809Y-69545476D01*
X102014880Y-81495595D02*
X102824404Y-81495595D01*
X102824404Y-81495595D02*
X102919642Y-81543214D01*
X102919642Y-81543214D02*
X102967261Y-81590833D01*
X102967261Y-81590833D02*
X103014880Y-81686071D01*
X103014880Y-81686071D02*
X103014880Y-81876547D01*
X103014880Y-81876547D02*
X102967261Y-81971785D01*
X102967261Y-81971785D02*
X102919642Y-82019404D01*
X102919642Y-82019404D02*
X102824404Y-82067023D01*
X102824404Y-82067023D02*
X102014880Y-82067023D01*
X102014880Y-83019404D02*
X102014880Y-82543214D01*
X102014880Y-82543214D02*
X102491071Y-82495595D01*
X102491071Y-82495595D02*
X102443452Y-82543214D01*
X102443452Y-82543214D02*
X102395833Y-82638452D01*
X102395833Y-82638452D02*
X102395833Y-82876547D01*
X102395833Y-82876547D02*
X102443452Y-82971785D01*
X102443452Y-82971785D02*
X102491071Y-83019404D01*
X102491071Y-83019404D02*
X102586309Y-83067023D01*
X102586309Y-83067023D02*
X102824404Y-83067023D01*
X102824404Y-83067023D02*
X102919642Y-83019404D01*
X102919642Y-83019404D02*
X102967261Y-82971785D01*
X102967261Y-82971785D02*
X103014880Y-82876547D01*
X103014880Y-82876547D02*
X103014880Y-82638452D01*
X103014880Y-82638452D02*
X102967261Y-82543214D01*
X102967261Y-82543214D02*
X102919642Y-82495595D01*
X116497161Y-79495642D02*
X116544780Y-79448023D01*
X116544780Y-79448023D02*
X116592399Y-79305166D01*
X116592399Y-79305166D02*
X116592399Y-79209928D01*
X116592399Y-79209928D02*
X116544780Y-79067071D01*
X116544780Y-79067071D02*
X116449542Y-78971833D01*
X116449542Y-78971833D02*
X116354304Y-78924214D01*
X116354304Y-78924214D02*
X116163828Y-78876595D01*
X116163828Y-78876595D02*
X116020971Y-78876595D01*
X116020971Y-78876595D02*
X115830495Y-78924214D01*
X115830495Y-78924214D02*
X115735257Y-78971833D01*
X115735257Y-78971833D02*
X115640019Y-79067071D01*
X115640019Y-79067071D02*
X115592399Y-79209928D01*
X115592399Y-79209928D02*
X115592399Y-79305166D01*
X115592399Y-79305166D02*
X115640019Y-79448023D01*
X115640019Y-79448023D02*
X115687638Y-79495642D01*
X116592399Y-80448023D02*
X116592399Y-79876595D01*
X116592399Y-80162309D02*
X115592399Y-80162309D01*
X115592399Y-80162309D02*
X115735257Y-80067071D01*
X115735257Y-80067071D02*
X115830495Y-79971833D01*
X115830495Y-79971833D02*
X115878114Y-79876595D01*
X115592399Y-80781357D02*
X115592399Y-81448023D01*
X115592399Y-81448023D02*
X116592399Y-81019452D01*
X97488290Y-88712380D02*
X97821623Y-88236190D01*
X98059718Y-88712380D02*
X98059718Y-87712380D01*
X98059718Y-87712380D02*
X97678766Y-87712380D01*
X97678766Y-87712380D02*
X97583528Y-87760000D01*
X97583528Y-87760000D02*
X97535909Y-87807619D01*
X97535909Y-87807619D02*
X97488290Y-87902857D01*
X97488290Y-87902857D02*
X97488290Y-88045714D01*
X97488290Y-88045714D02*
X97535909Y-88140952D01*
X97535909Y-88140952D02*
X97583528Y-88188571D01*
X97583528Y-88188571D02*
X97678766Y-88236190D01*
X97678766Y-88236190D02*
X98059718Y-88236190D01*
X96631147Y-87712380D02*
X96821623Y-87712380D01*
X96821623Y-87712380D02*
X96916861Y-87760000D01*
X96916861Y-87760000D02*
X96964480Y-87807619D01*
X96964480Y-87807619D02*
X97059718Y-87950476D01*
X97059718Y-87950476D02*
X97107337Y-88140952D01*
X97107337Y-88140952D02*
X97107337Y-88521904D01*
X97107337Y-88521904D02*
X97059718Y-88617142D01*
X97059718Y-88617142D02*
X97012099Y-88664761D01*
X97012099Y-88664761D02*
X96916861Y-88712380D01*
X96916861Y-88712380D02*
X96726385Y-88712380D01*
X96726385Y-88712380D02*
X96631147Y-88664761D01*
X96631147Y-88664761D02*
X96583528Y-88617142D01*
X96583528Y-88617142D02*
X96535909Y-88521904D01*
X96535909Y-88521904D02*
X96535909Y-88283809D01*
X96535909Y-88283809D02*
X96583528Y-88188571D01*
X96583528Y-88188571D02*
X96631147Y-88140952D01*
X96631147Y-88140952D02*
X96726385Y-88093333D01*
X96726385Y-88093333D02*
X96916861Y-88093333D01*
X96916861Y-88093333D02*
X97012099Y-88140952D01*
X97012099Y-88140952D02*
X97059718Y-88188571D01*
X97059718Y-88188571D02*
X97107337Y-88283809D01*
X98499166Y-84439642D02*
X98546785Y-84487261D01*
X98546785Y-84487261D02*
X98689642Y-84534880D01*
X98689642Y-84534880D02*
X98784880Y-84534880D01*
X98784880Y-84534880D02*
X98927737Y-84487261D01*
X98927737Y-84487261D02*
X99022975Y-84392023D01*
X99022975Y-84392023D02*
X99070594Y-84296785D01*
X99070594Y-84296785D02*
X99118213Y-84106309D01*
X99118213Y-84106309D02*
X99118213Y-83963452D01*
X99118213Y-83963452D02*
X99070594Y-83772976D01*
X99070594Y-83772976D02*
X99022975Y-83677738D01*
X99022975Y-83677738D02*
X98927737Y-83582500D01*
X98927737Y-83582500D02*
X98784880Y-83534880D01*
X98784880Y-83534880D02*
X98689642Y-83534880D01*
X98689642Y-83534880D02*
X98546785Y-83582500D01*
X98546785Y-83582500D02*
X98499166Y-83630119D01*
X98165832Y-83534880D02*
X97546785Y-83534880D01*
X97546785Y-83534880D02*
X97880118Y-83915833D01*
X97880118Y-83915833D02*
X97737261Y-83915833D01*
X97737261Y-83915833D02*
X97642023Y-83963452D01*
X97642023Y-83963452D02*
X97594404Y-84011071D01*
X97594404Y-84011071D02*
X97546785Y-84106309D01*
X97546785Y-84106309D02*
X97546785Y-84344404D01*
X97546785Y-84344404D02*
X97594404Y-84439642D01*
X97594404Y-84439642D02*
X97642023Y-84487261D01*
X97642023Y-84487261D02*
X97737261Y-84534880D01*
X97737261Y-84534880D02*
X98022975Y-84534880D01*
X98022975Y-84534880D02*
X98118213Y-84487261D01*
X98118213Y-84487261D02*
X98165832Y-84439642D01*
X107262142Y-68232142D02*
X107309761Y-68184523D01*
X107309761Y-68184523D02*
X107357380Y-68041666D01*
X107357380Y-68041666D02*
X107357380Y-67946428D01*
X107357380Y-67946428D02*
X107309761Y-67803571D01*
X107309761Y-67803571D02*
X107214523Y-67708333D01*
X107214523Y-67708333D02*
X107119285Y-67660714D01*
X107119285Y-67660714D02*
X106928809Y-67613095D01*
X106928809Y-67613095D02*
X106785952Y-67613095D01*
X106785952Y-67613095D02*
X106595476Y-67660714D01*
X106595476Y-67660714D02*
X106500238Y-67708333D01*
X106500238Y-67708333D02*
X106405000Y-67803571D01*
X106405000Y-67803571D02*
X106357380Y-67946428D01*
X106357380Y-67946428D02*
X106357380Y-68041666D01*
X106357380Y-68041666D02*
X106405000Y-68184523D01*
X106405000Y-68184523D02*
X106452619Y-68232142D01*
X107357380Y-69184523D02*
X107357380Y-68613095D01*
X107357380Y-68898809D02*
X106357380Y-68898809D01*
X106357380Y-68898809D02*
X106500238Y-68803571D01*
X106500238Y-68803571D02*
X106595476Y-68708333D01*
X106595476Y-68708333D02*
X106643095Y-68613095D01*
X106357380Y-70089285D02*
X106357380Y-69613095D01*
X106357380Y-69613095D02*
X106833571Y-69565476D01*
X106833571Y-69565476D02*
X106785952Y-69613095D01*
X106785952Y-69613095D02*
X106738333Y-69708333D01*
X106738333Y-69708333D02*
X106738333Y-69946428D01*
X106738333Y-69946428D02*
X106785952Y-70041666D01*
X106785952Y-70041666D02*
X106833571Y-70089285D01*
X106833571Y-70089285D02*
X106928809Y-70136904D01*
X106928809Y-70136904D02*
X107166904Y-70136904D01*
X107166904Y-70136904D02*
X107262142Y-70089285D01*
X107262142Y-70089285D02*
X107309761Y-70041666D01*
X107309761Y-70041666D02*
X107357380Y-69946428D01*
X107357380Y-69946428D02*
X107357380Y-69708333D01*
X107357380Y-69708333D02*
X107309761Y-69613095D01*
X107309761Y-69613095D02*
X107262142Y-69565476D01*
X114892399Y-83071833D02*
X114416209Y-82738500D01*
X114892399Y-82500405D02*
X113892399Y-82500405D01*
X113892399Y-82500405D02*
X113892399Y-82881357D01*
X113892399Y-82881357D02*
X113940019Y-82976595D01*
X113940019Y-82976595D02*
X113987638Y-83024214D01*
X113987638Y-83024214D02*
X114082876Y-83071833D01*
X114082876Y-83071833D02*
X114225733Y-83071833D01*
X114225733Y-83071833D02*
X114320971Y-83024214D01*
X114320971Y-83024214D02*
X114368590Y-82976595D01*
X114368590Y-82976595D02*
X114416209Y-82881357D01*
X114416209Y-82881357D02*
X114416209Y-82500405D01*
X114320971Y-83643262D02*
X114273352Y-83548024D01*
X114273352Y-83548024D02*
X114225733Y-83500405D01*
X114225733Y-83500405D02*
X114130495Y-83452786D01*
X114130495Y-83452786D02*
X114082876Y-83452786D01*
X114082876Y-83452786D02*
X113987638Y-83500405D01*
X113987638Y-83500405D02*
X113940019Y-83548024D01*
X113940019Y-83548024D02*
X113892399Y-83643262D01*
X113892399Y-83643262D02*
X113892399Y-83833738D01*
X113892399Y-83833738D02*
X113940019Y-83928976D01*
X113940019Y-83928976D02*
X113987638Y-83976595D01*
X113987638Y-83976595D02*
X114082876Y-84024214D01*
X114082876Y-84024214D02*
X114130495Y-84024214D01*
X114130495Y-84024214D02*
X114225733Y-83976595D01*
X114225733Y-83976595D02*
X114273352Y-83928976D01*
X114273352Y-83928976D02*
X114320971Y-83833738D01*
X114320971Y-83833738D02*
X114320971Y-83643262D01*
X114320971Y-83643262D02*
X114368590Y-83548024D01*
X114368590Y-83548024D02*
X114416209Y-83500405D01*
X114416209Y-83500405D02*
X114511447Y-83452786D01*
X114511447Y-83452786D02*
X114701923Y-83452786D01*
X114701923Y-83452786D02*
X114797161Y-83500405D01*
X114797161Y-83500405D02*
X114844780Y-83548024D01*
X114844780Y-83548024D02*
X114892399Y-83643262D01*
X114892399Y-83643262D02*
X114892399Y-83833738D01*
X114892399Y-83833738D02*
X114844780Y-83928976D01*
X114844780Y-83928976D02*
X114797161Y-83976595D01*
X114797161Y-83976595D02*
X114701923Y-84024214D01*
X114701923Y-84024214D02*
X114511447Y-84024214D01*
X114511447Y-84024214D02*
X114416209Y-83976595D01*
X114416209Y-83976595D02*
X114368590Y-83928976D01*
X114368590Y-83928976D02*
X114320971Y-83833738D01*
X117732209Y-83303309D02*
X118208399Y-83303309D01*
X117208399Y-82969976D02*
X117732209Y-83303309D01*
X117732209Y-83303309D02*
X117208399Y-83636642D01*
X118208399Y-84493785D02*
X118208399Y-83922357D01*
X118208399Y-84208071D02*
X117208399Y-84208071D01*
X117208399Y-84208071D02*
X117351257Y-84112833D01*
X117351257Y-84112833D02*
X117446495Y-84017595D01*
X117446495Y-84017595D02*
X117494114Y-83922357D01*
X118383332Y-71169761D02*
X118240475Y-71217380D01*
X118240475Y-71217380D02*
X118002380Y-71217380D01*
X118002380Y-71217380D02*
X117907142Y-71169761D01*
X117907142Y-71169761D02*
X117859523Y-71122142D01*
X117859523Y-71122142D02*
X117811904Y-71026904D01*
X117811904Y-71026904D02*
X117811904Y-70931666D01*
X117811904Y-70931666D02*
X117859523Y-70836428D01*
X117859523Y-70836428D02*
X117907142Y-70788809D01*
X117907142Y-70788809D02*
X118002380Y-70741190D01*
X118002380Y-70741190D02*
X118192856Y-70693571D01*
X118192856Y-70693571D02*
X118288094Y-70645952D01*
X118288094Y-70645952D02*
X118335713Y-70598333D01*
X118335713Y-70598333D02*
X118383332Y-70503095D01*
X118383332Y-70503095D02*
X118383332Y-70407857D01*
X118383332Y-70407857D02*
X118335713Y-70312619D01*
X118335713Y-70312619D02*
X118288094Y-70265000D01*
X118288094Y-70265000D02*
X118192856Y-70217380D01*
X118192856Y-70217380D02*
X117954761Y-70217380D01*
X117954761Y-70217380D02*
X117811904Y-70265000D01*
X117478570Y-70217380D02*
X117240475Y-71217380D01*
X117240475Y-71217380D02*
X117049999Y-70503095D01*
X117049999Y-70503095D02*
X116859523Y-71217380D01*
X116859523Y-71217380D02*
X116621428Y-70217380D01*
X116335713Y-70217380D02*
X115716666Y-70217380D01*
X115716666Y-70217380D02*
X116049999Y-70598333D01*
X116049999Y-70598333D02*
X115907142Y-70598333D01*
X115907142Y-70598333D02*
X115811904Y-70645952D01*
X115811904Y-70645952D02*
X115764285Y-70693571D01*
X115764285Y-70693571D02*
X115716666Y-70788809D01*
X115716666Y-70788809D02*
X115716666Y-71026904D01*
X115716666Y-71026904D02*
X115764285Y-71122142D01*
X115764285Y-71122142D02*
X115811904Y-71169761D01*
X115811904Y-71169761D02*
X115907142Y-71217380D01*
X115907142Y-71217380D02*
X116192856Y-71217380D01*
X116192856Y-71217380D02*
X116288094Y-71169761D01*
X116288094Y-71169761D02*
X116335713Y-71122142D01*
X82412857Y-114513392D02*
X82460476Y-114561011D01*
X82460476Y-114561011D02*
X82603333Y-114608630D01*
X82603333Y-114608630D02*
X82698571Y-114608630D01*
X82698571Y-114608630D02*
X82841428Y-114561011D01*
X82841428Y-114561011D02*
X82936666Y-114465773D01*
X82936666Y-114465773D02*
X82984285Y-114370535D01*
X82984285Y-114370535D02*
X83031904Y-114180059D01*
X83031904Y-114180059D02*
X83031904Y-114037202D01*
X83031904Y-114037202D02*
X82984285Y-113846726D01*
X82984285Y-113846726D02*
X82936666Y-113751488D01*
X82936666Y-113751488D02*
X82841428Y-113656250D01*
X82841428Y-113656250D02*
X82698571Y-113608630D01*
X82698571Y-113608630D02*
X82603333Y-113608630D01*
X82603333Y-113608630D02*
X82460476Y-113656250D01*
X82460476Y-113656250D02*
X82412857Y-113703869D01*
X82031904Y-113703869D02*
X81984285Y-113656250D01*
X81984285Y-113656250D02*
X81889047Y-113608630D01*
X81889047Y-113608630D02*
X81650952Y-113608630D01*
X81650952Y-113608630D02*
X81555714Y-113656250D01*
X81555714Y-113656250D02*
X81508095Y-113703869D01*
X81508095Y-113703869D02*
X81460476Y-113799107D01*
X81460476Y-113799107D02*
X81460476Y-113894345D01*
X81460476Y-113894345D02*
X81508095Y-114037202D01*
X81508095Y-114037202D02*
X82079523Y-114608630D01*
X82079523Y-114608630D02*
X81460476Y-114608630D01*
X80603333Y-113608630D02*
X80793809Y-113608630D01*
X80793809Y-113608630D02*
X80889047Y-113656250D01*
X80889047Y-113656250D02*
X80936666Y-113703869D01*
X80936666Y-113703869D02*
X81031904Y-113846726D01*
X81031904Y-113846726D02*
X81079523Y-114037202D01*
X81079523Y-114037202D02*
X81079523Y-114418154D01*
X81079523Y-114418154D02*
X81031904Y-114513392D01*
X81031904Y-114513392D02*
X80984285Y-114561011D01*
X80984285Y-114561011D02*
X80889047Y-114608630D01*
X80889047Y-114608630D02*
X80698571Y-114608630D01*
X80698571Y-114608630D02*
X80603333Y-114561011D01*
X80603333Y-114561011D02*
X80555714Y-114513392D01*
X80555714Y-114513392D02*
X80508095Y-114418154D01*
X80508095Y-114418154D02*
X80508095Y-114180059D01*
X80508095Y-114180059D02*
X80555714Y-114084821D01*
X80555714Y-114084821D02*
X80603333Y-114037202D01*
X80603333Y-114037202D02*
X80698571Y-113989583D01*
X80698571Y-113989583D02*
X80889047Y-113989583D01*
X80889047Y-113989583D02*
X80984285Y-114037202D01*
X80984285Y-114037202D02*
X81031904Y-114084821D01*
X81031904Y-114084821D02*
X81079523Y-114180059D01*
X99034166Y-93678380D02*
X99367499Y-93202190D01*
X99605594Y-93678380D02*
X99605594Y-92678380D01*
X99605594Y-92678380D02*
X99224642Y-92678380D01*
X99224642Y-92678380D02*
X99129404Y-92726000D01*
X99129404Y-92726000D02*
X99081785Y-92773619D01*
X99081785Y-92773619D02*
X99034166Y-92868857D01*
X99034166Y-92868857D02*
X99034166Y-93011714D01*
X99034166Y-93011714D02*
X99081785Y-93106952D01*
X99081785Y-93106952D02*
X99129404Y-93154571D01*
X99129404Y-93154571D02*
X99224642Y-93202190D01*
X99224642Y-93202190D02*
X99605594Y-93202190D01*
X98177023Y-93011714D02*
X98177023Y-93678380D01*
X98415118Y-92630761D02*
X98653213Y-93345047D01*
X98653213Y-93345047D02*
X98034166Y-93345047D01*
X122047618Y-97919761D02*
X121904761Y-97967380D01*
X121904761Y-97967380D02*
X121666666Y-97967380D01*
X121666666Y-97967380D02*
X121571428Y-97919761D01*
X121571428Y-97919761D02*
X121523809Y-97872142D01*
X121523809Y-97872142D02*
X121476190Y-97776904D01*
X121476190Y-97776904D02*
X121476190Y-97681666D01*
X121476190Y-97681666D02*
X121523809Y-97586428D01*
X121523809Y-97586428D02*
X121571428Y-97538809D01*
X121571428Y-97538809D02*
X121666666Y-97491190D01*
X121666666Y-97491190D02*
X121857142Y-97443571D01*
X121857142Y-97443571D02*
X121952380Y-97395952D01*
X121952380Y-97395952D02*
X121999999Y-97348333D01*
X121999999Y-97348333D02*
X122047618Y-97253095D01*
X122047618Y-97253095D02*
X122047618Y-97157857D01*
X122047618Y-97157857D02*
X121999999Y-97062619D01*
X121999999Y-97062619D02*
X121952380Y-97015000D01*
X121952380Y-97015000D02*
X121857142Y-96967380D01*
X121857142Y-96967380D02*
X121619047Y-96967380D01*
X121619047Y-96967380D02*
X121476190Y-97015000D01*
X121095237Y-97919761D02*
X120952380Y-97967380D01*
X120952380Y-97967380D02*
X120714285Y-97967380D01*
X120714285Y-97967380D02*
X120619047Y-97919761D01*
X120619047Y-97919761D02*
X120571428Y-97872142D01*
X120571428Y-97872142D02*
X120523809Y-97776904D01*
X120523809Y-97776904D02*
X120523809Y-97681666D01*
X120523809Y-97681666D02*
X120571428Y-97586428D01*
X120571428Y-97586428D02*
X120619047Y-97538809D01*
X120619047Y-97538809D02*
X120714285Y-97491190D01*
X120714285Y-97491190D02*
X120904761Y-97443571D01*
X120904761Y-97443571D02*
X120999999Y-97395952D01*
X120999999Y-97395952D02*
X121047618Y-97348333D01*
X121047618Y-97348333D02*
X121095237Y-97253095D01*
X121095237Y-97253095D02*
X121095237Y-97157857D01*
X121095237Y-97157857D02*
X121047618Y-97062619D01*
X121047618Y-97062619D02*
X120999999Y-97015000D01*
X120999999Y-97015000D02*
X120904761Y-96967380D01*
X120904761Y-96967380D02*
X120666666Y-96967380D01*
X120666666Y-96967380D02*
X120523809Y-97015000D01*
X120190475Y-96967380D02*
X119571428Y-96967380D01*
X119571428Y-96967380D02*
X119904761Y-97348333D01*
X119904761Y-97348333D02*
X119761904Y-97348333D01*
X119761904Y-97348333D02*
X119666666Y-97395952D01*
X119666666Y-97395952D02*
X119619047Y-97443571D01*
X119619047Y-97443571D02*
X119571428Y-97538809D01*
X119571428Y-97538809D02*
X119571428Y-97776904D01*
X119571428Y-97776904D02*
X119619047Y-97872142D01*
X119619047Y-97872142D02*
X119666666Y-97919761D01*
X119666666Y-97919761D02*
X119761904Y-97967380D01*
X119761904Y-97967380D02*
X120047618Y-97967380D01*
X120047618Y-97967380D02*
X120142856Y-97919761D01*
X120142856Y-97919761D02*
X120190475Y-97872142D01*
X119095237Y-97967380D02*
X118904761Y-97967380D01*
X118904761Y-97967380D02*
X118809523Y-97919761D01*
X118809523Y-97919761D02*
X118761904Y-97872142D01*
X118761904Y-97872142D02*
X118666666Y-97729285D01*
X118666666Y-97729285D02*
X118619047Y-97538809D01*
X118619047Y-97538809D02*
X118619047Y-97157857D01*
X118619047Y-97157857D02*
X118666666Y-97062619D01*
X118666666Y-97062619D02*
X118714285Y-97015000D01*
X118714285Y-97015000D02*
X118809523Y-96967380D01*
X118809523Y-96967380D02*
X118999999Y-96967380D01*
X118999999Y-96967380D02*
X119095237Y-97015000D01*
X119095237Y-97015000D02*
X119142856Y-97062619D01*
X119142856Y-97062619D02*
X119190475Y-97157857D01*
X119190475Y-97157857D02*
X119190475Y-97395952D01*
X119190475Y-97395952D02*
X119142856Y-97491190D01*
X119142856Y-97491190D02*
X119095237Y-97538809D01*
X119095237Y-97538809D02*
X118999999Y-97586428D01*
X118999999Y-97586428D02*
X118809523Y-97586428D01*
X118809523Y-97586428D02*
X118714285Y-97538809D01*
X118714285Y-97538809D02*
X118666666Y-97491190D01*
X118666666Y-97491190D02*
X118619047Y-97395952D01*
X118190475Y-97443571D02*
X117857142Y-97443571D01*
X117714285Y-97967380D02*
X118190475Y-97967380D01*
X118190475Y-97967380D02*
X118190475Y-96967380D01*
X118190475Y-96967380D02*
X117714285Y-96967380D01*
X117428570Y-96967380D02*
X116857142Y-96967380D01*
X117142856Y-97967380D02*
X117142856Y-96967380D01*
X99231905Y-65642619D02*
X99231905Y-66642619D01*
X99231905Y-66642619D02*
X99612857Y-66642619D01*
X99612857Y-66642619D02*
X99708095Y-66595000D01*
X99708095Y-66595000D02*
X99755714Y-66547380D01*
X99755714Y-66547380D02*
X99803333Y-66452142D01*
X99803333Y-66452142D02*
X99803333Y-66309285D01*
X99803333Y-66309285D02*
X99755714Y-66214047D01*
X99755714Y-66214047D02*
X99708095Y-66166428D01*
X99708095Y-66166428D02*
X99612857Y-66118809D01*
X99612857Y-66118809D02*
X99231905Y-66118809D01*
X100755714Y-65642619D02*
X100184286Y-65642619D01*
X100470000Y-65642619D02*
X100470000Y-66642619D01*
X100470000Y-66642619D02*
X100374762Y-66499761D01*
X100374762Y-66499761D02*
X100279524Y-66404523D01*
X100279524Y-66404523D02*
X100184286Y-66356904D01*
X91504166Y-93338380D02*
X91837499Y-92862190D01*
X92075594Y-93338380D02*
X92075594Y-92338380D01*
X92075594Y-92338380D02*
X91694642Y-92338380D01*
X91694642Y-92338380D02*
X91599404Y-92386000D01*
X91599404Y-92386000D02*
X91551785Y-92433619D01*
X91551785Y-92433619D02*
X91504166Y-92528857D01*
X91504166Y-92528857D02*
X91504166Y-92671714D01*
X91504166Y-92671714D02*
X91551785Y-92766952D01*
X91551785Y-92766952D02*
X91599404Y-92814571D01*
X91599404Y-92814571D02*
X91694642Y-92862190D01*
X91694642Y-92862190D02*
X92075594Y-92862190D01*
X90551785Y-93338380D02*
X91123213Y-93338380D01*
X90837499Y-93338380D02*
X90837499Y-92338380D01*
X90837499Y-92338380D02*
X90932737Y-92481238D01*
X90932737Y-92481238D02*
X91027975Y-92576476D01*
X91027975Y-92576476D02*
X91123213Y-92624095D01*
X103295358Y-126199641D02*
X103342977Y-126247260D01*
X103342977Y-126247260D02*
X103485834Y-126294879D01*
X103485834Y-126294879D02*
X103581072Y-126294879D01*
X103581072Y-126294879D02*
X103723929Y-126247260D01*
X103723929Y-126247260D02*
X103819167Y-126152022D01*
X103819167Y-126152022D02*
X103866786Y-126056784D01*
X103866786Y-126056784D02*
X103914405Y-125866308D01*
X103914405Y-125866308D02*
X103914405Y-125723451D01*
X103914405Y-125723451D02*
X103866786Y-125532975D01*
X103866786Y-125532975D02*
X103819167Y-125437737D01*
X103819167Y-125437737D02*
X103723929Y-125342499D01*
X103723929Y-125342499D02*
X103581072Y-125294879D01*
X103581072Y-125294879D02*
X103485834Y-125294879D01*
X103485834Y-125294879D02*
X103342977Y-125342499D01*
X103342977Y-125342499D02*
X103295358Y-125390118D01*
X102914405Y-125390118D02*
X102866786Y-125342499D01*
X102866786Y-125342499D02*
X102771548Y-125294879D01*
X102771548Y-125294879D02*
X102533453Y-125294879D01*
X102533453Y-125294879D02*
X102438215Y-125342499D01*
X102438215Y-125342499D02*
X102390596Y-125390118D01*
X102390596Y-125390118D02*
X102342977Y-125485356D01*
X102342977Y-125485356D02*
X102342977Y-125580594D01*
X102342977Y-125580594D02*
X102390596Y-125723451D01*
X102390596Y-125723451D02*
X102962024Y-126294879D01*
X102962024Y-126294879D02*
X102342977Y-126294879D01*
X101485834Y-125628213D02*
X101485834Y-126294879D01*
X101723929Y-125247260D02*
X101962024Y-125961546D01*
X101962024Y-125961546D02*
X101342977Y-125961546D01*
X98093333Y-79352166D02*
X98093333Y-79918833D01*
X98093333Y-79918833D02*
X98060000Y-79985500D01*
X98060000Y-79985500D02*
X98026666Y-80018833D01*
X98026666Y-80018833D02*
X97960000Y-80052166D01*
X97960000Y-80052166D02*
X97826666Y-80052166D01*
X97826666Y-80052166D02*
X97760000Y-80018833D01*
X97760000Y-80018833D02*
X97726666Y-79985500D01*
X97726666Y-79985500D02*
X97693333Y-79918833D01*
X97693333Y-79918833D02*
X97693333Y-79352166D01*
X97426667Y-79352166D02*
X96993333Y-79352166D01*
X96993333Y-79352166D02*
X97226667Y-79618833D01*
X97226667Y-79618833D02*
X97126667Y-79618833D01*
X97126667Y-79618833D02*
X97060000Y-79652166D01*
X97060000Y-79652166D02*
X97026667Y-79685500D01*
X97026667Y-79685500D02*
X96993333Y-79752166D01*
X96993333Y-79752166D02*
X96993333Y-79918833D01*
X96993333Y-79918833D02*
X97026667Y-79985500D01*
X97026667Y-79985500D02*
X97060000Y-80018833D01*
X97060000Y-80018833D02*
X97126667Y-80052166D01*
X97126667Y-80052166D02*
X97326667Y-80052166D01*
X97326667Y-80052166D02*
X97393333Y-80018833D01*
X97393333Y-80018833D02*
X97426667Y-79985500D01*
X98393333Y-75585500D02*
X98160000Y-75585500D01*
X98060000Y-75952166D02*
X98393333Y-75952166D01*
X98393333Y-75952166D02*
X98393333Y-75252166D01*
X98393333Y-75252166D02*
X98060000Y-75252166D01*
X97793333Y-75918833D02*
X97693333Y-75952166D01*
X97693333Y-75952166D02*
X97526667Y-75952166D01*
X97526667Y-75952166D02*
X97460000Y-75918833D01*
X97460000Y-75918833D02*
X97426667Y-75885500D01*
X97426667Y-75885500D02*
X97393333Y-75818833D01*
X97393333Y-75818833D02*
X97393333Y-75752166D01*
X97393333Y-75752166D02*
X97426667Y-75685500D01*
X97426667Y-75685500D02*
X97460000Y-75652166D01*
X97460000Y-75652166D02*
X97526667Y-75618833D01*
X97526667Y-75618833D02*
X97660000Y-75585500D01*
X97660000Y-75585500D02*
X97726667Y-75552166D01*
X97726667Y-75552166D02*
X97760000Y-75518833D01*
X97760000Y-75518833D02*
X97793333Y-75452166D01*
X97793333Y-75452166D02*
X97793333Y-75385500D01*
X97793333Y-75385500D02*
X97760000Y-75318833D01*
X97760000Y-75318833D02*
X97726667Y-75285500D01*
X97726667Y-75285500D02*
X97660000Y-75252166D01*
X97660000Y-75252166D02*
X97493333Y-75252166D01*
X97493333Y-75252166D02*
X97393333Y-75285500D01*
X97093333Y-75952166D02*
X97093333Y-75252166D01*
X97093333Y-75252166D02*
X96926666Y-75252166D01*
X96926666Y-75252166D02*
X96826666Y-75285500D01*
X96826666Y-75285500D02*
X96760000Y-75352166D01*
X96760000Y-75352166D02*
X96726666Y-75418833D01*
X96726666Y-75418833D02*
X96693333Y-75552166D01*
X96693333Y-75552166D02*
X96693333Y-75652166D01*
X96693333Y-75652166D02*
X96726666Y-75785500D01*
X96726666Y-75785500D02*
X96760000Y-75852166D01*
X96760000Y-75852166D02*
X96826666Y-75918833D01*
X96826666Y-75918833D02*
X96926666Y-75952166D01*
X96926666Y-75952166D02*
X97093333Y-75952166D01*
X102719761Y-97452381D02*
X102767380Y-97595238D01*
X102767380Y-97595238D02*
X102767380Y-97833333D01*
X102767380Y-97833333D02*
X102719761Y-97928571D01*
X102719761Y-97928571D02*
X102672142Y-97976190D01*
X102672142Y-97976190D02*
X102576904Y-98023809D01*
X102576904Y-98023809D02*
X102481666Y-98023809D01*
X102481666Y-98023809D02*
X102386428Y-97976190D01*
X102386428Y-97976190D02*
X102338809Y-97928571D01*
X102338809Y-97928571D02*
X102291190Y-97833333D01*
X102291190Y-97833333D02*
X102243571Y-97642857D01*
X102243571Y-97642857D02*
X102195952Y-97547619D01*
X102195952Y-97547619D02*
X102148333Y-97500000D01*
X102148333Y-97500000D02*
X102053095Y-97452381D01*
X102053095Y-97452381D02*
X101957857Y-97452381D01*
X101957857Y-97452381D02*
X101862619Y-97500000D01*
X101862619Y-97500000D02*
X101815000Y-97547619D01*
X101815000Y-97547619D02*
X101767380Y-97642857D01*
X101767380Y-97642857D02*
X101767380Y-97880952D01*
X101767380Y-97880952D02*
X101815000Y-98023809D01*
X102719761Y-98404762D02*
X102767380Y-98547619D01*
X102767380Y-98547619D02*
X102767380Y-98785714D01*
X102767380Y-98785714D02*
X102719761Y-98880952D01*
X102719761Y-98880952D02*
X102672142Y-98928571D01*
X102672142Y-98928571D02*
X102576904Y-98976190D01*
X102576904Y-98976190D02*
X102481666Y-98976190D01*
X102481666Y-98976190D02*
X102386428Y-98928571D01*
X102386428Y-98928571D02*
X102338809Y-98880952D01*
X102338809Y-98880952D02*
X102291190Y-98785714D01*
X102291190Y-98785714D02*
X102243571Y-98595238D01*
X102243571Y-98595238D02*
X102195952Y-98500000D01*
X102195952Y-98500000D02*
X102148333Y-98452381D01*
X102148333Y-98452381D02*
X102053095Y-98404762D01*
X102053095Y-98404762D02*
X101957857Y-98404762D01*
X101957857Y-98404762D02*
X101862619Y-98452381D01*
X101862619Y-98452381D02*
X101815000Y-98500000D01*
X101815000Y-98500000D02*
X101767380Y-98595238D01*
X101767380Y-98595238D02*
X101767380Y-98833333D01*
X101767380Y-98833333D02*
X101815000Y-98976190D01*
X101767380Y-99309524D02*
X101767380Y-99928571D01*
X101767380Y-99928571D02*
X102148333Y-99595238D01*
X102148333Y-99595238D02*
X102148333Y-99738095D01*
X102148333Y-99738095D02*
X102195952Y-99833333D01*
X102195952Y-99833333D02*
X102243571Y-99880952D01*
X102243571Y-99880952D02*
X102338809Y-99928571D01*
X102338809Y-99928571D02*
X102576904Y-99928571D01*
X102576904Y-99928571D02*
X102672142Y-99880952D01*
X102672142Y-99880952D02*
X102719761Y-99833333D01*
X102719761Y-99833333D02*
X102767380Y-99738095D01*
X102767380Y-99738095D02*
X102767380Y-99452381D01*
X102767380Y-99452381D02*
X102719761Y-99357143D01*
X102719761Y-99357143D02*
X102672142Y-99309524D01*
X102767380Y-100404762D02*
X102767380Y-100595238D01*
X102767380Y-100595238D02*
X102719761Y-100690476D01*
X102719761Y-100690476D02*
X102672142Y-100738095D01*
X102672142Y-100738095D02*
X102529285Y-100833333D01*
X102529285Y-100833333D02*
X102338809Y-100880952D01*
X102338809Y-100880952D02*
X101957857Y-100880952D01*
X101957857Y-100880952D02*
X101862619Y-100833333D01*
X101862619Y-100833333D02*
X101815000Y-100785714D01*
X101815000Y-100785714D02*
X101767380Y-100690476D01*
X101767380Y-100690476D02*
X101767380Y-100500000D01*
X101767380Y-100500000D02*
X101815000Y-100404762D01*
X101815000Y-100404762D02*
X101862619Y-100357143D01*
X101862619Y-100357143D02*
X101957857Y-100309524D01*
X101957857Y-100309524D02*
X102195952Y-100309524D01*
X102195952Y-100309524D02*
X102291190Y-100357143D01*
X102291190Y-100357143D02*
X102338809Y-100404762D01*
X102338809Y-100404762D02*
X102386428Y-100500000D01*
X102386428Y-100500000D02*
X102386428Y-100690476D01*
X102386428Y-100690476D02*
X102338809Y-100785714D01*
X102338809Y-100785714D02*
X102291190Y-100833333D01*
X102291190Y-100833333D02*
X102195952Y-100880952D01*
X102243571Y-101309524D02*
X102243571Y-101642857D01*
X102767380Y-101785714D02*
X102767380Y-101309524D01*
X102767380Y-101309524D02*
X101767380Y-101309524D01*
X101767380Y-101309524D02*
X101767380Y-101785714D01*
X101767380Y-102071429D02*
X101767380Y-102642857D01*
X102767380Y-102357143D02*
X101767380Y-102357143D01*
X83219761Y-97452381D02*
X83267380Y-97595238D01*
X83267380Y-97595238D02*
X83267380Y-97833333D01*
X83267380Y-97833333D02*
X83219761Y-97928571D01*
X83219761Y-97928571D02*
X83172142Y-97976190D01*
X83172142Y-97976190D02*
X83076904Y-98023809D01*
X83076904Y-98023809D02*
X82981666Y-98023809D01*
X82981666Y-98023809D02*
X82886428Y-97976190D01*
X82886428Y-97976190D02*
X82838809Y-97928571D01*
X82838809Y-97928571D02*
X82791190Y-97833333D01*
X82791190Y-97833333D02*
X82743571Y-97642857D01*
X82743571Y-97642857D02*
X82695952Y-97547619D01*
X82695952Y-97547619D02*
X82648333Y-97500000D01*
X82648333Y-97500000D02*
X82553095Y-97452381D01*
X82553095Y-97452381D02*
X82457857Y-97452381D01*
X82457857Y-97452381D02*
X82362619Y-97500000D01*
X82362619Y-97500000D02*
X82315000Y-97547619D01*
X82315000Y-97547619D02*
X82267380Y-97642857D01*
X82267380Y-97642857D02*
X82267380Y-97880952D01*
X82267380Y-97880952D02*
X82315000Y-98023809D01*
X83219761Y-98404762D02*
X83267380Y-98547619D01*
X83267380Y-98547619D02*
X83267380Y-98785714D01*
X83267380Y-98785714D02*
X83219761Y-98880952D01*
X83219761Y-98880952D02*
X83172142Y-98928571D01*
X83172142Y-98928571D02*
X83076904Y-98976190D01*
X83076904Y-98976190D02*
X82981666Y-98976190D01*
X82981666Y-98976190D02*
X82886428Y-98928571D01*
X82886428Y-98928571D02*
X82838809Y-98880952D01*
X82838809Y-98880952D02*
X82791190Y-98785714D01*
X82791190Y-98785714D02*
X82743571Y-98595238D01*
X82743571Y-98595238D02*
X82695952Y-98500000D01*
X82695952Y-98500000D02*
X82648333Y-98452381D01*
X82648333Y-98452381D02*
X82553095Y-98404762D01*
X82553095Y-98404762D02*
X82457857Y-98404762D01*
X82457857Y-98404762D02*
X82362619Y-98452381D01*
X82362619Y-98452381D02*
X82315000Y-98500000D01*
X82315000Y-98500000D02*
X82267380Y-98595238D01*
X82267380Y-98595238D02*
X82267380Y-98833333D01*
X82267380Y-98833333D02*
X82315000Y-98976190D01*
X82267380Y-99309524D02*
X82267380Y-99928571D01*
X82267380Y-99928571D02*
X82648333Y-99595238D01*
X82648333Y-99595238D02*
X82648333Y-99738095D01*
X82648333Y-99738095D02*
X82695952Y-99833333D01*
X82695952Y-99833333D02*
X82743571Y-99880952D01*
X82743571Y-99880952D02*
X82838809Y-99928571D01*
X82838809Y-99928571D02*
X83076904Y-99928571D01*
X83076904Y-99928571D02*
X83172142Y-99880952D01*
X83172142Y-99880952D02*
X83219761Y-99833333D01*
X83219761Y-99833333D02*
X83267380Y-99738095D01*
X83267380Y-99738095D02*
X83267380Y-99452381D01*
X83267380Y-99452381D02*
X83219761Y-99357143D01*
X83219761Y-99357143D02*
X83172142Y-99309524D01*
X83267380Y-100404762D02*
X83267380Y-100595238D01*
X83267380Y-100595238D02*
X83219761Y-100690476D01*
X83219761Y-100690476D02*
X83172142Y-100738095D01*
X83172142Y-100738095D02*
X83029285Y-100833333D01*
X83029285Y-100833333D02*
X82838809Y-100880952D01*
X82838809Y-100880952D02*
X82457857Y-100880952D01*
X82457857Y-100880952D02*
X82362619Y-100833333D01*
X82362619Y-100833333D02*
X82315000Y-100785714D01*
X82315000Y-100785714D02*
X82267380Y-100690476D01*
X82267380Y-100690476D02*
X82267380Y-100500000D01*
X82267380Y-100500000D02*
X82315000Y-100404762D01*
X82315000Y-100404762D02*
X82362619Y-100357143D01*
X82362619Y-100357143D02*
X82457857Y-100309524D01*
X82457857Y-100309524D02*
X82695952Y-100309524D01*
X82695952Y-100309524D02*
X82791190Y-100357143D01*
X82791190Y-100357143D02*
X82838809Y-100404762D01*
X82838809Y-100404762D02*
X82886428Y-100500000D01*
X82886428Y-100500000D02*
X82886428Y-100690476D01*
X82886428Y-100690476D02*
X82838809Y-100785714D01*
X82838809Y-100785714D02*
X82791190Y-100833333D01*
X82791190Y-100833333D02*
X82695952Y-100880952D01*
X82743571Y-101309524D02*
X82743571Y-101642857D01*
X83267380Y-101785714D02*
X83267380Y-101309524D01*
X83267380Y-101309524D02*
X82267380Y-101309524D01*
X82267380Y-101309524D02*
X82267380Y-101785714D01*
X82267380Y-102071429D02*
X82267380Y-102642857D01*
X83267380Y-102357143D02*
X82267380Y-102357143D01*
X100835595Y-126524879D02*
X100835595Y-125524879D01*
X100835595Y-125524879D02*
X100597500Y-125524879D01*
X100597500Y-125524879D02*
X100454643Y-125572499D01*
X100454643Y-125572499D02*
X100359405Y-125667737D01*
X100359405Y-125667737D02*
X100311786Y-125762975D01*
X100311786Y-125762975D02*
X100264167Y-125953451D01*
X100264167Y-125953451D02*
X100264167Y-126096308D01*
X100264167Y-126096308D02*
X100311786Y-126286784D01*
X100311786Y-126286784D02*
X100359405Y-126382022D01*
X100359405Y-126382022D02*
X100454643Y-126477260D01*
X100454643Y-126477260D02*
X100597500Y-126524879D01*
X100597500Y-126524879D02*
X100835595Y-126524879D01*
X99930833Y-125524879D02*
X99311786Y-125524879D01*
X99311786Y-125524879D02*
X99645119Y-125905832D01*
X99645119Y-125905832D02*
X99502262Y-125905832D01*
X99502262Y-125905832D02*
X99407024Y-125953451D01*
X99407024Y-125953451D02*
X99359405Y-126001070D01*
X99359405Y-126001070D02*
X99311786Y-126096308D01*
X99311786Y-126096308D02*
X99311786Y-126334403D01*
X99311786Y-126334403D02*
X99359405Y-126429641D01*
X99359405Y-126429641D02*
X99407024Y-126477260D01*
X99407024Y-126477260D02*
X99502262Y-126524879D01*
X99502262Y-126524879D02*
X99787976Y-126524879D01*
X99787976Y-126524879D02*
X99883214Y-126477260D01*
X99883214Y-126477260D02*
X99930833Y-126429641D01*
X79933094Y-114908630D02*
X79933094Y-113908630D01*
X79933094Y-113908630D02*
X79694999Y-113908630D01*
X79694999Y-113908630D02*
X79552142Y-113956250D01*
X79552142Y-113956250D02*
X79456904Y-114051488D01*
X79456904Y-114051488D02*
X79409285Y-114146726D01*
X79409285Y-114146726D02*
X79361666Y-114337202D01*
X79361666Y-114337202D02*
X79361666Y-114480059D01*
X79361666Y-114480059D02*
X79409285Y-114670535D01*
X79409285Y-114670535D02*
X79456904Y-114765773D01*
X79456904Y-114765773D02*
X79552142Y-114861011D01*
X79552142Y-114861011D02*
X79694999Y-114908630D01*
X79694999Y-114908630D02*
X79933094Y-114908630D01*
X78456904Y-113908630D02*
X78933094Y-113908630D01*
X78933094Y-113908630D02*
X78980713Y-114384821D01*
X78980713Y-114384821D02*
X78933094Y-114337202D01*
X78933094Y-114337202D02*
X78837856Y-114289583D01*
X78837856Y-114289583D02*
X78599761Y-114289583D01*
X78599761Y-114289583D02*
X78504523Y-114337202D01*
X78504523Y-114337202D02*
X78456904Y-114384821D01*
X78456904Y-114384821D02*
X78409285Y-114480059D01*
X78409285Y-114480059D02*
X78409285Y-114718154D01*
X78409285Y-114718154D02*
X78456904Y-114813392D01*
X78456904Y-114813392D02*
X78504523Y-114861011D01*
X78504523Y-114861011D02*
X78599761Y-114908630D01*
X78599761Y-114908630D02*
X78837856Y-114908630D01*
X78837856Y-114908630D02*
X78933094Y-114861011D01*
X78933094Y-114861011D02*
X78980713Y-114813392D01*
X126695238Y-94142619D02*
X126790476Y-94095000D01*
X126790476Y-94095000D02*
X126885714Y-93999761D01*
X126885714Y-93999761D02*
X127028571Y-93856904D01*
X127028571Y-93856904D02*
X127123809Y-93809285D01*
X127123809Y-93809285D02*
X127219047Y-93809285D01*
X127171428Y-94047380D02*
X127266666Y-93999761D01*
X127266666Y-93999761D02*
X127361904Y-93904523D01*
X127361904Y-93904523D02*
X127409523Y-93714047D01*
X127409523Y-93714047D02*
X127409523Y-93380714D01*
X127409523Y-93380714D02*
X127361904Y-93190238D01*
X127361904Y-93190238D02*
X127266666Y-93095000D01*
X127266666Y-93095000D02*
X127171428Y-93047380D01*
X127171428Y-93047380D02*
X126980952Y-93047380D01*
X126980952Y-93047380D02*
X126885714Y-93095000D01*
X126885714Y-93095000D02*
X126790476Y-93190238D01*
X126790476Y-93190238D02*
X126742857Y-93380714D01*
X126742857Y-93380714D02*
X126742857Y-93714047D01*
X126742857Y-93714047D02*
X126790476Y-93904523D01*
X126790476Y-93904523D02*
X126885714Y-93999761D01*
X126885714Y-93999761D02*
X126980952Y-94047380D01*
X126980952Y-94047380D02*
X127171428Y-94047380D01*
X125790476Y-94047380D02*
X126361904Y-94047380D01*
X126076190Y-94047380D02*
X126076190Y-93047380D01*
X126076190Y-93047380D02*
X126171428Y-93190238D01*
X126171428Y-93190238D02*
X126266666Y-93285476D01*
X126266666Y-93285476D02*
X126361904Y-93333095D01*
X124487857Y-114802142D02*
X124535476Y-114849761D01*
X124535476Y-114849761D02*
X124678333Y-114897380D01*
X124678333Y-114897380D02*
X124773571Y-114897380D01*
X124773571Y-114897380D02*
X124916428Y-114849761D01*
X124916428Y-114849761D02*
X125011666Y-114754523D01*
X125011666Y-114754523D02*
X125059285Y-114659285D01*
X125059285Y-114659285D02*
X125106904Y-114468809D01*
X125106904Y-114468809D02*
X125106904Y-114325952D01*
X125106904Y-114325952D02*
X125059285Y-114135476D01*
X125059285Y-114135476D02*
X125011666Y-114040238D01*
X125011666Y-114040238D02*
X124916428Y-113945000D01*
X124916428Y-113945000D02*
X124773571Y-113897380D01*
X124773571Y-113897380D02*
X124678333Y-113897380D01*
X124678333Y-113897380D02*
X124535476Y-113945000D01*
X124535476Y-113945000D02*
X124487857Y-113992619D01*
X124106904Y-113992619D02*
X124059285Y-113945000D01*
X124059285Y-113945000D02*
X123964047Y-113897380D01*
X123964047Y-113897380D02*
X123725952Y-113897380D01*
X123725952Y-113897380D02*
X123630714Y-113945000D01*
X123630714Y-113945000D02*
X123583095Y-113992619D01*
X123583095Y-113992619D02*
X123535476Y-114087857D01*
X123535476Y-114087857D02*
X123535476Y-114183095D01*
X123535476Y-114183095D02*
X123583095Y-114325952D01*
X123583095Y-114325952D02*
X124154523Y-114897380D01*
X124154523Y-114897380D02*
X123535476Y-114897380D01*
X123154523Y-113992619D02*
X123106904Y-113945000D01*
X123106904Y-113945000D02*
X123011666Y-113897380D01*
X123011666Y-113897380D02*
X122773571Y-113897380D01*
X122773571Y-113897380D02*
X122678333Y-113945000D01*
X122678333Y-113945000D02*
X122630714Y-113992619D01*
X122630714Y-113992619D02*
X122583095Y-114087857D01*
X122583095Y-114087857D02*
X122583095Y-114183095D01*
X122583095Y-114183095D02*
X122630714Y-114325952D01*
X122630714Y-114325952D02*
X123202142Y-114897380D01*
X123202142Y-114897380D02*
X122583095Y-114897380D01*
X86378094Y-85227380D02*
X86378094Y-84227380D01*
X86378094Y-84227380D02*
X86139999Y-84227380D01*
X86139999Y-84227380D02*
X85997142Y-84275000D01*
X85997142Y-84275000D02*
X85901904Y-84370238D01*
X85901904Y-84370238D02*
X85854285Y-84465476D01*
X85854285Y-84465476D02*
X85806666Y-84655952D01*
X85806666Y-84655952D02*
X85806666Y-84798809D01*
X85806666Y-84798809D02*
X85854285Y-84989285D01*
X85854285Y-84989285D02*
X85901904Y-85084523D01*
X85901904Y-85084523D02*
X85997142Y-85179761D01*
X85997142Y-85179761D02*
X86139999Y-85227380D01*
X86139999Y-85227380D02*
X86378094Y-85227380D01*
X85473332Y-84227380D02*
X84806666Y-84227380D01*
X84806666Y-84227380D02*
X85235237Y-85227380D01*
X83687857Y-85382142D02*
X83735476Y-85429761D01*
X83735476Y-85429761D02*
X83878333Y-85477380D01*
X83878333Y-85477380D02*
X83973571Y-85477380D01*
X83973571Y-85477380D02*
X84116428Y-85429761D01*
X84116428Y-85429761D02*
X84211666Y-85334523D01*
X84211666Y-85334523D02*
X84259285Y-85239285D01*
X84259285Y-85239285D02*
X84306904Y-85048809D01*
X84306904Y-85048809D02*
X84306904Y-84905952D01*
X84306904Y-84905952D02*
X84259285Y-84715476D01*
X84259285Y-84715476D02*
X84211666Y-84620238D01*
X84211666Y-84620238D02*
X84116428Y-84525000D01*
X84116428Y-84525000D02*
X83973571Y-84477380D01*
X83973571Y-84477380D02*
X83878333Y-84477380D01*
X83878333Y-84477380D02*
X83735476Y-84525000D01*
X83735476Y-84525000D02*
X83687857Y-84572619D01*
X83306904Y-84572619D02*
X83259285Y-84525000D01*
X83259285Y-84525000D02*
X83164047Y-84477380D01*
X83164047Y-84477380D02*
X82925952Y-84477380D01*
X82925952Y-84477380D02*
X82830714Y-84525000D01*
X82830714Y-84525000D02*
X82783095Y-84572619D01*
X82783095Y-84572619D02*
X82735476Y-84667857D01*
X82735476Y-84667857D02*
X82735476Y-84763095D01*
X82735476Y-84763095D02*
X82783095Y-84905952D01*
X82783095Y-84905952D02*
X83354523Y-85477380D01*
X83354523Y-85477380D02*
X82735476Y-85477380D01*
X82164047Y-84905952D02*
X82259285Y-84858333D01*
X82259285Y-84858333D02*
X82306904Y-84810714D01*
X82306904Y-84810714D02*
X82354523Y-84715476D01*
X82354523Y-84715476D02*
X82354523Y-84667857D01*
X82354523Y-84667857D02*
X82306904Y-84572619D01*
X82306904Y-84572619D02*
X82259285Y-84525000D01*
X82259285Y-84525000D02*
X82164047Y-84477380D01*
X82164047Y-84477380D02*
X81973571Y-84477380D01*
X81973571Y-84477380D02*
X81878333Y-84525000D01*
X81878333Y-84525000D02*
X81830714Y-84572619D01*
X81830714Y-84572619D02*
X81783095Y-84667857D01*
X81783095Y-84667857D02*
X81783095Y-84715476D01*
X81783095Y-84715476D02*
X81830714Y-84810714D01*
X81830714Y-84810714D02*
X81878333Y-84858333D01*
X81878333Y-84858333D02*
X81973571Y-84905952D01*
X81973571Y-84905952D02*
X82164047Y-84905952D01*
X82164047Y-84905952D02*
X82259285Y-84953571D01*
X82259285Y-84953571D02*
X82306904Y-85001190D01*
X82306904Y-85001190D02*
X82354523Y-85096428D01*
X82354523Y-85096428D02*
X82354523Y-85286904D01*
X82354523Y-85286904D02*
X82306904Y-85382142D01*
X82306904Y-85382142D02*
X82259285Y-85429761D01*
X82259285Y-85429761D02*
X82164047Y-85477380D01*
X82164047Y-85477380D02*
X81973571Y-85477380D01*
X81973571Y-85477380D02*
X81878333Y-85429761D01*
X81878333Y-85429761D02*
X81830714Y-85382142D01*
X81830714Y-85382142D02*
X81783095Y-85286904D01*
X81783095Y-85286904D02*
X81783095Y-85096428D01*
X81783095Y-85096428D02*
X81830714Y-85001190D01*
X81830714Y-85001190D02*
X81878333Y-84953571D01*
X81878333Y-84953571D02*
X81973571Y-84905952D01*
X93663333Y-72263571D02*
X93996666Y-72263571D01*
X93996666Y-72787380D02*
X93996666Y-71787380D01*
X93996666Y-71787380D02*
X93520476Y-71787380D01*
X92615714Y-72787380D02*
X93187142Y-72787380D01*
X92901428Y-72787380D02*
X92901428Y-71787380D01*
X92901428Y-71787380D02*
X92996666Y-71930238D01*
X92996666Y-71930238D02*
X93091904Y-72025476D01*
X93091904Y-72025476D02*
X93187142Y-72073095D01*
X121838094Y-115177380D02*
X121838094Y-114177380D01*
X121838094Y-114177380D02*
X121599999Y-114177380D01*
X121599999Y-114177380D02*
X121457142Y-114225000D01*
X121457142Y-114225000D02*
X121361904Y-114320238D01*
X121361904Y-114320238D02*
X121314285Y-114415476D01*
X121314285Y-114415476D02*
X121266666Y-114605952D01*
X121266666Y-114605952D02*
X121266666Y-114748809D01*
X121266666Y-114748809D02*
X121314285Y-114939285D01*
X121314285Y-114939285D02*
X121361904Y-115034523D01*
X121361904Y-115034523D02*
X121457142Y-115129761D01*
X121457142Y-115129761D02*
X121599999Y-115177380D01*
X121599999Y-115177380D02*
X121838094Y-115177380D01*
X120314285Y-115177380D02*
X120885713Y-115177380D01*
X120599999Y-115177380D02*
X120599999Y-114177380D01*
X120599999Y-114177380D02*
X120695237Y-114320238D01*
X120695237Y-114320238D02*
X120790475Y-114415476D01*
X120790475Y-114415476D02*
X120885713Y-114463095D01*
D12*
X83958578Y-83600000D02*
X83441422Y-83600000D01*
X83958578Y-82180000D02*
X83441422Y-82180000D01*
X81800000Y-73180000D02*
X81800000Y-79190000D01*
X88620000Y-75430000D02*
X88620000Y-79190000D01*
X88620000Y-79190000D02*
X87360000Y-79190000D01*
X81800000Y-79190000D02*
X83060000Y-79190000D01*
X112055000Y-78535000D02*
X112055000Y-78275000D01*
X112055000Y-73345000D02*
X113730000Y-73345000D01*
X112055000Y-73085000D02*
X112055000Y-73345000D01*
X109330000Y-78535000D02*
X112055000Y-78535000D01*
X109330000Y-78535000D02*
X106605000Y-78535000D01*
X109330000Y-73085000D02*
X112055000Y-73085000D01*
X109330000Y-73085000D02*
X106605000Y-73085000D01*
X106605000Y-78535000D02*
X106605000Y-78275000D01*
X106605000Y-73085000D02*
X106605000Y-73345000D01*
X89170000Y-73568578D02*
X89170000Y-73051422D01*
X90590000Y-73568578D02*
X90590000Y-73051422D01*
X110857500Y-82357500D02*
X110207500Y-82357500D01*
X110857500Y-83007500D02*
X110857500Y-82357500D01*
X103637500Y-83007500D02*
X103637500Y-82357500D01*
X110857500Y-88927500D02*
X110857500Y-89577500D01*
X103637500Y-88927500D02*
X103637500Y-89577500D01*
X110857500Y-89577500D02*
X110207500Y-89577500D01*
X103637500Y-89577500D02*
X104287500Y-89577500D01*
X122301019Y-80779500D02*
X122301019Y-86779500D01*
X118581019Y-80779500D02*
X118581019Y-86779500D01*
X79840000Y-96562164D02*
X79840000Y-96777836D01*
X79120000Y-96562164D02*
X79120000Y-96777836D01*
X119120000Y-74670000D02*
X119120000Y-74370000D01*
X119120000Y-71830000D02*
X119120000Y-71530000D01*
X119120000Y-71530000D02*
X114980000Y-71530000D01*
X114980000Y-74670000D02*
X119120000Y-74670000D01*
X114980000Y-74370000D02*
X114980000Y-74670000D01*
X114980000Y-71530000D02*
X114980000Y-71830000D01*
X81662164Y-112721250D02*
X81877836Y-112721250D01*
X81662164Y-113441250D02*
X81877836Y-113441250D01*
X98726920Y-91371000D02*
X99008080Y-91371000D01*
X98726920Y-92391000D02*
X99008080Y-92391000D01*
X119500000Y-98440000D02*
X120300000Y-98440000D01*
X95330000Y-61910000D02*
X95330000Y-60760000D01*
X95330000Y-64010000D02*
X95330000Y-65810000D01*
X104670000Y-61910000D02*
X104670000Y-60760000D01*
X104670000Y-64010000D02*
X104670000Y-65810000D01*
D13*
X105000000Y-60335000D02*
X95000000Y-60335000D01*
X95530000Y-67685000D02*
X104470000Y-67685000D01*
X104470000Y-67685000D02*
X104470000Y-60335000D01*
X104470000Y-60335000D02*
X95530000Y-60335000D01*
X95530000Y-60335000D02*
X95530000Y-67685000D01*
D12*
X91196920Y-91031000D02*
X91478080Y-91031000D01*
X91196920Y-92051000D02*
X91478080Y-92051000D01*
X102544665Y-124407499D02*
X102760337Y-124407499D01*
X102544665Y-125127499D02*
X102760337Y-125127499D01*
D11*
X95960000Y-76595000D02*
X95960000Y-76295000D01*
X95960000Y-78595000D02*
X95960000Y-76995000D01*
X99160000Y-76995000D02*
X95960000Y-76995000D01*
X99160000Y-78595000D02*
X95960000Y-78595000D01*
X99160000Y-78595000D02*
X99160000Y-76995000D01*
D12*
X101560000Y-100000000D02*
X101560000Y-100800000D01*
X95027500Y-89115000D02*
X94377500Y-89115000D01*
X95027500Y-89115000D02*
X95677500Y-89115000D01*
X95027500Y-92235000D02*
X93352500Y-92235000D01*
X95027500Y-92235000D02*
X95677500Y-92235000D01*
X98440000Y-69812164D02*
X98440000Y-70027836D01*
X97720000Y-69812164D02*
X97720000Y-70027836D01*
X82060000Y-100000000D02*
X82060000Y-100800000D01*
X98677501Y-123007499D02*
X101517501Y-123007499D01*
X98677501Y-125307499D02*
X98677501Y-124657499D01*
X98677501Y-125307499D02*
X101517501Y-125307499D01*
X77775000Y-111391250D02*
X80615000Y-111391250D01*
X77775000Y-113691250D02*
X77775000Y-113041250D01*
X77775000Y-113691250D02*
X80615000Y-113691250D01*
X97132164Y-98220000D02*
X97347836Y-98220000D01*
X97132164Y-98940000D02*
X97347836Y-98940000D01*
X126600000Y-89720000D02*
X125800000Y-89720000D01*
X126600000Y-89720000D02*
X127400000Y-89720000D01*
X126600000Y-92840000D02*
X124800000Y-92840000D01*
X126600000Y-92840000D02*
X127400000Y-92840000D01*
X102100000Y-69832164D02*
X102100000Y-70047836D01*
X101380000Y-69832164D02*
X101380000Y-70047836D01*
X116570000Y-101637836D02*
X116570000Y-101422164D01*
X117290000Y-101637836D02*
X117290000Y-101422164D01*
X123737164Y-113010000D02*
X123952836Y-113010000D01*
X123737164Y-113730000D02*
X123952836Y-113730000D01*
X87060000Y-88010000D02*
X84220000Y-88010000D01*
X87060000Y-85710000D02*
X87060000Y-86360000D01*
X87060000Y-85710000D02*
X84220000Y-85710000D01*
X83152836Y-86630000D02*
X82937164Y-86630000D01*
X83152836Y-85910000D02*
X82937164Y-85910000D01*
X113120000Y-71692164D02*
X113120000Y-71907836D01*
X112400000Y-71692164D02*
X112400000Y-71907836D01*
X93932064Y-75150000D02*
X92727936Y-75150000D01*
X93932064Y-73330000D02*
X92727936Y-73330000D01*
X119680000Y-111660000D02*
X122520000Y-111660000D01*
X119680000Y-113960000D02*
X119680000Y-113310000D01*
X119680000Y-113960000D02*
X122520000Y-113960000D01*
M02*
