%TF.GenerationSoftware,KiCad,Pcbnew,(7.0.0-0)*%
%TF.CreationDate,2023-02-22T23:44:21-06:00*%
%TF.ProjectId,first_keeb,66697273-745f-46b6-9565-622e6b696361,rev?*%
%TF.SameCoordinates,Original*%
%TF.FileFunction,Legend,Top*%
%TF.FilePolarity,Positive*%
%FSLAX46Y46*%
G04 Gerber Fmt 4.6, Leading zero omitted, Abs format (unit mm)*
G04 Created by KiCad (PCBNEW (7.0.0-0)) date 2023-02-22 23:44:21*
%MOMM*%
%LPD*%
G01*
G04 APERTURE LIST*
%ADD10C,0.150000*%
%ADD11C,0.210000*%
%ADD12C,0.120000*%
G04 APERTURE END LIST*
D10*
%TO.C,REF\u002A\u002A*%
X103666666Y-122147380D02*
X103333333Y-121671190D01*
X103095238Y-122147380D02*
X103095238Y-121147380D01*
X103095238Y-121147380D02*
X103476190Y-121147380D01*
X103476190Y-121147380D02*
X103571428Y-121195000D01*
X103571428Y-121195000D02*
X103619047Y-121242619D01*
X103619047Y-121242619D02*
X103666666Y-121337857D01*
X103666666Y-121337857D02*
X103666666Y-121480714D01*
X103666666Y-121480714D02*
X103619047Y-121575952D01*
X103619047Y-121575952D02*
X103571428Y-121623571D01*
X103571428Y-121623571D02*
X103476190Y-121671190D01*
X103476190Y-121671190D02*
X103095238Y-121671190D01*
X104095238Y-121623571D02*
X104428571Y-121623571D01*
X104571428Y-122147380D02*
X104095238Y-122147380D01*
X104095238Y-122147380D02*
X104095238Y-121147380D01*
X104095238Y-121147380D02*
X104571428Y-121147380D01*
X105333333Y-121623571D02*
X105000000Y-121623571D01*
X105000000Y-122147380D02*
X105000000Y-121147380D01*
X105000000Y-121147380D02*
X105476190Y-121147380D01*
X106000000Y-121147380D02*
X106000000Y-121385476D01*
X105761905Y-121290238D02*
X106000000Y-121385476D01*
X106000000Y-121385476D02*
X106238095Y-121290238D01*
X105857143Y-121575952D02*
X106000000Y-121385476D01*
X106000000Y-121385476D02*
X106142857Y-121575952D01*
X106761905Y-121147380D02*
X106761905Y-121385476D01*
X106523810Y-121290238D02*
X106761905Y-121385476D01*
X106761905Y-121385476D02*
X107000000Y-121290238D01*
X106619048Y-121575952D02*
X106761905Y-121385476D01*
X106761905Y-121385476D02*
X106904762Y-121575952D01*
X88526666Y-125760380D02*
X88193333Y-125284190D01*
X87955238Y-125760380D02*
X87955238Y-124760380D01*
X87955238Y-124760380D02*
X88336190Y-124760380D01*
X88336190Y-124760380D02*
X88431428Y-124808000D01*
X88431428Y-124808000D02*
X88479047Y-124855619D01*
X88479047Y-124855619D02*
X88526666Y-124950857D01*
X88526666Y-124950857D02*
X88526666Y-125093714D01*
X88526666Y-125093714D02*
X88479047Y-125188952D01*
X88479047Y-125188952D02*
X88431428Y-125236571D01*
X88431428Y-125236571D02*
X88336190Y-125284190D01*
X88336190Y-125284190D02*
X87955238Y-125284190D01*
X88955238Y-125236571D02*
X89288571Y-125236571D01*
X89431428Y-125760380D02*
X88955238Y-125760380D01*
X88955238Y-125760380D02*
X88955238Y-124760380D01*
X88955238Y-124760380D02*
X89431428Y-124760380D01*
X90193333Y-125236571D02*
X89860000Y-125236571D01*
X89860000Y-125760380D02*
X89860000Y-124760380D01*
X89860000Y-124760380D02*
X90336190Y-124760380D01*
X90860000Y-124760380D02*
X90860000Y-124998476D01*
X90621905Y-124903238D02*
X90860000Y-124998476D01*
X90860000Y-124998476D02*
X91098095Y-124903238D01*
X90717143Y-125188952D02*
X90860000Y-124998476D01*
X90860000Y-124998476D02*
X91002857Y-125188952D01*
X91621905Y-124760380D02*
X91621905Y-124998476D01*
X91383810Y-124903238D02*
X91621905Y-124998476D01*
X91621905Y-124998476D02*
X91860000Y-124903238D01*
X91479048Y-125188952D02*
X91621905Y-124998476D01*
X91621905Y-124998476D02*
X91764762Y-125188952D01*
X67956666Y-125760380D02*
X67623333Y-125284190D01*
X67385238Y-125760380D02*
X67385238Y-124760380D01*
X67385238Y-124760380D02*
X67766190Y-124760380D01*
X67766190Y-124760380D02*
X67861428Y-124808000D01*
X67861428Y-124808000D02*
X67909047Y-124855619D01*
X67909047Y-124855619D02*
X67956666Y-124950857D01*
X67956666Y-124950857D02*
X67956666Y-125093714D01*
X67956666Y-125093714D02*
X67909047Y-125188952D01*
X67909047Y-125188952D02*
X67861428Y-125236571D01*
X67861428Y-125236571D02*
X67766190Y-125284190D01*
X67766190Y-125284190D02*
X67385238Y-125284190D01*
X68385238Y-125236571D02*
X68718571Y-125236571D01*
X68861428Y-125760380D02*
X68385238Y-125760380D01*
X68385238Y-125760380D02*
X68385238Y-124760380D01*
X68385238Y-124760380D02*
X68861428Y-124760380D01*
X69623333Y-125236571D02*
X69290000Y-125236571D01*
X69290000Y-125760380D02*
X69290000Y-124760380D01*
X69290000Y-124760380D02*
X69766190Y-124760380D01*
X70290000Y-124760380D02*
X70290000Y-124998476D01*
X70051905Y-124903238D02*
X70290000Y-124998476D01*
X70290000Y-124998476D02*
X70528095Y-124903238D01*
X70147143Y-125188952D02*
X70290000Y-124998476D01*
X70290000Y-124998476D02*
X70432857Y-125188952D01*
X71051905Y-124760380D02*
X71051905Y-124998476D01*
X70813810Y-124903238D02*
X71051905Y-124998476D01*
X71051905Y-124998476D02*
X71290000Y-124903238D01*
X70909048Y-125188952D02*
X71051905Y-124998476D01*
X71051905Y-124998476D02*
X71194762Y-125188952D01*
X103666666Y-67667380D02*
X103333333Y-67191190D01*
X103095238Y-67667380D02*
X103095238Y-66667380D01*
X103095238Y-66667380D02*
X103476190Y-66667380D01*
X103476190Y-66667380D02*
X103571428Y-66715000D01*
X103571428Y-66715000D02*
X103619047Y-66762619D01*
X103619047Y-66762619D02*
X103666666Y-66857857D01*
X103666666Y-66857857D02*
X103666666Y-67000714D01*
X103666666Y-67000714D02*
X103619047Y-67095952D01*
X103619047Y-67095952D02*
X103571428Y-67143571D01*
X103571428Y-67143571D02*
X103476190Y-67191190D01*
X103476190Y-67191190D02*
X103095238Y-67191190D01*
X104095238Y-67143571D02*
X104428571Y-67143571D01*
X104571428Y-67667380D02*
X104095238Y-67667380D01*
X104095238Y-67667380D02*
X104095238Y-66667380D01*
X104095238Y-66667380D02*
X104571428Y-66667380D01*
X105333333Y-67143571D02*
X105000000Y-67143571D01*
X105000000Y-67667380D02*
X105000000Y-66667380D01*
X105000000Y-66667380D02*
X105476190Y-66667380D01*
X106000000Y-66667380D02*
X106000000Y-66905476D01*
X105761905Y-66810238D02*
X106000000Y-66905476D01*
X106000000Y-66905476D02*
X106238095Y-66810238D01*
X105857143Y-67095952D02*
X106000000Y-66905476D01*
X106000000Y-66905476D02*
X106142857Y-67095952D01*
X106761905Y-66667380D02*
X106761905Y-66905476D01*
X106523810Y-66810238D02*
X106761905Y-66905476D01*
X106761905Y-66905476D02*
X107000000Y-66810238D01*
X106619048Y-67095952D02*
X106761905Y-66905476D01*
X106761905Y-66905476D02*
X106904762Y-67095952D01*
%TO.C,SSD1306*%
X75623333Y-81573761D02*
X75766190Y-81621380D01*
X75766190Y-81621380D02*
X76004285Y-81621380D01*
X76004285Y-81621380D02*
X76099523Y-81573761D01*
X76099523Y-81573761D02*
X76147142Y-81526142D01*
X76147142Y-81526142D02*
X76194761Y-81430904D01*
X76194761Y-81430904D02*
X76194761Y-81335666D01*
X76194761Y-81335666D02*
X76147142Y-81240428D01*
X76147142Y-81240428D02*
X76099523Y-81192809D01*
X76099523Y-81192809D02*
X76004285Y-81145190D01*
X76004285Y-81145190D02*
X75813809Y-81097571D01*
X75813809Y-81097571D02*
X75718571Y-81049952D01*
X75718571Y-81049952D02*
X75670952Y-81002333D01*
X75670952Y-81002333D02*
X75623333Y-80907095D01*
X75623333Y-80907095D02*
X75623333Y-80811857D01*
X75623333Y-80811857D02*
X75670952Y-80716619D01*
X75670952Y-80716619D02*
X75718571Y-80669000D01*
X75718571Y-80669000D02*
X75813809Y-80621380D01*
X75813809Y-80621380D02*
X76051904Y-80621380D01*
X76051904Y-80621380D02*
X76194761Y-80669000D01*
X76575714Y-81573761D02*
X76718571Y-81621380D01*
X76718571Y-81621380D02*
X76956666Y-81621380D01*
X76956666Y-81621380D02*
X77051904Y-81573761D01*
X77051904Y-81573761D02*
X77099523Y-81526142D01*
X77099523Y-81526142D02*
X77147142Y-81430904D01*
X77147142Y-81430904D02*
X77147142Y-81335666D01*
X77147142Y-81335666D02*
X77099523Y-81240428D01*
X77099523Y-81240428D02*
X77051904Y-81192809D01*
X77051904Y-81192809D02*
X76956666Y-81145190D01*
X76956666Y-81145190D02*
X76766190Y-81097571D01*
X76766190Y-81097571D02*
X76670952Y-81049952D01*
X76670952Y-81049952D02*
X76623333Y-81002333D01*
X76623333Y-81002333D02*
X76575714Y-80907095D01*
X76575714Y-80907095D02*
X76575714Y-80811857D01*
X76575714Y-80811857D02*
X76623333Y-80716619D01*
X76623333Y-80716619D02*
X76670952Y-80669000D01*
X76670952Y-80669000D02*
X76766190Y-80621380D01*
X76766190Y-80621380D02*
X77004285Y-80621380D01*
X77004285Y-80621380D02*
X77147142Y-80669000D01*
X77575714Y-81621380D02*
X77575714Y-80621380D01*
X77575714Y-80621380D02*
X77813809Y-80621380D01*
X77813809Y-80621380D02*
X77956666Y-80669000D01*
X77956666Y-80669000D02*
X78051904Y-80764238D01*
X78051904Y-80764238D02*
X78099523Y-80859476D01*
X78099523Y-80859476D02*
X78147142Y-81049952D01*
X78147142Y-81049952D02*
X78147142Y-81192809D01*
X78147142Y-81192809D02*
X78099523Y-81383285D01*
X78099523Y-81383285D02*
X78051904Y-81478523D01*
X78051904Y-81478523D02*
X77956666Y-81573761D01*
X77956666Y-81573761D02*
X77813809Y-81621380D01*
X77813809Y-81621380D02*
X77575714Y-81621380D01*
X79099523Y-81621380D02*
X78528095Y-81621380D01*
X78813809Y-81621380D02*
X78813809Y-80621380D01*
X78813809Y-80621380D02*
X78718571Y-80764238D01*
X78718571Y-80764238D02*
X78623333Y-80859476D01*
X78623333Y-80859476D02*
X78528095Y-80907095D01*
X79432857Y-80621380D02*
X80051904Y-80621380D01*
X80051904Y-80621380D02*
X79718571Y-81002333D01*
X79718571Y-81002333D02*
X79861428Y-81002333D01*
X79861428Y-81002333D02*
X79956666Y-81049952D01*
X79956666Y-81049952D02*
X80004285Y-81097571D01*
X80004285Y-81097571D02*
X80051904Y-81192809D01*
X80051904Y-81192809D02*
X80051904Y-81430904D01*
X80051904Y-81430904D02*
X80004285Y-81526142D01*
X80004285Y-81526142D02*
X79956666Y-81573761D01*
X79956666Y-81573761D02*
X79861428Y-81621380D01*
X79861428Y-81621380D02*
X79575714Y-81621380D01*
X79575714Y-81621380D02*
X79480476Y-81573761D01*
X79480476Y-81573761D02*
X79432857Y-81526142D01*
X80670952Y-80621380D02*
X80766190Y-80621380D01*
X80766190Y-80621380D02*
X80861428Y-80669000D01*
X80861428Y-80669000D02*
X80909047Y-80716619D01*
X80909047Y-80716619D02*
X80956666Y-80811857D01*
X80956666Y-80811857D02*
X81004285Y-81002333D01*
X81004285Y-81002333D02*
X81004285Y-81240428D01*
X81004285Y-81240428D02*
X80956666Y-81430904D01*
X80956666Y-81430904D02*
X80909047Y-81526142D01*
X80909047Y-81526142D02*
X80861428Y-81573761D01*
X80861428Y-81573761D02*
X80766190Y-81621380D01*
X80766190Y-81621380D02*
X80670952Y-81621380D01*
X80670952Y-81621380D02*
X80575714Y-81573761D01*
X80575714Y-81573761D02*
X80528095Y-81526142D01*
X80528095Y-81526142D02*
X80480476Y-81430904D01*
X80480476Y-81430904D02*
X80432857Y-81240428D01*
X80432857Y-81240428D02*
X80432857Y-81002333D01*
X80432857Y-81002333D02*
X80480476Y-80811857D01*
X80480476Y-80811857D02*
X80528095Y-80716619D01*
X80528095Y-80716619D02*
X80575714Y-80669000D01*
X80575714Y-80669000D02*
X80670952Y-80621380D01*
X81861428Y-80621380D02*
X81670952Y-80621380D01*
X81670952Y-80621380D02*
X81575714Y-80669000D01*
X81575714Y-80669000D02*
X81528095Y-80716619D01*
X81528095Y-80716619D02*
X81432857Y-80859476D01*
X81432857Y-80859476D02*
X81385238Y-81049952D01*
X81385238Y-81049952D02*
X81385238Y-81430904D01*
X81385238Y-81430904D02*
X81432857Y-81526142D01*
X81432857Y-81526142D02*
X81480476Y-81573761D01*
X81480476Y-81573761D02*
X81575714Y-81621380D01*
X81575714Y-81621380D02*
X81766190Y-81621380D01*
X81766190Y-81621380D02*
X81861428Y-81573761D01*
X81861428Y-81573761D02*
X81909047Y-81526142D01*
X81909047Y-81526142D02*
X81956666Y-81430904D01*
X81956666Y-81430904D02*
X81956666Y-81192809D01*
X81956666Y-81192809D02*
X81909047Y-81097571D01*
X81909047Y-81097571D02*
X81861428Y-81049952D01*
X81861428Y-81049952D02*
X81766190Y-81002333D01*
X81766190Y-81002333D02*
X81575714Y-81002333D01*
X81575714Y-81002333D02*
X81480476Y-81049952D01*
X81480476Y-81049952D02*
X81432857Y-81097571D01*
X81432857Y-81097571D02*
X81385238Y-81192809D01*
%TO.C,REF\u002A\u002A*%
X22166666Y-67647380D02*
X21833333Y-67171190D01*
X21595238Y-67647380D02*
X21595238Y-66647380D01*
X21595238Y-66647380D02*
X21976190Y-66647380D01*
X21976190Y-66647380D02*
X22071428Y-66695000D01*
X22071428Y-66695000D02*
X22119047Y-66742619D01*
X22119047Y-66742619D02*
X22166666Y-66837857D01*
X22166666Y-66837857D02*
X22166666Y-66980714D01*
X22166666Y-66980714D02*
X22119047Y-67075952D01*
X22119047Y-67075952D02*
X22071428Y-67123571D01*
X22071428Y-67123571D02*
X21976190Y-67171190D01*
X21976190Y-67171190D02*
X21595238Y-67171190D01*
X22595238Y-67123571D02*
X22928571Y-67123571D01*
X23071428Y-67647380D02*
X22595238Y-67647380D01*
X22595238Y-67647380D02*
X22595238Y-66647380D01*
X22595238Y-66647380D02*
X23071428Y-66647380D01*
X23833333Y-67123571D02*
X23500000Y-67123571D01*
X23500000Y-67647380D02*
X23500000Y-66647380D01*
X23500000Y-66647380D02*
X23976190Y-66647380D01*
X24500000Y-66647380D02*
X24500000Y-66885476D01*
X24261905Y-66790238D02*
X24500000Y-66885476D01*
X24500000Y-66885476D02*
X24738095Y-66790238D01*
X24357143Y-67075952D02*
X24500000Y-66885476D01*
X24500000Y-66885476D02*
X24642857Y-67075952D01*
X25261905Y-66647380D02*
X25261905Y-66885476D01*
X25023810Y-66790238D02*
X25261905Y-66885476D01*
X25261905Y-66885476D02*
X25500000Y-66790238D01*
X25119048Y-67075952D02*
X25261905Y-66885476D01*
X25261905Y-66885476D02*
X25404762Y-67075952D01*
%TO.C,SHUNT*%
X56083334Y-79208833D02*
X56183334Y-79242166D01*
X56183334Y-79242166D02*
X56350001Y-79242166D01*
X56350001Y-79242166D02*
X56416667Y-79208833D01*
X56416667Y-79208833D02*
X56450001Y-79175500D01*
X56450001Y-79175500D02*
X56483334Y-79108833D01*
X56483334Y-79108833D02*
X56483334Y-79042166D01*
X56483334Y-79042166D02*
X56450001Y-78975500D01*
X56450001Y-78975500D02*
X56416667Y-78942166D01*
X56416667Y-78942166D02*
X56350001Y-78908833D01*
X56350001Y-78908833D02*
X56216667Y-78875500D01*
X56216667Y-78875500D02*
X56150001Y-78842166D01*
X56150001Y-78842166D02*
X56116667Y-78808833D01*
X56116667Y-78808833D02*
X56083334Y-78742166D01*
X56083334Y-78742166D02*
X56083334Y-78675500D01*
X56083334Y-78675500D02*
X56116667Y-78608833D01*
X56116667Y-78608833D02*
X56150001Y-78575500D01*
X56150001Y-78575500D02*
X56216667Y-78542166D01*
X56216667Y-78542166D02*
X56383334Y-78542166D01*
X56383334Y-78542166D02*
X56483334Y-78575500D01*
X56783334Y-79242166D02*
X56783334Y-78542166D01*
X56783334Y-78875500D02*
X57183334Y-78875500D01*
X57183334Y-79242166D02*
X57183334Y-78542166D01*
X57516667Y-78542166D02*
X57516667Y-79108833D01*
X57516667Y-79108833D02*
X57550001Y-79175500D01*
X57550001Y-79175500D02*
X57583334Y-79208833D01*
X57583334Y-79208833D02*
X57650001Y-79242166D01*
X57650001Y-79242166D02*
X57783334Y-79242166D01*
X57783334Y-79242166D02*
X57850001Y-79208833D01*
X57850001Y-79208833D02*
X57883334Y-79175500D01*
X57883334Y-79175500D02*
X57916667Y-79108833D01*
X57916667Y-79108833D02*
X57916667Y-78542166D01*
X58250000Y-79242166D02*
X58250000Y-78542166D01*
X58250000Y-78542166D02*
X58650000Y-79242166D01*
X58650000Y-79242166D02*
X58650000Y-78542166D01*
X58883333Y-78542166D02*
X59283333Y-78542166D01*
X59083333Y-79242166D02*
X59083333Y-78542166D01*
%TO.C,U1*%
X39348095Y-91137380D02*
X39348095Y-91946904D01*
X39348095Y-91946904D02*
X39395714Y-92042142D01*
X39395714Y-92042142D02*
X39443333Y-92089761D01*
X39443333Y-92089761D02*
X39538571Y-92137380D01*
X39538571Y-92137380D02*
X39729047Y-92137380D01*
X39729047Y-92137380D02*
X39824285Y-92089761D01*
X39824285Y-92089761D02*
X39871904Y-92042142D01*
X39871904Y-92042142D02*
X39919523Y-91946904D01*
X39919523Y-91946904D02*
X39919523Y-91137380D01*
X40919523Y-92137380D02*
X40348095Y-92137380D01*
X40633809Y-92137380D02*
X40633809Y-91137380D01*
X40633809Y-91137380D02*
X40538571Y-91280238D01*
X40538571Y-91280238D02*
X40443333Y-91375476D01*
X40443333Y-91375476D02*
X40348095Y-91423095D01*
X26575013Y-80413134D02*
X26494201Y-80440072D01*
X26494201Y-80440072D02*
X26413388Y-80520884D01*
X26413388Y-80520884D02*
X26359514Y-80628633D01*
X26359514Y-80628633D02*
X26359514Y-80736383D01*
X26359514Y-80736383D02*
X26386451Y-80817195D01*
X26386451Y-80817195D02*
X26467263Y-80951882D01*
X26467263Y-80951882D02*
X26548075Y-81032695D01*
X26548075Y-81032695D02*
X26682762Y-81113507D01*
X26682762Y-81113507D02*
X26763575Y-81140444D01*
X26763575Y-81140444D02*
X26871324Y-81140444D01*
X26871324Y-81140444D02*
X26979074Y-81086569D01*
X26979074Y-81086569D02*
X27032949Y-81032695D01*
X27032949Y-81032695D02*
X27086823Y-80924945D01*
X27086823Y-80924945D02*
X27086823Y-80871070D01*
X27086823Y-80871070D02*
X26898262Y-80682508D01*
X26898262Y-80682508D02*
X26790512Y-80790258D01*
X27383135Y-80682508D02*
X26817449Y-80116823D01*
X26817449Y-80116823D02*
X27032949Y-79901324D01*
X27032949Y-79901324D02*
X27113761Y-79874386D01*
X27113761Y-79874386D02*
X27167636Y-79874386D01*
X27167636Y-79874386D02*
X27248448Y-79901324D01*
X27248448Y-79901324D02*
X27329260Y-79982136D01*
X27329260Y-79982136D02*
X27356197Y-80062948D01*
X27356197Y-80062948D02*
X27356197Y-80116823D01*
X27356197Y-80116823D02*
X27329260Y-80197635D01*
X27329260Y-80197635D02*
X27113761Y-80413134D01*
X27814133Y-79497263D02*
X28191257Y-79874386D01*
X27463947Y-79416450D02*
X27733321Y-79955198D01*
X27733321Y-79955198D02*
X28083507Y-79605012D01*
X52159638Y-95922509D02*
X52078826Y-95949446D01*
X52078826Y-95949446D02*
X51998014Y-96030258D01*
X51998014Y-96030258D02*
X51944139Y-96138008D01*
X51944139Y-96138008D02*
X51944139Y-96245758D01*
X51944139Y-96245758D02*
X51971077Y-96326570D01*
X51971077Y-96326570D02*
X52051889Y-96461257D01*
X52051889Y-96461257D02*
X52132701Y-96542069D01*
X52132701Y-96542069D02*
X52267388Y-96622881D01*
X52267388Y-96622881D02*
X52348200Y-96649819D01*
X52348200Y-96649819D02*
X52455950Y-96649819D01*
X52455950Y-96649819D02*
X52563699Y-96595944D01*
X52563699Y-96595944D02*
X52617574Y-96542069D01*
X52617574Y-96542069D02*
X52671449Y-96434319D01*
X52671449Y-96434319D02*
X52671449Y-96380445D01*
X52671449Y-96380445D02*
X52482887Y-96191883D01*
X52482887Y-96191883D02*
X52375138Y-96299632D01*
X52967760Y-96191883D02*
X52402075Y-95626197D01*
X52402075Y-95626197D02*
X52617574Y-95410698D01*
X52617574Y-95410698D02*
X52698386Y-95383761D01*
X52698386Y-95383761D02*
X52752261Y-95383761D01*
X52752261Y-95383761D02*
X52833073Y-95410698D01*
X52833073Y-95410698D02*
X52913886Y-95491510D01*
X52913886Y-95491510D02*
X52940823Y-95572323D01*
X52940823Y-95572323D02*
X52940823Y-95626197D01*
X52940823Y-95626197D02*
X52913886Y-95707010D01*
X52913886Y-95707010D02*
X52698386Y-95922509D01*
X52994698Y-95141324D02*
X52994698Y-95087449D01*
X52994698Y-95087449D02*
X53021635Y-95006637D01*
X53021635Y-95006637D02*
X53156322Y-94871950D01*
X53156322Y-94871950D02*
X53237134Y-94845013D01*
X53237134Y-94845013D02*
X53291009Y-94845013D01*
X53291009Y-94845013D02*
X53371821Y-94871950D01*
X53371821Y-94871950D02*
X53425696Y-94925825D01*
X53425696Y-94925825D02*
X53479571Y-95033574D01*
X53479571Y-95033574D02*
X53479571Y-95680072D01*
X53479571Y-95680072D02*
X53829757Y-95329886D01*
X53533446Y-94602576D02*
X53533446Y-94548701D01*
X53533446Y-94548701D02*
X53560383Y-94467889D01*
X53560383Y-94467889D02*
X53695070Y-94333202D01*
X53695070Y-94333202D02*
X53775883Y-94306264D01*
X53775883Y-94306264D02*
X53829757Y-94306264D01*
X53829757Y-94306264D02*
X53910570Y-94333202D01*
X53910570Y-94333202D02*
X53964444Y-94387077D01*
X53964444Y-94387077D02*
X54018319Y-94494826D01*
X54018319Y-94494826D02*
X54018319Y-95141324D01*
X54018319Y-95141324D02*
X54368505Y-94791138D01*
X32600475Y-118225809D02*
X32714761Y-118263904D01*
X32714761Y-118263904D02*
X32905237Y-118263904D01*
X32905237Y-118263904D02*
X32981428Y-118225809D01*
X32981428Y-118225809D02*
X33019523Y-118187714D01*
X33019523Y-118187714D02*
X33057618Y-118111523D01*
X33057618Y-118111523D02*
X33057618Y-118035333D01*
X33057618Y-118035333D02*
X33019523Y-117959142D01*
X33019523Y-117959142D02*
X32981428Y-117921047D01*
X32981428Y-117921047D02*
X32905237Y-117882952D01*
X32905237Y-117882952D02*
X32752856Y-117844857D01*
X32752856Y-117844857D02*
X32676666Y-117806761D01*
X32676666Y-117806761D02*
X32638571Y-117768666D01*
X32638571Y-117768666D02*
X32600475Y-117692476D01*
X32600475Y-117692476D02*
X32600475Y-117616285D01*
X32600475Y-117616285D02*
X32638571Y-117540095D01*
X32638571Y-117540095D02*
X32676666Y-117502000D01*
X32676666Y-117502000D02*
X32752856Y-117463904D01*
X32752856Y-117463904D02*
X32943333Y-117463904D01*
X32943333Y-117463904D02*
X33057618Y-117502000D01*
X33324285Y-117463904D02*
X33514761Y-118263904D01*
X33514761Y-118263904D02*
X33667142Y-117692476D01*
X33667142Y-117692476D02*
X33819523Y-118263904D01*
X33819523Y-118263904D02*
X34010000Y-117463904D01*
X34771905Y-118187714D02*
X34733809Y-118225809D01*
X34733809Y-118225809D02*
X34619524Y-118263904D01*
X34619524Y-118263904D02*
X34543333Y-118263904D01*
X34543333Y-118263904D02*
X34429047Y-118225809D01*
X34429047Y-118225809D02*
X34352857Y-118149619D01*
X34352857Y-118149619D02*
X34314762Y-118073428D01*
X34314762Y-118073428D02*
X34276666Y-117921047D01*
X34276666Y-117921047D02*
X34276666Y-117806761D01*
X34276666Y-117806761D02*
X34314762Y-117654380D01*
X34314762Y-117654380D02*
X34352857Y-117578190D01*
X34352857Y-117578190D02*
X34429047Y-117502000D01*
X34429047Y-117502000D02*
X34543333Y-117463904D01*
X34543333Y-117463904D02*
X34619524Y-117463904D01*
X34619524Y-117463904D02*
X34733809Y-117502000D01*
X34733809Y-117502000D02*
X34771905Y-117540095D01*
X35495714Y-118263904D02*
X35114762Y-118263904D01*
X35114762Y-118263904D02*
X35114762Y-117463904D01*
X35762381Y-118263904D02*
X35762381Y-117463904D01*
X36219524Y-118263904D02*
X35876666Y-117806761D01*
X36219524Y-117463904D02*
X35762381Y-117921047D01*
X26575013Y-88033134D02*
X26494201Y-88060072D01*
X26494201Y-88060072D02*
X26413388Y-88140884D01*
X26413388Y-88140884D02*
X26359514Y-88248633D01*
X26359514Y-88248633D02*
X26359514Y-88356383D01*
X26359514Y-88356383D02*
X26386451Y-88437195D01*
X26386451Y-88437195D02*
X26467263Y-88571882D01*
X26467263Y-88571882D02*
X26548075Y-88652695D01*
X26548075Y-88652695D02*
X26682762Y-88733507D01*
X26682762Y-88733507D02*
X26763575Y-88760444D01*
X26763575Y-88760444D02*
X26871324Y-88760444D01*
X26871324Y-88760444D02*
X26979074Y-88706569D01*
X26979074Y-88706569D02*
X27032949Y-88652695D01*
X27032949Y-88652695D02*
X27086823Y-88544945D01*
X27086823Y-88544945D02*
X27086823Y-88491070D01*
X27086823Y-88491070D02*
X26898262Y-88302508D01*
X26898262Y-88302508D02*
X26790512Y-88410258D01*
X27383135Y-88302508D02*
X26817449Y-87736823D01*
X26817449Y-87736823D02*
X27032949Y-87521324D01*
X27032949Y-87521324D02*
X27113761Y-87494386D01*
X27113761Y-87494386D02*
X27167636Y-87494386D01*
X27167636Y-87494386D02*
X27248448Y-87521324D01*
X27248448Y-87521324D02*
X27329260Y-87602136D01*
X27329260Y-87602136D02*
X27356197Y-87682948D01*
X27356197Y-87682948D02*
X27356197Y-87736823D01*
X27356197Y-87736823D02*
X27329260Y-87817635D01*
X27329260Y-87817635D02*
X27113761Y-88033134D01*
X27625571Y-86928701D02*
X27517822Y-87036450D01*
X27517822Y-87036450D02*
X27490884Y-87117263D01*
X27490884Y-87117263D02*
X27490884Y-87171137D01*
X27490884Y-87171137D02*
X27517822Y-87305824D01*
X27517822Y-87305824D02*
X27598634Y-87440511D01*
X27598634Y-87440511D02*
X27814133Y-87656011D01*
X27814133Y-87656011D02*
X27894945Y-87682948D01*
X27894945Y-87682948D02*
X27948820Y-87682948D01*
X27948820Y-87682948D02*
X28029632Y-87656011D01*
X28029632Y-87656011D02*
X28137382Y-87548261D01*
X28137382Y-87548261D02*
X28164319Y-87467449D01*
X28164319Y-87467449D02*
X28164319Y-87413574D01*
X28164319Y-87413574D02*
X28137382Y-87332762D01*
X28137382Y-87332762D02*
X28002695Y-87198075D01*
X28002695Y-87198075D02*
X27921883Y-87171137D01*
X27921883Y-87171137D02*
X27868008Y-87171137D01*
X27868008Y-87171137D02*
X27787196Y-87198075D01*
X27787196Y-87198075D02*
X27679446Y-87305824D01*
X27679446Y-87305824D02*
X27652509Y-87386637D01*
X27652509Y-87386637D02*
X27652509Y-87440511D01*
X27652509Y-87440511D02*
X27679446Y-87521324D01*
X26675013Y-90543134D02*
X26594201Y-90570072D01*
X26594201Y-90570072D02*
X26513388Y-90650884D01*
X26513388Y-90650884D02*
X26459514Y-90758633D01*
X26459514Y-90758633D02*
X26459514Y-90866383D01*
X26459514Y-90866383D02*
X26486451Y-90947195D01*
X26486451Y-90947195D02*
X26567263Y-91081882D01*
X26567263Y-91081882D02*
X26648075Y-91162695D01*
X26648075Y-91162695D02*
X26782762Y-91243507D01*
X26782762Y-91243507D02*
X26863575Y-91270444D01*
X26863575Y-91270444D02*
X26971324Y-91270444D01*
X26971324Y-91270444D02*
X27079074Y-91216569D01*
X27079074Y-91216569D02*
X27132949Y-91162695D01*
X27132949Y-91162695D02*
X27186823Y-91054945D01*
X27186823Y-91054945D02*
X27186823Y-91001070D01*
X27186823Y-91001070D02*
X26998262Y-90812508D01*
X26998262Y-90812508D02*
X26890512Y-90920258D01*
X27483135Y-90812508D02*
X26917449Y-90246823D01*
X26917449Y-90246823D02*
X27132949Y-90031324D01*
X27132949Y-90031324D02*
X27213761Y-90004386D01*
X27213761Y-90004386D02*
X27267636Y-90004386D01*
X27267636Y-90004386D02*
X27348448Y-90031324D01*
X27348448Y-90031324D02*
X27429260Y-90112136D01*
X27429260Y-90112136D02*
X27456197Y-90192948D01*
X27456197Y-90192948D02*
X27456197Y-90246823D01*
X27456197Y-90246823D02*
X27429260Y-90327635D01*
X27429260Y-90327635D02*
X27213761Y-90543134D01*
X27429260Y-89735012D02*
X27806384Y-89357889D01*
X27806384Y-89357889D02*
X28129632Y-90166011D01*
X51984048Y-75680224D02*
X52334234Y-75330038D01*
X52334234Y-75330038D02*
X52361172Y-75734099D01*
X52361172Y-75734099D02*
X52441984Y-75653287D01*
X52441984Y-75653287D02*
X52522796Y-75626350D01*
X52522796Y-75626350D02*
X52576671Y-75626350D01*
X52576671Y-75626350D02*
X52657483Y-75653287D01*
X52657483Y-75653287D02*
X52792170Y-75787974D01*
X52792170Y-75787974D02*
X52819107Y-75868786D01*
X52819107Y-75868786D02*
X52819107Y-75922661D01*
X52819107Y-75922661D02*
X52792170Y-76003473D01*
X52792170Y-76003473D02*
X52630546Y-76165098D01*
X52630546Y-76165098D02*
X52549733Y-76192035D01*
X52549733Y-76192035D02*
X52495859Y-76192035D01*
X52495859Y-75168414D02*
X53250106Y-75545537D01*
X53250106Y-75545537D02*
X52872982Y-74791290D01*
X53007669Y-74656603D02*
X53357855Y-74306417D01*
X53357855Y-74306417D02*
X53384793Y-74710478D01*
X53384793Y-74710478D02*
X53465605Y-74629666D01*
X53465605Y-74629666D02*
X53546417Y-74602728D01*
X53546417Y-74602728D02*
X53600292Y-74602728D01*
X53600292Y-74602728D02*
X53681104Y-74629666D01*
X53681104Y-74629666D02*
X53815791Y-74764353D01*
X53815791Y-74764353D02*
X53842729Y-74845165D01*
X53842729Y-74845165D02*
X53842729Y-74899040D01*
X53842729Y-74899040D02*
X53815791Y-74979852D01*
X53815791Y-74979852D02*
X53654167Y-75141476D01*
X53654167Y-75141476D02*
X53573355Y-75168414D01*
X53573355Y-75168414D02*
X53519480Y-75168414D01*
X54085165Y-74818227D02*
X54516164Y-74387229D01*
X54300665Y-73902356D02*
X54489226Y-73713794D01*
X54866350Y-73929293D02*
X54596976Y-74198667D01*
X54596976Y-74198667D02*
X54031291Y-73632982D01*
X54031291Y-73632982D02*
X54300665Y-73363608D01*
X55108787Y-73686856D02*
X54543102Y-73121171D01*
X54543102Y-73121171D02*
X55432036Y-73363607D01*
X55432036Y-73363607D02*
X54866350Y-72797922D01*
X52159638Y-90842509D02*
X52078826Y-90869446D01*
X52078826Y-90869446D02*
X51998014Y-90950258D01*
X51998014Y-90950258D02*
X51944139Y-91058008D01*
X51944139Y-91058008D02*
X51944139Y-91165758D01*
X51944139Y-91165758D02*
X51971077Y-91246570D01*
X51971077Y-91246570D02*
X52051889Y-91381257D01*
X52051889Y-91381257D02*
X52132701Y-91462069D01*
X52132701Y-91462069D02*
X52267388Y-91542881D01*
X52267388Y-91542881D02*
X52348200Y-91569819D01*
X52348200Y-91569819D02*
X52455950Y-91569819D01*
X52455950Y-91569819D02*
X52563699Y-91515944D01*
X52563699Y-91515944D02*
X52617574Y-91462069D01*
X52617574Y-91462069D02*
X52671449Y-91354319D01*
X52671449Y-91354319D02*
X52671449Y-91300445D01*
X52671449Y-91300445D02*
X52482887Y-91111883D01*
X52482887Y-91111883D02*
X52375138Y-91219632D01*
X52967760Y-91111883D02*
X52402075Y-90546197D01*
X52402075Y-90546197D02*
X52617574Y-90330698D01*
X52617574Y-90330698D02*
X52698386Y-90303761D01*
X52698386Y-90303761D02*
X52752261Y-90303761D01*
X52752261Y-90303761D02*
X52833073Y-90330698D01*
X52833073Y-90330698D02*
X52913886Y-90411510D01*
X52913886Y-90411510D02*
X52940823Y-90492323D01*
X52940823Y-90492323D02*
X52940823Y-90546197D01*
X52940823Y-90546197D02*
X52913886Y-90627010D01*
X52913886Y-90627010D02*
X52698386Y-90842509D01*
X52994698Y-90061324D02*
X52994698Y-90007449D01*
X52994698Y-90007449D02*
X53021635Y-89926637D01*
X53021635Y-89926637D02*
X53156322Y-89791950D01*
X53156322Y-89791950D02*
X53237134Y-89765013D01*
X53237134Y-89765013D02*
X53291009Y-89765013D01*
X53291009Y-89765013D02*
X53371821Y-89791950D01*
X53371821Y-89791950D02*
X53425696Y-89845825D01*
X53425696Y-89845825D02*
X53479571Y-89953574D01*
X53479571Y-89953574D02*
X53479571Y-90600072D01*
X53479571Y-90600072D02*
X53829757Y-90249886D01*
X53748945Y-89199327D02*
X53641196Y-89307077D01*
X53641196Y-89307077D02*
X53614258Y-89387889D01*
X53614258Y-89387889D02*
X53614258Y-89441764D01*
X53614258Y-89441764D02*
X53641196Y-89576451D01*
X53641196Y-89576451D02*
X53722008Y-89711138D01*
X53722008Y-89711138D02*
X53937507Y-89926637D01*
X53937507Y-89926637D02*
X54018319Y-89953574D01*
X54018319Y-89953574D02*
X54072194Y-89953574D01*
X54072194Y-89953574D02*
X54153006Y-89926637D01*
X54153006Y-89926637D02*
X54260756Y-89818887D01*
X54260756Y-89818887D02*
X54287693Y-89738075D01*
X54287693Y-89738075D02*
X54287693Y-89684200D01*
X54287693Y-89684200D02*
X54260756Y-89603388D01*
X54260756Y-89603388D02*
X54126069Y-89468701D01*
X54126069Y-89468701D02*
X54045257Y-89441764D01*
X54045257Y-89441764D02*
X53991382Y-89441764D01*
X53991382Y-89441764D02*
X53910570Y-89468701D01*
X53910570Y-89468701D02*
X53802820Y-89576451D01*
X53802820Y-89576451D02*
X53775883Y-89657263D01*
X53775883Y-89657263D02*
X53775883Y-89711138D01*
X53775883Y-89711138D02*
X53802820Y-89791950D01*
X26548076Y-72820072D02*
X26467263Y-72847009D01*
X26467263Y-72847009D02*
X26386451Y-72927821D01*
X26386451Y-72927821D02*
X26332576Y-73035571D01*
X26332576Y-73035571D02*
X26332576Y-73143320D01*
X26332576Y-73143320D02*
X26359514Y-73224133D01*
X26359514Y-73224133D02*
X26440326Y-73358820D01*
X26440326Y-73358820D02*
X26521138Y-73439632D01*
X26521138Y-73439632D02*
X26655825Y-73520444D01*
X26655825Y-73520444D02*
X26736637Y-73547381D01*
X26736637Y-73547381D02*
X26844387Y-73547381D01*
X26844387Y-73547381D02*
X26952137Y-73493507D01*
X26952137Y-73493507D02*
X27006011Y-73439632D01*
X27006011Y-73439632D02*
X27059886Y-73331882D01*
X27059886Y-73331882D02*
X27059886Y-73278007D01*
X27059886Y-73278007D02*
X26871324Y-73089446D01*
X26871324Y-73089446D02*
X26763575Y-73197195D01*
X27356198Y-73089446D02*
X26790512Y-72523760D01*
X26790512Y-72523760D02*
X27679446Y-72766197D01*
X27679446Y-72766197D02*
X27113761Y-72200511D01*
X27948820Y-72496823D02*
X27383135Y-71931137D01*
X27383135Y-71931137D02*
X27517822Y-71796450D01*
X27517822Y-71796450D02*
X27625571Y-71742576D01*
X27625571Y-71742576D02*
X27733321Y-71742576D01*
X27733321Y-71742576D02*
X27814133Y-71769513D01*
X27814133Y-71769513D02*
X27948820Y-71850325D01*
X27948820Y-71850325D02*
X28029632Y-71931137D01*
X28029632Y-71931137D02*
X28110445Y-72065824D01*
X28110445Y-72065824D02*
X28137382Y-72146637D01*
X28137382Y-72146637D02*
X28137382Y-72254386D01*
X28137382Y-72254386D02*
X28083507Y-72362136D01*
X28083507Y-72362136D02*
X27948820Y-72496823D01*
X26051638Y-108622509D02*
X25970826Y-108649446D01*
X25970826Y-108649446D02*
X25890014Y-108730258D01*
X25890014Y-108730258D02*
X25836139Y-108838008D01*
X25836139Y-108838008D02*
X25836139Y-108945758D01*
X25836139Y-108945758D02*
X25863077Y-109026570D01*
X25863077Y-109026570D02*
X25943889Y-109161257D01*
X25943889Y-109161257D02*
X26024701Y-109242069D01*
X26024701Y-109242069D02*
X26159388Y-109322881D01*
X26159388Y-109322881D02*
X26240200Y-109349819D01*
X26240200Y-109349819D02*
X26347950Y-109349819D01*
X26347950Y-109349819D02*
X26455699Y-109295944D01*
X26455699Y-109295944D02*
X26509574Y-109242069D01*
X26509574Y-109242069D02*
X26563449Y-109134319D01*
X26563449Y-109134319D02*
X26563449Y-109080445D01*
X26563449Y-109080445D02*
X26374887Y-108891883D01*
X26374887Y-108891883D02*
X26267138Y-108999632D01*
X26859760Y-108891883D02*
X26294075Y-108326197D01*
X26294075Y-108326197D02*
X26509574Y-108110698D01*
X26509574Y-108110698D02*
X26590386Y-108083761D01*
X26590386Y-108083761D02*
X26644261Y-108083761D01*
X26644261Y-108083761D02*
X26725073Y-108110698D01*
X26725073Y-108110698D02*
X26805886Y-108191510D01*
X26805886Y-108191510D02*
X26832823Y-108272323D01*
X26832823Y-108272323D02*
X26832823Y-108326197D01*
X26832823Y-108326197D02*
X26805886Y-108407010D01*
X26805886Y-108407010D02*
X26590386Y-108622509D01*
X27721757Y-108029886D02*
X27398508Y-108353135D01*
X27560133Y-108191510D02*
X26994447Y-107625825D01*
X26994447Y-107625825D02*
X27021385Y-107760512D01*
X27021385Y-107760512D02*
X27021385Y-107868261D01*
X27021385Y-107868261D02*
X26994447Y-107949074D01*
X27344634Y-107275638D02*
X27694820Y-106925452D01*
X27694820Y-106925452D02*
X27721757Y-107329513D01*
X27721757Y-107329513D02*
X27802570Y-107248701D01*
X27802570Y-107248701D02*
X27883382Y-107221764D01*
X27883382Y-107221764D02*
X27937257Y-107221764D01*
X27937257Y-107221764D02*
X28018069Y-107248701D01*
X28018069Y-107248701D02*
X28152756Y-107383388D01*
X28152756Y-107383388D02*
X28179693Y-107464200D01*
X28179693Y-107464200D02*
X28179693Y-107518075D01*
X28179693Y-107518075D02*
X28152756Y-107598887D01*
X28152756Y-107598887D02*
X27991131Y-107760512D01*
X27991131Y-107760512D02*
X27910319Y-107787449D01*
X27910319Y-107787449D02*
X27856444Y-107787449D01*
X52159638Y-103542509D02*
X52078826Y-103569446D01*
X52078826Y-103569446D02*
X51998014Y-103650258D01*
X51998014Y-103650258D02*
X51944139Y-103758008D01*
X51944139Y-103758008D02*
X51944139Y-103865758D01*
X51944139Y-103865758D02*
X51971077Y-103946570D01*
X51971077Y-103946570D02*
X52051889Y-104081257D01*
X52051889Y-104081257D02*
X52132701Y-104162069D01*
X52132701Y-104162069D02*
X52267388Y-104242881D01*
X52267388Y-104242881D02*
X52348200Y-104269819D01*
X52348200Y-104269819D02*
X52455950Y-104269819D01*
X52455950Y-104269819D02*
X52563699Y-104215944D01*
X52563699Y-104215944D02*
X52617574Y-104162069D01*
X52617574Y-104162069D02*
X52671449Y-104054319D01*
X52671449Y-104054319D02*
X52671449Y-104000445D01*
X52671449Y-104000445D02*
X52482887Y-103811883D01*
X52482887Y-103811883D02*
X52375138Y-103919632D01*
X52967760Y-103811883D02*
X52402075Y-103246197D01*
X52402075Y-103246197D02*
X52617574Y-103030698D01*
X52617574Y-103030698D02*
X52698386Y-103003761D01*
X52698386Y-103003761D02*
X52752261Y-103003761D01*
X52752261Y-103003761D02*
X52833073Y-103030698D01*
X52833073Y-103030698D02*
X52913886Y-103111510D01*
X52913886Y-103111510D02*
X52940823Y-103192323D01*
X52940823Y-103192323D02*
X52940823Y-103246197D01*
X52940823Y-103246197D02*
X52913886Y-103327010D01*
X52913886Y-103327010D02*
X52698386Y-103542509D01*
X52994698Y-102761324D02*
X52994698Y-102707449D01*
X52994698Y-102707449D02*
X53021635Y-102626637D01*
X53021635Y-102626637D02*
X53156322Y-102491950D01*
X53156322Y-102491950D02*
X53237134Y-102465013D01*
X53237134Y-102465013D02*
X53291009Y-102465013D01*
X53291009Y-102465013D02*
X53371821Y-102491950D01*
X53371821Y-102491950D02*
X53425696Y-102545825D01*
X53425696Y-102545825D02*
X53479571Y-102653574D01*
X53479571Y-102653574D02*
X53479571Y-103300072D01*
X53479571Y-103300072D02*
X53829757Y-102949886D01*
X53614258Y-102034014D02*
X53668133Y-101980139D01*
X53668133Y-101980139D02*
X53748945Y-101953202D01*
X53748945Y-101953202D02*
X53802820Y-101953202D01*
X53802820Y-101953202D02*
X53883632Y-101980139D01*
X53883632Y-101980139D02*
X54018319Y-102060951D01*
X54018319Y-102060951D02*
X54153006Y-102195638D01*
X54153006Y-102195638D02*
X54233818Y-102330326D01*
X54233818Y-102330326D02*
X54260756Y-102411138D01*
X54260756Y-102411138D02*
X54260756Y-102465013D01*
X54260756Y-102465013D02*
X54233818Y-102545825D01*
X54233818Y-102545825D02*
X54179944Y-102599700D01*
X54179944Y-102599700D02*
X54099131Y-102626637D01*
X54099131Y-102626637D02*
X54045257Y-102626637D01*
X54045257Y-102626637D02*
X53964444Y-102599700D01*
X53964444Y-102599700D02*
X53829757Y-102518887D01*
X53829757Y-102518887D02*
X53695070Y-102384200D01*
X53695070Y-102384200D02*
X53614258Y-102249513D01*
X53614258Y-102249513D02*
X53587321Y-102168701D01*
X53587321Y-102168701D02*
X53587321Y-102114826D01*
X53587321Y-102114826D02*
X53614258Y-102034014D01*
X26005638Y-113702509D02*
X25924826Y-113729446D01*
X25924826Y-113729446D02*
X25844014Y-113810258D01*
X25844014Y-113810258D02*
X25790139Y-113918008D01*
X25790139Y-113918008D02*
X25790139Y-114025758D01*
X25790139Y-114025758D02*
X25817077Y-114106570D01*
X25817077Y-114106570D02*
X25897889Y-114241257D01*
X25897889Y-114241257D02*
X25978701Y-114322069D01*
X25978701Y-114322069D02*
X26113388Y-114402881D01*
X26113388Y-114402881D02*
X26194200Y-114429819D01*
X26194200Y-114429819D02*
X26301950Y-114429819D01*
X26301950Y-114429819D02*
X26409699Y-114375944D01*
X26409699Y-114375944D02*
X26463574Y-114322069D01*
X26463574Y-114322069D02*
X26517449Y-114214319D01*
X26517449Y-114214319D02*
X26517449Y-114160445D01*
X26517449Y-114160445D02*
X26328887Y-113971883D01*
X26328887Y-113971883D02*
X26221138Y-114079632D01*
X26813760Y-113971883D02*
X26248075Y-113406197D01*
X26248075Y-113406197D02*
X26463574Y-113190698D01*
X26463574Y-113190698D02*
X26544386Y-113163761D01*
X26544386Y-113163761D02*
X26598261Y-113163761D01*
X26598261Y-113163761D02*
X26679073Y-113190698D01*
X26679073Y-113190698D02*
X26759886Y-113271510D01*
X26759886Y-113271510D02*
X26786823Y-113352323D01*
X26786823Y-113352323D02*
X26786823Y-113406197D01*
X26786823Y-113406197D02*
X26759886Y-113487010D01*
X26759886Y-113487010D02*
X26544386Y-113702509D01*
X27675757Y-113109886D02*
X27352508Y-113433135D01*
X27514133Y-113271510D02*
X26948447Y-112705825D01*
X26948447Y-112705825D02*
X26975385Y-112840512D01*
X26975385Y-112840512D02*
X26975385Y-112948261D01*
X26975385Y-112948261D02*
X26948447Y-113029074D01*
X27783507Y-112247889D02*
X28160631Y-112625013D01*
X27433321Y-112167077D02*
X27702695Y-112705825D01*
X27702695Y-112705825D02*
X28052881Y-112355638D01*
X26051638Y-116242509D02*
X25970826Y-116269446D01*
X25970826Y-116269446D02*
X25890014Y-116350258D01*
X25890014Y-116350258D02*
X25836139Y-116458008D01*
X25836139Y-116458008D02*
X25836139Y-116565758D01*
X25836139Y-116565758D02*
X25863077Y-116646570D01*
X25863077Y-116646570D02*
X25943889Y-116781257D01*
X25943889Y-116781257D02*
X26024701Y-116862069D01*
X26024701Y-116862069D02*
X26159388Y-116942881D01*
X26159388Y-116942881D02*
X26240200Y-116969819D01*
X26240200Y-116969819D02*
X26347950Y-116969819D01*
X26347950Y-116969819D02*
X26455699Y-116915944D01*
X26455699Y-116915944D02*
X26509574Y-116862069D01*
X26509574Y-116862069D02*
X26563449Y-116754319D01*
X26563449Y-116754319D02*
X26563449Y-116700445D01*
X26563449Y-116700445D02*
X26374887Y-116511883D01*
X26374887Y-116511883D02*
X26267138Y-116619632D01*
X26859760Y-116511883D02*
X26294075Y-115946197D01*
X26294075Y-115946197D02*
X26509574Y-115730698D01*
X26509574Y-115730698D02*
X26590386Y-115703761D01*
X26590386Y-115703761D02*
X26644261Y-115703761D01*
X26644261Y-115703761D02*
X26725073Y-115730698D01*
X26725073Y-115730698D02*
X26805886Y-115811510D01*
X26805886Y-115811510D02*
X26832823Y-115892323D01*
X26832823Y-115892323D02*
X26832823Y-115946197D01*
X26832823Y-115946197D02*
X26805886Y-116027010D01*
X26805886Y-116027010D02*
X26590386Y-116242509D01*
X27721757Y-115649886D02*
X27398508Y-115973135D01*
X27560133Y-115811510D02*
X26994447Y-115245825D01*
X26994447Y-115245825D02*
X27021385Y-115380512D01*
X27021385Y-115380512D02*
X27021385Y-115488261D01*
X27021385Y-115488261D02*
X26994447Y-115569074D01*
X27667883Y-114572390D02*
X27398509Y-114841764D01*
X27398509Y-114841764D02*
X27640945Y-115138075D01*
X27640945Y-115138075D02*
X27640945Y-115084200D01*
X27640945Y-115084200D02*
X27667883Y-115003388D01*
X27667883Y-115003388D02*
X27802570Y-114868701D01*
X27802570Y-114868701D02*
X27883382Y-114841764D01*
X27883382Y-114841764D02*
X27937257Y-114841764D01*
X27937257Y-114841764D02*
X28018069Y-114868701D01*
X28018069Y-114868701D02*
X28152756Y-115003388D01*
X28152756Y-115003388D02*
X28179693Y-115084200D01*
X28179693Y-115084200D02*
X28179693Y-115138075D01*
X28179693Y-115138075D02*
X28152756Y-115218887D01*
X28152756Y-115218887D02*
X28018069Y-115353574D01*
X28018069Y-115353574D02*
X27937257Y-115380512D01*
X27937257Y-115380512D02*
X27883382Y-115380512D01*
X52148076Y-98220072D02*
X52067263Y-98247009D01*
X52067263Y-98247009D02*
X51986451Y-98327821D01*
X51986451Y-98327821D02*
X51932576Y-98435571D01*
X51932576Y-98435571D02*
X51932576Y-98543320D01*
X51932576Y-98543320D02*
X51959514Y-98624133D01*
X51959514Y-98624133D02*
X52040326Y-98758820D01*
X52040326Y-98758820D02*
X52121138Y-98839632D01*
X52121138Y-98839632D02*
X52255825Y-98920444D01*
X52255825Y-98920444D02*
X52336637Y-98947381D01*
X52336637Y-98947381D02*
X52444387Y-98947381D01*
X52444387Y-98947381D02*
X52552137Y-98893507D01*
X52552137Y-98893507D02*
X52606011Y-98839632D01*
X52606011Y-98839632D02*
X52659886Y-98731882D01*
X52659886Y-98731882D02*
X52659886Y-98678007D01*
X52659886Y-98678007D02*
X52471324Y-98489446D01*
X52471324Y-98489446D02*
X52363575Y-98597195D01*
X52956198Y-98489446D02*
X52390512Y-97923760D01*
X52390512Y-97923760D02*
X53279446Y-98166197D01*
X53279446Y-98166197D02*
X52713761Y-97600511D01*
X53548820Y-97896823D02*
X52983135Y-97331137D01*
X52983135Y-97331137D02*
X53117822Y-97196450D01*
X53117822Y-97196450D02*
X53225571Y-97142576D01*
X53225571Y-97142576D02*
X53333321Y-97142576D01*
X53333321Y-97142576D02*
X53414133Y-97169513D01*
X53414133Y-97169513D02*
X53548820Y-97250325D01*
X53548820Y-97250325D02*
X53629632Y-97331137D01*
X53629632Y-97331137D02*
X53710445Y-97465824D01*
X53710445Y-97465824D02*
X53737382Y-97546637D01*
X53737382Y-97546637D02*
X53737382Y-97654386D01*
X53737382Y-97654386D02*
X53683507Y-97762136D01*
X53683507Y-97762136D02*
X53548820Y-97896823D01*
X51951764Y-78212509D02*
X52301950Y-77862322D01*
X52301950Y-77862322D02*
X52328887Y-78266383D01*
X52328887Y-78266383D02*
X52409699Y-78185571D01*
X52409699Y-78185571D02*
X52490512Y-78158634D01*
X52490512Y-78158634D02*
X52544386Y-78158634D01*
X52544386Y-78158634D02*
X52625199Y-78185571D01*
X52625199Y-78185571D02*
X52759886Y-78320258D01*
X52759886Y-78320258D02*
X52786823Y-78401070D01*
X52786823Y-78401070D02*
X52786823Y-78454945D01*
X52786823Y-78454945D02*
X52759886Y-78535757D01*
X52759886Y-78535757D02*
X52598261Y-78697382D01*
X52598261Y-78697382D02*
X52517449Y-78724319D01*
X52517449Y-78724319D02*
X52463574Y-78724319D01*
X52463574Y-77700698D02*
X53217822Y-78077821D01*
X53217822Y-78077821D02*
X52840698Y-77323574D01*
X52975385Y-77188887D02*
X53325571Y-76838701D01*
X53325571Y-76838701D02*
X53352508Y-77242762D01*
X53352508Y-77242762D02*
X53433321Y-77161950D01*
X53433321Y-77161950D02*
X53514133Y-77135013D01*
X53514133Y-77135013D02*
X53568008Y-77135013D01*
X53568008Y-77135013D02*
X53648820Y-77161950D01*
X53648820Y-77161950D02*
X53783507Y-77296637D01*
X53783507Y-77296637D02*
X53810444Y-77377449D01*
X53810444Y-77377449D02*
X53810444Y-77431324D01*
X53810444Y-77431324D02*
X53783507Y-77512136D01*
X53783507Y-77512136D02*
X53621882Y-77673761D01*
X53621882Y-77673761D02*
X53541070Y-77700698D01*
X53541070Y-77700698D02*
X53487195Y-77700698D01*
X52900292Y-93665351D02*
X52442356Y-93584539D01*
X52577043Y-93988600D02*
X52011358Y-93422914D01*
X52011358Y-93422914D02*
X52226857Y-93207415D01*
X52226857Y-93207415D02*
X52307669Y-93180478D01*
X52307669Y-93180478D02*
X52361544Y-93180478D01*
X52361544Y-93180478D02*
X52442356Y-93207415D01*
X52442356Y-93207415D02*
X52523168Y-93288227D01*
X52523168Y-93288227D02*
X52550106Y-93369040D01*
X52550106Y-93369040D02*
X52550106Y-93422914D01*
X52550106Y-93422914D02*
X52523168Y-93503727D01*
X52523168Y-93503727D02*
X52307669Y-93719226D01*
X52577043Y-92857229D02*
X53034979Y-93315165D01*
X53034979Y-93315165D02*
X53115791Y-93342102D01*
X53115791Y-93342102D02*
X53169666Y-93342102D01*
X53169666Y-93342102D02*
X53250478Y-93315165D01*
X53250478Y-93315165D02*
X53358228Y-93207415D01*
X53358228Y-93207415D02*
X53385165Y-93126603D01*
X53385165Y-93126603D02*
X53385165Y-93072728D01*
X53385165Y-93072728D02*
X53358228Y-92991916D01*
X53358228Y-92991916D02*
X52900292Y-92533980D01*
X53735351Y-92830292D02*
X53169666Y-92264606D01*
X53169666Y-92264606D02*
X54058600Y-92507043D01*
X54058600Y-92507043D02*
X53492915Y-91941358D01*
X25905638Y-103542509D02*
X25824826Y-103569446D01*
X25824826Y-103569446D02*
X25744014Y-103650258D01*
X25744014Y-103650258D02*
X25690139Y-103758008D01*
X25690139Y-103758008D02*
X25690139Y-103865758D01*
X25690139Y-103865758D02*
X25717077Y-103946570D01*
X25717077Y-103946570D02*
X25797889Y-104081257D01*
X25797889Y-104081257D02*
X25878701Y-104162069D01*
X25878701Y-104162069D02*
X26013388Y-104242881D01*
X26013388Y-104242881D02*
X26094200Y-104269819D01*
X26094200Y-104269819D02*
X26201950Y-104269819D01*
X26201950Y-104269819D02*
X26309699Y-104215944D01*
X26309699Y-104215944D02*
X26363574Y-104162069D01*
X26363574Y-104162069D02*
X26417449Y-104054319D01*
X26417449Y-104054319D02*
X26417449Y-104000445D01*
X26417449Y-104000445D02*
X26228887Y-103811883D01*
X26228887Y-103811883D02*
X26121138Y-103919632D01*
X26713760Y-103811883D02*
X26148075Y-103246197D01*
X26148075Y-103246197D02*
X26363574Y-103030698D01*
X26363574Y-103030698D02*
X26444386Y-103003761D01*
X26444386Y-103003761D02*
X26498261Y-103003761D01*
X26498261Y-103003761D02*
X26579073Y-103030698D01*
X26579073Y-103030698D02*
X26659886Y-103111510D01*
X26659886Y-103111510D02*
X26686823Y-103192323D01*
X26686823Y-103192323D02*
X26686823Y-103246197D01*
X26686823Y-103246197D02*
X26659886Y-103327010D01*
X26659886Y-103327010D02*
X26444386Y-103542509D01*
X27575757Y-102949886D02*
X27252508Y-103273135D01*
X27414133Y-103111510D02*
X26848447Y-102545825D01*
X26848447Y-102545825D02*
X26875385Y-102680512D01*
X26875385Y-102680512D02*
X26875385Y-102788261D01*
X26875385Y-102788261D02*
X26848447Y-102869074D01*
X28114505Y-102411138D02*
X27791257Y-102734387D01*
X27952881Y-102572762D02*
X27387196Y-102007077D01*
X27387196Y-102007077D02*
X27414133Y-102141764D01*
X27414133Y-102141764D02*
X27414133Y-102249513D01*
X27414133Y-102249513D02*
X27387196Y-102330326D01*
X26575013Y-93113134D02*
X26494201Y-93140072D01*
X26494201Y-93140072D02*
X26413388Y-93220884D01*
X26413388Y-93220884D02*
X26359514Y-93328633D01*
X26359514Y-93328633D02*
X26359514Y-93436383D01*
X26359514Y-93436383D02*
X26386451Y-93517195D01*
X26386451Y-93517195D02*
X26467263Y-93651882D01*
X26467263Y-93651882D02*
X26548075Y-93732695D01*
X26548075Y-93732695D02*
X26682762Y-93813507D01*
X26682762Y-93813507D02*
X26763575Y-93840444D01*
X26763575Y-93840444D02*
X26871324Y-93840444D01*
X26871324Y-93840444D02*
X26979074Y-93786569D01*
X26979074Y-93786569D02*
X27032949Y-93732695D01*
X27032949Y-93732695D02*
X27086823Y-93624945D01*
X27086823Y-93624945D02*
X27086823Y-93571070D01*
X27086823Y-93571070D02*
X26898262Y-93382508D01*
X26898262Y-93382508D02*
X26790512Y-93490258D01*
X27383135Y-93382508D02*
X26817449Y-92816823D01*
X26817449Y-92816823D02*
X27032949Y-92601324D01*
X27032949Y-92601324D02*
X27113761Y-92574386D01*
X27113761Y-92574386D02*
X27167636Y-92574386D01*
X27167636Y-92574386D02*
X27248448Y-92601324D01*
X27248448Y-92601324D02*
X27329260Y-92682136D01*
X27329260Y-92682136D02*
X27356197Y-92762948D01*
X27356197Y-92762948D02*
X27356197Y-92816823D01*
X27356197Y-92816823D02*
X27329260Y-92897635D01*
X27329260Y-92897635D02*
X27113761Y-93113134D01*
X27706384Y-92412762D02*
X27625571Y-92439699D01*
X27625571Y-92439699D02*
X27571697Y-92439699D01*
X27571697Y-92439699D02*
X27490884Y-92412762D01*
X27490884Y-92412762D02*
X27463947Y-92385824D01*
X27463947Y-92385824D02*
X27437010Y-92305012D01*
X27437010Y-92305012D02*
X27437010Y-92251137D01*
X27437010Y-92251137D02*
X27463947Y-92170325D01*
X27463947Y-92170325D02*
X27571697Y-92062576D01*
X27571697Y-92062576D02*
X27652509Y-92035638D01*
X27652509Y-92035638D02*
X27706384Y-92035638D01*
X27706384Y-92035638D02*
X27787196Y-92062576D01*
X27787196Y-92062576D02*
X27814133Y-92089513D01*
X27814133Y-92089513D02*
X27841071Y-92170325D01*
X27841071Y-92170325D02*
X27841071Y-92224200D01*
X27841071Y-92224200D02*
X27814133Y-92305012D01*
X27814133Y-92305012D02*
X27706384Y-92412762D01*
X27706384Y-92412762D02*
X27679446Y-92493574D01*
X27679446Y-92493574D02*
X27679446Y-92547449D01*
X27679446Y-92547449D02*
X27706384Y-92628261D01*
X27706384Y-92628261D02*
X27814133Y-92736011D01*
X27814133Y-92736011D02*
X27894945Y-92762948D01*
X27894945Y-92762948D02*
X27948820Y-92762948D01*
X27948820Y-92762948D02*
X28029632Y-92736011D01*
X28029632Y-92736011D02*
X28137382Y-92628261D01*
X28137382Y-92628261D02*
X28164319Y-92547449D01*
X28164319Y-92547449D02*
X28164319Y-92493574D01*
X28164319Y-92493574D02*
X28137382Y-92412762D01*
X28137382Y-92412762D02*
X28029632Y-92305012D01*
X28029632Y-92305012D02*
X27948820Y-92278075D01*
X27948820Y-92278075D02*
X27894945Y-92278075D01*
X27894945Y-92278075D02*
X27814133Y-92305012D01*
X26475013Y-70243134D02*
X26394201Y-70270072D01*
X26394201Y-70270072D02*
X26313388Y-70350884D01*
X26313388Y-70350884D02*
X26259514Y-70458633D01*
X26259514Y-70458633D02*
X26259514Y-70566383D01*
X26259514Y-70566383D02*
X26286451Y-70647195D01*
X26286451Y-70647195D02*
X26367263Y-70781882D01*
X26367263Y-70781882D02*
X26448075Y-70862695D01*
X26448075Y-70862695D02*
X26582762Y-70943507D01*
X26582762Y-70943507D02*
X26663575Y-70970444D01*
X26663575Y-70970444D02*
X26771324Y-70970444D01*
X26771324Y-70970444D02*
X26879074Y-70916569D01*
X26879074Y-70916569D02*
X26932949Y-70862695D01*
X26932949Y-70862695D02*
X26986823Y-70754945D01*
X26986823Y-70754945D02*
X26986823Y-70701070D01*
X26986823Y-70701070D02*
X26798262Y-70512508D01*
X26798262Y-70512508D02*
X26690512Y-70620258D01*
X27283135Y-70512508D02*
X26717449Y-69946823D01*
X26717449Y-69946823D02*
X26932949Y-69731324D01*
X26932949Y-69731324D02*
X27013761Y-69704386D01*
X27013761Y-69704386D02*
X27067636Y-69704386D01*
X27067636Y-69704386D02*
X27148448Y-69731324D01*
X27148448Y-69731324D02*
X27229260Y-69812136D01*
X27229260Y-69812136D02*
X27256197Y-69892948D01*
X27256197Y-69892948D02*
X27256197Y-69946823D01*
X27256197Y-69946823D02*
X27229260Y-70027635D01*
X27229260Y-70027635D02*
X27013761Y-70243134D01*
X28145132Y-69650511D02*
X27821883Y-69973760D01*
X27983507Y-69812136D02*
X27417822Y-69246450D01*
X27417822Y-69246450D02*
X27444759Y-69381137D01*
X27444759Y-69381137D02*
X27444759Y-69488887D01*
X27444759Y-69488887D02*
X27417822Y-69569699D01*
X26575013Y-67713134D02*
X26494201Y-67740072D01*
X26494201Y-67740072D02*
X26413388Y-67820884D01*
X26413388Y-67820884D02*
X26359514Y-67928633D01*
X26359514Y-67928633D02*
X26359514Y-68036383D01*
X26359514Y-68036383D02*
X26386451Y-68117195D01*
X26386451Y-68117195D02*
X26467263Y-68251882D01*
X26467263Y-68251882D02*
X26548075Y-68332695D01*
X26548075Y-68332695D02*
X26682762Y-68413507D01*
X26682762Y-68413507D02*
X26763575Y-68440444D01*
X26763575Y-68440444D02*
X26871324Y-68440444D01*
X26871324Y-68440444D02*
X26979074Y-68386569D01*
X26979074Y-68386569D02*
X27032949Y-68332695D01*
X27032949Y-68332695D02*
X27086823Y-68224945D01*
X27086823Y-68224945D02*
X27086823Y-68171070D01*
X27086823Y-68171070D02*
X26898262Y-67982508D01*
X26898262Y-67982508D02*
X26790512Y-68090258D01*
X27383135Y-67982508D02*
X26817449Y-67416823D01*
X26817449Y-67416823D02*
X27032949Y-67201324D01*
X27032949Y-67201324D02*
X27113761Y-67174386D01*
X27113761Y-67174386D02*
X27167636Y-67174386D01*
X27167636Y-67174386D02*
X27248448Y-67201324D01*
X27248448Y-67201324D02*
X27329260Y-67282136D01*
X27329260Y-67282136D02*
X27356197Y-67362948D01*
X27356197Y-67362948D02*
X27356197Y-67416823D01*
X27356197Y-67416823D02*
X27329260Y-67497635D01*
X27329260Y-67497635D02*
X27113761Y-67713134D01*
X27490884Y-66743388D02*
X27544759Y-66689513D01*
X27544759Y-66689513D02*
X27625571Y-66662576D01*
X27625571Y-66662576D02*
X27679446Y-66662576D01*
X27679446Y-66662576D02*
X27760258Y-66689513D01*
X27760258Y-66689513D02*
X27894945Y-66770325D01*
X27894945Y-66770325D02*
X28029632Y-66905012D01*
X28029632Y-66905012D02*
X28110445Y-67039699D01*
X28110445Y-67039699D02*
X28137382Y-67120511D01*
X28137382Y-67120511D02*
X28137382Y-67174386D01*
X28137382Y-67174386D02*
X28110445Y-67255198D01*
X28110445Y-67255198D02*
X28056570Y-67309073D01*
X28056570Y-67309073D02*
X27975758Y-67336011D01*
X27975758Y-67336011D02*
X27921883Y-67336011D01*
X27921883Y-67336011D02*
X27841071Y-67309073D01*
X27841071Y-67309073D02*
X27706384Y-67228261D01*
X27706384Y-67228261D02*
X27571697Y-67093574D01*
X27571697Y-67093574D02*
X27490884Y-66958887D01*
X27490884Y-66958887D02*
X27463947Y-66878075D01*
X27463947Y-66878075D02*
X27463947Y-66824200D01*
X27463947Y-66824200D02*
X27490884Y-66743388D01*
X52159638Y-116242509D02*
X52078826Y-116269446D01*
X52078826Y-116269446D02*
X51998014Y-116350258D01*
X51998014Y-116350258D02*
X51944139Y-116458008D01*
X51944139Y-116458008D02*
X51944139Y-116565758D01*
X51944139Y-116565758D02*
X51971077Y-116646570D01*
X51971077Y-116646570D02*
X52051889Y-116781257D01*
X52051889Y-116781257D02*
X52132701Y-116862069D01*
X52132701Y-116862069D02*
X52267388Y-116942881D01*
X52267388Y-116942881D02*
X52348200Y-116969819D01*
X52348200Y-116969819D02*
X52455950Y-116969819D01*
X52455950Y-116969819D02*
X52563699Y-116915944D01*
X52563699Y-116915944D02*
X52617574Y-116862069D01*
X52617574Y-116862069D02*
X52671449Y-116754319D01*
X52671449Y-116754319D02*
X52671449Y-116700445D01*
X52671449Y-116700445D02*
X52482887Y-116511883D01*
X52482887Y-116511883D02*
X52375138Y-116619632D01*
X52967760Y-116511883D02*
X52402075Y-115946197D01*
X52402075Y-115946197D02*
X52617574Y-115730698D01*
X52617574Y-115730698D02*
X52698386Y-115703761D01*
X52698386Y-115703761D02*
X52752261Y-115703761D01*
X52752261Y-115703761D02*
X52833073Y-115730698D01*
X52833073Y-115730698D02*
X52913886Y-115811510D01*
X52913886Y-115811510D02*
X52940823Y-115892323D01*
X52940823Y-115892323D02*
X52940823Y-115946197D01*
X52940823Y-115946197D02*
X52913886Y-116027010D01*
X52913886Y-116027010D02*
X52698386Y-116242509D01*
X53829757Y-115649886D02*
X53506508Y-115973135D01*
X53668133Y-115811510D02*
X53102447Y-115245825D01*
X53102447Y-115245825D02*
X53129385Y-115380512D01*
X53129385Y-115380512D02*
X53129385Y-115488261D01*
X53129385Y-115488261D02*
X53102447Y-115569074D01*
X53748945Y-114599327D02*
X53641196Y-114707077D01*
X53641196Y-114707077D02*
X53614258Y-114787889D01*
X53614258Y-114787889D02*
X53614258Y-114841764D01*
X53614258Y-114841764D02*
X53641196Y-114976451D01*
X53641196Y-114976451D02*
X53722008Y-115111138D01*
X53722008Y-115111138D02*
X53937507Y-115326637D01*
X53937507Y-115326637D02*
X54018319Y-115353574D01*
X54018319Y-115353574D02*
X54072194Y-115353574D01*
X54072194Y-115353574D02*
X54153006Y-115326637D01*
X54153006Y-115326637D02*
X54260756Y-115218887D01*
X54260756Y-115218887D02*
X54287693Y-115138075D01*
X54287693Y-115138075D02*
X54287693Y-115084200D01*
X54287693Y-115084200D02*
X54260756Y-115003388D01*
X54260756Y-115003388D02*
X54126069Y-114868701D01*
X54126069Y-114868701D02*
X54045257Y-114841764D01*
X54045257Y-114841764D02*
X53991382Y-114841764D01*
X53991382Y-114841764D02*
X53910570Y-114868701D01*
X53910570Y-114868701D02*
X53802820Y-114976451D01*
X53802820Y-114976451D02*
X53775883Y-115057263D01*
X53775883Y-115057263D02*
X53775883Y-115111138D01*
X53775883Y-115111138D02*
X53802820Y-115191950D01*
X52213514Y-86462880D02*
X52482888Y-86193506D01*
X52321263Y-86678380D02*
X51944140Y-85924132D01*
X51944140Y-85924132D02*
X52698387Y-86301256D01*
X52644512Y-85277635D02*
X52563700Y-85304572D01*
X52563700Y-85304572D02*
X52482888Y-85385385D01*
X52482888Y-85385385D02*
X52429013Y-85493134D01*
X52429013Y-85493134D02*
X52429013Y-85600884D01*
X52429013Y-85600884D02*
X52455950Y-85681696D01*
X52455950Y-85681696D02*
X52536762Y-85816383D01*
X52536762Y-85816383D02*
X52617575Y-85897195D01*
X52617575Y-85897195D02*
X52752262Y-85978007D01*
X52752262Y-85978007D02*
X52833074Y-86004945D01*
X52833074Y-86004945D02*
X52940823Y-86004945D01*
X52940823Y-86004945D02*
X53048573Y-85951070D01*
X53048573Y-85951070D02*
X53102448Y-85897195D01*
X53102448Y-85897195D02*
X53156323Y-85789446D01*
X53156323Y-85789446D02*
X53156323Y-85735571D01*
X53156323Y-85735571D02*
X52967761Y-85547009D01*
X52967761Y-85547009D02*
X52860011Y-85654759D01*
X53452634Y-85547009D02*
X52886949Y-84981324D01*
X52886949Y-84981324D02*
X53775883Y-85223760D01*
X53775883Y-85223760D02*
X53210197Y-84658075D01*
X54045257Y-84954386D02*
X53479571Y-84388701D01*
X53479571Y-84388701D02*
X53614258Y-84254014D01*
X53614258Y-84254014D02*
X53722008Y-84200139D01*
X53722008Y-84200139D02*
X53829758Y-84200139D01*
X53829758Y-84200139D02*
X53910570Y-84227077D01*
X53910570Y-84227077D02*
X54045257Y-84307889D01*
X54045257Y-84307889D02*
X54126069Y-84388701D01*
X54126069Y-84388701D02*
X54206881Y-84523388D01*
X54206881Y-84523388D02*
X54233819Y-84604200D01*
X54233819Y-84604200D02*
X54233819Y-84711950D01*
X54233819Y-84711950D02*
X54179944Y-84819699D01*
X54179944Y-84819699D02*
X54045257Y-84954386D01*
X26548076Y-110920072D02*
X26467263Y-110947009D01*
X26467263Y-110947009D02*
X26386451Y-111027821D01*
X26386451Y-111027821D02*
X26332576Y-111135571D01*
X26332576Y-111135571D02*
X26332576Y-111243320D01*
X26332576Y-111243320D02*
X26359514Y-111324133D01*
X26359514Y-111324133D02*
X26440326Y-111458820D01*
X26440326Y-111458820D02*
X26521138Y-111539632D01*
X26521138Y-111539632D02*
X26655825Y-111620444D01*
X26655825Y-111620444D02*
X26736637Y-111647381D01*
X26736637Y-111647381D02*
X26844387Y-111647381D01*
X26844387Y-111647381D02*
X26952137Y-111593507D01*
X26952137Y-111593507D02*
X27006011Y-111539632D01*
X27006011Y-111539632D02*
X27059886Y-111431882D01*
X27059886Y-111431882D02*
X27059886Y-111378007D01*
X27059886Y-111378007D02*
X26871324Y-111189446D01*
X26871324Y-111189446D02*
X26763575Y-111297195D01*
X27356198Y-111189446D02*
X26790512Y-110623760D01*
X26790512Y-110623760D02*
X27679446Y-110866197D01*
X27679446Y-110866197D02*
X27113761Y-110300511D01*
X27948820Y-110596823D02*
X27383135Y-110031137D01*
X27383135Y-110031137D02*
X27517822Y-109896450D01*
X27517822Y-109896450D02*
X27625571Y-109842576D01*
X27625571Y-109842576D02*
X27733321Y-109842576D01*
X27733321Y-109842576D02*
X27814133Y-109869513D01*
X27814133Y-109869513D02*
X27948820Y-109950325D01*
X27948820Y-109950325D02*
X28029632Y-110031137D01*
X28029632Y-110031137D02*
X28110445Y-110165824D01*
X28110445Y-110165824D02*
X28137382Y-110246637D01*
X28137382Y-110246637D02*
X28137382Y-110354386D01*
X28137382Y-110354386D02*
X28083507Y-110462136D01*
X28083507Y-110462136D02*
X27948820Y-110596823D01*
X52148076Y-110920072D02*
X52067263Y-110947009D01*
X52067263Y-110947009D02*
X51986451Y-111027821D01*
X51986451Y-111027821D02*
X51932576Y-111135571D01*
X51932576Y-111135571D02*
X51932576Y-111243320D01*
X51932576Y-111243320D02*
X51959514Y-111324133D01*
X51959514Y-111324133D02*
X52040326Y-111458820D01*
X52040326Y-111458820D02*
X52121138Y-111539632D01*
X52121138Y-111539632D02*
X52255825Y-111620444D01*
X52255825Y-111620444D02*
X52336637Y-111647381D01*
X52336637Y-111647381D02*
X52444387Y-111647381D01*
X52444387Y-111647381D02*
X52552137Y-111593507D01*
X52552137Y-111593507D02*
X52606011Y-111539632D01*
X52606011Y-111539632D02*
X52659886Y-111431882D01*
X52659886Y-111431882D02*
X52659886Y-111378007D01*
X52659886Y-111378007D02*
X52471324Y-111189446D01*
X52471324Y-111189446D02*
X52363575Y-111297195D01*
X52956198Y-111189446D02*
X52390512Y-110623760D01*
X52390512Y-110623760D02*
X53279446Y-110866197D01*
X53279446Y-110866197D02*
X52713761Y-110300511D01*
X53548820Y-110596823D02*
X52983135Y-110031137D01*
X52983135Y-110031137D02*
X53117822Y-109896450D01*
X53117822Y-109896450D02*
X53225571Y-109842576D01*
X53225571Y-109842576D02*
X53333321Y-109842576D01*
X53333321Y-109842576D02*
X53414133Y-109869513D01*
X53414133Y-109869513D02*
X53548820Y-109950325D01*
X53548820Y-109950325D02*
X53629632Y-110031137D01*
X53629632Y-110031137D02*
X53710445Y-110165824D01*
X53710445Y-110165824D02*
X53737382Y-110246637D01*
X53737382Y-110246637D02*
X53737382Y-110354386D01*
X53737382Y-110354386D02*
X53683507Y-110462136D01*
X53683507Y-110462136D02*
X53548820Y-110596823D01*
X26051638Y-101002509D02*
X25970826Y-101029446D01*
X25970826Y-101029446D02*
X25890014Y-101110258D01*
X25890014Y-101110258D02*
X25836139Y-101218008D01*
X25836139Y-101218008D02*
X25836139Y-101325758D01*
X25836139Y-101325758D02*
X25863077Y-101406570D01*
X25863077Y-101406570D02*
X25943889Y-101541257D01*
X25943889Y-101541257D02*
X26024701Y-101622069D01*
X26024701Y-101622069D02*
X26159388Y-101702881D01*
X26159388Y-101702881D02*
X26240200Y-101729819D01*
X26240200Y-101729819D02*
X26347950Y-101729819D01*
X26347950Y-101729819D02*
X26455699Y-101675944D01*
X26455699Y-101675944D02*
X26509574Y-101622069D01*
X26509574Y-101622069D02*
X26563449Y-101514319D01*
X26563449Y-101514319D02*
X26563449Y-101460445D01*
X26563449Y-101460445D02*
X26374887Y-101271883D01*
X26374887Y-101271883D02*
X26267138Y-101379632D01*
X26859760Y-101271883D02*
X26294075Y-100706197D01*
X26294075Y-100706197D02*
X26509574Y-100490698D01*
X26509574Y-100490698D02*
X26590386Y-100463761D01*
X26590386Y-100463761D02*
X26644261Y-100463761D01*
X26644261Y-100463761D02*
X26725073Y-100490698D01*
X26725073Y-100490698D02*
X26805886Y-100571510D01*
X26805886Y-100571510D02*
X26832823Y-100652323D01*
X26832823Y-100652323D02*
X26832823Y-100706197D01*
X26832823Y-100706197D02*
X26805886Y-100787010D01*
X26805886Y-100787010D02*
X26590386Y-101002509D01*
X27721757Y-100409886D02*
X27398508Y-100733135D01*
X27560133Y-100571510D02*
X26994447Y-100005825D01*
X26994447Y-100005825D02*
X27021385Y-100140512D01*
X27021385Y-100140512D02*
X27021385Y-100248261D01*
X27021385Y-100248261D02*
X26994447Y-100329074D01*
X27506258Y-99494014D02*
X27560133Y-99440139D01*
X27560133Y-99440139D02*
X27640945Y-99413202D01*
X27640945Y-99413202D02*
X27694820Y-99413202D01*
X27694820Y-99413202D02*
X27775632Y-99440139D01*
X27775632Y-99440139D02*
X27910319Y-99520951D01*
X27910319Y-99520951D02*
X28045006Y-99655638D01*
X28045006Y-99655638D02*
X28125818Y-99790326D01*
X28125818Y-99790326D02*
X28152756Y-99871138D01*
X28152756Y-99871138D02*
X28152756Y-99925013D01*
X28152756Y-99925013D02*
X28125818Y-100005825D01*
X28125818Y-100005825D02*
X28071944Y-100059700D01*
X28071944Y-100059700D02*
X27991131Y-100086637D01*
X27991131Y-100086637D02*
X27937257Y-100086637D01*
X27937257Y-100086637D02*
X27856444Y-100059700D01*
X27856444Y-100059700D02*
X27721757Y-99978887D01*
X27721757Y-99978887D02*
X27587070Y-99844200D01*
X27587070Y-99844200D02*
X27506258Y-99709513D01*
X27506258Y-99709513D02*
X27479321Y-99628701D01*
X27479321Y-99628701D02*
X27479321Y-99574826D01*
X27479321Y-99574826D02*
X27506258Y-99494014D01*
X52159638Y-101012509D02*
X52078826Y-101039446D01*
X52078826Y-101039446D02*
X51998014Y-101120258D01*
X51998014Y-101120258D02*
X51944139Y-101228008D01*
X51944139Y-101228008D02*
X51944139Y-101335758D01*
X51944139Y-101335758D02*
X51971077Y-101416570D01*
X51971077Y-101416570D02*
X52051889Y-101551257D01*
X52051889Y-101551257D02*
X52132701Y-101632069D01*
X52132701Y-101632069D02*
X52267388Y-101712881D01*
X52267388Y-101712881D02*
X52348200Y-101739819D01*
X52348200Y-101739819D02*
X52455950Y-101739819D01*
X52455950Y-101739819D02*
X52563699Y-101685944D01*
X52563699Y-101685944D02*
X52617574Y-101632069D01*
X52617574Y-101632069D02*
X52671449Y-101524319D01*
X52671449Y-101524319D02*
X52671449Y-101470445D01*
X52671449Y-101470445D02*
X52482887Y-101281883D01*
X52482887Y-101281883D02*
X52375138Y-101389632D01*
X52967760Y-101281883D02*
X52402075Y-100716197D01*
X52402075Y-100716197D02*
X52617574Y-100500698D01*
X52617574Y-100500698D02*
X52698386Y-100473761D01*
X52698386Y-100473761D02*
X52752261Y-100473761D01*
X52752261Y-100473761D02*
X52833073Y-100500698D01*
X52833073Y-100500698D02*
X52913886Y-100581510D01*
X52913886Y-100581510D02*
X52940823Y-100662323D01*
X52940823Y-100662323D02*
X52940823Y-100716197D01*
X52940823Y-100716197D02*
X52913886Y-100797010D01*
X52913886Y-100797010D02*
X52698386Y-101012509D01*
X52994698Y-100231324D02*
X52994698Y-100177449D01*
X52994698Y-100177449D02*
X53021635Y-100096637D01*
X53021635Y-100096637D02*
X53156322Y-99961950D01*
X53156322Y-99961950D02*
X53237134Y-99935013D01*
X53237134Y-99935013D02*
X53291009Y-99935013D01*
X53291009Y-99935013D02*
X53371821Y-99961950D01*
X53371821Y-99961950D02*
X53425696Y-100015825D01*
X53425696Y-100015825D02*
X53479571Y-100123574D01*
X53479571Y-100123574D02*
X53479571Y-100770072D01*
X53479571Y-100770072D02*
X53829757Y-100419886D01*
X54368505Y-99881138D02*
X54045257Y-100204387D01*
X54206881Y-100042762D02*
X53641196Y-99477077D01*
X53641196Y-99477077D02*
X53668133Y-99611764D01*
X53668133Y-99611764D02*
X53668133Y-99719513D01*
X53668133Y-99719513D02*
X53641196Y-99800326D01*
X52159638Y-82968509D02*
X52078826Y-82995446D01*
X52078826Y-82995446D02*
X51998014Y-83076258D01*
X51998014Y-83076258D02*
X51944139Y-83184008D01*
X51944139Y-83184008D02*
X51944139Y-83291758D01*
X51944139Y-83291758D02*
X51971077Y-83372570D01*
X51971077Y-83372570D02*
X52051889Y-83507257D01*
X52051889Y-83507257D02*
X52132701Y-83588069D01*
X52132701Y-83588069D02*
X52267388Y-83668881D01*
X52267388Y-83668881D02*
X52348200Y-83695819D01*
X52348200Y-83695819D02*
X52455950Y-83695819D01*
X52455950Y-83695819D02*
X52563699Y-83641944D01*
X52563699Y-83641944D02*
X52617574Y-83588069D01*
X52617574Y-83588069D02*
X52671449Y-83480319D01*
X52671449Y-83480319D02*
X52671449Y-83426445D01*
X52671449Y-83426445D02*
X52482887Y-83237883D01*
X52482887Y-83237883D02*
X52375138Y-83345632D01*
X52967760Y-83237883D02*
X52402075Y-82672197D01*
X52402075Y-82672197D02*
X52617574Y-82456698D01*
X52617574Y-82456698D02*
X52698386Y-82429761D01*
X52698386Y-82429761D02*
X52752261Y-82429761D01*
X52752261Y-82429761D02*
X52833073Y-82456698D01*
X52833073Y-82456698D02*
X52913886Y-82537510D01*
X52913886Y-82537510D02*
X52940823Y-82618323D01*
X52940823Y-82618323D02*
X52940823Y-82672197D01*
X52940823Y-82672197D02*
X52913886Y-82753010D01*
X52913886Y-82753010D02*
X52698386Y-82968509D01*
X52994698Y-82187324D02*
X52994698Y-82133449D01*
X52994698Y-82133449D02*
X53021635Y-82052637D01*
X53021635Y-82052637D02*
X53156322Y-81917950D01*
X53156322Y-81917950D02*
X53237134Y-81891013D01*
X53237134Y-81891013D02*
X53291009Y-81891013D01*
X53291009Y-81891013D02*
X53371821Y-81917950D01*
X53371821Y-81917950D02*
X53425696Y-81971825D01*
X53425696Y-81971825D02*
X53479571Y-82079574D01*
X53479571Y-82079574D02*
X53479571Y-82726072D01*
X53479571Y-82726072D02*
X53829757Y-82375886D01*
X53829757Y-81729388D02*
X53748945Y-81756326D01*
X53748945Y-81756326D02*
X53695070Y-81756326D01*
X53695070Y-81756326D02*
X53614258Y-81729388D01*
X53614258Y-81729388D02*
X53587321Y-81702451D01*
X53587321Y-81702451D02*
X53560383Y-81621638D01*
X53560383Y-81621638D02*
X53560383Y-81567764D01*
X53560383Y-81567764D02*
X53587321Y-81486951D01*
X53587321Y-81486951D02*
X53695070Y-81379202D01*
X53695070Y-81379202D02*
X53775883Y-81352264D01*
X53775883Y-81352264D02*
X53829757Y-81352264D01*
X53829757Y-81352264D02*
X53910570Y-81379202D01*
X53910570Y-81379202D02*
X53937507Y-81406139D01*
X53937507Y-81406139D02*
X53964444Y-81486951D01*
X53964444Y-81486951D02*
X53964444Y-81540826D01*
X53964444Y-81540826D02*
X53937507Y-81621638D01*
X53937507Y-81621638D02*
X53829757Y-81729388D01*
X53829757Y-81729388D02*
X53802820Y-81810200D01*
X53802820Y-81810200D02*
X53802820Y-81864075D01*
X53802820Y-81864075D02*
X53829757Y-81944887D01*
X53829757Y-81944887D02*
X53937507Y-82052637D01*
X53937507Y-82052637D02*
X54018319Y-82079574D01*
X54018319Y-82079574D02*
X54072194Y-82079574D01*
X54072194Y-82079574D02*
X54153006Y-82052637D01*
X54153006Y-82052637D02*
X54260756Y-81944887D01*
X54260756Y-81944887D02*
X54287693Y-81864075D01*
X54287693Y-81864075D02*
X54287693Y-81810200D01*
X54287693Y-81810200D02*
X54260756Y-81729388D01*
X54260756Y-81729388D02*
X54153006Y-81621638D01*
X54153006Y-81621638D02*
X54072194Y-81594701D01*
X54072194Y-81594701D02*
X54018319Y-81594701D01*
X54018319Y-81594701D02*
X53937507Y-81621638D01*
X52148076Y-72820072D02*
X52067263Y-72847009D01*
X52067263Y-72847009D02*
X51986451Y-72927821D01*
X51986451Y-72927821D02*
X51932576Y-73035571D01*
X51932576Y-73035571D02*
X51932576Y-73143320D01*
X51932576Y-73143320D02*
X51959514Y-73224133D01*
X51959514Y-73224133D02*
X52040326Y-73358820D01*
X52040326Y-73358820D02*
X52121138Y-73439632D01*
X52121138Y-73439632D02*
X52255825Y-73520444D01*
X52255825Y-73520444D02*
X52336637Y-73547381D01*
X52336637Y-73547381D02*
X52444387Y-73547381D01*
X52444387Y-73547381D02*
X52552137Y-73493507D01*
X52552137Y-73493507D02*
X52606011Y-73439632D01*
X52606011Y-73439632D02*
X52659886Y-73331882D01*
X52659886Y-73331882D02*
X52659886Y-73278007D01*
X52659886Y-73278007D02*
X52471324Y-73089446D01*
X52471324Y-73089446D02*
X52363575Y-73197195D01*
X52956198Y-73089446D02*
X52390512Y-72523760D01*
X52390512Y-72523760D02*
X53279446Y-72766197D01*
X53279446Y-72766197D02*
X52713761Y-72200511D01*
X53548820Y-72496823D02*
X52983135Y-71931137D01*
X52983135Y-71931137D02*
X53117822Y-71796450D01*
X53117822Y-71796450D02*
X53225571Y-71742576D01*
X53225571Y-71742576D02*
X53333321Y-71742576D01*
X53333321Y-71742576D02*
X53414133Y-71769513D01*
X53414133Y-71769513D02*
X53548820Y-71850325D01*
X53548820Y-71850325D02*
X53629632Y-71931137D01*
X53629632Y-71931137D02*
X53710445Y-72065824D01*
X53710445Y-72065824D02*
X53737382Y-72146637D01*
X53737382Y-72146637D02*
X53737382Y-72254386D01*
X53737382Y-72254386D02*
X53683507Y-72362136D01*
X53683507Y-72362136D02*
X53548820Y-72496823D01*
X51982390Y-70791883D02*
X52736637Y-71169006D01*
X52736637Y-71169006D02*
X52359513Y-70414759D01*
X53059886Y-70791883D02*
X53167635Y-70738008D01*
X53167635Y-70738008D02*
X53302322Y-70603321D01*
X53302322Y-70603321D02*
X53329260Y-70522509D01*
X53329260Y-70522509D02*
X53329260Y-70468634D01*
X53329260Y-70468634D02*
X53302322Y-70387822D01*
X53302322Y-70387822D02*
X53248447Y-70333947D01*
X53248447Y-70333947D02*
X53167635Y-70307010D01*
X53167635Y-70307010D02*
X53113760Y-70307010D01*
X53113760Y-70307010D02*
X53032948Y-70333947D01*
X53032948Y-70333947D02*
X52898261Y-70414759D01*
X52898261Y-70414759D02*
X52817449Y-70441697D01*
X52817449Y-70441697D02*
X52763574Y-70441697D01*
X52763574Y-70441697D02*
X52682762Y-70414759D01*
X52682762Y-70414759D02*
X52628887Y-70360884D01*
X52628887Y-70360884D02*
X52601950Y-70280072D01*
X52601950Y-70280072D02*
X52601950Y-70226197D01*
X52601950Y-70226197D02*
X52628887Y-70145385D01*
X52628887Y-70145385D02*
X52763574Y-70010698D01*
X52763574Y-70010698D02*
X52871324Y-69956823D01*
X53490884Y-69876011D02*
X53760258Y-70145385D01*
X53006011Y-69768261D02*
X53490884Y-69876011D01*
X53490884Y-69876011D02*
X53383135Y-69391138D01*
X54083507Y-69768262D02*
X54191256Y-69714387D01*
X54191256Y-69714387D02*
X54325943Y-69579700D01*
X54325943Y-69579700D02*
X54352881Y-69498888D01*
X54352881Y-69498888D02*
X54352881Y-69445013D01*
X54352881Y-69445013D02*
X54325943Y-69364201D01*
X54325943Y-69364201D02*
X54272069Y-69310326D01*
X54272069Y-69310326D02*
X54191256Y-69283388D01*
X54191256Y-69283388D02*
X54137382Y-69283388D01*
X54137382Y-69283388D02*
X54056569Y-69310326D01*
X54056569Y-69310326D02*
X53921882Y-69391138D01*
X53921882Y-69391138D02*
X53841070Y-69418075D01*
X53841070Y-69418075D02*
X53787195Y-69418075D01*
X53787195Y-69418075D02*
X53706383Y-69391138D01*
X53706383Y-69391138D02*
X53652508Y-69337263D01*
X53652508Y-69337263D02*
X53625571Y-69256451D01*
X53625571Y-69256451D02*
X53625571Y-69202576D01*
X53625571Y-69202576D02*
X53652508Y-69121764D01*
X53652508Y-69121764D02*
X53787195Y-68987077D01*
X53787195Y-68987077D02*
X53894945Y-68933202D01*
X26575013Y-82953134D02*
X26494201Y-82980072D01*
X26494201Y-82980072D02*
X26413388Y-83060884D01*
X26413388Y-83060884D02*
X26359514Y-83168633D01*
X26359514Y-83168633D02*
X26359514Y-83276383D01*
X26359514Y-83276383D02*
X26386451Y-83357195D01*
X26386451Y-83357195D02*
X26467263Y-83491882D01*
X26467263Y-83491882D02*
X26548075Y-83572695D01*
X26548075Y-83572695D02*
X26682762Y-83653507D01*
X26682762Y-83653507D02*
X26763575Y-83680444D01*
X26763575Y-83680444D02*
X26871324Y-83680444D01*
X26871324Y-83680444D02*
X26979074Y-83626569D01*
X26979074Y-83626569D02*
X27032949Y-83572695D01*
X27032949Y-83572695D02*
X27086823Y-83464945D01*
X27086823Y-83464945D02*
X27086823Y-83411070D01*
X27086823Y-83411070D02*
X26898262Y-83222508D01*
X26898262Y-83222508D02*
X26790512Y-83330258D01*
X27383135Y-83222508D02*
X26817449Y-82656823D01*
X26817449Y-82656823D02*
X27032949Y-82441324D01*
X27032949Y-82441324D02*
X27113761Y-82414386D01*
X27113761Y-82414386D02*
X27167636Y-82414386D01*
X27167636Y-82414386D02*
X27248448Y-82441324D01*
X27248448Y-82441324D02*
X27329260Y-82522136D01*
X27329260Y-82522136D02*
X27356197Y-82602948D01*
X27356197Y-82602948D02*
X27356197Y-82656823D01*
X27356197Y-82656823D02*
X27329260Y-82737635D01*
X27329260Y-82737635D02*
X27113761Y-82953134D01*
X27652509Y-81821763D02*
X27383135Y-82091137D01*
X27383135Y-82091137D02*
X27625571Y-82387449D01*
X27625571Y-82387449D02*
X27625571Y-82333574D01*
X27625571Y-82333574D02*
X27652509Y-82252762D01*
X27652509Y-82252762D02*
X27787196Y-82118075D01*
X27787196Y-82118075D02*
X27868008Y-82091137D01*
X27868008Y-82091137D02*
X27921883Y-82091137D01*
X27921883Y-82091137D02*
X28002695Y-82118075D01*
X28002695Y-82118075D02*
X28137382Y-82252762D01*
X28137382Y-82252762D02*
X28164319Y-82333574D01*
X28164319Y-82333574D02*
X28164319Y-82387449D01*
X28164319Y-82387449D02*
X28137382Y-82468261D01*
X28137382Y-82468261D02*
X28002695Y-82602948D01*
X28002695Y-82602948D02*
X27921883Y-82629885D01*
X27921883Y-82629885D02*
X27868008Y-82629885D01*
X26548076Y-85520072D02*
X26467263Y-85547009D01*
X26467263Y-85547009D02*
X26386451Y-85627821D01*
X26386451Y-85627821D02*
X26332576Y-85735571D01*
X26332576Y-85735571D02*
X26332576Y-85843320D01*
X26332576Y-85843320D02*
X26359514Y-85924133D01*
X26359514Y-85924133D02*
X26440326Y-86058820D01*
X26440326Y-86058820D02*
X26521138Y-86139632D01*
X26521138Y-86139632D02*
X26655825Y-86220444D01*
X26655825Y-86220444D02*
X26736637Y-86247381D01*
X26736637Y-86247381D02*
X26844387Y-86247381D01*
X26844387Y-86247381D02*
X26952137Y-86193507D01*
X26952137Y-86193507D02*
X27006011Y-86139632D01*
X27006011Y-86139632D02*
X27059886Y-86031882D01*
X27059886Y-86031882D02*
X27059886Y-85978007D01*
X27059886Y-85978007D02*
X26871324Y-85789446D01*
X26871324Y-85789446D02*
X26763575Y-85897195D01*
X27356198Y-85789446D02*
X26790512Y-85223760D01*
X26790512Y-85223760D02*
X27679446Y-85466197D01*
X27679446Y-85466197D02*
X27113761Y-84900511D01*
X27948820Y-85196823D02*
X27383135Y-84631137D01*
X27383135Y-84631137D02*
X27517822Y-84496450D01*
X27517822Y-84496450D02*
X27625571Y-84442576D01*
X27625571Y-84442576D02*
X27733321Y-84442576D01*
X27733321Y-84442576D02*
X27814133Y-84469513D01*
X27814133Y-84469513D02*
X27948820Y-84550325D01*
X27948820Y-84550325D02*
X28029632Y-84631137D01*
X28029632Y-84631137D02*
X28110445Y-84765824D01*
X28110445Y-84765824D02*
X28137382Y-84846637D01*
X28137382Y-84846637D02*
X28137382Y-84954386D01*
X28137382Y-84954386D02*
X28083507Y-85062136D01*
X28083507Y-85062136D02*
X27948820Y-85196823D01*
X52159638Y-88312509D02*
X52078826Y-88339446D01*
X52078826Y-88339446D02*
X51998014Y-88420258D01*
X51998014Y-88420258D02*
X51944139Y-88528008D01*
X51944139Y-88528008D02*
X51944139Y-88635758D01*
X51944139Y-88635758D02*
X51971077Y-88716570D01*
X51971077Y-88716570D02*
X52051889Y-88851257D01*
X52051889Y-88851257D02*
X52132701Y-88932069D01*
X52132701Y-88932069D02*
X52267388Y-89012881D01*
X52267388Y-89012881D02*
X52348200Y-89039819D01*
X52348200Y-89039819D02*
X52455950Y-89039819D01*
X52455950Y-89039819D02*
X52563699Y-88985944D01*
X52563699Y-88985944D02*
X52617574Y-88932069D01*
X52617574Y-88932069D02*
X52671449Y-88824319D01*
X52671449Y-88824319D02*
X52671449Y-88770445D01*
X52671449Y-88770445D02*
X52482887Y-88581883D01*
X52482887Y-88581883D02*
X52375138Y-88689632D01*
X52967760Y-88581883D02*
X52402075Y-88016197D01*
X52402075Y-88016197D02*
X52617574Y-87800698D01*
X52617574Y-87800698D02*
X52698386Y-87773761D01*
X52698386Y-87773761D02*
X52752261Y-87773761D01*
X52752261Y-87773761D02*
X52833073Y-87800698D01*
X52833073Y-87800698D02*
X52913886Y-87881510D01*
X52913886Y-87881510D02*
X52940823Y-87962323D01*
X52940823Y-87962323D02*
X52940823Y-88016197D01*
X52940823Y-88016197D02*
X52913886Y-88097010D01*
X52913886Y-88097010D02*
X52698386Y-88312509D01*
X52994698Y-87531324D02*
X52994698Y-87477449D01*
X52994698Y-87477449D02*
X53021635Y-87396637D01*
X53021635Y-87396637D02*
X53156322Y-87261950D01*
X53156322Y-87261950D02*
X53237134Y-87235013D01*
X53237134Y-87235013D02*
X53291009Y-87235013D01*
X53291009Y-87235013D02*
X53371821Y-87261950D01*
X53371821Y-87261950D02*
X53425696Y-87315825D01*
X53425696Y-87315825D02*
X53479571Y-87423574D01*
X53479571Y-87423574D02*
X53479571Y-88070072D01*
X53479571Y-88070072D02*
X53829757Y-87719886D01*
X53452634Y-86965638D02*
X53829757Y-86588515D01*
X53829757Y-86588515D02*
X54153006Y-87396637D01*
X52159638Y-113702509D02*
X52078826Y-113729446D01*
X52078826Y-113729446D02*
X51998014Y-113810258D01*
X51998014Y-113810258D02*
X51944139Y-113918008D01*
X51944139Y-113918008D02*
X51944139Y-114025758D01*
X51944139Y-114025758D02*
X51971077Y-114106570D01*
X51971077Y-114106570D02*
X52051889Y-114241257D01*
X52051889Y-114241257D02*
X52132701Y-114322069D01*
X52132701Y-114322069D02*
X52267388Y-114402881D01*
X52267388Y-114402881D02*
X52348200Y-114429819D01*
X52348200Y-114429819D02*
X52455950Y-114429819D01*
X52455950Y-114429819D02*
X52563699Y-114375944D01*
X52563699Y-114375944D02*
X52617574Y-114322069D01*
X52617574Y-114322069D02*
X52671449Y-114214319D01*
X52671449Y-114214319D02*
X52671449Y-114160445D01*
X52671449Y-114160445D02*
X52482887Y-113971883D01*
X52482887Y-113971883D02*
X52375138Y-114079632D01*
X52967760Y-113971883D02*
X52402075Y-113406197D01*
X52402075Y-113406197D02*
X52617574Y-113190698D01*
X52617574Y-113190698D02*
X52698386Y-113163761D01*
X52698386Y-113163761D02*
X52752261Y-113163761D01*
X52752261Y-113163761D02*
X52833073Y-113190698D01*
X52833073Y-113190698D02*
X52913886Y-113271510D01*
X52913886Y-113271510D02*
X52940823Y-113352323D01*
X52940823Y-113352323D02*
X52940823Y-113406197D01*
X52940823Y-113406197D02*
X52913886Y-113487010D01*
X52913886Y-113487010D02*
X52698386Y-113702509D01*
X53829757Y-113109886D02*
X53506508Y-113433135D01*
X53668133Y-113271510D02*
X53102447Y-112705825D01*
X53102447Y-112705825D02*
X53129385Y-112840512D01*
X53129385Y-112840512D02*
X53129385Y-112948261D01*
X53129385Y-112948261D02*
X53102447Y-113029074D01*
X53452634Y-112355638D02*
X53829757Y-111978515D01*
X53829757Y-111978515D02*
X54153006Y-112786637D01*
X52216704Y-81255690D02*
X52486078Y-80986316D01*
X52324454Y-81471189D02*
X51947330Y-80716942D01*
X51947330Y-80716942D02*
X52701578Y-81094066D01*
X52890139Y-80905504D02*
X52324454Y-80339819D01*
X52324454Y-80339819D02*
X52459141Y-80205132D01*
X52459141Y-80205132D02*
X52566890Y-80151257D01*
X52566890Y-80151257D02*
X52674640Y-80151257D01*
X52674640Y-80151257D02*
X52755452Y-80178194D01*
X52755452Y-80178194D02*
X52890139Y-80259006D01*
X52890139Y-80259006D02*
X52970951Y-80339819D01*
X52970951Y-80339819D02*
X53051764Y-80474506D01*
X53051764Y-80474506D02*
X53078701Y-80555318D01*
X53078701Y-80555318D02*
X53078701Y-80663067D01*
X53078701Y-80663067D02*
X53024826Y-80770817D01*
X53024826Y-80770817D02*
X52890139Y-80905504D01*
X53725199Y-79962695D02*
X53725199Y-80016570D01*
X53725199Y-80016570D02*
X53671324Y-80124319D01*
X53671324Y-80124319D02*
X53617449Y-80178194D01*
X53617449Y-80178194D02*
X53509699Y-80232069D01*
X53509699Y-80232069D02*
X53401950Y-80232069D01*
X53401950Y-80232069D02*
X53321138Y-80205132D01*
X53321138Y-80205132D02*
X53186451Y-80124319D01*
X53186451Y-80124319D02*
X53105638Y-80043507D01*
X53105638Y-80043507D02*
X53024826Y-79908820D01*
X53024826Y-79908820D02*
X52997889Y-79828008D01*
X52997889Y-79828008D02*
X52997889Y-79720258D01*
X52997889Y-79720258D02*
X53051764Y-79612509D01*
X53051764Y-79612509D02*
X53105638Y-79558634D01*
X53105638Y-79558634D02*
X53213388Y-79504759D01*
X53213388Y-79504759D02*
X53267263Y-79504759D01*
X53940698Y-79962695D02*
X54371696Y-79531696D01*
X53806011Y-78858261D02*
X54560258Y-79235385D01*
X54560258Y-79235385D02*
X54183135Y-78481138D01*
X55260630Y-78535013D02*
X54802695Y-78454201D01*
X54937382Y-78858262D02*
X54371696Y-78292576D01*
X54371696Y-78292576D02*
X54587195Y-78077077D01*
X54587195Y-78077077D02*
X54668008Y-78050139D01*
X54668008Y-78050139D02*
X54721882Y-78050139D01*
X54721882Y-78050139D02*
X54802695Y-78077077D01*
X54802695Y-78077077D02*
X54883507Y-78157889D01*
X54883507Y-78157889D02*
X54910444Y-78238701D01*
X54910444Y-78238701D02*
X54910444Y-78292576D01*
X54910444Y-78292576D02*
X54883507Y-78373388D01*
X54883507Y-78373388D02*
X54668008Y-78588888D01*
X55206756Y-77996265D02*
X55395317Y-77807703D01*
X55772441Y-78023202D02*
X55503067Y-78292576D01*
X55503067Y-78292576D02*
X54937382Y-77726891D01*
X54937382Y-77726891D02*
X55206756Y-77457517D01*
X55907128Y-77295892D02*
X55718567Y-77484454D01*
X56014878Y-77780765D02*
X55449193Y-77215080D01*
X55449193Y-77215080D02*
X55718567Y-76945706D01*
X44014761Y-118225809D02*
X44129047Y-118263904D01*
X44129047Y-118263904D02*
X44319523Y-118263904D01*
X44319523Y-118263904D02*
X44395714Y-118225809D01*
X44395714Y-118225809D02*
X44433809Y-118187714D01*
X44433809Y-118187714D02*
X44471904Y-118111523D01*
X44471904Y-118111523D02*
X44471904Y-118035333D01*
X44471904Y-118035333D02*
X44433809Y-117959142D01*
X44433809Y-117959142D02*
X44395714Y-117921047D01*
X44395714Y-117921047D02*
X44319523Y-117882952D01*
X44319523Y-117882952D02*
X44167142Y-117844857D01*
X44167142Y-117844857D02*
X44090952Y-117806761D01*
X44090952Y-117806761D02*
X44052857Y-117768666D01*
X44052857Y-117768666D02*
X44014761Y-117692476D01*
X44014761Y-117692476D02*
X44014761Y-117616285D01*
X44014761Y-117616285D02*
X44052857Y-117540095D01*
X44052857Y-117540095D02*
X44090952Y-117502000D01*
X44090952Y-117502000D02*
X44167142Y-117463904D01*
X44167142Y-117463904D02*
X44357619Y-117463904D01*
X44357619Y-117463904D02*
X44471904Y-117502000D01*
X44738571Y-117463904D02*
X44929047Y-118263904D01*
X44929047Y-118263904D02*
X45081428Y-117692476D01*
X45081428Y-117692476D02*
X45233809Y-118263904D01*
X45233809Y-118263904D02*
X45424286Y-117463904D01*
X45729048Y-118263904D02*
X45729048Y-117463904D01*
X45729048Y-117463904D02*
X45919524Y-117463904D01*
X45919524Y-117463904D02*
X46033810Y-117502000D01*
X46033810Y-117502000D02*
X46110000Y-117578190D01*
X46110000Y-117578190D02*
X46148095Y-117654380D01*
X46148095Y-117654380D02*
X46186191Y-117806761D01*
X46186191Y-117806761D02*
X46186191Y-117921047D01*
X46186191Y-117921047D02*
X46148095Y-118073428D01*
X46148095Y-118073428D02*
X46110000Y-118149619D01*
X46110000Y-118149619D02*
X46033810Y-118225809D01*
X46033810Y-118225809D02*
X45919524Y-118263904D01*
X45919524Y-118263904D02*
X45729048Y-118263904D01*
X46529048Y-118263904D02*
X46529048Y-117463904D01*
X47062381Y-117463904D02*
X47214762Y-117463904D01*
X47214762Y-117463904D02*
X47290952Y-117502000D01*
X47290952Y-117502000D02*
X47367143Y-117578190D01*
X47367143Y-117578190D02*
X47405238Y-117730571D01*
X47405238Y-117730571D02*
X47405238Y-117997238D01*
X47405238Y-117997238D02*
X47367143Y-118149619D01*
X47367143Y-118149619D02*
X47290952Y-118225809D01*
X47290952Y-118225809D02*
X47214762Y-118263904D01*
X47214762Y-118263904D02*
X47062381Y-118263904D01*
X47062381Y-118263904D02*
X46986190Y-118225809D01*
X46986190Y-118225809D02*
X46910000Y-118149619D01*
X46910000Y-118149619D02*
X46871904Y-117997238D01*
X46871904Y-117997238D02*
X46871904Y-117730571D01*
X46871904Y-117730571D02*
X46910000Y-117578190D01*
X46910000Y-117578190D02*
X46986190Y-117502000D01*
X46986190Y-117502000D02*
X47062381Y-117463904D01*
X26575013Y-77873134D02*
X26494201Y-77900072D01*
X26494201Y-77900072D02*
X26413388Y-77980884D01*
X26413388Y-77980884D02*
X26359514Y-78088633D01*
X26359514Y-78088633D02*
X26359514Y-78196383D01*
X26359514Y-78196383D02*
X26386451Y-78277195D01*
X26386451Y-78277195D02*
X26467263Y-78411882D01*
X26467263Y-78411882D02*
X26548075Y-78492695D01*
X26548075Y-78492695D02*
X26682762Y-78573507D01*
X26682762Y-78573507D02*
X26763575Y-78600444D01*
X26763575Y-78600444D02*
X26871324Y-78600444D01*
X26871324Y-78600444D02*
X26979074Y-78546569D01*
X26979074Y-78546569D02*
X27032949Y-78492695D01*
X27032949Y-78492695D02*
X27086823Y-78384945D01*
X27086823Y-78384945D02*
X27086823Y-78331070D01*
X27086823Y-78331070D02*
X26898262Y-78142508D01*
X26898262Y-78142508D02*
X26790512Y-78250258D01*
X27383135Y-78142508D02*
X26817449Y-77576823D01*
X26817449Y-77576823D02*
X27032949Y-77361324D01*
X27032949Y-77361324D02*
X27113761Y-77334386D01*
X27113761Y-77334386D02*
X27167636Y-77334386D01*
X27167636Y-77334386D02*
X27248448Y-77361324D01*
X27248448Y-77361324D02*
X27329260Y-77442136D01*
X27329260Y-77442136D02*
X27356197Y-77522948D01*
X27356197Y-77522948D02*
X27356197Y-77576823D01*
X27356197Y-77576823D02*
X27329260Y-77657635D01*
X27329260Y-77657635D02*
X27113761Y-77873134D01*
X27329260Y-77065012D02*
X27679446Y-76714826D01*
X27679446Y-76714826D02*
X27706384Y-77118887D01*
X27706384Y-77118887D02*
X27787196Y-77038075D01*
X27787196Y-77038075D02*
X27868008Y-77011137D01*
X27868008Y-77011137D02*
X27921883Y-77011137D01*
X27921883Y-77011137D02*
X28002695Y-77038075D01*
X28002695Y-77038075D02*
X28137382Y-77172762D01*
X28137382Y-77172762D02*
X28164319Y-77253574D01*
X28164319Y-77253574D02*
X28164319Y-77307449D01*
X28164319Y-77307449D02*
X28137382Y-77388261D01*
X28137382Y-77388261D02*
X27975758Y-77549885D01*
X27975758Y-77549885D02*
X27894945Y-77576823D01*
X27894945Y-77576823D02*
X27841071Y-77576823D01*
X52159638Y-106082509D02*
X52078826Y-106109446D01*
X52078826Y-106109446D02*
X51998014Y-106190258D01*
X51998014Y-106190258D02*
X51944139Y-106298008D01*
X51944139Y-106298008D02*
X51944139Y-106405758D01*
X51944139Y-106405758D02*
X51971077Y-106486570D01*
X51971077Y-106486570D02*
X52051889Y-106621257D01*
X52051889Y-106621257D02*
X52132701Y-106702069D01*
X52132701Y-106702069D02*
X52267388Y-106782881D01*
X52267388Y-106782881D02*
X52348200Y-106809819D01*
X52348200Y-106809819D02*
X52455950Y-106809819D01*
X52455950Y-106809819D02*
X52563699Y-106755944D01*
X52563699Y-106755944D02*
X52617574Y-106702069D01*
X52617574Y-106702069D02*
X52671449Y-106594319D01*
X52671449Y-106594319D02*
X52671449Y-106540445D01*
X52671449Y-106540445D02*
X52482887Y-106351883D01*
X52482887Y-106351883D02*
X52375138Y-106459632D01*
X52967760Y-106351883D02*
X52402075Y-105786197D01*
X52402075Y-105786197D02*
X52617574Y-105570698D01*
X52617574Y-105570698D02*
X52698386Y-105543761D01*
X52698386Y-105543761D02*
X52752261Y-105543761D01*
X52752261Y-105543761D02*
X52833073Y-105570698D01*
X52833073Y-105570698D02*
X52913886Y-105651510D01*
X52913886Y-105651510D02*
X52940823Y-105732323D01*
X52940823Y-105732323D02*
X52940823Y-105786197D01*
X52940823Y-105786197D02*
X52913886Y-105867010D01*
X52913886Y-105867010D02*
X52698386Y-106082509D01*
X53829757Y-105489886D02*
X53506508Y-105813135D01*
X53668133Y-105651510D02*
X53102447Y-105085825D01*
X53102447Y-105085825D02*
X53129385Y-105220512D01*
X53129385Y-105220512D02*
X53129385Y-105328261D01*
X53129385Y-105328261D02*
X53102447Y-105409074D01*
X54099131Y-105220512D02*
X54206881Y-105112762D01*
X54206881Y-105112762D02*
X54233818Y-105031950D01*
X54233818Y-105031950D02*
X54233818Y-104978075D01*
X54233818Y-104978075D02*
X54206881Y-104843388D01*
X54206881Y-104843388D02*
X54126069Y-104708701D01*
X54126069Y-104708701D02*
X53910570Y-104493202D01*
X53910570Y-104493202D02*
X53829757Y-104466264D01*
X53829757Y-104466264D02*
X53775883Y-104466264D01*
X53775883Y-104466264D02*
X53695070Y-104493202D01*
X53695070Y-104493202D02*
X53587321Y-104600951D01*
X53587321Y-104600951D02*
X53560383Y-104681764D01*
X53560383Y-104681764D02*
X53560383Y-104735638D01*
X53560383Y-104735638D02*
X53587321Y-104816451D01*
X53587321Y-104816451D02*
X53722008Y-104951138D01*
X53722008Y-104951138D02*
X53802820Y-104978075D01*
X53802820Y-104978075D02*
X53856695Y-104978075D01*
X53856695Y-104978075D02*
X53937507Y-104951138D01*
X53937507Y-104951138D02*
X54045257Y-104843388D01*
X54045257Y-104843388D02*
X54072194Y-104762576D01*
X54072194Y-104762576D02*
X54072194Y-104708701D01*
X54072194Y-104708701D02*
X54045257Y-104627889D01*
X25905638Y-106082509D02*
X25824826Y-106109446D01*
X25824826Y-106109446D02*
X25744014Y-106190258D01*
X25744014Y-106190258D02*
X25690139Y-106298008D01*
X25690139Y-106298008D02*
X25690139Y-106405758D01*
X25690139Y-106405758D02*
X25717077Y-106486570D01*
X25717077Y-106486570D02*
X25797889Y-106621257D01*
X25797889Y-106621257D02*
X25878701Y-106702069D01*
X25878701Y-106702069D02*
X26013388Y-106782881D01*
X26013388Y-106782881D02*
X26094200Y-106809819D01*
X26094200Y-106809819D02*
X26201950Y-106809819D01*
X26201950Y-106809819D02*
X26309699Y-106755944D01*
X26309699Y-106755944D02*
X26363574Y-106702069D01*
X26363574Y-106702069D02*
X26417449Y-106594319D01*
X26417449Y-106594319D02*
X26417449Y-106540445D01*
X26417449Y-106540445D02*
X26228887Y-106351883D01*
X26228887Y-106351883D02*
X26121138Y-106459632D01*
X26713760Y-106351883D02*
X26148075Y-105786197D01*
X26148075Y-105786197D02*
X26363574Y-105570698D01*
X26363574Y-105570698D02*
X26444386Y-105543761D01*
X26444386Y-105543761D02*
X26498261Y-105543761D01*
X26498261Y-105543761D02*
X26579073Y-105570698D01*
X26579073Y-105570698D02*
X26659886Y-105651510D01*
X26659886Y-105651510D02*
X26686823Y-105732323D01*
X26686823Y-105732323D02*
X26686823Y-105786197D01*
X26686823Y-105786197D02*
X26659886Y-105867010D01*
X26659886Y-105867010D02*
X26444386Y-106082509D01*
X27575757Y-105489886D02*
X27252508Y-105813135D01*
X27414133Y-105651510D02*
X26848447Y-105085825D01*
X26848447Y-105085825D02*
X26875385Y-105220512D01*
X26875385Y-105220512D02*
X26875385Y-105328261D01*
X26875385Y-105328261D02*
X26848447Y-105409074D01*
X27279446Y-104762576D02*
X27279446Y-104708701D01*
X27279446Y-104708701D02*
X27306383Y-104627889D01*
X27306383Y-104627889D02*
X27441070Y-104493202D01*
X27441070Y-104493202D02*
X27521883Y-104466264D01*
X27521883Y-104466264D02*
X27575757Y-104466264D01*
X27575757Y-104466264D02*
X27656570Y-104493202D01*
X27656570Y-104493202D02*
X27710444Y-104547077D01*
X27710444Y-104547077D02*
X27764319Y-104654826D01*
X27764319Y-104654826D02*
X27764319Y-105301324D01*
X27764319Y-105301324D02*
X28114505Y-104951138D01*
X26575013Y-95653134D02*
X26494201Y-95680072D01*
X26494201Y-95680072D02*
X26413388Y-95760884D01*
X26413388Y-95760884D02*
X26359514Y-95868633D01*
X26359514Y-95868633D02*
X26359514Y-95976383D01*
X26359514Y-95976383D02*
X26386451Y-96057195D01*
X26386451Y-96057195D02*
X26467263Y-96191882D01*
X26467263Y-96191882D02*
X26548075Y-96272695D01*
X26548075Y-96272695D02*
X26682762Y-96353507D01*
X26682762Y-96353507D02*
X26763575Y-96380444D01*
X26763575Y-96380444D02*
X26871324Y-96380444D01*
X26871324Y-96380444D02*
X26979074Y-96326569D01*
X26979074Y-96326569D02*
X27032949Y-96272695D01*
X27032949Y-96272695D02*
X27086823Y-96164945D01*
X27086823Y-96164945D02*
X27086823Y-96111070D01*
X27086823Y-96111070D02*
X26898262Y-95922508D01*
X26898262Y-95922508D02*
X26790512Y-96030258D01*
X27383135Y-95922508D02*
X26817449Y-95356823D01*
X26817449Y-95356823D02*
X27032949Y-95141324D01*
X27032949Y-95141324D02*
X27113761Y-95114386D01*
X27113761Y-95114386D02*
X27167636Y-95114386D01*
X27167636Y-95114386D02*
X27248448Y-95141324D01*
X27248448Y-95141324D02*
X27329260Y-95222136D01*
X27329260Y-95222136D02*
X27356197Y-95302948D01*
X27356197Y-95302948D02*
X27356197Y-95356823D01*
X27356197Y-95356823D02*
X27329260Y-95437635D01*
X27329260Y-95437635D02*
X27113761Y-95653134D01*
X27975758Y-95329885D02*
X28083507Y-95222136D01*
X28083507Y-95222136D02*
X28110445Y-95141324D01*
X28110445Y-95141324D02*
X28110445Y-95087449D01*
X28110445Y-95087449D02*
X28083507Y-94952762D01*
X28083507Y-94952762D02*
X28002695Y-94818075D01*
X28002695Y-94818075D02*
X27787196Y-94602576D01*
X27787196Y-94602576D02*
X27706384Y-94575638D01*
X27706384Y-94575638D02*
X27652509Y-94575638D01*
X27652509Y-94575638D02*
X27571697Y-94602576D01*
X27571697Y-94602576D02*
X27463947Y-94710325D01*
X27463947Y-94710325D02*
X27437010Y-94791137D01*
X27437010Y-94791137D02*
X27437010Y-94845012D01*
X27437010Y-94845012D02*
X27463947Y-94925824D01*
X27463947Y-94925824D02*
X27598634Y-95060511D01*
X27598634Y-95060511D02*
X27679446Y-95087449D01*
X27679446Y-95087449D02*
X27733321Y-95087449D01*
X27733321Y-95087449D02*
X27814133Y-95060511D01*
X27814133Y-95060511D02*
X27921883Y-94952762D01*
X27921883Y-94952762D02*
X27948820Y-94871950D01*
X27948820Y-94871950D02*
X27948820Y-94818075D01*
X27948820Y-94818075D02*
X27921883Y-94737263D01*
X52159638Y-108622509D02*
X52078826Y-108649446D01*
X52078826Y-108649446D02*
X51998014Y-108730258D01*
X51998014Y-108730258D02*
X51944139Y-108838008D01*
X51944139Y-108838008D02*
X51944139Y-108945758D01*
X51944139Y-108945758D02*
X51971077Y-109026570D01*
X51971077Y-109026570D02*
X52051889Y-109161257D01*
X52051889Y-109161257D02*
X52132701Y-109242069D01*
X52132701Y-109242069D02*
X52267388Y-109322881D01*
X52267388Y-109322881D02*
X52348200Y-109349819D01*
X52348200Y-109349819D02*
X52455950Y-109349819D01*
X52455950Y-109349819D02*
X52563699Y-109295944D01*
X52563699Y-109295944D02*
X52617574Y-109242069D01*
X52617574Y-109242069D02*
X52671449Y-109134319D01*
X52671449Y-109134319D02*
X52671449Y-109080445D01*
X52671449Y-109080445D02*
X52482887Y-108891883D01*
X52482887Y-108891883D02*
X52375138Y-108999632D01*
X52967760Y-108891883D02*
X52402075Y-108326197D01*
X52402075Y-108326197D02*
X52617574Y-108110698D01*
X52617574Y-108110698D02*
X52698386Y-108083761D01*
X52698386Y-108083761D02*
X52752261Y-108083761D01*
X52752261Y-108083761D02*
X52833073Y-108110698D01*
X52833073Y-108110698D02*
X52913886Y-108191510D01*
X52913886Y-108191510D02*
X52940823Y-108272323D01*
X52940823Y-108272323D02*
X52940823Y-108326197D01*
X52940823Y-108326197D02*
X52913886Y-108407010D01*
X52913886Y-108407010D02*
X52698386Y-108622509D01*
X53829757Y-108029886D02*
X53506508Y-108353135D01*
X53668133Y-108191510D02*
X53102447Y-107625825D01*
X53102447Y-107625825D02*
X53129385Y-107760512D01*
X53129385Y-107760512D02*
X53129385Y-107868261D01*
X53129385Y-107868261D02*
X53102447Y-107949074D01*
X53829757Y-107383388D02*
X53748945Y-107410326D01*
X53748945Y-107410326D02*
X53695070Y-107410326D01*
X53695070Y-107410326D02*
X53614258Y-107383388D01*
X53614258Y-107383388D02*
X53587321Y-107356451D01*
X53587321Y-107356451D02*
X53560383Y-107275638D01*
X53560383Y-107275638D02*
X53560383Y-107221764D01*
X53560383Y-107221764D02*
X53587321Y-107140951D01*
X53587321Y-107140951D02*
X53695070Y-107033202D01*
X53695070Y-107033202D02*
X53775883Y-107006264D01*
X53775883Y-107006264D02*
X53829757Y-107006264D01*
X53829757Y-107006264D02*
X53910570Y-107033202D01*
X53910570Y-107033202D02*
X53937507Y-107060139D01*
X53937507Y-107060139D02*
X53964444Y-107140951D01*
X53964444Y-107140951D02*
X53964444Y-107194826D01*
X53964444Y-107194826D02*
X53937507Y-107275638D01*
X53937507Y-107275638D02*
X53829757Y-107383388D01*
X53829757Y-107383388D02*
X53802820Y-107464200D01*
X53802820Y-107464200D02*
X53802820Y-107518075D01*
X53802820Y-107518075D02*
X53829757Y-107598887D01*
X53829757Y-107598887D02*
X53937507Y-107706637D01*
X53937507Y-107706637D02*
X54018319Y-107733574D01*
X54018319Y-107733574D02*
X54072194Y-107733574D01*
X54072194Y-107733574D02*
X54153006Y-107706637D01*
X54153006Y-107706637D02*
X54260756Y-107598887D01*
X54260756Y-107598887D02*
X54287693Y-107518075D01*
X54287693Y-107518075D02*
X54287693Y-107464200D01*
X54287693Y-107464200D02*
X54260756Y-107383388D01*
X54260756Y-107383388D02*
X54153006Y-107275638D01*
X54153006Y-107275638D02*
X54072194Y-107248701D01*
X54072194Y-107248701D02*
X54018319Y-107248701D01*
X54018319Y-107248701D02*
X53937507Y-107275638D01*
X26475013Y-75333134D02*
X26394201Y-75360072D01*
X26394201Y-75360072D02*
X26313388Y-75440884D01*
X26313388Y-75440884D02*
X26259514Y-75548633D01*
X26259514Y-75548633D02*
X26259514Y-75656383D01*
X26259514Y-75656383D02*
X26286451Y-75737195D01*
X26286451Y-75737195D02*
X26367263Y-75871882D01*
X26367263Y-75871882D02*
X26448075Y-75952695D01*
X26448075Y-75952695D02*
X26582762Y-76033507D01*
X26582762Y-76033507D02*
X26663575Y-76060444D01*
X26663575Y-76060444D02*
X26771324Y-76060444D01*
X26771324Y-76060444D02*
X26879074Y-76006569D01*
X26879074Y-76006569D02*
X26932949Y-75952695D01*
X26932949Y-75952695D02*
X26986823Y-75844945D01*
X26986823Y-75844945D02*
X26986823Y-75791070D01*
X26986823Y-75791070D02*
X26798262Y-75602508D01*
X26798262Y-75602508D02*
X26690512Y-75710258D01*
X27283135Y-75602508D02*
X26717449Y-75036823D01*
X26717449Y-75036823D02*
X26932949Y-74821324D01*
X26932949Y-74821324D02*
X27013761Y-74794386D01*
X27013761Y-74794386D02*
X27067636Y-74794386D01*
X27067636Y-74794386D02*
X27148448Y-74821324D01*
X27148448Y-74821324D02*
X27229260Y-74902136D01*
X27229260Y-74902136D02*
X27256197Y-74982948D01*
X27256197Y-74982948D02*
X27256197Y-75036823D01*
X27256197Y-75036823D02*
X27229260Y-75117635D01*
X27229260Y-75117635D02*
X27013761Y-75333134D01*
X27310072Y-74551950D02*
X27310072Y-74498075D01*
X27310072Y-74498075D02*
X27337010Y-74417263D01*
X27337010Y-74417263D02*
X27471697Y-74282576D01*
X27471697Y-74282576D02*
X27552509Y-74255638D01*
X27552509Y-74255638D02*
X27606384Y-74255638D01*
X27606384Y-74255638D02*
X27687196Y-74282576D01*
X27687196Y-74282576D02*
X27741071Y-74336450D01*
X27741071Y-74336450D02*
X27794945Y-74444200D01*
X27794945Y-74444200D02*
X27794945Y-75090698D01*
X27794945Y-75090698D02*
X28145132Y-74740511D01*
X52015046Y-68249226D02*
X52769294Y-68626350D01*
X52769294Y-68626350D02*
X52392170Y-67872102D01*
X53038667Y-67764353D02*
X53146417Y-67710478D01*
X53146417Y-67710478D02*
X53200292Y-67710478D01*
X53200292Y-67710478D02*
X53281104Y-67737416D01*
X53281104Y-67737416D02*
X53361916Y-67818228D01*
X53361916Y-67818228D02*
X53388854Y-67899040D01*
X53388854Y-67899040D02*
X53388854Y-67952915D01*
X53388854Y-67952915D02*
X53361916Y-68033727D01*
X53361916Y-68033727D02*
X53146417Y-68249226D01*
X53146417Y-68249226D02*
X52580732Y-67683541D01*
X52580732Y-67683541D02*
X52769293Y-67494979D01*
X52769293Y-67494979D02*
X52850106Y-67468042D01*
X52850106Y-67468042D02*
X52903980Y-67468042D01*
X52903980Y-67468042D02*
X52984793Y-67494979D01*
X52984793Y-67494979D02*
X53038667Y-67548854D01*
X53038667Y-67548854D02*
X53065605Y-67629666D01*
X53065605Y-67629666D02*
X53065605Y-67683541D01*
X53065605Y-67683541D02*
X53038667Y-67764353D01*
X53038667Y-67764353D02*
X52850106Y-67952915D01*
X53146417Y-67117855D02*
X53604353Y-67575791D01*
X53604353Y-67575791D02*
X53685165Y-67602729D01*
X53685165Y-67602729D02*
X53739040Y-67602729D01*
X53739040Y-67602729D02*
X53819852Y-67575791D01*
X53819852Y-67575791D02*
X53927602Y-67468042D01*
X53927602Y-67468042D02*
X53954539Y-67387229D01*
X53954539Y-67387229D02*
X53954539Y-67333355D01*
X53954539Y-67333355D02*
X53927602Y-67252542D01*
X53927602Y-67252542D02*
X53469666Y-66794607D01*
X54250850Y-67090918D02*
X54358600Y-67037043D01*
X54358600Y-67037043D02*
X54493287Y-66902356D01*
X54493287Y-66902356D02*
X54520224Y-66821544D01*
X54520224Y-66821544D02*
X54520224Y-66767669D01*
X54520224Y-66767669D02*
X54493287Y-66686857D01*
X54493287Y-66686857D02*
X54439412Y-66632982D01*
X54439412Y-66632982D02*
X54358600Y-66606045D01*
X54358600Y-66606045D02*
X54304725Y-66606045D01*
X54304725Y-66606045D02*
X54223913Y-66632982D01*
X54223913Y-66632982D02*
X54089226Y-66713794D01*
X54089226Y-66713794D02*
X54008414Y-66740732D01*
X54008414Y-66740732D02*
X53954539Y-66740732D01*
X53954539Y-66740732D02*
X53873727Y-66713794D01*
X53873727Y-66713794D02*
X53819852Y-66659920D01*
X53819852Y-66659920D02*
X53792914Y-66579107D01*
X53792914Y-66579107D02*
X53792914Y-66525233D01*
X53792914Y-66525233D02*
X53819852Y-66444420D01*
X53819852Y-66444420D02*
X53954539Y-66309733D01*
X53954539Y-66309733D02*
X54062288Y-66255859D01*
X26548076Y-98220072D02*
X26467263Y-98247009D01*
X26467263Y-98247009D02*
X26386451Y-98327821D01*
X26386451Y-98327821D02*
X26332576Y-98435571D01*
X26332576Y-98435571D02*
X26332576Y-98543320D01*
X26332576Y-98543320D02*
X26359514Y-98624133D01*
X26359514Y-98624133D02*
X26440326Y-98758820D01*
X26440326Y-98758820D02*
X26521138Y-98839632D01*
X26521138Y-98839632D02*
X26655825Y-98920444D01*
X26655825Y-98920444D02*
X26736637Y-98947381D01*
X26736637Y-98947381D02*
X26844387Y-98947381D01*
X26844387Y-98947381D02*
X26952137Y-98893507D01*
X26952137Y-98893507D02*
X27006011Y-98839632D01*
X27006011Y-98839632D02*
X27059886Y-98731882D01*
X27059886Y-98731882D02*
X27059886Y-98678007D01*
X27059886Y-98678007D02*
X26871324Y-98489446D01*
X26871324Y-98489446D02*
X26763575Y-98597195D01*
X27356198Y-98489446D02*
X26790512Y-97923760D01*
X26790512Y-97923760D02*
X27679446Y-98166197D01*
X27679446Y-98166197D02*
X27113761Y-97600511D01*
X27948820Y-97896823D02*
X27383135Y-97331137D01*
X27383135Y-97331137D02*
X27517822Y-97196450D01*
X27517822Y-97196450D02*
X27625571Y-97142576D01*
X27625571Y-97142576D02*
X27733321Y-97142576D01*
X27733321Y-97142576D02*
X27814133Y-97169513D01*
X27814133Y-97169513D02*
X27948820Y-97250325D01*
X27948820Y-97250325D02*
X28029632Y-97331137D01*
X28029632Y-97331137D02*
X28110445Y-97465824D01*
X28110445Y-97465824D02*
X28137382Y-97546637D01*
X28137382Y-97546637D02*
X28137382Y-97654386D01*
X28137382Y-97654386D02*
X28083507Y-97762136D01*
X28083507Y-97762136D02*
X27948820Y-97896823D01*
%TO.C,REF\u002A\u002A*%
X67916666Y-100688380D02*
X67583333Y-100212190D01*
X67345238Y-100688380D02*
X67345238Y-99688380D01*
X67345238Y-99688380D02*
X67726190Y-99688380D01*
X67726190Y-99688380D02*
X67821428Y-99736000D01*
X67821428Y-99736000D02*
X67869047Y-99783619D01*
X67869047Y-99783619D02*
X67916666Y-99878857D01*
X67916666Y-99878857D02*
X67916666Y-100021714D01*
X67916666Y-100021714D02*
X67869047Y-100116952D01*
X67869047Y-100116952D02*
X67821428Y-100164571D01*
X67821428Y-100164571D02*
X67726190Y-100212190D01*
X67726190Y-100212190D02*
X67345238Y-100212190D01*
X68345238Y-100164571D02*
X68678571Y-100164571D01*
X68821428Y-100688380D02*
X68345238Y-100688380D01*
X68345238Y-100688380D02*
X68345238Y-99688380D01*
X68345238Y-99688380D02*
X68821428Y-99688380D01*
X69583333Y-100164571D02*
X69250000Y-100164571D01*
X69250000Y-100688380D02*
X69250000Y-99688380D01*
X69250000Y-99688380D02*
X69726190Y-99688380D01*
X70250000Y-99688380D02*
X70250000Y-99926476D01*
X70011905Y-99831238D02*
X70250000Y-99926476D01*
X70250000Y-99926476D02*
X70488095Y-99831238D01*
X70107143Y-100116952D02*
X70250000Y-99926476D01*
X70250000Y-99926476D02*
X70392857Y-100116952D01*
X71011905Y-99688380D02*
X71011905Y-99926476D01*
X70773810Y-99831238D02*
X71011905Y-99926476D01*
X71011905Y-99926476D02*
X71250000Y-99831238D01*
X70869048Y-100116952D02*
X71011905Y-99926476D01*
X71011905Y-99926476D02*
X71154762Y-100116952D01*
X87916666Y-100688380D02*
X87583333Y-100212190D01*
X87345238Y-100688380D02*
X87345238Y-99688380D01*
X87345238Y-99688380D02*
X87726190Y-99688380D01*
X87726190Y-99688380D02*
X87821428Y-99736000D01*
X87821428Y-99736000D02*
X87869047Y-99783619D01*
X87869047Y-99783619D02*
X87916666Y-99878857D01*
X87916666Y-99878857D02*
X87916666Y-100021714D01*
X87916666Y-100021714D02*
X87869047Y-100116952D01*
X87869047Y-100116952D02*
X87821428Y-100164571D01*
X87821428Y-100164571D02*
X87726190Y-100212190D01*
X87726190Y-100212190D02*
X87345238Y-100212190D01*
X88345238Y-100164571D02*
X88678571Y-100164571D01*
X88821428Y-100688380D02*
X88345238Y-100688380D01*
X88345238Y-100688380D02*
X88345238Y-99688380D01*
X88345238Y-99688380D02*
X88821428Y-99688380D01*
X89583333Y-100164571D02*
X89250000Y-100164571D01*
X89250000Y-100688380D02*
X89250000Y-99688380D01*
X89250000Y-99688380D02*
X89726190Y-99688380D01*
X90250000Y-99688380D02*
X90250000Y-99926476D01*
X90011905Y-99831238D02*
X90250000Y-99926476D01*
X90250000Y-99926476D02*
X90488095Y-99831238D01*
X90107143Y-100116952D02*
X90250000Y-99926476D01*
X90250000Y-99926476D02*
X90392857Y-100116952D01*
X91011905Y-99688380D02*
X91011905Y-99926476D01*
X90773810Y-99831238D02*
X91011905Y-99926476D01*
X91011905Y-99926476D02*
X91250000Y-99831238D01*
X90869048Y-100116952D02*
X91011905Y-99926476D01*
X91011905Y-99926476D02*
X91154762Y-100116952D01*
X87966666Y-112272380D02*
X87633333Y-111796190D01*
X87395238Y-112272380D02*
X87395238Y-111272380D01*
X87395238Y-111272380D02*
X87776190Y-111272380D01*
X87776190Y-111272380D02*
X87871428Y-111320000D01*
X87871428Y-111320000D02*
X87919047Y-111367619D01*
X87919047Y-111367619D02*
X87966666Y-111462857D01*
X87966666Y-111462857D02*
X87966666Y-111605714D01*
X87966666Y-111605714D02*
X87919047Y-111700952D01*
X87919047Y-111700952D02*
X87871428Y-111748571D01*
X87871428Y-111748571D02*
X87776190Y-111796190D01*
X87776190Y-111796190D02*
X87395238Y-111796190D01*
X88395238Y-111748571D02*
X88728571Y-111748571D01*
X88871428Y-112272380D02*
X88395238Y-112272380D01*
X88395238Y-112272380D02*
X88395238Y-111272380D01*
X88395238Y-111272380D02*
X88871428Y-111272380D01*
X89633333Y-111748571D02*
X89300000Y-111748571D01*
X89300000Y-112272380D02*
X89300000Y-111272380D01*
X89300000Y-111272380D02*
X89776190Y-111272380D01*
X90300000Y-111272380D02*
X90300000Y-111510476D01*
X90061905Y-111415238D02*
X90300000Y-111510476D01*
X90300000Y-111510476D02*
X90538095Y-111415238D01*
X90157143Y-111700952D02*
X90300000Y-111510476D01*
X90300000Y-111510476D02*
X90442857Y-111700952D01*
X91061905Y-111272380D02*
X91061905Y-111510476D01*
X90823810Y-111415238D02*
X91061905Y-111510476D01*
X91061905Y-111510476D02*
X91300000Y-111415238D01*
X90919048Y-111700952D02*
X91061905Y-111510476D01*
X91061905Y-111510476D02*
X91204762Y-111700952D01*
X67816666Y-112162380D02*
X67483333Y-111686190D01*
X67245238Y-112162380D02*
X67245238Y-111162380D01*
X67245238Y-111162380D02*
X67626190Y-111162380D01*
X67626190Y-111162380D02*
X67721428Y-111210000D01*
X67721428Y-111210000D02*
X67769047Y-111257619D01*
X67769047Y-111257619D02*
X67816666Y-111352857D01*
X67816666Y-111352857D02*
X67816666Y-111495714D01*
X67816666Y-111495714D02*
X67769047Y-111590952D01*
X67769047Y-111590952D02*
X67721428Y-111638571D01*
X67721428Y-111638571D02*
X67626190Y-111686190D01*
X67626190Y-111686190D02*
X67245238Y-111686190D01*
X68245238Y-111638571D02*
X68578571Y-111638571D01*
X68721428Y-112162380D02*
X68245238Y-112162380D01*
X68245238Y-112162380D02*
X68245238Y-111162380D01*
X68245238Y-111162380D02*
X68721428Y-111162380D01*
X69483333Y-111638571D02*
X69150000Y-111638571D01*
X69150000Y-112162380D02*
X69150000Y-111162380D01*
X69150000Y-111162380D02*
X69626190Y-111162380D01*
X70150000Y-111162380D02*
X70150000Y-111400476D01*
X69911905Y-111305238D02*
X70150000Y-111400476D01*
X70150000Y-111400476D02*
X70388095Y-111305238D01*
X70007143Y-111590952D02*
X70150000Y-111400476D01*
X70150000Y-111400476D02*
X70292857Y-111590952D01*
X70911905Y-111162380D02*
X70911905Y-111400476D01*
X70673810Y-111305238D02*
X70911905Y-111400476D01*
X70911905Y-111400476D02*
X71150000Y-111305238D01*
X70769048Y-111590952D02*
X70911905Y-111400476D01*
X70911905Y-111400476D02*
X71054762Y-111590952D01*
%TO.C,10uF*%
X56568571Y-68872380D02*
X55997143Y-68872380D01*
X56282857Y-68872380D02*
X56282857Y-67872380D01*
X56282857Y-67872380D02*
X56187619Y-68015238D01*
X56187619Y-68015238D02*
X56092381Y-68110476D01*
X56092381Y-68110476D02*
X55997143Y-68158095D01*
X57187619Y-67872380D02*
X57282857Y-67872380D01*
X57282857Y-67872380D02*
X57378095Y-67920000D01*
X57378095Y-67920000D02*
X57425714Y-67967619D01*
X57425714Y-67967619D02*
X57473333Y-68062857D01*
X57473333Y-68062857D02*
X57520952Y-68253333D01*
X57520952Y-68253333D02*
X57520952Y-68491428D01*
X57520952Y-68491428D02*
X57473333Y-68681904D01*
X57473333Y-68681904D02*
X57425714Y-68777142D01*
X57425714Y-68777142D02*
X57378095Y-68824761D01*
X57378095Y-68824761D02*
X57282857Y-68872380D01*
X57282857Y-68872380D02*
X57187619Y-68872380D01*
X57187619Y-68872380D02*
X57092381Y-68824761D01*
X57092381Y-68824761D02*
X57044762Y-68777142D01*
X57044762Y-68777142D02*
X56997143Y-68681904D01*
X56997143Y-68681904D02*
X56949524Y-68491428D01*
X56949524Y-68491428D02*
X56949524Y-68253333D01*
X56949524Y-68253333D02*
X56997143Y-68062857D01*
X56997143Y-68062857D02*
X57044762Y-67967619D01*
X57044762Y-67967619D02*
X57092381Y-67920000D01*
X57092381Y-67920000D02*
X57187619Y-67872380D01*
X58378095Y-68205714D02*
X58378095Y-68872380D01*
X57949524Y-68205714D02*
X57949524Y-68729523D01*
X57949524Y-68729523D02*
X57997143Y-68824761D01*
X57997143Y-68824761D02*
X58092381Y-68872380D01*
X58092381Y-68872380D02*
X58235238Y-68872380D01*
X58235238Y-68872380D02*
X58330476Y-68824761D01*
X58330476Y-68824761D02*
X58378095Y-68777142D01*
X59187619Y-68348571D02*
X58854286Y-68348571D01*
X58854286Y-68872380D02*
X58854286Y-67872380D01*
X58854286Y-67872380D02*
X59330476Y-67872380D01*
%TO.C,REF\u002A\u002A*%
X22166666Y-122167380D02*
X21833333Y-121691190D01*
X21595238Y-122167380D02*
X21595238Y-121167380D01*
X21595238Y-121167380D02*
X21976190Y-121167380D01*
X21976190Y-121167380D02*
X22071428Y-121215000D01*
X22071428Y-121215000D02*
X22119047Y-121262619D01*
X22119047Y-121262619D02*
X22166666Y-121357857D01*
X22166666Y-121357857D02*
X22166666Y-121500714D01*
X22166666Y-121500714D02*
X22119047Y-121595952D01*
X22119047Y-121595952D02*
X22071428Y-121643571D01*
X22071428Y-121643571D02*
X21976190Y-121691190D01*
X21976190Y-121691190D02*
X21595238Y-121691190D01*
X22595238Y-121643571D02*
X22928571Y-121643571D01*
X23071428Y-122167380D02*
X22595238Y-122167380D01*
X22595238Y-122167380D02*
X22595238Y-121167380D01*
X22595238Y-121167380D02*
X23071428Y-121167380D01*
X23833333Y-121643571D02*
X23500000Y-121643571D01*
X23500000Y-122167380D02*
X23500000Y-121167380D01*
X23500000Y-121167380D02*
X23976190Y-121167380D01*
X24500000Y-121167380D02*
X24500000Y-121405476D01*
X24261905Y-121310238D02*
X24500000Y-121405476D01*
X24500000Y-121405476D02*
X24738095Y-121310238D01*
X24357143Y-121595952D02*
X24500000Y-121405476D01*
X24500000Y-121405476D02*
X24642857Y-121595952D01*
X25261905Y-121167380D02*
X25261905Y-121405476D01*
X25023810Y-121310238D02*
X25261905Y-121405476D01*
X25261905Y-121405476D02*
X25500000Y-121310238D01*
X25119048Y-121595952D02*
X25261905Y-121405476D01*
X25261905Y-121405476D02*
X25404762Y-121595952D01*
D11*
X84018000Y-123365000D02*
X95448000Y-123365000D01*
X95448000Y-123365000D02*
X95448000Y-142265000D01*
X95448000Y-142265000D02*
X84018000Y-142265000D01*
X84018000Y-142265000D02*
X84018000Y-123365000D01*
D12*
X84018000Y-129985000D02*
X95448000Y-129985000D01*
D11*
X63448000Y-123365000D02*
X74878000Y-123365000D01*
X74878000Y-123365000D02*
X74878000Y-142265000D01*
X74878000Y-142265000D02*
X63448000Y-142265000D01*
X63448000Y-142265000D02*
X63448000Y-123365000D01*
D12*
X63448000Y-129985000D02*
X74878000Y-129985000D01*
%TO.C,SSD1306*%
X92790000Y-96000000D02*
X65390000Y-96000000D01*
X92790000Y-68700000D02*
X92790000Y-96000000D01*
X92252000Y-88620000D02*
X92252000Y-71983000D01*
X92252000Y-71983000D02*
X91998000Y-71995000D01*
X88912000Y-88595000D02*
X92252000Y-88620000D01*
X88912000Y-88595000D02*
X65812000Y-88595000D01*
X88912000Y-71995000D02*
X91998000Y-71995000D01*
X83870000Y-71602000D02*
X74091000Y-71602000D01*
X83870000Y-69189000D02*
X83870000Y-71602000D01*
X74091000Y-69189000D02*
X83870000Y-69189000D01*
X74091000Y-69189000D02*
X74091000Y-71602000D01*
X65812000Y-88595000D02*
X65812000Y-71995000D01*
X65812000Y-71995000D02*
X88912000Y-71995000D01*
X65390000Y-96000000D02*
X65390000Y-68700000D01*
X65390000Y-68700000D02*
X92790000Y-68700000D01*
%TO.C,SHUNT*%
X58410000Y-83065000D02*
X58410000Y-82135000D01*
X58410000Y-83065000D02*
X56950000Y-83065000D01*
X58410000Y-79905000D02*
X58410000Y-80835000D01*
X58410000Y-79905000D02*
X56250000Y-79905000D01*
%TO.C,U1*%
X29610000Y-66270000D02*
X29610000Y-66570000D01*
X29610000Y-66270000D02*
X50610000Y-66270000D01*
X29610000Y-68670000D02*
X29610000Y-69070000D01*
X29610000Y-68937000D02*
X32617000Y-68937000D01*
X29610000Y-71270000D02*
X29610000Y-71670000D01*
X29610000Y-73770000D02*
X29610000Y-74170000D01*
X29610000Y-76370000D02*
X29610000Y-76770000D01*
X29610000Y-78870000D02*
X29610000Y-79270000D01*
X29610000Y-81370000D02*
X29610000Y-81770000D01*
X29610000Y-83970000D02*
X29610000Y-84370000D01*
X29610000Y-86470000D02*
X29610000Y-86870000D01*
X29610000Y-89070000D02*
X29610000Y-89470000D01*
X29610000Y-91570000D02*
X29610000Y-91970000D01*
X29610000Y-94070000D02*
X29610000Y-94470000D01*
X29610000Y-96670000D02*
X29610000Y-97070000D01*
X29610000Y-99170000D02*
X29610000Y-99570000D01*
X29610000Y-101770000D02*
X29610000Y-102170000D01*
X29610000Y-104270000D02*
X29610000Y-104670000D01*
X29610000Y-106870000D02*
X29610000Y-107270000D01*
X29610000Y-109370000D02*
X29610000Y-109770000D01*
X29610000Y-111870000D02*
X29610000Y-112270000D01*
X29610000Y-114470000D02*
X29610000Y-114870000D01*
X32617000Y-68937000D02*
X32617000Y-66270000D01*
X36410000Y-117270000D02*
X29610000Y-117270000D01*
X38610000Y-117270000D02*
X39010000Y-117270000D01*
X41210000Y-117270000D02*
X41610000Y-117270000D01*
X50610000Y-66270000D02*
X50610000Y-66570000D01*
X50610000Y-68670000D02*
X50610000Y-69070000D01*
X50610000Y-71270000D02*
X50610000Y-71670000D01*
X50610000Y-73770000D02*
X50610000Y-74170000D01*
X50610000Y-76370000D02*
X50610000Y-76770000D01*
X50610000Y-78870000D02*
X50610000Y-79270000D01*
X50610000Y-81370000D02*
X50610000Y-81770000D01*
X50610000Y-83970000D02*
X50610000Y-84370000D01*
X50610000Y-86470000D02*
X50610000Y-86870000D01*
X50610000Y-89070000D02*
X50610000Y-89470000D01*
X50610000Y-91570000D02*
X50610000Y-91970000D01*
X50610000Y-94070000D02*
X50610000Y-94470000D01*
X50610000Y-96670000D02*
X50610000Y-97070000D01*
X50610000Y-99170000D02*
X50610000Y-99570000D01*
X50610000Y-101770000D02*
X50610000Y-102170000D01*
X50610000Y-104270000D02*
X50610000Y-104670000D01*
X50610000Y-106870000D02*
X50610000Y-107270000D01*
X50610000Y-109370000D02*
X50610000Y-109770000D01*
X50610000Y-111870000D02*
X50610000Y-112270000D01*
X50610000Y-114470000D02*
X50610000Y-114870000D01*
X50610000Y-117270000D02*
X43810000Y-117270000D01*
%TO.C,REF\u002A\u002A*%
X76235000Y-115180000D02*
X62265000Y-115180000D01*
X76235000Y-101210000D02*
X76235000Y-115180000D01*
X62265000Y-115180000D02*
X62265000Y-101210000D01*
X62265000Y-101210000D02*
X76235000Y-101210000D01*
X96235000Y-115180000D02*
X82265000Y-115180000D01*
X96235000Y-101210000D02*
X96235000Y-115180000D01*
X82265000Y-115180000D02*
X82265000Y-101210000D01*
X82265000Y-101210000D02*
X96235000Y-101210000D01*
X86800000Y-118025000D02*
X91800000Y-118025000D01*
X86680000Y-113105000D02*
X86680000Y-112785000D01*
X86680000Y-112785000D02*
X91800000Y-112785000D01*
X66650000Y-117915000D02*
X71650000Y-117915000D01*
X66530000Y-112995000D02*
X66530000Y-112675000D01*
X66530000Y-112675000D02*
X71650000Y-112675000D01*
%TO.C,10uF*%
X54698748Y-70850000D02*
X55221252Y-70850000D01*
X54698748Y-69380000D02*
X55221252Y-69380000D01*
%TD*%
M02*
