%TF.GenerationSoftware,KiCad,Pcbnew,(7.0.0-0)*%
%TF.CreationDate,2023-02-22T23:51:40-06:00*%
%TF.ProjectId,first_keeb,66697273-745f-46b6-9565-622e6b696361,rev?*%
%TF.SameCoordinates,Original*%
%TF.FileFunction,Copper,L2,Bot*%
%TF.FilePolarity,Positive*%
%FSLAX46Y46*%
G04 Gerber Fmt 4.6, Leading zero omitted, Abs format (unit mm)*
G04 Created by KiCad (PCBNEW (7.0.0-0)) date 2023-02-22 23:51:40*
%MOMM*%
%LPD*%
G01*
G04 APERTURE LIST*
G04 Aperture macros list*
%AMRoundRect*
0 Rectangle with rounded corners*
0 $1 Rounding radius*
0 $2 $3 $4 $5 $6 $7 $8 $9 X,Y pos of 4 corners*
0 Add a 4 corners polygon primitive as box body*
4,1,4,$2,$3,$4,$5,$6,$7,$8,$9,$2,$3,0*
0 Add four circle primitives for the rounded corners*
1,1,$1+$1,$2,$3*
1,1,$1+$1,$4,$5*
1,1,$1+$1,$6,$7*
1,1,$1+$1,$8,$9*
0 Add four rect primitives between the rounded corners*
20,1,$1+$1,$2,$3,$4,$5,0*
20,1,$1+$1,$4,$5,$6,$7,0*
20,1,$1+$1,$6,$7,$8,$9,0*
20,1,$1+$1,$8,$9,$2,$3,0*%
G04 Aperture macros list end*
%TA.AperFunction,ComponentPad*%
%ADD10C,2.000000*%
%TD*%
%TA.AperFunction,ComponentPad*%
%ADD11C,1.700000*%
%TD*%
%TA.AperFunction,ComponentPad*%
%ADD12O,1.600000X2.000000*%
%TD*%
%TA.AperFunction,ComponentPad*%
%ADD13O,1.700000X1.700000*%
%TD*%
%TA.AperFunction,ComponentPad*%
%ADD14R,1.700000X1.700000*%
%TD*%
%TA.AperFunction,SMDPad,CuDef*%
%ADD15RoundRect,0.225000X0.225000X0.250000X-0.225000X0.250000X-0.225000X-0.250000X0.225000X-0.250000X0*%
%TD*%
%TA.AperFunction,SMDPad,CuDef*%
%ADD16RoundRect,0.225000X-0.250000X0.225000X-0.250000X-0.225000X0.250000X-0.225000X0.250000X0.225000X0*%
%TD*%
%TA.AperFunction,SMDPad,CuDef*%
%ADD17R,0.800000X0.900000*%
%TD*%
%TA.AperFunction,SMDPad,CuDef*%
%ADD18RoundRect,0.225000X0.250000X-0.225000X0.250000X0.225000X-0.250000X0.225000X-0.250000X-0.225000X0*%
%TD*%
%TA.AperFunction,SMDPad,CuDef*%
%ADD19RoundRect,0.200000X0.200000X0.275000X-0.200000X0.275000X-0.200000X-0.275000X0.200000X-0.275000X0*%
%TD*%
%TA.AperFunction,SMDPad,CuDef*%
%ADD20RoundRect,0.200000X0.275000X-0.200000X0.275000X0.200000X-0.275000X0.200000X-0.275000X-0.200000X0*%
%TD*%
%TA.AperFunction,ViaPad*%
%ADD21C,0.800000*%
%TD*%
%TA.AperFunction,Conductor*%
%ADD22C,0.250000*%
%TD*%
%TA.AperFunction,Conductor*%
%ADD23C,0.200000*%
%TD*%
G04 APERTURE END LIST*
D10*
%TO.P,REF\u002A\u002A,4*%
%TO.N,GND*%
X93060000Y-124885000D03*
%TO.P,REF\u002A\u002A,3*%
X86050000Y-124885000D03*
D11*
%TO.P,REF\u002A\u002A,2*%
X91800000Y-127425000D03*
%TO.P,REF\u002A\u002A,1*%
%TO.N,N/C*%
X87310000Y-127375000D03*
%TD*%
D10*
%TO.P,REF\u002A\u002A,4*%
%TO.N,GND*%
X72490000Y-124885000D03*
%TO.P,REF\u002A\u002A,3*%
X65480000Y-124885000D03*
D11*
%TO.P,REF\u002A\u002A,2*%
X71230000Y-127425000D03*
%TO.P,REF\u002A\u002A,1*%
%TO.N,N/C*%
X66740000Y-127375000D03*
%TD*%
D12*
%TO.P,SSD1306,4*%
%TO.N,N/C*%
X82789999Y-70399999D03*
%TO.P,SSD1306,3*%
X80249999Y-70399999D03*
%TO.P,SSD1306,2*%
X77709999Y-70399999D03*
%TO.P,SSD1306,1*%
%TO.N,GND*%
X75169999Y-70399999D03*
%TD*%
D13*
%TO.P,U1,1*%
%TO.N,N/C*%
X31219999Y-67639999D03*
%TO.P,U1,2*%
X31219999Y-70179999D03*
D14*
%TO.P,U1,3*%
X31219999Y-72719999D03*
D13*
%TO.P,U1,4*%
X31219999Y-75259999D03*
%TO.P,U1,5*%
X31219999Y-77799999D03*
%TO.P,U1,6*%
X31219999Y-80339999D03*
%TO.P,U1,7*%
X31219999Y-82879999D03*
D14*
%TO.P,U1,8*%
X31219999Y-85419999D03*
D13*
%TO.P,U1,9*%
X31219999Y-87959999D03*
%TO.P,U1,10*%
X31219999Y-90499999D03*
%TO.P,U1,11*%
X31219999Y-93039999D03*
%TO.P,U1,12*%
X31219999Y-95579999D03*
D14*
%TO.P,U1,13*%
X31219999Y-98119999D03*
D13*
%TO.P,U1,14*%
X31219999Y-100659999D03*
%TO.P,U1,15*%
X31219999Y-103199999D03*
%TO.P,U1,16*%
X31219999Y-105739999D03*
%TO.P,U1,17*%
X31219999Y-108279999D03*
D14*
%TO.P,U1,18*%
X31219999Y-110819999D03*
D13*
%TO.P,U1,19*%
X31219999Y-113359999D03*
%TO.P,U1,20*%
X31219999Y-115899999D03*
%TO.P,U1,21*%
X48999999Y-115899999D03*
%TO.P,U1,22*%
X48999999Y-113359999D03*
D14*
%TO.P,U1,23*%
%TO.N,GND*%
X48999999Y-110819999D03*
D13*
%TO.P,U1,24*%
%TO.N,N/C*%
X48999999Y-108279999D03*
%TO.P,U1,25*%
X48999999Y-105739999D03*
%TO.P,U1,26*%
X48999999Y-103199999D03*
%TO.P,U1,27*%
X48999999Y-100659999D03*
D14*
%TO.P,U1,28*%
%TO.N,GND*%
X48999999Y-98119999D03*
D13*
%TO.P,U1,29*%
%TO.N,N/C*%
X48999999Y-95579999D03*
%TO.P,U1,30*%
X48999999Y-93039999D03*
%TO.P,U1,31*%
X48999999Y-90499999D03*
%TO.P,U1,32*%
X48999999Y-87959999D03*
D14*
%TO.P,U1,33*%
%TO.N,AGND*%
X48999999Y-85419999D03*
D13*
%TO.P,U1,34*%
%TO.N,N/C*%
X48999999Y-82879999D03*
%TO.P,U1,35*%
X48999999Y-80339999D03*
%TO.P,U1,36*%
X48999999Y-77799999D03*
%TO.P,U1,37*%
X48999999Y-75259999D03*
D14*
%TO.P,U1,38*%
%TO.N,GND*%
X48999999Y-72719999D03*
D13*
%TO.P,U1,39*%
%TO.N,N/C*%
X48999999Y-70179999D03*
%TO.P,U1,40*%
X48999999Y-67639999D03*
%TO.P,U1,41*%
X37569999Y-115669999D03*
D14*
%TO.P,U1,42*%
X40109999Y-115669999D03*
D13*
%TO.P,U1,43*%
X42649999Y-115669999D03*
%TD*%
D15*
%TO.P,CUP,2*%
%TO.N,GND*%
X83125000Y-115895000D03*
%TO.P,CUP,1*%
%TO.N,N/C*%
X84675000Y-115895000D03*
%TD*%
D16*
%TO.P,CUP,2*%
%TO.N,N/C*%
X86680000Y-109110000D03*
%TO.P,CUP,1*%
X86680000Y-107560000D03*
%TD*%
D17*
%TO.P,SENS,3*%
%TO.N,AGND*%
X69159999Y-109284999D03*
%TO.P,SENS,2*%
%TO.N,N/C*%
X70109999Y-107284999D03*
%TO.P,SENS,1*%
X68209999Y-107284999D03*
%TD*%
D18*
%TO.P,RST,2*%
%TO.N,N/C*%
X44240000Y-93530000D03*
%TO.P,RST,1*%
X44240000Y-95080000D03*
%TD*%
D19*
%TO.P,PULL,2*%
%TO.N,N/C*%
X42880000Y-105215000D03*
%TO.P,PULL,1*%
X44530000Y-105215000D03*
%TD*%
D15*
%TO.P,CUP,2*%
%TO.N,AGND*%
X64785000Y-105455000D03*
%TO.P,CUP,1*%
%TO.N,N/C*%
X66335000Y-105455000D03*
%TD*%
D20*
%TO.P,PULL,2*%
%TO.N,N/C*%
X45420000Y-97760000D03*
%TO.P,PULL,1*%
X45420000Y-99410000D03*
%TD*%
D17*
%TO.P,REF\u002A\u002A,3*%
%TO.N,AGND*%
X89519999Y-109484999D03*
%TO.P,REF\u002A\u002A,2*%
%TO.N,N/C*%
X90469999Y-107484999D03*
%TO.P,REF\u002A\u002A,1*%
X88569999Y-107484999D03*
%TD*%
D15*
%TO.P,CUP,2*%
%TO.N,GND*%
X63510000Y-115145000D03*
%TO.P,CUP,1*%
%TO.N,N/C*%
X65060000Y-115145000D03*
%TD*%
D21*
%TO.N,*%
X46000000Y-74000000D03*
X46000000Y-76500000D03*
X57830000Y-113455000D03*
X69250000Y-113645000D03*
X74950000Y-105455000D03*
%TO.N,GND*%
X42150000Y-103955000D03*
%TO.N,*%
X68030000Y-105385000D03*
X78030000Y-105035000D03*
X84710000Y-114715000D03*
X78020000Y-100305000D03*
%TO.N,GND*%
X43320000Y-97645000D03*
%TO.N,*%
X86040000Y-110255000D03*
X77990000Y-113865000D03*
X66150000Y-114885000D03*
%TO.N,AGND*%
X63350000Y-104095000D03*
X87200000Y-111905000D03*
X67760000Y-110415000D03*
%TO.N,GND*%
X81770000Y-116035000D03*
X61920000Y-115445000D03*
%TD*%
D22*
%TO.N,*%
X45380000Y-103200000D02*
X44465000Y-103200000D01*
X45500000Y-74000000D02*
X46000000Y-74000000D01*
X44465000Y-103200000D02*
X41000000Y-99735000D01*
X41000000Y-99735000D02*
X41000000Y-78500000D01*
X41000000Y-78500000D02*
X45500000Y-74000000D01*
X45420000Y-100625000D02*
X43890000Y-100625000D01*
X43890000Y-100625000D02*
X42000000Y-98735000D01*
X42000000Y-98735000D02*
X42000000Y-81525305D01*
X42000000Y-81525305D02*
X46000000Y-77525305D01*
X46000000Y-77525305D02*
X46000000Y-76500000D01*
X78020000Y-100305000D02*
X78030000Y-100295000D01*
X50175000Y-71355000D02*
X49000000Y-70180000D01*
X78030000Y-100295000D02*
X78030000Y-97030000D01*
X78030000Y-97030000D02*
X52355000Y-71355000D01*
X52355000Y-71355000D02*
X50175000Y-71355000D01*
%TO.N,AGND*%
X87200000Y-111905000D02*
X87200000Y-111805000D01*
X87200000Y-111805000D02*
X89520000Y-109485000D01*
%TO.N,GND*%
X45305000Y-97645000D02*
X45420000Y-97760000D01*
%TO.N,*%
X45380000Y-104365000D02*
X44530000Y-105215000D01*
X90470000Y-107485000D02*
X90470000Y-105835000D01*
X87785000Y-106455000D02*
X86680000Y-107560000D01*
X68030000Y-107105000D02*
X68210000Y-107285000D01*
X86700000Y-104765000D02*
X86700000Y-104695000D01*
%TO.N,GND*%
X43320000Y-97645000D02*
X45305000Y-97645000D01*
%TO.N,*%
X86680000Y-109615000D02*
X86040000Y-110255000D01*
X70110000Y-107285000D02*
X70110000Y-104785000D01*
D23*
%TO.N,GND*%
X42880000Y-104685000D02*
X42150000Y-103955000D01*
D22*
%TO.N,*%
X45420000Y-99410000D02*
X45420000Y-100625000D01*
X76210000Y-104195000D02*
X74950000Y-105455000D01*
X49000000Y-93040000D02*
X44730000Y-93040000D01*
X68030000Y-105385000D02*
X66405000Y-105385000D01*
D23*
X69250000Y-113645000D02*
X58020000Y-113645000D01*
D22*
X48965000Y-100625000D02*
X45420000Y-100625000D01*
X44240000Y-95080000D02*
X48500000Y-95080000D01*
X44730000Y-93040000D02*
X44240000Y-93530000D01*
X66150000Y-114885000D02*
X65320000Y-114885000D01*
X82679695Y-103610000D02*
X82094695Y-104195000D01*
X62685000Y-87960000D02*
X49000000Y-87960000D01*
X48500000Y-95080000D02*
X49000000Y-95580000D01*
X49000000Y-100660000D02*
X48965000Y-100625000D01*
X84710000Y-115860000D02*
X84675000Y-115895000D01*
D23*
%TO.N,GND*%
X42880000Y-105215000D02*
X42880000Y-104685000D01*
D22*
%TO.N,*%
X55825000Y-90500000D02*
X49000000Y-90500000D01*
X77300000Y-102575000D02*
X62685000Y-87960000D01*
X45380000Y-103200000D02*
X45380000Y-104365000D01*
X70110000Y-104785000D02*
X55825000Y-90500000D01*
X86700000Y-104695000D02*
X85615000Y-103610000D01*
X87785000Y-105850000D02*
X86700000Y-104765000D01*
X49000000Y-103200000D02*
X45380000Y-103200000D01*
X66405000Y-105385000D02*
X66335000Y-105455000D01*
X84710000Y-114715000D02*
X84710000Y-115860000D01*
X88570000Y-107485000D02*
X88570000Y-106635000D01*
X87785000Y-105850000D02*
X87785000Y-106455000D01*
D23*
X58020000Y-113645000D02*
X57830000Y-113455000D01*
D22*
X90470000Y-105835000D02*
X87210000Y-102575000D01*
X85615000Y-103610000D02*
X82679695Y-103610000D01*
X87210000Y-102575000D02*
X77300000Y-102575000D01*
X65320000Y-114885000D02*
X65060000Y-115145000D01*
D23*
X45400000Y-100605000D02*
X45420000Y-100625000D01*
D22*
X82094695Y-104195000D02*
X76210000Y-104195000D01*
X68030000Y-105385000D02*
X68030000Y-107105000D01*
X86680000Y-109110000D02*
X86680000Y-109615000D01*
X88570000Y-106635000D02*
X87785000Y-105850000D01*
X78030000Y-105035000D02*
X78030000Y-113825000D01*
X78030000Y-113825000D02*
X77990000Y-113865000D01*
%TO.N,AGND*%
X69160000Y-109285000D02*
X68890000Y-109285000D01*
X64785000Y-105455000D02*
X64740000Y-105455000D01*
X64740000Y-105455000D02*
X63350000Y-104095000D01*
X63350000Y-104095000D02*
X63700000Y-104415000D01*
X68890000Y-109285000D02*
X67760000Y-110415000D01*
%TO.N,GND*%
X63510000Y-115145000D02*
X62220000Y-115145000D01*
X83125000Y-115895000D02*
X81910000Y-115895000D01*
X62220000Y-115145000D02*
X61920000Y-115445000D01*
X81910000Y-115895000D02*
X81770000Y-116035000D01*
%TD*%
%TA.AperFunction,Conductor*%
%TO.N,GND*%
G36*
X46832123Y-73624281D02*
G01*
X46739040Y-73463056D01*
X46611253Y-73321134D01*
X46606003Y-73317319D01*
X46605999Y-73317316D01*
X46462006Y-73212699D01*
X46462004Y-73212697D01*
X46456752Y-73208882D01*
X46450821Y-73206241D01*
X46450817Y-73206239D01*
X46288226Y-73133849D01*
X46288219Y-73133846D01*
X46282288Y-73131206D01*
X46275935Y-73129855D01*
X46275927Y-73129853D01*
X46101849Y-73092852D01*
X46101846Y-73092851D01*
X46095487Y-73091500D01*
X45904513Y-73091500D01*
X45898154Y-73092851D01*
X45898150Y-73092852D01*
X45724072Y-73129853D01*
X45724061Y-73129856D01*
X45717712Y-73131206D01*
X45711782Y-73133845D01*
X45711773Y-73133849D01*
X45549182Y-73206239D01*
X45549174Y-73206243D01*
X45543248Y-73208882D01*
X45537999Y-73212695D01*
X45537993Y-73212699D01*
X45394001Y-73317316D01*
X45393996Y-73317319D01*
X45388747Y-73321134D01*
X45384406Y-73325954D01*
X45384395Y-73325965D01*
X45350042Y-73364117D01*
X45303547Y-73396433D01*
X45300009Y-73397834D01*
X45288955Y-73401619D01*
X45253902Y-73411803D01*
X45253892Y-73411807D01*
X45246407Y-73413982D01*
X45239694Y-73417951D01*
X45239691Y-73417953D01*
X45228834Y-73424374D01*
X45211370Y-73432929D01*
X45199636Y-73437575D01*
X45199629Y-73437578D01*
X45192383Y-73440448D01*
X45186079Y-73445027D01*
X45186068Y-73445034D01*
X45156534Y-73466491D01*
X45146776Y-73472901D01*
X45115355Y-73491483D01*
X45115341Y-73491493D01*
X45108638Y-73495458D01*
X45103122Y-73500973D01*
X45103119Y-73500976D01*
X45094197Y-73509897D01*
X45079414Y-73522523D01*
X45069206Y-73529940D01*
X45069200Y-73529944D01*
X45062893Y-73534528D01*
X45057926Y-73540530D01*
X45057915Y-73540542D01*
X45034643Y-73568673D01*
X45026783Y-73577311D01*
X40607793Y-77996300D01*
X40599444Y-78003898D01*
X40592982Y-78008000D01*
X40587641Y-78013686D01*
X40587639Y-78013689D01*
X40546339Y-78057668D01*
X40543634Y-78060460D01*
X40523865Y-78080230D01*
X40521481Y-78083302D01*
X40521478Y-78083306D01*
X40521322Y-78083508D01*
X40513752Y-78092370D01*
X40483414Y-78124679D01*
X40479659Y-78131507D01*
X40479658Y-78131510D01*
X40473579Y-78142567D01*
X40462903Y-78158819D01*
X40455168Y-78168791D01*
X40455160Y-78168802D01*
X40450386Y-78174959D01*
X40447291Y-78182110D01*
X40447288Y-78182116D01*
X40432786Y-78215628D01*
X40427648Y-78226115D01*
X40410065Y-78258098D01*
X40410061Y-78258106D01*
X40406305Y-78264940D01*
X40404366Y-78272491D01*
X40404363Y-78272499D01*
X40401225Y-78284722D01*
X40394926Y-78303119D01*
X40386819Y-78321855D01*
X40385599Y-78329553D01*
X40385598Y-78329559D01*
X40379888Y-78365611D01*
X40377520Y-78377045D01*
X40368438Y-78412417D01*
X40368436Y-78412426D01*
X40366500Y-78419970D01*
X40366500Y-78427766D01*
X40366500Y-78440385D01*
X40364972Y-78459783D01*
X40361780Y-78479943D01*
X40362514Y-78487708D01*
X40362514Y-78487711D01*
X40365950Y-78524058D01*
X40366500Y-78535727D01*
X40366500Y-99656154D01*
X40365968Y-99667437D01*
X40364298Y-99674909D01*
X40364543Y-99682705D01*
X40364543Y-99682707D01*
X40366439Y-99743017D01*
X40366500Y-99746913D01*
X40366500Y-99774856D01*
X40366988Y-99778721D01*
X40366989Y-99778732D01*
X40367019Y-99778970D01*
X40367934Y-99790596D01*
X40369081Y-99827096D01*
X40369082Y-99827103D01*
X40369327Y-99834889D01*
X40371500Y-99842370D01*
X40371502Y-99842380D01*
X40375022Y-99854495D01*
X40378967Y-99873542D01*
X40381526Y-99893797D01*
X40384395Y-99901045D01*
X40384398Y-99901054D01*
X40397838Y-99935001D01*
X40401621Y-99946048D01*
X40413982Y-99988593D01*
X40417953Y-99995308D01*
X40417954Y-99995310D01*
X40424375Y-100006168D01*
X40432930Y-100023631D01*
X40440448Y-100042617D01*
X40445030Y-100048924D01*
X40445031Y-100048925D01*
X40466491Y-100078462D01*
X40472905Y-100088227D01*
X40495458Y-100126362D01*
X40500976Y-100131880D01*
X40509889Y-100140793D01*
X40522525Y-100155588D01*
X40529938Y-100165791D01*
X40529943Y-100165796D01*
X40534528Y-100172107D01*
X40568667Y-100200349D01*
X40577308Y-100208212D01*
X43961302Y-103592207D01*
X43968898Y-103600555D01*
X43973000Y-103607018D01*
X44022684Y-103653674D01*
X44025447Y-103656352D01*
X44045230Y-103676135D01*
X44048306Y-103678521D01*
X44048503Y-103678674D01*
X44057382Y-103686258D01*
X44089679Y-103716586D01*
X44107565Y-103726418D01*
X44123829Y-103737102D01*
X44133792Y-103744831D01*
X44133795Y-103744833D01*
X44139959Y-103749614D01*
X44147122Y-103752713D01*
X44147123Y-103752714D01*
X44180616Y-103767207D01*
X44191112Y-103772348D01*
X44229940Y-103793695D01*
X44249716Y-103798772D01*
X44268123Y-103805075D01*
X44279691Y-103810081D01*
X44279692Y-103810081D01*
X44286855Y-103813181D01*
X44330621Y-103820112D01*
X44342041Y-103822477D01*
X44384970Y-103833500D01*
X44405385Y-103833500D01*
X44424783Y-103835027D01*
X44444943Y-103838220D01*
X44483476Y-103834577D01*
X44489058Y-103834050D01*
X44500727Y-103833500D01*
X44622500Y-103833500D01*
X44684500Y-103850113D01*
X44729887Y-103895500D01*
X44746500Y-103957500D01*
X44746500Y-104051233D01*
X44737061Y-104098686D01*
X44710180Y-104138915D01*
X44653912Y-104195182D01*
X44613684Y-104222061D01*
X44566232Y-104231500D01*
X44275556Y-104231500D01*
X44275534Y-104231500D01*
X44272736Y-104231501D01*
X44269935Y-104231755D01*
X44269923Y-104231756D01*
X44207883Y-104237393D01*
X44207878Y-104237393D01*
X44201351Y-104237987D01*
X44195095Y-104239936D01*
X44195092Y-104239937D01*
X44044243Y-104286942D01*
X44044234Y-104286945D01*
X44037087Y-104289173D01*
X44030674Y-104293049D01*
X44030671Y-104293051D01*
X43896261Y-104374304D01*
X43896253Y-104374310D01*
X43889845Y-104378184D01*
X43884545Y-104383483D01*
X43884541Y-104383487D01*
X43792681Y-104475348D01*
X43737094Y-104507442D01*
X43672906Y-104507442D01*
X43617319Y-104475348D01*
X43525458Y-104383487D01*
X43520155Y-104378184D01*
X43513742Y-104374307D01*
X43513738Y-104374304D01*
X43379328Y-104293051D01*
X43379327Y-104293050D01*
X43372913Y-104289173D01*
X43365761Y-104286944D01*
X43365756Y-104286942D01*
X43214909Y-104239937D01*
X43214903Y-104239935D01*
X43208649Y-104237987D01*
X43202115Y-104237393D01*
X43202114Y-104237393D01*
X43140074Y-104231755D01*
X43140068Y-104231754D01*
X43137265Y-104231500D01*
X43134446Y-104231500D01*
X42625556Y-104231500D01*
X42625534Y-104231500D01*
X42622736Y-104231501D01*
X42619935Y-104231755D01*
X42619923Y-104231756D01*
X42557883Y-104237393D01*
X42557878Y-104237393D01*
X42551351Y-104237987D01*
X42545095Y-104239936D01*
X42545092Y-104239937D01*
X42394243Y-104286942D01*
X42394234Y-104286945D01*
X42387087Y-104289173D01*
X42380674Y-104293049D01*
X42380671Y-104293051D01*
X42246261Y-104374304D01*
X42246253Y-104374310D01*
X42239845Y-104378184D01*
X42234545Y-104383483D01*
X42234541Y-104383487D01*
X42123487Y-104494541D01*
X42123483Y-104494545D01*
X42118184Y-104499845D01*
X42114310Y-104506253D01*
X42114304Y-104506261D01*
X42033051Y-104640671D01*
X42033049Y-104640674D01*
X42029173Y-104647087D01*
X42026945Y-104654234D01*
X42026942Y-104654243D01*
X41979937Y-104805090D01*
X41979935Y-104805098D01*
X41977987Y-104811351D01*
X41977393Y-104817882D01*
X41977393Y-104817885D01*
X41973839Y-104857000D01*
X41971500Y-104882735D01*
X41971500Y-104885552D01*
X41971500Y-104885553D01*
X41971500Y-105544443D01*
X41971500Y-105544464D01*
X41971501Y-105547264D01*
X41977987Y-105618649D01*
X41979936Y-105624906D01*
X41979937Y-105624907D01*
X42026942Y-105775756D01*
X42026944Y-105775761D01*
X42029173Y-105782913D01*
X42033050Y-105789327D01*
X42033051Y-105789328D01*
X42114304Y-105923738D01*
X42114307Y-105923742D01*
X42118184Y-105930155D01*
X42239845Y-106051816D01*
X42246258Y-106055693D01*
X42246261Y-106055695D01*
X42313465Y-106096321D01*
X42387087Y-106140827D01*
X42551351Y-106192013D01*
X42622735Y-106198500D01*
X43137264Y-106198499D01*
X43208649Y-106192013D01*
X43372913Y-106140827D01*
X43520155Y-106051816D01*
X43617319Y-105954651D01*
X43672906Y-105922558D01*
X43737094Y-105922558D01*
X43792680Y-105954651D01*
X43889845Y-106051816D01*
X43896258Y-106055693D01*
X43896261Y-106055695D01*
X43963465Y-106096321D01*
X44037087Y-106140827D01*
X44201351Y-106192013D01*
X44272735Y-106198500D01*
X44787264Y-106198499D01*
X44858649Y-106192013D01*
X45022913Y-106140827D01*
X45170155Y-106051816D01*
X45291816Y-105930155D01*
X45380827Y-105782913D01*
X45432013Y-105618649D01*
X45438500Y-105547265D01*
X45438499Y-105253764D01*
X45447938Y-105206312D01*
X45474815Y-105166087D01*
X45772212Y-104868690D01*
X45780550Y-104861104D01*
X45787018Y-104857000D01*
X45833706Y-104807279D01*
X45836324Y-104804578D01*
X45856135Y-104784769D01*
X45858662Y-104781509D01*
X45866243Y-104772631D01*
X45896586Y-104740321D01*
X45906421Y-104722430D01*
X45917100Y-104706171D01*
X45929614Y-104690040D01*
X45947216Y-104649361D01*
X45952339Y-104638905D01*
X45973695Y-104600060D01*
X45978773Y-104580283D01*
X45985078Y-104561869D01*
X45993181Y-104543145D01*
X46000112Y-104499376D01*
X46002482Y-104487939D01*
X46013500Y-104445030D01*
X46013500Y-104424615D01*
X46015027Y-104405217D01*
X46015065Y-104404972D01*
X46018220Y-104385057D01*
X46014050Y-104340942D01*
X46013500Y-104329273D01*
X46013500Y-103957500D01*
X46030113Y-103895500D01*
X46075500Y-103850113D01*
X46137500Y-103833500D01*
X47724044Y-103833500D01*
X47783062Y-103848445D01*
X47827853Y-103889679D01*
X47921470Y-104032972D01*
X47921478Y-104032982D01*
X47924278Y-104037268D01*
X47927752Y-104041041D01*
X47927753Y-104041043D01*
X48073288Y-104199135D01*
X48073291Y-104199138D01*
X48076760Y-104202906D01*
X48113825Y-104231755D01*
X48250376Y-104338039D01*
X48250381Y-104338042D01*
X48254424Y-104341189D01*
X48258931Y-104343628D01*
X48258934Y-104343630D01*
X48290930Y-104360945D01*
X48338436Y-104406526D01*
X48355913Y-104470000D01*
X48338436Y-104533474D01*
X48290930Y-104579055D01*
X48258934Y-104596369D01*
X48258922Y-104596376D01*
X48254424Y-104598811D01*
X48250389Y-104601951D01*
X48250376Y-104601960D01*
X48080801Y-104733948D01*
X48080795Y-104733952D01*
X48076760Y-104737094D01*
X48073297Y-104740855D01*
X48073288Y-104740864D01*
X47927753Y-104898956D01*
X47927747Y-104898963D01*
X47924278Y-104902732D01*
X47921481Y-104907012D01*
X47921474Y-104907022D01*
X47803942Y-105086920D01*
X47801140Y-105091209D01*
X47799085Y-105095892D01*
X47799080Y-105095903D01*
X47712764Y-105292687D01*
X47710704Y-105297384D01*
X47709446Y-105302349D01*
X47709445Y-105302354D01*
X47656695Y-105510657D01*
X47656693Y-105510666D01*
X47655436Y-105515632D01*
X47655012Y-105520741D01*
X47655011Y-105520751D01*
X47637268Y-105734883D01*
X47636844Y-105740000D01*
X47637268Y-105745117D01*
X47655011Y-105959248D01*
X47655012Y-105959256D01*
X47655436Y-105964368D01*
X47656693Y-105969335D01*
X47656695Y-105969342D01*
X47709445Y-106177645D01*
X47710704Y-106182616D01*
X47712764Y-106187312D01*
X47799080Y-106384096D01*
X47799083Y-106384101D01*
X47801140Y-106388791D01*
X47860505Y-106479656D01*
X47921474Y-106572977D01*
X47921477Y-106572981D01*
X47924278Y-106577268D01*
X47927752Y-106581041D01*
X47927753Y-106581043D01*
X48073288Y-106739135D01*
X48073291Y-106739138D01*
X48076760Y-106742906D01*
X48080801Y-106746051D01*
X48250376Y-106878039D01*
X48250381Y-106878042D01*
X48254424Y-106881189D01*
X48290930Y-106900945D01*
X48338434Y-106946523D01*
X48355913Y-107009996D01*
X48338437Y-107073471D01*
X48290933Y-107119053D01*
X48258930Y-107136372D01*
X48258925Y-107136374D01*
X48254424Y-107138811D01*
X48250389Y-107141951D01*
X48250376Y-107141960D01*
X48080801Y-107273948D01*
X48080795Y-107273952D01*
X48076760Y-107277094D01*
X48073297Y-107280855D01*
X48073288Y-107280864D01*
X47927753Y-107438956D01*
X47927747Y-107438963D01*
X47924278Y-107442732D01*
X47921481Y-107447012D01*
X47921474Y-107447022D01*
X47851750Y-107553744D01*
X47801140Y-107631209D01*
X47799085Y-107635892D01*
X47799080Y-107635903D01*
X47712764Y-107832687D01*
X47710704Y-107837384D01*
X47709446Y-107842349D01*
X47709445Y-107842354D01*
X47656695Y-108050657D01*
X47656693Y-108050666D01*
X47655436Y-108055632D01*
X47655012Y-108060741D01*
X47655011Y-108060751D01*
X47648246Y-108142398D01*
X47636844Y-108280000D01*
X47637268Y-108285117D01*
X47655011Y-108499248D01*
X47655012Y-108499256D01*
X47655436Y-108504368D01*
X47656693Y-108509335D01*
X47656695Y-108509342D01*
X47693390Y-108654244D01*
X47710704Y-108722616D01*
X47712764Y-108727312D01*
X47799080Y-108924096D01*
X47799083Y-108924101D01*
X47801140Y-108928791D01*
X47844457Y-108995092D01*
X47921474Y-109112977D01*
X47921477Y-109112981D01*
X47924278Y-109117268D01*
X47927752Y-109121041D01*
X47927753Y-109121043D01*
X48075706Y-109281761D01*
X48104480Y-109334513D01*
X48105073Y-109394600D01*
X48077346Y-109447910D01*
X48027811Y-109481925D01*
X47916226Y-109523544D01*
X47900810Y-109531962D01*
X47799907Y-109607498D01*
X47787498Y-109619907D01*
X47711962Y-109720810D01*
X47703547Y-109736222D01*
X47659111Y-109855358D01*
X47655573Y-109870332D01*
X47650353Y-109918885D01*
X47650000Y-109925482D01*
X47650000Y-110553674D01*
X47653450Y-110566549D01*
X47666326Y-110570000D01*
X50333674Y-110570000D01*
X50346549Y-110566549D01*
X50350000Y-110553674D01*
X50350000Y-109925482D01*
X50349646Y-109918885D01*
X50344426Y-109870332D01*
X50340888Y-109855358D01*
X50296452Y-109736222D01*
X50288037Y-109720810D01*
X50212501Y-109619907D01*
X50200092Y-109607498D01*
X50099189Y-109531962D01*
X50083779Y-109523548D01*
X49972188Y-109481926D01*
X49922653Y-109447910D01*
X49894926Y-109394600D01*
X49895519Y-109334513D01*
X49924290Y-109281765D01*
X50075722Y-109117268D01*
X50198860Y-108928791D01*
X50289296Y-108722616D01*
X50344564Y-108504368D01*
X50363156Y-108280000D01*
X50344564Y-108055632D01*
X50289296Y-107837384D01*
X50198860Y-107631209D01*
X50075722Y-107442732D01*
X50072246Y-107438956D01*
X49926711Y-107280864D01*
X49926708Y-107280861D01*
X49923240Y-107277094D01*
X49907688Y-107264989D01*
X49749623Y-107141960D01*
X49749615Y-107141955D01*
X49745576Y-107138811D01*
X49741069Y-107136372D01*
X49741060Y-107136366D01*
X49709068Y-107119053D01*
X49661562Y-107073471D01*
X49644086Y-107009996D01*
X49661565Y-106946522D01*
X49709067Y-106900946D01*
X49745576Y-106881189D01*
X49923240Y-106742906D01*
X50075722Y-106577268D01*
X50198860Y-106388791D01*
X50289296Y-106182616D01*
X50344564Y-105964368D01*
X50363156Y-105740000D01*
X50344564Y-105515632D01*
X50289296Y-105297384D01*
X50198860Y-105091209D01*
X50075722Y-104902732D01*
X50060428Y-104886118D01*
X49926711Y-104740864D01*
X49926708Y-104740861D01*
X49923240Y-104737094D01*
X49883499Y-104706162D01*
X49749623Y-104601960D01*
X49749615Y-104601955D01*
X49745576Y-104598811D01*
X49741064Y-104596369D01*
X49741061Y-104596367D01*
X49709070Y-104579055D01*
X49661564Y-104533474D01*
X49644086Y-104470000D01*
X49661564Y-104406526D01*
X49709070Y-104360945D01*
X49709109Y-104360923D01*
X49745576Y-104341189D01*
X49923240Y-104202906D01*
X50075722Y-104037268D01*
X50198860Y-103848791D01*
X50289296Y-103642616D01*
X50344564Y-103424368D01*
X50363156Y-103200000D01*
X50344564Y-102975632D01*
X50289296Y-102757384D01*
X50198860Y-102551209D01*
X50075722Y-102362732D01*
X49923240Y-102197094D01*
X49905951Y-102183637D01*
X49749623Y-102061960D01*
X49749615Y-102061955D01*
X49745576Y-102058811D01*
X49741064Y-102056369D01*
X49741061Y-102056367D01*
X49709070Y-102039055D01*
X49661564Y-101993474D01*
X49644086Y-101930000D01*
X49661564Y-101866526D01*
X49709070Y-101820945D01*
X49709109Y-101820923D01*
X49745576Y-101801189D01*
X49923240Y-101662906D01*
X50075722Y-101497268D01*
X50198860Y-101308791D01*
X50289296Y-101102616D01*
X50344564Y-100884368D01*
X50363156Y-100660000D01*
X50344564Y-100435632D01*
X50289296Y-100217384D01*
X50198860Y-100011209D01*
X50075722Y-99822732D01*
X49924292Y-99658237D01*
X49895519Y-99605485D01*
X49894926Y-99545399D01*
X49922653Y-99492088D01*
X49972189Y-99458073D01*
X50083777Y-99416452D01*
X50099189Y-99408037D01*
X50200092Y-99332501D01*
X50212501Y-99320092D01*
X50288037Y-99219189D01*
X50296452Y-99203777D01*
X50340888Y-99084641D01*
X50344426Y-99069667D01*
X50349646Y-99021114D01*
X50350000Y-99014518D01*
X50350000Y-98386326D01*
X50346549Y-98373450D01*
X50333674Y-98370000D01*
X47666326Y-98370000D01*
X47653450Y-98373450D01*
X47650000Y-98386326D01*
X47650000Y-99014518D01*
X47650353Y-99021114D01*
X47655573Y-99069667D01*
X47659111Y-99084641D01*
X47703547Y-99203777D01*
X47711962Y-99219189D01*
X47787498Y-99320092D01*
X47799907Y-99332501D01*
X47900810Y-99408037D01*
X47916220Y-99416451D01*
X48027811Y-99458073D01*
X48077346Y-99492088D01*
X48105073Y-99545399D01*
X48104480Y-99605485D01*
X48075707Y-99658238D01*
X47953862Y-99790596D01*
X47924278Y-99822732D01*
X47850930Y-99935001D01*
X47850720Y-99935322D01*
X47805928Y-99976555D01*
X47746911Y-99991500D01*
X46486743Y-99991500D01*
X46430782Y-99978154D01*
X46386867Y-99940990D01*
X46364450Y-99888007D01*
X46368358Y-99830610D01*
X46395060Y-99744918D01*
X46395060Y-99744913D01*
X46397013Y-99738649D01*
X46403500Y-99667265D01*
X46403499Y-99152736D01*
X46397013Y-99081351D01*
X46345827Y-98917087D01*
X46256816Y-98769845D01*
X46159652Y-98672681D01*
X46127558Y-98617094D01*
X46127558Y-98552906D01*
X46159652Y-98497319D01*
X46188285Y-98468686D01*
X46256816Y-98400155D01*
X46345827Y-98252913D01*
X46397013Y-98088649D01*
X46403500Y-98017265D01*
X46403499Y-97502736D01*
X46397013Y-97431351D01*
X46345827Y-97267087D01*
X46301321Y-97193465D01*
X46260695Y-97126261D01*
X46260693Y-97126258D01*
X46256816Y-97119845D01*
X46135155Y-96998184D01*
X46128742Y-96994307D01*
X46128738Y-96994304D01*
X45994328Y-96913051D01*
X45994327Y-96913050D01*
X45987913Y-96909173D01*
X45980761Y-96906944D01*
X45980756Y-96906942D01*
X45829909Y-96859937D01*
X45829903Y-96859935D01*
X45823649Y-96857987D01*
X45817115Y-96857393D01*
X45817114Y-96857393D01*
X45755074Y-96851755D01*
X45755068Y-96851754D01*
X45752265Y-96851500D01*
X45749446Y-96851500D01*
X45090556Y-96851500D01*
X45090534Y-96851500D01*
X45087736Y-96851501D01*
X45084935Y-96851755D01*
X45084923Y-96851756D01*
X45022883Y-96857393D01*
X45022878Y-96857393D01*
X45016351Y-96857987D01*
X45010095Y-96859936D01*
X45010092Y-96859937D01*
X44859243Y-96906942D01*
X44859234Y-96906945D01*
X44852087Y-96909173D01*
X44845674Y-96913049D01*
X44845671Y-96913051D01*
X44711261Y-96994304D01*
X44711253Y-96994310D01*
X44704845Y-96998184D01*
X44699545Y-97003483D01*
X44699541Y-97003487D01*
X44588487Y-97114541D01*
X44588483Y-97114545D01*
X44583184Y-97119845D01*
X44579310Y-97126253D01*
X44579304Y-97126261D01*
X44498051Y-97260671D01*
X44498049Y-97260674D01*
X44494173Y-97267087D01*
X44491945Y-97274234D01*
X44491942Y-97274243D01*
X44444937Y-97425090D01*
X44444937Y-97425092D01*
X44442987Y-97431351D01*
X44442393Y-97437882D01*
X44442393Y-97437885D01*
X44436756Y-97499923D01*
X44436500Y-97502735D01*
X44436500Y-97505552D01*
X44436500Y-97505553D01*
X44436500Y-98014443D01*
X44436500Y-98014464D01*
X44436501Y-98017264D01*
X44442987Y-98088649D01*
X44444936Y-98094906D01*
X44444937Y-98094907D01*
X44491942Y-98245756D01*
X44491944Y-98245761D01*
X44494173Y-98252913D01*
X44498050Y-98259327D01*
X44498051Y-98259328D01*
X44579304Y-98393738D01*
X44579307Y-98393742D01*
X44583184Y-98400155D01*
X44588487Y-98405458D01*
X44680348Y-98497319D01*
X44712442Y-98552906D01*
X44712442Y-98617094D01*
X44680348Y-98672681D01*
X44588487Y-98764541D01*
X44588483Y-98764545D01*
X44583184Y-98769845D01*
X44579310Y-98776253D01*
X44579304Y-98776261D01*
X44498051Y-98910671D01*
X44498049Y-98910674D01*
X44494173Y-98917087D01*
X44491945Y-98924234D01*
X44491942Y-98924243D01*
X44444937Y-99075090D01*
X44444937Y-99075092D01*
X44442987Y-99081351D01*
X44442393Y-99087882D01*
X44442393Y-99087885D01*
X44436756Y-99149923D01*
X44436500Y-99152735D01*
X44436500Y-99155552D01*
X44436500Y-99155553D01*
X44436500Y-99664443D01*
X44436500Y-99664464D01*
X44436501Y-99667264D01*
X44436755Y-99670065D01*
X44436756Y-99670076D01*
X44437904Y-99682707D01*
X44442987Y-99738649D01*
X44444934Y-99744899D01*
X44444938Y-99744916D01*
X44471642Y-99830610D01*
X44475550Y-99888007D01*
X44453133Y-99940990D01*
X44409218Y-99978154D01*
X44353257Y-99991500D01*
X44203766Y-99991500D01*
X44156313Y-99982061D01*
X44116085Y-99955181D01*
X42669819Y-98508914D01*
X42642939Y-98468686D01*
X42633500Y-98421233D01*
X42633500Y-81839071D01*
X42642939Y-81791618D01*
X42669819Y-81751390D01*
X43437113Y-80984096D01*
X46392212Y-78028995D01*
X46400550Y-78021409D01*
X46407018Y-78017305D01*
X46453706Y-77967584D01*
X46456324Y-77964883D01*
X46476134Y-77945075D01*
X46478664Y-77941813D01*
X46486244Y-77932935D01*
X46516586Y-77900626D01*
X46526422Y-77882732D01*
X46537098Y-77866479D01*
X46549613Y-77850346D01*
X46567206Y-77809690D01*
X46572341Y-77799205D01*
X46593695Y-77760365D01*
X46598773Y-77740588D01*
X46605078Y-77722174D01*
X46613181Y-77703450D01*
X46620112Y-77659681D01*
X46622482Y-77648244D01*
X46633500Y-77605335D01*
X46633500Y-77584920D01*
X46635027Y-77565522D01*
X46635065Y-77565277D01*
X46638220Y-77545362D01*
X46634050Y-77501247D01*
X46633500Y-77489578D01*
X46633500Y-77201757D01*
X46641735Y-77157321D01*
X46665348Y-77118787D01*
X46674061Y-77109110D01*
X46695280Y-77085544D01*
X46743683Y-77052490D01*
X46801866Y-77045360D01*
X46856822Y-77065753D01*
X46896271Y-77109110D01*
X46911397Y-77165742D01*
X47149756Y-87814131D01*
X47149756Y-87814134D01*
X47150000Y-87825000D01*
X47157181Y-87833158D01*
X47157182Y-87833159D01*
X47749849Y-88506428D01*
X47770330Y-88538551D01*
X47799080Y-88604096D01*
X47799083Y-88604101D01*
X47801140Y-88608791D01*
X47860505Y-88699656D01*
X47921474Y-88792977D01*
X47921477Y-88792981D01*
X47924278Y-88797268D01*
X47927752Y-88801041D01*
X47927753Y-88801043D01*
X48073288Y-88959135D01*
X48073291Y-88959138D01*
X48076760Y-88962906D01*
X48080801Y-88966051D01*
X48250376Y-89098039D01*
X48250381Y-89098042D01*
X48254424Y-89101189D01*
X48271228Y-89110283D01*
X48305285Y-89137404D01*
X48318000Y-89151848D01*
X48344344Y-89200386D01*
X48346999Y-89255549D01*
X48325440Y-89306394D01*
X48283943Y-89342836D01*
X48258930Y-89356372D01*
X48258925Y-89356374D01*
X48254424Y-89358811D01*
X48250387Y-89361952D01*
X48250378Y-89361959D01*
X48080801Y-89493948D01*
X48080795Y-89493952D01*
X48076760Y-89497094D01*
X48073297Y-89500855D01*
X48073288Y-89500864D01*
X47927753Y-89658956D01*
X47927747Y-89658963D01*
X47924278Y-89662732D01*
X47921481Y-89667012D01*
X47921474Y-89667022D01*
X47803942Y-89846920D01*
X47801140Y-89851209D01*
X47799085Y-89855892D01*
X47799080Y-89855903D01*
X47716129Y-90045016D01*
X47710704Y-90057384D01*
X47709446Y-90062349D01*
X47709445Y-90062354D01*
X47656695Y-90270657D01*
X47656693Y-90270666D01*
X47655436Y-90275632D01*
X47655012Y-90280741D01*
X47655011Y-90280751D01*
X47637268Y-90494883D01*
X47636844Y-90500000D01*
X47637268Y-90505117D01*
X47655011Y-90719248D01*
X47655012Y-90719256D01*
X47655436Y-90724368D01*
X47656693Y-90729335D01*
X47656695Y-90729342D01*
X47709445Y-90937645D01*
X47710704Y-90942616D01*
X47712764Y-90947312D01*
X47799080Y-91144096D01*
X47799083Y-91144101D01*
X47801140Y-91148791D01*
X47860505Y-91239656D01*
X47921474Y-91332977D01*
X47921477Y-91332981D01*
X47924278Y-91337268D01*
X47927752Y-91341041D01*
X47927753Y-91341043D01*
X48073288Y-91499135D01*
X48073291Y-91499138D01*
X48076760Y-91502906D01*
X48080801Y-91506051D01*
X48250376Y-91638039D01*
X48250381Y-91638042D01*
X48254424Y-91641189D01*
X48258931Y-91643628D01*
X48258934Y-91643630D01*
X48290930Y-91660945D01*
X48338436Y-91706526D01*
X48355913Y-91770000D01*
X48338436Y-91833474D01*
X48290930Y-91879055D01*
X48258934Y-91896369D01*
X48258922Y-91896376D01*
X48254424Y-91898811D01*
X48250389Y-91901951D01*
X48250376Y-91901960D01*
X48080801Y-92033948D01*
X48080795Y-92033952D01*
X48076760Y-92037094D01*
X48073297Y-92040855D01*
X48073288Y-92040864D01*
X47927753Y-92198956D01*
X47927747Y-92198963D01*
X47924278Y-92202732D01*
X47921482Y-92207011D01*
X47921470Y-92207027D01*
X47827853Y-92350321D01*
X47783062Y-92391555D01*
X47724044Y-92406500D01*
X44808848Y-92406500D01*
X44797563Y-92405968D01*
X44790092Y-92404298D01*
X44782294Y-92404543D01*
X44721970Y-92406439D01*
X44718075Y-92406500D01*
X44690144Y-92406500D01*
X44686289Y-92406986D01*
X44686255Y-92406989D01*
X44686024Y-92407019D01*
X44674405Y-92407933D01*
X44637908Y-92409080D01*
X44637900Y-92409081D01*
X44630111Y-92409326D01*
X44622625Y-92411500D01*
X44622616Y-92411502D01*
X44610496Y-92415023D01*
X44591460Y-92418965D01*
X44578941Y-92420547D01*
X44578931Y-92420549D01*
X44571203Y-92421526D01*
X44563960Y-92424393D01*
X44563950Y-92424396D01*
X44530013Y-92437832D01*
X44518971Y-92441613D01*
X44483900Y-92451803D01*
X44483893Y-92451805D01*
X44476407Y-92453981D01*
X44469697Y-92457949D01*
X44469688Y-92457953D01*
X44458824Y-92464378D01*
X44441365Y-92472931D01*
X44429637Y-92477575D01*
X44429631Y-92477577D01*
X44422383Y-92480448D01*
X44416078Y-92485028D01*
X44416070Y-92485033D01*
X44386537Y-92506489D01*
X44376782Y-92512897D01*
X44345355Y-92531484D01*
X44345347Y-92531489D01*
X44338638Y-92535458D01*
X44333121Y-92540974D01*
X44327316Y-92545478D01*
X44291481Y-92564814D01*
X44251314Y-92571500D01*
X43941128Y-92571500D01*
X43938013Y-92571818D01*
X43937998Y-92571819D01*
X43847395Y-92581076D01*
X43847392Y-92581076D01*
X43840664Y-92581764D01*
X43834247Y-92583890D01*
X43834239Y-92583892D01*
X43684757Y-92633425D01*
X43684753Y-92633426D01*
X43677899Y-92635698D01*
X43671751Y-92639489D01*
X43671749Y-92639491D01*
X43538111Y-92721920D01*
X43538105Y-92721924D01*
X43531960Y-92725715D01*
X43526853Y-92730821D01*
X43526849Y-92730825D01*
X43415825Y-92841849D01*
X43415821Y-92841853D01*
X43410715Y-92846960D01*
X43406924Y-92853105D01*
X43406920Y-92853111D01*
X43324491Y-92986749D01*
X43320698Y-92992899D01*
X43318426Y-92999753D01*
X43318425Y-92999757D01*
X43268892Y-93149239D01*
X43268890Y-93149247D01*
X43266764Y-93155664D01*
X43266076Y-93162392D01*
X43266076Y-93162395D01*
X43256819Y-93252998D01*
X43256818Y-93253013D01*
X43256500Y-93256128D01*
X43256500Y-93803872D01*
X43256818Y-93806987D01*
X43256819Y-93807001D01*
X43264384Y-93881043D01*
X43266764Y-93904336D01*
X43268890Y-93910754D01*
X43268892Y-93910760D01*
X43313723Y-94046051D01*
X43320698Y-94067101D01*
X43324491Y-94073250D01*
X43403252Y-94200942D01*
X43410715Y-94213040D01*
X43415824Y-94218149D01*
X43420302Y-94223812D01*
X43419231Y-94224658D01*
X43447088Y-94272906D01*
X43447088Y-94337094D01*
X43419231Y-94385341D01*
X43420302Y-94386188D01*
X43415823Y-94391851D01*
X43410715Y-94396960D01*
X43406924Y-94403105D01*
X43406920Y-94403111D01*
X43324491Y-94536749D01*
X43320698Y-94542899D01*
X43318426Y-94549753D01*
X43318425Y-94549757D01*
X43268892Y-94699239D01*
X43268890Y-94699247D01*
X43266764Y-94705664D01*
X43266076Y-94712392D01*
X43266076Y-94712395D01*
X43256819Y-94802998D01*
X43256818Y-94803013D01*
X43256500Y-94806128D01*
X43256500Y-95353872D01*
X43256818Y-95356987D01*
X43256819Y-95357001D01*
X43266076Y-95447604D01*
X43266764Y-95454336D01*
X43268890Y-95460754D01*
X43268892Y-95460760D01*
X43318425Y-95610242D01*
X43320698Y-95617101D01*
X43324491Y-95623250D01*
X43387801Y-95725892D01*
X43410715Y-95763040D01*
X43531960Y-95884285D01*
X43677899Y-95974302D01*
X43840664Y-96028236D01*
X43941128Y-96038500D01*
X44535725Y-96038500D01*
X44538872Y-96038500D01*
X44639336Y-96028236D01*
X44802101Y-95974302D01*
X44948040Y-95884285D01*
X45069285Y-95763040D01*
X45071426Y-95759567D01*
X45113387Y-95725892D01*
X45167420Y-95713500D01*
X47535912Y-95713500D01*
X47588832Y-95725360D01*
X47631630Y-95758670D01*
X47656117Y-95807058D01*
X47675674Y-95884285D01*
X47699044Y-95976574D01*
X47710704Y-96022616D01*
X47717531Y-96038180D01*
X47799080Y-96224096D01*
X47799083Y-96224101D01*
X47801140Y-96228791D01*
X47860505Y-96319656D01*
X47921474Y-96412977D01*
X47921477Y-96412981D01*
X47924278Y-96417268D01*
X47927752Y-96421041D01*
X47927753Y-96421043D01*
X48075706Y-96581761D01*
X48104480Y-96634513D01*
X48105073Y-96694600D01*
X48077346Y-96747910D01*
X48027811Y-96781925D01*
X47916226Y-96823544D01*
X47900810Y-96831962D01*
X47799907Y-96907498D01*
X47787498Y-96919907D01*
X47711962Y-97020810D01*
X47703547Y-97036222D01*
X47659111Y-97155358D01*
X47655573Y-97170332D01*
X47650353Y-97218885D01*
X47650000Y-97225482D01*
X47650000Y-97853674D01*
X47653450Y-97866549D01*
X47666326Y-97870000D01*
X50333674Y-97870000D01*
X50346549Y-97866549D01*
X50350000Y-97853674D01*
X50350000Y-97225482D01*
X50349646Y-97218885D01*
X50344426Y-97170332D01*
X50340888Y-97155358D01*
X50296452Y-97036222D01*
X50288037Y-97020810D01*
X50212501Y-96919907D01*
X50200092Y-96907498D01*
X50099189Y-96831962D01*
X50083779Y-96823548D01*
X49972188Y-96781926D01*
X49922653Y-96747910D01*
X49894926Y-96694600D01*
X49895519Y-96634513D01*
X49924290Y-96581765D01*
X50075722Y-96417268D01*
X50198860Y-96228791D01*
X50289296Y-96022616D01*
X50344564Y-95804368D01*
X50363156Y-95580000D01*
X50344564Y-95355632D01*
X50289296Y-95137384D01*
X50198860Y-94931209D01*
X50075722Y-94742732D01*
X50041598Y-94705664D01*
X49926711Y-94580864D01*
X49926708Y-94580861D01*
X49923240Y-94577094D01*
X49879307Y-94542899D01*
X49749623Y-94441960D01*
X49749615Y-94441955D01*
X49745576Y-94438811D01*
X49741069Y-94436372D01*
X49741060Y-94436366D01*
X49709068Y-94419053D01*
X49661562Y-94373471D01*
X49644086Y-94309996D01*
X49661565Y-94246522D01*
X49709067Y-94200946D01*
X49745576Y-94181189D01*
X49923240Y-94042906D01*
X50075722Y-93877268D01*
X50198860Y-93688791D01*
X50289296Y-93482616D01*
X50344564Y-93264368D01*
X50363156Y-93040000D01*
X50344564Y-92815632D01*
X50289296Y-92597384D01*
X50198860Y-92391209D01*
X50075722Y-92202732D01*
X49923240Y-92037094D01*
X49910597Y-92027253D01*
X49749623Y-91901960D01*
X49749615Y-91901955D01*
X49745576Y-91898811D01*
X49741064Y-91896369D01*
X49741061Y-91896367D01*
X49709070Y-91879055D01*
X49661564Y-91833474D01*
X49644086Y-91770000D01*
X49661564Y-91706526D01*
X49709070Y-91660945D01*
X49709109Y-91660923D01*
X49745576Y-91641189D01*
X49923240Y-91502906D01*
X50067323Y-91346391D01*
X50125694Y-91310809D01*
X50194056Y-91311569D01*
X50251622Y-91348442D01*
X51836830Y-93149239D01*
X52132941Y-93485621D01*
X52157907Y-93529577D01*
X58236316Y-112422731D01*
X58239509Y-112486752D01*
X58210305Y-112543813D01*
X58156508Y-112578667D01*
X58092494Y-112581998D01*
X57931849Y-112547852D01*
X57931846Y-112547851D01*
X57925487Y-112546500D01*
X57734513Y-112546500D01*
X57728154Y-112547851D01*
X57728150Y-112547852D01*
X57554072Y-112584853D01*
X57554061Y-112584856D01*
X57547712Y-112586206D01*
X57541782Y-112588845D01*
X57541773Y-112588849D01*
X57379182Y-112661239D01*
X57379174Y-112661243D01*
X57373248Y-112663882D01*
X57367999Y-112667695D01*
X57367993Y-112667699D01*
X57224000Y-112772316D01*
X57223991Y-112772323D01*
X57218747Y-112776134D01*
X57214403Y-112780957D01*
X57214400Y-112780961D01*
X57095794Y-112912687D01*
X57090960Y-112918056D01*
X57087714Y-112923676D01*
X57087711Y-112923682D01*
X56998721Y-113077817D01*
X56998718Y-113077822D01*
X56995473Y-113083444D01*
X56993467Y-113089616D01*
X56993465Y-113089622D01*
X56938465Y-113258892D01*
X56938463Y-113258901D01*
X56936458Y-113265072D01*
X56935780Y-113271522D01*
X56935778Y-113271532D01*
X56932252Y-113305080D01*
X50344553Y-113584410D01*
X50344564Y-113584368D01*
X50363156Y-113360000D01*
X50344564Y-113135632D01*
X50289296Y-112917384D01*
X50198860Y-112711209D01*
X50075722Y-112522732D01*
X49924292Y-112358237D01*
X49895519Y-112305485D01*
X49894926Y-112245399D01*
X49922653Y-112192088D01*
X49972189Y-112158073D01*
X50083777Y-112116452D01*
X50099189Y-112108037D01*
X50200092Y-112032501D01*
X50212501Y-112020092D01*
X50288037Y-111919189D01*
X50296452Y-111903777D01*
X50340888Y-111784641D01*
X50344426Y-111769667D01*
X50349646Y-111721114D01*
X50350000Y-111714518D01*
X50350000Y-111086326D01*
X50346549Y-111073450D01*
X50333674Y-111070000D01*
X47666326Y-111070000D01*
X47653450Y-111073450D01*
X47650000Y-111086326D01*
X47650000Y-111714518D01*
X47650353Y-111721114D01*
X47655573Y-111769667D01*
X47659111Y-111784641D01*
X47703547Y-111903777D01*
X47711962Y-111919189D01*
X47787498Y-112020092D01*
X47799907Y-112032501D01*
X47900810Y-112108037D01*
X47916220Y-112116451D01*
X48027811Y-112158073D01*
X48077346Y-112192088D01*
X48105073Y-112245399D01*
X48104480Y-112305485D01*
X48075707Y-112358238D01*
X47927747Y-112518963D01*
X47927743Y-112518967D01*
X47924278Y-112522732D01*
X47921481Y-112527012D01*
X47921474Y-112527022D01*
X47833787Y-112661239D01*
X47801140Y-112711209D01*
X47799085Y-112715892D01*
X47799080Y-112715903D01*
X47712764Y-112912687D01*
X47710704Y-112917384D01*
X47709446Y-112922349D01*
X47709445Y-112922354D01*
X47656695Y-113130657D01*
X47656693Y-113130666D01*
X47655436Y-113135632D01*
X47655012Y-113140741D01*
X47655011Y-113140751D01*
X47638657Y-113338125D01*
X47636844Y-113360000D01*
X47637268Y-113365117D01*
X47655011Y-113579248D01*
X47655012Y-113579256D01*
X47655436Y-113584368D01*
X47656693Y-113589335D01*
X47656695Y-113589342D01*
X47684014Y-113697222D01*
X32149685Y-114355904D01*
X32295722Y-114197268D01*
X32418860Y-114008791D01*
X32509296Y-113802616D01*
X32564564Y-113584368D01*
X32583156Y-113360000D01*
X32564564Y-113135632D01*
X32509296Y-112917384D01*
X32418860Y-112711209D01*
X32295722Y-112522732D01*
X32150506Y-112364987D01*
X32121735Y-112312239D01*
X32121142Y-112252152D01*
X32148869Y-112198841D01*
X32198404Y-112164826D01*
X32316204Y-112120889D01*
X32433261Y-112033261D01*
X32520889Y-111916204D01*
X32571989Y-111779201D01*
X32578500Y-111718638D01*
X32578500Y-109921362D01*
X32571989Y-109860799D01*
X32520889Y-109723796D01*
X32433261Y-109606739D01*
X32316204Y-109519111D01*
X32307895Y-109516011D01*
X32307888Y-109516008D01*
X32198404Y-109475172D01*
X32148869Y-109441157D01*
X32121142Y-109387847D01*
X32121735Y-109327760D01*
X32150505Y-109275013D01*
X32295722Y-109117268D01*
X32418860Y-108928791D01*
X32509296Y-108722616D01*
X32564564Y-108504368D01*
X32583156Y-108280000D01*
X32564564Y-108055632D01*
X32509296Y-107837384D01*
X32418860Y-107631209D01*
X32295722Y-107442732D01*
X32292246Y-107438956D01*
X32146711Y-107280864D01*
X32146708Y-107280861D01*
X32143240Y-107277094D01*
X32127688Y-107264989D01*
X31969623Y-107141960D01*
X31969615Y-107141955D01*
X31965576Y-107138811D01*
X31961069Y-107136372D01*
X31961060Y-107136366D01*
X31929068Y-107119053D01*
X31881562Y-107073471D01*
X31864086Y-107009996D01*
X31881565Y-106946522D01*
X31929067Y-106900946D01*
X31965576Y-106881189D01*
X32143240Y-106742906D01*
X32295722Y-106577268D01*
X32418860Y-106388791D01*
X32509296Y-106182616D01*
X32564564Y-105964368D01*
X32583156Y-105740000D01*
X32564564Y-105515632D01*
X32509296Y-105297384D01*
X32418860Y-105091209D01*
X32295722Y-104902732D01*
X32280428Y-104886118D01*
X32146711Y-104740864D01*
X32146708Y-104740861D01*
X32143240Y-104737094D01*
X32103499Y-104706162D01*
X31969623Y-104601960D01*
X31969615Y-104601955D01*
X31965576Y-104598811D01*
X31961064Y-104596369D01*
X31961061Y-104596367D01*
X31929070Y-104579055D01*
X31881564Y-104533474D01*
X31864086Y-104470000D01*
X31881564Y-104406526D01*
X31929070Y-104360945D01*
X31929109Y-104360923D01*
X31965576Y-104341189D01*
X32143240Y-104202906D01*
X32295722Y-104037268D01*
X32418860Y-103848791D01*
X32509296Y-103642616D01*
X32564564Y-103424368D01*
X32583156Y-103200000D01*
X32564564Y-102975632D01*
X32509296Y-102757384D01*
X32418860Y-102551209D01*
X32295722Y-102362732D01*
X32143240Y-102197094D01*
X32125951Y-102183637D01*
X31969623Y-102061960D01*
X31969615Y-102061955D01*
X31965576Y-102058811D01*
X31961064Y-102056369D01*
X31961061Y-102056367D01*
X31929070Y-102039055D01*
X31881564Y-101993474D01*
X31864086Y-101930000D01*
X31881564Y-101866526D01*
X31929070Y-101820945D01*
X31929109Y-101820923D01*
X31965576Y-101801189D01*
X32143240Y-101662906D01*
X32295722Y-101497268D01*
X32418860Y-101308791D01*
X32509296Y-101102616D01*
X32564564Y-100884368D01*
X32583156Y-100660000D01*
X32564564Y-100435632D01*
X32509296Y-100217384D01*
X32418860Y-100011209D01*
X32295722Y-99822732D01*
X32150506Y-99664987D01*
X32121735Y-99612239D01*
X32121142Y-99552152D01*
X32148869Y-99498841D01*
X32198404Y-99464826D01*
X32316204Y-99420889D01*
X32433261Y-99333261D01*
X32520889Y-99216204D01*
X32571989Y-99079201D01*
X32578500Y-99018638D01*
X32578500Y-97221362D01*
X32571989Y-97160799D01*
X32520889Y-97023796D01*
X32433261Y-96906739D01*
X32316204Y-96819111D01*
X32307895Y-96816011D01*
X32307888Y-96816008D01*
X32198404Y-96775172D01*
X32148869Y-96741157D01*
X32121142Y-96687847D01*
X32121735Y-96627760D01*
X32150505Y-96575013D01*
X32295722Y-96417268D01*
X32418860Y-96228791D01*
X32509296Y-96022616D01*
X32564564Y-95804368D01*
X32583156Y-95580000D01*
X32564564Y-95355632D01*
X32509296Y-95137384D01*
X32418860Y-94931209D01*
X32295722Y-94742732D01*
X32261598Y-94705664D01*
X32146711Y-94580864D01*
X32146708Y-94580861D01*
X32143240Y-94577094D01*
X32099307Y-94542899D01*
X31969623Y-94441960D01*
X31969615Y-94441955D01*
X31965576Y-94438811D01*
X31961069Y-94436372D01*
X31961060Y-94436366D01*
X31929068Y-94419053D01*
X31881562Y-94373471D01*
X31864086Y-94309996D01*
X31881565Y-94246522D01*
X31929067Y-94200946D01*
X31965576Y-94181189D01*
X32143240Y-94042906D01*
X32295722Y-93877268D01*
X32418860Y-93688791D01*
X32509296Y-93482616D01*
X32564564Y-93264368D01*
X32583156Y-93040000D01*
X32564564Y-92815632D01*
X32509296Y-92597384D01*
X32418860Y-92391209D01*
X32295722Y-92202732D01*
X32143240Y-92037094D01*
X32130597Y-92027253D01*
X31969623Y-91901960D01*
X31969615Y-91901955D01*
X31965576Y-91898811D01*
X31961064Y-91896369D01*
X31961061Y-91896367D01*
X31929070Y-91879055D01*
X31881564Y-91833474D01*
X31864086Y-91770000D01*
X31881564Y-91706526D01*
X31929070Y-91660945D01*
X31929109Y-91660923D01*
X31965576Y-91641189D01*
X32143240Y-91502906D01*
X32295722Y-91337268D01*
X32418860Y-91148791D01*
X32509296Y-90942616D01*
X32564564Y-90724368D01*
X32583156Y-90500000D01*
X32564564Y-90275632D01*
X32509296Y-90057384D01*
X32418860Y-89851209D01*
X32295722Y-89662732D01*
X32143240Y-89497094D01*
X32130597Y-89487253D01*
X31969623Y-89361960D01*
X31969615Y-89361955D01*
X31965576Y-89358811D01*
X31961064Y-89356369D01*
X31961061Y-89356367D01*
X31929070Y-89339055D01*
X31881564Y-89293474D01*
X31864086Y-89230000D01*
X31881564Y-89166526D01*
X31929070Y-89120945D01*
X31948775Y-89110281D01*
X31965576Y-89101189D01*
X32143240Y-88962906D01*
X32295722Y-88797268D01*
X32418860Y-88608791D01*
X32509296Y-88402616D01*
X32564564Y-88184368D01*
X32583156Y-87960000D01*
X32564564Y-87735632D01*
X32509296Y-87517384D01*
X32418860Y-87311209D01*
X32295722Y-87122732D01*
X32150506Y-86964987D01*
X32121735Y-86912239D01*
X32121142Y-86852152D01*
X32148869Y-86798841D01*
X32198404Y-86764826D01*
X32316204Y-86720889D01*
X32433261Y-86633261D01*
X32520889Y-86516204D01*
X32571989Y-86379201D01*
X32578500Y-86318638D01*
X32578500Y-84521362D01*
X32571989Y-84460799D01*
X32520889Y-84323796D01*
X32433261Y-84206739D01*
X32316204Y-84119111D01*
X32307895Y-84116011D01*
X32307888Y-84116008D01*
X32198404Y-84075172D01*
X32148869Y-84041157D01*
X32121142Y-83987847D01*
X32121735Y-83927760D01*
X32150505Y-83875013D01*
X32295722Y-83717268D01*
X32418860Y-83528791D01*
X32509296Y-83322616D01*
X32564564Y-83104368D01*
X32583156Y-82880000D01*
X32564564Y-82655632D01*
X32509296Y-82437384D01*
X32418860Y-82231209D01*
X32295722Y-82042732D01*
X32143240Y-81877094D01*
X32033422Y-81791618D01*
X31969623Y-81741960D01*
X31969615Y-81741955D01*
X31965576Y-81738811D01*
X31961069Y-81736372D01*
X31961060Y-81736366D01*
X31929068Y-81719053D01*
X31881562Y-81673471D01*
X31864086Y-81609996D01*
X31881565Y-81546522D01*
X31929067Y-81500946D01*
X31965576Y-81481189D01*
X32143240Y-81342906D01*
X32295722Y-81177268D01*
X32418860Y-80988791D01*
X32509296Y-80782616D01*
X32564564Y-80564368D01*
X32583156Y-80340000D01*
X32564564Y-80115632D01*
X32509296Y-79897384D01*
X32418860Y-79691209D01*
X32295722Y-79502732D01*
X32143240Y-79337094D01*
X32130597Y-79327253D01*
X31969623Y-79201960D01*
X31969615Y-79201955D01*
X31965576Y-79198811D01*
X31961064Y-79196369D01*
X31961061Y-79196367D01*
X31929070Y-79179055D01*
X31881564Y-79133474D01*
X31864086Y-79070000D01*
X31881564Y-79006526D01*
X31929070Y-78960945D01*
X31929109Y-78960923D01*
X31965576Y-78941189D01*
X32143240Y-78802906D01*
X32295722Y-78637268D01*
X32418860Y-78448791D01*
X32509296Y-78242616D01*
X32564564Y-78024368D01*
X32583156Y-77800000D01*
X32564564Y-77575632D01*
X32509296Y-77357384D01*
X32418860Y-77151209D01*
X32295722Y-76962732D01*
X32206100Y-76865377D01*
X32146711Y-76800864D01*
X32146708Y-76800861D01*
X32143240Y-76797094D01*
X32130597Y-76787253D01*
X31969623Y-76661960D01*
X31969615Y-76661955D01*
X31965576Y-76658811D01*
X31961064Y-76656369D01*
X31961061Y-76656367D01*
X31929070Y-76639055D01*
X31881564Y-76593474D01*
X31864086Y-76530000D01*
X31881564Y-76466526D01*
X31929070Y-76420945D01*
X31929109Y-76420923D01*
X31965576Y-76401189D01*
X32143240Y-76262906D01*
X32295722Y-76097268D01*
X32418860Y-75908791D01*
X32509296Y-75702616D01*
X32564564Y-75484368D01*
X32583156Y-75260000D01*
X32564564Y-75035632D01*
X32509296Y-74817384D01*
X32418860Y-74611209D01*
X32295722Y-74422732D01*
X32150506Y-74264987D01*
X32121735Y-74212239D01*
X32121142Y-74152152D01*
X32148869Y-74098841D01*
X32198404Y-74064826D01*
X32316204Y-74020889D01*
X32433261Y-73933261D01*
X32520889Y-73816204D01*
X32571989Y-73679201D01*
X32578500Y-73618638D01*
X32578500Y-71821362D01*
X32571989Y-71760799D01*
X32520889Y-71623796D01*
X32433261Y-71506739D01*
X32424877Y-71500463D01*
X32323304Y-71424426D01*
X32323303Y-71424425D01*
X32316204Y-71419111D01*
X32307895Y-71416011D01*
X32307888Y-71416008D01*
X32198404Y-71375172D01*
X32148869Y-71341157D01*
X32121142Y-71287847D01*
X32121735Y-71227760D01*
X32150505Y-71175013D01*
X32295722Y-71017268D01*
X32418860Y-70828791D01*
X32431489Y-70800000D01*
X36421693Y-70800000D01*
X36422164Y-70805386D01*
X36422164Y-70805399D01*
X36423315Y-70818558D01*
X36423662Y-70834920D01*
X36422934Y-70851128D01*
X36422934Y-70851135D01*
X36422685Y-70856691D01*
X36423431Y-70862204D01*
X36423432Y-70862207D01*
X36433494Y-70936491D01*
X36434144Y-70942327D01*
X36438821Y-70995781D01*
X36440885Y-71019371D01*
X36442285Y-71024596D01*
X36446602Y-71040707D01*
X36449703Y-71056147D01*
X36452346Y-71075658D01*
X36452347Y-71075663D01*
X36453094Y-71081175D01*
X36454814Y-71086468D01*
X36454815Y-71086473D01*
X36476911Y-71154480D01*
X36478754Y-71160701D01*
X36494856Y-71220791D01*
X36497880Y-71232076D01*
X36500168Y-71236984D01*
X36500169Y-71236985D01*
X36508675Y-71255228D01*
X36514221Y-71269307D01*
X36520246Y-71287847D01*
X36523097Y-71296621D01*
X36525734Y-71301521D01*
X36525736Y-71301526D01*
X36557979Y-71361444D01*
X36561167Y-71367798D01*
X36588653Y-71426742D01*
X36588655Y-71426746D01*
X36590944Y-71431654D01*
X36594044Y-71436081D01*
X36594052Y-71436094D01*
X36607580Y-71455415D01*
X36615195Y-71467771D01*
X36620814Y-71478212D01*
X36630444Y-71496106D01*
X36661194Y-71534665D01*
X36674192Y-71550964D01*
X36678820Y-71557153D01*
X36714145Y-71607603D01*
X36714148Y-71607607D01*
X36717251Y-71612038D01*
X36721082Y-71615869D01*
X36740199Y-71634986D01*
X36749465Y-71645354D01*
X36771686Y-71673218D01*
X36779316Y-71679884D01*
X36821935Y-71717119D01*
X36828032Y-71722819D01*
X36872962Y-71767749D01*
X36901481Y-71787718D01*
X36902384Y-71788350D01*
X36912847Y-71796546D01*
X36942282Y-71822263D01*
X36947059Y-71825117D01*
X36947063Y-71825120D01*
X36996598Y-71854715D01*
X37004123Y-71859589D01*
X37046876Y-71889526D01*
X37053346Y-71894056D01*
X37089049Y-71910704D01*
X37100216Y-71916625D01*
X37136750Y-71938453D01*
X37184033Y-71956198D01*
X37192762Y-71959474D01*
X37201598Y-71963186D01*
X37252924Y-71987120D01*
X37258153Y-71988521D01*
X37294281Y-71998201D01*
X37305763Y-72001884D01*
X37339394Y-72014506D01*
X37348839Y-72018051D01*
X37404286Y-72028113D01*
X37414236Y-72030344D01*
X37465629Y-72044115D01*
X37511745Y-72048149D01*
X37523069Y-72049668D01*
X37571733Y-72058500D01*
X37624642Y-72058500D01*
X37635449Y-72058972D01*
X37685000Y-72063307D01*
X37738616Y-72058616D01*
X37740376Y-72058500D01*
X37741522Y-72058500D01*
X37796390Y-72053561D01*
X37796398Y-72053650D01*
X37796698Y-72053534D01*
X37904371Y-72044115D01*
X37905896Y-72043706D01*
X37910622Y-72043281D01*
X38014956Y-72014485D01*
X38015704Y-72014282D01*
X38117076Y-71987120D01*
X38120169Y-71985677D01*
X38122230Y-71985019D01*
X38123624Y-71984495D01*
X38128993Y-71983014D01*
X38223340Y-71937577D01*
X38224638Y-71936962D01*
X38316654Y-71894056D01*
X38321105Y-71890939D01*
X38321701Y-71890595D01*
X38326816Y-71887892D01*
X38328061Y-71887147D01*
X38333093Y-71884725D01*
X38415079Y-71825157D01*
X38416663Y-71824027D01*
X38491520Y-71771613D01*
X38492601Y-71770856D01*
X38492602Y-71770854D01*
X38497038Y-71767749D01*
X38500866Y-71763920D01*
X38505016Y-71760438D01*
X38505195Y-71760652D01*
X38507678Y-71758530D01*
X38507661Y-71758510D01*
X38511852Y-71754847D01*
X38516363Y-71751571D01*
X38583923Y-71680908D01*
X38585869Y-71678917D01*
X38595920Y-71668866D01*
X38652749Y-71612038D01*
X38655858Y-71607597D01*
X38658728Y-71604177D01*
X38667431Y-71593566D01*
X38672912Y-71587834D01*
X38724901Y-71509072D01*
X38726750Y-71506351D01*
X38779056Y-71431654D01*
X38782535Y-71424191D01*
X38791436Y-71408276D01*
X38797709Y-71398774D01*
X38833439Y-71315177D01*
X38835045Y-71311581D01*
X38872120Y-71232076D01*
X38875146Y-71220782D01*
X38880899Y-71204143D01*
X38884552Y-71195595D01*
X38886743Y-71190470D01*
X38888470Y-71182906D01*
X38906198Y-71105224D01*
X38907301Y-71100773D01*
X38929115Y-71019371D01*
X38930436Y-71004264D01*
X38933072Y-70987481D01*
X38937151Y-70969615D01*
X38940919Y-70885689D01*
X38941260Y-70880539D01*
X38948307Y-70800000D01*
X41271693Y-70800000D01*
X41272164Y-70805386D01*
X41272164Y-70805399D01*
X41273315Y-70818558D01*
X41273662Y-70834920D01*
X41272934Y-70851128D01*
X41272934Y-70851135D01*
X41272685Y-70856691D01*
X41273431Y-70862204D01*
X41273432Y-70862207D01*
X41283494Y-70936491D01*
X41284144Y-70942327D01*
X41288821Y-70995781D01*
X41290885Y-71019371D01*
X41292285Y-71024596D01*
X41296602Y-71040707D01*
X41299703Y-71056147D01*
X41302346Y-71075658D01*
X41302347Y-71075663D01*
X41303094Y-71081175D01*
X41304814Y-71086468D01*
X41304815Y-71086473D01*
X41326911Y-71154480D01*
X41328754Y-71160701D01*
X41344856Y-71220791D01*
X41347880Y-71232076D01*
X41350168Y-71236984D01*
X41350169Y-71236985D01*
X41358675Y-71255228D01*
X41364221Y-71269307D01*
X41370246Y-71287847D01*
X41373097Y-71296621D01*
X41375734Y-71301521D01*
X41375736Y-71301526D01*
X41407979Y-71361444D01*
X41411167Y-71367798D01*
X41438653Y-71426742D01*
X41438655Y-71426746D01*
X41440944Y-71431654D01*
X41444044Y-71436081D01*
X41444052Y-71436094D01*
X41457580Y-71455415D01*
X41465195Y-71467771D01*
X41470814Y-71478212D01*
X41480444Y-71496106D01*
X41511194Y-71534665D01*
X41524192Y-71550964D01*
X41528820Y-71557153D01*
X41564145Y-71607603D01*
X41564148Y-71607607D01*
X41567251Y-71612038D01*
X41571082Y-71615869D01*
X41590199Y-71634986D01*
X41599465Y-71645354D01*
X41621686Y-71673218D01*
X41629316Y-71679884D01*
X41671935Y-71717119D01*
X41678032Y-71722819D01*
X41722962Y-71767749D01*
X41751481Y-71787718D01*
X41752384Y-71788350D01*
X41762847Y-71796546D01*
X41792282Y-71822263D01*
X41797059Y-71825117D01*
X41797063Y-71825120D01*
X41846598Y-71854715D01*
X41854123Y-71859589D01*
X41896876Y-71889526D01*
X41903346Y-71894056D01*
X41939049Y-71910704D01*
X41950216Y-71916625D01*
X41986750Y-71938453D01*
X42034033Y-71956198D01*
X42042762Y-71959474D01*
X42051598Y-71963186D01*
X42102924Y-71987120D01*
X42108153Y-71988521D01*
X42144281Y-71998201D01*
X42155763Y-72001884D01*
X42189394Y-72014506D01*
X42198839Y-72018051D01*
X42254286Y-72028113D01*
X42264236Y-72030344D01*
X42315629Y-72044115D01*
X42361745Y-72048149D01*
X42373069Y-72049668D01*
X42421733Y-72058500D01*
X42474642Y-72058500D01*
X42485449Y-72058972D01*
X42535000Y-72063307D01*
X42588616Y-72058616D01*
X42590376Y-72058500D01*
X42591522Y-72058500D01*
X42646390Y-72053561D01*
X42646398Y-72053650D01*
X42646698Y-72053534D01*
X42754371Y-72044115D01*
X42755896Y-72043706D01*
X42760622Y-72043281D01*
X42864956Y-72014485D01*
X42865704Y-72014282D01*
X42967076Y-71987120D01*
X42970169Y-71985677D01*
X42972230Y-71985019D01*
X42973624Y-71984495D01*
X42978993Y-71983014D01*
X43073340Y-71937577D01*
X43074638Y-71936962D01*
X43166654Y-71894056D01*
X43171105Y-71890939D01*
X43171701Y-71890595D01*
X43176816Y-71887892D01*
X43178061Y-71887147D01*
X43183093Y-71884725D01*
X43265079Y-71825157D01*
X43266663Y-71824027D01*
X43341520Y-71771613D01*
X43342601Y-71770856D01*
X43342602Y-71770854D01*
X43347038Y-71767749D01*
X43350866Y-71763920D01*
X43355016Y-71760438D01*
X43355195Y-71760652D01*
X43357678Y-71758530D01*
X43357661Y-71758510D01*
X43361852Y-71754847D01*
X43366363Y-71751571D01*
X43433923Y-71680908D01*
X43435869Y-71678917D01*
X43445920Y-71668866D01*
X43502749Y-71612038D01*
X43505858Y-71607597D01*
X43508728Y-71604177D01*
X43517431Y-71593566D01*
X43522912Y-71587834D01*
X43574901Y-71509072D01*
X43576750Y-71506351D01*
X43629056Y-71431654D01*
X43632535Y-71424191D01*
X43641436Y-71408276D01*
X43647709Y-71398774D01*
X43683439Y-71315177D01*
X43685045Y-71311581D01*
X43722120Y-71232076D01*
X43725146Y-71220782D01*
X43730899Y-71204143D01*
X43734552Y-71195595D01*
X43736743Y-71190470D01*
X43738470Y-71182906D01*
X43756198Y-71105224D01*
X43757301Y-71100773D01*
X43779115Y-71019371D01*
X43780436Y-71004264D01*
X43783072Y-70987481D01*
X43787151Y-70969615D01*
X43790919Y-70885689D01*
X43791260Y-70880539D01*
X43798307Y-70800000D01*
X43796683Y-70781447D01*
X43796337Y-70765078D01*
X43797315Y-70743309D01*
X43796050Y-70733973D01*
X43786504Y-70663503D01*
X43785853Y-70657661D01*
X43783953Y-70635943D01*
X43779115Y-70580629D01*
X43777713Y-70575398D01*
X43777712Y-70575390D01*
X43773399Y-70559295D01*
X43770295Y-70543844D01*
X43767653Y-70524342D01*
X43766906Y-70518825D01*
X43743078Y-70445492D01*
X43741245Y-70439301D01*
X43723521Y-70373153D01*
X43722120Y-70367924D01*
X43711322Y-70344769D01*
X43705774Y-70330682D01*
X43698625Y-70308679D01*
X43696903Y-70303379D01*
X43691414Y-70293178D01*
X43662010Y-70238536D01*
X43658834Y-70232208D01*
X43629056Y-70168347D01*
X43612421Y-70144591D01*
X43604800Y-70132223D01*
X43592195Y-70108798D01*
X43592194Y-70108796D01*
X43589556Y-70103894D01*
X43581442Y-70093719D01*
X43545799Y-70049023D01*
X43541171Y-70042835D01*
X43533183Y-70031427D01*
X43502749Y-69987962D01*
X43479798Y-69965011D01*
X43470533Y-69954643D01*
X43451788Y-69931138D01*
X43451786Y-69931136D01*
X43448314Y-69926782D01*
X43398063Y-69882879D01*
X43391966Y-69877179D01*
X43350867Y-69836080D01*
X43347038Y-69832251D01*
X43317615Y-69811649D01*
X43307153Y-69803454D01*
X43281916Y-69781405D01*
X43277718Y-69777737D01*
X43223414Y-69745291D01*
X43215889Y-69740419D01*
X43171083Y-69709045D01*
X43171080Y-69709043D01*
X43166654Y-69705944D01*
X43130960Y-69689299D01*
X43119777Y-69683371D01*
X43088027Y-69664401D01*
X43088025Y-69664400D01*
X43083250Y-69661547D01*
X43027236Y-69640524D01*
X43018403Y-69636814D01*
X42971979Y-69615166D01*
X42971976Y-69615164D01*
X42967076Y-69612880D01*
X42961859Y-69611482D01*
X42961848Y-69611478D01*
X42925704Y-69601793D01*
X42914231Y-69598113D01*
X42876367Y-69583903D01*
X42876368Y-69583903D01*
X42871161Y-69581949D01*
X42865691Y-69580956D01*
X42865690Y-69580956D01*
X42815703Y-69571884D01*
X42805756Y-69569652D01*
X42759605Y-69557286D01*
X42759589Y-69557283D01*
X42754371Y-69555885D01*
X42748979Y-69555413D01*
X42748978Y-69555413D01*
X42708258Y-69551850D01*
X42696928Y-69550330D01*
X42653741Y-69542493D01*
X42653737Y-69542492D01*
X42648267Y-69541500D01*
X42642701Y-69541500D01*
X42595358Y-69541500D01*
X42584551Y-69541028D01*
X42540395Y-69537165D01*
X42535000Y-69536693D01*
X42529605Y-69537165D01*
X42529602Y-69537165D01*
X42481403Y-69541381D01*
X42479610Y-69541500D01*
X42478478Y-69541500D01*
X42475726Y-69541747D01*
X42475718Y-69541748D01*
X42423629Y-69546436D01*
X42423322Y-69546463D01*
X42318946Y-69555594D01*
X42318928Y-69555596D01*
X42315629Y-69555885D01*
X42314103Y-69556293D01*
X42309378Y-69556719D01*
X42304012Y-69558199D01*
X42304011Y-69558200D01*
X42205218Y-69585465D01*
X42204355Y-69585700D01*
X42102924Y-69612880D01*
X42099832Y-69614320D01*
X42097762Y-69614982D01*
X42096365Y-69615506D01*
X42091007Y-69616986D01*
X42085994Y-69619399D01*
X42085986Y-69619403D01*
X41996681Y-69662408D01*
X41995289Y-69663068D01*
X41908246Y-69703658D01*
X41908232Y-69703665D01*
X41903347Y-69705944D01*
X41898928Y-69709037D01*
X41898269Y-69709418D01*
X41893185Y-69712105D01*
X41891921Y-69712859D01*
X41886907Y-69715275D01*
X41882411Y-69718541D01*
X41882395Y-69718551D01*
X41804977Y-69774798D01*
X41803218Y-69776053D01*
X41727394Y-69829147D01*
X41727389Y-69829150D01*
X41722962Y-69832251D01*
X41719137Y-69836074D01*
X41714989Y-69839556D01*
X41714814Y-69839347D01*
X41712316Y-69841479D01*
X41712331Y-69841496D01*
X41708142Y-69845155D01*
X41703637Y-69848429D01*
X41699793Y-69852449D01*
X41699782Y-69852459D01*
X41636054Y-69919112D01*
X41634112Y-69921099D01*
X41571076Y-69984136D01*
X41571071Y-69984141D01*
X41567251Y-69987962D01*
X41564153Y-69992384D01*
X41561374Y-69995697D01*
X41552585Y-70006414D01*
X41550938Y-70008137D01*
X41550929Y-70008147D01*
X41547088Y-70012166D01*
X41544031Y-70016796D01*
X41544019Y-70016812D01*
X41495108Y-70090909D01*
X41493198Y-70093719D01*
X41444048Y-70163913D01*
X41444044Y-70163918D01*
X41440944Y-70168347D01*
X41438658Y-70173248D01*
X41438655Y-70173254D01*
X41437461Y-70175815D01*
X41428577Y-70191702D01*
X41425355Y-70196583D01*
X41425352Y-70196587D01*
X41422291Y-70201226D01*
X41420107Y-70206333D01*
X41420105Y-70206339D01*
X41386565Y-70284808D01*
X41384927Y-70288474D01*
X41350167Y-70363018D01*
X41350164Y-70363024D01*
X41347880Y-70367924D01*
X41346479Y-70373149D01*
X41346479Y-70373151D01*
X41344852Y-70379224D01*
X41339104Y-70395846D01*
X41333257Y-70409530D01*
X41332020Y-70414946D01*
X41332018Y-70414955D01*
X41313807Y-70494747D01*
X41312691Y-70499248D01*
X41292284Y-70575404D01*
X41292281Y-70575415D01*
X41290885Y-70580629D01*
X41290414Y-70586008D01*
X41290413Y-70586016D01*
X41289563Y-70595736D01*
X41286927Y-70612510D01*
X41284087Y-70624951D01*
X41284083Y-70624974D01*
X41282849Y-70630385D01*
X41282599Y-70635939D01*
X41282599Y-70635943D01*
X41279080Y-70714274D01*
X41278733Y-70719513D01*
X41272164Y-70794605D01*
X41272164Y-70794616D01*
X41271693Y-70800000D01*
X38948307Y-70800000D01*
X38946683Y-70781447D01*
X38946337Y-70765078D01*
X38947315Y-70743309D01*
X38946050Y-70733973D01*
X38936504Y-70663503D01*
X38935853Y-70657661D01*
X38933953Y-70635943D01*
X38929115Y-70580629D01*
X38927713Y-70575398D01*
X38927712Y-70575390D01*
X38923399Y-70559295D01*
X38920295Y-70543844D01*
X38917653Y-70524342D01*
X38916906Y-70518825D01*
X38893078Y-70445492D01*
X38891245Y-70439301D01*
X38873521Y-70373153D01*
X38872120Y-70367924D01*
X38861322Y-70344769D01*
X38855774Y-70330682D01*
X38848625Y-70308679D01*
X38846903Y-70303379D01*
X38841414Y-70293178D01*
X38812010Y-70238536D01*
X38808834Y-70232208D01*
X38779056Y-70168347D01*
X38762421Y-70144591D01*
X38754800Y-70132223D01*
X38742195Y-70108798D01*
X38742194Y-70108796D01*
X38739556Y-70103894D01*
X38731442Y-70093719D01*
X38695799Y-70049023D01*
X38691171Y-70042835D01*
X38683183Y-70031427D01*
X38652749Y-69987962D01*
X38629798Y-69965011D01*
X38620533Y-69954643D01*
X38601788Y-69931138D01*
X38601786Y-69931136D01*
X38598314Y-69926782D01*
X38548063Y-69882879D01*
X38541966Y-69877179D01*
X38500867Y-69836080D01*
X38497038Y-69832251D01*
X38467615Y-69811649D01*
X38457153Y-69803454D01*
X38431916Y-69781405D01*
X38427718Y-69777737D01*
X38373414Y-69745291D01*
X38365889Y-69740419D01*
X38321083Y-69709045D01*
X38321080Y-69709043D01*
X38316654Y-69705944D01*
X38280960Y-69689299D01*
X38269777Y-69683371D01*
X38238027Y-69664401D01*
X38238025Y-69664400D01*
X38233250Y-69661547D01*
X38177236Y-69640524D01*
X38168403Y-69636814D01*
X38121979Y-69615166D01*
X38121976Y-69615164D01*
X38117076Y-69612880D01*
X38111859Y-69611482D01*
X38111848Y-69611478D01*
X38075704Y-69601793D01*
X38064231Y-69598113D01*
X38026367Y-69583903D01*
X38026368Y-69583903D01*
X38021161Y-69581949D01*
X38015691Y-69580956D01*
X38015690Y-69580956D01*
X37965703Y-69571884D01*
X37955756Y-69569652D01*
X37909605Y-69557286D01*
X37909589Y-69557283D01*
X37904371Y-69555885D01*
X37898979Y-69555413D01*
X37898978Y-69555413D01*
X37858258Y-69551850D01*
X37846928Y-69550330D01*
X37803741Y-69542493D01*
X37803737Y-69542492D01*
X37798267Y-69541500D01*
X37792701Y-69541500D01*
X37745358Y-69541500D01*
X37734551Y-69541028D01*
X37690395Y-69537165D01*
X37685000Y-69536693D01*
X37679605Y-69537165D01*
X37679602Y-69537165D01*
X37631403Y-69541381D01*
X37629610Y-69541500D01*
X37628478Y-69541500D01*
X37625726Y-69541747D01*
X37625718Y-69541748D01*
X37573629Y-69546436D01*
X37573322Y-69546463D01*
X37468946Y-69555594D01*
X37468928Y-69555596D01*
X37465629Y-69555885D01*
X37464103Y-69556293D01*
X37459378Y-69556719D01*
X37454012Y-69558199D01*
X37454011Y-69558200D01*
X37355218Y-69585465D01*
X37354355Y-69585700D01*
X37252924Y-69612880D01*
X37249832Y-69614320D01*
X37247762Y-69614982D01*
X37246365Y-69615506D01*
X37241007Y-69616986D01*
X37235994Y-69619399D01*
X37235986Y-69619403D01*
X37146681Y-69662408D01*
X37145289Y-69663068D01*
X37058246Y-69703658D01*
X37058232Y-69703665D01*
X37053347Y-69705944D01*
X37048928Y-69709037D01*
X37048269Y-69709418D01*
X37043185Y-69712105D01*
X37041921Y-69712859D01*
X37036907Y-69715275D01*
X37032411Y-69718541D01*
X37032395Y-69718551D01*
X36954977Y-69774798D01*
X36953218Y-69776053D01*
X36877394Y-69829147D01*
X36877389Y-69829150D01*
X36872962Y-69832251D01*
X36869137Y-69836074D01*
X36864989Y-69839556D01*
X36864814Y-69839347D01*
X36862316Y-69841479D01*
X36862331Y-69841496D01*
X36858142Y-69845155D01*
X36853637Y-69848429D01*
X36849793Y-69852449D01*
X36849782Y-69852459D01*
X36786054Y-69919112D01*
X36784112Y-69921099D01*
X36721076Y-69984136D01*
X36721071Y-69984141D01*
X36717251Y-69987962D01*
X36714153Y-69992384D01*
X36711374Y-69995697D01*
X36702585Y-70006414D01*
X36700938Y-70008137D01*
X36700929Y-70008147D01*
X36697088Y-70012166D01*
X36694031Y-70016796D01*
X36694019Y-70016812D01*
X36645108Y-70090909D01*
X36643198Y-70093719D01*
X36594048Y-70163913D01*
X36594044Y-70163918D01*
X36590944Y-70168347D01*
X36588658Y-70173248D01*
X36588655Y-70173254D01*
X36587461Y-70175815D01*
X36578577Y-70191702D01*
X36575355Y-70196583D01*
X36575352Y-70196587D01*
X36572291Y-70201226D01*
X36570107Y-70206333D01*
X36570105Y-70206339D01*
X36536565Y-70284808D01*
X36534927Y-70288474D01*
X36500167Y-70363018D01*
X36500164Y-70363024D01*
X36497880Y-70367924D01*
X36496479Y-70373149D01*
X36496479Y-70373151D01*
X36494852Y-70379224D01*
X36489104Y-70395846D01*
X36483257Y-70409530D01*
X36482020Y-70414946D01*
X36482018Y-70414955D01*
X36463807Y-70494747D01*
X36462691Y-70499248D01*
X36442284Y-70575404D01*
X36442281Y-70575415D01*
X36440885Y-70580629D01*
X36440414Y-70586008D01*
X36440413Y-70586016D01*
X36439563Y-70595736D01*
X36436927Y-70612510D01*
X36434087Y-70624951D01*
X36434083Y-70624974D01*
X36432849Y-70630385D01*
X36432599Y-70635939D01*
X36432599Y-70635943D01*
X36429080Y-70714274D01*
X36428733Y-70719513D01*
X36422164Y-70794605D01*
X36422164Y-70794616D01*
X36421693Y-70800000D01*
X32431489Y-70800000D01*
X32509296Y-70622616D01*
X32564564Y-70404368D01*
X32583156Y-70180000D01*
X32564564Y-69955632D01*
X32509296Y-69737384D01*
X32421473Y-69537165D01*
X32420919Y-69535903D01*
X32420918Y-69535902D01*
X32418860Y-69531209D01*
X32295722Y-69342732D01*
X32188351Y-69226097D01*
X32146711Y-69180864D01*
X32146708Y-69180861D01*
X32143240Y-69177094D01*
X32119677Y-69158754D01*
X31969623Y-69041960D01*
X31969615Y-69041955D01*
X31965576Y-69038811D01*
X31961064Y-69036369D01*
X31961061Y-69036367D01*
X31929070Y-69019055D01*
X31881564Y-68973474D01*
X31864086Y-68910000D01*
X31881564Y-68846526D01*
X31929070Y-68800945D01*
X31929896Y-68800498D01*
X31965576Y-68781189D01*
X32143240Y-68642906D01*
X32295722Y-68477268D01*
X32418860Y-68288791D01*
X32509296Y-68082616D01*
X32564564Y-67864368D01*
X32572384Y-67770000D01*
X35971673Y-67770000D01*
X35972096Y-67775105D01*
X35972096Y-67775107D01*
X35978766Y-67855616D01*
X35979077Y-67860590D01*
X35981620Y-67920434D01*
X35982857Y-67949551D01*
X35983967Y-67954705D01*
X35983968Y-67954707D01*
X35987163Y-67969533D01*
X35989522Y-67985411D01*
X35990949Y-68002626D01*
X35992205Y-68007587D01*
X35992207Y-68007597D01*
X36012871Y-68089198D01*
X36013882Y-68093511D01*
X36026547Y-68152277D01*
X36033370Y-68183932D01*
X36035333Y-68188817D01*
X36039707Y-68199702D01*
X36044854Y-68215496D01*
X36046989Y-68223927D01*
X36046992Y-68223936D01*
X36048251Y-68228907D01*
X36065252Y-68267665D01*
X36085505Y-68313838D01*
X36087007Y-68317413D01*
X36120802Y-68401516D01*
X36120806Y-68401524D01*
X36122767Y-68406404D01*
X36129877Y-68417952D01*
X36137839Y-68433147D01*
X36142016Y-68442669D01*
X36144817Y-68446956D01*
X36144821Y-68446963D01*
X36194626Y-68523196D01*
X36196396Y-68525987D01*
X36248476Y-68610569D01*
X36251953Y-68614520D01*
X36251954Y-68614521D01*
X36255162Y-68618166D01*
X36265880Y-68632258D01*
X36269686Y-68638083D01*
X36337161Y-68711380D01*
X36338980Y-68713401D01*
X36400789Y-68783630D01*
X36406881Y-68790551D01*
X36410976Y-68793857D01*
X36410980Y-68793861D01*
X36412067Y-68794738D01*
X36420479Y-68802622D01*
X36420530Y-68802568D01*
X36424308Y-68806046D01*
X36427780Y-68809818D01*
X36509153Y-68873153D01*
X36510739Y-68874410D01*
X36558612Y-68913066D01*
X36581637Y-68931658D01*
X36593424Y-68941175D01*
X36598018Y-68943741D01*
X36602390Y-68946696D01*
X36602333Y-68946779D01*
X36603450Y-68947519D01*
X36603638Y-68947232D01*
X36607936Y-68950040D01*
X36611983Y-68953190D01*
X36616492Y-68955630D01*
X36616495Y-68955632D01*
X36705605Y-69003855D01*
X36707062Y-69004656D01*
X36763993Y-69036460D01*
X36802740Y-69058105D01*
X36807707Y-69059860D01*
X36808891Y-69060395D01*
X36813308Y-69062141D01*
X36817273Y-69064287D01*
X36921231Y-69099976D01*
X36922195Y-69100312D01*
X37023831Y-69136223D01*
X37023839Y-69136225D01*
X37028806Y-69137980D01*
X37033998Y-69138869D01*
X37035429Y-69139242D01*
X37035901Y-69139342D01*
X37038049Y-69140080D01*
X37150006Y-69158762D01*
X37150237Y-69158801D01*
X37265119Y-69178500D01*
X37268288Y-69178500D01*
X37444827Y-69178500D01*
X37496580Y-69178500D01*
X37501712Y-69178500D01*
X37506773Y-69177655D01*
X37506778Y-69177655D01*
X37532402Y-69173378D01*
X37556022Y-69169436D01*
X37565867Y-69168197D01*
X37623898Y-69163259D01*
X37673607Y-69150314D01*
X37684388Y-69148015D01*
X37731951Y-69140080D01*
X37787278Y-69121085D01*
X37796271Y-69118375D01*
X37855924Y-69102844D01*
X37899603Y-69083099D01*
X37910388Y-69078821D01*
X37952727Y-69064287D01*
X38007178Y-69034818D01*
X38015075Y-69030902D01*
X38074402Y-69004086D01*
X38111259Y-68979173D01*
X38121683Y-68972852D01*
X38158017Y-68953190D01*
X38209592Y-68913046D01*
X38216295Y-68908182D01*
X38217504Y-68907364D01*
X38273047Y-68869825D01*
X38302693Y-68841410D01*
X38312320Y-68833089D01*
X38342220Y-68809818D01*
X38348845Y-68802622D01*
X38368575Y-68781189D01*
X38388796Y-68759221D01*
X38394191Y-68753717D01*
X38446144Y-68703925D01*
X38468515Y-68673676D01*
X38476972Y-68663437D01*
X38500314Y-68638083D01*
X38539790Y-68577657D01*
X38543907Y-68571739D01*
X38578794Y-68524570D01*
X38588715Y-68511157D01*
X38604109Y-68480622D01*
X38611015Y-68468640D01*
X38627984Y-68442669D01*
X38658373Y-68373385D01*
X38661158Y-68367471D01*
X38696657Y-68297067D01*
X38705665Y-68267651D01*
X38710669Y-68254165D01*
X38721749Y-68228907D01*
X38741158Y-68152258D01*
X38742783Y-68146444D01*
X38766864Y-68067815D01*
X38770333Y-68040720D01*
X38773119Y-68026049D01*
X38779051Y-68002626D01*
X38785861Y-67920427D01*
X38786442Y-67914922D01*
X38790888Y-67880205D01*
X38797318Y-67829995D01*
X38796304Y-67806131D01*
X38796615Y-67790650D01*
X38798327Y-67770000D01*
X41421673Y-67770000D01*
X41422096Y-67775105D01*
X41422096Y-67775107D01*
X41428766Y-67855616D01*
X41429077Y-67860590D01*
X41431620Y-67920434D01*
X41432857Y-67949551D01*
X41433967Y-67954705D01*
X41433968Y-67954707D01*
X41437163Y-67969533D01*
X41439522Y-67985411D01*
X41440949Y-68002626D01*
X41442205Y-68007587D01*
X41442207Y-68007597D01*
X41462871Y-68089198D01*
X41463882Y-68093511D01*
X41476547Y-68152277D01*
X41483370Y-68183932D01*
X41485333Y-68188817D01*
X41489707Y-68199702D01*
X41494854Y-68215496D01*
X41496989Y-68223927D01*
X41496992Y-68223936D01*
X41498251Y-68228907D01*
X41515252Y-68267665D01*
X41535505Y-68313838D01*
X41537007Y-68317413D01*
X41570802Y-68401516D01*
X41570806Y-68401524D01*
X41572767Y-68406404D01*
X41579877Y-68417952D01*
X41587839Y-68433147D01*
X41592016Y-68442669D01*
X41594817Y-68446956D01*
X41594821Y-68446963D01*
X41644626Y-68523196D01*
X41646396Y-68525987D01*
X41698476Y-68610569D01*
X41701953Y-68614520D01*
X41701954Y-68614521D01*
X41705162Y-68618166D01*
X41715880Y-68632258D01*
X41719686Y-68638083D01*
X41787161Y-68711380D01*
X41788980Y-68713401D01*
X41850789Y-68783630D01*
X41856881Y-68790551D01*
X41860976Y-68793857D01*
X41860980Y-68793861D01*
X41862067Y-68794738D01*
X41870479Y-68802622D01*
X41870530Y-68802568D01*
X41874308Y-68806046D01*
X41877780Y-68809818D01*
X41959153Y-68873153D01*
X41960739Y-68874410D01*
X42008612Y-68913066D01*
X42031637Y-68931658D01*
X42043424Y-68941175D01*
X42048018Y-68943741D01*
X42052390Y-68946696D01*
X42052333Y-68946779D01*
X42053450Y-68947519D01*
X42053638Y-68947232D01*
X42057936Y-68950040D01*
X42061983Y-68953190D01*
X42066492Y-68955630D01*
X42066495Y-68955632D01*
X42155605Y-69003855D01*
X42157062Y-69004656D01*
X42213993Y-69036460D01*
X42252740Y-69058105D01*
X42257707Y-69059860D01*
X42258891Y-69060395D01*
X42263308Y-69062141D01*
X42267273Y-69064287D01*
X42371231Y-69099976D01*
X42372195Y-69100312D01*
X42473831Y-69136223D01*
X42473839Y-69136225D01*
X42478806Y-69137980D01*
X42483998Y-69138869D01*
X42485429Y-69139242D01*
X42485901Y-69139342D01*
X42488049Y-69140080D01*
X42600006Y-69158762D01*
X42600237Y-69158801D01*
X42715119Y-69178500D01*
X42718288Y-69178500D01*
X42894827Y-69178500D01*
X42946580Y-69178500D01*
X42951712Y-69178500D01*
X42956773Y-69177655D01*
X42956778Y-69177655D01*
X42982402Y-69173378D01*
X43006022Y-69169436D01*
X43015867Y-69168197D01*
X43073898Y-69163259D01*
X43123607Y-69150314D01*
X43134388Y-69148015D01*
X43181951Y-69140080D01*
X43237278Y-69121085D01*
X43246271Y-69118375D01*
X43305924Y-69102844D01*
X43349603Y-69083099D01*
X43360388Y-69078821D01*
X43402727Y-69064287D01*
X43457178Y-69034818D01*
X43465075Y-69030902D01*
X43524402Y-69004086D01*
X43561259Y-68979173D01*
X43571683Y-68972852D01*
X43608017Y-68953190D01*
X43659592Y-68913046D01*
X43666295Y-68908182D01*
X43667504Y-68907364D01*
X43723047Y-68869825D01*
X43752693Y-68841410D01*
X43762320Y-68833089D01*
X43792220Y-68809818D01*
X43798845Y-68802622D01*
X43818575Y-68781189D01*
X43838796Y-68759221D01*
X43844191Y-68753717D01*
X43896144Y-68703925D01*
X43918515Y-68673676D01*
X43926972Y-68663437D01*
X43950314Y-68638083D01*
X43989790Y-68577657D01*
X43993907Y-68571739D01*
X44028794Y-68524570D01*
X44038715Y-68511157D01*
X44054109Y-68480622D01*
X44061015Y-68468640D01*
X44077984Y-68442669D01*
X44108373Y-68373385D01*
X44111158Y-68367471D01*
X44146657Y-68297067D01*
X44155665Y-68267651D01*
X44160669Y-68254165D01*
X44171749Y-68228907D01*
X44191158Y-68152258D01*
X44192783Y-68146444D01*
X44216864Y-68067815D01*
X44220333Y-68040720D01*
X44223119Y-68026049D01*
X44229051Y-68002626D01*
X44235861Y-67920427D01*
X44236442Y-67914922D01*
X44240888Y-67880205D01*
X44247318Y-67829995D01*
X44246304Y-67806131D01*
X44246615Y-67790650D01*
X44248327Y-67770000D01*
X44241233Y-67684392D01*
X44240922Y-67679427D01*
X44239465Y-67645117D01*
X44237143Y-67590449D01*
X44232836Y-67570465D01*
X44230476Y-67554577D01*
X44229051Y-67537374D01*
X44227792Y-67532402D01*
X44227791Y-67532396D01*
X44207125Y-67450790D01*
X44206113Y-67446472D01*
X44186630Y-67356068D01*
X44180291Y-67340294D01*
X44175143Y-67324496D01*
X44173008Y-67316066D01*
X44173008Y-67316065D01*
X44171749Y-67311093D01*
X44134478Y-67226124D01*
X44132982Y-67222562D01*
X44120977Y-67192687D01*
X44097233Y-67133596D01*
X44094472Y-67129112D01*
X44094470Y-67129108D01*
X44090126Y-67122053D01*
X44082157Y-67106844D01*
X44080044Y-67102027D01*
X44080042Y-67102023D01*
X44077984Y-67097331D01*
X44025379Y-67016813D01*
X44023608Y-67014021D01*
X43974286Y-66933916D01*
X43974283Y-66933912D01*
X43971524Y-66929431D01*
X43964843Y-66921840D01*
X43954113Y-66907732D01*
X43950314Y-66901917D01*
X43938249Y-66888811D01*
X43882872Y-66828656D01*
X43881018Y-66826597D01*
X43816600Y-66753404D01*
X43816598Y-66753403D01*
X43813119Y-66749449D01*
X43807926Y-66745256D01*
X43799516Y-66737374D01*
X43799467Y-66737429D01*
X43795690Y-66733951D01*
X43792220Y-66730182D01*
X43751621Y-66698582D01*
X43710928Y-66666909D01*
X43709192Y-66665532D01*
X43630678Y-66602137D01*
X43630676Y-66602136D01*
X43626576Y-66598825D01*
X43621977Y-66596256D01*
X43617613Y-66593306D01*
X43617690Y-66593191D01*
X43616570Y-66592442D01*
X43616359Y-66592766D01*
X43612063Y-66589959D01*
X43608017Y-66586810D01*
X43514383Y-66536138D01*
X43512937Y-66535342D01*
X43421860Y-66484464D01*
X43421853Y-66484461D01*
X43417260Y-66481895D01*
X43412302Y-66480142D01*
X43411110Y-66479604D01*
X43406688Y-66477856D01*
X43402727Y-66475713D01*
X43347911Y-66456894D01*
X43298779Y-66440026D01*
X43297736Y-66439662D01*
X43196168Y-66403777D01*
X43196163Y-66403775D01*
X43191194Y-66402020D01*
X43185996Y-66401128D01*
X43184576Y-66400759D01*
X43184101Y-66400658D01*
X43181951Y-66399920D01*
X43176895Y-66399076D01*
X43176894Y-66399076D01*
X43070000Y-66381238D01*
X43069803Y-66381204D01*
X42954881Y-66361500D01*
X42951712Y-66361500D01*
X42718288Y-66361500D01*
X42713227Y-66362344D01*
X42713220Y-66362345D01*
X42663987Y-66370560D01*
X42654098Y-66371804D01*
X42601356Y-66376293D01*
X42601347Y-66376294D01*
X42596102Y-66376741D01*
X42591001Y-66378069D01*
X42590996Y-66378070D01*
X42546414Y-66389678D01*
X42535581Y-66391988D01*
X42493103Y-66399076D01*
X42493095Y-66399077D01*
X42488049Y-66399920D01*
X42483204Y-66401583D01*
X42483193Y-66401586D01*
X42432739Y-66418906D01*
X42423727Y-66421622D01*
X42369179Y-66435826D01*
X42369165Y-66435830D01*
X42364076Y-66437156D01*
X42359276Y-66439325D01*
X42359272Y-66439327D01*
X42320406Y-66456894D01*
X42309603Y-66461179D01*
X42267273Y-66475713D01*
X42262777Y-66478145D01*
X42262761Y-66478153D01*
X42212828Y-66505175D01*
X42204891Y-66509110D01*
X42150402Y-66533741D01*
X42150388Y-66533748D01*
X42145598Y-66535914D01*
X42141240Y-66538859D01*
X42141230Y-66538865D01*
X42108732Y-66560829D01*
X42098319Y-66567145D01*
X42066491Y-66584370D01*
X42066487Y-66584371D01*
X42061983Y-66586810D01*
X42057947Y-66589950D01*
X42057929Y-66589963D01*
X42010419Y-66626942D01*
X42003700Y-66631819D01*
X41995897Y-66637094D01*
X41951311Y-66667229D01*
X41951307Y-66667231D01*
X41946953Y-66670175D01*
X41943162Y-66673807D01*
X41943151Y-66673817D01*
X41917312Y-66698582D01*
X41907680Y-66706908D01*
X41881825Y-66727032D01*
X41881814Y-66727041D01*
X41877780Y-66730182D01*
X41874315Y-66733944D01*
X41874306Y-66733954D01*
X41831209Y-66780768D01*
X41825785Y-66786302D01*
X41777657Y-66832431D01*
X41777651Y-66832436D01*
X41773856Y-66836075D01*
X41770729Y-66840301D01*
X41770726Y-66840306D01*
X41751478Y-66866329D01*
X41743020Y-66876567D01*
X41723158Y-66898144D01*
X41723151Y-66898151D01*
X41719686Y-66901917D01*
X41716885Y-66906202D01*
X41716885Y-66906204D01*
X41680207Y-66962343D01*
X41676096Y-66968253D01*
X41634415Y-67024610D01*
X41634411Y-67024615D01*
X41631285Y-67028843D01*
X41628919Y-67033534D01*
X41628910Y-67033550D01*
X41615890Y-67059373D01*
X41608982Y-67071360D01*
X41594819Y-67093039D01*
X41594814Y-67093047D01*
X41592016Y-67097331D01*
X41589959Y-67102019D01*
X41589957Y-67102024D01*
X41561645Y-67166568D01*
X41558819Y-67172568D01*
X41523343Y-67242933D01*
X41521800Y-67247968D01*
X41521799Y-67247973D01*
X41514334Y-67272345D01*
X41509330Y-67285833D01*
X41498251Y-67311093D01*
X41496997Y-67316043D01*
X41496990Y-67316065D01*
X41478843Y-67387727D01*
X41477203Y-67393593D01*
X41454678Y-67467146D01*
X41454675Y-67467158D01*
X41453136Y-67472185D01*
X41452468Y-67477398D01*
X41452466Y-67477409D01*
X41449666Y-67499277D01*
X41446878Y-67513958D01*
X41442207Y-67532402D01*
X41442205Y-67532413D01*
X41440949Y-67537374D01*
X41440525Y-67542481D01*
X41440525Y-67542486D01*
X41434138Y-67619554D01*
X41433558Y-67625060D01*
X41423350Y-67704784D01*
X41423349Y-67704790D01*
X41422682Y-67710005D01*
X41422905Y-67715255D01*
X41423695Y-67733857D01*
X41423383Y-67749347D01*
X41422096Y-67764889D01*
X41421673Y-67770000D01*
X38798327Y-67770000D01*
X38791233Y-67684392D01*
X38790922Y-67679427D01*
X38789465Y-67645117D01*
X38787143Y-67590449D01*
X38782836Y-67570465D01*
X38780476Y-67554577D01*
X38779051Y-67537374D01*
X38777792Y-67532402D01*
X38777791Y-67532396D01*
X38757125Y-67450790D01*
X38756113Y-67446472D01*
X38736630Y-67356068D01*
X38730291Y-67340294D01*
X38725143Y-67324496D01*
X38723008Y-67316066D01*
X38723008Y-67316065D01*
X38721749Y-67311093D01*
X38684478Y-67226124D01*
X38682982Y-67222562D01*
X38670977Y-67192687D01*
X38647233Y-67133596D01*
X38644472Y-67129112D01*
X38644470Y-67129108D01*
X38640126Y-67122053D01*
X38632157Y-67106844D01*
X38630044Y-67102027D01*
X38630042Y-67102023D01*
X38627984Y-67097331D01*
X38575379Y-67016813D01*
X38573608Y-67014021D01*
X38524286Y-66933916D01*
X38524283Y-66933912D01*
X38521524Y-66929431D01*
X38514843Y-66921840D01*
X38504113Y-66907732D01*
X38500314Y-66901917D01*
X38488249Y-66888811D01*
X38432872Y-66828656D01*
X38431018Y-66826597D01*
X38366600Y-66753404D01*
X38366598Y-66753403D01*
X38363119Y-66749449D01*
X38357926Y-66745256D01*
X38349516Y-66737374D01*
X38349467Y-66737429D01*
X38345690Y-66733951D01*
X38342220Y-66730182D01*
X38301621Y-66698582D01*
X38260928Y-66666909D01*
X38259192Y-66665532D01*
X38180678Y-66602137D01*
X38180676Y-66602136D01*
X38176576Y-66598825D01*
X38171977Y-66596256D01*
X38167613Y-66593306D01*
X38167690Y-66593191D01*
X38166570Y-66592442D01*
X38166359Y-66592766D01*
X38162063Y-66589959D01*
X38158017Y-66586810D01*
X38064383Y-66536138D01*
X38062937Y-66535342D01*
X37971860Y-66484464D01*
X37971853Y-66484461D01*
X37967260Y-66481895D01*
X37962302Y-66480142D01*
X37961110Y-66479604D01*
X37956688Y-66477856D01*
X37952727Y-66475713D01*
X37897911Y-66456894D01*
X37848779Y-66440026D01*
X37847736Y-66439662D01*
X37746168Y-66403777D01*
X37746163Y-66403775D01*
X37741194Y-66402020D01*
X37735996Y-66401128D01*
X37734576Y-66400759D01*
X37734101Y-66400658D01*
X37731951Y-66399920D01*
X37726895Y-66399076D01*
X37726894Y-66399076D01*
X37620000Y-66381238D01*
X37619803Y-66381204D01*
X37504881Y-66361500D01*
X37501712Y-66361500D01*
X37268288Y-66361500D01*
X37263227Y-66362344D01*
X37263220Y-66362345D01*
X37213987Y-66370560D01*
X37204098Y-66371804D01*
X37151356Y-66376293D01*
X37151347Y-66376294D01*
X37146102Y-66376741D01*
X37141001Y-66378069D01*
X37140996Y-66378070D01*
X37096414Y-66389678D01*
X37085581Y-66391988D01*
X37043103Y-66399076D01*
X37043095Y-66399077D01*
X37038049Y-66399920D01*
X37033204Y-66401583D01*
X37033193Y-66401586D01*
X36982739Y-66418906D01*
X36973727Y-66421622D01*
X36919179Y-66435826D01*
X36919165Y-66435830D01*
X36914076Y-66437156D01*
X36909276Y-66439325D01*
X36909272Y-66439327D01*
X36870406Y-66456894D01*
X36859603Y-66461179D01*
X36817273Y-66475713D01*
X36812777Y-66478145D01*
X36812761Y-66478153D01*
X36762828Y-66505175D01*
X36754891Y-66509110D01*
X36700402Y-66533741D01*
X36700388Y-66533748D01*
X36695598Y-66535914D01*
X36691240Y-66538859D01*
X36691230Y-66538865D01*
X36658732Y-66560829D01*
X36648319Y-66567145D01*
X36616491Y-66584370D01*
X36616487Y-66584371D01*
X36611983Y-66586810D01*
X36607947Y-66589950D01*
X36607929Y-66589963D01*
X36560419Y-66626942D01*
X36553700Y-66631819D01*
X36545897Y-66637094D01*
X36501311Y-66667229D01*
X36501307Y-66667231D01*
X36496953Y-66670175D01*
X36493162Y-66673807D01*
X36493151Y-66673817D01*
X36467312Y-66698582D01*
X36457680Y-66706908D01*
X36431825Y-66727032D01*
X36431814Y-66727041D01*
X36427780Y-66730182D01*
X36424315Y-66733944D01*
X36424306Y-66733954D01*
X36381209Y-66780768D01*
X36375785Y-66786302D01*
X36327657Y-66832431D01*
X36327651Y-66832436D01*
X36323856Y-66836075D01*
X36320729Y-66840301D01*
X36320726Y-66840306D01*
X36301478Y-66866329D01*
X36293020Y-66876567D01*
X36273158Y-66898144D01*
X36273151Y-66898151D01*
X36269686Y-66901917D01*
X36266885Y-66906202D01*
X36266885Y-66906204D01*
X36230207Y-66962343D01*
X36226096Y-66968253D01*
X36184415Y-67024610D01*
X36184411Y-67024615D01*
X36181285Y-67028843D01*
X36178919Y-67033534D01*
X36178910Y-67033550D01*
X36165890Y-67059373D01*
X36158982Y-67071360D01*
X36144819Y-67093039D01*
X36144814Y-67093047D01*
X36142016Y-67097331D01*
X36139959Y-67102019D01*
X36139957Y-67102024D01*
X36111645Y-67166568D01*
X36108819Y-67172568D01*
X36073343Y-67242933D01*
X36071800Y-67247968D01*
X36071799Y-67247973D01*
X36064334Y-67272345D01*
X36059330Y-67285833D01*
X36048251Y-67311093D01*
X36046997Y-67316043D01*
X36046990Y-67316065D01*
X36028843Y-67387727D01*
X36027203Y-67393593D01*
X36004678Y-67467146D01*
X36004675Y-67467158D01*
X36003136Y-67472185D01*
X36002468Y-67477398D01*
X36002466Y-67477409D01*
X35999666Y-67499277D01*
X35996878Y-67513958D01*
X35992207Y-67532402D01*
X35992205Y-67532413D01*
X35990949Y-67537374D01*
X35990525Y-67542481D01*
X35990525Y-67542486D01*
X35984138Y-67619554D01*
X35983558Y-67625060D01*
X35973350Y-67704784D01*
X35973349Y-67704790D01*
X35972682Y-67710005D01*
X35972905Y-67715255D01*
X35973695Y-67733857D01*
X35973383Y-67749347D01*
X35972096Y-67764889D01*
X35971673Y-67770000D01*
X32572384Y-67770000D01*
X32583156Y-67640000D01*
X32564564Y-67415632D01*
X32509296Y-67197384D01*
X32418860Y-66991209D01*
X32312659Y-66828656D01*
X32298525Y-66807022D01*
X32298523Y-66807020D01*
X32295722Y-66802732D01*
X32232407Y-66733954D01*
X32146711Y-66640864D01*
X32146708Y-66640861D01*
X32143240Y-66637094D01*
X32130197Y-66626942D01*
X31969623Y-66501960D01*
X31969615Y-66501955D01*
X31965576Y-66498811D01*
X31961071Y-66496373D01*
X31961065Y-66496369D01*
X31772080Y-66394096D01*
X31772074Y-66394093D01*
X31767574Y-66391658D01*
X31762733Y-66389996D01*
X31762726Y-66389993D01*
X31559488Y-66320222D01*
X31559487Y-66320221D01*
X31554635Y-66318556D01*
X31549585Y-66317713D01*
X31549576Y-66317711D01*
X31337631Y-66282344D01*
X31337622Y-66282343D01*
X31332569Y-66281500D01*
X31107431Y-66281500D01*
X31102378Y-66282343D01*
X31102368Y-66282344D01*
X30890423Y-66317711D01*
X30890411Y-66317713D01*
X30885365Y-66318556D01*
X30880515Y-66320220D01*
X30880511Y-66320222D01*
X30677273Y-66389993D01*
X30677262Y-66389997D01*
X30672426Y-66391658D01*
X30667929Y-66394091D01*
X30667919Y-66394096D01*
X30478934Y-66496369D01*
X30478922Y-66496376D01*
X30474424Y-66498811D01*
X30470389Y-66501951D01*
X30470376Y-66501960D01*
X30300801Y-66633948D01*
X30300795Y-66633952D01*
X30296760Y-66637094D01*
X30293297Y-66640855D01*
X30293288Y-66640864D01*
X30147753Y-66798956D01*
X30147747Y-66798963D01*
X30144278Y-66802732D01*
X30141481Y-66807012D01*
X30141474Y-66807022D01*
X30036138Y-66968253D01*
X30021140Y-66991209D01*
X30019085Y-66995892D01*
X30019080Y-66995903D01*
X29956541Y-67138481D01*
X29930704Y-67197384D01*
X29929446Y-67202349D01*
X29929445Y-67202354D01*
X29876695Y-67410657D01*
X29876693Y-67410666D01*
X29875436Y-67415632D01*
X29875012Y-67420741D01*
X29875011Y-67420751D01*
X29860514Y-67595712D01*
X29856844Y-67640000D01*
X29857268Y-67645117D01*
X29875011Y-67859248D01*
X29875012Y-67859256D01*
X29875436Y-67864368D01*
X29876693Y-67869335D01*
X29876695Y-67869342D01*
X29918214Y-68033295D01*
X29930704Y-68082616D01*
X29935483Y-68093511D01*
X30019080Y-68284096D01*
X30019083Y-68284101D01*
X30021140Y-68288791D01*
X30026547Y-68297067D01*
X30141474Y-68472977D01*
X30141477Y-68472981D01*
X30144278Y-68477268D01*
X30147752Y-68481041D01*
X30147753Y-68481043D01*
X30293288Y-68639135D01*
X30293291Y-68639138D01*
X30296760Y-68642906D01*
X30329421Y-68668327D01*
X30470376Y-68778039D01*
X30470381Y-68778042D01*
X30474424Y-68781189D01*
X30478931Y-68783628D01*
X30478934Y-68783630D01*
X30510930Y-68800945D01*
X30558436Y-68846526D01*
X30575913Y-68910000D01*
X30558436Y-68973474D01*
X30510930Y-69019055D01*
X30478934Y-69036369D01*
X30478922Y-69036376D01*
X30474424Y-69038811D01*
X30470389Y-69041951D01*
X30470376Y-69041960D01*
X30300801Y-69173948D01*
X30300795Y-69173952D01*
X30296760Y-69177094D01*
X30293297Y-69180855D01*
X30293288Y-69180864D01*
X30147753Y-69338956D01*
X30147747Y-69338963D01*
X30144278Y-69342732D01*
X30141481Y-69347012D01*
X30141474Y-69347022D01*
X30064178Y-69465334D01*
X30021140Y-69531209D01*
X30019085Y-69535892D01*
X30019080Y-69535903D01*
X29938965Y-69718551D01*
X29930704Y-69737384D01*
X29929446Y-69742349D01*
X29929445Y-69742354D01*
X29876695Y-69950657D01*
X29876693Y-69950666D01*
X29875436Y-69955632D01*
X29875012Y-69960741D01*
X29875011Y-69960751D01*
X29863150Y-70103894D01*
X29856844Y-70180000D01*
X29857268Y-70185117D01*
X29875011Y-70399248D01*
X29875012Y-70399256D01*
X29875436Y-70404368D01*
X29876693Y-70409335D01*
X29876695Y-70409342D01*
X29921438Y-70586027D01*
X29930704Y-70622616D01*
X29932764Y-70627312D01*
X30019080Y-70824096D01*
X30019083Y-70824101D01*
X30021140Y-70828791D01*
X30039368Y-70856691D01*
X30141474Y-71012977D01*
X30141477Y-71012981D01*
X30144278Y-71017268D01*
X30289492Y-71175011D01*
X30318264Y-71227760D01*
X30318857Y-71287847D01*
X30291131Y-71341157D01*
X30241596Y-71375172D01*
X30132109Y-71416009D01*
X30132101Y-71416013D01*
X30123796Y-71419111D01*
X30116698Y-71424423D01*
X30116695Y-71424426D01*
X30013835Y-71501426D01*
X30013831Y-71501429D01*
X30006739Y-71506739D01*
X30001429Y-71513831D01*
X30001426Y-71513835D01*
X29924426Y-71616695D01*
X29924423Y-71616698D01*
X29919111Y-71623796D01*
X29916013Y-71632099D01*
X29916011Y-71632105D01*
X29870719Y-71753536D01*
X29870717Y-71753543D01*
X29868011Y-71760799D01*
X29867182Y-71768500D01*
X29867182Y-71768505D01*
X29862723Y-71809984D01*
X29861500Y-71821362D01*
X29861500Y-73618638D01*
X29868011Y-73679201D01*
X29870717Y-73686458D01*
X29870719Y-73686463D01*
X29916011Y-73807894D01*
X29919111Y-73816204D01*
X30006739Y-73933261D01*
X30123796Y-74020889D01*
X30241595Y-74064826D01*
X30291130Y-74098841D01*
X30318857Y-74152152D01*
X30318264Y-74212238D01*
X30289490Y-74264991D01*
X30147753Y-74418956D01*
X30147747Y-74418963D01*
X30144278Y-74422732D01*
X30141481Y-74427012D01*
X30141474Y-74427022D01*
X30066506Y-74541771D01*
X30021140Y-74611209D01*
X30019085Y-74615892D01*
X30019080Y-74615903D01*
X29932764Y-74812687D01*
X29930704Y-74817384D01*
X29929446Y-74822349D01*
X29929445Y-74822354D01*
X29876695Y-75030657D01*
X29876693Y-75030666D01*
X29875436Y-75035632D01*
X29875012Y-75040741D01*
X29875011Y-75040751D01*
X29857268Y-75254883D01*
X29856844Y-75260000D01*
X29857268Y-75265117D01*
X29875011Y-75479248D01*
X29875012Y-75479256D01*
X29875436Y-75484368D01*
X29876693Y-75489335D01*
X29876695Y-75489342D01*
X29902908Y-75592852D01*
X29930704Y-75702616D01*
X29935127Y-75712699D01*
X30019080Y-75904096D01*
X30019083Y-75904101D01*
X30021140Y-75908791D01*
X30053439Y-75958228D01*
X30141474Y-76092977D01*
X30141477Y-76092981D01*
X30144278Y-76097268D01*
X30147752Y-76101041D01*
X30147753Y-76101043D01*
X30293288Y-76259135D01*
X30293291Y-76259138D01*
X30296760Y-76262906D01*
X30300801Y-76266051D01*
X30470376Y-76398039D01*
X30470381Y-76398042D01*
X30474424Y-76401189D01*
X30478931Y-76403628D01*
X30478934Y-76403630D01*
X30510930Y-76420945D01*
X30558436Y-76466526D01*
X30575913Y-76530000D01*
X30558436Y-76593474D01*
X30510930Y-76639055D01*
X30478934Y-76656369D01*
X30478922Y-76656376D01*
X30474424Y-76658811D01*
X30470389Y-76661951D01*
X30470376Y-76661960D01*
X30300801Y-76793948D01*
X30300795Y-76793952D01*
X30296760Y-76797094D01*
X30293297Y-76800855D01*
X30293288Y-76800864D01*
X30147753Y-76958956D01*
X30147747Y-76958963D01*
X30144278Y-76962732D01*
X30141481Y-76967012D01*
X30141474Y-76967022D01*
X30042322Y-77118787D01*
X30021140Y-77151209D01*
X30019085Y-77155892D01*
X30019080Y-77155903D01*
X29972148Y-77262900D01*
X29930704Y-77357384D01*
X29929446Y-77362349D01*
X29929445Y-77362354D01*
X29876695Y-77570657D01*
X29876693Y-77570666D01*
X29875436Y-77575632D01*
X29875012Y-77580741D01*
X29875011Y-77580751D01*
X29864251Y-77710612D01*
X29856844Y-77800000D01*
X29857268Y-77805117D01*
X29875011Y-78019248D01*
X29875012Y-78019256D01*
X29875436Y-78024368D01*
X29876693Y-78029335D01*
X29876695Y-78029342D01*
X29925227Y-78220989D01*
X29930704Y-78242616D01*
X29932764Y-78247312D01*
X30019080Y-78444096D01*
X30019083Y-78444101D01*
X30021140Y-78448791D01*
X30041493Y-78479943D01*
X30141474Y-78632977D01*
X30141477Y-78632981D01*
X30144278Y-78637268D01*
X30147752Y-78641041D01*
X30147753Y-78641043D01*
X30293288Y-78799135D01*
X30293291Y-78799138D01*
X30296760Y-78802906D01*
X30300801Y-78806051D01*
X30470376Y-78938039D01*
X30470381Y-78938042D01*
X30474424Y-78941189D01*
X30478931Y-78943628D01*
X30478934Y-78943630D01*
X30510930Y-78960945D01*
X30558436Y-79006526D01*
X30575913Y-79070000D01*
X30558436Y-79133474D01*
X30510930Y-79179055D01*
X30478934Y-79196369D01*
X30478922Y-79196376D01*
X30474424Y-79198811D01*
X30470389Y-79201951D01*
X30470376Y-79201960D01*
X30300801Y-79333948D01*
X30300795Y-79333952D01*
X30296760Y-79337094D01*
X30293297Y-79340855D01*
X30293288Y-79340864D01*
X30147753Y-79498956D01*
X30147747Y-79498963D01*
X30144278Y-79502732D01*
X30141481Y-79507012D01*
X30141474Y-79507022D01*
X30023942Y-79686920D01*
X30021140Y-79691209D01*
X30019085Y-79695892D01*
X30019080Y-79695903D01*
X29932764Y-79892687D01*
X29930704Y-79897384D01*
X29929446Y-79902349D01*
X29929445Y-79902354D01*
X29876695Y-80110657D01*
X29876693Y-80110666D01*
X29875436Y-80115632D01*
X29875012Y-80120741D01*
X29875011Y-80120751D01*
X29857268Y-80334883D01*
X29856844Y-80340000D01*
X29857268Y-80345117D01*
X29875011Y-80559248D01*
X29875012Y-80559256D01*
X29875436Y-80564368D01*
X29876693Y-80569335D01*
X29876695Y-80569342D01*
X29908906Y-80696538D01*
X29930704Y-80782616D01*
X29932764Y-80787312D01*
X30019080Y-80984096D01*
X30019083Y-80984101D01*
X30021140Y-80988791D01*
X30025785Y-80995900D01*
X30141474Y-81172977D01*
X30141477Y-81172981D01*
X30144278Y-81177268D01*
X30147752Y-81181041D01*
X30147753Y-81181043D01*
X30293288Y-81339135D01*
X30293291Y-81339138D01*
X30296760Y-81342906D01*
X30300801Y-81346051D01*
X30470376Y-81478039D01*
X30470381Y-81478042D01*
X30474424Y-81481189D01*
X30510930Y-81500945D01*
X30558434Y-81546523D01*
X30575913Y-81609996D01*
X30558437Y-81673471D01*
X30510933Y-81719053D01*
X30478930Y-81736372D01*
X30478925Y-81736374D01*
X30474424Y-81738811D01*
X30470389Y-81741951D01*
X30470376Y-81741960D01*
X30300801Y-81873948D01*
X30300795Y-81873952D01*
X30296760Y-81877094D01*
X30293297Y-81880855D01*
X30293288Y-81880864D01*
X30147753Y-82038956D01*
X30147747Y-82038963D01*
X30144278Y-82042732D01*
X30141481Y-82047012D01*
X30141474Y-82047022D01*
X30023942Y-82226920D01*
X30021140Y-82231209D01*
X30019085Y-82235892D01*
X30019080Y-82235903D01*
X29932764Y-82432687D01*
X29930704Y-82437384D01*
X29929446Y-82442349D01*
X29929445Y-82442354D01*
X29876695Y-82650657D01*
X29876693Y-82650666D01*
X29875436Y-82655632D01*
X29875012Y-82660741D01*
X29875011Y-82660751D01*
X29857268Y-82874883D01*
X29856844Y-82880000D01*
X29857268Y-82885117D01*
X29875011Y-83099248D01*
X29875012Y-83099256D01*
X29875436Y-83104368D01*
X29876693Y-83109335D01*
X29876695Y-83109342D01*
X29929445Y-83317645D01*
X29930704Y-83322616D01*
X29932764Y-83327312D01*
X30019080Y-83524096D01*
X30019083Y-83524101D01*
X30021140Y-83528791D01*
X30080505Y-83619656D01*
X30141474Y-83712977D01*
X30141477Y-83712981D01*
X30144278Y-83717268D01*
X30289492Y-83875011D01*
X30318264Y-83927760D01*
X30318857Y-83987847D01*
X30291131Y-84041157D01*
X30241596Y-84075172D01*
X30132109Y-84116009D01*
X30132101Y-84116013D01*
X30123796Y-84119111D01*
X30116698Y-84124423D01*
X30116695Y-84124426D01*
X30013835Y-84201426D01*
X30013831Y-84201429D01*
X30006739Y-84206739D01*
X30001429Y-84213831D01*
X30001426Y-84213835D01*
X29924426Y-84316695D01*
X29924423Y-84316698D01*
X29919111Y-84323796D01*
X29916013Y-84332099D01*
X29916011Y-84332105D01*
X29870719Y-84453536D01*
X29870717Y-84453543D01*
X29868011Y-84460799D01*
X29867182Y-84468500D01*
X29867182Y-84468505D01*
X29861853Y-84518075D01*
X29861500Y-84521362D01*
X29861500Y-86318638D01*
X29868011Y-86379201D01*
X29870717Y-86386458D01*
X29870719Y-86386463D01*
X29916011Y-86507894D01*
X29919111Y-86516204D01*
X30006739Y-86633261D01*
X30123796Y-86720889D01*
X30241595Y-86764826D01*
X30291130Y-86798841D01*
X30318857Y-86852152D01*
X30318264Y-86912238D01*
X30289490Y-86964991D01*
X30147753Y-87118956D01*
X30147747Y-87118963D01*
X30144278Y-87122732D01*
X30141481Y-87127012D01*
X30141474Y-87127022D01*
X30023942Y-87306920D01*
X30021140Y-87311209D01*
X30019085Y-87315892D01*
X30019080Y-87315903D01*
X29936129Y-87505016D01*
X29930704Y-87517384D01*
X29929446Y-87522349D01*
X29929445Y-87522354D01*
X29876695Y-87730657D01*
X29876693Y-87730666D01*
X29875436Y-87735632D01*
X29875012Y-87740741D01*
X29875011Y-87740751D01*
X29857268Y-87954883D01*
X29856844Y-87960000D01*
X29857268Y-87965117D01*
X29875011Y-88179248D01*
X29875012Y-88179256D01*
X29875436Y-88184368D01*
X29876693Y-88189335D01*
X29876695Y-88189342D01*
X29929445Y-88397645D01*
X29930704Y-88402616D01*
X29932764Y-88407312D01*
X30019080Y-88604096D01*
X30019083Y-88604101D01*
X30021140Y-88608791D01*
X30080505Y-88699656D01*
X30141474Y-88792977D01*
X30141477Y-88792981D01*
X30144278Y-88797268D01*
X30147752Y-88801041D01*
X30147753Y-88801043D01*
X30293288Y-88959135D01*
X30293291Y-88959138D01*
X30296760Y-88962906D01*
X30300801Y-88966051D01*
X30470376Y-89098039D01*
X30470381Y-89098042D01*
X30474424Y-89101189D01*
X30478931Y-89103628D01*
X30478934Y-89103630D01*
X30510930Y-89120945D01*
X30558436Y-89166526D01*
X30575913Y-89230000D01*
X30558436Y-89293474D01*
X30510930Y-89339055D01*
X30478934Y-89356369D01*
X30478922Y-89356376D01*
X30474424Y-89358811D01*
X30470389Y-89361951D01*
X30470376Y-89361960D01*
X30300801Y-89493948D01*
X30300795Y-89493952D01*
X30296760Y-89497094D01*
X30293297Y-89500855D01*
X30293288Y-89500864D01*
X30147753Y-89658956D01*
X30147747Y-89658963D01*
X30144278Y-89662732D01*
X30141481Y-89667012D01*
X30141474Y-89667022D01*
X30023942Y-89846920D01*
X30021140Y-89851209D01*
X30019085Y-89855892D01*
X30019080Y-89855903D01*
X29936129Y-90045016D01*
X29930704Y-90057384D01*
X29929446Y-90062349D01*
X29929445Y-90062354D01*
X29876695Y-90270657D01*
X29876693Y-90270666D01*
X29875436Y-90275632D01*
X29875012Y-90280741D01*
X29875011Y-90280751D01*
X29857268Y-90494883D01*
X29856844Y-90500000D01*
X29857268Y-90505117D01*
X29875011Y-90719248D01*
X29875012Y-90719256D01*
X29875436Y-90724368D01*
X29876693Y-90729335D01*
X29876695Y-90729342D01*
X29929445Y-90937645D01*
X29930704Y-90942616D01*
X29932764Y-90947312D01*
X30019080Y-91144096D01*
X30019083Y-91144101D01*
X30021140Y-91148791D01*
X30080505Y-91239656D01*
X30141474Y-91332977D01*
X30141477Y-91332981D01*
X30144278Y-91337268D01*
X30147752Y-91341041D01*
X30147753Y-91341043D01*
X30293288Y-91499135D01*
X30293291Y-91499138D01*
X30296760Y-91502906D01*
X30300801Y-91506051D01*
X30470376Y-91638039D01*
X30470381Y-91638042D01*
X30474424Y-91641189D01*
X30478931Y-91643628D01*
X30478934Y-91643630D01*
X30510930Y-91660945D01*
X30558436Y-91706526D01*
X30575913Y-91770000D01*
X30558436Y-91833474D01*
X30510930Y-91879055D01*
X30478934Y-91896369D01*
X30478922Y-91896376D01*
X30474424Y-91898811D01*
X30470389Y-91901951D01*
X30470376Y-91901960D01*
X30300801Y-92033948D01*
X30300795Y-92033952D01*
X30296760Y-92037094D01*
X30293297Y-92040855D01*
X30293288Y-92040864D01*
X30147753Y-92198956D01*
X30147747Y-92198963D01*
X30144278Y-92202732D01*
X30141481Y-92207012D01*
X30141474Y-92207022D01*
X30047853Y-92350321D01*
X30021140Y-92391209D01*
X30019085Y-92395892D01*
X30019080Y-92395903D01*
X29936622Y-92583892D01*
X29930704Y-92597384D01*
X29929446Y-92602349D01*
X29929445Y-92602354D01*
X29876695Y-92810657D01*
X29876693Y-92810666D01*
X29875436Y-92815632D01*
X29875012Y-92820741D01*
X29875011Y-92820751D01*
X29860747Y-92992899D01*
X29856844Y-93040000D01*
X29857268Y-93045117D01*
X29875011Y-93259248D01*
X29875012Y-93259256D01*
X29875436Y-93264368D01*
X29876693Y-93269335D01*
X29876695Y-93269342D01*
X29929445Y-93477645D01*
X29930704Y-93482616D01*
X29932764Y-93487312D01*
X30019080Y-93684096D01*
X30019083Y-93684101D01*
X30021140Y-93688791D01*
X30080505Y-93779656D01*
X30141474Y-93872977D01*
X30141477Y-93872981D01*
X30144278Y-93877268D01*
X30147752Y-93881041D01*
X30147753Y-93881043D01*
X30293288Y-94039135D01*
X30293291Y-94039138D01*
X30296760Y-94042906D01*
X30335746Y-94073250D01*
X30470376Y-94178039D01*
X30470381Y-94178042D01*
X30474424Y-94181189D01*
X30510930Y-94200945D01*
X30558434Y-94246523D01*
X30575913Y-94309996D01*
X30558437Y-94373471D01*
X30510933Y-94419053D01*
X30478930Y-94436372D01*
X30478925Y-94436374D01*
X30474424Y-94438811D01*
X30470389Y-94441951D01*
X30470376Y-94441960D01*
X30300801Y-94573948D01*
X30300795Y-94573952D01*
X30296760Y-94577094D01*
X30293297Y-94580855D01*
X30293288Y-94580864D01*
X30147753Y-94738956D01*
X30147747Y-94738963D01*
X30144278Y-94742732D01*
X30141481Y-94747012D01*
X30141474Y-94747022D01*
X30102859Y-94806128D01*
X30021140Y-94931209D01*
X30019085Y-94935892D01*
X30019080Y-94935903D01*
X29932764Y-95132687D01*
X29930704Y-95137384D01*
X29929446Y-95142349D01*
X29929445Y-95142354D01*
X29876695Y-95350657D01*
X29876693Y-95350666D01*
X29875436Y-95355632D01*
X29875012Y-95360741D01*
X29875011Y-95360751D01*
X29857268Y-95574883D01*
X29856844Y-95580000D01*
X29857268Y-95585117D01*
X29875011Y-95799248D01*
X29875012Y-95799256D01*
X29875436Y-95804368D01*
X29876693Y-95809335D01*
X29876695Y-95809342D01*
X29929445Y-96017645D01*
X29930704Y-96022616D01*
X29937531Y-96038180D01*
X30019080Y-96224096D01*
X30019083Y-96224101D01*
X30021140Y-96228791D01*
X30080505Y-96319656D01*
X30141474Y-96412977D01*
X30141477Y-96412981D01*
X30144278Y-96417268D01*
X30289492Y-96575011D01*
X30318264Y-96627760D01*
X30318857Y-96687847D01*
X30291131Y-96741157D01*
X30241596Y-96775172D01*
X30132109Y-96816009D01*
X30132101Y-96816013D01*
X30123796Y-96819111D01*
X30116698Y-96824423D01*
X30116695Y-96824426D01*
X30013835Y-96901426D01*
X30013831Y-96901429D01*
X30006739Y-96906739D01*
X30001429Y-96913831D01*
X30001426Y-96913835D01*
X29924426Y-97016695D01*
X29924423Y-97016698D01*
X29919111Y-97023796D01*
X29916013Y-97032099D01*
X29916011Y-97032105D01*
X29870719Y-97153536D01*
X29870717Y-97153543D01*
X29868011Y-97160799D01*
X29867182Y-97168500D01*
X29867182Y-97168505D01*
X29866986Y-97170332D01*
X29861500Y-97221362D01*
X29861500Y-99018638D01*
X29868011Y-99079201D01*
X29870717Y-99086458D01*
X29870719Y-99086463D01*
X29916011Y-99207894D01*
X29919111Y-99216204D01*
X30006739Y-99333261D01*
X30123796Y-99420889D01*
X30241595Y-99464826D01*
X30291130Y-99498841D01*
X30318857Y-99552152D01*
X30318264Y-99612238D01*
X30289490Y-99664991D01*
X30147753Y-99818956D01*
X30147747Y-99818963D01*
X30144278Y-99822732D01*
X30141481Y-99827012D01*
X30141474Y-99827022D01*
X30031527Y-99995310D01*
X30021140Y-100011209D01*
X30019085Y-100015892D01*
X30019080Y-100015903D01*
X29950564Y-100172107D01*
X29930704Y-100217384D01*
X29929446Y-100222349D01*
X29929445Y-100222354D01*
X29876695Y-100430657D01*
X29876693Y-100430666D01*
X29875436Y-100435632D01*
X29875012Y-100440741D01*
X29875011Y-100440751D01*
X29857268Y-100654883D01*
X29856844Y-100660000D01*
X29857268Y-100665117D01*
X29875011Y-100879248D01*
X29875012Y-100879256D01*
X29875436Y-100884368D01*
X29876693Y-100889335D01*
X29876695Y-100889342D01*
X29929445Y-101097645D01*
X29930704Y-101102616D01*
X29932764Y-101107312D01*
X30019080Y-101304096D01*
X30019083Y-101304101D01*
X30021140Y-101308791D01*
X30037900Y-101334444D01*
X30141474Y-101492977D01*
X30141477Y-101492981D01*
X30144278Y-101497268D01*
X30147752Y-101501041D01*
X30147753Y-101501043D01*
X30293288Y-101659135D01*
X30293291Y-101659138D01*
X30296760Y-101662906D01*
X30300801Y-101666051D01*
X30470376Y-101798039D01*
X30470381Y-101798042D01*
X30474424Y-101801189D01*
X30478931Y-101803628D01*
X30478934Y-101803630D01*
X30510930Y-101820945D01*
X30558436Y-101866526D01*
X30575913Y-101930000D01*
X30558436Y-101993474D01*
X30510930Y-102039055D01*
X30478934Y-102056369D01*
X30478922Y-102056376D01*
X30474424Y-102058811D01*
X30470389Y-102061951D01*
X30470376Y-102061960D01*
X30300801Y-102193948D01*
X30300795Y-102193952D01*
X30296760Y-102197094D01*
X30293297Y-102200855D01*
X30293288Y-102200864D01*
X30147753Y-102358956D01*
X30147747Y-102358963D01*
X30144278Y-102362732D01*
X30141481Y-102367012D01*
X30141474Y-102367022D01*
X30047853Y-102510321D01*
X30021140Y-102551209D01*
X30019085Y-102555892D01*
X30019080Y-102555903D01*
X29984346Y-102635091D01*
X29930704Y-102757384D01*
X29929446Y-102762349D01*
X29929445Y-102762354D01*
X29876695Y-102970657D01*
X29876693Y-102970666D01*
X29875436Y-102975632D01*
X29875012Y-102980741D01*
X29875011Y-102980751D01*
X29868944Y-103053972D01*
X29856844Y-103200000D01*
X29857268Y-103205117D01*
X29875011Y-103419248D01*
X29875012Y-103419256D01*
X29875436Y-103424368D01*
X29876693Y-103429335D01*
X29876695Y-103429342D01*
X29929445Y-103637645D01*
X29930704Y-103642616D01*
X29932764Y-103647312D01*
X30019080Y-103844096D01*
X30019083Y-103844101D01*
X30021140Y-103848791D01*
X30057910Y-103905072D01*
X30141474Y-104032977D01*
X30141477Y-104032981D01*
X30144278Y-104037268D01*
X30147752Y-104041041D01*
X30147753Y-104041043D01*
X30293288Y-104199135D01*
X30293291Y-104199138D01*
X30296760Y-104202906D01*
X30333825Y-104231755D01*
X30470376Y-104338039D01*
X30470381Y-104338042D01*
X30474424Y-104341189D01*
X30478931Y-104343628D01*
X30478934Y-104343630D01*
X30510930Y-104360945D01*
X30558436Y-104406526D01*
X30575913Y-104470000D01*
X30558436Y-104533474D01*
X30510930Y-104579055D01*
X30478934Y-104596369D01*
X30478922Y-104596376D01*
X30474424Y-104598811D01*
X30470389Y-104601951D01*
X30470376Y-104601960D01*
X30300801Y-104733948D01*
X30300795Y-104733952D01*
X30296760Y-104737094D01*
X30293297Y-104740855D01*
X30293288Y-104740864D01*
X30147753Y-104898956D01*
X30147747Y-104898963D01*
X30144278Y-104902732D01*
X30141481Y-104907012D01*
X30141474Y-104907022D01*
X30023942Y-105086920D01*
X30021140Y-105091209D01*
X30019085Y-105095892D01*
X30019080Y-105095903D01*
X29932764Y-105292687D01*
X29930704Y-105297384D01*
X29929446Y-105302349D01*
X29929445Y-105302354D01*
X29876695Y-105510657D01*
X29876693Y-105510666D01*
X29875436Y-105515632D01*
X29875012Y-105520741D01*
X29875011Y-105520751D01*
X29857268Y-105734883D01*
X29856844Y-105740000D01*
X29857268Y-105745117D01*
X29875011Y-105959248D01*
X29875012Y-105959256D01*
X29875436Y-105964368D01*
X29876693Y-105969335D01*
X29876695Y-105969342D01*
X29929445Y-106177645D01*
X29930704Y-106182616D01*
X29932764Y-106187312D01*
X30019080Y-106384096D01*
X30019083Y-106384101D01*
X30021140Y-106388791D01*
X30080505Y-106479656D01*
X30141474Y-106572977D01*
X30141477Y-106572981D01*
X30144278Y-106577268D01*
X30147752Y-106581041D01*
X30147753Y-106581043D01*
X30293288Y-106739135D01*
X30293291Y-106739138D01*
X30296760Y-106742906D01*
X30300801Y-106746051D01*
X30470376Y-106878039D01*
X30470381Y-106878042D01*
X30474424Y-106881189D01*
X30510930Y-106900945D01*
X30558434Y-106946523D01*
X30575913Y-107009996D01*
X30558437Y-107073471D01*
X30510933Y-107119053D01*
X30478930Y-107136372D01*
X30478925Y-107136374D01*
X30474424Y-107138811D01*
X30470389Y-107141951D01*
X30470376Y-107141960D01*
X30300801Y-107273948D01*
X30300795Y-107273952D01*
X30296760Y-107277094D01*
X30293297Y-107280855D01*
X30293288Y-107280864D01*
X30147753Y-107438956D01*
X30147747Y-107438963D01*
X30144278Y-107442732D01*
X30141481Y-107447012D01*
X30141474Y-107447022D01*
X30071750Y-107553744D01*
X30021140Y-107631209D01*
X30019085Y-107635892D01*
X30019080Y-107635903D01*
X29932764Y-107832687D01*
X29930704Y-107837384D01*
X29929446Y-107842349D01*
X29929445Y-107842354D01*
X29876695Y-108050657D01*
X29876693Y-108050666D01*
X29875436Y-108055632D01*
X29875012Y-108060741D01*
X29875011Y-108060751D01*
X29868246Y-108142398D01*
X29856844Y-108280000D01*
X29857268Y-108285117D01*
X29875011Y-108499248D01*
X29875012Y-108499256D01*
X29875436Y-108504368D01*
X29876693Y-108509335D01*
X29876695Y-108509342D01*
X29913390Y-108654244D01*
X29930704Y-108722616D01*
X29932764Y-108727312D01*
X30019080Y-108924096D01*
X30019083Y-108924101D01*
X30021140Y-108928791D01*
X30064457Y-108995092D01*
X30141474Y-109112977D01*
X30141477Y-109112981D01*
X30144278Y-109117268D01*
X30289492Y-109275011D01*
X30318264Y-109327760D01*
X30318857Y-109387847D01*
X30291131Y-109441157D01*
X30241596Y-109475172D01*
X30132109Y-109516009D01*
X30132101Y-109516013D01*
X30123796Y-109519111D01*
X30116698Y-109524423D01*
X30116695Y-109524426D01*
X30013835Y-109601426D01*
X30013831Y-109601429D01*
X30006739Y-109606739D01*
X30001429Y-109613831D01*
X30001426Y-109613835D01*
X29924426Y-109716695D01*
X29924423Y-109716698D01*
X29919111Y-109723796D01*
X29916013Y-109732099D01*
X29916011Y-109732105D01*
X29870719Y-109853536D01*
X29870717Y-109853543D01*
X29868011Y-109860799D01*
X29867182Y-109868500D01*
X29867182Y-109868505D01*
X29866986Y-109870332D01*
X29861500Y-109921362D01*
X29861500Y-111718638D01*
X29868011Y-111779201D01*
X29870717Y-111786458D01*
X29870719Y-111786463D01*
X29916011Y-111907894D01*
X29919111Y-111916204D01*
X30006739Y-112033261D01*
X30123796Y-112120889D01*
X30241595Y-112164826D01*
X30291130Y-112198841D01*
X30318857Y-112252152D01*
X30318264Y-112312238D01*
X30289490Y-112364991D01*
X30147753Y-112518956D01*
X30147747Y-112518963D01*
X30144278Y-112522732D01*
X30141481Y-112527012D01*
X30141474Y-112527022D01*
X30053787Y-112661239D01*
X30021140Y-112711209D01*
X30019085Y-112715892D01*
X30019080Y-112715903D01*
X29932764Y-112912687D01*
X29930704Y-112917384D01*
X29929446Y-112922349D01*
X29929445Y-112922354D01*
X29876695Y-113130657D01*
X29876693Y-113130666D01*
X29875436Y-113135632D01*
X29875012Y-113140741D01*
X29875011Y-113140751D01*
X29858657Y-113338125D01*
X29856844Y-113360000D01*
X29857268Y-113365117D01*
X29875011Y-113579248D01*
X29875012Y-113579256D01*
X29875436Y-113584368D01*
X29876693Y-113589335D01*
X29876695Y-113589342D01*
X29929445Y-113797645D01*
X29930704Y-113802616D01*
X29932764Y-113807312D01*
X30019080Y-114004096D01*
X30019083Y-114004101D01*
X30021140Y-114008791D01*
X30067001Y-114078987D01*
X30141474Y-114192977D01*
X30141477Y-114192981D01*
X30144278Y-114197268D01*
X30147752Y-114201041D01*
X30147753Y-114201043D01*
X30293288Y-114359135D01*
X30293291Y-114359138D01*
X30296760Y-114362906D01*
X30300801Y-114366051D01*
X30383956Y-114430774D01*
X24860000Y-114665000D01*
X24682442Y-124404536D01*
X24644035Y-124322171D01*
X24508495Y-124128599D01*
X24341401Y-123961505D01*
X24147829Y-123825965D01*
X23933663Y-123726097D01*
X23928438Y-123724697D01*
X23928430Y-123724694D01*
X23710634Y-123666337D01*
X23710630Y-123666336D01*
X23705408Y-123664937D01*
X23700020Y-123664465D01*
X23700017Y-123664465D01*
X23531664Y-123649736D01*
X23531662Y-123649735D01*
X23528966Y-123649500D01*
X23411034Y-123649500D01*
X23408338Y-123649735D01*
X23408335Y-123649736D01*
X23239982Y-123664465D01*
X23239977Y-123664465D01*
X23234592Y-123664937D01*
X23229371Y-123666335D01*
X23229365Y-123666337D01*
X23011569Y-123724694D01*
X23011557Y-123724698D01*
X23006337Y-123726097D01*
X23001432Y-123728383D01*
X23001427Y-123728386D01*
X22797081Y-123823675D01*
X22797077Y-123823677D01*
X22792171Y-123825965D01*
X22787738Y-123829068D01*
X22787731Y-123829073D01*
X22603034Y-123958399D01*
X22603029Y-123958402D01*
X22598599Y-123961505D01*
X22594775Y-123965328D01*
X22594769Y-123965334D01*
X22435336Y-124124767D01*
X22435330Y-124124773D01*
X22431505Y-124128599D01*
X22428406Y-124133023D01*
X22428399Y-124133033D01*
X22299066Y-124317740D01*
X22299061Y-124317747D01*
X22295965Y-124322170D01*
X22293683Y-124327061D01*
X22293678Y-124327072D01*
X22198386Y-124531427D01*
X22198383Y-124531432D01*
X22196097Y-124536337D01*
X22194698Y-124541557D01*
X22194694Y-124541569D01*
X22136337Y-124759365D01*
X22136335Y-124759371D01*
X22134937Y-124764592D01*
X22114341Y-125000000D01*
X22134937Y-125235408D01*
X22136336Y-125240630D01*
X22136337Y-125240634D01*
X22194694Y-125458430D01*
X22194697Y-125458438D01*
X22196097Y-125463663D01*
X22295965Y-125677829D01*
X22431505Y-125871401D01*
X22598599Y-126038495D01*
X22792171Y-126174035D01*
X23006337Y-126273903D01*
X23234592Y-126335063D01*
X23411034Y-126350500D01*
X23526258Y-126350500D01*
X23528966Y-126350500D01*
X23705408Y-126335063D01*
X23933663Y-126273903D01*
X24147829Y-126174035D01*
X24341401Y-126038495D01*
X24508495Y-125871401D01*
X24644035Y-125677830D01*
X24659848Y-125643918D01*
X24580443Y-129999500D01*
X23502562Y-129999500D01*
X23497437Y-129999394D01*
X23282901Y-129990520D01*
X23282617Y-129990508D01*
X23086570Y-129981948D01*
X23076641Y-129981114D01*
X22863677Y-129954568D01*
X22862829Y-129954459D01*
X22665062Y-129928422D01*
X22655802Y-129926844D01*
X22446559Y-129882971D01*
X22445166Y-129882671D01*
X22249627Y-129839321D01*
X22241084Y-129837105D01*
X22036460Y-129776186D01*
X22034554Y-129775602D01*
X21843309Y-129715302D01*
X21835523Y-129712559D01*
X21706985Y-129662404D01*
X21636734Y-129634991D01*
X21634395Y-129634051D01*
X21449005Y-129557260D01*
X21441997Y-129554099D01*
X21250411Y-129460437D01*
X21247615Y-129459026D01*
X21069578Y-129366346D01*
X21063362Y-129362880D01*
X20880205Y-129253743D01*
X20877052Y-129251800D01*
X20707716Y-129143920D01*
X20702288Y-129140257D01*
X20528814Y-129016399D01*
X20525382Y-129013858D01*
X20366086Y-128891626D01*
X20361431Y-128887872D01*
X20198772Y-128750107D01*
X20195155Y-128746921D01*
X20047076Y-128611232D01*
X20043191Y-128607512D01*
X19892486Y-128456807D01*
X19888769Y-128452925D01*
X19753072Y-128304838D01*
X19749891Y-128301226D01*
X19612126Y-128138567D01*
X19608372Y-128133912D01*
X19486140Y-127974616D01*
X19483599Y-127971184D01*
X19359741Y-127797710D01*
X19356078Y-127792282D01*
X19248198Y-127622946D01*
X19246255Y-127619793D01*
X19137118Y-127436636D01*
X19133652Y-127430420D01*
X19040972Y-127252383D01*
X19039561Y-127249587D01*
X19027982Y-127225903D01*
X18945886Y-127057972D01*
X18942752Y-127051024D01*
X18865911Y-126865513D01*
X18865046Y-126863363D01*
X18787431Y-126664453D01*
X18784696Y-126656689D01*
X18724359Y-126465325D01*
X18723850Y-126463665D01*
X18662889Y-126258901D01*
X18660680Y-126250386D01*
X18617312Y-126054765D01*
X18617027Y-126053439D01*
X18611495Y-126027057D01*
X18573153Y-125844192D01*
X18571576Y-125834936D01*
X18551477Y-125682268D01*
X18545490Y-125636793D01*
X18545483Y-125636743D01*
X18518881Y-125423330D01*
X18518052Y-125413455D01*
X18509487Y-125217291D01*
X18500605Y-125002562D01*
X18500500Y-124997439D01*
X18500500Y-70502561D01*
X18500553Y-70500000D01*
X22114341Y-70500000D01*
X22114813Y-70505395D01*
X22128392Y-70660606D01*
X22134937Y-70735408D01*
X22136336Y-70740630D01*
X22136337Y-70740634D01*
X22194694Y-70958430D01*
X22194697Y-70958438D01*
X22196097Y-70963663D01*
X22198385Y-70968570D01*
X22198386Y-70968572D01*
X22250894Y-71081175D01*
X22295965Y-71177829D01*
X22299072Y-71182266D01*
X22299073Y-71182268D01*
X22330927Y-71227760D01*
X22431505Y-71371401D01*
X22598599Y-71538495D01*
X22792171Y-71674035D01*
X23006337Y-71773903D01*
X23234592Y-71835063D01*
X23411034Y-71850500D01*
X23526258Y-71850500D01*
X23528966Y-71850500D01*
X23705408Y-71835063D01*
X23933663Y-71773903D01*
X24147829Y-71674035D01*
X24341401Y-71538495D01*
X24508495Y-71371401D01*
X24644035Y-71177830D01*
X24743903Y-70963663D01*
X24805063Y-70735408D01*
X24825659Y-70500000D01*
X24805063Y-70264592D01*
X24743903Y-70036337D01*
X24644035Y-69822171D01*
X24508495Y-69628599D01*
X24341401Y-69461505D01*
X24147829Y-69325965D01*
X23984063Y-69249599D01*
X23938572Y-69228386D01*
X23938570Y-69228385D01*
X23933663Y-69226097D01*
X23928438Y-69224697D01*
X23928430Y-69224694D01*
X23710634Y-69166337D01*
X23710630Y-69166336D01*
X23705408Y-69164937D01*
X23700020Y-69164465D01*
X23700017Y-69164465D01*
X23531664Y-69149736D01*
X23531662Y-69149735D01*
X23528966Y-69149500D01*
X23411034Y-69149500D01*
X23408338Y-69149735D01*
X23408335Y-69149736D01*
X23239982Y-69164465D01*
X23239977Y-69164465D01*
X23234592Y-69164937D01*
X23229371Y-69166335D01*
X23229365Y-69166337D01*
X23011569Y-69224694D01*
X23011557Y-69224698D01*
X23006337Y-69226097D01*
X23001432Y-69228383D01*
X23001427Y-69228386D01*
X22797081Y-69323675D01*
X22797077Y-69323677D01*
X22792171Y-69325965D01*
X22787738Y-69329068D01*
X22787731Y-69329073D01*
X22603034Y-69458399D01*
X22603029Y-69458402D01*
X22598599Y-69461505D01*
X22594775Y-69465328D01*
X22594769Y-69465334D01*
X22435336Y-69624767D01*
X22435330Y-69624773D01*
X22431505Y-69628599D01*
X22428406Y-69633023D01*
X22428399Y-69633033D01*
X22299066Y-69817740D01*
X22299061Y-69817747D01*
X22295965Y-69822170D01*
X22293683Y-69827061D01*
X22293678Y-69827072D01*
X22198386Y-70031427D01*
X22198383Y-70031432D01*
X22196097Y-70036337D01*
X22194698Y-70041557D01*
X22194694Y-70041569D01*
X22136337Y-70259365D01*
X22136335Y-70259371D01*
X22134937Y-70264592D01*
X22134465Y-70269977D01*
X22134465Y-70269982D01*
X22119377Y-70442438D01*
X22114341Y-70500000D01*
X18500553Y-70500000D01*
X18500606Y-70497437D01*
X18502881Y-70442438D01*
X18509488Y-70282687D01*
X18518052Y-70086540D01*
X18518881Y-70076673D01*
X18545491Y-69863195D01*
X18571578Y-69665045D01*
X18573151Y-69655816D01*
X18617062Y-69446392D01*
X18617297Y-69445302D01*
X18660684Y-69249599D01*
X18662885Y-69241111D01*
X18723875Y-69036253D01*
X18724337Y-69034743D01*
X18784704Y-68843284D01*
X18787423Y-68835565D01*
X18865074Y-68636564D01*
X18865883Y-68634553D01*
X18942762Y-68448951D01*
X18945874Y-68442051D01*
X19039587Y-68250357D01*
X19040945Y-68247667D01*
X19133667Y-68069551D01*
X19137118Y-68063362D01*
X19246295Y-67880139D01*
X19248150Y-67877129D01*
X19356090Y-67707697D01*
X19359721Y-67702316D01*
X19483635Y-67528764D01*
X19486102Y-67525433D01*
X19608401Y-67366048D01*
X19612114Y-67361445D01*
X19749903Y-67198758D01*
X19753027Y-67195211D01*
X19888811Y-67047028D01*
X19892440Y-67043238D01*
X20043238Y-66892440D01*
X20047028Y-66888811D01*
X20195211Y-66753027D01*
X20198758Y-66749903D01*
X20361445Y-66612114D01*
X20366048Y-66608401D01*
X20525433Y-66486102D01*
X20528764Y-66483635D01*
X20702316Y-66359721D01*
X20707697Y-66356090D01*
X20877129Y-66248150D01*
X20880139Y-66246295D01*
X21063373Y-66137111D01*
X21069551Y-66133667D01*
X21247667Y-66040945D01*
X21250357Y-66039587D01*
X21442051Y-65945874D01*
X21448951Y-65942762D01*
X21634553Y-65865883D01*
X21636564Y-65865074D01*
X21835565Y-65787423D01*
X21843284Y-65784704D01*
X22034743Y-65724337D01*
X22036253Y-65723875D01*
X22241111Y-65662885D01*
X22249599Y-65660684D01*
X22445302Y-65617297D01*
X22446392Y-65617062D01*
X22655816Y-65573151D01*
X22665045Y-65571578D01*
X22863195Y-65545491D01*
X23076673Y-65518881D01*
X23086540Y-65518052D01*
X23282628Y-65509490D01*
X23497437Y-65500605D01*
X23502561Y-65500500D01*
X46650279Y-65500500D01*
X46832123Y-73624281D01*
G37*
%TD.AperFunction*%
%TA.AperFunction,Conductor*%
G36*
X46892148Y-76305781D02*
G01*
X46834527Y-76128444D01*
X46739040Y-75963056D01*
X46611253Y-75821134D01*
X46606003Y-75817319D01*
X46605999Y-75817316D01*
X46462006Y-75712699D01*
X46462004Y-75712697D01*
X46456752Y-75708882D01*
X46450821Y-75706241D01*
X46450817Y-75706239D01*
X46288226Y-75633849D01*
X46288219Y-75633846D01*
X46282288Y-75631206D01*
X46275935Y-75629855D01*
X46275927Y-75629853D01*
X46101849Y-75592852D01*
X46101846Y-75592851D01*
X46095487Y-75591500D01*
X45904513Y-75591500D01*
X45898154Y-75592851D01*
X45898150Y-75592852D01*
X45724072Y-75629853D01*
X45724061Y-75629856D01*
X45717712Y-75631206D01*
X45711782Y-75633845D01*
X45711773Y-75633849D01*
X45549182Y-75706239D01*
X45549174Y-75706243D01*
X45543248Y-75708882D01*
X45537999Y-75712695D01*
X45537993Y-75712699D01*
X45394000Y-75817316D01*
X45393991Y-75817323D01*
X45388747Y-75821134D01*
X45384403Y-75825957D01*
X45384400Y-75825961D01*
X45309820Y-75908791D01*
X45260960Y-75963056D01*
X45257714Y-75968676D01*
X45257711Y-75968682D01*
X45168721Y-76122817D01*
X45168718Y-76122822D01*
X45165473Y-76128444D01*
X45163467Y-76134616D01*
X45163465Y-76134622D01*
X45108465Y-76303892D01*
X45108463Y-76303901D01*
X45106458Y-76310072D01*
X45105780Y-76316522D01*
X45105778Y-76316532D01*
X45094805Y-76420945D01*
X45086496Y-76500000D01*
X45087175Y-76506460D01*
X45105778Y-76683467D01*
X45105779Y-76683475D01*
X45106458Y-76689928D01*
X45108463Y-76696100D01*
X45108465Y-76696107D01*
X45149536Y-76822508D01*
X45165473Y-76871556D01*
X45168720Y-76877180D01*
X45168721Y-76877182D01*
X45218113Y-76962732D01*
X45260960Y-77036944D01*
X45325939Y-77109110D01*
X45334650Y-77118785D01*
X45358264Y-77157319D01*
X45366500Y-77201757D01*
X45366500Y-77211538D01*
X45357061Y-77258991D01*
X45330181Y-77299219D01*
X41845181Y-80784219D01*
X41795818Y-80814469D01*
X41738102Y-80819011D01*
X41684615Y-80796856D01*
X41647015Y-80752833D01*
X41633500Y-80696538D01*
X41633500Y-78813766D01*
X41642939Y-78766313D01*
X41669819Y-78726085D01*
X43595040Y-76800864D01*
X45525568Y-74870335D01*
X45566796Y-74843047D01*
X45615411Y-74834037D01*
X45663683Y-74844739D01*
X45717712Y-74868794D01*
X45724070Y-74870145D01*
X45724072Y-74870146D01*
X45724971Y-74870337D01*
X45904513Y-74908500D01*
X46088984Y-74908500D01*
X46095487Y-74908500D01*
X46282288Y-74868794D01*
X46456752Y-74791118D01*
X46611253Y-74678866D01*
X46739040Y-74536944D01*
X46834527Y-74371556D01*
X46847928Y-74330312D01*
X46892148Y-76305781D01*
G37*
%TD.AperFunction*%
%TA.AperFunction,Conductor*%
G36*
X46906893Y-76964501D02*
G01*
X46906896Y-76964671D01*
X46872654Y-76939629D01*
X46846561Y-76883910D01*
X46850462Y-76822511D01*
X46893542Y-76689928D01*
X46899481Y-76633419D01*
X46906893Y-76964501D01*
G37*
%TD.AperFunction*%
%TD*%
%TA.AperFunction,NonConductor*%
G36*
X47783062Y-93688445D02*
G01*
X47827853Y-93729679D01*
X47921470Y-93872972D01*
X47921478Y-93872982D01*
X47924278Y-93877268D01*
X47927752Y-93881041D01*
X47927753Y-93881043D01*
X48073288Y-94039135D01*
X48073291Y-94039138D01*
X48076760Y-94042906D01*
X48115746Y-94073250D01*
X48250376Y-94178039D01*
X48250381Y-94178042D01*
X48254424Y-94181189D01*
X48290930Y-94200945D01*
X48338434Y-94246523D01*
X48355913Y-94309996D01*
X48338438Y-94373470D01*
X48290934Y-94419052D01*
X48267836Y-94431553D01*
X48208815Y-94446500D01*
X45167420Y-94446500D01*
X45113387Y-94434108D01*
X45071426Y-94400432D01*
X45069285Y-94396960D01*
X45064176Y-94391851D01*
X45059699Y-94386189D01*
X45060769Y-94385342D01*
X45032912Y-94337094D01*
X45032912Y-94272906D01*
X45060768Y-94224658D01*
X45059698Y-94223812D01*
X45064173Y-94218151D01*
X45069285Y-94213040D01*
X45159302Y-94067101D01*
X45213236Y-93904336D01*
X45223500Y-93803872D01*
X45223500Y-93797500D01*
X45240113Y-93735500D01*
X45285500Y-93690113D01*
X45347500Y-93673500D01*
X47724044Y-93673500D01*
X47783062Y-93688445D01*
G37*
%TD.AperFunction*%
%TA.AperFunction,NonConductor*%
G36*
X43755616Y-101245112D02*
G01*
X43767041Y-101247477D01*
X43809970Y-101258500D01*
X43830385Y-101258500D01*
X43849783Y-101260027D01*
X43869943Y-101263220D01*
X43908476Y-101259577D01*
X43914058Y-101259050D01*
X43925727Y-101258500D01*
X45339970Y-101258500D01*
X45348393Y-101258500D01*
X45371629Y-101260697D01*
X45372241Y-101260813D01*
X45372242Y-101260813D01*
X45379906Y-101262275D01*
X45436014Y-101258745D01*
X45443801Y-101258500D01*
X45459856Y-101258500D01*
X47701177Y-101258500D01*
X47760194Y-101273445D01*
X47804986Y-101314678D01*
X47921474Y-101492977D01*
X47921477Y-101492981D01*
X47924278Y-101497268D01*
X47927752Y-101501041D01*
X47927753Y-101501043D01*
X48073288Y-101659135D01*
X48073291Y-101659138D01*
X48076760Y-101662906D01*
X48080801Y-101666051D01*
X48250376Y-101798039D01*
X48250381Y-101798042D01*
X48254424Y-101801189D01*
X48258931Y-101803628D01*
X48258934Y-101803630D01*
X48290930Y-101820945D01*
X48338436Y-101866526D01*
X48355913Y-101930000D01*
X48338436Y-101993474D01*
X48290930Y-102039055D01*
X48258934Y-102056369D01*
X48258922Y-102056376D01*
X48254424Y-102058811D01*
X48250389Y-102061951D01*
X48250376Y-102061960D01*
X48080801Y-102193948D01*
X48080795Y-102193952D01*
X48076760Y-102197094D01*
X48073297Y-102200855D01*
X48073288Y-102200864D01*
X47927753Y-102358956D01*
X47927747Y-102358963D01*
X47924278Y-102362732D01*
X47921482Y-102367011D01*
X47921470Y-102367027D01*
X47827853Y-102510321D01*
X47783062Y-102551555D01*
X47724044Y-102566500D01*
X45460030Y-102566500D01*
X45451607Y-102566500D01*
X45428371Y-102564303D01*
X45427758Y-102564186D01*
X45427750Y-102564185D01*
X45420094Y-102562725D01*
X45412315Y-102563214D01*
X45412310Y-102563214D01*
X45363985Y-102566255D01*
X45356199Y-102566500D01*
X44778766Y-102566500D01*
X44731313Y-102557061D01*
X44691085Y-102530181D01*
X43610080Y-101449175D01*
X43578685Y-101396089D01*
X43576747Y-101334444D01*
X43604747Y-101279492D01*
X43655757Y-101244825D01*
X43717158Y-101239021D01*
X43755616Y-101245112D01*
G37*
%TD.AperFunction*%
%TA.AperFunction,Conductor*%
%TO.N,GND*%
G36*
X56919916Y-113422460D02*
G01*
X56916496Y-113455000D01*
X56917175Y-113461460D01*
X56935778Y-113638467D01*
X56935779Y-113638475D01*
X56936458Y-113644928D01*
X56938463Y-113651100D01*
X56938465Y-113651107D01*
X56989892Y-113809380D01*
X56995473Y-113826556D01*
X56998720Y-113832180D01*
X56998721Y-113832182D01*
X57000306Y-113834928D01*
X57090960Y-113991944D01*
X57218747Y-114133866D01*
X57223997Y-114137680D01*
X57224000Y-114137683D01*
X57291564Y-114186771D01*
X57373248Y-114246118D01*
X57379181Y-114248759D01*
X57379182Y-114248760D01*
X57537029Y-114319038D01*
X57547712Y-114323794D01*
X57554070Y-114325145D01*
X57554072Y-114325146D01*
X57566008Y-114327683D01*
X57734513Y-114363500D01*
X57918984Y-114363500D01*
X57925487Y-114363500D01*
X58112288Y-114323794D01*
X58246094Y-114264219D01*
X58296529Y-114253500D01*
X62606686Y-114253500D01*
X62669465Y-114270567D01*
X62714964Y-114317069D01*
X62730656Y-114380205D01*
X62712224Y-114442597D01*
X62627246Y-114580366D01*
X62621180Y-114593374D01*
X62572272Y-114740969D01*
X62569456Y-114754125D01*
X62560319Y-114843555D01*
X62560000Y-114849832D01*
X62560000Y-114878674D01*
X62563450Y-114891549D01*
X62576326Y-114895000D01*
X63636000Y-114895000D01*
X63698000Y-114911613D01*
X63743387Y-114957000D01*
X63760000Y-115019000D01*
X63760000Y-116103673D01*
X63763450Y-116116548D01*
X63776326Y-116119999D01*
X63780165Y-116119999D01*
X63786447Y-116119678D01*
X63875867Y-116110544D01*
X63889036Y-116107725D01*
X64036625Y-116058819D01*
X64049633Y-116052753D01*
X64181580Y-115971367D01*
X64198504Y-115957986D01*
X64199511Y-115959260D01*
X64246896Y-115931902D01*
X64311084Y-115931902D01*
X64366671Y-115963996D01*
X64376960Y-115974285D01*
X64522899Y-116064302D01*
X64685664Y-116118236D01*
X64786128Y-116128500D01*
X65330725Y-116128500D01*
X65333872Y-116128500D01*
X65434336Y-116118236D01*
X65597101Y-116064302D01*
X65743040Y-115974285D01*
X65864285Y-115853040D01*
X65872936Y-115839012D01*
X65907546Y-115802397D01*
X65953871Y-115782573D01*
X66004254Y-115782816D01*
X66054513Y-115793500D01*
X66238984Y-115793500D01*
X66245487Y-115793500D01*
X66432288Y-115753794D01*
X66606752Y-115676118D01*
X66672053Y-115628674D01*
X82175000Y-115628674D01*
X82178450Y-115641549D01*
X82191326Y-115645000D01*
X82858674Y-115645000D01*
X82871549Y-115641549D01*
X82875000Y-115628674D01*
X82875000Y-114936327D01*
X82871549Y-114923451D01*
X82858674Y-114920001D01*
X82854835Y-114920001D01*
X82848552Y-114920321D01*
X82759132Y-114929455D01*
X82745963Y-114932274D01*
X82598374Y-114981180D01*
X82585366Y-114987246D01*
X82453419Y-115068632D01*
X82442157Y-115077537D01*
X82332537Y-115187157D01*
X82323632Y-115198419D01*
X82242246Y-115330366D01*
X82236180Y-115343374D01*
X82187272Y-115490969D01*
X82184456Y-115504125D01*
X82175319Y-115593555D01*
X82175000Y-115599832D01*
X82175000Y-115628674D01*
X66672053Y-115628674D01*
X66761253Y-115563866D01*
X66889040Y-115421944D01*
X66984527Y-115256556D01*
X67043542Y-115074928D01*
X67063504Y-114885000D01*
X67050241Y-114758811D01*
X67044221Y-114701532D01*
X67044220Y-114701531D01*
X67043542Y-114695072D01*
X66984527Y-114513444D01*
X66941834Y-114439498D01*
X66925222Y-114377500D01*
X66941835Y-114315500D01*
X66987222Y-114270113D01*
X67049222Y-114253500D01*
X68520181Y-114253500D01*
X68570616Y-114264220D01*
X68612330Y-114294527D01*
X68638747Y-114323866D01*
X68643997Y-114327680D01*
X68644000Y-114327683D01*
X68738467Y-114396317D01*
X68793248Y-114436118D01*
X68799181Y-114438759D01*
X68799182Y-114438760D01*
X68944887Y-114503632D01*
X68967712Y-114513794D01*
X68974070Y-114515145D01*
X68974072Y-114515146D01*
X69010874Y-114522968D01*
X69154513Y-114553500D01*
X69338984Y-114553500D01*
X69345487Y-114553500D01*
X69532288Y-114513794D01*
X69706752Y-114436118D01*
X69861253Y-114323866D01*
X69989040Y-114181944D01*
X70084527Y-114016556D01*
X70143542Y-113834928D01*
X70163504Y-113645000D01*
X70154508Y-113559412D01*
X70166555Y-113491735D01*
X70212802Y-113440871D01*
X70279028Y-113422460D01*
X76987885Y-113487691D01*
X77043770Y-113501612D01*
X77087342Y-113539286D01*
X77109192Y-113592581D01*
X77104604Y-113649999D01*
X77098466Y-113668891D01*
X77096458Y-113675072D01*
X77095780Y-113681522D01*
X77095778Y-113681532D01*
X77077778Y-113852795D01*
X77076496Y-113865000D01*
X77077175Y-113871460D01*
X77095778Y-114048467D01*
X77095779Y-114048475D01*
X77096458Y-114054928D01*
X77098463Y-114061100D01*
X77098465Y-114061107D01*
X77141313Y-114192977D01*
X77155473Y-114236556D01*
X77158720Y-114242180D01*
X77158721Y-114242182D01*
X77219847Y-114348056D01*
X77250960Y-114401944D01*
X77378747Y-114543866D01*
X77383997Y-114547680D01*
X77384000Y-114547683D01*
X77467490Y-114608342D01*
X77533248Y-114656118D01*
X77539181Y-114658759D01*
X77539182Y-114658760D01*
X77665499Y-114715000D01*
X77707712Y-114733794D01*
X77714070Y-114735145D01*
X77714072Y-114735146D01*
X77750874Y-114742968D01*
X77894513Y-114773500D01*
X78078984Y-114773500D01*
X78085487Y-114773500D01*
X78272288Y-114733794D01*
X78446752Y-114656118D01*
X78601253Y-114543866D01*
X78729040Y-114401944D01*
X78824527Y-114236556D01*
X78883542Y-114054928D01*
X78903504Y-113865000D01*
X78883542Y-113675072D01*
X78881534Y-113668891D01*
X78880183Y-113662534D01*
X78881195Y-113662318D01*
X78877261Y-113611565D01*
X78899723Y-113557887D01*
X78944198Y-113520365D01*
X79000886Y-113507264D01*
X84588185Y-113561590D01*
X84646073Y-113576573D01*
X84690221Y-113616911D01*
X84710355Y-113673221D01*
X84701793Y-113732406D01*
X84666525Y-113780701D01*
X84612755Y-113806873D01*
X84434071Y-113844854D01*
X84434067Y-113844854D01*
X84427712Y-113846206D01*
X84421782Y-113848845D01*
X84421773Y-113848849D01*
X84259182Y-113921239D01*
X84259174Y-113921243D01*
X84253248Y-113923882D01*
X84247999Y-113927695D01*
X84247993Y-113927699D01*
X84104000Y-114032316D01*
X84103991Y-114032323D01*
X84098747Y-114036134D01*
X84094403Y-114040957D01*
X84094400Y-114040961D01*
X84007312Y-114137683D01*
X83970960Y-114178056D01*
X83967714Y-114183676D01*
X83967711Y-114183682D01*
X83878721Y-114337817D01*
X83878718Y-114337822D01*
X83875473Y-114343444D01*
X83873467Y-114349616D01*
X83873465Y-114349622D01*
X83818465Y-114518892D01*
X83818463Y-114518901D01*
X83816458Y-114525072D01*
X83815780Y-114531522D01*
X83815778Y-114531532D01*
X83801751Y-114665000D01*
X83796496Y-114715000D01*
X83797175Y-114721460D01*
X83810623Y-114849411D01*
X83801794Y-114909991D01*
X83765057Y-114958965D01*
X83709367Y-114984393D01*
X83648299Y-114980078D01*
X83504030Y-114932272D01*
X83490874Y-114929456D01*
X83401444Y-114920319D01*
X83395168Y-114920000D01*
X83391326Y-114920000D01*
X83378450Y-114923450D01*
X83375000Y-114936326D01*
X83375000Y-116853673D01*
X83378450Y-116866548D01*
X83391326Y-116869999D01*
X83395165Y-116869999D01*
X83401447Y-116869678D01*
X83490867Y-116860544D01*
X83504036Y-116857725D01*
X83651625Y-116808819D01*
X83664633Y-116802753D01*
X83796580Y-116721367D01*
X83813504Y-116707986D01*
X83814511Y-116709260D01*
X83861896Y-116681902D01*
X83926084Y-116681902D01*
X83981670Y-116713995D01*
X83991960Y-116724285D01*
X84137899Y-116814302D01*
X84300664Y-116868236D01*
X84401128Y-116878500D01*
X84945725Y-116878500D01*
X84948872Y-116878500D01*
X85049336Y-116868236D01*
X85212101Y-116814302D01*
X85358040Y-116724285D01*
X85479285Y-116603040D01*
X85569302Y-116457101D01*
X85623236Y-116294336D01*
X85633500Y-116193872D01*
X85633500Y-115596128D01*
X85623236Y-115495664D01*
X85569302Y-115332899D01*
X85521897Y-115256045D01*
X85503449Y-115192751D01*
X85520049Y-115128951D01*
X85544527Y-115086556D01*
X85603542Y-114904928D01*
X85623504Y-114715000D01*
X85606388Y-114552147D01*
X85604221Y-114531532D01*
X85604220Y-114531531D01*
X85603542Y-114525072D01*
X85544527Y-114343444D01*
X85449040Y-114178056D01*
X85321253Y-114036134D01*
X85316003Y-114032319D01*
X85315999Y-114032316D01*
X85172006Y-113927699D01*
X85172004Y-113927697D01*
X85166752Y-113923882D01*
X85160821Y-113921241D01*
X85160817Y-113921239D01*
X84998226Y-113848849D01*
X84998219Y-113848846D01*
X84992288Y-113846206D01*
X84985929Y-113844854D01*
X84985928Y-113844854D01*
X84819038Y-113809380D01*
X84764960Y-113782950D01*
X84729699Y-113734168D01*
X84721564Y-113674529D01*
X84742471Y-113618085D01*
X84787495Y-113578136D01*
X84846019Y-113564097D01*
X98745822Y-113699246D01*
X98972215Y-129999500D01*
X24580443Y-129999500D01*
X24651381Y-126108248D01*
X64615749Y-126108248D01*
X64623855Y-126119439D01*
X64652717Y-126141903D01*
X64661279Y-126147496D01*
X64870885Y-126260929D01*
X64880239Y-126265032D01*
X65105656Y-126342417D01*
X65115568Y-126344928D01*
X65350643Y-126384155D01*
X65360839Y-126385000D01*
X65534930Y-126385000D01*
X65598404Y-126402477D01*
X65643985Y-126449982D01*
X65658824Y-126514124D01*
X65638739Y-126576821D01*
X65543945Y-126721914D01*
X65543942Y-126721920D01*
X65541140Y-126726209D01*
X65539085Y-126730892D01*
X65539080Y-126730903D01*
X65452764Y-126927687D01*
X65450704Y-126932384D01*
X65449446Y-126937349D01*
X65449445Y-126937354D01*
X65396695Y-127145657D01*
X65396693Y-127145666D01*
X65395436Y-127150632D01*
X65395012Y-127155741D01*
X65395011Y-127155751D01*
X65377268Y-127369883D01*
X65376844Y-127375000D01*
X65377268Y-127380117D01*
X65395011Y-127594248D01*
X65395012Y-127594256D01*
X65395436Y-127599368D01*
X65396693Y-127604335D01*
X65396695Y-127604342D01*
X65445663Y-127797710D01*
X65450704Y-127817616D01*
X65452764Y-127822312D01*
X65539080Y-128019096D01*
X65539083Y-128019101D01*
X65541140Y-128023791D01*
X65571824Y-128070756D01*
X65661474Y-128207977D01*
X65661477Y-128207981D01*
X65664278Y-128212268D01*
X65667752Y-128216041D01*
X65667753Y-128216043D01*
X65813288Y-128374135D01*
X65813291Y-128374138D01*
X65816760Y-128377906D01*
X65820801Y-128381051D01*
X65990376Y-128513039D01*
X65990381Y-128513042D01*
X65994424Y-128516189D01*
X65998931Y-128518628D01*
X65998934Y-128518630D01*
X66170089Y-128611254D01*
X66192426Y-128623342D01*
X66405365Y-128696444D01*
X66627431Y-128733500D01*
X66847436Y-128733500D01*
X66852569Y-128733500D01*
X67074635Y-128696444D01*
X67287574Y-128623342D01*
X67442309Y-128539604D01*
X70472316Y-128539604D01*
X70479747Y-128547713D01*
X70547991Y-128595498D01*
X70557323Y-128600886D01*
X70761602Y-128696143D01*
X70771736Y-128699831D01*
X70989446Y-128758166D01*
X71000077Y-128760041D01*
X71224605Y-128779685D01*
X71235395Y-128779685D01*
X71459922Y-128760041D01*
X71470553Y-128758166D01*
X71688263Y-128699831D01*
X71698397Y-128696143D01*
X71902671Y-128600888D01*
X71912016Y-128595492D01*
X71980248Y-128547715D01*
X71987681Y-128539603D01*
X71981768Y-128530321D01*
X71241542Y-127790095D01*
X71230000Y-127783431D01*
X71218457Y-127790095D01*
X70478230Y-128530321D01*
X70472316Y-128539604D01*
X67442309Y-128539604D01*
X67485576Y-128516189D01*
X67663240Y-128377906D01*
X67815722Y-128212268D01*
X67938860Y-128023791D01*
X68029296Y-127817616D01*
X68084564Y-127599368D01*
X68098566Y-127430395D01*
X69875315Y-127430395D01*
X69894958Y-127654922D01*
X69896833Y-127665553D01*
X69955168Y-127883263D01*
X69958856Y-127893397D01*
X70054110Y-128097668D01*
X70059508Y-128107018D01*
X70107284Y-128175249D01*
X70115395Y-128182682D01*
X70124674Y-128176771D01*
X70864904Y-127436542D01*
X70871568Y-127424999D01*
X70864904Y-127413457D01*
X70124674Y-126673227D01*
X70115396Y-126667316D01*
X70107283Y-126674750D01*
X70059505Y-126742986D01*
X70054111Y-126752330D01*
X69958856Y-126956602D01*
X69955168Y-126966736D01*
X69896833Y-127184446D01*
X69894958Y-127195077D01*
X69875315Y-127419605D01*
X69875315Y-127430395D01*
X68098566Y-127430395D01*
X68103156Y-127375000D01*
X68084564Y-127150632D01*
X68029296Y-126932384D01*
X67938860Y-126726209D01*
X67815722Y-126537732D01*
X67663240Y-126372094D01*
X67628338Y-126344928D01*
X67583972Y-126310396D01*
X70472316Y-126310396D01*
X70478227Y-126319674D01*
X72335321Y-128176768D01*
X72344603Y-128182681D01*
X72352715Y-128175248D01*
X72400492Y-128107016D01*
X72405888Y-128097671D01*
X72501143Y-127893397D01*
X72504831Y-127883263D01*
X72563166Y-127665553D01*
X72565041Y-127654922D01*
X72584685Y-127430395D01*
X72584685Y-127419605D01*
X72565041Y-127195077D01*
X72563166Y-127184446D01*
X72504831Y-126966736D01*
X72501143Y-126956602D01*
X72405889Y-126752332D01*
X72400491Y-126742982D01*
X72286456Y-126580123D01*
X72264296Y-126517110D01*
X72278042Y-126451743D01*
X72323703Y-126402991D01*
X72388031Y-126385000D01*
X72609161Y-126385000D01*
X72619356Y-126384155D01*
X72854431Y-126344928D01*
X72864343Y-126342417D01*
X73089760Y-126265032D01*
X73099114Y-126260929D01*
X73308723Y-126147495D01*
X73317281Y-126141903D01*
X73346146Y-126119437D01*
X73354250Y-126108250D01*
X73354249Y-126108248D01*
X85185749Y-126108248D01*
X85193855Y-126119439D01*
X85222717Y-126141903D01*
X85231279Y-126147496D01*
X85440885Y-126260929D01*
X85450239Y-126265032D01*
X85675656Y-126342417D01*
X85685568Y-126344928D01*
X85920643Y-126384155D01*
X85930839Y-126385000D01*
X86104930Y-126385000D01*
X86168404Y-126402477D01*
X86213985Y-126449982D01*
X86228824Y-126514124D01*
X86208739Y-126576821D01*
X86113945Y-126721914D01*
X86113942Y-126721920D01*
X86111140Y-126726209D01*
X86109085Y-126730892D01*
X86109080Y-126730903D01*
X86022764Y-126927687D01*
X86020704Y-126932384D01*
X86019446Y-126937349D01*
X86019445Y-126937354D01*
X85966695Y-127145657D01*
X85966693Y-127145666D01*
X85965436Y-127150632D01*
X85965012Y-127155741D01*
X85965011Y-127155751D01*
X85947268Y-127369883D01*
X85946844Y-127375000D01*
X85947268Y-127380117D01*
X85965011Y-127594248D01*
X85965012Y-127594256D01*
X85965436Y-127599368D01*
X85966693Y-127604335D01*
X85966695Y-127604342D01*
X86015663Y-127797710D01*
X86020704Y-127817616D01*
X86022764Y-127822312D01*
X86109080Y-128019096D01*
X86109083Y-128019101D01*
X86111140Y-128023791D01*
X86141824Y-128070756D01*
X86231474Y-128207977D01*
X86231477Y-128207981D01*
X86234278Y-128212268D01*
X86237752Y-128216041D01*
X86237753Y-128216043D01*
X86383288Y-128374135D01*
X86383291Y-128374138D01*
X86386760Y-128377906D01*
X86390801Y-128381051D01*
X86560376Y-128513039D01*
X86560381Y-128513042D01*
X86564424Y-128516189D01*
X86568931Y-128518628D01*
X86568934Y-128518630D01*
X86740089Y-128611254D01*
X86762426Y-128623342D01*
X86975365Y-128696444D01*
X87197431Y-128733500D01*
X87417436Y-128733500D01*
X87422569Y-128733500D01*
X87644635Y-128696444D01*
X87857574Y-128623342D01*
X88012309Y-128539604D01*
X91042316Y-128539604D01*
X91049747Y-128547713D01*
X91117991Y-128595498D01*
X91127323Y-128600886D01*
X91331602Y-128696143D01*
X91341736Y-128699831D01*
X91559446Y-128758166D01*
X91570077Y-128760041D01*
X91794605Y-128779685D01*
X91805395Y-128779685D01*
X92029922Y-128760041D01*
X92040553Y-128758166D01*
X92258263Y-128699831D01*
X92268397Y-128696143D01*
X92472671Y-128600888D01*
X92482016Y-128595492D01*
X92550248Y-128547715D01*
X92557681Y-128539603D01*
X92551768Y-128530321D01*
X91811542Y-127790095D01*
X91800000Y-127783431D01*
X91788457Y-127790095D01*
X91048230Y-128530321D01*
X91042316Y-128539604D01*
X88012309Y-128539604D01*
X88055576Y-128516189D01*
X88233240Y-128377906D01*
X88385722Y-128212268D01*
X88508860Y-128023791D01*
X88599296Y-127817616D01*
X88654564Y-127599368D01*
X88668566Y-127430395D01*
X90445315Y-127430395D01*
X90464958Y-127654922D01*
X90466833Y-127665553D01*
X90525168Y-127883263D01*
X90528856Y-127893397D01*
X90624110Y-128097668D01*
X90629508Y-128107018D01*
X90677284Y-128175249D01*
X90685395Y-128182682D01*
X90694674Y-128176771D01*
X91434904Y-127436542D01*
X91441568Y-127424999D01*
X91434904Y-127413457D01*
X90694674Y-126673227D01*
X90685396Y-126667316D01*
X90677283Y-126674750D01*
X90629505Y-126742986D01*
X90624111Y-126752330D01*
X90528856Y-126956602D01*
X90525168Y-126966736D01*
X90466833Y-127184446D01*
X90464958Y-127195077D01*
X90445315Y-127419605D01*
X90445315Y-127430395D01*
X88668566Y-127430395D01*
X88673156Y-127375000D01*
X88654564Y-127150632D01*
X88599296Y-126932384D01*
X88508860Y-126726209D01*
X88385722Y-126537732D01*
X88233240Y-126372094D01*
X88198338Y-126344928D01*
X88153972Y-126310396D01*
X91042316Y-126310396D01*
X91048227Y-126319674D01*
X92905321Y-128176768D01*
X92914603Y-128182681D01*
X92922715Y-128175248D01*
X92970492Y-128107016D01*
X92975888Y-128097671D01*
X93071143Y-127893397D01*
X93074831Y-127883263D01*
X93133166Y-127665553D01*
X93135041Y-127654922D01*
X93154685Y-127430395D01*
X93154685Y-127419605D01*
X93135041Y-127195077D01*
X93133166Y-127184446D01*
X93074831Y-126966736D01*
X93071143Y-126956602D01*
X92975889Y-126752332D01*
X92970491Y-126742982D01*
X92856456Y-126580123D01*
X92834296Y-126517110D01*
X92848042Y-126451743D01*
X92893703Y-126402991D01*
X92958031Y-126385000D01*
X93179161Y-126385000D01*
X93189356Y-126384155D01*
X93424431Y-126344928D01*
X93434343Y-126342417D01*
X93659760Y-126265032D01*
X93669114Y-126260929D01*
X93878723Y-126147495D01*
X93887281Y-126141903D01*
X93916146Y-126119437D01*
X93924250Y-126108250D01*
X93917589Y-126096142D01*
X92706446Y-124884999D01*
X93418431Y-124884999D01*
X93425095Y-124896542D01*
X94273653Y-125745100D01*
X94283034Y-125751024D01*
X94291002Y-125743299D01*
X94380924Y-125605664D01*
X94385792Y-125596669D01*
X94481527Y-125378414D01*
X94484846Y-125368747D01*
X94543353Y-125137712D01*
X94545037Y-125127618D01*
X94564717Y-124890117D01*
X94564717Y-124879883D01*
X94545037Y-124642381D01*
X94543353Y-124632287D01*
X94484846Y-124401252D01*
X94481527Y-124391585D01*
X94385792Y-124173330D01*
X94380924Y-124164335D01*
X94291002Y-124026699D01*
X94283034Y-124018974D01*
X94273653Y-124024898D01*
X93425095Y-124873457D01*
X93418431Y-124884999D01*
X92706446Y-124884999D01*
X91846345Y-124024898D01*
X91836964Y-124018974D01*
X91828997Y-124026699D01*
X91739072Y-124164338D01*
X91734207Y-124173328D01*
X91638472Y-124391585D01*
X91635153Y-124401252D01*
X91576646Y-124632287D01*
X91574962Y-124642381D01*
X91555283Y-124879883D01*
X91555283Y-124890117D01*
X91574962Y-125127618D01*
X91576646Y-125137712D01*
X91635153Y-125368747D01*
X91638472Y-125378414D01*
X91734207Y-125596671D01*
X91739072Y-125605661D01*
X91869424Y-125805179D01*
X91875707Y-125813252D01*
X91922539Y-125864124D01*
X91951025Y-125915793D01*
X91952408Y-125974777D01*
X91926375Y-126027724D01*
X91878819Y-126062646D01*
X91820507Y-126071637D01*
X91805390Y-126070315D01*
X91794605Y-126070315D01*
X91570077Y-126089958D01*
X91559446Y-126091833D01*
X91341736Y-126150168D01*
X91331602Y-126153856D01*
X91127330Y-126249111D01*
X91117986Y-126254505D01*
X91049750Y-126302283D01*
X91042316Y-126310396D01*
X88153972Y-126310396D01*
X88059623Y-126236960D01*
X88059615Y-126236955D01*
X88055576Y-126233811D01*
X88051071Y-126231373D01*
X88051065Y-126231369D01*
X87862080Y-126129096D01*
X87862074Y-126129093D01*
X87857574Y-126126658D01*
X87852733Y-126124996D01*
X87852726Y-126124993D01*
X87649488Y-126055222D01*
X87649487Y-126055221D01*
X87644635Y-126053556D01*
X87639585Y-126052713D01*
X87639576Y-126052711D01*
X87427631Y-126017344D01*
X87427622Y-126017343D01*
X87422569Y-126016500D01*
X87329745Y-126016500D01*
X87264084Y-125997688D01*
X87218345Y-125946961D01*
X87206406Y-125879709D01*
X87231891Y-125816338D01*
X87240574Y-125805180D01*
X87370927Y-125605661D01*
X87375792Y-125596671D01*
X87471527Y-125378414D01*
X87474846Y-125368747D01*
X87533353Y-125137712D01*
X87535037Y-125127618D01*
X87554717Y-124890117D01*
X87554717Y-124879883D01*
X87535037Y-124642381D01*
X87533353Y-124632287D01*
X87474846Y-124401252D01*
X87471527Y-124391585D01*
X87375792Y-124173330D01*
X87370924Y-124164335D01*
X87281002Y-124026699D01*
X87273034Y-124018974D01*
X87263653Y-124024898D01*
X86050000Y-125238553D01*
X85192408Y-126096143D01*
X85185749Y-126108248D01*
X73354249Y-126108248D01*
X73347589Y-126096142D01*
X72136446Y-124884999D01*
X72848431Y-124884999D01*
X72855095Y-124896542D01*
X73703653Y-125745100D01*
X73713034Y-125751024D01*
X73721002Y-125743299D01*
X73810924Y-125605664D01*
X73815792Y-125596669D01*
X73911527Y-125378414D01*
X73914846Y-125368747D01*
X73973353Y-125137712D01*
X73975037Y-125127618D01*
X73994717Y-124890117D01*
X84545283Y-124890117D01*
X84564962Y-125127618D01*
X84566646Y-125137712D01*
X84625153Y-125368747D01*
X84628472Y-125378414D01*
X84724208Y-125596673D01*
X84729070Y-125605656D01*
X84818999Y-125743304D01*
X84826963Y-125751024D01*
X84836345Y-125745100D01*
X85684904Y-124896542D01*
X85691568Y-124884999D01*
X85684904Y-124873457D01*
X84836345Y-124024898D01*
X84826964Y-124018974D01*
X84818997Y-124026699D01*
X84729072Y-124164338D01*
X84724207Y-124173328D01*
X84628472Y-124391585D01*
X84625153Y-124401252D01*
X84566646Y-124632287D01*
X84564962Y-124642381D01*
X84545283Y-124879883D01*
X84545283Y-124890117D01*
X73994717Y-124890117D01*
X73994717Y-124879883D01*
X73975037Y-124642381D01*
X73973353Y-124632287D01*
X73914846Y-124401252D01*
X73911527Y-124391585D01*
X73815792Y-124173330D01*
X73810924Y-124164335D01*
X73721002Y-124026699D01*
X73713034Y-124018974D01*
X73703653Y-124024898D01*
X72855095Y-124873457D01*
X72848431Y-124884999D01*
X72136446Y-124884999D01*
X71276345Y-124024898D01*
X71266964Y-124018974D01*
X71258997Y-124026699D01*
X71169072Y-124164338D01*
X71164207Y-124173328D01*
X71068472Y-124391585D01*
X71065153Y-124401252D01*
X71006646Y-124632287D01*
X71004962Y-124642381D01*
X70985283Y-124879883D01*
X70985283Y-124890117D01*
X71004962Y-125127618D01*
X71006646Y-125137712D01*
X71065153Y-125368747D01*
X71068472Y-125378414D01*
X71164207Y-125596671D01*
X71169072Y-125605661D01*
X71299424Y-125805179D01*
X71305707Y-125813252D01*
X71352539Y-125864124D01*
X71381025Y-125915793D01*
X71382408Y-125974777D01*
X71356375Y-126027724D01*
X71308819Y-126062646D01*
X71250507Y-126071637D01*
X71235390Y-126070315D01*
X71224605Y-126070315D01*
X71000077Y-126089958D01*
X70989446Y-126091833D01*
X70771736Y-126150168D01*
X70761602Y-126153856D01*
X70557330Y-126249111D01*
X70547986Y-126254505D01*
X70479750Y-126302283D01*
X70472316Y-126310396D01*
X67583972Y-126310396D01*
X67489623Y-126236960D01*
X67489615Y-126236955D01*
X67485576Y-126233811D01*
X67481071Y-126231373D01*
X67481065Y-126231369D01*
X67292080Y-126129096D01*
X67292074Y-126129093D01*
X67287574Y-126126658D01*
X67282733Y-126124996D01*
X67282726Y-126124993D01*
X67079488Y-126055222D01*
X67079487Y-126055221D01*
X67074635Y-126053556D01*
X67069585Y-126052713D01*
X67069576Y-126052711D01*
X66857631Y-126017344D01*
X66857622Y-126017343D01*
X66852569Y-126016500D01*
X66759745Y-126016500D01*
X66694084Y-125997688D01*
X66648345Y-125946961D01*
X66636406Y-125879709D01*
X66661891Y-125816338D01*
X66670574Y-125805180D01*
X66800927Y-125605661D01*
X66805792Y-125596671D01*
X66901527Y-125378414D01*
X66904846Y-125368747D01*
X66963353Y-125137712D01*
X66965037Y-125127618D01*
X66984717Y-124890117D01*
X66984717Y-124879883D01*
X66965037Y-124642381D01*
X66963353Y-124632287D01*
X66904846Y-124401252D01*
X66901527Y-124391585D01*
X66805792Y-124173330D01*
X66800924Y-124164335D01*
X66711002Y-124026699D01*
X66703034Y-124018974D01*
X66693653Y-124024898D01*
X65480000Y-125238553D01*
X64622408Y-126096143D01*
X64615749Y-126108248D01*
X24651381Y-126108248D01*
X24659846Y-125643921D01*
X24743903Y-125463663D01*
X24805063Y-125235408D01*
X24825659Y-125000000D01*
X24816045Y-124890117D01*
X63975283Y-124890117D01*
X63994962Y-125127618D01*
X63996646Y-125137712D01*
X64055153Y-125368747D01*
X64058472Y-125378414D01*
X64154208Y-125596673D01*
X64159070Y-125605656D01*
X64248999Y-125743304D01*
X64256963Y-125751024D01*
X64266345Y-125745100D01*
X65114904Y-124896542D01*
X65121568Y-124884999D01*
X65114904Y-124873457D01*
X64266345Y-124024898D01*
X64256964Y-124018974D01*
X64248997Y-124026699D01*
X64159072Y-124164338D01*
X64154207Y-124173328D01*
X64058472Y-124391585D01*
X64055153Y-124401252D01*
X63996646Y-124632287D01*
X63994962Y-124642381D01*
X63975283Y-124879883D01*
X63975283Y-124890117D01*
X24816045Y-124890117D01*
X24805063Y-124764592D01*
X24743903Y-124536337D01*
X24682442Y-124404534D01*
X24695983Y-123661749D01*
X64615748Y-123661749D01*
X64622408Y-123673855D01*
X65468457Y-124519904D01*
X65479999Y-124526568D01*
X65491542Y-124519904D01*
X66337590Y-123673855D01*
X66344250Y-123661749D01*
X71625748Y-123661749D01*
X71632408Y-123673855D01*
X72478457Y-124519904D01*
X72489999Y-124526568D01*
X72501542Y-124519904D01*
X73347590Y-123673855D01*
X73354250Y-123661749D01*
X85185748Y-123661749D01*
X85192408Y-123673855D01*
X86038457Y-124519904D01*
X86049999Y-124526568D01*
X86061542Y-124519904D01*
X86907590Y-123673855D01*
X86914250Y-123661749D01*
X92195748Y-123661749D01*
X92202408Y-123673855D01*
X93048457Y-124519904D01*
X93059999Y-124526568D01*
X93071542Y-124519904D01*
X93917590Y-123673855D01*
X93924250Y-123661749D01*
X93916143Y-123650559D01*
X93887286Y-123628099D01*
X93878719Y-123622503D01*
X93669114Y-123509070D01*
X93659760Y-123504967D01*
X93434343Y-123427582D01*
X93424431Y-123425071D01*
X93189356Y-123385844D01*
X93179161Y-123385000D01*
X92940839Y-123385000D01*
X92930643Y-123385844D01*
X92695568Y-123425071D01*
X92685656Y-123427582D01*
X92460239Y-123504967D01*
X92450885Y-123509070D01*
X92241276Y-123622504D01*
X92232717Y-123628096D01*
X92203854Y-123650560D01*
X92195748Y-123661749D01*
X86914250Y-123661749D01*
X86906143Y-123650559D01*
X86877286Y-123628099D01*
X86868719Y-123622503D01*
X86659114Y-123509070D01*
X86649760Y-123504967D01*
X86424343Y-123427582D01*
X86414431Y-123425071D01*
X86179356Y-123385844D01*
X86169161Y-123385000D01*
X85930839Y-123385000D01*
X85920643Y-123385844D01*
X85685568Y-123425071D01*
X85675656Y-123427582D01*
X85450239Y-123504967D01*
X85440885Y-123509070D01*
X85231276Y-123622504D01*
X85222717Y-123628096D01*
X85193854Y-123650560D01*
X85185748Y-123661749D01*
X73354250Y-123661749D01*
X73346143Y-123650559D01*
X73317286Y-123628099D01*
X73308719Y-123622503D01*
X73099114Y-123509070D01*
X73089760Y-123504967D01*
X72864343Y-123427582D01*
X72854431Y-123425071D01*
X72619356Y-123385844D01*
X72609161Y-123385000D01*
X72370839Y-123385000D01*
X72360643Y-123385844D01*
X72125568Y-123425071D01*
X72115656Y-123427582D01*
X71890239Y-123504967D01*
X71880885Y-123509070D01*
X71671276Y-123622504D01*
X71662717Y-123628096D01*
X71633854Y-123650560D01*
X71625748Y-123661749D01*
X66344250Y-123661749D01*
X66336143Y-123650559D01*
X66307286Y-123628099D01*
X66298719Y-123622503D01*
X66089114Y-123509070D01*
X66079760Y-123504967D01*
X65854343Y-123427582D01*
X65844431Y-123425071D01*
X65609356Y-123385844D01*
X65599161Y-123385000D01*
X65360839Y-123385000D01*
X65350643Y-123385844D01*
X65115568Y-123425071D01*
X65105656Y-123427582D01*
X64880239Y-123504967D01*
X64870885Y-123509070D01*
X64661276Y-123622504D01*
X64652717Y-123628096D01*
X64623854Y-123650560D01*
X64615748Y-123661749D01*
X24695983Y-123661749D01*
X24860000Y-114665000D01*
X30383956Y-114430774D01*
X30390822Y-114436118D01*
X30470376Y-114498039D01*
X30470381Y-114498042D01*
X30474424Y-114501189D01*
X30478931Y-114503628D01*
X30478934Y-114503630D01*
X30510930Y-114520945D01*
X30558436Y-114566526D01*
X30575913Y-114630000D01*
X30558436Y-114693474D01*
X30510930Y-114739055D01*
X30478934Y-114756369D01*
X30478922Y-114756376D01*
X30474424Y-114758811D01*
X30470389Y-114761951D01*
X30470376Y-114761960D01*
X30300801Y-114893948D01*
X30300795Y-114893952D01*
X30296760Y-114897094D01*
X30293297Y-114900855D01*
X30293288Y-114900864D01*
X30147753Y-115058956D01*
X30147747Y-115058963D01*
X30144278Y-115062732D01*
X30141481Y-115067012D01*
X30141474Y-115067022D01*
X30023942Y-115246920D01*
X30021140Y-115251209D01*
X30019085Y-115255892D01*
X30019080Y-115255903D01*
X29946249Y-115421944D01*
X29930704Y-115457384D01*
X29929446Y-115462349D01*
X29929445Y-115462354D01*
X29876695Y-115670657D01*
X29876693Y-115670666D01*
X29875436Y-115675632D01*
X29875012Y-115680741D01*
X29875011Y-115680751D01*
X29861897Y-115839017D01*
X29856844Y-115900000D01*
X29857268Y-115905117D01*
X29875011Y-116119248D01*
X29875012Y-116119256D01*
X29875436Y-116124368D01*
X29876693Y-116129335D01*
X29876695Y-116129342D01*
X29929445Y-116337645D01*
X29930704Y-116342616D01*
X29932764Y-116347312D01*
X30019080Y-116544096D01*
X30019083Y-116544101D01*
X30021140Y-116548791D01*
X30056453Y-116602842D01*
X30141474Y-116732977D01*
X30141477Y-116732981D01*
X30144278Y-116737268D01*
X30147752Y-116741041D01*
X30147753Y-116741043D01*
X30293288Y-116899135D01*
X30293291Y-116899138D01*
X30296760Y-116902906D01*
X30316592Y-116918342D01*
X30470376Y-117038039D01*
X30470381Y-117038042D01*
X30474424Y-117041189D01*
X30478931Y-117043628D01*
X30478934Y-117043630D01*
X30667919Y-117145903D01*
X30672426Y-117148342D01*
X30885365Y-117221444D01*
X31107431Y-117258500D01*
X31327436Y-117258500D01*
X31332569Y-117258500D01*
X31554635Y-117221444D01*
X31767574Y-117148342D01*
X31965576Y-117041189D01*
X32143240Y-116902906D01*
X32295722Y-116737268D01*
X32418860Y-116548791D01*
X32509296Y-116342616D01*
X32564564Y-116124368D01*
X32583156Y-115900000D01*
X32564564Y-115675632D01*
X32563138Y-115670000D01*
X36206844Y-115670000D01*
X36207268Y-115675117D01*
X36225011Y-115889248D01*
X36225012Y-115889256D01*
X36225436Y-115894368D01*
X36226693Y-115899335D01*
X36226695Y-115899342D01*
X36279445Y-116107645D01*
X36280704Y-116112616D01*
X36283943Y-116120000D01*
X36369080Y-116314096D01*
X36369083Y-116314101D01*
X36371140Y-116318791D01*
X36383458Y-116337645D01*
X36491474Y-116502977D01*
X36491477Y-116502981D01*
X36494278Y-116507268D01*
X36497752Y-116511041D01*
X36497753Y-116511043D01*
X36643288Y-116669135D01*
X36643291Y-116669138D01*
X36646760Y-116672906D01*
X36650801Y-116676051D01*
X36820376Y-116808039D01*
X36820381Y-116808042D01*
X36824424Y-116811189D01*
X36828931Y-116813628D01*
X36828934Y-116813630D01*
X36986934Y-116899135D01*
X37022426Y-116918342D01*
X37235365Y-116991444D01*
X37457431Y-117028500D01*
X37677436Y-117028500D01*
X37682569Y-117028500D01*
X37904635Y-116991444D01*
X38117574Y-116918342D01*
X38315576Y-116811189D01*
X38493240Y-116672906D01*
X38556455Y-116604236D01*
X38609073Y-116570386D01*
X38671528Y-116566538D01*
X38727909Y-116593675D01*
X38763862Y-116644889D01*
X38806010Y-116757892D01*
X38809111Y-116766204D01*
X38814425Y-116773303D01*
X38814426Y-116773304D01*
X38886005Y-116868923D01*
X38896739Y-116883261D01*
X39013796Y-116970889D01*
X39150799Y-117021989D01*
X39211362Y-117028500D01*
X41005328Y-117028500D01*
X41008638Y-117028500D01*
X41069201Y-117021989D01*
X41206204Y-116970889D01*
X41323261Y-116883261D01*
X41410889Y-116766204D01*
X41456137Y-116644889D01*
X41492089Y-116593676D01*
X41548470Y-116566538D01*
X41610925Y-116570386D01*
X41663548Y-116604240D01*
X41723288Y-116669135D01*
X41723291Y-116669138D01*
X41726760Y-116672906D01*
X41730801Y-116676051D01*
X41900376Y-116808039D01*
X41900381Y-116808042D01*
X41904424Y-116811189D01*
X41908931Y-116813628D01*
X41908934Y-116813630D01*
X42066934Y-116899135D01*
X42102426Y-116918342D01*
X42315365Y-116991444D01*
X42537431Y-117028500D01*
X42757436Y-117028500D01*
X42762569Y-117028500D01*
X42984635Y-116991444D01*
X43197574Y-116918342D01*
X43395576Y-116811189D01*
X43573240Y-116672906D01*
X43725722Y-116507268D01*
X43848860Y-116318791D01*
X43939296Y-116112616D01*
X43994564Y-115894368D01*
X44013156Y-115670000D01*
X43994564Y-115445632D01*
X43939296Y-115227384D01*
X43848860Y-115021209D01*
X43725722Y-114832732D01*
X43669949Y-114772147D01*
X43576711Y-114670864D01*
X43576706Y-114670859D01*
X43573240Y-114667094D01*
X43525582Y-114630000D01*
X43399623Y-114531960D01*
X43399615Y-114531955D01*
X43395576Y-114528811D01*
X43391071Y-114526373D01*
X43391065Y-114526369D01*
X43202080Y-114424096D01*
X43202074Y-114424093D01*
X43197574Y-114421658D01*
X43192733Y-114419996D01*
X43192726Y-114419993D01*
X42989488Y-114350222D01*
X42989487Y-114350221D01*
X42984635Y-114348556D01*
X42979585Y-114347713D01*
X42979576Y-114347711D01*
X42767631Y-114312344D01*
X42767622Y-114312343D01*
X42762569Y-114311500D01*
X42537431Y-114311500D01*
X42532378Y-114312343D01*
X42532368Y-114312344D01*
X42320423Y-114347711D01*
X42320411Y-114347713D01*
X42315365Y-114348556D01*
X42310515Y-114350220D01*
X42310511Y-114350222D01*
X42107273Y-114419993D01*
X42107262Y-114419997D01*
X42102426Y-114421658D01*
X42097929Y-114424091D01*
X42097919Y-114424096D01*
X41908934Y-114526369D01*
X41908922Y-114526376D01*
X41904424Y-114528811D01*
X41900389Y-114531951D01*
X41900376Y-114531960D01*
X41730801Y-114663948D01*
X41730795Y-114663952D01*
X41726760Y-114667094D01*
X41723294Y-114670858D01*
X41723294Y-114670859D01*
X41663548Y-114735760D01*
X41610924Y-114769613D01*
X41548470Y-114773461D01*
X41492089Y-114746323D01*
X41456137Y-114695110D01*
X41445687Y-114667094D01*
X41410889Y-114573796D01*
X41323261Y-114456739D01*
X41300232Y-114439500D01*
X41213304Y-114374426D01*
X41213303Y-114374425D01*
X41206204Y-114369111D01*
X41197896Y-114366012D01*
X41197894Y-114366011D01*
X41076463Y-114320719D01*
X41076458Y-114320717D01*
X41069201Y-114318011D01*
X41061497Y-114317182D01*
X41061494Y-114317182D01*
X41011924Y-114311853D01*
X41011918Y-114311852D01*
X41008638Y-114311500D01*
X39211362Y-114311500D01*
X39208082Y-114311852D01*
X39208075Y-114311853D01*
X39158505Y-114317182D01*
X39158500Y-114317182D01*
X39150799Y-114318011D01*
X39143543Y-114320717D01*
X39143536Y-114320719D01*
X39022105Y-114366011D01*
X39022099Y-114366013D01*
X39013796Y-114369111D01*
X39006698Y-114374423D01*
X39006695Y-114374426D01*
X38903835Y-114451426D01*
X38903831Y-114451429D01*
X38896739Y-114456739D01*
X38891429Y-114463831D01*
X38891426Y-114463835D01*
X38814426Y-114566695D01*
X38814423Y-114566698D01*
X38809111Y-114573796D01*
X38806013Y-114582101D01*
X38806009Y-114582109D01*
X38763861Y-114695111D01*
X38727909Y-114746324D01*
X38671528Y-114773461D01*
X38609074Y-114769613D01*
X38556451Y-114735759D01*
X38496711Y-114670864D01*
X38496706Y-114670859D01*
X38493240Y-114667094D01*
X38445582Y-114630000D01*
X38319623Y-114531960D01*
X38319615Y-114531955D01*
X38315576Y-114528811D01*
X38311071Y-114526373D01*
X38311065Y-114526369D01*
X38122080Y-114424096D01*
X38122074Y-114424093D01*
X38117574Y-114421658D01*
X38112733Y-114419996D01*
X38112726Y-114419993D01*
X37909488Y-114350222D01*
X37909487Y-114350221D01*
X37904635Y-114348556D01*
X37899585Y-114347713D01*
X37899576Y-114347711D01*
X37687631Y-114312344D01*
X37687622Y-114312343D01*
X37682569Y-114311500D01*
X37457431Y-114311500D01*
X37452378Y-114312343D01*
X37452368Y-114312344D01*
X37240423Y-114347711D01*
X37240411Y-114347713D01*
X37235365Y-114348556D01*
X37230515Y-114350220D01*
X37230511Y-114350222D01*
X37027273Y-114419993D01*
X37027262Y-114419997D01*
X37022426Y-114421658D01*
X37017929Y-114424091D01*
X37017919Y-114424096D01*
X36828934Y-114526369D01*
X36828922Y-114526376D01*
X36824424Y-114528811D01*
X36820389Y-114531951D01*
X36820376Y-114531960D01*
X36650801Y-114663948D01*
X36650795Y-114663952D01*
X36646760Y-114667094D01*
X36643297Y-114670855D01*
X36643288Y-114670864D01*
X36497753Y-114828956D01*
X36497747Y-114828963D01*
X36494278Y-114832732D01*
X36491481Y-114837012D01*
X36491474Y-114837022D01*
X36373942Y-115016920D01*
X36371140Y-115021209D01*
X36369085Y-115025892D01*
X36369080Y-115025903D01*
X36298435Y-115186960D01*
X36280704Y-115227384D01*
X36279446Y-115232349D01*
X36279445Y-115232354D01*
X36226695Y-115440657D01*
X36226693Y-115440666D01*
X36225436Y-115445632D01*
X36225012Y-115450741D01*
X36225011Y-115450751D01*
X36208916Y-115645000D01*
X36206844Y-115670000D01*
X32563138Y-115670000D01*
X32509296Y-115457384D01*
X32418860Y-115251209D01*
X32295722Y-115062732D01*
X32257497Y-115021209D01*
X32146711Y-114900864D01*
X32146708Y-114900861D01*
X32143240Y-114897094D01*
X32119402Y-114878540D01*
X31969623Y-114761960D01*
X31969615Y-114761955D01*
X31965576Y-114758811D01*
X31961064Y-114756369D01*
X31961061Y-114756367D01*
X31929070Y-114739055D01*
X31881564Y-114693474D01*
X31864086Y-114630000D01*
X31881564Y-114566526D01*
X31929070Y-114520945D01*
X31932864Y-114518892D01*
X31965576Y-114501189D01*
X32143240Y-114362906D01*
X32149685Y-114355903D01*
X47684014Y-113697222D01*
X47705154Y-113780701D01*
X47710704Y-113802616D01*
X47712764Y-113807312D01*
X47799080Y-114004096D01*
X47799083Y-114004101D01*
X47801140Y-114008791D01*
X47809889Y-114022182D01*
X47921474Y-114192977D01*
X47921477Y-114192981D01*
X47924278Y-114197268D01*
X47927752Y-114201041D01*
X47927753Y-114201043D01*
X48073288Y-114359135D01*
X48073291Y-114359138D01*
X48076760Y-114362906D01*
X48080801Y-114366051D01*
X48250376Y-114498039D01*
X48250381Y-114498042D01*
X48254424Y-114501189D01*
X48258931Y-114503628D01*
X48258934Y-114503630D01*
X48290930Y-114520945D01*
X48338436Y-114566526D01*
X48355913Y-114630000D01*
X48338436Y-114693474D01*
X48290930Y-114739055D01*
X48258934Y-114756369D01*
X48258922Y-114756376D01*
X48254424Y-114758811D01*
X48250389Y-114761951D01*
X48250376Y-114761960D01*
X48080801Y-114893948D01*
X48080795Y-114893952D01*
X48076760Y-114897094D01*
X48073297Y-114900855D01*
X48073288Y-114900864D01*
X47927753Y-115058956D01*
X47927747Y-115058963D01*
X47924278Y-115062732D01*
X47921481Y-115067012D01*
X47921474Y-115067022D01*
X47803942Y-115246920D01*
X47801140Y-115251209D01*
X47799085Y-115255892D01*
X47799080Y-115255903D01*
X47726249Y-115421944D01*
X47710704Y-115457384D01*
X47709446Y-115462349D01*
X47709445Y-115462354D01*
X47656695Y-115670657D01*
X47656693Y-115670666D01*
X47655436Y-115675632D01*
X47655012Y-115680741D01*
X47655011Y-115680751D01*
X47641897Y-115839017D01*
X47636844Y-115900000D01*
X47637268Y-115905117D01*
X47655011Y-116119248D01*
X47655012Y-116119256D01*
X47655436Y-116124368D01*
X47656693Y-116129335D01*
X47656695Y-116129342D01*
X47709445Y-116337645D01*
X47710704Y-116342616D01*
X47712764Y-116347312D01*
X47799080Y-116544096D01*
X47799083Y-116544101D01*
X47801140Y-116548791D01*
X47836453Y-116602842D01*
X47921474Y-116732977D01*
X47921477Y-116732981D01*
X47924278Y-116737268D01*
X47927752Y-116741041D01*
X47927753Y-116741043D01*
X48073288Y-116899135D01*
X48073291Y-116899138D01*
X48076760Y-116902906D01*
X48096592Y-116918342D01*
X48250376Y-117038039D01*
X48250381Y-117038042D01*
X48254424Y-117041189D01*
X48258931Y-117043628D01*
X48258934Y-117043630D01*
X48447919Y-117145903D01*
X48452426Y-117148342D01*
X48665365Y-117221444D01*
X48887431Y-117258500D01*
X49107436Y-117258500D01*
X49112569Y-117258500D01*
X49334635Y-117221444D01*
X49547574Y-117148342D01*
X49745576Y-117041189D01*
X49923240Y-116902906D01*
X50075722Y-116737268D01*
X50198860Y-116548791D01*
X50289296Y-116342616D01*
X50327902Y-116190165D01*
X82175001Y-116190165D01*
X82175321Y-116196447D01*
X82184455Y-116285867D01*
X82187274Y-116299036D01*
X82236180Y-116446625D01*
X82242246Y-116459633D01*
X82323632Y-116591580D01*
X82332537Y-116602842D01*
X82442157Y-116712462D01*
X82453419Y-116721367D01*
X82585366Y-116802753D01*
X82598374Y-116808819D01*
X82745969Y-116857727D01*
X82759125Y-116860543D01*
X82848555Y-116869680D01*
X82854832Y-116870000D01*
X82858674Y-116870000D01*
X82871549Y-116866549D01*
X82875000Y-116853674D01*
X82875000Y-116161326D01*
X82871549Y-116148450D01*
X82858674Y-116145000D01*
X82191327Y-116145000D01*
X82178451Y-116148450D01*
X82175001Y-116161326D01*
X82175001Y-116190165D01*
X50327902Y-116190165D01*
X50344564Y-116124368D01*
X50363156Y-115900000D01*
X50344564Y-115675632D01*
X50289296Y-115457384D01*
X50281743Y-115440165D01*
X62560001Y-115440165D01*
X62560321Y-115446447D01*
X62569455Y-115535867D01*
X62572274Y-115549036D01*
X62621180Y-115696625D01*
X62627246Y-115709633D01*
X62708632Y-115841580D01*
X62717537Y-115852842D01*
X62827157Y-115962462D01*
X62838419Y-115971367D01*
X62970366Y-116052753D01*
X62983374Y-116058819D01*
X63130969Y-116107727D01*
X63144125Y-116110543D01*
X63233555Y-116119680D01*
X63239832Y-116120000D01*
X63243674Y-116120000D01*
X63256549Y-116116549D01*
X63260000Y-116103674D01*
X63260000Y-115411326D01*
X63256549Y-115398450D01*
X63243674Y-115395000D01*
X62576327Y-115395000D01*
X62563451Y-115398450D01*
X62560001Y-115411326D01*
X62560001Y-115440165D01*
X50281743Y-115440165D01*
X50198860Y-115251209D01*
X50075722Y-115062732D01*
X50037497Y-115021209D01*
X49926711Y-114900864D01*
X49926708Y-114900861D01*
X49923240Y-114897094D01*
X49899402Y-114878540D01*
X49749623Y-114761960D01*
X49749615Y-114761955D01*
X49745576Y-114758811D01*
X49741064Y-114756369D01*
X49741061Y-114756367D01*
X49709070Y-114739055D01*
X49661564Y-114693474D01*
X49644086Y-114630000D01*
X49661564Y-114566526D01*
X49709070Y-114520945D01*
X49712864Y-114518892D01*
X49745576Y-114501189D01*
X49923240Y-114362906D01*
X50075722Y-114197268D01*
X50198860Y-114008791D01*
X50289296Y-113802616D01*
X50344553Y-113584409D01*
X56932252Y-113305080D01*
X56919916Y-113422460D01*
G37*
%TD.AperFunction*%
%TD*%
%TA.AperFunction,Conductor*%
%TO.N,GND*%
G36*
X105002562Y-65500605D02*
G01*
X105217600Y-65509500D01*
X105413455Y-65518052D01*
X105423330Y-65518881D01*
X105636743Y-65545483D01*
X105636793Y-65545490D01*
X105834945Y-65571577D01*
X105844192Y-65573153D01*
X106053521Y-65617044D01*
X106054765Y-65617312D01*
X106250386Y-65660680D01*
X106258901Y-65662889D01*
X106463665Y-65723850D01*
X106465325Y-65724359D01*
X106656696Y-65784698D01*
X106664453Y-65787431D01*
X106863363Y-65865046D01*
X106865513Y-65865911D01*
X107051024Y-65942752D01*
X107057972Y-65945886D01*
X107225903Y-66027982D01*
X107249587Y-66039561D01*
X107252383Y-66040972D01*
X107430420Y-66133652D01*
X107436636Y-66137118D01*
X107619793Y-66246255D01*
X107622929Y-66248187D01*
X107675219Y-66281500D01*
X107792282Y-66356078D01*
X107797710Y-66359741D01*
X107971184Y-66483599D01*
X107974616Y-66486140D01*
X108133912Y-66608372D01*
X108138567Y-66612126D01*
X108301226Y-66749891D01*
X108304838Y-66753072D01*
X108452925Y-66888769D01*
X108456807Y-66892486D01*
X108607512Y-67043191D01*
X108611232Y-67047076D01*
X108746921Y-67195155D01*
X108750107Y-67198772D01*
X108887872Y-67361431D01*
X108891626Y-67366086D01*
X109013858Y-67525382D01*
X109016399Y-67528814D01*
X109140257Y-67702288D01*
X109143920Y-67707716D01*
X109251800Y-67877052D01*
X109253743Y-67880205D01*
X109362880Y-68063362D01*
X109366346Y-68069578D01*
X109459026Y-68247615D01*
X109460437Y-68250411D01*
X109554099Y-68441997D01*
X109557260Y-68449005D01*
X109634051Y-68634395D01*
X109634991Y-68636734D01*
X109647320Y-68668327D01*
X109712559Y-68835523D01*
X109715302Y-68843309D01*
X109775602Y-69034554D01*
X109776186Y-69036460D01*
X109837105Y-69241084D01*
X109839321Y-69249627D01*
X109882671Y-69445166D01*
X109882971Y-69446559D01*
X109926844Y-69655802D01*
X109928422Y-69665062D01*
X109954459Y-69862829D01*
X109954568Y-69863677D01*
X109981114Y-70076641D01*
X109981948Y-70086570D01*
X109990513Y-70282728D01*
X109990525Y-70283013D01*
X109999394Y-70497438D01*
X109999500Y-70502562D01*
X109999500Y-97428500D01*
X100000000Y-96000000D01*
X98500000Y-96000000D01*
X98604167Y-103500000D01*
X89082267Y-103500000D01*
X89034814Y-103490561D01*
X88994586Y-103463681D01*
X87713695Y-102182790D01*
X87706103Y-102174448D01*
X87702000Y-102167982D01*
X87652316Y-102121326D01*
X87649550Y-102118645D01*
X87632527Y-102101622D01*
X87629770Y-102098865D01*
X87626486Y-102096317D01*
X87617624Y-102088746D01*
X87591009Y-102063754D01*
X87591003Y-102063749D01*
X87585321Y-102058414D01*
X87578488Y-102054658D01*
X87578482Y-102054653D01*
X87567429Y-102048576D01*
X87551174Y-102037899D01*
X87541209Y-102030170D01*
X87541206Y-102030168D01*
X87535041Y-102025386D01*
X87494376Y-102007789D01*
X87483884Y-102002649D01*
X87451896Y-101985063D01*
X87451894Y-101985062D01*
X87445060Y-101981305D01*
X87425284Y-101976227D01*
X87406881Y-101969926D01*
X87395309Y-101964918D01*
X87395301Y-101964915D01*
X87388145Y-101961819D01*
X87380440Y-101960598D01*
X87380438Y-101960598D01*
X87344381Y-101954887D01*
X87332955Y-101952521D01*
X87290030Y-101941500D01*
X87282228Y-101941500D01*
X87269615Y-101941500D01*
X87250217Y-101939973D01*
X87237766Y-101938001D01*
X87230057Y-101936780D01*
X87222291Y-101937514D01*
X87222288Y-101937514D01*
X87185942Y-101940950D01*
X87174273Y-101941500D01*
X77613767Y-101941500D01*
X77566314Y-101932061D01*
X77526086Y-101905181D01*
X63188695Y-87567790D01*
X63181103Y-87559448D01*
X63177000Y-87552982D01*
X63127316Y-87506326D01*
X63124550Y-87503645D01*
X63107527Y-87486622D01*
X63104770Y-87483865D01*
X63101486Y-87481317D01*
X63092624Y-87473746D01*
X63066009Y-87448754D01*
X63066003Y-87448749D01*
X63060321Y-87443414D01*
X63053488Y-87439658D01*
X63053482Y-87439653D01*
X63042429Y-87433576D01*
X63026174Y-87422899D01*
X63016209Y-87415170D01*
X63016206Y-87415168D01*
X63010041Y-87410386D01*
X62969376Y-87392789D01*
X62958884Y-87387649D01*
X62926896Y-87370063D01*
X62926894Y-87370062D01*
X62920060Y-87366305D01*
X62900284Y-87361227D01*
X62881881Y-87354926D01*
X62870309Y-87349918D01*
X62870301Y-87349915D01*
X62863145Y-87346819D01*
X62855440Y-87345598D01*
X62855438Y-87345598D01*
X62819381Y-87339887D01*
X62807955Y-87337521D01*
X62765030Y-87326500D01*
X62757228Y-87326500D01*
X62744615Y-87326500D01*
X62725217Y-87324973D01*
X62712766Y-87323001D01*
X62705057Y-87321780D01*
X62697291Y-87322514D01*
X62697288Y-87322514D01*
X62660942Y-87325950D01*
X62649273Y-87326500D01*
X58991928Y-87326500D01*
X58945150Y-87317338D01*
X58905284Y-87291207D01*
X54002456Y-82502399D01*
X54002457Y-82502399D01*
X54000000Y-82500000D01*
X53422959Y-82049674D01*
X49714422Y-79155511D01*
X49677107Y-79107455D01*
X49667141Y-79047434D01*
X49686926Y-78989899D01*
X49731694Y-78948701D01*
X49745576Y-78941189D01*
X49923240Y-78802906D01*
X50075722Y-78637268D01*
X50198860Y-78448791D01*
X50289296Y-78242616D01*
X50344564Y-78024368D01*
X50363156Y-77800000D01*
X50344564Y-77575632D01*
X50289296Y-77357384D01*
X50198860Y-77151209D01*
X50075722Y-76962732D01*
X49991788Y-76871556D01*
X49926711Y-76800864D01*
X49926708Y-76800861D01*
X49923240Y-76797094D01*
X49793490Y-76696104D01*
X49749623Y-76661960D01*
X49749615Y-76661955D01*
X49745576Y-76658811D01*
X49741064Y-76656369D01*
X49741061Y-76656367D01*
X49709070Y-76639055D01*
X49661564Y-76593474D01*
X49644086Y-76530000D01*
X49661564Y-76466526D01*
X49709070Y-76420945D01*
X49709109Y-76420923D01*
X49745576Y-76401189D01*
X49923240Y-76262906D01*
X50075722Y-76097268D01*
X50198860Y-75908791D01*
X50289296Y-75702616D01*
X50344564Y-75484368D01*
X50363156Y-75260000D01*
X50344564Y-75035632D01*
X50289296Y-74817384D01*
X50198860Y-74611209D01*
X50075722Y-74422732D01*
X50022922Y-74365377D01*
X49924293Y-74258238D01*
X49895519Y-74205485D01*
X49894926Y-74145399D01*
X49922653Y-74092088D01*
X49972189Y-74058073D01*
X50083777Y-74016452D01*
X50099189Y-74008037D01*
X50200092Y-73932501D01*
X50212501Y-73920092D01*
X50288037Y-73819189D01*
X50296452Y-73803777D01*
X50340888Y-73684641D01*
X50344426Y-73669667D01*
X50349646Y-73621114D01*
X50350000Y-73614518D01*
X50350000Y-72986326D01*
X50346549Y-72973450D01*
X50333674Y-72970000D01*
X47666326Y-72970000D01*
X47653450Y-72973450D01*
X47650000Y-72986326D01*
X47650000Y-73614518D01*
X47650353Y-73621114D01*
X47655573Y-73669667D01*
X47659111Y-73684641D01*
X47703547Y-73803777D01*
X47711962Y-73819189D01*
X47787498Y-73920092D01*
X47799907Y-73932501D01*
X47900810Y-74008037D01*
X47916220Y-74016451D01*
X48027811Y-74058073D01*
X48077346Y-74092088D01*
X48105073Y-74145399D01*
X48104480Y-74205485D01*
X48075707Y-74258238D01*
X47927747Y-74418963D01*
X47927743Y-74418967D01*
X47924278Y-74422732D01*
X47921481Y-74427012D01*
X47921474Y-74427022D01*
X47846506Y-74541771D01*
X47801140Y-74611209D01*
X47799085Y-74615892D01*
X47799080Y-74615903D01*
X47712764Y-74812687D01*
X47710704Y-74817384D01*
X47709446Y-74822349D01*
X47709445Y-74822354D01*
X47656695Y-75030657D01*
X47656693Y-75030666D01*
X47655436Y-75035632D01*
X47655012Y-75040741D01*
X47655011Y-75040751D01*
X47637268Y-75254883D01*
X47636844Y-75260000D01*
X47637268Y-75265117D01*
X47655011Y-75479248D01*
X47655012Y-75479256D01*
X47655436Y-75484368D01*
X47656693Y-75489335D01*
X47656695Y-75489342D01*
X47692620Y-75631206D01*
X47710704Y-75702616D01*
X47715127Y-75712699D01*
X47799080Y-75904096D01*
X47799083Y-75904101D01*
X47801140Y-75908791D01*
X47833439Y-75958228D01*
X47921474Y-76092977D01*
X47921477Y-76092981D01*
X47924278Y-76097268D01*
X47927752Y-76101041D01*
X47927753Y-76101043D01*
X48073288Y-76259135D01*
X48073291Y-76259138D01*
X48076760Y-76262906D01*
X48080801Y-76266051D01*
X48250376Y-76398039D01*
X48250381Y-76398042D01*
X48254424Y-76401189D01*
X48258931Y-76403628D01*
X48258934Y-76403630D01*
X48290930Y-76420945D01*
X48338436Y-76466526D01*
X48355913Y-76530000D01*
X48338436Y-76593474D01*
X48290930Y-76639055D01*
X48258934Y-76656369D01*
X48258922Y-76656376D01*
X48254424Y-76658811D01*
X48250389Y-76661951D01*
X48250376Y-76661960D01*
X48080801Y-76793948D01*
X48080795Y-76793952D01*
X48076760Y-76797094D01*
X48073297Y-76800855D01*
X48073288Y-76800864D01*
X47927753Y-76958956D01*
X47927747Y-76958963D01*
X47924278Y-76962732D01*
X47921481Y-76967012D01*
X47921474Y-76967022D01*
X47803942Y-77146920D01*
X47801140Y-77151209D01*
X47799085Y-77155892D01*
X47799080Y-77155903D01*
X47712762Y-77352691D01*
X47712760Y-77352696D01*
X47710704Y-77357384D01*
X47709448Y-77362342D01*
X47709443Y-77362358D01*
X47707793Y-77368874D01*
X47678789Y-77422444D01*
X47627773Y-77455736D01*
X47567059Y-77460717D01*
X47511300Y-77436183D01*
X46910311Y-76967168D01*
X46910303Y-76967162D01*
X46906893Y-76964501D01*
X46899482Y-76633406D01*
X46913504Y-76500000D01*
X46893542Y-76310072D01*
X46892148Y-76305784D01*
X46847929Y-74330309D01*
X46893542Y-74189928D01*
X46913504Y-74000000D01*
X46893542Y-73810072D01*
X46834527Y-73628444D01*
X46832125Y-73624283D01*
X46755027Y-70180000D01*
X47636844Y-70180000D01*
X47637268Y-70185117D01*
X47655011Y-70399248D01*
X47655012Y-70399251D01*
X47655436Y-70404368D01*
X47656693Y-70409335D01*
X47656695Y-70409342D01*
X47699506Y-70578396D01*
X47710704Y-70622616D01*
X47712764Y-70627312D01*
X47799080Y-70824096D01*
X47799083Y-70824101D01*
X47801140Y-70828791D01*
X47804970Y-70834653D01*
X47921474Y-71012977D01*
X47921477Y-71012981D01*
X47924278Y-71017268D01*
X47927752Y-71021041D01*
X47927753Y-71021043D01*
X48075706Y-71181761D01*
X48104480Y-71234513D01*
X48105073Y-71294600D01*
X48077346Y-71347910D01*
X48027811Y-71381925D01*
X47916226Y-71423544D01*
X47900810Y-71431962D01*
X47799907Y-71507498D01*
X47787498Y-71519907D01*
X47711962Y-71620810D01*
X47703547Y-71636222D01*
X47659111Y-71755358D01*
X47655573Y-71770332D01*
X47650353Y-71818885D01*
X47650000Y-71825482D01*
X47650000Y-72453674D01*
X47653450Y-72466549D01*
X47666326Y-72470000D01*
X50333674Y-72470000D01*
X50346549Y-72466549D01*
X50350000Y-72453674D01*
X50350000Y-72112500D01*
X50366613Y-72050500D01*
X50412000Y-72005113D01*
X50474000Y-71988500D01*
X52041234Y-71988500D01*
X52088687Y-71997939D01*
X52128915Y-72024819D01*
X77360181Y-97256085D01*
X77387061Y-97296313D01*
X77396500Y-97343766D01*
X77396500Y-99592137D01*
X77388264Y-99636575D01*
X77364650Y-99675109D01*
X77285306Y-99763228D01*
X77285301Y-99763234D01*
X77280960Y-99768056D01*
X77277714Y-99773676D01*
X77277711Y-99773682D01*
X77188721Y-99927817D01*
X77188718Y-99927822D01*
X77185473Y-99933444D01*
X77183467Y-99939616D01*
X77183465Y-99939622D01*
X77128465Y-100108892D01*
X77128463Y-100108901D01*
X77126458Y-100115072D01*
X77125780Y-100121522D01*
X77125778Y-100121532D01*
X77107778Y-100292795D01*
X77106496Y-100305000D01*
X77107175Y-100311460D01*
X77125778Y-100488467D01*
X77125779Y-100488475D01*
X77126458Y-100494928D01*
X77128463Y-100501100D01*
X77128465Y-100501107D01*
X77183465Y-100670377D01*
X77185473Y-100676556D01*
X77280960Y-100841944D01*
X77408747Y-100983866D01*
X77413997Y-100987680D01*
X77414000Y-100987683D01*
X77463291Y-101023495D01*
X77563248Y-101096118D01*
X77569181Y-101098759D01*
X77569182Y-101098760D01*
X77698019Y-101156122D01*
X77737712Y-101173794D01*
X77744070Y-101175145D01*
X77744072Y-101175146D01*
X77780874Y-101182968D01*
X77924513Y-101213500D01*
X78108984Y-101213500D01*
X78115487Y-101213500D01*
X78302288Y-101173794D01*
X78476752Y-101096118D01*
X78631253Y-100983866D01*
X78759040Y-100841944D01*
X78854527Y-100676556D01*
X78913542Y-100494928D01*
X78933504Y-100305000D01*
X78913542Y-100115072D01*
X78854527Y-99933444D01*
X78759040Y-99768056D01*
X78695350Y-99697321D01*
X78671736Y-99658787D01*
X78663500Y-99614349D01*
X78663500Y-97108846D01*
X78664031Y-97097562D01*
X78665702Y-97090091D01*
X78663560Y-97021982D01*
X78663500Y-97018087D01*
X78663500Y-96994042D01*
X78663500Y-96990144D01*
X78662981Y-96986041D01*
X78662064Y-96974388D01*
X78660673Y-96930110D01*
X78654979Y-96910513D01*
X78651031Y-96891449D01*
X78649451Y-96878941D01*
X78648474Y-96871203D01*
X78632162Y-96830005D01*
X78628377Y-96818949D01*
X78618193Y-96783894D01*
X78616018Y-96776407D01*
X78605623Y-96758831D01*
X78597063Y-96741355D01*
X78589552Y-96722383D01*
X78563507Y-96686536D01*
X78557103Y-96676788D01*
X78534542Y-96638637D01*
X78520107Y-96624202D01*
X78507469Y-96609405D01*
X78500058Y-96599205D01*
X78500057Y-96599204D01*
X78495472Y-96592893D01*
X78461336Y-96564653D01*
X78452696Y-96556791D01*
X52858695Y-70962790D01*
X52851103Y-70954448D01*
X52847000Y-70947982D01*
X52797316Y-70901326D01*
X52794550Y-70898645D01*
X52777527Y-70881622D01*
X52777526Y-70881621D01*
X52774770Y-70878865D01*
X52771486Y-70876317D01*
X52762624Y-70868746D01*
X52736009Y-70843754D01*
X52736003Y-70843749D01*
X52730321Y-70838414D01*
X52723488Y-70834658D01*
X52723482Y-70834653D01*
X52712429Y-70828576D01*
X52696174Y-70817899D01*
X52686209Y-70810170D01*
X52686206Y-70810168D01*
X52680041Y-70805386D01*
X52639376Y-70787789D01*
X52628884Y-70782649D01*
X52596896Y-70765063D01*
X52596894Y-70765062D01*
X52590060Y-70761305D01*
X52570284Y-70756227D01*
X52551881Y-70749926D01*
X52540309Y-70744918D01*
X52540301Y-70744915D01*
X52533145Y-70741819D01*
X52525440Y-70740598D01*
X52525438Y-70740598D01*
X52489381Y-70734887D01*
X52477955Y-70732521D01*
X52435030Y-70721500D01*
X52427228Y-70721500D01*
X52414615Y-70721500D01*
X52395217Y-70719973D01*
X52382766Y-70718001D01*
X52375057Y-70716780D01*
X52367291Y-70717514D01*
X52367288Y-70717514D01*
X52330942Y-70720950D01*
X52319273Y-70721500D01*
X50488766Y-70721500D01*
X50441313Y-70712061D01*
X50401085Y-70685181D01*
X50379876Y-70663972D01*
X73870630Y-70663972D01*
X73884386Y-70821206D01*
X73886260Y-70831837D01*
X73942332Y-71041097D01*
X73946020Y-71051231D01*
X74037579Y-71247580D01*
X74042967Y-71256912D01*
X74167232Y-71434381D01*
X74174169Y-71442647D01*
X74327352Y-71595830D01*
X74335618Y-71602767D01*
X74513087Y-71727032D01*
X74522419Y-71732420D01*
X74718765Y-71823977D01*
X74728907Y-71827669D01*
X74906219Y-71875179D01*
X74917448Y-71875547D01*
X74920000Y-71864605D01*
X75420000Y-71864605D01*
X75422551Y-71875547D01*
X75433780Y-71875179D01*
X75611092Y-71827669D01*
X75621234Y-71823977D01*
X75817580Y-71732420D01*
X75826912Y-71727032D01*
X76004381Y-71602767D01*
X76012647Y-71595830D01*
X76165830Y-71442647D01*
X76172767Y-71434381D01*
X76297032Y-71256912D01*
X76302417Y-71247585D01*
X76322928Y-71203599D01*
X76368685Y-71151423D01*
X76435311Y-71132003D01*
X76501936Y-71151423D01*
X76547692Y-71203598D01*
X76572477Y-71256749D01*
X76575584Y-71261186D01*
X76700696Y-71439865D01*
X76700699Y-71439869D01*
X76703802Y-71444300D01*
X76865700Y-71606198D01*
X76870132Y-71609301D01*
X76870134Y-71609303D01*
X76913850Y-71639913D01*
X77053251Y-71737523D01*
X77260757Y-71834284D01*
X77265977Y-71835682D01*
X77265978Y-71835683D01*
X77476680Y-71892141D01*
X77476682Y-71892141D01*
X77481913Y-71893543D01*
X77710000Y-71913498D01*
X77938087Y-71893543D01*
X78159243Y-71834284D01*
X78366749Y-71737523D01*
X78554300Y-71606198D01*
X78716198Y-71444300D01*
X78847523Y-71256749D01*
X78867619Y-71213650D01*
X78913374Y-71161478D01*
X78980000Y-71142058D01*
X79046626Y-71161478D01*
X79092380Y-71213650D01*
X79112477Y-71256749D01*
X79115584Y-71261186D01*
X79240696Y-71439865D01*
X79240699Y-71439869D01*
X79243802Y-71444300D01*
X79405700Y-71606198D01*
X79410132Y-71609301D01*
X79410134Y-71609303D01*
X79453850Y-71639913D01*
X79593251Y-71737523D01*
X79800757Y-71834284D01*
X79805977Y-71835682D01*
X79805978Y-71835683D01*
X80016680Y-71892141D01*
X80016682Y-71892141D01*
X80021913Y-71893543D01*
X80250000Y-71913498D01*
X80478087Y-71893543D01*
X80699243Y-71834284D01*
X80906749Y-71737523D01*
X81094300Y-71606198D01*
X81256198Y-71444300D01*
X81387523Y-71256749D01*
X81407619Y-71213650D01*
X81453374Y-71161478D01*
X81520000Y-71142058D01*
X81586626Y-71161478D01*
X81632380Y-71213650D01*
X81652477Y-71256749D01*
X81655584Y-71261186D01*
X81780696Y-71439865D01*
X81780699Y-71439869D01*
X81783802Y-71444300D01*
X81945700Y-71606198D01*
X81950132Y-71609301D01*
X81950134Y-71609303D01*
X81993850Y-71639913D01*
X82133251Y-71737523D01*
X82340757Y-71834284D01*
X82345977Y-71835682D01*
X82345978Y-71835683D01*
X82556680Y-71892141D01*
X82556682Y-71892141D01*
X82561913Y-71893543D01*
X82790000Y-71913498D01*
X83018087Y-71893543D01*
X83239243Y-71834284D01*
X83446749Y-71737523D01*
X83634300Y-71606198D01*
X83796198Y-71444300D01*
X83927523Y-71256749D01*
X84024284Y-71049243D01*
X84083543Y-70828087D01*
X84098500Y-70657127D01*
X84098500Y-70500000D01*
X103614341Y-70500000D01*
X103614813Y-70505395D01*
X103633586Y-70719973D01*
X103634937Y-70735408D01*
X103636336Y-70740630D01*
X103636337Y-70740634D01*
X103694694Y-70958430D01*
X103694697Y-70958438D01*
X103696097Y-70963663D01*
X103795965Y-71177829D01*
X103931505Y-71371401D01*
X104098599Y-71538495D01*
X104292171Y-71674035D01*
X104506337Y-71773903D01*
X104734592Y-71835063D01*
X104911034Y-71850500D01*
X105026258Y-71850500D01*
X105028966Y-71850500D01*
X105205408Y-71835063D01*
X105433663Y-71773903D01*
X105647829Y-71674035D01*
X105841401Y-71538495D01*
X106008495Y-71371401D01*
X106144035Y-71177830D01*
X106243903Y-70963663D01*
X106305063Y-70735408D01*
X106325659Y-70500000D01*
X106305063Y-70264592D01*
X106243903Y-70036337D01*
X106144035Y-69822171D01*
X106008495Y-69628599D01*
X105841401Y-69461505D01*
X105696628Y-69360134D01*
X105652268Y-69329073D01*
X105652266Y-69329072D01*
X105647829Y-69325965D01*
X105484123Y-69249627D01*
X105438572Y-69228386D01*
X105438570Y-69228385D01*
X105433663Y-69226097D01*
X105428438Y-69224697D01*
X105428430Y-69224694D01*
X105210634Y-69166337D01*
X105210630Y-69166336D01*
X105205408Y-69164937D01*
X105200020Y-69164465D01*
X105200017Y-69164465D01*
X105031664Y-69149736D01*
X105031662Y-69149735D01*
X105028966Y-69149500D01*
X104911034Y-69149500D01*
X104908338Y-69149735D01*
X104908335Y-69149736D01*
X104739982Y-69164465D01*
X104739977Y-69164465D01*
X104734592Y-69164937D01*
X104729371Y-69166335D01*
X104729365Y-69166337D01*
X104511569Y-69224694D01*
X104511557Y-69224698D01*
X104506337Y-69226097D01*
X104501432Y-69228383D01*
X104501427Y-69228386D01*
X104297081Y-69323675D01*
X104297077Y-69323677D01*
X104292171Y-69325965D01*
X104287738Y-69329068D01*
X104287731Y-69329073D01*
X104103034Y-69458399D01*
X104103029Y-69458402D01*
X104098599Y-69461505D01*
X104094775Y-69465328D01*
X104094769Y-69465334D01*
X103935336Y-69624767D01*
X103935330Y-69624773D01*
X103931505Y-69628599D01*
X103928406Y-69633023D01*
X103928399Y-69633033D01*
X103799066Y-69817740D01*
X103799061Y-69817747D01*
X103795965Y-69822170D01*
X103793683Y-69827061D01*
X103793678Y-69827072D01*
X103698386Y-70031427D01*
X103698383Y-70031432D01*
X103696097Y-70036337D01*
X103694698Y-70041557D01*
X103694694Y-70041569D01*
X103636337Y-70259365D01*
X103636335Y-70259371D01*
X103634937Y-70264592D01*
X103634465Y-70269977D01*
X103634465Y-70269982D01*
X103622708Y-70404368D01*
X103614341Y-70500000D01*
X84098500Y-70500000D01*
X84098500Y-70142873D01*
X84083543Y-69971913D01*
X84079180Y-69955632D01*
X84025683Y-69755978D01*
X84025682Y-69755977D01*
X84024284Y-69750757D01*
X83927523Y-69543251D01*
X83796198Y-69355700D01*
X83634300Y-69193802D01*
X83629869Y-69190699D01*
X83629865Y-69190696D01*
X83451186Y-69065584D01*
X83451187Y-69065584D01*
X83446749Y-69062477D01*
X83321893Y-69004256D01*
X83244146Y-68968002D01*
X83244143Y-68968000D01*
X83239243Y-68965716D01*
X83234028Y-68964318D01*
X83234021Y-68964316D01*
X83023319Y-68907858D01*
X83023308Y-68907856D01*
X83018087Y-68906457D01*
X83012695Y-68905985D01*
X83012688Y-68905984D01*
X82795395Y-68886974D01*
X82790000Y-68886502D01*
X82784605Y-68886974D01*
X82567311Y-68905984D01*
X82567302Y-68905985D01*
X82561913Y-68906457D01*
X82556692Y-68907855D01*
X82556680Y-68907858D01*
X82345978Y-68964316D01*
X82345967Y-68964319D01*
X82340757Y-68965716D01*
X82335860Y-68967999D01*
X82335853Y-68968002D01*
X82138165Y-69060185D01*
X82138159Y-69060188D01*
X82133251Y-69062477D01*
X82128817Y-69065581D01*
X82128813Y-69065584D01*
X81950134Y-69190696D01*
X81950124Y-69190703D01*
X81945700Y-69193802D01*
X81941874Y-69197627D01*
X81941868Y-69197633D01*
X81787633Y-69351868D01*
X81787627Y-69351874D01*
X81783802Y-69355700D01*
X81780703Y-69360124D01*
X81780696Y-69360134D01*
X81655584Y-69538813D01*
X81655581Y-69538817D01*
X81652477Y-69543251D01*
X81650189Y-69548156D01*
X81650187Y-69548161D01*
X81632382Y-69586346D01*
X81586625Y-69638521D01*
X81520000Y-69657941D01*
X81453375Y-69638521D01*
X81407618Y-69586346D01*
X81405568Y-69581949D01*
X81387523Y-69543251D01*
X81256198Y-69355700D01*
X81094300Y-69193802D01*
X81089869Y-69190699D01*
X81089865Y-69190696D01*
X80911186Y-69065584D01*
X80911187Y-69065584D01*
X80906749Y-69062477D01*
X80781893Y-69004256D01*
X80704146Y-68968002D01*
X80704143Y-68968000D01*
X80699243Y-68965716D01*
X80694028Y-68964318D01*
X80694021Y-68964316D01*
X80483319Y-68907858D01*
X80483308Y-68907856D01*
X80478087Y-68906457D01*
X80472695Y-68905985D01*
X80472688Y-68905984D01*
X80255395Y-68886974D01*
X80250000Y-68886502D01*
X80244605Y-68886974D01*
X80027311Y-68905984D01*
X80027302Y-68905985D01*
X80021913Y-68906457D01*
X80016692Y-68907855D01*
X80016680Y-68907858D01*
X79805978Y-68964316D01*
X79805967Y-68964319D01*
X79800757Y-68965716D01*
X79795860Y-68967999D01*
X79795853Y-68968002D01*
X79598165Y-69060185D01*
X79598159Y-69060188D01*
X79593251Y-69062477D01*
X79588817Y-69065581D01*
X79588813Y-69065584D01*
X79410134Y-69190696D01*
X79410124Y-69190703D01*
X79405700Y-69193802D01*
X79401874Y-69197627D01*
X79401868Y-69197633D01*
X79247633Y-69351868D01*
X79247627Y-69351874D01*
X79243802Y-69355700D01*
X79240703Y-69360124D01*
X79240696Y-69360134D01*
X79115584Y-69538813D01*
X79115581Y-69538817D01*
X79112477Y-69543251D01*
X79110189Y-69548156D01*
X79110187Y-69548161D01*
X79092382Y-69586346D01*
X79046625Y-69638521D01*
X78980000Y-69657941D01*
X78913375Y-69638521D01*
X78867618Y-69586346D01*
X78865568Y-69581949D01*
X78847523Y-69543251D01*
X78716198Y-69355700D01*
X78554300Y-69193802D01*
X78549869Y-69190699D01*
X78549865Y-69190696D01*
X78371186Y-69065584D01*
X78371187Y-69065584D01*
X78366749Y-69062477D01*
X78241893Y-69004256D01*
X78164146Y-68968002D01*
X78164143Y-68968000D01*
X78159243Y-68965716D01*
X78154028Y-68964318D01*
X78154021Y-68964316D01*
X77943319Y-68907858D01*
X77943308Y-68907856D01*
X77938087Y-68906457D01*
X77932695Y-68905985D01*
X77932688Y-68905984D01*
X77715395Y-68886974D01*
X77710000Y-68886502D01*
X77704605Y-68886974D01*
X77487311Y-68905984D01*
X77487302Y-68905985D01*
X77481913Y-68906457D01*
X77476692Y-68907855D01*
X77476680Y-68907858D01*
X77265978Y-68964316D01*
X77265967Y-68964319D01*
X77260757Y-68965716D01*
X77255860Y-68967999D01*
X77255853Y-68968002D01*
X77058165Y-69060185D01*
X77058159Y-69060188D01*
X77053251Y-69062477D01*
X77048817Y-69065581D01*
X77048813Y-69065584D01*
X76870134Y-69190696D01*
X76870124Y-69190703D01*
X76865700Y-69193802D01*
X76861874Y-69197627D01*
X76861868Y-69197633D01*
X76707633Y-69351868D01*
X76707627Y-69351874D01*
X76703802Y-69355700D01*
X76700703Y-69360124D01*
X76700696Y-69360134D01*
X76575584Y-69538813D01*
X76575581Y-69538817D01*
X76572477Y-69543251D01*
X76570189Y-69548156D01*
X76570187Y-69548161D01*
X76547693Y-69596401D01*
X76501936Y-69648577D01*
X76435311Y-69667996D01*
X76368686Y-69648576D01*
X76322929Y-69596401D01*
X76302420Y-69552419D01*
X76297032Y-69543087D01*
X76172767Y-69365618D01*
X76165830Y-69357352D01*
X76012647Y-69204169D01*
X76004381Y-69197232D01*
X75826912Y-69072967D01*
X75817580Y-69067579D01*
X75621234Y-68976022D01*
X75611092Y-68972330D01*
X75433780Y-68924820D01*
X75422551Y-68924452D01*
X75420000Y-68935395D01*
X75420000Y-71864605D01*
X74920000Y-71864605D01*
X74920000Y-70666326D01*
X74916549Y-70653450D01*
X74903674Y-70650000D01*
X73886326Y-70650000D01*
X73873450Y-70653450D01*
X73870630Y-70663972D01*
X50379876Y-70663972D01*
X50349063Y-70633159D01*
X50317193Y-70578396D01*
X50316539Y-70515037D01*
X50343303Y-70409350D01*
X50343304Y-70409342D01*
X50344564Y-70404368D01*
X50363156Y-70180000D01*
X50359512Y-70136027D01*
X73870630Y-70136027D01*
X73873450Y-70146549D01*
X73886326Y-70150000D01*
X74903674Y-70150000D01*
X74916549Y-70146549D01*
X74920000Y-70133674D01*
X74920000Y-68935395D01*
X74917448Y-68924452D01*
X74906219Y-68924820D01*
X74728907Y-68972330D01*
X74718765Y-68976022D01*
X74522419Y-69067579D01*
X74513087Y-69072967D01*
X74335618Y-69197232D01*
X74327352Y-69204169D01*
X74174169Y-69357352D01*
X74167232Y-69365618D01*
X74042967Y-69543087D01*
X74037579Y-69552419D01*
X73946020Y-69748768D01*
X73942332Y-69758902D01*
X73886260Y-69968162D01*
X73884386Y-69978793D01*
X73870630Y-70136027D01*
X50359512Y-70136027D01*
X50344564Y-69955632D01*
X50289296Y-69737384D01*
X50202195Y-69538813D01*
X50200919Y-69535903D01*
X50200918Y-69535902D01*
X50198860Y-69531209D01*
X50085274Y-69357352D01*
X50078525Y-69347022D01*
X50078523Y-69347020D01*
X50075722Y-69342732D01*
X49968351Y-69226097D01*
X49926711Y-69180864D01*
X49926708Y-69180861D01*
X49923240Y-69177094D01*
X49799405Y-69080708D01*
X49749623Y-69041960D01*
X49749615Y-69041955D01*
X49745576Y-69038811D01*
X49741064Y-69036369D01*
X49741061Y-69036367D01*
X49709070Y-69019055D01*
X49661564Y-68973474D01*
X49644086Y-68910000D01*
X49661564Y-68846526D01*
X49709070Y-68800945D01*
X49728276Y-68790551D01*
X49745576Y-68781189D01*
X49923240Y-68642906D01*
X50075722Y-68477268D01*
X50198860Y-68288791D01*
X50289296Y-68082616D01*
X50344564Y-67864368D01*
X50363156Y-67640000D01*
X50344564Y-67415632D01*
X50289296Y-67197384D01*
X50198860Y-66991209D01*
X50097506Y-66836075D01*
X50078525Y-66807022D01*
X50078523Y-66807020D01*
X50075722Y-66802732D01*
X50017513Y-66739501D01*
X49926711Y-66640864D01*
X49926708Y-66640861D01*
X49923240Y-66637094D01*
X49910597Y-66627253D01*
X49749623Y-66501960D01*
X49749615Y-66501955D01*
X49745576Y-66498811D01*
X49741071Y-66496373D01*
X49741065Y-66496369D01*
X49552080Y-66394096D01*
X49552074Y-66394093D01*
X49547574Y-66391658D01*
X49542733Y-66389996D01*
X49542726Y-66389993D01*
X49339488Y-66320222D01*
X49339487Y-66320221D01*
X49334635Y-66318556D01*
X49329585Y-66317713D01*
X49329576Y-66317711D01*
X49117631Y-66282344D01*
X49117622Y-66282343D01*
X49112569Y-66281500D01*
X48887431Y-66281500D01*
X48882378Y-66282343D01*
X48882368Y-66282344D01*
X48670423Y-66317711D01*
X48670411Y-66317713D01*
X48665365Y-66318556D01*
X48660515Y-66320220D01*
X48660511Y-66320222D01*
X48457273Y-66389993D01*
X48457262Y-66389997D01*
X48452426Y-66391658D01*
X48447929Y-66394091D01*
X48447919Y-66394096D01*
X48258934Y-66496369D01*
X48258922Y-66496376D01*
X48254424Y-66498811D01*
X48250389Y-66501951D01*
X48250376Y-66501960D01*
X48080801Y-66633948D01*
X48080795Y-66633952D01*
X48076760Y-66637094D01*
X48073297Y-66640855D01*
X48073288Y-66640864D01*
X47927753Y-66798956D01*
X47927747Y-66798963D01*
X47924278Y-66802732D01*
X47921481Y-66807012D01*
X47921474Y-66807022D01*
X47803942Y-66986920D01*
X47801140Y-66991209D01*
X47799085Y-66995892D01*
X47799080Y-66995903D01*
X47722885Y-67169614D01*
X47710704Y-67197384D01*
X47709446Y-67202349D01*
X47709445Y-67202354D01*
X47656695Y-67410657D01*
X47656693Y-67410666D01*
X47655436Y-67415632D01*
X47655012Y-67420741D01*
X47655011Y-67420751D01*
X47638308Y-67622327D01*
X47636844Y-67640000D01*
X47637268Y-67645117D01*
X47655011Y-67859248D01*
X47655012Y-67859256D01*
X47655436Y-67864368D01*
X47656693Y-67869335D01*
X47656695Y-67869342D01*
X47698214Y-68033295D01*
X47710704Y-68082616D01*
X47727322Y-68120501D01*
X47799080Y-68284096D01*
X47799083Y-68284101D01*
X47801140Y-68288791D01*
X47806547Y-68297067D01*
X47921474Y-68472977D01*
X47921477Y-68472981D01*
X47924278Y-68477268D01*
X47927752Y-68481041D01*
X47927753Y-68481043D01*
X48073288Y-68639135D01*
X48073291Y-68639138D01*
X48076760Y-68642906D01*
X48080801Y-68646051D01*
X48250376Y-68778039D01*
X48250381Y-68778042D01*
X48254424Y-68781189D01*
X48258931Y-68783628D01*
X48258934Y-68783630D01*
X48290930Y-68800945D01*
X48338436Y-68846526D01*
X48355913Y-68910000D01*
X48338436Y-68973474D01*
X48290930Y-69019055D01*
X48258934Y-69036369D01*
X48258922Y-69036376D01*
X48254424Y-69038811D01*
X48250389Y-69041951D01*
X48250376Y-69041960D01*
X48080801Y-69173948D01*
X48080795Y-69173952D01*
X48076760Y-69177094D01*
X48073297Y-69180855D01*
X48073288Y-69180864D01*
X47927753Y-69338956D01*
X47927747Y-69338963D01*
X47924278Y-69342732D01*
X47921481Y-69347012D01*
X47921474Y-69347022D01*
X47844178Y-69465334D01*
X47801140Y-69531209D01*
X47799085Y-69535892D01*
X47799080Y-69535903D01*
X47712764Y-69732687D01*
X47710704Y-69737384D01*
X47709446Y-69742349D01*
X47709445Y-69742354D01*
X47656695Y-69950657D01*
X47656693Y-69950666D01*
X47655436Y-69955632D01*
X47655012Y-69960741D01*
X47655011Y-69960751D01*
X47644586Y-70086570D01*
X47636844Y-70180000D01*
X46755027Y-70180000D01*
X46650279Y-65500500D01*
X104997439Y-65500500D01*
X105002562Y-65500605D01*
G37*
%TD.AperFunction*%
%TD*%
%TA.AperFunction,NonConductor*%
G36*
X62418687Y-88602939D02*
G01*
X62458915Y-88629819D01*
X76796294Y-102967198D01*
X76803896Y-102975551D01*
X76808000Y-102982018D01*
X76813690Y-102987361D01*
X76857667Y-103028658D01*
X76860465Y-103031369D01*
X76880230Y-103051134D01*
X76883484Y-103053658D01*
X76892367Y-103061244D01*
X76924679Y-103091586D01*
X76931517Y-103095345D01*
X76942568Y-103101421D01*
X76958830Y-103112103D01*
X76968788Y-103119827D01*
X76968792Y-103119829D01*
X76974959Y-103124613D01*
X77015621Y-103142208D01*
X77026106Y-103147346D01*
X77064940Y-103168695D01*
X77084718Y-103173773D01*
X77103120Y-103180074D01*
X77112997Y-103184347D01*
X77121855Y-103188181D01*
X77165621Y-103195112D01*
X77177041Y-103197477D01*
X77219970Y-103208500D01*
X77240385Y-103208500D01*
X77259783Y-103210027D01*
X77279943Y-103213220D01*
X77318476Y-103209577D01*
X77324058Y-103209050D01*
X77335727Y-103208500D01*
X81885928Y-103208500D01*
X81942223Y-103222015D01*
X81986246Y-103259615D01*
X82008401Y-103313102D01*
X82003859Y-103370818D01*
X81973609Y-103420181D01*
X81930109Y-103463681D01*
X81889881Y-103490561D01*
X81842428Y-103500000D01*
X75550511Y-103500000D01*
X75503733Y-103490838D01*
X75463867Y-103464707D01*
X68929489Y-97082292D01*
X60456352Y-88806205D01*
X60425433Y-88756926D01*
X60420391Y-88698967D01*
X60442338Y-88645087D01*
X60486443Y-88607148D01*
X60542998Y-88593500D01*
X62371234Y-88593500D01*
X62418687Y-88602939D01*
G37*
%TD.AperFunction*%
%TA.AperFunction,NonConductor*%
G36*
X86943687Y-103217939D02*
G01*
X86983915Y-103244819D01*
X87027415Y-103288319D01*
X87057665Y-103337682D01*
X87062207Y-103395398D01*
X87040052Y-103448885D01*
X86996029Y-103486485D01*
X86939734Y-103500000D01*
X86452266Y-103500000D01*
X86404813Y-103490561D01*
X86364585Y-103463681D01*
X86321085Y-103420181D01*
X86290835Y-103370818D01*
X86286293Y-103313102D01*
X86308448Y-103259615D01*
X86352471Y-103222015D01*
X86408766Y-103208500D01*
X86896234Y-103208500D01*
X86943687Y-103217939D01*
G37*
%TD.AperFunction*%
%TA.AperFunction,Conductor*%
%TO.N,GND*%
G36*
X109999500Y-97428500D02*
G01*
X109999500Y-124997438D01*
X109999394Y-125002563D01*
X109990525Y-125216987D01*
X109990513Y-125217271D01*
X109981948Y-125413428D01*
X109981114Y-125423357D01*
X109954568Y-125636321D01*
X109954459Y-125637169D01*
X109928422Y-125834936D01*
X109926844Y-125844196D01*
X109882971Y-126053439D01*
X109882671Y-126054832D01*
X109839321Y-126250371D01*
X109837105Y-126258914D01*
X109776186Y-126463538D01*
X109775602Y-126465444D01*
X109715302Y-126656689D01*
X109712559Y-126664475D01*
X109635008Y-126863224D01*
X109634051Y-126865603D01*
X109557260Y-127050993D01*
X109554099Y-127058001D01*
X109460437Y-127249587D01*
X109459026Y-127252383D01*
X109366346Y-127430420D01*
X109362880Y-127436636D01*
X109253743Y-127619793D01*
X109251800Y-127622946D01*
X109143920Y-127792282D01*
X109140257Y-127797710D01*
X109016399Y-127971184D01*
X109013858Y-127974616D01*
X108891626Y-128133912D01*
X108887872Y-128138567D01*
X108750107Y-128301226D01*
X108746908Y-128304858D01*
X108611254Y-128452899D01*
X108607512Y-128456807D01*
X108456807Y-128607512D01*
X108452899Y-128611254D01*
X108304858Y-128746908D01*
X108301226Y-128750107D01*
X108138567Y-128887872D01*
X108133912Y-128891626D01*
X107974616Y-129013858D01*
X107971184Y-129016399D01*
X107797710Y-129140257D01*
X107792282Y-129143920D01*
X107622946Y-129251800D01*
X107619793Y-129253743D01*
X107436636Y-129362880D01*
X107430420Y-129366346D01*
X107252383Y-129459026D01*
X107249587Y-129460437D01*
X107058001Y-129554099D01*
X107050993Y-129557260D01*
X106865603Y-129634051D01*
X106863224Y-129635008D01*
X106664475Y-129712559D01*
X106656689Y-129715302D01*
X106465444Y-129775602D01*
X106463538Y-129776186D01*
X106258914Y-129837105D01*
X106250371Y-129839321D01*
X106054832Y-129882671D01*
X106053439Y-129882971D01*
X105844196Y-129926844D01*
X105834936Y-129928422D01*
X105637169Y-129954459D01*
X105636321Y-129954568D01*
X105423357Y-129981114D01*
X105413428Y-129981948D01*
X105217381Y-129990508D01*
X105217097Y-129990520D01*
X105002563Y-129999394D01*
X104997438Y-129999500D01*
X98972215Y-129999500D01*
X98902778Y-125000000D01*
X103614341Y-125000000D01*
X103634937Y-125235408D01*
X103636336Y-125240630D01*
X103636337Y-125240634D01*
X103694694Y-125458430D01*
X103694697Y-125458438D01*
X103696097Y-125463663D01*
X103795965Y-125677829D01*
X103931505Y-125871401D01*
X104098599Y-126038495D01*
X104292171Y-126174035D01*
X104506337Y-126273903D01*
X104734592Y-126335063D01*
X104911034Y-126350500D01*
X105026258Y-126350500D01*
X105028966Y-126350500D01*
X105205408Y-126335063D01*
X105433663Y-126273903D01*
X105647829Y-126174035D01*
X105841401Y-126038495D01*
X106008495Y-125871401D01*
X106144035Y-125677830D01*
X106243903Y-125463663D01*
X106305063Y-125235408D01*
X106325659Y-125000000D01*
X106305063Y-124764592D01*
X106243903Y-124536337D01*
X106144035Y-124322171D01*
X106008495Y-124128599D01*
X105841401Y-123961505D01*
X105647829Y-123825965D01*
X105433663Y-123726097D01*
X105428438Y-123724697D01*
X105428430Y-123724694D01*
X105210634Y-123666337D01*
X105210630Y-123666336D01*
X105205408Y-123664937D01*
X105200020Y-123664465D01*
X105200017Y-123664465D01*
X105031664Y-123649736D01*
X105031662Y-123649735D01*
X105028966Y-123649500D01*
X104911034Y-123649500D01*
X104908338Y-123649735D01*
X104908335Y-123649736D01*
X104739982Y-123664465D01*
X104739977Y-123664465D01*
X104734592Y-123664937D01*
X104729371Y-123666335D01*
X104729365Y-123666337D01*
X104511569Y-123724694D01*
X104511557Y-123724698D01*
X104506337Y-123726097D01*
X104501432Y-123728383D01*
X104501427Y-123728386D01*
X104297081Y-123823675D01*
X104297077Y-123823677D01*
X104292171Y-123825965D01*
X104287738Y-123829068D01*
X104287731Y-123829073D01*
X104103034Y-123958399D01*
X104103029Y-123958402D01*
X104098599Y-123961505D01*
X104094775Y-123965328D01*
X104094769Y-123965334D01*
X103935336Y-124124767D01*
X103935330Y-124124773D01*
X103931505Y-124128599D01*
X103928406Y-124133023D01*
X103928399Y-124133033D01*
X103799066Y-124317740D01*
X103799061Y-124317747D01*
X103795965Y-124322170D01*
X103793683Y-124327061D01*
X103793678Y-124327072D01*
X103698386Y-124531427D01*
X103698383Y-124531432D01*
X103696097Y-124536337D01*
X103694698Y-124541557D01*
X103694694Y-124541569D01*
X103636337Y-124759365D01*
X103636335Y-124759371D01*
X103634937Y-124764592D01*
X103614341Y-125000000D01*
X98902778Y-125000000D01*
X98500000Y-96000000D01*
X100000000Y-96000000D01*
X109999500Y-97428500D01*
G37*
%TD.AperFunction*%
%TD*%
M02*
