%TF.GenerationSoftware,KiCad,Pcbnew,(7.0.0-0)*%
%TF.CreationDate,2023-02-22T23:44:21-06:00*%
%TF.ProjectId,first_keeb,66697273-745f-46b6-9565-622e6b696361,rev?*%
%TF.SameCoordinates,Original*%
%TF.FileFunction,Soldermask,Bot*%
%TF.FilePolarity,Negative*%
%FSLAX46Y46*%
G04 Gerber Fmt 4.6, Leading zero omitted, Abs format (unit mm)*
G04 Created by KiCad (PCBNEW (7.0.0-0)) date 2023-02-22 23:44:21*
%MOMM*%
%LPD*%
G01*
G04 APERTURE LIST*
G04 Aperture macros list*
%AMRoundRect*
0 Rectangle with rounded corners*
0 $1 Rounding radius*
0 $2 $3 $4 $5 $6 $7 $8 $9 X,Y pos of 4 corners*
0 Add a 4 corners polygon primitive as box body*
4,1,4,$2,$3,$4,$5,$6,$7,$8,$9,$2,$3,0*
0 Add four circle primitives for the rounded corners*
1,1,$1+$1,$2,$3*
1,1,$1+$1,$4,$5*
1,1,$1+$1,$6,$7*
1,1,$1+$1,$8,$9*
0 Add four rect primitives between the rounded corners*
20,1,$1+$1,$2,$3,$4,$5,0*
20,1,$1+$1,$4,$5,$6,$7,0*
20,1,$1+$1,$6,$7,$8,$9,0*
20,1,$1+$1,$8,$9,$2,$3,0*%
G04 Aperture macros list end*
%ADD10C,2.200000*%
%ADD11C,2.000000*%
%ADD12C,1.700000*%
%ADD13O,1.600000X2.000000*%
%ADD14O,1.800000X1.800000*%
%ADD15O,1.500000X1.500000*%
%ADD16O,1.700000X1.700000*%
%ADD17R,1.700000X1.700000*%
%ADD18RoundRect,0.225000X0.225000X0.250000X-0.225000X0.250000X-0.225000X-0.250000X0.225000X-0.250000X0*%
%ADD19RoundRect,0.225000X-0.250000X0.225000X-0.250000X-0.225000X0.250000X-0.225000X0.250000X0.225000X0*%
%ADD20R,0.800000X0.900000*%
%ADD21RoundRect,0.225000X0.250000X-0.225000X0.250000X0.225000X-0.250000X0.225000X-0.250000X-0.225000X0*%
%ADD22RoundRect,0.200000X0.200000X0.275000X-0.200000X0.275000X-0.200000X-0.275000X0.200000X-0.275000X0*%
%ADD23RoundRect,0.200000X0.275000X-0.200000X0.275000X0.200000X-0.275000X0.200000X-0.275000X-0.200000X0*%
G04 APERTURE END LIST*
D10*
%TO.C,REF\u002A\u002A*%
X104970000Y-125000000D03*
%TD*%
D11*
%TO.C,REF\u002A\u002A*%
X93060000Y-124885000D03*
X86050000Y-124885000D03*
D12*
X91800000Y-127425000D03*
X87310000Y-127375000D03*
%TD*%
D11*
%TO.C,REF\u002A\u002A*%
X72490000Y-124885000D03*
X65480000Y-124885000D03*
D12*
X71230000Y-127425000D03*
X66740000Y-127375000D03*
%TD*%
D10*
%TO.C,REF\u002A\u002A*%
X104970000Y-70500000D03*
%TD*%
D13*
%TO.C,SSD1306*%
X82789999Y-70399999D03*
X80249999Y-70399999D03*
X77709999Y-70399999D03*
X75169999Y-70399999D03*
%TD*%
D10*
%TO.C,REF\u002A\u002A*%
X23470000Y-70500000D03*
%TD*%
D14*
%TO.C,U1*%
X37384999Y-67769999D03*
D15*
X37684999Y-70799999D03*
X42534999Y-70799999D03*
D14*
X42834999Y-67769999D03*
D16*
X31219999Y-67639999D03*
X31219999Y-70179999D03*
D17*
X31219999Y-72719999D03*
D16*
X31219999Y-75259999D03*
X31219999Y-77799999D03*
X31219999Y-80339999D03*
X31219999Y-82879999D03*
D17*
X31219999Y-85419999D03*
D16*
X31219999Y-87959999D03*
X31219999Y-90499999D03*
X31219999Y-93039999D03*
X31219999Y-95579999D03*
D17*
X31219999Y-98119999D03*
D16*
X31219999Y-100659999D03*
X31219999Y-103199999D03*
X31219999Y-105739999D03*
X31219999Y-108279999D03*
D17*
X31219999Y-110819999D03*
D16*
X31219999Y-113359999D03*
X31219999Y-115899999D03*
X48999999Y-115899999D03*
X48999999Y-113359999D03*
D17*
X48999999Y-110819999D03*
D16*
X48999999Y-108279999D03*
X48999999Y-105739999D03*
X48999999Y-103199999D03*
X48999999Y-100659999D03*
D17*
X48999999Y-98119999D03*
D16*
X48999999Y-95579999D03*
X48999999Y-93039999D03*
X48999999Y-90499999D03*
X48999999Y-87959999D03*
D17*
X48999999Y-85419999D03*
D16*
X48999999Y-82879999D03*
X48999999Y-80339999D03*
X48999999Y-77799999D03*
X48999999Y-75259999D03*
D17*
X48999999Y-72719999D03*
D16*
X48999999Y-70179999D03*
X48999999Y-67639999D03*
X37569999Y-115669999D03*
D17*
X40109999Y-115669999D03*
D16*
X42649999Y-115669999D03*
%TD*%
D12*
%TO.C,REF\u002A\u002A*%
X74330000Y-108195000D03*
X64170000Y-108195000D03*
%TD*%
%TO.C,REF\u002A\u002A*%
X94330000Y-108195000D03*
X84170000Y-108195000D03*
%TD*%
D10*
%TO.C,REF\u002A\u002A*%
X23470000Y-125000000D03*
%TD*%
D18*
%TO.C,CUP*%
X83125000Y-115895000D03*
X84675000Y-115895000D03*
%TD*%
D19*
%TO.C,CUP*%
X86680000Y-109110000D03*
X86680000Y-107560000D03*
%TD*%
D20*
%TO.C,SENS*%
X69159999Y-109284999D03*
X70109999Y-107284999D03*
X68209999Y-107284999D03*
%TD*%
D21*
%TO.C,RST*%
X44240000Y-93530000D03*
X44240000Y-95080000D03*
%TD*%
D22*
%TO.C,PULL*%
X42880000Y-105215000D03*
X44530000Y-105215000D03*
%TD*%
D18*
%TO.C,CUP*%
X64785000Y-105455000D03*
X66335000Y-105455000D03*
%TD*%
D23*
%TO.C,PULL*%
X45420000Y-97760000D03*
X45420000Y-99410000D03*
%TD*%
D20*
%TO.C,REF\u002A\u002A*%
X89519999Y-109484999D03*
X90469999Y-107484999D03*
X88569999Y-107484999D03*
%TD*%
D18*
%TO.C,CUP*%
X63510000Y-115145000D03*
X65060000Y-115145000D03*
%TD*%
M02*
