G04 #@! TF.GenerationSoftware,KiCad,Pcbnew,(7.0.0-0)*
G04 #@! TF.CreationDate,2023-03-01T01:27:21-06:00*
G04 #@! TF.ProjectId,RP2040_minimal,52503230-3430-45f6-9d69-6e696d616c2e,REV1*
G04 #@! TF.SameCoordinates,Original*
G04 #@! TF.FileFunction,Legend,Top*
G04 #@! TF.FilePolarity,Positive*
%FSLAX46Y46*%
G04 Gerber Fmt 4.6, Leading zero omitted, Abs format (unit mm)*
G04 Created by KiCad (PCBNEW (7.0.0-0)) date 2023-03-01 01:27:21*
%MOMM*%
%LPD*%
G01*
G04 APERTURE LIST*
%ADD10C,0.100000*%
%ADD11C,0.120000*%
%ADD12C,0.210000*%
%ADD13C,0.050000*%
G04 APERTURE END LIST*
D10*
X101673809Y-96716309D02*
X101673809Y-97216309D01*
X101673809Y-97216309D02*
X101483333Y-97216309D01*
X101483333Y-97216309D02*
X101435714Y-97192500D01*
X101435714Y-97192500D02*
X101411904Y-97168690D01*
X101411904Y-97168690D02*
X101388095Y-97121071D01*
X101388095Y-97121071D02*
X101388095Y-97049642D01*
X101388095Y-97049642D02*
X101411904Y-97002023D01*
X101411904Y-97002023D02*
X101435714Y-96978214D01*
X101435714Y-96978214D02*
X101483333Y-96954404D01*
X101483333Y-96954404D02*
X101673809Y-96954404D01*
X100888095Y-96763928D02*
X100911904Y-96740119D01*
X100911904Y-96740119D02*
X100983333Y-96716309D01*
X100983333Y-96716309D02*
X101030952Y-96716309D01*
X101030952Y-96716309D02*
X101102380Y-96740119D01*
X101102380Y-96740119D02*
X101149999Y-96787738D01*
X101149999Y-96787738D02*
X101173809Y-96835357D01*
X101173809Y-96835357D02*
X101197618Y-96930595D01*
X101197618Y-96930595D02*
X101197618Y-97002023D01*
X101197618Y-97002023D02*
X101173809Y-97097261D01*
X101173809Y-97097261D02*
X101149999Y-97144880D01*
X101149999Y-97144880D02*
X101102380Y-97192500D01*
X101102380Y-97192500D02*
X101030952Y-97216309D01*
X101030952Y-97216309D02*
X100983333Y-97216309D01*
X100983333Y-97216309D02*
X100911904Y-97192500D01*
X100911904Y-97192500D02*
X100888095Y-97168690D01*
X100507142Y-96978214D02*
X100435714Y-96954404D01*
X100435714Y-96954404D02*
X100411904Y-96930595D01*
X100411904Y-96930595D02*
X100388095Y-96882976D01*
X100388095Y-96882976D02*
X100388095Y-96811547D01*
X100388095Y-96811547D02*
X100411904Y-96763928D01*
X100411904Y-96763928D02*
X100435714Y-96740119D01*
X100435714Y-96740119D02*
X100483333Y-96716309D01*
X100483333Y-96716309D02*
X100673809Y-96716309D01*
X100673809Y-96716309D02*
X100673809Y-97216309D01*
X100673809Y-97216309D02*
X100507142Y-97216309D01*
X100507142Y-97216309D02*
X100459523Y-97192500D01*
X100459523Y-97192500D02*
X100435714Y-97168690D01*
X100435714Y-97168690D02*
X100411904Y-97121071D01*
X100411904Y-97121071D02*
X100411904Y-97073452D01*
X100411904Y-97073452D02*
X100435714Y-97025833D01*
X100435714Y-97025833D02*
X100459523Y-97002023D01*
X100459523Y-97002023D02*
X100507142Y-96978214D01*
X100507142Y-96978214D02*
X100673809Y-96978214D01*
X99873809Y-96978214D02*
X99707142Y-96978214D01*
X99635714Y-96716309D02*
X99873809Y-96716309D01*
X99873809Y-96716309D02*
X99873809Y-97216309D01*
X99873809Y-97216309D02*
X99635714Y-97216309D01*
X99207142Y-96716309D02*
X99207142Y-97216309D01*
X99207142Y-96740119D02*
X99254761Y-96716309D01*
X99254761Y-96716309D02*
X99349999Y-96716309D01*
X99349999Y-96716309D02*
X99397618Y-96740119D01*
X99397618Y-96740119D02*
X99421428Y-96763928D01*
X99421428Y-96763928D02*
X99445237Y-96811547D01*
X99445237Y-96811547D02*
X99445237Y-96954404D01*
X99445237Y-96954404D02*
X99421428Y-97002023D01*
X99421428Y-97002023D02*
X99397618Y-97025833D01*
X99397618Y-97025833D02*
X99349999Y-97049642D01*
X99349999Y-97049642D02*
X99254761Y-97049642D01*
X99254761Y-97049642D02*
X99207142Y-97025833D01*
X98754761Y-97049642D02*
X98754761Y-96644880D01*
X98754761Y-96644880D02*
X98778571Y-96597261D01*
X98778571Y-96597261D02*
X98802380Y-96573452D01*
X98802380Y-96573452D02*
X98849999Y-96549642D01*
X98849999Y-96549642D02*
X98921428Y-96549642D01*
X98921428Y-96549642D02*
X98969047Y-96573452D01*
X98754761Y-96740119D02*
X98802380Y-96716309D01*
X98802380Y-96716309D02*
X98897618Y-96716309D01*
X98897618Y-96716309D02*
X98945237Y-96740119D01*
X98945237Y-96740119D02*
X98969047Y-96763928D01*
X98969047Y-96763928D02*
X98992856Y-96811547D01*
X98992856Y-96811547D02*
X98992856Y-96954404D01*
X98992856Y-96954404D02*
X98969047Y-97002023D01*
X98969047Y-97002023D02*
X98945237Y-97025833D01*
X98945237Y-97025833D02*
X98897618Y-97049642D01*
X98897618Y-97049642D02*
X98802380Y-97049642D01*
X98802380Y-97049642D02*
X98754761Y-97025833D01*
X98326190Y-96740119D02*
X98373809Y-96716309D01*
X98373809Y-96716309D02*
X98469047Y-96716309D01*
X98469047Y-96716309D02*
X98516666Y-96740119D01*
X98516666Y-96740119D02*
X98540475Y-96787738D01*
X98540475Y-96787738D02*
X98540475Y-96978214D01*
X98540475Y-96978214D02*
X98516666Y-97025833D01*
X98516666Y-97025833D02*
X98469047Y-97049642D01*
X98469047Y-97049642D02*
X98373809Y-97049642D01*
X98373809Y-97049642D02*
X98326190Y-97025833D01*
X98326190Y-97025833D02*
X98302380Y-96978214D01*
X98302380Y-96978214D02*
X98302380Y-96930595D01*
X98302380Y-96930595D02*
X98540475Y-96882976D01*
D11*
X73515000Y-123015000D02*
X87485000Y-123015000D01*
X73515000Y-136985000D02*
X73515000Y-123015000D01*
X87485000Y-123015000D02*
X87485000Y-136985000D01*
X87485000Y-136985000D02*
X73515000Y-136985000D01*
X88000000Y-97380000D02*
X76570000Y-97380000D01*
D12*
X88000000Y-104000000D02*
X76570000Y-104000000D01*
X76570000Y-104000000D02*
X76570000Y-85100000D01*
X76570000Y-85100000D02*
X88000000Y-85100000D01*
X88000000Y-85100000D02*
X88000000Y-104000000D01*
D11*
X112515000Y-123015000D02*
X126485000Y-123015000D01*
X112515000Y-136985000D02*
X112515000Y-123015000D01*
X126485000Y-123015000D02*
X126485000Y-136985000D01*
X126485000Y-136985000D02*
X112515000Y-136985000D01*
X106985000Y-136985000D02*
X93015000Y-136985000D01*
X106985000Y-123015000D02*
X106985000Y-136985000D01*
X93015000Y-136985000D02*
X93015000Y-123015000D01*
X93015000Y-123015000D02*
X106985000Y-123015000D01*
X123430000Y-97380000D02*
X112000000Y-97380000D01*
D12*
X123430000Y-104000000D02*
X112000000Y-104000000D01*
X112000000Y-104000000D02*
X112000000Y-85100000D01*
X112000000Y-85100000D02*
X123430000Y-85100000D01*
X123430000Y-85100000D02*
X123430000Y-104000000D01*
D13*
X89290000Y-109030000D02*
X89290000Y-117830000D01*
X82090000Y-109030000D02*
X89290000Y-109030000D01*
X89290000Y-117830000D02*
X82090000Y-117830000D01*
X82090000Y-117830000D02*
X82090000Y-109030000D01*
D11*
X121060000Y-130000000D02*
X121060000Y-129200000D01*
X117940000Y-130000000D02*
X117940000Y-128200000D01*
X117940000Y-130000000D02*
X117940000Y-130800000D01*
D10*
X95530000Y-103675000D02*
X104470000Y-103675000D01*
X104470000Y-103675000D02*
X104470000Y-96325000D01*
X104470000Y-96325000D02*
X95530000Y-96325000D01*
X95530000Y-96325000D02*
X95530000Y-103675000D01*
D11*
X101560000Y-130000000D02*
X101560000Y-129200000D01*
X98440000Y-130000000D02*
X98440000Y-128200000D01*
X98440000Y-130000000D02*
X98440000Y-130800000D01*
X82060000Y-130000000D02*
X82060000Y-129200000D01*
X78940000Y-130000000D02*
X78940000Y-128200000D01*
X78940000Y-130000000D02*
X78940000Y-130800000D01*
M02*
