G04 #@! TF.GenerationSoftware,KiCad,Pcbnew,(7.0.0-0)*
G04 #@! TF.CreationDate,2023-03-01T01:27:21-06:00*
G04 #@! TF.ProjectId,RP2040_minimal,52503230-3430-45f6-9d69-6e696d616c2e,REV1*
G04 #@! TF.SameCoordinates,Original*
G04 #@! TF.FileFunction,Soldermask,Bot*
G04 #@! TF.FilePolarity,Negative*
%FSLAX46Y46*%
G04 Gerber Fmt 4.6, Leading zero omitted, Abs format (unit mm)*
G04 Created by KiCad (PCBNEW (7.0.0-0)) date 2023-03-01 01:27:21*
%MOMM*%
%LPD*%
G01*
G04 APERTURE LIST*
G04 Aperture macros list*
%AMRoundRect*
0 Rectangle with rounded corners*
0 $1 Rounding radius*
0 $2 $3 $4 $5 $6 $7 $8 $9 X,Y pos of 4 corners*
0 Add a 4 corners polygon primitive as box body*
4,1,4,$2,$3,$4,$5,$6,$7,$8,$9,$2,$3,0*
0 Add four circle primitives for the rounded corners*
1,1,$1+$1,$2,$3*
1,1,$1+$1,$4,$5*
1,1,$1+$1,$6,$7*
1,1,$1+$1,$8,$9*
0 Add four rect primitives between the rounded corners*
20,1,$1+$1,$2,$3,$4,$5,0*
20,1,$1+$1,$4,$5,$6,$7,0*
20,1,$1+$1,$6,$7,$8,$9,0*
20,1,$1+$1,$8,$9,$2,$3,0*%
G04 Aperture macros list end*
G04 #@! TA.AperFunction,Profile*
%ADD10C,0.120000*%
G04 #@! TD*
%ADD11RoundRect,0.198500X-0.172500X0.147500X-0.172500X-0.147500X0.172500X-0.147500X0.172500X0.147500X0*%
%ADD12C,1.802000*%
%ADD13C,2.102000*%
%ADD14C,2.802000*%
%ADD15RoundRect,0.294750X0.243750X0.456250X-0.243750X0.456250X-0.243750X-0.456250X0.243750X-0.456250X0*%
%ADD16RoundRect,0.198500X0.147500X0.172500X-0.147500X0.172500X-0.147500X-0.172500X0.147500X-0.172500X0*%
%ADD17RoundRect,0.198500X-0.147500X-0.172500X0.147500X-0.172500X0.147500X0.172500X-0.147500X0.172500X0*%
%ADD18RoundRect,0.051000X-0.750000X1.000000X-0.750000X-1.000000X0.750000X-1.000000X0.750000X1.000000X0*%
%ADD19RoundRect,0.051000X-1.900000X1.000000X-1.900000X-1.000000X1.900000X-1.000000X1.900000X1.000000X0*%
%ADD20RoundRect,0.201000X0.650000X0.150000X-0.650000X0.150000X-0.650000X-0.150000X0.650000X-0.150000X0*%
%ADD21RoundRect,0.198500X0.172500X-0.147500X0.172500X0.147500X-0.172500X0.147500X-0.172500X-0.147500X0*%
%ADD22RoundRect,0.101000X-0.050000X0.387500X-0.050000X-0.387500X0.050000X-0.387500X0.050000X0.387500X0*%
%ADD23RoundRect,0.101000X-0.387500X0.050000X-0.387500X-0.050000X0.387500X-0.050000X0.387500X0.050000X0*%
%ADD24RoundRect,0.195000X-1.456000X1.456000X-1.456000X-1.456000X1.456000X-1.456000X1.456000X1.456000X0*%
%ADD25RoundRect,0.051000X-1.300000X0.950000X-1.300000X-0.950000X1.300000X-0.950000X1.300000X0.950000X0*%
%ADD26RoundRect,0.191000X0.140000X0.170000X-0.140000X0.170000X-0.140000X-0.170000X0.140000X-0.170000X0*%
%ADD27RoundRect,0.051000X-0.850000X-0.410000X0.850000X-0.410000X0.850000X0.410000X-0.850000X0.410000X0*%
%ADD28RoundRect,0.256000X-0.645000X-0.205000X0.645000X-0.205000X0.645000X0.205000X-0.645000X0.205000X0*%
%ADD29RoundRect,0.191000X-0.140000X-0.170000X0.140000X-0.170000X0.140000X0.170000X-0.140000X0.170000X0*%
%ADD30RoundRect,0.051000X0.750570X-0.449580X0.750570X0.449580X-0.750570X0.449580X-0.750570X-0.449580X0*%
%ADD31RoundRect,0.201000X-0.150000X0.512500X-0.150000X-0.512500X0.150000X-0.512500X0.150000X0.512500X0*%
%ADD32RoundRect,0.051000X-0.450000X-0.400000X0.450000X-0.400000X0.450000X0.400000X-0.450000X0.400000X0*%
%ADD33C,0.752000*%
%ADD34RoundRect,0.051000X-0.300000X-0.575000X0.300000X-0.575000X0.300000X0.575000X-0.300000X0.575000X0*%
%ADD35RoundRect,0.051000X-0.150000X-0.575000X0.150000X-0.575000X0.150000X0.575000X-0.150000X0.575000X0*%
%ADD36O,1.102000X1.902000*%
%ADD37O,1.102000X2.202000*%
%ADD38RoundRect,0.051000X0.500000X0.500000X-0.500000X0.500000X-0.500000X-0.500000X0.500000X-0.500000X0*%
%ADD39RoundRect,0.050000X0.350000X-0.500000X0.350000X0.500000X-0.350000X0.500000X-0.350000X-0.500000X0*%
%ADD40RoundRect,0.050000X0.350000X-0.300000X0.350000X0.300000X-0.350000X0.300000X-0.350000X-0.300000X0*%
%ADD41RoundRect,0.201000X-0.587500X-0.150000X0.587500X-0.150000X0.587500X0.150000X-0.587500X0.150000X0*%
%ADD42RoundRect,0.191000X-0.170000X0.140000X-0.170000X-0.140000X0.170000X-0.140000X0.170000X0.140000X0*%
%ADD43RoundRect,0.191000X0.170000X-0.140000X0.170000X0.140000X-0.170000X0.140000X-0.170000X-0.140000X0*%
%ADD44RoundRect,0.051000X-0.750570X0.449580X-0.750570X-0.449580X0.750570X-0.449580X0.750570X0.449580X0*%
%ADD45RoundRect,0.301000X0.375000X0.625000X-0.375000X0.625000X-0.375000X-0.625000X0.375000X-0.625000X0*%
G04 APERTURE END LIST*
D10*
X117780000Y-132580000D02*
X117780000Y-135580000D01*
X117780000Y-135580000D02*
X121180000Y-135580000D01*
X121180000Y-132580000D02*
X117780000Y-132580000D01*
X121180000Y-135580000D02*
X121180000Y-132580000D01*
X98330000Y-132745000D02*
X98330000Y-135745000D01*
X98330000Y-135745000D02*
X101730000Y-135745000D01*
X101730000Y-132745000D02*
X98330000Y-132745000D01*
X101730000Y-135745000D02*
X101730000Y-132745000D01*
X78780000Y-132875000D02*
X78780000Y-135875000D01*
X78780000Y-135875000D02*
X82180000Y-135875000D01*
X82180000Y-132875000D02*
X78780000Y-132875000D01*
X82180000Y-135875000D02*
X82180000Y-132875000D01*
D11*
X110580000Y-121445000D03*
X110580000Y-122415000D03*
X108550000Y-122315000D03*
X108550000Y-123285000D03*
D12*
X75420000Y-130000000D03*
X85580000Y-130000000D03*
X84708000Y-99990000D03*
X80218000Y-99940000D03*
D13*
X85968000Y-102480000D03*
X78958000Y-102480000D03*
D12*
X114420000Y-130000000D03*
X124580000Y-130000000D03*
X105080000Y-130000000D03*
X94920000Y-130000000D03*
D14*
X67000000Y-103000000D03*
X67000000Y-151000000D03*
D12*
X120138000Y-99990000D03*
X115648000Y-99940000D03*
D13*
X121398000Y-102480000D03*
X114388000Y-102480000D03*
D14*
X134000000Y-103000000D03*
X134000000Y-151000000D03*
D15*
X86652500Y-119500000D03*
X84777500Y-119500000D03*
D16*
X107597500Y-120730000D03*
X106627500Y-120730000D03*
X107597500Y-119730000D03*
X106627500Y-119730000D03*
D17*
X114667500Y-121777500D03*
X115637500Y-121777500D03*
D18*
X83390000Y-110280000D03*
X85690000Y-110280000D03*
D19*
X85690000Y-116580000D03*
D18*
X87990000Y-110280000D03*
D20*
X114307500Y-106092500D03*
X114307500Y-107362500D03*
X114307500Y-108632500D03*
X114307500Y-109902500D03*
X107107500Y-109902500D03*
X107107500Y-108632500D03*
X107107500Y-107362500D03*
X107107500Y-106092500D03*
D11*
X122662500Y-115762500D03*
X122662500Y-116732500D03*
D16*
X106597500Y-116730000D03*
X105627500Y-116730000D03*
D17*
X111012500Y-111827500D03*
X111982500Y-111827500D03*
X119662500Y-117143500D03*
X120632500Y-117143500D03*
X106741624Y-117715000D03*
X107711624Y-117715000D03*
X119662500Y-118262500D03*
X120632500Y-118262500D03*
D15*
X85437500Y-106800000D03*
X83562500Y-106800000D03*
D17*
X114752500Y-111765000D03*
X115722500Y-111765000D03*
D21*
X111007500Y-104452500D03*
X111007500Y-103482500D03*
D22*
X111037500Y-113290000D03*
X111437500Y-113290000D03*
X111837500Y-113290000D03*
X112237500Y-113290000D03*
X112637500Y-113290000D03*
X113037500Y-113290000D03*
X113437500Y-113290000D03*
X113837500Y-113290000D03*
X114237500Y-113290000D03*
X114637500Y-113290000D03*
X115037500Y-113290000D03*
X115437500Y-113290000D03*
X115837500Y-113290000D03*
X116237500Y-113290000D03*
D23*
X117075000Y-114127500D03*
X117075000Y-114527500D03*
X117075000Y-114927500D03*
X117075000Y-115327500D03*
X117075000Y-115727500D03*
X117075000Y-116127500D03*
X117075000Y-116527500D03*
X117075000Y-116927500D03*
X117075000Y-117327500D03*
X117075000Y-117727500D03*
X117075000Y-118127500D03*
X117075000Y-118527500D03*
X117075000Y-118927500D03*
X117075000Y-119327500D03*
D22*
X116237500Y-120165000D03*
X115837500Y-120165000D03*
X115437500Y-120165000D03*
X115037500Y-120165000D03*
X114637500Y-120165000D03*
X114237500Y-120165000D03*
X113837500Y-120165000D03*
X113437500Y-120165000D03*
X113037500Y-120165000D03*
X112637500Y-120165000D03*
X112237500Y-120165000D03*
X111837500Y-120165000D03*
X111437500Y-120165000D03*
X111037500Y-120165000D03*
D23*
X110200000Y-119327500D03*
X110200000Y-118927500D03*
X110200000Y-118527500D03*
X110200000Y-118127500D03*
X110200000Y-117727500D03*
X110200000Y-117327500D03*
X110200000Y-116927500D03*
X110200000Y-116527500D03*
X110200000Y-116127500D03*
X110200000Y-115727500D03*
X110200000Y-115327500D03*
X110200000Y-114927500D03*
X110200000Y-114527500D03*
X110200000Y-114127500D03*
D24*
X113637500Y-116727500D03*
D21*
X122662500Y-113762500D03*
X122662500Y-112792500D03*
D17*
X106741624Y-118715000D03*
X107711624Y-118715000D03*
D16*
X106597500Y-115730000D03*
X105627500Y-115730000D03*
D21*
X109607500Y-104452500D03*
X109607500Y-103482500D03*
D17*
X120292500Y-115462500D03*
X121262500Y-115462500D03*
D25*
X126778500Y-112453500D03*
X126778500Y-116753500D03*
D26*
X78150000Y-128567500D03*
X77190000Y-128567500D03*
X63920000Y-143665000D03*
X62960000Y-143665000D03*
D27*
X116930000Y-133330000D03*
X116930000Y-134830000D03*
D28*
X122030000Y-134830000D03*
D27*
X122030000Y-133330000D03*
D29*
X105030000Y-137515000D03*
X105990000Y-137515000D03*
D30*
X130589360Y-104829800D03*
X130589360Y-108030200D03*
X125590640Y-108030200D03*
X125590640Y-104829800D03*
X133739360Y-141459800D03*
X133739360Y-144660200D03*
X128740640Y-144660200D03*
X128740640Y-141459800D03*
D17*
X95725000Y-118980000D03*
X96695000Y-118980000D03*
D31*
X118550000Y-128862500D03*
X120450000Y-128862500D03*
X119500000Y-131137500D03*
D32*
X120010000Y-107830000D03*
X120010000Y-105930000D03*
X122010000Y-106880000D03*
D33*
X97110000Y-102605000D03*
X102890000Y-102605000D03*
D34*
X96800000Y-103680000D03*
X97600000Y-103680000D03*
D35*
X98750000Y-103680000D03*
X99750000Y-103680000D03*
X100250000Y-103680000D03*
X101250000Y-103680000D03*
D34*
X102400000Y-103680000D03*
X103200000Y-103680000D03*
X103200000Y-103680000D03*
X102400000Y-103680000D03*
D35*
X101750000Y-103680000D03*
X100750000Y-103680000D03*
X99250000Y-103680000D03*
X98250000Y-103680000D03*
D34*
X97600000Y-103680000D03*
X96800000Y-103680000D03*
D36*
X95679999Y-98924999D03*
D37*
X95679999Y-103104999D03*
D36*
X104319999Y-98924999D03*
D37*
X104319999Y-103104999D03*
D17*
X88735000Y-120530000D03*
X89705000Y-120530000D03*
D30*
X74639360Y-111769800D03*
X74639360Y-114970200D03*
X69640640Y-114970200D03*
X69640640Y-111769800D03*
D38*
X116440000Y-105200000D03*
D29*
X85030000Y-137655000D03*
X85990000Y-137655000D03*
D39*
X98035000Y-109890000D03*
D40*
X98035000Y-108190000D03*
X100035000Y-108190000D03*
X100035000Y-110090000D03*
D31*
X99050000Y-128862500D03*
X100950000Y-128862500D03*
X100000000Y-131137500D03*
D38*
X118770000Y-122090000D03*
D41*
X91892500Y-120250000D03*
X91892500Y-118350000D03*
X93767500Y-119300000D03*
D42*
X98080000Y-105430000D03*
X98080000Y-106390000D03*
X123640000Y-105760000D03*
X123640000Y-106720000D03*
D31*
X79550000Y-128862500D03*
X81450000Y-128862500D03*
X80500000Y-131137500D03*
D11*
X109520000Y-122425000D03*
X109520000Y-121455000D03*
D29*
X124550000Y-137935000D03*
X125510000Y-137935000D03*
D42*
X135470000Y-145920000D03*
X135470000Y-146880000D03*
X76280000Y-112710000D03*
X76280000Y-113670000D03*
D26*
X97720000Y-128580000D03*
X96760000Y-128580000D03*
D42*
X102270000Y-105470000D03*
X102270000Y-106430000D03*
D26*
X117240000Y-128580000D03*
X116280000Y-128580000D03*
D27*
X97480000Y-133495000D03*
X97480000Y-134995000D03*
D28*
X102580000Y-134995000D03*
D27*
X102580000Y-133495000D03*
X77930000Y-133625000D03*
X77930000Y-135125000D03*
D28*
X83030000Y-135125000D03*
D27*
X83030000Y-133625000D03*
D43*
X118710000Y-107610000D03*
X118710000Y-106650000D03*
D44*
X66530640Y-145190200D03*
X66530640Y-141989800D03*
X71529360Y-141989800D03*
X71529360Y-145190200D03*
D29*
X113570000Y-104540000D03*
X114530000Y-104540000D03*
D45*
X94360000Y-109550000D03*
X91560000Y-109550000D03*
M02*
