G04 #@! TF.GenerationSoftware,KiCad,Pcbnew,(7.0.0-0)*
G04 #@! TF.CreationDate,2023-03-01T01:27:21-06:00*
G04 #@! TF.ProjectId,RP2040_minimal,52503230-3430-45f6-9d69-6e696d616c2e,REV1*
G04 #@! TF.SameCoordinates,Original*
G04 #@! TF.FileFunction,Legend,Bot*
G04 #@! TF.FilePolarity,Positive*
%FSLAX46Y46*%
G04 Gerber Fmt 4.6, Leading zero omitted, Abs format (unit mm)*
G04 Created by KiCad (PCBNEW (7.0.0-0)) date 2023-03-01 01:27:21*
%MOMM*%
%LPD*%
G01*
G04 APERTURE LIST*
%ADD10C,0.150000*%
%ADD11C,0.200000*%
%ADD12C,0.120000*%
%ADD13C,0.100000*%
G04 APERTURE END LIST*
D10*
X101879880Y-107589821D02*
X102689404Y-107589821D01*
X102689404Y-107589821D02*
X102784642Y-107637440D01*
X102784642Y-107637440D02*
X102832261Y-107685059D01*
X102832261Y-107685059D02*
X102879880Y-107780297D01*
X102879880Y-107780297D02*
X102879880Y-107970773D01*
X102879880Y-107970773D02*
X102832261Y-108066011D01*
X102832261Y-108066011D02*
X102784642Y-108113630D01*
X102784642Y-108113630D02*
X102689404Y-108161249D01*
X102689404Y-108161249D02*
X101879880Y-108161249D01*
X102832261Y-108589821D02*
X102879880Y-108732678D01*
X102879880Y-108732678D02*
X102879880Y-108970773D01*
X102879880Y-108970773D02*
X102832261Y-109066011D01*
X102832261Y-109066011D02*
X102784642Y-109113630D01*
X102784642Y-109113630D02*
X102689404Y-109161249D01*
X102689404Y-109161249D02*
X102594166Y-109161249D01*
X102594166Y-109161249D02*
X102498928Y-109113630D01*
X102498928Y-109113630D02*
X102451309Y-109066011D01*
X102451309Y-109066011D02*
X102403690Y-108970773D01*
X102403690Y-108970773D02*
X102356071Y-108780297D01*
X102356071Y-108780297D02*
X102308452Y-108685059D01*
X102308452Y-108685059D02*
X102260833Y-108637440D01*
X102260833Y-108637440D02*
X102165595Y-108589821D01*
X102165595Y-108589821D02*
X102070357Y-108589821D01*
X102070357Y-108589821D02*
X101975119Y-108637440D01*
X101975119Y-108637440D02*
X101927500Y-108685059D01*
X101927500Y-108685059D02*
X101879880Y-108780297D01*
X101879880Y-108780297D02*
X101879880Y-109018392D01*
X101879880Y-109018392D02*
X101927500Y-109161249D01*
X102356071Y-109923154D02*
X102403690Y-110066011D01*
X102403690Y-110066011D02*
X102451309Y-110113630D01*
X102451309Y-110113630D02*
X102546547Y-110161249D01*
X102546547Y-110161249D02*
X102689404Y-110161249D01*
X102689404Y-110161249D02*
X102784642Y-110113630D01*
X102784642Y-110113630D02*
X102832261Y-110066011D01*
X102832261Y-110066011D02*
X102879880Y-109970773D01*
X102879880Y-109970773D02*
X102879880Y-109589821D01*
X102879880Y-109589821D02*
X101879880Y-109589821D01*
X101879880Y-109589821D02*
X101879880Y-109923154D01*
X101879880Y-109923154D02*
X101927500Y-110018392D01*
X101927500Y-110018392D02*
X101975119Y-110066011D01*
X101975119Y-110066011D02*
X102070357Y-110113630D01*
X102070357Y-110113630D02*
X102165595Y-110113630D01*
X102165595Y-110113630D02*
X102260833Y-110066011D01*
X102260833Y-110066011D02*
X102308452Y-110018392D01*
X102308452Y-110018392D02*
X102356071Y-109923154D01*
X102356071Y-109923154D02*
X102356071Y-109589821D01*
X102975119Y-110351726D02*
X102975119Y-111113630D01*
X102356071Y-111685059D02*
X102403690Y-111827916D01*
X102403690Y-111827916D02*
X102451309Y-111875535D01*
X102451309Y-111875535D02*
X102546547Y-111923154D01*
X102546547Y-111923154D02*
X102689404Y-111923154D01*
X102689404Y-111923154D02*
X102784642Y-111875535D01*
X102784642Y-111875535D02*
X102832261Y-111827916D01*
X102832261Y-111827916D02*
X102879880Y-111732678D01*
X102879880Y-111732678D02*
X102879880Y-111351726D01*
X102879880Y-111351726D02*
X101879880Y-111351726D01*
X101879880Y-111351726D02*
X101879880Y-111685059D01*
X101879880Y-111685059D02*
X101927500Y-111780297D01*
X101927500Y-111780297D02*
X101975119Y-111827916D01*
X101975119Y-111827916D02*
X102070357Y-111875535D01*
X102070357Y-111875535D02*
X102165595Y-111875535D01*
X102165595Y-111875535D02*
X102260833Y-111827916D01*
X102260833Y-111827916D02*
X102308452Y-111780297D01*
X102308452Y-111780297D02*
X102356071Y-111685059D01*
X102356071Y-111685059D02*
X102356071Y-111351726D01*
X101879880Y-112542202D02*
X101879880Y-112732678D01*
X101879880Y-112732678D02*
X101927500Y-112827916D01*
X101927500Y-112827916D02*
X102022738Y-112923154D01*
X102022738Y-112923154D02*
X102213214Y-112970773D01*
X102213214Y-112970773D02*
X102546547Y-112970773D01*
X102546547Y-112970773D02*
X102737023Y-112923154D01*
X102737023Y-112923154D02*
X102832261Y-112827916D01*
X102832261Y-112827916D02*
X102879880Y-112732678D01*
X102879880Y-112732678D02*
X102879880Y-112542202D01*
X102879880Y-112542202D02*
X102832261Y-112446964D01*
X102832261Y-112446964D02*
X102737023Y-112351726D01*
X102737023Y-112351726D02*
X102546547Y-112304107D01*
X102546547Y-112304107D02*
X102213214Y-112304107D01*
X102213214Y-112304107D02*
X102022738Y-112351726D01*
X102022738Y-112351726D02*
X101927500Y-112446964D01*
X101927500Y-112446964D02*
X101879880Y-112542202D01*
X101879880Y-113589821D02*
X101879880Y-113780297D01*
X101879880Y-113780297D02*
X101927500Y-113875535D01*
X101927500Y-113875535D02*
X102022738Y-113970773D01*
X102022738Y-113970773D02*
X102213214Y-114018392D01*
X102213214Y-114018392D02*
X102546547Y-114018392D01*
X102546547Y-114018392D02*
X102737023Y-113970773D01*
X102737023Y-113970773D02*
X102832261Y-113875535D01*
X102832261Y-113875535D02*
X102879880Y-113780297D01*
X102879880Y-113780297D02*
X102879880Y-113589821D01*
X102879880Y-113589821D02*
X102832261Y-113494583D01*
X102832261Y-113494583D02*
X102737023Y-113399345D01*
X102737023Y-113399345D02*
X102546547Y-113351726D01*
X102546547Y-113351726D02*
X102213214Y-113351726D01*
X102213214Y-113351726D02*
X102022738Y-113399345D01*
X102022738Y-113399345D02*
X101927500Y-113494583D01*
X101927500Y-113494583D02*
X101879880Y-113589821D01*
X101879880Y-114304107D02*
X101879880Y-114875535D01*
X102879880Y-114589821D02*
X101879880Y-114589821D01*
X86357857Y-118122142D02*
X86405476Y-118169761D01*
X86405476Y-118169761D02*
X86548333Y-118217380D01*
X86548333Y-118217380D02*
X86643571Y-118217380D01*
X86643571Y-118217380D02*
X86786428Y-118169761D01*
X86786428Y-118169761D02*
X86881666Y-118074523D01*
X86881666Y-118074523D02*
X86929285Y-117979285D01*
X86929285Y-117979285D02*
X86976904Y-117788809D01*
X86976904Y-117788809D02*
X86976904Y-117645952D01*
X86976904Y-117645952D02*
X86929285Y-117455476D01*
X86929285Y-117455476D02*
X86881666Y-117360238D01*
X86881666Y-117360238D02*
X86786428Y-117265000D01*
X86786428Y-117265000D02*
X86643571Y-117217380D01*
X86643571Y-117217380D02*
X86548333Y-117217380D01*
X86548333Y-117217380D02*
X86405476Y-117265000D01*
X86405476Y-117265000D02*
X86357857Y-117312619D01*
X85405476Y-118217380D02*
X85976904Y-118217380D01*
X85691190Y-118217380D02*
X85691190Y-117217380D01*
X85691190Y-117217380D02*
X85786428Y-117360238D01*
X85786428Y-117360238D02*
X85881666Y-117455476D01*
X85881666Y-117455476D02*
X85976904Y-117503095D01*
X84453095Y-118217380D02*
X85024523Y-118217380D01*
X84738809Y-118217380D02*
X84738809Y-117217380D01*
X84738809Y-117217380D02*
X84834047Y-117360238D01*
X84834047Y-117360238D02*
X84929285Y-117455476D01*
X84929285Y-117455476D02*
X85024523Y-117503095D01*
X103740357Y-121992142D02*
X103787976Y-122039761D01*
X103787976Y-122039761D02*
X103930833Y-122087380D01*
X103930833Y-122087380D02*
X104026071Y-122087380D01*
X104026071Y-122087380D02*
X104168928Y-122039761D01*
X104168928Y-122039761D02*
X104264166Y-121944523D01*
X104264166Y-121944523D02*
X104311785Y-121849285D01*
X104311785Y-121849285D02*
X104359404Y-121658809D01*
X104359404Y-121658809D02*
X104359404Y-121515952D01*
X104359404Y-121515952D02*
X104311785Y-121325476D01*
X104311785Y-121325476D02*
X104264166Y-121230238D01*
X104264166Y-121230238D02*
X104168928Y-121135000D01*
X104168928Y-121135000D02*
X104026071Y-121087380D01*
X104026071Y-121087380D02*
X103930833Y-121087380D01*
X103930833Y-121087380D02*
X103787976Y-121135000D01*
X103787976Y-121135000D02*
X103740357Y-121182619D01*
X102787976Y-122087380D02*
X103359404Y-122087380D01*
X103073690Y-122087380D02*
X103073690Y-121087380D01*
X103073690Y-121087380D02*
X103168928Y-121230238D01*
X103168928Y-121230238D02*
X103264166Y-121325476D01*
X103264166Y-121325476D02*
X103359404Y-121373095D01*
X102454642Y-121087380D02*
X101835595Y-121087380D01*
X101835595Y-121087380D02*
X102168928Y-121468333D01*
X102168928Y-121468333D02*
X102026071Y-121468333D01*
X102026071Y-121468333D02*
X101930833Y-121515952D01*
X101930833Y-121515952D02*
X101883214Y-121563571D01*
X101883214Y-121563571D02*
X101835595Y-121658809D01*
X101835595Y-121658809D02*
X101835595Y-121896904D01*
X101835595Y-121896904D02*
X101883214Y-121992142D01*
X101883214Y-121992142D02*
X101930833Y-122039761D01*
X101930833Y-122039761D02*
X102026071Y-122087380D01*
X102026071Y-122087380D02*
X102311785Y-122087380D01*
X102311785Y-122087380D02*
X102407023Y-122039761D01*
X102407023Y-122039761D02*
X102454642Y-121992142D01*
X104240357Y-120692142D02*
X104287976Y-120739761D01*
X104287976Y-120739761D02*
X104430833Y-120787380D01*
X104430833Y-120787380D02*
X104526071Y-120787380D01*
X104526071Y-120787380D02*
X104668928Y-120739761D01*
X104668928Y-120739761D02*
X104764166Y-120644523D01*
X104764166Y-120644523D02*
X104811785Y-120549285D01*
X104811785Y-120549285D02*
X104859404Y-120358809D01*
X104859404Y-120358809D02*
X104859404Y-120215952D01*
X104859404Y-120215952D02*
X104811785Y-120025476D01*
X104811785Y-120025476D02*
X104764166Y-119930238D01*
X104764166Y-119930238D02*
X104668928Y-119835000D01*
X104668928Y-119835000D02*
X104526071Y-119787380D01*
X104526071Y-119787380D02*
X104430833Y-119787380D01*
X104430833Y-119787380D02*
X104287976Y-119835000D01*
X104287976Y-119835000D02*
X104240357Y-119882619D01*
X103287976Y-120787380D02*
X103859404Y-120787380D01*
X103573690Y-120787380D02*
X103573690Y-119787380D01*
X103573690Y-119787380D02*
X103668928Y-119930238D01*
X103668928Y-119930238D02*
X103764166Y-120025476D01*
X103764166Y-120025476D02*
X103859404Y-120073095D01*
X102907023Y-119882619D02*
X102859404Y-119835000D01*
X102859404Y-119835000D02*
X102764166Y-119787380D01*
X102764166Y-119787380D02*
X102526071Y-119787380D01*
X102526071Y-119787380D02*
X102430833Y-119835000D01*
X102430833Y-119835000D02*
X102383214Y-119882619D01*
X102383214Y-119882619D02*
X102335595Y-119977857D01*
X102335595Y-119977857D02*
X102335595Y-120073095D01*
X102335595Y-120073095D02*
X102383214Y-120215952D01*
X102383214Y-120215952D02*
X102954642Y-120787380D01*
X102954642Y-120787380D02*
X102335595Y-120787380D01*
X115319166Y-123219642D02*
X115366785Y-123267261D01*
X115366785Y-123267261D02*
X115509642Y-123314880D01*
X115509642Y-123314880D02*
X115604880Y-123314880D01*
X115604880Y-123314880D02*
X115747737Y-123267261D01*
X115747737Y-123267261D02*
X115842975Y-123172023D01*
X115842975Y-123172023D02*
X115890594Y-123076785D01*
X115890594Y-123076785D02*
X115938213Y-122886309D01*
X115938213Y-122886309D02*
X115938213Y-122743452D01*
X115938213Y-122743452D02*
X115890594Y-122552976D01*
X115890594Y-122552976D02*
X115842975Y-122457738D01*
X115842975Y-122457738D02*
X115747737Y-122362500D01*
X115747737Y-122362500D02*
X115604880Y-122314880D01*
X115604880Y-122314880D02*
X115509642Y-122314880D01*
X115509642Y-122314880D02*
X115366785Y-122362500D01*
X115366785Y-122362500D02*
X115319166Y-122410119D01*
X114985832Y-122314880D02*
X114366785Y-122314880D01*
X114366785Y-122314880D02*
X114700118Y-122695833D01*
X114700118Y-122695833D02*
X114557261Y-122695833D01*
X114557261Y-122695833D02*
X114462023Y-122743452D01*
X114462023Y-122743452D02*
X114414404Y-122791071D01*
X114414404Y-122791071D02*
X114366785Y-122886309D01*
X114366785Y-122886309D02*
X114366785Y-123124404D01*
X114366785Y-123124404D02*
X114414404Y-123219642D01*
X114414404Y-123219642D02*
X114462023Y-123267261D01*
X114462023Y-123267261D02*
X114557261Y-123314880D01*
X114557261Y-123314880D02*
X114842975Y-123314880D01*
X114842975Y-123314880D02*
X114938213Y-123267261D01*
X114938213Y-123267261D02*
X114985832Y-123219642D01*
X81951904Y-112797380D02*
X81951904Y-113606904D01*
X81951904Y-113606904D02*
X81904285Y-113702142D01*
X81904285Y-113702142D02*
X81856666Y-113749761D01*
X81856666Y-113749761D02*
X81761428Y-113797380D01*
X81761428Y-113797380D02*
X81570952Y-113797380D01*
X81570952Y-113797380D02*
X81475714Y-113749761D01*
X81475714Y-113749761D02*
X81428095Y-113702142D01*
X81428095Y-113702142D02*
X81380476Y-113606904D01*
X81380476Y-113606904D02*
X81380476Y-112797380D01*
X80380476Y-113797380D02*
X80951904Y-113797380D01*
X80666190Y-113797380D02*
X80666190Y-112797380D01*
X80666190Y-112797380D02*
X80761428Y-112940238D01*
X80761428Y-112940238D02*
X80856666Y-113035476D01*
X80856666Y-113035476D02*
X80951904Y-113083095D01*
X111469404Y-111089880D02*
X111469404Y-111899404D01*
X111469404Y-111899404D02*
X111421785Y-111994642D01*
X111421785Y-111994642D02*
X111374166Y-112042261D01*
X111374166Y-112042261D02*
X111278928Y-112089880D01*
X111278928Y-112089880D02*
X111088452Y-112089880D01*
X111088452Y-112089880D02*
X110993214Y-112042261D01*
X110993214Y-112042261D02*
X110945595Y-111994642D01*
X110945595Y-111994642D02*
X110897976Y-111899404D01*
X110897976Y-111899404D02*
X110897976Y-111089880D01*
X110517023Y-111089880D02*
X109897976Y-111089880D01*
X109897976Y-111089880D02*
X110231309Y-111470833D01*
X110231309Y-111470833D02*
X110088452Y-111470833D01*
X110088452Y-111470833D02*
X109993214Y-111518452D01*
X109993214Y-111518452D02*
X109945595Y-111566071D01*
X109945595Y-111566071D02*
X109897976Y-111661309D01*
X109897976Y-111661309D02*
X109897976Y-111899404D01*
X109897976Y-111899404D02*
X109945595Y-111994642D01*
X109945595Y-111994642D02*
X109993214Y-112042261D01*
X109993214Y-112042261D02*
X110088452Y-112089880D01*
X110088452Y-112089880D02*
X110374166Y-112089880D01*
X110374166Y-112089880D02*
X110469404Y-112042261D01*
X110469404Y-112042261D02*
X110517023Y-111994642D01*
X123748642Y-117389642D02*
X123796261Y-117342023D01*
X123796261Y-117342023D02*
X123843880Y-117199166D01*
X123843880Y-117199166D02*
X123843880Y-117103928D01*
X123843880Y-117103928D02*
X123796261Y-116961071D01*
X123796261Y-116961071D02*
X123701023Y-116865833D01*
X123701023Y-116865833D02*
X123605785Y-116818214D01*
X123605785Y-116818214D02*
X123415309Y-116770595D01*
X123415309Y-116770595D02*
X123272452Y-116770595D01*
X123272452Y-116770595D02*
X123081976Y-116818214D01*
X123081976Y-116818214D02*
X122986738Y-116865833D01*
X122986738Y-116865833D02*
X122891500Y-116961071D01*
X122891500Y-116961071D02*
X122843880Y-117103928D01*
X122843880Y-117103928D02*
X122843880Y-117199166D01*
X122843880Y-117199166D02*
X122891500Y-117342023D01*
X122891500Y-117342023D02*
X122939119Y-117389642D01*
X123843880Y-118342023D02*
X123843880Y-117770595D01*
X123843880Y-118056309D02*
X122843880Y-118056309D01*
X122843880Y-118056309D02*
X122986738Y-117961071D01*
X122986738Y-117961071D02*
X123081976Y-117865833D01*
X123081976Y-117865833D02*
X123129595Y-117770595D01*
X123272452Y-118913452D02*
X123224833Y-118818214D01*
X123224833Y-118818214D02*
X123177214Y-118770595D01*
X123177214Y-118770595D02*
X123081976Y-118722976D01*
X123081976Y-118722976D02*
X123034357Y-118722976D01*
X123034357Y-118722976D02*
X122939119Y-118770595D01*
X122939119Y-118770595D02*
X122891500Y-118818214D01*
X122891500Y-118818214D02*
X122843880Y-118913452D01*
X122843880Y-118913452D02*
X122843880Y-119103928D01*
X122843880Y-119103928D02*
X122891500Y-119199166D01*
X122891500Y-119199166D02*
X122939119Y-119246785D01*
X122939119Y-119246785D02*
X123034357Y-119294404D01*
X123034357Y-119294404D02*
X123081976Y-119294404D01*
X123081976Y-119294404D02*
X123177214Y-119246785D01*
X123177214Y-119246785D02*
X123224833Y-119199166D01*
X123224833Y-119199166D02*
X123272452Y-119103928D01*
X123272452Y-119103928D02*
X123272452Y-118913452D01*
X123272452Y-118913452D02*
X123320071Y-118818214D01*
X123320071Y-118818214D02*
X123367690Y-118770595D01*
X123367690Y-118770595D02*
X123462928Y-118722976D01*
X123462928Y-118722976D02*
X123653404Y-118722976D01*
X123653404Y-118722976D02*
X123748642Y-118770595D01*
X123748642Y-118770595D02*
X123796261Y-118818214D01*
X123796261Y-118818214D02*
X123843880Y-118913452D01*
X123843880Y-118913452D02*
X123843880Y-119103928D01*
X123843880Y-119103928D02*
X123796261Y-119199166D01*
X123796261Y-119199166D02*
X123748642Y-119246785D01*
X123748642Y-119246785D02*
X123653404Y-119294404D01*
X123653404Y-119294404D02*
X123462928Y-119294404D01*
X123462928Y-119294404D02*
X123367690Y-119246785D01*
X123367690Y-119246785D02*
X123320071Y-119199166D01*
X123320071Y-119199166D02*
X123272452Y-119103928D01*
X103764166Y-116802142D02*
X103811785Y-116849761D01*
X103811785Y-116849761D02*
X103954642Y-116897380D01*
X103954642Y-116897380D02*
X104049880Y-116897380D01*
X104049880Y-116897380D02*
X104192737Y-116849761D01*
X104192737Y-116849761D02*
X104287975Y-116754523D01*
X104287975Y-116754523D02*
X104335594Y-116659285D01*
X104335594Y-116659285D02*
X104383213Y-116468809D01*
X104383213Y-116468809D02*
X104383213Y-116325952D01*
X104383213Y-116325952D02*
X104335594Y-116135476D01*
X104335594Y-116135476D02*
X104287975Y-116040238D01*
X104287975Y-116040238D02*
X104192737Y-115945000D01*
X104192737Y-115945000D02*
X104049880Y-115897380D01*
X104049880Y-115897380D02*
X103954642Y-115897380D01*
X103954642Y-115897380D02*
X103811785Y-115945000D01*
X103811785Y-115945000D02*
X103764166Y-115992619D01*
X103287975Y-116897380D02*
X103097499Y-116897380D01*
X103097499Y-116897380D02*
X103002261Y-116849761D01*
X103002261Y-116849761D02*
X102954642Y-116802142D01*
X102954642Y-116802142D02*
X102859404Y-116659285D01*
X102859404Y-116659285D02*
X102811785Y-116468809D01*
X102811785Y-116468809D02*
X102811785Y-116087857D01*
X102811785Y-116087857D02*
X102859404Y-115992619D01*
X102859404Y-115992619D02*
X102907023Y-115945000D01*
X102907023Y-115945000D02*
X103002261Y-115897380D01*
X103002261Y-115897380D02*
X103192737Y-115897380D01*
X103192737Y-115897380D02*
X103287975Y-115945000D01*
X103287975Y-115945000D02*
X103335594Y-115992619D01*
X103335594Y-115992619D02*
X103383213Y-116087857D01*
X103383213Y-116087857D02*
X103383213Y-116325952D01*
X103383213Y-116325952D02*
X103335594Y-116421190D01*
X103335594Y-116421190D02*
X103287975Y-116468809D01*
X103287975Y-116468809D02*
X103192737Y-116516428D01*
X103192737Y-116516428D02*
X103002261Y-116516428D01*
X103002261Y-116516428D02*
X102907023Y-116468809D01*
X102907023Y-116468809D02*
X102859404Y-116421190D01*
X102859404Y-116421190D02*
X102811785Y-116325952D01*
X112140357Y-113269642D02*
X112187976Y-113317261D01*
X112187976Y-113317261D02*
X112330833Y-113364880D01*
X112330833Y-113364880D02*
X112426071Y-113364880D01*
X112426071Y-113364880D02*
X112568928Y-113317261D01*
X112568928Y-113317261D02*
X112664166Y-113222023D01*
X112664166Y-113222023D02*
X112711785Y-113126785D01*
X112711785Y-113126785D02*
X112759404Y-112936309D01*
X112759404Y-112936309D02*
X112759404Y-112793452D01*
X112759404Y-112793452D02*
X112711785Y-112602976D01*
X112711785Y-112602976D02*
X112664166Y-112507738D01*
X112664166Y-112507738D02*
X112568928Y-112412500D01*
X112568928Y-112412500D02*
X112426071Y-112364880D01*
X112426071Y-112364880D02*
X112330833Y-112364880D01*
X112330833Y-112364880D02*
X112187976Y-112412500D01*
X112187976Y-112412500D02*
X112140357Y-112460119D01*
X111187976Y-113364880D02*
X111759404Y-113364880D01*
X111473690Y-113364880D02*
X111473690Y-112364880D01*
X111473690Y-112364880D02*
X111568928Y-112507738D01*
X111568928Y-112507738D02*
X111664166Y-112602976D01*
X111664166Y-112602976D02*
X111759404Y-112650595D01*
X110807023Y-112460119D02*
X110759404Y-112412500D01*
X110759404Y-112412500D02*
X110664166Y-112364880D01*
X110664166Y-112364880D02*
X110426071Y-112364880D01*
X110426071Y-112364880D02*
X110330833Y-112412500D01*
X110330833Y-112412500D02*
X110283214Y-112460119D01*
X110283214Y-112460119D02*
X110235595Y-112555357D01*
X110235595Y-112555357D02*
X110235595Y-112650595D01*
X110235595Y-112650595D02*
X110283214Y-112793452D01*
X110283214Y-112793452D02*
X110854642Y-113364880D01*
X110854642Y-113364880D02*
X110235595Y-113364880D01*
X118834642Y-116476833D02*
X118882261Y-116429214D01*
X118882261Y-116429214D02*
X118929880Y-116286357D01*
X118929880Y-116286357D02*
X118929880Y-116191119D01*
X118929880Y-116191119D02*
X118882261Y-116048262D01*
X118882261Y-116048262D02*
X118787023Y-115953024D01*
X118787023Y-115953024D02*
X118691785Y-115905405D01*
X118691785Y-115905405D02*
X118501309Y-115857786D01*
X118501309Y-115857786D02*
X118358452Y-115857786D01*
X118358452Y-115857786D02*
X118167976Y-115905405D01*
X118167976Y-115905405D02*
X118072738Y-115953024D01*
X118072738Y-115953024D02*
X117977500Y-116048262D01*
X117977500Y-116048262D02*
X117929880Y-116191119D01*
X117929880Y-116191119D02*
X117929880Y-116286357D01*
X117929880Y-116286357D02*
X117977500Y-116429214D01*
X117977500Y-116429214D02*
X118025119Y-116476833D01*
X118263214Y-117333976D02*
X118929880Y-117333976D01*
X117882261Y-117095881D02*
X118596547Y-116857786D01*
X118596547Y-116857786D02*
X118596547Y-117476833D01*
X103878290Y-118172380D02*
X104211623Y-117696190D01*
X104449718Y-118172380D02*
X104449718Y-117172380D01*
X104449718Y-117172380D02*
X104068766Y-117172380D01*
X104068766Y-117172380D02*
X103973528Y-117220000D01*
X103973528Y-117220000D02*
X103925909Y-117267619D01*
X103925909Y-117267619D02*
X103878290Y-117362857D01*
X103878290Y-117362857D02*
X103878290Y-117505714D01*
X103878290Y-117505714D02*
X103925909Y-117600952D01*
X103925909Y-117600952D02*
X103973528Y-117648571D01*
X103973528Y-117648571D02*
X104068766Y-117696190D01*
X104068766Y-117696190D02*
X104449718Y-117696190D01*
X103544956Y-117172380D02*
X102925909Y-117172380D01*
X102925909Y-117172380D02*
X103259242Y-117553333D01*
X103259242Y-117553333D02*
X103116385Y-117553333D01*
X103116385Y-117553333D02*
X103021147Y-117600952D01*
X103021147Y-117600952D02*
X102973528Y-117648571D01*
X102973528Y-117648571D02*
X102925909Y-117743809D01*
X102925909Y-117743809D02*
X102925909Y-117981904D01*
X102925909Y-117981904D02*
X102973528Y-118077142D01*
X102973528Y-118077142D02*
X103021147Y-118124761D01*
X103021147Y-118124761D02*
X103116385Y-118172380D01*
X103116385Y-118172380D02*
X103402099Y-118172380D01*
X103402099Y-118172380D02*
X103497337Y-118124761D01*
X103497337Y-118124761D02*
X103544956Y-118077142D01*
X120534642Y-119495833D02*
X120582261Y-119448214D01*
X120582261Y-119448214D02*
X120629880Y-119305357D01*
X120629880Y-119305357D02*
X120629880Y-119210119D01*
X120629880Y-119210119D02*
X120582261Y-119067262D01*
X120582261Y-119067262D02*
X120487023Y-118972024D01*
X120487023Y-118972024D02*
X120391785Y-118924405D01*
X120391785Y-118924405D02*
X120201309Y-118876786D01*
X120201309Y-118876786D02*
X120058452Y-118876786D01*
X120058452Y-118876786D02*
X119867976Y-118924405D01*
X119867976Y-118924405D02*
X119772738Y-118972024D01*
X119772738Y-118972024D02*
X119677500Y-119067262D01*
X119677500Y-119067262D02*
X119629880Y-119210119D01*
X119629880Y-119210119D02*
X119629880Y-119305357D01*
X119629880Y-119305357D02*
X119677500Y-119448214D01*
X119677500Y-119448214D02*
X119725119Y-119495833D01*
X119725119Y-119876786D02*
X119677500Y-119924405D01*
X119677500Y-119924405D02*
X119629880Y-120019643D01*
X119629880Y-120019643D02*
X119629880Y-120257738D01*
X119629880Y-120257738D02*
X119677500Y-120352976D01*
X119677500Y-120352976D02*
X119725119Y-120400595D01*
X119725119Y-120400595D02*
X119820357Y-120448214D01*
X119820357Y-120448214D02*
X119915595Y-120448214D01*
X119915595Y-120448214D02*
X120058452Y-120400595D01*
X120058452Y-120400595D02*
X120629880Y-119829167D01*
X120629880Y-119829167D02*
X120629880Y-120448214D01*
X85142857Y-105422142D02*
X85190476Y-105469761D01*
X85190476Y-105469761D02*
X85333333Y-105517380D01*
X85333333Y-105517380D02*
X85428571Y-105517380D01*
X85428571Y-105517380D02*
X85571428Y-105469761D01*
X85571428Y-105469761D02*
X85666666Y-105374523D01*
X85666666Y-105374523D02*
X85714285Y-105279285D01*
X85714285Y-105279285D02*
X85761904Y-105088809D01*
X85761904Y-105088809D02*
X85761904Y-104945952D01*
X85761904Y-104945952D02*
X85714285Y-104755476D01*
X85714285Y-104755476D02*
X85666666Y-104660238D01*
X85666666Y-104660238D02*
X85571428Y-104565000D01*
X85571428Y-104565000D02*
X85428571Y-104517380D01*
X85428571Y-104517380D02*
X85333333Y-104517380D01*
X85333333Y-104517380D02*
X85190476Y-104565000D01*
X85190476Y-104565000D02*
X85142857Y-104612619D01*
X84190476Y-105517380D02*
X84761904Y-105517380D01*
X84476190Y-105517380D02*
X84476190Y-104517380D01*
X84476190Y-104517380D02*
X84571428Y-104660238D01*
X84571428Y-104660238D02*
X84666666Y-104755476D01*
X84666666Y-104755476D02*
X84761904Y-104803095D01*
X83571428Y-104517380D02*
X83476190Y-104517380D01*
X83476190Y-104517380D02*
X83380952Y-104565000D01*
X83380952Y-104565000D02*
X83333333Y-104612619D01*
X83333333Y-104612619D02*
X83285714Y-104707857D01*
X83285714Y-104707857D02*
X83238095Y-104898333D01*
X83238095Y-104898333D02*
X83238095Y-105136428D01*
X83238095Y-105136428D02*
X83285714Y-105326904D01*
X83285714Y-105326904D02*
X83333333Y-105422142D01*
X83333333Y-105422142D02*
X83380952Y-105469761D01*
X83380952Y-105469761D02*
X83476190Y-105517380D01*
X83476190Y-105517380D02*
X83571428Y-105517380D01*
X83571428Y-105517380D02*
X83666666Y-105469761D01*
X83666666Y-105469761D02*
X83714285Y-105422142D01*
X83714285Y-105422142D02*
X83761904Y-105326904D01*
X83761904Y-105326904D02*
X83809523Y-105136428D01*
X83809523Y-105136428D02*
X83809523Y-104898333D01*
X83809523Y-104898333D02*
X83761904Y-104707857D01*
X83761904Y-104707857D02*
X83714285Y-104612619D01*
X83714285Y-104612619D02*
X83666666Y-104565000D01*
X83666666Y-104565000D02*
X83571428Y-104517380D01*
X115880357Y-113207142D02*
X115927976Y-113254761D01*
X115927976Y-113254761D02*
X116070833Y-113302380D01*
X116070833Y-113302380D02*
X116166071Y-113302380D01*
X116166071Y-113302380D02*
X116308928Y-113254761D01*
X116308928Y-113254761D02*
X116404166Y-113159523D01*
X116404166Y-113159523D02*
X116451785Y-113064285D01*
X116451785Y-113064285D02*
X116499404Y-112873809D01*
X116499404Y-112873809D02*
X116499404Y-112730952D01*
X116499404Y-112730952D02*
X116451785Y-112540476D01*
X116451785Y-112540476D02*
X116404166Y-112445238D01*
X116404166Y-112445238D02*
X116308928Y-112350000D01*
X116308928Y-112350000D02*
X116166071Y-112302380D01*
X116166071Y-112302380D02*
X116070833Y-112302380D01*
X116070833Y-112302380D02*
X115927976Y-112350000D01*
X115927976Y-112350000D02*
X115880357Y-112397619D01*
X114927976Y-113302380D02*
X115499404Y-113302380D01*
X115213690Y-113302380D02*
X115213690Y-112302380D01*
X115213690Y-112302380D02*
X115308928Y-112445238D01*
X115308928Y-112445238D02*
X115404166Y-112540476D01*
X115404166Y-112540476D02*
X115499404Y-112588095D01*
X113975595Y-113302380D02*
X114547023Y-113302380D01*
X114261309Y-113302380D02*
X114261309Y-112302380D01*
X114261309Y-112302380D02*
X114356547Y-112445238D01*
X114356547Y-112445238D02*
X114451785Y-112540476D01*
X114451785Y-112540476D02*
X114547023Y-112588095D01*
X111279642Y-100309642D02*
X111327261Y-100262023D01*
X111327261Y-100262023D02*
X111374880Y-100119166D01*
X111374880Y-100119166D02*
X111374880Y-100023928D01*
X111374880Y-100023928D02*
X111327261Y-99881071D01*
X111327261Y-99881071D02*
X111232023Y-99785833D01*
X111232023Y-99785833D02*
X111136785Y-99738214D01*
X111136785Y-99738214D02*
X110946309Y-99690595D01*
X110946309Y-99690595D02*
X110803452Y-99690595D01*
X110803452Y-99690595D02*
X110612976Y-99738214D01*
X110612976Y-99738214D02*
X110517738Y-99785833D01*
X110517738Y-99785833D02*
X110422500Y-99881071D01*
X110422500Y-99881071D02*
X110374880Y-100023928D01*
X110374880Y-100023928D02*
X110374880Y-100119166D01*
X110374880Y-100119166D02*
X110422500Y-100262023D01*
X110422500Y-100262023D02*
X110470119Y-100309642D01*
X111374880Y-101262023D02*
X111374880Y-100690595D01*
X111374880Y-100976309D02*
X110374880Y-100976309D01*
X110374880Y-100976309D02*
X110517738Y-100881071D01*
X110517738Y-100881071D02*
X110612976Y-100785833D01*
X110612976Y-100785833D02*
X110660595Y-100690595D01*
X110374880Y-102119166D02*
X110374880Y-101928690D01*
X110374880Y-101928690D02*
X110422500Y-101833452D01*
X110422500Y-101833452D02*
X110470119Y-101785833D01*
X110470119Y-101785833D02*
X110612976Y-101690595D01*
X110612976Y-101690595D02*
X110803452Y-101642976D01*
X110803452Y-101642976D02*
X111184404Y-101642976D01*
X111184404Y-101642976D02*
X111279642Y-101690595D01*
X111279642Y-101690595D02*
X111327261Y-101738214D01*
X111327261Y-101738214D02*
X111374880Y-101833452D01*
X111374880Y-101833452D02*
X111374880Y-102023928D01*
X111374880Y-102023928D02*
X111327261Y-102119166D01*
X111327261Y-102119166D02*
X111279642Y-102166785D01*
X111279642Y-102166785D02*
X111184404Y-102214404D01*
X111184404Y-102214404D02*
X110946309Y-102214404D01*
X110946309Y-102214404D02*
X110851071Y-102166785D01*
X110851071Y-102166785D02*
X110803452Y-102119166D01*
X110803452Y-102119166D02*
X110755833Y-102023928D01*
X110755833Y-102023928D02*
X110755833Y-101833452D01*
X110755833Y-101833452D02*
X110803452Y-101738214D01*
X110803452Y-101738214D02*
X110851071Y-101690595D01*
X110851071Y-101690595D02*
X110946309Y-101642976D01*
X108404880Y-112255595D02*
X109214404Y-112255595D01*
X109214404Y-112255595D02*
X109309642Y-112303214D01*
X109309642Y-112303214D02*
X109357261Y-112350833D01*
X109357261Y-112350833D02*
X109404880Y-112446071D01*
X109404880Y-112446071D02*
X109404880Y-112636547D01*
X109404880Y-112636547D02*
X109357261Y-112731785D01*
X109357261Y-112731785D02*
X109309642Y-112779404D01*
X109309642Y-112779404D02*
X109214404Y-112827023D01*
X109214404Y-112827023D02*
X108404880Y-112827023D01*
X108404880Y-113207976D02*
X108404880Y-113827023D01*
X108404880Y-113827023D02*
X108785833Y-113493690D01*
X108785833Y-113493690D02*
X108785833Y-113636547D01*
X108785833Y-113636547D02*
X108833452Y-113731785D01*
X108833452Y-113731785D02*
X108881071Y-113779404D01*
X108881071Y-113779404D02*
X108976309Y-113827023D01*
X108976309Y-113827023D02*
X109214404Y-113827023D01*
X109214404Y-113827023D02*
X109309642Y-113779404D01*
X109309642Y-113779404D02*
X109357261Y-113731785D01*
X109357261Y-113731785D02*
X109404880Y-113636547D01*
X109404880Y-113636547D02*
X109404880Y-113350833D01*
X109404880Y-113350833D02*
X109357261Y-113255595D01*
X109357261Y-113255595D02*
X109309642Y-113207976D01*
X122834642Y-110319642D02*
X122882261Y-110272023D01*
X122882261Y-110272023D02*
X122929880Y-110129166D01*
X122929880Y-110129166D02*
X122929880Y-110033928D01*
X122929880Y-110033928D02*
X122882261Y-109891071D01*
X122882261Y-109891071D02*
X122787023Y-109795833D01*
X122787023Y-109795833D02*
X122691785Y-109748214D01*
X122691785Y-109748214D02*
X122501309Y-109700595D01*
X122501309Y-109700595D02*
X122358452Y-109700595D01*
X122358452Y-109700595D02*
X122167976Y-109748214D01*
X122167976Y-109748214D02*
X122072738Y-109795833D01*
X122072738Y-109795833D02*
X121977500Y-109891071D01*
X121977500Y-109891071D02*
X121929880Y-110033928D01*
X121929880Y-110033928D02*
X121929880Y-110129166D01*
X121929880Y-110129166D02*
X121977500Y-110272023D01*
X121977500Y-110272023D02*
X122025119Y-110319642D01*
X122929880Y-111272023D02*
X122929880Y-110700595D01*
X122929880Y-110986309D02*
X121929880Y-110986309D01*
X121929880Y-110986309D02*
X122072738Y-110891071D01*
X122072738Y-110891071D02*
X122167976Y-110795833D01*
X122167976Y-110795833D02*
X122215595Y-110700595D01*
X121929880Y-111605357D02*
X121929880Y-112272023D01*
X121929880Y-112272023D02*
X122929880Y-111843452D01*
X103878290Y-119472380D02*
X104211623Y-118996190D01*
X104449718Y-119472380D02*
X104449718Y-118472380D01*
X104449718Y-118472380D02*
X104068766Y-118472380D01*
X104068766Y-118472380D02*
X103973528Y-118520000D01*
X103973528Y-118520000D02*
X103925909Y-118567619D01*
X103925909Y-118567619D02*
X103878290Y-118662857D01*
X103878290Y-118662857D02*
X103878290Y-118805714D01*
X103878290Y-118805714D02*
X103925909Y-118900952D01*
X103925909Y-118900952D02*
X103973528Y-118948571D01*
X103973528Y-118948571D02*
X104068766Y-118996190D01*
X104068766Y-118996190D02*
X104449718Y-118996190D01*
X103021147Y-118805714D02*
X103021147Y-119472380D01*
X103259242Y-118424761D02*
X103497337Y-119139047D01*
X103497337Y-119139047D02*
X102878290Y-119139047D01*
X103764166Y-115492142D02*
X103811785Y-115539761D01*
X103811785Y-115539761D02*
X103954642Y-115587380D01*
X103954642Y-115587380D02*
X104049880Y-115587380D01*
X104049880Y-115587380D02*
X104192737Y-115539761D01*
X104192737Y-115539761D02*
X104287975Y-115444523D01*
X104287975Y-115444523D02*
X104335594Y-115349285D01*
X104335594Y-115349285D02*
X104383213Y-115158809D01*
X104383213Y-115158809D02*
X104383213Y-115015952D01*
X104383213Y-115015952D02*
X104335594Y-114825476D01*
X104335594Y-114825476D02*
X104287975Y-114730238D01*
X104287975Y-114730238D02*
X104192737Y-114635000D01*
X104192737Y-114635000D02*
X104049880Y-114587380D01*
X104049880Y-114587380D02*
X103954642Y-114587380D01*
X103954642Y-114587380D02*
X103811785Y-114635000D01*
X103811785Y-114635000D02*
X103764166Y-114682619D01*
X102811785Y-115587380D02*
X103383213Y-115587380D01*
X103097499Y-115587380D02*
X103097499Y-114587380D01*
X103097499Y-114587380D02*
X103192737Y-114730238D01*
X103192737Y-114730238D02*
X103287975Y-114825476D01*
X103287975Y-114825476D02*
X103383213Y-114873095D01*
X109779642Y-100309642D02*
X109827261Y-100262023D01*
X109827261Y-100262023D02*
X109874880Y-100119166D01*
X109874880Y-100119166D02*
X109874880Y-100023928D01*
X109874880Y-100023928D02*
X109827261Y-99881071D01*
X109827261Y-99881071D02*
X109732023Y-99785833D01*
X109732023Y-99785833D02*
X109636785Y-99738214D01*
X109636785Y-99738214D02*
X109446309Y-99690595D01*
X109446309Y-99690595D02*
X109303452Y-99690595D01*
X109303452Y-99690595D02*
X109112976Y-99738214D01*
X109112976Y-99738214D02*
X109017738Y-99785833D01*
X109017738Y-99785833D02*
X108922500Y-99881071D01*
X108922500Y-99881071D02*
X108874880Y-100023928D01*
X108874880Y-100023928D02*
X108874880Y-100119166D01*
X108874880Y-100119166D02*
X108922500Y-100262023D01*
X108922500Y-100262023D02*
X108970119Y-100309642D01*
X109874880Y-101262023D02*
X109874880Y-100690595D01*
X109874880Y-100976309D02*
X108874880Y-100976309D01*
X108874880Y-100976309D02*
X109017738Y-100881071D01*
X109017738Y-100881071D02*
X109112976Y-100785833D01*
X109112976Y-100785833D02*
X109160595Y-100690595D01*
X108874880Y-102166785D02*
X108874880Y-101690595D01*
X108874880Y-101690595D02*
X109351071Y-101642976D01*
X109351071Y-101642976D02*
X109303452Y-101690595D01*
X109303452Y-101690595D02*
X109255833Y-101785833D01*
X109255833Y-101785833D02*
X109255833Y-102023928D01*
X109255833Y-102023928D02*
X109303452Y-102119166D01*
X109303452Y-102119166D02*
X109351071Y-102166785D01*
X109351071Y-102166785D02*
X109446309Y-102214404D01*
X109446309Y-102214404D02*
X109684404Y-102214404D01*
X109684404Y-102214404D02*
X109779642Y-102166785D01*
X109779642Y-102166785D02*
X109827261Y-102119166D01*
X109827261Y-102119166D02*
X109874880Y-102023928D01*
X109874880Y-102023928D02*
X109874880Y-101785833D01*
X109874880Y-101785833D02*
X109827261Y-101690595D01*
X109827261Y-101690595D02*
X109779642Y-101642976D01*
X121229880Y-113895833D02*
X120753690Y-113562500D01*
X121229880Y-113324405D02*
X120229880Y-113324405D01*
X120229880Y-113324405D02*
X120229880Y-113705357D01*
X120229880Y-113705357D02*
X120277500Y-113800595D01*
X120277500Y-113800595D02*
X120325119Y-113848214D01*
X120325119Y-113848214D02*
X120420357Y-113895833D01*
X120420357Y-113895833D02*
X120563214Y-113895833D01*
X120563214Y-113895833D02*
X120658452Y-113848214D01*
X120658452Y-113848214D02*
X120706071Y-113800595D01*
X120706071Y-113800595D02*
X120753690Y-113705357D01*
X120753690Y-113705357D02*
X120753690Y-113324405D01*
X120229880Y-114752976D02*
X120229880Y-114562500D01*
X120229880Y-114562500D02*
X120277500Y-114467262D01*
X120277500Y-114467262D02*
X120325119Y-114419643D01*
X120325119Y-114419643D02*
X120467976Y-114324405D01*
X120467976Y-114324405D02*
X120658452Y-114276786D01*
X120658452Y-114276786D02*
X121039404Y-114276786D01*
X121039404Y-114276786D02*
X121134642Y-114324405D01*
X121134642Y-114324405D02*
X121182261Y-114372024D01*
X121182261Y-114372024D02*
X121229880Y-114467262D01*
X121229880Y-114467262D02*
X121229880Y-114657738D01*
X121229880Y-114657738D02*
X121182261Y-114752976D01*
X121182261Y-114752976D02*
X121134642Y-114800595D01*
X121134642Y-114800595D02*
X121039404Y-114848214D01*
X121039404Y-114848214D02*
X120801309Y-114848214D01*
X120801309Y-114848214D02*
X120706071Y-114800595D01*
X120706071Y-114800595D02*
X120658452Y-114752976D01*
X120658452Y-114752976D02*
X120610833Y-114657738D01*
X120610833Y-114657738D02*
X120610833Y-114467262D01*
X120610833Y-114467262D02*
X120658452Y-114372024D01*
X120658452Y-114372024D02*
X120706071Y-114324405D01*
X120706071Y-114324405D02*
X120801309Y-114276786D01*
X124069690Y-114127309D02*
X124545880Y-114127309D01*
X123545880Y-113793976D02*
X124069690Y-114127309D01*
X124069690Y-114127309D02*
X123545880Y-114460642D01*
X124545880Y-115317785D02*
X124545880Y-114746357D01*
X124545880Y-115032071D02*
X123545880Y-115032071D01*
X123545880Y-115032071D02*
X123688738Y-114936833D01*
X123688738Y-114936833D02*
X123783976Y-114841595D01*
X123783976Y-114841595D02*
X123831595Y-114746357D01*
X118963333Y-131722833D02*
X118963333Y-132422833D01*
X118963333Y-132422833D02*
X119130000Y-132422833D01*
X119130000Y-132422833D02*
X119230000Y-132389500D01*
X119230000Y-132389500D02*
X119296667Y-132322833D01*
X119296667Y-132322833D02*
X119330000Y-132256166D01*
X119330000Y-132256166D02*
X119363333Y-132122833D01*
X119363333Y-132122833D02*
X119363333Y-132022833D01*
X119363333Y-132022833D02*
X119330000Y-131889500D01*
X119330000Y-131889500D02*
X119296667Y-131822833D01*
X119296667Y-131822833D02*
X119230000Y-131756166D01*
X119230000Y-131756166D02*
X119130000Y-131722833D01*
X119130000Y-131722833D02*
X118963333Y-131722833D01*
X119596667Y-132422833D02*
X120063333Y-132422833D01*
X120063333Y-132422833D02*
X119763333Y-131722833D01*
D11*
X128888094Y-103387380D02*
X128888094Y-102387380D01*
X128888094Y-102387380D02*
X128649999Y-102387380D01*
X128649999Y-102387380D02*
X128507142Y-102435000D01*
X128507142Y-102435000D02*
X128411904Y-102530238D01*
X128411904Y-102530238D02*
X128364285Y-102625476D01*
X128364285Y-102625476D02*
X128316666Y-102815952D01*
X128316666Y-102815952D02*
X128316666Y-102958809D01*
X128316666Y-102958809D02*
X128364285Y-103149285D01*
X128364285Y-103149285D02*
X128411904Y-103244523D01*
X128411904Y-103244523D02*
X128507142Y-103339761D01*
X128507142Y-103339761D02*
X128649999Y-103387380D01*
X128649999Y-103387380D02*
X128888094Y-103387380D01*
X127459523Y-102387380D02*
X127649999Y-102387380D01*
X127649999Y-102387380D02*
X127745237Y-102435000D01*
X127745237Y-102435000D02*
X127792856Y-102482619D01*
X127792856Y-102482619D02*
X127888094Y-102625476D01*
X127888094Y-102625476D02*
X127935713Y-102815952D01*
X127935713Y-102815952D02*
X127935713Y-103196904D01*
X127935713Y-103196904D02*
X127888094Y-103292142D01*
X127888094Y-103292142D02*
X127840475Y-103339761D01*
X127840475Y-103339761D02*
X127745237Y-103387380D01*
X127745237Y-103387380D02*
X127554761Y-103387380D01*
X127554761Y-103387380D02*
X127459523Y-103339761D01*
X127459523Y-103339761D02*
X127411904Y-103292142D01*
X127411904Y-103292142D02*
X127364285Y-103196904D01*
X127364285Y-103196904D02*
X127364285Y-102958809D01*
X127364285Y-102958809D02*
X127411904Y-102863571D01*
X127411904Y-102863571D02*
X127459523Y-102815952D01*
X127459523Y-102815952D02*
X127554761Y-102768333D01*
X127554761Y-102768333D02*
X127745237Y-102768333D01*
X127745237Y-102768333D02*
X127840475Y-102815952D01*
X127840475Y-102815952D02*
X127888094Y-102863571D01*
X127888094Y-102863571D02*
X127935713Y-102958809D01*
X132038094Y-140017380D02*
X132038094Y-139017380D01*
X132038094Y-139017380D02*
X131799999Y-139017380D01*
X131799999Y-139017380D02*
X131657142Y-139065000D01*
X131657142Y-139065000D02*
X131561904Y-139160238D01*
X131561904Y-139160238D02*
X131514285Y-139255476D01*
X131514285Y-139255476D02*
X131466666Y-139445952D01*
X131466666Y-139445952D02*
X131466666Y-139588809D01*
X131466666Y-139588809D02*
X131514285Y-139779285D01*
X131514285Y-139779285D02*
X131561904Y-139874523D01*
X131561904Y-139874523D02*
X131657142Y-139969761D01*
X131657142Y-139969761D02*
X131799999Y-140017380D01*
X131799999Y-140017380D02*
X132038094Y-140017380D01*
X131133332Y-139017380D02*
X130514285Y-139017380D01*
X130514285Y-139017380D02*
X130847618Y-139398333D01*
X130847618Y-139398333D02*
X130704761Y-139398333D01*
X130704761Y-139398333D02*
X130609523Y-139445952D01*
X130609523Y-139445952D02*
X130561904Y-139493571D01*
X130561904Y-139493571D02*
X130514285Y-139588809D01*
X130514285Y-139588809D02*
X130514285Y-139826904D01*
X130514285Y-139826904D02*
X130561904Y-139922142D01*
X130561904Y-139922142D02*
X130609523Y-139969761D01*
X130609523Y-139969761D02*
X130704761Y-140017380D01*
X130704761Y-140017380D02*
X130990475Y-140017380D01*
X130990475Y-140017380D02*
X131085713Y-139969761D01*
X131085713Y-139969761D02*
X131133332Y-139922142D01*
D10*
X122219761Y-127452381D02*
X122267380Y-127595238D01*
X122267380Y-127595238D02*
X122267380Y-127833333D01*
X122267380Y-127833333D02*
X122219761Y-127928571D01*
X122219761Y-127928571D02*
X122172142Y-127976190D01*
X122172142Y-127976190D02*
X122076904Y-128023809D01*
X122076904Y-128023809D02*
X121981666Y-128023809D01*
X121981666Y-128023809D02*
X121886428Y-127976190D01*
X121886428Y-127976190D02*
X121838809Y-127928571D01*
X121838809Y-127928571D02*
X121791190Y-127833333D01*
X121791190Y-127833333D02*
X121743571Y-127642857D01*
X121743571Y-127642857D02*
X121695952Y-127547619D01*
X121695952Y-127547619D02*
X121648333Y-127500000D01*
X121648333Y-127500000D02*
X121553095Y-127452381D01*
X121553095Y-127452381D02*
X121457857Y-127452381D01*
X121457857Y-127452381D02*
X121362619Y-127500000D01*
X121362619Y-127500000D02*
X121315000Y-127547619D01*
X121315000Y-127547619D02*
X121267380Y-127642857D01*
X121267380Y-127642857D02*
X121267380Y-127880952D01*
X121267380Y-127880952D02*
X121315000Y-128023809D01*
X122219761Y-128404762D02*
X122267380Y-128547619D01*
X122267380Y-128547619D02*
X122267380Y-128785714D01*
X122267380Y-128785714D02*
X122219761Y-128880952D01*
X122219761Y-128880952D02*
X122172142Y-128928571D01*
X122172142Y-128928571D02*
X122076904Y-128976190D01*
X122076904Y-128976190D02*
X121981666Y-128976190D01*
X121981666Y-128976190D02*
X121886428Y-128928571D01*
X121886428Y-128928571D02*
X121838809Y-128880952D01*
X121838809Y-128880952D02*
X121791190Y-128785714D01*
X121791190Y-128785714D02*
X121743571Y-128595238D01*
X121743571Y-128595238D02*
X121695952Y-128500000D01*
X121695952Y-128500000D02*
X121648333Y-128452381D01*
X121648333Y-128452381D02*
X121553095Y-128404762D01*
X121553095Y-128404762D02*
X121457857Y-128404762D01*
X121457857Y-128404762D02*
X121362619Y-128452381D01*
X121362619Y-128452381D02*
X121315000Y-128500000D01*
X121315000Y-128500000D02*
X121267380Y-128595238D01*
X121267380Y-128595238D02*
X121267380Y-128833333D01*
X121267380Y-128833333D02*
X121315000Y-128976190D01*
X121267380Y-129309524D02*
X121267380Y-129928571D01*
X121267380Y-129928571D02*
X121648333Y-129595238D01*
X121648333Y-129595238D02*
X121648333Y-129738095D01*
X121648333Y-129738095D02*
X121695952Y-129833333D01*
X121695952Y-129833333D02*
X121743571Y-129880952D01*
X121743571Y-129880952D02*
X121838809Y-129928571D01*
X121838809Y-129928571D02*
X122076904Y-129928571D01*
X122076904Y-129928571D02*
X122172142Y-129880952D01*
X122172142Y-129880952D02*
X122219761Y-129833333D01*
X122219761Y-129833333D02*
X122267380Y-129738095D01*
X122267380Y-129738095D02*
X122267380Y-129452381D01*
X122267380Y-129452381D02*
X122219761Y-129357143D01*
X122219761Y-129357143D02*
X122172142Y-129309524D01*
X122267380Y-130404762D02*
X122267380Y-130595238D01*
X122267380Y-130595238D02*
X122219761Y-130690476D01*
X122219761Y-130690476D02*
X122172142Y-130738095D01*
X122172142Y-130738095D02*
X122029285Y-130833333D01*
X122029285Y-130833333D02*
X121838809Y-130880952D01*
X121838809Y-130880952D02*
X121457857Y-130880952D01*
X121457857Y-130880952D02*
X121362619Y-130833333D01*
X121362619Y-130833333D02*
X121315000Y-130785714D01*
X121315000Y-130785714D02*
X121267380Y-130690476D01*
X121267380Y-130690476D02*
X121267380Y-130500000D01*
X121267380Y-130500000D02*
X121315000Y-130404762D01*
X121315000Y-130404762D02*
X121362619Y-130357143D01*
X121362619Y-130357143D02*
X121457857Y-130309524D01*
X121457857Y-130309524D02*
X121695952Y-130309524D01*
X121695952Y-130309524D02*
X121791190Y-130357143D01*
X121791190Y-130357143D02*
X121838809Y-130404762D01*
X121838809Y-130404762D02*
X121886428Y-130500000D01*
X121886428Y-130500000D02*
X121886428Y-130690476D01*
X121886428Y-130690476D02*
X121838809Y-130785714D01*
X121838809Y-130785714D02*
X121791190Y-130833333D01*
X121791190Y-130833333D02*
X121695952Y-130880952D01*
X121743571Y-131309524D02*
X121743571Y-131642857D01*
X122267380Y-131785714D02*
X122267380Y-131309524D01*
X122267380Y-131309524D02*
X121267380Y-131309524D01*
X121267380Y-131309524D02*
X121267380Y-131785714D01*
X121267380Y-132071429D02*
X121267380Y-132642857D01*
X122267380Y-132357143D02*
X121267380Y-132357143D01*
X120976666Y-109528833D02*
X121043333Y-109495500D01*
X121043333Y-109495500D02*
X121110000Y-109428833D01*
X121110000Y-109428833D02*
X121210000Y-109328833D01*
X121210000Y-109328833D02*
X121276666Y-109295500D01*
X121276666Y-109295500D02*
X121343333Y-109295500D01*
X121310000Y-109462166D02*
X121376666Y-109428833D01*
X121376666Y-109428833D02*
X121443333Y-109362166D01*
X121443333Y-109362166D02*
X121476666Y-109228833D01*
X121476666Y-109228833D02*
X121476666Y-108995500D01*
X121476666Y-108995500D02*
X121443333Y-108862166D01*
X121443333Y-108862166D02*
X121376666Y-108795500D01*
X121376666Y-108795500D02*
X121310000Y-108762166D01*
X121310000Y-108762166D02*
X121176666Y-108762166D01*
X121176666Y-108762166D02*
X121110000Y-108795500D01*
X121110000Y-108795500D02*
X121043333Y-108862166D01*
X121043333Y-108862166D02*
X121010000Y-108995500D01*
X121010000Y-108995500D02*
X121010000Y-109228833D01*
X121010000Y-109228833D02*
X121043333Y-109362166D01*
X121043333Y-109362166D02*
X121110000Y-109428833D01*
X121110000Y-109428833D02*
X121176666Y-109462166D01*
X121176666Y-109462166D02*
X121310000Y-109462166D01*
X120343333Y-109462166D02*
X120743333Y-109462166D01*
X120543333Y-109462166D02*
X120543333Y-108762166D01*
X120543333Y-108762166D02*
X120610000Y-108862166D01*
X120610000Y-108862166D02*
X120676667Y-108928833D01*
X120676667Y-108928833D02*
X120743333Y-108962166D01*
D11*
X72728094Y-110287380D02*
X72728094Y-109287380D01*
X72728094Y-109287380D02*
X72489999Y-109287380D01*
X72489999Y-109287380D02*
X72347142Y-109335000D01*
X72347142Y-109335000D02*
X72251904Y-109430238D01*
X72251904Y-109430238D02*
X72204285Y-109525476D01*
X72204285Y-109525476D02*
X72156666Y-109715952D01*
X72156666Y-109715952D02*
X72156666Y-109858809D01*
X72156666Y-109858809D02*
X72204285Y-110049285D01*
X72204285Y-110049285D02*
X72251904Y-110144523D01*
X72251904Y-110144523D02*
X72347142Y-110239761D01*
X72347142Y-110239761D02*
X72489999Y-110287380D01*
X72489999Y-110287380D02*
X72728094Y-110287380D01*
X71251904Y-109287380D02*
X71728094Y-109287380D01*
X71728094Y-109287380D02*
X71775713Y-109763571D01*
X71775713Y-109763571D02*
X71728094Y-109715952D01*
X71728094Y-109715952D02*
X71632856Y-109668333D01*
X71632856Y-109668333D02*
X71394761Y-109668333D01*
X71394761Y-109668333D02*
X71299523Y-109715952D01*
X71299523Y-109715952D02*
X71251904Y-109763571D01*
X71251904Y-109763571D02*
X71204285Y-109858809D01*
X71204285Y-109858809D02*
X71204285Y-110096904D01*
X71204285Y-110096904D02*
X71251904Y-110192142D01*
X71251904Y-110192142D02*
X71299523Y-110239761D01*
X71299523Y-110239761D02*
X71394761Y-110287380D01*
X71394761Y-110287380D02*
X71632856Y-110287380D01*
X71632856Y-110287380D02*
X71728094Y-110239761D01*
X71728094Y-110239761D02*
X71775713Y-110192142D01*
D10*
X100592166Y-108606666D02*
X101158833Y-108606666D01*
X101158833Y-108606666D02*
X101225500Y-108640000D01*
X101225500Y-108640000D02*
X101258833Y-108673333D01*
X101258833Y-108673333D02*
X101292166Y-108740000D01*
X101292166Y-108740000D02*
X101292166Y-108873333D01*
X101292166Y-108873333D02*
X101258833Y-108940000D01*
X101258833Y-108940000D02*
X101225500Y-108973333D01*
X101225500Y-108973333D02*
X101158833Y-109006666D01*
X101158833Y-109006666D02*
X100592166Y-109006666D01*
X100592166Y-109673333D02*
X100592166Y-109339999D01*
X100592166Y-109339999D02*
X100925500Y-109306666D01*
X100925500Y-109306666D02*
X100892166Y-109339999D01*
X100892166Y-109339999D02*
X100858833Y-109406666D01*
X100858833Y-109406666D02*
X100858833Y-109573333D01*
X100858833Y-109573333D02*
X100892166Y-109639999D01*
X100892166Y-109639999D02*
X100925500Y-109673333D01*
X100925500Y-109673333D02*
X100992166Y-109706666D01*
X100992166Y-109706666D02*
X101158833Y-109706666D01*
X101158833Y-109706666D02*
X101225500Y-109673333D01*
X101225500Y-109673333D02*
X101258833Y-109639999D01*
X101258833Y-109639999D02*
X101292166Y-109573333D01*
X101292166Y-109573333D02*
X101292166Y-109406666D01*
X101292166Y-109406666D02*
X101258833Y-109339999D01*
X101258833Y-109339999D02*
X101225500Y-109306666D01*
X96825500Y-108306666D02*
X96825500Y-108540000D01*
X97192166Y-108640000D02*
X97192166Y-108306666D01*
X97192166Y-108306666D02*
X96492166Y-108306666D01*
X96492166Y-108306666D02*
X96492166Y-108640000D01*
X97158833Y-108906666D02*
X97192166Y-109006666D01*
X97192166Y-109006666D02*
X97192166Y-109173333D01*
X97192166Y-109173333D02*
X97158833Y-109239999D01*
X97158833Y-109239999D02*
X97125500Y-109273333D01*
X97125500Y-109273333D02*
X97058833Y-109306666D01*
X97058833Y-109306666D02*
X96992166Y-109306666D01*
X96992166Y-109306666D02*
X96925500Y-109273333D01*
X96925500Y-109273333D02*
X96892166Y-109239999D01*
X96892166Y-109239999D02*
X96858833Y-109173333D01*
X96858833Y-109173333D02*
X96825500Y-109039999D01*
X96825500Y-109039999D02*
X96792166Y-108973333D01*
X96792166Y-108973333D02*
X96758833Y-108939999D01*
X96758833Y-108939999D02*
X96692166Y-108906666D01*
X96692166Y-108906666D02*
X96625500Y-108906666D01*
X96625500Y-108906666D02*
X96558833Y-108939999D01*
X96558833Y-108939999D02*
X96525500Y-108973333D01*
X96525500Y-108973333D02*
X96492166Y-109039999D01*
X96492166Y-109039999D02*
X96492166Y-109206666D01*
X96492166Y-109206666D02*
X96525500Y-109306666D01*
X97192166Y-109606666D02*
X96492166Y-109606666D01*
X96492166Y-109606666D02*
X96492166Y-109773333D01*
X96492166Y-109773333D02*
X96525500Y-109873333D01*
X96525500Y-109873333D02*
X96592166Y-109940000D01*
X96592166Y-109940000D02*
X96658833Y-109973333D01*
X96658833Y-109973333D02*
X96792166Y-110006666D01*
X96792166Y-110006666D02*
X96892166Y-110006666D01*
X96892166Y-110006666D02*
X97025500Y-109973333D01*
X97025500Y-109973333D02*
X97092166Y-109940000D01*
X97092166Y-109940000D02*
X97158833Y-109873333D01*
X97158833Y-109873333D02*
X97192166Y-109773333D01*
X97192166Y-109773333D02*
X97192166Y-109606666D01*
X102719761Y-127452381D02*
X102767380Y-127595238D01*
X102767380Y-127595238D02*
X102767380Y-127833333D01*
X102767380Y-127833333D02*
X102719761Y-127928571D01*
X102719761Y-127928571D02*
X102672142Y-127976190D01*
X102672142Y-127976190D02*
X102576904Y-128023809D01*
X102576904Y-128023809D02*
X102481666Y-128023809D01*
X102481666Y-128023809D02*
X102386428Y-127976190D01*
X102386428Y-127976190D02*
X102338809Y-127928571D01*
X102338809Y-127928571D02*
X102291190Y-127833333D01*
X102291190Y-127833333D02*
X102243571Y-127642857D01*
X102243571Y-127642857D02*
X102195952Y-127547619D01*
X102195952Y-127547619D02*
X102148333Y-127500000D01*
X102148333Y-127500000D02*
X102053095Y-127452381D01*
X102053095Y-127452381D02*
X101957857Y-127452381D01*
X101957857Y-127452381D02*
X101862619Y-127500000D01*
X101862619Y-127500000D02*
X101815000Y-127547619D01*
X101815000Y-127547619D02*
X101767380Y-127642857D01*
X101767380Y-127642857D02*
X101767380Y-127880952D01*
X101767380Y-127880952D02*
X101815000Y-128023809D01*
X102719761Y-128404762D02*
X102767380Y-128547619D01*
X102767380Y-128547619D02*
X102767380Y-128785714D01*
X102767380Y-128785714D02*
X102719761Y-128880952D01*
X102719761Y-128880952D02*
X102672142Y-128928571D01*
X102672142Y-128928571D02*
X102576904Y-128976190D01*
X102576904Y-128976190D02*
X102481666Y-128976190D01*
X102481666Y-128976190D02*
X102386428Y-128928571D01*
X102386428Y-128928571D02*
X102338809Y-128880952D01*
X102338809Y-128880952D02*
X102291190Y-128785714D01*
X102291190Y-128785714D02*
X102243571Y-128595238D01*
X102243571Y-128595238D02*
X102195952Y-128500000D01*
X102195952Y-128500000D02*
X102148333Y-128452381D01*
X102148333Y-128452381D02*
X102053095Y-128404762D01*
X102053095Y-128404762D02*
X101957857Y-128404762D01*
X101957857Y-128404762D02*
X101862619Y-128452381D01*
X101862619Y-128452381D02*
X101815000Y-128500000D01*
X101815000Y-128500000D02*
X101767380Y-128595238D01*
X101767380Y-128595238D02*
X101767380Y-128833333D01*
X101767380Y-128833333D02*
X101815000Y-128976190D01*
X101767380Y-129309524D02*
X101767380Y-129928571D01*
X101767380Y-129928571D02*
X102148333Y-129595238D01*
X102148333Y-129595238D02*
X102148333Y-129738095D01*
X102148333Y-129738095D02*
X102195952Y-129833333D01*
X102195952Y-129833333D02*
X102243571Y-129880952D01*
X102243571Y-129880952D02*
X102338809Y-129928571D01*
X102338809Y-129928571D02*
X102576904Y-129928571D01*
X102576904Y-129928571D02*
X102672142Y-129880952D01*
X102672142Y-129880952D02*
X102719761Y-129833333D01*
X102719761Y-129833333D02*
X102767380Y-129738095D01*
X102767380Y-129738095D02*
X102767380Y-129452381D01*
X102767380Y-129452381D02*
X102719761Y-129357143D01*
X102719761Y-129357143D02*
X102672142Y-129309524D01*
X102767380Y-130404762D02*
X102767380Y-130595238D01*
X102767380Y-130595238D02*
X102719761Y-130690476D01*
X102719761Y-130690476D02*
X102672142Y-130738095D01*
X102672142Y-130738095D02*
X102529285Y-130833333D01*
X102529285Y-130833333D02*
X102338809Y-130880952D01*
X102338809Y-130880952D02*
X101957857Y-130880952D01*
X101957857Y-130880952D02*
X101862619Y-130833333D01*
X101862619Y-130833333D02*
X101815000Y-130785714D01*
X101815000Y-130785714D02*
X101767380Y-130690476D01*
X101767380Y-130690476D02*
X101767380Y-130500000D01*
X101767380Y-130500000D02*
X101815000Y-130404762D01*
X101815000Y-130404762D02*
X101862619Y-130357143D01*
X101862619Y-130357143D02*
X101957857Y-130309524D01*
X101957857Y-130309524D02*
X102195952Y-130309524D01*
X102195952Y-130309524D02*
X102291190Y-130357143D01*
X102291190Y-130357143D02*
X102338809Y-130404762D01*
X102338809Y-130404762D02*
X102386428Y-130500000D01*
X102386428Y-130500000D02*
X102386428Y-130690476D01*
X102386428Y-130690476D02*
X102338809Y-130785714D01*
X102338809Y-130785714D02*
X102291190Y-130833333D01*
X102291190Y-130833333D02*
X102195952Y-130880952D01*
X102243571Y-131309524D02*
X102243571Y-131642857D01*
X102767380Y-131785714D02*
X102767380Y-131309524D01*
X102767380Y-131309524D02*
X101767380Y-131309524D01*
X101767380Y-131309524D02*
X101767380Y-131785714D01*
X101767380Y-132071429D02*
X101767380Y-132642857D01*
X102767380Y-132357143D02*
X101767380Y-132357143D01*
X119508095Y-124007380D02*
X119841428Y-123531190D01*
X120079523Y-124007380D02*
X120079523Y-123007380D01*
X120079523Y-123007380D02*
X119698571Y-123007380D01*
X119698571Y-123007380D02*
X119603333Y-123055000D01*
X119603333Y-123055000D02*
X119555714Y-123102619D01*
X119555714Y-123102619D02*
X119508095Y-123197857D01*
X119508095Y-123197857D02*
X119508095Y-123340714D01*
X119508095Y-123340714D02*
X119555714Y-123435952D01*
X119555714Y-123435952D02*
X119603333Y-123483571D01*
X119603333Y-123483571D02*
X119698571Y-123531190D01*
X119698571Y-123531190D02*
X120079523Y-123531190D01*
X119079523Y-123007380D02*
X119079523Y-123816904D01*
X119079523Y-123816904D02*
X119031904Y-123912142D01*
X119031904Y-123912142D02*
X118984285Y-123959761D01*
X118984285Y-123959761D02*
X118889047Y-124007380D01*
X118889047Y-124007380D02*
X118698571Y-124007380D01*
X118698571Y-124007380D02*
X118603333Y-123959761D01*
X118603333Y-123959761D02*
X118555714Y-123912142D01*
X118555714Y-123912142D02*
X118508095Y-123816904D01*
X118508095Y-123816904D02*
X118508095Y-123007380D01*
X118031904Y-124007380D02*
X118031904Y-123007380D01*
X118031904Y-123007380D02*
X117460476Y-124007380D01*
X117460476Y-124007380D02*
X117460476Y-123007380D01*
X125447380Y-105467142D02*
X124971190Y-105133809D01*
X125447380Y-104895714D02*
X124447380Y-104895714D01*
X124447380Y-104895714D02*
X124447380Y-105276666D01*
X124447380Y-105276666D02*
X124495000Y-105371904D01*
X124495000Y-105371904D02*
X124542619Y-105419523D01*
X124542619Y-105419523D02*
X124637857Y-105467142D01*
X124637857Y-105467142D02*
X124780714Y-105467142D01*
X124780714Y-105467142D02*
X124875952Y-105419523D01*
X124875952Y-105419523D02*
X124923571Y-105371904D01*
X124923571Y-105371904D02*
X124971190Y-105276666D01*
X124971190Y-105276666D02*
X124971190Y-104895714D01*
X125447380Y-106419523D02*
X125447380Y-105848095D01*
X125447380Y-106133809D02*
X124447380Y-106133809D01*
X124447380Y-106133809D02*
X124590238Y-106038571D01*
X124590238Y-106038571D02*
X124685476Y-105943333D01*
X124685476Y-105943333D02*
X124733095Y-105848095D01*
X124447380Y-107038571D02*
X124447380Y-107133809D01*
X124447380Y-107133809D02*
X124495000Y-107229047D01*
X124495000Y-107229047D02*
X124542619Y-107276666D01*
X124542619Y-107276666D02*
X124637857Y-107324285D01*
X124637857Y-107324285D02*
X124828333Y-107371904D01*
X124828333Y-107371904D02*
X125066428Y-107371904D01*
X125066428Y-107371904D02*
X125256904Y-107324285D01*
X125256904Y-107324285D02*
X125352142Y-107276666D01*
X125352142Y-107276666D02*
X125399761Y-107229047D01*
X125399761Y-107229047D02*
X125447380Y-107133809D01*
X125447380Y-107133809D02*
X125447380Y-107038571D01*
X125447380Y-107038571D02*
X125399761Y-106943333D01*
X125399761Y-106943333D02*
X125352142Y-106895714D01*
X125352142Y-106895714D02*
X125256904Y-106848095D01*
X125256904Y-106848095D02*
X125066428Y-106800476D01*
X125066428Y-106800476D02*
X124828333Y-106800476D01*
X124828333Y-106800476D02*
X124637857Y-106848095D01*
X124637857Y-106848095D02*
X124542619Y-106895714D01*
X124542619Y-106895714D02*
X124495000Y-106943333D01*
X124495000Y-106943333D02*
X124447380Y-107038571D01*
X83219761Y-127452381D02*
X83267380Y-127595238D01*
X83267380Y-127595238D02*
X83267380Y-127833333D01*
X83267380Y-127833333D02*
X83219761Y-127928571D01*
X83219761Y-127928571D02*
X83172142Y-127976190D01*
X83172142Y-127976190D02*
X83076904Y-128023809D01*
X83076904Y-128023809D02*
X82981666Y-128023809D01*
X82981666Y-128023809D02*
X82886428Y-127976190D01*
X82886428Y-127976190D02*
X82838809Y-127928571D01*
X82838809Y-127928571D02*
X82791190Y-127833333D01*
X82791190Y-127833333D02*
X82743571Y-127642857D01*
X82743571Y-127642857D02*
X82695952Y-127547619D01*
X82695952Y-127547619D02*
X82648333Y-127500000D01*
X82648333Y-127500000D02*
X82553095Y-127452381D01*
X82553095Y-127452381D02*
X82457857Y-127452381D01*
X82457857Y-127452381D02*
X82362619Y-127500000D01*
X82362619Y-127500000D02*
X82315000Y-127547619D01*
X82315000Y-127547619D02*
X82267380Y-127642857D01*
X82267380Y-127642857D02*
X82267380Y-127880952D01*
X82267380Y-127880952D02*
X82315000Y-128023809D01*
X83219761Y-128404762D02*
X83267380Y-128547619D01*
X83267380Y-128547619D02*
X83267380Y-128785714D01*
X83267380Y-128785714D02*
X83219761Y-128880952D01*
X83219761Y-128880952D02*
X83172142Y-128928571D01*
X83172142Y-128928571D02*
X83076904Y-128976190D01*
X83076904Y-128976190D02*
X82981666Y-128976190D01*
X82981666Y-128976190D02*
X82886428Y-128928571D01*
X82886428Y-128928571D02*
X82838809Y-128880952D01*
X82838809Y-128880952D02*
X82791190Y-128785714D01*
X82791190Y-128785714D02*
X82743571Y-128595238D01*
X82743571Y-128595238D02*
X82695952Y-128500000D01*
X82695952Y-128500000D02*
X82648333Y-128452381D01*
X82648333Y-128452381D02*
X82553095Y-128404762D01*
X82553095Y-128404762D02*
X82457857Y-128404762D01*
X82457857Y-128404762D02*
X82362619Y-128452381D01*
X82362619Y-128452381D02*
X82315000Y-128500000D01*
X82315000Y-128500000D02*
X82267380Y-128595238D01*
X82267380Y-128595238D02*
X82267380Y-128833333D01*
X82267380Y-128833333D02*
X82315000Y-128976190D01*
X82267380Y-129309524D02*
X82267380Y-129928571D01*
X82267380Y-129928571D02*
X82648333Y-129595238D01*
X82648333Y-129595238D02*
X82648333Y-129738095D01*
X82648333Y-129738095D02*
X82695952Y-129833333D01*
X82695952Y-129833333D02*
X82743571Y-129880952D01*
X82743571Y-129880952D02*
X82838809Y-129928571D01*
X82838809Y-129928571D02*
X83076904Y-129928571D01*
X83076904Y-129928571D02*
X83172142Y-129880952D01*
X83172142Y-129880952D02*
X83219761Y-129833333D01*
X83219761Y-129833333D02*
X83267380Y-129738095D01*
X83267380Y-129738095D02*
X83267380Y-129452381D01*
X83267380Y-129452381D02*
X83219761Y-129357143D01*
X83219761Y-129357143D02*
X83172142Y-129309524D01*
X83267380Y-130404762D02*
X83267380Y-130595238D01*
X83267380Y-130595238D02*
X83219761Y-130690476D01*
X83219761Y-130690476D02*
X83172142Y-130738095D01*
X83172142Y-130738095D02*
X83029285Y-130833333D01*
X83029285Y-130833333D02*
X82838809Y-130880952D01*
X82838809Y-130880952D02*
X82457857Y-130880952D01*
X82457857Y-130880952D02*
X82362619Y-130833333D01*
X82362619Y-130833333D02*
X82315000Y-130785714D01*
X82315000Y-130785714D02*
X82267380Y-130690476D01*
X82267380Y-130690476D02*
X82267380Y-130500000D01*
X82267380Y-130500000D02*
X82315000Y-130404762D01*
X82315000Y-130404762D02*
X82362619Y-130357143D01*
X82362619Y-130357143D02*
X82457857Y-130309524D01*
X82457857Y-130309524D02*
X82695952Y-130309524D01*
X82695952Y-130309524D02*
X82791190Y-130357143D01*
X82791190Y-130357143D02*
X82838809Y-130404762D01*
X82838809Y-130404762D02*
X82886428Y-130500000D01*
X82886428Y-130500000D02*
X82886428Y-130690476D01*
X82886428Y-130690476D02*
X82838809Y-130785714D01*
X82838809Y-130785714D02*
X82791190Y-130833333D01*
X82791190Y-130833333D02*
X82695952Y-130880952D01*
X82743571Y-131309524D02*
X82743571Y-131642857D01*
X83267380Y-131785714D02*
X83267380Y-131309524D01*
X83267380Y-131309524D02*
X82267380Y-131309524D01*
X82267380Y-131309524D02*
X82267380Y-131785714D01*
X82267380Y-132071429D02*
X82267380Y-132642857D01*
X83267380Y-132357143D02*
X82267380Y-132357143D01*
X99513333Y-131887833D02*
X99513333Y-132587833D01*
X99513333Y-132587833D02*
X99680000Y-132587833D01*
X99680000Y-132587833D02*
X99780000Y-132554500D01*
X99780000Y-132554500D02*
X99846667Y-132487833D01*
X99846667Y-132487833D02*
X99880000Y-132421166D01*
X99880000Y-132421166D02*
X99913333Y-132287833D01*
X99913333Y-132287833D02*
X99913333Y-132187833D01*
X99913333Y-132187833D02*
X99880000Y-132054500D01*
X99880000Y-132054500D02*
X99846667Y-131987833D01*
X99846667Y-131987833D02*
X99780000Y-131921166D01*
X99780000Y-131921166D02*
X99680000Y-131887833D01*
X99680000Y-131887833D02*
X99513333Y-131887833D01*
X100180000Y-132521166D02*
X100213333Y-132554500D01*
X100213333Y-132554500D02*
X100280000Y-132587833D01*
X100280000Y-132587833D02*
X100446667Y-132587833D01*
X100446667Y-132587833D02*
X100513333Y-132554500D01*
X100513333Y-132554500D02*
X100546667Y-132521166D01*
X100546667Y-132521166D02*
X100580000Y-132454500D01*
X100580000Y-132454500D02*
X100580000Y-132387833D01*
X100580000Y-132387833D02*
X100546667Y-132287833D01*
X100546667Y-132287833D02*
X100146667Y-131887833D01*
X100146667Y-131887833D02*
X100580000Y-131887833D01*
X79963333Y-132017833D02*
X79963333Y-132717833D01*
X79963333Y-132717833D02*
X80130000Y-132717833D01*
X80130000Y-132717833D02*
X80230000Y-132684500D01*
X80230000Y-132684500D02*
X80296667Y-132617833D01*
X80296667Y-132617833D02*
X80330000Y-132551166D01*
X80330000Y-132551166D02*
X80363333Y-132417833D01*
X80363333Y-132417833D02*
X80363333Y-132317833D01*
X80363333Y-132317833D02*
X80330000Y-132184500D01*
X80330000Y-132184500D02*
X80296667Y-132117833D01*
X80296667Y-132117833D02*
X80230000Y-132051166D01*
X80230000Y-132051166D02*
X80130000Y-132017833D01*
X80130000Y-132017833D02*
X79963333Y-132017833D01*
X81030000Y-132017833D02*
X80630000Y-132017833D01*
X80830000Y-132017833D02*
X80830000Y-132717833D01*
X80830000Y-132717833D02*
X80763333Y-132617833D01*
X80763333Y-132617833D02*
X80696667Y-132551166D01*
X80696667Y-132551166D02*
X80630000Y-132517833D01*
X117637380Y-107093333D02*
X117161190Y-106760000D01*
X117637380Y-106521905D02*
X116637380Y-106521905D01*
X116637380Y-106521905D02*
X116637380Y-106902857D01*
X116637380Y-106902857D02*
X116685000Y-106998095D01*
X116685000Y-106998095D02*
X116732619Y-107045714D01*
X116732619Y-107045714D02*
X116827857Y-107093333D01*
X116827857Y-107093333D02*
X116970714Y-107093333D01*
X116970714Y-107093333D02*
X117065952Y-107045714D01*
X117065952Y-107045714D02*
X117113571Y-106998095D01*
X117113571Y-106998095D02*
X117161190Y-106902857D01*
X117161190Y-106902857D02*
X117161190Y-106521905D01*
X117637380Y-107569524D02*
X117637380Y-107760000D01*
X117637380Y-107760000D02*
X117589761Y-107855238D01*
X117589761Y-107855238D02*
X117542142Y-107902857D01*
X117542142Y-107902857D02*
X117399285Y-107998095D01*
X117399285Y-107998095D02*
X117208809Y-108045714D01*
X117208809Y-108045714D02*
X116827857Y-108045714D01*
X116827857Y-108045714D02*
X116732619Y-107998095D01*
X116732619Y-107998095D02*
X116685000Y-107950476D01*
X116685000Y-107950476D02*
X116637380Y-107855238D01*
X116637380Y-107855238D02*
X116637380Y-107664762D01*
X116637380Y-107664762D02*
X116685000Y-107569524D01*
X116685000Y-107569524D02*
X116732619Y-107521905D01*
X116732619Y-107521905D02*
X116827857Y-107474286D01*
X116827857Y-107474286D02*
X117065952Y-107474286D01*
X117065952Y-107474286D02*
X117161190Y-107521905D01*
X117161190Y-107521905D02*
X117208809Y-107569524D01*
X117208809Y-107569524D02*
X117256428Y-107664762D01*
X117256428Y-107664762D02*
X117256428Y-107855238D01*
X117256428Y-107855238D02*
X117208809Y-107950476D01*
X117208809Y-107950476D02*
X117161190Y-107998095D01*
X117161190Y-107998095D02*
X117065952Y-108045714D01*
D11*
X69708094Y-147367380D02*
X69708094Y-146367380D01*
X69708094Y-146367380D02*
X69469999Y-146367380D01*
X69469999Y-146367380D02*
X69327142Y-146415000D01*
X69327142Y-146415000D02*
X69231904Y-146510238D01*
X69231904Y-146510238D02*
X69184285Y-146605476D01*
X69184285Y-146605476D02*
X69136666Y-146795952D01*
X69136666Y-146795952D02*
X69136666Y-146938809D01*
X69136666Y-146938809D02*
X69184285Y-147129285D01*
X69184285Y-147129285D02*
X69231904Y-147224523D01*
X69231904Y-147224523D02*
X69327142Y-147319761D01*
X69327142Y-147319761D02*
X69469999Y-147367380D01*
X69469999Y-147367380D02*
X69708094Y-147367380D01*
X68279523Y-146700714D02*
X68279523Y-147367380D01*
X68517618Y-146319761D02*
X68755713Y-147034047D01*
X68755713Y-147034047D02*
X68136666Y-147034047D01*
D10*
X93293333Y-107573571D02*
X93626666Y-107573571D01*
X93626666Y-108097380D02*
X93626666Y-107097380D01*
X93626666Y-107097380D02*
X93150476Y-107097380D01*
X92245714Y-108097380D02*
X92817142Y-108097380D01*
X92531428Y-108097380D02*
X92531428Y-107097380D01*
X92531428Y-107097380D02*
X92626666Y-107240238D01*
X92626666Y-107240238D02*
X92721904Y-107335476D01*
X92721904Y-107335476D02*
X92817142Y-107383095D01*
D12*
X85973578Y-120210000D02*
X85456422Y-120210000D01*
X85973578Y-118790000D02*
X85456422Y-118790000D01*
X82280000Y-109330000D02*
X82280000Y-115340000D01*
X89100000Y-111580000D02*
X89100000Y-115340000D01*
X89100000Y-115340000D02*
X87840000Y-115340000D01*
X82280000Y-115340000D02*
X83540000Y-115340000D01*
X113432500Y-110722500D02*
X113432500Y-110462500D01*
X113432500Y-105532500D02*
X115107500Y-105532500D01*
X113432500Y-105272500D02*
X113432500Y-105532500D01*
X110707500Y-110722500D02*
X113432500Y-110722500D01*
X110707500Y-110722500D02*
X107982500Y-110722500D01*
X110707500Y-105272500D02*
X113432500Y-105272500D01*
X110707500Y-105272500D02*
X107982500Y-105272500D01*
X107982500Y-110722500D02*
X107982500Y-110462500D01*
X107982500Y-105272500D02*
X107982500Y-105532500D01*
X84758578Y-107510000D02*
X84241422Y-107510000D01*
X84758578Y-106090000D02*
X84241422Y-106090000D01*
X117247500Y-113117500D02*
X116597500Y-113117500D01*
X117247500Y-113767500D02*
X117247500Y-113117500D01*
X110027500Y-113767500D02*
X110027500Y-113117500D01*
X117247500Y-119687500D02*
X117247500Y-120337500D01*
X110027500Y-119687500D02*
X110027500Y-120337500D01*
X117247500Y-120337500D02*
X116597500Y-120337500D01*
X110027500Y-120337500D02*
X110677500Y-120337500D01*
X128638500Y-111603500D02*
X128638500Y-117603500D01*
X124918500Y-111603500D02*
X124918500Y-117603500D01*
X77777836Y-128927500D02*
X77562164Y-128927500D01*
X77777836Y-128207500D02*
X77562164Y-128207500D01*
X63547836Y-144025000D02*
X63332164Y-144025000D01*
X63547836Y-143305000D02*
X63332164Y-143305000D01*
G36*
X121680000Y-136080000D02*
G01*
X121680000Y-135480000D01*
X122280000Y-135480000D01*
X121680000Y-136080000D01*
G37*
D13*
X121680000Y-136080000D02*
X121680000Y-135480000D01*
X122280000Y-135480000D01*
X121680000Y-136080000D01*
D12*
X105402164Y-137155000D02*
X105617836Y-137155000D01*
X105402164Y-137875000D02*
X105617836Y-137875000D01*
D10*
X127890000Y-108930000D02*
X125590000Y-106680000D01*
D11*
X125890000Y-108930000D02*
X125590000Y-108680000D01*
D10*
X131040000Y-145560000D02*
X128740000Y-143310000D01*
D11*
X129040000Y-145560000D02*
X128740000Y-145310000D01*
D12*
X121060000Y-130000000D02*
X121060000Y-130800000D01*
X121770000Y-105300000D02*
X120310000Y-105300000D01*
X121770000Y-105300000D02*
X121770000Y-106230000D01*
X121770000Y-108460000D02*
X119610000Y-108460000D01*
X121770000Y-108460000D02*
X121770000Y-107530000D01*
X95330000Y-97900000D02*
X95330000Y-96750000D01*
X95330000Y-100000000D02*
X95330000Y-101800000D01*
X104670000Y-97900000D02*
X104670000Y-96750000D01*
X104670000Y-100000000D02*
X104670000Y-101800000D01*
D13*
X105000000Y-96325000D02*
X95000000Y-96325000D01*
X95530000Y-103675000D02*
X104470000Y-103675000D01*
X104470000Y-103675000D02*
X104470000Y-96325000D01*
X104470000Y-96325000D02*
X95530000Y-96325000D01*
X95530000Y-96325000D02*
X95530000Y-103675000D01*
D10*
X71940000Y-115870000D02*
X69640000Y-113620000D01*
D11*
X69940000Y-115870000D02*
X69640000Y-115620000D01*
D12*
X117140000Y-105900000D02*
X117140000Y-104500000D01*
X117140000Y-104500000D02*
X115740000Y-104500000D01*
X115740000Y-105900000D02*
X117140000Y-105900000D01*
X115740000Y-104500000D02*
X115740000Y-105900000D01*
X85402164Y-137295000D02*
X85617836Y-137295000D01*
X85402164Y-138015000D02*
X85617836Y-138015000D01*
D10*
X97835000Y-110740000D02*
X97535000Y-110740000D01*
X99835000Y-110740000D02*
X98235000Y-110740000D01*
X98235000Y-107540000D02*
X98235000Y-110740000D01*
X99835000Y-107540000D02*
X99835000Y-110740000D01*
X99835000Y-107540000D02*
X98235000Y-107540000D01*
D12*
X101560000Y-130000000D02*
X101560000Y-130800000D01*
X119470000Y-122790000D02*
X119470000Y-121390000D01*
X119470000Y-121390000D02*
X118070000Y-121390000D01*
X118070000Y-122790000D02*
X119470000Y-122790000D01*
X118070000Y-121390000D02*
X118070000Y-122790000D01*
X92830000Y-117740000D02*
X92180000Y-117740000D01*
X92830000Y-117740000D02*
X93480000Y-117740000D01*
X92830000Y-120860000D02*
X91155000Y-120860000D01*
X92830000Y-120860000D02*
X93480000Y-120860000D01*
X98440000Y-105802164D02*
X98440000Y-106017836D01*
X97720000Y-105802164D02*
X97720000Y-106017836D01*
X124000000Y-106132164D02*
X124000000Y-106347836D01*
X123280000Y-106132164D02*
X123280000Y-106347836D01*
X82060000Y-130000000D02*
X82060000Y-130800000D01*
X124922164Y-137575000D02*
X125137836Y-137575000D01*
X124922164Y-138295000D02*
X125137836Y-138295000D01*
X135830000Y-146292164D02*
X135830000Y-146507836D01*
X135110000Y-146292164D02*
X135110000Y-146507836D01*
X76640000Y-113082164D02*
X76640000Y-113297836D01*
X75920000Y-113082164D02*
X75920000Y-113297836D01*
X97347836Y-128940000D02*
X97132164Y-128940000D01*
X97347836Y-128220000D02*
X97132164Y-128220000D01*
X102630000Y-105842164D02*
X102630000Y-106057836D01*
X101910000Y-105842164D02*
X101910000Y-106057836D01*
X116867836Y-128940000D02*
X116652164Y-128940000D01*
X116867836Y-128220000D02*
X116652164Y-128220000D01*
G36*
X102230000Y-136245000D02*
G01*
X102230000Y-135645000D01*
X102830000Y-135645000D01*
X102230000Y-136245000D01*
G37*
D13*
X102230000Y-136245000D02*
X102230000Y-135645000D01*
X102830000Y-135645000D01*
X102230000Y-136245000D01*
G36*
X82680000Y-136375000D02*
G01*
X82680000Y-135775000D01*
X83280000Y-135775000D01*
X82680000Y-136375000D01*
G37*
X82680000Y-136375000D02*
X82680000Y-135775000D01*
X83280000Y-135775000D01*
X82680000Y-136375000D01*
D12*
X118350000Y-107237836D02*
X118350000Y-107022164D01*
X119070000Y-107237836D02*
X119070000Y-107022164D01*
D10*
X69230000Y-141090000D02*
X71530000Y-143340000D01*
D11*
X71230000Y-141090000D02*
X71530000Y-141340000D01*
D12*
X113942164Y-104180000D02*
X114157836Y-104180000D01*
X113942164Y-104900000D02*
X114157836Y-104900000D01*
X93562064Y-110460000D02*
X92357936Y-110460000D01*
X93562064Y-108640000D02*
X92357936Y-108640000D01*
M02*
