%TF.GenerationSoftware,KiCad,Pcbnew,(7.0.0-0)*%
%TF.CreationDate,2023-03-04T18:51:26-06:00*%
%TF.ProjectId,plate,706c6174-652e-46b6-9963-61645f706362,rev?*%
%TF.SameCoordinates,Original*%
%TF.FileFunction,Legend,Bot*%
%TF.FilePolarity,Positive*%
%FSLAX46Y46*%
G04 Gerber Fmt 4.6, Leading zero omitted, Abs format (unit mm)*
G04 Created by KiCad (PCBNEW (7.0.0-0)) date 2023-03-04 18:51:26*
%MOMM*%
%LPD*%
G01*
G04 APERTURE LIST*
%ADD10C,4.000000*%
%ADD11C,0.150000*%
G04 APERTURE END LIST*
D10*
X138000000Y-100000000D02*
G75*
G03*
X138000000Y-100000000I-38000000J0D01*
G01*
D11*
%TO.C,H5*%
X100761904Y-129167380D02*
X100761904Y-128167380D01*
X100761904Y-128643571D02*
X100190476Y-128643571D01*
X100190476Y-129167380D02*
X100190476Y-128167380D01*
X99238095Y-128167380D02*
X99714285Y-128167380D01*
X99714285Y-128167380D02*
X99761904Y-128643571D01*
X99761904Y-128643571D02*
X99714285Y-128595952D01*
X99714285Y-128595952D02*
X99619047Y-128548333D01*
X99619047Y-128548333D02*
X99380952Y-128548333D01*
X99380952Y-128548333D02*
X99285714Y-128595952D01*
X99285714Y-128595952D02*
X99238095Y-128643571D01*
X99238095Y-128643571D02*
X99190476Y-128738809D01*
X99190476Y-128738809D02*
X99190476Y-128976904D01*
X99190476Y-128976904D02*
X99238095Y-129072142D01*
X99238095Y-129072142D02*
X99285714Y-129119761D01*
X99285714Y-129119761D02*
X99380952Y-129167380D01*
X99380952Y-129167380D02*
X99619047Y-129167380D01*
X99619047Y-129167380D02*
X99714285Y-129119761D01*
X99714285Y-129119761D02*
X99761904Y-129072142D01*
%TO.C,H1*%
X129761904Y-80167380D02*
X129761904Y-79167380D01*
X129761904Y-79643571D02*
X129190476Y-79643571D01*
X129190476Y-80167380D02*
X129190476Y-79167380D01*
X128190476Y-80167380D02*
X128761904Y-80167380D01*
X128476190Y-80167380D02*
X128476190Y-79167380D01*
X128476190Y-79167380D02*
X128571428Y-79310238D01*
X128571428Y-79310238D02*
X128666666Y-79405476D01*
X128666666Y-79405476D02*
X128761904Y-79453095D01*
%TO.C,REF\u002A\u002A*%
X72333333Y-80167380D02*
X72666666Y-79691190D01*
X72904761Y-80167380D02*
X72904761Y-79167380D01*
X72904761Y-79167380D02*
X72523809Y-79167380D01*
X72523809Y-79167380D02*
X72428571Y-79215000D01*
X72428571Y-79215000D02*
X72380952Y-79262619D01*
X72380952Y-79262619D02*
X72333333Y-79357857D01*
X72333333Y-79357857D02*
X72333333Y-79500714D01*
X72333333Y-79500714D02*
X72380952Y-79595952D01*
X72380952Y-79595952D02*
X72428571Y-79643571D01*
X72428571Y-79643571D02*
X72523809Y-79691190D01*
X72523809Y-79691190D02*
X72904761Y-79691190D01*
X71904761Y-79643571D02*
X71571428Y-79643571D01*
X71428571Y-80167380D02*
X71904761Y-80167380D01*
X71904761Y-80167380D02*
X71904761Y-79167380D01*
X71904761Y-79167380D02*
X71428571Y-79167380D01*
X70666666Y-79643571D02*
X70999999Y-79643571D01*
X70999999Y-80167380D02*
X70999999Y-79167380D01*
X70999999Y-79167380D02*
X70523809Y-79167380D01*
X69999999Y-79167380D02*
X69999999Y-79405476D01*
X70238094Y-79310238D02*
X69999999Y-79405476D01*
X69999999Y-79405476D02*
X69761904Y-79310238D01*
X70142856Y-79595952D02*
X69999999Y-79405476D01*
X69999999Y-79405476D02*
X69857142Y-79595952D01*
X69238094Y-79167380D02*
X69238094Y-79405476D01*
X69476189Y-79310238D02*
X69238094Y-79405476D01*
X69238094Y-79405476D02*
X68999999Y-79310238D01*
X69380951Y-79595952D02*
X69238094Y-79405476D01*
X69238094Y-79405476D02*
X69095237Y-79595952D01*
%TD*%
M02*
