%TF.GenerationSoftware,KiCad,Pcbnew,(7.0.0-0)*%
%TF.CreationDate,2023-03-14T22:07:24-05:00*%
%TF.ProjectId,RP2040_minimal,52503230-3430-45f6-9d69-6e696d616c2e,REV1*%
%TF.SameCoordinates,Original*%
%TF.FileFunction,Legend,Bot*%
%TF.FilePolarity,Positive*%
%FSLAX46Y46*%
G04 Gerber Fmt 4.6, Leading zero omitted, Abs format (unit mm)*
G04 Created by KiCad (PCBNEW (7.0.0-0)) date 2023-03-14 22:07:24*
%MOMM*%
%LPD*%
G01*
G04 APERTURE LIST*
G04 Aperture macros list*
%AMRoundRect*
0 Rectangle with rounded corners*
0 $1 Rounding radius*
0 $2 $3 $4 $5 $6 $7 $8 $9 X,Y pos of 4 corners*
0 Add a 4 corners polygon primitive as box body*
4,1,4,$2,$3,$4,$5,$6,$7,$8,$9,$2,$3,0*
0 Add four circle primitives for the rounded corners*
1,1,$1+$1,$2,$3*
1,1,$1+$1,$4,$5*
1,1,$1+$1,$6,$7*
1,1,$1+$1,$8,$9*
0 Add four rect primitives between the rounded corners*
20,1,$1+$1,$2,$3,$4,$5,0*
20,1,$1+$1,$4,$5,$6,$7,0*
20,1,$1+$1,$6,$7,$8,$9,0*
20,1,$1+$1,$8,$9,$2,$3,0*%
G04 Aperture macros list end*
%ADD10C,0.150000*%
%ADD11C,0.050000*%
%ADD12C,0.120000*%
%ADD13O,1.102000X1.902000*%
%ADD14O,1.102000X2.302000*%
%ADD15RoundRect,0.191000X-0.170000X0.140000X-0.170000X-0.140000X0.170000X-0.140000X0.170000X0.140000X0*%
%ADD16RoundRect,0.251000X0.800000X-0.200000X0.800000X0.200000X-0.800000X0.200000X-0.800000X-0.200000X0*%
%ADD17RoundRect,0.191000X0.140000X0.170000X-0.140000X0.170000X-0.140000X-0.170000X0.140000X-0.170000X0*%
%ADD18RoundRect,0.191000X0.170000X-0.140000X0.170000X0.140000X-0.170000X0.140000X-0.170000X-0.140000X0*%
%ADD19C,3.302000*%
%ADD20RoundRect,0.418500X0.762500X0.367500X-0.762500X0.367500X-0.762500X-0.367500X0.762500X-0.367500X0*%
%ADD21RoundRect,0.418500X0.775000X0.367500X-0.775000X0.367500X-0.775000X-0.367500X0.775000X-0.367500X0*%
%ADD22RoundRect,0.426000X0.707500X0.375000X-0.707500X0.375000X-0.707500X-0.375000X0.707500X-0.375000X0*%
%ADD23RoundRect,0.461000X0.702500X0.410000X-0.702500X0.410000X-0.702500X-0.410000X0.702500X-0.410000X0*%
%ADD24RoundRect,0.051000X-0.350000X-0.350000X0.350000X-0.350000X0.350000X0.350000X-0.350000X0.350000X0*%
%ADD25C,1.802000*%
%ADD26RoundRect,0.051000X0.350000X0.350000X-0.350000X0.350000X-0.350000X-0.350000X0.350000X-0.350000X0*%
%ADD27RoundRect,0.051000X-0.350000X0.350000X-0.350000X-0.350000X0.350000X-0.350000X0.350000X0.350000X0*%
%ADD28RoundRect,0.191000X-0.140000X-0.170000X0.140000X-0.170000X0.140000X0.170000X-0.140000X0.170000X0*%
%ADD29RoundRect,0.421000X0.835000X0.370000X-0.835000X0.370000X-0.835000X-0.370000X0.835000X-0.370000X0*%
%ADD30RoundRect,0.426000X0.777500X0.375000X-0.777500X0.375000X-0.777500X-0.375000X0.777500X-0.375000X0*%
%ADD31RoundRect,0.441000X0.782500X0.390000X-0.782500X0.390000X-0.782500X-0.390000X0.782500X-0.390000X0*%
%ADD32RoundRect,0.456000X0.782500X0.405000X-0.782500X0.405000X-0.782500X-0.405000X0.782500X-0.405000X0*%
%ADD33C,4.402000*%
G04 APERTURE END LIST*
D10*
%TO.C,C26*%
X31072142Y-2037142D02*
X31119761Y-1989523D01*
X31119761Y-1989523D02*
X31167380Y-1846666D01*
X31167380Y-1846666D02*
X31167380Y-1751428D01*
X31167380Y-1751428D02*
X31119761Y-1608571D01*
X31119761Y-1608571D02*
X31024523Y-1513333D01*
X31024523Y-1513333D02*
X30929285Y-1465714D01*
X30929285Y-1465714D02*
X30738809Y-1418095D01*
X30738809Y-1418095D02*
X30595952Y-1418095D01*
X30595952Y-1418095D02*
X30405476Y-1465714D01*
X30405476Y-1465714D02*
X30310238Y-1513333D01*
X30310238Y-1513333D02*
X30215000Y-1608571D01*
X30215000Y-1608571D02*
X30167380Y-1751428D01*
X30167380Y-1751428D02*
X30167380Y-1846666D01*
X30167380Y-1846666D02*
X30215000Y-1989523D01*
X30215000Y-1989523D02*
X30262619Y-2037142D01*
X30262619Y-2418095D02*
X30215000Y-2465714D01*
X30215000Y-2465714D02*
X30167380Y-2560952D01*
X30167380Y-2560952D02*
X30167380Y-2799047D01*
X30167380Y-2799047D02*
X30215000Y-2894285D01*
X30215000Y-2894285D02*
X30262619Y-2941904D01*
X30262619Y-2941904D02*
X30357857Y-2989523D01*
X30357857Y-2989523D02*
X30453095Y-2989523D01*
X30453095Y-2989523D02*
X30595952Y-2941904D01*
X30595952Y-2941904D02*
X31167380Y-2370476D01*
X31167380Y-2370476D02*
X31167380Y-2989523D01*
X30167380Y-3846666D02*
X30167380Y-3656190D01*
X30167380Y-3656190D02*
X30215000Y-3560952D01*
X30215000Y-3560952D02*
X30262619Y-3513333D01*
X30262619Y-3513333D02*
X30405476Y-3418095D01*
X30405476Y-3418095D02*
X30595952Y-3370476D01*
X30595952Y-3370476D02*
X30976904Y-3370476D01*
X30976904Y-3370476D02*
X31072142Y-3418095D01*
X31072142Y-3418095D02*
X31119761Y-3465714D01*
X31119761Y-3465714D02*
X31167380Y-3560952D01*
X31167380Y-3560952D02*
X31167380Y-3751428D01*
X31167380Y-3751428D02*
X31119761Y-3846666D01*
X31119761Y-3846666D02*
X31072142Y-3894285D01*
X31072142Y-3894285D02*
X30976904Y-3941904D01*
X30976904Y-3941904D02*
X30738809Y-3941904D01*
X30738809Y-3941904D02*
X30643571Y-3894285D01*
X30643571Y-3894285D02*
X30595952Y-3846666D01*
X30595952Y-3846666D02*
X30548333Y-3751428D01*
X30548333Y-3751428D02*
X30548333Y-3560952D01*
X30548333Y-3560952D02*
X30595952Y-3465714D01*
X30595952Y-3465714D02*
X30643571Y-3418095D01*
X30643571Y-3418095D02*
X30738809Y-3370476D01*
%TO.C,SW1*%
X-6900239Y29463333D02*
X-6852620Y29320476D01*
X-6852620Y29320476D02*
X-6852620Y29082381D01*
X-6852620Y29082381D02*
X-6900239Y28987143D01*
X-6900239Y28987143D02*
X-6947858Y28939524D01*
X-6947858Y28939524D02*
X-7043096Y28891905D01*
X-7043096Y28891905D02*
X-7138334Y28891905D01*
X-7138334Y28891905D02*
X-7233572Y28939524D01*
X-7233572Y28939524D02*
X-7281191Y28987143D01*
X-7281191Y28987143D02*
X-7328810Y29082381D01*
X-7328810Y29082381D02*
X-7376429Y29272857D01*
X-7376429Y29272857D02*
X-7424048Y29368095D01*
X-7424048Y29368095D02*
X-7471667Y29415714D01*
X-7471667Y29415714D02*
X-7566905Y29463333D01*
X-7566905Y29463333D02*
X-7662143Y29463333D01*
X-7662143Y29463333D02*
X-7757381Y29415714D01*
X-7757381Y29415714D02*
X-7805000Y29368095D01*
X-7805000Y29368095D02*
X-7852620Y29272857D01*
X-7852620Y29272857D02*
X-7852620Y29034762D01*
X-7852620Y29034762D02*
X-7805000Y28891905D01*
X-7852620Y28558571D02*
X-6852620Y28320476D01*
X-6852620Y28320476D02*
X-7566905Y28130000D01*
X-7566905Y28130000D02*
X-6852620Y27939524D01*
X-6852620Y27939524D02*
X-7852620Y27701428D01*
X-6852620Y26796667D02*
X-6852620Y27368095D01*
X-6852620Y27082381D02*
X-7852620Y27082381D01*
X-7852620Y27082381D02*
X-7709762Y27177619D01*
X-7709762Y27177619D02*
X-7614524Y27272857D01*
X-7614524Y27272857D02*
X-7566905Y27368095D01*
%TO.C,C29*%
X-1877143Y-4012142D02*
X-1829524Y-4059761D01*
X-1829524Y-4059761D02*
X-1686667Y-4107380D01*
X-1686667Y-4107380D02*
X-1591429Y-4107380D01*
X-1591429Y-4107380D02*
X-1448572Y-4059761D01*
X-1448572Y-4059761D02*
X-1353334Y-3964523D01*
X-1353334Y-3964523D02*
X-1305715Y-3869285D01*
X-1305715Y-3869285D02*
X-1258096Y-3678809D01*
X-1258096Y-3678809D02*
X-1258096Y-3535952D01*
X-1258096Y-3535952D02*
X-1305715Y-3345476D01*
X-1305715Y-3345476D02*
X-1353334Y-3250238D01*
X-1353334Y-3250238D02*
X-1448572Y-3155000D01*
X-1448572Y-3155000D02*
X-1591429Y-3107380D01*
X-1591429Y-3107380D02*
X-1686667Y-3107380D01*
X-1686667Y-3107380D02*
X-1829524Y-3155000D01*
X-1829524Y-3155000D02*
X-1877143Y-3202619D01*
X-2258096Y-3202619D02*
X-2305715Y-3155000D01*
X-2305715Y-3155000D02*
X-2400953Y-3107380D01*
X-2400953Y-3107380D02*
X-2639048Y-3107380D01*
X-2639048Y-3107380D02*
X-2734286Y-3155000D01*
X-2734286Y-3155000D02*
X-2781905Y-3202619D01*
X-2781905Y-3202619D02*
X-2829524Y-3297857D01*
X-2829524Y-3297857D02*
X-2829524Y-3393095D01*
X-2829524Y-3393095D02*
X-2781905Y-3535952D01*
X-2781905Y-3535952D02*
X-2210477Y-4107380D01*
X-2210477Y-4107380D02*
X-2829524Y-4107380D01*
X-3305715Y-4107380D02*
X-3496191Y-4107380D01*
X-3496191Y-4107380D02*
X-3591429Y-4059761D01*
X-3591429Y-4059761D02*
X-3639048Y-4012142D01*
X-3639048Y-4012142D02*
X-3734286Y-3869285D01*
X-3734286Y-3869285D02*
X-3781905Y-3678809D01*
X-3781905Y-3678809D02*
X-3781905Y-3297857D01*
X-3781905Y-3297857D02*
X-3734286Y-3202619D01*
X-3734286Y-3202619D02*
X-3686667Y-3155000D01*
X-3686667Y-3155000D02*
X-3591429Y-3107380D01*
X-3591429Y-3107380D02*
X-3400953Y-3107380D01*
X-3400953Y-3107380D02*
X-3305715Y-3155000D01*
X-3305715Y-3155000D02*
X-3258096Y-3202619D01*
X-3258096Y-3202619D02*
X-3210477Y-3297857D01*
X-3210477Y-3297857D02*
X-3210477Y-3535952D01*
X-3210477Y-3535952D02*
X-3258096Y-3631190D01*
X-3258096Y-3631190D02*
X-3305715Y-3678809D01*
X-3305715Y-3678809D02*
X-3400953Y-3726428D01*
X-3400953Y-3726428D02*
X-3591429Y-3726428D01*
X-3591429Y-3726428D02*
X-3686667Y-3678809D01*
X-3686667Y-3678809D02*
X-3734286Y-3631190D01*
X-3734286Y-3631190D02*
X-3781905Y-3535952D01*
%TO.C,C25*%
X19288142Y-25087142D02*
X19335761Y-25039523D01*
X19335761Y-25039523D02*
X19383380Y-24896666D01*
X19383380Y-24896666D02*
X19383380Y-24801428D01*
X19383380Y-24801428D02*
X19335761Y-24658571D01*
X19335761Y-24658571D02*
X19240523Y-24563333D01*
X19240523Y-24563333D02*
X19145285Y-24515714D01*
X19145285Y-24515714D02*
X18954809Y-24468095D01*
X18954809Y-24468095D02*
X18811952Y-24468095D01*
X18811952Y-24468095D02*
X18621476Y-24515714D01*
X18621476Y-24515714D02*
X18526238Y-24563333D01*
X18526238Y-24563333D02*
X18431000Y-24658571D01*
X18431000Y-24658571D02*
X18383380Y-24801428D01*
X18383380Y-24801428D02*
X18383380Y-24896666D01*
X18383380Y-24896666D02*
X18431000Y-25039523D01*
X18431000Y-25039523D02*
X18478619Y-25087142D01*
X18478619Y-25468095D02*
X18431000Y-25515714D01*
X18431000Y-25515714D02*
X18383380Y-25610952D01*
X18383380Y-25610952D02*
X18383380Y-25849047D01*
X18383380Y-25849047D02*
X18431000Y-25944285D01*
X18431000Y-25944285D02*
X18478619Y-25991904D01*
X18478619Y-25991904D02*
X18573857Y-26039523D01*
X18573857Y-26039523D02*
X18669095Y-26039523D01*
X18669095Y-26039523D02*
X18811952Y-25991904D01*
X18811952Y-25991904D02*
X19383380Y-25420476D01*
X19383380Y-25420476D02*
X19383380Y-26039523D01*
X18383380Y-26944285D02*
X18383380Y-26468095D01*
X18383380Y-26468095D02*
X18859571Y-26420476D01*
X18859571Y-26420476D02*
X18811952Y-26468095D01*
X18811952Y-26468095D02*
X18764333Y-26563333D01*
X18764333Y-26563333D02*
X18764333Y-26801428D01*
X18764333Y-26801428D02*
X18811952Y-26896666D01*
X18811952Y-26896666D02*
X18859571Y-26944285D01*
X18859571Y-26944285D02*
X18954809Y-26991904D01*
X18954809Y-26991904D02*
X19192904Y-26991904D01*
X19192904Y-26991904D02*
X19288142Y-26944285D01*
X19288142Y-26944285D02*
X19335761Y-26896666D01*
X19335761Y-26896666D02*
X19383380Y-26801428D01*
X19383380Y-26801428D02*
X19383380Y-26563333D01*
X19383380Y-26563333D02*
X19335761Y-26468095D01*
X19335761Y-26468095D02*
X19288142Y-26420476D01*
%TO.C,H3*%
X761904Y-25167380D02*
X761904Y-24167380D01*
X761904Y-24643571D02*
X190476Y-24643571D01*
X190476Y-25167380D02*
X190476Y-24167380D01*
X-190477Y-24167380D02*
X-809524Y-24167380D01*
X-809524Y-24167380D02*
X-476191Y-24548333D01*
X-476191Y-24548333D02*
X-619048Y-24548333D01*
X-619048Y-24548333D02*
X-714286Y-24595952D01*
X-714286Y-24595952D02*
X-761905Y-24643571D01*
X-761905Y-24643571D02*
X-809524Y-24738809D01*
X-809524Y-24738809D02*
X-809524Y-24976904D01*
X-809524Y-24976904D02*
X-761905Y-25072142D01*
X-761905Y-25072142D02*
X-714286Y-25119761D01*
X-714286Y-25119761D02*
X-619048Y-25167380D01*
X-619048Y-25167380D02*
X-333334Y-25167380D01*
X-333334Y-25167380D02*
X-238096Y-25119761D01*
X-238096Y-25119761D02*
X-190477Y-25072142D01*
%TO.C,C27*%
X23070857Y22909858D02*
X23118476Y22862239D01*
X23118476Y22862239D02*
X23261333Y22814620D01*
X23261333Y22814620D02*
X23356571Y22814620D01*
X23356571Y22814620D02*
X23499428Y22862239D01*
X23499428Y22862239D02*
X23594666Y22957477D01*
X23594666Y22957477D02*
X23642285Y23052715D01*
X23642285Y23052715D02*
X23689904Y23243191D01*
X23689904Y23243191D02*
X23689904Y23386048D01*
X23689904Y23386048D02*
X23642285Y23576524D01*
X23642285Y23576524D02*
X23594666Y23671762D01*
X23594666Y23671762D02*
X23499428Y23767000D01*
X23499428Y23767000D02*
X23356571Y23814620D01*
X23356571Y23814620D02*
X23261333Y23814620D01*
X23261333Y23814620D02*
X23118476Y23767000D01*
X23118476Y23767000D02*
X23070857Y23719381D01*
X22689904Y23719381D02*
X22642285Y23767000D01*
X22642285Y23767000D02*
X22547047Y23814620D01*
X22547047Y23814620D02*
X22308952Y23814620D01*
X22308952Y23814620D02*
X22213714Y23767000D01*
X22213714Y23767000D02*
X22166095Y23719381D01*
X22166095Y23719381D02*
X22118476Y23624143D01*
X22118476Y23624143D02*
X22118476Y23528905D01*
X22118476Y23528905D02*
X22166095Y23386048D01*
X22166095Y23386048D02*
X22737523Y22814620D01*
X22737523Y22814620D02*
X22118476Y22814620D01*
X21785142Y23814620D02*
X21118476Y23814620D01*
X21118476Y23814620D02*
X21547047Y22814620D01*
%TO.C,SW2*%
X-8916668Y-15819761D02*
X-9059525Y-15867380D01*
X-9059525Y-15867380D02*
X-9297620Y-15867380D01*
X-9297620Y-15867380D02*
X-9392858Y-15819761D01*
X-9392858Y-15819761D02*
X-9440477Y-15772142D01*
X-9440477Y-15772142D02*
X-9488096Y-15676904D01*
X-9488096Y-15676904D02*
X-9488096Y-15581666D01*
X-9488096Y-15581666D02*
X-9440477Y-15486428D01*
X-9440477Y-15486428D02*
X-9392858Y-15438809D01*
X-9392858Y-15438809D02*
X-9297620Y-15391190D01*
X-9297620Y-15391190D02*
X-9107144Y-15343571D01*
X-9107144Y-15343571D02*
X-9011906Y-15295952D01*
X-9011906Y-15295952D02*
X-8964287Y-15248333D01*
X-8964287Y-15248333D02*
X-8916668Y-15153095D01*
X-8916668Y-15153095D02*
X-8916668Y-15057857D01*
X-8916668Y-15057857D02*
X-8964287Y-14962619D01*
X-8964287Y-14962619D02*
X-9011906Y-14915000D01*
X-9011906Y-14915000D02*
X-9107144Y-14867380D01*
X-9107144Y-14867380D02*
X-9345239Y-14867380D01*
X-9345239Y-14867380D02*
X-9488096Y-14915000D01*
X-9821430Y-14867380D02*
X-10059525Y-15867380D01*
X-10059525Y-15867380D02*
X-10250001Y-15153095D01*
X-10250001Y-15153095D02*
X-10440477Y-15867380D01*
X-10440477Y-15867380D02*
X-10678572Y-14867380D01*
X-11011906Y-14962619D02*
X-11059525Y-14915000D01*
X-11059525Y-14915000D02*
X-11154763Y-14867380D01*
X-11154763Y-14867380D02*
X-11392858Y-14867380D01*
X-11392858Y-14867380D02*
X-11488096Y-14915000D01*
X-11488096Y-14915000D02*
X-11535715Y-14962619D01*
X-11535715Y-14962619D02*
X-11583334Y-15057857D01*
X-11583334Y-15057857D02*
X-11583334Y-15153095D01*
X-11583334Y-15153095D02*
X-11535715Y-15295952D01*
X-11535715Y-15295952D02*
X-10964287Y-15867380D01*
X-10964287Y-15867380D02*
X-11583334Y-15867380D01*
%TO.C,D2*%
X-32459906Y-2443380D02*
X-32459906Y-1443380D01*
X-32459906Y-1443380D02*
X-32698001Y-1443380D01*
X-32698001Y-1443380D02*
X-32840858Y-1491000D01*
X-32840858Y-1491000D02*
X-32936096Y-1586238D01*
X-32936096Y-1586238D02*
X-32983715Y-1681476D01*
X-32983715Y-1681476D02*
X-33031334Y-1871952D01*
X-33031334Y-1871952D02*
X-33031334Y-2014809D01*
X-33031334Y-2014809D02*
X-32983715Y-2205285D01*
X-32983715Y-2205285D02*
X-32936096Y-2300523D01*
X-32936096Y-2300523D02*
X-32840858Y-2395761D01*
X-32840858Y-2395761D02*
X-32698001Y-2443380D01*
X-32698001Y-2443380D02*
X-32459906Y-2443380D01*
X-33412287Y-1538619D02*
X-33459906Y-1491000D01*
X-33459906Y-1491000D02*
X-33555144Y-1443380D01*
X-33555144Y-1443380D02*
X-33793239Y-1443380D01*
X-33793239Y-1443380D02*
X-33888477Y-1491000D01*
X-33888477Y-1491000D02*
X-33936096Y-1538619D01*
X-33936096Y-1538619D02*
X-33983715Y-1633857D01*
X-33983715Y-1633857D02*
X-33983715Y-1729095D01*
X-33983715Y-1729095D02*
X-33936096Y-1871952D01*
X-33936096Y-1871952D02*
X-33364668Y-2443380D01*
X-33364668Y-2443380D02*
X-33983715Y-2443380D01*
%TO.C,C21*%
X-18124858Y25144858D02*
X-18077239Y25192477D01*
X-18077239Y25192477D02*
X-18029620Y25335334D01*
X-18029620Y25335334D02*
X-18029620Y25430572D01*
X-18029620Y25430572D02*
X-18077239Y25573429D01*
X-18077239Y25573429D02*
X-18172477Y25668667D01*
X-18172477Y25668667D02*
X-18267715Y25716286D01*
X-18267715Y25716286D02*
X-18458191Y25763905D01*
X-18458191Y25763905D02*
X-18601048Y25763905D01*
X-18601048Y25763905D02*
X-18791524Y25716286D01*
X-18791524Y25716286D02*
X-18886762Y25668667D01*
X-18886762Y25668667D02*
X-18982000Y25573429D01*
X-18982000Y25573429D02*
X-19029620Y25430572D01*
X-19029620Y25430572D02*
X-19029620Y25335334D01*
X-19029620Y25335334D02*
X-18982000Y25192477D01*
X-18982000Y25192477D02*
X-18934381Y25144858D01*
X-18934381Y24763905D02*
X-18982000Y24716286D01*
X-18982000Y24716286D02*
X-19029620Y24621048D01*
X-19029620Y24621048D02*
X-19029620Y24382953D01*
X-19029620Y24382953D02*
X-18982000Y24287715D01*
X-18982000Y24287715D02*
X-18934381Y24240096D01*
X-18934381Y24240096D02*
X-18839143Y24192477D01*
X-18839143Y24192477D02*
X-18743905Y24192477D01*
X-18743905Y24192477D02*
X-18601048Y24240096D01*
X-18601048Y24240096D02*
X-18029620Y24811524D01*
X-18029620Y24811524D02*
X-18029620Y24192477D01*
X-18029620Y23240096D02*
X-18029620Y23811524D01*
X-18029620Y23525810D02*
X-19029620Y23525810D01*
X-19029620Y23525810D02*
X-18886762Y23621048D01*
X-18886762Y23621048D02*
X-18791524Y23716286D01*
X-18791524Y23716286D02*
X-18743905Y23811524D01*
%TO.C,C22*%
X-29535858Y566858D02*
X-29488239Y614477D01*
X-29488239Y614477D02*
X-29440620Y757334D01*
X-29440620Y757334D02*
X-29440620Y852572D01*
X-29440620Y852572D02*
X-29488239Y995429D01*
X-29488239Y995429D02*
X-29583477Y1090667D01*
X-29583477Y1090667D02*
X-29678715Y1138286D01*
X-29678715Y1138286D02*
X-29869191Y1185905D01*
X-29869191Y1185905D02*
X-30012048Y1185905D01*
X-30012048Y1185905D02*
X-30202524Y1138286D01*
X-30202524Y1138286D02*
X-30297762Y1090667D01*
X-30297762Y1090667D02*
X-30393000Y995429D01*
X-30393000Y995429D02*
X-30440620Y852572D01*
X-30440620Y852572D02*
X-30440620Y757334D01*
X-30440620Y757334D02*
X-30393000Y614477D01*
X-30393000Y614477D02*
X-30345381Y566858D01*
X-30345381Y185905D02*
X-30393000Y138286D01*
X-30393000Y138286D02*
X-30440620Y43048D01*
X-30440620Y43048D02*
X-30440620Y-195047D01*
X-30440620Y-195047D02*
X-30393000Y-290285D01*
X-30393000Y-290285D02*
X-30345381Y-337904D01*
X-30345381Y-337904D02*
X-30250143Y-385523D01*
X-30250143Y-385523D02*
X-30154905Y-385523D01*
X-30154905Y-385523D02*
X-30012048Y-337904D01*
X-30012048Y-337904D02*
X-29440620Y233524D01*
X-29440620Y233524D02*
X-29440620Y-385523D01*
X-30345381Y-766476D02*
X-30393000Y-814095D01*
X-30393000Y-814095D02*
X-30440620Y-909333D01*
X-30440620Y-909333D02*
X-30440620Y-1147428D01*
X-30440620Y-1147428D02*
X-30393000Y-1242666D01*
X-30393000Y-1242666D02*
X-30345381Y-1290285D01*
X-30345381Y-1290285D02*
X-30250143Y-1337904D01*
X-30250143Y-1337904D02*
X-30154905Y-1337904D01*
X-30154905Y-1337904D02*
X-30012048Y-1290285D01*
X-30012048Y-1290285D02*
X-29440620Y-718857D01*
X-29440620Y-718857D02*
X-29440620Y-1337904D01*
%TO.C,D10*%
X20714285Y-3217380D02*
X20714285Y-2217380D01*
X20714285Y-2217380D02*
X20476190Y-2217380D01*
X20476190Y-2217380D02*
X20333333Y-2265000D01*
X20333333Y-2265000D02*
X20238095Y-2360238D01*
X20238095Y-2360238D02*
X20190476Y-2455476D01*
X20190476Y-2455476D02*
X20142857Y-2645952D01*
X20142857Y-2645952D02*
X20142857Y-2788809D01*
X20142857Y-2788809D02*
X20190476Y-2979285D01*
X20190476Y-2979285D02*
X20238095Y-3074523D01*
X20238095Y-3074523D02*
X20333333Y-3169761D01*
X20333333Y-3169761D02*
X20476190Y-3217380D01*
X20476190Y-3217380D02*
X20714285Y-3217380D01*
X19190476Y-3217380D02*
X19761904Y-3217380D01*
X19476190Y-3217380D02*
X19476190Y-2217380D01*
X19476190Y-2217380D02*
X19571428Y-2360238D01*
X19571428Y-2360238D02*
X19666666Y-2455476D01*
X19666666Y-2455476D02*
X19761904Y-2503095D01*
X18571428Y-2217380D02*
X18476190Y-2217380D01*
X18476190Y-2217380D02*
X18380952Y-2265000D01*
X18380952Y-2265000D02*
X18333333Y-2312619D01*
X18333333Y-2312619D02*
X18285714Y-2407857D01*
X18285714Y-2407857D02*
X18238095Y-2598333D01*
X18238095Y-2598333D02*
X18238095Y-2836428D01*
X18238095Y-2836428D02*
X18285714Y-3026904D01*
X18285714Y-3026904D02*
X18333333Y-3122142D01*
X18333333Y-3122142D02*
X18380952Y-3169761D01*
X18380952Y-3169761D02*
X18476190Y-3217380D01*
X18476190Y-3217380D02*
X18571428Y-3217380D01*
X18571428Y-3217380D02*
X18666666Y-3169761D01*
X18666666Y-3169761D02*
X18714285Y-3122142D01*
X18714285Y-3122142D02*
X18761904Y-3026904D01*
X18761904Y-3026904D02*
X18809523Y-2836428D01*
X18809523Y-2836428D02*
X18809523Y-2598333D01*
X18809523Y-2598333D02*
X18761904Y-2407857D01*
X18761904Y-2407857D02*
X18714285Y-2312619D01*
X18714285Y-2312619D02*
X18666666Y-2265000D01*
X18666666Y-2265000D02*
X18571428Y-2217380D01*
%TO.C,D5*%
X20255380Y-23975905D02*
X19255380Y-23975905D01*
X19255380Y-23975905D02*
X19255380Y-24214000D01*
X19255380Y-24214000D02*
X19303000Y-24356857D01*
X19303000Y-24356857D02*
X19398238Y-24452095D01*
X19398238Y-24452095D02*
X19493476Y-24499714D01*
X19493476Y-24499714D02*
X19683952Y-24547333D01*
X19683952Y-24547333D02*
X19826809Y-24547333D01*
X19826809Y-24547333D02*
X20017285Y-24499714D01*
X20017285Y-24499714D02*
X20112523Y-24452095D01*
X20112523Y-24452095D02*
X20207761Y-24356857D01*
X20207761Y-24356857D02*
X20255380Y-24214000D01*
X20255380Y-24214000D02*
X20255380Y-23975905D01*
X19255380Y-25452095D02*
X19255380Y-24975905D01*
X19255380Y-24975905D02*
X19731571Y-24928286D01*
X19731571Y-24928286D02*
X19683952Y-24975905D01*
X19683952Y-24975905D02*
X19636333Y-25071143D01*
X19636333Y-25071143D02*
X19636333Y-25309238D01*
X19636333Y-25309238D02*
X19683952Y-25404476D01*
X19683952Y-25404476D02*
X19731571Y-25452095D01*
X19731571Y-25452095D02*
X19826809Y-25499714D01*
X19826809Y-25499714D02*
X20064904Y-25499714D01*
X20064904Y-25499714D02*
X20160142Y-25452095D01*
X20160142Y-25452095D02*
X20207761Y-25404476D01*
X20207761Y-25404476D02*
X20255380Y-25309238D01*
X20255380Y-25309238D02*
X20255380Y-25071143D01*
X20255380Y-25071143D02*
X20207761Y-24975905D01*
X20207761Y-24975905D02*
X20160142Y-24928286D01*
%TO.C,H2*%
X-26238096Y17832620D02*
X-26238096Y18832620D01*
X-26238096Y18356429D02*
X-26809524Y18356429D01*
X-26809524Y17832620D02*
X-26809524Y18832620D01*
X-27238096Y18737381D02*
X-27285715Y18785000D01*
X-27285715Y18785000D02*
X-27380953Y18832620D01*
X-27380953Y18832620D02*
X-27619048Y18832620D01*
X-27619048Y18832620D02*
X-27714286Y18785000D01*
X-27714286Y18785000D02*
X-27761905Y18737381D01*
X-27761905Y18737381D02*
X-27809524Y18642143D01*
X-27809524Y18642143D02*
X-27809524Y18546905D01*
X-27809524Y18546905D02*
X-27761905Y18404048D01*
X-27761905Y18404048D02*
X-27190477Y17832620D01*
X-27190477Y17832620D02*
X-27809524Y17832620D01*
%TO.C,C23*%
X-16553143Y-27231142D02*
X-16505524Y-27278761D01*
X-16505524Y-27278761D02*
X-16362667Y-27326380D01*
X-16362667Y-27326380D02*
X-16267429Y-27326380D01*
X-16267429Y-27326380D02*
X-16124572Y-27278761D01*
X-16124572Y-27278761D02*
X-16029334Y-27183523D01*
X-16029334Y-27183523D02*
X-15981715Y-27088285D01*
X-15981715Y-27088285D02*
X-15934096Y-26897809D01*
X-15934096Y-26897809D02*
X-15934096Y-26754952D01*
X-15934096Y-26754952D02*
X-15981715Y-26564476D01*
X-15981715Y-26564476D02*
X-16029334Y-26469238D01*
X-16029334Y-26469238D02*
X-16124572Y-26374000D01*
X-16124572Y-26374000D02*
X-16267429Y-26326380D01*
X-16267429Y-26326380D02*
X-16362667Y-26326380D01*
X-16362667Y-26326380D02*
X-16505524Y-26374000D01*
X-16505524Y-26374000D02*
X-16553143Y-26421619D01*
X-16934096Y-26421619D02*
X-16981715Y-26374000D01*
X-16981715Y-26374000D02*
X-17076953Y-26326380D01*
X-17076953Y-26326380D02*
X-17315048Y-26326380D01*
X-17315048Y-26326380D02*
X-17410286Y-26374000D01*
X-17410286Y-26374000D02*
X-17457905Y-26421619D01*
X-17457905Y-26421619D02*
X-17505524Y-26516857D01*
X-17505524Y-26516857D02*
X-17505524Y-26612095D01*
X-17505524Y-26612095D02*
X-17457905Y-26754952D01*
X-17457905Y-26754952D02*
X-16886477Y-27326380D01*
X-16886477Y-27326380D02*
X-17505524Y-27326380D01*
X-17838858Y-26326380D02*
X-18457905Y-26326380D01*
X-18457905Y-26326380D02*
X-18124572Y-26707333D01*
X-18124572Y-26707333D02*
X-18267429Y-26707333D01*
X-18267429Y-26707333D02*
X-18362667Y-26754952D01*
X-18362667Y-26754952D02*
X-18410286Y-26802571D01*
X-18410286Y-26802571D02*
X-18457905Y-26897809D01*
X-18457905Y-26897809D02*
X-18457905Y-27135904D01*
X-18457905Y-27135904D02*
X-18410286Y-27231142D01*
X-18410286Y-27231142D02*
X-18362667Y-27278761D01*
X-18362667Y-27278761D02*
X-18267429Y-27326380D01*
X-18267429Y-27326380D02*
X-17981715Y-27326380D01*
X-17981715Y-27326380D02*
X-17886477Y-27278761D01*
X-17886477Y-27278761D02*
X-17838858Y-27231142D01*
%TO.C,D7*%
X22811094Y21644620D02*
X22811094Y22644620D01*
X22811094Y22644620D02*
X22572999Y22644620D01*
X22572999Y22644620D02*
X22430142Y22597000D01*
X22430142Y22597000D02*
X22334904Y22501762D01*
X22334904Y22501762D02*
X22287285Y22406524D01*
X22287285Y22406524D02*
X22239666Y22216048D01*
X22239666Y22216048D02*
X22239666Y22073191D01*
X22239666Y22073191D02*
X22287285Y21882715D01*
X22287285Y21882715D02*
X22334904Y21787477D01*
X22334904Y21787477D02*
X22430142Y21692239D01*
X22430142Y21692239D02*
X22572999Y21644620D01*
X22572999Y21644620D02*
X22811094Y21644620D01*
X21906332Y22644620D02*
X21239666Y22644620D01*
X21239666Y22644620D02*
X21668237Y21644620D01*
%TO.C,H1*%
X27761904Y17832620D02*
X27761904Y18832620D01*
X27761904Y18356429D02*
X27190476Y18356429D01*
X27190476Y17832620D02*
X27190476Y18832620D01*
X26190476Y17832620D02*
X26761904Y17832620D01*
X26476190Y17832620D02*
X26476190Y18832620D01*
X26476190Y18832620D02*
X26571428Y18689762D01*
X26571428Y18689762D02*
X26666666Y18594524D01*
X26666666Y18594524D02*
X26761904Y18546905D01*
%TO.C,D3*%
X-19261906Y-27367380D02*
X-19261906Y-26367380D01*
X-19261906Y-26367380D02*
X-19500001Y-26367380D01*
X-19500001Y-26367380D02*
X-19642858Y-26415000D01*
X-19642858Y-26415000D02*
X-19738096Y-26510238D01*
X-19738096Y-26510238D02*
X-19785715Y-26605476D01*
X-19785715Y-26605476D02*
X-19833334Y-26795952D01*
X-19833334Y-26795952D02*
X-19833334Y-26938809D01*
X-19833334Y-26938809D02*
X-19785715Y-27129285D01*
X-19785715Y-27129285D02*
X-19738096Y-27224523D01*
X-19738096Y-27224523D02*
X-19642858Y-27319761D01*
X-19642858Y-27319761D02*
X-19500001Y-27367380D01*
X-19500001Y-27367380D02*
X-19261906Y-27367380D01*
X-20166668Y-26367380D02*
X-20785715Y-26367380D01*
X-20785715Y-26367380D02*
X-20452382Y-26748333D01*
X-20452382Y-26748333D02*
X-20595239Y-26748333D01*
X-20595239Y-26748333D02*
X-20690477Y-26795952D01*
X-20690477Y-26795952D02*
X-20738096Y-26843571D01*
X-20738096Y-26843571D02*
X-20785715Y-26938809D01*
X-20785715Y-26938809D02*
X-20785715Y-27176904D01*
X-20785715Y-27176904D02*
X-20738096Y-27272142D01*
X-20738096Y-27272142D02*
X-20690477Y-27319761D01*
X-20690477Y-27319761D02*
X-20595239Y-27367380D01*
X-20595239Y-27367380D02*
X-20309525Y-27367380D01*
X-20309525Y-27367380D02*
X-20214287Y-27319761D01*
X-20214287Y-27319761D02*
X-20166668Y-27272142D01*
%TO.C,D9*%
X738094Y-3217380D02*
X738094Y-2217380D01*
X738094Y-2217380D02*
X499999Y-2217380D01*
X499999Y-2217380D02*
X357142Y-2265000D01*
X357142Y-2265000D02*
X261904Y-2360238D01*
X261904Y-2360238D02*
X214285Y-2455476D01*
X214285Y-2455476D02*
X166666Y-2645952D01*
X166666Y-2645952D02*
X166666Y-2788809D01*
X166666Y-2788809D02*
X214285Y-2979285D01*
X214285Y-2979285D02*
X261904Y-3074523D01*
X261904Y-3074523D02*
X357142Y-3169761D01*
X357142Y-3169761D02*
X499999Y-3217380D01*
X499999Y-3217380D02*
X738094Y-3217380D01*
X-309525Y-3217380D02*
X-500001Y-3217380D01*
X-500001Y-3217380D02*
X-595239Y-3169761D01*
X-595239Y-3169761D02*
X-642858Y-3122142D01*
X-642858Y-3122142D02*
X-738096Y-2979285D01*
X-738096Y-2979285D02*
X-785715Y-2788809D01*
X-785715Y-2788809D02*
X-785715Y-2407857D01*
X-785715Y-2407857D02*
X-738096Y-2312619D01*
X-738096Y-2312619D02*
X-690477Y-2265000D01*
X-690477Y-2265000D02*
X-595239Y-2217380D01*
X-595239Y-2217380D02*
X-404763Y-2217380D01*
X-404763Y-2217380D02*
X-309525Y-2265000D01*
X-309525Y-2265000D02*
X-261906Y-2312619D01*
X-261906Y-2312619D02*
X-214287Y-2407857D01*
X-214287Y-2407857D02*
X-214287Y-2645952D01*
X-214287Y-2645952D02*
X-261906Y-2741190D01*
X-261906Y-2741190D02*
X-309525Y-2788809D01*
X-309525Y-2788809D02*
X-404763Y-2836428D01*
X-404763Y-2836428D02*
X-595239Y-2836428D01*
X-595239Y-2836428D02*
X-690477Y-2788809D01*
X-690477Y-2788809D02*
X-738096Y-2741190D01*
X-738096Y-2741190D02*
X-785715Y-2645952D01*
%TO.C,SW3*%
X11023332Y-15819761D02*
X10880475Y-15867380D01*
X10880475Y-15867380D02*
X10642380Y-15867380D01*
X10642380Y-15867380D02*
X10547142Y-15819761D01*
X10547142Y-15819761D02*
X10499523Y-15772142D01*
X10499523Y-15772142D02*
X10451904Y-15676904D01*
X10451904Y-15676904D02*
X10451904Y-15581666D01*
X10451904Y-15581666D02*
X10499523Y-15486428D01*
X10499523Y-15486428D02*
X10547142Y-15438809D01*
X10547142Y-15438809D02*
X10642380Y-15391190D01*
X10642380Y-15391190D02*
X10832856Y-15343571D01*
X10832856Y-15343571D02*
X10928094Y-15295952D01*
X10928094Y-15295952D02*
X10975713Y-15248333D01*
X10975713Y-15248333D02*
X11023332Y-15153095D01*
X11023332Y-15153095D02*
X11023332Y-15057857D01*
X11023332Y-15057857D02*
X10975713Y-14962619D01*
X10975713Y-14962619D02*
X10928094Y-14915000D01*
X10928094Y-14915000D02*
X10832856Y-14867380D01*
X10832856Y-14867380D02*
X10594761Y-14867380D01*
X10594761Y-14867380D02*
X10451904Y-14915000D01*
X10118570Y-14867380D02*
X9880475Y-15867380D01*
X9880475Y-15867380D02*
X9689999Y-15153095D01*
X9689999Y-15153095D02*
X9499523Y-15867380D01*
X9499523Y-15867380D02*
X9261428Y-14867380D01*
X8975713Y-14867380D02*
X8356666Y-14867380D01*
X8356666Y-14867380D02*
X8689999Y-15248333D01*
X8689999Y-15248333D02*
X8547142Y-15248333D01*
X8547142Y-15248333D02*
X8451904Y-15295952D01*
X8451904Y-15295952D02*
X8404285Y-15343571D01*
X8404285Y-15343571D02*
X8356666Y-15438809D01*
X8356666Y-15438809D02*
X8356666Y-15676904D01*
X8356666Y-15676904D02*
X8404285Y-15772142D01*
X8404285Y-15772142D02*
X8451904Y-15819761D01*
X8451904Y-15819761D02*
X8547142Y-15867380D01*
X8547142Y-15867380D02*
X8832856Y-15867380D01*
X8832856Y-15867380D02*
X8928094Y-15819761D01*
X8928094Y-15819761D02*
X8975713Y-15772142D01*
%TO.C,D1*%
X-20928906Y22264620D02*
X-20928906Y23264620D01*
X-20928906Y23264620D02*
X-21167001Y23264620D01*
X-21167001Y23264620D02*
X-21309858Y23217000D01*
X-21309858Y23217000D02*
X-21405096Y23121762D01*
X-21405096Y23121762D02*
X-21452715Y23026524D01*
X-21452715Y23026524D02*
X-21500334Y22836048D01*
X-21500334Y22836048D02*
X-21500334Y22693191D01*
X-21500334Y22693191D02*
X-21452715Y22502715D01*
X-21452715Y22502715D02*
X-21405096Y22407477D01*
X-21405096Y22407477D02*
X-21309858Y22312239D01*
X-21309858Y22312239D02*
X-21167001Y22264620D01*
X-21167001Y22264620D02*
X-20928906Y22264620D01*
X-22452715Y22264620D02*
X-21881287Y22264620D01*
X-22167001Y22264620D02*
X-22167001Y23264620D01*
X-22167001Y23264620D02*
X-22071763Y23121762D01*
X-22071763Y23121762D02*
X-21976525Y23026524D01*
X-21976525Y23026524D02*
X-21881287Y22978905D01*
%TO.C,D6*%
X32138094Y-2267380D02*
X32138094Y-1267380D01*
X32138094Y-1267380D02*
X31899999Y-1267380D01*
X31899999Y-1267380D02*
X31757142Y-1315000D01*
X31757142Y-1315000D02*
X31661904Y-1410238D01*
X31661904Y-1410238D02*
X31614285Y-1505476D01*
X31614285Y-1505476D02*
X31566666Y-1695952D01*
X31566666Y-1695952D02*
X31566666Y-1838809D01*
X31566666Y-1838809D02*
X31614285Y-2029285D01*
X31614285Y-2029285D02*
X31661904Y-2124523D01*
X31661904Y-2124523D02*
X31757142Y-2219761D01*
X31757142Y-2219761D02*
X31899999Y-2267380D01*
X31899999Y-2267380D02*
X32138094Y-2267380D01*
X30709523Y-1267380D02*
X30899999Y-1267380D01*
X30899999Y-1267380D02*
X30995237Y-1315000D01*
X30995237Y-1315000D02*
X31042856Y-1362619D01*
X31042856Y-1362619D02*
X31138094Y-1505476D01*
X31138094Y-1505476D02*
X31185713Y-1695952D01*
X31185713Y-1695952D02*
X31185713Y-2076904D01*
X31185713Y-2076904D02*
X31138094Y-2172142D01*
X31138094Y-2172142D02*
X31090475Y-2219761D01*
X31090475Y-2219761D02*
X30995237Y-2267380D01*
X30995237Y-2267380D02*
X30804761Y-2267380D01*
X30804761Y-2267380D02*
X30709523Y-2219761D01*
X30709523Y-2219761D02*
X30661904Y-2172142D01*
X30661904Y-2172142D02*
X30614285Y-2076904D01*
X30614285Y-2076904D02*
X30614285Y-1838809D01*
X30614285Y-1838809D02*
X30661904Y-1743571D01*
X30661904Y-1743571D02*
X30709523Y-1695952D01*
X30709523Y-1695952D02*
X30804761Y-1648333D01*
X30804761Y-1648333D02*
X30995237Y-1648333D01*
X30995237Y-1648333D02*
X31090475Y-1695952D01*
X31090475Y-1695952D02*
X31138094Y-1743571D01*
X31138094Y-1743571D02*
X31185713Y-1838809D01*
%TO.C,D8*%
X-18761906Y-3217380D02*
X-18761906Y-2217380D01*
X-18761906Y-2217380D02*
X-19000001Y-2217380D01*
X-19000001Y-2217380D02*
X-19142858Y-2265000D01*
X-19142858Y-2265000D02*
X-19238096Y-2360238D01*
X-19238096Y-2360238D02*
X-19285715Y-2455476D01*
X-19285715Y-2455476D02*
X-19333334Y-2645952D01*
X-19333334Y-2645952D02*
X-19333334Y-2788809D01*
X-19333334Y-2788809D02*
X-19285715Y-2979285D01*
X-19285715Y-2979285D02*
X-19238096Y-3074523D01*
X-19238096Y-3074523D02*
X-19142858Y-3169761D01*
X-19142858Y-3169761D02*
X-19000001Y-3217380D01*
X-19000001Y-3217380D02*
X-18761906Y-3217380D01*
X-19904763Y-2645952D02*
X-19809525Y-2598333D01*
X-19809525Y-2598333D02*
X-19761906Y-2550714D01*
X-19761906Y-2550714D02*
X-19714287Y-2455476D01*
X-19714287Y-2455476D02*
X-19714287Y-2407857D01*
X-19714287Y-2407857D02*
X-19761906Y-2312619D01*
X-19761906Y-2312619D02*
X-19809525Y-2265000D01*
X-19809525Y-2265000D02*
X-19904763Y-2217380D01*
X-19904763Y-2217380D02*
X-20095239Y-2217380D01*
X-20095239Y-2217380D02*
X-20190477Y-2265000D01*
X-20190477Y-2265000D02*
X-20238096Y-2312619D01*
X-20238096Y-2312619D02*
X-20285715Y-2407857D01*
X-20285715Y-2407857D02*
X-20285715Y-2455476D01*
X-20285715Y-2455476D02*
X-20238096Y-2550714D01*
X-20238096Y-2550714D02*
X-20190477Y-2598333D01*
X-20190477Y-2598333D02*
X-20095239Y-2645952D01*
X-20095239Y-2645952D02*
X-19904763Y-2645952D01*
X-19904763Y-2645952D02*
X-19809525Y-2693571D01*
X-19809525Y-2693571D02*
X-19761906Y-2741190D01*
X-19761906Y-2741190D02*
X-19714287Y-2836428D01*
X-19714287Y-2836428D02*
X-19714287Y-3026904D01*
X-19714287Y-3026904D02*
X-19761906Y-3122142D01*
X-19761906Y-3122142D02*
X-19809525Y-3169761D01*
X-19809525Y-3169761D02*
X-19904763Y-3217380D01*
X-19904763Y-3217380D02*
X-20095239Y-3217380D01*
X-20095239Y-3217380D02*
X-20190477Y-3169761D01*
X-20190477Y-3169761D02*
X-20238096Y-3122142D01*
X-20238096Y-3122142D02*
X-20285715Y-3026904D01*
X-20285715Y-3026904D02*
X-20285715Y-2836428D01*
X-20285715Y-2836428D02*
X-20238096Y-2741190D01*
X-20238096Y-2741190D02*
X-20190477Y-2693571D01*
X-20190477Y-2693571D02*
X-20095239Y-2645952D01*
%TO.C,C28*%
X-21379143Y-4014142D02*
X-21331524Y-4061761D01*
X-21331524Y-4061761D02*
X-21188667Y-4109380D01*
X-21188667Y-4109380D02*
X-21093429Y-4109380D01*
X-21093429Y-4109380D02*
X-20950572Y-4061761D01*
X-20950572Y-4061761D02*
X-20855334Y-3966523D01*
X-20855334Y-3966523D02*
X-20807715Y-3871285D01*
X-20807715Y-3871285D02*
X-20760096Y-3680809D01*
X-20760096Y-3680809D02*
X-20760096Y-3537952D01*
X-20760096Y-3537952D02*
X-20807715Y-3347476D01*
X-20807715Y-3347476D02*
X-20855334Y-3252238D01*
X-20855334Y-3252238D02*
X-20950572Y-3157000D01*
X-20950572Y-3157000D02*
X-21093429Y-3109380D01*
X-21093429Y-3109380D02*
X-21188667Y-3109380D01*
X-21188667Y-3109380D02*
X-21331524Y-3157000D01*
X-21331524Y-3157000D02*
X-21379143Y-3204619D01*
X-21760096Y-3204619D02*
X-21807715Y-3157000D01*
X-21807715Y-3157000D02*
X-21902953Y-3109380D01*
X-21902953Y-3109380D02*
X-22141048Y-3109380D01*
X-22141048Y-3109380D02*
X-22236286Y-3157000D01*
X-22236286Y-3157000D02*
X-22283905Y-3204619D01*
X-22283905Y-3204619D02*
X-22331524Y-3299857D01*
X-22331524Y-3299857D02*
X-22331524Y-3395095D01*
X-22331524Y-3395095D02*
X-22283905Y-3537952D01*
X-22283905Y-3537952D02*
X-21712477Y-4109380D01*
X-21712477Y-4109380D02*
X-22331524Y-4109380D01*
X-22902953Y-3537952D02*
X-22807715Y-3490333D01*
X-22807715Y-3490333D02*
X-22760096Y-3442714D01*
X-22760096Y-3442714D02*
X-22712477Y-3347476D01*
X-22712477Y-3347476D02*
X-22712477Y-3299857D01*
X-22712477Y-3299857D02*
X-22760096Y-3204619D01*
X-22760096Y-3204619D02*
X-22807715Y-3157000D01*
X-22807715Y-3157000D02*
X-22902953Y-3109380D01*
X-22902953Y-3109380D02*
X-23093429Y-3109380D01*
X-23093429Y-3109380D02*
X-23188667Y-3157000D01*
X-23188667Y-3157000D02*
X-23236286Y-3204619D01*
X-23236286Y-3204619D02*
X-23283905Y-3299857D01*
X-23283905Y-3299857D02*
X-23283905Y-3347476D01*
X-23283905Y-3347476D02*
X-23236286Y-3442714D01*
X-23236286Y-3442714D02*
X-23188667Y-3490333D01*
X-23188667Y-3490333D02*
X-23093429Y-3537952D01*
X-23093429Y-3537952D02*
X-22902953Y-3537952D01*
X-22902953Y-3537952D02*
X-22807715Y-3585571D01*
X-22807715Y-3585571D02*
X-22760096Y-3633190D01*
X-22760096Y-3633190D02*
X-22712477Y-3728428D01*
X-22712477Y-3728428D02*
X-22712477Y-3918904D01*
X-22712477Y-3918904D02*
X-22760096Y-4014142D01*
X-22760096Y-4014142D02*
X-22807715Y-4061761D01*
X-22807715Y-4061761D02*
X-22902953Y-4109380D01*
X-22902953Y-4109380D02*
X-23093429Y-4109380D01*
X-23093429Y-4109380D02*
X-23188667Y-4061761D01*
X-23188667Y-4061761D02*
X-23236286Y-4014142D01*
X-23236286Y-4014142D02*
X-23283905Y-3918904D01*
X-23283905Y-3918904D02*
X-23283905Y-3728428D01*
X-23283905Y-3728428D02*
X-23236286Y-3633190D01*
X-23236286Y-3633190D02*
X-23188667Y-3585571D01*
X-23188667Y-3585571D02*
X-23093429Y-3537952D01*
%TO.C,H4*%
X-10238096Y-9067380D02*
X-10238096Y-8067380D01*
X-10238096Y-8543571D02*
X-10809524Y-8543571D01*
X-10809524Y-9067380D02*
X-10809524Y-8067380D01*
X-11714286Y-8400714D02*
X-11714286Y-9067380D01*
X-11476191Y-8019761D02*
X-11238096Y-8734047D01*
X-11238096Y-8734047D02*
X-11857143Y-8734047D01*
%TO.C,D4*%
X814094Y-12921380D02*
X814094Y-11921380D01*
X814094Y-11921380D02*
X575999Y-11921380D01*
X575999Y-11921380D02*
X433142Y-11969000D01*
X433142Y-11969000D02*
X337904Y-12064238D01*
X337904Y-12064238D02*
X290285Y-12159476D01*
X290285Y-12159476D02*
X242666Y-12349952D01*
X242666Y-12349952D02*
X242666Y-12492809D01*
X242666Y-12492809D02*
X290285Y-12683285D01*
X290285Y-12683285D02*
X337904Y-12778523D01*
X337904Y-12778523D02*
X433142Y-12873761D01*
X433142Y-12873761D02*
X575999Y-12921380D01*
X575999Y-12921380D02*
X814094Y-12921380D01*
X-614477Y-12254714D02*
X-614477Y-12921380D01*
X-376382Y-11873761D02*
X-138287Y-12588047D01*
X-138287Y-12588047D02*
X-757334Y-12588047D01*
%TO.C,C30*%
X17572857Y-4092142D02*
X17620476Y-4139761D01*
X17620476Y-4139761D02*
X17763333Y-4187380D01*
X17763333Y-4187380D02*
X17858571Y-4187380D01*
X17858571Y-4187380D02*
X18001428Y-4139761D01*
X18001428Y-4139761D02*
X18096666Y-4044523D01*
X18096666Y-4044523D02*
X18144285Y-3949285D01*
X18144285Y-3949285D02*
X18191904Y-3758809D01*
X18191904Y-3758809D02*
X18191904Y-3615952D01*
X18191904Y-3615952D02*
X18144285Y-3425476D01*
X18144285Y-3425476D02*
X18096666Y-3330238D01*
X18096666Y-3330238D02*
X18001428Y-3235000D01*
X18001428Y-3235000D02*
X17858571Y-3187380D01*
X17858571Y-3187380D02*
X17763333Y-3187380D01*
X17763333Y-3187380D02*
X17620476Y-3235000D01*
X17620476Y-3235000D02*
X17572857Y-3282619D01*
X17239523Y-3187380D02*
X16620476Y-3187380D01*
X16620476Y-3187380D02*
X16953809Y-3568333D01*
X16953809Y-3568333D02*
X16810952Y-3568333D01*
X16810952Y-3568333D02*
X16715714Y-3615952D01*
X16715714Y-3615952D02*
X16668095Y-3663571D01*
X16668095Y-3663571D02*
X16620476Y-3758809D01*
X16620476Y-3758809D02*
X16620476Y-3996904D01*
X16620476Y-3996904D02*
X16668095Y-4092142D01*
X16668095Y-4092142D02*
X16715714Y-4139761D01*
X16715714Y-4139761D02*
X16810952Y-4187380D01*
X16810952Y-4187380D02*
X17096666Y-4187380D01*
X17096666Y-4187380D02*
X17191904Y-4139761D01*
X17191904Y-4139761D02*
X17239523Y-4092142D01*
X16001428Y-3187380D02*
X15906190Y-3187380D01*
X15906190Y-3187380D02*
X15810952Y-3235000D01*
X15810952Y-3235000D02*
X15763333Y-3282619D01*
X15763333Y-3282619D02*
X15715714Y-3377857D01*
X15715714Y-3377857D02*
X15668095Y-3568333D01*
X15668095Y-3568333D02*
X15668095Y-3806428D01*
X15668095Y-3806428D02*
X15715714Y-3996904D01*
X15715714Y-3996904D02*
X15763333Y-4092142D01*
X15763333Y-4092142D02*
X15810952Y-4139761D01*
X15810952Y-4139761D02*
X15906190Y-4187380D01*
X15906190Y-4187380D02*
X16001428Y-4187380D01*
X16001428Y-4187380D02*
X16096666Y-4139761D01*
X16096666Y-4139761D02*
X16144285Y-4092142D01*
X16144285Y-4092142D02*
X16191904Y-3996904D01*
X16191904Y-3996904D02*
X16239523Y-3806428D01*
X16239523Y-3806428D02*
X16239523Y-3568333D01*
X16239523Y-3568333D02*
X16191904Y-3377857D01*
X16191904Y-3377857D02*
X16144285Y-3282619D01*
X16144285Y-3282619D02*
X16096666Y-3235000D01*
X16096666Y-3235000D02*
X16001428Y-3187380D01*
%TO.C,C24*%
X-2487143Y-13042142D02*
X-2439524Y-13089761D01*
X-2439524Y-13089761D02*
X-2296667Y-13137380D01*
X-2296667Y-13137380D02*
X-2201429Y-13137380D01*
X-2201429Y-13137380D02*
X-2058572Y-13089761D01*
X-2058572Y-13089761D02*
X-1963334Y-12994523D01*
X-1963334Y-12994523D02*
X-1915715Y-12899285D01*
X-1915715Y-12899285D02*
X-1868096Y-12708809D01*
X-1868096Y-12708809D02*
X-1868096Y-12565952D01*
X-1868096Y-12565952D02*
X-1915715Y-12375476D01*
X-1915715Y-12375476D02*
X-1963334Y-12280238D01*
X-1963334Y-12280238D02*
X-2058572Y-12185000D01*
X-2058572Y-12185000D02*
X-2201429Y-12137380D01*
X-2201429Y-12137380D02*
X-2296667Y-12137380D01*
X-2296667Y-12137380D02*
X-2439524Y-12185000D01*
X-2439524Y-12185000D02*
X-2487143Y-12232619D01*
X-2868096Y-12232619D02*
X-2915715Y-12185000D01*
X-2915715Y-12185000D02*
X-3010953Y-12137380D01*
X-3010953Y-12137380D02*
X-3249048Y-12137380D01*
X-3249048Y-12137380D02*
X-3344286Y-12185000D01*
X-3344286Y-12185000D02*
X-3391905Y-12232619D01*
X-3391905Y-12232619D02*
X-3439524Y-12327857D01*
X-3439524Y-12327857D02*
X-3439524Y-12423095D01*
X-3439524Y-12423095D02*
X-3391905Y-12565952D01*
X-3391905Y-12565952D02*
X-2820477Y-13137380D01*
X-2820477Y-13137380D02*
X-3439524Y-13137380D01*
X-4296667Y-12470714D02*
X-4296667Y-13137380D01*
X-4058572Y-12089761D02*
X-3820477Y-12804047D01*
X-3820477Y-12804047D02*
X-4439524Y-12804047D01*
%TO.C,H5*%
X11761904Y-9067380D02*
X11761904Y-8067380D01*
X11761904Y-8543571D02*
X11190476Y-8543571D01*
X11190476Y-9067380D02*
X11190476Y-8067380D01*
X10238095Y-8067380D02*
X10714285Y-8067380D01*
X10714285Y-8067380D02*
X10761904Y-8543571D01*
X10761904Y-8543571D02*
X10714285Y-8495952D01*
X10714285Y-8495952D02*
X10619047Y-8448333D01*
X10619047Y-8448333D02*
X10380952Y-8448333D01*
X10380952Y-8448333D02*
X10285714Y-8495952D01*
X10285714Y-8495952D02*
X10238095Y-8543571D01*
X10238095Y-8543571D02*
X10190476Y-8638809D01*
X10190476Y-8638809D02*
X10190476Y-8876904D01*
X10190476Y-8876904D02*
X10238095Y-8972142D01*
X10238095Y-8972142D02*
X10285714Y-9019761D01*
X10285714Y-9019761D02*
X10380952Y-9067380D01*
X10380952Y-9067380D02*
X10619047Y-9067380D01*
X10619047Y-9067380D02*
X10714285Y-9019761D01*
X10714285Y-9019761D02*
X10761904Y-8972142D01*
D11*
%TO.C,U1*%
X19530000Y15580000D02*
X19530000Y22780000D01*
X19530000Y22780000D02*
X10730000Y22780000D01*
X10730000Y15580000D02*
X19530000Y15580000D01*
X10730000Y22780000D02*
X10730000Y15580000D01*
D12*
%TO.C,S3*%
X19500000Y1560000D02*
X17700000Y1560000D01*
X19500000Y1560000D02*
X20300000Y1560000D01*
X19500000Y-1560000D02*
X18700000Y-1560000D01*
%TO.C,S2*%
X0Y-1560000D02*
X1800000Y-1560000D01*
X0Y-1560000D02*
X-800000Y-1560000D01*
X0Y1560000D02*
X800000Y1560000D01*
%TO.C,S1*%
X-19500000Y-1560000D02*
X-17700000Y-1560000D01*
X-19500000Y-1560000D02*
X-20300000Y-1560000D01*
X-19500000Y1560000D02*
X-18700000Y1560000D01*
%TO.C,C26*%
X32320000Y-2572164D02*
X32320000Y-2787836D01*
X31600000Y-2572164D02*
X31600000Y-2787836D01*
%TO.C,SW1*%
X-11040000Y26060000D02*
X-10740000Y26060000D01*
X-8200000Y26060000D02*
X-7900000Y26060000D01*
X-7900000Y26060000D02*
X-7900000Y30200000D01*
X-11040000Y30200000D02*
X-11040000Y26060000D01*
X-10740000Y30200000D02*
X-11040000Y30200000D01*
X-7900000Y30200000D02*
X-8200000Y30200000D01*
%TO.C,C29*%
X-2412164Y-5260000D02*
X-2627836Y-5260000D01*
X-2412164Y-4540000D02*
X-2627836Y-4540000D01*
%TO.C,C25*%
X17496000Y-25837836D02*
X17496000Y-25622164D01*
X18216000Y-25837836D02*
X18216000Y-25622164D01*
%TO.C,C27*%
X22535836Y21662000D02*
X22320164Y21662000D01*
X22535836Y22382000D02*
X22320164Y22382000D01*
%TO.C,SW2*%
X-7750000Y-22250000D02*
X-12250000Y-22250000D01*
X-12250000Y-22250000D02*
X-12250000Y-17750000D01*
X-12250000Y-17750000D02*
X-7750000Y-17750000D01*
X-7750000Y-17750000D02*
X-7750000Y-22250000D01*
%TO.C,D2*%
X-34618000Y1074000D02*
X-31778000Y1074000D01*
X-34618000Y-1226000D02*
X-34618000Y-576000D01*
X-34618000Y-1226000D02*
X-31778000Y-1226000D01*
%TO.C,REF\u002A\u002A*%
X26485000Y-6985000D02*
X26485000Y6985000D01*
X26485000Y6985000D02*
X12515000Y6985000D01*
X12515000Y-6985000D02*
X26485000Y-6985000D01*
X12515000Y6985000D02*
X12515000Y-6985000D01*
%TO.C,C21*%
X-19917000Y24394164D02*
X-19917000Y24609836D01*
X-19197000Y24394164D02*
X-19197000Y24609836D01*
%TO.C,REF\u002A\u002A*%
X6985000Y-6985000D02*
X6985000Y6985000D01*
X6985000Y6985000D02*
X-6985000Y6985000D01*
X-6985000Y-6985000D02*
X6985000Y-6985000D01*
X-6985000Y6985000D02*
X-6985000Y-6985000D01*
%TO.C,C22*%
X-31328000Y-183836D02*
X-31328000Y31836D01*
X-30608000Y-183836D02*
X-30608000Y31836D01*
%TO.C,D10*%
X20920000Y-6000000D02*
X18080000Y-6000000D01*
X20920000Y-3700000D02*
X20920000Y-4350000D01*
X20920000Y-3700000D02*
X18080000Y-3700000D01*
%TO.C,D5*%
X21150000Y-23580000D02*
X21150000Y-26420000D01*
X18850000Y-23580000D02*
X19500000Y-23580000D01*
X18850000Y-23580000D02*
X18850000Y-26420000D01*
%TO.C,C23*%
X-17303836Y-25439000D02*
X-17088164Y-25439000D01*
X-17303836Y-26159000D02*
X-17088164Y-26159000D01*
%TO.C,D7*%
X20653000Y25162000D02*
X23493000Y25162000D01*
X20653000Y22862000D02*
X20653000Y23512000D01*
X20653000Y22862000D02*
X23493000Y22862000D01*
%TO.C,D3*%
X-21420000Y-23850000D02*
X-18580000Y-23850000D01*
X-21420000Y-26150000D02*
X-21420000Y-25500000D01*
X-21420000Y-26150000D02*
X-18580000Y-26150000D01*
%TO.C,D9*%
X1420000Y-6000000D02*
X-1420000Y-6000000D01*
X1420000Y-3700000D02*
X1420000Y-4350000D01*
X1420000Y-3700000D02*
X-1420000Y-3700000D01*
%TO.C,SW3*%
X12190000Y-22250000D02*
X7690000Y-22250000D01*
X7690000Y-22250000D02*
X7690000Y-17750000D01*
X7690000Y-17750000D02*
X12190000Y-17750000D01*
X12190000Y-17750000D02*
X12190000Y-22250000D01*
%TO.C,D1*%
X-23087000Y25782000D02*
X-20247000Y25782000D01*
X-23087000Y23482000D02*
X-23087000Y24132000D01*
X-23087000Y23482000D02*
X-20247000Y23482000D01*
%TO.C,REF\u002A\u002A*%
X-12515000Y-6985000D02*
X-12515000Y6985000D01*
X-12515000Y6985000D02*
X-26485000Y6985000D01*
X-26485000Y-6985000D02*
X-12515000Y-6985000D01*
X-26485000Y6985000D02*
X-26485000Y-6985000D01*
%TO.C,D6*%
X29980000Y1250000D02*
X32820000Y1250000D01*
X29980000Y-1050000D02*
X29980000Y-400000D01*
X29980000Y-1050000D02*
X32820000Y-1050000D01*
%TO.C,D8*%
X-18080000Y-6000000D02*
X-20920000Y-6000000D01*
X-18080000Y-3700000D02*
X-18080000Y-4350000D01*
X-18080000Y-3700000D02*
X-20920000Y-3700000D01*
%TO.C,C28*%
X-21914164Y-5262000D02*
X-22129836Y-5262000D01*
X-21914164Y-4542000D02*
X-22129836Y-4542000D01*
%TO.C,D4*%
X1496000Y-15704000D02*
X-1344000Y-15704000D01*
X1496000Y-13404000D02*
X1496000Y-14054000D01*
X1496000Y-13404000D02*
X-1344000Y-13404000D01*
%TO.C,C30*%
X17037836Y-5340000D02*
X16822164Y-5340000D01*
X17037836Y-4620000D02*
X16822164Y-4620000D01*
%TO.C,C24*%
X-3022164Y-14290000D02*
X-3237836Y-14290000D01*
X-3022164Y-13570000D02*
X-3237836Y-13570000D01*
%TD*%
%LPC*%
D13*
%TO.C,P1*%
X5619999Y33349999D03*
D14*
X5619999Y37349999D03*
D13*
X-5619999Y33349999D03*
D14*
X-5619999Y37349999D03*
%TD*%
D15*
%TO.C,C26*%
X31960000Y-2200000D03*
X31960000Y-3160000D03*
%TD*%
D16*
%TO.C,SW1*%
X-9470000Y26030000D03*
X-9470000Y30230000D03*
%TD*%
D17*
%TO.C,C29*%
X-2040000Y-4900000D03*
X-3000000Y-4900000D03*
%TD*%
D18*
%TO.C,C25*%
X17856000Y-26210000D03*
X17856000Y-25250000D03*
%TD*%
D19*
%TO.C,H3*%
X0Y-29000000D03*
%TD*%
D17*
%TO.C,C27*%
X22908000Y22022000D03*
X21948000Y22022000D03*
%TD*%
D20*
%TO.C,SW2*%
X-7020000Y-18265000D03*
D21*
X-12967500Y-18265000D03*
D22*
X-7092500Y-21750000D03*
D23*
X-12937500Y-21820000D03*
%TD*%
D24*
%TO.C,D2*%
X-34113000Y-626000D03*
X-34113000Y474000D03*
X-32283000Y474000D03*
X-32283000Y-626000D03*
%TD*%
D25*
%TO.C,REF\u002A\u002A*%
X24580000Y0D03*
X14420000Y0D03*
%TD*%
D18*
%TO.C,C21*%
X-19557000Y24022000D03*
X-19557000Y24982000D03*
%TD*%
D25*
%TO.C,REF\u002A\u002A*%
X5080000Y0D03*
X-5080000Y0D03*
%TD*%
D18*
%TO.C,C22*%
X-30968000Y-556000D03*
X-30968000Y404000D03*
%TD*%
D26*
%TO.C,D10*%
X20415000Y-4300000D03*
X20415000Y-5400000D03*
X18585000Y-5400000D03*
X18585000Y-4300000D03*
%TD*%
D27*
%TO.C,D5*%
X19450000Y-24085000D03*
X20550000Y-24085000D03*
X20550000Y-25915000D03*
X19450000Y-25915000D03*
%TD*%
D19*
%TO.C,H2*%
X-27000000Y14000000D03*
%TD*%
D28*
%TO.C,C23*%
X-17676000Y-25799000D03*
X-16716000Y-25799000D03*
%TD*%
D24*
%TO.C,D7*%
X21158000Y23462000D03*
X21158000Y24562000D03*
X22988000Y24562000D03*
X22988000Y23462000D03*
%TD*%
D19*
%TO.C,H1*%
X27000000Y14000000D03*
%TD*%
D24*
%TO.C,D3*%
X-20915000Y-25550000D03*
X-20915000Y-24450000D03*
X-19085000Y-24450000D03*
X-19085000Y-25550000D03*
%TD*%
D26*
%TO.C,D9*%
X915000Y-4300000D03*
X915000Y-5400000D03*
X-915000Y-5400000D03*
X-915000Y-4300000D03*
%TD*%
D29*
%TO.C,SW3*%
X12995000Y-18260000D03*
D30*
X6962500Y-18250000D03*
D31*
X12937500Y-21780000D03*
D32*
X6927500Y-21810000D03*
%TD*%
D24*
%TO.C,D1*%
X-22582000Y24082000D03*
X-22582000Y25182000D03*
X-20752000Y25182000D03*
X-20752000Y24082000D03*
%TD*%
D25*
%TO.C,REF\u002A\u002A*%
X-14420000Y0D03*
X-24580000Y0D03*
%TD*%
D24*
%TO.C,D6*%
X30485000Y-450000D03*
X30485000Y650000D03*
X32315000Y650000D03*
X32315000Y-450000D03*
%TD*%
D26*
%TO.C,D8*%
X-18585000Y-4300000D03*
X-18585000Y-5400000D03*
X-20415000Y-5400000D03*
X-20415000Y-4300000D03*
%TD*%
D17*
%TO.C,C28*%
X-21542000Y-4902000D03*
X-22502000Y-4902000D03*
%TD*%
D33*
%TO.C,H4*%
X-11000000Y-14000000D03*
%TD*%
D26*
%TO.C,D4*%
X991000Y-14004000D03*
X991000Y-15104000D03*
X-839000Y-15104000D03*
X-839000Y-14004000D03*
%TD*%
D17*
%TO.C,C30*%
X17410000Y-4980000D03*
X16450000Y-4980000D03*
%TD*%
%TO.C,C24*%
X-2650000Y-13930000D03*
X-3610000Y-13930000D03*
%TD*%
D33*
%TO.C,H5*%
X11000000Y-14000000D03*
%TD*%
M02*
