%TF.GenerationSoftware,KiCad,Pcbnew,(7.0.0-0)*%
%TF.CreationDate,2023-04-09T22:27:31-05:00*%
%TF.ProjectId,RP2040_minimal,52503230-3430-45f6-9d69-6e696d616c2e,REV1*%
%TF.SameCoordinates,Original*%
%TF.FileFunction,Soldermask,Bot*%
%TF.FilePolarity,Negative*%
%FSLAX46Y46*%
G04 Gerber Fmt 4.6, Leading zero omitted, Abs format (unit mm)*
G04 Created by KiCad (PCBNEW (7.0.0-0)) date 2023-04-09 22:27:31*
%MOMM*%
%LPD*%
G01*
G04 APERTURE LIST*
%TA.AperFunction,Profile*%
%ADD10C,0.120000*%
%TD*%
%ADD11C,3.902000*%
%ADD12C,2.902000*%
%ADD13C,3.302000*%
G04 APERTURE END LIST*
D10*
%TO.C,REF\u002A\u002A*%
X-26500000Y7000000D02*
X-12500000Y7000000D01*
X-12500000Y7000000D02*
X-12500000Y-7000000D01*
X-12500000Y-7000000D02*
X-26500000Y-7000000D01*
X-26500000Y-7000000D02*
X-26500000Y7000000D01*
X-7000000Y7000000D02*
X7000000Y7000000D01*
X7000000Y7000000D02*
X7000000Y-7000000D01*
X7000000Y-7000000D02*
X-7000000Y-7000000D01*
X-7000000Y-7000000D02*
X-7000000Y7000000D01*
X12500000Y7000000D02*
X26500000Y7000000D01*
X26500000Y7000000D02*
X26500000Y-7000000D01*
X26500000Y-7000000D02*
X12500000Y-7000000D01*
X12500000Y-7000000D02*
X12500000Y7000000D01*
%TD*%
D11*
%TO.C,REF\u002A\u002A*%
X-12000000Y-19000000D03*
%TD*%
%TO.C,REF\u002A\u002A*%
X12000000Y-19000000D03*
%TD*%
D12*
%TO.C,REF\u002A\u002A*%
X0Y-21000000D03*
%TD*%
D13*
%TO.C,H3*%
X0Y-13500000D03*
%TD*%
%TO.C,H2*%
X24500000Y13500000D03*
%TD*%
%TO.C,H1*%
X-24500000Y13500000D03*
%TD*%
G36*
X7831431Y24374706D02*
G01*
X7843406Y24374110D01*
X7855155Y24372962D01*
X7866998Y24371233D01*
X7878577Y24368976D01*
X7890212Y24366127D01*
X7901534Y24362775D01*
X7912843Y24358833D01*
X7923780Y24354428D01*
X7934665Y24349429D01*
X7945147Y24343996D01*
X7955508Y24337984D01*
X7965426Y24331580D01*
X7975164Y24324613D01*
X7984415Y24317305D01*
X7993455Y24309438D01*
X8001984Y24301270D01*
X8010223Y24292591D01*
X8017929Y24283659D01*
X8025318Y24274221D01*
X8032140Y24264597D01*
X8040188Y24252015D01*
X8043250Y24246966D01*
X10105565Y20656967D01*
X10108381Y20651784D01*
X10115197Y20638493D01*
X10120079Y20627740D01*
X10124505Y20616613D01*
X10128337Y20605463D01*
X10131688Y20593960D01*
X10134448Y20582476D01*
X10136689Y20570708D01*
X10138341Y20559039D01*
X10139454Y20547119D01*
X10139991Y20535312D01*
X10139964Y20523327D01*
X10139378Y20511561D01*
X10138215Y20499645D01*
X10136508Y20487953D01*
X10134216Y20476201D01*
X10131412Y20464751D01*
X10128012Y20453262D01*
X10124127Y20442115D01*
X10119653Y20431009D01*
X10114723Y20420276D01*
X10109207Y20409635D01*
X10103292Y20399442D01*
X10096798Y20389384D01*
X10089926Y20379777D01*
X10082500Y20370377D01*
X10074756Y20361479D01*
X10066477Y20352834D01*
X10057919Y20344710D01*
X10048851Y20336887D01*
X10039564Y20329616D01*
X10029784Y20322683D01*
X10019844Y20316325D01*
X10009465Y20310362D01*
X9998950Y20304970D01*
X9988035Y20300015D01*
X9977077Y20295656D01*
X9965766Y20291769D01*
X9954440Y20288470D01*
X9942784Y20285669D01*
X9931199Y20283462D01*
X9919337Y20281782D01*
X9907577Y20280685D01*
X9892676Y20280008D01*
X9886779Y20279880D01*
X5746569Y20288862D01*
X5740671Y20289015D01*
X5725749Y20289758D01*
X5714003Y20290906D01*
X5702160Y20292635D01*
X5690581Y20294892D01*
X5678946Y20297741D01*
X5667624Y20301093D01*
X5656315Y20305035D01*
X5645378Y20309440D01*
X5634493Y20314439D01*
X5624011Y20319872D01*
X5613650Y20325884D01*
X5603732Y20332288D01*
X5593994Y20339255D01*
X5584743Y20346563D01*
X5575703Y20354430D01*
X5567174Y20362598D01*
X5558935Y20371277D01*
X5551229Y20380209D01*
X5543840Y20389647D01*
X5537020Y20399269D01*
X5530567Y20409357D01*
X5524684Y20419597D01*
X5519220Y20430253D01*
X5514341Y20441000D01*
X5509915Y20452127D01*
X5506083Y20463277D01*
X5502732Y20474780D01*
X5499972Y20486264D01*
X5497731Y20498032D01*
X5496079Y20509701D01*
X5494966Y20521621D01*
X5494429Y20533428D01*
X5494456Y20545413D01*
X5495042Y20557179D01*
X5496205Y20569095D01*
X5497912Y20580787D01*
X5500204Y20592539D01*
X5503008Y20603989D01*
X5506408Y20615478D01*
X5510293Y20626625D01*
X5514767Y20637731D01*
X5519696Y20648462D01*
X5526575Y20661733D01*
X5529412Y20666901D01*
X7607282Y24247915D01*
X7610364Y24252948D01*
X7618466Y24265495D01*
X7625335Y24275096D01*
X7632761Y24284496D01*
X7640505Y24293394D01*
X7648784Y24302039D01*
X7657342Y24310163D01*
X7666410Y24317986D01*
X7675697Y24325257D01*
X7685477Y24332190D01*
X7695417Y24338548D01*
X7705796Y24344511D01*
X7716311Y24349903D01*
X7727226Y24354858D01*
X7738184Y24359217D01*
X7749495Y24363104D01*
X7760821Y24366403D01*
X7772477Y24369204D01*
X7784062Y24371411D01*
X7795924Y24373091D01*
X7807686Y24374188D01*
X7819641Y24374731D01*
X7831431Y24374706D01*
G37*
G36*
X-28216074Y9665207D02*
G01*
X-28204099Y9664611D01*
X-28192350Y9663463D01*
X-28180507Y9661734D01*
X-28168928Y9659477D01*
X-28157293Y9656628D01*
X-28145971Y9653276D01*
X-28134662Y9649334D01*
X-28123725Y9644929D01*
X-28112840Y9639930D01*
X-28102358Y9634497D01*
X-28091997Y9628485D01*
X-28082079Y9622081D01*
X-28072341Y9615114D01*
X-28063090Y9607806D01*
X-28054050Y9599939D01*
X-28045521Y9591771D01*
X-28037282Y9583092D01*
X-28029576Y9574160D01*
X-28022187Y9564722D01*
X-28015365Y9555098D01*
X-28007317Y9542516D01*
X-28004255Y9537467D01*
X-26516479Y6947605D01*
X-26500000Y6885838D01*
X-26500000Y2104741D01*
X-26516658Y2042663D01*
X-26562155Y1997264D01*
X-26624269Y1980741D01*
X-32381777Y1993232D01*
X-32387675Y1993385D01*
X-32402597Y1994128D01*
X-32414343Y1995276D01*
X-32426186Y1997005D01*
X-32437765Y1999262D01*
X-32449400Y2002111D01*
X-32460722Y2005463D01*
X-32472031Y2009405D01*
X-32482968Y2013810D01*
X-32493853Y2018809D01*
X-32504335Y2024242D01*
X-32514696Y2030254D01*
X-32524614Y2036658D01*
X-32534352Y2043625D01*
X-32543603Y2050933D01*
X-32552643Y2058800D01*
X-32561172Y2066968D01*
X-32569411Y2075647D01*
X-32577117Y2084579D01*
X-32584506Y2094017D01*
X-32591326Y2103639D01*
X-32597779Y2113727D01*
X-32603662Y2123967D01*
X-32609126Y2134623D01*
X-32614005Y2145370D01*
X-32618431Y2156497D01*
X-32622263Y2167647D01*
X-32625614Y2179150D01*
X-32628374Y2190634D01*
X-32630615Y2202402D01*
X-32632267Y2214071D01*
X-32633380Y2225991D01*
X-32633917Y2237798D01*
X-32633890Y2249783D01*
X-32633304Y2261549D01*
X-32632141Y2273465D01*
X-32630434Y2285157D01*
X-32628142Y2296909D01*
X-32625338Y2308359D01*
X-32621938Y2319848D01*
X-32618053Y2330995D01*
X-32613579Y2342101D01*
X-32608650Y2352832D01*
X-32601771Y2366103D01*
X-32598934Y2371271D01*
X-28440223Y9538416D01*
X-28437141Y9543449D01*
X-28429039Y9555996D01*
X-28422170Y9565597D01*
X-28414744Y9574997D01*
X-28407000Y9583895D01*
X-28398721Y9592540D01*
X-28390163Y9600664D01*
X-28381095Y9608487D01*
X-28371808Y9615758D01*
X-28362028Y9622691D01*
X-28352088Y9629049D01*
X-28341709Y9635012D01*
X-28331194Y9640404D01*
X-28320279Y9645359D01*
X-28309321Y9649718D01*
X-28298010Y9653605D01*
X-28286684Y9656904D01*
X-28275028Y9659705D01*
X-28263443Y9661912D01*
X-28251581Y9663592D01*
X-28239819Y9664689D01*
X-28227864Y9665232D01*
X-28216074Y9665207D01*
G37*
G36*
X10007842Y-9072180D02*
G01*
X10019817Y-9072776D01*
X10031566Y-9073924D01*
X10043409Y-9075653D01*
X10054988Y-9077910D01*
X10066623Y-9080759D01*
X10077945Y-9084111D01*
X10089254Y-9088053D01*
X10100191Y-9092458D01*
X10111076Y-9097457D01*
X10121558Y-9102890D01*
X10131919Y-9108902D01*
X10141837Y-9115306D01*
X10151575Y-9122273D01*
X10160826Y-9129581D01*
X10169866Y-9137448D01*
X10178395Y-9145616D01*
X10186634Y-9154295D01*
X10194340Y-9163227D01*
X10201729Y-9172665D01*
X10208551Y-9182289D01*
X10216599Y-9194871D01*
X10219661Y-9199920D01*
X12281976Y-12789919D01*
X12284792Y-12795102D01*
X12291608Y-12808393D01*
X12296490Y-12819146D01*
X12300916Y-12830273D01*
X12304748Y-12841423D01*
X12308099Y-12852926D01*
X12310859Y-12864410D01*
X12313100Y-12876178D01*
X12314752Y-12887847D01*
X12315865Y-12899767D01*
X12316402Y-12911574D01*
X12316375Y-12923559D01*
X12315789Y-12935325D01*
X12314626Y-12947241D01*
X12312919Y-12958933D01*
X12310627Y-12970685D01*
X12307823Y-12982135D01*
X12304423Y-12993624D01*
X12300538Y-13004771D01*
X12296064Y-13015877D01*
X12291134Y-13026610D01*
X12285618Y-13037251D01*
X12279703Y-13047444D01*
X12273209Y-13057502D01*
X12266337Y-13067109D01*
X12258911Y-13076509D01*
X12251167Y-13085407D01*
X12242888Y-13094052D01*
X12234330Y-13102176D01*
X12225262Y-13109999D01*
X12215975Y-13117270D01*
X12206195Y-13124203D01*
X12196255Y-13130561D01*
X12185876Y-13136524D01*
X12175361Y-13141916D01*
X12164446Y-13146871D01*
X12153488Y-13151230D01*
X12142177Y-13155117D01*
X12130851Y-13158416D01*
X12119195Y-13161217D01*
X12107610Y-13163424D01*
X12095748Y-13165104D01*
X12083988Y-13166201D01*
X12069087Y-13166878D01*
X12063190Y-13167006D01*
X7922980Y-13158024D01*
X7917082Y-13157871D01*
X7902160Y-13157128D01*
X7890414Y-13155980D01*
X7878571Y-13154251D01*
X7866992Y-13151994D01*
X7855357Y-13149145D01*
X7844035Y-13145793D01*
X7832726Y-13141851D01*
X7821789Y-13137446D01*
X7810904Y-13132447D01*
X7800422Y-13127014D01*
X7790061Y-13121002D01*
X7780143Y-13114598D01*
X7770405Y-13107631D01*
X7761154Y-13100323D01*
X7752114Y-13092456D01*
X7743585Y-13084288D01*
X7735346Y-13075609D01*
X7727640Y-13066677D01*
X7720251Y-13057239D01*
X7713431Y-13047617D01*
X7706978Y-13037529D01*
X7701095Y-13027289D01*
X7695631Y-13016633D01*
X7690752Y-13005886D01*
X7686326Y-12994759D01*
X7682494Y-12983609D01*
X7679143Y-12972106D01*
X7676383Y-12960622D01*
X7674142Y-12948854D01*
X7672490Y-12937185D01*
X7671377Y-12925265D01*
X7670840Y-12913458D01*
X7670867Y-12901473D01*
X7671453Y-12889707D01*
X7672616Y-12877791D01*
X7674323Y-12866099D01*
X7676615Y-12854347D01*
X7679419Y-12842897D01*
X7682819Y-12831408D01*
X7686704Y-12820261D01*
X7691178Y-12809155D01*
X7696107Y-12798424D01*
X7702986Y-12785153D01*
X7705823Y-12779985D01*
X9783693Y-9198971D01*
X9786775Y-9193938D01*
X9794877Y-9181391D01*
X9801746Y-9171790D01*
X9809172Y-9162390D01*
X9816916Y-9153492D01*
X9825195Y-9144847D01*
X9833753Y-9136723D01*
X9842821Y-9128900D01*
X9852108Y-9121629D01*
X9861888Y-9114696D01*
X9871828Y-9108338D01*
X9882207Y-9102375D01*
X9892722Y-9096983D01*
X9903637Y-9092028D01*
X9914595Y-9087669D01*
X9925906Y-9083782D01*
X9937232Y-9080483D01*
X9948888Y-9077682D01*
X9960473Y-9075475D01*
X9972335Y-9073795D01*
X9984097Y-9072698D01*
X9996052Y-9072155D01*
X10007842Y-9072180D01*
G37*
G36*
X-14683831Y14269834D02*
G01*
X-14671856Y14269238D01*
X-14660107Y14268090D01*
X-14648264Y14266361D01*
X-14636685Y14264104D01*
X-14625050Y14261255D01*
X-14613728Y14257903D01*
X-14602419Y14253961D01*
X-14591482Y14249556D01*
X-14580597Y14244557D01*
X-14570115Y14239124D01*
X-14559754Y14233112D01*
X-14549836Y14226708D01*
X-14540098Y14219741D01*
X-14530847Y14212433D01*
X-14521807Y14204566D01*
X-14513278Y14196398D01*
X-14505039Y14187719D01*
X-14497333Y14178787D01*
X-14489944Y14169349D01*
X-14483122Y14159725D01*
X-14475074Y14147143D01*
X-14472012Y14142094D01*
X-12409697Y10552095D01*
X-12406881Y10546912D01*
X-12400065Y10533621D01*
X-12395183Y10522868D01*
X-12390757Y10511741D01*
X-12386925Y10500591D01*
X-12383574Y10489088D01*
X-12380814Y10477604D01*
X-12378573Y10465836D01*
X-12376921Y10454167D01*
X-12375808Y10442247D01*
X-12375271Y10430440D01*
X-12375298Y10418455D01*
X-12375884Y10406689D01*
X-12377047Y10394773D01*
X-12378754Y10383081D01*
X-12381046Y10371329D01*
X-12383850Y10359879D01*
X-12387250Y10348390D01*
X-12391135Y10337243D01*
X-12395609Y10326137D01*
X-12400539Y10315404D01*
X-12406055Y10304763D01*
X-12411970Y10294570D01*
X-12418464Y10284512D01*
X-12425336Y10274905D01*
X-12432762Y10265505D01*
X-12440506Y10256607D01*
X-12448785Y10247962D01*
X-12457343Y10239838D01*
X-12466411Y10232015D01*
X-12475698Y10224744D01*
X-12485478Y10217811D01*
X-12495418Y10211453D01*
X-12505797Y10205490D01*
X-12516312Y10200098D01*
X-12527227Y10195143D01*
X-12538185Y10190784D01*
X-12549496Y10186897D01*
X-12560822Y10183598D01*
X-12572478Y10180797D01*
X-12584063Y10178590D01*
X-12595925Y10176910D01*
X-12607685Y10175813D01*
X-12622586Y10175136D01*
X-12628483Y10175008D01*
X-16768693Y10183990D01*
X-16774591Y10184143D01*
X-16789513Y10184886D01*
X-16801259Y10186034D01*
X-16813102Y10187763D01*
X-16824681Y10190020D01*
X-16836316Y10192869D01*
X-16847638Y10196221D01*
X-16858947Y10200163D01*
X-16869884Y10204568D01*
X-16880769Y10209567D01*
X-16891251Y10215000D01*
X-16901612Y10221012D01*
X-16911530Y10227416D01*
X-16921268Y10234383D01*
X-16930519Y10241691D01*
X-16939559Y10249558D01*
X-16948088Y10257726D01*
X-16956327Y10266405D01*
X-16964033Y10275337D01*
X-16971422Y10284775D01*
X-16978242Y10294397D01*
X-16984695Y10304485D01*
X-16990578Y10314725D01*
X-16996042Y10325381D01*
X-17000921Y10336128D01*
X-17005347Y10347255D01*
X-17009179Y10358405D01*
X-17012530Y10369908D01*
X-17015290Y10381392D01*
X-17017531Y10393160D01*
X-17019183Y10404829D01*
X-17020296Y10416749D01*
X-17020833Y10428556D01*
X-17020806Y10440541D01*
X-17020220Y10452307D01*
X-17019057Y10464223D01*
X-17017350Y10475915D01*
X-17015058Y10487667D01*
X-17012254Y10499117D01*
X-17008854Y10510606D01*
X-17004969Y10521753D01*
X-17000495Y10532859D01*
X-16995566Y10543590D01*
X-16988687Y10556861D01*
X-16985850Y10562029D01*
X-14907980Y14143043D01*
X-14904898Y14148076D01*
X-14896796Y14160623D01*
X-14889927Y14170224D01*
X-14882501Y14179624D01*
X-14874757Y14188522D01*
X-14866478Y14197167D01*
X-14857920Y14205291D01*
X-14848852Y14213114D01*
X-14839565Y14220385D01*
X-14829785Y14227318D01*
X-14819845Y14233676D01*
X-14809466Y14239639D01*
X-14798951Y14245031D01*
X-14788036Y14249986D01*
X-14777078Y14254345D01*
X-14765767Y14258232D01*
X-14754441Y14261531D01*
X-14742785Y14264332D01*
X-14731200Y14266539D01*
X-14719338Y14268219D01*
X-14707576Y14269316D01*
X-14695621Y14269859D01*
X-14683831Y14269834D01*
G37*
G36*
X9476431Y-15590294D02*
G01*
X9488406Y-15590890D01*
X9500155Y-15592038D01*
X9511998Y-15593767D01*
X9523577Y-15596024D01*
X9535212Y-15598873D01*
X9546534Y-15602225D01*
X9557843Y-15606167D01*
X9568780Y-15610572D01*
X9579665Y-15615571D01*
X9590147Y-15621004D01*
X9600508Y-15627016D01*
X9610426Y-15633420D01*
X9620164Y-15640387D01*
X9629415Y-15647695D01*
X9638455Y-15655562D01*
X9646984Y-15663730D01*
X9655223Y-15672409D01*
X9662929Y-15681341D01*
X9670318Y-15690779D01*
X9677140Y-15700403D01*
X9685188Y-15712985D01*
X9688250Y-15718034D01*
X11750565Y-19308033D01*
X11753381Y-19313216D01*
X11760197Y-19326507D01*
X11765079Y-19337260D01*
X11769505Y-19348387D01*
X11773337Y-19359537D01*
X11776688Y-19371040D01*
X11779448Y-19382524D01*
X11781689Y-19394292D01*
X11783341Y-19405961D01*
X11784454Y-19417881D01*
X11784991Y-19429688D01*
X11784964Y-19441673D01*
X11784378Y-19453439D01*
X11783215Y-19465355D01*
X11781508Y-19477047D01*
X11779216Y-19488799D01*
X11776412Y-19500249D01*
X11773012Y-19511738D01*
X11769127Y-19522885D01*
X11764653Y-19533991D01*
X11759723Y-19544724D01*
X11754207Y-19555365D01*
X11748292Y-19565558D01*
X11741798Y-19575616D01*
X11734926Y-19585223D01*
X11727500Y-19594623D01*
X11719756Y-19603521D01*
X11711477Y-19612166D01*
X11702919Y-19620290D01*
X11693851Y-19628113D01*
X11684564Y-19635384D01*
X11674784Y-19642317D01*
X11664844Y-19648675D01*
X11654465Y-19654638D01*
X11643950Y-19660030D01*
X11633035Y-19664985D01*
X11622077Y-19669344D01*
X11610766Y-19673231D01*
X11599440Y-19676530D01*
X11587784Y-19679331D01*
X11576199Y-19681538D01*
X11564337Y-19683218D01*
X11552577Y-19684315D01*
X11537676Y-19684992D01*
X11531779Y-19685120D01*
X7391569Y-19676138D01*
X7385671Y-19675985D01*
X7370749Y-19675242D01*
X7359003Y-19674094D01*
X7347160Y-19672365D01*
X7335581Y-19670108D01*
X7323946Y-19667259D01*
X7312624Y-19663907D01*
X7301315Y-19659965D01*
X7290378Y-19655560D01*
X7279493Y-19650561D01*
X7269011Y-19645128D01*
X7258650Y-19639116D01*
X7248732Y-19632712D01*
X7238994Y-19625745D01*
X7229743Y-19618437D01*
X7220703Y-19610570D01*
X7212174Y-19602402D01*
X7203935Y-19593723D01*
X7196229Y-19584791D01*
X7188840Y-19575353D01*
X7182020Y-19565731D01*
X7175567Y-19555643D01*
X7169684Y-19545403D01*
X7164220Y-19534747D01*
X7159341Y-19524000D01*
X7154915Y-19512873D01*
X7151083Y-19501723D01*
X7147732Y-19490220D01*
X7144972Y-19478736D01*
X7142731Y-19466968D01*
X7141079Y-19455299D01*
X7139966Y-19443379D01*
X7139429Y-19431572D01*
X7139456Y-19419587D01*
X7140042Y-19407821D01*
X7141205Y-19395905D01*
X7142912Y-19384213D01*
X7145204Y-19372461D01*
X7148008Y-19361011D01*
X7151408Y-19349522D01*
X7155293Y-19338375D01*
X7159767Y-19327269D01*
X7164696Y-19316538D01*
X7171575Y-19303267D01*
X7174412Y-19298099D01*
X9252282Y-15717085D01*
X9255364Y-15712052D01*
X9263466Y-15699505D01*
X9270335Y-15689904D01*
X9277761Y-15680504D01*
X9285505Y-15671606D01*
X9293784Y-15662961D01*
X9302342Y-15654837D01*
X9311410Y-15647014D01*
X9320697Y-15639743D01*
X9330477Y-15632810D01*
X9340417Y-15626452D01*
X9350796Y-15620489D01*
X9361311Y-15615097D01*
X9372226Y-15610142D01*
X9383184Y-15605783D01*
X9394495Y-15601896D01*
X9405821Y-15598597D01*
X9417477Y-15595796D01*
X9429062Y-15593589D01*
X9440924Y-15591909D01*
X9452686Y-15590812D01*
X9464641Y-15590269D01*
X9476431Y-15590294D01*
G37*
G36*
X10937272Y11494834D02*
G01*
X10949247Y11494238D01*
X10960996Y11493090D01*
X10972839Y11491361D01*
X10984418Y11489104D01*
X10996053Y11486255D01*
X11007375Y11482903D01*
X11018684Y11478961D01*
X11029621Y11474556D01*
X11040506Y11469557D01*
X11050988Y11464124D01*
X11061349Y11458112D01*
X11071267Y11451708D01*
X11081005Y11444741D01*
X11090256Y11437433D01*
X11099296Y11429566D01*
X11107825Y11421398D01*
X11116064Y11412719D01*
X11123770Y11403787D01*
X11131159Y11394349D01*
X11137981Y11384725D01*
X11146029Y11372143D01*
X11149091Y11367094D01*
X13211406Y7777095D01*
X13214222Y7771912D01*
X13221038Y7758621D01*
X13225920Y7747868D01*
X13230346Y7736741D01*
X13234178Y7725591D01*
X13237529Y7714088D01*
X13240289Y7702604D01*
X13242530Y7690836D01*
X13244182Y7679167D01*
X13245295Y7667247D01*
X13245832Y7655440D01*
X13245805Y7643455D01*
X13245219Y7631689D01*
X13244056Y7619773D01*
X13242349Y7608081D01*
X13240057Y7596329D01*
X13237253Y7584879D01*
X13233853Y7573390D01*
X13229968Y7562243D01*
X13225494Y7551137D01*
X13220564Y7540404D01*
X13215048Y7529763D01*
X13209133Y7519570D01*
X13202639Y7509512D01*
X13195767Y7499905D01*
X13188341Y7490505D01*
X13180597Y7481607D01*
X13172318Y7472962D01*
X13163760Y7464838D01*
X13154692Y7457015D01*
X13145405Y7449744D01*
X13135625Y7442811D01*
X13125685Y7436453D01*
X13115306Y7430490D01*
X13104791Y7425098D01*
X13093876Y7420143D01*
X13082918Y7415784D01*
X13071607Y7411897D01*
X13060281Y7408598D01*
X13048625Y7405797D01*
X13037040Y7403590D01*
X13025178Y7401910D01*
X13013418Y7400813D01*
X12998517Y7400136D01*
X12992620Y7400008D01*
X8852410Y7408990D01*
X8846512Y7409143D01*
X8831590Y7409886D01*
X8819844Y7411034D01*
X8808001Y7412763D01*
X8796422Y7415020D01*
X8784787Y7417869D01*
X8773465Y7421221D01*
X8762156Y7425163D01*
X8751219Y7429568D01*
X8740334Y7434567D01*
X8729852Y7440000D01*
X8719491Y7446012D01*
X8709573Y7452416D01*
X8699835Y7459383D01*
X8690584Y7466691D01*
X8681544Y7474558D01*
X8673015Y7482726D01*
X8664776Y7491405D01*
X8657070Y7500337D01*
X8649681Y7509775D01*
X8642861Y7519397D01*
X8636408Y7529485D01*
X8630525Y7539725D01*
X8625061Y7550381D01*
X8620182Y7561128D01*
X8615756Y7572255D01*
X8611924Y7583405D01*
X8608573Y7594908D01*
X8605813Y7606392D01*
X8603572Y7618160D01*
X8601920Y7629829D01*
X8600807Y7641749D01*
X8600270Y7653556D01*
X8600297Y7665541D01*
X8600883Y7677307D01*
X8602046Y7689223D01*
X8603753Y7700915D01*
X8606045Y7712667D01*
X8608849Y7724117D01*
X8612249Y7735606D01*
X8616134Y7746753D01*
X8620608Y7757859D01*
X8625537Y7768590D01*
X8632416Y7781861D01*
X8635253Y7787029D01*
X10713123Y11368043D01*
X10716205Y11373076D01*
X10724307Y11385623D01*
X10731176Y11395224D01*
X10738602Y11404624D01*
X10746346Y11413522D01*
X10754625Y11422167D01*
X10763183Y11430291D01*
X10772251Y11438114D01*
X10781538Y11445385D01*
X10791318Y11452318D01*
X10801258Y11458676D01*
X10811637Y11464639D01*
X10822152Y11470031D01*
X10833067Y11474986D01*
X10844025Y11479345D01*
X10855336Y11483232D01*
X10866662Y11486531D01*
X10878318Y11489332D01*
X10889903Y11491539D01*
X10901765Y11493219D01*
X10913527Y11494316D01*
X10925482Y11494859D01*
X10937272Y11494834D01*
G37*
G36*
X-23858831Y-11155166D02*
G01*
X-23846856Y-11155762D01*
X-23835107Y-11156910D01*
X-23823264Y-11158639D01*
X-23811685Y-11160896D01*
X-23800050Y-11163745D01*
X-23788728Y-11167097D01*
X-23777419Y-11171039D01*
X-23766482Y-11175444D01*
X-23755597Y-11180443D01*
X-23745115Y-11185876D01*
X-23734754Y-11191888D01*
X-23724836Y-11198292D01*
X-23715098Y-11205259D01*
X-23705847Y-11212567D01*
X-23696807Y-11220434D01*
X-23688278Y-11228602D01*
X-23680039Y-11237281D01*
X-23672333Y-11246213D01*
X-23664944Y-11255651D01*
X-23658122Y-11265275D01*
X-23650074Y-11277857D01*
X-23647012Y-11282906D01*
X-21584697Y-14872905D01*
X-21581881Y-14878088D01*
X-21575065Y-14891379D01*
X-21570183Y-14902132D01*
X-21565757Y-14913259D01*
X-21561925Y-14924409D01*
X-21558574Y-14935912D01*
X-21555814Y-14947396D01*
X-21553573Y-14959164D01*
X-21551921Y-14970833D01*
X-21550808Y-14982753D01*
X-21550271Y-14994560D01*
X-21550298Y-15006545D01*
X-21550884Y-15018311D01*
X-21552047Y-15030227D01*
X-21553754Y-15041919D01*
X-21556046Y-15053671D01*
X-21558850Y-15065121D01*
X-21562250Y-15076610D01*
X-21566135Y-15087757D01*
X-21570609Y-15098863D01*
X-21575539Y-15109596D01*
X-21581055Y-15120237D01*
X-21586970Y-15130430D01*
X-21593464Y-15140488D01*
X-21600336Y-15150095D01*
X-21607762Y-15159495D01*
X-21615506Y-15168393D01*
X-21623785Y-15177038D01*
X-21632343Y-15185162D01*
X-21641411Y-15192985D01*
X-21650698Y-15200256D01*
X-21660478Y-15207189D01*
X-21670418Y-15213547D01*
X-21680797Y-15219510D01*
X-21691312Y-15224902D01*
X-21702227Y-15229857D01*
X-21713185Y-15234216D01*
X-21724496Y-15238103D01*
X-21735822Y-15241402D01*
X-21747478Y-15244203D01*
X-21759063Y-15246410D01*
X-21770925Y-15248090D01*
X-21782685Y-15249187D01*
X-21797586Y-15249864D01*
X-21803483Y-15249992D01*
X-25943693Y-15241010D01*
X-25949591Y-15240857D01*
X-25964513Y-15240114D01*
X-25976259Y-15238966D01*
X-25988102Y-15237237D01*
X-25999681Y-15234980D01*
X-26011316Y-15232131D01*
X-26022638Y-15228779D01*
X-26033947Y-15224837D01*
X-26044884Y-15220432D01*
X-26055769Y-15215433D01*
X-26066251Y-15210000D01*
X-26076612Y-15203988D01*
X-26086530Y-15197584D01*
X-26096268Y-15190617D01*
X-26105519Y-15183309D01*
X-26114559Y-15175442D01*
X-26123088Y-15167274D01*
X-26131327Y-15158595D01*
X-26139033Y-15149663D01*
X-26146422Y-15140225D01*
X-26153242Y-15130603D01*
X-26159695Y-15120515D01*
X-26165578Y-15110275D01*
X-26171042Y-15099619D01*
X-26175921Y-15088872D01*
X-26180347Y-15077745D01*
X-26184179Y-15066595D01*
X-26187530Y-15055092D01*
X-26190290Y-15043608D01*
X-26192531Y-15031840D01*
X-26194183Y-15020171D01*
X-26195296Y-15008251D01*
X-26195833Y-14996444D01*
X-26195806Y-14984459D01*
X-26195220Y-14972693D01*
X-26194057Y-14960777D01*
X-26192350Y-14949085D01*
X-26190058Y-14937333D01*
X-26187254Y-14925883D01*
X-26183854Y-14914394D01*
X-26179969Y-14903247D01*
X-26175495Y-14892141D01*
X-26170566Y-14881410D01*
X-26163687Y-14868139D01*
X-26160850Y-14862971D01*
X-24082980Y-11281957D01*
X-24079898Y-11276924D01*
X-24071796Y-11264377D01*
X-24064927Y-11254776D01*
X-24057501Y-11245376D01*
X-24049757Y-11236478D01*
X-24041478Y-11227833D01*
X-24032920Y-11219709D01*
X-24023852Y-11211886D01*
X-24014565Y-11204615D01*
X-24004785Y-11197682D01*
X-23994845Y-11191324D01*
X-23984466Y-11185361D01*
X-23973951Y-11179969D01*
X-23963036Y-11175014D01*
X-23952078Y-11170655D01*
X-23940767Y-11166768D01*
X-23929441Y-11163469D01*
X-23917785Y-11160668D01*
X-23906200Y-11158461D01*
X-23894338Y-11156781D01*
X-23882576Y-11155684D01*
X-23870621Y-11155141D01*
X-23858831Y-11155166D01*
G37*
G36*
X-31324093Y-3160040D02*
G01*
X-31312118Y-3160636D01*
X-31300369Y-3161784D01*
X-31288526Y-3163513D01*
X-31276947Y-3165770D01*
X-31265312Y-3168619D01*
X-31253990Y-3171971D01*
X-31242681Y-3175913D01*
X-31231744Y-3180318D01*
X-31220859Y-3185317D01*
X-31210377Y-3190750D01*
X-31200016Y-3196762D01*
X-31190098Y-3203166D01*
X-31180360Y-3210133D01*
X-31171109Y-3217441D01*
X-31162069Y-3225308D01*
X-31153540Y-3233476D01*
X-31145301Y-3242155D01*
X-31137595Y-3251087D01*
X-31130206Y-3260525D01*
X-31123384Y-3270149D01*
X-31115336Y-3282731D01*
X-31112274Y-3287780D01*
X-26984697Y-10472905D01*
X-26981881Y-10478088D01*
X-26975065Y-10491379D01*
X-26970183Y-10502132D01*
X-26965757Y-10513259D01*
X-26961925Y-10524409D01*
X-26958574Y-10535912D01*
X-26955814Y-10547396D01*
X-26953573Y-10559164D01*
X-26951921Y-10570833D01*
X-26950808Y-10582753D01*
X-26950271Y-10594560D01*
X-26950298Y-10606545D01*
X-26950884Y-10618311D01*
X-26952047Y-10630227D01*
X-26953754Y-10641919D01*
X-26956046Y-10653671D01*
X-26958850Y-10665121D01*
X-26962250Y-10676610D01*
X-26966135Y-10687757D01*
X-26970609Y-10698863D01*
X-26975539Y-10709596D01*
X-26981055Y-10720237D01*
X-26986970Y-10730430D01*
X-26993464Y-10740488D01*
X-27000336Y-10750095D01*
X-27007762Y-10759495D01*
X-27015506Y-10768393D01*
X-27023785Y-10777038D01*
X-27032343Y-10785162D01*
X-27041411Y-10792985D01*
X-27050698Y-10800256D01*
X-27060478Y-10807189D01*
X-27070418Y-10813547D01*
X-27080797Y-10819510D01*
X-27091312Y-10824902D01*
X-27102227Y-10829857D01*
X-27113185Y-10834216D01*
X-27124496Y-10838103D01*
X-27135822Y-10841402D01*
X-27147478Y-10844203D01*
X-27159063Y-10846410D01*
X-27170925Y-10848090D01*
X-27182685Y-10849187D01*
X-27197586Y-10849864D01*
X-27203483Y-10849992D01*
X-31709494Y-10840216D01*
X-31759303Y-10829654D01*
X-31800668Y-10799967D01*
X-31826616Y-10756159D01*
X-31990472Y-10274593D01*
X-31991780Y-10270517D01*
X-32326036Y-9164328D01*
X-32327204Y-9160210D01*
X-32623100Y-8043065D01*
X-32624124Y-8038909D01*
X-32881276Y-6912250D01*
X-32882156Y-6908061D01*
X-33064317Y-5960257D01*
X-33064801Y-5916126D01*
X-33049798Y-5874620D01*
X-31548242Y-3286831D01*
X-31545160Y-3281798D01*
X-31537058Y-3269251D01*
X-31530189Y-3259650D01*
X-31522763Y-3250250D01*
X-31515019Y-3241352D01*
X-31506740Y-3232707D01*
X-31498182Y-3224583D01*
X-31489114Y-3216760D01*
X-31479827Y-3209489D01*
X-31470047Y-3202556D01*
X-31460107Y-3196198D01*
X-31449728Y-3190235D01*
X-31439213Y-3184843D01*
X-31428298Y-3179888D01*
X-31417340Y-3175529D01*
X-31406029Y-3171642D01*
X-31394703Y-3168343D01*
X-31383047Y-3165542D01*
X-31371462Y-3163335D01*
X-31359600Y-3161655D01*
X-31347838Y-3160558D01*
X-31335883Y-3160015D01*
X-31324093Y-3160040D01*
G37*
G36*
X4603357Y-22469526D02*
G01*
X4615332Y-22470122D01*
X4627081Y-22471270D01*
X4638924Y-22472999D01*
X4650503Y-22475256D01*
X4662138Y-22478105D01*
X4673460Y-22481457D01*
X4684769Y-22485399D01*
X4695706Y-22489804D01*
X4706591Y-22494803D01*
X4717073Y-22500236D01*
X4727434Y-22506248D01*
X4737352Y-22512652D01*
X4747090Y-22519619D01*
X4756341Y-22526927D01*
X4765381Y-22534794D01*
X4773910Y-22542962D01*
X4782149Y-22551641D01*
X4789855Y-22560573D01*
X4797244Y-22570011D01*
X4804066Y-22579635D01*
X4812114Y-22592217D01*
X4815176Y-22597266D01*
X6877491Y-26187265D01*
X6880307Y-26192448D01*
X6887123Y-26205739D01*
X6892005Y-26216492D01*
X6896431Y-26227619D01*
X6900263Y-26238769D01*
X6903614Y-26250272D01*
X6906374Y-26261756D01*
X6908615Y-26273524D01*
X6910267Y-26285193D01*
X6911380Y-26297113D01*
X6911917Y-26308920D01*
X6911890Y-26320905D01*
X6911304Y-26332671D01*
X6910141Y-26344587D01*
X6908434Y-26356279D01*
X6906142Y-26368031D01*
X6903338Y-26379481D01*
X6899938Y-26390970D01*
X6896053Y-26402117D01*
X6891579Y-26413223D01*
X6886649Y-26423956D01*
X6881133Y-26434597D01*
X6875218Y-26444790D01*
X6868724Y-26454848D01*
X6861852Y-26464455D01*
X6854426Y-26473855D01*
X6846682Y-26482753D01*
X6838403Y-26491398D01*
X6829845Y-26499522D01*
X6820777Y-26507345D01*
X6811490Y-26514616D01*
X6801710Y-26521549D01*
X6791770Y-26527907D01*
X6781391Y-26533870D01*
X6770876Y-26539262D01*
X6759961Y-26544217D01*
X6749003Y-26548576D01*
X6737692Y-26552463D01*
X6726366Y-26555762D01*
X6714710Y-26558563D01*
X6703125Y-26560770D01*
X6691263Y-26562450D01*
X6679503Y-26563547D01*
X6664602Y-26564224D01*
X6658705Y-26564352D01*
X2518495Y-26555370D01*
X2512597Y-26555217D01*
X2497675Y-26554474D01*
X2485929Y-26553326D01*
X2474086Y-26551597D01*
X2462507Y-26549340D01*
X2450872Y-26546491D01*
X2439550Y-26543139D01*
X2428241Y-26539197D01*
X2417304Y-26534792D01*
X2406419Y-26529793D01*
X2395937Y-26524360D01*
X2385576Y-26518348D01*
X2375658Y-26511944D01*
X2365920Y-26504977D01*
X2356669Y-26497669D01*
X2347629Y-26489802D01*
X2339100Y-26481634D01*
X2330861Y-26472955D01*
X2323155Y-26464023D01*
X2315766Y-26454585D01*
X2308946Y-26444963D01*
X2302493Y-26434875D01*
X2296610Y-26424635D01*
X2291146Y-26413979D01*
X2286267Y-26403232D01*
X2281841Y-26392105D01*
X2278009Y-26380955D01*
X2274658Y-26369452D01*
X2271898Y-26357968D01*
X2269657Y-26346200D01*
X2268005Y-26334531D01*
X2266892Y-26322611D01*
X2266355Y-26310804D01*
X2266382Y-26298819D01*
X2266968Y-26287053D01*
X2268131Y-26275137D01*
X2269838Y-26263445D01*
X2272130Y-26251693D01*
X2274934Y-26240243D01*
X2278334Y-26228754D01*
X2282219Y-26217607D01*
X2286693Y-26206501D01*
X2291622Y-26195770D01*
X2298501Y-26182499D01*
X2301338Y-26177331D01*
X4379208Y-22596317D01*
X4382290Y-22591284D01*
X4390392Y-22578737D01*
X4397261Y-22569136D01*
X4404687Y-22559736D01*
X4412431Y-22550838D01*
X4420710Y-22542193D01*
X4429268Y-22534069D01*
X4438336Y-22526246D01*
X4447623Y-22518975D01*
X4457403Y-22512042D01*
X4467343Y-22505684D01*
X4477722Y-22499721D01*
X4488237Y-22494329D01*
X4499152Y-22489374D01*
X4510110Y-22485015D01*
X4521421Y-22481128D01*
X4532747Y-22477829D01*
X4544403Y-22475028D01*
X4555988Y-22472821D01*
X4567850Y-22471141D01*
X4579612Y-22470044D01*
X4591567Y-22469501D01*
X4603357Y-22469526D01*
G37*
G36*
X18266169Y21794834D02*
G01*
X18278144Y21794238D01*
X18289893Y21793090D01*
X18301736Y21791361D01*
X18313315Y21789104D01*
X18324950Y21786255D01*
X18336272Y21782903D01*
X18347581Y21778961D01*
X18358518Y21774556D01*
X18369403Y21769557D01*
X18379885Y21764124D01*
X18390246Y21758112D01*
X18400164Y21751708D01*
X18409902Y21744741D01*
X18419153Y21737433D01*
X18428193Y21729566D01*
X18436722Y21721398D01*
X18444961Y21712719D01*
X18452667Y21703787D01*
X18460056Y21694349D01*
X18466878Y21684725D01*
X18474926Y21672143D01*
X18477988Y21667094D01*
X20540303Y18077095D01*
X20543119Y18071912D01*
X20549935Y18058621D01*
X20554817Y18047868D01*
X20559243Y18036741D01*
X20563075Y18025591D01*
X20566426Y18014088D01*
X20569186Y18002604D01*
X20571427Y17990836D01*
X20573079Y17979167D01*
X20574192Y17967247D01*
X20574729Y17955440D01*
X20574702Y17943455D01*
X20574116Y17931689D01*
X20572953Y17919773D01*
X20571246Y17908081D01*
X20568954Y17896329D01*
X20566150Y17884879D01*
X20562750Y17873390D01*
X20558865Y17862243D01*
X20554391Y17851137D01*
X20549461Y17840404D01*
X20543945Y17829763D01*
X20538030Y17819570D01*
X20531536Y17809512D01*
X20524664Y17799905D01*
X20517238Y17790505D01*
X20509494Y17781607D01*
X20501215Y17772962D01*
X20492657Y17764838D01*
X20483589Y17757015D01*
X20474302Y17749744D01*
X20464522Y17742811D01*
X20454582Y17736453D01*
X20444203Y17730490D01*
X20433688Y17725098D01*
X20422773Y17720143D01*
X20411815Y17715784D01*
X20400504Y17711897D01*
X20389178Y17708598D01*
X20377522Y17705797D01*
X20365937Y17703590D01*
X20354075Y17701910D01*
X20342315Y17700813D01*
X20327414Y17700136D01*
X20321517Y17700008D01*
X16181307Y17708990D01*
X16175409Y17709143D01*
X16160487Y17709886D01*
X16148741Y17711034D01*
X16136898Y17712763D01*
X16125319Y17715020D01*
X16113684Y17717869D01*
X16102362Y17721221D01*
X16091053Y17725163D01*
X16080116Y17729568D01*
X16069231Y17734567D01*
X16058749Y17740000D01*
X16048388Y17746012D01*
X16038470Y17752416D01*
X16028732Y17759383D01*
X16019481Y17766691D01*
X16010441Y17774558D01*
X16001912Y17782726D01*
X15993673Y17791405D01*
X15985967Y17800337D01*
X15978578Y17809775D01*
X15971758Y17819397D01*
X15965305Y17829485D01*
X15959422Y17839725D01*
X15953958Y17850381D01*
X15949079Y17861128D01*
X15944653Y17872255D01*
X15940821Y17883405D01*
X15937470Y17894908D01*
X15934710Y17906392D01*
X15932469Y17918160D01*
X15930817Y17929829D01*
X15929704Y17941749D01*
X15929167Y17953556D01*
X15929194Y17965541D01*
X15929780Y17977307D01*
X15930943Y17989223D01*
X15932650Y18000915D01*
X15934942Y18012667D01*
X15937746Y18024117D01*
X15941146Y18035606D01*
X15945031Y18046753D01*
X15949505Y18057859D01*
X15954434Y18068590D01*
X15961313Y18081861D01*
X15964150Y18087029D01*
X18042020Y21668043D01*
X18045102Y21673076D01*
X18053204Y21685623D01*
X18060073Y21695224D01*
X18067499Y21704624D01*
X18075243Y21713522D01*
X18083522Y21722167D01*
X18092080Y21730291D01*
X18101148Y21738114D01*
X18110435Y21745385D01*
X18120215Y21752318D01*
X18130155Y21758676D01*
X18140534Y21764639D01*
X18151049Y21770031D01*
X18161964Y21774986D01*
X18172922Y21779345D01*
X18184233Y21783232D01*
X18195559Y21786531D01*
X18207215Y21789332D01*
X18218800Y21791539D01*
X18230662Y21793219D01*
X18242424Y21794316D01*
X18254379Y21794859D01*
X18266169Y21794834D01*
G37*
G36*
X-15998831Y-9225166D02*
G01*
X-15986856Y-9225762D01*
X-15975107Y-9226910D01*
X-15963264Y-9228639D01*
X-15951685Y-9230896D01*
X-15940050Y-9233745D01*
X-15928728Y-9237097D01*
X-15917419Y-9241039D01*
X-15906482Y-9245444D01*
X-15895597Y-9250443D01*
X-15885115Y-9255876D01*
X-15874754Y-9261888D01*
X-15864836Y-9268292D01*
X-15855098Y-9275259D01*
X-15845847Y-9282567D01*
X-15836807Y-9290434D01*
X-15828278Y-9298602D01*
X-15820039Y-9307281D01*
X-15812333Y-9316213D01*
X-15804944Y-9325651D01*
X-15798122Y-9335275D01*
X-15790074Y-9347857D01*
X-15787012Y-9352906D01*
X-13724697Y-12942905D01*
X-13721881Y-12948088D01*
X-13715065Y-12961379D01*
X-13710183Y-12972132D01*
X-13705757Y-12983259D01*
X-13701925Y-12994409D01*
X-13698574Y-13005912D01*
X-13695814Y-13017396D01*
X-13693573Y-13029164D01*
X-13691921Y-13040833D01*
X-13690808Y-13052753D01*
X-13690271Y-13064560D01*
X-13690298Y-13076545D01*
X-13690884Y-13088311D01*
X-13692047Y-13100227D01*
X-13693754Y-13111919D01*
X-13696046Y-13123671D01*
X-13698850Y-13135121D01*
X-13702250Y-13146610D01*
X-13706135Y-13157757D01*
X-13710609Y-13168863D01*
X-13715539Y-13179596D01*
X-13721055Y-13190237D01*
X-13726970Y-13200430D01*
X-13733464Y-13210488D01*
X-13740336Y-13220095D01*
X-13747762Y-13229495D01*
X-13755506Y-13238393D01*
X-13763785Y-13247038D01*
X-13772343Y-13255162D01*
X-13781411Y-13262985D01*
X-13790698Y-13270256D01*
X-13800478Y-13277189D01*
X-13810418Y-13283547D01*
X-13820797Y-13289510D01*
X-13831312Y-13294902D01*
X-13842227Y-13299857D01*
X-13853185Y-13304216D01*
X-13864496Y-13308103D01*
X-13875822Y-13311402D01*
X-13887478Y-13314203D01*
X-13899063Y-13316410D01*
X-13910925Y-13318090D01*
X-13922685Y-13319187D01*
X-13937586Y-13319864D01*
X-13943483Y-13319992D01*
X-18083693Y-13311010D01*
X-18089591Y-13310857D01*
X-18104513Y-13310114D01*
X-18116259Y-13308966D01*
X-18128102Y-13307237D01*
X-18139681Y-13304980D01*
X-18151316Y-13302131D01*
X-18162638Y-13298779D01*
X-18173947Y-13294837D01*
X-18184884Y-13290432D01*
X-18195769Y-13285433D01*
X-18206251Y-13280000D01*
X-18216612Y-13273988D01*
X-18226530Y-13267584D01*
X-18236268Y-13260617D01*
X-18245519Y-13253309D01*
X-18254559Y-13245442D01*
X-18263088Y-13237274D01*
X-18271327Y-13228595D01*
X-18279033Y-13219663D01*
X-18286422Y-13210225D01*
X-18293242Y-13200603D01*
X-18299695Y-13190515D01*
X-18305578Y-13180275D01*
X-18311042Y-13169619D01*
X-18315921Y-13158872D01*
X-18320347Y-13147745D01*
X-18324179Y-13136595D01*
X-18327530Y-13125092D01*
X-18330290Y-13113608D01*
X-18332531Y-13101840D01*
X-18334183Y-13090171D01*
X-18335296Y-13078251D01*
X-18335833Y-13066444D01*
X-18335806Y-13054459D01*
X-18335220Y-13042693D01*
X-18334057Y-13030777D01*
X-18332350Y-13019085D01*
X-18330058Y-13007333D01*
X-18327254Y-12995883D01*
X-18323854Y-12984394D01*
X-18319969Y-12973247D01*
X-18315495Y-12962141D01*
X-18310566Y-12951410D01*
X-18303687Y-12938139D01*
X-18300850Y-12932971D01*
X-16222980Y-9351957D01*
X-16219898Y-9346924D01*
X-16211796Y-9334377D01*
X-16204927Y-9324776D01*
X-16197501Y-9315376D01*
X-16189757Y-9306478D01*
X-16181478Y-9297833D01*
X-16172920Y-9289709D01*
X-16163852Y-9281886D01*
X-16154565Y-9274615D01*
X-16144785Y-9267682D01*
X-16134845Y-9261324D01*
X-16124466Y-9255361D01*
X-16113951Y-9249969D01*
X-16103036Y-9245014D01*
X-16092078Y-9240655D01*
X-16080767Y-9236768D01*
X-16069441Y-9233469D01*
X-16057785Y-9230668D01*
X-16046200Y-9228461D01*
X-16034338Y-9226781D01*
X-16022576Y-9225684D01*
X-16010621Y-9225141D01*
X-15998831Y-9225166D01*
G37*
G36*
X21763746Y-9332980D02*
G01*
X21775721Y-9333576D01*
X21787470Y-9334724D01*
X21799313Y-9336453D01*
X21810892Y-9338710D01*
X21822527Y-9341559D01*
X21833849Y-9344911D01*
X21845158Y-9348853D01*
X21856095Y-9353258D01*
X21866980Y-9358257D01*
X21877462Y-9363690D01*
X21887823Y-9369702D01*
X21897741Y-9376106D01*
X21907479Y-9383073D01*
X21916730Y-9390381D01*
X21925770Y-9398248D01*
X21934299Y-9406416D01*
X21942538Y-9415095D01*
X21950244Y-9424027D01*
X21957633Y-9433465D01*
X21964455Y-9443089D01*
X21972503Y-9455671D01*
X21975565Y-9460720D01*
X26103142Y-16645845D01*
X26105958Y-16651028D01*
X26112774Y-16664319D01*
X26117656Y-16675072D01*
X26122082Y-16686199D01*
X26125914Y-16697349D01*
X26129265Y-16708852D01*
X26132025Y-16720336D01*
X26134266Y-16732104D01*
X26135918Y-16743773D01*
X26137031Y-16755693D01*
X26137568Y-16767500D01*
X26137541Y-16779485D01*
X26136955Y-16791251D01*
X26135792Y-16803167D01*
X26134085Y-16814859D01*
X26131793Y-16826611D01*
X26128989Y-16838061D01*
X26125589Y-16849550D01*
X26121704Y-16860697D01*
X26117230Y-16871803D01*
X26112300Y-16882536D01*
X26106784Y-16893177D01*
X26100869Y-16903370D01*
X26094375Y-16913428D01*
X26087503Y-16923035D01*
X26080077Y-16932435D01*
X26072333Y-16941333D01*
X26064054Y-16949978D01*
X26055496Y-16958102D01*
X26046428Y-16965925D01*
X26037141Y-16973196D01*
X26027361Y-16980129D01*
X26017421Y-16986487D01*
X26007042Y-16992450D01*
X25996527Y-16997842D01*
X25985612Y-17002797D01*
X25974654Y-17007156D01*
X25963343Y-17011043D01*
X25952017Y-17014342D01*
X25940361Y-17017143D01*
X25928776Y-17019350D01*
X25916914Y-17021030D01*
X25905154Y-17022127D01*
X25890253Y-17022804D01*
X25884356Y-17022932D01*
X17598043Y-17004955D01*
X17592145Y-17004802D01*
X17577223Y-17004059D01*
X17565477Y-17002911D01*
X17553634Y-17001182D01*
X17542055Y-16998925D01*
X17530420Y-16996076D01*
X17519098Y-16992724D01*
X17507789Y-16988782D01*
X17496852Y-16984377D01*
X17485967Y-16979378D01*
X17475485Y-16973945D01*
X17465124Y-16967933D01*
X17455206Y-16961529D01*
X17445468Y-16954562D01*
X17436217Y-16947254D01*
X17427177Y-16939387D01*
X17418648Y-16931219D01*
X17410409Y-16922540D01*
X17402703Y-16913608D01*
X17395314Y-16904170D01*
X17388494Y-16894548D01*
X17382041Y-16884460D01*
X17376158Y-16874220D01*
X17370694Y-16863564D01*
X17365815Y-16852817D01*
X17361389Y-16841690D01*
X17357557Y-16830540D01*
X17354206Y-16819037D01*
X17351446Y-16807553D01*
X17349205Y-16795785D01*
X17347553Y-16784116D01*
X17346440Y-16772196D01*
X17345903Y-16760389D01*
X17345930Y-16748404D01*
X17346516Y-16736638D01*
X17347679Y-16724722D01*
X17349386Y-16713030D01*
X17351678Y-16701278D01*
X17354482Y-16689828D01*
X17357882Y-16678339D01*
X17361767Y-16667192D01*
X17366241Y-16656086D01*
X17371170Y-16645355D01*
X17378049Y-16632084D01*
X17380886Y-16626916D01*
X21539597Y-9459771D01*
X21542679Y-9454738D01*
X21550781Y-9442191D01*
X21557650Y-9432590D01*
X21565076Y-9423190D01*
X21572820Y-9414292D01*
X21581099Y-9405647D01*
X21589657Y-9397523D01*
X21598725Y-9389700D01*
X21608012Y-9382429D01*
X21617792Y-9375496D01*
X21627732Y-9369138D01*
X21638111Y-9363175D01*
X21648626Y-9357783D01*
X21659541Y-9352828D01*
X21670499Y-9348469D01*
X21681810Y-9344582D01*
X21693136Y-9341283D01*
X21704792Y-9338482D01*
X21716377Y-9336275D01*
X21728239Y-9334595D01*
X21740001Y-9333498D01*
X21751956Y-9332955D01*
X21763746Y-9332980D01*
G37*
G36*
X-13642496Y22119156D02*
G01*
X-13630521Y22118560D01*
X-13618772Y22117412D01*
X-13606929Y22115683D01*
X-13595350Y22113426D01*
X-13583715Y22110577D01*
X-13572393Y22107225D01*
X-13561084Y22103283D01*
X-13550147Y22098878D01*
X-13539262Y22093879D01*
X-13528780Y22088446D01*
X-13518419Y22082434D01*
X-13508501Y22076030D01*
X-13498763Y22069063D01*
X-13489512Y22061755D01*
X-13480472Y22053888D01*
X-13471943Y22045720D01*
X-13463704Y22037041D01*
X-13455998Y22028109D01*
X-13448609Y22018671D01*
X-13441787Y22009047D01*
X-13433739Y21996465D01*
X-13430677Y21991416D01*
X-11368362Y18401417D01*
X-11365546Y18396234D01*
X-11358730Y18382943D01*
X-11353848Y18372190D01*
X-11349422Y18361063D01*
X-11345590Y18349913D01*
X-11342239Y18338410D01*
X-11339479Y18326926D01*
X-11337238Y18315158D01*
X-11335586Y18303489D01*
X-11334473Y18291569D01*
X-11333936Y18279762D01*
X-11333963Y18267777D01*
X-11334549Y18256011D01*
X-11335712Y18244095D01*
X-11337419Y18232403D01*
X-11339711Y18220651D01*
X-11342515Y18209201D01*
X-11345915Y18197712D01*
X-11349800Y18186565D01*
X-11354274Y18175459D01*
X-11359204Y18164726D01*
X-11364720Y18154085D01*
X-11370635Y18143892D01*
X-11377129Y18133834D01*
X-11384001Y18124227D01*
X-11391427Y18114827D01*
X-11399171Y18105929D01*
X-11407450Y18097284D01*
X-11416008Y18089160D01*
X-11425076Y18081337D01*
X-11434363Y18074066D01*
X-11444143Y18067133D01*
X-11454083Y18060775D01*
X-11464462Y18054812D01*
X-11474977Y18049420D01*
X-11485892Y18044465D01*
X-11496850Y18040106D01*
X-11508161Y18036219D01*
X-11519487Y18032920D01*
X-11531143Y18030119D01*
X-11542728Y18027912D01*
X-11554590Y18026232D01*
X-11566350Y18025135D01*
X-11581251Y18024458D01*
X-11587148Y18024330D01*
X-15727358Y18033312D01*
X-15733256Y18033465D01*
X-15748178Y18034208D01*
X-15759924Y18035356D01*
X-15771767Y18037085D01*
X-15783346Y18039342D01*
X-15794981Y18042191D01*
X-15806303Y18045543D01*
X-15817612Y18049485D01*
X-15828549Y18053890D01*
X-15839434Y18058889D01*
X-15849916Y18064322D01*
X-15860277Y18070334D01*
X-15870195Y18076738D01*
X-15879933Y18083705D01*
X-15889184Y18091013D01*
X-15898224Y18098880D01*
X-15906753Y18107048D01*
X-15914992Y18115727D01*
X-15922698Y18124659D01*
X-15930087Y18134097D01*
X-15936907Y18143719D01*
X-15943360Y18153807D01*
X-15949243Y18164047D01*
X-15954707Y18174703D01*
X-15959586Y18185450D01*
X-15964012Y18196577D01*
X-15967844Y18207727D01*
X-15971195Y18219230D01*
X-15973955Y18230714D01*
X-15976196Y18242482D01*
X-15977848Y18254151D01*
X-15978961Y18266071D01*
X-15979498Y18277878D01*
X-15979471Y18289863D01*
X-15978885Y18301629D01*
X-15977722Y18313545D01*
X-15976015Y18325237D01*
X-15973723Y18336989D01*
X-15970919Y18348439D01*
X-15967519Y18359928D01*
X-15963634Y18371075D01*
X-15959160Y18382181D01*
X-15954231Y18392912D01*
X-15947352Y18406183D01*
X-15944515Y18411351D01*
X-13866645Y21992365D01*
X-13863563Y21997398D01*
X-13855461Y22009945D01*
X-13848592Y22019546D01*
X-13841166Y22028946D01*
X-13833422Y22037844D01*
X-13825143Y22046489D01*
X-13816585Y22054613D01*
X-13807517Y22062436D01*
X-13798230Y22069707D01*
X-13788450Y22076640D01*
X-13778510Y22082998D01*
X-13768131Y22088961D01*
X-13757616Y22094353D01*
X-13746701Y22099308D01*
X-13735743Y22103667D01*
X-13724432Y22107554D01*
X-13713106Y22110853D01*
X-13701450Y22113654D01*
X-13689865Y22115861D01*
X-13678003Y22117541D01*
X-13666241Y22118638D01*
X-13654286Y22119181D01*
X-13642496Y22119156D01*
G37*
G36*
X30571169Y-1595166D02*
G01*
X30583144Y-1595762D01*
X30594893Y-1596910D01*
X30606736Y-1598639D01*
X30618315Y-1600896D01*
X30629950Y-1603745D01*
X30641272Y-1607097D01*
X30652581Y-1611039D01*
X30663518Y-1615444D01*
X30674403Y-1620443D01*
X30684885Y-1625876D01*
X30695246Y-1631888D01*
X30705164Y-1638292D01*
X30714902Y-1645259D01*
X30724153Y-1652567D01*
X30733193Y-1660434D01*
X30741722Y-1668602D01*
X30749961Y-1677281D01*
X30757667Y-1686213D01*
X30765056Y-1695651D01*
X30771878Y-1705275D01*
X30779926Y-1717857D01*
X30782988Y-1722906D01*
X32845303Y-5312905D01*
X32848119Y-5318088D01*
X32854935Y-5331379D01*
X32859817Y-5342132D01*
X32864243Y-5353259D01*
X32868075Y-5364409D01*
X32871426Y-5375912D01*
X32874186Y-5387396D01*
X32876427Y-5399164D01*
X32878079Y-5410833D01*
X32879192Y-5422753D01*
X32879729Y-5434560D01*
X32879702Y-5446545D01*
X32879116Y-5458311D01*
X32877953Y-5470227D01*
X32876246Y-5481919D01*
X32873954Y-5493671D01*
X32871150Y-5505121D01*
X32867750Y-5516610D01*
X32863865Y-5527757D01*
X32859391Y-5538863D01*
X32854461Y-5549596D01*
X32848945Y-5560237D01*
X32843030Y-5570430D01*
X32836536Y-5580488D01*
X32829664Y-5590095D01*
X32822238Y-5599495D01*
X32814494Y-5608393D01*
X32806215Y-5617038D01*
X32797657Y-5625162D01*
X32788589Y-5632985D01*
X32779302Y-5640256D01*
X32769522Y-5647189D01*
X32759582Y-5653547D01*
X32749203Y-5659510D01*
X32738688Y-5664902D01*
X32727773Y-5669857D01*
X32716815Y-5674216D01*
X32705504Y-5678103D01*
X32694178Y-5681402D01*
X32682522Y-5684203D01*
X32670937Y-5686410D01*
X32659075Y-5688090D01*
X32647315Y-5689187D01*
X32632414Y-5689864D01*
X32626517Y-5689992D01*
X28486307Y-5681010D01*
X28480409Y-5680857D01*
X28465487Y-5680114D01*
X28453741Y-5678966D01*
X28441898Y-5677237D01*
X28430319Y-5674980D01*
X28418684Y-5672131D01*
X28407362Y-5668779D01*
X28396053Y-5664837D01*
X28385116Y-5660432D01*
X28374231Y-5655433D01*
X28363749Y-5650000D01*
X28353388Y-5643988D01*
X28343470Y-5637584D01*
X28333732Y-5630617D01*
X28324481Y-5623309D01*
X28315441Y-5615442D01*
X28306912Y-5607274D01*
X28298673Y-5598595D01*
X28290967Y-5589663D01*
X28283578Y-5580225D01*
X28276758Y-5570603D01*
X28270305Y-5560515D01*
X28264422Y-5550275D01*
X28258958Y-5539619D01*
X28254079Y-5528872D01*
X28249653Y-5517745D01*
X28245821Y-5506595D01*
X28242470Y-5495092D01*
X28239710Y-5483608D01*
X28237469Y-5471840D01*
X28235817Y-5460171D01*
X28234704Y-5448251D01*
X28234167Y-5436444D01*
X28234194Y-5424459D01*
X28234780Y-5412693D01*
X28235943Y-5400777D01*
X28237650Y-5389085D01*
X28239942Y-5377333D01*
X28242746Y-5365883D01*
X28246146Y-5354394D01*
X28250031Y-5343247D01*
X28254505Y-5332141D01*
X28259434Y-5321410D01*
X28266313Y-5308139D01*
X28269150Y-5302971D01*
X30347020Y-1721957D01*
X30350102Y-1716924D01*
X30358204Y-1704377D01*
X30365073Y-1694776D01*
X30372499Y-1685376D01*
X30380243Y-1676478D01*
X30388522Y-1667833D01*
X30397080Y-1659709D01*
X30406148Y-1651886D01*
X30415435Y-1644615D01*
X30425215Y-1637682D01*
X30435155Y-1631324D01*
X30445534Y-1625361D01*
X30456049Y-1619969D01*
X30466964Y-1615014D01*
X30477922Y-1610655D01*
X30489233Y-1606768D01*
X30500559Y-1603469D01*
X30512215Y-1600668D01*
X30523800Y-1598461D01*
X30535662Y-1596781D01*
X30547424Y-1595684D01*
X30559379Y-1595141D01*
X30571169Y-1595166D01*
G37*
G36*
X-5124093Y-8360040D02*
G01*
X-5112118Y-8360636D01*
X-5100369Y-8361784D01*
X-5088526Y-8363513D01*
X-5076947Y-8365770D01*
X-5065312Y-8368619D01*
X-5053990Y-8371971D01*
X-5042681Y-8375913D01*
X-5031744Y-8380318D01*
X-5020859Y-8385317D01*
X-5010377Y-8390750D01*
X-5000016Y-8396762D01*
X-4990098Y-8403166D01*
X-4980360Y-8410133D01*
X-4971109Y-8417441D01*
X-4962069Y-8425308D01*
X-4953540Y-8433476D01*
X-4945301Y-8442155D01*
X-4937595Y-8451087D01*
X-4930206Y-8460525D01*
X-4923384Y-8470149D01*
X-4915336Y-8482731D01*
X-4912274Y-8487780D01*
X-784697Y-15672905D01*
X-781881Y-15678088D01*
X-775065Y-15691379D01*
X-770183Y-15702132D01*
X-765757Y-15713259D01*
X-761925Y-15724409D01*
X-758574Y-15735912D01*
X-755814Y-15747396D01*
X-753573Y-15759164D01*
X-751921Y-15770833D01*
X-750808Y-15782753D01*
X-750271Y-15794560D01*
X-750298Y-15806545D01*
X-750884Y-15818311D01*
X-752047Y-15830227D01*
X-753754Y-15841919D01*
X-756046Y-15853671D01*
X-758850Y-15865121D01*
X-762250Y-15876610D01*
X-766135Y-15887757D01*
X-770609Y-15898863D01*
X-775539Y-15909596D01*
X-781055Y-15920237D01*
X-786970Y-15930430D01*
X-793464Y-15940488D01*
X-800336Y-15950095D01*
X-807762Y-15959495D01*
X-815506Y-15968393D01*
X-823785Y-15977038D01*
X-832343Y-15985162D01*
X-841411Y-15992985D01*
X-850698Y-16000256D01*
X-860478Y-16007189D01*
X-870418Y-16013547D01*
X-880797Y-16019510D01*
X-891312Y-16024902D01*
X-902227Y-16029857D01*
X-913185Y-16034216D01*
X-924496Y-16038103D01*
X-935822Y-16041402D01*
X-947478Y-16044203D01*
X-959063Y-16046410D01*
X-970925Y-16048090D01*
X-982685Y-16049187D01*
X-997586Y-16049864D01*
X-1003483Y-16049992D01*
X-9289796Y-16032015D01*
X-9295694Y-16031862D01*
X-9310616Y-16031119D01*
X-9322362Y-16029971D01*
X-9334205Y-16028242D01*
X-9345784Y-16025985D01*
X-9357419Y-16023136D01*
X-9368741Y-16019784D01*
X-9380050Y-16015842D01*
X-9390987Y-16011437D01*
X-9401872Y-16006438D01*
X-9412354Y-16001005D01*
X-9422715Y-15994993D01*
X-9432633Y-15988589D01*
X-9442371Y-15981622D01*
X-9451622Y-15974314D01*
X-9460662Y-15966447D01*
X-9469191Y-15958279D01*
X-9477430Y-15949600D01*
X-9485136Y-15940668D01*
X-9492525Y-15931230D01*
X-9499345Y-15921608D01*
X-9505798Y-15911520D01*
X-9511681Y-15901280D01*
X-9517145Y-15890624D01*
X-9522024Y-15879877D01*
X-9526450Y-15868750D01*
X-9530282Y-15857600D01*
X-9533633Y-15846097D01*
X-9536393Y-15834613D01*
X-9538634Y-15822845D01*
X-9540286Y-15811176D01*
X-9541399Y-15799256D01*
X-9541936Y-15787449D01*
X-9541909Y-15775464D01*
X-9541323Y-15763698D01*
X-9540160Y-15751782D01*
X-9538453Y-15740090D01*
X-9536161Y-15728338D01*
X-9533357Y-15716888D01*
X-9529957Y-15705399D01*
X-9526072Y-15694252D01*
X-9521598Y-15683146D01*
X-9516669Y-15672415D01*
X-9509790Y-15659144D01*
X-9506953Y-15653976D01*
X-5348242Y-8486831D01*
X-5345160Y-8481798D01*
X-5337058Y-8469251D01*
X-5330189Y-8459650D01*
X-5322763Y-8450250D01*
X-5315019Y-8441352D01*
X-5306740Y-8432707D01*
X-5298182Y-8424583D01*
X-5289114Y-8416760D01*
X-5279827Y-8409489D01*
X-5270047Y-8402556D01*
X-5260107Y-8396198D01*
X-5249728Y-8390235D01*
X-5239213Y-8384843D01*
X-5228298Y-8379888D01*
X-5217340Y-8375529D01*
X-5206029Y-8371642D01*
X-5194703Y-8368343D01*
X-5183047Y-8365542D01*
X-5171462Y-8363335D01*
X-5159600Y-8361655D01*
X-5147838Y-8360558D01*
X-5135883Y-8360015D01*
X-5124093Y-8360040D01*
G37*
G36*
X-10536728Y-29514161D02*
G01*
X-10524753Y-29514757D01*
X-10513004Y-29515905D01*
X-10501161Y-29517634D01*
X-10489582Y-29519891D01*
X-10477947Y-29522740D01*
X-10466625Y-29526092D01*
X-10455316Y-29530034D01*
X-10444379Y-29534439D01*
X-10433494Y-29539438D01*
X-10423012Y-29544871D01*
X-10412651Y-29550883D01*
X-10402733Y-29557287D01*
X-10392995Y-29564254D01*
X-10383744Y-29571562D01*
X-10374704Y-29579429D01*
X-10366175Y-29587597D01*
X-10357936Y-29596276D01*
X-10350230Y-29605208D01*
X-10342841Y-29614646D01*
X-10336019Y-29624270D01*
X-10327971Y-29636852D01*
X-10324909Y-29641901D01*
X-8864089Y-32184841D01*
X-8847751Y-32240690D01*
X-8858689Y-32297841D01*
X-8894493Y-32343711D01*
X-8947279Y-32368198D01*
X-9005423Y-32365909D01*
X-9716804Y-32164284D01*
X-9720902Y-32163046D01*
X-10821217Y-31809728D01*
X-10825269Y-31808349D01*
X-11672583Y-31503627D01*
X-11718096Y-31474829D01*
X-11747107Y-31429451D01*
X-11754141Y-31376053D01*
X-11737872Y-31324710D01*
X-10760877Y-29640952D01*
X-10757795Y-29635919D01*
X-10749693Y-29623372D01*
X-10742824Y-29613771D01*
X-10735398Y-29604371D01*
X-10727654Y-29595473D01*
X-10719375Y-29586828D01*
X-10710817Y-29578704D01*
X-10701749Y-29570881D01*
X-10692462Y-29563610D01*
X-10682682Y-29556677D01*
X-10672742Y-29550319D01*
X-10662363Y-29544356D01*
X-10651848Y-29538964D01*
X-10640933Y-29534009D01*
X-10629975Y-29529650D01*
X-10618664Y-29525763D01*
X-10607338Y-29522464D01*
X-10595682Y-29519663D01*
X-10584097Y-29517456D01*
X-10572235Y-29515776D01*
X-10560473Y-29514679D01*
X-10548518Y-29514136D01*
X-10536728Y-29514161D01*
G37*
G36*
X13347152Y-26039959D02*
G01*
X13359127Y-26040555D01*
X13370876Y-26041703D01*
X13382719Y-26043432D01*
X13394298Y-26045689D01*
X13405933Y-26048538D01*
X13417255Y-26051890D01*
X13428564Y-26055832D01*
X13439501Y-26060237D01*
X13450386Y-26065236D01*
X13460868Y-26070669D01*
X13471229Y-26076681D01*
X13481147Y-26083085D01*
X13490885Y-26090052D01*
X13500136Y-26097360D01*
X13509176Y-26105227D01*
X13517705Y-26113395D01*
X13525944Y-26122074D01*
X13533650Y-26131006D01*
X13541039Y-26140444D01*
X13547861Y-26150068D01*
X13555909Y-26162650D01*
X13558971Y-26167699D01*
X15550283Y-29634099D01*
X15566748Y-29697710D01*
X15548399Y-29760803D01*
X15500388Y-29805663D01*
X15100727Y-30015421D01*
X15096903Y-30017344D01*
X14055731Y-30518746D01*
X14051842Y-30520537D01*
X12993964Y-30985713D01*
X12990017Y-30987368D01*
X11916708Y-31415753D01*
X11912705Y-31417271D01*
X10825268Y-31808349D01*
X10821216Y-31809728D01*
X9932963Y-32094952D01*
X9873982Y-32099086D01*
X9819792Y-32075438D01*
X9782712Y-32029384D01*
X9771174Y-31971396D01*
X9787800Y-31914656D01*
X13123003Y-26166750D01*
X13126085Y-26161717D01*
X13134187Y-26149170D01*
X13141056Y-26139569D01*
X13148482Y-26130169D01*
X13156226Y-26121271D01*
X13164505Y-26112626D01*
X13173063Y-26104502D01*
X13182131Y-26096679D01*
X13191418Y-26089408D01*
X13201198Y-26082475D01*
X13211138Y-26076117D01*
X13221517Y-26070154D01*
X13232032Y-26064762D01*
X13242947Y-26059807D01*
X13253905Y-26055448D01*
X13265216Y-26051561D01*
X13276542Y-26048262D01*
X13288198Y-26045461D01*
X13299783Y-26043254D01*
X13311645Y-26041574D01*
X13323407Y-26040477D01*
X13335362Y-26039934D01*
X13347152Y-26039959D01*
G37*
G36*
X20568113Y16421970D02*
G01*
X20580088Y16421374D01*
X20591837Y16420226D01*
X20603680Y16418497D01*
X20615259Y16416240D01*
X20626894Y16413391D01*
X20638216Y16410039D01*
X20649525Y16406097D01*
X20660462Y16401692D01*
X20671347Y16396693D01*
X20681829Y16391260D01*
X20692190Y16385248D01*
X20702108Y16378844D01*
X20711846Y16371877D01*
X20721097Y16364569D01*
X20730137Y16356702D01*
X20738666Y16348534D01*
X20746905Y16339855D01*
X20754611Y16330923D01*
X20762000Y16321485D01*
X20768822Y16311861D01*
X20776870Y16299279D01*
X20779932Y16294230D01*
X24907509Y9109105D01*
X24910325Y9103922D01*
X24917141Y9090631D01*
X24922023Y9079878D01*
X24926449Y9068751D01*
X24930281Y9057601D01*
X24933632Y9046098D01*
X24936392Y9034614D01*
X24938633Y9022846D01*
X24940285Y9011177D01*
X24941398Y8999257D01*
X24941935Y8987450D01*
X24941908Y8975465D01*
X24941322Y8963699D01*
X24940159Y8951783D01*
X24938452Y8940091D01*
X24936160Y8928339D01*
X24933356Y8916889D01*
X24929956Y8905400D01*
X24926071Y8894253D01*
X24921597Y8883147D01*
X24916667Y8872414D01*
X24911151Y8861773D01*
X24905236Y8851580D01*
X24898742Y8841522D01*
X24891870Y8831915D01*
X24884444Y8822515D01*
X24876700Y8813617D01*
X24868421Y8804972D01*
X24859863Y8796848D01*
X24850795Y8789025D01*
X24841508Y8781754D01*
X24831728Y8774821D01*
X24821788Y8768463D01*
X24811409Y8762500D01*
X24800894Y8757108D01*
X24789979Y8752153D01*
X24779021Y8747794D01*
X24767710Y8743907D01*
X24756384Y8740608D01*
X24744728Y8737807D01*
X24733143Y8735600D01*
X24721281Y8733920D01*
X24709521Y8732823D01*
X24694620Y8732146D01*
X24688723Y8732018D01*
X16402410Y8749995D01*
X16396512Y8750148D01*
X16381590Y8750891D01*
X16369844Y8752039D01*
X16358001Y8753768D01*
X16346422Y8756025D01*
X16334787Y8758874D01*
X16323465Y8762226D01*
X16312156Y8766168D01*
X16301219Y8770573D01*
X16290334Y8775572D01*
X16279852Y8781005D01*
X16269491Y8787017D01*
X16259573Y8793421D01*
X16249835Y8800388D01*
X16240584Y8807696D01*
X16231544Y8815563D01*
X16223015Y8823731D01*
X16214776Y8832410D01*
X16207070Y8841342D01*
X16199681Y8850780D01*
X16192861Y8860402D01*
X16186408Y8870490D01*
X16180525Y8880730D01*
X16175061Y8891386D01*
X16170182Y8902133D01*
X16165756Y8913260D01*
X16161924Y8924410D01*
X16158573Y8935913D01*
X16155813Y8947397D01*
X16153572Y8959165D01*
X16151920Y8970834D01*
X16150807Y8982754D01*
X16150270Y8994561D01*
X16150297Y9006546D01*
X16150883Y9018312D01*
X16152046Y9030228D01*
X16153753Y9041920D01*
X16156045Y9053672D01*
X16158849Y9065122D01*
X16162249Y9076611D01*
X16166134Y9087758D01*
X16170608Y9098864D01*
X16175537Y9109595D01*
X16182416Y9122866D01*
X16185253Y9128034D01*
X20343964Y16295179D01*
X20347046Y16300212D01*
X20355148Y16312759D01*
X20362017Y16322360D01*
X20369443Y16331760D01*
X20377187Y16340658D01*
X20385466Y16349303D01*
X20394024Y16357427D01*
X20403092Y16365250D01*
X20412379Y16372521D01*
X20422159Y16379454D01*
X20432099Y16385812D01*
X20442478Y16391775D01*
X20452993Y16397167D01*
X20463908Y16402122D01*
X20474866Y16406481D01*
X20486177Y16410368D01*
X20497503Y16413667D01*
X20509159Y16416468D01*
X20520744Y16418675D01*
X20532606Y16420355D01*
X20544368Y16421452D01*
X20556323Y16421995D01*
X20568113Y16421970D01*
G37*
G36*
X-14823377Y-16069841D02*
G01*
X-14811402Y-16070437D01*
X-14799653Y-16071585D01*
X-14787810Y-16073314D01*
X-14776231Y-16075571D01*
X-14764596Y-16078420D01*
X-14753274Y-16081772D01*
X-14741965Y-16085714D01*
X-14731028Y-16090119D01*
X-14720143Y-16095118D01*
X-14709661Y-16100551D01*
X-14699300Y-16106563D01*
X-14689382Y-16112967D01*
X-14679644Y-16119934D01*
X-14670393Y-16127242D01*
X-14661353Y-16135109D01*
X-14652824Y-16143277D01*
X-14644585Y-16151956D01*
X-14636879Y-16160888D01*
X-14629490Y-16170326D01*
X-14622668Y-16179950D01*
X-14614620Y-16192532D01*
X-14611558Y-16197581D01*
X-10483981Y-23382706D01*
X-10481165Y-23387889D01*
X-10474349Y-23401180D01*
X-10469467Y-23411933D01*
X-10465041Y-23423060D01*
X-10461209Y-23434210D01*
X-10457858Y-23445713D01*
X-10455098Y-23457197D01*
X-10452857Y-23468965D01*
X-10451205Y-23480634D01*
X-10450092Y-23492554D01*
X-10449555Y-23504361D01*
X-10449582Y-23516346D01*
X-10450168Y-23528112D01*
X-10451331Y-23540028D01*
X-10453038Y-23551720D01*
X-10455330Y-23563472D01*
X-10458134Y-23574922D01*
X-10461534Y-23586411D01*
X-10465419Y-23597558D01*
X-10469893Y-23608664D01*
X-10474823Y-23619397D01*
X-10480339Y-23630038D01*
X-10486254Y-23640231D01*
X-10492748Y-23650289D01*
X-10499620Y-23659896D01*
X-10507046Y-23669296D01*
X-10514790Y-23678194D01*
X-10523069Y-23686839D01*
X-10531627Y-23694963D01*
X-10540695Y-23702786D01*
X-10549982Y-23710057D01*
X-10559762Y-23716990D01*
X-10569702Y-23723348D01*
X-10580081Y-23729311D01*
X-10590596Y-23734703D01*
X-10601511Y-23739658D01*
X-10612469Y-23744017D01*
X-10623780Y-23747904D01*
X-10635106Y-23751203D01*
X-10646762Y-23754004D01*
X-10658347Y-23756211D01*
X-10670209Y-23757891D01*
X-10681969Y-23758988D01*
X-10696870Y-23759665D01*
X-10702767Y-23759793D01*
X-18989080Y-23741816D01*
X-18994978Y-23741663D01*
X-19009900Y-23740920D01*
X-19021646Y-23739772D01*
X-19033489Y-23738043D01*
X-19045068Y-23735786D01*
X-19056703Y-23732937D01*
X-19068025Y-23729585D01*
X-19079334Y-23725643D01*
X-19090271Y-23721238D01*
X-19101156Y-23716239D01*
X-19111638Y-23710806D01*
X-19121999Y-23704794D01*
X-19131917Y-23698390D01*
X-19141655Y-23691423D01*
X-19150906Y-23684115D01*
X-19159946Y-23676248D01*
X-19168475Y-23668080D01*
X-19176714Y-23659401D01*
X-19184420Y-23650469D01*
X-19191809Y-23641031D01*
X-19198629Y-23631409D01*
X-19205082Y-23621321D01*
X-19210965Y-23611081D01*
X-19216429Y-23600425D01*
X-19221308Y-23589678D01*
X-19225734Y-23578551D01*
X-19229566Y-23567401D01*
X-19232917Y-23555898D01*
X-19235677Y-23544414D01*
X-19237918Y-23532646D01*
X-19239570Y-23520977D01*
X-19240683Y-23509057D01*
X-19241220Y-23497250D01*
X-19241193Y-23485265D01*
X-19240607Y-23473499D01*
X-19239444Y-23461583D01*
X-19237737Y-23449891D01*
X-19235445Y-23438139D01*
X-19232641Y-23426689D01*
X-19229241Y-23415200D01*
X-19225356Y-23404053D01*
X-19220882Y-23392947D01*
X-19215953Y-23382216D01*
X-19209074Y-23368945D01*
X-19206237Y-23363777D01*
X-15047526Y-16196632D01*
X-15044444Y-16191599D01*
X-15036342Y-16179052D01*
X-15029473Y-16169451D01*
X-15022047Y-16160051D01*
X-15014303Y-16151153D01*
X-15006024Y-16142508D01*
X-14997466Y-16134384D01*
X-14988398Y-16126561D01*
X-14979111Y-16119290D01*
X-14969331Y-16112357D01*
X-14959391Y-16105999D01*
X-14949012Y-16100036D01*
X-14938497Y-16094644D01*
X-14927582Y-16089689D01*
X-14916624Y-16085330D01*
X-14905313Y-16081443D01*
X-14893987Y-16078144D01*
X-14882331Y-16075343D01*
X-14870746Y-16073136D01*
X-14858884Y-16071456D01*
X-14847122Y-16070359D01*
X-14835167Y-16069816D01*
X-14823377Y-16069841D01*
G37*
G36*
X-7208147Y-18017487D02*
G01*
X-7196172Y-18018083D01*
X-7184423Y-18019231D01*
X-7172580Y-18020960D01*
X-7161001Y-18023217D01*
X-7149366Y-18026066D01*
X-7138044Y-18029418D01*
X-7126735Y-18033360D01*
X-7115798Y-18037765D01*
X-7104913Y-18042764D01*
X-7094431Y-18048197D01*
X-7084070Y-18054209D01*
X-7074152Y-18060613D01*
X-7064414Y-18067580D01*
X-7055163Y-18074888D01*
X-7046123Y-18082755D01*
X-7037594Y-18090923D01*
X-7029355Y-18099602D01*
X-7021649Y-18108534D01*
X-7014260Y-18117972D01*
X-7007438Y-18127596D01*
X-6999390Y-18140178D01*
X-6996328Y-18145227D01*
X-4934013Y-21735226D01*
X-4931197Y-21740409D01*
X-4924381Y-21753700D01*
X-4919499Y-21764453D01*
X-4915073Y-21775580D01*
X-4911241Y-21786730D01*
X-4907890Y-21798233D01*
X-4905130Y-21809717D01*
X-4902889Y-21821485D01*
X-4901237Y-21833154D01*
X-4900124Y-21845074D01*
X-4899587Y-21856881D01*
X-4899614Y-21868866D01*
X-4900200Y-21880632D01*
X-4901363Y-21892548D01*
X-4903070Y-21904240D01*
X-4905362Y-21915992D01*
X-4908166Y-21927442D01*
X-4911566Y-21938931D01*
X-4915451Y-21950078D01*
X-4919925Y-21961184D01*
X-4924855Y-21971917D01*
X-4930371Y-21982558D01*
X-4936286Y-21992751D01*
X-4942780Y-22002809D01*
X-4949652Y-22012416D01*
X-4957078Y-22021816D01*
X-4964822Y-22030714D01*
X-4973101Y-22039359D01*
X-4981659Y-22047483D01*
X-4990727Y-22055306D01*
X-5000014Y-22062577D01*
X-5009794Y-22069510D01*
X-5019734Y-22075868D01*
X-5030113Y-22081831D01*
X-5040628Y-22087223D01*
X-5051543Y-22092178D01*
X-5062501Y-22096537D01*
X-5073812Y-22100424D01*
X-5085138Y-22103723D01*
X-5096794Y-22106524D01*
X-5108379Y-22108731D01*
X-5120241Y-22110411D01*
X-5132001Y-22111508D01*
X-5146902Y-22112185D01*
X-5152799Y-22112313D01*
X-9293009Y-22103331D01*
X-9298907Y-22103178D01*
X-9313829Y-22102435D01*
X-9325575Y-22101287D01*
X-9337418Y-22099558D01*
X-9348997Y-22097301D01*
X-9360632Y-22094452D01*
X-9371954Y-22091100D01*
X-9383263Y-22087158D01*
X-9394200Y-22082753D01*
X-9405085Y-22077754D01*
X-9415567Y-22072321D01*
X-9425928Y-22066309D01*
X-9435846Y-22059905D01*
X-9445584Y-22052938D01*
X-9454835Y-22045630D01*
X-9463875Y-22037763D01*
X-9472404Y-22029595D01*
X-9480643Y-22020916D01*
X-9488349Y-22011984D01*
X-9495738Y-22002546D01*
X-9502558Y-21992924D01*
X-9509011Y-21982836D01*
X-9514894Y-21972596D01*
X-9520358Y-21961940D01*
X-9525237Y-21951193D01*
X-9529663Y-21940066D01*
X-9533495Y-21928916D01*
X-9536846Y-21917413D01*
X-9539606Y-21905929D01*
X-9541847Y-21894161D01*
X-9543499Y-21882492D01*
X-9544612Y-21870572D01*
X-9545149Y-21858765D01*
X-9545122Y-21846780D01*
X-9544536Y-21835014D01*
X-9543373Y-21823098D01*
X-9541666Y-21811406D01*
X-9539374Y-21799654D01*
X-9536570Y-21788204D01*
X-9533170Y-21776715D01*
X-9529285Y-21765568D01*
X-9524811Y-21754462D01*
X-9519882Y-21743731D01*
X-9513003Y-21730460D01*
X-9510166Y-21725292D01*
X-7432296Y-18144278D01*
X-7429214Y-18139245D01*
X-7421112Y-18126698D01*
X-7414243Y-18117097D01*
X-7406817Y-18107697D01*
X-7399073Y-18098799D01*
X-7390794Y-18090154D01*
X-7382236Y-18082030D01*
X-7373168Y-18074207D01*
X-7363881Y-18066936D01*
X-7354101Y-18060003D01*
X-7344161Y-18053645D01*
X-7333782Y-18047682D01*
X-7323267Y-18042290D01*
X-7312352Y-18037335D01*
X-7301394Y-18032976D01*
X-7290083Y-18029089D01*
X-7278757Y-18025790D01*
X-7267101Y-18022989D01*
X-7255516Y-18020782D01*
X-7243654Y-18019102D01*
X-7231892Y-18018005D01*
X-7219937Y-18017462D01*
X-7208147Y-18017487D01*
G37*
G36*
X-6997562Y32847320D02*
G01*
X-6950510Y32826245D01*
X-6916096Y32787855D01*
X-5468594Y30268100D01*
X-5465778Y30262917D01*
X-5458962Y30249626D01*
X-5454080Y30238873D01*
X-5449654Y30227746D01*
X-5445822Y30216596D01*
X-5442471Y30205093D01*
X-5439711Y30193609D01*
X-5437470Y30181841D01*
X-5435818Y30170172D01*
X-5434705Y30158252D01*
X-5434168Y30146445D01*
X-5434195Y30134460D01*
X-5434781Y30122694D01*
X-5435944Y30110778D01*
X-5437651Y30099086D01*
X-5439943Y30087334D01*
X-5442747Y30075884D01*
X-5446147Y30064395D01*
X-5450032Y30053248D01*
X-5454506Y30042142D01*
X-5459436Y30031409D01*
X-5464952Y30020768D01*
X-5470867Y30010575D01*
X-5477361Y30000517D01*
X-5484233Y29990910D01*
X-5491659Y29981510D01*
X-5499403Y29972612D01*
X-5507682Y29963967D01*
X-5516240Y29955843D01*
X-5525308Y29948020D01*
X-5534595Y29940749D01*
X-5544375Y29933816D01*
X-5554315Y29927458D01*
X-5564694Y29921495D01*
X-5575209Y29916103D01*
X-5586124Y29911148D01*
X-5597082Y29906789D01*
X-5608393Y29902902D01*
X-5619719Y29899603D01*
X-5631375Y29896802D01*
X-5642960Y29894595D01*
X-5654822Y29892915D01*
X-5666582Y29891818D01*
X-5681483Y29891141D01*
X-5687380Y29891013D01*
X-9827590Y29899995D01*
X-9833488Y29900148D01*
X-9848410Y29900891D01*
X-9860156Y29902039D01*
X-9871999Y29903768D01*
X-9883578Y29906025D01*
X-9895213Y29908874D01*
X-9906535Y29912226D01*
X-9917844Y29916168D01*
X-9928781Y29920573D01*
X-9939666Y29925572D01*
X-9950148Y29931005D01*
X-9960509Y29937017D01*
X-9970427Y29943421D01*
X-9980165Y29950388D01*
X-9989416Y29957696D01*
X-9998456Y29965563D01*
X-10006985Y29973731D01*
X-10015224Y29982410D01*
X-10022930Y29991342D01*
X-10030319Y30000780D01*
X-10037139Y30010402D01*
X-10043592Y30020490D01*
X-10049475Y30030730D01*
X-10054939Y30041386D01*
X-10059818Y30052133D01*
X-10064244Y30063260D01*
X-10068076Y30074410D01*
X-10071427Y30085913D01*
X-10074187Y30097397D01*
X-10076428Y30109165D01*
X-10078080Y30120834D01*
X-10079193Y30132754D01*
X-10079730Y30144561D01*
X-10079703Y30156546D01*
X-10079117Y30168312D01*
X-10077954Y30180228D01*
X-10076247Y30191920D01*
X-10073955Y30203672D01*
X-10071151Y30215122D01*
X-10067751Y30226611D01*
X-10063866Y30237758D01*
X-10059392Y30248864D01*
X-10054463Y30259595D01*
X-10047584Y30272866D01*
X-10044747Y30278034D01*
X-8824556Y32380920D01*
X-8793390Y32416600D01*
X-8751117Y32437988D01*
X-8604973Y32479409D01*
X-8600835Y32480505D01*
X-7478769Y32757069D01*
X-7474596Y32758021D01*
X-7049119Y32847437D01*
X-6997562Y32847320D01*
G37*
G36*
X32075907Y9239960D02*
G01*
X32087882Y9239364D01*
X32099631Y9238216D01*
X32111474Y9236487D01*
X32123053Y9234230D01*
X32134688Y9231381D01*
X32146010Y9228029D01*
X32157319Y9224087D01*
X32168256Y9219682D01*
X32179141Y9214683D01*
X32189623Y9209250D01*
X32199984Y9203238D01*
X32209902Y9196834D01*
X32219640Y9189867D01*
X32228891Y9182559D01*
X32237931Y9174692D01*
X32246460Y9166524D01*
X32254699Y9157845D01*
X32262405Y9148913D01*
X32269794Y9139475D01*
X32276616Y9129851D01*
X32284664Y9117269D01*
X32287726Y9112220D01*
X32376407Y8957847D01*
X32388753Y8927829D01*
X32623099Y8043066D01*
X32624123Y8038910D01*
X32881276Y6912246D01*
X32882156Y6908057D01*
X33100261Y5773229D01*
X33100997Y5769011D01*
X33279812Y4627269D01*
X33280401Y4623029D01*
X33419698Y3475808D01*
X33420140Y3471551D01*
X33519753Y2320254D01*
X33520049Y2315983D01*
X33552679Y1686431D01*
X33538266Y1621677D01*
X33492536Y1573620D01*
X33428576Y1556013D01*
X27910204Y1567985D01*
X27904306Y1568138D01*
X27889384Y1568881D01*
X27877638Y1570029D01*
X27865795Y1571758D01*
X27854216Y1574015D01*
X27842581Y1576864D01*
X27831259Y1580216D01*
X27819950Y1584158D01*
X27809013Y1588563D01*
X27798128Y1593562D01*
X27787646Y1598995D01*
X27777285Y1605007D01*
X27767367Y1611411D01*
X27757629Y1618378D01*
X27748378Y1625686D01*
X27739338Y1633553D01*
X27730809Y1641721D01*
X27722570Y1650400D01*
X27714864Y1659332D01*
X27707475Y1668770D01*
X27700655Y1678392D01*
X27694202Y1688480D01*
X27688319Y1698720D01*
X27682855Y1709376D01*
X27677976Y1720123D01*
X27673550Y1731250D01*
X27669718Y1742400D01*
X27666367Y1753903D01*
X27663607Y1765387D01*
X27661366Y1777155D01*
X27659714Y1788824D01*
X27658601Y1800744D01*
X27658064Y1812551D01*
X27658091Y1824536D01*
X27658677Y1836302D01*
X27659840Y1848218D01*
X27661547Y1859910D01*
X27663839Y1871662D01*
X27666643Y1883112D01*
X27670043Y1894601D01*
X27673928Y1905748D01*
X27678402Y1916854D01*
X27683331Y1927585D01*
X27690210Y1940856D01*
X27693047Y1946024D01*
X31851758Y9113169D01*
X31854840Y9118202D01*
X31862942Y9130749D01*
X31869811Y9140350D01*
X31877237Y9149750D01*
X31884981Y9158648D01*
X31893260Y9167293D01*
X31901818Y9175417D01*
X31910886Y9183240D01*
X31920173Y9190511D01*
X31929953Y9197444D01*
X31939893Y9203802D01*
X31950272Y9209765D01*
X31960787Y9215157D01*
X31971702Y9220112D01*
X31982660Y9224471D01*
X31993971Y9228358D01*
X32005297Y9231657D01*
X32016953Y9234458D01*
X32028538Y9236665D01*
X32040400Y9238345D01*
X32052162Y9239442D01*
X32064117Y9239985D01*
X32075907Y9239960D01*
G37*
G36*
X20961169Y-19145166D02*
G01*
X20973144Y-19145762D01*
X20984893Y-19146910D01*
X20996736Y-19148639D01*
X21008315Y-19150896D01*
X21019950Y-19153745D01*
X21031272Y-19157097D01*
X21042581Y-19161039D01*
X21053518Y-19165444D01*
X21064403Y-19170443D01*
X21074885Y-19175876D01*
X21085246Y-19181888D01*
X21095164Y-19188292D01*
X21104902Y-19195259D01*
X21114153Y-19202567D01*
X21123193Y-19210434D01*
X21131722Y-19218602D01*
X21139961Y-19227281D01*
X21147667Y-19236213D01*
X21155056Y-19245651D01*
X21161878Y-19255275D01*
X21169926Y-19267857D01*
X21172988Y-19272906D01*
X23235303Y-22862905D01*
X23238119Y-22868088D01*
X23244935Y-22881379D01*
X23249817Y-22892132D01*
X23254243Y-22903259D01*
X23258075Y-22914409D01*
X23261426Y-22925912D01*
X23264186Y-22937396D01*
X23266427Y-22949164D01*
X23268079Y-22960833D01*
X23269192Y-22972753D01*
X23269729Y-22984560D01*
X23269702Y-22996545D01*
X23269116Y-23008311D01*
X23267953Y-23020227D01*
X23266246Y-23031919D01*
X23263954Y-23043671D01*
X23261150Y-23055121D01*
X23257750Y-23066610D01*
X23253865Y-23077757D01*
X23249391Y-23088863D01*
X23244461Y-23099596D01*
X23238945Y-23110237D01*
X23233030Y-23120430D01*
X23226536Y-23130488D01*
X23219664Y-23140095D01*
X23212238Y-23149495D01*
X23204494Y-23158393D01*
X23196215Y-23167038D01*
X23187657Y-23175162D01*
X23178589Y-23182985D01*
X23169302Y-23190256D01*
X23159522Y-23197189D01*
X23149582Y-23203547D01*
X23139203Y-23209510D01*
X23128688Y-23214902D01*
X23117773Y-23219857D01*
X23106815Y-23224216D01*
X23095504Y-23228103D01*
X23084178Y-23231402D01*
X23072522Y-23234203D01*
X23060937Y-23236410D01*
X23049075Y-23238090D01*
X23037315Y-23239187D01*
X23022414Y-23239864D01*
X23016517Y-23239992D01*
X18876307Y-23231010D01*
X18870409Y-23230857D01*
X18855487Y-23230114D01*
X18843741Y-23228966D01*
X18831898Y-23227237D01*
X18820319Y-23224980D01*
X18808684Y-23222131D01*
X18797362Y-23218779D01*
X18786053Y-23214837D01*
X18775116Y-23210432D01*
X18764231Y-23205433D01*
X18753749Y-23200000D01*
X18743388Y-23193988D01*
X18733470Y-23187584D01*
X18723732Y-23180617D01*
X18714481Y-23173309D01*
X18705441Y-23165442D01*
X18696912Y-23157274D01*
X18688673Y-23148595D01*
X18680967Y-23139663D01*
X18673578Y-23130225D01*
X18666758Y-23120603D01*
X18660305Y-23110515D01*
X18654422Y-23100275D01*
X18648958Y-23089619D01*
X18644079Y-23078872D01*
X18639653Y-23067745D01*
X18635821Y-23056595D01*
X18632470Y-23045092D01*
X18629710Y-23033608D01*
X18627469Y-23021840D01*
X18625817Y-23010171D01*
X18624704Y-22998251D01*
X18624167Y-22986444D01*
X18624194Y-22974459D01*
X18624780Y-22962693D01*
X18625943Y-22950777D01*
X18627650Y-22939085D01*
X18629942Y-22927333D01*
X18632746Y-22915883D01*
X18636146Y-22904394D01*
X18640031Y-22893247D01*
X18644505Y-22882141D01*
X18649434Y-22871410D01*
X18656313Y-22858139D01*
X18659150Y-22852971D01*
X20737020Y-19271957D01*
X20740102Y-19266924D01*
X20748204Y-19254377D01*
X20755073Y-19244776D01*
X20762499Y-19235376D01*
X20770243Y-19226478D01*
X20778522Y-19217833D01*
X20787080Y-19209709D01*
X20796148Y-19201886D01*
X20805435Y-19194615D01*
X20815215Y-19187682D01*
X20825155Y-19181324D01*
X20835534Y-19175361D01*
X20846049Y-19169969D01*
X20856964Y-19165014D01*
X20867922Y-19160655D01*
X20879233Y-19156768D01*
X20890559Y-19153469D01*
X20902215Y-19150668D01*
X20913800Y-19148461D01*
X20925662Y-19146781D01*
X20937424Y-19145684D01*
X20949379Y-19145141D01*
X20961169Y-19145166D01*
G37*
G36*
X2936910Y16522960D02*
G01*
X2948885Y16522364D01*
X2960634Y16521216D01*
X2972477Y16519487D01*
X2984056Y16517230D01*
X2995691Y16514381D01*
X3007013Y16511029D01*
X3018322Y16507087D01*
X3029259Y16502682D01*
X3040144Y16497683D01*
X3050626Y16492250D01*
X3060987Y16486238D01*
X3070905Y16479834D01*
X3080643Y16472867D01*
X3089894Y16465559D01*
X3098934Y16457692D01*
X3107463Y16449524D01*
X3115702Y16440845D01*
X3123408Y16431913D01*
X3130797Y16422475D01*
X3137619Y16412851D01*
X3145667Y16400269D01*
X3148729Y16395220D01*
X5211044Y12805221D01*
X5213860Y12800038D01*
X5220676Y12786747D01*
X5225558Y12775994D01*
X5229984Y12764867D01*
X5233816Y12753717D01*
X5237167Y12742214D01*
X5239927Y12730730D01*
X5242168Y12718962D01*
X5243820Y12707293D01*
X5244933Y12695373D01*
X5245470Y12683566D01*
X5245443Y12671581D01*
X5244857Y12659815D01*
X5243694Y12647899D01*
X5241987Y12636207D01*
X5239695Y12624455D01*
X5236891Y12613005D01*
X5233491Y12601516D01*
X5229606Y12590369D01*
X5225132Y12579263D01*
X5220202Y12568530D01*
X5214686Y12557889D01*
X5208771Y12547696D01*
X5202277Y12537638D01*
X5195405Y12528031D01*
X5187979Y12518631D01*
X5180235Y12509733D01*
X5171956Y12501088D01*
X5163398Y12492964D01*
X5154330Y12485141D01*
X5145043Y12477870D01*
X5135263Y12470937D01*
X5125323Y12464579D01*
X5114944Y12458616D01*
X5104429Y12453224D01*
X5093514Y12448269D01*
X5082556Y12443910D01*
X5071245Y12440023D01*
X5059919Y12436724D01*
X5048263Y12433923D01*
X5036678Y12431716D01*
X5024816Y12430036D01*
X5013056Y12428939D01*
X4998155Y12428262D01*
X4992258Y12428134D01*
X852048Y12437116D01*
X846150Y12437269D01*
X831228Y12438012D01*
X819482Y12439160D01*
X807639Y12440889D01*
X796060Y12443146D01*
X784425Y12445995D01*
X773103Y12449347D01*
X761794Y12453289D01*
X750857Y12457694D01*
X739972Y12462693D01*
X729490Y12468126D01*
X719129Y12474138D01*
X709211Y12480542D01*
X699473Y12487509D01*
X690222Y12494817D01*
X681182Y12502684D01*
X672653Y12510852D01*
X664414Y12519531D01*
X656708Y12528463D01*
X649319Y12537901D01*
X642499Y12547523D01*
X636046Y12557611D01*
X630163Y12567851D01*
X624699Y12578507D01*
X619820Y12589254D01*
X615394Y12600381D01*
X611562Y12611531D01*
X608211Y12623034D01*
X605451Y12634518D01*
X603210Y12646286D01*
X601558Y12657955D01*
X600445Y12669875D01*
X599908Y12681682D01*
X599935Y12693667D01*
X600521Y12705433D01*
X601684Y12717349D01*
X603391Y12729041D01*
X605683Y12740793D01*
X608487Y12752243D01*
X611887Y12763732D01*
X615772Y12774879D01*
X620246Y12785985D01*
X625175Y12796716D01*
X632054Y12809987D01*
X634891Y12815155D01*
X2712761Y16396169D01*
X2715843Y16401202D01*
X2723945Y16413749D01*
X2730814Y16423350D01*
X2738240Y16432750D01*
X2745984Y16441648D01*
X2754263Y16450293D01*
X2762821Y16458417D01*
X2771889Y16466240D01*
X2781176Y16473511D01*
X2790956Y16480444D01*
X2800896Y16486802D01*
X2811275Y16492765D01*
X2821790Y16498157D01*
X2832705Y16503112D01*
X2843663Y16507471D01*
X2854974Y16511358D01*
X2866300Y16514657D01*
X2877956Y16517458D01*
X2889541Y16519665D01*
X2901403Y16521345D01*
X2913165Y16522442D01*
X2925120Y16522985D01*
X2936910Y16522960D01*
G37*
G36*
X-20921498Y26173901D02*
G01*
X-20885460Y26134346D01*
X-16994938Y19361879D01*
X-16992122Y19356696D01*
X-16985306Y19343405D01*
X-16980424Y19332652D01*
X-16975998Y19321525D01*
X-16972166Y19310375D01*
X-16968815Y19298872D01*
X-16966055Y19287388D01*
X-16963814Y19275620D01*
X-16962162Y19263951D01*
X-16961049Y19252031D01*
X-16960512Y19240224D01*
X-16960539Y19228239D01*
X-16961125Y19216473D01*
X-16962288Y19204557D01*
X-16963995Y19192865D01*
X-16966287Y19181113D01*
X-16969091Y19169663D01*
X-16972491Y19158174D01*
X-16976376Y19147027D01*
X-16980850Y19135921D01*
X-16985780Y19125188D01*
X-16991296Y19114547D01*
X-16997211Y19104354D01*
X-17003705Y19094296D01*
X-17010577Y19084689D01*
X-17018003Y19075289D01*
X-17025747Y19066391D01*
X-17034026Y19057746D01*
X-17042584Y19049622D01*
X-17051652Y19041799D01*
X-17060939Y19034528D01*
X-17070719Y19027595D01*
X-17080659Y19021237D01*
X-17091038Y19015274D01*
X-17101553Y19009882D01*
X-17112468Y19004927D01*
X-17123426Y19000568D01*
X-17134737Y18996681D01*
X-17146063Y18993382D01*
X-17157719Y18990581D01*
X-17169304Y18988374D01*
X-17181166Y18986694D01*
X-17192926Y18985597D01*
X-17207827Y18984920D01*
X-17213724Y18984792D01*
X-27465364Y19007033D01*
X-27529417Y19025021D01*
X-27574954Y19073527D01*
X-27588865Y19138587D01*
X-27567145Y19201473D01*
X-27319899Y19559670D01*
X-27317407Y19563150D01*
X-26628503Y20490983D01*
X-26625892Y20494376D01*
X-25905364Y21397889D01*
X-25902638Y21401189D01*
X-25151346Y22279303D01*
X-25148507Y22282507D01*
X-24367375Y23134144D01*
X-24364428Y23137248D01*
X-23554354Y23961427D01*
X-23551301Y23964428D01*
X-22713246Y24760169D01*
X-22710091Y24763062D01*
X-21845112Y25529368D01*
X-21841860Y25532151D01*
X-21071956Y26168177D01*
X-21024320Y26192553D01*
X-20970848Y26194588D01*
X-20921498Y26173901D01*
G37*
G36*
X9769843Y32147332D02*
G01*
X10821216Y31809729D01*
X10825268Y31808350D01*
X11912705Y31417272D01*
X11916708Y31415754D01*
X12990018Y30987369D01*
X12993966Y30985713D01*
X13081816Y30947083D01*
X13114762Y30925824D01*
X13139423Y30895340D01*
X15390303Y26977095D01*
X15393119Y26971912D01*
X15399935Y26958621D01*
X15404817Y26947868D01*
X15409243Y26936741D01*
X15413075Y26925591D01*
X15416426Y26914088D01*
X15419186Y26902604D01*
X15421427Y26890836D01*
X15423079Y26879167D01*
X15424192Y26867247D01*
X15424729Y26855440D01*
X15424702Y26843455D01*
X15424116Y26831689D01*
X15422953Y26819773D01*
X15421246Y26808081D01*
X15418954Y26796329D01*
X15416150Y26784879D01*
X15412750Y26773390D01*
X15408865Y26762243D01*
X15404391Y26751137D01*
X15399461Y26740404D01*
X15393945Y26729763D01*
X15388030Y26719570D01*
X15381536Y26709512D01*
X15374664Y26699905D01*
X15367238Y26690505D01*
X15359494Y26681607D01*
X15351215Y26672962D01*
X15342657Y26664838D01*
X15333589Y26657015D01*
X15324302Y26649744D01*
X15314522Y26642811D01*
X15304582Y26636453D01*
X15294203Y26630490D01*
X15283688Y26625098D01*
X15272773Y26620143D01*
X15261815Y26615784D01*
X15250504Y26611897D01*
X15239178Y26608598D01*
X15227522Y26605797D01*
X15215937Y26603590D01*
X15204075Y26601910D01*
X15192315Y26600813D01*
X15177414Y26600136D01*
X15171517Y26600008D01*
X6885204Y26617985D01*
X6879306Y26618138D01*
X6864384Y26618881D01*
X6852638Y26620029D01*
X6840795Y26621758D01*
X6829216Y26624015D01*
X6817581Y26626864D01*
X6806259Y26630216D01*
X6794950Y26634158D01*
X6784013Y26638563D01*
X6773128Y26643562D01*
X6762646Y26648995D01*
X6752285Y26655007D01*
X6742367Y26661411D01*
X6732629Y26668378D01*
X6723378Y26675686D01*
X6714338Y26683553D01*
X6705809Y26691721D01*
X6697570Y26700400D01*
X6689864Y26709332D01*
X6682475Y26718770D01*
X6675655Y26728392D01*
X6669202Y26738480D01*
X6663319Y26748720D01*
X6657855Y26759376D01*
X6652976Y26770123D01*
X6648550Y26781250D01*
X6644718Y26792400D01*
X6641367Y26803903D01*
X6638607Y26815387D01*
X6636366Y26827155D01*
X6634714Y26838824D01*
X6633601Y26850744D01*
X6633064Y26862551D01*
X6633091Y26874536D01*
X6633677Y26886302D01*
X6634840Y26898218D01*
X6636547Y26909910D01*
X6638839Y26921662D01*
X6641643Y26933112D01*
X6645043Y26944601D01*
X6648928Y26955748D01*
X6653402Y26966854D01*
X6658331Y26977585D01*
X6665210Y26990856D01*
X6668047Y26996024D01*
X9624680Y32091502D01*
X9662622Y32132090D01*
X9714481Y32152035D01*
X9769843Y32147332D01*
G37*
G36*
X-4168569Y24174706D02*
G01*
X-4156594Y24174110D01*
X-4144845Y24172962D01*
X-4133002Y24171233D01*
X-4121423Y24168976D01*
X-4109788Y24166127D01*
X-4098466Y24162775D01*
X-4087157Y24158833D01*
X-4076220Y24154428D01*
X-4065335Y24149429D01*
X-4054853Y24143996D01*
X-4044492Y24137984D01*
X-4034574Y24131580D01*
X-4024836Y24124613D01*
X-4015585Y24117305D01*
X-4006545Y24109438D01*
X-3998016Y24101270D01*
X-3989777Y24092591D01*
X-3982071Y24083659D01*
X-3974682Y24074221D01*
X-3967860Y24064597D01*
X-3959812Y24052015D01*
X-3956750Y24046966D01*
X170827Y16861841D01*
X173643Y16856658D01*
X180459Y16843367D01*
X185341Y16832614D01*
X189767Y16821487D01*
X193599Y16810337D01*
X196950Y16798834D01*
X199710Y16787350D01*
X201951Y16775582D01*
X203603Y16763913D01*
X204716Y16751993D01*
X205253Y16740186D01*
X205226Y16728201D01*
X204640Y16716435D01*
X203477Y16704519D01*
X201770Y16692827D01*
X199478Y16681075D01*
X196674Y16669625D01*
X193274Y16658136D01*
X189389Y16646989D01*
X184915Y16635883D01*
X179985Y16625150D01*
X174469Y16614509D01*
X168554Y16604316D01*
X162060Y16594258D01*
X155188Y16584651D01*
X147762Y16575251D01*
X140018Y16566353D01*
X131739Y16557708D01*
X123181Y16549584D01*
X114113Y16541761D01*
X104826Y16534490D01*
X95046Y16527557D01*
X85106Y16521199D01*
X74727Y16515236D01*
X64212Y16509844D01*
X53297Y16504889D01*
X42339Y16500530D01*
X31028Y16496643D01*
X19702Y16493344D01*
X8046Y16490543D01*
X-3539Y16488336D01*
X-15401Y16486656D01*
X-27161Y16485559D01*
X-42062Y16484882D01*
X-47959Y16484754D01*
X-8334272Y16502731D01*
X-8340170Y16502884D01*
X-8355092Y16503627D01*
X-8366838Y16504775D01*
X-8378681Y16506504D01*
X-8390260Y16508761D01*
X-8401895Y16511610D01*
X-8413217Y16514962D01*
X-8424526Y16518904D01*
X-8435463Y16523309D01*
X-8446348Y16528308D01*
X-8456830Y16533741D01*
X-8467191Y16539753D01*
X-8477109Y16546157D01*
X-8486847Y16553124D01*
X-8496098Y16560432D01*
X-8505138Y16568299D01*
X-8513667Y16576467D01*
X-8521906Y16585146D01*
X-8529612Y16594078D01*
X-8537001Y16603516D01*
X-8543821Y16613138D01*
X-8550274Y16623226D01*
X-8556157Y16633466D01*
X-8561621Y16644122D01*
X-8566500Y16654869D01*
X-8570926Y16665996D01*
X-8574758Y16677146D01*
X-8578109Y16688649D01*
X-8580869Y16700133D01*
X-8583110Y16711901D01*
X-8584762Y16723570D01*
X-8585875Y16735490D01*
X-8586412Y16747297D01*
X-8586385Y16759282D01*
X-8585799Y16771048D01*
X-8584636Y16782964D01*
X-8582929Y16794656D01*
X-8580637Y16806408D01*
X-8577833Y16817858D01*
X-8574433Y16829347D01*
X-8570548Y16840494D01*
X-8566074Y16851600D01*
X-8561145Y16862331D01*
X-8554266Y16875602D01*
X-8551429Y16880770D01*
X-4392718Y24047915D01*
X-4389636Y24052948D01*
X-4381534Y24065495D01*
X-4374665Y24075096D01*
X-4367239Y24084496D01*
X-4359495Y24093394D01*
X-4351216Y24102039D01*
X-4342658Y24110163D01*
X-4333590Y24117986D01*
X-4324303Y24125257D01*
X-4314523Y24132190D01*
X-4304583Y24138548D01*
X-4294204Y24144511D01*
X-4283689Y24149903D01*
X-4272774Y24154858D01*
X-4261816Y24159217D01*
X-4250505Y24163104D01*
X-4239179Y24166403D01*
X-4227523Y24169204D01*
X-4215938Y24171411D01*
X-4204076Y24173091D01*
X-4192314Y24174188D01*
X-4180359Y24174731D01*
X-4168569Y24174706D01*
G37*
G36*
X-4012728Y11835839D02*
G01*
X-4000753Y11835243D01*
X-3989004Y11834095D01*
X-3977161Y11832366D01*
X-3965582Y11830109D01*
X-3953947Y11827260D01*
X-3942625Y11823908D01*
X-3931316Y11819966D01*
X-3920379Y11815561D01*
X-3909494Y11810562D01*
X-3899012Y11805129D01*
X-3888651Y11799117D01*
X-3878733Y11792713D01*
X-3868995Y11785746D01*
X-3859744Y11778438D01*
X-3850704Y11770571D01*
X-3842175Y11762403D01*
X-3833936Y11753724D01*
X-3826230Y11744792D01*
X-3818841Y11735354D01*
X-3812019Y11725730D01*
X-3803971Y11713148D01*
X-3800909Y11708099D01*
X-1738594Y8118100D01*
X-1735778Y8112917D01*
X-1728962Y8099626D01*
X-1724080Y8088873D01*
X-1719654Y8077746D01*
X-1715822Y8066596D01*
X-1712471Y8055093D01*
X-1709711Y8043609D01*
X-1707470Y8031841D01*
X-1705818Y8020172D01*
X-1704705Y8008252D01*
X-1704168Y7996445D01*
X-1704195Y7984460D01*
X-1704781Y7972694D01*
X-1705944Y7960778D01*
X-1707651Y7949086D01*
X-1709943Y7937334D01*
X-1712747Y7925884D01*
X-1716147Y7914395D01*
X-1720032Y7903248D01*
X-1724506Y7892142D01*
X-1729436Y7881409D01*
X-1734952Y7870768D01*
X-1740867Y7860575D01*
X-1747361Y7850517D01*
X-1754233Y7840910D01*
X-1761659Y7831510D01*
X-1769403Y7822612D01*
X-1777682Y7813967D01*
X-1786240Y7805843D01*
X-1795308Y7798020D01*
X-1804595Y7790749D01*
X-1814375Y7783816D01*
X-1824315Y7777458D01*
X-1834694Y7771495D01*
X-1845209Y7766103D01*
X-1856124Y7761148D01*
X-1867082Y7756789D01*
X-1878393Y7752902D01*
X-1889719Y7749603D01*
X-1901375Y7746802D01*
X-1912960Y7744595D01*
X-1924822Y7742915D01*
X-1936582Y7741818D01*
X-1951483Y7741141D01*
X-1957380Y7741013D01*
X-6097590Y7749995D01*
X-6103488Y7750148D01*
X-6118410Y7750891D01*
X-6130156Y7752039D01*
X-6141999Y7753768D01*
X-6153578Y7756025D01*
X-6165213Y7758874D01*
X-6176535Y7762226D01*
X-6187844Y7766168D01*
X-6198781Y7770573D01*
X-6209666Y7775572D01*
X-6220148Y7781005D01*
X-6230509Y7787017D01*
X-6240427Y7793421D01*
X-6250165Y7800388D01*
X-6259416Y7807696D01*
X-6268456Y7815563D01*
X-6276985Y7823731D01*
X-6285224Y7832410D01*
X-6292930Y7841342D01*
X-6300319Y7850780D01*
X-6307139Y7860402D01*
X-6313592Y7870490D01*
X-6319475Y7880730D01*
X-6324939Y7891386D01*
X-6329818Y7902133D01*
X-6334244Y7913260D01*
X-6338076Y7924410D01*
X-6341427Y7935913D01*
X-6344187Y7947397D01*
X-6346428Y7959165D01*
X-6348080Y7970834D01*
X-6349193Y7982754D01*
X-6349730Y7994561D01*
X-6349703Y8006546D01*
X-6349117Y8018312D01*
X-6347954Y8030228D01*
X-6346247Y8041920D01*
X-6343955Y8053672D01*
X-6341151Y8065122D01*
X-6337751Y8076611D01*
X-6333866Y8087758D01*
X-6329392Y8098864D01*
X-6324463Y8109595D01*
X-6317584Y8122866D01*
X-6314747Y8128034D01*
X-4236877Y11709048D01*
X-4233795Y11714081D01*
X-4225693Y11726628D01*
X-4218824Y11736229D01*
X-4211398Y11745629D01*
X-4203654Y11754527D01*
X-4195375Y11763172D01*
X-4186817Y11771296D01*
X-4177749Y11779119D01*
X-4168462Y11786390D01*
X-4158682Y11793323D01*
X-4148742Y11799681D01*
X-4138363Y11805644D01*
X-4127848Y11811036D01*
X-4116933Y11815991D01*
X-4105975Y11820350D01*
X-4094664Y11824237D01*
X-4083338Y11827536D01*
X-4071682Y11830337D01*
X-4060097Y11832544D01*
X-4048235Y11834224D01*
X-4036473Y11835321D01*
X-4024518Y11835864D01*
X-4012728Y11835839D01*
G37*
G36*
X-3458831Y-27330166D02*
G01*
X-3446856Y-27330762D01*
X-3435107Y-27331910D01*
X-3423264Y-27333639D01*
X-3411685Y-27335896D01*
X-3400050Y-27338745D01*
X-3388728Y-27342097D01*
X-3377419Y-27346039D01*
X-3366482Y-27350444D01*
X-3355597Y-27355443D01*
X-3345115Y-27360876D01*
X-3334754Y-27366888D01*
X-3324836Y-27373292D01*
X-3315098Y-27380259D01*
X-3305847Y-27387567D01*
X-3296807Y-27395434D01*
X-3288278Y-27403602D01*
X-3280039Y-27412281D01*
X-3272333Y-27421213D01*
X-3264944Y-27430651D01*
X-3258122Y-27440275D01*
X-3250074Y-27452857D01*
X-3247012Y-27457906D01*
X-1184697Y-31047905D01*
X-1181881Y-31053088D01*
X-1175065Y-31066379D01*
X-1170183Y-31077132D01*
X-1165757Y-31088259D01*
X-1161925Y-31099409D01*
X-1158574Y-31110912D01*
X-1155814Y-31122396D01*
X-1153573Y-31134164D01*
X-1151921Y-31145833D01*
X-1150808Y-31157753D01*
X-1150271Y-31169560D01*
X-1150298Y-31181545D01*
X-1150884Y-31193311D01*
X-1152047Y-31205227D01*
X-1153754Y-31216919D01*
X-1156046Y-31228671D01*
X-1158850Y-31240121D01*
X-1162250Y-31251610D01*
X-1166135Y-31262757D01*
X-1170609Y-31273863D01*
X-1175539Y-31284596D01*
X-1181055Y-31295237D01*
X-1186970Y-31305430D01*
X-1193464Y-31315488D01*
X-1200336Y-31325095D01*
X-1207762Y-31334495D01*
X-1215506Y-31343393D01*
X-1223785Y-31352038D01*
X-1232343Y-31360162D01*
X-1241411Y-31367985D01*
X-1250698Y-31375256D01*
X-1260478Y-31382189D01*
X-1270418Y-31388547D01*
X-1280797Y-31394510D01*
X-1291312Y-31399902D01*
X-1302227Y-31404857D01*
X-1313185Y-31409216D01*
X-1324496Y-31413103D01*
X-1335822Y-31416402D01*
X-1347478Y-31419203D01*
X-1359063Y-31421410D01*
X-1370925Y-31423090D01*
X-1382685Y-31424187D01*
X-1397586Y-31424864D01*
X-1403483Y-31424992D01*
X-5543693Y-31416010D01*
X-5549591Y-31415857D01*
X-5564513Y-31415114D01*
X-5576259Y-31413966D01*
X-5588102Y-31412237D01*
X-5599681Y-31409980D01*
X-5611316Y-31407131D01*
X-5622638Y-31403779D01*
X-5633947Y-31399837D01*
X-5644884Y-31395432D01*
X-5655769Y-31390433D01*
X-5666251Y-31385000D01*
X-5676612Y-31378988D01*
X-5686530Y-31372584D01*
X-5696268Y-31365617D01*
X-5705519Y-31358309D01*
X-5714559Y-31350442D01*
X-5723088Y-31342274D01*
X-5731327Y-31333595D01*
X-5739033Y-31324663D01*
X-5746422Y-31315225D01*
X-5753242Y-31305603D01*
X-5759695Y-31295515D01*
X-5765578Y-31285275D01*
X-5771042Y-31274619D01*
X-5775921Y-31263872D01*
X-5780347Y-31252745D01*
X-5784179Y-31241595D01*
X-5787530Y-31230092D01*
X-5790290Y-31218608D01*
X-5792531Y-31206840D01*
X-5794183Y-31195171D01*
X-5795296Y-31183251D01*
X-5795833Y-31171444D01*
X-5795806Y-31159459D01*
X-5795220Y-31147693D01*
X-5794057Y-31135777D01*
X-5792350Y-31124085D01*
X-5790058Y-31112333D01*
X-5787254Y-31100883D01*
X-5783854Y-31089394D01*
X-5779969Y-31078247D01*
X-5775495Y-31067141D01*
X-5770566Y-31056410D01*
X-5763687Y-31043139D01*
X-5760850Y-31037971D01*
X-3682980Y-27456957D01*
X-3679898Y-27451924D01*
X-3671796Y-27439377D01*
X-3664927Y-27429776D01*
X-3657501Y-27420376D01*
X-3649757Y-27411478D01*
X-3641478Y-27402833D01*
X-3632920Y-27394709D01*
X-3623852Y-27386886D01*
X-3614565Y-27379615D01*
X-3604785Y-27372682D01*
X-3594845Y-27366324D01*
X-3584466Y-27360361D01*
X-3573951Y-27354969D01*
X-3563036Y-27350014D01*
X-3552078Y-27345655D01*
X-3540767Y-27341768D01*
X-3529441Y-27338469D01*
X-3517785Y-27335668D01*
X-3506200Y-27333461D01*
X-3494338Y-27331781D01*
X-3482576Y-27330684D01*
X-3470621Y-27330141D01*
X-3458831Y-27330166D01*
G37*
G36*
X581666Y33594935D02*
G01*
X1737475Y33555018D01*
X1740888Y33554841D01*
X2894610Y33475055D01*
X2898015Y33474761D01*
X4048332Y33355195D01*
X4051725Y33354783D01*
X5197220Y33195587D01*
X5200596Y33195058D01*
X6339899Y32996420D01*
X6343255Y32995775D01*
X7475043Y32757927D01*
X7478375Y32757166D01*
X8601250Y32480402D01*
X8604554Y32479527D01*
X9717216Y32164168D01*
X9720487Y32163180D01*
X10821617Y31809600D01*
X10824853Y31808499D01*
X11913123Y31417122D01*
X11916318Y31415910D01*
X12990426Y30987206D01*
X12993578Y30985884D01*
X14052225Y30520370D01*
X14055329Y30518941D01*
X15097299Y30017155D01*
X15100353Y30015619D01*
X16124383Y29478167D01*
X16127381Y29476527D01*
X17132254Y28904046D01*
X17135194Y28902303D01*
X18119693Y28295490D01*
X18122571Y28293647D01*
X19085552Y27653205D01*
X19088364Y27651264D01*
X20028673Y26977959D01*
X20031417Y26975921D01*
X20947905Y26270579D01*
X20950577Y26268448D01*
X21842164Y25531899D01*
X21844761Y25529678D01*
X22710435Y24762757D01*
X22712954Y24760446D01*
X23551605Y23964138D01*
X23554042Y23961743D01*
X24364738Y23136932D01*
X24367091Y23134453D01*
X25148793Y22282194D01*
X25151060Y22279636D01*
X25902927Y21400850D01*
X25905103Y21398216D01*
X26626143Y20494061D01*
X26628228Y20491352D01*
X27317678Y19562784D01*
X27319667Y19560005D01*
X27976608Y18608261D01*
X27978501Y18605416D01*
X28602243Y17631498D01*
X28604036Y17628588D01*
X29193757Y16633777D01*
X29195449Y16630808D01*
X29750503Y15616195D01*
X29752091Y15613169D01*
X30271788Y14580016D01*
X30273271Y14576937D01*
X30756988Y13526482D01*
X30758364Y13523353D01*
X31205547Y12456800D01*
X31206814Y12453626D01*
X31616920Y11372263D01*
X31618076Y11369047D01*
X31990602Y10274211D01*
X31991647Y10270957D01*
X32326165Y9163896D01*
X32327097Y9160608D01*
X32623206Y8042664D01*
X32624024Y8039346D01*
X32881369Y6911841D01*
X32882072Y6908496D01*
X33100347Y5772782D01*
X33100934Y5769415D01*
X33279880Y4626835D01*
X33280350Y4623450D01*
X33419746Y3475417D01*
X33420100Y3472018D01*
X33519794Y2319782D01*
X33520029Y2316372D01*
X33579890Y1161451D01*
X33580008Y1158036D01*
X33599970Y1710D01*
X33599970Y-1708D01*
X33580008Y-1158035D01*
X33579890Y-1161450D01*
X33520029Y-2316371D01*
X33519794Y-2319781D01*
X33420100Y-3472017D01*
X33419746Y-3475416D01*
X33280350Y-4623449D01*
X33279880Y-4626834D01*
X33100934Y-5769414D01*
X33100347Y-5772781D01*
X32882072Y-6908495D01*
X32881369Y-6911840D01*
X32624024Y-8039345D01*
X32623206Y-8042663D01*
X32327097Y-9160607D01*
X32326165Y-9163895D01*
X31991647Y-10270956D01*
X31990602Y-10274210D01*
X31618076Y-11369046D01*
X31616920Y-11372262D01*
X31206814Y-12453625D01*
X31205547Y-12456799D01*
X30758364Y-13523352D01*
X30756988Y-13526481D01*
X30273271Y-14576936D01*
X30271788Y-14580015D01*
X29752091Y-15613168D01*
X29750503Y-15616194D01*
X29195449Y-16630807D01*
X29193757Y-16633776D01*
X28604036Y-17628587D01*
X28602243Y-17631497D01*
X27978501Y-18605415D01*
X27976608Y-18608260D01*
X27319667Y-19560004D01*
X27317678Y-19562783D01*
X26628228Y-20491351D01*
X26626143Y-20494060D01*
X25905103Y-21398215D01*
X25902927Y-21400849D01*
X25151060Y-22279635D01*
X25148793Y-22282193D01*
X24367091Y-23134452D01*
X24364738Y-23136931D01*
X23554042Y-23961742D01*
X23551605Y-23964137D01*
X22712954Y-24760445D01*
X22710435Y-24762756D01*
X21844761Y-25529677D01*
X21842164Y-25531898D01*
X20950577Y-26268447D01*
X20947905Y-26270578D01*
X20031417Y-26975920D01*
X20028673Y-26977958D01*
X19088364Y-27651263D01*
X19085552Y-27653204D01*
X18122571Y-28293646D01*
X18119693Y-28295489D01*
X17135194Y-28902302D01*
X17132254Y-28904045D01*
X16127381Y-29476526D01*
X16124383Y-29478166D01*
X15100353Y-30015618D01*
X15097299Y-30017154D01*
X14055329Y-30518940D01*
X14052225Y-30520369D01*
X12993578Y-30985883D01*
X12990426Y-30987205D01*
X11916318Y-31415909D01*
X11913123Y-31417121D01*
X10824853Y-31808498D01*
X10821617Y-31809599D01*
X9720487Y-32163179D01*
X9717216Y-32164167D01*
X8604554Y-32479526D01*
X8601250Y-32480401D01*
X7478375Y-32757165D01*
X7475043Y-32757926D01*
X6343255Y-32995774D01*
X6339899Y-32996419D01*
X5200596Y-33195057D01*
X5197220Y-33195586D01*
X4051725Y-33354782D01*
X4048332Y-33355194D01*
X2898015Y-33474760D01*
X2894610Y-33475054D01*
X1740888Y-33554840D01*
X1737475Y-33555017D01*
X581666Y-33594935D01*
X578249Y-33594994D01*
X-578249Y-33594994D01*
X-581666Y-33594935D01*
X-1737476Y-33555017D01*
X-1740889Y-33554840D01*
X-2894611Y-33475054D01*
X-2898016Y-33474760D01*
X-4048333Y-33355194D01*
X-4051726Y-33354782D01*
X-5197221Y-33195586D01*
X-5200597Y-33195057D01*
X-6339900Y-32996419D01*
X-6343256Y-32995774D01*
X-7475044Y-32757926D01*
X-7478376Y-32757165D01*
X-8601251Y-32480401D01*
X-8604555Y-32479526D01*
X-9717217Y-32164167D01*
X-9720488Y-32163179D01*
X-10821618Y-31809599D01*
X-10824854Y-31808498D01*
X-11913124Y-31417121D01*
X-11916319Y-31415909D01*
X-12990427Y-30987205D01*
X-12993579Y-30985883D01*
X-14052226Y-30520369D01*
X-14055330Y-30518940D01*
X-15097300Y-30017154D01*
X-15100354Y-30015618D01*
X-16124384Y-29478166D01*
X-16127382Y-29476526D01*
X-17132255Y-28904045D01*
X-17135195Y-28902302D01*
X-18119694Y-28295489D01*
X-18122572Y-28293646D01*
X-19085553Y-27653204D01*
X-19088365Y-27651263D01*
X-20028674Y-26977958D01*
X-20031418Y-26975920D01*
X-20947906Y-26270578D01*
X-20950578Y-26268447D01*
X-21842165Y-25531898D01*
X-21844762Y-25529677D01*
X-22710436Y-24762756D01*
X-22712955Y-24760445D01*
X-23551606Y-23964137D01*
X-23554043Y-23961742D01*
X-24364739Y-23136931D01*
X-24367092Y-23134452D01*
X-25148794Y-22282193D01*
X-25151061Y-22279635D01*
X-25902928Y-21400849D01*
X-25905104Y-21398215D01*
X-26626144Y-20494060D01*
X-26628229Y-20491351D01*
X-27317679Y-19562783D01*
X-27319668Y-19560004D01*
X-27976609Y-18608260D01*
X-27978502Y-18605415D01*
X-28602244Y-17631497D01*
X-28604037Y-17628587D01*
X-29193758Y-16633776D01*
X-29195450Y-16630807D01*
X-29750504Y-15616194D01*
X-29752092Y-15613168D01*
X-30271789Y-14580015D01*
X-30273272Y-14576936D01*
X-30756989Y-13526481D01*
X-30758365Y-13523352D01*
X-31205548Y-12456799D01*
X-31206815Y-12453625D01*
X-31616921Y-11372262D01*
X-31618077Y-11369046D01*
X-31990603Y-10274210D01*
X-31991648Y-10270956D01*
X-32326166Y-9163895D01*
X-32327098Y-9160607D01*
X-32623207Y-8042663D01*
X-32624025Y-8039345D01*
X-32864223Y-6986967D01*
X-26500000Y-6986967D01*
X-26497246Y-6997245D01*
X-26486967Y-7000000D01*
X-12513033Y-7000000D01*
X-12502755Y-6997245D01*
X-12500000Y-6986967D01*
X-7000000Y-6986967D01*
X-6997246Y-6997245D01*
X-6986967Y-7000000D01*
X6986967Y-7000000D01*
X6997245Y-6997245D01*
X7000000Y-6986967D01*
X12500000Y-6986967D01*
X12502754Y-6997245D01*
X12513033Y-7000000D01*
X26486967Y-7000000D01*
X26497245Y-6997245D01*
X26500000Y-6986967D01*
X26500000Y6986967D01*
X26497245Y6997246D01*
X26486967Y7000000D01*
X12513033Y7000000D01*
X12502754Y6997246D01*
X12500000Y6986967D01*
X12500000Y-6986967D01*
X7000000Y-6986967D01*
X7000000Y6986967D01*
X6997245Y6997246D01*
X6986967Y7000000D01*
X-6986967Y7000000D01*
X-6997246Y6997246D01*
X-7000000Y6986967D01*
X-7000000Y-6986967D01*
X-12500000Y-6986967D01*
X-12500000Y6986967D01*
X-12502755Y6997246D01*
X-12513033Y7000000D01*
X-26486967Y7000000D01*
X-26497246Y6997246D01*
X-26500000Y6986967D01*
X-26500000Y-6986967D01*
X-32864223Y-6986967D01*
X-32881370Y-6911840D01*
X-32882073Y-6908495D01*
X-33100348Y-5772781D01*
X-33100935Y-5769414D01*
X-33279881Y-4626834D01*
X-33280351Y-4623449D01*
X-33419747Y-3475416D01*
X-33420101Y-3472017D01*
X-33519795Y-2319781D01*
X-33520030Y-2316371D01*
X-33579891Y-1161450D01*
X-33580009Y-1158035D01*
X-33599971Y-1709D01*
X-33599971Y1709D01*
X-33580009Y1158036D01*
X-33579891Y1161451D01*
X-33520030Y2316372D01*
X-33519795Y2319782D01*
X-33420101Y3472018D01*
X-33419747Y3475417D01*
X-33280351Y4623450D01*
X-33279881Y4626835D01*
X-33100935Y5769415D01*
X-33100348Y5772782D01*
X-32882073Y6908496D01*
X-32881370Y6911841D01*
X-32624025Y8039346D01*
X-32623207Y8042664D01*
X-32327098Y9160608D01*
X-32326166Y9163896D01*
X-31991648Y10270957D01*
X-31990603Y10274211D01*
X-31618077Y11369047D01*
X-31616921Y11372263D01*
X-31206815Y12453626D01*
X-31205548Y12456800D01*
X-30758365Y13523353D01*
X-30756989Y13526482D01*
X-30273272Y14576937D01*
X-30271789Y14580016D01*
X-29752092Y15613169D01*
X-29750504Y15616195D01*
X-29195450Y16630808D01*
X-29193758Y16633777D01*
X-28604037Y17628588D01*
X-28602244Y17631498D01*
X-27978502Y18605416D01*
X-27976609Y18608261D01*
X-27319668Y19560005D01*
X-27317679Y19562784D01*
X-26628229Y20491352D01*
X-26626144Y20494061D01*
X-25905104Y21398216D01*
X-25902928Y21400850D01*
X-25151061Y22279636D01*
X-25148794Y22282194D01*
X-24367092Y23134453D01*
X-24364739Y23136932D01*
X-23554043Y23961743D01*
X-23551606Y23964138D01*
X-22712955Y24760446D01*
X-22710436Y24762757D01*
X-21844762Y25529678D01*
X-21842165Y25531899D01*
X-20950578Y26268448D01*
X-20947906Y26270579D01*
X-20031418Y26975921D01*
X-20028674Y26977959D01*
X-19088365Y27651264D01*
X-19085553Y27653205D01*
X-18122572Y28293647D01*
X-18119694Y28295490D01*
X-17135195Y28902303D01*
X-17132255Y28904046D01*
X-16127382Y29476527D01*
X-16124384Y29478167D01*
X-15100354Y30015619D01*
X-15097300Y30017155D01*
X-14055330Y30518941D01*
X-14052226Y30520370D01*
X-12993579Y30985884D01*
X-12990427Y30987206D01*
X-11916319Y31415910D01*
X-11913124Y31417122D01*
X-10824854Y31808499D01*
X-10821618Y31809600D01*
X-9720488Y32163180D01*
X-9717217Y32164168D01*
X-8604555Y32479527D01*
X-8601251Y32480402D01*
X-7478376Y32757166D01*
X-7475044Y32757927D01*
X-6343256Y32995775D01*
X-6339900Y32996420D01*
X-5200597Y33195058D01*
X-5197221Y33195587D01*
X-4051726Y33354783D01*
X-4048333Y33355195D01*
X-2898016Y33474761D01*
X-2894611Y33475055D01*
X-1740889Y33554841D01*
X-1737476Y33555018D01*
X-581666Y33594935D01*
X-578249Y33594994D01*
X578249Y33594994D01*
X581666Y33594935D01*
G37*
G36*
X26501414Y7001414D02*
G01*
X26502000Y7000000D01*
X26502000Y-7000000D01*
X26501414Y-7001414D01*
X26500000Y-7002000D01*
X12500000Y-7002000D01*
X12498586Y-7001414D01*
X12498000Y-7000000D01*
X12498000Y-6949603D01*
X12507000Y-6949603D01*
X12519710Y-6980289D01*
X12550397Y-6993000D01*
X26449603Y-6993000D01*
X26480289Y-6980289D01*
X26493000Y-6949603D01*
X26493000Y6949603D01*
X26480289Y6980290D01*
X26449603Y6993000D01*
X12550397Y6993000D01*
X12519710Y6980290D01*
X12507000Y6949603D01*
X12507000Y-6949603D01*
X12498000Y-6949603D01*
X12498000Y7000000D01*
X12498586Y7001414D01*
X12500000Y7002000D01*
X26500000Y7002000D01*
X26501414Y7001414D01*
G37*
G36*
X7001414Y7001414D02*
G01*
X7002000Y7000000D01*
X7002000Y-7000000D01*
X7001414Y-7001414D01*
X7000000Y-7002000D01*
X-7000000Y-7002000D01*
X-7001414Y-7001414D01*
X-7002000Y-7000000D01*
X-7002000Y-6949603D01*
X-6993000Y-6949603D01*
X-6980290Y-6980289D01*
X-6949603Y-6993000D01*
X6949603Y-6993000D01*
X6980289Y-6980289D01*
X6993000Y-6949603D01*
X6993000Y6949603D01*
X6980289Y6980290D01*
X6949603Y6993000D01*
X-6949603Y6993000D01*
X-6980290Y6980290D01*
X-6993000Y6949603D01*
X-6993000Y-6949603D01*
X-7002000Y-6949603D01*
X-7002000Y7000000D01*
X-7001414Y7001414D01*
X-7000000Y7002000D01*
X7000000Y7002000D01*
X7001414Y7001414D01*
G37*
G36*
X-12498586Y7001414D02*
G01*
X-12498000Y7000000D01*
X-12498000Y-7000000D01*
X-12498586Y-7001414D01*
X-12500000Y-7002000D01*
X-26500000Y-7002000D01*
X-26501414Y-7001414D01*
X-26502000Y-7000000D01*
X-26502000Y-6949603D01*
X-26493000Y-6949603D01*
X-26480290Y-6980289D01*
X-26449603Y-6993000D01*
X-12550397Y-6993000D01*
X-12519711Y-6980289D01*
X-12507000Y-6949603D01*
X-12507000Y6949603D01*
X-12519711Y6980290D01*
X-12550397Y6993000D01*
X-26449603Y6993000D01*
X-26480290Y6980290D01*
X-26493000Y6949603D01*
X-26493000Y-6949603D01*
X-26502000Y-6949603D01*
X-26502000Y7000000D01*
X-26501414Y7001414D01*
X-26500000Y7002000D01*
X-12500000Y7002000D01*
X-12498586Y7001414D01*
G37*
G36*
X580549Y33601978D02*
G01*
X580584Y33601977D01*
X1739033Y33561969D01*
X1739067Y33561967D01*
X1739999Y33561919D01*
X1740034Y33561917D01*
X2896443Y33481944D01*
X2896476Y33481942D01*
X2897394Y33481863D01*
X2897430Y33481859D01*
X4050392Y33362018D01*
X4050425Y33362015D01*
X4051312Y33361908D01*
X4051347Y33361903D01*
X5199514Y33202335D01*
X5199548Y33202330D01*
X5200462Y33202187D01*
X5200497Y33202181D01*
X6342391Y33003091D01*
X6342425Y33003085D01*
X6343371Y33002903D01*
X6343404Y33002896D01*
X7477727Y32764516D01*
X7477761Y32764509D01*
X7478772Y32764278D01*
X7478806Y32764270D01*
X8604178Y32486891D01*
X8604212Y32486882D01*
X8605146Y32486634D01*
X8605178Y32486625D01*
X9720412Y32170537D01*
X9720445Y32170528D01*
X9721379Y32170246D01*
X9721412Y32170235D01*
X9920563Y32106286D01*
X9920569Y32106285D01*
X10825014Y31815861D01*
X10825048Y31815850D01*
X10825941Y31815546D01*
X10825973Y31815535D01*
X11916720Y31423268D01*
X11916753Y31423256D01*
X11917654Y31422914D01*
X11917685Y31422902D01*
X12743779Y31093188D01*
X12743789Y31093182D01*
X12994240Y30993221D01*
X12994273Y30993207D01*
X12995159Y30992835D01*
X12995190Y30992822D01*
X14056245Y30526249D01*
X14056274Y30526236D01*
X14057152Y30525833D01*
X14057186Y30525817D01*
X15101546Y30022879D01*
X15101575Y30022865D01*
X15102380Y30022461D01*
X15102412Y30022444D01*
X16128839Y29483733D01*
X16128869Y29483717D01*
X16129660Y29483285D01*
X16129691Y29483268D01*
X17136845Y28909488D01*
X17136876Y28909470D01*
X17137717Y28908971D01*
X17137745Y28908954D01*
X18124467Y28300770D01*
X18124496Y28300751D01*
X18125355Y28300201D01*
X18125385Y28300182D01*
X19090522Y27658306D01*
X19090549Y27658288D01*
X19091325Y27657753D01*
X19091354Y27657732D01*
X20033829Y26982877D01*
X20033859Y26982856D01*
X20034577Y26982322D01*
X20034603Y26982302D01*
X20953240Y26275305D01*
X20953266Y26275284D01*
X20954004Y26274696D01*
X20954032Y26274674D01*
X21847637Y25536459D01*
X21847663Y25536437D01*
X21848404Y25535803D01*
X21848430Y25535780D01*
X22716060Y24767126D01*
X22716087Y24767102D01*
X22716767Y24766477D01*
X22716791Y24766454D01*
X23557384Y23968302D01*
X23557409Y23968279D01*
X23558087Y23967613D01*
X23558111Y23967588D01*
X24370650Y23140901D01*
X24370674Y23140876D01*
X24371320Y23140196D01*
X24371344Y23140171D01*
X25154847Y22285950D01*
X25154871Y22285923D01*
X25155532Y22285176D01*
X25155554Y22285151D01*
X25909109Y21404393D01*
X25909131Y21404367D01*
X25909701Y21403677D01*
X25909723Y21403650D01*
X26632460Y20497367D01*
X26632482Y20497339D01*
X26633046Y20496605D01*
X26633066Y20496578D01*
X27324073Y19565914D01*
X27324093Y19565887D01*
X27324661Y19565094D01*
X27324681Y19565065D01*
X27983121Y18611149D01*
X27983140Y18611120D01*
X27983654Y18610347D01*
X27983673Y18610319D01*
X28608862Y17634140D01*
X28608879Y17634113D01*
X28609355Y17633343D01*
X28609374Y17633311D01*
X29200462Y16636194D01*
X29200480Y16636163D01*
X29200925Y16635381D01*
X29200942Y16635352D01*
X29757290Y15618373D01*
X29757306Y15618343D01*
X29757724Y15617547D01*
X29757740Y15617516D01*
X30278637Y14581978D01*
X30278652Y14581946D01*
X30279050Y14581119D01*
X30279065Y14581089D01*
X30763925Y13528151D01*
X30763938Y13528120D01*
X30764289Y13527323D01*
X30764303Y13527290D01*
X31212528Y12458252D01*
X31212541Y12458221D01*
X31212868Y12457402D01*
X31212881Y12457369D01*
X31623940Y11373492D01*
X31623952Y11373461D01*
X31624264Y11372595D01*
X31624275Y11372561D01*
X31997639Y10275261D01*
X31997650Y10275228D01*
X31997971Y10274228D01*
X31997982Y10274196D01*
X32333241Y9164685D01*
X32333251Y9164650D01*
X32333515Y9163716D01*
X32333523Y9163684D01*
X32630311Y8043175D01*
X32630320Y8043141D01*
X32630546Y8042223D01*
X32630554Y8042190D01*
X32888486Y6912113D01*
X32888493Y6912080D01*
X32888695Y6911120D01*
X32888702Y6911085D01*
X33107472Y5772796D01*
X33107478Y5772765D01*
X33107638Y5771853D01*
X33107644Y5771816D01*
X33287001Y4626606D01*
X33287006Y4626573D01*
X33287129Y4625691D01*
X33287133Y4625656D01*
X33426860Y3474893D01*
X33426864Y3474860D01*
X33426954Y3473998D01*
X33426958Y3473962D01*
X33526882Y2319068D01*
X33526884Y2319035D01*
X33526947Y2318129D01*
X33526949Y2318094D01*
X33586949Y1160480D01*
X33586951Y1160446D01*
X33586985Y1159478D01*
X33586986Y1159443D01*
X33606993Y526D01*
X33606993Y-526D01*
X33586986Y-1159442D01*
X33586985Y-1159477D01*
X33586951Y-1160445D01*
X33586949Y-1160479D01*
X33526949Y-2318093D01*
X33526947Y-2318128D01*
X33526884Y-2319034D01*
X33526882Y-2319067D01*
X33426958Y-3473961D01*
X33426954Y-3473997D01*
X33426864Y-3474859D01*
X33426860Y-3474892D01*
X33287133Y-4625655D01*
X33287129Y-4625690D01*
X33287006Y-4626572D01*
X33287001Y-4626605D01*
X33107644Y-5771815D01*
X33107638Y-5771852D01*
X33107478Y-5772764D01*
X33107472Y-5772795D01*
X32888702Y-6911084D01*
X32888695Y-6911119D01*
X32888493Y-6912079D01*
X32888486Y-6912112D01*
X32630554Y-8042189D01*
X32630546Y-8042222D01*
X32630320Y-8043140D01*
X32630311Y-8043174D01*
X32333523Y-9163683D01*
X32333515Y-9163715D01*
X32333251Y-9164649D01*
X32333241Y-9164684D01*
X31997982Y-10274195D01*
X31997971Y-10274227D01*
X31997650Y-10275227D01*
X31997639Y-10275260D01*
X31624275Y-11372560D01*
X31624264Y-11372594D01*
X31623952Y-11373460D01*
X31623940Y-11373491D01*
X31212881Y-12457368D01*
X31212868Y-12457401D01*
X31212541Y-12458220D01*
X31212528Y-12458251D01*
X30764303Y-13527289D01*
X30764289Y-13527322D01*
X30763938Y-13528119D01*
X30763925Y-13528150D01*
X30279065Y-14581088D01*
X30279050Y-14581118D01*
X30278652Y-14581945D01*
X30278637Y-14581977D01*
X29757740Y-15617515D01*
X29757724Y-15617546D01*
X29757306Y-15618342D01*
X29757290Y-15618372D01*
X29200942Y-16635351D01*
X29200925Y-16635380D01*
X29200480Y-16636162D01*
X29200462Y-16636193D01*
X28609374Y-17633310D01*
X28609355Y-17633342D01*
X28608879Y-17634112D01*
X28608862Y-17634139D01*
X27983673Y-18610318D01*
X27983654Y-18610346D01*
X27983140Y-18611119D01*
X27983121Y-18611148D01*
X27324681Y-19565064D01*
X27324661Y-19565093D01*
X27324093Y-19565886D01*
X27324073Y-19565913D01*
X26633066Y-20496577D01*
X26633046Y-20496604D01*
X26632482Y-20497338D01*
X26632460Y-20497366D01*
X25909723Y-21403649D01*
X25909701Y-21403676D01*
X25909131Y-21404366D01*
X25909109Y-21404392D01*
X25155554Y-22285150D01*
X25155532Y-22285175D01*
X25154871Y-22285922D01*
X25154847Y-22285949D01*
X24371344Y-23140170D01*
X24371320Y-23140195D01*
X24370674Y-23140875D01*
X24370650Y-23140900D01*
X23558111Y-23967587D01*
X23558087Y-23967612D01*
X23557409Y-23968278D01*
X23557384Y-23968301D01*
X22716791Y-24766453D01*
X22716767Y-24766476D01*
X22716087Y-24767101D01*
X22716060Y-24767125D01*
X21848430Y-25535779D01*
X21848404Y-25535802D01*
X21847663Y-25536436D01*
X21847637Y-25536458D01*
X20954032Y-26274673D01*
X20954004Y-26274695D01*
X20953266Y-26275283D01*
X20953240Y-26275304D01*
X20034603Y-26982301D01*
X20034577Y-26982321D01*
X20033859Y-26982855D01*
X20033829Y-26982876D01*
X19091354Y-27657731D01*
X19091325Y-27657752D01*
X19090549Y-27658287D01*
X19090522Y-27658305D01*
X18125385Y-28300181D01*
X18125355Y-28300200D01*
X18124496Y-28300750D01*
X18124467Y-28300769D01*
X17137745Y-28908953D01*
X17137717Y-28908970D01*
X17136876Y-28909469D01*
X17136845Y-28909487D01*
X16129691Y-29483267D01*
X16129660Y-29483284D01*
X16128869Y-29483716D01*
X16128839Y-29483732D01*
X15102412Y-30022443D01*
X15102380Y-30022460D01*
X15101575Y-30022864D01*
X15101546Y-30022878D01*
X14057186Y-30525816D01*
X14057152Y-30525832D01*
X14056274Y-30526235D01*
X14056245Y-30526248D01*
X12995190Y-30992821D01*
X12995159Y-30992834D01*
X12994273Y-30993206D01*
X12994240Y-30993220D01*
X11917685Y-31422901D01*
X11917654Y-31422913D01*
X11916753Y-31423255D01*
X11916720Y-31423267D01*
X10825973Y-31815534D01*
X10825941Y-31815545D01*
X10825048Y-31815849D01*
X10825014Y-31815860D01*
X9721412Y-32170234D01*
X9721379Y-32170245D01*
X9720445Y-32170527D01*
X9720412Y-32170536D01*
X8605178Y-32486624D01*
X8605146Y-32486633D01*
X8604212Y-32486881D01*
X8604178Y-32486890D01*
X7478806Y-32764269D01*
X7478772Y-32764277D01*
X7477761Y-32764508D01*
X7477727Y-32764515D01*
X6343404Y-33002895D01*
X6343371Y-33002902D01*
X6342425Y-33003084D01*
X6342391Y-33003090D01*
X5200497Y-33202180D01*
X5200462Y-33202186D01*
X5199548Y-33202329D01*
X5199514Y-33202334D01*
X4051347Y-33361902D01*
X4051312Y-33361907D01*
X4050425Y-33362014D01*
X4050392Y-33362017D01*
X2897430Y-33481858D01*
X2897394Y-33481862D01*
X2896476Y-33481941D01*
X2896443Y-33481943D01*
X1740034Y-33561916D01*
X1739999Y-33561918D01*
X1739067Y-33561966D01*
X1739033Y-33561968D01*
X580584Y-33601976D01*
X580551Y-33601977D01*
X579615Y-33601994D01*
X-579615Y-33601994D01*
X-580552Y-33601977D01*
X-580585Y-33601976D01*
X-1739034Y-33561968D01*
X-1739068Y-33561966D01*
X-1740000Y-33561918D01*
X-1740035Y-33561916D01*
X-2896444Y-33481943D01*
X-2896477Y-33481941D01*
X-2897395Y-33481862D01*
X-2897431Y-33481858D01*
X-4050393Y-33362017D01*
X-4050426Y-33362014D01*
X-4051313Y-33361907D01*
X-4051348Y-33361902D01*
X-5199515Y-33202334D01*
X-5199549Y-33202329D01*
X-5200463Y-33202186D01*
X-5200498Y-33202180D01*
X-6342392Y-33003090D01*
X-6342426Y-33003084D01*
X-6343372Y-33002902D01*
X-6343405Y-33002895D01*
X-7477728Y-32764515D01*
X-7477762Y-32764508D01*
X-7478773Y-32764277D01*
X-7478807Y-32764269D01*
X-8604179Y-32486890D01*
X-8604213Y-32486881D01*
X-8605147Y-32486633D01*
X-8605179Y-32486624D01*
X-9720413Y-32170536D01*
X-9720446Y-32170527D01*
X-9721380Y-32170245D01*
X-9721413Y-32170234D01*
X-10825015Y-31815860D01*
X-10825049Y-31815849D01*
X-10825942Y-31815545D01*
X-10825974Y-31815534D01*
X-11916721Y-31423267D01*
X-11916754Y-31423255D01*
X-11917655Y-31422913D01*
X-11917686Y-31422901D01*
X-12994241Y-30993220D01*
X-12994274Y-30993206D01*
X-12995160Y-30992834D01*
X-12995191Y-30992821D01*
X-14056246Y-30526248D01*
X-14056275Y-30526235D01*
X-14057153Y-30525832D01*
X-14057187Y-30525816D01*
X-15101547Y-30022878D01*
X-15101576Y-30022864D01*
X-15102381Y-30022460D01*
X-15102413Y-30022443D01*
X-16128840Y-29483732D01*
X-16128870Y-29483716D01*
X-16129661Y-29483284D01*
X-16129692Y-29483267D01*
X-17136846Y-28909487D01*
X-17136877Y-28909469D01*
X-17137718Y-28908970D01*
X-17137746Y-28908953D01*
X-18124468Y-28300769D01*
X-18124497Y-28300750D01*
X-18125356Y-28300200D01*
X-18125386Y-28300181D01*
X-19090523Y-27658305D01*
X-19090550Y-27658287D01*
X-19091326Y-27657752D01*
X-19091355Y-27657731D01*
X-20033830Y-26982876D01*
X-20033860Y-26982855D01*
X-20034578Y-26982321D01*
X-20034604Y-26982301D01*
X-20953241Y-26275304D01*
X-20953267Y-26275283D01*
X-20954005Y-26274695D01*
X-20954033Y-26274673D01*
X-21847638Y-25536458D01*
X-21847664Y-25536436D01*
X-21848405Y-25535802D01*
X-21848431Y-25535779D01*
X-22716061Y-24767125D01*
X-22716088Y-24767101D01*
X-22716768Y-24766476D01*
X-22716792Y-24766453D01*
X-23557385Y-23968301D01*
X-23557410Y-23968278D01*
X-23558088Y-23967612D01*
X-23558112Y-23967587D01*
X-24370651Y-23140900D01*
X-24370675Y-23140875D01*
X-24371321Y-23140195D01*
X-24371345Y-23140170D01*
X-25154848Y-22285949D01*
X-25154872Y-22285922D01*
X-25155533Y-22285175D01*
X-25155555Y-22285150D01*
X-25909110Y-21404392D01*
X-25909132Y-21404366D01*
X-25909702Y-21403676D01*
X-25909724Y-21403649D01*
X-26632461Y-20497366D01*
X-26632483Y-20497338D01*
X-26633047Y-20496604D01*
X-26633067Y-20496577D01*
X-27324074Y-19565913D01*
X-27324094Y-19565886D01*
X-27324662Y-19565093D01*
X-27324682Y-19565064D01*
X-27983122Y-18611148D01*
X-27983141Y-18611119D01*
X-27983655Y-18610346D01*
X-27983674Y-18610318D01*
X-28608863Y-17634139D01*
X-28608880Y-17634112D01*
X-28609356Y-17633342D01*
X-28609375Y-17633310D01*
X-29200463Y-16636193D01*
X-29200481Y-16636162D01*
X-29200926Y-16635380D01*
X-29200943Y-16635351D01*
X-29757291Y-15618372D01*
X-29757307Y-15618342D01*
X-29757725Y-15617546D01*
X-29757741Y-15617515D01*
X-30278638Y-14581977D01*
X-30278653Y-14581945D01*
X-30279051Y-14581118D01*
X-30279066Y-14581088D01*
X-30763926Y-13528150D01*
X-30763939Y-13528119D01*
X-30764290Y-13527322D01*
X-30764304Y-13527289D01*
X-31212529Y-12458251D01*
X-31212542Y-12458220D01*
X-31212869Y-12457401D01*
X-31212882Y-12457368D01*
X-31623941Y-11373491D01*
X-31623953Y-11373460D01*
X-31624265Y-11372594D01*
X-31624276Y-11372560D01*
X-31889834Y-10592095D01*
X-31889695Y-10592047D01*
X-31889695Y-10592046D01*
X-31889834Y-10592094D01*
X-31997657Y-10275207D01*
X-31997668Y-10275174D01*
X-31997972Y-10274227D01*
X-31997983Y-10274195D01*
X-32333242Y-9164684D01*
X-32333252Y-9164649D01*
X-32333516Y-9163715D01*
X-32333524Y-9163683D01*
X-32630312Y-8043174D01*
X-32630321Y-8043140D01*
X-32630547Y-8042222D01*
X-32630555Y-8042189D01*
X-32888487Y-6912112D01*
X-32888494Y-6912079D01*
X-32888696Y-6911119D01*
X-32888703Y-6911084D01*
X-33008026Y-6290235D01*
X-33008026Y-6290232D01*
X-33107473Y-5772795D01*
X-33107479Y-5772764D01*
X-33107639Y-5771852D01*
X-33107645Y-5771815D01*
X-33287002Y-4626605D01*
X-33287007Y-4626572D01*
X-33287130Y-4625690D01*
X-33287134Y-4625655D01*
X-33426861Y-3474892D01*
X-33426865Y-3474859D01*
X-33426955Y-3473997D01*
X-33426959Y-3473961D01*
X-33526883Y-2319067D01*
X-33526885Y-2319034D01*
X-33526948Y-2318128D01*
X-33526950Y-2318093D01*
X-33586950Y-1160479D01*
X-33586952Y-1160445D01*
X-33586986Y-1159477D01*
X-33586987Y-1159442D01*
X-33606993Y-526D01*
X-33606993Y0D01*
X-33598000Y0D01*
X-33577980Y-1159690D01*
X-33517947Y-2317930D01*
X-33417963Y-3473517D01*
X-33278164Y-4624870D01*
X-33098699Y-5770764D01*
X-32999188Y-6288535D01*
X-32999188Y-6288537D01*
X-32879795Y-6909753D01*
X-32621700Y-8040540D01*
X-32324746Y-9161678D01*
X-31989240Y-10272006D01*
X-31881315Y-10589195D01*
X-31615643Y-11369992D01*
X-31204348Y-12454489D01*
X-30755892Y-13524078D01*
X-30270750Y-14577629D01*
X-29749551Y-15613768D01*
X-29192888Y-16631322D01*
X-28601460Y-17629013D01*
X-27975926Y-18605730D01*
X-27317060Y-19560261D01*
X-26625642Y-20491481D01*
X-25902482Y-21398294D01*
X-25148465Y-22279593D01*
X-24364466Y-23134355D01*
X-23551445Y-23961532D01*
X-22710358Y-24760153D01*
X-21842207Y-25529269D01*
X-20948009Y-26267974D01*
X-20028849Y-26975374D01*
X-19085846Y-27650607D01*
X-18120079Y-28292902D01*
X-17132717Y-28901480D01*
X-16124931Y-29475620D01*
X-15097954Y-30014619D01*
X-14052961Y-30517861D01*
X-12991234Y-30984729D01*
X-11914008Y-31414678D01*
X-10822591Y-31807186D01*
X-9718295Y-32161783D01*
X-8602415Y-32478054D01*
X-7476244Y-32755631D01*
X-6341209Y-32994161D01*
X-5198602Y-33193375D01*
X-4049784Y-33353033D01*
X-2896162Y-33472942D01*
X-1739090Y-33552960D01*
X-579918Y-33592994D01*
X579918Y-33592994D01*
X1739089Y-33552960D01*
X2896161Y-33472942D01*
X4049783Y-33353033D01*
X5198601Y-33193375D01*
X6341208Y-32994161D01*
X7476243Y-32755631D01*
X8602414Y-32478054D01*
X9718294Y-32161783D01*
X10822590Y-31807186D01*
X11914007Y-31414678D01*
X12991233Y-30984729D01*
X14052960Y-30517861D01*
X15097953Y-30014619D01*
X16124930Y-29475620D01*
X17132716Y-28901480D01*
X18120078Y-28292902D01*
X19085845Y-27650607D01*
X20028848Y-26975374D01*
X20948008Y-26267974D01*
X21842206Y-25529269D01*
X22710357Y-24760153D01*
X23551444Y-23961532D01*
X24364465Y-23134355D01*
X25148464Y-22279593D01*
X25902481Y-21398294D01*
X26625641Y-20491481D01*
X27317059Y-19560261D01*
X27975925Y-18605730D01*
X28601459Y-17629013D01*
X29192887Y-16631322D01*
X29749550Y-15613768D01*
X30270749Y-14577629D01*
X30755892Y-13524078D01*
X31204347Y-12454489D01*
X31615642Y-11369992D01*
X31989239Y-10272006D01*
X32324746Y-9161678D01*
X32621699Y-8040540D01*
X32879794Y-6909753D01*
X33098698Y-5770764D01*
X33278163Y-4624870D01*
X33417962Y-3473517D01*
X33517947Y-2317930D01*
X33577979Y-1159690D01*
X33597999Y1D01*
X33577979Y1159691D01*
X33517947Y2317930D01*
X33417962Y3473528D01*
X33417961Y3473528D01*
X33278163Y4624871D01*
X33098698Y5770765D01*
X32879794Y6909754D01*
X32621699Y8040541D01*
X32324746Y9161678D01*
X31989239Y10272010D01*
X31989238Y10272010D01*
X31615642Y11369993D01*
X31204347Y12454490D01*
X30755892Y13524078D01*
X30270749Y14577630D01*
X29749550Y15613769D01*
X29192887Y16631323D01*
X28601459Y17629014D01*
X27975925Y18605731D01*
X27317059Y19560262D01*
X26625641Y20491482D01*
X25902481Y21398295D01*
X25148464Y22279594D01*
X24364465Y23134356D01*
X23551444Y23961533D01*
X22710357Y24760154D01*
X21842206Y25529270D01*
X20948008Y26267975D01*
X20028848Y26975375D01*
X19085845Y27650608D01*
X18120078Y28292903D01*
X17132716Y28901481D01*
X16124930Y29475621D01*
X15097953Y30014620D01*
X14052960Y30517862D01*
X12991233Y30984730D01*
X12740447Y31084825D01*
X12740444Y31084827D01*
X11914007Y31414679D01*
X10822590Y31807187D01*
X9917817Y32097716D01*
X9718294Y32161784D01*
X8602414Y32478055D01*
X7476243Y32755632D01*
X6341208Y32994162D01*
X5198601Y33193376D01*
X4049783Y33353034D01*
X2896161Y33472943D01*
X1739089Y33552961D01*
X579918Y33592994D01*
X-579918Y33592994D01*
X-1739090Y33552961D01*
X-2896162Y33472943D01*
X-4049784Y33353034D01*
X-5198602Y33193376D01*
X-6341209Y32994162D01*
X-7217811Y32809942D01*
X-7476244Y32755632D01*
X-8456709Y32513970D01*
X-8456711Y32513968D01*
X-8602415Y32478055D01*
X-9718295Y32161784D01*
X-10822591Y31807187D01*
X-11914008Y31414679D01*
X-12991234Y30984730D01*
X-14052961Y30517862D01*
X-15097954Y30014620D01*
X-16124931Y29475621D01*
X-17132717Y28901481D01*
X-18120079Y28292903D01*
X-19085846Y27650608D01*
X-20028849Y26975375D01*
X-20948009Y26267975D01*
X-21152911Y26098704D01*
X-21842207Y25529270D01*
X-22710358Y24760154D01*
X-23551445Y23961533D01*
X-24364466Y23134356D01*
X-25148465Y22279594D01*
X-25902482Y21398295D01*
X-26625642Y20491482D01*
X-27317060Y19560262D01*
X-27527054Y19256034D01*
X-27975926Y18605731D01*
X-28601460Y17629014D01*
X-29192888Y16631323D01*
X-29749551Y15613769D01*
X-30270750Y14577630D01*
X-30755892Y13524078D01*
X-31204348Y12454490D01*
X-31615643Y11369993D01*
X-31989239Y10272010D01*
X-32324746Y9161678D01*
X-32621700Y8040541D01*
X-32859298Y6999555D01*
X-32879795Y6909754D01*
X-33098699Y5770765D01*
X-33278164Y4624871D01*
X-33417962Y3473528D01*
X-33517947Y2317930D01*
X-33577980Y1159691D01*
X-33598000Y0D01*
X-33606993Y0D01*
X-33606993Y526D01*
X-33586987Y1159443D01*
X-33586986Y1159478D01*
X-33586952Y1160446D01*
X-33586950Y1160480D01*
X-33526950Y2318094D01*
X-33526948Y2318129D01*
X-33526885Y2319035D01*
X-33526883Y2319068D01*
X-33426959Y3473962D01*
X-33426955Y3473998D01*
X-33426865Y3474860D01*
X-33426861Y3474893D01*
X-33287134Y4625656D01*
X-33287130Y4625691D01*
X-33287007Y4626573D01*
X-33287002Y4626606D01*
X-33107645Y5771816D01*
X-33107639Y5771853D01*
X-33107479Y5772765D01*
X-33107473Y5772796D01*
X-32888703Y6911085D01*
X-32888696Y6911120D01*
X-32888494Y6912080D01*
X-32888487Y6912113D01*
X-32882023Y6940433D01*
X-32630555Y8042190D01*
X-32630547Y8042223D01*
X-32630321Y8043141D01*
X-32630312Y8043175D01*
X-32333524Y9163684D01*
X-32333516Y9163716D01*
X-32333252Y9164650D01*
X-32333242Y9164685D01*
X-31997983Y10274196D01*
X-31997972Y10274228D01*
X-31997651Y10275228D01*
X-31997640Y10275261D01*
X-31624276Y11372561D01*
X-31624265Y11372595D01*
X-31623953Y11373461D01*
X-31623941Y11373492D01*
X-31212882Y12457369D01*
X-31212869Y12457402D01*
X-31212542Y12458221D01*
X-31212529Y12458252D01*
X-30764304Y13527290D01*
X-30764290Y13527323D01*
X-30763939Y13528120D01*
X-30763926Y13528151D01*
X-30279066Y14581089D01*
X-30279051Y14581119D01*
X-30278653Y14581946D01*
X-30278638Y14581978D01*
X-29757741Y15617516D01*
X-29757725Y15617547D01*
X-29757307Y15618343D01*
X-29757291Y15618373D01*
X-29200943Y16635352D01*
X-29200926Y16635381D01*
X-29200481Y16636163D01*
X-29200463Y16636194D01*
X-28609375Y17633311D01*
X-28609356Y17633343D01*
X-28608880Y17634113D01*
X-28608863Y17634140D01*
X-27983674Y18610319D01*
X-27983655Y18610347D01*
X-27983141Y18611120D01*
X-27983122Y18611149D01*
X-27534462Y19261145D01*
X-27534461Y19261147D01*
X-27324682Y19565065D01*
X-27324662Y19565094D01*
X-27324094Y19565887D01*
X-27324074Y19565914D01*
X-26633067Y20496578D01*
X-26633047Y20496605D01*
X-26632483Y20497339D01*
X-26632461Y20497367D01*
X-25909724Y21403650D01*
X-25909702Y21403677D01*
X-25909132Y21404367D01*
X-25909110Y21404393D01*
X-25155555Y22285151D01*
X-25155533Y22285176D01*
X-25154872Y22285923D01*
X-25154848Y22285950D01*
X-24371345Y23140171D01*
X-24371321Y23140196D01*
X-24370675Y23140876D01*
X-24370651Y23140901D01*
X-23558112Y23967588D01*
X-23558088Y23967613D01*
X-23557410Y23968279D01*
X-23557385Y23968302D01*
X-22716792Y24766454D01*
X-22716768Y24766477D01*
X-22716088Y24767102D01*
X-22716061Y24767126D01*
X-21848431Y25535780D01*
X-21848405Y25535803D01*
X-21847692Y25536413D01*
X-21847666Y25536435D01*
X-21158660Y26105630D01*
X-21158629Y26105656D01*
X-20954033Y26274674D01*
X-20954005Y26274696D01*
X-20953267Y26275284D01*
X-20953241Y26275305D01*
X-20034604Y26982302D01*
X-20034578Y26982322D01*
X-20033860Y26982856D01*
X-20033830Y26982877D01*
X-19091355Y27657732D01*
X-19091326Y27657753D01*
X-19090550Y27658288D01*
X-19090523Y27658306D01*
X-18125386Y28300182D01*
X-18125356Y28300201D01*
X-18124497Y28300751D01*
X-18124468Y28300770D01*
X-17137746Y28908954D01*
X-17137718Y28908971D01*
X-17136877Y28909470D01*
X-17136846Y28909488D01*
X-16129692Y29483268D01*
X-16129661Y29483285D01*
X-16128870Y29483717D01*
X-16128840Y29483733D01*
X-15102413Y30022444D01*
X-15102381Y30022461D01*
X-15101576Y30022865D01*
X-15101547Y30022879D01*
X-14057187Y30525817D01*
X-14057153Y30525833D01*
X-14056275Y30526236D01*
X-14056246Y30526249D01*
X-12995191Y30992822D01*
X-12995160Y30992835D01*
X-12994274Y30993207D01*
X-12994241Y30993221D01*
X-11917686Y31422902D01*
X-11917655Y31422914D01*
X-11916754Y31423256D01*
X-11916721Y31423268D01*
X-10825974Y31815535D01*
X-10825942Y31815546D01*
X-10825049Y31815850D01*
X-10825015Y31815861D01*
X-9721413Y32170235D01*
X-9721380Y32170246D01*
X-9720446Y32170528D01*
X-9720413Y32170537D01*
X-8605179Y32486625D01*
X-8605147Y32486634D01*
X-8604213Y32486882D01*
X-8604179Y32486891D01*
X-8458880Y32522704D01*
X-8458859Y32522710D01*
X-7673520Y32716278D01*
X-7478807Y32764270D01*
X-7478773Y32764278D01*
X-7477762Y32764509D01*
X-7477728Y32764516D01*
X-7219662Y32818749D01*
X-7219659Y32818750D01*
X-6343405Y33002896D01*
X-6343372Y33002903D01*
X-6342426Y33003085D01*
X-6342392Y33003091D01*
X-5200498Y33202181D01*
X-5200463Y33202187D01*
X-5199549Y33202330D01*
X-5199515Y33202335D01*
X-4051348Y33361903D01*
X-4051313Y33361908D01*
X-4050426Y33362015D01*
X-4050393Y33362018D01*
X-2897431Y33481859D01*
X-2897395Y33481863D01*
X-2896477Y33481942D01*
X-2896444Y33481944D01*
X-1740035Y33561917D01*
X-1740000Y33561919D01*
X-1739068Y33561967D01*
X-1739034Y33561969D01*
X-580585Y33601977D01*
X-580550Y33601978D01*
X-579613Y33601994D01*
X579613Y33601994D01*
X580549Y33601978D01*
G37*
M02*
