%TF.GenerationSoftware,KiCad,Pcbnew,(7.0.0-0)*%
%TF.CreationDate,2023-04-23T13:29:19-05:00*%
%TF.ProjectId,RP2040,52503230-3430-42e6-9b69-6361645f7063,REV1*%
%TF.SameCoordinates,Original*%
%TF.FileFunction,Soldermask,Top*%
%TF.FilePolarity,Negative*%
%FSLAX46Y46*%
G04 Gerber Fmt 4.6, Leading zero omitted, Abs format (unit mm)*
G04 Created by KiCad (PCBNEW (7.0.0-0)) date 2023-04-23 13:29:19*
%MOMM*%
%LPD*%
G01*
G04 APERTURE LIST*
G04 Aperture macros list*
%AMRoundRect*
0 Rectangle with rounded corners*
0 $1 Rounding radius*
0 $2 $3 $4 $5 $6 $7 $8 $9 X,Y pos of 4 corners*
0 Add a 4 corners polygon primitive as box body*
4,1,4,$2,$3,$4,$5,$6,$7,$8,$9,$2,$3,0*
0 Add four circle primitives for the rounded corners*
1,1,$1+$1,$2,$3*
1,1,$1+$1,$4,$5*
1,1,$1+$1,$6,$7*
1,1,$1+$1,$8,$9*
0 Add four rect primitives between the rounded corners*
20,1,$1+$1,$2,$3,$4,$5,0*
20,1,$1+$1,$4,$5,$6,$7,0*
20,1,$1+$1,$6,$7,$8,$9,0*
20,1,$1+$1,$8,$9,$2,$3,0*%
G04 Aperture macros list end*
%TA.AperFunction,Profile*%
%ADD10C,0.120000*%
%TD*%
%ADD11RoundRect,0.191000X-0.170000X0.140000X-0.170000X-0.140000X0.170000X-0.140000X0.170000X0.140000X0*%
%ADD12RoundRect,0.051000X0.300000X0.575000X-0.300000X0.575000X-0.300000X-0.575000X0.300000X-0.575000X0*%
%ADD13RoundRect,0.051000X0.150000X0.575000X-0.150000X0.575000X-0.150000X-0.575000X0.150000X-0.575000X0*%
%ADD14O,1.102000X1.902000*%
%ADD15O,1.102000X2.302000*%
%ADD16RoundRect,0.191000X-0.140000X-0.170000X0.140000X-0.170000X0.140000X0.170000X-0.140000X0.170000X0*%
%ADD17RoundRect,0.201000X0.512500X0.150000X-0.512500X0.150000X-0.512500X-0.150000X0.512500X-0.150000X0*%
%ADD18RoundRect,0.191000X0.140000X0.170000X-0.140000X0.170000X-0.140000X-0.170000X0.140000X-0.170000X0*%
%ADD19RoundRect,0.201000X0.587500X0.150000X-0.587500X0.150000X-0.587500X-0.150000X0.587500X-0.150000X0*%
%ADD20RoundRect,0.301000X0.650000X-0.325000X0.650000X0.325000X-0.650000X0.325000X-0.650000X-0.325000X0*%
%ADD21RoundRect,0.201000X0.150000X-0.587500X0.150000X0.587500X-0.150000X0.587500X-0.150000X-0.587500X0*%
%ADD22RoundRect,0.051000X-0.600000X0.700000X-0.600000X-0.700000X0.600000X-0.700000X0.600000X0.700000X0*%
%ADD23RoundRect,0.050000X0.500000X0.350000X-0.500000X0.350000X-0.500000X-0.350000X0.500000X-0.350000X0*%
%ADD24RoundRect,0.050000X0.300000X0.350000X-0.300000X0.350000X-0.300000X-0.350000X0.300000X-0.350000X0*%
%ADD25RoundRect,0.301000X-0.325000X-0.650000X0.325000X-0.650000X0.325000X0.650000X-0.325000X0.650000X0*%
%ADD26RoundRect,0.191000X0.170000X-0.140000X0.170000X0.140000X-0.170000X0.140000X-0.170000X-0.140000X0*%
%ADD27RoundRect,0.201000X-0.650000X-0.150000X0.650000X-0.150000X0.650000X0.150000X-0.650000X0.150000X0*%
%ADD28RoundRect,0.301000X0.325000X0.650000X-0.325000X0.650000X-0.325000X-0.650000X0.325000X-0.650000X0*%
%ADD29RoundRect,0.301000X-0.650000X0.325000X-0.650000X-0.325000X0.650000X-0.325000X0.650000X0.325000X0*%
%ADD30RoundRect,0.186000X0.135000X0.185000X-0.135000X0.185000X-0.135000X-0.185000X0.135000X-0.185000X0*%
%ADD31RoundRect,0.101000X-0.050000X0.387500X-0.050000X-0.387500X0.050000X-0.387500X0.050000X0.387500X0*%
%ADD32RoundRect,0.101000X-0.387500X0.050000X-0.387500X-0.050000X0.387500X-0.050000X0.387500X0.050000X0*%
%ADD33RoundRect,0.195000X-1.456000X1.456000X-1.456000X-1.456000X1.456000X-1.456000X1.456000X1.456000X0*%
%ADD34RoundRect,0.051000X0.850000X-0.850000X0.850000X0.850000X-0.850000X0.850000X-0.850000X-0.850000X0*%
%ADD35O,1.802000X1.802000*%
%ADD36RoundRect,0.301000X-0.375000X-0.625000X0.375000X-0.625000X0.375000X0.625000X-0.375000X0.625000X0*%
%ADD37RoundRect,0.201000X0.150000X-0.512500X0.150000X0.512500X-0.150000X0.512500X-0.150000X-0.512500X0*%
%ADD38C,4.402000*%
%ADD39C,1.802000*%
%ADD40C,6.502000*%
G04 APERTURE END LIST*
D10*
%TO.C,P1*%
X4620000Y27520000D02*
X4625000Y33620000D01*
X4025000Y27495000D02*
X-4025000Y27495000D01*
X-4620000Y27520000D02*
X-4625000Y33620000D01*
X4025000Y27495000D02*
G75*
G03*
X4620000Y27520000I297500J12500D01*
G01*
X-4620000Y27520000D02*
G75*
G03*
X-4025000Y27495000I297500J-12500D01*
G01*
%TD*%
D11*
%TO.C,C9*%
X-2515000Y10330000D03*
X-2515000Y9370000D03*
%TD*%
D12*
%TO.C,P1*%
X3200000Y26895000D03*
X2400000Y26895000D03*
D13*
X1250000Y26895000D03*
X250000Y26895000D03*
X-250000Y26895000D03*
X-1250000Y26895000D03*
D12*
X-2400000Y26895000D03*
X-3200000Y26895000D03*
X-3200000Y26895000D03*
X-2400000Y26895000D03*
D13*
X-1750000Y26895000D03*
X-750000Y26895000D03*
X750000Y26895000D03*
X1750000Y26895000D03*
D12*
X2400000Y26895000D03*
X3200000Y26895000D03*
D14*
X5619999Y28119999D03*
D15*
X5619999Y32119999D03*
D14*
X-5619999Y28119999D03*
D15*
X-5619999Y32119999D03*
%TD*%
D16*
%TO.C,C12*%
X-5085000Y8240000D03*
X-4125000Y8240000D03*
%TD*%
D11*
%TO.C,C8*%
X-6455000Y8440000D03*
X-6455000Y7480000D03*
%TD*%
D16*
%TO.C,C21*%
X-19310000Y11840000D03*
X-18350000Y11840000D03*
%TD*%
D17*
%TO.C,U6*%
X5862500Y13740000D03*
X5862500Y14690000D03*
X5862500Y15640000D03*
X3587500Y15640000D03*
X3587500Y13740000D03*
%TD*%
D18*
%TO.C,C2*%
X-15730000Y11330000D03*
X-16690000Y11330000D03*
%TD*%
D19*
%TO.C,U9*%
X19987500Y-950000D03*
X19987500Y950000D03*
X18112500Y0D03*
%TD*%
D18*
%TO.C,R3*%
X-2055000Y12180000D03*
X-3015000Y12180000D03*
%TD*%
D20*
%TO.C,C18*%
X8030000Y13815000D03*
X8030000Y16765000D03*
%TD*%
D21*
%TO.C,U2*%
X10120000Y7480000D03*
X12020000Y7480000D03*
X11070000Y9355000D03*
%TD*%
D16*
%TO.C,C11*%
X-5095000Y9230000D03*
X-4135000Y9230000D03*
%TD*%
D22*
%TO.C,Y1*%
X-19338093Y15550000D03*
X-19338093Y13350000D03*
X-17638093Y13350000D03*
X-17638093Y15550000D03*
%TD*%
D18*
%TO.C,C4*%
X-15380000Y12820000D03*
X-16340000Y12820000D03*
%TD*%
D23*
%TO.C,U1*%
X1910000Y23480000D03*
D24*
X210000Y23480000D03*
X210000Y21480000D03*
X2110000Y21480000D03*
%TD*%
D25*
%TO.C,C16*%
X4960000Y7455000D03*
X7910000Y7455000D03*
%TD*%
D18*
%TO.C,R4*%
X-2065000Y11250000D03*
X-3025000Y11250000D03*
%TD*%
D11*
%TO.C,R1*%
X3602500Y23480000D03*
X3602500Y22520000D03*
%TD*%
D26*
%TO.C,R7*%
X-19340000Y21820000D03*
X-19340000Y22780000D03*
%TD*%
%TO.C,C13*%
X-7655000Y23660000D03*
X-7655000Y24620000D03*
%TD*%
D27*
%TO.C,U5*%
X-16435000Y23635000D03*
X-16435000Y22365000D03*
X-16435000Y21095000D03*
X-16435000Y19825000D03*
X-9235000Y19825000D03*
X-9235000Y21095000D03*
X-9235000Y22365000D03*
X-9235000Y23635000D03*
%TD*%
D28*
%TO.C,C14*%
X11055000Y11645000D03*
X8105000Y11645000D03*
%TD*%
D16*
%TO.C,C5*%
X-3585000Y13120000D03*
X-2625000Y13120000D03*
%TD*%
D26*
%TO.C,C22*%
X-16580000Y-1880000D03*
X-16580000Y-920000D03*
%TD*%
D18*
%TO.C,C6*%
X-11600000Y17730000D03*
X-12560000Y17730000D03*
%TD*%
D29*
%TO.C,C17*%
X2042813Y10848687D03*
X2042813Y7898687D03*
%TD*%
D11*
%TO.C,R5*%
X-18350000Y23940000D03*
X-18350000Y22980000D03*
%TD*%
D18*
%TO.C,C20*%
X-18350000Y17060000D03*
X-19310000Y17060000D03*
%TD*%
D30*
%TO.C,R8*%
X-15250000Y13840000D03*
X-16270000Y13840000D03*
%TD*%
D19*
%TO.C,U8*%
X937500Y-950000D03*
X937500Y950000D03*
X-937500Y0D03*
%TD*%
D11*
%TO.C,C24*%
X2450000Y10000D03*
X2450000Y-950000D03*
%TD*%
D31*
%TO.C,U3*%
X-7082662Y16459500D03*
X-7482662Y16459500D03*
X-7882662Y16459500D03*
X-8282662Y16459500D03*
X-8682662Y16459500D03*
X-9082662Y16459500D03*
X-9482662Y16459500D03*
X-9882662Y16459500D03*
X-10282662Y16459500D03*
X-10682662Y16459500D03*
X-11082662Y16459500D03*
X-11482662Y16459500D03*
X-11882662Y16459500D03*
X-12282662Y16459500D03*
D32*
X-13120162Y15622000D03*
X-13120162Y15222000D03*
X-13120162Y14822000D03*
X-13120162Y14422000D03*
X-13120162Y14022000D03*
X-13120162Y13622000D03*
X-13120162Y13222000D03*
X-13120162Y12822000D03*
X-13120162Y12422000D03*
X-13120162Y12022000D03*
X-13120162Y11622000D03*
X-13120162Y11222000D03*
X-13120162Y10822000D03*
X-13120162Y10422000D03*
D31*
X-12282662Y9584500D03*
X-11882662Y9584500D03*
X-11482662Y9584500D03*
X-11082662Y9584500D03*
X-10682662Y9584500D03*
X-10282662Y9584500D03*
X-9882662Y9584500D03*
X-9482662Y9584500D03*
X-9082662Y9584500D03*
X-8682662Y9584500D03*
X-8282662Y9584500D03*
X-7882662Y9584500D03*
X-7482662Y9584500D03*
X-7082662Y9584500D03*
D32*
X-6245162Y10422000D03*
X-6245162Y10822000D03*
X-6245162Y11222000D03*
X-6245162Y11622000D03*
X-6245162Y12022000D03*
X-6245162Y12422000D03*
X-6245162Y12822000D03*
X-6245162Y13222000D03*
X-6245162Y13622000D03*
X-6245162Y14022000D03*
X-6245162Y14422000D03*
X-6245162Y14822000D03*
X-6245162Y15222000D03*
X-6245162Y15622000D03*
D33*
X-9682662Y13022000D03*
%TD*%
D20*
%TO.C,C15*%
X14365000Y7442500D03*
X14365000Y10392500D03*
%TD*%
D19*
%TO.C,U7*%
X-18112500Y-950000D03*
X-18112500Y950000D03*
X-19987500Y0D03*
%TD*%
D11*
%TO.C,R2*%
X-1680000Y23340000D03*
X-1680000Y22380000D03*
%TD*%
%TO.C,C23*%
X21520000Y-50000D03*
X21520000Y-1010000D03*
%TD*%
D18*
%TO.C,C7*%
X-7725000Y17710000D03*
X-8685000Y17710000D03*
%TD*%
%TO.C,C3*%
X-10835000Y8070000D03*
X-11795000Y8070000D03*
%TD*%
D34*
%TO.C,J1*%
X-15710000Y27420000D03*
D35*
X-13169999Y27419999D03*
X-10629999Y27419999D03*
X-8089999Y27419999D03*
%TD*%
D36*
%TO.C,F1*%
X6020000Y22520000D03*
X8820000Y22520000D03*
%TD*%
D26*
%TO.C,C1*%
X-3115000Y14080000D03*
X-3115000Y15040000D03*
%TD*%
D16*
%TO.C,C10*%
X-5035000Y10240000D03*
X-4075000Y10240000D03*
%TD*%
D20*
%TO.C,C19*%
X1450000Y13815000D03*
X1450000Y16765000D03*
%TD*%
D37*
%TO.C,U4*%
X4435000Y9647500D03*
X5385000Y9647500D03*
X6335000Y9647500D03*
X6335000Y11922500D03*
X4435000Y11922500D03*
%TD*%
D38*
%TO.C,H3*%
X0Y-25000000D03*
%TD*%
D39*
%TO.C,REF\u002A\u002A*%
X24130000Y0D03*
X13970000Y0D03*
%TD*%
%TO.C,REF\u002A\u002A*%
X5080000Y0D03*
X-5080000Y0D03*
%TD*%
D40*
%TO.C,H2*%
X-23500000Y12000000D03*
%TD*%
%TO.C,H1*%
X23500000Y12000000D03*
%TD*%
D39*
%TO.C,REF\u002A\u002A*%
X-13970000Y0D03*
X-24130000Y0D03*
%TD*%
M02*
