G04 #@! TF.GenerationSoftware,KiCad,Pcbnew,(7.0.0-0)*
G04 #@! TF.CreationDate,2023-03-01T20:47:15-06:00*
G04 #@! TF.ProjectId,RP2040_minimal,52503230-3430-45f6-9d69-6e696d616c2e,REV1*
G04 #@! TF.SameCoordinates,Original*
G04 #@! TF.FileFunction,Legend,Bot*
G04 #@! TF.FilePolarity,Positive*
%FSLAX46Y46*%
G04 Gerber Fmt 4.6, Leading zero omitted, Abs format (unit mm)*
G04 Created by KiCad (PCBNEW (7.0.0-0)) date 2023-03-01 20:47:15*
%MOMM*%
%LPD*%
G01*
G04 APERTURE LIST*
%ADD10C,0.150000*%
%ADD11C,0.200000*%
%ADD12C,0.100000*%
%ADD13C,0.120000*%
G04 APERTURE END LIST*
D10*
X100546666Y-136602166D02*
X100546666Y-135902166D01*
X100546666Y-135902166D02*
X100379999Y-135902166D01*
X100379999Y-135902166D02*
X100279999Y-135935500D01*
X100279999Y-135935500D02*
X100213333Y-136002166D01*
X100213333Y-136002166D02*
X100179999Y-136068833D01*
X100179999Y-136068833D02*
X100146666Y-136202166D01*
X100146666Y-136202166D02*
X100146666Y-136302166D01*
X100146666Y-136302166D02*
X100179999Y-136435500D01*
X100179999Y-136435500D02*
X100213333Y-136502166D01*
X100213333Y-136502166D02*
X100279999Y-136568833D01*
X100279999Y-136568833D02*
X100379999Y-136602166D01*
X100379999Y-136602166D02*
X100546666Y-136602166D01*
X99546666Y-135902166D02*
X99679999Y-135902166D01*
X99679999Y-135902166D02*
X99746666Y-135935500D01*
X99746666Y-135935500D02*
X99779999Y-135968833D01*
X99779999Y-135968833D02*
X99846666Y-136068833D01*
X99846666Y-136068833D02*
X99879999Y-136202166D01*
X99879999Y-136202166D02*
X99879999Y-136468833D01*
X99879999Y-136468833D02*
X99846666Y-136535500D01*
X99846666Y-136535500D02*
X99813333Y-136568833D01*
X99813333Y-136568833D02*
X99746666Y-136602166D01*
X99746666Y-136602166D02*
X99613333Y-136602166D01*
X99613333Y-136602166D02*
X99546666Y-136568833D01*
X99546666Y-136568833D02*
X99513333Y-136535500D01*
X99513333Y-136535500D02*
X99479999Y-136468833D01*
X99479999Y-136468833D02*
X99479999Y-136302166D01*
X99479999Y-136302166D02*
X99513333Y-136235500D01*
X99513333Y-136235500D02*
X99546666Y-136202166D01*
X99546666Y-136202166D02*
X99613333Y-136168833D01*
X99613333Y-136168833D02*
X99746666Y-136168833D01*
X99746666Y-136168833D02*
X99813333Y-136202166D01*
X99813333Y-136202166D02*
X99846666Y-136235500D01*
X99846666Y-136235500D02*
X99879999Y-136302166D01*
X85726666Y-118362142D02*
X85774285Y-118409761D01*
X85774285Y-118409761D02*
X85917142Y-118457380D01*
X85917142Y-118457380D02*
X86012380Y-118457380D01*
X86012380Y-118457380D02*
X86155237Y-118409761D01*
X86155237Y-118409761D02*
X86250475Y-118314523D01*
X86250475Y-118314523D02*
X86298094Y-118219285D01*
X86298094Y-118219285D02*
X86345713Y-118028809D01*
X86345713Y-118028809D02*
X86345713Y-117885952D01*
X86345713Y-117885952D02*
X86298094Y-117695476D01*
X86298094Y-117695476D02*
X86250475Y-117600238D01*
X86250475Y-117600238D02*
X86155237Y-117505000D01*
X86155237Y-117505000D02*
X86012380Y-117457380D01*
X86012380Y-117457380D02*
X85917142Y-117457380D01*
X85917142Y-117457380D02*
X85774285Y-117505000D01*
X85774285Y-117505000D02*
X85726666Y-117552619D01*
X85345713Y-117552619D02*
X85298094Y-117505000D01*
X85298094Y-117505000D02*
X85202856Y-117457380D01*
X85202856Y-117457380D02*
X84964761Y-117457380D01*
X84964761Y-117457380D02*
X84869523Y-117505000D01*
X84869523Y-117505000D02*
X84821904Y-117552619D01*
X84821904Y-117552619D02*
X84774285Y-117647857D01*
X84774285Y-117647857D02*
X84774285Y-117743095D01*
X84774285Y-117743095D02*
X84821904Y-117885952D01*
X84821904Y-117885952D02*
X85393332Y-118457380D01*
X85393332Y-118457380D02*
X84774285Y-118457380D01*
X105060357Y-121956142D02*
X105107976Y-122003761D01*
X105107976Y-122003761D02*
X105250833Y-122051380D01*
X105250833Y-122051380D02*
X105346071Y-122051380D01*
X105346071Y-122051380D02*
X105488928Y-122003761D01*
X105488928Y-122003761D02*
X105584166Y-121908523D01*
X105584166Y-121908523D02*
X105631785Y-121813285D01*
X105631785Y-121813285D02*
X105679404Y-121622809D01*
X105679404Y-121622809D02*
X105679404Y-121479952D01*
X105679404Y-121479952D02*
X105631785Y-121289476D01*
X105631785Y-121289476D02*
X105584166Y-121194238D01*
X105584166Y-121194238D02*
X105488928Y-121099000D01*
X105488928Y-121099000D02*
X105346071Y-121051380D01*
X105346071Y-121051380D02*
X105250833Y-121051380D01*
X105250833Y-121051380D02*
X105107976Y-121099000D01*
X105107976Y-121099000D02*
X105060357Y-121146619D01*
X104107976Y-122051380D02*
X104679404Y-122051380D01*
X104393690Y-122051380D02*
X104393690Y-121051380D01*
X104393690Y-121051380D02*
X104488928Y-121194238D01*
X104488928Y-121194238D02*
X104584166Y-121289476D01*
X104584166Y-121289476D02*
X104679404Y-121337095D01*
X103727023Y-121146619D02*
X103679404Y-121099000D01*
X103679404Y-121099000D02*
X103584166Y-121051380D01*
X103584166Y-121051380D02*
X103346071Y-121051380D01*
X103346071Y-121051380D02*
X103250833Y-121099000D01*
X103250833Y-121099000D02*
X103203214Y-121146619D01*
X103203214Y-121146619D02*
X103155595Y-121241857D01*
X103155595Y-121241857D02*
X103155595Y-121337095D01*
X103155595Y-121337095D02*
X103203214Y-121479952D01*
X103203214Y-121479952D02*
X103774642Y-122051380D01*
X103774642Y-122051380D02*
X103155595Y-122051380D01*
X104240357Y-120692142D02*
X104287976Y-120739761D01*
X104287976Y-120739761D02*
X104430833Y-120787380D01*
X104430833Y-120787380D02*
X104526071Y-120787380D01*
X104526071Y-120787380D02*
X104668928Y-120739761D01*
X104668928Y-120739761D02*
X104764166Y-120644523D01*
X104764166Y-120644523D02*
X104811785Y-120549285D01*
X104811785Y-120549285D02*
X104859404Y-120358809D01*
X104859404Y-120358809D02*
X104859404Y-120215952D01*
X104859404Y-120215952D02*
X104811785Y-120025476D01*
X104811785Y-120025476D02*
X104764166Y-119930238D01*
X104764166Y-119930238D02*
X104668928Y-119835000D01*
X104668928Y-119835000D02*
X104526071Y-119787380D01*
X104526071Y-119787380D02*
X104430833Y-119787380D01*
X104430833Y-119787380D02*
X104287976Y-119835000D01*
X104287976Y-119835000D02*
X104240357Y-119882619D01*
X103287976Y-120787380D02*
X103859404Y-120787380D01*
X103573690Y-120787380D02*
X103573690Y-119787380D01*
X103573690Y-119787380D02*
X103668928Y-119930238D01*
X103668928Y-119930238D02*
X103764166Y-120025476D01*
X103764166Y-120025476D02*
X103859404Y-120073095D01*
X102335595Y-120787380D02*
X102907023Y-120787380D01*
X102621309Y-120787380D02*
X102621309Y-119787380D01*
X102621309Y-119787380D02*
X102716547Y-119930238D01*
X102716547Y-119930238D02*
X102811785Y-120025476D01*
X102811785Y-120025476D02*
X102907023Y-120073095D01*
X115319166Y-123219642D02*
X115366785Y-123267261D01*
X115366785Y-123267261D02*
X115509642Y-123314880D01*
X115509642Y-123314880D02*
X115604880Y-123314880D01*
X115604880Y-123314880D02*
X115747737Y-123267261D01*
X115747737Y-123267261D02*
X115842975Y-123172023D01*
X115842975Y-123172023D02*
X115890594Y-123076785D01*
X115890594Y-123076785D02*
X115938213Y-122886309D01*
X115938213Y-122886309D02*
X115938213Y-122743452D01*
X115938213Y-122743452D02*
X115890594Y-122552976D01*
X115890594Y-122552976D02*
X115842975Y-122457738D01*
X115842975Y-122457738D02*
X115747737Y-122362500D01*
X115747737Y-122362500D02*
X115604880Y-122314880D01*
X115604880Y-122314880D02*
X115509642Y-122314880D01*
X115509642Y-122314880D02*
X115366785Y-122362500D01*
X115366785Y-122362500D02*
X115319166Y-122410119D01*
X114747737Y-122743452D02*
X114842975Y-122695833D01*
X114842975Y-122695833D02*
X114890594Y-122648214D01*
X114890594Y-122648214D02*
X114938213Y-122552976D01*
X114938213Y-122552976D02*
X114938213Y-122505357D01*
X114938213Y-122505357D02*
X114890594Y-122410119D01*
X114890594Y-122410119D02*
X114842975Y-122362500D01*
X114842975Y-122362500D02*
X114747737Y-122314880D01*
X114747737Y-122314880D02*
X114557261Y-122314880D01*
X114557261Y-122314880D02*
X114462023Y-122362500D01*
X114462023Y-122362500D02*
X114414404Y-122410119D01*
X114414404Y-122410119D02*
X114366785Y-122505357D01*
X114366785Y-122505357D02*
X114366785Y-122552976D01*
X114366785Y-122552976D02*
X114414404Y-122648214D01*
X114414404Y-122648214D02*
X114462023Y-122695833D01*
X114462023Y-122695833D02*
X114557261Y-122743452D01*
X114557261Y-122743452D02*
X114747737Y-122743452D01*
X114747737Y-122743452D02*
X114842975Y-122791071D01*
X114842975Y-122791071D02*
X114890594Y-122838690D01*
X114890594Y-122838690D02*
X114938213Y-122933928D01*
X114938213Y-122933928D02*
X114938213Y-123124404D01*
X114938213Y-123124404D02*
X114890594Y-123219642D01*
X114890594Y-123219642D02*
X114842975Y-123267261D01*
X114842975Y-123267261D02*
X114747737Y-123314880D01*
X114747737Y-123314880D02*
X114557261Y-123314880D01*
X114557261Y-123314880D02*
X114462023Y-123267261D01*
X114462023Y-123267261D02*
X114414404Y-123219642D01*
X114414404Y-123219642D02*
X114366785Y-123124404D01*
X114366785Y-123124404D02*
X114366785Y-122933928D01*
X114366785Y-122933928D02*
X114414404Y-122838690D01*
X114414404Y-122838690D02*
X114462023Y-122791071D01*
X114462023Y-122791071D02*
X114557261Y-122743452D01*
X81951904Y-112797380D02*
X81951904Y-113606904D01*
X81951904Y-113606904D02*
X81904285Y-113702142D01*
X81904285Y-113702142D02*
X81856666Y-113749761D01*
X81856666Y-113749761D02*
X81761428Y-113797380D01*
X81761428Y-113797380D02*
X81570952Y-113797380D01*
X81570952Y-113797380D02*
X81475714Y-113749761D01*
X81475714Y-113749761D02*
X81428095Y-113702142D01*
X81428095Y-113702142D02*
X81380476Y-113606904D01*
X81380476Y-113606904D02*
X81380476Y-112797380D01*
X80380476Y-113797380D02*
X80951904Y-113797380D01*
X80666190Y-113797380D02*
X80666190Y-112797380D01*
X80666190Y-112797380D02*
X80761428Y-112940238D01*
X80761428Y-112940238D02*
X80856666Y-113035476D01*
X80856666Y-113035476D02*
X80951904Y-113083095D01*
X111431904Y-111157380D02*
X111431904Y-111966904D01*
X111431904Y-111966904D02*
X111384285Y-112062142D01*
X111384285Y-112062142D02*
X111336666Y-112109761D01*
X111336666Y-112109761D02*
X111241428Y-112157380D01*
X111241428Y-112157380D02*
X111050952Y-112157380D01*
X111050952Y-112157380D02*
X110955714Y-112109761D01*
X110955714Y-112109761D02*
X110908095Y-112062142D01*
X110908095Y-112062142D02*
X110860476Y-111966904D01*
X110860476Y-111966904D02*
X110860476Y-111157380D01*
X109955714Y-111490714D02*
X109955714Y-112157380D01*
X110193809Y-111109761D02*
X110431904Y-111824047D01*
X110431904Y-111824047D02*
X109812857Y-111824047D01*
X123748642Y-117389642D02*
X123796261Y-117342023D01*
X123796261Y-117342023D02*
X123843880Y-117199166D01*
X123843880Y-117199166D02*
X123843880Y-117103928D01*
X123843880Y-117103928D02*
X123796261Y-116961071D01*
X123796261Y-116961071D02*
X123701023Y-116865833D01*
X123701023Y-116865833D02*
X123605785Y-116818214D01*
X123605785Y-116818214D02*
X123415309Y-116770595D01*
X123415309Y-116770595D02*
X123272452Y-116770595D01*
X123272452Y-116770595D02*
X123081976Y-116818214D01*
X123081976Y-116818214D02*
X122986738Y-116865833D01*
X122986738Y-116865833D02*
X122891500Y-116961071D01*
X122891500Y-116961071D02*
X122843880Y-117103928D01*
X122843880Y-117103928D02*
X122843880Y-117199166D01*
X122843880Y-117199166D02*
X122891500Y-117342023D01*
X122891500Y-117342023D02*
X122939119Y-117389642D01*
X123843880Y-118342023D02*
X123843880Y-117770595D01*
X123843880Y-118056309D02*
X122843880Y-118056309D01*
X122843880Y-118056309D02*
X122986738Y-117961071D01*
X122986738Y-117961071D02*
X123081976Y-117865833D01*
X123081976Y-117865833D02*
X123129595Y-117770595D01*
X123272452Y-118913452D02*
X123224833Y-118818214D01*
X123224833Y-118818214D02*
X123177214Y-118770595D01*
X123177214Y-118770595D02*
X123081976Y-118722976D01*
X123081976Y-118722976D02*
X123034357Y-118722976D01*
X123034357Y-118722976D02*
X122939119Y-118770595D01*
X122939119Y-118770595D02*
X122891500Y-118818214D01*
X122891500Y-118818214D02*
X122843880Y-118913452D01*
X122843880Y-118913452D02*
X122843880Y-119103928D01*
X122843880Y-119103928D02*
X122891500Y-119199166D01*
X122891500Y-119199166D02*
X122939119Y-119246785D01*
X122939119Y-119246785D02*
X123034357Y-119294404D01*
X123034357Y-119294404D02*
X123081976Y-119294404D01*
X123081976Y-119294404D02*
X123177214Y-119246785D01*
X123177214Y-119246785D02*
X123224833Y-119199166D01*
X123224833Y-119199166D02*
X123272452Y-119103928D01*
X123272452Y-119103928D02*
X123272452Y-118913452D01*
X123272452Y-118913452D02*
X123320071Y-118818214D01*
X123320071Y-118818214D02*
X123367690Y-118770595D01*
X123367690Y-118770595D02*
X123462928Y-118722976D01*
X123462928Y-118722976D02*
X123653404Y-118722976D01*
X123653404Y-118722976D02*
X123748642Y-118770595D01*
X123748642Y-118770595D02*
X123796261Y-118818214D01*
X123796261Y-118818214D02*
X123843880Y-118913452D01*
X123843880Y-118913452D02*
X123843880Y-119103928D01*
X123843880Y-119103928D02*
X123796261Y-119199166D01*
X123796261Y-119199166D02*
X123748642Y-119246785D01*
X123748642Y-119246785D02*
X123653404Y-119294404D01*
X123653404Y-119294404D02*
X123462928Y-119294404D01*
X123462928Y-119294404D02*
X123367690Y-119246785D01*
X123367690Y-119246785D02*
X123320071Y-119199166D01*
X123320071Y-119199166D02*
X123272452Y-119103928D01*
X103764166Y-116802142D02*
X103811785Y-116849761D01*
X103811785Y-116849761D02*
X103954642Y-116897380D01*
X103954642Y-116897380D02*
X104049880Y-116897380D01*
X104049880Y-116897380D02*
X104192737Y-116849761D01*
X104192737Y-116849761D02*
X104287975Y-116754523D01*
X104287975Y-116754523D02*
X104335594Y-116659285D01*
X104335594Y-116659285D02*
X104383213Y-116468809D01*
X104383213Y-116468809D02*
X104383213Y-116325952D01*
X104383213Y-116325952D02*
X104335594Y-116135476D01*
X104335594Y-116135476D02*
X104287975Y-116040238D01*
X104287975Y-116040238D02*
X104192737Y-115945000D01*
X104192737Y-115945000D02*
X104049880Y-115897380D01*
X104049880Y-115897380D02*
X103954642Y-115897380D01*
X103954642Y-115897380D02*
X103811785Y-115945000D01*
X103811785Y-115945000D02*
X103764166Y-115992619D01*
X102859404Y-115897380D02*
X103335594Y-115897380D01*
X103335594Y-115897380D02*
X103383213Y-116373571D01*
X103383213Y-116373571D02*
X103335594Y-116325952D01*
X103335594Y-116325952D02*
X103240356Y-116278333D01*
X103240356Y-116278333D02*
X103002261Y-116278333D01*
X103002261Y-116278333D02*
X102907023Y-116325952D01*
X102907023Y-116325952D02*
X102859404Y-116373571D01*
X102859404Y-116373571D02*
X102811785Y-116468809D01*
X102811785Y-116468809D02*
X102811785Y-116706904D01*
X102811785Y-116706904D02*
X102859404Y-116802142D01*
X102859404Y-116802142D02*
X102907023Y-116849761D01*
X102907023Y-116849761D02*
X103002261Y-116897380D01*
X103002261Y-116897380D02*
X103240356Y-116897380D01*
X103240356Y-116897380D02*
X103335594Y-116849761D01*
X103335594Y-116849761D02*
X103383213Y-116802142D01*
X112196666Y-113452142D02*
X112244285Y-113499761D01*
X112244285Y-113499761D02*
X112387142Y-113547380D01*
X112387142Y-113547380D02*
X112482380Y-113547380D01*
X112482380Y-113547380D02*
X112625237Y-113499761D01*
X112625237Y-113499761D02*
X112720475Y-113404523D01*
X112720475Y-113404523D02*
X112768094Y-113309285D01*
X112768094Y-113309285D02*
X112815713Y-113118809D01*
X112815713Y-113118809D02*
X112815713Y-112975952D01*
X112815713Y-112975952D02*
X112768094Y-112785476D01*
X112768094Y-112785476D02*
X112720475Y-112690238D01*
X112720475Y-112690238D02*
X112625237Y-112595000D01*
X112625237Y-112595000D02*
X112482380Y-112547380D01*
X112482380Y-112547380D02*
X112387142Y-112547380D01*
X112387142Y-112547380D02*
X112244285Y-112595000D01*
X112244285Y-112595000D02*
X112196666Y-112642619D01*
X111863332Y-112547380D02*
X111196666Y-112547380D01*
X111196666Y-112547380D02*
X111625237Y-113547380D01*
X118834642Y-116000642D02*
X118882261Y-115953023D01*
X118882261Y-115953023D02*
X118929880Y-115810166D01*
X118929880Y-115810166D02*
X118929880Y-115714928D01*
X118929880Y-115714928D02*
X118882261Y-115572071D01*
X118882261Y-115572071D02*
X118787023Y-115476833D01*
X118787023Y-115476833D02*
X118691785Y-115429214D01*
X118691785Y-115429214D02*
X118501309Y-115381595D01*
X118501309Y-115381595D02*
X118358452Y-115381595D01*
X118358452Y-115381595D02*
X118167976Y-115429214D01*
X118167976Y-115429214D02*
X118072738Y-115476833D01*
X118072738Y-115476833D02*
X117977500Y-115572071D01*
X117977500Y-115572071D02*
X117929880Y-115714928D01*
X117929880Y-115714928D02*
X117929880Y-115810166D01*
X117929880Y-115810166D02*
X117977500Y-115953023D01*
X117977500Y-115953023D02*
X118025119Y-116000642D01*
X118929880Y-116953023D02*
X118929880Y-116381595D01*
X118929880Y-116667309D02*
X117929880Y-116667309D01*
X117929880Y-116667309D02*
X118072738Y-116572071D01*
X118072738Y-116572071D02*
X118167976Y-116476833D01*
X118167976Y-116476833D02*
X118215595Y-116381595D01*
X117929880Y-117572071D02*
X117929880Y-117667309D01*
X117929880Y-117667309D02*
X117977500Y-117762547D01*
X117977500Y-117762547D02*
X118025119Y-117810166D01*
X118025119Y-117810166D02*
X118120357Y-117857785D01*
X118120357Y-117857785D02*
X118310833Y-117905404D01*
X118310833Y-117905404D02*
X118548928Y-117905404D01*
X118548928Y-117905404D02*
X118739404Y-117857785D01*
X118739404Y-117857785D02*
X118834642Y-117810166D01*
X118834642Y-117810166D02*
X118882261Y-117762547D01*
X118882261Y-117762547D02*
X118929880Y-117667309D01*
X118929880Y-117667309D02*
X118929880Y-117572071D01*
X118929880Y-117572071D02*
X118882261Y-117476833D01*
X118882261Y-117476833D02*
X118834642Y-117429214D01*
X118834642Y-117429214D02*
X118739404Y-117381595D01*
X118739404Y-117381595D02*
X118548928Y-117333976D01*
X118548928Y-117333976D02*
X118310833Y-117333976D01*
X118310833Y-117333976D02*
X118120357Y-117381595D01*
X118120357Y-117381595D02*
X118025119Y-117429214D01*
X118025119Y-117429214D02*
X117977500Y-117476833D01*
X117977500Y-117476833D02*
X117929880Y-117572071D01*
X103878290Y-118172380D02*
X104211623Y-117696190D01*
X104449718Y-118172380D02*
X104449718Y-117172380D01*
X104449718Y-117172380D02*
X104068766Y-117172380D01*
X104068766Y-117172380D02*
X103973528Y-117220000D01*
X103973528Y-117220000D02*
X103925909Y-117267619D01*
X103925909Y-117267619D02*
X103878290Y-117362857D01*
X103878290Y-117362857D02*
X103878290Y-117505714D01*
X103878290Y-117505714D02*
X103925909Y-117600952D01*
X103925909Y-117600952D02*
X103973528Y-117648571D01*
X103973528Y-117648571D02*
X104068766Y-117696190D01*
X104068766Y-117696190D02*
X104449718Y-117696190D01*
X102973528Y-117172380D02*
X103449718Y-117172380D01*
X103449718Y-117172380D02*
X103497337Y-117648571D01*
X103497337Y-117648571D02*
X103449718Y-117600952D01*
X103449718Y-117600952D02*
X103354480Y-117553333D01*
X103354480Y-117553333D02*
X103116385Y-117553333D01*
X103116385Y-117553333D02*
X103021147Y-117600952D01*
X103021147Y-117600952D02*
X102973528Y-117648571D01*
X102973528Y-117648571D02*
X102925909Y-117743809D01*
X102925909Y-117743809D02*
X102925909Y-117981904D01*
X102925909Y-117981904D02*
X102973528Y-118077142D01*
X102973528Y-118077142D02*
X103021147Y-118124761D01*
X103021147Y-118124761D02*
X103116385Y-118172380D01*
X103116385Y-118172380D02*
X103354480Y-118172380D01*
X103354480Y-118172380D02*
X103449718Y-118124761D01*
X103449718Y-118124761D02*
X103497337Y-118077142D01*
X120534642Y-119495833D02*
X120582261Y-119448214D01*
X120582261Y-119448214D02*
X120629880Y-119305357D01*
X120629880Y-119305357D02*
X120629880Y-119210119D01*
X120629880Y-119210119D02*
X120582261Y-119067262D01*
X120582261Y-119067262D02*
X120487023Y-118972024D01*
X120487023Y-118972024D02*
X120391785Y-118924405D01*
X120391785Y-118924405D02*
X120201309Y-118876786D01*
X120201309Y-118876786D02*
X120058452Y-118876786D01*
X120058452Y-118876786D02*
X119867976Y-118924405D01*
X119867976Y-118924405D02*
X119772738Y-118972024D01*
X119772738Y-118972024D02*
X119677500Y-119067262D01*
X119677500Y-119067262D02*
X119629880Y-119210119D01*
X119629880Y-119210119D02*
X119629880Y-119305357D01*
X119629880Y-119305357D02*
X119677500Y-119448214D01*
X119677500Y-119448214D02*
X119725119Y-119495833D01*
X119963214Y-120352976D02*
X120629880Y-120352976D01*
X119582261Y-120114881D02*
X120296547Y-119876786D01*
X120296547Y-119876786D02*
X120296547Y-120495833D01*
X90966666Y-114742142D02*
X91014285Y-114789761D01*
X91014285Y-114789761D02*
X91157142Y-114837380D01*
X91157142Y-114837380D02*
X91252380Y-114837380D01*
X91252380Y-114837380D02*
X91395237Y-114789761D01*
X91395237Y-114789761D02*
X91490475Y-114694523D01*
X91490475Y-114694523D02*
X91538094Y-114599285D01*
X91538094Y-114599285D02*
X91585713Y-114408809D01*
X91585713Y-114408809D02*
X91585713Y-114265952D01*
X91585713Y-114265952D02*
X91538094Y-114075476D01*
X91538094Y-114075476D02*
X91490475Y-113980238D01*
X91490475Y-113980238D02*
X91395237Y-113885000D01*
X91395237Y-113885000D02*
X91252380Y-113837380D01*
X91252380Y-113837380D02*
X91157142Y-113837380D01*
X91157142Y-113837380D02*
X91014285Y-113885000D01*
X91014285Y-113885000D02*
X90966666Y-113932619D01*
X90014285Y-114837380D02*
X90585713Y-114837380D01*
X90299999Y-114837380D02*
X90299999Y-113837380D01*
X90299999Y-113837380D02*
X90395237Y-113980238D01*
X90395237Y-113980238D02*
X90490475Y-114075476D01*
X90490475Y-114075476D02*
X90585713Y-114123095D01*
X115546666Y-113422142D02*
X115594285Y-113469761D01*
X115594285Y-113469761D02*
X115737142Y-113517380D01*
X115737142Y-113517380D02*
X115832380Y-113517380D01*
X115832380Y-113517380D02*
X115975237Y-113469761D01*
X115975237Y-113469761D02*
X116070475Y-113374523D01*
X116070475Y-113374523D02*
X116118094Y-113279285D01*
X116118094Y-113279285D02*
X116165713Y-113088809D01*
X116165713Y-113088809D02*
X116165713Y-112945952D01*
X116165713Y-112945952D02*
X116118094Y-112755476D01*
X116118094Y-112755476D02*
X116070475Y-112660238D01*
X116070475Y-112660238D02*
X115975237Y-112565000D01*
X115975237Y-112565000D02*
X115832380Y-112517380D01*
X115832380Y-112517380D02*
X115737142Y-112517380D01*
X115737142Y-112517380D02*
X115594285Y-112565000D01*
X115594285Y-112565000D02*
X115546666Y-112612619D01*
X114689523Y-112517380D02*
X114879999Y-112517380D01*
X114879999Y-112517380D02*
X114975237Y-112565000D01*
X114975237Y-112565000D02*
X115022856Y-112612619D01*
X115022856Y-112612619D02*
X115118094Y-112755476D01*
X115118094Y-112755476D02*
X115165713Y-112945952D01*
X115165713Y-112945952D02*
X115165713Y-113326904D01*
X115165713Y-113326904D02*
X115118094Y-113422142D01*
X115118094Y-113422142D02*
X115070475Y-113469761D01*
X115070475Y-113469761D02*
X114975237Y-113517380D01*
X114975237Y-113517380D02*
X114784761Y-113517380D01*
X114784761Y-113517380D02*
X114689523Y-113469761D01*
X114689523Y-113469761D02*
X114641904Y-113422142D01*
X114641904Y-113422142D02*
X114594285Y-113326904D01*
X114594285Y-113326904D02*
X114594285Y-113088809D01*
X114594285Y-113088809D02*
X114641904Y-112993571D01*
X114641904Y-112993571D02*
X114689523Y-112945952D01*
X114689523Y-112945952D02*
X114784761Y-112898333D01*
X114784761Y-112898333D02*
X114975237Y-112898333D01*
X114975237Y-112898333D02*
X115070475Y-112945952D01*
X115070475Y-112945952D02*
X115118094Y-112993571D01*
X115118094Y-112993571D02*
X115165713Y-113088809D01*
X108962142Y-100312142D02*
X109009761Y-100264523D01*
X109009761Y-100264523D02*
X109057380Y-100121666D01*
X109057380Y-100121666D02*
X109057380Y-100026428D01*
X109057380Y-100026428D02*
X109009761Y-99883571D01*
X109009761Y-99883571D02*
X108914523Y-99788333D01*
X108914523Y-99788333D02*
X108819285Y-99740714D01*
X108819285Y-99740714D02*
X108628809Y-99693095D01*
X108628809Y-99693095D02*
X108485952Y-99693095D01*
X108485952Y-99693095D02*
X108295476Y-99740714D01*
X108295476Y-99740714D02*
X108200238Y-99788333D01*
X108200238Y-99788333D02*
X108105000Y-99883571D01*
X108105000Y-99883571D02*
X108057380Y-100026428D01*
X108057380Y-100026428D02*
X108057380Y-100121666D01*
X108057380Y-100121666D02*
X108105000Y-100264523D01*
X108105000Y-100264523D02*
X108152619Y-100312142D01*
X109057380Y-101264523D02*
X109057380Y-100693095D01*
X109057380Y-100978809D02*
X108057380Y-100978809D01*
X108057380Y-100978809D02*
X108200238Y-100883571D01*
X108200238Y-100883571D02*
X108295476Y-100788333D01*
X108295476Y-100788333D02*
X108343095Y-100693095D01*
X108057380Y-102121666D02*
X108057380Y-101931190D01*
X108057380Y-101931190D02*
X108105000Y-101835952D01*
X108105000Y-101835952D02*
X108152619Y-101788333D01*
X108152619Y-101788333D02*
X108295476Y-101693095D01*
X108295476Y-101693095D02*
X108485952Y-101645476D01*
X108485952Y-101645476D02*
X108866904Y-101645476D01*
X108866904Y-101645476D02*
X108962142Y-101693095D01*
X108962142Y-101693095D02*
X109009761Y-101740714D01*
X109009761Y-101740714D02*
X109057380Y-101835952D01*
X109057380Y-101835952D02*
X109057380Y-102026428D01*
X109057380Y-102026428D02*
X109009761Y-102121666D01*
X109009761Y-102121666D02*
X108962142Y-102169285D01*
X108962142Y-102169285D02*
X108866904Y-102216904D01*
X108866904Y-102216904D02*
X108628809Y-102216904D01*
X108628809Y-102216904D02*
X108533571Y-102169285D01*
X108533571Y-102169285D02*
X108485952Y-102121666D01*
X108485952Y-102121666D02*
X108438333Y-102026428D01*
X108438333Y-102026428D02*
X108438333Y-101835952D01*
X108438333Y-101835952D02*
X108485952Y-101740714D01*
X108485952Y-101740714D02*
X108533571Y-101693095D01*
X108533571Y-101693095D02*
X108628809Y-101645476D01*
X108404880Y-112255595D02*
X109214404Y-112255595D01*
X109214404Y-112255595D02*
X109309642Y-112303214D01*
X109309642Y-112303214D02*
X109357261Y-112350833D01*
X109357261Y-112350833D02*
X109404880Y-112446071D01*
X109404880Y-112446071D02*
X109404880Y-112636547D01*
X109404880Y-112636547D02*
X109357261Y-112731785D01*
X109357261Y-112731785D02*
X109309642Y-112779404D01*
X109309642Y-112779404D02*
X109214404Y-112827023D01*
X109214404Y-112827023D02*
X108404880Y-112827023D01*
X108404880Y-113779404D02*
X108404880Y-113303214D01*
X108404880Y-113303214D02*
X108881071Y-113255595D01*
X108881071Y-113255595D02*
X108833452Y-113303214D01*
X108833452Y-113303214D02*
X108785833Y-113398452D01*
X108785833Y-113398452D02*
X108785833Y-113636547D01*
X108785833Y-113636547D02*
X108833452Y-113731785D01*
X108833452Y-113731785D02*
X108881071Y-113779404D01*
X108881071Y-113779404D02*
X108976309Y-113827023D01*
X108976309Y-113827023D02*
X109214404Y-113827023D01*
X109214404Y-113827023D02*
X109309642Y-113779404D01*
X109309642Y-113779404D02*
X109357261Y-113731785D01*
X109357261Y-113731785D02*
X109404880Y-113636547D01*
X109404880Y-113636547D02*
X109404880Y-113398452D01*
X109404880Y-113398452D02*
X109357261Y-113303214D01*
X109357261Y-113303214D02*
X109309642Y-113255595D01*
X122834642Y-110319642D02*
X122882261Y-110272023D01*
X122882261Y-110272023D02*
X122929880Y-110129166D01*
X122929880Y-110129166D02*
X122929880Y-110033928D01*
X122929880Y-110033928D02*
X122882261Y-109891071D01*
X122882261Y-109891071D02*
X122787023Y-109795833D01*
X122787023Y-109795833D02*
X122691785Y-109748214D01*
X122691785Y-109748214D02*
X122501309Y-109700595D01*
X122501309Y-109700595D02*
X122358452Y-109700595D01*
X122358452Y-109700595D02*
X122167976Y-109748214D01*
X122167976Y-109748214D02*
X122072738Y-109795833D01*
X122072738Y-109795833D02*
X121977500Y-109891071D01*
X121977500Y-109891071D02*
X121929880Y-110033928D01*
X121929880Y-110033928D02*
X121929880Y-110129166D01*
X121929880Y-110129166D02*
X121977500Y-110272023D01*
X121977500Y-110272023D02*
X122025119Y-110319642D01*
X122929880Y-111272023D02*
X122929880Y-110700595D01*
X122929880Y-110986309D02*
X121929880Y-110986309D01*
X121929880Y-110986309D02*
X122072738Y-110891071D01*
X122072738Y-110891071D02*
X122167976Y-110795833D01*
X122167976Y-110795833D02*
X122215595Y-110700595D01*
X121929880Y-111605357D02*
X121929880Y-112272023D01*
X121929880Y-112272023D02*
X122929880Y-111843452D01*
X103878290Y-119472380D02*
X104211623Y-118996190D01*
X104449718Y-119472380D02*
X104449718Y-118472380D01*
X104449718Y-118472380D02*
X104068766Y-118472380D01*
X104068766Y-118472380D02*
X103973528Y-118520000D01*
X103973528Y-118520000D02*
X103925909Y-118567619D01*
X103925909Y-118567619D02*
X103878290Y-118662857D01*
X103878290Y-118662857D02*
X103878290Y-118805714D01*
X103878290Y-118805714D02*
X103925909Y-118900952D01*
X103925909Y-118900952D02*
X103973528Y-118948571D01*
X103973528Y-118948571D02*
X104068766Y-118996190D01*
X104068766Y-118996190D02*
X104449718Y-118996190D01*
X103021147Y-118472380D02*
X103211623Y-118472380D01*
X103211623Y-118472380D02*
X103306861Y-118520000D01*
X103306861Y-118520000D02*
X103354480Y-118567619D01*
X103354480Y-118567619D02*
X103449718Y-118710476D01*
X103449718Y-118710476D02*
X103497337Y-118900952D01*
X103497337Y-118900952D02*
X103497337Y-119281904D01*
X103497337Y-119281904D02*
X103449718Y-119377142D01*
X103449718Y-119377142D02*
X103402099Y-119424761D01*
X103402099Y-119424761D02*
X103306861Y-119472380D01*
X103306861Y-119472380D02*
X103116385Y-119472380D01*
X103116385Y-119472380D02*
X103021147Y-119424761D01*
X103021147Y-119424761D02*
X102973528Y-119377142D01*
X102973528Y-119377142D02*
X102925909Y-119281904D01*
X102925909Y-119281904D02*
X102925909Y-119043809D01*
X102925909Y-119043809D02*
X102973528Y-118948571D01*
X102973528Y-118948571D02*
X103021147Y-118900952D01*
X103021147Y-118900952D02*
X103116385Y-118853333D01*
X103116385Y-118853333D02*
X103306861Y-118853333D01*
X103306861Y-118853333D02*
X103402099Y-118900952D01*
X103402099Y-118900952D02*
X103449718Y-118948571D01*
X103449718Y-118948571D02*
X103497337Y-119043809D01*
X103764166Y-115312142D02*
X103811785Y-115359761D01*
X103811785Y-115359761D02*
X103954642Y-115407380D01*
X103954642Y-115407380D02*
X104049880Y-115407380D01*
X104049880Y-115407380D02*
X104192737Y-115359761D01*
X104192737Y-115359761D02*
X104287975Y-115264523D01*
X104287975Y-115264523D02*
X104335594Y-115169285D01*
X104335594Y-115169285D02*
X104383213Y-114978809D01*
X104383213Y-114978809D02*
X104383213Y-114835952D01*
X104383213Y-114835952D02*
X104335594Y-114645476D01*
X104335594Y-114645476D02*
X104287975Y-114550238D01*
X104287975Y-114550238D02*
X104192737Y-114455000D01*
X104192737Y-114455000D02*
X104049880Y-114407380D01*
X104049880Y-114407380D02*
X103954642Y-114407380D01*
X103954642Y-114407380D02*
X103811785Y-114455000D01*
X103811785Y-114455000D02*
X103764166Y-114502619D01*
X103430832Y-114407380D02*
X102811785Y-114407380D01*
X102811785Y-114407380D02*
X103145118Y-114788333D01*
X103145118Y-114788333D02*
X103002261Y-114788333D01*
X103002261Y-114788333D02*
X102907023Y-114835952D01*
X102907023Y-114835952D02*
X102859404Y-114883571D01*
X102859404Y-114883571D02*
X102811785Y-114978809D01*
X102811785Y-114978809D02*
X102811785Y-115216904D01*
X102811785Y-115216904D02*
X102859404Y-115312142D01*
X102859404Y-115312142D02*
X102907023Y-115359761D01*
X102907023Y-115359761D02*
X103002261Y-115407380D01*
X103002261Y-115407380D02*
X103287975Y-115407380D01*
X103287975Y-115407380D02*
X103383213Y-115359761D01*
X103383213Y-115359761D02*
X103430832Y-115312142D01*
X107252142Y-100312142D02*
X107299761Y-100264523D01*
X107299761Y-100264523D02*
X107347380Y-100121666D01*
X107347380Y-100121666D02*
X107347380Y-100026428D01*
X107347380Y-100026428D02*
X107299761Y-99883571D01*
X107299761Y-99883571D02*
X107204523Y-99788333D01*
X107204523Y-99788333D02*
X107109285Y-99740714D01*
X107109285Y-99740714D02*
X106918809Y-99693095D01*
X106918809Y-99693095D02*
X106775952Y-99693095D01*
X106775952Y-99693095D02*
X106585476Y-99740714D01*
X106585476Y-99740714D02*
X106490238Y-99788333D01*
X106490238Y-99788333D02*
X106395000Y-99883571D01*
X106395000Y-99883571D02*
X106347380Y-100026428D01*
X106347380Y-100026428D02*
X106347380Y-100121666D01*
X106347380Y-100121666D02*
X106395000Y-100264523D01*
X106395000Y-100264523D02*
X106442619Y-100312142D01*
X107347380Y-101264523D02*
X107347380Y-100693095D01*
X107347380Y-100978809D02*
X106347380Y-100978809D01*
X106347380Y-100978809D02*
X106490238Y-100883571D01*
X106490238Y-100883571D02*
X106585476Y-100788333D01*
X106585476Y-100788333D02*
X106633095Y-100693095D01*
X106347380Y-102169285D02*
X106347380Y-101693095D01*
X106347380Y-101693095D02*
X106823571Y-101645476D01*
X106823571Y-101645476D02*
X106775952Y-101693095D01*
X106775952Y-101693095D02*
X106728333Y-101788333D01*
X106728333Y-101788333D02*
X106728333Y-102026428D01*
X106728333Y-102026428D02*
X106775952Y-102121666D01*
X106775952Y-102121666D02*
X106823571Y-102169285D01*
X106823571Y-102169285D02*
X106918809Y-102216904D01*
X106918809Y-102216904D02*
X107156904Y-102216904D01*
X107156904Y-102216904D02*
X107252142Y-102169285D01*
X107252142Y-102169285D02*
X107299761Y-102121666D01*
X107299761Y-102121666D02*
X107347380Y-102026428D01*
X107347380Y-102026428D02*
X107347380Y-101788333D01*
X107347380Y-101788333D02*
X107299761Y-101693095D01*
X107299761Y-101693095D02*
X107252142Y-101645476D01*
X121229880Y-113895833D02*
X120753690Y-113562500D01*
X121229880Y-113324405D02*
X120229880Y-113324405D01*
X120229880Y-113324405D02*
X120229880Y-113705357D01*
X120229880Y-113705357D02*
X120277500Y-113800595D01*
X120277500Y-113800595D02*
X120325119Y-113848214D01*
X120325119Y-113848214D02*
X120420357Y-113895833D01*
X120420357Y-113895833D02*
X120563214Y-113895833D01*
X120563214Y-113895833D02*
X120658452Y-113848214D01*
X120658452Y-113848214D02*
X120706071Y-113800595D01*
X120706071Y-113800595D02*
X120753690Y-113705357D01*
X120753690Y-113705357D02*
X120753690Y-113324405D01*
X120658452Y-114467262D02*
X120610833Y-114372024D01*
X120610833Y-114372024D02*
X120563214Y-114324405D01*
X120563214Y-114324405D02*
X120467976Y-114276786D01*
X120467976Y-114276786D02*
X120420357Y-114276786D01*
X120420357Y-114276786D02*
X120325119Y-114324405D01*
X120325119Y-114324405D02*
X120277500Y-114372024D01*
X120277500Y-114372024D02*
X120229880Y-114467262D01*
X120229880Y-114467262D02*
X120229880Y-114657738D01*
X120229880Y-114657738D02*
X120277500Y-114752976D01*
X120277500Y-114752976D02*
X120325119Y-114800595D01*
X120325119Y-114800595D02*
X120420357Y-114848214D01*
X120420357Y-114848214D02*
X120467976Y-114848214D01*
X120467976Y-114848214D02*
X120563214Y-114800595D01*
X120563214Y-114800595D02*
X120610833Y-114752976D01*
X120610833Y-114752976D02*
X120658452Y-114657738D01*
X120658452Y-114657738D02*
X120658452Y-114467262D01*
X120658452Y-114467262D02*
X120706071Y-114372024D01*
X120706071Y-114372024D02*
X120753690Y-114324405D01*
X120753690Y-114324405D02*
X120848928Y-114276786D01*
X120848928Y-114276786D02*
X121039404Y-114276786D01*
X121039404Y-114276786D02*
X121134642Y-114324405D01*
X121134642Y-114324405D02*
X121182261Y-114372024D01*
X121182261Y-114372024D02*
X121229880Y-114467262D01*
X121229880Y-114467262D02*
X121229880Y-114657738D01*
X121229880Y-114657738D02*
X121182261Y-114752976D01*
X121182261Y-114752976D02*
X121134642Y-114800595D01*
X121134642Y-114800595D02*
X121039404Y-114848214D01*
X121039404Y-114848214D02*
X120848928Y-114848214D01*
X120848928Y-114848214D02*
X120753690Y-114800595D01*
X120753690Y-114800595D02*
X120706071Y-114752976D01*
X120706071Y-114752976D02*
X120658452Y-114657738D01*
X124069690Y-114127309D02*
X124545880Y-114127309D01*
X123545880Y-113793976D02*
X124069690Y-114127309D01*
X124069690Y-114127309D02*
X123545880Y-114460642D01*
X124545880Y-115317785D02*
X124545880Y-114746357D01*
X124545880Y-115032071D02*
X123545880Y-115032071D01*
X123545880Y-115032071D02*
X123688738Y-114936833D01*
X123688738Y-114936833D02*
X123783976Y-114841595D01*
X123783976Y-114841595D02*
X123831595Y-114746357D01*
X119996666Y-136437166D02*
X119996666Y-135737166D01*
X119996666Y-135737166D02*
X119829999Y-135737166D01*
X119829999Y-135737166D02*
X119729999Y-135770500D01*
X119729999Y-135770500D02*
X119663333Y-135837166D01*
X119663333Y-135837166D02*
X119629999Y-135903833D01*
X119629999Y-135903833D02*
X119596666Y-136037166D01*
X119596666Y-136037166D02*
X119596666Y-136137166D01*
X119596666Y-136137166D02*
X119629999Y-136270500D01*
X119629999Y-136270500D02*
X119663333Y-136337166D01*
X119663333Y-136337166D02*
X119729999Y-136403833D01*
X119729999Y-136403833D02*
X119829999Y-136437166D01*
X119829999Y-136437166D02*
X119996666Y-136437166D01*
X119363333Y-135737166D02*
X118896666Y-135737166D01*
X118896666Y-135737166D02*
X119196666Y-136437166D01*
D11*
X128888094Y-103387380D02*
X128888094Y-102387380D01*
X128888094Y-102387380D02*
X128649999Y-102387380D01*
X128649999Y-102387380D02*
X128507142Y-102435000D01*
X128507142Y-102435000D02*
X128411904Y-102530238D01*
X128411904Y-102530238D02*
X128364285Y-102625476D01*
X128364285Y-102625476D02*
X128316666Y-102815952D01*
X128316666Y-102815952D02*
X128316666Y-102958809D01*
X128316666Y-102958809D02*
X128364285Y-103149285D01*
X128364285Y-103149285D02*
X128411904Y-103244523D01*
X128411904Y-103244523D02*
X128507142Y-103339761D01*
X128507142Y-103339761D02*
X128649999Y-103387380D01*
X128649999Y-103387380D02*
X128888094Y-103387380D01*
X127364285Y-103387380D02*
X127935713Y-103387380D01*
X127649999Y-103387380D02*
X127649999Y-102387380D01*
X127649999Y-102387380D02*
X127745237Y-102530238D01*
X127745237Y-102530238D02*
X127840475Y-102625476D01*
X127840475Y-102625476D02*
X127935713Y-102673095D01*
X132038094Y-140017380D02*
X132038094Y-139017380D01*
X132038094Y-139017380D02*
X131799999Y-139017380D01*
X131799999Y-139017380D02*
X131657142Y-139065000D01*
X131657142Y-139065000D02*
X131561904Y-139160238D01*
X131561904Y-139160238D02*
X131514285Y-139255476D01*
X131514285Y-139255476D02*
X131466666Y-139445952D01*
X131466666Y-139445952D02*
X131466666Y-139588809D01*
X131466666Y-139588809D02*
X131514285Y-139779285D01*
X131514285Y-139779285D02*
X131561904Y-139874523D01*
X131561904Y-139874523D02*
X131657142Y-139969761D01*
X131657142Y-139969761D02*
X131799999Y-140017380D01*
X131799999Y-140017380D02*
X132038094Y-140017380D01*
X131085713Y-139112619D02*
X131038094Y-139065000D01*
X131038094Y-139065000D02*
X130942856Y-139017380D01*
X130942856Y-139017380D02*
X130704761Y-139017380D01*
X130704761Y-139017380D02*
X130609523Y-139065000D01*
X130609523Y-139065000D02*
X130561904Y-139112619D01*
X130561904Y-139112619D02*
X130514285Y-139207857D01*
X130514285Y-139207857D02*
X130514285Y-139303095D01*
X130514285Y-139303095D02*
X130561904Y-139445952D01*
X130561904Y-139445952D02*
X131133332Y-140017380D01*
X131133332Y-140017380D02*
X130514285Y-140017380D01*
D10*
X105506666Y-124567380D02*
X105839999Y-124091190D01*
X106078094Y-124567380D02*
X106078094Y-123567380D01*
X106078094Y-123567380D02*
X105697142Y-123567380D01*
X105697142Y-123567380D02*
X105601904Y-123615000D01*
X105601904Y-123615000D02*
X105554285Y-123662619D01*
X105554285Y-123662619D02*
X105506666Y-123757857D01*
X105506666Y-123757857D02*
X105506666Y-123900714D01*
X105506666Y-123900714D02*
X105554285Y-123995952D01*
X105554285Y-123995952D02*
X105601904Y-124043571D01*
X105601904Y-124043571D02*
X105697142Y-124091190D01*
X105697142Y-124091190D02*
X106078094Y-124091190D01*
X104649523Y-123900714D02*
X104649523Y-124567380D01*
X104887618Y-123519761D02*
X105125713Y-124234047D01*
X105125713Y-124234047D02*
X104506666Y-124234047D01*
X122219761Y-127452381D02*
X122267380Y-127595238D01*
X122267380Y-127595238D02*
X122267380Y-127833333D01*
X122267380Y-127833333D02*
X122219761Y-127928571D01*
X122219761Y-127928571D02*
X122172142Y-127976190D01*
X122172142Y-127976190D02*
X122076904Y-128023809D01*
X122076904Y-128023809D02*
X121981666Y-128023809D01*
X121981666Y-128023809D02*
X121886428Y-127976190D01*
X121886428Y-127976190D02*
X121838809Y-127928571D01*
X121838809Y-127928571D02*
X121791190Y-127833333D01*
X121791190Y-127833333D02*
X121743571Y-127642857D01*
X121743571Y-127642857D02*
X121695952Y-127547619D01*
X121695952Y-127547619D02*
X121648333Y-127500000D01*
X121648333Y-127500000D02*
X121553095Y-127452381D01*
X121553095Y-127452381D02*
X121457857Y-127452381D01*
X121457857Y-127452381D02*
X121362619Y-127500000D01*
X121362619Y-127500000D02*
X121315000Y-127547619D01*
X121315000Y-127547619D02*
X121267380Y-127642857D01*
X121267380Y-127642857D02*
X121267380Y-127880952D01*
X121267380Y-127880952D02*
X121315000Y-128023809D01*
X122219761Y-128404762D02*
X122267380Y-128547619D01*
X122267380Y-128547619D02*
X122267380Y-128785714D01*
X122267380Y-128785714D02*
X122219761Y-128880952D01*
X122219761Y-128880952D02*
X122172142Y-128928571D01*
X122172142Y-128928571D02*
X122076904Y-128976190D01*
X122076904Y-128976190D02*
X121981666Y-128976190D01*
X121981666Y-128976190D02*
X121886428Y-128928571D01*
X121886428Y-128928571D02*
X121838809Y-128880952D01*
X121838809Y-128880952D02*
X121791190Y-128785714D01*
X121791190Y-128785714D02*
X121743571Y-128595238D01*
X121743571Y-128595238D02*
X121695952Y-128500000D01*
X121695952Y-128500000D02*
X121648333Y-128452381D01*
X121648333Y-128452381D02*
X121553095Y-128404762D01*
X121553095Y-128404762D02*
X121457857Y-128404762D01*
X121457857Y-128404762D02*
X121362619Y-128452381D01*
X121362619Y-128452381D02*
X121315000Y-128500000D01*
X121315000Y-128500000D02*
X121267380Y-128595238D01*
X121267380Y-128595238D02*
X121267380Y-128833333D01*
X121267380Y-128833333D02*
X121315000Y-128976190D01*
X121267380Y-129309524D02*
X121267380Y-129928571D01*
X121267380Y-129928571D02*
X121648333Y-129595238D01*
X121648333Y-129595238D02*
X121648333Y-129738095D01*
X121648333Y-129738095D02*
X121695952Y-129833333D01*
X121695952Y-129833333D02*
X121743571Y-129880952D01*
X121743571Y-129880952D02*
X121838809Y-129928571D01*
X121838809Y-129928571D02*
X122076904Y-129928571D01*
X122076904Y-129928571D02*
X122172142Y-129880952D01*
X122172142Y-129880952D02*
X122219761Y-129833333D01*
X122219761Y-129833333D02*
X122267380Y-129738095D01*
X122267380Y-129738095D02*
X122267380Y-129452381D01*
X122267380Y-129452381D02*
X122219761Y-129357143D01*
X122219761Y-129357143D02*
X122172142Y-129309524D01*
X122267380Y-130404762D02*
X122267380Y-130595238D01*
X122267380Y-130595238D02*
X122219761Y-130690476D01*
X122219761Y-130690476D02*
X122172142Y-130738095D01*
X122172142Y-130738095D02*
X122029285Y-130833333D01*
X122029285Y-130833333D02*
X121838809Y-130880952D01*
X121838809Y-130880952D02*
X121457857Y-130880952D01*
X121457857Y-130880952D02*
X121362619Y-130833333D01*
X121362619Y-130833333D02*
X121315000Y-130785714D01*
X121315000Y-130785714D02*
X121267380Y-130690476D01*
X121267380Y-130690476D02*
X121267380Y-130500000D01*
X121267380Y-130500000D02*
X121315000Y-130404762D01*
X121315000Y-130404762D02*
X121362619Y-130357143D01*
X121362619Y-130357143D02*
X121457857Y-130309524D01*
X121457857Y-130309524D02*
X121695952Y-130309524D01*
X121695952Y-130309524D02*
X121791190Y-130357143D01*
X121791190Y-130357143D02*
X121838809Y-130404762D01*
X121838809Y-130404762D02*
X121886428Y-130500000D01*
X121886428Y-130500000D02*
X121886428Y-130690476D01*
X121886428Y-130690476D02*
X121838809Y-130785714D01*
X121838809Y-130785714D02*
X121791190Y-130833333D01*
X121791190Y-130833333D02*
X121695952Y-130880952D01*
X121743571Y-131309524D02*
X121743571Y-131642857D01*
X122267380Y-131785714D02*
X122267380Y-131309524D01*
X122267380Y-131309524D02*
X121267380Y-131309524D01*
X121267380Y-131309524D02*
X121267380Y-131785714D01*
X121267380Y-132071429D02*
X121267380Y-132642857D01*
X122267380Y-132357143D02*
X121267380Y-132357143D01*
X120976666Y-109528833D02*
X121043333Y-109495500D01*
X121043333Y-109495500D02*
X121110000Y-109428833D01*
X121110000Y-109428833D02*
X121210000Y-109328833D01*
X121210000Y-109328833D02*
X121276666Y-109295500D01*
X121276666Y-109295500D02*
X121343333Y-109295500D01*
X121310000Y-109462166D02*
X121376666Y-109428833D01*
X121376666Y-109428833D02*
X121443333Y-109362166D01*
X121443333Y-109362166D02*
X121476666Y-109228833D01*
X121476666Y-109228833D02*
X121476666Y-108995500D01*
X121476666Y-108995500D02*
X121443333Y-108862166D01*
X121443333Y-108862166D02*
X121376666Y-108795500D01*
X121376666Y-108795500D02*
X121310000Y-108762166D01*
X121310000Y-108762166D02*
X121176666Y-108762166D01*
X121176666Y-108762166D02*
X121110000Y-108795500D01*
X121110000Y-108795500D02*
X121043333Y-108862166D01*
X121043333Y-108862166D02*
X121010000Y-108995500D01*
X121010000Y-108995500D02*
X121010000Y-109228833D01*
X121010000Y-109228833D02*
X121043333Y-109362166D01*
X121043333Y-109362166D02*
X121110000Y-109428833D01*
X121110000Y-109428833D02*
X121176666Y-109462166D01*
X121176666Y-109462166D02*
X121310000Y-109462166D01*
X120343333Y-109462166D02*
X120743333Y-109462166D01*
X120543333Y-109462166D02*
X120543333Y-108762166D01*
X120543333Y-108762166D02*
X120610000Y-108862166D01*
X120610000Y-108862166D02*
X120676667Y-108928833D01*
X120676667Y-108928833D02*
X120743333Y-108962166D01*
X97976666Y-124227380D02*
X98309999Y-123751190D01*
X98548094Y-124227380D02*
X98548094Y-123227380D01*
X98548094Y-123227380D02*
X98167142Y-123227380D01*
X98167142Y-123227380D02*
X98071904Y-123275000D01*
X98071904Y-123275000D02*
X98024285Y-123322619D01*
X98024285Y-123322619D02*
X97976666Y-123417857D01*
X97976666Y-123417857D02*
X97976666Y-123560714D01*
X97976666Y-123560714D02*
X98024285Y-123655952D01*
X98024285Y-123655952D02*
X98071904Y-123703571D01*
X98071904Y-123703571D02*
X98167142Y-123751190D01*
X98167142Y-123751190D02*
X98548094Y-123751190D01*
X97024285Y-124227380D02*
X97595713Y-124227380D01*
X97309999Y-124227380D02*
X97309999Y-123227380D01*
X97309999Y-123227380D02*
X97405237Y-123370238D01*
X97405237Y-123370238D02*
X97500475Y-123465476D01*
X97500475Y-123465476D02*
X97595713Y-123513095D01*
D11*
X72728094Y-110287380D02*
X72728094Y-109287380D01*
X72728094Y-109287380D02*
X72489999Y-109287380D01*
X72489999Y-109287380D02*
X72347142Y-109335000D01*
X72347142Y-109335000D02*
X72251904Y-109430238D01*
X72251904Y-109430238D02*
X72204285Y-109525476D01*
X72204285Y-109525476D02*
X72156666Y-109715952D01*
X72156666Y-109715952D02*
X72156666Y-109858809D01*
X72156666Y-109858809D02*
X72204285Y-110049285D01*
X72204285Y-110049285D02*
X72251904Y-110144523D01*
X72251904Y-110144523D02*
X72347142Y-110239761D01*
X72347142Y-110239761D02*
X72489999Y-110287380D01*
X72489999Y-110287380D02*
X72728094Y-110287380D01*
X71299523Y-109620714D02*
X71299523Y-110287380D01*
X71537618Y-109239761D02*
X71775713Y-109954047D01*
X71775713Y-109954047D02*
X71156666Y-109954047D01*
D10*
X99568333Y-110697166D02*
X99568333Y-111263833D01*
X99568333Y-111263833D02*
X99535000Y-111330500D01*
X99535000Y-111330500D02*
X99501666Y-111363833D01*
X99501666Y-111363833D02*
X99435000Y-111397166D01*
X99435000Y-111397166D02*
X99301666Y-111397166D01*
X99301666Y-111397166D02*
X99235000Y-111363833D01*
X99235000Y-111363833D02*
X99201666Y-111330500D01*
X99201666Y-111330500D02*
X99168333Y-111263833D01*
X99168333Y-111263833D02*
X99168333Y-110697166D01*
X98901667Y-110697166D02*
X98468333Y-110697166D01*
X98468333Y-110697166D02*
X98701667Y-110963833D01*
X98701667Y-110963833D02*
X98601667Y-110963833D01*
X98601667Y-110963833D02*
X98535000Y-110997166D01*
X98535000Y-110997166D02*
X98501667Y-111030500D01*
X98501667Y-111030500D02*
X98468333Y-111097166D01*
X98468333Y-111097166D02*
X98468333Y-111263833D01*
X98468333Y-111263833D02*
X98501667Y-111330500D01*
X98501667Y-111330500D02*
X98535000Y-111363833D01*
X98535000Y-111363833D02*
X98601667Y-111397166D01*
X98601667Y-111397166D02*
X98801667Y-111397166D01*
X98801667Y-111397166D02*
X98868333Y-111363833D01*
X98868333Y-111363833D02*
X98901667Y-111330500D01*
X99868333Y-106930500D02*
X99635000Y-106930500D01*
X99535000Y-107297166D02*
X99868333Y-107297166D01*
X99868333Y-107297166D02*
X99868333Y-106597166D01*
X99868333Y-106597166D02*
X99535000Y-106597166D01*
X99268333Y-107263833D02*
X99168333Y-107297166D01*
X99168333Y-107297166D02*
X99001667Y-107297166D01*
X99001667Y-107297166D02*
X98935000Y-107263833D01*
X98935000Y-107263833D02*
X98901667Y-107230500D01*
X98901667Y-107230500D02*
X98868333Y-107163833D01*
X98868333Y-107163833D02*
X98868333Y-107097166D01*
X98868333Y-107097166D02*
X98901667Y-107030500D01*
X98901667Y-107030500D02*
X98935000Y-106997166D01*
X98935000Y-106997166D02*
X99001667Y-106963833D01*
X99001667Y-106963833D02*
X99135000Y-106930500D01*
X99135000Y-106930500D02*
X99201667Y-106897166D01*
X99201667Y-106897166D02*
X99235000Y-106863833D01*
X99235000Y-106863833D02*
X99268333Y-106797166D01*
X99268333Y-106797166D02*
X99268333Y-106730500D01*
X99268333Y-106730500D02*
X99235000Y-106663833D01*
X99235000Y-106663833D02*
X99201667Y-106630500D01*
X99201667Y-106630500D02*
X99135000Y-106597166D01*
X99135000Y-106597166D02*
X98968333Y-106597166D01*
X98968333Y-106597166D02*
X98868333Y-106630500D01*
X98568333Y-107297166D02*
X98568333Y-106597166D01*
X98568333Y-106597166D02*
X98401666Y-106597166D01*
X98401666Y-106597166D02*
X98301666Y-106630500D01*
X98301666Y-106630500D02*
X98235000Y-106697166D01*
X98235000Y-106697166D02*
X98201666Y-106763833D01*
X98201666Y-106763833D02*
X98168333Y-106897166D01*
X98168333Y-106897166D02*
X98168333Y-106997166D01*
X98168333Y-106997166D02*
X98201666Y-107130500D01*
X98201666Y-107130500D02*
X98235000Y-107197166D01*
X98235000Y-107197166D02*
X98301666Y-107263833D01*
X98301666Y-107263833D02*
X98401666Y-107297166D01*
X98401666Y-107297166D02*
X98568333Y-107297166D01*
X102719761Y-127452381D02*
X102767380Y-127595238D01*
X102767380Y-127595238D02*
X102767380Y-127833333D01*
X102767380Y-127833333D02*
X102719761Y-127928571D01*
X102719761Y-127928571D02*
X102672142Y-127976190D01*
X102672142Y-127976190D02*
X102576904Y-128023809D01*
X102576904Y-128023809D02*
X102481666Y-128023809D01*
X102481666Y-128023809D02*
X102386428Y-127976190D01*
X102386428Y-127976190D02*
X102338809Y-127928571D01*
X102338809Y-127928571D02*
X102291190Y-127833333D01*
X102291190Y-127833333D02*
X102243571Y-127642857D01*
X102243571Y-127642857D02*
X102195952Y-127547619D01*
X102195952Y-127547619D02*
X102148333Y-127500000D01*
X102148333Y-127500000D02*
X102053095Y-127452381D01*
X102053095Y-127452381D02*
X101957857Y-127452381D01*
X101957857Y-127452381D02*
X101862619Y-127500000D01*
X101862619Y-127500000D02*
X101815000Y-127547619D01*
X101815000Y-127547619D02*
X101767380Y-127642857D01*
X101767380Y-127642857D02*
X101767380Y-127880952D01*
X101767380Y-127880952D02*
X101815000Y-128023809D01*
X102719761Y-128404762D02*
X102767380Y-128547619D01*
X102767380Y-128547619D02*
X102767380Y-128785714D01*
X102767380Y-128785714D02*
X102719761Y-128880952D01*
X102719761Y-128880952D02*
X102672142Y-128928571D01*
X102672142Y-128928571D02*
X102576904Y-128976190D01*
X102576904Y-128976190D02*
X102481666Y-128976190D01*
X102481666Y-128976190D02*
X102386428Y-128928571D01*
X102386428Y-128928571D02*
X102338809Y-128880952D01*
X102338809Y-128880952D02*
X102291190Y-128785714D01*
X102291190Y-128785714D02*
X102243571Y-128595238D01*
X102243571Y-128595238D02*
X102195952Y-128500000D01*
X102195952Y-128500000D02*
X102148333Y-128452381D01*
X102148333Y-128452381D02*
X102053095Y-128404762D01*
X102053095Y-128404762D02*
X101957857Y-128404762D01*
X101957857Y-128404762D02*
X101862619Y-128452381D01*
X101862619Y-128452381D02*
X101815000Y-128500000D01*
X101815000Y-128500000D02*
X101767380Y-128595238D01*
X101767380Y-128595238D02*
X101767380Y-128833333D01*
X101767380Y-128833333D02*
X101815000Y-128976190D01*
X101767380Y-129309524D02*
X101767380Y-129928571D01*
X101767380Y-129928571D02*
X102148333Y-129595238D01*
X102148333Y-129595238D02*
X102148333Y-129738095D01*
X102148333Y-129738095D02*
X102195952Y-129833333D01*
X102195952Y-129833333D02*
X102243571Y-129880952D01*
X102243571Y-129880952D02*
X102338809Y-129928571D01*
X102338809Y-129928571D02*
X102576904Y-129928571D01*
X102576904Y-129928571D02*
X102672142Y-129880952D01*
X102672142Y-129880952D02*
X102719761Y-129833333D01*
X102719761Y-129833333D02*
X102767380Y-129738095D01*
X102767380Y-129738095D02*
X102767380Y-129452381D01*
X102767380Y-129452381D02*
X102719761Y-129357143D01*
X102719761Y-129357143D02*
X102672142Y-129309524D01*
X102767380Y-130404762D02*
X102767380Y-130595238D01*
X102767380Y-130595238D02*
X102719761Y-130690476D01*
X102719761Y-130690476D02*
X102672142Y-130738095D01*
X102672142Y-130738095D02*
X102529285Y-130833333D01*
X102529285Y-130833333D02*
X102338809Y-130880952D01*
X102338809Y-130880952D02*
X101957857Y-130880952D01*
X101957857Y-130880952D02*
X101862619Y-130833333D01*
X101862619Y-130833333D02*
X101815000Y-130785714D01*
X101815000Y-130785714D02*
X101767380Y-130690476D01*
X101767380Y-130690476D02*
X101767380Y-130500000D01*
X101767380Y-130500000D02*
X101815000Y-130404762D01*
X101815000Y-130404762D02*
X101862619Y-130357143D01*
X101862619Y-130357143D02*
X101957857Y-130309524D01*
X101957857Y-130309524D02*
X102195952Y-130309524D01*
X102195952Y-130309524D02*
X102291190Y-130357143D01*
X102291190Y-130357143D02*
X102338809Y-130404762D01*
X102338809Y-130404762D02*
X102386428Y-130500000D01*
X102386428Y-130500000D02*
X102386428Y-130690476D01*
X102386428Y-130690476D02*
X102338809Y-130785714D01*
X102338809Y-130785714D02*
X102291190Y-130833333D01*
X102291190Y-130833333D02*
X102195952Y-130880952D01*
X102243571Y-131309524D02*
X102243571Y-131642857D01*
X102767380Y-131785714D02*
X102767380Y-131309524D01*
X102767380Y-131309524D02*
X101767380Y-131309524D01*
X101767380Y-131309524D02*
X101767380Y-131785714D01*
X101767380Y-132071429D02*
X101767380Y-132642857D01*
X102767380Y-132357143D02*
X101767380Y-132357143D01*
X125447380Y-105467142D02*
X124971190Y-105133809D01*
X125447380Y-104895714D02*
X124447380Y-104895714D01*
X124447380Y-104895714D02*
X124447380Y-105276666D01*
X124447380Y-105276666D02*
X124495000Y-105371904D01*
X124495000Y-105371904D02*
X124542619Y-105419523D01*
X124542619Y-105419523D02*
X124637857Y-105467142D01*
X124637857Y-105467142D02*
X124780714Y-105467142D01*
X124780714Y-105467142D02*
X124875952Y-105419523D01*
X124875952Y-105419523D02*
X124923571Y-105371904D01*
X124923571Y-105371904D02*
X124971190Y-105276666D01*
X124971190Y-105276666D02*
X124971190Y-104895714D01*
X125447380Y-106419523D02*
X125447380Y-105848095D01*
X125447380Y-106133809D02*
X124447380Y-106133809D01*
X124447380Y-106133809D02*
X124590238Y-106038571D01*
X124590238Y-106038571D02*
X124685476Y-105943333D01*
X124685476Y-105943333D02*
X124733095Y-105848095D01*
X124447380Y-107038571D02*
X124447380Y-107133809D01*
X124447380Y-107133809D02*
X124495000Y-107229047D01*
X124495000Y-107229047D02*
X124542619Y-107276666D01*
X124542619Y-107276666D02*
X124637857Y-107324285D01*
X124637857Y-107324285D02*
X124828333Y-107371904D01*
X124828333Y-107371904D02*
X125066428Y-107371904D01*
X125066428Y-107371904D02*
X125256904Y-107324285D01*
X125256904Y-107324285D02*
X125352142Y-107276666D01*
X125352142Y-107276666D02*
X125399761Y-107229047D01*
X125399761Y-107229047D02*
X125447380Y-107133809D01*
X125447380Y-107133809D02*
X125447380Y-107038571D01*
X125447380Y-107038571D02*
X125399761Y-106943333D01*
X125399761Y-106943333D02*
X125352142Y-106895714D01*
X125352142Y-106895714D02*
X125256904Y-106848095D01*
X125256904Y-106848095D02*
X125066428Y-106800476D01*
X125066428Y-106800476D02*
X124828333Y-106800476D01*
X124828333Y-106800476D02*
X124637857Y-106848095D01*
X124637857Y-106848095D02*
X124542619Y-106895714D01*
X124542619Y-106895714D02*
X124495000Y-106943333D01*
X124495000Y-106943333D02*
X124447380Y-107038571D01*
X83219761Y-127452381D02*
X83267380Y-127595238D01*
X83267380Y-127595238D02*
X83267380Y-127833333D01*
X83267380Y-127833333D02*
X83219761Y-127928571D01*
X83219761Y-127928571D02*
X83172142Y-127976190D01*
X83172142Y-127976190D02*
X83076904Y-128023809D01*
X83076904Y-128023809D02*
X82981666Y-128023809D01*
X82981666Y-128023809D02*
X82886428Y-127976190D01*
X82886428Y-127976190D02*
X82838809Y-127928571D01*
X82838809Y-127928571D02*
X82791190Y-127833333D01*
X82791190Y-127833333D02*
X82743571Y-127642857D01*
X82743571Y-127642857D02*
X82695952Y-127547619D01*
X82695952Y-127547619D02*
X82648333Y-127500000D01*
X82648333Y-127500000D02*
X82553095Y-127452381D01*
X82553095Y-127452381D02*
X82457857Y-127452381D01*
X82457857Y-127452381D02*
X82362619Y-127500000D01*
X82362619Y-127500000D02*
X82315000Y-127547619D01*
X82315000Y-127547619D02*
X82267380Y-127642857D01*
X82267380Y-127642857D02*
X82267380Y-127880952D01*
X82267380Y-127880952D02*
X82315000Y-128023809D01*
X83219761Y-128404762D02*
X83267380Y-128547619D01*
X83267380Y-128547619D02*
X83267380Y-128785714D01*
X83267380Y-128785714D02*
X83219761Y-128880952D01*
X83219761Y-128880952D02*
X83172142Y-128928571D01*
X83172142Y-128928571D02*
X83076904Y-128976190D01*
X83076904Y-128976190D02*
X82981666Y-128976190D01*
X82981666Y-128976190D02*
X82886428Y-128928571D01*
X82886428Y-128928571D02*
X82838809Y-128880952D01*
X82838809Y-128880952D02*
X82791190Y-128785714D01*
X82791190Y-128785714D02*
X82743571Y-128595238D01*
X82743571Y-128595238D02*
X82695952Y-128500000D01*
X82695952Y-128500000D02*
X82648333Y-128452381D01*
X82648333Y-128452381D02*
X82553095Y-128404762D01*
X82553095Y-128404762D02*
X82457857Y-128404762D01*
X82457857Y-128404762D02*
X82362619Y-128452381D01*
X82362619Y-128452381D02*
X82315000Y-128500000D01*
X82315000Y-128500000D02*
X82267380Y-128595238D01*
X82267380Y-128595238D02*
X82267380Y-128833333D01*
X82267380Y-128833333D02*
X82315000Y-128976190D01*
X82267380Y-129309524D02*
X82267380Y-129928571D01*
X82267380Y-129928571D02*
X82648333Y-129595238D01*
X82648333Y-129595238D02*
X82648333Y-129738095D01*
X82648333Y-129738095D02*
X82695952Y-129833333D01*
X82695952Y-129833333D02*
X82743571Y-129880952D01*
X82743571Y-129880952D02*
X82838809Y-129928571D01*
X82838809Y-129928571D02*
X83076904Y-129928571D01*
X83076904Y-129928571D02*
X83172142Y-129880952D01*
X83172142Y-129880952D02*
X83219761Y-129833333D01*
X83219761Y-129833333D02*
X83267380Y-129738095D01*
X83267380Y-129738095D02*
X83267380Y-129452381D01*
X83267380Y-129452381D02*
X83219761Y-129357143D01*
X83219761Y-129357143D02*
X83172142Y-129309524D01*
X83267380Y-130404762D02*
X83267380Y-130595238D01*
X83267380Y-130595238D02*
X83219761Y-130690476D01*
X83219761Y-130690476D02*
X83172142Y-130738095D01*
X83172142Y-130738095D02*
X83029285Y-130833333D01*
X83029285Y-130833333D02*
X82838809Y-130880952D01*
X82838809Y-130880952D02*
X82457857Y-130880952D01*
X82457857Y-130880952D02*
X82362619Y-130833333D01*
X82362619Y-130833333D02*
X82315000Y-130785714D01*
X82315000Y-130785714D02*
X82267380Y-130690476D01*
X82267380Y-130690476D02*
X82267380Y-130500000D01*
X82267380Y-130500000D02*
X82315000Y-130404762D01*
X82315000Y-130404762D02*
X82362619Y-130357143D01*
X82362619Y-130357143D02*
X82457857Y-130309524D01*
X82457857Y-130309524D02*
X82695952Y-130309524D01*
X82695952Y-130309524D02*
X82791190Y-130357143D01*
X82791190Y-130357143D02*
X82838809Y-130404762D01*
X82838809Y-130404762D02*
X82886428Y-130500000D01*
X82886428Y-130500000D02*
X82886428Y-130690476D01*
X82886428Y-130690476D02*
X82838809Y-130785714D01*
X82838809Y-130785714D02*
X82791190Y-130833333D01*
X82791190Y-130833333D02*
X82695952Y-130880952D01*
X82743571Y-131309524D02*
X82743571Y-131642857D01*
X83267380Y-131785714D02*
X83267380Y-131309524D01*
X83267380Y-131309524D02*
X82267380Y-131309524D01*
X82267380Y-131309524D02*
X82267380Y-131785714D01*
X82267380Y-132071429D02*
X82267380Y-132642857D01*
X83267380Y-132357143D02*
X82267380Y-132357143D01*
X80996666Y-136732166D02*
X80996666Y-136032166D01*
X80996666Y-136032166D02*
X80829999Y-136032166D01*
X80829999Y-136032166D02*
X80729999Y-136065500D01*
X80729999Y-136065500D02*
X80663333Y-136132166D01*
X80663333Y-136132166D02*
X80629999Y-136198833D01*
X80629999Y-136198833D02*
X80596666Y-136332166D01*
X80596666Y-136332166D02*
X80596666Y-136432166D01*
X80596666Y-136432166D02*
X80629999Y-136565500D01*
X80629999Y-136565500D02*
X80663333Y-136632166D01*
X80663333Y-136632166D02*
X80729999Y-136698833D01*
X80729999Y-136698833D02*
X80829999Y-136732166D01*
X80829999Y-136732166D02*
X80996666Y-136732166D01*
X79963333Y-136032166D02*
X80296666Y-136032166D01*
X80296666Y-136032166D02*
X80329999Y-136365500D01*
X80329999Y-136365500D02*
X80296666Y-136332166D01*
X80296666Y-136332166D02*
X80229999Y-136298833D01*
X80229999Y-136298833D02*
X80063333Y-136298833D01*
X80063333Y-136298833D02*
X79996666Y-136332166D01*
X79996666Y-136332166D02*
X79963333Y-136365500D01*
X79963333Y-136365500D02*
X79929999Y-136432166D01*
X79929999Y-136432166D02*
X79929999Y-136598833D01*
X79929999Y-136598833D02*
X79963333Y-136665500D01*
X79963333Y-136665500D02*
X79996666Y-136698833D01*
X79996666Y-136698833D02*
X80063333Y-136732166D01*
X80063333Y-136732166D02*
X80229999Y-136732166D01*
X80229999Y-136732166D02*
X80296666Y-136698833D01*
X80296666Y-136698833D02*
X80329999Y-136665500D01*
X117637380Y-107093333D02*
X117161190Y-106760000D01*
X117637380Y-106521905D02*
X116637380Y-106521905D01*
X116637380Y-106521905D02*
X116637380Y-106902857D01*
X116637380Y-106902857D02*
X116685000Y-106998095D01*
X116685000Y-106998095D02*
X116732619Y-107045714D01*
X116732619Y-107045714D02*
X116827857Y-107093333D01*
X116827857Y-107093333D02*
X116970714Y-107093333D01*
X116970714Y-107093333D02*
X117065952Y-107045714D01*
X117065952Y-107045714D02*
X117113571Y-106998095D01*
X117113571Y-106998095D02*
X117161190Y-106902857D01*
X117161190Y-106902857D02*
X117161190Y-106521905D01*
X117637380Y-107569524D02*
X117637380Y-107760000D01*
X117637380Y-107760000D02*
X117589761Y-107855238D01*
X117589761Y-107855238D02*
X117542142Y-107902857D01*
X117542142Y-107902857D02*
X117399285Y-107998095D01*
X117399285Y-107998095D02*
X117208809Y-108045714D01*
X117208809Y-108045714D02*
X116827857Y-108045714D01*
X116827857Y-108045714D02*
X116732619Y-107998095D01*
X116732619Y-107998095D02*
X116685000Y-107950476D01*
X116685000Y-107950476D02*
X116637380Y-107855238D01*
X116637380Y-107855238D02*
X116637380Y-107664762D01*
X116637380Y-107664762D02*
X116685000Y-107569524D01*
X116685000Y-107569524D02*
X116732619Y-107521905D01*
X116732619Y-107521905D02*
X116827857Y-107474286D01*
X116827857Y-107474286D02*
X117065952Y-107474286D01*
X117065952Y-107474286D02*
X117161190Y-107521905D01*
X117161190Y-107521905D02*
X117208809Y-107569524D01*
X117208809Y-107569524D02*
X117256428Y-107664762D01*
X117256428Y-107664762D02*
X117256428Y-107855238D01*
X117256428Y-107855238D02*
X117208809Y-107950476D01*
X117208809Y-107950476D02*
X117161190Y-107998095D01*
X117161190Y-107998095D02*
X117065952Y-108045714D01*
D11*
X69708094Y-147367380D02*
X69708094Y-146367380D01*
X69708094Y-146367380D02*
X69469999Y-146367380D01*
X69469999Y-146367380D02*
X69327142Y-146415000D01*
X69327142Y-146415000D02*
X69231904Y-146510238D01*
X69231904Y-146510238D02*
X69184285Y-146605476D01*
X69184285Y-146605476D02*
X69136666Y-146795952D01*
X69136666Y-146795952D02*
X69136666Y-146938809D01*
X69136666Y-146938809D02*
X69184285Y-147129285D01*
X69184285Y-147129285D02*
X69231904Y-147224523D01*
X69231904Y-147224523D02*
X69327142Y-147319761D01*
X69327142Y-147319761D02*
X69469999Y-147367380D01*
X69469999Y-147367380D02*
X69708094Y-147367380D01*
X68803332Y-146367380D02*
X68184285Y-146367380D01*
X68184285Y-146367380D02*
X68517618Y-146748333D01*
X68517618Y-146748333D02*
X68374761Y-146748333D01*
X68374761Y-146748333D02*
X68279523Y-146795952D01*
X68279523Y-146795952D02*
X68231904Y-146843571D01*
X68231904Y-146843571D02*
X68184285Y-146938809D01*
X68184285Y-146938809D02*
X68184285Y-147176904D01*
X68184285Y-147176904D02*
X68231904Y-147272142D01*
X68231904Y-147272142D02*
X68279523Y-147319761D01*
X68279523Y-147319761D02*
X68374761Y-147367380D01*
X68374761Y-147367380D02*
X68660475Y-147367380D01*
X68660475Y-147367380D02*
X68755713Y-147319761D01*
X68755713Y-147319761D02*
X68803332Y-147272142D01*
D10*
X93293333Y-107573571D02*
X93626666Y-107573571D01*
X93626666Y-108097380D02*
X93626666Y-107097380D01*
X93626666Y-107097380D02*
X93150476Y-107097380D01*
X92245714Y-108097380D02*
X92817142Y-108097380D01*
X92531428Y-108097380D02*
X92531428Y-107097380D01*
X92531428Y-107097380D02*
X92626666Y-107240238D01*
X92626666Y-107240238D02*
X92721904Y-107335476D01*
X92721904Y-107335476D02*
X92817142Y-107383095D01*
G36*
X97830000Y-132845000D02*
G01*
X97230000Y-132845000D01*
X97830000Y-132245000D01*
X97830000Y-132845000D01*
G37*
D12*
X97830000Y-132845000D02*
X97230000Y-132845000D01*
X97830000Y-132245000D01*
X97830000Y-132845000D01*
D13*
X85818578Y-120450000D02*
X85301422Y-120450000D01*
X85818578Y-119030000D02*
X85301422Y-119030000D01*
X82280000Y-109330000D02*
X82280000Y-115340000D01*
X89100000Y-111580000D02*
X89100000Y-115340000D01*
X89100000Y-115340000D02*
X87840000Y-115340000D01*
X82280000Y-115340000D02*
X83540000Y-115340000D01*
X113432500Y-110722500D02*
X113432500Y-110462500D01*
X113432500Y-105532500D02*
X115107500Y-105532500D01*
X113432500Y-105272500D02*
X113432500Y-105532500D01*
X110707500Y-110722500D02*
X113432500Y-110722500D01*
X110707500Y-110722500D02*
X107982500Y-110722500D01*
X110707500Y-105272500D02*
X113432500Y-105272500D01*
X110707500Y-105272500D02*
X107982500Y-105272500D01*
X107982500Y-110722500D02*
X107982500Y-110462500D01*
X107982500Y-105272500D02*
X107982500Y-105532500D01*
X90541422Y-112110000D02*
X91058578Y-112110000D01*
X90541422Y-113530000D02*
X91058578Y-113530000D01*
X117247500Y-113117500D02*
X116597500Y-113117500D01*
X117247500Y-113767500D02*
X117247500Y-113117500D01*
X110027500Y-113767500D02*
X110027500Y-113117500D01*
X117247500Y-119687500D02*
X117247500Y-120337500D01*
X110027500Y-119687500D02*
X110027500Y-120337500D01*
X117247500Y-120337500D02*
X116597500Y-120337500D01*
X110027500Y-120337500D02*
X110677500Y-120337500D01*
X128638500Y-111603500D02*
X128638500Y-117603500D01*
X124918500Y-111603500D02*
X124918500Y-117603500D01*
X79840000Y-126562164D02*
X79840000Y-126777836D01*
X79120000Y-126562164D02*
X79120000Y-126777836D01*
X64940000Y-146012164D02*
X64940000Y-146227836D01*
X64220000Y-146012164D02*
X64220000Y-146227836D01*
G36*
X117280000Y-132680000D02*
G01*
X116680000Y-132680000D01*
X117280000Y-132080000D01*
X117280000Y-132680000D01*
G37*
D12*
X117280000Y-132680000D02*
X116680000Y-132680000D01*
X117280000Y-132080000D01*
X117280000Y-132680000D01*
D13*
X75597836Y-134890000D02*
X75382164Y-134890000D01*
X75597836Y-135610000D02*
X75382164Y-135610000D01*
D10*
X127890000Y-108930000D02*
X125590000Y-106680000D01*
D11*
X125890000Y-108930000D02*
X125590000Y-108680000D01*
D10*
X131040000Y-145560000D02*
X128740000Y-143310000D01*
D11*
X129040000Y-145560000D02*
X128740000Y-145310000D01*
D13*
X105199420Y-122260000D02*
X105480580Y-122260000D01*
X105199420Y-123280000D02*
X105480580Y-123280000D01*
X121060000Y-130000000D02*
X121060000Y-130800000D01*
X121770000Y-105300000D02*
X120310000Y-105300000D01*
X121770000Y-105300000D02*
X121770000Y-106230000D01*
X121770000Y-108460000D02*
X119610000Y-108460000D01*
X121770000Y-108460000D02*
X121770000Y-107530000D01*
X95330000Y-97900000D02*
X95330000Y-96750000D01*
X95330000Y-100000000D02*
X95330000Y-101800000D01*
X104670000Y-97900000D02*
X104670000Y-96750000D01*
X104670000Y-100000000D02*
X104670000Y-101800000D01*
D12*
X105000000Y-96325000D02*
X95000000Y-96325000D01*
X95530000Y-103675000D02*
X104470000Y-103675000D01*
X104470000Y-103675000D02*
X104470000Y-96325000D01*
X104470000Y-96325000D02*
X95530000Y-96325000D01*
X95530000Y-96325000D02*
X95530000Y-103675000D01*
D13*
X97669420Y-121920000D02*
X97950580Y-121920000D01*
X97669420Y-122940000D02*
X97950580Y-122940000D01*
D10*
X71940000Y-115870000D02*
X69640000Y-113620000D01*
D11*
X69940000Y-115870000D02*
X69640000Y-115620000D01*
D10*
X97435000Y-107940000D02*
X97435000Y-107640000D01*
X97435000Y-109940000D02*
X97435000Y-108340000D01*
X100635000Y-108340000D02*
X97435000Y-108340000D01*
X100635000Y-109940000D02*
X97435000Y-109940000D01*
X100635000Y-109940000D02*
X100635000Y-108340000D01*
D13*
X101560000Y-130000000D02*
X101560000Y-130800000D01*
X101500000Y-120004000D02*
X100850000Y-120004000D01*
X101500000Y-120004000D02*
X102150000Y-120004000D01*
X101500000Y-123124000D02*
X99825000Y-123124000D01*
X101500000Y-123124000D02*
X102150000Y-123124000D01*
X98440000Y-105802164D02*
X98440000Y-106017836D01*
X97720000Y-105802164D02*
X97720000Y-106017836D01*
X124000000Y-106132164D02*
X124000000Y-106347836D01*
X123280000Y-106132164D02*
X123280000Y-106347836D01*
X82060000Y-130000000D02*
X82060000Y-130800000D01*
X133016164Y-105050000D02*
X133231836Y-105050000D01*
X133016164Y-105770000D02*
X133231836Y-105770000D01*
X115680000Y-135622164D02*
X115680000Y-135837836D01*
X114960000Y-135622164D02*
X114960000Y-135837836D01*
X135932164Y-141110000D02*
X136147836Y-141110000D01*
X135932164Y-141830000D02*
X136147836Y-141830000D01*
X76640000Y-113082164D02*
X76640000Y-113297836D01*
X75920000Y-113082164D02*
X75920000Y-113297836D01*
X97132164Y-128220000D02*
X97347836Y-128220000D01*
X97132164Y-128940000D02*
X97347836Y-128940000D01*
X102630000Y-105842164D02*
X102630000Y-106057836D01*
X101910000Y-105842164D02*
X101910000Y-106057836D01*
X116652164Y-128220000D02*
X116867836Y-128220000D01*
X116652164Y-128940000D02*
X116867836Y-128940000D01*
X96300000Y-135522164D02*
X96300000Y-135737836D01*
X95580000Y-135522164D02*
X95580000Y-135737836D01*
G36*
X78280000Y-132975000D02*
G01*
X77680000Y-132975000D01*
X78280000Y-132375000D01*
X78280000Y-132975000D01*
G37*
D12*
X78280000Y-132975000D02*
X77680000Y-132975000D01*
X78280000Y-132375000D01*
X78280000Y-132975000D01*
D13*
X118350000Y-107237836D02*
X118350000Y-107022164D01*
X119070000Y-107237836D02*
X119070000Y-107022164D01*
D10*
X69230000Y-141090000D02*
X71530000Y-143340000D01*
D11*
X71230000Y-141090000D02*
X71530000Y-141340000D01*
D13*
X111260000Y-103832164D02*
X111260000Y-104047836D01*
X110540000Y-103832164D02*
X110540000Y-104047836D01*
X93562064Y-110460000D02*
X92357936Y-110460000D01*
X93562064Y-108640000D02*
X92357936Y-108640000D01*
M02*
