M48
INCH
T1C0.0138
T2C0.0138
T3C0.0157
T4C0.0236
T5C0.0390
T6C0.0394
T7C0.0512
%
G90
G05
T1
X2.5059Y-5.7583
X2.7669Y-4.5819
X2.824Y-5.5449
X2.9205Y-5.3256
X3.0429Y-4.4768
X3.1307Y-4.9295
X3.2055Y-5.1594
X3.2134Y-4.3366
X3.2921Y-4.7043
X3.3285Y-5.262
X3.6711Y-4.4429
X3.7402Y-5.3579
X3.7791Y-5.0484
X3.7837Y-4.1167
X3.8126Y-4.2752
X3.8264Y-4.189
X3.8268Y-3.9846
X3.9043Y-4.7382
X3.9047Y-5.1689
X4.0602Y-4.1909
X4.063Y-3.9839
X4.0669Y-4.1252
X4.0976Y-5.2551
X4.1244Y-4.5575
X4.1252Y-4.5957
X4.1653Y-4.7531
X4.1657Y-4.7142
X4.2264Y-4.8567
X4.2331Y-4.0445
X4.2657Y-4.0421
X4.2849Y-4.5877
X4.3024Y-4.8563
X4.3039Y-4.3421
X4.3445Y-4.8583
X4.3598Y-4.3969
X4.3912Y-4.6227
X4.4475Y-4.3211
X4.4634Y-4.411
X4.5047Y-5.3701
X4.5453Y-5.0524
X4.55Y-5.67
X4.552Y-4.8264
X4.557Y-4.6207
X4.59Y-4.05
X4.5969Y-4.4091
X4.61Y-4.0
X4.6335Y-4.1087
X4.65Y-5.67
X4.6705Y-5.1668
X4.6796Y-4.6284
X4.7035Y-4.1071
X4.7438Y-4.4819
X4.75Y-5.67
X4.7813Y-4.6119
X4.7813Y-4.656
X4.7938Y-4.5794
X4.8288Y-4.6269
X4.8292Y-4.4069
X4.85Y-5.67
X4.8665Y-5.252
X4.8857Y-4.472
X4.8877Y-4.5626
X4.8976Y-4.2543
X4.9264Y-4.3492
X4.9277Y-4.6989
X4.95Y-4.77
X4.95Y-4.89
X4.95Y-5.67
X4.9828Y-4.5139
X5.0289Y-5.66
X5.0497Y-4.6989
X5.0539Y-4.3476
X5.262Y-4.1892
X5.3764Y-5.5289
T2
X4.4237Y-4.5454
X4.4237Y-4.5956
X4.4237Y-4.6458
X4.4739Y-4.5454
X4.4739Y-4.5956
X4.4739Y-4.6458
X4.5241Y-4.5454
X4.5241Y-4.5956
X4.5241Y-4.6458
T3
X3.9008Y-4.0413
X3.951Y-4.04
T5
X3.1582Y-3.9346
X3.335Y-3.9366
X4.5531Y-3.9346
X4.7298Y-3.9366
T6
X4.5488Y-5.861
X4.6488Y-5.861
X4.7488Y-5.861
X4.8488Y-5.861
X4.9488Y-5.861
X4.96Y-3.98
T7
X3.1086Y-4.0346
X3.3846Y-4.0346
X4.5035Y-4.0346
X4.7794Y-4.0346
T4
G00X3.7669Y-3.8789
M15
G01X3.7669Y-3.9104
M16
G05
G00X3.7669Y-4.0376
M15
G01X3.7669Y-4.0809
M16
G05
G00X4.1071Y-3.8789
M15
G01X4.1071Y-3.9104
M16
G05
G00X4.1071Y-4.0376
M15
G01X4.1071Y-4.0809
M16
G05
T0
M30
