G04 #@! TF.GenerationSoftware,KiCad,Pcbnew,(7.0.0-0)*
G04 #@! TF.CreationDate,2023-03-01T20:47:15-06:00*
G04 #@! TF.ProjectId,RP2040_minimal,52503230-3430-45f6-9d69-6e696d616c2e,REV1*
G04 #@! TF.SameCoordinates,Original*
G04 #@! TF.FileFunction,Soldermask,Bot*
G04 #@! TF.FilePolarity,Negative*
%FSLAX46Y46*%
G04 Gerber Fmt 4.6, Leading zero omitted, Abs format (unit mm)*
G04 Created by KiCad (PCBNEW (7.0.0-0)) date 2023-03-01 20:47:15*
%MOMM*%
%LPD*%
G01*
G04 APERTURE LIST*
G04 Aperture macros list*
%AMRoundRect*
0 Rectangle with rounded corners*
0 $1 Rounding radius*
0 $2 $3 $4 $5 $6 $7 $8 $9 X,Y pos of 4 corners*
0 Add a 4 corners polygon primitive as box body*
4,1,4,$2,$3,$4,$5,$6,$7,$8,$9,$2,$3,0*
0 Add four circle primitives for the rounded corners*
1,1,$1+$1,$2,$3*
1,1,$1+$1,$4,$5*
1,1,$1+$1,$6,$7*
1,1,$1+$1,$8,$9*
0 Add four rect primitives between the rounded corners*
20,1,$1+$1,$2,$3,$4,$5,0*
20,1,$1+$1,$4,$5,$6,$7,0*
20,1,$1+$1,$6,$7,$8,$9,0*
20,1,$1+$1,$8,$9,$2,$3,0*%
G04 Aperture macros list end*
G04 #@! TA.AperFunction,Profile*
%ADD10C,0.120000*%
G04 #@! TD*
%ADD11RoundRect,0.051000X0.850000X0.410000X-0.850000X0.410000X-0.850000X-0.410000X0.850000X-0.410000X0*%
%ADD12RoundRect,0.256000X0.645000X0.205000X-0.645000X0.205000X-0.645000X-0.205000X0.645000X-0.205000X0*%
%ADD13C,1.802000*%
%ADD14C,2.102000*%
%ADD15C,2.802000*%
%ADD16RoundRect,0.051000X-0.850000X-0.850000X0.850000X-0.850000X0.850000X0.850000X-0.850000X0.850000X0*%
%ADD17RoundRect,0.051000X-0.850000X0.850000X-0.850000X-0.850000X0.850000X-0.850000X0.850000X0.850000X0*%
%ADD18O,1.802000X1.802000*%
%ADD19RoundRect,0.294750X0.243750X0.456250X-0.243750X0.456250X-0.243750X-0.456250X0.243750X-0.456250X0*%
%ADD20RoundRect,0.198500X0.147500X0.172500X-0.147500X0.172500X-0.147500X-0.172500X0.147500X-0.172500X0*%
%ADD21RoundRect,0.198500X-0.147500X-0.172500X0.147500X-0.172500X0.147500X0.172500X-0.147500X0.172500X0*%
%ADD22RoundRect,0.051000X-0.750000X1.000000X-0.750000X-1.000000X0.750000X-1.000000X0.750000X1.000000X0*%
%ADD23RoundRect,0.051000X-1.900000X1.000000X-1.900000X-1.000000X1.900000X-1.000000X1.900000X1.000000X0*%
%ADD24RoundRect,0.201000X0.650000X0.150000X-0.650000X0.150000X-0.650000X-0.150000X0.650000X-0.150000X0*%
%ADD25RoundRect,0.198500X-0.172500X0.147500X-0.172500X-0.147500X0.172500X-0.147500X0.172500X0.147500X0*%
%ADD26RoundRect,0.294750X-0.243750X-0.456250X0.243750X-0.456250X0.243750X0.456250X-0.243750X0.456250X0*%
%ADD27RoundRect,0.198500X0.172500X-0.147500X0.172500X0.147500X-0.172500X0.147500X-0.172500X-0.147500X0*%
%ADD28RoundRect,0.101000X-0.050000X0.387500X-0.050000X-0.387500X0.050000X-0.387500X0.050000X0.387500X0*%
%ADD29RoundRect,0.101000X-0.387500X0.050000X-0.387500X-0.050000X0.387500X-0.050000X0.387500X0.050000X0*%
%ADD30RoundRect,0.195000X-1.456000X1.456000X-1.456000X-1.456000X1.456000X-1.456000X1.456000X1.456000X0*%
%ADD31RoundRect,0.051000X-1.300000X0.950000X-1.300000X-0.950000X1.300000X-0.950000X1.300000X0.950000X0*%
%ADD32RoundRect,0.191000X-0.170000X0.140000X-0.170000X-0.140000X0.170000X-0.140000X0.170000X0.140000X0*%
%ADD33RoundRect,0.191000X0.140000X0.170000X-0.140000X0.170000X-0.140000X-0.170000X0.140000X-0.170000X0*%
%ADD34RoundRect,0.051000X0.750570X-0.449580X0.750570X0.449580X-0.750570X0.449580X-0.750570X-0.449580X0*%
%ADD35RoundRect,0.276000X-0.225000X-0.250000X0.225000X-0.250000X0.225000X0.250000X-0.225000X0.250000X0*%
%ADD36RoundRect,0.201000X-0.150000X0.512500X-0.150000X-0.512500X0.150000X-0.512500X0.150000X0.512500X0*%
%ADD37RoundRect,0.051000X-0.450000X-0.400000X0.450000X-0.400000X0.450000X0.400000X-0.450000X0.400000X0*%
%ADD38C,0.752000*%
%ADD39RoundRect,0.051000X-0.300000X-0.575000X0.300000X-0.575000X0.300000X0.575000X-0.300000X0.575000X0*%
%ADD40RoundRect,0.051000X-0.150000X-0.575000X0.150000X-0.575000X0.150000X0.575000X-0.150000X0.575000X0*%
%ADD41O,1.102000X1.902000*%
%ADD42O,1.102000X2.202000*%
%ADD43RoundRect,0.050000X-0.500000X-0.350000X0.500000X-0.350000X0.500000X0.350000X-0.500000X0.350000X0*%
%ADD44RoundRect,0.050000X-0.300000X-0.350000X0.300000X-0.350000X0.300000X0.350000X-0.300000X0.350000X0*%
%ADD45RoundRect,0.201000X-0.587500X-0.150000X0.587500X-0.150000X0.587500X0.150000X-0.587500X0.150000X0*%
%ADD46RoundRect,0.191000X-0.140000X-0.170000X0.140000X-0.170000X0.140000X0.170000X-0.140000X0.170000X0*%
%ADD47RoundRect,0.191000X0.170000X-0.140000X0.170000X0.140000X-0.170000X0.140000X-0.170000X-0.140000X0*%
%ADD48RoundRect,0.051000X-0.750570X0.449580X-0.750570X-0.449580X0.750570X-0.449580X0.750570X0.449580X0*%
%ADD49RoundRect,0.301000X0.375000X0.625000X-0.375000X0.625000X-0.375000X-0.625000X0.375000X-0.625000X0*%
G04 APERTURE END LIST*
D10*
X101730000Y-135745000D02*
X101730000Y-132745000D01*
X101730000Y-132745000D02*
X98330000Y-132745000D01*
X98330000Y-135745000D02*
X101730000Y-135745000D01*
X98330000Y-132745000D02*
X98330000Y-135745000D01*
X121180000Y-135580000D02*
X121180000Y-132580000D01*
X121180000Y-132580000D02*
X117780000Y-132580000D01*
X117780000Y-135580000D02*
X121180000Y-135580000D01*
X117780000Y-132580000D02*
X117780000Y-135580000D01*
X78780000Y-132875000D02*
X78780000Y-135875000D01*
X78780000Y-135875000D02*
X82180000Y-135875000D01*
X82180000Y-132875000D02*
X78780000Y-132875000D01*
X82180000Y-135875000D02*
X82180000Y-132875000D01*
D11*
X102580000Y-134995000D03*
X102580000Y-133495000D03*
D12*
X97480000Y-133495000D03*
D11*
X97480000Y-134995000D03*
D13*
X94920000Y-130000000D03*
X105080000Y-130000000D03*
X75420000Y-130000000D03*
X85580000Y-130000000D03*
X84708000Y-99990000D03*
X80218000Y-99940000D03*
D14*
X85968000Y-102480000D03*
X78958000Y-102480000D03*
D13*
X114420000Y-130000000D03*
X124580000Y-130000000D03*
D15*
X66000000Y-102000000D03*
X66000000Y-152000000D03*
D16*
X125984000Y-101092000D03*
D13*
X120138000Y-99990000D03*
X115648000Y-99940000D03*
D14*
X121398000Y-102480000D03*
X114388000Y-102480000D03*
D15*
X135000000Y-102000000D03*
D17*
X125700000Y-148869000D03*
D18*
X123159999Y-148868999D03*
X120619999Y-148868999D03*
X118079999Y-148868999D03*
X115539999Y-148868999D03*
D15*
X135000000Y-152000000D03*
D19*
X86497500Y-119740000D03*
X84622500Y-119740000D03*
D20*
X107597500Y-120730000D03*
X106627500Y-120730000D03*
X107597500Y-119730000D03*
X106627500Y-119730000D03*
D21*
X114667500Y-121777500D03*
X115637500Y-121777500D03*
D22*
X83390000Y-110280000D03*
X85690000Y-110280000D03*
D23*
X85690000Y-116580000D03*
D22*
X87990000Y-110280000D03*
D24*
X114307500Y-106092500D03*
X114307500Y-107362500D03*
X114307500Y-108632500D03*
X114307500Y-109902500D03*
X107107500Y-109902500D03*
X107107500Y-108632500D03*
X107107500Y-107362500D03*
X107107500Y-106092500D03*
D25*
X122662500Y-115762500D03*
X122662500Y-116732500D03*
D20*
X106597500Y-116730000D03*
X105627500Y-116730000D03*
D21*
X111545000Y-112010000D03*
X112515000Y-112010000D03*
X119662500Y-117143500D03*
X120632500Y-117143500D03*
X106741624Y-117715000D03*
X107711624Y-117715000D03*
X119662500Y-118262500D03*
X120632500Y-118262500D03*
D26*
X89862500Y-112820000D03*
X91737500Y-112820000D03*
D21*
X114895000Y-111980000D03*
X115865000Y-111980000D03*
D27*
X108690000Y-104455000D03*
X108690000Y-103485000D03*
D28*
X111037500Y-113290000D03*
X111437500Y-113290000D03*
X111837500Y-113290000D03*
X112237500Y-113290000D03*
X112637500Y-113290000D03*
X113037500Y-113290000D03*
X113437500Y-113290000D03*
X113837500Y-113290000D03*
X114237500Y-113290000D03*
X114637500Y-113290000D03*
X115037500Y-113290000D03*
X115437500Y-113290000D03*
X115837500Y-113290000D03*
X116237500Y-113290000D03*
D29*
X117075000Y-114127500D03*
X117075000Y-114527500D03*
X117075000Y-114927500D03*
X117075000Y-115327500D03*
X117075000Y-115727500D03*
X117075000Y-116127500D03*
X117075000Y-116527500D03*
X117075000Y-116927500D03*
X117075000Y-117327500D03*
X117075000Y-117727500D03*
X117075000Y-118127500D03*
X117075000Y-118527500D03*
X117075000Y-118927500D03*
X117075000Y-119327500D03*
D28*
X116237500Y-120165000D03*
X115837500Y-120165000D03*
X115437500Y-120165000D03*
X115037500Y-120165000D03*
X114637500Y-120165000D03*
X114237500Y-120165000D03*
X113837500Y-120165000D03*
X113437500Y-120165000D03*
X113037500Y-120165000D03*
X112637500Y-120165000D03*
X112237500Y-120165000D03*
X111837500Y-120165000D03*
X111437500Y-120165000D03*
X111037500Y-120165000D03*
D29*
X110200000Y-119327500D03*
X110200000Y-118927500D03*
X110200000Y-118527500D03*
X110200000Y-118127500D03*
X110200000Y-117727500D03*
X110200000Y-117327500D03*
X110200000Y-116927500D03*
X110200000Y-116527500D03*
X110200000Y-116127500D03*
X110200000Y-115727500D03*
X110200000Y-115327500D03*
X110200000Y-114927500D03*
X110200000Y-114527500D03*
X110200000Y-114127500D03*
D30*
X113637500Y-116727500D03*
D27*
X122662500Y-113762500D03*
X122662500Y-112792500D03*
D21*
X106741624Y-118715000D03*
X107711624Y-118715000D03*
D20*
X106597500Y-115730000D03*
X105627500Y-115730000D03*
D27*
X107080000Y-104455000D03*
X107080000Y-103485000D03*
D21*
X120292500Y-115462500D03*
X121262500Y-115462500D03*
D31*
X126778500Y-112453500D03*
X126778500Y-116753500D03*
D32*
X79480000Y-126190000D03*
X79480000Y-127150000D03*
X64580000Y-145640000D03*
X64580000Y-146600000D03*
D11*
X122030000Y-134830000D03*
X122030000Y-133330000D03*
D12*
X116930000Y-133330000D03*
D11*
X116930000Y-134830000D03*
D33*
X75010000Y-135250000D03*
X75970000Y-135250000D03*
D34*
X130589360Y-104829800D03*
X130589360Y-108030200D03*
X125590640Y-108030200D03*
X125590640Y-104829800D03*
X133739360Y-141459800D03*
X133739360Y-144660200D03*
X128740640Y-144660200D03*
X128740640Y-141459800D03*
D35*
X104565000Y-122770000D03*
X106115000Y-122770000D03*
D36*
X118550000Y-128862500D03*
X120450000Y-128862500D03*
X119500000Y-131137500D03*
D37*
X120010000Y-107830000D03*
X120010000Y-105930000D03*
X122010000Y-106880000D03*
D38*
X97110000Y-102605000D03*
X102890000Y-102605000D03*
D39*
X96800000Y-103680000D03*
X97600000Y-103680000D03*
D40*
X98750000Y-103680000D03*
X99750000Y-103680000D03*
X100250000Y-103680000D03*
X101250000Y-103680000D03*
D39*
X102400000Y-103680000D03*
X103200000Y-103680000D03*
X103200000Y-103680000D03*
X102400000Y-103680000D03*
D40*
X101750000Y-103680000D03*
X100750000Y-103680000D03*
X99250000Y-103680000D03*
X98250000Y-103680000D03*
D39*
X97600000Y-103680000D03*
X96800000Y-103680000D03*
D41*
X95679999Y-98924999D03*
D42*
X95679999Y-103104999D03*
D41*
X104319999Y-98924999D03*
D42*
X104319999Y-103104999D03*
D35*
X97035000Y-122430000D03*
X98585000Y-122430000D03*
D34*
X74639360Y-111769800D03*
X74639360Y-114970200D03*
X69640640Y-114970200D03*
X69640640Y-111769800D03*
D43*
X98285000Y-108140000D03*
D44*
X99985000Y-108140000D03*
X99985000Y-110140000D03*
X98085000Y-110140000D03*
D36*
X99050000Y-128862500D03*
X100950000Y-128862500D03*
X100000000Y-131137500D03*
D45*
X100562500Y-122514000D03*
X100562500Y-120614000D03*
X102437500Y-121564000D03*
D32*
X98080000Y-105430000D03*
X98080000Y-106390000D03*
X123640000Y-105760000D03*
X123640000Y-106720000D03*
D25*
X108210000Y-122485000D03*
X108210000Y-123455000D03*
D36*
X79550000Y-128862500D03*
X81450000Y-128862500D03*
X80500000Y-131137500D03*
D25*
X110360000Y-121575000D03*
X110360000Y-122545000D03*
X109300000Y-121585000D03*
X109300000Y-122555000D03*
D46*
X132644000Y-105410000D03*
X133604000Y-105410000D03*
D32*
X115320000Y-135250000D03*
X115320000Y-136210000D03*
D46*
X135560000Y-141470000D03*
X136520000Y-141470000D03*
D32*
X76280000Y-112710000D03*
X76280000Y-113670000D03*
D46*
X96760000Y-128580000D03*
X97720000Y-128580000D03*
D32*
X102270000Y-105470000D03*
X102270000Y-106430000D03*
D46*
X116280000Y-128580000D03*
X117240000Y-128580000D03*
D32*
X95940000Y-135150000D03*
X95940000Y-136110000D03*
D11*
X77930000Y-135125000D03*
D12*
X77930000Y-133625000D03*
D11*
X83030000Y-133625000D03*
X83030000Y-135125000D03*
D47*
X118710000Y-107610000D03*
X118710000Y-106650000D03*
D48*
X66530640Y-145190200D03*
X66530640Y-141989800D03*
X71529360Y-141989800D03*
X71529360Y-145190200D03*
D32*
X110900000Y-103460000D03*
X110900000Y-104420000D03*
D49*
X94360000Y-109550000D03*
X91560000Y-109550000D03*
M02*
