%TF.GenerationSoftware,KiCad,Pcbnew,7.0.5*%
%TF.CreationDate,2023-07-14T09:41:43-05:00*%
%TF.ProjectId,RP2040,52503230-3430-42e6-9b69-6361645f7063,REV1*%
%TF.SameCoordinates,Original*%
%TF.FileFunction,Copper,L1,Top*%
%TF.FilePolarity,Positive*%
%FSLAX46Y46*%
G04 Gerber Fmt 4.6, Leading zero omitted, Abs format (unit mm)*
G04 Created by KiCad (PCBNEW 7.0.5) date 2023-07-14 09:41:43*
%MOMM*%
%LPD*%
G01*
G04 APERTURE LIST*
G04 Aperture macros list*
%AMRoundRect*
0 Rectangle with rounded corners*
0 $1 Rounding radius*
0 $2 $3 $4 $5 $6 $7 $8 $9 X,Y pos of 4 corners*
0 Add a 4 corners polygon primitive as box body*
4,1,4,$2,$3,$4,$5,$6,$7,$8,$9,$2,$3,0*
0 Add four circle primitives for the rounded corners*
1,1,$1+$1,$2,$3*
1,1,$1+$1,$4,$5*
1,1,$1+$1,$6,$7*
1,1,$1+$1,$8,$9*
0 Add four rect primitives between the rounded corners*
20,1,$1+$1,$2,$3,$4,$5,0*
20,1,$1+$1,$4,$5,$6,$7,0*
20,1,$1+$1,$6,$7,$8,$9,0*
20,1,$1+$1,$8,$9,$2,$3,0*%
G04 Aperture macros list end*
%TA.AperFunction,SMDPad,CuDef*%
%ADD10RoundRect,0.140000X-0.170000X0.140000X-0.170000X-0.140000X0.170000X-0.140000X0.170000X0.140000X0*%
%TD*%
%TA.AperFunction,SMDPad,CuDef*%
%ADD11R,0.600000X1.150000*%
%TD*%
%TA.AperFunction,SMDPad,CuDef*%
%ADD12R,0.300000X1.150000*%
%TD*%
%TA.AperFunction,ComponentPad*%
%ADD13O,1.000000X1.800000*%
%TD*%
%TA.AperFunction,ComponentPad*%
%ADD14O,1.000000X2.200000*%
%TD*%
%TA.AperFunction,SMDPad,CuDef*%
%ADD15RoundRect,0.140000X-0.140000X-0.170000X0.140000X-0.170000X0.140000X0.170000X-0.140000X0.170000X0*%
%TD*%
%TA.AperFunction,SMDPad,CuDef*%
%ADD16RoundRect,0.150000X0.512500X0.150000X-0.512500X0.150000X-0.512500X-0.150000X0.512500X-0.150000X0*%
%TD*%
%TA.AperFunction,SMDPad,CuDef*%
%ADD17RoundRect,0.140000X0.140000X0.170000X-0.140000X0.170000X-0.140000X-0.170000X0.140000X-0.170000X0*%
%TD*%
%TA.AperFunction,SMDPad,CuDef*%
%ADD18RoundRect,0.150000X0.587500X0.150000X-0.587500X0.150000X-0.587500X-0.150000X0.587500X-0.150000X0*%
%TD*%
%TA.AperFunction,SMDPad,CuDef*%
%ADD19RoundRect,0.250000X0.650000X-0.325000X0.650000X0.325000X-0.650000X0.325000X-0.650000X-0.325000X0*%
%TD*%
%TA.AperFunction,SMDPad,CuDef*%
%ADD20RoundRect,0.150000X0.150000X-0.587500X0.150000X0.587500X-0.150000X0.587500X-0.150000X-0.587500X0*%
%TD*%
%TA.AperFunction,SMDPad,CuDef*%
%ADD21R,1.200000X1.400000*%
%TD*%
%TA.AperFunction,SMDPad,CuDef*%
%ADD22R,1.000000X0.700000*%
%TD*%
%TA.AperFunction,SMDPad,CuDef*%
%ADD23R,0.600000X0.700000*%
%TD*%
%TA.AperFunction,SMDPad,CuDef*%
%ADD24RoundRect,0.250000X-0.325000X-0.650000X0.325000X-0.650000X0.325000X0.650000X-0.325000X0.650000X0*%
%TD*%
%TA.AperFunction,SMDPad,CuDef*%
%ADD25RoundRect,0.140000X0.170000X-0.140000X0.170000X0.140000X-0.170000X0.140000X-0.170000X-0.140000X0*%
%TD*%
%TA.AperFunction,SMDPad,CuDef*%
%ADD26RoundRect,0.150000X-0.650000X-0.150000X0.650000X-0.150000X0.650000X0.150000X-0.650000X0.150000X0*%
%TD*%
%TA.AperFunction,SMDPad,CuDef*%
%ADD27RoundRect,0.250000X0.325000X0.650000X-0.325000X0.650000X-0.325000X-0.650000X0.325000X-0.650000X0*%
%TD*%
%TA.AperFunction,SMDPad,CuDef*%
%ADD28RoundRect,0.250000X-0.650000X0.325000X-0.650000X-0.325000X0.650000X-0.325000X0.650000X0.325000X0*%
%TD*%
%TA.AperFunction,SMDPad,CuDef*%
%ADD29RoundRect,0.135000X0.135000X0.185000X-0.135000X0.185000X-0.135000X-0.185000X0.135000X-0.185000X0*%
%TD*%
%TA.AperFunction,SMDPad,CuDef*%
%ADD30RoundRect,0.050000X-0.050000X0.387500X-0.050000X-0.387500X0.050000X-0.387500X0.050000X0.387500X0*%
%TD*%
%TA.AperFunction,SMDPad,CuDef*%
%ADD31RoundRect,0.050000X-0.387500X0.050000X-0.387500X-0.050000X0.387500X-0.050000X0.387500X0.050000X0*%
%TD*%
%TA.AperFunction,ComponentPad*%
%ADD32C,0.600000*%
%TD*%
%TA.AperFunction,SMDPad,CuDef*%
%ADD33RoundRect,0.144000X-1.456000X1.456000X-1.456000X-1.456000X1.456000X-1.456000X1.456000X1.456000X0*%
%TD*%
%TA.AperFunction,ComponentPad*%
%ADD34R,1.700000X1.700000*%
%TD*%
%TA.AperFunction,ComponentPad*%
%ADD35O,1.700000X1.700000*%
%TD*%
%TA.AperFunction,SMDPad,CuDef*%
%ADD36RoundRect,0.250000X-0.375000X-0.625000X0.375000X-0.625000X0.375000X0.625000X-0.375000X0.625000X0*%
%TD*%
%TA.AperFunction,SMDPad,CuDef*%
%ADD37RoundRect,0.150000X0.150000X-0.512500X0.150000X0.512500X-0.150000X0.512500X-0.150000X-0.512500X0*%
%TD*%
%TA.AperFunction,ViaPad*%
%ADD38C,0.800000*%
%TD*%
%TA.AperFunction,ViaPad*%
%ADD39C,0.600000*%
%TD*%
%TA.AperFunction,Conductor*%
%ADD40C,0.300000*%
%TD*%
%TA.AperFunction,Conductor*%
%ADD41C,0.200000*%
%TD*%
%TA.AperFunction,Conductor*%
%ADD42C,0.600000*%
%TD*%
%TA.AperFunction,Conductor*%
%ADD43C,0.150000*%
%TD*%
%TA.AperFunction,Conductor*%
%ADD44C,0.400000*%
%TD*%
%TA.AperFunction,Conductor*%
%ADD45C,0.250000*%
%TD*%
G04 APERTURE END LIST*
D10*
%TO.P,C9,1*%
%TO.N,+1V1*%
X-1934838Y10780500D03*
%TO.P,C9,2*%
%TO.N,GND*%
X-1934838Y9820500D03*
%TD*%
D11*
%TO.P,P1,A1,GND*%
%TO.N,GND*%
X3200000Y26225000D03*
%TO.P,P1,A4,VBUS*%
%TO.N,VBUS*%
X2400000Y26225000D03*
D12*
%TO.P,P1,A5,CC1*%
%TO.N,Net-(P1-CC1)*%
X1250000Y26225000D03*
%TO.P,P1,A6,D+*%
%TO.N,USB_D+*%
X250000Y26225000D03*
%TO.P,P1,A7,D-*%
%TO.N,USB_D-*%
X-250000Y26225000D03*
%TO.P,P1,A8,SBU1*%
%TO.N,unconnected-(P1-SBU1-PadA8)*%
X-1250000Y26225000D03*
D11*
%TO.P,P1,A9,VBUS*%
%TO.N,VBUS*%
X-2400000Y26225000D03*
%TO.P,P1,A12,GND*%
%TO.N,GND*%
X-3200000Y26225000D03*
%TO.P,P1,B1,GND*%
X-3200000Y26225000D03*
%TO.P,P1,B4,VBUS*%
%TO.N,VBUS*%
X-2400000Y26225000D03*
D12*
%TO.P,P1,B5,CC2*%
%TO.N,Net-(P1-CC2)*%
X-1750000Y26225000D03*
%TO.P,P1,B6,D+*%
%TO.N,USB_D+*%
X-750000Y26225000D03*
%TO.P,P1,B7,D-*%
%TO.N,USB_D-*%
X750000Y26225000D03*
%TO.P,P1,B8,SBU2*%
%TO.N,unconnected-(P1-SBU2-PadB8)*%
X1750000Y26225000D03*
D11*
%TO.P,P1,B9,VBUS*%
%TO.N,VBUS*%
X2400000Y26225000D03*
%TO.P,P1,B12,GND*%
%TO.N,GND*%
X3200000Y26225000D03*
D13*
%TO.P,P1,S1,SHIELD*%
%TO.N,unconnected-(P1-SHIELD-PadS1)*%
X5620000Y27450000D03*
D14*
X5620000Y31450000D03*
D13*
X-5620000Y27450000D03*
D14*
X-5620000Y31450000D03*
%TD*%
D15*
%TO.P,C12,1*%
%TO.N,ADC_AVDD*%
X-4504838Y8690500D03*
%TO.P,C12,2*%
%TO.N,GND*%
X-3544838Y8690500D03*
%TD*%
D10*
%TO.P,C8,1*%
%TO.N,+3V3*%
X-5780000Y8900000D03*
%TO.P,C8,2*%
%TO.N,GND*%
X-5780000Y7940000D03*
%TD*%
D15*
%TO.P,C21,1*%
%TO.N,GND*%
X-18851907Y12170000D03*
%TO.P,C21,2*%
%TO.N,Net-(C21-Pad2)*%
X-17891907Y12170000D03*
%TD*%
D16*
%TO.P,U6,1,VIN*%
%TO.N,+5V*%
X8315000Y16421250D03*
%TO.P,U6,2,GND*%
%TO.N,GND*%
X8315000Y17371250D03*
%TO.P,U6,3,EN*%
%TO.N,+5V*%
X8315000Y18321250D03*
%TO.P,U6,4,NC*%
%TO.N,unconnected-(U6-NC-Pad4)*%
X6040000Y18321250D03*
%TO.P,U6,5,VOUT*%
%TO.N,+3V3*%
X6040000Y16421250D03*
%TD*%
D17*
%TO.P,C2,1*%
%TO.N,+1V1*%
X-15400000Y11770000D03*
%TO.P,C2,2*%
%TO.N,GND*%
X-16360000Y11770000D03*
%TD*%
D18*
%TO.P,U9,1,VCC*%
%TO.N,+4V4*%
X19987500Y-950000D03*
%TO.P,U9,2,VOUT*%
%TO.N,ADC_IN3*%
X19987500Y950000D03*
%TO.P,U9,3,GND*%
%TO.N,GND*%
X18112500Y0D03*
%TD*%
D17*
%TO.P,R3,1*%
%TO.N,USB_D+*%
X-1474838Y12630500D03*
%TO.P,R3,2*%
%TO.N,Net-(U3-USB_DP)*%
X-2434838Y12630500D03*
%TD*%
D19*
%TO.P,C18,1*%
%TO.N,+5V*%
X10482500Y16496250D03*
%TO.P,C18,2*%
%TO.N,GND*%
X10482500Y19446250D03*
%TD*%
D20*
%TO.P,U2,1,GND*%
%TO.N,GND*%
X12170000Y10047500D03*
%TO.P,U2,2,VO*%
%TO.N,+4V4*%
X14070000Y10047500D03*
%TO.P,U2,3,VI*%
%TO.N,+5V*%
X13120000Y11922500D03*
%TD*%
D15*
%TO.P,C11,1*%
%TO.N,ADC_AVDD*%
X-4514838Y9680500D03*
%TO.P,C11,2*%
%TO.N,GND*%
X-3554838Y9680500D03*
%TD*%
D21*
%TO.P,Y1,1,1*%
%TO.N,OSC_IN*%
X-18880000Y15880000D03*
%TO.P,Y1,2,2*%
%TO.N,GND*%
X-18880000Y13680000D03*
%TO.P,Y1,3,3*%
%TO.N,Net-(C21-Pad2)*%
X-17180000Y13680000D03*
%TO.P,Y1,4,4*%
%TO.N,GND*%
X-17180000Y15880000D03*
%TD*%
D17*
%TO.P,C4,1*%
%TO.N,+3V3*%
X-14799838Y13270500D03*
%TO.P,C4,2*%
%TO.N,GND*%
X-15759838Y13270500D03*
%TD*%
D22*
%TO.P,U1,1,GND*%
%TO.N,GND*%
X1910000Y23080000D03*
D23*
%TO.P,U1,2,I/O1*%
%TO.N,USB_D+*%
X210000Y23080000D03*
%TO.P,U1,3,I/O2*%
%TO.N,USB_D-*%
X210000Y21080000D03*
%TO.P,U1,4,VCC*%
%TO.N,VBUS*%
X2110000Y21080000D03*
%TD*%
D24*
%TO.P,C16,1*%
%TO.N,+4V4*%
X7010000Y10022500D03*
%TO.P,C16,2*%
%TO.N,GND*%
X9960000Y10022500D03*
%TD*%
D17*
%TO.P,R4,1*%
%TO.N,USB_D-*%
X-1484838Y11700500D03*
%TO.P,R4,2*%
%TO.N,Net-(U3-USB_DM)*%
X-2444838Y11700500D03*
%TD*%
D10*
%TO.P,R1,1*%
%TO.N,Net-(P1-CC1)*%
X3602500Y23080000D03*
%TO.P,R1,2*%
%TO.N,GND*%
X3602500Y22120000D03*
%TD*%
D25*
%TO.P,R6,1*%
%TO.N,Net-(R6-Pad1)*%
X-17970000Y21000000D03*
%TO.P,R6,2*%
%TO.N,/QSPI_SS*%
X-17970000Y21960000D03*
%TD*%
%TO.P,C13,1*%
%TO.N,+3V3*%
X-7020000Y23550000D03*
%TO.P,C13,2*%
%TO.N,GND*%
X-7020000Y24510000D03*
%TD*%
D26*
%TO.P,U5,1,~{CS}*%
%TO.N,/QSPI_SS*%
X-15854838Y24085500D03*
%TO.P,U5,2,DO(IO1)*%
%TO.N,/QSPI_SD1*%
X-15854838Y22815500D03*
%TO.P,U5,3,IO2*%
%TO.N,/QSPI_SD2*%
X-15854838Y21545500D03*
%TO.P,U5,4,GND*%
%TO.N,GND*%
X-15854838Y20275500D03*
%TO.P,U5,5,DI(IO0)*%
%TO.N,/QSPI_SD0*%
X-8654838Y20275500D03*
%TO.P,U5,6,CLK*%
%TO.N,/QSPI_SCLK*%
X-8654838Y21545500D03*
%TO.P,U5,7,IO3*%
%TO.N,/QSPI_SD3*%
X-8654838Y22815500D03*
%TO.P,U5,8,VCC*%
%TO.N,+3V3*%
X-8654838Y24085500D03*
%TD*%
D27*
%TO.P,C14,1*%
%TO.N,+5V*%
X13105000Y14212500D03*
%TO.P,C14,2*%
%TO.N,GND*%
X10155000Y14212500D03*
%TD*%
D15*
%TO.P,C5,1*%
%TO.N,+3V3*%
X-3004838Y13570500D03*
%TO.P,C5,2*%
%TO.N,GND*%
X-2044838Y13570500D03*
%TD*%
%TO.P,C22,1*%
%TO.N,GND*%
X-19470000Y-2210000D03*
%TO.P,C22,2*%
%TO.N,+4V4*%
X-18510000Y-2210000D03*
%TD*%
D17*
%TO.P,C6,1*%
%TO.N,+3V3*%
X-11019838Y18180500D03*
%TO.P,C6,2*%
%TO.N,GND*%
X-11979838Y18180500D03*
%TD*%
D28*
%TO.P,C17,1*%
%TO.N,ADC_AVDD*%
X4092813Y13416187D03*
%TO.P,C17,2*%
%TO.N,GND*%
X4092813Y10466187D03*
%TD*%
D10*
%TO.P,R5,1*%
%TO.N,+3V3*%
X-17980000Y23870000D03*
%TO.P,R5,2*%
%TO.N,/QSPI_SS*%
X-17980000Y22910000D03*
%TD*%
D17*
%TO.P,C20,1*%
%TO.N,GND*%
X-17891907Y17390000D03*
%TO.P,C20,2*%
%TO.N,OSC_IN*%
X-18851907Y17390000D03*
%TD*%
D29*
%TO.P,R8,1*%
%TO.N,OSC_OUT*%
X-14740000Y14270000D03*
%TO.P,R8,2*%
%TO.N,Net-(C21-Pad2)*%
X-15760000Y14270000D03*
%TD*%
D18*
%TO.P,U8,1,VCC*%
%TO.N,+4V4*%
X937500Y-950000D03*
%TO.P,U8,2,VOUT*%
%TO.N,ADC_IN2*%
X937500Y950000D03*
%TO.P,U8,3,GND*%
%TO.N,GND*%
X-937500Y0D03*
%TD*%
D15*
%TO.P,C24,1*%
%TO.N,GND*%
X-450000Y-2240000D03*
%TO.P,C24,2*%
%TO.N,+4V4*%
X510000Y-2240000D03*
%TD*%
D30*
%TO.P,U3,1,IOVDD*%
%TO.N,+3V3*%
X-6502500Y16910000D03*
%TO.P,U3,2,GPIO0*%
%TO.N,/GPIO0*%
X-6902500Y16910000D03*
%TO.P,U3,3,GPIO1*%
%TO.N,/GPIO1*%
X-7302500Y16910000D03*
%TO.P,U3,4,GPIO2*%
%TO.N,/GPIO2*%
X-7702500Y16910000D03*
%TO.P,U3,5,GPIO3*%
%TO.N,/GPIO3*%
X-8102500Y16910000D03*
%TO.P,U3,6,GPIO4*%
%TO.N,/GPIO4*%
X-8502500Y16910000D03*
%TO.P,U3,7,GPIO5*%
%TO.N,/GPIO5*%
X-8902500Y16910000D03*
%TO.P,U3,8,GPIO6*%
%TO.N,/GPIO6*%
X-9302500Y16910000D03*
%TO.P,U3,9,GPIO7*%
%TO.N,/GPIO7*%
X-9702500Y16910000D03*
%TO.P,U3,10,IOVDD*%
%TO.N,+3V3*%
X-10102500Y16910000D03*
%TO.P,U3,11,GPIO8*%
%TO.N,/GPIO8*%
X-10502500Y16910000D03*
%TO.P,U3,12,GPIO9*%
%TO.N,/GPIO9*%
X-10902500Y16910000D03*
%TO.P,U3,13,GPIO10*%
%TO.N,/GPIO10*%
X-11302500Y16910000D03*
%TO.P,U3,14,GPIO11*%
%TO.N,/GPIO11*%
X-11702500Y16910000D03*
D31*
%TO.P,U3,15,GPIO12*%
%TO.N,LED_D*%
X-12540000Y16072500D03*
%TO.P,U3,16,GPIO13*%
%TO.N,/GPIO13*%
X-12540000Y15672500D03*
%TO.P,U3,17,GPIO14*%
%TO.N,/GPIO14*%
X-12540000Y15272500D03*
%TO.P,U3,18,GPIO15*%
%TO.N,/GPIO15*%
X-12540000Y14872500D03*
%TO.P,U3,19,TESTEN*%
%TO.N,GND*%
X-12540000Y14472500D03*
%TO.P,U3,20,XIN*%
%TO.N,OSC_IN*%
X-12540000Y14072500D03*
%TO.P,U3,21,XOUT*%
%TO.N,OSC_OUT*%
X-12540000Y13672500D03*
%TO.P,U3,22,IOVDD*%
%TO.N,+3V3*%
X-12540000Y13272500D03*
%TO.P,U3,23,DVDD*%
%TO.N,+1V1*%
X-12540000Y12872500D03*
%TO.P,U3,24,SWCLK*%
%TO.N,SWCLK*%
X-12540000Y12472500D03*
%TO.P,U3,25,SWD*%
%TO.N,SWDIO*%
X-12540000Y12072500D03*
%TO.P,U3,26,RUN*%
%TO.N,Net-(U3-RUN)*%
X-12540000Y11672500D03*
%TO.P,U3,27,GPIO16*%
%TO.N,/GPIO16*%
X-12540000Y11272500D03*
%TO.P,U3,28,GPIO17*%
%TO.N,BUTT0*%
X-12540000Y10872500D03*
D30*
%TO.P,U3,29,GPIO18*%
%TO.N,BUTT1*%
X-11702500Y10035000D03*
%TO.P,U3,30,GPIO19*%
%TO.N,BUTT2*%
X-11302500Y10035000D03*
%TO.P,U3,31,GPIO20*%
%TO.N,/GPIO20*%
X-10902500Y10035000D03*
%TO.P,U3,32,GPIO21*%
%TO.N,/GPIO21*%
X-10502500Y10035000D03*
%TO.P,U3,33,IOVDD*%
%TO.N,+3V3*%
X-10102500Y10035000D03*
%TO.P,U3,34,GPIO22*%
%TO.N,/GPIO22*%
X-9702500Y10035000D03*
%TO.P,U3,35,GPIO23*%
%TO.N,/GPIO23*%
X-9302500Y10035000D03*
%TO.P,U3,36,GPIO24*%
%TO.N,/GPIO24*%
X-8902500Y10035000D03*
%TO.P,U3,37,GPIO25*%
%TO.N,/GPIO25*%
X-8502500Y10035000D03*
%TO.P,U3,38,GPIO26_ADC0*%
%TO.N,ADC_IN1*%
X-8102500Y10035000D03*
%TO.P,U3,39,GPIO27_ADC1*%
%TO.N,ADC_IN2*%
X-7702500Y10035000D03*
%TO.P,U3,40,GPIO28_ADC2*%
%TO.N,ADC_IN3*%
X-7302500Y10035000D03*
%TO.P,U3,41,GPIO29_ADC3*%
%TO.N,/GPIO29_ADC3*%
X-6902500Y10035000D03*
%TO.P,U3,42,IOVDD*%
%TO.N,+3V3*%
X-6502500Y10035000D03*
D31*
%TO.P,U3,43,ADC_AVDD*%
%TO.N,ADC_AVDD*%
X-5665000Y10872500D03*
%TO.P,U3,44,VREG_IN*%
%TO.N,+3V3*%
X-5665000Y11272500D03*
%TO.P,U3,45,VREG_VOUT*%
%TO.N,+1V1*%
X-5665000Y11672500D03*
%TO.P,U3,46,USB_DM*%
%TO.N,Net-(U3-USB_DM)*%
X-5665000Y12072500D03*
%TO.P,U3,47,USB_DP*%
%TO.N,Net-(U3-USB_DP)*%
X-5665000Y12472500D03*
%TO.P,U3,48,USB_VDD*%
%TO.N,+3V3*%
X-5665000Y12872500D03*
%TO.P,U3,49,IOVDD*%
X-5665000Y13272500D03*
%TO.P,U3,50,DVDD*%
%TO.N,+1V1*%
X-5665000Y13672500D03*
%TO.P,U3,51,QSPI_SD3*%
%TO.N,/QSPI_SD3*%
X-5665000Y14072500D03*
%TO.P,U3,52,QSPI_SCLK*%
%TO.N,/QSPI_SCLK*%
X-5665000Y14472500D03*
%TO.P,U3,53,QSPI_SD0*%
%TO.N,/QSPI_SD0*%
X-5665000Y14872500D03*
%TO.P,U3,54,QSPI_SD2*%
%TO.N,/QSPI_SD2*%
X-5665000Y15272500D03*
%TO.P,U3,55,QSPI_SD1*%
%TO.N,/QSPI_SD1*%
X-5665000Y15672500D03*
%TO.P,U3,56,QSPI_SS*%
%TO.N,/QSPI_SS*%
X-5665000Y16072500D03*
D32*
%TO.P,U3,57,GND*%
%TO.N,GND*%
X-7827500Y14747500D03*
X-9102500Y14747500D03*
X-10377500Y14747500D03*
X-7827500Y13472500D03*
X-9102500Y13472500D03*
D33*
X-9102500Y13472500D03*
D32*
X-10377500Y13472500D03*
X-7827500Y12197500D03*
X-9102500Y12197500D03*
X-10377500Y12197500D03*
%TD*%
D19*
%TO.P,C15,1*%
%TO.N,+4V4*%
X16415000Y10010000D03*
%TO.P,C15,2*%
%TO.N,GND*%
X16415000Y12960000D03*
%TD*%
D18*
%TO.P,U7,1,VCC*%
%TO.N,+4V4*%
X-18112500Y-950000D03*
%TO.P,U7,2,VOUT*%
%TO.N,ADC_IN1*%
X-18112500Y950000D03*
%TO.P,U7,3,GND*%
%TO.N,GND*%
X-19987500Y0D03*
%TD*%
D10*
%TO.P,R2,1*%
%TO.N,Net-(P1-CC2)*%
X-1680000Y23340000D03*
%TO.P,R2,2*%
%TO.N,GND*%
X-1680000Y22380000D03*
%TD*%
D15*
%TO.P,C23,1*%
%TO.N,GND*%
X18550000Y-2270000D03*
%TO.P,C23,2*%
%TO.N,+4V4*%
X19510000Y-2270000D03*
%TD*%
D17*
%TO.P,C7,1*%
%TO.N,+3V3*%
X-7144838Y18160500D03*
%TO.P,C7,2*%
%TO.N,GND*%
X-8104838Y18160500D03*
%TD*%
%TO.P,C3,1*%
%TO.N,+3V3*%
X-10499838Y8500500D03*
%TO.P,C3,2*%
%TO.N,GND*%
X-11459838Y8500500D03*
%TD*%
D34*
%TO.P,J1,1,Pin_1*%
%TO.N,SWCLK*%
X-15800000Y26915000D03*
D35*
%TO.P,J1,2,Pin_2*%
%TO.N,SWDIO*%
X-13260000Y26915000D03*
%TO.P,J1,3,Pin_3*%
%TO.N,+3V3*%
X-10720000Y26915000D03*
%TO.P,J1,4,Pin_4*%
%TO.N,GND*%
X-8180000Y26915000D03*
%TD*%
D36*
%TO.P,F1,1*%
%TO.N,VBUS*%
X6020000Y22520000D03*
%TO.P,F1,2*%
%TO.N,+5V*%
X8820000Y22520000D03*
%TD*%
D25*
%TO.P,C1,1*%
%TO.N,+1V1*%
X-2534838Y14530500D03*
%TO.P,C1,2*%
%TO.N,GND*%
X-2534838Y15490500D03*
%TD*%
D15*
%TO.P,C10,1*%
%TO.N,+3V3*%
X-4454838Y10690500D03*
%TO.P,C10,2*%
%TO.N,GND*%
X-3494838Y10690500D03*
%TD*%
D19*
%TO.P,C19,1*%
%TO.N,+3V3*%
X3902500Y16496250D03*
%TO.P,C19,2*%
%TO.N,GND*%
X3902500Y19446250D03*
%TD*%
D37*
%TO.P,U4,1,VIN*%
%TO.N,+4V4*%
X6485000Y12215000D03*
%TO.P,U4,2,GND*%
%TO.N,GND*%
X7435000Y12215000D03*
%TO.P,U4,3,EN*%
%TO.N,+4V4*%
X8385000Y12215000D03*
%TO.P,U4,4,NC*%
%TO.N,unconnected-(U4-NC-Pad4)*%
X8385000Y14490000D03*
%TO.P,U4,5,VOUT*%
%TO.N,ADC_AVDD*%
X6485000Y14490000D03*
%TD*%
D38*
%TO.N,GND*%
X30166000Y-10706000D03*
X30166000Y-8706000D03*
X30166000Y-6706000D03*
X30166000Y-4706000D03*
X30166000Y5294000D03*
X30166000Y7294000D03*
X30166000Y9294000D03*
X30166000Y11294000D03*
X28166000Y-14706000D03*
X28166000Y-12706000D03*
X28166000Y-10706000D03*
X28166000Y-8706000D03*
X28166000Y-6706000D03*
X28166000Y-4706000D03*
X28166000Y3294000D03*
X28166000Y5294000D03*
X28166000Y7294000D03*
X28166000Y9294000D03*
X28166000Y11294000D03*
X28166000Y13294000D03*
X28166000Y15294000D03*
X26166000Y-12706000D03*
X26166000Y-10706000D03*
X24166000Y-12706000D03*
X24166000Y3294000D03*
X24166000Y5294000D03*
X24166000Y7294000D03*
X24166000Y11294000D03*
X24166000Y13294000D03*
X22166000Y-14706000D03*
X22166000Y-706000D03*
X22166000Y1294000D03*
X22166000Y3294000D03*
X22166000Y5294000D03*
X22166000Y7294000D03*
X22166000Y11294000D03*
X22166000Y13294000D03*
X22166000Y15294000D03*
X22166000Y21294000D03*
X20166000Y-6706000D03*
X20166000Y5294000D03*
X20166000Y7294000D03*
X20166000Y11294000D03*
X20166000Y13294000D03*
X20166000Y15294000D03*
X20166000Y21294000D03*
X20166000Y23294000D03*
X18166000Y-20706000D03*
X18166000Y-18706000D03*
X18166000Y-10706000D03*
X18166000Y-6706000D03*
X18166000Y-4706000D03*
X18166000Y5294000D03*
X18166000Y7294000D03*
X18166000Y11294000D03*
X18166000Y13294000D03*
X18166000Y15294000D03*
X18166000Y25294000D03*
X16166000Y-14706000D03*
X16166000Y-12706000D03*
X16166000Y-10706000D03*
X16166000Y5294000D03*
X16166000Y7294000D03*
X16166000Y11294000D03*
X16166000Y15294000D03*
X16166000Y25294000D03*
X16166000Y27294000D03*
X14166000Y-28706000D03*
X14166000Y-24706000D03*
X14166000Y-14706000D03*
X14166000Y-12706000D03*
X14166000Y-10706000D03*
X14166000Y-6706000D03*
X14166000Y-4706000D03*
X14166000Y5294000D03*
X14166000Y7294000D03*
X14166000Y17294000D03*
X14166000Y23294000D03*
X14166000Y27294000D03*
X12166000Y-28706000D03*
X12166000Y-24706000D03*
X12166000Y-10706000D03*
X12166000Y-8706000D03*
X12166000Y-6706000D03*
X12166000Y-4706000D03*
X12166000Y-706000D03*
X12166000Y1294000D03*
X12166000Y5294000D03*
X12166000Y7294000D03*
X12166000Y27294000D03*
X10166000Y-30706000D03*
X10166000Y-10706000D03*
X10166000Y-8706000D03*
X10166000Y-6706000D03*
X10166000Y-4706000D03*
X10166000Y-706000D03*
X10166000Y1294000D03*
X10166000Y5294000D03*
X10166000Y7294000D03*
X10166000Y27294000D03*
X10166000Y29294000D03*
X8166000Y-30706000D03*
X8166000Y-24706000D03*
X8166000Y-14706000D03*
X8166000Y-12706000D03*
X8166000Y-10706000D03*
X8166000Y-8706000D03*
X8166000Y-6706000D03*
X8166000Y-4706000D03*
X8166000Y-706000D03*
X8166000Y1294000D03*
X8166000Y5294000D03*
X8166000Y7294000D03*
X8166000Y29294000D03*
X8166000Y31294000D03*
X6166000Y-30706000D03*
X6166000Y-20706000D03*
X6166000Y-18706000D03*
X6166000Y-16706000D03*
X6166000Y-14706000D03*
X6166000Y-12706000D03*
X6166000Y-10706000D03*
X6166000Y-8706000D03*
X6166000Y-6706000D03*
X6166000Y-4706000D03*
X6166000Y5294000D03*
X6166000Y7294000D03*
X6166000Y29294000D03*
X4166000Y-30706000D03*
X4166000Y-14706000D03*
X4166000Y-12706000D03*
X4166000Y-10706000D03*
X4166000Y-8706000D03*
X4166000Y5294000D03*
X4166000Y7294000D03*
X2166000Y-30706000D03*
X2166000Y-28706000D03*
X2166000Y-14706000D03*
X2166000Y-12706000D03*
X2166000Y-10706000D03*
X2166000Y5294000D03*
X2166000Y7294000D03*
X166000Y-30706000D03*
X166000Y-28706000D03*
X166000Y-14706000D03*
X166000Y-12706000D03*
X166000Y-10706000D03*
X166000Y-6706000D03*
X166000Y-4706000D03*
X166000Y5294000D03*
X166000Y11294000D03*
X-1834000Y-30706000D03*
X-1834000Y-28706000D03*
X-1834000Y-14706000D03*
X-1834000Y-12706000D03*
X-1834000Y5294000D03*
X-3834000Y-30706000D03*
X-3834000Y-14706000D03*
X-3834000Y-10706000D03*
X-3834000Y1294000D03*
X-3834000Y5294000D03*
X-5834000Y-30706000D03*
X-5834000Y-12706000D03*
X-5834000Y-10706000D03*
X-5834000Y-6706000D03*
X-5834000Y-4706000D03*
X-5834000Y5294000D03*
X-5834000Y29294000D03*
X-7834000Y-30706000D03*
X-7834000Y-24706000D03*
X-7834000Y-14706000D03*
X-7834000Y-12706000D03*
X-7834000Y-10706000D03*
X-7834000Y-8706000D03*
X-7834000Y-6706000D03*
X-7834000Y-4706000D03*
X-7834000Y-706000D03*
X-7834000Y1294000D03*
X-7834000Y29294000D03*
X-7834000Y31294000D03*
X-9834000Y-30706000D03*
X-9834000Y-14706000D03*
X-9834000Y-12706000D03*
X-9834000Y-10706000D03*
X-9834000Y-8706000D03*
X-9834000Y-6706000D03*
X-9834000Y-4706000D03*
X-9834000Y-706000D03*
X-9834000Y1294000D03*
X-9834000Y3294000D03*
X-9834000Y29294000D03*
X-11834000Y-28706000D03*
X-11834000Y-24706000D03*
X-11834000Y-10706000D03*
X-11834000Y-8706000D03*
X-11834000Y-6706000D03*
X-11834000Y-4706000D03*
X-11834000Y-706000D03*
X-11834000Y1294000D03*
X-11834000Y5294000D03*
X-13834000Y-28706000D03*
X-13834000Y-10706000D03*
X-13834000Y-8706000D03*
X-13834000Y-4706000D03*
X-13834000Y5294000D03*
X-15834000Y-26706000D03*
X-15834000Y-12706000D03*
X-15834000Y-10706000D03*
X-15834000Y-706000D03*
X-15834000Y3294000D03*
X-15834000Y5294000D03*
X-17834000Y-26706000D03*
X-17834000Y-24706000D03*
X-17834000Y3294000D03*
X-17834000Y5294000D03*
X-19834000Y-24706000D03*
X-19834000Y-22706000D03*
X-19834000Y-12706000D03*
X-19834000Y-6706000D03*
X-19834000Y-4706000D03*
X-19834000Y3294000D03*
X-19834000Y5294000D03*
X-21834000Y-22706000D03*
X-21834000Y-20706000D03*
X-21834000Y-12706000D03*
X-21834000Y-6706000D03*
X-21834000Y3294000D03*
X-21834000Y5294000D03*
X-21834000Y9294000D03*
X-23834000Y-20706000D03*
X-23834000Y-8706000D03*
X-23834000Y-6706000D03*
X-23834000Y-2706000D03*
X-23834000Y3294000D03*
X-23834000Y9294000D03*
X-23834000Y11294000D03*
X-23834000Y13294000D03*
X-23834000Y15294000D03*
X-27834000Y-16706000D03*
X-27834000Y-14706000D03*
X-27834000Y-12706000D03*
X-27834000Y-10706000D03*
X-27834000Y-8706000D03*
X-27834000Y-6706000D03*
X-27834000Y-4706000D03*
X-27834000Y3294000D03*
X-27834000Y5294000D03*
X-27834000Y7294000D03*
X-27834000Y9294000D03*
X-27834000Y11294000D03*
X-27834000Y13294000D03*
X-27834000Y15294000D03*
X-29834000Y-12706000D03*
X-29834000Y-10706000D03*
X-29834000Y-8706000D03*
X-29834000Y-6706000D03*
X-29834000Y-4706000D03*
X-29834000Y5294000D03*
X-29834000Y7294000D03*
X-29834000Y9294000D03*
X-29834000Y11294000D03*
X-31834000Y-4706000D03*
X-31834000Y5294000D03*
D39*
X-8835000Y18160000D03*
D38*
X5300000Y24730000D03*
X15800000Y-1100000D03*
X9372500Y11332500D03*
D39*
X-12699838Y18230000D03*
D38*
X-4350252Y25888370D03*
X17620000Y-2250000D03*
X-2110000Y0D03*
X-16830000Y17370000D03*
X10110000Y12422500D03*
X-13650000Y15360000D03*
D39*
X-2828588Y8500500D03*
D38*
X-20101907Y13770000D03*
X7390000Y17320000D03*
X4420000Y11560000D03*
X-1450000Y-2310000D03*
X8535000Y10297500D03*
X-11910000Y-20660000D03*
X7240531Y13235076D03*
X12070000Y11185000D03*
X-8350000Y-28200000D03*
X3300000Y-1000000D03*
X-15871907Y15750000D03*
X-22880000Y-18150000D03*
X14987500Y12975000D03*
X4830000Y25800000D03*
X-3552964Y25004134D03*
X18140000Y-8540000D03*
X16700000Y0D03*
X-14142159Y20089294D03*
X4185000Y20345000D03*
X11445000Y14360000D03*
X11550000Y20720000D03*
X4040000Y-7140000D03*
X0Y-20600000D03*
D39*
X-2852590Y10170762D03*
X-2514838Y16210500D03*
D38*
X1900000Y22110000D03*
X-2613000Y22333000D03*
X-1650000Y21370000D03*
X-18503800Y9211124D03*
X11760000Y-23190000D03*
X-5410000Y25760000D03*
X-6865000Y-23165000D03*
X-14985000Y-7210000D03*
X-18981907Y11330000D03*
X-20420000Y-2240000D03*
X-890000Y-8640000D03*
X26085000Y-16545000D03*
D39*
X-5850000Y7265000D03*
D38*
X3300000Y1200000D03*
D39*
X-1144500Y13663483D03*
D38*
X15800000Y1400000D03*
X-14005000Y9855000D03*
X4140000Y25310000D03*
X-4670000Y24090000D03*
D39*
X-1184838Y9850500D03*
D38*
X-12290000Y24820000D03*
X-8930000Y25100000D03*
D39*
X-2739838Y9270500D03*
D38*
X6280000Y25220000D03*
X-20050000Y-8660000D03*
X21090000Y-18090000D03*
X-3650000Y23360000D03*
X6780000Y-28140000D03*
X-17260000Y24670000D03*
X4544668Y22175332D03*
X-21200000Y-10000D03*
X-12399838Y7990500D03*
X6880000Y26350000D03*
X18600000Y20890000D03*
X-16090000Y12520000D03*
X12220000Y-20610000D03*
X-17958000Y-16332000D03*
X-21230000Y19040000D03*
X-6130000Y24760000D03*
X23080000Y-7140000D03*
%TO.N,VBUS*%
X3002858Y24967033D03*
X-2560000Y24890000D03*
%TO.N,BUTT0*%
X-12050000Y-17400000D03*
%TO.N,+5V*%
X12120000Y24810000D03*
X7605000Y21145000D03*
D39*
%TO.N,USB_D+*%
X250000Y25140000D03*
X303779Y23965500D03*
D38*
%TO.N,LED_D*%
X-13600000Y17790000D03*
%TO.N,BUTT1*%
X-110000Y-17540000D03*
%TO.N,BUTT2*%
X12202500Y-17490000D03*
D39*
%TO.N,+1V1*%
X-14426916Y12426916D03*
X-6899838Y12370500D03*
X-11212500Y12835000D03*
X-4011985Y13508702D03*
D38*
%TO.N,SWDIO*%
X-24032443Y19835329D03*
%TO.N,+3V3*%
X2205000Y9965000D03*
X-10600000Y20350000D03*
X2205000Y12620000D03*
X2195000Y15990000D03*
X-10219838Y18130500D03*
X-1244500Y15435273D03*
%TO.N,Net-(R6-Pad1)*%
X-19100000Y20670000D03*
%TO.N,Net-(U3-RUN)*%
X-15900000Y9480000D03*
%TD*%
D40*
%TO.N,+4V4*%
X-17460000Y-3260000D02*
X-18510000Y-2210000D01*
X490000Y-3260000D02*
X-17460000Y-3260000D01*
%TO.N,GND*%
X-17801836Y16501836D02*
X-17180000Y15880000D01*
D41*
X-1260000Y-2240000D02*
X-1450000Y-2310000D01*
D40*
X-17180000Y15880000D02*
X-16001907Y15880000D01*
D42*
X10110000Y12422500D02*
X10100000Y12550000D01*
D41*
X-8771007Y18170500D02*
X-8158669Y18170500D01*
D42*
X-4150000Y26002031D02*
X-3472969Y26002031D01*
X12070000Y10147500D02*
X12170000Y10047500D01*
D41*
X-20360000Y-2210000D02*
X-20330000Y-2210000D01*
X-16109838Y12500162D02*
X-16109838Y11780500D01*
D40*
X-18981907Y11762107D02*
X-18821907Y11922107D01*
D41*
X-16090000Y12520000D02*
X-15739838Y12870162D01*
D40*
X-16830000Y17370000D02*
X-16861742Y17401742D01*
D42*
X8115000Y17320000D02*
X8188750Y17393750D01*
D40*
X-2610000Y22330000D02*
X-2613000Y22333000D01*
X-18981907Y11330000D02*
X-18981907Y11762107D01*
D41*
X-20300000Y-2210000D02*
X-20420000Y-2240000D01*
D42*
X-3829134Y25004134D02*
X-4150000Y25325000D01*
D40*
X-17801836Y17414068D02*
X-17801836Y16501836D01*
D42*
X-21200000Y-10000D02*
X-19997500Y-10000D01*
X7240531Y13235076D02*
X7445000Y13030607D01*
D41*
X-450000Y-2240000D02*
X-1380000Y-2240000D01*
D43*
X-8135338Y18160000D02*
X-8094838Y18200500D01*
D40*
X4544668Y22175332D02*
X4489336Y22120000D01*
D42*
X15825000Y12975000D02*
X14987500Y12975000D01*
D41*
X-6130000Y24760000D02*
X-6344838Y24974838D01*
D42*
X3515000Y25935000D02*
X3200000Y26250000D01*
D44*
X1900000Y22110000D02*
X1900000Y23189954D01*
D42*
X4420000Y11560000D02*
X4420000Y10491187D01*
D41*
X-1144500Y13663483D02*
X-1285483Y13522500D01*
X-13096739Y14472500D02*
X-12540000Y14472500D01*
X-19470000Y-2210000D02*
X-20300000Y-2210000D01*
D42*
X18074000Y0D02*
X16700000Y0D01*
D40*
X-2530000Y22330000D02*
X-2533000Y22333000D01*
D41*
X-11869838Y8520500D02*
X-11214838Y8520500D01*
D40*
X-1681000Y22330000D02*
X-2610000Y22330000D01*
D42*
X11550000Y20720000D02*
X11550000Y20513750D01*
X-1316000Y0D02*
X-2344000Y0D01*
D41*
X-15739838Y12870162D02*
X-15739838Y13270500D01*
D42*
X4185000Y20345000D02*
X3902500Y20062500D01*
X12070000Y11185000D02*
X12070000Y10147500D01*
X9885000Y10820000D02*
X9885000Y10092500D01*
D41*
X-2514838Y15455500D02*
X-2514838Y16210500D01*
X-1285483Y13522500D02*
X-2210000Y13522500D01*
D42*
X-20071778Y13800129D02*
X-20101907Y13770000D01*
D41*
X17770000Y-2270000D02*
X17790000Y-2270000D01*
D42*
X-19997500Y-10000D02*
X-19987500Y0D01*
X9940000Y9920000D02*
X9920000Y9900000D01*
D41*
X-16090000Y12520000D02*
X-16109838Y12500162D01*
D42*
X-3552964Y25922036D02*
X-3200000Y26275000D01*
X-3552964Y25004134D02*
X-3829134Y25004134D01*
X11315000Y14230000D02*
X10090000Y14230000D01*
X-4150000Y25325000D02*
X-4150000Y26002031D01*
D41*
X18550000Y-2270000D02*
X17810000Y-2270000D01*
X-3169838Y9700500D02*
X-3548588Y9700500D01*
X17620000Y-2250000D02*
X17770000Y-2270000D01*
D42*
X-3472969Y26002031D02*
X-3200000Y26275000D01*
D41*
X-6130000Y24760000D02*
X-6770000Y24760000D01*
D42*
X3560410Y25980410D02*
X4649590Y25980410D01*
D41*
X-15854838Y20275500D02*
X-14328365Y20275500D01*
D42*
X8610000Y10222500D02*
X9585000Y10222500D01*
D41*
X-13650000Y15360000D02*
X-13341409Y15051409D01*
D42*
X15862500Y12937500D02*
X15825000Y12975000D01*
D41*
X-12399838Y7990500D02*
X-11869838Y8520500D01*
D40*
X3200000Y26495000D02*
X3200000Y26250000D01*
D42*
X-3552964Y25004134D02*
X-3552964Y25922036D01*
D44*
X1900000Y23189954D02*
X1985023Y23274977D01*
D40*
X4489336Y22120000D02*
X3602500Y22120000D01*
D41*
X-1450000Y-2310000D02*
X-1300000Y-2280000D01*
D42*
X7390000Y17320000D02*
X8115000Y17320000D01*
X9372500Y11332500D02*
X9885000Y10820000D01*
D40*
X-16861742Y17401742D02*
X-17867272Y17401742D01*
D41*
X-6770000Y24760000D02*
X-7020000Y24510000D01*
X17810000Y-2270000D02*
X17620000Y-2250000D01*
D42*
X-4350252Y25888370D02*
X-4350252Y25525252D01*
D41*
X-2852590Y10258252D02*
X-3524838Y10930500D01*
X-6344838Y24974838D02*
X-6344838Y25080500D01*
X-2739838Y9270500D02*
X-3169838Y9700500D01*
D42*
X4649590Y25980410D02*
X4830000Y25800000D01*
D41*
X-13341409Y14717170D02*
X-13096739Y14472500D01*
D40*
X4375000Y22345000D02*
X4544668Y22175332D01*
D42*
X3902500Y20062500D02*
X3902500Y19446250D01*
D41*
X-5850000Y7265000D02*
X-5850000Y7935000D01*
X-14328365Y20275500D02*
X-14142159Y20089294D01*
D42*
X-4350252Y25525252D02*
X-4150000Y25325000D01*
D41*
X-1380000Y-2240000D02*
X-1450000Y-2310000D01*
D42*
X7445000Y13030607D02*
X7445000Y12267500D01*
X3515000Y25935000D02*
X3560410Y25980410D01*
D41*
X-2828588Y8500500D02*
X-3342338Y8500500D01*
D42*
X-20101907Y13770000D02*
X-19983649Y13651742D01*
D41*
X-3342338Y8500500D02*
X-3552338Y8710500D01*
D42*
X4140000Y25310000D02*
X3515000Y25935000D01*
X10100000Y12540000D02*
X10100000Y12530000D01*
D41*
X-20420000Y-2240000D02*
X-20360000Y-2210000D01*
D42*
X11550000Y20513750D02*
X10482500Y19446250D01*
D40*
X-2533000Y22333000D02*
X-2613000Y22333000D01*
D41*
X-12699838Y18230000D02*
X-12087500Y18230000D01*
D42*
X8535000Y10297500D02*
X8610000Y10222500D01*
X11445000Y14360000D02*
X11315000Y14230000D01*
X10100000Y12550000D02*
X10100000Y14225000D01*
D40*
X-18821907Y11922107D02*
X-18821907Y13321377D01*
D41*
X-13341409Y15051409D02*
X-13341409Y14717170D01*
D42*
X15862500Y12937500D02*
X15942500Y13017500D01*
D41*
X-2014838Y9850500D02*
X-1184838Y9850500D01*
D40*
X-21200000Y-10000D02*
X-21240000Y30000D01*
D42*
X10100000Y12530000D02*
X10110000Y12422500D01*
D40*
X-18821907Y13321377D02*
X-19182272Y13681742D01*
D42*
X-19983649Y13651742D02*
X-19252272Y13651742D01*
D41*
X-2856340Y9980762D02*
X-2856340Y10068252D01*
D44*
%TO.N,VBUS*%
X4129891Y23840000D02*
X5460000Y23840000D01*
X5460000Y23840000D02*
X6020000Y23280000D01*
X4645000Y21145000D02*
X2175000Y21145000D01*
X5460000Y23840000D02*
X5950000Y23350000D01*
X3002858Y24967033D02*
X4129891Y23840000D01*
X2400000Y25569891D02*
X2400000Y26375000D01*
X3002858Y24967033D02*
X2400000Y25569891D01*
X6020000Y23280000D02*
X6020000Y22520000D01*
X-2400000Y25050000D02*
X-2400000Y26275000D01*
X6020000Y22520000D02*
X4645000Y21145000D01*
X2175000Y21145000D02*
X2110000Y21080000D01*
X-2560000Y24890000D02*
X-2400000Y25050000D01*
D41*
%TO.N,BUTT0*%
X-15066322Y7720000D02*
X-12540000Y10246322D01*
X-24900000Y-15100000D02*
X-26580000Y-13420000D01*
X-22608000Y7720000D02*
X-15066322Y7720000D01*
X-12050000Y-17400000D02*
X-14407686Y-17400000D01*
X-16707686Y-15100000D02*
X-24900000Y-15100000D01*
X-26580000Y-13420000D02*
X-26580000Y3748000D01*
X-14407686Y-17400000D02*
X-16707686Y-15100000D01*
X-26580000Y3748000D02*
X-22608000Y7720000D01*
X-12540000Y10246322D02*
X-12540000Y10872500D01*
D44*
%TO.N,+5V*%
X10970000Y24050000D02*
X13340000Y21680000D01*
X13140000Y14177500D02*
X13105000Y14212500D01*
X10482500Y16496250D02*
X10482500Y16781250D01*
X10510000Y24050000D02*
X10570000Y24050000D01*
X11892500Y18195000D02*
X12230000Y17857500D01*
X12070000Y18195000D02*
X11892500Y18195000D01*
X11892500Y18195000D02*
X10080000Y16382500D01*
X12230000Y15087500D02*
X13105000Y14212500D01*
X10482500Y16781250D02*
X8942500Y18321250D01*
X13340000Y21680000D02*
X13340000Y19465000D01*
X7605000Y21145000D02*
X10510000Y24050000D01*
X13340000Y19465000D02*
X12070000Y18195000D01*
X8942500Y18321250D02*
X8315000Y18321250D01*
X10407500Y16421250D02*
X8141250Y16421250D01*
X12230000Y17857500D02*
X12230000Y15087500D01*
X13140000Y12287500D02*
X13140000Y14177500D01*
X10510000Y24050000D02*
X10970000Y24050000D01*
X11330000Y24810000D02*
X12120000Y24810000D01*
X10482500Y16496250D02*
X10407500Y16421250D01*
X10570000Y24050000D02*
X11330000Y24810000D01*
D41*
%TO.N,Net-(P1-CC1)*%
X3230000Y23080000D02*
X1315000Y24995000D01*
X1250000Y26275000D02*
X1250000Y25684925D01*
X1315000Y24995000D02*
X1315000Y25580000D01*
X3602500Y23080000D02*
X3230000Y23080000D01*
%TO.N,Net-(P1-CC2)*%
X-1750000Y26675000D02*
X-1750000Y23410000D01*
X-1750000Y23410000D02*
X-1680000Y23340000D01*
%TO.N,OSC_IN*%
X-14269950Y14990000D02*
X-16170000Y14990000D01*
X-18880000Y15880000D02*
X-18880000Y17349014D01*
X-12540000Y14072500D02*
X-13352450Y14072500D01*
X-13352450Y14072500D02*
X-14269950Y14990000D01*
X-16170000Y14990000D02*
X-16280000Y14880000D01*
X-18080000Y14880000D02*
X-18880000Y15680000D01*
X-16280000Y14880000D02*
X-18080000Y14880000D01*
X-18880000Y15680000D02*
X-18880000Y15880000D01*
X-18880000Y17349014D02*
X-18827272Y17401742D01*
D45*
%TO.N,USB_D+*%
X303779Y23965500D02*
X303779Y22570175D01*
X303779Y22570175D02*
X-520000Y21746396D01*
X-910000Y25640280D02*
X-910000Y24839720D01*
X-519500Y15735578D02*
X-519500Y13384287D01*
X-520000Y21746396D02*
X-590000Y21676396D01*
D40*
X245500Y23965500D02*
X190000Y23910000D01*
D45*
X240000Y25220956D02*
X240000Y26290000D01*
X-590000Y15806078D02*
X-519500Y15735578D01*
X-910000Y24839720D02*
X-35780Y23965500D01*
X-519500Y13384287D02*
X-1273287Y12630500D01*
X246456Y25214500D02*
X240000Y25220956D01*
X-1273287Y12630500D02*
X-1474838Y12630500D01*
X-750000Y25800280D02*
X-910000Y25640280D01*
X-750000Y26495000D02*
X-750000Y25800280D01*
X-35780Y23965500D02*
X303779Y23965500D01*
X-590000Y21676396D02*
X-590000Y15806078D01*
D40*
X303779Y23965500D02*
X245500Y23965500D01*
D45*
%TO.N,USB_D-*%
X-1443805Y11730000D02*
X-1407729Y11730000D01*
X750000Y25583884D02*
X890000Y25443884D01*
X-70000Y13067729D02*
X-70000Y20800000D01*
X-415000Y25498884D02*
X-250000Y25663884D01*
X890000Y25443884D02*
X890000Y24620000D01*
X-250000Y25663884D02*
X-250000Y26495000D01*
X928779Y24581221D02*
X890000Y24620000D01*
X928779Y22558779D02*
X928779Y24581221D01*
X890000Y24620000D02*
X860000Y24590000D01*
X750000Y26495000D02*
X750000Y25583884D01*
X-1407729Y11730000D02*
X-70000Y13067729D01*
X-415000Y24981116D02*
X-415000Y25498884D01*
X860000Y24590000D02*
X-23884Y24590000D01*
X210000Y21840000D02*
X928779Y22558779D01*
X-23884Y24590000D02*
X-415000Y24981116D01*
X-70000Y20800000D02*
X210000Y21080000D01*
X210000Y21080000D02*
X210000Y21840000D01*
D41*
%TO.N,LED_D*%
X-13600000Y17132500D02*
X-12540000Y16072500D01*
X-13600000Y17790000D02*
X-13600000Y17132500D01*
D40*
%TO.N,ADC_IN1*%
X-15940000Y950000D02*
X-12940108Y3949892D01*
X-18050000Y950000D02*
X-15940000Y950000D01*
D41*
X-8102500Y10035000D02*
X-8102500Y9469582D01*
D40*
X-8618959Y9191041D02*
X-8381041Y9191041D01*
D41*
X-8102500Y9469582D02*
X-8381041Y9191041D01*
D40*
X-9210000Y5520000D02*
X-9210000Y8600000D01*
X-9210000Y8600000D02*
X-8618959Y9191041D01*
X-12940108Y3949892D02*
X-10780108Y3949892D01*
X-10780108Y3949892D02*
X-9210000Y5520000D01*
D41*
%TO.N,OSC_OUT*%
X-12540000Y13672500D02*
X-13670680Y13672500D01*
X-13670680Y13672500D02*
X-14268180Y14270000D01*
X-14268180Y14270000D02*
X-14691907Y14270000D01*
D40*
%TO.N,ADC_IN2*%
X-7680000Y2450000D02*
X280000Y2450000D01*
X-7827843Y9107843D02*
X-7827843Y9035050D01*
X-7827843Y9035050D02*
X-8160000Y8702893D01*
D41*
X-7702500Y9233186D02*
X-7702500Y10035000D01*
D40*
X937500Y1792500D02*
X937500Y950000D01*
X280000Y2450000D02*
X937500Y1792500D01*
X-8160000Y8702893D02*
X-8160000Y2930000D01*
D41*
X-7827843Y9107843D02*
X-7702500Y9233186D01*
D40*
X-8160000Y2930000D02*
X-7680000Y2450000D01*
%TO.N,ADC_IN3*%
X-7030000Y4560000D02*
X-6380000Y3910000D01*
X-7030000Y8880000D02*
X-7030000Y4560000D01*
X18300000Y3910000D02*
X20437500Y1772500D01*
X-6380000Y3910000D02*
X18300000Y3910000D01*
X-7260000Y9110000D02*
X-7030000Y8880000D01*
D41*
X-7260000Y9110000D02*
X-7302500Y9152500D01*
D40*
X20437500Y1772500D02*
X20437500Y950000D01*
D41*
X-7302500Y9152500D02*
X-7302500Y10035000D01*
%TO.N,BUTT1*%
X-22246000Y7320000D02*
X-14900636Y7320000D01*
X-16542000Y-14700000D02*
X-24734314Y-14700000D01*
X-26180000Y-13254314D02*
X-26180000Y3386000D01*
X-110000Y-17540000D02*
X-1250000Y-16400000D01*
X-14900636Y7320000D02*
X-12185636Y10035000D01*
X-12185636Y10035000D02*
X-11702500Y10035000D01*
X-26180000Y3386000D02*
X-22246000Y7320000D01*
X-24734314Y-14700000D02*
X-26180000Y-13254314D01*
X-14842000Y-16400000D02*
X-16542000Y-14700000D01*
X-1250000Y-16400000D02*
X-14842000Y-16400000D01*
%TO.N,BUTT2*%
X-11507525Y9297500D02*
X-11302500Y9502525D01*
X-25780000Y-13088628D02*
X-25780000Y3220314D01*
X10602500Y-15890000D02*
X-14786314Y-15890000D01*
X-14734950Y6920000D02*
X-12357450Y9297500D01*
X-12357450Y9297500D02*
X-11507525Y9297500D01*
X-22080314Y6920000D02*
X-14734950Y6920000D01*
X-11302500Y9502525D02*
X-11302500Y10035000D01*
X12202500Y-17490000D02*
X10602500Y-15890000D01*
X-24568628Y-14300000D02*
X-25780000Y-13088628D01*
X-25780000Y3220314D02*
X-22080314Y6920000D01*
X-16376315Y-14300000D02*
X-24568628Y-14300000D01*
X-14786314Y-15890000D02*
X-16376315Y-14300000D01*
%TO.N,+1V1*%
X-2914838Y11060500D02*
X-3526838Y11672500D01*
X-14426916Y12426916D02*
X-13981332Y12872500D01*
X-4011985Y13508702D02*
X-4175783Y13672500D01*
X-3526838Y11672500D02*
X-5665000Y11672500D01*
X-15073332Y11780500D02*
X-15149838Y11780500D01*
X-1934838Y10780500D02*
X-2652584Y10780500D01*
X-4011985Y13710611D02*
X-3192097Y14530500D01*
X-3192097Y14530500D02*
X-2534838Y14530500D01*
X-5665000Y11672500D02*
X-6486838Y11672500D01*
X-2914838Y11042754D02*
X-2914838Y11060500D01*
X-6486838Y11672500D02*
X-6504838Y11690500D01*
X-2652584Y10780500D02*
X-2914838Y11042754D01*
X-4175783Y13672500D02*
X-5665000Y13672500D01*
X-13981332Y12872500D02*
X-12540000Y12872500D01*
X-14426916Y12426916D02*
X-15073332Y11780500D01*
X-4011985Y13508702D02*
X-4011985Y13710611D01*
%TO.N,SWDIO*%
X-22570000Y10874314D02*
X-21925686Y10230000D01*
X-21925686Y10230000D02*
X-15210323Y10230000D01*
X-13367823Y12072500D02*
X-12540000Y12072500D01*
X-24032443Y19835329D02*
X-22570000Y18372886D01*
X-15210323Y10230000D02*
X-13367823Y12072500D01*
X-22570000Y18372886D02*
X-22570000Y10874314D01*
%TO.N,SWCLK*%
X-16470000Y27160000D02*
X-15680000Y27160000D01*
X-15370000Y10636009D02*
X-18685948Y10636009D01*
X-12540000Y12472500D02*
X-13533509Y12472500D01*
X-21760000Y10630000D02*
X-22080000Y10950000D01*
X-22080000Y10950000D02*
X-22080000Y21550000D01*
X-18685948Y10636009D02*
X-18691957Y10630000D01*
X-18691957Y10630000D02*
X-21760000Y10630000D01*
X-13533509Y12472500D02*
X-15370000Y10636009D01*
X-22080000Y21550000D02*
X-16470000Y27160000D01*
D40*
%TO.N,+4V4*%
X7010000Y10022500D02*
X8395000Y11407500D01*
X19510000Y-2270000D02*
X20030000Y-1750000D01*
X-18112500Y-950000D02*
X-18112500Y-1812500D01*
X490000Y-2260000D02*
X510000Y-2240000D01*
X19550000Y-3260000D02*
X25340000Y-3260000D01*
X8395000Y11407500D02*
X8395000Y12267500D01*
X7010000Y10022500D02*
X6495000Y10537500D01*
X26492000Y-2108000D02*
X26492000Y7544000D01*
X20030000Y-1750000D02*
X20030000Y-992500D01*
X937500Y-950000D02*
X937500Y-1812500D01*
X19550000Y-2310000D02*
X19510000Y-2270000D01*
X8497500Y8535000D02*
X7010000Y10022500D01*
X-18112500Y-1812500D02*
X-18510000Y-2210000D01*
X20030000Y-992500D02*
X19987500Y-950000D01*
X25340000Y-3260000D02*
X26492000Y-2108000D01*
X26492000Y7544000D02*
X23988500Y10047500D01*
X937500Y-1812500D02*
X510000Y-2240000D01*
X19550000Y-3260000D02*
X19550000Y-2310000D01*
X490000Y-3260000D02*
X490000Y-2260000D01*
X14070000Y10047500D02*
X12557500Y8535000D01*
X19550000Y-3260000D02*
X490000Y-3260000D01*
X6495000Y10537500D02*
X6495000Y12267500D01*
X23988500Y10047500D02*
X14070000Y10047500D01*
X12557500Y8535000D02*
X8497500Y8535000D01*
%TO.N,ADC_AVDD*%
X5388687Y13416187D02*
X6410000Y14437500D01*
X4092813Y13416187D02*
X-1923374Y7400000D01*
X-3257303Y7400000D02*
X-4504838Y8647535D01*
X4092813Y13416187D02*
X5388687Y13416187D01*
D41*
X-4514838Y8700500D02*
X-4504838Y8690500D01*
D40*
X-5665000Y10720662D02*
X-4624838Y9680500D01*
D41*
X-5665000Y10720662D02*
X-5665000Y10870000D01*
D40*
X-4624838Y9680500D02*
X-4514838Y9680500D01*
X-1923374Y7400000D02*
X-3257303Y7400000D01*
D41*
X-4514838Y9680500D02*
X-4564838Y9730500D01*
D40*
X-4514838Y9680500D02*
X-4514838Y8700500D01*
X-4504838Y8647535D02*
X-4504838Y8690500D01*
D41*
%TO.N,+3V3*%
X-13900309Y13272500D02*
X-13926309Y13298500D01*
D40*
X2205000Y12620000D02*
X2205000Y13770000D01*
D41*
X-10102500Y8897838D02*
X-10102500Y10035000D01*
X-11019838Y18180500D02*
X-10980338Y18220000D01*
D40*
X-13815000Y23635000D02*
X-11850000Y23635000D01*
D41*
X-6502500Y9575000D02*
X-6502500Y9522500D01*
D40*
X-1840000Y16030773D02*
X-1840000Y18875662D01*
D41*
X-6502500Y9522500D02*
X-5845000Y8865000D01*
X-6502500Y17682500D02*
X-7010000Y18190000D01*
X-10499838Y8500500D02*
X-10102500Y8897838D01*
X-6504838Y11170500D02*
X-6405338Y11270000D01*
X-4862498Y12885000D02*
X-4874998Y12872500D01*
D40*
X-15600000Y25420000D02*
X-13815000Y23635000D01*
D41*
X-6502500Y11168162D02*
X-6502500Y10035000D01*
X-6502500Y16120500D02*
X-6512500Y16110500D01*
X-10102500Y16910000D02*
X-10102500Y16170000D01*
D40*
X2195000Y15990000D02*
X2701250Y16496250D01*
X-10470000Y25015000D02*
X-10470000Y27086396D01*
D41*
X-10102500Y10035000D02*
X-10102500Y11020000D01*
D40*
X-7062965Y23550000D02*
X-7598465Y24085500D01*
D41*
X-11947838Y13272500D02*
X-13900309Y13272500D01*
X-4395338Y12885000D02*
X-4294838Y12885000D01*
D40*
X-11850000Y21600000D02*
X-10600000Y20350000D01*
X2205000Y13770000D02*
X2195000Y13780000D01*
D41*
X-4782838Y13272500D02*
X-4395338Y12885000D01*
D40*
X2205000Y9965000D02*
X-860000Y6900000D01*
D41*
X3977500Y16421250D02*
X3902500Y16496250D01*
X-10980338Y18220000D02*
X-10360000Y18220000D01*
D40*
X-18010000Y23980000D02*
X-18010000Y24980661D01*
D41*
X-3787158Y12885000D02*
X-3211658Y13460500D01*
X-11769838Y13450500D02*
X-11947838Y13272500D01*
X-6160201Y11270500D02*
X-5954838Y11270500D01*
D40*
X-6514338Y23550000D02*
X-7062965Y23550000D01*
X-860000Y6900000D02*
X-3737035Y6900000D01*
X-11850000Y23635000D02*
X-10470000Y25015000D01*
X-11850000Y23635000D02*
X-11850000Y21600000D01*
X2701250Y16496250D02*
X3902500Y16496250D01*
D41*
X-10102500Y16170000D02*
X-10112500Y16160000D01*
X-4294838Y12885000D02*
X-4862498Y12885000D01*
D40*
X6040000Y16421250D02*
X3977500Y16421250D01*
D41*
X-4826838Y11272500D02*
X-4484838Y10930500D01*
D40*
X-17570661Y25420000D02*
X-15600000Y25420000D01*
D41*
X-6405338Y11270000D02*
X-6199975Y11270000D01*
D40*
X-5727535Y8890500D02*
X-5874838Y8890500D01*
X-7598465Y24085500D02*
X-11399500Y24085500D01*
D41*
X-5625000Y13270000D02*
X-6462500Y13270000D01*
X-4294838Y12885000D02*
X-3787158Y12885000D01*
X-6502500Y16785500D02*
X-6502500Y16120500D01*
X-3211658Y13460500D02*
X-3014838Y13460500D01*
D40*
X2195000Y13780000D02*
X2195000Y15990000D01*
D41*
X-10360000Y18175662D02*
X-10314838Y18130500D01*
X-4874998Y12872500D02*
X-6265000Y12872500D01*
X-10102500Y11020000D02*
X-10087500Y11035000D01*
X-6502500Y16910000D02*
X-6502500Y17682500D01*
X-5665000Y13272500D02*
X-4782838Y13272500D01*
D40*
X-18010000Y24980661D02*
X-17570661Y25420000D01*
D41*
X-6504838Y11170500D02*
X-6502500Y11168162D01*
D40*
X-1244500Y15435273D02*
X-1840000Y16030773D01*
D41*
X-13926309Y13298500D02*
X-14856838Y13298500D01*
D40*
X-17890000Y23860000D02*
X-18010000Y23980000D01*
D41*
X-10360000Y18220000D02*
X-10360000Y18175662D01*
D40*
X-1840000Y18875662D02*
X-6514338Y23550000D01*
D41*
X-5665000Y11272500D02*
X-4826838Y11272500D01*
X-5845000Y8865000D02*
X-5792500Y8865000D01*
X-6265000Y12872500D02*
X-6462500Y13070000D01*
D40*
X-11399500Y24085500D02*
X-11850000Y23635000D01*
X-3737035Y6900000D02*
X-5727535Y8890500D01*
D41*
X-10102500Y17918162D02*
X-10102500Y16910000D01*
%TO.N,Net-(U3-USB_DP)*%
X-5665000Y12472500D02*
X-2592838Y12472500D01*
X-2592838Y12472500D02*
X-2434838Y12630500D01*
%TO.N,Net-(U3-USB_DM)*%
X-2816838Y12072500D02*
X-2444838Y11700500D01*
X-5665000Y12072500D02*
X-2816838Y12072500D01*
%TO.N,/QSPI_SS*%
X-5665000Y16072500D02*
X-5665000Y17839290D01*
X-16494838Y18820500D02*
X-17354838Y19680500D01*
X-11637092Y18820500D02*
X-16494838Y18820500D01*
X-17940000Y22751896D02*
X-17940000Y21970000D01*
X-11617092Y18840500D02*
X-11637092Y18820500D01*
X-16021234Y24085500D02*
X-15854838Y24085500D01*
X-17354838Y19680500D02*
X-17354838Y22751896D01*
X-5665000Y17839290D02*
X-6666210Y18840500D01*
X-6666210Y18840500D02*
X-11617092Y18840500D01*
X-17354838Y22751896D02*
X-16021234Y24085500D01*
X-17354838Y22751896D02*
X-17940000Y22751896D01*
%TO.N,Net-(R6-Pad1)*%
X-18760000Y21010000D02*
X-19100000Y20670000D01*
X-17940000Y21010000D02*
X-18760000Y21010000D01*
%TO.N,Net-(U3-RUN)*%
X-13072475Y11672500D02*
X-12540000Y11672500D01*
X-15900000Y9480000D02*
X-15394637Y9480000D01*
X-13252137Y11622500D02*
X-13122475Y11622500D01*
X-15394637Y9480000D02*
X-13252137Y11622500D01*
X-13122475Y11622500D02*
X-13072475Y11672500D01*
%TO.N,/QSPI_SD1*%
X-5665000Y15672500D02*
X-5132525Y15672500D01*
X-16954838Y21881896D02*
X-16021234Y22815500D01*
X-4927500Y15877525D02*
X-4927500Y17667476D01*
X-4927500Y17667476D02*
X-6500524Y19240500D01*
X-16021234Y22815500D02*
X-15854838Y22815500D01*
X-11782778Y19240500D02*
X-11802778Y19220500D01*
X-16236234Y19220500D02*
X-16954838Y19939104D01*
X-11802778Y19220500D02*
X-16236234Y19220500D01*
X-6500524Y19240500D02*
X-11782778Y19240500D01*
X-5132525Y15672500D02*
X-4927500Y15877525D01*
X-16954838Y19939104D02*
X-16954838Y21881896D01*
%TO.N,/QSPI_SD2*%
X-4712838Y15272500D02*
X-4344838Y15640500D01*
X-5665000Y15272500D02*
X-4712838Y15272500D01*
X-12149838Y19640500D02*
X-14054838Y21545500D01*
X-4344838Y17650500D02*
X-6334839Y19640500D01*
X-14054838Y21545500D02*
X-15854838Y21545500D01*
X-4344838Y15640500D02*
X-4344838Y17650500D01*
X-6334839Y19640500D02*
X-12149838Y19640500D01*
%TO.N,/QSPI_SD0*%
X-4547152Y14872500D02*
X-3944838Y15474815D01*
X-3944838Y15474815D02*
X-3944838Y17820500D01*
X-5665000Y14872500D02*
X-4547152Y14872500D01*
X-3944838Y17820500D02*
X-6399838Y20275500D01*
X-6399838Y20275500D02*
X-8654838Y20275500D01*
%TO.N,/QSPI_SCLK*%
X-7104152Y21545500D02*
X-8654838Y21545500D01*
X-3544838Y17986186D02*
X-7104152Y21545500D01*
X-4381466Y14472501D02*
X-3544838Y15309130D01*
X-5665000Y14472500D02*
X-4381466Y14472501D01*
X-3544838Y15309130D02*
X-3544838Y17986186D01*
%TO.N,/QSPI_SD3*%
X-3144838Y18160500D02*
X-7799838Y22815500D01*
X-3144838Y15143445D02*
X-3144838Y18160500D01*
X-7799838Y22815500D02*
X-8654838Y22815500D01*
X-4215780Y14072501D02*
X-3144838Y15143445D01*
X-5665000Y14072500D02*
X-4215780Y14072501D01*
%TO.N,Net-(C21-Pad2)*%
X-15760000Y14270000D02*
X-16590000Y14270000D01*
D40*
X-17040165Y13681742D02*
X-17482272Y13681742D01*
D41*
X-17841907Y12220000D02*
X-17841907Y13018093D01*
D40*
X-17020165Y13681742D02*
X-17482272Y13681742D01*
D41*
X-17891907Y12170000D02*
X-17841907Y12220000D01*
X-17841907Y13018093D02*
X-17180000Y13680000D01*
X-16590000Y14270000D02*
X-17180000Y13680000D01*
%TD*%
%TA.AperFunction,Conductor*%
%TO.N,+3V3*%
G36*
X-11791000Y12509967D02*
G01*
X-11765417Y12481409D01*
X-11763702Y12482398D01*
X-11736369Y12435058D01*
X-11705519Y12394329D01*
X-11705518Y12394329D01*
X-11705516Y12394326D01*
X-11628691Y12344707D01*
X-11581125Y12327394D01*
X-11510838Y12315000D01*
X-11510835Y12315000D01*
X-10977000Y12315000D01*
X-10929434Y12297687D01*
X-10904124Y12253850D01*
X-10903000Y12241000D01*
X-10903000Y11976140D01*
X-10896394Y11925962D01*
X-10896394Y11925960D01*
X-10845051Y11815855D01*
X-10759144Y11729948D01*
X-10704093Y11704278D01*
X-10649039Y11678606D01*
X-10598863Y11672000D01*
X-7714338Y11672001D01*
X-7666772Y11654688D01*
X-7641462Y11610851D01*
X-7640338Y11598001D01*
X-7640338Y11590031D01*
X-7640337Y11589977D01*
X-7639947Y11581053D01*
X-7639947Y11581049D01*
X-7638433Y11563747D01*
X-7638431Y11563739D01*
X-7611681Y11478898D01*
X-7611680Y11478896D01*
X-7586369Y11435058D01*
X-7555519Y11394329D01*
X-7555518Y11394329D01*
X-7555516Y11394326D01*
X-7478691Y11344707D01*
X-7431125Y11327394D01*
X-7360838Y11315000D01*
X-7360835Y11315000D01*
X-6597579Y11315000D01*
X-6597577Y11315000D01*
X-6590972Y11315690D01*
X-6555167Y11319425D01*
X-6555156Y11319427D01*
X-6555151Y11319427D01*
X-6525255Y11325735D01*
X-6484662Y11338824D01*
X-6461868Y11348890D01*
X-6455463Y11351988D01*
X-6444634Y11357697D01*
X-6441302Y11359604D01*
X-6426432Y11366066D01*
X-6420527Y11367893D01*
X-6420499Y11367904D01*
X-6420120Y11368032D01*
X-6420029Y11368048D01*
X-6419496Y11368212D01*
X-6419474Y11368140D01*
X-6396213Y11372000D01*
X-6378838Y11372000D01*
X-6331272Y11354687D01*
X-6305962Y11310850D01*
X-6304838Y11298000D01*
X-6304838Y10714500D01*
X-6322151Y10666934D01*
X-6365988Y10641624D01*
X-6378838Y10640500D01*
X-6705424Y10640500D01*
X-6746535Y10652971D01*
X-6754759Y10658466D01*
X-6779116Y10663311D01*
X-6827826Y10673000D01*
X-6977174Y10673000D01*
X-7001418Y10668178D01*
X-7050239Y10658467D01*
X-7050242Y10658465D01*
X-7058464Y10652971D01*
X-7099575Y10640500D01*
X-7105425Y10640500D01*
X-7146536Y10652971D01*
X-7154759Y10658465D01*
X-7154760Y10658466D01*
X-7154761Y10658467D01*
X-7154762Y10658467D01*
X-7198760Y10667219D01*
X-7227826Y10673000D01*
X-7377174Y10673000D01*
X-7401418Y10668178D01*
X-7450239Y10658467D01*
X-7450242Y10658465D01*
X-7458464Y10652971D01*
X-7499575Y10640500D01*
X-7505425Y10640500D01*
X-7546536Y10652971D01*
X-7554759Y10658465D01*
X-7554760Y10658466D01*
X-7554761Y10658467D01*
X-7554762Y10658467D01*
X-7598760Y10667219D01*
X-7627826Y10673000D01*
X-7777174Y10673000D01*
X-7801418Y10668178D01*
X-7850239Y10658467D01*
X-7850242Y10658465D01*
X-7858464Y10652971D01*
X-7899575Y10640500D01*
X-7905425Y10640500D01*
X-7946536Y10652971D01*
X-7954759Y10658465D01*
X-7954760Y10658466D01*
X-7954761Y10658467D01*
X-7954762Y10658467D01*
X-7998760Y10667219D01*
X-8027826Y10673000D01*
X-8177174Y10673000D01*
X-8201418Y10668178D01*
X-8250239Y10658467D01*
X-8250242Y10658465D01*
X-8258464Y10652971D01*
X-8299575Y10640500D01*
X-8305425Y10640500D01*
X-8346536Y10652971D01*
X-8354759Y10658465D01*
X-8354760Y10658466D01*
X-8354761Y10658467D01*
X-8354762Y10658467D01*
X-8398760Y10667219D01*
X-8427826Y10673000D01*
X-8577174Y10673000D01*
X-8601418Y10668178D01*
X-8650239Y10658467D01*
X-8650242Y10658465D01*
X-8658464Y10652971D01*
X-8699575Y10640500D01*
X-8705425Y10640500D01*
X-8746536Y10652971D01*
X-8754759Y10658465D01*
X-8754760Y10658466D01*
X-8754761Y10658467D01*
X-8754762Y10658467D01*
X-8798760Y10667219D01*
X-8827826Y10673000D01*
X-8977174Y10673000D01*
X-9001418Y10668178D01*
X-9050239Y10658467D01*
X-9050242Y10658465D01*
X-9058464Y10652971D01*
X-9099575Y10640500D01*
X-9105425Y10640500D01*
X-9146536Y10652971D01*
X-9154759Y10658465D01*
X-9154760Y10658466D01*
X-9154761Y10658467D01*
X-9154762Y10658467D01*
X-9198760Y10667219D01*
X-9227826Y10673000D01*
X-9377174Y10673000D01*
X-9401418Y10668178D01*
X-9450239Y10658467D01*
X-9450242Y10658465D01*
X-9458464Y10652971D01*
X-9499575Y10640500D01*
X-9505425Y10640500D01*
X-9546536Y10652971D01*
X-9554759Y10658465D01*
X-9554760Y10658466D01*
X-9554761Y10658467D01*
X-9554762Y10658467D01*
X-9598760Y10667219D01*
X-9627826Y10673000D01*
X-9777174Y10673000D01*
X-9807669Y10666934D01*
X-9850242Y10658466D01*
X-9858465Y10652971D01*
X-9899576Y10640500D01*
X-10305424Y10640500D01*
X-10346535Y10652971D01*
X-10354759Y10658466D01*
X-10379116Y10663311D01*
X-10427826Y10673000D01*
X-10577174Y10673000D01*
X-10601418Y10668178D01*
X-10650239Y10658467D01*
X-10650242Y10658465D01*
X-10658464Y10652971D01*
X-10699575Y10640500D01*
X-10705425Y10640500D01*
X-10746536Y10652971D01*
X-10754759Y10658465D01*
X-10754760Y10658466D01*
X-10754761Y10658467D01*
X-10754762Y10658467D01*
X-10798760Y10667219D01*
X-10827826Y10673000D01*
X-10977174Y10673000D01*
X-11001418Y10668178D01*
X-11050239Y10658467D01*
X-11050242Y10658465D01*
X-11058464Y10652971D01*
X-11099575Y10640500D01*
X-11105425Y10640500D01*
X-11146536Y10652971D01*
X-11154759Y10658465D01*
X-11154760Y10658466D01*
X-11154761Y10658467D01*
X-11154762Y10658467D01*
X-11198760Y10667219D01*
X-11227826Y10673000D01*
X-11377174Y10673000D01*
X-11401418Y10668178D01*
X-11450239Y10658467D01*
X-11450242Y10658465D01*
X-11458464Y10652971D01*
X-11499575Y10640500D01*
X-11505425Y10640500D01*
X-11546536Y10652971D01*
X-11554759Y10658465D01*
X-11554760Y10658466D01*
X-11554761Y10658467D01*
X-11554762Y10658467D01*
X-11598760Y10667219D01*
X-11627826Y10673000D01*
X-11777174Y10673000D01*
X-11816402Y10665198D01*
X-11866431Y10672897D01*
X-11899807Y10710955D01*
X-11904838Y10737775D01*
X-11904838Y10776271D01*
X-11903416Y10790708D01*
X-11902000Y10797827D01*
X-11902000Y10947174D01*
X-11903416Y10954293D01*
X-11904838Y10968729D01*
X-11904838Y11176271D01*
X-11903416Y11190708D01*
X-11902000Y11197827D01*
X-11902000Y11347174D01*
X-11903416Y11354293D01*
X-11904838Y11368729D01*
X-11904838Y11576271D01*
X-11903416Y11590708D01*
X-11902000Y11597827D01*
X-11902000Y11747174D01*
X-11903416Y11754293D01*
X-11904838Y11768729D01*
X-11904838Y11976271D01*
X-11903416Y11990708D01*
X-11902000Y11997827D01*
X-11902000Y12147174D01*
X-11903416Y12154293D01*
X-11904838Y12168729D01*
X-11904838Y12376271D01*
X-11903416Y12390708D01*
X-11902000Y12397827D01*
X-11902000Y12445881D01*
X-11884687Y12493447D01*
X-11840850Y12518757D01*
X-11791000Y12509967D01*
G37*
%TD.AperFunction*%
%TA.AperFunction,Conductor*%
G36*
X-6331272Y16223187D02*
G01*
X-6305962Y16179350D01*
X-6304838Y16166500D01*
X-6304838Y12770622D01*
X-6322151Y12723056D01*
X-6365988Y12697746D01*
X-6404146Y12701084D01*
X-6438553Y12713607D01*
X-6508835Y12726000D01*
X-6508838Y12726000D01*
X-6511829Y12726000D01*
X-6559395Y12743313D01*
X-6567754Y12751540D01*
X-6568706Y12752639D01*
X-6568708Y12752641D01*
X-6568710Y12752643D01*
X-6577771Y12758466D01*
X-6595347Y12769762D01*
X-6626002Y12810042D01*
X-6629339Y12832011D01*
X-6629338Y12852974D01*
X-6629562Y12859754D01*
X-6630430Y12872879D01*
X-6653307Y12954415D01*
X-6676730Y12999288D01*
X-6705828Y13041300D01*
X-6780474Y13094140D01*
X-6780475Y13094141D01*
X-6780480Y13094143D01*
X-6785378Y13096166D01*
X-6822734Y13130324D01*
X-6831125Y13165490D01*
X-6830086Y13248327D01*
X-6800988Y15567799D01*
X-6801317Y15577403D01*
X-6802823Y15595970D01*
X-6829683Y15682102D01*
X-6854993Y15725939D01*
X-6854995Y15725942D01*
X-6885846Y15766672D01*
X-6885847Y15766673D01*
X-6885848Y15766674D01*
X-6962673Y15816293D01*
X-6962676Y15816294D01*
X-6962677Y15816295D01*
X-7010240Y15833607D01*
X-7080523Y15846000D01*
X-7080526Y15846000D01*
X-11255321Y15846000D01*
X-11255331Y15846000D01*
X-11255362Y15845999D01*
X-11264286Y15845609D01*
X-11264290Y15845609D01*
X-11281592Y15844095D01*
X-11281600Y15844093D01*
X-11366441Y15817343D01*
X-11366443Y15817342D01*
X-11410281Y15792031D01*
X-11451010Y15761181D01*
X-11451012Y15761179D01*
X-11451012Y15761178D01*
X-11473770Y15725942D01*
X-11500633Y15684350D01*
X-11500633Y15684349D01*
X-11517945Y15636787D01*
X-11530338Y15566504D01*
X-11530338Y13561266D01*
X-11547651Y13513700D01*
X-11575740Y13493015D01*
X-11595120Y13484895D01*
X-11636289Y13455433D01*
X-11686231Y13404453D01*
X-11692568Y13395203D01*
X-11701282Y13384709D01*
X-11710042Y13375949D01*
X-11710095Y13375893D01*
X-11713205Y13372644D01*
X-11719061Y13366252D01*
X-11760631Y13297735D01*
X-11760631Y13297734D01*
X-11761302Y13295889D01*
X-11761800Y13295297D01*
X-11762203Y13294455D01*
X-11762419Y13294559D01*
X-11793842Y13257114D01*
X-11843692Y13248327D01*
X-11887528Y13273639D01*
X-11904838Y13321202D01*
X-11904838Y13576271D01*
X-11903416Y13590708D01*
X-11902000Y13597827D01*
X-11902000Y13747174D01*
X-11903416Y13754293D01*
X-11904838Y13768729D01*
X-11904838Y13976271D01*
X-11903416Y13990708D01*
X-11902000Y13997827D01*
X-11902000Y14147174D01*
X-11903416Y14154293D01*
X-11904838Y14168729D01*
X-11904838Y14376271D01*
X-11903416Y14390708D01*
X-11902000Y14397827D01*
X-11902000Y14547174D01*
X-11903416Y14554293D01*
X-11904838Y14568729D01*
X-11904838Y14776271D01*
X-11903416Y14790708D01*
X-11902000Y14797827D01*
X-11902000Y14947174D01*
X-11903416Y14954293D01*
X-11904838Y14968729D01*
X-11904838Y15176271D01*
X-11903416Y15190708D01*
X-11902000Y15197827D01*
X-11902000Y15347174D01*
X-11903416Y15354293D01*
X-11904838Y15368729D01*
X-11904838Y15576271D01*
X-11903416Y15590708D01*
X-11902000Y15597827D01*
X-11902000Y15747174D01*
X-11903416Y15754293D01*
X-11904838Y15768729D01*
X-11904838Y15976271D01*
X-11903416Y15990708D01*
X-11902000Y15997827D01*
X-11902000Y16147171D01*
X-11902000Y16147172D01*
X-11902000Y16147174D01*
X-11902973Y16152064D01*
X-11895274Y16202092D01*
X-11857217Y16235468D01*
X-11830395Y16240500D01*
X-6378838Y16240500D01*
X-6331272Y16223187D01*
G37*
%TD.AperFunction*%
%TD*%
%TA.AperFunction,Conductor*%
%TO.N,+1V1*%
G36*
X-7032960Y15623187D02*
G01*
X-7007650Y15579350D01*
X-7006532Y15565572D01*
X-7039605Y12929214D01*
X-7039605Y12929213D01*
X-6996868Y12927395D01*
X-6905692Y12923515D01*
X-6858905Y12904196D01*
X-6835482Y12859323D01*
X-6834838Y12849582D01*
X-6834838Y12520500D01*
X-6508838Y12520500D01*
X-6461272Y12503187D01*
X-6435962Y12459350D01*
X-6434838Y12446500D01*
X-6434838Y11633683D01*
X-6452151Y11586117D01*
X-6478949Y11565988D01*
X-6486978Y11562443D01*
X-6503266Y11557400D01*
X-6505274Y11557024D01*
X-6515769Y11555062D01*
X-6515774Y11555060D01*
X-6543608Y11537827D01*
X-6548142Y11535437D01*
X-6567681Y11526808D01*
X-6597577Y11520500D01*
X-7360838Y11520500D01*
X-7408404Y11537813D01*
X-7433714Y11581650D01*
X-7434838Y11594500D01*
X-7434838Y11710314D01*
X-7417525Y11757880D01*
X-7413164Y11762640D01*
X-7413164Y11762641D01*
X-7359949Y11815855D01*
X-7308606Y11925961D01*
X-7302000Y11976137D01*
X-7302001Y14968862D01*
X-7308606Y15019039D01*
X-7359949Y15129145D01*
X-7445855Y15215051D01*
X-7445857Y15215053D01*
X-7555961Y15266394D01*
X-7555963Y15266395D01*
X-7592927Y15271261D01*
X-7606137Y15273000D01*
X-7606139Y15273000D01*
X-10598861Y15273000D01*
X-10649039Y15266394D01*
X-10649041Y15266394D01*
X-10759146Y15215051D01*
X-10845053Y15129144D01*
X-10896394Y15019040D01*
X-10896395Y15019038D01*
X-10902131Y14975468D01*
X-10903000Y14968863D01*
X-10903000Y13495919D01*
X-10902999Y12594500D01*
X-10920312Y12546934D01*
X-10964149Y12521624D01*
X-10976999Y12520500D01*
X-11510838Y12520500D01*
X-11558404Y12537813D01*
X-11583714Y12581650D01*
X-11584838Y12594500D01*
X-11584838Y13179879D01*
X-11567525Y13227445D01*
X-11563183Y13232185D01*
X-11537664Y13257703D01*
X-11516691Y13288321D01*
X-11475529Y13317778D01*
X-11455642Y13320500D01*
X-11324838Y13320500D01*
X-11324838Y15566500D01*
X-11307525Y15614066D01*
X-11263688Y15639376D01*
X-11250838Y15640500D01*
X-7080526Y15640500D01*
X-7032960Y15623187D01*
G37*
%TD.AperFunction*%
%TD*%
%TA.AperFunction,Conductor*%
%TO.N,GND*%
G36*
X-12280536Y8776220D02*
G01*
X-12242193Y8750500D01*
X-11333838Y8750500D01*
X-11266799Y8730815D01*
X-11221044Y8678011D01*
X-11209838Y8626500D01*
X-11209838Y7695997D01*
X-11063643Y7738469D01*
X-10924464Y7820779D01*
X-10924459Y7820783D01*
X-10831505Y7913737D01*
X-10770182Y7947222D01*
X-10724428Y7948530D01*
X-10670573Y7940000D01*
X-10329104Y7940001D01*
X-10329099Y7940001D01*
X-10329099Y7940002D01*
X-10275251Y7948530D01*
X-10237668Y7954482D01*
X-10237667Y7954482D01*
X-10237666Y7954483D01*
X-10237663Y7954483D01*
X-10127447Y8010641D01*
X-10039979Y8098109D01*
X-9983821Y8208325D01*
X-9983821Y8208327D01*
X-9983820Y8208328D01*
X-9983820Y8208329D01*
X-9977141Y8250500D01*
X-9969338Y8299765D01*
X-9969339Y8483958D01*
X-9949655Y8550997D01*
X-9933025Y8571634D01*
X-9889457Y8615202D01*
X-9869606Y8631322D01*
X-9861831Y8636401D01*
X-9841636Y8662350D01*
X-9836558Y8668101D01*
X-9834125Y8670532D01*
X-9834120Y8670541D01*
X-9830817Y8674439D01*
X-9830493Y8674164D01*
X-9830477Y8674179D01*
X-9830296Y8673998D01*
X-9829520Y8673341D01*
X-9780468Y8711832D01*
X-9710908Y8718400D01*
X-9648839Y8686319D01*
X-9613968Y8625774D01*
X-9610503Y8596666D01*
X-9610503Y8580184D01*
X-9610500Y8580156D01*
X-9610500Y5737255D01*
X-9630185Y5670216D01*
X-9646819Y5649574D01*
X-10909682Y4386711D01*
X-10971005Y4353226D01*
X-10997363Y4350392D01*
X-13003541Y4350392D01*
X-13024617Y4343545D01*
X-13043526Y4339005D01*
X-13065413Y4335538D01*
X-13085156Y4325479D01*
X-13103120Y4318038D01*
X-13124198Y4311189D01*
X-13124203Y4311186D01*
X-13142131Y4298161D01*
X-13158711Y4288001D01*
X-13178448Y4277944D01*
X-13178449Y4277944D01*
X-13189732Y4266661D01*
X-13201014Y4255379D01*
X-13201015Y4255379D01*
X-16069574Y1386819D01*
X-16130897Y1353334D01*
X-16157255Y1350500D01*
X-16986000Y1350500D01*
X-17053039Y1370185D01*
X-17098794Y1422989D01*
X-17110000Y1474500D01*
X-17110000Y1670000D01*
X-17120000Y1680000D01*
X-20630000Y1680000D01*
X-20630000Y904000D01*
X-20649685Y836961D01*
X-20702489Y791206D01*
X-20719405Y784924D01*
X-20835194Y751285D01*
X-20835197Y751283D01*
X-20976553Y667686D01*
X-20976562Y667679D01*
X-21092679Y551562D01*
X-21092686Y551553D01*
X-21176282Y410199D01*
X-21222101Y252487D01*
X-21222296Y250002D01*
X-21222295Y250000D01*
X-20754000Y250000D01*
X-20686961Y230315D01*
X-20641206Y177511D01*
X-20630000Y126000D01*
X-20630000Y-126000D01*
X-20649685Y-193039D01*
X-20702489Y-238794D01*
X-20754000Y-250000D01*
X-21222295Y-250000D01*
X-21222296Y-250001D01*
X-21222101Y-252486D01*
X-21176282Y-410198D01*
X-21092686Y-551552D01*
X-21092679Y-551561D01*
X-20976562Y-667678D01*
X-20976553Y-667685D01*
X-20835198Y-751281D01*
X-20719406Y-784922D01*
X-20660520Y-822529D01*
X-20631313Y-886001D01*
X-20630000Y-903999D01*
X-20630000Y-1650000D01*
X-20560000Y-1720000D01*
X-20348647Y-1720000D01*
X-20281608Y-1739685D01*
X-20235853Y-1792489D01*
X-20225909Y-1861647D01*
X-20229571Y-1878595D01*
X-20247145Y-1939081D01*
X-20247146Y-1939087D01*
X-20248791Y-1959999D01*
X-20248790Y-1960000D01*
X-19344000Y-1960000D01*
X-19276961Y-1979685D01*
X-19231206Y-2032489D01*
X-19220000Y-2084000D01*
X-19220000Y-3014503D01*
X-19073805Y-2972031D01*
X-18934626Y-2889721D01*
X-18934621Y-2889717D01*
X-18841667Y-2796763D01*
X-18780344Y-2763278D01*
X-18734590Y-2761970D01*
X-18680735Y-2770500D01*
X-18567256Y-2770499D01*
X-18500217Y-2790183D01*
X-18479575Y-2806818D01*
X-17788050Y-3498342D01*
X-17698342Y-3588050D01*
X-17678605Y-3598106D01*
X-17662019Y-3608269D01*
X-17644090Y-3621296D01*
X-17644088Y-3621296D01*
X-17644087Y-3621297D01*
X-17623026Y-3628140D01*
X-17605047Y-3635586D01*
X-17585304Y-3645646D01*
X-17563415Y-3649112D01*
X-17544499Y-3653653D01*
X-17523433Y-3660499D01*
X-17494076Y-3660499D01*
X-17494052Y-3660500D01*
X-17491519Y-3660500D01*
X448725Y-3660500D01*
X468120Y-3662026D01*
X490000Y-3665492D01*
X511879Y-3662026D01*
X531275Y-3660500D01*
X19508725Y-3660500D01*
X19528120Y-3662026D01*
X19550000Y-3665492D01*
X19571879Y-3662026D01*
X19591275Y-3660500D01*
X25403431Y-3660500D01*
X25403433Y-3660500D01*
X25424501Y-3653654D01*
X25443417Y-3649112D01*
X25465304Y-3645646D01*
X25485044Y-3635586D01*
X25503011Y-3628144D01*
X25524090Y-3621296D01*
X25542026Y-3608263D01*
X25558588Y-3598114D01*
X25578342Y-3588050D01*
X25593834Y-3572557D01*
X25593841Y-3572552D01*
X26804552Y-2361841D01*
X26804557Y-2361834D01*
X26820050Y-2346342D01*
X26830114Y-2326588D01*
X26840263Y-2310026D01*
X26853296Y-2292090D01*
X26860144Y-2271011D01*
X26867586Y-2253044D01*
X26877646Y-2233304D01*
X26881112Y-2211417D01*
X26885655Y-2192498D01*
X26892500Y-2171433D01*
X26892500Y-2044567D01*
X26892500Y-2044566D01*
X26892500Y-1088043D01*
X26912185Y-1021005D01*
X26964989Y-975250D01*
X27034147Y-965306D01*
X27097703Y-994331D01*
X27135477Y-1053109D01*
X27135980Y-1054871D01*
X27160003Y-1141395D01*
X27160005Y-1141402D01*
X27286452Y-1458762D01*
X27286457Y-1458772D01*
X27440931Y-1750141D01*
X27446483Y-1760612D01*
X27446484Y-1760615D01*
X27638196Y-2043368D01*
X27638204Y-2043378D01*
X27779735Y-2210000D01*
X27854212Y-2297681D01*
X27859366Y-2303748D01*
X27859371Y-2303753D01*
X27883497Y-2326606D01*
X28107386Y-2538686D01*
X28107393Y-2538691D01*
X28107395Y-2538693D01*
X28138280Y-2562171D01*
X28379356Y-2745432D01*
X28672084Y-2921560D01*
X28672089Y-2921562D01*
X28672092Y-2921564D01*
X28982128Y-3065002D01*
X28982139Y-3065007D01*
X29305886Y-3174090D01*
X29639529Y-3247530D01*
X29979156Y-3284467D01*
X30093798Y-3284467D01*
X32771879Y-3284467D01*
X32771929Y-3284470D01*
X32781892Y-3284469D01*
X32781894Y-3284470D01*
X32819098Y-3284467D01*
X32839727Y-3286195D01*
X32874353Y-3292038D01*
X32913345Y-3305588D01*
X32934885Y-3317402D01*
X32967270Y-3343001D01*
X32983740Y-3361237D01*
X33005925Y-3396051D01*
X33015493Y-3418676D01*
X33025019Y-3458841D01*
X33027241Y-3492647D01*
X33026655Y-3515299D01*
X32906253Y-4536509D01*
X32905996Y-4538435D01*
X32752139Y-5565473D01*
X32751821Y-5567390D01*
X32565859Y-6589098D01*
X32565481Y-6591004D01*
X32347601Y-7606358D01*
X32347164Y-7608252D01*
X32097571Y-8616291D01*
X32097074Y-8618169D01*
X31816020Y-9617889D01*
X31815465Y-9619751D01*
X31503222Y-10610177D01*
X31502609Y-10612021D01*
X31159473Y-11592207D01*
X31158802Y-11594031D01*
X30866708Y-12351429D01*
X30785148Y-12562912D01*
X30784420Y-12564713D01*
X30380565Y-13521472D01*
X30379781Y-13523250D01*
X29946154Y-14466863D01*
X29945315Y-14468616D01*
X29482321Y-15398201D01*
X29481427Y-15399927D01*
X28989560Y-16314498D01*
X28988613Y-16316195D01*
X28493472Y-17171472D01*
X28473839Y-17197026D01*
X17063064Y-28607801D01*
X17037485Y-28627448D01*
X16169157Y-29129882D01*
X16167436Y-29130841D01*
X15239295Y-29629199D01*
X15237544Y-29630104D01*
X14294083Y-30098680D01*
X14292304Y-30099529D01*
X13334410Y-30537887D01*
X13332605Y-30538679D01*
X12887235Y-30725608D01*
X12361269Y-30946366D01*
X12359452Y-30947095D01*
X11375602Y-31323718D01*
X11373760Y-31324390D01*
X11196449Y-31385879D01*
X10378516Y-31669523D01*
X10376644Y-31670139D01*
X9370845Y-31983492D01*
X9368954Y-31984048D01*
X8353778Y-32265250D01*
X8351870Y-32265746D01*
X7328237Y-32514547D01*
X7326314Y-32514982D01*
X6295275Y-32731122D01*
X6293340Y-32731496D01*
X5255987Y-32914749D01*
X5254040Y-32915061D01*
X4211369Y-33065250D01*
X4209414Y-33065500D01*
X3162514Y-33182470D01*
X3160552Y-33182657D01*
X2110411Y-33266296D01*
X2108444Y-33266421D01*
X1056215Y-33316635D01*
X1054255Y-33316697D01*
X773701Y-33321157D01*
X634Y-33333446D01*
X-1337Y-33333446D01*
X-560472Y-33324557D01*
X-1054302Y-33316706D01*
X-1056261Y-33316644D01*
X-2108475Y-33266429D01*
X-2110442Y-33266304D01*
X-3160569Y-33182665D01*
X-3162531Y-33182478D01*
X-4209418Y-33065510D01*
X-4211373Y-33065260D01*
X-5254029Y-32915073D01*
X-5255976Y-32914761D01*
X-5256044Y-32914749D01*
X-6293336Y-32731507D01*
X-6295257Y-32731136D01*
X-7326270Y-32515002D01*
X-7328192Y-32514567D01*
X-8351819Y-32265770D01*
X-8353726Y-32265274D01*
X-9181670Y-32035936D01*
X-9368901Y-31984074D01*
X-9370783Y-31983521D01*
X-10376541Y-31670185D01*
X-10378413Y-31669569D01*
X-11373691Y-31324427D01*
X-11375543Y-31323751D01*
X-11980178Y-31092295D01*
X-12359372Y-30947138D01*
X-12361148Y-30946426D01*
X-13332530Y-30538724D01*
X-13334301Y-30537947D01*
X-14292183Y-30099598D01*
X-14293962Y-30098750D01*
X-15237425Y-29630177D01*
X-15239176Y-29629272D01*
X-16167282Y-29130940D01*
X-16169004Y-29129980D01*
X-17037591Y-28627402D01*
X-17063170Y-28607755D01*
X-20595552Y-25075373D01*
X-2254277Y-25075373D01*
X-2224119Y-25375160D01*
X-2224118Y-25375162D01*
X-2154272Y-25668252D01*
X-2154267Y-25668266D01*
X-2045980Y-25949427D01*
X-2045976Y-25949436D01*
X-1901175Y-26213665D01*
X-1901171Y-26213671D01*
X-1722449Y-26456234D01*
X-1722446Y-26456238D01*
X-1722439Y-26456245D01*
X-1512981Y-26672823D01*
X-1276522Y-26859553D01*
X-1276520Y-26859554D01*
X-1276515Y-26859558D01*
X-1017270Y-27013109D01*
X-739872Y-27130736D01*
X-449271Y-27210340D01*
X-150653Y-27250500D01*
X-150649Y-27250500D01*
X75252Y-27250500D01*
X239164Y-27239526D01*
X300634Y-27235412D01*
X595903Y-27175396D01*
X880537Y-27076560D01*
X1149459Y-26940668D01*
X1397869Y-26770144D01*
X1621333Y-26568032D01*
X1815865Y-26337939D01*
X1977993Y-26083970D01*
X2104823Y-25810658D01*
X2194093Y-25522879D01*
X2244209Y-25225770D01*
X2254277Y-24924631D01*
X2224118Y-24624838D01*
X2154269Y-24331739D01*
X2045977Y-24050566D01*
X1901175Y-23786335D01*
X1722446Y-23543762D01*
X1512980Y-23327176D01*
X1389742Y-23229856D01*
X1276521Y-23140446D01*
X1276517Y-23140443D01*
X1276515Y-23140442D01*
X1017270Y-22986891D01*
X739872Y-22869264D01*
X739863Y-22869261D01*
X449272Y-22789660D01*
X374616Y-22779620D01*
X150653Y-22749500D01*
X-75244Y-22749500D01*
X-75252Y-22749500D01*
X-300632Y-22764587D01*
X-300641Y-22764589D01*
X-595906Y-22824604D01*
X-880536Y-22923439D01*
X-880541Y-22923441D01*
X-1149454Y-23059328D01*
X-1397875Y-23229860D01*
X-1621335Y-23431969D01*
X-1815868Y-23662064D01*
X-1977994Y-23916030D01*
X-1977995Y-23916032D01*
X-2104819Y-24189333D01*
X-2104823Y-24189342D01*
X-2104824Y-24189346D01*
X-2194093Y-24477118D01*
X-2244209Y-24774230D01*
X-2254277Y-25075373D01*
X-20595552Y-25075373D01*
X-28473900Y-17197025D01*
X-28493534Y-17171470D01*
X-28531742Y-17105471D01*
X-28737238Y-16750500D01*
X-28988787Y-16315979D01*
X-28989734Y-16314282D01*
X-29481637Y-15399631D01*
X-29482473Y-15398014D01*
X-29945472Y-14468399D01*
X-29946303Y-14466662D01*
X-30176500Y-13965722D01*
X-30379943Y-13523002D01*
X-30380718Y-13521242D01*
X-30402119Y-13470540D01*
X-30784566Y-12564479D01*
X-30785276Y-12562718D01*
X-30803971Y-12514242D01*
X-30954701Y-12123389D01*
X-31158943Y-11593777D01*
X-31159614Y-11591953D01*
X-31502732Y-10611792D01*
X-31503345Y-10609948D01*
X-31601713Y-10297919D01*
X-31815582Y-9619518D01*
X-31816128Y-9617685D01*
X-32097183Y-8617933D01*
X-32097679Y-8616055D01*
X-32347270Y-7607983D01*
X-32347707Y-7606089D01*
X-32429211Y-7226252D01*
X-32565584Y-6590708D01*
X-32565945Y-6588889D01*
X-32751908Y-5567123D01*
X-32752221Y-5565234D01*
X-32815587Y-5142222D01*
X-32906077Y-4538136D01*
X-32906323Y-4536300D01*
X-33026664Y-3515534D01*
X-33027250Y-3492884D01*
X-33025013Y-3458846D01*
X-33015488Y-3418682D01*
X-33014593Y-3416564D01*
X-33005921Y-3396058D01*
X-32983741Y-3361248D01*
X-32967273Y-3343015D01*
X-32934895Y-3317417D01*
X-32913359Y-3305602D01*
X-32874370Y-3292050D01*
X-32852202Y-3288306D01*
X-32839714Y-3286198D01*
X-32819067Y-3284467D01*
X-30201397Y-3284467D01*
X-30201377Y-3284473D01*
X-30150029Y-3284473D01*
X-29979220Y-3284473D01*
X-29979214Y-3284473D01*
X-29639586Y-3247536D01*
X-29305942Y-3174095D01*
X-28982195Y-3065012D01*
X-28672140Y-2921565D01*
X-28508624Y-2823181D01*
X-28379426Y-2745446D01*
X-28379421Y-2745442D01*
X-28379422Y-2745442D01*
X-28379411Y-2745436D01*
X-28107442Y-2538690D01*
X-27859419Y-2303751D01*
X-27638253Y-2043373D01*
X-27446534Y-1760609D01*
X-27286511Y-1458774D01*
X-27169693Y-1165581D01*
X-27126593Y-1110590D01*
X-27060604Y-1087629D01*
X-26992677Y-1103990D01*
X-26944378Y-1154478D01*
X-26930500Y-1211479D01*
X-26930500Y-13370788D01*
X-26933139Y-13396232D01*
X-26935043Y-13405311D01*
X-26935043Y-13405317D01*
X-26930977Y-13437937D01*
X-26930500Y-13445614D01*
X-26930500Y-13449040D01*
X-26927768Y-13465420D01*
X-26927124Y-13469276D01*
X-26926755Y-13471808D01*
X-26920573Y-13521393D01*
X-26918480Y-13528426D01*
X-26916093Y-13535379D01*
X-26916092Y-13535381D01*
X-26908392Y-13549609D01*
X-26892309Y-13579330D01*
X-26891136Y-13581608D01*
X-26869198Y-13626484D01*
X-26869196Y-13626486D01*
X-26864929Y-13632464D01*
X-26860418Y-13638259D01*
X-26823659Y-13672098D01*
X-26821810Y-13673872D01*
X-25182640Y-15313041D01*
X-25166516Y-15332896D01*
X-25161437Y-15340669D01*
X-25135491Y-15360863D01*
X-25129728Y-15365953D01*
X-25127306Y-15368375D01*
X-25110609Y-15380296D01*
X-25108571Y-15381816D01*
X-25069126Y-15412517D01*
X-25069125Y-15412517D01*
X-25069124Y-15412518D01*
X-25062658Y-15416017D01*
X-25056067Y-15419240D01*
X-25008178Y-15433497D01*
X-25005758Y-15434272D01*
X-24958488Y-15450500D01*
X-24958483Y-15450500D01*
X-24951232Y-15451710D01*
X-24943954Y-15452617D01*
X-24894038Y-15450552D01*
X-24891479Y-15450500D01*
X-16904230Y-15450500D01*
X-16837191Y-15470185D01*
X-16816549Y-15486819D01*
X-14690324Y-17613044D01*
X-14674200Y-17632899D01*
X-14669123Y-17640669D01*
X-14643178Y-17660862D01*
X-14637426Y-17665942D01*
X-14634993Y-17668375D01*
X-14618251Y-17680328D01*
X-14616252Y-17681819D01*
X-14576811Y-17712518D01*
X-14570365Y-17716006D01*
X-14563755Y-17719237D01*
X-14563752Y-17719239D01*
X-14515866Y-17733494D01*
X-14513484Y-17734257D01*
X-14466174Y-17750500D01*
X-14466170Y-17750500D01*
X-14458926Y-17751709D01*
X-14451640Y-17752617D01*
X-14401736Y-17750552D01*
X-14399175Y-17750500D01*
X-12663564Y-17750500D01*
X-12596525Y-17770185D01*
X-12561513Y-17804062D01*
X-12540485Y-17834528D01*
X-12540484Y-17834529D01*
X-12540483Y-17834530D01*
X-12422240Y-17939283D01*
X-12422238Y-17939284D01*
X-12282366Y-18012696D01*
X-12128986Y-18050500D01*
X-12128985Y-18050500D01*
X-11971015Y-18050500D01*
X-11817635Y-18012696D01*
X-11744913Y-17974528D01*
X-11677760Y-17939283D01*
X-11559517Y-17834530D01*
X-11469780Y-17704523D01*
X-11413763Y-17556818D01*
X-11394722Y-17400000D01*
X-11413763Y-17243182D01*
X-11469780Y-17095477D01*
X-11559517Y-16965470D01*
X-11559519Y-16965467D01*
X-11564491Y-16959855D01*
X-11562963Y-16958500D01*
X-11594560Y-16908129D01*
X-11593794Y-16838264D01*
X-11555378Y-16779903D01*
X-11491509Y-16751576D01*
X-11475207Y-16750500D01*
X-1446544Y-16750500D01*
X-1379505Y-16770185D01*
X-1358863Y-16786819D01*
X-790691Y-17354991D01*
X-757206Y-17416314D01*
X-755276Y-17457617D01*
X-765278Y-17539999D01*
X-765278Y-17540000D01*
X-746238Y-17696818D01*
X-709182Y-17794524D01*
X-690220Y-17844523D01*
X-600483Y-17974530D01*
X-482240Y-18079283D01*
X-482238Y-18079284D01*
X-342366Y-18152696D01*
X-188986Y-18190500D01*
X-188985Y-18190500D01*
X-31015Y-18190500D01*
X122365Y-18152696D01*
X145602Y-18140500D01*
X262240Y-18079283D01*
X380483Y-17974530D01*
X470220Y-17844523D01*
X526237Y-17696818D01*
X545278Y-17540000D01*
X526237Y-17383182D01*
X512774Y-17347684D01*
X473142Y-17243182D01*
X470220Y-17235477D01*
X380483Y-17105470D01*
X262240Y-17000717D01*
X262238Y-17000716D01*
X262237Y-17000715D01*
X122365Y-16927303D01*
X-31014Y-16889500D01*
X-31015Y-16889500D01*
X-188985Y-16889500D01*
X-188987Y-16889500D01*
X-196428Y-16890404D01*
X-196816Y-16887209D01*
X-252338Y-16884476D01*
X-299276Y-16855042D01*
X-702137Y-16452181D01*
X-735622Y-16390858D01*
X-730638Y-16321166D01*
X-688766Y-16265233D01*
X-623302Y-16240816D01*
X-614456Y-16240500D01*
X10405956Y-16240500D01*
X10472995Y-16260185D01*
X10493637Y-16276819D01*
X11521809Y-17304991D01*
X11555294Y-17366314D01*
X11557224Y-17407617D01*
X11547222Y-17489999D01*
X11547222Y-17490000D01*
X11566262Y-17646818D01*
X11605584Y-17750499D01*
X11622280Y-17794523D01*
X11712017Y-17924530D01*
X11830260Y-18029283D01*
X11830262Y-18029284D01*
X11970134Y-18102696D01*
X12123514Y-18140500D01*
X12123515Y-18140500D01*
X12281485Y-18140500D01*
X12434865Y-18102696D01*
X12479474Y-18079283D01*
X12574740Y-18029283D01*
X12692983Y-17924530D01*
X12782720Y-17794523D01*
X12838737Y-17646818D01*
X12857778Y-17490000D01*
X12838737Y-17333182D01*
X12782720Y-17185477D01*
X12692983Y-17055470D01*
X12574740Y-16950717D01*
X12574738Y-16950716D01*
X12574737Y-16950715D01*
X12434865Y-16877303D01*
X12281486Y-16839500D01*
X12281485Y-16839500D01*
X12123515Y-16839500D01*
X12123514Y-16839500D01*
X12116068Y-16840404D01*
X12115677Y-16837188D01*
X12060282Y-16834519D01*
X12013223Y-16805042D01*
X11468366Y-16260185D01*
X10885137Y-15676955D01*
X10869011Y-15657098D01*
X10863937Y-15649331D01*
X10837987Y-15629133D01*
X10832241Y-15624059D01*
X10829807Y-15621625D01*
X10813109Y-15609703D01*
X10811055Y-15608171D01*
X10785775Y-15588496D01*
X10771626Y-15577483D01*
X10771624Y-15577482D01*
X10765148Y-15573977D01*
X10758566Y-15570759D01*
X10710682Y-15556503D01*
X10708243Y-15555722D01*
X10660984Y-15539498D01*
X10653769Y-15538294D01*
X10646453Y-15537382D01*
X10597639Y-15539401D01*
X10596549Y-15539447D01*
X10593989Y-15539500D01*
X-14589770Y-15539500D01*
X-14656809Y-15519815D01*
X-14677451Y-15503181D01*
X-16093676Y-14086958D01*
X-16109802Y-14067101D01*
X-16114878Y-14059331D01*
X-16114879Y-14059330D01*
X-16114880Y-14059329D01*
X-16140823Y-14039137D01*
X-16146587Y-14034046D01*
X-16149008Y-14031625D01*
X-16149010Y-14031624D01*
X-16165716Y-14019696D01*
X-16167747Y-14018181D01*
X-16193001Y-13998526D01*
X-16207191Y-13987481D01*
X-16213657Y-13983982D01*
X-16220249Y-13980759D01*
X-16268133Y-13966503D01*
X-16270572Y-13965722D01*
X-16317831Y-13949498D01*
X-16325046Y-13948294D01*
X-16332362Y-13947382D01*
X-16381176Y-13949401D01*
X-16382266Y-13949447D01*
X-16384826Y-13949500D01*
X-24372085Y-13949500D01*
X-24439124Y-13929815D01*
X-24459766Y-13913181D01*
X-24752755Y-13620192D01*
X-13450500Y-13620192D01*
X-13448574Y-13631732D01*
X-13410934Y-13857300D01*
X-13332884Y-14084652D01*
X-13332882Y-14084657D01*
X-13218471Y-14296069D01*
X-13218467Y-14296075D01*
X-13070831Y-14485757D01*
X-13070829Y-14485759D01*
X-13070825Y-14485764D01*
X-12893969Y-14648571D01*
X-12692728Y-14780049D01*
X-12472591Y-14876610D01*
X-12239563Y-14935620D01*
X-12059990Y-14950500D01*
X-12059986Y-14950500D01*
X-11940014Y-14950500D01*
X-11940010Y-14950500D01*
X-11760437Y-14935620D01*
X-11527409Y-14876610D01*
X-11307272Y-14780049D01*
X-11106031Y-14648571D01*
X-10929175Y-14485764D01*
X-10781528Y-14296067D01*
X-10667118Y-14084656D01*
X-10589066Y-13857297D01*
X-10549500Y-13620192D01*
X10549500Y-13620192D01*
X10551426Y-13631732D01*
X10589066Y-13857300D01*
X10667116Y-14084652D01*
X10667118Y-14084657D01*
X10781529Y-14296069D01*
X10781533Y-14296075D01*
X10929169Y-14485757D01*
X10929171Y-14485759D01*
X10929175Y-14485764D01*
X11106031Y-14648571D01*
X11307272Y-14780049D01*
X11527409Y-14876610D01*
X11760437Y-14935620D01*
X11940010Y-14950500D01*
X11940014Y-14950500D01*
X12059986Y-14950500D01*
X12059990Y-14950500D01*
X12239563Y-14935620D01*
X12472591Y-14876610D01*
X12692728Y-14780049D01*
X12893969Y-14648571D01*
X13070825Y-14485764D01*
X13218472Y-14296067D01*
X13332882Y-14084656D01*
X13410934Y-13857297D01*
X13450500Y-13620192D01*
X13450500Y-13379808D01*
X13410934Y-13142703D01*
X13332882Y-12915344D01*
X13218472Y-12703933D01*
X13218470Y-12703930D01*
X13218466Y-12703924D01*
X13070830Y-12514242D01*
X13070827Y-12514239D01*
X13070825Y-12514236D01*
X12893969Y-12351429D01*
X12893966Y-12351427D01*
X12692729Y-12219951D01*
X12564757Y-12163817D01*
X12472591Y-12123390D01*
X12472589Y-12123389D01*
X12239559Y-12064379D01*
X12060000Y-12049500D01*
X12059990Y-12049500D01*
X11940010Y-12049500D01*
X11939999Y-12049500D01*
X11760440Y-12064379D01*
X11527410Y-12123389D01*
X11307270Y-12219951D01*
X11106033Y-12351427D01*
X11106029Y-12351430D01*
X10929172Y-12514239D01*
X10929169Y-12514242D01*
X10781533Y-12703924D01*
X10781529Y-12703930D01*
X10667118Y-12915342D01*
X10667116Y-12915347D01*
X10589066Y-13142699D01*
X10566150Y-13280030D01*
X10549500Y-13379808D01*
X10549500Y-13620192D01*
X-10549500Y-13620192D01*
X-10549500Y-13379808D01*
X-10589066Y-13142703D01*
X-10667118Y-12915344D01*
X-10781528Y-12703933D01*
X-10781530Y-12703930D01*
X-10781534Y-12703924D01*
X-10929170Y-12514242D01*
X-10929173Y-12514239D01*
X-10929175Y-12514236D01*
X-11106031Y-12351429D01*
X-11106034Y-12351427D01*
X-11307271Y-12219951D01*
X-11435243Y-12163817D01*
X-11527409Y-12123390D01*
X-11527411Y-12123389D01*
X-11760441Y-12064379D01*
X-11940000Y-12049500D01*
X-11940010Y-12049500D01*
X-12059990Y-12049500D01*
X-12060001Y-12049500D01*
X-12239560Y-12064379D01*
X-12472590Y-12123389D01*
X-12692730Y-12219951D01*
X-12893967Y-12351427D01*
X-12893971Y-12351430D01*
X-13070828Y-12514239D01*
X-13070831Y-12514242D01*
X-13218467Y-12703924D01*
X-13218471Y-12703930D01*
X-13332882Y-12915342D01*
X-13332884Y-12915347D01*
X-13410934Y-13142699D01*
X-13433850Y-13280030D01*
X-13450500Y-13379808D01*
X-13450500Y-13620192D01*
X-24752755Y-13620192D01*
X-25393181Y-12979765D01*
X-25426666Y-12918442D01*
X-25429500Y-12892084D01*
X-25429500Y-2460000D01*
X-20248790Y-2460000D01*
X-20247146Y-2480910D01*
X-20202032Y-2636195D01*
X-20119722Y-2775374D01*
X-20119715Y-2775383D01*
X-20005384Y-2889714D01*
X-20005375Y-2889721D01*
X-19866196Y-2972031D01*
X-19720000Y-3014504D01*
X-19720000Y-2460000D01*
X-20248790Y-2460000D01*
X-25429500Y-2460000D01*
X-25429500Y-48390D01*
X-25084176Y-48390D01*
X-25054905Y-239466D01*
X-25054902Y-239478D01*
X-24987766Y-420748D01*
X-24987762Y-420757D01*
X-24885512Y-584803D01*
X-24885511Y-584804D01*
X-24885509Y-584807D01*
X-24752323Y-724919D01*
X-24593658Y-835353D01*
X-24416012Y-911587D01*
X-24226656Y-950500D01*
X-24081793Y-950500D01*
X-23937678Y-935845D01*
X-23753241Y-877977D01*
X-23753240Y-877976D01*
X-23753232Y-877974D01*
X-23584209Y-784159D01*
X-23437532Y-658240D01*
X-23319204Y-505373D01*
X-23234070Y-331816D01*
X-23185615Y-144674D01*
X-23175824Y48390D01*
X-23205097Y239474D01*
X-23272236Y420753D01*
X-23324980Y505373D01*
X-23374489Y584804D01*
X-23374490Y584805D01*
X-23374491Y584807D01*
X-23507677Y724919D01*
X-23511531Y727602D01*
X-23666343Y835354D01*
X-23843988Y911587D01*
X-24033344Y950500D01*
X-24178206Y950500D01*
X-24178207Y950500D01*
X-24322323Y935846D01*
X-24506760Y877978D01*
X-24506775Y877971D01*
X-24675789Y784161D01*
X-24675794Y784158D01*
X-24822467Y658242D01*
X-24822469Y658241D01*
X-24940795Y505376D01*
X-24940797Y505372D01*
X-25025932Y331813D01*
X-25074384Y144683D01*
X-25074385Y144677D01*
X-25084176Y-48390D01*
X-25429500Y-48390D01*
X-25429500Y3023770D01*
X-25409815Y3090809D01*
X-25393181Y3111451D01*
X-21971451Y6533181D01*
X-21910128Y6566666D01*
X-21883770Y6569500D01*
X-14784161Y6569500D01*
X-14758716Y6566862D01*
X-14749635Y6564957D01*
X-14733945Y6566913D01*
X-14717011Y6569023D01*
X-14709335Y6569500D01*
X-14705915Y6569500D01*
X-14705910Y6569500D01*
X-14696647Y6571046D01*
X-14685672Y6572877D01*
X-14683139Y6573247D01*
X-14633557Y6579427D01*
X-14633551Y6579431D01*
X-14626499Y6581530D01*
X-14619573Y6583908D01*
X-14619569Y6583908D01*
X-14590684Y6599541D01*
X-14575621Y6607692D01*
X-14573360Y6608857D01*
X-14528466Y6630802D01*
X-14528463Y6630806D01*
X-14522497Y6635065D01*
X-14516696Y6639581D01*
X-14516692Y6639582D01*
X-14482849Y6676347D01*
X-14481124Y6678146D01*
X-12908770Y8250500D01*
X-12238628Y8250500D01*
X-12236984Y8229590D01*
X-12191870Y8074305D01*
X-12109560Y7935126D01*
X-12109553Y7935117D01*
X-11995222Y7820786D01*
X-11995213Y7820779D01*
X-11856034Y7738469D01*
X-11709838Y7695996D01*
X-11709838Y8250500D01*
X-12238628Y8250500D01*
X-12908770Y8250500D01*
X-12411549Y8747721D01*
X-12350228Y8781204D01*
X-12280536Y8776220D01*
G37*
%TD.AperFunction*%
%TA.AperFunction,Conductor*%
G36*
X-8641166Y8499928D02*
G01*
X-8585233Y8458056D01*
X-8560816Y8392592D01*
X-8560500Y8383746D01*
X-8560500Y2866571D01*
X-8560499Y2866561D01*
X-8553654Y2845493D01*
X-8549113Y2826582D01*
X-8545646Y2804696D01*
X-8545645Y2804693D01*
X-8535588Y2784955D01*
X-8528143Y2766982D01*
X-8521296Y2745910D01*
X-8508274Y2727986D01*
X-8498110Y2711400D01*
X-8488050Y2691658D01*
X-8467136Y2670744D01*
X-8467107Y2670713D01*
X-7938775Y2142381D01*
X-7938753Y2142361D01*
X-7918342Y2121950D01*
X-7898611Y2111897D01*
X-7882024Y2101734D01*
X-7864089Y2088703D01*
X-7843015Y2081856D01*
X-7825047Y2074414D01*
X-7805304Y2064354D01*
X-7783418Y2060888D01*
X-7764511Y2056349D01*
X-7743433Y2049500D01*
X-7711519Y2049500D01*
X62745Y2049500D01*
X129784Y2029815D01*
X150426Y2013181D01*
X241926Y1921681D01*
X275411Y1860358D01*
X270427Y1790666D01*
X228555Y1734733D01*
X163091Y1710316D01*
X154245Y1710000D01*
X-1690000Y1710000D01*
X-1690000Y872042D01*
X-1709685Y805003D01*
X-1762489Y759248D01*
X-1779402Y752966D01*
X-1785198Y751283D01*
X-1926553Y667686D01*
X-1926562Y667679D01*
X-2042679Y551562D01*
X-2042686Y551553D01*
X-2126282Y410199D01*
X-2172101Y252487D01*
X-2172296Y250002D01*
X-2172295Y250000D01*
X-1814000Y250000D01*
X-1746961Y230315D01*
X-1701206Y177511D01*
X-1690000Y126000D01*
X-1690000Y-126000D01*
X-1709685Y-193039D01*
X-1762489Y-238794D01*
X-1814000Y-250000D01*
X-2172295Y-250000D01*
X-2172296Y-250001D01*
X-2172101Y-252486D01*
X-2126282Y-410198D01*
X-2042686Y-551552D01*
X-2042679Y-551561D01*
X-1926562Y-667678D01*
X-1926553Y-667685D01*
X-1785199Y-751281D01*
X-1785196Y-751282D01*
X-1779408Y-752964D01*
X-1720521Y-790569D01*
X-1691313Y-854040D01*
X-1690000Y-872041D01*
X-1690000Y-1620000D01*
X-1620000Y-1690000D01*
X-1311216Y-1690000D01*
X-1244177Y-1709685D01*
X-1198422Y-1762489D01*
X-1188478Y-1831647D01*
X-1192139Y-1848595D01*
X-1227146Y-1969089D01*
X-1228791Y-1989999D01*
X-1228790Y-1990000D01*
X-324000Y-1990000D01*
X-256961Y-2009685D01*
X-211206Y-2062489D01*
X-200000Y-2114000D01*
X-200000Y-2366000D01*
X-219685Y-2433039D01*
X-272489Y-2478794D01*
X-324000Y-2490000D01*
X-1228790Y-2490000D01*
X-1227146Y-2510910D01*
X-1182032Y-2666195D01*
X-1178373Y-2672382D01*
X-1161193Y-2740106D01*
X-1183354Y-2806368D01*
X-1237821Y-2850130D01*
X-1285107Y-2859500D01*
X-17242746Y-2859500D01*
X-17309785Y-2839815D01*
X-17330427Y-2823181D01*
X-17855927Y-2297681D01*
X-17889412Y-2236358D01*
X-17884428Y-2166666D01*
X-17855928Y-2122319D01*
X-17807016Y-2073409D01*
X-17807016Y-2073408D01*
X-17799947Y-2066340D01*
X-17799943Y-2066333D01*
X-17784450Y-2050842D01*
X-17774386Y-2031088D01*
X-17764237Y-2014526D01*
X-17751204Y-1996590D01*
X-17744356Y-1975511D01*
X-17736911Y-1957540D01*
X-17726854Y-1937804D01*
X-17723388Y-1915917D01*
X-17718845Y-1896998D01*
X-17718843Y-1896992D01*
X-17712000Y-1875933D01*
X-17712000Y-1843999D01*
X-17692315Y-1776961D01*
X-17639511Y-1731206D01*
X-17588000Y-1720000D01*
X-17220000Y-1720000D01*
X-17110000Y-1610000D01*
X-17110000Y-48390D01*
X-14924176Y-48390D01*
X-14894905Y-239466D01*
X-14894902Y-239478D01*
X-14827766Y-420748D01*
X-14827762Y-420757D01*
X-14725512Y-584803D01*
X-14725511Y-584804D01*
X-14725509Y-584807D01*
X-14592323Y-724919D01*
X-14433658Y-835353D01*
X-14256012Y-911587D01*
X-14066656Y-950500D01*
X-13921793Y-950500D01*
X-13777678Y-935845D01*
X-13593241Y-877977D01*
X-13593240Y-877976D01*
X-13593232Y-877974D01*
X-13424209Y-784159D01*
X-13277532Y-658240D01*
X-13159204Y-505373D01*
X-13074070Y-331816D01*
X-13025615Y-144674D01*
X-13020732Y-48390D01*
X-6034176Y-48390D01*
X-6004905Y-239466D01*
X-6004902Y-239478D01*
X-5937766Y-420748D01*
X-5937762Y-420757D01*
X-5835512Y-584803D01*
X-5835511Y-584804D01*
X-5835509Y-584807D01*
X-5702323Y-724919D01*
X-5543658Y-835353D01*
X-5366012Y-911587D01*
X-5176656Y-950500D01*
X-5031793Y-950500D01*
X-4887678Y-935845D01*
X-4703241Y-877977D01*
X-4703240Y-877976D01*
X-4703232Y-877974D01*
X-4534209Y-784159D01*
X-4387532Y-658240D01*
X-4269204Y-505373D01*
X-4184070Y-331816D01*
X-4135615Y-144674D01*
X-4125824Y48390D01*
X-4155097Y239474D01*
X-4222236Y420753D01*
X-4274980Y505373D01*
X-4324489Y584804D01*
X-4324490Y584805D01*
X-4324491Y584807D01*
X-4457677Y724919D01*
X-4461531Y727602D01*
X-4616343Y835354D01*
X-4793988Y911587D01*
X-4983344Y950500D01*
X-5128206Y950500D01*
X-5128207Y950500D01*
X-5272323Y935846D01*
X-5456760Y877978D01*
X-5456775Y877971D01*
X-5625789Y784161D01*
X-5625794Y784158D01*
X-5772467Y658242D01*
X-5772469Y658241D01*
X-5890795Y505376D01*
X-5890797Y505372D01*
X-5975932Y331813D01*
X-6024384Y144683D01*
X-6024385Y144677D01*
X-6034176Y-48390D01*
X-13020732Y-48390D01*
X-13015824Y48390D01*
X-13045097Y239474D01*
X-13112236Y420753D01*
X-13164980Y505373D01*
X-13214489Y584804D01*
X-13214490Y584805D01*
X-13214491Y584807D01*
X-13347677Y724919D01*
X-13351531Y727602D01*
X-13506343Y835354D01*
X-13683988Y911587D01*
X-13873344Y950500D01*
X-14018206Y950500D01*
X-14018207Y950500D01*
X-14162323Y935846D01*
X-14346760Y877978D01*
X-14346775Y877971D01*
X-14515789Y784161D01*
X-14515794Y784158D01*
X-14662467Y658242D01*
X-14662469Y658241D01*
X-14780795Y505376D01*
X-14780797Y505372D01*
X-14865932Y331813D01*
X-14914384Y144683D01*
X-14914385Y144677D01*
X-14924176Y-48390D01*
X-17110000Y-48390D01*
X-17110000Y425500D01*
X-17090315Y492539D01*
X-17037511Y538294D01*
X-16986000Y549500D01*
X-15876569Y549500D01*
X-15876567Y549500D01*
X-15855499Y556346D01*
X-15836583Y560888D01*
X-15814696Y564354D01*
X-15794956Y574414D01*
X-15776989Y581856D01*
X-15755910Y588704D01*
X-15737974Y601737D01*
X-15721412Y611886D01*
X-15701658Y621950D01*
X-15686166Y637443D01*
X-15686159Y637448D01*
X-12810534Y3513073D01*
X-12749211Y3546558D01*
X-12722853Y3549392D01*
X-10716677Y3549392D01*
X-10716675Y3549392D01*
X-10695607Y3556238D01*
X-10676691Y3560780D01*
X-10654804Y3564246D01*
X-10635064Y3574306D01*
X-10617097Y3581748D01*
X-10596018Y3588596D01*
X-10578082Y3601629D01*
X-10561520Y3611778D01*
X-10541766Y3621842D01*
X-10526274Y3637335D01*
X-10526267Y3637340D01*
X-8897448Y5266159D01*
X-8897443Y5266166D01*
X-8881950Y5281658D01*
X-8871886Y5301412D01*
X-8861737Y5317974D01*
X-8848704Y5335910D01*
X-8841856Y5356989D01*
X-8834414Y5374956D01*
X-8824354Y5394696D01*
X-8820888Y5416583D01*
X-8816345Y5435502D01*
X-8809500Y5456567D01*
X-8809500Y5583433D01*
X-8809500Y5583434D01*
X-8809500Y8382746D01*
X-8789815Y8449785D01*
X-8773181Y8470427D01*
X-8772181Y8471427D01*
X-8710858Y8504912D01*
X-8641166Y8499928D01*
G37*
%TD.AperFunction*%
%TA.AperFunction,Conductor*%
G36*
X-7511166Y8682821D02*
G01*
X-7455233Y8640949D01*
X-7430816Y8575485D01*
X-7430500Y8566639D01*
X-7430500Y4496571D01*
X-7430499Y4496561D01*
X-7423654Y4475493D01*
X-7419113Y4456582D01*
X-7415646Y4434696D01*
X-7415645Y4434693D01*
X-7405588Y4414955D01*
X-7398143Y4396982D01*
X-7391296Y4375910D01*
X-7378274Y4357986D01*
X-7368110Y4341400D01*
X-7365123Y4335538D01*
X-7358050Y4321658D01*
X-7337136Y4300744D01*
X-7337107Y4300713D01*
X-6639014Y3602620D01*
X-6638994Y3602602D01*
X-6618342Y3581950D01*
X-6598602Y3571892D01*
X-6582013Y3561726D01*
X-6564091Y3548705D01*
X-6564090Y3548705D01*
X-6564089Y3548704D01*
X-6543020Y3541858D01*
X-6525051Y3534416D01*
X-6505304Y3524354D01*
X-6483418Y3520888D01*
X-6464503Y3516347D01*
X-6443433Y3509500D01*
X-6411519Y3509500D01*
X18082745Y3509500D01*
X18149784Y3489815D01*
X18170426Y3473181D01*
X18989987Y2653620D01*
X19701927Y1941681D01*
X19735412Y1880358D01*
X19730428Y1810666D01*
X19688556Y1754733D01*
X19623092Y1730316D01*
X19614246Y1730000D01*
X17290000Y1730000D01*
X17290000Y836913D01*
X17270315Y769874D01*
X17229122Y730181D01*
X17123444Y667683D01*
X17123438Y667679D01*
X17007321Y551562D01*
X17007314Y551553D01*
X16923718Y410199D01*
X16877899Y252487D01*
X16877704Y250002D01*
X16877705Y250000D01*
X17166000Y250000D01*
X17233039Y230315D01*
X17278794Y177511D01*
X17290000Y126000D01*
X17290000Y-126000D01*
X17270315Y-193039D01*
X17217511Y-238794D01*
X17166000Y-250000D01*
X16877705Y-250000D01*
X16877704Y-250001D01*
X16877899Y-252486D01*
X16923718Y-410198D01*
X17007314Y-551552D01*
X17007321Y-551561D01*
X17123438Y-667678D01*
X17123446Y-667684D01*
X17229121Y-730180D01*
X17276804Y-781249D01*
X17290000Y-836911D01*
X17290000Y-1600000D01*
X17360000Y-1670000D01*
X17704408Y-1670000D01*
X17771447Y-1689685D01*
X17817202Y-1742489D01*
X17827146Y-1811647D01*
X17818211Y-1843242D01*
X17817968Y-1843803D01*
X17772856Y-1999080D01*
X17772854Y-1999087D01*
X17771209Y-2019999D01*
X17771210Y-2020000D01*
X18676000Y-2020000D01*
X18743039Y-2039685D01*
X18788794Y-2092489D01*
X18800000Y-2144000D01*
X18800000Y-2396000D01*
X18780315Y-2463039D01*
X18727511Y-2508794D01*
X18676000Y-2520000D01*
X17771210Y-2520000D01*
X17772854Y-2540910D01*
X17819337Y-2700906D01*
X17819137Y-2770775D01*
X17781194Y-2829445D01*
X17717556Y-2858288D01*
X17700260Y-2859500D01*
X1052113Y-2859500D01*
X985074Y-2839815D01*
X939319Y-2787011D01*
X929375Y-2717853D01*
X958400Y-2654297D01*
X964432Y-2647819D01*
X969854Y-2642396D01*
X969859Y-2642391D01*
X1026017Y-2532175D01*
X1026017Y-2532173D01*
X1026018Y-2532172D01*
X1026018Y-2532171D01*
X1032697Y-2490000D01*
X1040500Y-2440735D01*
X1040499Y-2327252D01*
X1060183Y-2260214D01*
X1076808Y-2239582D01*
X1242983Y-2073409D01*
X1265550Y-2050842D01*
X1275609Y-2031097D01*
X1285771Y-2014514D01*
X1298796Y-1996590D01*
X1305640Y-1975522D01*
X1313086Y-1957545D01*
X1323146Y-1937804D01*
X1326612Y-1915915D01*
X1331154Y-1896998D01*
X1337999Y-1875933D01*
X1337999Y-1846576D01*
X1338000Y-1846551D01*
X1338000Y-1814000D01*
X1357685Y-1746961D01*
X1410489Y-1701206D01*
X1462000Y-1690000D01*
X1720000Y-1690000D01*
X1830000Y-1580000D01*
X1830000Y-1410356D01*
X1849685Y-1343318D01*
X1852940Y-1338555D01*
X1853047Y-1338344D01*
X1853050Y-1338342D01*
X1910646Y-1225304D01*
X1910646Y-1225302D01*
X1910647Y-1225301D01*
X1925499Y-1131524D01*
X1925500Y-1131519D01*
X1925499Y-768482D01*
X1910646Y-674696D01*
X1853050Y-561658D01*
X1853048Y-561656D01*
X1848619Y-552963D01*
X1850013Y-552252D01*
X1830202Y-496713D01*
X1830000Y-489642D01*
X1830000Y-48390D01*
X4125824Y-48390D01*
X4155095Y-239466D01*
X4155098Y-239478D01*
X4222234Y-420748D01*
X4222238Y-420757D01*
X4324488Y-584803D01*
X4324489Y-584804D01*
X4324491Y-584807D01*
X4457677Y-724919D01*
X4616342Y-835353D01*
X4793988Y-911587D01*
X4983344Y-950500D01*
X5128207Y-950500D01*
X5272322Y-935845D01*
X5456759Y-877977D01*
X5456760Y-877976D01*
X5456768Y-877974D01*
X5625791Y-784159D01*
X5772468Y-658240D01*
X5890796Y-505373D01*
X5975930Y-331816D01*
X6024385Y-144674D01*
X6029268Y-48390D01*
X13015824Y-48390D01*
X13045095Y-239466D01*
X13045098Y-239478D01*
X13112234Y-420748D01*
X13112238Y-420757D01*
X13214488Y-584803D01*
X13214489Y-584804D01*
X13214491Y-584807D01*
X13347677Y-724919D01*
X13506342Y-835353D01*
X13683988Y-911587D01*
X13873344Y-950500D01*
X14018207Y-950500D01*
X14162322Y-935845D01*
X14346759Y-877977D01*
X14346760Y-877976D01*
X14346768Y-877974D01*
X14515791Y-784159D01*
X14662468Y-658240D01*
X14780796Y-505373D01*
X14865930Y-331816D01*
X14914385Y-144674D01*
X14924176Y48390D01*
X14894903Y239474D01*
X14827764Y420753D01*
X14775020Y505373D01*
X14725511Y584804D01*
X14725510Y584805D01*
X14725509Y584807D01*
X14592323Y724919D01*
X14588469Y727602D01*
X14433657Y835354D01*
X14256012Y911587D01*
X14066656Y950500D01*
X13921794Y950500D01*
X13921793Y950500D01*
X13777677Y935846D01*
X13593240Y877978D01*
X13593225Y877971D01*
X13424211Y784161D01*
X13424206Y784158D01*
X13277533Y658242D01*
X13277531Y658241D01*
X13159205Y505376D01*
X13159203Y505372D01*
X13074068Y331813D01*
X13025616Y144683D01*
X13025615Y144677D01*
X13015824Y-48390D01*
X6029268Y-48390D01*
X6034176Y48390D01*
X6004903Y239474D01*
X5937764Y420753D01*
X5885020Y505373D01*
X5835511Y584804D01*
X5835510Y584805D01*
X5835509Y584807D01*
X5702323Y724919D01*
X5698469Y727602D01*
X5543657Y835354D01*
X5366012Y911587D01*
X5176656Y950500D01*
X5031794Y950500D01*
X5031793Y950500D01*
X4887677Y935846D01*
X4703240Y877978D01*
X4703225Y877971D01*
X4534211Y784161D01*
X4534206Y784158D01*
X4387533Y658242D01*
X4387531Y658241D01*
X4269205Y505376D01*
X4269203Y505372D01*
X4184068Y331813D01*
X4135616Y144683D01*
X4135615Y144677D01*
X4125824Y-48390D01*
X1830000Y-48390D01*
X1830000Y489643D01*
X1849685Y556682D01*
X1852940Y561445D01*
X1853047Y561656D01*
X1853050Y561658D01*
X1910646Y674696D01*
X1910646Y674698D01*
X1910647Y674699D01*
X1922776Y751285D01*
X1925500Y768481D01*
X1925499Y1131518D01*
X1910646Y1225304D01*
X1853050Y1338342D01*
X1853048Y1338344D01*
X1848619Y1347037D01*
X1850013Y1347748D01*
X1830202Y1403287D01*
X1830000Y1410358D01*
X1830000Y1700000D01*
X1820000Y1710000D01*
X1461999Y1710000D01*
X1394960Y1729685D01*
X1349205Y1782489D01*
X1337999Y1834000D01*
X1337999Y1855932D01*
X1337999Y1855933D01*
X1331153Y1876999D01*
X1326611Y1895920D01*
X1326313Y1897804D01*
X1323146Y1917804D01*
X1313086Y1937548D01*
X1305640Y1955526D01*
X1298797Y1976587D01*
X1298796Y1976588D01*
X1298796Y1976590D01*
X1285769Y1994519D01*
X1275604Y2011108D01*
X1265550Y2030842D01*
X1175842Y2120550D01*
X539287Y2757107D01*
X539256Y2757136D01*
X518342Y2778050D01*
X518341Y2778051D01*
X498600Y2788110D01*
X482014Y2798274D01*
X464090Y2811296D01*
X464091Y2811296D01*
X443018Y2818143D01*
X425045Y2825588D01*
X405307Y2835645D01*
X405304Y2835646D01*
X383418Y2839113D01*
X364507Y2843654D01*
X343439Y2850499D01*
X343434Y2850500D01*
X343433Y2850500D01*
X343429Y2850500D01*
X-7462745Y2850500D01*
X-7529784Y2870185D01*
X-7550426Y2886819D01*
X-7723181Y3059574D01*
X-7756666Y3120897D01*
X-7759500Y3147255D01*
X-7759500Y8485639D01*
X-7739815Y8552678D01*
X-7723186Y8573315D01*
X-7642179Y8654322D01*
X-7580858Y8687805D01*
X-7511166Y8682821D01*
G37*
%TD.AperFunction*%
%TA.AperFunction,Conductor*%
G36*
X5063000Y33179391D02*
G01*
X5556501Y33104271D01*
X5558246Y33103978D01*
X6525054Y32927775D01*
X6526831Y32927424D01*
X7020634Y32822438D01*
X7488060Y32723058D01*
X7489800Y32722661D01*
X7534486Y32711787D01*
X8444697Y32490293D01*
X8446332Y32489869D01*
X9304522Y32254279D01*
X9394039Y32229704D01*
X9395778Y32229199D01*
X9569628Y32175966D01*
X10335450Y31941471D01*
X10337134Y31940927D01*
X11264965Y31626900D01*
X11272816Y31623625D01*
X11356603Y31581705D01*
X11381934Y31564858D01*
X11444708Y31510917D01*
X11465177Y31488407D01*
X11512932Y31420796D01*
X11527302Y31393983D01*
X11557155Y31316787D01*
X11564565Y31287279D01*
X11572769Y31220933D01*
X11572140Y31186071D01*
X11556549Y31088909D01*
X11556549Y31088899D01*
X11545663Y30788201D01*
X11571643Y30488428D01*
X11634097Y30194096D01*
X11634097Y30194094D01*
X11634099Y30194088D01*
X11732093Y29909596D01*
X11732095Y29909592D01*
X11864152Y29639225D01*
X11978701Y29463236D01*
X12028292Y29387046D01*
X12160681Y29229750D01*
X12222050Y29156835D01*
X12222051Y29156834D01*
X12442505Y28952063D01*
X12442507Y28952062D01*
X12442512Y28952057D01*
X12686370Y28775786D01*
X12686376Y28775783D01*
X12686377Y28775782D01*
X12949957Y28630669D01*
X12949959Y28630668D01*
X13229320Y28518886D01*
X13520258Y28442116D01*
X13818402Y28401513D01*
X14119273Y28397687D01*
X14418353Y28430694D01*
X14633460Y28481641D01*
X14711142Y28500038D01*
X14711144Y28500039D01*
X14711149Y28500040D01*
X14993263Y28604682D01*
X15260457Y28743049D01*
X15508719Y28913062D01*
X15600356Y28993985D01*
X15614350Y29006336D01*
X15629423Y29017719D01*
X15656469Y29035074D01*
X15690910Y29050369D01*
X15712647Y29056276D01*
X15750096Y29060517D01*
X15772608Y29059620D01*
X15809604Y29052411D01*
X15838301Y29042098D01*
X15857879Y29033071D01*
X17037929Y28358825D01*
X17064091Y28338842D01*
X28473836Y16929097D01*
X28493469Y16903543D01*
X28644110Y16643334D01*
X28988625Y16048238D01*
X28989539Y16046601D01*
X29271361Y15522585D01*
X29481426Y15131993D01*
X29482320Y15130267D01*
X29945314Y14200682D01*
X29946153Y14198929D01*
X30379775Y13255328D01*
X30380559Y13253550D01*
X30784413Y12296795D01*
X30785141Y12294994D01*
X31158811Y11326069D01*
X31159482Y11324245D01*
X31502608Y10344088D01*
X31503221Y10342244D01*
X31815465Y9351817D01*
X31816020Y9349955D01*
X32097075Y8350236D01*
X32097572Y8348358D01*
X32199889Y7935126D01*
X32340124Y7368753D01*
X32347165Y7340319D01*
X32347602Y7338425D01*
X32565483Y6323071D01*
X32565861Y6321165D01*
X32751823Y5299457D01*
X32752141Y5297540D01*
X32905999Y4270501D01*
X32906256Y4268575D01*
X33026620Y3247697D01*
X33027207Y3225062D01*
X33024965Y3190880D01*
X33015440Y3150702D01*
X33005880Y3128094D01*
X32983697Y3093279D01*
X32967247Y3075064D01*
X32934860Y3049457D01*
X32913339Y3037651D01*
X32874337Y3024096D01*
X32839777Y3018263D01*
X32819132Y3016534D01*
X32771929Y3016537D01*
X32771879Y3016533D01*
X30119296Y3016533D01*
X30119166Y3016527D01*
X29979154Y3016527D01*
X29639530Y2979591D01*
X29305886Y2906151D01*
X29120404Y2843654D01*
X28982139Y2797067D01*
X28982136Y2797066D01*
X28982128Y2797063D01*
X28672092Y2653625D01*
X28379363Y2477497D01*
X28379360Y2477495D01*
X28107395Y2270754D01*
X28107386Y2270746D01*
X27859371Y2035814D01*
X27859366Y2035809D01*
X27638204Y1775439D01*
X27638196Y1775429D01*
X27446484Y1492676D01*
X27446483Y1492673D01*
X27286461Y1190841D01*
X27286452Y1190823D01*
X27160005Y873463D01*
X27160004Y873461D01*
X27135980Y786931D01*
X27099078Y727602D01*
X27035958Y697641D01*
X26966660Y706562D01*
X26913186Y751532D01*
X26892514Y818274D01*
X26892500Y820105D01*
X26892500Y7607431D01*
X26892500Y7607433D01*
X26885653Y7628503D01*
X26881111Y7647423D01*
X26877646Y7669304D01*
X26867584Y7689051D01*
X26860140Y7707024D01*
X26853295Y7728091D01*
X26840274Y7746013D01*
X26830108Y7762602D01*
X26820050Y7782342D01*
X26799398Y7802994D01*
X26799380Y7803014D01*
X24247787Y10354607D01*
X24247756Y10354636D01*
X24226842Y10375550D01*
X24226841Y10375551D01*
X24207100Y10385610D01*
X24190514Y10395774D01*
X24172590Y10408796D01*
X24172591Y10408796D01*
X24151518Y10415643D01*
X24133545Y10423088D01*
X24113807Y10433145D01*
X24113804Y10433146D01*
X24091918Y10436613D01*
X24073007Y10441154D01*
X24051939Y10447999D01*
X24051934Y10448000D01*
X24051933Y10448000D01*
X24051929Y10448000D01*
X17643129Y10448000D01*
X17576090Y10467685D01*
X17530335Y10520489D01*
X17526947Y10528667D01*
X17508797Y10577329D01*
X17508793Y10577336D01*
X17422547Y10692545D01*
X17422544Y10692548D01*
X17307335Y10778794D01*
X17307328Y10778798D01*
X17172482Y10829092D01*
X17172483Y10829092D01*
X17112883Y10835499D01*
X17112881Y10835500D01*
X17112873Y10835500D01*
X17112864Y10835500D01*
X15717129Y10835500D01*
X15717123Y10835499D01*
X15657516Y10829092D01*
X15522671Y10778798D01*
X15522664Y10778794D01*
X15407455Y10692548D01*
X15407452Y10692545D01*
X15321206Y10577336D01*
X15321202Y10577329D01*
X15303053Y10528667D01*
X15261182Y10472733D01*
X15195717Y10448316D01*
X15186871Y10448000D01*
X14744499Y10448000D01*
X14677460Y10467685D01*
X14631705Y10520489D01*
X14620499Y10572000D01*
X14620499Y10666518D01*
X14620291Y10667830D01*
X14605646Y10760304D01*
X14548050Y10873342D01*
X14548046Y10873346D01*
X14548045Y10873348D01*
X14458347Y10963046D01*
X14458344Y10963048D01*
X14458342Y10963050D01*
X14372184Y11006950D01*
X14345301Y11020648D01*
X14251524Y11035500D01*
X13888482Y11035500D01*
X13817649Y11024282D01*
X13794696Y11020646D01*
X13794695Y11020646D01*
X13785057Y11019119D01*
X13784736Y11021141D01*
X13727478Y11019511D01*
X13667649Y11055598D01*
X13636827Y11118302D01*
X13644799Y11187715D01*
X13648514Y11195700D01*
X13655646Y11209696D01*
X13655797Y11210646D01*
X13667093Y11281968D01*
X13670500Y11303481D01*
X13670499Y12541518D01*
X13655646Y12635304D01*
X13617586Y12710000D01*
X15015001Y12710000D01*
X15015001Y12585014D01*
X15025494Y12482303D01*
X15080641Y12315881D01*
X15080643Y12315876D01*
X15172684Y12166655D01*
X15296654Y12042685D01*
X15445875Y11950644D01*
X15445880Y11950642D01*
X15612302Y11895495D01*
X15612309Y11895494D01*
X15715019Y11885001D01*
X16164999Y11885001D01*
X16165000Y11885002D01*
X16165000Y12710000D01*
X16664999Y12710000D01*
X16664999Y11885002D01*
X16665000Y11885001D01*
X17114972Y11885001D01*
X17114986Y11885002D01*
X17217697Y11895495D01*
X17384119Y11950642D01*
X17384124Y11950644D01*
X17533345Y12042685D01*
X17657315Y12166655D01*
X17749356Y12315876D01*
X17749358Y12315881D01*
X17804505Y12482303D01*
X17804506Y12482310D01*
X17814999Y12585014D01*
X17815000Y12585027D01*
X17815000Y12710000D01*
X16664999Y12710000D01*
X16165000Y12710000D01*
X15015001Y12710000D01*
X13617586Y12710000D01*
X13604014Y12736637D01*
X13590500Y12792929D01*
X13590500Y13002088D01*
X13610185Y13069127D01*
X13662989Y13114882D01*
X13671159Y13118268D01*
X13672331Y13118704D01*
X13678093Y13123017D01*
X13722726Y13156430D01*
X13787546Y13204954D01*
X13791323Y13210000D01*
X15015000Y13210000D01*
X16165000Y13210000D01*
X16165000Y14035000D01*
X16664999Y14035000D01*
X16664999Y13210001D01*
X16665001Y13210000D01*
X17814999Y13210000D01*
X17814999Y13334972D01*
X17814998Y13334987D01*
X17804505Y13437698D01*
X17749358Y13604120D01*
X17749356Y13604125D01*
X17657315Y13753346D01*
X17533345Y13877316D01*
X17384124Y13969357D01*
X17384119Y13969359D01*
X17217697Y14024506D01*
X17217690Y14024507D01*
X17114986Y14035000D01*
X16664999Y14035000D01*
X16165000Y14035000D01*
X15715028Y14035000D01*
X15715012Y14034999D01*
X15612302Y14024506D01*
X15445880Y13969359D01*
X15445875Y13969357D01*
X15296654Y13877316D01*
X15172684Y13753346D01*
X15080643Y13604125D01*
X15080641Y13604120D01*
X15025494Y13437698D01*
X15025493Y13437691D01*
X15015000Y13334987D01*
X15015000Y13210000D01*
X13791323Y13210000D01*
X13873796Y13320169D01*
X13924091Y13455017D01*
X13930500Y13514627D01*
X13930499Y14910372D01*
X13924627Y14964997D01*
X13924091Y14969984D01*
X13873797Y15104829D01*
X13873793Y15104836D01*
X13787547Y15220045D01*
X13787544Y15220048D01*
X13672335Y15306294D01*
X13672328Y15306298D01*
X13537486Y15356590D01*
X13537485Y15356591D01*
X13537483Y15356591D01*
X13477873Y15363000D01*
X13477864Y15363000D01*
X12804499Y15363000D01*
X12737460Y15382685D01*
X12691705Y15435489D01*
X12680499Y15486996D01*
X12680499Y17828716D01*
X12680889Y17835664D01*
X12685270Y17874535D01*
X12674416Y17931893D01*
X12674037Y17934133D01*
X12665348Y17991787D01*
X12665346Y17991791D01*
X12662833Y17999939D01*
X12660023Y18007969D01*
X12660023Y18007972D01*
X12660021Y18007976D01*
X12660020Y18007979D01*
X12654396Y18018621D01*
X12640474Y18087089D01*
X12665779Y18152215D01*
X12676338Y18164236D01*
X13638205Y19126104D01*
X13643373Y19130723D01*
X13673970Y19155121D01*
X13706865Y19203371D01*
X13708131Y19205155D01*
X13742793Y19252118D01*
X13742793Y19252121D01*
X13742795Y19252122D01*
X13746778Y19259659D01*
X13750468Y19267323D01*
X13750472Y19267327D01*
X13767677Y19323110D01*
X13768388Y19325266D01*
X13787646Y19380301D01*
X13789228Y19388664D01*
X13790500Y19397101D01*
X13790500Y19455422D01*
X13790542Y19457706D01*
X13792724Y19516010D01*
X13792723Y19516011D01*
X13791684Y19525239D01*
X13792513Y19525333D01*
X13790500Y19540634D01*
X13790500Y21651218D01*
X13790889Y21658157D01*
X13795270Y21697035D01*
X13784416Y21754393D01*
X13784037Y21756633D01*
X13782697Y21765523D01*
X13775348Y21814287D01*
X13775346Y21814291D01*
X13772836Y21822429D01*
X13770023Y21830468D01*
X13770023Y21830472D01*
X13742760Y21882052D01*
X13741727Y21884100D01*
X13716425Y21936642D01*
X13716423Y21936644D01*
X13716423Y21936645D01*
X13711642Y21943658D01*
X13706566Y21950535D01*
X13706565Y21950538D01*
X13665345Y21991758D01*
X13663752Y21993410D01*
X13635787Y22023550D01*
X13624059Y22036191D01*
X13616792Y22041986D01*
X13617312Y22042639D01*
X13605067Y22052036D01*
X11509284Y24147819D01*
X11475799Y24209142D01*
X11480783Y24278834D01*
X11522655Y24334767D01*
X11588119Y24359184D01*
X11596965Y24359500D01*
X11600517Y24359500D01*
X11667556Y24339815D01*
X11682741Y24328318D01*
X11747760Y24270717D01*
X11747762Y24270716D01*
X11887634Y24197304D01*
X12041014Y24159500D01*
X12041015Y24159500D01*
X12198985Y24159500D01*
X12352365Y24197304D01*
X12352364Y24197304D01*
X12492240Y24270717D01*
X12610483Y24375470D01*
X12700220Y24505477D01*
X12756237Y24653182D01*
X12775278Y24810000D01*
X12772796Y24830446D01*
X12756237Y24966819D01*
X12717362Y25069323D01*
X12700220Y25114523D01*
X12610483Y25244530D01*
X12492240Y25349283D01*
X12492238Y25349284D01*
X12492237Y25349285D01*
X12352365Y25422697D01*
X12198986Y25460500D01*
X12198985Y25460500D01*
X12041015Y25460500D01*
X12041014Y25460500D01*
X11887634Y25422697D01*
X11747762Y25349285D01*
X11747759Y25349283D01*
X11747760Y25349283D01*
X11699159Y25306226D01*
X11682744Y25291684D01*
X11619510Y25261963D01*
X11600517Y25260500D01*
X11358783Y25260500D01*
X11351844Y25260890D01*
X11336322Y25262639D01*
X11312963Y25265271D01*
X11255672Y25254430D01*
X11253387Y25254042D01*
X11195715Y25245349D01*
X11187532Y25242825D01*
X11179529Y25240024D01*
X11127961Y25212770D01*
X11125892Y25211725D01*
X11073357Y25186426D01*
X11066338Y25181641D01*
X11059460Y25176565D01*
X11018239Y25135344D01*
X11016571Y25133737D01*
X10973804Y25094054D01*
X10968013Y25086792D01*
X10967362Y25087312D01*
X10957967Y25075072D01*
X10379935Y24497040D01*
X10350194Y24475090D01*
X10307961Y24452770D01*
X10305892Y24451725D01*
X10253357Y24426426D01*
X10246338Y24421641D01*
X10239460Y24416565D01*
X10198239Y24375344D01*
X10196571Y24373737D01*
X10153804Y24334054D01*
X10148013Y24326792D01*
X10147362Y24327312D01*
X10137967Y24315072D01*
X9475006Y23652111D01*
X9413683Y23618626D01*
X9343993Y23623610D01*
X9302485Y23639091D01*
X9302483Y23639092D01*
X9242883Y23645499D01*
X9242881Y23645500D01*
X9242873Y23645500D01*
X9242864Y23645500D01*
X8397129Y23645500D01*
X8397123Y23645499D01*
X8337516Y23639092D01*
X8202671Y23588798D01*
X8202664Y23588794D01*
X8087455Y23502548D01*
X8087452Y23502545D01*
X8001206Y23387336D01*
X8001202Y23387329D01*
X7950908Y23252483D01*
X7946859Y23214815D01*
X7944501Y23192877D01*
X7944500Y23192865D01*
X7944500Y22172966D01*
X7924815Y22105927D01*
X7908181Y22085285D01*
X7654716Y21831819D01*
X7593393Y21798334D01*
X7567035Y21795500D01*
X7526014Y21795500D01*
X7372634Y21757697D01*
X7232762Y21684285D01*
X7191768Y21647968D01*
X7123637Y21587609D01*
X7114516Y21579529D01*
X7024781Y21449525D01*
X7024780Y21449524D01*
X6968762Y21301819D01*
X6949722Y21145001D01*
X6949722Y21145000D01*
X6968762Y20988182D01*
X7021930Y20847991D01*
X7024780Y20840477D01*
X7114517Y20710470D01*
X7232760Y20605717D01*
X7232762Y20605716D01*
X7372634Y20532304D01*
X7526014Y20494500D01*
X7526015Y20494500D01*
X7683985Y20494500D01*
X7837365Y20532304D01*
X7869940Y20549401D01*
X7977240Y20605717D01*
X8095483Y20710470D01*
X8185220Y20840477D01*
X8241237Y20988182D01*
X8257632Y21123211D01*
X8285254Y21187388D01*
X8293026Y21195924D01*
X8455287Y21358185D01*
X8516608Y21391667D01*
X8542966Y21394501D01*
X9242871Y21394501D01*
X9242872Y21394501D01*
X9302483Y21400909D01*
X9437331Y21451204D01*
X9552546Y21537454D01*
X9638796Y21652669D01*
X9689091Y21787517D01*
X9695500Y21847127D01*
X9695499Y22547036D01*
X9715183Y22614074D01*
X9731813Y22634711D01*
X10652322Y23555219D01*
X10713641Y23588701D01*
X10783333Y23583717D01*
X10827680Y23555216D01*
X12853181Y21529716D01*
X12886666Y21468393D01*
X12889500Y21442035D01*
X12889500Y19702966D01*
X12869815Y19635927D01*
X12853181Y19615285D01*
X12076216Y18838321D01*
X12014893Y18804836D01*
X11945201Y18809820D01*
X11889268Y18851692D01*
X11864851Y18917156D01*
X11870832Y18965016D01*
X11872006Y18968560D01*
X11882499Y19071264D01*
X11882500Y19071277D01*
X11882500Y19196250D01*
X10732500Y19196250D01*
X10732500Y18371251D01*
X11132284Y18371251D01*
X11199323Y18351566D01*
X11245078Y18298762D01*
X11255022Y18229604D01*
X11225997Y18166048D01*
X11219965Y18159570D01*
X10568305Y17507911D01*
X10506982Y17474426D01*
X10437290Y17479410D01*
X10392943Y17507911D01*
X9741284Y18159570D01*
X9707799Y18220893D01*
X9712783Y18290585D01*
X9754655Y18346518D01*
X9820119Y18370935D01*
X9828965Y18371251D01*
X10232499Y18371251D01*
X10232500Y18371252D01*
X10232500Y19196250D01*
X9082501Y19196250D01*
X9082501Y19071261D01*
X9090520Y18992769D01*
X9077750Y18924076D01*
X9029869Y18873192D01*
X8962079Y18856272D01*
X8947764Y18857695D01*
X8859024Y18871750D01*
X7770982Y18871750D01*
X7690019Y18858927D01*
X7677196Y18856896D01*
X7564158Y18799300D01*
X7564157Y18799299D01*
X7564152Y18799296D01*
X7474454Y18709598D01*
X7474451Y18709593D01*
X7474450Y18709592D01*
X7455251Y18671913D01*
X7416852Y18596552D01*
X7402000Y18502775D01*
X7402000Y18139728D01*
X7405754Y18116026D01*
X7396796Y18046733D01*
X7370962Y18008952D01*
X7284818Y17922808D01*
X7284814Y17922803D01*
X7201218Y17781449D01*
X7155399Y17623737D01*
X7155204Y17621252D01*
X7155205Y17621250D01*
X8441000Y17621250D01*
X8508039Y17601565D01*
X8553794Y17548761D01*
X8565000Y17497250D01*
X8565000Y17245250D01*
X8545315Y17178211D01*
X8492511Y17132456D01*
X8441000Y17121250D01*
X7155205Y17121250D01*
X7155204Y17121249D01*
X7155399Y17118764D01*
X7201218Y16961052D01*
X7284814Y16819698D01*
X7284821Y16819689D01*
X7370960Y16733550D01*
X7404445Y16672227D01*
X7405753Y16626477D01*
X7402000Y16602775D01*
X7402000Y16239733D01*
X7412792Y16171593D01*
X7416854Y16145946D01*
X7474450Y16032908D01*
X7474452Y16032906D01*
X7474454Y16032903D01*
X7564152Y15943205D01*
X7564154Y15943204D01*
X7564158Y15943200D01*
X7669238Y15889659D01*
X7677198Y15885603D01*
X7770975Y15870751D01*
X7770981Y15870750D01*
X8859018Y15870751D01*
X8952804Y15885604D01*
X9065842Y15943200D01*
X9065847Y15943205D01*
X9071171Y15947071D01*
X9136978Y15970548D01*
X9144052Y15970750D01*
X9295320Y15970750D01*
X9362359Y15951065D01*
X9394585Y15921063D01*
X9474954Y15813704D01*
X9542991Y15762772D01*
X9584861Y15706839D01*
X9589845Y15637147D01*
X9556360Y15575824D01*
X9516736Y15551377D01*
X9517421Y15549908D01*
X9510875Y15546857D01*
X9361654Y15454816D01*
X9237684Y15330846D01*
X9145643Y15181625D01*
X9145641Y15181621D01*
X9139565Y15163283D01*
X9099790Y15105840D01*
X9035274Y15079019D01*
X8966498Y15091336D01*
X8915300Y15138880D01*
X8911390Y15145970D01*
X8863050Y15240842D01*
X8863047Y15240845D01*
X8863045Y15240848D01*
X8773347Y15330546D01*
X8773344Y15330548D01*
X8773342Y15330550D01*
X8671022Y15382685D01*
X8660301Y15388148D01*
X8566524Y15403000D01*
X8203482Y15403000D01*
X8122519Y15390177D01*
X8109696Y15388146D01*
X7996658Y15330550D01*
X7996657Y15330550D01*
X7996657Y15330549D01*
X7996652Y15330546D01*
X7906954Y15240848D01*
X7906951Y15240843D01*
X7906950Y15240842D01*
X7892325Y15212139D01*
X7849352Y15127802D01*
X7834500Y15034025D01*
X7834500Y13945983D01*
X7844341Y13883850D01*
X7849354Y13852196D01*
X7906950Y13739158D01*
X7906952Y13739156D01*
X7906954Y13739153D01*
X7996652Y13649455D01*
X7996654Y13649454D01*
X7996658Y13649450D01*
X8085623Y13604120D01*
X8109698Y13591853D01*
X8203475Y13577001D01*
X8203481Y13577000D01*
X8566518Y13577001D01*
X8660304Y13591854D01*
X8773342Y13649450D01*
X8863050Y13739158D01*
X8863051Y13739161D01*
X8868318Y13744427D01*
X8929641Y13777912D01*
X8999333Y13772928D01*
X9055267Y13731057D01*
X9079684Y13665593D01*
X9080000Y13656747D01*
X9080000Y13512530D01*
X9080001Y13512513D01*
X9090494Y13409803D01*
X9145641Y13243381D01*
X9145643Y13243376D01*
X9237684Y13094155D01*
X9361654Y12970185D01*
X9510875Y12878144D01*
X9510880Y12878142D01*
X9677302Y12822995D01*
X9677309Y12822994D01*
X9780019Y12812501D01*
X9904999Y12812501D01*
X9905000Y12812502D01*
X9905000Y13962500D01*
X10405000Y13962500D01*
X10405000Y12812501D01*
X10529972Y12812501D01*
X10529986Y12812502D01*
X10632697Y12822995D01*
X10799119Y12878142D01*
X10799124Y12878144D01*
X10948345Y12970185D01*
X11072315Y13094155D01*
X11164356Y13243376D01*
X11164358Y13243381D01*
X11219505Y13409803D01*
X11219506Y13409810D01*
X11229999Y13512514D01*
X11230000Y13512527D01*
X11230000Y13962500D01*
X10405000Y13962500D01*
X9905000Y13962500D01*
X9905000Y14338500D01*
X9924685Y14405539D01*
X9977489Y14451294D01*
X10029000Y14462500D01*
X11229999Y14462500D01*
X11229999Y14912472D01*
X11229998Y14912487D01*
X11219505Y15015198D01*
X11164358Y15181620D01*
X11164356Y15181625D01*
X11072315Y15330846D01*
X10944091Y15459070D01*
X10910606Y15520393D01*
X10915590Y15590085D01*
X10957462Y15646018D01*
X11022926Y15670435D01*
X11031769Y15670751D01*
X11180372Y15670751D01*
X11239983Y15677159D01*
X11374831Y15727454D01*
X11490046Y15813704D01*
X11556234Y15902120D01*
X11612167Y15943990D01*
X11681859Y15948974D01*
X11743182Y15915489D01*
X11776666Y15854165D01*
X11779500Y15827808D01*
X11779500Y15116283D01*
X11779110Y15109345D01*
X11777502Y15095070D01*
X11774729Y15070464D01*
X11785571Y15013165D01*
X11785959Y15010881D01*
X11794652Y14953209D01*
X11797162Y14945073D01*
X11799976Y14937030D01*
X11827229Y14885464D01*
X11828274Y14883395D01*
X11853574Y14830858D01*
X11858362Y14823835D01*
X11863431Y14816968D01*
X11863434Y14816962D01*
X11863438Y14816958D01*
X11904666Y14775730D01*
X11906275Y14774060D01*
X11945947Y14731304D01*
X11953210Y14725512D01*
X11952689Y14724859D01*
X11964930Y14715466D01*
X12115322Y14565074D01*
X12243181Y14437216D01*
X12276666Y14375893D01*
X12279500Y14349535D01*
X12279500Y13514630D01*
X12279501Y13514624D01*
X12285908Y13455017D01*
X12336202Y13320172D01*
X12336206Y13320165D01*
X12422452Y13204956D01*
X12422455Y13204953D01*
X12537664Y13118707D01*
X12537673Y13118702D01*
X12608832Y13092162D01*
X12664766Y13050292D01*
X12689184Y12984828D01*
X12689500Y12975980D01*
X12689500Y12847255D01*
X12669815Y12780216D01*
X12653181Y12759574D01*
X12641954Y12748348D01*
X12641951Y12748343D01*
X12641950Y12748342D01*
X12629793Y12724483D01*
X12584352Y12635302D01*
X12569500Y12541525D01*
X12569500Y11403949D01*
X12549815Y11336910D01*
X12497011Y11291155D01*
X12427853Y11281211D01*
X12423213Y11281968D01*
X12422494Y11282100D01*
X12420000Y11282297D01*
X12420000Y10297500D01*
X12970000Y10297500D01*
X12970000Y10700635D01*
X12969999Y10700650D01*
X12967100Y10737488D01*
X12955939Y10775906D01*
X12956139Y10845776D01*
X12994082Y10904446D01*
X13057720Y10933289D01*
X13075007Y10934501D01*
X13301518Y10934501D01*
X13395304Y10949354D01*
X13395305Y10949355D01*
X13404943Y10950881D01*
X13405263Y10948857D01*
X13462500Y10950496D01*
X13522335Y10914420D01*
X13553168Y10851721D01*
X13545209Y10782307D01*
X13541472Y10774274D01*
X13534353Y10760303D01*
X13534352Y10760302D01*
X13519500Y10666527D01*
X13519500Y10114756D01*
X13499815Y10047717D01*
X13483181Y10027075D01*
X13181681Y9725575D01*
X13120358Y9692090D01*
X13050666Y9697074D01*
X12994733Y9738946D01*
X12974614Y9792886D01*
X12970000Y9797500D01*
X11370000Y9797500D01*
X11370000Y9394351D01*
X11372899Y9357511D01*
X11372900Y9357505D01*
X11418716Y9199807D01*
X11418717Y9199804D01*
X11464363Y9122621D01*
X11481546Y9054897D01*
X11459386Y8988635D01*
X11404920Y8944871D01*
X11357631Y8935500D01*
X11102017Y8935500D01*
X11034978Y8955185D01*
X10989223Y9007989D01*
X10979279Y9077147D01*
X10984311Y9098504D01*
X11024505Y9219803D01*
X11024506Y9219810D01*
X11034999Y9322514D01*
X11035000Y9322527D01*
X11035000Y9772500D01*
X8885001Y9772500D01*
X8885001Y9322514D01*
X8895494Y9219803D01*
X8935689Y9098504D01*
X8938091Y9028676D01*
X8902359Y8968634D01*
X8839839Y8937441D01*
X8817983Y8935500D01*
X8714755Y8935500D01*
X8647716Y8955185D01*
X8627074Y8971819D01*
X7871818Y9727075D01*
X7838333Y9788398D01*
X7835499Y9814756D01*
X7835499Y10021004D01*
X7835499Y10230249D01*
X7847905Y10272500D01*
X8885000Y10272500D01*
X9710000Y10272500D01*
X10209999Y10272500D01*
X11034999Y10272500D01*
X11034999Y10297500D01*
X11370000Y10297500D01*
X11919999Y10297500D01*
X11919999Y11282297D01*
X11917511Y11282100D01*
X11759802Y11236282D01*
X11618447Y11152686D01*
X11618438Y11152679D01*
X11502321Y11036562D01*
X11502314Y11036553D01*
X11418717Y10895197D01*
X11418716Y10895194D01*
X11372900Y10737496D01*
X11372899Y10737490D01*
X11370000Y10700650D01*
X11370000Y10297500D01*
X11034999Y10297500D01*
X11034999Y10722472D01*
X11034998Y10722487D01*
X11024505Y10825198D01*
X10969358Y10991620D01*
X10969356Y10991625D01*
X10877315Y11140846D01*
X10753345Y11264816D01*
X10604124Y11356857D01*
X10604119Y11356859D01*
X10437697Y11412006D01*
X10437690Y11412007D01*
X10334986Y11422500D01*
X10210000Y11422500D01*
X10209999Y10272500D01*
X9710000Y10272500D01*
X9710000Y11422500D01*
X9585027Y11422500D01*
X9585012Y11422499D01*
X9482302Y11412006D01*
X9315880Y11356859D01*
X9315875Y11356857D01*
X9166654Y11264816D01*
X9042684Y11140846D01*
X8950643Y10991625D01*
X8950641Y10991620D01*
X8895494Y10825198D01*
X8895493Y10825191D01*
X8885000Y10722487D01*
X8885000Y10272500D01*
X7847905Y10272500D01*
X7855182Y10297284D01*
X7871812Y10317921D01*
X8700484Y11146591D01*
X8700484Y11146592D01*
X8707552Y11153659D01*
X8707557Y11153666D01*
X8723050Y11169158D01*
X8733109Y11188902D01*
X8743269Y11205482D01*
X8756296Y11223411D01*
X8763142Y11244483D01*
X8770588Y11262457D01*
X8774579Y11270290D01*
X8780646Y11282196D01*
X8784112Y11304084D01*
X8788651Y11322990D01*
X8795500Y11344067D01*
X8795500Y11345246D01*
X8795905Y11346626D01*
X8797027Y11353708D01*
X8797942Y11353564D01*
X8815185Y11412285D01*
X8831820Y11432928D01*
X8863046Y11464154D01*
X8863050Y11464158D01*
X8920646Y11577196D01*
X8920646Y11577198D01*
X8920647Y11577199D01*
X8935499Y11670976D01*
X8935500Y11670981D01*
X8935499Y12759018D01*
X8920646Y12852804D01*
X8863050Y12965842D01*
X8863046Y12965846D01*
X8863045Y12965848D01*
X8773347Y13055546D01*
X8773344Y13055548D01*
X8773342Y13055550D01*
X8678988Y13103626D01*
X8660301Y13113148D01*
X8566524Y13128000D01*
X8203476Y13128000D01*
X8179774Y13124246D01*
X8110481Y13133204D01*
X8072701Y13159039D01*
X7986561Y13245179D01*
X7986552Y13245186D01*
X7845196Y13328783D01*
X7845193Y13328784D01*
X7687494Y13374600D01*
X7687497Y13374600D01*
X7685000Y13374797D01*
X7685000Y12089000D01*
X7665315Y12021961D01*
X7612511Y11976206D01*
X7561000Y11965000D01*
X7309000Y11965000D01*
X7241961Y11984685D01*
X7196206Y12037489D01*
X7185000Y12089000D01*
X7184999Y13374797D01*
X7182503Y13374600D01*
X7024806Y13328784D01*
X7024803Y13328783D01*
X6883447Y13245186D01*
X6883442Y13245182D01*
X6797299Y13159039D01*
X6735975Y13125555D01*
X6690225Y13124247D01*
X6666523Y13128000D01*
X6303482Y13128000D01*
X6222519Y13115177D01*
X6209696Y13113146D01*
X6096658Y13055550D01*
X6096656Y13055549D01*
X6096657Y13055549D01*
X6096652Y13055546D01*
X6006954Y12965848D01*
X6006951Y12965843D01*
X6006950Y12965842D01*
X5991246Y12935021D01*
X5949352Y12852802D01*
X5934500Y12759025D01*
X5934500Y11670983D01*
X5934968Y11668031D01*
X5949354Y11577196D01*
X6006950Y11464158D01*
X6006953Y11464155D01*
X6006954Y11464154D01*
X6058180Y11412928D01*
X6091666Y11351605D01*
X6094500Y11325246D01*
X6094500Y10474071D01*
X6094501Y10474061D01*
X6101346Y10452993D01*
X6105887Y10434082D01*
X6109354Y10412196D01*
X6109355Y10412193D01*
X6119412Y10392455D01*
X6126857Y10374482D01*
X6133704Y10353410D01*
X6146726Y10335486D01*
X6156889Y10318902D01*
X6170982Y10291246D01*
X6184500Y10234946D01*
X6184500Y9324630D01*
X6184501Y9324624D01*
X6190908Y9265017D01*
X6241202Y9130172D01*
X6241206Y9130165D01*
X6327452Y9014956D01*
X6327455Y9014953D01*
X6442664Y8928707D01*
X6442671Y8928703D01*
X6479655Y8914909D01*
X6577517Y8878409D01*
X6637127Y8872000D01*
X7382872Y8872001D01*
X7442483Y8878409D01*
X7473584Y8890010D01*
X7543272Y8894995D01*
X7604596Y8861511D01*
X7604598Y8861509D01*
X8238486Y8227620D01*
X8238506Y8227602D01*
X8259158Y8206950D01*
X8278890Y8196896D01*
X8278898Y8196892D01*
X8295487Y8186726D01*
X8313409Y8173705D01*
X8313410Y8173705D01*
X8313411Y8173704D01*
X8334480Y8166858D01*
X8352449Y8159416D01*
X8372196Y8149354D01*
X8394082Y8145888D01*
X8412997Y8141347D01*
X8434067Y8134500D01*
X8434069Y8134500D01*
X12620931Y8134500D01*
X12620933Y8134500D01*
X12642001Y8141346D01*
X12660917Y8145888D01*
X12682804Y8149354D01*
X12702544Y8159414D01*
X12720511Y8166856D01*
X12741590Y8173704D01*
X12759526Y8186737D01*
X12776088Y8196886D01*
X12795842Y8206950D01*
X12811334Y8222443D01*
X12811341Y8222448D01*
X13008481Y8419588D01*
X13643913Y9055022D01*
X13705234Y9088505D01*
X13774925Y9083521D01*
X13787880Y9077827D01*
X13794696Y9074354D01*
X13794697Y9074354D01*
X13794699Y9074353D01*
X13794698Y9074353D01*
X13888475Y9059501D01*
X13888481Y9059500D01*
X14251518Y9059501D01*
X14345304Y9074354D01*
X14458342Y9131950D01*
X14548050Y9221658D01*
X14605646Y9334696D01*
X14605646Y9334698D01*
X14605647Y9334699D01*
X14620500Y9428476D01*
X14620500Y9523000D01*
X14640185Y9590039D01*
X14692989Y9635794D01*
X14744500Y9647000D01*
X15158898Y9647000D01*
X15225937Y9627315D01*
X15271692Y9574511D01*
X15275080Y9566333D01*
X15321202Y9442672D01*
X15321206Y9442665D01*
X15407452Y9327456D01*
X15407455Y9327453D01*
X15522664Y9241207D01*
X15522671Y9241203D01*
X15657517Y9190909D01*
X15657516Y9190909D01*
X15664444Y9190165D01*
X15717127Y9184500D01*
X17112872Y9184501D01*
X17172483Y9190909D01*
X17307331Y9241204D01*
X17422546Y9327454D01*
X17508796Y9442669D01*
X17533761Y9509603D01*
X17554920Y9566333D01*
X17596791Y9622267D01*
X17662255Y9646684D01*
X17671102Y9647000D01*
X23771245Y9647000D01*
X23838284Y9627315D01*
X23858926Y9610681D01*
X26055180Y7414427D01*
X26088665Y7353104D01*
X26091499Y7326746D01*
X26091499Y-1890745D01*
X26071814Y-1957784D01*
X26055180Y-1978426D01*
X25210426Y-2823181D01*
X25149103Y-2856666D01*
X25122745Y-2859500D01*
X20076872Y-2859500D01*
X20009833Y-2839815D01*
X19964078Y-2787011D01*
X19954134Y-2717853D01*
X19966387Y-2679205D01*
X19969859Y-2672391D01*
X20026017Y-2562175D01*
X20026017Y-2562173D01*
X20026018Y-2562172D01*
X20026018Y-2562171D01*
X20033047Y-2517791D01*
X20040500Y-2470735D01*
X20040499Y-2357253D01*
X20060183Y-2290215D01*
X20076809Y-2269582D01*
X20335484Y-2010909D01*
X20335485Y-2010906D01*
X20342552Y-2003840D01*
X20342555Y-2003836D01*
X20358050Y-1988342D01*
X20368114Y-1968588D01*
X20378263Y-1952026D01*
X20391296Y-1934090D01*
X20398144Y-1913011D01*
X20405586Y-1895044D01*
X20415646Y-1875304D01*
X20419112Y-1853417D01*
X20423655Y-1834498D01*
X20430500Y-1813433D01*
X20430500Y-1794000D01*
X20450185Y-1726961D01*
X20502989Y-1681206D01*
X20554500Y-1670000D01*
X20700000Y-1670000D01*
X20810000Y-1560000D01*
X20810000Y-1482753D01*
X20829685Y-1415715D01*
X20846314Y-1395077D01*
X20903050Y-1338342D01*
X20960646Y-1225304D01*
X20960646Y-1225302D01*
X20960647Y-1225301D01*
X20975499Y-1131524D01*
X20975500Y-1131519D01*
X20975499Y-768482D01*
X20960646Y-674696D01*
X20903050Y-561658D01*
X20846316Y-504924D01*
X20812833Y-443604D01*
X20810000Y-417254D01*
X20810000Y-48390D01*
X23175824Y-48390D01*
X23205095Y-239466D01*
X23205098Y-239478D01*
X23272234Y-420748D01*
X23272238Y-420757D01*
X23374488Y-584803D01*
X23374489Y-584804D01*
X23374491Y-584807D01*
X23507677Y-724919D01*
X23666342Y-835353D01*
X23843988Y-911587D01*
X24033344Y-950500D01*
X24178207Y-950500D01*
X24322322Y-935845D01*
X24506759Y-877977D01*
X24506760Y-877976D01*
X24506768Y-877974D01*
X24675791Y-784159D01*
X24822468Y-658240D01*
X24940796Y-505373D01*
X25025930Y-331816D01*
X25074385Y-144674D01*
X25084176Y48390D01*
X25054903Y239474D01*
X24987764Y420753D01*
X24935020Y505373D01*
X24885511Y584804D01*
X24885510Y584805D01*
X24885509Y584807D01*
X24752323Y724919D01*
X24748469Y727602D01*
X24593657Y835354D01*
X24416012Y911587D01*
X24226656Y950500D01*
X24081794Y950500D01*
X24081793Y950500D01*
X23937677Y935846D01*
X23753240Y877978D01*
X23753225Y877971D01*
X23584211Y784161D01*
X23584206Y784158D01*
X23437533Y658242D01*
X23437531Y658241D01*
X23319205Y505376D01*
X23319203Y505372D01*
X23234068Y331813D01*
X23185616Y144683D01*
X23185615Y144677D01*
X23175824Y-48390D01*
X20810000Y-48390D01*
X20810000Y417246D01*
X20829685Y484286D01*
X20846314Y504923D01*
X20903050Y561658D01*
X20960646Y674696D01*
X20960646Y674698D01*
X20960647Y674699D01*
X20972776Y751285D01*
X20975500Y768481D01*
X20975499Y1131518D01*
X20960646Y1225304D01*
X20903050Y1338342D01*
X20903046Y1338346D01*
X20903045Y1338348D01*
X20874319Y1367074D01*
X20840834Y1428397D01*
X20838000Y1454755D01*
X20838000Y1806341D01*
X20837999Y1806371D01*
X20837999Y1835932D01*
X20837999Y1835933D01*
X20831153Y1856999D01*
X20826611Y1875920D01*
X20826441Y1876994D01*
X20823146Y1897804D01*
X20813086Y1917548D01*
X20805640Y1935526D01*
X20798797Y1956587D01*
X20798796Y1956588D01*
X20798796Y1956590D01*
X20785769Y1974519D01*
X20775604Y1991108D01*
X20773870Y1994511D01*
X20765550Y2010842D01*
X20675842Y2100550D01*
X20159215Y2617177D01*
X18559287Y4217107D01*
X18559256Y4217136D01*
X18538342Y4238050D01*
X18538341Y4238051D01*
X18518600Y4248110D01*
X18502014Y4258274D01*
X18484090Y4271296D01*
X18484091Y4271296D01*
X18463018Y4278143D01*
X18445045Y4285588D01*
X18425307Y4295645D01*
X18425304Y4295646D01*
X18403418Y4299113D01*
X18384507Y4303654D01*
X18363439Y4310499D01*
X18363434Y4310500D01*
X18363433Y4310500D01*
X18363429Y4310500D01*
X-6162745Y4310500D01*
X-6229784Y4330185D01*
X-6250426Y4346819D01*
X-6593181Y4689574D01*
X-6626666Y4750897D01*
X-6629500Y4777255D01*
X-6629500Y7275040D01*
X-6609815Y7342079D01*
X-6557011Y7387834D01*
X-6487853Y7397778D01*
X-6424297Y7368753D01*
X-6417819Y7362721D01*
X-6345384Y7290286D01*
X-6345375Y7290279D01*
X-6206196Y7207969D01*
X-6050911Y7162855D01*
X-6030000Y7161211D01*
X-6030000Y8066000D01*
X-6010315Y8133039D01*
X-5957511Y8178794D01*
X-5906000Y8190000D01*
X-5654000Y8190000D01*
X-5586961Y8170315D01*
X-5541206Y8117511D01*
X-5530000Y8066000D01*
X-5530000Y7161211D01*
X-5509090Y7162855D01*
X-5353805Y7207969D01*
X-5214626Y7290279D01*
X-5214617Y7290286D01*
X-5100286Y7404617D01*
X-5100279Y7404626D01*
X-5073058Y7450655D01*
X-5021990Y7498340D01*
X-4953248Y7510845D01*
X-4888659Y7484200D01*
X-4878649Y7475222D01*
X-4065085Y6661658D01*
X-3975377Y6571950D01*
X-3955640Y6561894D01*
X-3939054Y6551731D01*
X-3921125Y6538704D01*
X-3900054Y6531858D01*
X-3882077Y6524412D01*
X-3862339Y6514354D01*
X-3840457Y6510889D01*
X-3821544Y6506348D01*
X-3800468Y6499500D01*
X-3800467Y6499500D01*
X-796569Y6499500D01*
X-796567Y6499500D01*
X-775499Y6506346D01*
X-756583Y6510888D01*
X-734696Y6514354D01*
X-714956Y6524414D01*
X-696989Y6531856D01*
X-675910Y6538704D01*
X-657974Y6551737D01*
X-641412Y6561886D01*
X-621658Y6571950D01*
X-606166Y6587443D01*
X-606159Y6587448D01*
X720130Y7913737D01*
X2084573Y9278182D01*
X2145896Y9311666D01*
X2172254Y9314500D01*
X2283985Y9314500D01*
X2437365Y9352304D01*
X2437364Y9352304D01*
X2577240Y9425717D01*
X2695483Y9530470D01*
X2732406Y9583963D01*
X2786687Y9627952D01*
X2856135Y9635612D01*
X2918700Y9604509D01*
X2922136Y9601203D01*
X2974467Y9548872D01*
X3123688Y9456831D01*
X3123693Y9456829D01*
X3290115Y9401682D01*
X3290122Y9401681D01*
X3392832Y9391188D01*
X3842812Y9391188D01*
X3842813Y9391189D01*
X3842813Y10216187D01*
X4342813Y10216187D01*
X4342813Y9391188D01*
X4792785Y9391188D01*
X4792799Y9391189D01*
X4895510Y9401682D01*
X5061932Y9456829D01*
X5061937Y9456831D01*
X5211158Y9548872D01*
X5335128Y9672842D01*
X5427169Y9822063D01*
X5427171Y9822068D01*
X5482318Y9988490D01*
X5482319Y9988497D01*
X5492812Y10091201D01*
X5492813Y10091214D01*
X5492813Y10216187D01*
X4342813Y10216187D01*
X3842813Y10216187D01*
X3842813Y11541187D01*
X4342813Y11541187D01*
X4342813Y10716187D01*
X5492812Y10716187D01*
X5492812Y10841159D01*
X5492811Y10841174D01*
X5482318Y10943885D01*
X5427171Y11110307D01*
X5427169Y11110312D01*
X5335128Y11259533D01*
X5211158Y11383503D01*
X5061937Y11475544D01*
X5061932Y11475546D01*
X4895510Y11530693D01*
X4895503Y11530694D01*
X4792799Y11541187D01*
X4342813Y11541187D01*
X3842813Y11541187D01*
X3392841Y11541187D01*
X3392825Y11541186D01*
X3290115Y11530693D01*
X3123693Y11475546D01*
X3123684Y11475542D01*
X2969378Y11380365D01*
X2901986Y11361925D01*
X2857906Y11375760D01*
X2871780Y11338563D01*
X2856928Y11270290D01*
X2853635Y11264620D01*
X2758456Y11110312D01*
X2758454Y11110307D01*
X2703307Y10943885D01*
X2703306Y10943878D01*
X2692813Y10841174D01*
X2692813Y10648748D01*
X2673128Y10581709D01*
X2620324Y10535954D01*
X2551166Y10526010D01*
X2511188Y10538951D01*
X2437364Y10577697D01*
X2283986Y10615500D01*
X2283985Y10615500D01*
X2157880Y10615500D01*
X2090841Y10635185D01*
X2045086Y10687989D01*
X2035142Y10757147D01*
X2064167Y10820703D01*
X2070199Y10827181D01*
X2363204Y11120186D01*
X2660415Y11417399D01*
X2721738Y11450883D01*
X2789359Y11446048D01*
X2781892Y11505821D01*
X2812089Y11568828D01*
X2816575Y11573559D01*
X3797386Y12554370D01*
X3858709Y12587854D01*
X3885067Y12590688D01*
X4790684Y12590688D01*
X4790685Y12590688D01*
X4850296Y12597096D01*
X4985144Y12647391D01*
X5100359Y12733641D01*
X5186609Y12848856D01*
X5214831Y12924523D01*
X5218747Y12935021D01*
X5260619Y12990954D01*
X5326083Y13015371D01*
X5334929Y13015687D01*
X5452118Y13015687D01*
X5452120Y13015687D01*
X5473188Y13022533D01*
X5492104Y13027075D01*
X5513991Y13030541D01*
X5533731Y13040601D01*
X5551698Y13048043D01*
X5572777Y13054891D01*
X5590713Y13067924D01*
X5607275Y13078073D01*
X5627029Y13088137D01*
X5642521Y13103630D01*
X5642528Y13103635D01*
X5748894Y13210001D01*
X6096866Y13557975D01*
X6158187Y13591458D01*
X6203944Y13592765D01*
X6209696Y13591854D01*
X6303481Y13577000D01*
X6666518Y13577001D01*
X6760304Y13591854D01*
X6873342Y13649450D01*
X6963050Y13739158D01*
X7020646Y13852196D01*
X7020646Y13852198D01*
X7020647Y13852199D01*
X7035499Y13945976D01*
X7035500Y13945981D01*
X7035499Y15034018D01*
X7020646Y15127804D01*
X6963050Y15240842D01*
X6963046Y15240846D01*
X6963045Y15240848D01*
X6873347Y15330546D01*
X6873344Y15330548D01*
X6873342Y15330550D01*
X6771022Y15382685D01*
X6760301Y15388148D01*
X6666524Y15403000D01*
X6303482Y15403000D01*
X6222519Y15390177D01*
X6209696Y15388146D01*
X6096658Y15330550D01*
X6096656Y15330549D01*
X6096657Y15330549D01*
X6096652Y15330546D01*
X6006954Y15240848D01*
X6006951Y15240843D01*
X6006950Y15240842D01*
X5992325Y15212139D01*
X5949352Y15127802D01*
X5934500Y15034025D01*
X5934500Y14579756D01*
X5914815Y14512717D01*
X5898181Y14492075D01*
X5374711Y13968606D01*
X5313388Y13935121D01*
X5243696Y13940105D01*
X5187763Y13981976D01*
X5186605Y13983523D01*
X5100359Y14098733D01*
X5050732Y14135884D01*
X4985148Y14184981D01*
X4985141Y14184985D01*
X4850295Y14235279D01*
X4850296Y14235279D01*
X4790696Y14241686D01*
X4790694Y14241687D01*
X4790686Y14241687D01*
X4790677Y14241687D01*
X3394942Y14241687D01*
X3394936Y14241686D01*
X3335329Y14235279D01*
X3200484Y14184985D01*
X3200477Y14184981D01*
X3085268Y14098735D01*
X3085265Y14098732D01*
X2999019Y13983523D01*
X2999015Y13983516D01*
X2950037Y13852196D01*
X2948722Y13848670D01*
X2942313Y13789060D01*
X2942313Y13789053D01*
X2942313Y13789052D01*
X2942313Y13094864D01*
X2922628Y13027825D01*
X2869824Y12982070D01*
X2800666Y12972126D01*
X2737110Y13001151D01*
X2716265Y13024421D01*
X2695483Y13054530D01*
X2695479Y13054534D01*
X2695478Y13054535D01*
X2647273Y13097241D01*
X2610146Y13156430D01*
X2605500Y13190056D01*
X2605500Y13826184D01*
X2605499Y13826186D01*
X2605500Y13833433D01*
X2601569Y13845532D01*
X2595500Y13883850D01*
X2595500Y15419945D01*
X2615185Y15486984D01*
X2637274Y15512761D01*
X2685482Y15555469D01*
X2700783Y15577636D01*
X2775220Y15685477D01*
X2781169Y15701166D01*
X2823346Y15756867D01*
X2888943Y15780925D01*
X2957133Y15765699D01*
X2971415Y15756465D01*
X3010165Y15727457D01*
X3010168Y15727455D01*
X3010171Y15727453D01*
X3145017Y15677159D01*
X3145016Y15677159D01*
X3151944Y15676415D01*
X3204627Y15670750D01*
X4600372Y15670751D01*
X4659983Y15677159D01*
X4794831Y15727454D01*
X4910046Y15813704D01*
X4996296Y15928919D01*
X5000460Y15940085D01*
X5042329Y15996016D01*
X5107793Y16020434D01*
X5116641Y16020750D01*
X5160246Y16020750D01*
X5227285Y16001065D01*
X5247928Y15984430D01*
X5289153Y15943204D01*
X5289155Y15943203D01*
X5289158Y15943200D01*
X5394238Y15889659D01*
X5402198Y15885603D01*
X5495975Y15870751D01*
X5495981Y15870750D01*
X6584018Y15870751D01*
X6677804Y15885604D01*
X6790842Y15943200D01*
X6880550Y16032908D01*
X6938146Y16145946D01*
X6938146Y16145948D01*
X6938147Y16145949D01*
X6952999Y16239726D01*
X6953000Y16239731D01*
X6952999Y16602768D01*
X6938146Y16696554D01*
X6880550Y16809592D01*
X6880546Y16809596D01*
X6880545Y16809598D01*
X6790847Y16899296D01*
X6790844Y16899298D01*
X6790842Y16899300D01*
X6706792Y16942126D01*
X6677801Y16956898D01*
X6584024Y16971750D01*
X5495982Y16971750D01*
X5415019Y16958927D01*
X5402196Y16956896D01*
X5289158Y16899300D01*
X5289157Y16899299D01*
X5289152Y16899296D01*
X5255803Y16865947D01*
X5194480Y16832462D01*
X5124788Y16837448D01*
X5068855Y16879320D01*
X5047446Y16925116D01*
X5046591Y16928732D01*
X5046459Y16929085D01*
X4996296Y17063581D01*
X4996295Y17063582D01*
X4996293Y17063586D01*
X4910047Y17178795D01*
X4910044Y17178798D01*
X4794835Y17265044D01*
X4794828Y17265048D01*
X4659982Y17315342D01*
X4659983Y17315342D01*
X4600383Y17321749D01*
X4600381Y17321750D01*
X4600373Y17321750D01*
X4600364Y17321750D01*
X3204629Y17321750D01*
X3204623Y17321749D01*
X3145016Y17315342D01*
X3010171Y17265048D01*
X3010164Y17265044D01*
X2894955Y17178798D01*
X2894952Y17178795D01*
X2808706Y17063586D01*
X2808703Y17063581D01*
X2776566Y16977416D01*
X2734694Y16921483D01*
X2669230Y16897066D01*
X2660384Y16896750D01*
X2637817Y16896750D01*
X2637814Y16896750D01*
X2637812Y16896749D01*
X2616740Y16889903D01*
X2597832Y16885364D01*
X2575948Y16881897D01*
X2575944Y16881896D01*
X2556201Y16871837D01*
X2538237Y16864396D01*
X2517161Y16857547D01*
X2499235Y16844523D01*
X2482650Y16834360D01*
X2462909Y16824302D01*
X2451626Y16813019D01*
X2440344Y16801737D01*
X2440341Y16801734D01*
X2440336Y16801730D01*
X2315424Y16676818D01*
X2254101Y16643334D01*
X2227743Y16640500D01*
X2116014Y16640500D01*
X1962634Y16602697D01*
X1822762Y16529285D01*
X1704516Y16424529D01*
X1614781Y16294525D01*
X1614780Y16294524D01*
X1558762Y16146819D01*
X1539722Y15990001D01*
X1539722Y15990000D01*
X1558762Y15833182D01*
X1606678Y15706839D01*
X1614780Y15685477D01*
X1624944Y15670752D01*
X1704517Y15555469D01*
X1752726Y15512761D01*
X1789853Y15453572D01*
X1794500Y15419945D01*
X1794500Y13716566D01*
X1798432Y13704466D01*
X1804500Y13666150D01*
X1804500Y13190056D01*
X1784815Y13123017D01*
X1762727Y13097241D01*
X1714521Y13054535D01*
X1714515Y13054528D01*
X1624781Y12924525D01*
X1624780Y12924524D01*
X1568762Y12776819D01*
X1549722Y12620001D01*
X1549722Y12620000D01*
X1568762Y12463182D01*
X1619083Y12330499D01*
X1624780Y12315477D01*
X1714517Y12185470D01*
X1832760Y12080717D01*
X1832762Y12080716D01*
X1918445Y12035745D01*
X1968658Y11987160D01*
X1984632Y11919141D01*
X1961297Y11853284D01*
X1948500Y11838268D01*
X-2052948Y7836819D01*
X-2114271Y7803334D01*
X-2140629Y7800500D01*
X-2920378Y7800500D01*
X-2987417Y7820185D01*
X-3033172Y7872989D01*
X-3043116Y7942147D01*
X-3014091Y8005703D01*
X-3008059Y8012181D01*
X-2895124Y8125117D01*
X-2895117Y8125126D01*
X-2812807Y8264305D01*
X-2812805Y8264310D01*
X-2767694Y8419582D01*
X-2767693Y8419588D01*
X-2766048Y8440500D01*
X-3670838Y8440500D01*
X-3737877Y8460185D01*
X-3783632Y8512989D01*
X-3794838Y8564500D01*
X-3794838Y8852381D01*
X-3802004Y8865504D01*
X-3804838Y8891862D01*
X-3804838Y8940500D01*
X-3294838Y8940500D01*
X-2766048Y8940500D01*
X-2767693Y8961411D01*
X-2812807Y9116696D01*
X-2821167Y9130832D01*
X-2838351Y9198555D01*
X-2824288Y9246436D01*
X-2825908Y9247137D01*
X-2822946Y9253983D01*
X-2821593Y9255610D01*
X-2821155Y9257099D01*
X-2818822Y9261042D01*
X-2817650Y9260349D01*
X-2778259Y9307694D01*
X-2711628Y9328719D01*
X-2644207Y9310383D01*
X-2621077Y9289636D01*
X-2620074Y9290638D01*
X-2500222Y9170786D01*
X-2500213Y9170779D01*
X-2361034Y9088469D01*
X-2205749Y9043355D01*
X-2184838Y9041711D01*
X-2184838Y9570500D01*
X-1684838Y9570500D01*
X-1684838Y9041711D01*
X-1663928Y9043355D01*
X-1508643Y9088469D01*
X-1369464Y9170779D01*
X-1369455Y9170786D01*
X-1255124Y9285117D01*
X-1255117Y9285126D01*
X-1172807Y9424305D01*
X-1130334Y9570500D01*
X-1684838Y9570500D01*
X-2184838Y9570500D01*
X-2734838Y9570500D01*
X-2734838Y9554500D01*
X-2754523Y9487461D01*
X-2807327Y9441706D01*
X-2858838Y9430500D01*
X-3294838Y9430500D01*
X-3294838Y8940500D01*
X-3804838Y8940500D01*
X-3804838Y10419138D01*
X-3785153Y10486177D01*
X-3768519Y10506819D01*
X-3744838Y10530501D01*
X-3744838Y10816500D01*
X-3725153Y10883539D01*
X-3672349Y10929294D01*
X-3620838Y10940500D01*
X-3368838Y10940500D01*
X-3301799Y10920815D01*
X-3256044Y10868011D01*
X-3244838Y10816500D01*
X-3244838Y9930500D01*
X-2784838Y9930500D01*
X-2784838Y9946500D01*
X-2765153Y10013539D01*
X-2712349Y10059294D01*
X-2660838Y10070500D01*
X-1130334Y10070500D01*
X-1172807Y10216696D01*
X-1255117Y10355875D01*
X-1255121Y10355880D01*
X-1348076Y10448834D01*
X-1381561Y10510157D01*
X-1382868Y10555911D01*
X-1374338Y10609765D01*
X-1374339Y10951234D01*
X-1376210Y10963046D01*
X-1379050Y10980977D01*
X-1382633Y11003602D01*
X-1373679Y11072893D01*
X-1328683Y11126346D01*
X-1279558Y11145473D01*
X-1222663Y11154483D01*
X-1112447Y11210641D01*
X-1024979Y11298109D01*
X-968821Y11408325D01*
X-968821Y11408327D01*
X-968820Y11408328D01*
X-968820Y11408329D01*
X-962846Y11446048D01*
X-954338Y11499765D01*
X-954339Y11600994D01*
X-934655Y11668031D01*
X-918025Y11688669D01*
X158889Y12765583D01*
X178746Y12781707D01*
X187836Y12787645D01*
X209638Y12815658D01*
X214733Y12821426D01*
X217519Y12824211D01*
X230372Y12842215D01*
X231843Y12844188D01*
X264809Y12886540D01*
X264810Y12886546D01*
X268547Y12893451D01*
X272006Y12900526D01*
X272010Y12900530D01*
X287319Y12951955D01*
X288076Y12954316D01*
X305500Y13005069D01*
X305500Y13005070D01*
X305501Y13005072D01*
X306791Y13012805D01*
X307768Y13020643D01*
X305553Y13074202D01*
X305500Y13076765D01*
X305500Y19196250D01*
X2502501Y19196250D01*
X2502501Y19071264D01*
X2512994Y18968553D01*
X2568141Y18802131D01*
X2568143Y18802126D01*
X2660184Y18652905D01*
X2784154Y18528935D01*
X2933375Y18436894D01*
X2933380Y18436892D01*
X3099802Y18381745D01*
X3099809Y18381744D01*
X3202519Y18371251D01*
X3652499Y18371251D01*
X3652500Y18371252D01*
X3652500Y19196250D01*
X4152500Y19196250D01*
X4152500Y18371251D01*
X4602472Y18371251D01*
X4602486Y18371252D01*
X4705197Y18381745D01*
X4871619Y18436892D01*
X4871626Y18436895D01*
X4937902Y18477775D01*
X5005294Y18496216D01*
X5071958Y18475294D01*
X5116728Y18421653D01*
X5127000Y18372238D01*
X5127000Y18139733D01*
X5134161Y18094523D01*
X5141854Y18045946D01*
X5199450Y17932908D01*
X5199452Y17932906D01*
X5199454Y17932903D01*
X5289152Y17843205D01*
X5289154Y17843204D01*
X5289158Y17843200D01*
X5397156Y17788172D01*
X5402198Y17785603D01*
X5495975Y17770751D01*
X5495981Y17770750D01*
X6584018Y17770751D01*
X6677804Y17785604D01*
X6790842Y17843200D01*
X6880550Y17932908D01*
X6938146Y18045946D01*
X6938146Y18045948D01*
X6938147Y18045949D01*
X6948782Y18113103D01*
X6953000Y18139731D01*
X6952999Y18502768D01*
X6938146Y18596554D01*
X6880550Y18709592D01*
X6880546Y18709596D01*
X6880545Y18709598D01*
X6790847Y18799296D01*
X6790844Y18799298D01*
X6790842Y18799300D01*
X6714017Y18838445D01*
X6677801Y18856898D01*
X6584024Y18871750D01*
X5495980Y18871750D01*
X5437726Y18862524D01*
X5368432Y18871481D01*
X5314982Y18916478D01*
X5294344Y18983231D01*
X5294973Y18997602D01*
X5302499Y19071267D01*
X5302500Y19071277D01*
X5302500Y19196250D01*
X4152500Y19196250D01*
X3652500Y19196250D01*
X2502501Y19196250D01*
X305500Y19196250D01*
X305500Y20355500D01*
X325185Y20422539D01*
X377989Y20468294D01*
X429500Y20479500D01*
X534676Y20479500D01*
X534677Y20479501D01*
X607740Y20494034D01*
X690601Y20549399D01*
X745966Y20632260D01*
X760500Y20705326D01*
X760500Y21454674D01*
X760500Y21454675D01*
X760500Y21454677D01*
X760499Y21454679D01*
X745967Y21527736D01*
X745966Y21527740D01*
X735067Y21544052D01*
X690601Y21610601D01*
X690599Y21610603D01*
X690598Y21610604D01*
X688800Y21612402D01*
X686131Y21617290D01*
X683815Y21620756D01*
X684125Y21620964D01*
X655315Y21673725D01*
X660299Y21743417D01*
X688798Y21787762D01*
X1125965Y22224929D01*
X1187286Y22258412D01*
X1256978Y22253428D01*
X1256980Y22253427D01*
X1302623Y22236402D01*
X1362155Y22230001D01*
X1362172Y22230000D01*
X1660000Y22230000D01*
X1660000Y23206000D01*
X1679685Y23273039D01*
X1732489Y23318794D01*
X1784000Y23330000D01*
X2036000Y23330000D01*
X2103039Y23310315D01*
X2148794Y23257511D01*
X2160000Y23206000D01*
X2160000Y22230000D01*
X2457828Y22230000D01*
X2457844Y22230001D01*
X2517372Y22236402D01*
X2517376Y22236403D01*
X2652091Y22286649D01*
X2730393Y22345266D01*
X2795857Y22369684D01*
X2804705Y22370000D01*
X4407004Y22370000D01*
X4364531Y22516196D01*
X4282221Y22655375D01*
X4282217Y22655380D01*
X4189262Y22748334D01*
X4155777Y22809657D01*
X4154470Y22855411D01*
X4163000Y22909265D01*
X4162999Y23250734D01*
X4162999Y23250740D01*
X4162617Y23255596D01*
X4165029Y23255786D01*
X4172598Y23315192D01*
X4217499Y23368725D01*
X4284213Y23389484D01*
X4286206Y23389500D01*
X5027594Y23389500D01*
X5094633Y23369815D01*
X5140388Y23317011D01*
X5150883Y23252248D01*
X5144500Y23192873D01*
X5144500Y23192865D01*
X5144500Y22332966D01*
X5124815Y22265927D01*
X5108181Y22245285D01*
X4615048Y21752152D01*
X4553725Y21718667D01*
X4484033Y21723651D01*
X4428100Y21765523D01*
X4403683Y21830987D01*
X4407720Y21869048D01*
X4407005Y21870000D01*
X2797996Y21870000D01*
X2831669Y21754094D01*
X2831469Y21684225D01*
X2793526Y21625555D01*
X2729888Y21596712D01*
X2712592Y21595500D01*
X2650816Y21595500D01*
X2583777Y21615185D01*
X2581952Y21616380D01*
X2534079Y21648367D01*
X2507739Y21665967D01*
X2507735Y21665968D01*
X2434677Y21680500D01*
X2434674Y21680500D01*
X1785326Y21680500D01*
X1785323Y21680500D01*
X1712264Y21665968D01*
X1712260Y21665967D01*
X1629399Y21610601D01*
X1574033Y21527740D01*
X1574032Y21527736D01*
X1559500Y21454679D01*
X1559500Y20705322D01*
X1574032Y20632265D01*
X1574033Y20632261D01*
X1580882Y20622011D01*
X1629399Y20549399D01*
X1693126Y20506819D01*
X1712260Y20494034D01*
X1712264Y20494033D01*
X1785321Y20479501D01*
X1785324Y20479500D01*
X1785326Y20479500D01*
X2434676Y20479500D01*
X2434677Y20479501D01*
X2507740Y20494034D01*
X2590601Y20549399D01*
X2614055Y20584501D01*
X2650731Y20639390D01*
X2704343Y20684196D01*
X2753833Y20694500D01*
X2886357Y20694500D01*
X2953396Y20674815D01*
X2999151Y20622011D01*
X3009095Y20552853D01*
X2980070Y20489297D01*
X2938757Y20458116D01*
X2933381Y20455610D01*
X2784154Y20363566D01*
X2660184Y20239596D01*
X2568143Y20090375D01*
X2568141Y20090370D01*
X2512994Y19923948D01*
X2512993Y19923941D01*
X2502500Y19821237D01*
X2502500Y19696250D01*
X5302499Y19696250D01*
X9082500Y19696250D01*
X10232500Y19696250D01*
X10232500Y20521250D01*
X10732500Y20521250D01*
X10732500Y19696250D01*
X11882499Y19696250D01*
X11882499Y19821222D01*
X11882498Y19821237D01*
X11872005Y19923948D01*
X11816858Y20090370D01*
X11816856Y20090375D01*
X11724815Y20239596D01*
X11600845Y20363566D01*
X11451624Y20455607D01*
X11451619Y20455609D01*
X11285197Y20510756D01*
X11285190Y20510757D01*
X11182486Y20521250D01*
X10732500Y20521250D01*
X10232500Y20521250D01*
X9782528Y20521250D01*
X9782512Y20521249D01*
X9679802Y20510756D01*
X9513380Y20455609D01*
X9513375Y20455607D01*
X9364154Y20363566D01*
X9240184Y20239596D01*
X9148143Y20090375D01*
X9148141Y20090370D01*
X9092994Y19923948D01*
X9092993Y19923941D01*
X9082500Y19821237D01*
X9082500Y19696250D01*
X5302499Y19696250D01*
X5302499Y19821222D01*
X5302498Y19821237D01*
X5292005Y19923948D01*
X5236858Y20090370D01*
X5236856Y20090375D01*
X5144815Y20239596D01*
X5020845Y20363566D01*
X4871624Y20455607D01*
X4871621Y20455608D01*
X4797371Y20480212D01*
X4739927Y20519985D01*
X4713104Y20584501D01*
X4725419Y20653277D01*
X4772962Y20704477D01*
X4795436Y20714965D01*
X4795466Y20714976D01*
X4795472Y20714977D01*
X4847123Y20742277D01*
X4849038Y20743244D01*
X4901642Y20768575D01*
X4901643Y20768577D01*
X4901645Y20768577D01*
X4908695Y20773384D01*
X4915537Y20778433D01*
X4921634Y20784530D01*
X4956821Y20819719D01*
X4958420Y20821259D01*
X5001194Y20860945D01*
X5001196Y20860950D01*
X5006987Y20868210D01*
X5007643Y20867687D01*
X5017032Y20879930D01*
X5496015Y21358913D01*
X5557336Y21392396D01*
X5593801Y21394352D01*
X5593806Y21394436D01*
X5593806Y21394500D01*
X5593809Y21394501D01*
X5593819Y21394678D01*
X5596855Y21394516D01*
X5596942Y21394520D01*
X5597127Y21394500D01*
X6442872Y21394501D01*
X6502483Y21400909D01*
X6637331Y21451204D01*
X6752546Y21537454D01*
X6838796Y21652669D01*
X6889091Y21787517D01*
X6895500Y21847127D01*
X6895499Y23192872D01*
X6889278Y23250740D01*
X6889091Y23252484D01*
X6838797Y23387329D01*
X6838793Y23387336D01*
X6752547Y23502545D01*
X6752544Y23502548D01*
X6637335Y23588794D01*
X6637328Y23588798D01*
X6502482Y23639092D01*
X6502483Y23639092D01*
X6442883Y23645499D01*
X6442881Y23645500D01*
X6442873Y23645500D01*
X6442865Y23645500D01*
X6342965Y23645500D01*
X6275926Y23665185D01*
X6255284Y23681819D01*
X5798908Y24138195D01*
X5794271Y24143383D01*
X5793617Y24144203D01*
X5769879Y24173970D01*
X5769878Y24173971D01*
X5769877Y24173972D01*
X5744324Y24191393D01*
X5721669Y24206839D01*
X5719803Y24208164D01*
X5672886Y24242790D01*
X5672882Y24242793D01*
X5672877Y24242795D01*
X5665297Y24246802D01*
X5657675Y24250472D01*
X5601941Y24267663D01*
X5599752Y24268383D01*
X5580217Y24275218D01*
X5544695Y24287648D01*
X5536326Y24289232D01*
X5527904Y24290500D01*
X5527902Y24290500D01*
X5469578Y24290500D01*
X5467294Y24290543D01*
X5443402Y24291437D01*
X5408989Y24292725D01*
X5399756Y24291684D01*
X5399662Y24292514D01*
X5384364Y24290500D01*
X4367856Y24290500D01*
X4300817Y24310185D01*
X4280175Y24326819D01*
X3690905Y24916089D01*
X3657420Y24977412D01*
X3655490Y24988823D01*
X3645715Y25069326D01*
X3657175Y25138246D01*
X3704079Y25190033D01*
X3725482Y25200453D01*
X3742085Y25206645D01*
X3742093Y25206650D01*
X3857187Y25292810D01*
X3857190Y25292813D01*
X3943350Y25407907D01*
X3943354Y25407914D01*
X3993596Y25542621D01*
X3993598Y25542628D01*
X3999999Y25602156D01*
X4000000Y25602173D01*
X4000000Y25975000D01*
X3074500Y25975000D01*
X3007461Y25994685D01*
X2961706Y26047489D01*
X2950500Y26099000D01*
X2950500Y26400500D01*
X2970185Y26467539D01*
X3022989Y26513294D01*
X3074500Y26524500D01*
X3349138Y26524500D01*
X3416177Y26504815D01*
X3436819Y26488181D01*
X3450000Y26475000D01*
X3788273Y26475000D01*
X3855312Y26455315D01*
X3877555Y26437051D01*
X3942151Y26370030D01*
X3942152Y26370028D01*
X4060188Y26295670D01*
X4065080Y26292588D01*
X4202966Y26246817D01*
X4318153Y26237717D01*
X4347796Y26235375D01*
X4347796Y26235376D01*
X4347799Y26235375D01*
X4491162Y26258926D01*
X4624723Y26316102D01*
X4740719Y26403580D01*
X4832411Y26516275D01*
X4839498Y26531278D01*
X4885928Y26583486D01*
X4953216Y26602306D01*
X5019996Y26581759D01*
X5036712Y26568510D01*
X5168778Y26443911D01*
X5168780Y26443910D01*
X5168782Y26443908D01*
X5320719Y26356188D01*
X5488790Y26305870D01*
X5663935Y26295669D01*
X5836711Y26326135D01*
X5997804Y26395623D01*
X6138530Y26500390D01*
X6251302Y26634786D01*
X6330040Y26791567D01*
X6370500Y26962279D01*
X6370500Y27893709D01*
X6355241Y28024255D01*
X6295237Y28189117D01*
X6245187Y28265214D01*
X6198832Y28335694D01*
X6198831Y28335695D01*
X6071221Y28456090D01*
X5995126Y28500023D01*
X5919281Y28543812D01*
X5919282Y28543812D01*
X5751210Y28594130D01*
X5751205Y28594131D01*
X5576066Y28604331D01*
X5576065Y28604331D01*
X5518220Y28594131D01*
X5403293Y28573866D01*
X5403291Y28573866D01*
X5403289Y28573865D01*
X5403285Y28573864D01*
X5403287Y28573864D01*
X5242198Y28504378D01*
X5242190Y28504374D01*
X5118548Y28412324D01*
X5053019Y28388080D01*
X4984786Y28403112D01*
X4935511Y28452648D01*
X4920500Y28511787D01*
X4920500Y30190686D01*
X4940185Y30257725D01*
X4992989Y30303480D01*
X5062147Y30313424D01*
X5125703Y30284399D01*
X5129595Y30280879D01*
X5168778Y30243911D01*
X5168780Y30243910D01*
X5168782Y30243908D01*
X5320719Y30156188D01*
X5488790Y30105870D01*
X5663935Y30095669D01*
X5836711Y30126135D01*
X5997804Y30195623D01*
X6138530Y30300390D01*
X6251302Y30434786D01*
X6330040Y30591567D01*
X6370500Y30762279D01*
X6370500Y32093709D01*
X6355241Y32224255D01*
X6295237Y32389117D01*
X6245187Y32465214D01*
X6198832Y32535694D01*
X6198831Y32535695D01*
X6071221Y32656090D01*
X6052523Y32666885D01*
X5919281Y32743812D01*
X5919282Y32743812D01*
X5751210Y32794130D01*
X5751205Y32794131D01*
X5576066Y32804331D01*
X5576065Y32804331D01*
X5518220Y32794131D01*
X5403293Y32773866D01*
X5403291Y32773866D01*
X5403289Y32773865D01*
X5403285Y32773864D01*
X5403287Y32773864D01*
X5242198Y32704378D01*
X5242190Y32704374D01*
X5118548Y32612324D01*
X5053019Y32588080D01*
X4984786Y32603112D01*
X4935511Y32652648D01*
X4920500Y32711787D01*
X4920500Y33056779D01*
X4940185Y33123818D01*
X4992989Y33169573D01*
X5062147Y33179517D01*
X5063000Y33179391D01*
G37*
%TD.AperFunction*%
%TA.AperFunction,Conductor*%
G36*
X-4998555Y33169307D02*
G01*
X-4945375Y33123990D01*
X-4925137Y33057116D01*
X-4925133Y33056184D01*
X-4924877Y32713537D01*
X-4944512Y32646482D01*
X-4997281Y32600688D01*
X-5066432Y32590693D01*
X-5130010Y32619670D01*
X-5133972Y32623250D01*
X-5168782Y32656092D01*
X-5320719Y32743812D01*
X-5320718Y32743812D01*
X-5488790Y32794130D01*
X-5488795Y32794131D01*
X-5663934Y32804331D01*
X-5663935Y32804331D01*
X-5721780Y32794131D01*
X-5836707Y32773866D01*
X-5836709Y32773866D01*
X-5836711Y32773865D01*
X-5836715Y32773864D01*
X-5836713Y32773864D01*
X-5997802Y32704378D01*
X-5997810Y32704374D01*
X-6138531Y32599610D01*
X-6251302Y32465215D01*
X-6251303Y32465213D01*
X-6330039Y32308438D01*
X-6330041Y32308433D01*
X-6330040Y32308433D01*
X-6370500Y32137721D01*
X-6370500Y30806291D01*
X-6356937Y30690251D01*
X-6355241Y30675744D01*
X-6355240Y30675741D01*
X-6295238Y30510885D01*
X-6295236Y30510881D01*
X-6198833Y30364307D01*
X-6198832Y30364306D01*
X-6071222Y30243911D01*
X-6071220Y30243910D01*
X-6071218Y30243908D01*
X-5919281Y30156188D01*
X-5751210Y30105870D01*
X-5576065Y30095669D01*
X-5403289Y30126135D01*
X-5242196Y30195623D01*
X-5121038Y30285823D01*
X-5055511Y30310066D01*
X-4987277Y30295034D01*
X-4938002Y30245499D01*
X-4922991Y30186452D01*
X-4921740Y28510578D01*
X-4941375Y28443523D01*
X-4994144Y28397729D01*
X-5063295Y28387734D01*
X-5126873Y28416711D01*
X-5130834Y28420291D01*
X-5168779Y28456090D01*
X-5244874Y28500023D01*
X-5320719Y28543812D01*
X-5320718Y28543812D01*
X-5488790Y28594130D01*
X-5488795Y28594131D01*
X-5663934Y28604331D01*
X-5663935Y28604331D01*
X-5721780Y28594131D01*
X-5836707Y28573866D01*
X-5836709Y28573866D01*
X-5836711Y28573865D01*
X-5836715Y28573864D01*
X-5836713Y28573864D01*
X-5997802Y28504378D01*
X-5997810Y28504374D01*
X-6138531Y28399610D01*
X-6251302Y28265215D01*
X-6251303Y28265213D01*
X-6330039Y28108438D01*
X-6330041Y28108433D01*
X-6330040Y28108433D01*
X-6370500Y27937721D01*
X-6370500Y27006291D01*
X-6360257Y26918657D01*
X-6355241Y26875744D01*
X-6355240Y26875741D01*
X-6295238Y26710885D01*
X-6295236Y26710881D01*
X-6198833Y26564307D01*
X-6198832Y26564306D01*
X-6198831Y26564305D01*
X-6198830Y26564304D01*
X-6188886Y26554922D01*
X-6071222Y26443911D01*
X-6071220Y26443910D01*
X-6071218Y26443908D01*
X-5919281Y26356188D01*
X-5751210Y26305870D01*
X-5576065Y26295669D01*
X-5403289Y26326135D01*
X-5242196Y26395623D01*
X-5101470Y26500390D01*
X-5048949Y26562983D01*
X-4990781Y26601683D01*
X-4920920Y26602792D01*
X-4861550Y26565955D01*
X-4841844Y26536242D01*
X-4832411Y26516275D01*
X-4750010Y26415000D01*
X-4740718Y26403579D01*
X-4624725Y26316103D01*
X-4624724Y26316103D01*
X-4624723Y26316102D01*
X-4491162Y26258926D01*
X-4347799Y26235375D01*
X-4347798Y26235376D01*
X-4347797Y26235375D01*
X-4328036Y26236937D01*
X-4202966Y26246817D01*
X-4065080Y26292588D01*
X-3942154Y26370027D01*
X-3877556Y26437051D01*
X-3816859Y26471660D01*
X-3788273Y26475000D01*
X-3450000Y26475000D01*
X-3436819Y26488181D01*
X-3375496Y26521666D01*
X-3349138Y26524500D01*
X-3074500Y26524500D01*
X-3007461Y26504815D01*
X-2961706Y26452011D01*
X-2950500Y26400500D01*
X-2950500Y26099000D01*
X-2970185Y26031961D01*
X-3022989Y25986206D01*
X-3074500Y25975000D01*
X-4000000Y25975000D01*
X-4000000Y25602156D01*
X-3993599Y25542628D01*
X-3993597Y25542621D01*
X-3943355Y25407914D01*
X-3943351Y25407907D01*
X-3857191Y25292813D01*
X-3857188Y25292810D01*
X-3742094Y25206650D01*
X-3742087Y25206646D01*
X-3607380Y25156404D01*
X-3607373Y25156402D01*
X-3547845Y25150001D01*
X-3547828Y25150000D01*
X-3323676Y25150000D01*
X-3256637Y25130315D01*
X-3210882Y25077511D01*
X-3200580Y25011054D01*
X-3215278Y24890001D01*
X-3215278Y24890000D01*
X-3196238Y24733182D01*
X-3150615Y24612886D01*
X-3140220Y24585477D01*
X-3050483Y24455470D01*
X-2932240Y24350717D01*
X-2932238Y24350716D01*
X-2792366Y24277304D01*
X-2638986Y24239500D01*
X-2638985Y24239500D01*
X-2481015Y24239500D01*
X-2327635Y24277304D01*
X-2282127Y24301190D01*
X-2213618Y24314915D01*
X-2148565Y24289423D01*
X-2107620Y24232807D01*
X-2100500Y24191393D01*
X-2100500Y23833113D01*
X-2120185Y23766074D01*
X-2136819Y23745432D01*
X-2169855Y23712397D01*
X-2169857Y23712393D01*
X-2169859Y23712391D01*
X-2183815Y23685000D01*
X-2226019Y23602173D01*
X-2226019Y23602172D01*
X-2240500Y23510736D01*
X-2240500Y23169267D01*
X-2231970Y23115413D01*
X-2240926Y23046119D01*
X-2266763Y23008335D01*
X-2359715Y22915384D01*
X-2359722Y22915375D01*
X-2442032Y22776196D01*
X-2484504Y22630000D01*
X-875496Y22630000D01*
X-917969Y22776196D01*
X-1000279Y22915375D01*
X-1000283Y22915380D01*
X-1093238Y23008334D01*
X-1126723Y23069657D01*
X-1128030Y23115413D01*
X-1119500Y23169265D01*
X-1119501Y23510734D01*
X-1119501Y23510736D01*
X-1119501Y23510740D01*
X-1133982Y23602171D01*
X-1133982Y23602172D01*
X-1133983Y23602174D01*
X-1133983Y23602175D01*
X-1190141Y23712391D01*
X-1190143Y23712393D01*
X-1190146Y23712397D01*
X-1277604Y23799855D01*
X-1277608Y23799858D01*
X-1277609Y23799859D01*
X-1289396Y23805865D01*
X-1331796Y23827469D01*
X-1382591Y23875443D01*
X-1399500Y23937953D01*
X-1399500Y24497265D01*
X-1379815Y24564304D01*
X-1327011Y24610059D01*
X-1257853Y24620003D01*
X-1194297Y24590978D01*
X-1191570Y24588543D01*
X-1170975Y24569583D01*
X-1169151Y24567834D01*
X-541957Y23940639D01*
X-337930Y23736612D01*
X-321805Y23716756D01*
X-310246Y23699065D01*
X-312079Y23697868D01*
X-287203Y23647470D01*
X-295060Y23578044D01*
X-306250Y23557249D01*
X-325966Y23527742D01*
X-325968Y23527736D01*
X-340500Y23454679D01*
X-340500Y22705322D01*
X-325968Y22632265D01*
X-325965Y22632258D01*
X-318099Y22620485D01*
X-297222Y22553807D01*
X-315708Y22486428D01*
X-333521Y22463915D01*
X-685227Y22112208D01*
X-746550Y22078723D01*
X-816241Y22083707D01*
X-872069Y22125437D01*
X-875495Y22130000D01*
X-1430000Y22130000D01*
X-1430000Y21601211D01*
X-1409090Y21602855D01*
X-1253807Y21647968D01*
X-1152622Y21707809D01*
X-1084898Y21724992D01*
X-1018635Y21702832D01*
X-974872Y21648367D01*
X-965500Y21601077D01*
X-965500Y16194749D01*
X-985185Y16127710D01*
X-1037989Y16081955D01*
X-1107147Y16072011D01*
X-1119173Y16074352D01*
X-1165512Y16085773D01*
X-1165515Y16085773D01*
X-1277245Y16085773D01*
X-1344284Y16105458D01*
X-1364926Y16122092D01*
X-1403181Y16160347D01*
X-1436666Y16221670D01*
X-1439500Y16248028D01*
X-1439500Y18909503D01*
X-1439501Y18909533D01*
X-1439501Y18939094D01*
X-1439501Y18939095D01*
X-1446347Y18960161D01*
X-1450889Y18979082D01*
X-1451546Y18983231D01*
X-1454354Y19000966D01*
X-1464414Y19020710D01*
X-1471860Y19038688D01*
X-1478703Y19059749D01*
X-1478704Y19059750D01*
X-1478704Y19059752D01*
X-1491731Y19077681D01*
X-1501896Y19094270D01*
X-1511950Y19114004D01*
X-1601658Y19203712D01*
X-4527945Y22130000D01*
X-2484504Y22130000D01*
X-2442032Y21983805D01*
X-2359722Y21844626D01*
X-2359715Y21844617D01*
X-2245384Y21730286D01*
X-2245375Y21730279D01*
X-2106196Y21647969D01*
X-1950911Y21602855D01*
X-1930000Y21601211D01*
X-1930000Y22130000D01*
X-2484504Y22130000D01*
X-4527945Y22130000D01*
X-6255051Y23857107D01*
X-6255082Y23857136D01*
X-6275996Y23878050D01*
X-6275997Y23878051D01*
X-6282896Y23884950D01*
X-6280422Y23887425D01*
X-6312285Y23928731D01*
X-6318277Y23998343D01*
X-6303473Y24036862D01*
X-6257970Y24113803D01*
X-6257969Y24113805D01*
X-6215496Y24260000D01*
X-7146000Y24260000D01*
X-7213039Y24279685D01*
X-7258794Y24332489D01*
X-7270000Y24384000D01*
X-7270000Y25288790D01*
X-7270001Y25288791D01*
X-6770000Y25288791D01*
X-6770000Y24760000D01*
X-6215496Y24760000D01*
X-6257969Y24906196D01*
X-6340279Y25045375D01*
X-6340286Y25045384D01*
X-6454617Y25159715D01*
X-6454626Y25159722D01*
X-6593805Y25242032D01*
X-6593810Y25242034D01*
X-6749082Y25287145D01*
X-6749088Y25287146D01*
X-6770000Y25288791D01*
X-7270001Y25288791D01*
X-7290913Y25287146D01*
X-7290919Y25287145D01*
X-7446191Y25242034D01*
X-7446196Y25242032D01*
X-7585375Y25159722D01*
X-7585384Y25159715D01*
X-7699715Y25045384D01*
X-7699722Y25045375D01*
X-7782031Y24906197D01*
X-7827146Y24750911D01*
X-7827148Y24750901D01*
X-7827354Y24748272D01*
X-7827879Y24746897D01*
X-7828284Y24744676D01*
X-7828697Y24744752D01*
X-7852241Y24682985D01*
X-7908474Y24641517D01*
X-7968448Y24635719D01*
X-7968455Y24635618D01*
X-7969023Y24635663D01*
X-7970363Y24635533D01*
X-7973313Y24636000D01*
X-9336356Y24636000D01*
X-9417319Y24623177D01*
X-9430142Y24621146D01*
X-9543180Y24563550D01*
X-9543182Y24563549D01*
X-9543181Y24563549D01*
X-9543185Y24563547D01*
X-9584410Y24522320D01*
X-9645733Y24488834D01*
X-9672092Y24486000D01*
X-10133245Y24486000D01*
X-10200284Y24505685D01*
X-10246039Y24558489D01*
X-10255983Y24627647D01*
X-10226958Y24691203D01*
X-10220926Y24697681D01*
X-10157448Y24761159D01*
X-10157443Y24761166D01*
X-10141950Y24776658D01*
X-10131891Y24796402D01*
X-10121731Y24812982D01*
X-10108704Y24830911D01*
X-10101858Y24851983D01*
X-10094412Y24869957D01*
X-10084354Y24889696D01*
X-10080888Y24911584D01*
X-10076349Y24930490D01*
X-10069500Y24951567D01*
X-10069500Y25078433D01*
X-10069500Y25964100D01*
X-10049815Y26031139D01*
X-10029038Y26055737D01*
X-9903238Y26170419D01*
X-9903236Y26170421D01*
X-9780327Y26333179D01*
X-9704724Y26485011D01*
X-9693183Y26508188D01*
X-9645681Y26559425D01*
X-9578018Y26576847D01*
X-9511677Y26554922D01*
X-9467722Y26500611D01*
X-9462408Y26485011D01*
X-9453433Y26451515D01*
X-9453430Y26451508D01*
X-9353601Y26237422D01*
X-9218106Y26043918D01*
X-9051083Y25876895D01*
X-8857579Y25741400D01*
X-8643493Y25641571D01*
X-8643484Y25641567D01*
X-8430000Y25584366D01*
X-8430000Y26479499D01*
X-8322315Y26430320D01*
X-8215763Y26415000D01*
X-8144237Y26415000D01*
X-8037685Y26430320D01*
X-7930000Y26479499D01*
X-7930000Y25584367D01*
X-7716517Y25641567D01*
X-7716508Y25641571D01*
X-7502422Y25741400D01*
X-7308918Y25876895D01*
X-7141895Y26043918D01*
X-7006400Y26237422D01*
X-6906571Y26451508D01*
X-6906568Y26451514D01*
X-6849364Y26665000D01*
X-7746314Y26665000D01*
X-7720507Y26705156D01*
X-7680000Y26843111D01*
X-7680000Y26986889D01*
X-7720507Y27124844D01*
X-7746314Y27165000D01*
X-6849364Y27165000D01*
X-6849365Y27165001D01*
X-6906568Y27378487D01*
X-6906571Y27378493D01*
X-7006400Y27592578D01*
X-7006401Y27592580D01*
X-7141887Y27786074D01*
X-7141892Y27786080D01*
X-7308918Y27953106D01*
X-7502422Y28088601D01*
X-7716508Y28188430D01*
X-7716514Y28188433D01*
X-7930000Y28245636D01*
X-7930000Y27350502D01*
X-8037685Y27399680D01*
X-8144237Y27415000D01*
X-8215763Y27415000D01*
X-8322315Y27399680D01*
X-8430000Y27350502D01*
X-8430000Y28245636D01*
X-8430001Y28245636D01*
X-8643487Y28188433D01*
X-8643493Y28188430D01*
X-8857578Y28088601D01*
X-8857580Y28088600D01*
X-9051074Y27953114D01*
X-9051080Y27953109D01*
X-9218109Y27786080D01*
X-9218114Y27786074D01*
X-9353600Y27592580D01*
X-9353601Y27592578D01*
X-9453430Y27378493D01*
X-9453432Y27378489D01*
X-9462408Y27344989D01*
X-9498774Y27285329D01*
X-9561621Y27254801D01*
X-9630997Y27263096D01*
X-9684874Y27307582D01*
X-9693183Y27321812D01*
X-9739585Y27415000D01*
X-9780327Y27496821D01*
X-9903236Y27659579D01*
X-9903238Y27659582D01*
X-10053959Y27796981D01*
X-10053961Y27796983D01*
X-10227358Y27904345D01*
X-10227365Y27904349D01*
X-10353231Y27953109D01*
X-10417544Y27978024D01*
X-10618024Y28015500D01*
X-10821976Y28015500D01*
X-11022456Y27978024D01*
X-11022459Y27978024D01*
X-11022459Y27978023D01*
X-11212636Y27904349D01*
X-11212643Y27904345D01*
X-11386040Y27796983D01*
X-11386042Y27796981D01*
X-11536763Y27659582D01*
X-11659673Y27496822D01*
X-11750578Y27314261D01*
X-11750583Y27314248D01*
X-11806398Y27118083D01*
X-11825215Y26915001D01*
X-11825215Y26915000D01*
X-11806398Y26711918D01*
X-11750583Y26515753D01*
X-11750578Y26515740D01*
X-11659673Y26333179D01*
X-11536763Y26170419D01*
X-11386042Y26033020D01*
X-11386040Y26033018D01*
X-11310435Y25986206D01*
X-11212637Y25925652D01*
X-11106150Y25884399D01*
X-11022462Y25851978D01*
X-11022456Y25851976D01*
X-10971714Y25842491D01*
X-10909435Y25810825D01*
X-10874161Y25750513D01*
X-10870500Y25720603D01*
X-10870500Y25232255D01*
X-10890185Y25165216D01*
X-10906819Y25144574D01*
X-11979574Y24071819D01*
X-12040897Y24038334D01*
X-12067255Y24035500D01*
X-13597746Y24035500D01*
X-13664785Y24055185D01*
X-13685427Y24071819D01*
X-15216425Y25602819D01*
X-15249910Y25664142D01*
X-15244926Y25733834D01*
X-15203054Y25789767D01*
X-15137590Y25814184D01*
X-15128744Y25814500D01*
X-14925324Y25814500D01*
X-14925323Y25814501D01*
X-14852260Y25829034D01*
X-14769399Y25884399D01*
X-14714034Y25967260D01*
X-14699500Y26040326D01*
X-14699500Y26915000D01*
X-14365215Y26915000D01*
X-14346398Y26711918D01*
X-14290583Y26515753D01*
X-14290578Y26515740D01*
X-14199673Y26333179D01*
X-14076763Y26170419D01*
X-13926042Y26033020D01*
X-13926040Y26033018D01*
X-13850435Y25986206D01*
X-13752637Y25925652D01*
X-13562456Y25851976D01*
X-13361976Y25814500D01*
X-13361974Y25814500D01*
X-13158026Y25814500D01*
X-13158024Y25814500D01*
X-12957544Y25851976D01*
X-12767363Y25925652D01*
X-12593959Y26033019D01*
X-12443236Y26170421D01*
X-12320327Y26333179D01*
X-12229418Y26515750D01*
X-12173603Y26711917D01*
X-12154785Y26915000D01*
X-12160288Y26974383D01*
X-12173603Y27118083D01*
X-12186952Y27165000D01*
X-12229418Y27314250D01*
X-12320327Y27496821D01*
X-12443236Y27659579D01*
X-12443238Y27659582D01*
X-12593959Y27796981D01*
X-12593961Y27796983D01*
X-12767358Y27904345D01*
X-12767365Y27904349D01*
X-12893231Y27953109D01*
X-12957544Y27978024D01*
X-13158024Y28015500D01*
X-13361976Y28015500D01*
X-13562456Y27978024D01*
X-13562459Y27978024D01*
X-13562459Y27978023D01*
X-13752636Y27904349D01*
X-13752643Y27904345D01*
X-13926040Y27796983D01*
X-13926042Y27796981D01*
X-14076763Y27659582D01*
X-14199673Y27496822D01*
X-14290578Y27314261D01*
X-14290583Y27314248D01*
X-14346398Y27118083D01*
X-14365215Y26915001D01*
X-14365215Y26915000D01*
X-14699500Y26915000D01*
X-14699500Y27789674D01*
X-14699500Y27789675D01*
X-14699500Y27789677D01*
X-14699501Y27789679D01*
X-14714033Y27862736D01*
X-14714034Y27862740D01*
X-14734722Y27893702D01*
X-14769399Y27945601D01*
X-14852260Y28000966D01*
X-14852261Y28000967D01*
X-14852265Y28000968D01*
X-14925323Y28015500D01*
X-14925326Y28015500D01*
X-16674674Y28015500D01*
X-16674677Y28015500D01*
X-16747736Y28000968D01*
X-16747740Y28000967D01*
X-16830601Y27945601D01*
X-16885967Y27862740D01*
X-16885968Y27862736D01*
X-16900500Y27789679D01*
X-16900500Y27276545D01*
X-16920185Y27209506D01*
X-16936819Y27188864D01*
X-22293045Y21832639D01*
X-22312894Y21816518D01*
X-22320669Y21811438D01*
X-22340857Y21785502D01*
X-22345933Y21779752D01*
X-22348366Y21777319D01*
X-22348376Y21777306D01*
X-22360305Y21760599D01*
X-22361836Y21758547D01*
X-22392517Y21719128D01*
X-22396025Y21712647D01*
X-22399239Y21706069D01*
X-22399240Y21706067D01*
X-22399240Y21706066D01*
X-22405743Y21684225D01*
X-22413494Y21658191D01*
X-22414275Y21655754D01*
X-22430501Y21608488D01*
X-22431706Y21601267D01*
X-22432618Y21593954D01*
X-22430553Y21544052D01*
X-22430500Y21541490D01*
X-22430500Y19028430D01*
X-22450185Y18961391D01*
X-22502989Y18915636D01*
X-22572147Y18905692D01*
X-22635703Y18934717D01*
X-22642181Y18940749D01*
X-23351754Y19650321D01*
X-23385239Y19711644D01*
X-23387169Y19752945D01*
X-23377165Y19835329D01*
X-23396206Y19992147D01*
X-23452223Y20139852D01*
X-23541960Y20269859D01*
X-23660203Y20374612D01*
X-23660205Y20374613D01*
X-23660206Y20374614D01*
X-23800078Y20448026D01*
X-23953457Y20485829D01*
X-23953458Y20485829D01*
X-24111428Y20485829D01*
X-24111429Y20485829D01*
X-24264809Y20448026D01*
X-24404681Y20374614D01*
X-24522927Y20269858D01*
X-24612662Y20139854D01*
X-24612663Y20139853D01*
X-24668681Y19992148D01*
X-24687721Y19835330D01*
X-24687721Y19835329D01*
X-24668681Y19678511D01*
X-24627907Y19571000D01*
X-24612663Y19530806D01*
X-24522926Y19400799D01*
X-24404683Y19296046D01*
X-24404681Y19296045D01*
X-24264809Y19222633D01*
X-24111429Y19184829D01*
X-24111428Y19184829D01*
X-23953457Y19184829D01*
X-23946012Y19185733D01*
X-23945606Y19182388D01*
X-23890984Y19180108D01*
X-23843168Y19150372D01*
X-22956819Y18264023D01*
X-22923334Y18202700D01*
X-22920500Y18176342D01*
X-22920500Y10923526D01*
X-22923139Y10898082D01*
X-22925043Y10889003D01*
X-22925043Y10888997D01*
X-22920977Y10856377D01*
X-22920500Y10848700D01*
X-22920500Y10845274D01*
X-22919816Y10841174D01*
X-22917124Y10825038D01*
X-22916755Y10822506D01*
X-22910573Y10772921D01*
X-22908480Y10765888D01*
X-22906093Y10758935D01*
X-22906092Y10758933D01*
X-22905125Y10757147D01*
X-22882309Y10714984D01*
X-22881136Y10712706D01*
X-22859198Y10667830D01*
X-22859196Y10667828D01*
X-22854929Y10661850D01*
X-22850418Y10656055D01*
X-22813659Y10622216D01*
X-22811810Y10620442D01*
X-22208324Y10016956D01*
X-22192197Y9997098D01*
X-22187123Y9989331D01*
X-22187121Y9989329D01*
X-22161181Y9969140D01*
X-22155418Y9964050D01*
X-22152992Y9961624D01*
X-22136287Y9949697D01*
X-22134254Y9948182D01*
X-22094812Y9917483D01*
X-22094811Y9917483D01*
X-22094810Y9917482D01*
X-22088354Y9913988D01*
X-22081755Y9910762D01*
X-22081752Y9910760D01*
X-22033834Y9896495D01*
X-22031439Y9895727D01*
X-21984174Y9879500D01*
X-21984172Y9879500D01*
X-21976932Y9878292D01*
X-21969639Y9877383D01*
X-21919724Y9879448D01*
X-21917165Y9879500D01*
X-16623845Y9879500D01*
X-16556806Y9859815D01*
X-16511051Y9807011D01*
X-16501107Y9737853D01*
X-16507903Y9711529D01*
X-16536237Y9636819D01*
X-16555278Y9480001D01*
X-16555278Y9480000D01*
X-16536238Y9323182D01*
X-16492123Y9206863D01*
X-16480220Y9175477D01*
X-16390483Y9045470D01*
X-16272240Y8940717D01*
X-16265998Y8937441D01*
X-16132366Y8867304D01*
X-15978986Y8829500D01*
X-15978985Y8829500D01*
X-15821015Y8829500D01*
X-15667635Y8867304D01*
X-15658684Y8872002D01*
X-15527760Y8940717D01*
X-15409517Y9045470D01*
X-15381073Y9086680D01*
X-15326791Y9130671D01*
X-15294359Y9139289D01*
X-15293244Y9139427D01*
X-15293236Y9139432D01*
X-15286186Y9141530D01*
X-15279260Y9143908D01*
X-15279256Y9143908D01*
X-15245503Y9162175D01*
X-15235308Y9167692D01*
X-15233047Y9168857D01*
X-15188153Y9190802D01*
X-15188150Y9190806D01*
X-15182184Y9195065D01*
X-15176383Y9199581D01*
X-15176379Y9199582D01*
X-15142536Y9236347D01*
X-15140811Y9238146D01*
X-13439679Y10939278D01*
X-13378358Y10972761D01*
X-13308666Y10967777D01*
X-13252733Y10925905D01*
X-13228316Y10860441D01*
X-13228000Y10851597D01*
X-13228000Y10777644D01*
X-13227998Y10777619D01*
X-13225086Y10752512D01*
X-13225085Y10752509D01*
X-13179707Y10649736D01*
X-13179706Y10649735D01*
X-13100265Y10570294D01*
X-13046098Y10546377D01*
X-12996319Y10524397D01*
X-12942943Y10479311D01*
X-12922416Y10412525D01*
X-12941255Y10345243D01*
X-12958725Y10323282D01*
X-15175185Y8106819D01*
X-15236508Y8073334D01*
X-15262866Y8070500D01*
X-22558794Y8070500D01*
X-22584239Y8073139D01*
X-22593315Y8075042D01*
X-22593318Y8075042D01*
X-22625932Y8070977D01*
X-22633608Y8070500D01*
X-22637040Y8070500D01*
X-22657284Y8067123D01*
X-22659807Y8066755D01*
X-22709394Y8060574D01*
X-22716425Y8058481D01*
X-22723382Y8056093D01*
X-22767313Y8032318D01*
X-22769589Y8031147D01*
X-22814487Y8009197D01*
X-22820434Y8004952D01*
X-22826261Y8000416D01*
X-22860087Y7963671D01*
X-22861861Y7961823D01*
X-26793045Y4030639D01*
X-26812894Y4014518D01*
X-26820669Y4009438D01*
X-26840857Y3983502D01*
X-26845933Y3977752D01*
X-26848366Y3975319D01*
X-26848376Y3975306D01*
X-26860305Y3958599D01*
X-26861836Y3956547D01*
X-26892517Y3917128D01*
X-26896025Y3910647D01*
X-26899239Y3904069D01*
X-26913494Y3856191D01*
X-26914275Y3853754D01*
X-26930501Y3806488D01*
X-26931706Y3799267D01*
X-26932618Y3791954D01*
X-26930553Y3742052D01*
X-26930500Y3739490D01*
X-26930500Y943540D01*
X-26950185Y876501D01*
X-27002989Y830746D01*
X-27072147Y820802D01*
X-27135703Y849827D01*
X-27169693Y897643D01*
X-27286507Y1190825D01*
X-27286510Y1190830D01*
X-27286511Y1190834D01*
X-27446534Y1492669D01*
X-27638253Y1775433D01*
X-27638258Y1775439D01*
X-27638260Y1775442D01*
X-27859412Y2035803D01*
X-27859417Y2035809D01*
X-27873870Y2049500D01*
X-28107442Y2270750D01*
X-28379411Y2477496D01*
X-28379415Y2477499D01*
X-28379421Y2477503D01*
X-28379426Y2477507D01*
X-28672136Y2653623D01*
X-28672149Y2653630D01*
X-28982185Y2797068D01*
X-28982190Y2797070D01*
X-28982195Y2797072D01*
X-29188431Y2866561D01*
X-29305943Y2906156D01*
X-29639588Y2979597D01*
X-29979213Y3016533D01*
X-29979214Y3016533D01*
X-30093856Y3016533D01*
X-32819113Y3016533D01*
X-32839761Y3018264D01*
X-32874355Y3024107D01*
X-32913348Y3037662D01*
X-32934865Y3049467D01*
X-32967246Y3075070D01*
X-32983701Y3093292D01*
X-33005878Y3128102D01*
X-33015438Y3150714D01*
X-33024959Y3190879D01*
X-33027222Y3225387D01*
X-33026636Y3248003D01*
X-32906340Y4268369D01*
X-32906095Y4270205D01*
X-32752232Y5297338D01*
X-32751928Y5299171D01*
X-32565955Y6320982D01*
X-32565607Y6322741D01*
X-32347716Y7338181D01*
X-32347284Y7340052D01*
X-32335453Y7387834D01*
X-32097692Y8348126D01*
X-32097196Y8350003D01*
X-32097130Y8350236D01*
X-31816125Y9349807D01*
X-31815617Y9351511D01*
X-31503353Y10342028D01*
X-31502743Y10343861D01*
X-31502663Y10344088D01*
X-31159620Y11324036D01*
X-31158953Y11325846D01*
X-30814425Y12219225D01*
X-30785288Y12294779D01*
X-30784574Y12296550D01*
X-30380711Y13253343D01*
X-30379957Y13255056D01*
X-29946300Y14198750D01*
X-29945490Y14200443D01*
X-29482464Y15130109D01*
X-29481654Y15131673D01*
X-28989691Y16046437D01*
X-28988821Y16047996D01*
X-28493538Y16903534D01*
X-28473912Y16929081D01*
X-17064146Y28338847D01*
X-17037992Y28358824D01*
X-15858040Y29033014D01*
X-15838493Y29042028D01*
X-15809614Y29052409D01*
X-15772626Y29059617D01*
X-15753070Y29060399D01*
X-15750115Y29060516D01*
X-15712670Y29056280D01*
X-15690930Y29050374D01*
X-15656481Y29035079D01*
X-15629656Y29017869D01*
X-15614537Y29006449D01*
X-15600422Y28993985D01*
X-15508765Y28913046D01*
X-15260499Y28743032D01*
X-14993301Y28604665D01*
X-14964901Y28594131D01*
X-14711186Y28500024D01*
X-14711184Y28500024D01*
X-14711182Y28500023D01*
X-14418382Y28430678D01*
X-14119298Y28397671D01*
X-13818423Y28401498D01*
X-13520275Y28442102D01*
X-13229334Y28518873D01*
X-12949969Y28630657D01*
X-12686376Y28775776D01*
X-12442515Y28952050D01*
X-12222049Y29156831D01*
X-12028289Y29387044D01*
X-11864145Y29639229D01*
X-11732084Y29909600D01*
X-11634088Y30194095D01*
X-11571630Y30488442D01*
X-11545648Y30788218D01*
X-11556532Y31088920D01*
X-11572138Y31186177D01*
X-11572766Y31221028D01*
X-11564574Y31287279D01*
X-11557169Y31316774D01*
X-11527315Y31393979D01*
X-11512949Y31420788D01*
X-11465195Y31488400D01*
X-11444732Y31510904D01*
X-11381957Y31564853D01*
X-11356637Y31581695D01*
X-11272847Y31623624D01*
X-11264994Y31626900D01*
X-10337382Y31940862D01*
X-10335697Y31941406D01*
X-9395947Y32229166D01*
X-9394295Y32229645D01*
X-8446518Y32489837D01*
X-8444884Y32490260D01*
X-7489896Y32722657D01*
X-7488280Y32723026D01*
X-6665832Y32897890D01*
X-6526923Y32927423D01*
X-6525180Y32927768D01*
X-5558303Y33103987D01*
X-5556629Y33104267D01*
X-5067791Y33178679D01*
X-4998555Y33169307D01*
G37*
%TD.AperFunction*%
%TA.AperFunction,Conductor*%
G36*
X-18491166Y24540639D02*
G01*
X-18435233Y24498767D01*
X-18410816Y24433303D01*
X-18410500Y24424457D01*
X-18410500Y24353113D01*
X-18430185Y24286074D01*
X-18446819Y24265432D01*
X-18469855Y24242397D01*
X-18469858Y24242392D01*
X-18526019Y24132173D01*
X-18526019Y24132172D01*
X-18540500Y24040736D01*
X-18540500Y23699261D01*
X-18526019Y23607830D01*
X-18526019Y23607829D01*
X-18526018Y23607826D01*
X-18526017Y23607825D01*
X-18469859Y23497609D01*
X-18449932Y23477682D01*
X-18416447Y23416361D01*
X-18421430Y23346670D01*
X-18449930Y23302321D01*
X-18469857Y23282394D01*
X-18469858Y23282392D01*
X-18469859Y23282391D01*
X-18485986Y23250740D01*
X-18526019Y23172173D01*
X-18526019Y23172172D01*
X-18540500Y23080736D01*
X-18540500Y22739261D01*
X-18526019Y22647830D01*
X-18526019Y22647829D01*
X-18526018Y22647826D01*
X-18526017Y22647825D01*
X-18469859Y22537609D01*
X-18449932Y22517682D01*
X-18416447Y22456361D01*
X-18421430Y22386670D01*
X-18449929Y22342322D01*
X-18459857Y22332395D01*
X-18459858Y22332392D01*
X-18459859Y22332391D01*
X-18468587Y22315261D01*
X-18516019Y22222173D01*
X-18516019Y22222172D01*
X-18530500Y22130736D01*
X-18530500Y21789261D01*
X-18516019Y21697830D01*
X-18516019Y21697829D01*
X-18516018Y21697826D01*
X-18516017Y21697825D01*
X-18463092Y21593954D01*
X-18459858Y21587608D01*
X-18459855Y21587604D01*
X-18444432Y21572181D01*
X-18410947Y21510858D01*
X-18415931Y21441166D01*
X-18457803Y21385233D01*
X-18523267Y21360816D01*
X-18532113Y21360500D01*
X-18710789Y21360500D01*
X-18736235Y21363139D01*
X-18745315Y21365043D01*
X-18745316Y21365043D01*
X-18745318Y21365043D01*
X-18777939Y21360977D01*
X-18785615Y21360500D01*
X-18789040Y21360500D01*
X-18809272Y21357125D01*
X-18811804Y21356756D01*
X-18861389Y21350575D01*
X-18868440Y21348476D01*
X-18875383Y21346092D01*
X-18911294Y21326658D01*
X-18979622Y21312064D01*
X-18999980Y21315316D01*
X-19013125Y21318556D01*
X-19021015Y21320500D01*
X-19178985Y21320500D01*
X-19178986Y21320500D01*
X-19332366Y21282697D01*
X-19472238Y21209285D01*
X-19590484Y21104529D01*
X-19680219Y20974525D01*
X-19680220Y20974524D01*
X-19736238Y20826819D01*
X-19755278Y20670001D01*
X-19755278Y20670000D01*
X-19736238Y20513182D01*
X-19681682Y20369331D01*
X-19680220Y20365477D01*
X-19590483Y20235470D01*
X-19472240Y20130717D01*
X-19472238Y20130716D01*
X-19332366Y20057304D01*
X-19178986Y20019500D01*
X-19178985Y20019500D01*
X-19021015Y20019500D01*
X-18867635Y20057304D01*
X-18816226Y20084286D01*
X-18727760Y20130717D01*
X-18609517Y20235470D01*
X-18519780Y20365477D01*
X-18489431Y20445504D01*
X-18447254Y20501205D01*
X-18381656Y20525263D01*
X-18317196Y20512018D01*
X-18262175Y20483983D01*
X-18262174Y20483983D01*
X-18262172Y20483982D01*
X-18227053Y20478421D01*
X-18170735Y20469500D01*
X-17829338Y20469501D01*
X-17762299Y20449817D01*
X-17716544Y20397013D01*
X-17705338Y20345501D01*
X-17705338Y19729712D01*
X-17707977Y19704268D01*
X-17709881Y19695189D01*
X-17709881Y19695183D01*
X-17705815Y19662563D01*
X-17705338Y19654886D01*
X-17705338Y19651460D01*
X-17702606Y19635080D01*
X-17701962Y19631224D01*
X-17701593Y19628692D01*
X-17695411Y19579107D01*
X-17693318Y19572074D01*
X-17690931Y19565121D01*
X-17690930Y19565119D01*
X-17683230Y19550891D01*
X-17667147Y19521170D01*
X-17665974Y19518892D01*
X-17644036Y19474016D01*
X-17644034Y19474014D01*
X-17639767Y19468036D01*
X-17635256Y19462241D01*
X-17598497Y19428402D01*
X-17596648Y19426628D01*
X-16777476Y18607456D01*
X-16761349Y18587598D01*
X-16756275Y18579831D01*
X-16756273Y18579829D01*
X-16730333Y18559640D01*
X-16724570Y18554550D01*
X-16722144Y18552124D01*
X-16705439Y18540197D01*
X-16703406Y18538682D01*
X-16663964Y18507983D01*
X-16663963Y18507983D01*
X-16663962Y18507982D01*
X-16657520Y18504496D01*
X-16650902Y18501259D01*
X-16603016Y18487003D01*
X-16600596Y18486228D01*
X-16553326Y18470000D01*
X-16553321Y18470000D01*
X-16546070Y18468790D01*
X-16538792Y18467883D01*
X-16488876Y18469948D01*
X-16486317Y18470000D01*
X-14140365Y18470000D01*
X-14073326Y18450315D01*
X-14027571Y18397511D01*
X-14017627Y18328353D01*
X-14046652Y18264797D01*
X-14058139Y18253184D01*
X-14090483Y18224532D01*
X-14180219Y18094525D01*
X-14180220Y18094524D01*
X-14236238Y17946819D01*
X-14255278Y17790001D01*
X-14255278Y17790000D01*
X-14236238Y17633182D01*
X-14180220Y17485477D01*
X-14180219Y17485476D01*
X-14090483Y17355469D01*
X-14045187Y17315342D01*
X-13993345Y17269414D01*
X-13956219Y17210227D01*
X-13954210Y17151158D01*
X-13955043Y17147186D01*
X-13955043Y17147184D01*
X-13950977Y17114564D01*
X-13950500Y17106887D01*
X-13950500Y17103460D01*
X-13949560Y17097825D01*
X-13947124Y17083224D01*
X-13946755Y17080692D01*
X-13940573Y17031107D01*
X-13938480Y17024074D01*
X-13936093Y17017121D01*
X-13936092Y17017119D01*
X-13928392Y17002891D01*
X-13912309Y16973170D01*
X-13911136Y16970892D01*
X-13889198Y16926016D01*
X-13889196Y16926014D01*
X-13884929Y16920036D01*
X-13880418Y16914241D01*
X-13843659Y16880402D01*
X-13841810Y16878628D01*
X-13260273Y16297091D01*
X-13226788Y16235768D01*
X-13224780Y16195119D01*
X-13228000Y16167369D01*
X-13228000Y15977643D01*
X-13227998Y15977619D01*
X-13225087Y15952515D01*
X-13225087Y15952514D01*
X-13225086Y15952510D01*
X-13225085Y15952509D01*
X-13219598Y15940081D01*
X-13211872Y15922585D01*
X-13202803Y15853306D01*
X-13211872Y15822417D01*
X-13225085Y15792492D01*
X-13228000Y15767369D01*
X-13228000Y15577643D01*
X-13227998Y15577619D01*
X-13225087Y15552515D01*
X-13225087Y15552514D01*
X-13225086Y15552510D01*
X-13225085Y15552509D01*
X-13223937Y15549908D01*
X-13211872Y15522585D01*
X-13202803Y15453306D01*
X-13211872Y15422417D01*
X-13225085Y15392492D01*
X-13228000Y15367369D01*
X-13228000Y15177643D01*
X-13227998Y15177619D01*
X-13225087Y15152515D01*
X-13225087Y15152514D01*
X-13225086Y15152510D01*
X-13225085Y15152509D01*
X-13214177Y15127804D01*
X-13211872Y15122585D01*
X-13202803Y15053306D01*
X-13211872Y15022418D01*
X-13215714Y15013716D01*
X-13254223Y14964997D01*
X-13320063Y14915068D01*
X-13320066Y14915064D01*
X-13397707Y14812679D01*
X-13453900Y14771156D01*
X-13523621Y14766605D01*
X-13584192Y14799924D01*
X-13987313Y15203045D01*
X-14003439Y15222902D01*
X-14008513Y15230669D01*
X-14034463Y15250867D01*
X-14040209Y15255941D01*
X-14042643Y15258375D01*
X-14059341Y15270297D01*
X-14061395Y15271829D01*
X-14099781Y15301705D01*
X-14100824Y15302517D01*
X-14100826Y15302518D01*
X-14107302Y15306023D01*
X-14113884Y15309241D01*
X-14161768Y15323497D01*
X-14164207Y15324278D01*
X-14211466Y15340502D01*
X-14218681Y15341706D01*
X-14225997Y15342618D01*
X-14274811Y15340599D01*
X-14275901Y15340553D01*
X-14278461Y15340500D01*
X-15956000Y15340500D01*
X-16023039Y15360185D01*
X-16068794Y15412989D01*
X-16080000Y15464500D01*
X-16080000Y15630000D01*
X-17306000Y15630000D01*
X-17373039Y15649685D01*
X-17418794Y15702489D01*
X-17430000Y15754000D01*
X-17430000Y16006000D01*
X-17410315Y16073039D01*
X-17357511Y16118794D01*
X-17306000Y16130000D01*
X-16080000Y16130000D01*
X-16080000Y16627828D01*
X-16080001Y16627845D01*
X-16086402Y16687373D01*
X-16086404Y16687380D01*
X-16136646Y16822087D01*
X-16136650Y16822094D01*
X-16222810Y16937188D01*
X-16222813Y16937191D01*
X-16337907Y17023351D01*
X-16337914Y17023355D01*
X-16472621Y17073597D01*
X-16472628Y17073599D01*
X-16532156Y17080000D01*
X-17003414Y17080000D01*
X-17070453Y17099685D01*
X-17094470Y17119829D01*
X-17113116Y17140000D01*
X-18017907Y17140000D01*
X-18084946Y17159685D01*
X-18130701Y17212489D01*
X-18141907Y17264000D01*
X-18141907Y17640000D01*
X-17641907Y17640000D01*
X-17113117Y17640000D01*
X-17114762Y17660911D01*
X-17159876Y17816196D01*
X-17242186Y17955375D01*
X-17242193Y17955384D01*
X-17356524Y18069715D01*
X-17356533Y18069722D01*
X-17495714Y18152033D01*
X-17495717Y18152035D01*
X-17641906Y18194507D01*
X-17641907Y18194506D01*
X-17641907Y17640000D01*
X-18141907Y17640000D01*
X-18141907Y18194506D01*
X-18141909Y18194507D01*
X-18288098Y18152035D01*
X-18288101Y18152033D01*
X-18427282Y18069722D01*
X-18427291Y18069715D01*
X-18520242Y17976763D01*
X-18581565Y17943278D01*
X-18627320Y17941971D01*
X-18681172Y17950500D01*
X-19022647Y17950500D01*
X-19022647Y17950499D01*
X-19114078Y17936019D01*
X-19114079Y17936019D01*
X-19224300Y17879858D01*
X-19224304Y17879855D01*
X-19311762Y17792397D01*
X-19311765Y17792392D01*
X-19311766Y17792391D01*
X-19327523Y17761467D01*
X-19367926Y17682173D01*
X-19367926Y17682172D01*
X-19382407Y17590736D01*
X-19382407Y17189261D01*
X-19367926Y17097830D01*
X-19367926Y17097829D01*
X-19367925Y17097826D01*
X-19367924Y17097825D01*
X-19323579Y17010793D01*
X-19310683Y16942126D01*
X-19336959Y16877385D01*
X-19394066Y16837128D01*
X-19434064Y16830500D01*
X-19504677Y16830500D01*
X-19577736Y16815968D01*
X-19577740Y16815967D01*
X-19660601Y16760601D01*
X-19715967Y16677740D01*
X-19715968Y16677736D01*
X-19730500Y16604679D01*
X-19730500Y15155322D01*
X-19715968Y15082265D01*
X-19715967Y15082261D01*
X-19665772Y15007138D01*
X-19644895Y14940460D01*
X-19663380Y14873080D01*
X-19715360Y14826390D01*
X-19720612Y14824160D01*
X-19722094Y14823351D01*
X-19837188Y14737191D01*
X-19837191Y14737188D01*
X-19923351Y14622094D01*
X-19923355Y14622087D01*
X-19973597Y14487380D01*
X-19973599Y14487373D01*
X-19980000Y14427845D01*
X-19980000Y13930000D01*
X-18754000Y13930000D01*
X-18686961Y13910315D01*
X-18641206Y13857511D01*
X-18630000Y13806000D01*
X-18630000Y13013162D01*
X-18604741Y12966903D01*
X-18601907Y12940545D01*
X-18601907Y11365497D01*
X-18455712Y11407969D01*
X-18316533Y11490279D01*
X-18316528Y11490283D01*
X-18223574Y11583237D01*
X-18162251Y11616722D01*
X-18116497Y11618030D01*
X-18062642Y11609500D01*
X-17721173Y11609501D01*
X-17721168Y11609501D01*
X-17721168Y11609502D01*
X-17667320Y11618030D01*
X-17629737Y11623982D01*
X-17629736Y11623982D01*
X-17629735Y11623983D01*
X-17629732Y11623983D01*
X-17519516Y11680141D01*
X-17432048Y11767609D01*
X-17375890Y11877825D01*
X-17361976Y11965677D01*
X-17332049Y12028806D01*
X-17307824Y12043891D01*
X-17341532Y12072931D01*
X-17361407Y12139915D01*
X-17361408Y12140066D01*
X-17361408Y12370734D01*
X-17361408Y12370735D01*
X-17361408Y12370740D01*
X-17375889Y12462171D01*
X-17375889Y12462172D01*
X-17375890Y12462174D01*
X-17375890Y12462175D01*
X-17420236Y12549208D01*
X-17433131Y12617874D01*
X-17406855Y12682615D01*
X-17349748Y12722872D01*
X-17309750Y12729500D01*
X-16875562Y12729500D01*
X-16808523Y12709815D01*
X-16762768Y12657011D01*
X-16752824Y12587853D01*
X-16781849Y12524297D01*
X-16812441Y12498768D01*
X-16895375Y12449722D01*
X-16895384Y12449715D01*
X-17009715Y12335384D01*
X-17009722Y12335375D01*
X-17092032Y12196196D01*
X-17092034Y12196192D01*
X-17118332Y12105672D01*
X-17155938Y12046787D01*
X-17166597Y12041883D01*
X-17148448Y12030447D01*
X-17138791Y12020000D01*
X-16234000Y12020000D01*
X-16166961Y12000315D01*
X-16121206Y11947511D01*
X-16110000Y11896000D01*
X-16110000Y11644000D01*
X-16129685Y11576961D01*
X-16182489Y11531206D01*
X-16234000Y11520000D01*
X-17138790Y11520000D01*
X-17137146Y11499090D01*
X-17092032Y11343805D01*
X-17009722Y11204626D01*
X-17009715Y11204617D01*
X-17003288Y11198190D01*
X-16969803Y11136867D01*
X-16974787Y11067175D01*
X-17016659Y11011242D01*
X-17082123Y10986825D01*
X-17090969Y10986509D01*
X-18636737Y10986509D01*
X-18662183Y10989148D01*
X-18671263Y10991052D01*
X-18671264Y10991052D01*
X-18671266Y10991052D01*
X-18703887Y10986986D01*
X-18711563Y10986509D01*
X-18714988Y10986509D01*
X-18719132Y10985818D01*
X-18735238Y10983132D01*
X-18737763Y10982764D01*
X-18746157Y10981717D01*
X-18752091Y10980977D01*
X-18759764Y10980500D01*
X-21563456Y10980500D01*
X-21630495Y11000185D01*
X-21651137Y11016819D01*
X-21693181Y11058863D01*
X-21726666Y11120186D01*
X-21729500Y11146544D01*
X-21729500Y11920000D01*
X-19630697Y11920000D01*
X-19629053Y11899090D01*
X-19583939Y11743805D01*
X-19501629Y11604626D01*
X-19501622Y11604617D01*
X-19387291Y11490286D01*
X-19387282Y11490279D01*
X-19248103Y11407969D01*
X-19101907Y11365496D01*
X-19101907Y11920000D01*
X-19630697Y11920000D01*
X-21729500Y11920000D01*
X-21729500Y13430000D01*
X-19980000Y13430000D01*
X-19980000Y12932156D01*
X-19973599Y12872628D01*
X-19973597Y12872621D01*
X-19923355Y12737914D01*
X-19923351Y12737907D01*
X-19837191Y12622813D01*
X-19837188Y12622810D01*
X-19722094Y12536650D01*
X-19722089Y12536647D01*
X-19712010Y12532888D01*
X-19656076Y12491018D01*
X-19631657Y12425554D01*
X-19631673Y12421056D01*
X-19630697Y12420000D01*
X-19101907Y12420000D01*
X-19101907Y12446839D01*
X-19127166Y12493097D01*
X-19130000Y12519455D01*
X-19130000Y13430000D01*
X-19980000Y13430000D01*
X-21729500Y13430000D01*
X-21729500Y21353457D01*
X-21709815Y21420496D01*
X-21693181Y21441138D01*
X-20073283Y23061036D01*
X-18622179Y24512140D01*
X-18560858Y24545623D01*
X-18491166Y24540639D01*
G37*
%TD.AperFunction*%
%TA.AperFunction,Conductor*%
G36*
X-1726017Y14981710D02*
G01*
X-1687125Y14958344D01*
X-1616741Y14895991D01*
X-1616739Y14895989D01*
X-1476866Y14822577D01*
X-1323486Y14784773D01*
X-1323485Y14784773D01*
X-1165515Y14784773D01*
X-1048675Y14813571D01*
X-978872Y14810502D01*
X-921810Y14770182D01*
X-895605Y14705412D01*
X-895000Y14693174D01*
X-895000Y13591188D01*
X-914685Y13524149D01*
X-931319Y13503507D01*
X-1101973Y13332853D01*
X-1163296Y13299368D01*
X-1232988Y13304352D01*
X-1257061Y13320500D01*
X-2170838Y13320500D01*
X-2237877Y13340185D01*
X-2283632Y13392989D01*
X-2294838Y13444500D01*
X-2294838Y13696500D01*
X-2275153Y13763539D01*
X-2222349Y13809294D01*
X-2170838Y13820500D01*
X-1266048Y13820500D01*
X-1267693Y13841411D01*
X-1312807Y13996696D01*
X-1395117Y14135875D01*
X-1395124Y14135884D01*
X-1509455Y14250215D01*
X-1509464Y14250222D01*
X-1648642Y14332531D01*
X-1803929Y14377646D01*
X-1840194Y14380500D01*
X-1850339Y14380500D01*
X-1917378Y14400185D01*
X-1963133Y14452989D01*
X-1974339Y14504498D01*
X-1974339Y14701234D01*
X-1974339Y14701238D01*
X-1982868Y14755085D01*
X-1973914Y14824379D01*
X-1948076Y14862165D01*
X-1857032Y14953209D01*
X-1795709Y14986694D01*
X-1726017Y14981710D01*
G37*
%TD.AperFunction*%
%TA.AperFunction,Conductor*%
G36*
X-6566635Y23034761D02*
G01*
X-6556067Y23025336D01*
X-2276819Y18746089D01*
X-2243334Y18684766D01*
X-2240500Y18658408D01*
X-2240501Y16364516D01*
X-2260186Y16297476D01*
X-2280328Y16273461D01*
X-2284838Y16269292D01*
X-2284838Y15364500D01*
X-2304523Y15297461D01*
X-2357327Y15251706D01*
X-2408838Y15240500D01*
X-2660838Y15240500D01*
X-2727877Y15260185D01*
X-2773632Y15312989D01*
X-2784838Y15364500D01*
X-2784838Y16291962D01*
X-2790376Y16301220D01*
X-2794338Y16332313D01*
X-2794338Y18111294D01*
X-2791699Y18136740D01*
X-2791073Y18139726D01*
X-2789796Y18145815D01*
X-2793601Y18176342D01*
X-2793861Y18178432D01*
X-2794338Y18186109D01*
X-2794338Y18189537D01*
X-2794339Y18189543D01*
X-2796535Y18202700D01*
X-2797719Y18209794D01*
X-2798085Y18212312D01*
X-2800004Y18227704D01*
X-2804265Y18261893D01*
X-2804266Y18261896D01*
X-2806357Y18268921D01*
X-2808747Y18275884D01*
X-2832521Y18319812D01*
X-2833681Y18322063D01*
X-2848103Y18351566D01*
X-2855638Y18366981D01*
X-2859919Y18372976D01*
X-2864418Y18378756D01*
X-2867665Y18381745D01*
X-2901196Y18412613D01*
X-2903018Y18414362D01*
X-7296476Y22807820D01*
X-7329961Y22869143D01*
X-7324977Y22938835D01*
X-7283105Y22994768D01*
X-7217641Y23019185D01*
X-7208823Y23019501D01*
X-6819266Y23019501D01*
X-6819261Y23019501D01*
X-6819261Y23019502D01*
X-6727825Y23033983D01*
X-6700042Y23048140D01*
X-6631376Y23061036D01*
X-6566635Y23034761D01*
G37*
%TD.AperFunction*%
%TA.AperFunction,Conductor*%
G36*
X-8944317Y18470315D02*
G01*
X-8920299Y18450171D01*
X-8883628Y18410500D01*
X-7978838Y18410500D01*
X-7911799Y18390815D01*
X-7866044Y18338011D01*
X-7854838Y18286500D01*
X-7854838Y18034500D01*
X-7874523Y17967461D01*
X-7927327Y17921706D01*
X-7978838Y17910500D01*
X-8883628Y17910500D01*
X-8881984Y17889590D01*
X-8843345Y17756594D01*
X-8843545Y17686725D01*
X-8881488Y17628055D01*
X-8945126Y17599212D01*
X-8962419Y17598000D01*
X-8997356Y17598000D01*
X-8997381Y17597998D01*
X-9022490Y17595086D01*
X-9022495Y17595085D01*
X-9052417Y17581873D01*
X-9121695Y17572803D01*
X-9152587Y17581873D01*
X-9182509Y17595085D01*
X-9207635Y17598000D01*
X-9397358Y17598000D01*
X-9397381Y17597998D01*
X-9422490Y17595086D01*
X-9422495Y17595085D01*
X-9452417Y17581873D01*
X-9521695Y17572803D01*
X-9552587Y17581873D01*
X-9582510Y17595086D01*
X-9591507Y17597533D01*
X-9590832Y17600016D01*
X-9642290Y17621846D01*
X-9681648Y17679575D01*
X-9683547Y17749419D01*
X-9665713Y17788172D01*
X-9664450Y17790001D01*
X-9639618Y17825977D01*
X-9583601Y17973682D01*
X-9564560Y18130500D01*
X-9566419Y18145815D01*
X-9583601Y18287319D01*
X-9596765Y18322029D01*
X-9602132Y18391692D01*
X-9568985Y18453198D01*
X-9507847Y18487020D01*
X-9480823Y18490000D01*
X-9011356Y18490000D01*
X-8944317Y18470315D01*
G37*
%TD.AperFunction*%
%TA.AperFunction,Conductor*%
G36*
X-12782342Y18450315D02*
G01*
X-12758717Y18430500D01*
X-11853838Y18430500D01*
X-11786799Y18410815D01*
X-11741044Y18358011D01*
X-11729838Y18306500D01*
X-11729838Y18054500D01*
X-11749523Y17987461D01*
X-11802327Y17941706D01*
X-11853838Y17930500D01*
X-12758630Y17930500D01*
X-12763734Y17924979D01*
X-12823696Y17889115D01*
X-12893530Y17891362D01*
X-12951063Y17931008D01*
X-12970728Y17965183D01*
X-12980817Y17991785D01*
X-13019780Y18094523D01*
X-13100213Y18211051D01*
X-13109518Y18224532D01*
X-13141861Y18253184D01*
X-13178988Y18312373D01*
X-13178222Y18382238D01*
X-13139804Y18440598D01*
X-13075934Y18468924D01*
X-13059635Y18470000D01*
X-12849381Y18470000D01*
X-12782342Y18450315D01*
G37*
%TD.AperFunction*%
%TA.AperFunction,Conductor*%
G36*
X-14184343Y21175315D02*
G01*
X-14163701Y21158681D01*
X-13398546Y20393526D01*
X-12787700Y19782681D01*
X-12754215Y19721358D01*
X-12759199Y19651666D01*
X-12801071Y19595733D01*
X-12866535Y19571316D01*
X-12875381Y19571000D01*
X-14560211Y19571000D01*
X-14627250Y19590685D01*
X-14673005Y19643489D01*
X-14682949Y19712647D01*
X-14666943Y19758121D01*
X-14603557Y19865302D01*
X-14557738Y20023014D01*
X-14557543Y20025499D01*
X-14557543Y20025500D01*
X-15980838Y20025500D01*
X-16047877Y20045185D01*
X-16093632Y20097989D01*
X-16104838Y20149500D01*
X-16104838Y20401500D01*
X-16085153Y20468539D01*
X-16032349Y20514294D01*
X-15980838Y20525500D01*
X-14557543Y20525500D01*
X-14557543Y20525502D01*
X-14557738Y20527987D01*
X-14603557Y20685699D01*
X-14687153Y20827053D01*
X-14687160Y20827062D01*
X-14803277Y20943179D01*
X-14803289Y20943188D01*
X-14838934Y20964268D01*
X-14886618Y21015336D01*
X-14899122Y21084078D01*
X-14872477Y21148668D01*
X-14815142Y21188598D01*
X-14775814Y21195000D01*
X-14251382Y21195000D01*
X-14184343Y21175315D01*
G37*
%TD.AperFunction*%
%TA.AperFunction,Conductor*%
G36*
X-15750216Y24999815D02*
G01*
X-15729574Y24983181D01*
X-15594074Y24847681D01*
X-15560589Y24786358D01*
X-15565573Y24716666D01*
X-15607445Y24660733D01*
X-15672909Y24636316D01*
X-15681755Y24636000D01*
X-16536356Y24636000D01*
X-16617319Y24623177D01*
X-16630142Y24621146D01*
X-16743180Y24563550D01*
X-16743182Y24563549D01*
X-16743181Y24563549D01*
X-16743186Y24563546D01*
X-16832884Y24473848D01*
X-16832887Y24473843D01*
X-16832888Y24473842D01*
X-16842248Y24455472D01*
X-16890486Y24360802D01*
X-16905338Y24267025D01*
X-16905338Y23903983D01*
X-16894990Y23838646D01*
X-16893220Y23827469D01*
X-16890483Y23810192D01*
X-16889867Y23808296D01*
X-16889798Y23805865D01*
X-16888957Y23800557D01*
X-16889643Y23800449D01*
X-16887873Y23738455D01*
X-16920118Y23682300D01*
X-17317402Y23285015D01*
X-17378725Y23251530D01*
X-17448416Y23256514D01*
X-17492767Y23285017D01*
X-17510071Y23302322D01*
X-17543554Y23363646D01*
X-17538568Y23433338D01*
X-17510069Y23477682D01*
X-17490141Y23497609D01*
X-17433983Y23607825D01*
X-17433983Y23607827D01*
X-17433982Y23607828D01*
X-17433982Y23607829D01*
X-17428016Y23645500D01*
X-17419500Y23699265D01*
X-17419501Y24040734D01*
X-17419501Y24040736D01*
X-17419501Y24040740D01*
X-17433982Y24132171D01*
X-17433982Y24132172D01*
X-17433983Y24132174D01*
X-17433983Y24132175D01*
X-17490141Y24242391D01*
X-17490143Y24242393D01*
X-17490146Y24242397D01*
X-17573181Y24325432D01*
X-17606666Y24386755D01*
X-17609500Y24413113D01*
X-17609500Y24763407D01*
X-17589815Y24830446D01*
X-17573181Y24851088D01*
X-17441088Y24983181D01*
X-17379765Y25016666D01*
X-17353407Y25019500D01*
X-15817255Y25019500D01*
X-15750216Y24999815D01*
G37*
%TD.AperFunction*%
%TD*%
M02*
