M48
; DRILL file {KiCad 7.0.5} date Wed Mar 27 21:50:32 2024
; FORMAT={-:-/ absolute / inch / decimal}
; #@! TF.CreationDate,2024-03-27T21:50:32-05:00
; #@! TF.GenerationSoftware,Kicad,Pcbnew,7.0.5
; #@! TF.FileFunction,Plated,1,4,PTH
FMAT,2
INCH
; #@! TA.AperFunction,Plated,PTH,ViaDrill
T1C0.0138
; #@! TA.AperFunction,Plated,PTH,ComponentDrill
T2C0.0138
; #@! TA.AperFunction,Plated,PTH,ComponentDrill
T3C0.0236
; #@! TA.AperFunction,Plated,PTH,ComponentDrill
T4C0.0394
%
G90
G05
T1
X-1.1654Y-0.3535
X-1.1527Y0.4184
X-1.1527Y0.2184
X-1.1031Y0.2996
X-1.0819Y-0.1579
X-1.0705Y0.5303
X-1.0594Y0.3701
X-1.0527Y-0.4816
X-1.0527Y-0.5816
X-1.0339Y0.4996
X-0.9527Y0.6184
X-0.9527Y0.1184
X-0.9527Y-0.0816
X-0.9527Y-0.1816
X-0.9527Y-0.6816
X-0.9527Y-0.7816
X-0.8527Y0.1184
X-0.8527Y0.0184
X-0.8527Y-0.0816
X-0.8527Y-0.1816
X-0.8527Y-0.2816
X-0.8527Y-0.8816
X-0.8181Y0.1654
X-0.7756Y0.6642
X-0.7756Y0.626
X-0.7756Y0.5866
X-0.7756Y0.5433
X-0.7717Y0.7835
X-0.7539Y0.6898
X-0.7527Y-0.1816
X-0.7527Y-0.2816
X-0.7527Y-0.3816
X-0.7527Y-0.9816
X-0.752Y0.4803
X-0.752Y-0.0807
X-0.713Y0.3792
X-0.7069Y0.7953
X-0.6819Y0.237
X-0.6555Y-0.4606
X-0.6535Y0.6846
X-0.6527Y-0.0816
X-0.6527Y-0.1816
X-0.6527Y-0.2816
X-0.6527Y-0.3816
X-0.6527Y-0.7816
X-0.6527Y-0.8816
X-0.6339Y0.0079
X-0.6319Y0.0925
X-0.6192Y0.4942
X-0.6185Y0.6268
X-0.615Y0.2738
X-0.6094Y0.6689
X-0.6024Y1.0079
X-0.5846Y0.0571
X-0.5778Y0.7977
X-0.568Y0.4892
X-0.561Y0.3941
X-0.5555Y-0.6594
X-0.5527Y-0.1816
X-0.5527Y-0.2816
X-0.5527Y-0.3816
X-0.5527Y-0.7816
X-0.5527Y-0.8816
X-0.5527Y-1.0816
X-0.5331Y0.5998
X-0.4941Y0.6654
X-0.4587Y0.8622
X-0.4527Y1.1184
X-0.4527Y0.0184
X-0.4527Y-0.0816
X-0.4527Y-0.1816
X-0.4527Y-0.2816
X-0.4527Y-0.3816
X-0.4527Y-0.7816
X-0.4527Y-0.8816
X-0.4414Y0.5053
X-0.4291Y0.8996
X-0.422Y0.3094
X-0.3947Y0.7175
X-0.392Y0.7982
X-0.3919Y0.8524
X-0.3527Y1.2184
X-0.3527Y1.1184
X-0.3527Y0.3184
X-0.3527Y-0.0816
X-0.3527Y-0.1816
X-0.3527Y-0.2816
X-0.3527Y-0.3816
X-0.3527Y-0.4816
X-0.3527Y-0.7816
X-0.3527Y-1.0816
X-0.3527Y-1.1816
X-0.3248Y0.9843
X-0.3082Y0.4531
X-0.3075Y0.7141
X-0.2716Y0.487
X-0.2527Y-0.0816
X-0.2527Y-0.1816
X-0.2527Y-0.2816
X-0.2527Y-0.3816
X-0.2527Y-1.1816
X-0.2372Y0.0679
X-0.2303Y0.286
X-0.228Y0.6913
X-0.2146Y1.0003
X-0.1949Y-1.0217
X-0.176Y0.3031
X-0.1722Y0.4301
X-0.1713Y1.0192
X-0.158Y0.5318
X-0.1527Y-0.0816
X-0.1527Y-0.1816
X-0.1527Y-0.2816
X-0.1527Y-0.4816
X-0.1527Y-0.5816
X-0.1527Y-1.0816
X-0.1527Y-1.1816
X-0.1399Y0.9844
X-0.1142Y0.3287
X-0.1088Y0.413
X-0.1028Y0.9252
X-0.1008Y0.9799
X-0.099Y0.6382
X-0.0846Y0.7992
X-0.0598Y0.1628
X-0.0527Y0.3184
X-0.0527Y-0.1816
X-0.0527Y-0.2816
X-0.0527Y-0.4816
X-0.0527Y-0.7816
X-0.0527Y-0.8816
X-0.0527Y-1.1816
X-0.0472Y0.6492
X-0.0451Y0.5379
X-0.0443Y0.3917
X0.0Y-0.0787
X0.0031Y-0.6602
X0.0105Y0.987
X0.012Y0.9358
X0.0473Y0.8184
X0.0473Y0.4184
X0.0473Y-0.1816
X0.0473Y-0.2816
X0.0473Y-0.4816
X0.0473Y-0.5816
X0.0473Y-0.7816
X0.0473Y-0.8816
X0.0473Y-1.1816
X0.0571Y0.237
X0.0612Y0.9358
X0.0618Y0.6354
X0.0618Y0.4866
X0.1024Y0.0039
X0.1091Y0.2729
X0.1182Y0.983
X0.1299Y0.063
X0.1473Y0.5184
X0.1473Y0.4184
X0.1473Y-0.1816
X0.1473Y-0.2816
X0.1473Y-0.5816
X0.1473Y-0.7816
X0.1473Y-0.9816
X0.1473Y-1.0816
X0.1473Y-1.1816
X0.163Y0.9965
X0.174Y0.8049
X0.1789Y0.873
X0.1902Y1.0157
X0.1909Y-0.4429
X0.239Y0.7744
X0.2473Y0.5184
X0.2473Y0.3184
X0.2473Y-0.0816
X0.2473Y-0.1816
X0.2473Y-0.2816
X0.2473Y-0.3816
X0.2473Y-1.1816
X0.2909Y0.6819
X0.3473Y1.2184
X0.3473Y1.1184
X0.3473Y0.5184
X0.3473Y0.3184
X0.3473Y-0.0816
X0.3473Y-0.1816
X0.3473Y-0.2816
X0.3473Y-0.3816
X0.3473Y-0.4816
X0.3473Y-1.1816
X0.411Y0.811
X0.4473Y1.1184
X0.4473Y0.9184
X0.4473Y0.5184
X0.4473Y0.3184
X0.4473Y-0.0816
X0.4473Y-0.1816
X0.4473Y-0.2816
X0.4473Y-0.3816
X0.4473Y-0.7816
X0.4473Y-0.8816
X0.5118Y-0.8917
X0.5157Y0.0827
X0.5374Y0.7067
X0.5473Y0.5184
X0.5473Y0.3184
X0.5473Y-0.0816
X0.5473Y-0.1816
X0.5473Y-0.2816
X0.5473Y-0.3816
X0.5473Y-0.7816
X0.5473Y-0.9816
X0.5551Y-0.6622
X0.5787Y0.8563
X0.6331Y1.0346
X0.6473Y0.9184
X0.6473Y0.5184
X0.6473Y0.3184
X0.6473Y0.1184
X0.6473Y0.0184
X0.6473Y-0.0816
X0.6473Y-0.1816
X0.6473Y-0.2816
X0.6473Y-0.3816
X0.6473Y-0.7816
X0.6473Y-0.8816
X0.689Y0.1614
X0.6925Y0.4618
X0.7336Y0.425
X0.7378Y0.7661
X0.7473Y0.9184
X0.7473Y0.1184
X0.7473Y-0.1816
X0.7473Y-0.2816
X0.7473Y-0.4816
X0.7473Y-0.7816
X0.7473Y-0.9816
X0.752Y-0.0787
X0.8098Y-0.5524
X0.8126Y0.2362
X0.8473Y0.8184
X0.8473Y0.6184
X0.8473Y0.1184
X0.8473Y-0.0816
X0.8473Y-0.1816
X0.8473Y-0.2816
X0.8473Y-0.6816
X0.8473Y-0.8816
X0.8553Y0.0039
X0.8776Y0.0713
X0.878Y0.2756
X0.9473Y0.7184
X0.9473Y0.2184
X0.9473Y0.1184
X0.9473Y-0.1816
X0.9473Y-0.2816
X0.9473Y-0.7816
X1.0435Y-0.4687
X1.0473Y0.6184
X1.0473Y-0.3816
X1.0473Y-0.5816
X1.0594Y0.2992
X1.0697Y-0.3161
X1.0953Y-0.1933
X1.1016Y0.5287
X1.1473Y0.4184
X1.1473Y0.3184
X1.1473Y0.2184
X1.1473Y-0.4816
T2
X-0.4086Y0.5806
X-0.4086Y0.5304
X-0.4086Y0.4802
X-0.3584Y0.5806
X-0.3584Y0.5304
X-0.3584Y0.4802
X-0.3082Y0.5806
X-0.3082Y0.5304
X-0.3082Y0.4802
T4
X-0.8622Y0.7598
X-0.8622Y0.6598
X0.3287Y0.9715
X0.4287Y0.9715
X0.5287Y0.9715
X0.6287Y0.9715
T3
G00X-0.2213Y1.2146
M15
G01X-0.2213Y1.2618
M16
G05
G00X-0.2213Y1.065
M15
G01X-0.2213Y1.0965
M16
G05
G00X0.2213Y1.2146
M15
G01X0.2213Y1.2618
M16
G05
G00X0.2213Y1.065
M15
G01X0.2213Y1.0965
M16
G05
T0
M30
