%TF.GenerationSoftware,KiCad,Pcbnew,(7.0.0-0)*%
%TF.CreationDate,2023-04-27T22:32:04-05:00*%
%TF.ProjectId,RP2040,52503230-3430-42e6-9b69-6361645f7063,REV1*%
%TF.SameCoordinates,Original*%
%TF.FileFunction,Other,Comment*%
%FSLAX46Y46*%
G04 Gerber Fmt 4.6, Leading zero omitted, Abs format (unit mm)*
G04 Created by KiCad (PCBNEW (7.0.0-0)) date 2023-04-27 22:32:04*
%MOMM*%
%LPD*%
G01*
G04 APERTURE LIST*
%ADD10C,0.100000*%
%ADD11C,0.037500*%
%ADD12C,0.120000*%
%ADD13C,0.150000*%
G04 APERTURE END LIST*
D10*
X31000137Y0D02*
G75*
G03*
X31000137Y0I-31000137J0D01*
G01*
D11*
%TO.C,P1*%
X903571Y33734715D02*
X903571Y33434715D01*
X903571Y33434715D02*
X789285Y33434715D01*
X789285Y33434715D02*
X760714Y33449000D01*
X760714Y33449000D02*
X746428Y33463286D01*
X746428Y33463286D02*
X732142Y33491858D01*
X732142Y33491858D02*
X732142Y33534715D01*
X732142Y33534715D02*
X746428Y33563286D01*
X746428Y33563286D02*
X760714Y33577572D01*
X760714Y33577572D02*
X789285Y33591858D01*
X789285Y33591858D02*
X903571Y33591858D01*
X432142Y33706143D02*
X446428Y33720429D01*
X446428Y33720429D02*
X489285Y33734715D01*
X489285Y33734715D02*
X517857Y33734715D01*
X517857Y33734715D02*
X560714Y33720429D01*
X560714Y33720429D02*
X589285Y33691858D01*
X589285Y33691858D02*
X603571Y33663286D01*
X603571Y33663286D02*
X617857Y33606143D01*
X617857Y33606143D02*
X617857Y33563286D01*
X617857Y33563286D02*
X603571Y33506143D01*
X603571Y33506143D02*
X589285Y33477572D01*
X589285Y33477572D02*
X560714Y33449000D01*
X560714Y33449000D02*
X517857Y33434715D01*
X517857Y33434715D02*
X489285Y33434715D01*
X489285Y33434715D02*
X446428Y33449000D01*
X446428Y33449000D02*
X432142Y33463286D01*
X203571Y33577572D02*
X160714Y33591858D01*
X160714Y33591858D02*
X146428Y33606143D01*
X146428Y33606143D02*
X132142Y33634715D01*
X132142Y33634715D02*
X132142Y33677572D01*
X132142Y33677572D02*
X146428Y33706143D01*
X146428Y33706143D02*
X160714Y33720429D01*
X160714Y33720429D02*
X189285Y33734715D01*
X189285Y33734715D02*
X303571Y33734715D01*
X303571Y33734715D02*
X303571Y33434715D01*
X303571Y33434715D02*
X203571Y33434715D01*
X203571Y33434715D02*
X175000Y33449000D01*
X175000Y33449000D02*
X160714Y33463286D01*
X160714Y33463286D02*
X146428Y33491858D01*
X146428Y33491858D02*
X146428Y33520429D01*
X146428Y33520429D02*
X160714Y33549000D01*
X160714Y33549000D02*
X175000Y33563286D01*
X175000Y33563286D02*
X203571Y33577572D01*
X203571Y33577572D02*
X303571Y33577572D01*
X-176429Y33577572D02*
X-276429Y33577572D01*
X-319286Y33734715D02*
X-176429Y33734715D01*
X-176429Y33734715D02*
X-176429Y33434715D01*
X-176429Y33434715D02*
X-319286Y33434715D01*
X-447858Y33734715D02*
X-447858Y33434715D01*
X-447858Y33434715D02*
X-519287Y33434715D01*
X-519287Y33434715D02*
X-562144Y33449000D01*
X-562144Y33449000D02*
X-590715Y33477572D01*
X-590715Y33477572D02*
X-605001Y33506143D01*
X-605001Y33506143D02*
X-619287Y33563286D01*
X-619287Y33563286D02*
X-619287Y33606143D01*
X-619287Y33606143D02*
X-605001Y33663286D01*
X-605001Y33663286D02*
X-590715Y33691858D01*
X-590715Y33691858D02*
X-562144Y33720429D01*
X-562144Y33720429D02*
X-519287Y33734715D01*
X-519287Y33734715D02*
X-447858Y33734715D01*
X-905001Y33449000D02*
X-876429Y33434715D01*
X-876429Y33434715D02*
X-833572Y33434715D01*
X-833572Y33434715D02*
X-790715Y33449000D01*
X-790715Y33449000D02*
X-762144Y33477572D01*
X-762144Y33477572D02*
X-747858Y33506143D01*
X-747858Y33506143D02*
X-733572Y33563286D01*
X-733572Y33563286D02*
X-733572Y33606143D01*
X-733572Y33606143D02*
X-747858Y33663286D01*
X-747858Y33663286D02*
X-762144Y33691858D01*
X-762144Y33691858D02*
X-790715Y33720429D01*
X-790715Y33720429D02*
X-833572Y33734715D01*
X-833572Y33734715D02*
X-862144Y33734715D01*
X-862144Y33734715D02*
X-905001Y33720429D01*
X-905001Y33720429D02*
X-919287Y33706143D01*
X-919287Y33706143D02*
X-919287Y33606143D01*
X-919287Y33606143D02*
X-862144Y33606143D01*
X-1047858Y33577572D02*
X-1147858Y33577572D01*
X-1190715Y33734715D02*
X-1047858Y33734715D01*
X-1047858Y33734715D02*
X-1047858Y33434715D01*
X-1047858Y33434715D02*
X-1190715Y33434715D01*
D12*
X4500000Y33950000D02*
X-4500000Y33950000D01*
D13*
%TO.C,H3*%
X3750000Y-25000000D02*
G75*
G03*
X3750000Y-25000000I-3750000J0D01*
G01*
%TO.C,H2*%
X-18000000Y12000000D02*
G75*
G03*
X-18000000Y12000000I-5500000J0D01*
G01*
%TO.C,H1*%
X29020000Y12040000D02*
G75*
G03*
X29020000Y12040000I-5500000J0D01*
G01*
%TD*%
M02*
