%TF.GenerationSoftware,KiCad,Pcbnew,7.0.5*%
%TF.CreationDate,2023-12-04T01:45:25-06:00*%
%TF.ProjectId,RP2040,52503230-3430-42e6-9b69-6361645f7063,REV1*%
%TF.SameCoordinates,Original*%
%TF.FileFunction,Legend,Top*%
%TF.FilePolarity,Positive*%
%FSLAX46Y46*%
G04 Gerber Fmt 4.6, Leading zero omitted, Abs format (unit mm)*
G04 Created by KiCad (PCBNEW 7.0.5) date 2023-12-04 01:45:25*
%MOMM*%
%LPD*%
G01*
G04 APERTURE LIST*
G04 Aperture macros list*
%AMRoundRect*
0 Rectangle with rounded corners*
0 $1 Rounding radius*
0 $2 $3 $4 $5 $6 $7 $8 $9 X,Y pos of 4 corners*
0 Add a 4 corners polygon primitive as box body*
4,1,4,$2,$3,$4,$5,$6,$7,$8,$9,$2,$3,0*
0 Add four circle primitives for the rounded corners*
1,1,$1+$1,$2,$3*
1,1,$1+$1,$4,$5*
1,1,$1+$1,$6,$7*
1,1,$1+$1,$8,$9*
0 Add four rect primitives between the rounded corners*
20,1,$1+$1,$2,$3,$4,$5,0*
20,1,$1+$1,$4,$5,$6,$7,0*
20,1,$1+$1,$6,$7,$8,$9,0*
20,1,$1+$1,$8,$9,$2,$3,0*%
G04 Aperture macros list end*
%ADD10C,0.150000*%
%ADD11C,0.120000*%
%ADD12RoundRect,0.191000X0.140000X0.170000X-0.140000X0.170000X-0.140000X-0.170000X0.140000X-0.170000X0*%
%ADD13RoundRect,0.191000X-0.140000X-0.170000X0.140000X-0.170000X0.140000X0.170000X-0.140000X0.170000X0*%
%ADD14RoundRect,0.191000X-0.170000X0.140000X-0.170000X-0.140000X0.170000X-0.140000X0.170000X0.140000X0*%
%ADD15RoundRect,0.191000X0.170000X-0.140000X0.170000X0.140000X-0.170000X0.140000X-0.170000X-0.140000X0*%
%ADD16RoundRect,0.201000X-0.650000X-0.150000X0.650000X-0.150000X0.650000X0.150000X-0.650000X0.150000X0*%
%ADD17RoundRect,0.195000X-1.456000X1.456000X-1.456000X-1.456000X1.456000X-1.456000X1.456000X1.456000X0*%
%ADD18RoundRect,0.101000X-0.387500X0.050000X-0.387500X-0.050000X0.387500X-0.050000X0.387500X0.050000X0*%
%ADD19RoundRect,0.101000X-0.050000X0.387500X-0.050000X-0.387500X0.050000X-0.387500X0.050000X0.387500X0*%
%ADD20RoundRect,0.051000X0.300000X0.575000X-0.300000X0.575000X-0.300000X-0.575000X0.300000X-0.575000X0*%
%ADD21RoundRect,0.051000X0.150000X0.575000X-0.150000X0.575000X-0.150000X-0.575000X0.150000X-0.575000X0*%
%ADD22O,1.102000X1.902000*%
%ADD23O,1.102000X2.302000*%
%ADD24RoundRect,0.201000X0.512500X0.150000X-0.512500X0.150000X-0.512500X-0.150000X0.512500X-0.150000X0*%
%ADD25RoundRect,0.201000X0.587500X0.150000X-0.587500X0.150000X-0.587500X-0.150000X0.587500X-0.150000X0*%
%ADD26RoundRect,0.301000X0.650000X-0.325000X0.650000X0.325000X-0.650000X0.325000X-0.650000X-0.325000X0*%
%ADD27C,2.802000*%
%ADD28RoundRect,0.051000X-0.600000X0.700000X-0.600000X-0.700000X0.600000X-0.700000X0.600000X0.700000X0*%
%ADD29RoundRect,0.050000X0.500000X0.350000X-0.500000X0.350000X-0.500000X-0.350000X0.500000X-0.350000X0*%
%ADD30RoundRect,0.050000X0.300000X0.350000X-0.300000X0.350000X-0.300000X-0.350000X0.300000X-0.350000X0*%
%ADD31RoundRect,0.186000X0.135000X0.185000X-0.135000X0.185000X-0.135000X-0.185000X0.135000X-0.185000X0*%
%ADD32C,4.402000*%
%ADD33RoundRect,0.051000X0.850000X-0.850000X0.850000X0.850000X-0.850000X0.850000X-0.850000X-0.850000X0*%
%ADD34O,1.802000X1.802000*%
%ADD35RoundRect,0.301000X-0.375000X-0.625000X0.375000X-0.625000X0.375000X0.625000X-0.375000X0.625000X0*%
%ADD36C,1.802000*%
G04 APERTURE END LIST*
D10*
%TO.C,R3*%
X-2121505Y11015681D02*
X-2454838Y11491872D01*
X-2692933Y11015681D02*
X-2692933Y12015681D01*
X-2692933Y12015681D02*
X-2311981Y12015681D01*
X-2311981Y12015681D02*
X-2216743Y11968062D01*
X-2216743Y11968062D02*
X-2169124Y11920443D01*
X-2169124Y11920443D02*
X-2121505Y11825205D01*
X-2121505Y11825205D02*
X-2121505Y11682348D01*
X-2121505Y11682348D02*
X-2169124Y11587110D01*
X-2169124Y11587110D02*
X-2216743Y11539491D01*
X-2216743Y11539491D02*
X-2311981Y11491872D01*
X-2311981Y11491872D02*
X-2692933Y11491872D01*
X-1788171Y12015681D02*
X-1169124Y12015681D01*
X-1169124Y12015681D02*
X-1502457Y11634729D01*
X-1502457Y11634729D02*
X-1359600Y11634729D01*
X-1359600Y11634729D02*
X-1264362Y11587110D01*
X-1264362Y11587110D02*
X-1216743Y11539491D01*
X-1216743Y11539491D02*
X-1169124Y11444253D01*
X-1169124Y11444253D02*
X-1169124Y11206158D01*
X-1169124Y11206158D02*
X-1216743Y11110920D01*
X-1216743Y11110920D02*
X-1264362Y11063300D01*
X-1264362Y11063300D02*
X-1359600Y11015681D01*
X-1359600Y11015681D02*
X-1645314Y11015681D01*
X-1645314Y11015681D02*
X-1740552Y11063300D01*
X-1740552Y11063300D02*
X-1788171Y11110920D01*
%TO.C,C2*%
X-16046667Y10250420D02*
X-16094286Y10202800D01*
X-16094286Y10202800D02*
X-16237143Y10155181D01*
X-16237143Y10155181D02*
X-16332381Y10155181D01*
X-16332381Y10155181D02*
X-16475238Y10202800D01*
X-16475238Y10202800D02*
X-16570476Y10298039D01*
X-16570476Y10298039D02*
X-16618095Y10393277D01*
X-16618095Y10393277D02*
X-16665714Y10583753D01*
X-16665714Y10583753D02*
X-16665714Y10726610D01*
X-16665714Y10726610D02*
X-16618095Y10917086D01*
X-16618095Y10917086D02*
X-16570476Y11012324D01*
X-16570476Y11012324D02*
X-16475238Y11107562D01*
X-16475238Y11107562D02*
X-16332381Y11155181D01*
X-16332381Y11155181D02*
X-16237143Y11155181D01*
X-16237143Y11155181D02*
X-16094286Y11107562D01*
X-16094286Y11107562D02*
X-16046667Y11059943D01*
X-15665714Y11059943D02*
X-15618095Y11107562D01*
X-15618095Y11107562D02*
X-15522857Y11155181D01*
X-15522857Y11155181D02*
X-15284762Y11155181D01*
X-15284762Y11155181D02*
X-15189524Y11107562D01*
X-15189524Y11107562D02*
X-15141905Y11059943D01*
X-15141905Y11059943D02*
X-15094286Y10964705D01*
X-15094286Y10964705D02*
X-15094286Y10869467D01*
X-15094286Y10869467D02*
X-15141905Y10726610D01*
X-15141905Y10726610D02*
X-15713333Y10155181D01*
X-15713333Y10155181D02*
X-15094286Y10155181D01*
%TO.C,C11*%
X-4682858Y10420420D02*
X-4730477Y10372800D01*
X-4730477Y10372800D02*
X-4873334Y10325181D01*
X-4873334Y10325181D02*
X-4968572Y10325181D01*
X-4968572Y10325181D02*
X-5111429Y10372800D01*
X-5111429Y10372800D02*
X-5206667Y10468039D01*
X-5206667Y10468039D02*
X-5254286Y10563277D01*
X-5254286Y10563277D02*
X-5301905Y10753753D01*
X-5301905Y10753753D02*
X-5301905Y10896610D01*
X-5301905Y10896610D02*
X-5254286Y11087086D01*
X-5254286Y11087086D02*
X-5206667Y11182324D01*
X-5206667Y11182324D02*
X-5111429Y11277562D01*
X-5111429Y11277562D02*
X-4968572Y11325181D01*
X-4968572Y11325181D02*
X-4873334Y11325181D01*
X-4873334Y11325181D02*
X-4730477Y11277562D01*
X-4730477Y11277562D02*
X-4682858Y11229943D01*
X-3730477Y10325181D02*
X-4301905Y10325181D01*
X-4016191Y10325181D02*
X-4016191Y11325181D01*
X-4016191Y11325181D02*
X-4111429Y11182324D01*
X-4111429Y11182324D02*
X-4206667Y11087086D01*
X-4206667Y11087086D02*
X-4301905Y11039467D01*
X-2778096Y10325181D02*
X-3349524Y10325181D01*
X-3063810Y10325181D02*
X-3063810Y11325181D01*
X-3063810Y11325181D02*
X-3159048Y11182324D01*
X-3159048Y11182324D02*
X-3254286Y11087086D01*
X-3254286Y11087086D02*
X-3349524Y11039467D01*
%TO.C,C9*%
X-415258Y10133834D02*
X-367638Y10086215D01*
X-367638Y10086215D02*
X-320019Y9943358D01*
X-320019Y9943358D02*
X-320019Y9848120D01*
X-320019Y9848120D02*
X-367638Y9705263D01*
X-367638Y9705263D02*
X-462877Y9610025D01*
X-462877Y9610025D02*
X-558115Y9562406D01*
X-558115Y9562406D02*
X-748591Y9514787D01*
X-748591Y9514787D02*
X-891448Y9514787D01*
X-891448Y9514787D02*
X-1081924Y9562406D01*
X-1081924Y9562406D02*
X-1177162Y9610025D01*
X-1177162Y9610025D02*
X-1272400Y9705263D01*
X-1272400Y9705263D02*
X-1320019Y9848120D01*
X-1320019Y9848120D02*
X-1320019Y9943358D01*
X-1320019Y9943358D02*
X-1272400Y10086215D01*
X-1272400Y10086215D02*
X-1224781Y10133834D01*
X-320019Y10610025D02*
X-320019Y10800501D01*
X-320019Y10800501D02*
X-367638Y10895739D01*
X-367638Y10895739D02*
X-415258Y10943358D01*
X-415258Y10943358D02*
X-558115Y11038596D01*
X-558115Y11038596D02*
X-748591Y11086215D01*
X-748591Y11086215D02*
X-1129543Y11086215D01*
X-1129543Y11086215D02*
X-1224781Y11038596D01*
X-1224781Y11038596D02*
X-1272400Y10990977D01*
X-1272400Y10990977D02*
X-1320019Y10895739D01*
X-1320019Y10895739D02*
X-1320019Y10705263D01*
X-1320019Y10705263D02*
X-1272400Y10610025D01*
X-1272400Y10610025D02*
X-1224781Y10562406D01*
X-1224781Y10562406D02*
X-1129543Y10514787D01*
X-1129543Y10514787D02*
X-891448Y10514787D01*
X-891448Y10514787D02*
X-796210Y10562406D01*
X-796210Y10562406D02*
X-748591Y10610025D01*
X-748591Y10610025D02*
X-700972Y10705263D01*
X-700972Y10705263D02*
X-700972Y10895739D01*
X-700972Y10895739D02*
X-748591Y10990977D01*
X-748591Y10990977D02*
X-796210Y11038596D01*
X-796210Y11038596D02*
X-891448Y11086215D01*
%TO.C,C7*%
X-7791505Y16640920D02*
X-7839124Y16593300D01*
X-7839124Y16593300D02*
X-7981981Y16545681D01*
X-7981981Y16545681D02*
X-8077219Y16545681D01*
X-8077219Y16545681D02*
X-8220076Y16593300D01*
X-8220076Y16593300D02*
X-8315314Y16688539D01*
X-8315314Y16688539D02*
X-8362933Y16783777D01*
X-8362933Y16783777D02*
X-8410552Y16974253D01*
X-8410552Y16974253D02*
X-8410552Y17117110D01*
X-8410552Y17117110D02*
X-8362933Y17307586D01*
X-8362933Y17307586D02*
X-8315314Y17402824D01*
X-8315314Y17402824D02*
X-8220076Y17498062D01*
X-8220076Y17498062D02*
X-8077219Y17545681D01*
X-8077219Y17545681D02*
X-7981981Y17545681D01*
X-7981981Y17545681D02*
X-7839124Y17498062D01*
X-7839124Y17498062D02*
X-7791505Y17450443D01*
X-7458171Y17545681D02*
X-6791505Y17545681D01*
X-6791505Y17545681D02*
X-7220076Y16545681D01*
%TO.C,C12*%
X-4672858Y9050420D02*
X-4720477Y9002800D01*
X-4720477Y9002800D02*
X-4863334Y8955181D01*
X-4863334Y8955181D02*
X-4958572Y8955181D01*
X-4958572Y8955181D02*
X-5101429Y9002800D01*
X-5101429Y9002800D02*
X-5196667Y9098039D01*
X-5196667Y9098039D02*
X-5244286Y9193277D01*
X-5244286Y9193277D02*
X-5291905Y9383753D01*
X-5291905Y9383753D02*
X-5291905Y9526610D01*
X-5291905Y9526610D02*
X-5244286Y9717086D01*
X-5244286Y9717086D02*
X-5196667Y9812324D01*
X-5196667Y9812324D02*
X-5101429Y9907562D01*
X-5101429Y9907562D02*
X-4958572Y9955181D01*
X-4958572Y9955181D02*
X-4863334Y9955181D01*
X-4863334Y9955181D02*
X-4720477Y9907562D01*
X-4720477Y9907562D02*
X-4672858Y9859943D01*
X-3720477Y8955181D02*
X-4291905Y8955181D01*
X-4006191Y8955181D02*
X-4006191Y9955181D01*
X-4006191Y9955181D02*
X-4101429Y9812324D01*
X-4101429Y9812324D02*
X-4196667Y9717086D01*
X-4196667Y9717086D02*
X-4291905Y9669467D01*
X-3339524Y9859943D02*
X-3291905Y9907562D01*
X-3291905Y9907562D02*
X-3196667Y9955181D01*
X-3196667Y9955181D02*
X-2958572Y9955181D01*
X-2958572Y9955181D02*
X-2863334Y9907562D01*
X-2863334Y9907562D02*
X-2815715Y9859943D01*
X-2815715Y9859943D02*
X-2768096Y9764705D01*
X-2768096Y9764705D02*
X-2768096Y9669467D01*
X-2768096Y9669467D02*
X-2815715Y9526610D01*
X-2815715Y9526610D02*
X-3387143Y8955181D01*
X-3387143Y8955181D02*
X-2768096Y8955181D01*
%TO.C,C8*%
X-4260420Y8253334D02*
X-4212800Y8205715D01*
X-4212800Y8205715D02*
X-4165181Y8062858D01*
X-4165181Y8062858D02*
X-4165181Y7967620D01*
X-4165181Y7967620D02*
X-4212800Y7824763D01*
X-4212800Y7824763D02*
X-4308039Y7729525D01*
X-4308039Y7729525D02*
X-4403277Y7681906D01*
X-4403277Y7681906D02*
X-4593753Y7634287D01*
X-4593753Y7634287D02*
X-4736610Y7634287D01*
X-4736610Y7634287D02*
X-4927086Y7681906D01*
X-4927086Y7681906D02*
X-5022324Y7729525D01*
X-5022324Y7729525D02*
X-5117562Y7824763D01*
X-5117562Y7824763D02*
X-5165181Y7967620D01*
X-5165181Y7967620D02*
X-5165181Y8062858D01*
X-5165181Y8062858D02*
X-5117562Y8205715D01*
X-5117562Y8205715D02*
X-5069943Y8253334D01*
X-4736610Y8824763D02*
X-4784229Y8729525D01*
X-4784229Y8729525D02*
X-4831848Y8681906D01*
X-4831848Y8681906D02*
X-4927086Y8634287D01*
X-4927086Y8634287D02*
X-4974705Y8634287D01*
X-4974705Y8634287D02*
X-5069943Y8681906D01*
X-5069943Y8681906D02*
X-5117562Y8729525D01*
X-5117562Y8729525D02*
X-5165181Y8824763D01*
X-5165181Y8824763D02*
X-5165181Y9015239D01*
X-5165181Y9015239D02*
X-5117562Y9110477D01*
X-5117562Y9110477D02*
X-5069943Y9158096D01*
X-5069943Y9158096D02*
X-4974705Y9205715D01*
X-4974705Y9205715D02*
X-4927086Y9205715D01*
X-4927086Y9205715D02*
X-4831848Y9158096D01*
X-4831848Y9158096D02*
X-4784229Y9110477D01*
X-4784229Y9110477D02*
X-4736610Y9015239D01*
X-4736610Y9015239D02*
X-4736610Y8824763D01*
X-4736610Y8824763D02*
X-4688991Y8729525D01*
X-4688991Y8729525D02*
X-4641372Y8681906D01*
X-4641372Y8681906D02*
X-4546134Y8634287D01*
X-4546134Y8634287D02*
X-4355658Y8634287D01*
X-4355658Y8634287D02*
X-4260420Y8681906D01*
X-4260420Y8681906D02*
X-4212800Y8729525D01*
X-4212800Y8729525D02*
X-4165181Y8824763D01*
X-4165181Y8824763D02*
X-4165181Y9015239D01*
X-4165181Y9015239D02*
X-4212800Y9110477D01*
X-4212800Y9110477D02*
X-4260420Y9158096D01*
X-4260420Y9158096D02*
X-4355658Y9205715D01*
X-4355658Y9205715D02*
X-4546134Y9205715D01*
X-4546134Y9205715D02*
X-4641372Y9158096D01*
X-4641372Y9158096D02*
X-4688991Y9110477D01*
X-4688991Y9110477D02*
X-4736610Y9015239D01*
%TO.C,C4*%
X-15446505Y11750920D02*
X-15494124Y11703300D01*
X-15494124Y11703300D02*
X-15636981Y11655681D01*
X-15636981Y11655681D02*
X-15732219Y11655681D01*
X-15732219Y11655681D02*
X-15875076Y11703300D01*
X-15875076Y11703300D02*
X-15970314Y11798539D01*
X-15970314Y11798539D02*
X-16017933Y11893777D01*
X-16017933Y11893777D02*
X-16065552Y12084253D01*
X-16065552Y12084253D02*
X-16065552Y12227110D01*
X-16065552Y12227110D02*
X-16017933Y12417586D01*
X-16017933Y12417586D02*
X-15970314Y12512824D01*
X-15970314Y12512824D02*
X-15875076Y12608062D01*
X-15875076Y12608062D02*
X-15732219Y12655681D01*
X-15732219Y12655681D02*
X-15636981Y12655681D01*
X-15636981Y12655681D02*
X-15494124Y12608062D01*
X-15494124Y12608062D02*
X-15446505Y12560443D01*
X-14589362Y12322348D02*
X-14589362Y11655681D01*
X-14827457Y12703300D02*
X-15065552Y11989015D01*
X-15065552Y11989015D02*
X-14446505Y11989015D01*
%TO.C,R4*%
X-2131505Y10085681D02*
X-2464838Y10561872D01*
X-2702933Y10085681D02*
X-2702933Y11085681D01*
X-2702933Y11085681D02*
X-2321981Y11085681D01*
X-2321981Y11085681D02*
X-2226743Y11038062D01*
X-2226743Y11038062D02*
X-2179124Y10990443D01*
X-2179124Y10990443D02*
X-2131505Y10895205D01*
X-2131505Y10895205D02*
X-2131505Y10752348D01*
X-2131505Y10752348D02*
X-2179124Y10657110D01*
X-2179124Y10657110D02*
X-2226743Y10609491D01*
X-2226743Y10609491D02*
X-2321981Y10561872D01*
X-2321981Y10561872D02*
X-2702933Y10561872D01*
X-1274362Y10752348D02*
X-1274362Y10085681D01*
X-1512457Y11133300D02*
X-1750552Y10419015D01*
X-1750552Y10419015D02*
X-1131505Y10419015D01*
%TO.C,C13*%
X-7820420Y23387143D02*
X-7772800Y23339524D01*
X-7772800Y23339524D02*
X-7725181Y23196667D01*
X-7725181Y23196667D02*
X-7725181Y23101429D01*
X-7725181Y23101429D02*
X-7772800Y22958572D01*
X-7772800Y22958572D02*
X-7868039Y22863334D01*
X-7868039Y22863334D02*
X-7963277Y22815715D01*
X-7963277Y22815715D02*
X-8153753Y22768096D01*
X-8153753Y22768096D02*
X-8296610Y22768096D01*
X-8296610Y22768096D02*
X-8487086Y22815715D01*
X-8487086Y22815715D02*
X-8582324Y22863334D01*
X-8582324Y22863334D02*
X-8677562Y22958572D01*
X-8677562Y22958572D02*
X-8725181Y23101429D01*
X-8725181Y23101429D02*
X-8725181Y23196667D01*
X-8725181Y23196667D02*
X-8677562Y23339524D01*
X-8677562Y23339524D02*
X-8629943Y23387143D01*
X-7725181Y24339524D02*
X-7725181Y23768096D01*
X-7725181Y24053810D02*
X-8725181Y24053810D01*
X-8725181Y24053810D02*
X-8582324Y23958572D01*
X-8582324Y23958572D02*
X-8487086Y23863334D01*
X-8487086Y23863334D02*
X-8439467Y23768096D01*
X-8725181Y24672858D02*
X-8725181Y25291905D01*
X-8725181Y25291905D02*
X-8344229Y24958572D01*
X-8344229Y24958572D02*
X-8344229Y25101429D01*
X-8344229Y25101429D02*
X-8296610Y25196667D01*
X-8296610Y25196667D02*
X-8248991Y25244286D01*
X-8248991Y25244286D02*
X-8153753Y25291905D01*
X-8153753Y25291905D02*
X-7915658Y25291905D01*
X-7915658Y25291905D02*
X-7820420Y25244286D01*
X-7820420Y25244286D02*
X-7772800Y25196667D01*
X-7772800Y25196667D02*
X-7725181Y25101429D01*
X-7725181Y25101429D02*
X-7725181Y24815715D01*
X-7725181Y24815715D02*
X-7772800Y24720477D01*
X-7772800Y24720477D02*
X-7820420Y24672858D01*
%TO.C,U5*%
X-13016743Y26285681D02*
X-13016743Y25476158D01*
X-13016743Y25476158D02*
X-12969124Y25380920D01*
X-12969124Y25380920D02*
X-12921505Y25333300D01*
X-12921505Y25333300D02*
X-12826267Y25285681D01*
X-12826267Y25285681D02*
X-12635791Y25285681D01*
X-12635791Y25285681D02*
X-12540553Y25333300D01*
X-12540553Y25333300D02*
X-12492934Y25380920D01*
X-12492934Y25380920D02*
X-12445315Y25476158D01*
X-12445315Y25476158D02*
X-12445315Y26285681D01*
X-11492934Y26285681D02*
X-11969124Y26285681D01*
X-11969124Y26285681D02*
X-12016743Y25809491D01*
X-12016743Y25809491D02*
X-11969124Y25857110D01*
X-11969124Y25857110D02*
X-11873886Y25904729D01*
X-11873886Y25904729D02*
X-11635791Y25904729D01*
X-11635791Y25904729D02*
X-11540553Y25857110D01*
X-11540553Y25857110D02*
X-11492934Y25809491D01*
X-11492934Y25809491D02*
X-11445315Y25714253D01*
X-11445315Y25714253D02*
X-11445315Y25476158D01*
X-11445315Y25476158D02*
X-11492934Y25380920D01*
X-11492934Y25380920D02*
X-11540553Y25333300D01*
X-11540553Y25333300D02*
X-11635791Y25285681D01*
X-11635791Y25285681D02*
X-11873886Y25285681D01*
X-11873886Y25285681D02*
X-11969124Y25333300D01*
X-11969124Y25333300D02*
X-12016743Y25380920D01*
%TO.C,C5*%
X-2691505Y14370920D02*
X-2739124Y14323300D01*
X-2739124Y14323300D02*
X-2881981Y14275681D01*
X-2881981Y14275681D02*
X-2977219Y14275681D01*
X-2977219Y14275681D02*
X-3120076Y14323300D01*
X-3120076Y14323300D02*
X-3215314Y14418539D01*
X-3215314Y14418539D02*
X-3262933Y14513777D01*
X-3262933Y14513777D02*
X-3310552Y14704253D01*
X-3310552Y14704253D02*
X-3310552Y14847110D01*
X-3310552Y14847110D02*
X-3262933Y15037586D01*
X-3262933Y15037586D02*
X-3215314Y15132824D01*
X-3215314Y15132824D02*
X-3120076Y15228062D01*
X-3120076Y15228062D02*
X-2977219Y15275681D01*
X-2977219Y15275681D02*
X-2881981Y15275681D01*
X-2881981Y15275681D02*
X-2739124Y15228062D01*
X-2739124Y15228062D02*
X-2691505Y15180443D01*
X-1786743Y15275681D02*
X-2262933Y15275681D01*
X-2262933Y15275681D02*
X-2310552Y14799491D01*
X-2310552Y14799491D02*
X-2262933Y14847110D01*
X-2262933Y14847110D02*
X-2167695Y14894729D01*
X-2167695Y14894729D02*
X-1929600Y14894729D01*
X-1929600Y14894729D02*
X-1834362Y14847110D01*
X-1834362Y14847110D02*
X-1786743Y14799491D01*
X-1786743Y14799491D02*
X-1739124Y14704253D01*
X-1739124Y14704253D02*
X-1739124Y14466158D01*
X-1739124Y14466158D02*
X-1786743Y14370920D01*
X-1786743Y14370920D02*
X-1834362Y14323300D01*
X-1834362Y14323300D02*
X-1929600Y14275681D01*
X-1929600Y14275681D02*
X-2167695Y14275681D01*
X-2167695Y14275681D02*
X-2262933Y14323300D01*
X-2262933Y14323300D02*
X-2310552Y14370920D01*
%TO.C,C6*%
X-11666505Y16660920D02*
X-11714124Y16613300D01*
X-11714124Y16613300D02*
X-11856981Y16565681D01*
X-11856981Y16565681D02*
X-11952219Y16565681D01*
X-11952219Y16565681D02*
X-12095076Y16613300D01*
X-12095076Y16613300D02*
X-12190314Y16708539D01*
X-12190314Y16708539D02*
X-12237933Y16803777D01*
X-12237933Y16803777D02*
X-12285552Y16994253D01*
X-12285552Y16994253D02*
X-12285552Y17137110D01*
X-12285552Y17137110D02*
X-12237933Y17327586D01*
X-12237933Y17327586D02*
X-12190314Y17422824D01*
X-12190314Y17422824D02*
X-12095076Y17518062D01*
X-12095076Y17518062D02*
X-11952219Y17565681D01*
X-11952219Y17565681D02*
X-11856981Y17565681D01*
X-11856981Y17565681D02*
X-11714124Y17518062D01*
X-11714124Y17518062D02*
X-11666505Y17470443D01*
X-10809362Y17565681D02*
X-10999838Y17565681D01*
X-10999838Y17565681D02*
X-11095076Y17518062D01*
X-11095076Y17518062D02*
X-11142695Y17470443D01*
X-11142695Y17470443D02*
X-11237933Y17327586D01*
X-11237933Y17327586D02*
X-11285552Y17137110D01*
X-11285552Y17137110D02*
X-11285552Y16756158D01*
X-11285552Y16756158D02*
X-11237933Y16660920D01*
X-11237933Y16660920D02*
X-11190314Y16613300D01*
X-11190314Y16613300D02*
X-11095076Y16565681D01*
X-11095076Y16565681D02*
X-10904600Y16565681D01*
X-10904600Y16565681D02*
X-10809362Y16613300D01*
X-10809362Y16613300D02*
X-10761743Y16660920D01*
X-10761743Y16660920D02*
X-10714124Y16756158D01*
X-10714124Y16756158D02*
X-10714124Y16994253D01*
X-10714124Y16994253D02*
X-10761743Y17089491D01*
X-10761743Y17089491D02*
X-10809362Y17137110D01*
X-10809362Y17137110D02*
X-10904600Y17184729D01*
X-10904600Y17184729D02*
X-11095076Y17184729D01*
X-11095076Y17184729D02*
X-11190314Y17137110D01*
X-11190314Y17137110D02*
X-11237933Y17089491D01*
X-11237933Y17089491D02*
X-11285552Y16994253D01*
%TO.C,U3*%
X-4827681Y12710596D02*
X-4018158Y12710596D01*
X-4018158Y12710596D02*
X-3922920Y12758215D01*
X-3922920Y12758215D02*
X-3875300Y12805834D01*
X-3875300Y12805834D02*
X-3827681Y12901072D01*
X-3827681Y12901072D02*
X-3827681Y13091548D01*
X-3827681Y13091548D02*
X-3875300Y13186786D01*
X-3875300Y13186786D02*
X-3922920Y13234405D01*
X-3922920Y13234405D02*
X-4018158Y13282024D01*
X-4018158Y13282024D02*
X-4827681Y13282024D01*
X-4827681Y13662977D02*
X-4827681Y14282024D01*
X-4827681Y14282024D02*
X-4446729Y13948691D01*
X-4446729Y13948691D02*
X-4446729Y14091548D01*
X-4446729Y14091548D02*
X-4399110Y14186786D01*
X-4399110Y14186786D02*
X-4351491Y14234405D01*
X-4351491Y14234405D02*
X-4256253Y14282024D01*
X-4256253Y14282024D02*
X-4018158Y14282024D01*
X-4018158Y14282024D02*
X-3922920Y14234405D01*
X-3922920Y14234405D02*
X-3875300Y14186786D01*
X-3875300Y14186786D02*
X-3827681Y14091548D01*
X-3827681Y14091548D02*
X-3827681Y13805834D01*
X-3827681Y13805834D02*
X-3875300Y13710596D01*
X-3875300Y13710596D02*
X-3922920Y13662977D01*
%TO.C,C3*%
X-11146505Y6980920D02*
X-11194124Y6933300D01*
X-11194124Y6933300D02*
X-11336981Y6885681D01*
X-11336981Y6885681D02*
X-11432219Y6885681D01*
X-11432219Y6885681D02*
X-11575076Y6933300D01*
X-11575076Y6933300D02*
X-11670314Y7028539D01*
X-11670314Y7028539D02*
X-11717933Y7123777D01*
X-11717933Y7123777D02*
X-11765552Y7314253D01*
X-11765552Y7314253D02*
X-11765552Y7457110D01*
X-11765552Y7457110D02*
X-11717933Y7647586D01*
X-11717933Y7647586D02*
X-11670314Y7742824D01*
X-11670314Y7742824D02*
X-11575076Y7838062D01*
X-11575076Y7838062D02*
X-11432219Y7885681D01*
X-11432219Y7885681D02*
X-11336981Y7885681D01*
X-11336981Y7885681D02*
X-11194124Y7838062D01*
X-11194124Y7838062D02*
X-11146505Y7790443D01*
X-10813171Y7885681D02*
X-10194124Y7885681D01*
X-10194124Y7885681D02*
X-10527457Y7504729D01*
X-10527457Y7504729D02*
X-10384600Y7504729D01*
X-10384600Y7504729D02*
X-10289362Y7457110D01*
X-10289362Y7457110D02*
X-10241743Y7409491D01*
X-10241743Y7409491D02*
X-10194124Y7314253D01*
X-10194124Y7314253D02*
X-10194124Y7076158D01*
X-10194124Y7076158D02*
X-10241743Y6980920D01*
X-10241743Y6980920D02*
X-10289362Y6933300D01*
X-10289362Y6933300D02*
X-10384600Y6885681D01*
X-10384600Y6885681D02*
X-10670314Y6885681D01*
X-10670314Y6885681D02*
X-10765552Y6933300D01*
X-10765552Y6933300D02*
X-10813171Y6980920D01*
%TO.C,C1*%
X-3335258Y14843834D02*
X-3287638Y14796215D01*
X-3287638Y14796215D02*
X-3240019Y14653358D01*
X-3240019Y14653358D02*
X-3240019Y14558120D01*
X-3240019Y14558120D02*
X-3287638Y14415263D01*
X-3287638Y14415263D02*
X-3382877Y14320025D01*
X-3382877Y14320025D02*
X-3478115Y14272406D01*
X-3478115Y14272406D02*
X-3668591Y14224787D01*
X-3668591Y14224787D02*
X-3811448Y14224787D01*
X-3811448Y14224787D02*
X-4001924Y14272406D01*
X-4001924Y14272406D02*
X-4097162Y14320025D01*
X-4097162Y14320025D02*
X-4192400Y14415263D01*
X-4192400Y14415263D02*
X-4240019Y14558120D01*
X-4240019Y14558120D02*
X-4240019Y14653358D01*
X-4240019Y14653358D02*
X-4192400Y14796215D01*
X-4192400Y14796215D02*
X-4144781Y14843834D01*
X-3240019Y15796215D02*
X-3240019Y15224787D01*
X-3240019Y15510501D02*
X-4240019Y15510501D01*
X-4240019Y15510501D02*
X-4097162Y15415263D01*
X-4097162Y15415263D02*
X-4001924Y15320025D01*
X-4001924Y15320025D02*
X-3954305Y15224787D01*
%TO.C,C10*%
X-4662858Y11370420D02*
X-4710477Y11322800D01*
X-4710477Y11322800D02*
X-4853334Y11275181D01*
X-4853334Y11275181D02*
X-4948572Y11275181D01*
X-4948572Y11275181D02*
X-5091429Y11322800D01*
X-5091429Y11322800D02*
X-5186667Y11418039D01*
X-5186667Y11418039D02*
X-5234286Y11513277D01*
X-5234286Y11513277D02*
X-5281905Y11703753D01*
X-5281905Y11703753D02*
X-5281905Y11846610D01*
X-5281905Y11846610D02*
X-5234286Y12037086D01*
X-5234286Y12037086D02*
X-5186667Y12132324D01*
X-5186667Y12132324D02*
X-5091429Y12227562D01*
X-5091429Y12227562D02*
X-4948572Y12275181D01*
X-4948572Y12275181D02*
X-4853334Y12275181D01*
X-4853334Y12275181D02*
X-4710477Y12227562D01*
X-4710477Y12227562D02*
X-4662858Y12179943D01*
X-3710477Y11275181D02*
X-4281905Y11275181D01*
X-3996191Y11275181D02*
X-3996191Y12275181D01*
X-3996191Y12275181D02*
X-4091429Y12132324D01*
X-4091429Y12132324D02*
X-4186667Y12037086D01*
X-4186667Y12037086D02*
X-4281905Y11989467D01*
X-3091429Y12275181D02*
X-2996191Y12275181D01*
X-2996191Y12275181D02*
X-2900953Y12227562D01*
X-2900953Y12227562D02*
X-2853334Y12179943D01*
X-2853334Y12179943D02*
X-2805715Y12084705D01*
X-2805715Y12084705D02*
X-2758096Y11894229D01*
X-2758096Y11894229D02*
X-2758096Y11656134D01*
X-2758096Y11656134D02*
X-2805715Y11465658D01*
X-2805715Y11465658D02*
X-2853334Y11370420D01*
X-2853334Y11370420D02*
X-2900953Y11322800D01*
X-2900953Y11322800D02*
X-2996191Y11275181D01*
X-2996191Y11275181D02*
X-3091429Y11275181D01*
X-3091429Y11275181D02*
X-3186667Y11322800D01*
X-3186667Y11322800D02*
X-3234286Y11370420D01*
X-3234286Y11370420D02*
X-3281905Y11465658D01*
X-3281905Y11465658D02*
X-3329524Y11656134D01*
X-3329524Y11656134D02*
X-3329524Y11894229D01*
X-3329524Y11894229D02*
X-3281905Y12084705D01*
X-3281905Y12084705D02*
X-3234286Y12179943D01*
X-3234286Y12179943D02*
X-3186667Y12227562D01*
X-3186667Y12227562D02*
X-3091429Y12275181D01*
%TO.C,P1*%
X388094Y32154820D02*
X388094Y31154820D01*
X388094Y31154820D02*
X7142Y31154820D01*
X7142Y31154820D02*
X-88096Y31202439D01*
X-88096Y31202439D02*
X-135715Y31250058D01*
X-135715Y31250058D02*
X-183334Y31345296D01*
X-183334Y31345296D02*
X-183334Y31488153D01*
X-183334Y31488153D02*
X-135715Y31583391D01*
X-135715Y31583391D02*
X-88096Y31631010D01*
X-88096Y31631010D02*
X7142Y31678629D01*
X7142Y31678629D02*
X388094Y31678629D01*
X-1135715Y32154820D02*
X-564287Y32154820D01*
X-850001Y32154820D02*
X-850001Y31154820D01*
X-850001Y31154820D02*
X-754763Y31297677D01*
X-754763Y31297677D02*
X-659525Y31392915D01*
X-659525Y31392915D02*
X-564287Y31440534D01*
%TO.C,C21*%
X-19014765Y12970420D02*
X-19062384Y12922800D01*
X-19062384Y12922800D02*
X-19205241Y12875181D01*
X-19205241Y12875181D02*
X-19300479Y12875181D01*
X-19300479Y12875181D02*
X-19443336Y12922800D01*
X-19443336Y12922800D02*
X-19538574Y13018039D01*
X-19538574Y13018039D02*
X-19586193Y13113277D01*
X-19586193Y13113277D02*
X-19633812Y13303753D01*
X-19633812Y13303753D02*
X-19633812Y13446610D01*
X-19633812Y13446610D02*
X-19586193Y13637086D01*
X-19586193Y13637086D02*
X-19538574Y13732324D01*
X-19538574Y13732324D02*
X-19443336Y13827562D01*
X-19443336Y13827562D02*
X-19300479Y13875181D01*
X-19300479Y13875181D02*
X-19205241Y13875181D01*
X-19205241Y13875181D02*
X-19062384Y13827562D01*
X-19062384Y13827562D02*
X-19014765Y13779943D01*
X-18633812Y13779943D02*
X-18586193Y13827562D01*
X-18586193Y13827562D02*
X-18490955Y13875181D01*
X-18490955Y13875181D02*
X-18252860Y13875181D01*
X-18252860Y13875181D02*
X-18157622Y13827562D01*
X-18157622Y13827562D02*
X-18110003Y13779943D01*
X-18110003Y13779943D02*
X-18062384Y13684705D01*
X-18062384Y13684705D02*
X-18062384Y13589467D01*
X-18062384Y13589467D02*
X-18110003Y13446610D01*
X-18110003Y13446610D02*
X-18681431Y12875181D01*
X-18681431Y12875181D02*
X-18062384Y12875181D01*
X-17110003Y12875181D02*
X-17681431Y12875181D01*
X-17395717Y12875181D02*
X-17395717Y13875181D01*
X-17395717Y13875181D02*
X-17490955Y13732324D01*
X-17490955Y13732324D02*
X-17586193Y13637086D01*
X-17586193Y13637086D02*
X-17681431Y13589467D01*
%TO.C,U6*%
X6415595Y15516431D02*
X6415595Y14706908D01*
X6415595Y14706908D02*
X6463214Y14611670D01*
X6463214Y14611670D02*
X6510833Y14564050D01*
X6510833Y14564050D02*
X6606071Y14516431D01*
X6606071Y14516431D02*
X6796547Y14516431D01*
X6796547Y14516431D02*
X6891785Y14564050D01*
X6891785Y14564050D02*
X6939404Y14611670D01*
X6939404Y14611670D02*
X6987023Y14706908D01*
X6987023Y14706908D02*
X6987023Y15516431D01*
X7891785Y15516431D02*
X7701309Y15516431D01*
X7701309Y15516431D02*
X7606071Y15468812D01*
X7606071Y15468812D02*
X7558452Y15421193D01*
X7558452Y15421193D02*
X7463214Y15278336D01*
X7463214Y15278336D02*
X7415595Y15087860D01*
X7415595Y15087860D02*
X7415595Y14706908D01*
X7415595Y14706908D02*
X7463214Y14611670D01*
X7463214Y14611670D02*
X7510833Y14564050D01*
X7510833Y14564050D02*
X7606071Y14516431D01*
X7606071Y14516431D02*
X7796547Y14516431D01*
X7796547Y14516431D02*
X7891785Y14564050D01*
X7891785Y14564050D02*
X7939404Y14611670D01*
X7939404Y14611670D02*
X7987023Y14706908D01*
X7987023Y14706908D02*
X7987023Y14945003D01*
X7987023Y14945003D02*
X7939404Y15040241D01*
X7939404Y15040241D02*
X7891785Y15087860D01*
X7891785Y15087860D02*
X7796547Y15135479D01*
X7796547Y15135479D02*
X7606071Y15135479D01*
X7606071Y15135479D02*
X7510833Y15087860D01*
X7510833Y15087860D02*
X7463214Y15040241D01*
X7463214Y15040241D02*
X7415595Y14945003D01*
%TO.C,U9*%
X21318095Y725181D02*
X21318095Y-84342D01*
X21318095Y-84342D02*
X21365714Y-179580D01*
X21365714Y-179580D02*
X21413333Y-227200D01*
X21413333Y-227200D02*
X21508571Y-274819D01*
X21508571Y-274819D02*
X21699047Y-274819D01*
X21699047Y-274819D02*
X21794285Y-227200D01*
X21794285Y-227200D02*
X21841904Y-179580D01*
X21841904Y-179580D02*
X21889523Y-84342D01*
X21889523Y-84342D02*
X21889523Y725181D01*
X22413333Y-274819D02*
X22603809Y-274819D01*
X22603809Y-274819D02*
X22699047Y-227200D01*
X22699047Y-227200D02*
X22746666Y-179580D01*
X22746666Y-179580D02*
X22841904Y-36723D01*
X22841904Y-36723D02*
X22889523Y153753D01*
X22889523Y153753D02*
X22889523Y534705D01*
X22889523Y534705D02*
X22841904Y629943D01*
X22841904Y629943D02*
X22794285Y677562D01*
X22794285Y677562D02*
X22699047Y725181D01*
X22699047Y725181D02*
X22508571Y725181D01*
X22508571Y725181D02*
X22413333Y677562D01*
X22413333Y677562D02*
X22365714Y629943D01*
X22365714Y629943D02*
X22318095Y534705D01*
X22318095Y534705D02*
X22318095Y296610D01*
X22318095Y296610D02*
X22365714Y201372D01*
X22365714Y201372D02*
X22413333Y153753D01*
X22413333Y153753D02*
X22508571Y106134D01*
X22508571Y106134D02*
X22699047Y106134D01*
X22699047Y106134D02*
X22794285Y153753D01*
X22794285Y153753D02*
X22841904Y201372D01*
X22841904Y201372D02*
X22889523Y296610D01*
%TO.C,C18*%
X8992080Y17328393D02*
X9039700Y17280774D01*
X9039700Y17280774D02*
X9087319Y17137917D01*
X9087319Y17137917D02*
X9087319Y17042679D01*
X9087319Y17042679D02*
X9039700Y16899822D01*
X9039700Y16899822D02*
X8944461Y16804584D01*
X8944461Y16804584D02*
X8849223Y16756965D01*
X8849223Y16756965D02*
X8658747Y16709346D01*
X8658747Y16709346D02*
X8515890Y16709346D01*
X8515890Y16709346D02*
X8325414Y16756965D01*
X8325414Y16756965D02*
X8230176Y16804584D01*
X8230176Y16804584D02*
X8134938Y16899822D01*
X8134938Y16899822D02*
X8087319Y17042679D01*
X8087319Y17042679D02*
X8087319Y17137917D01*
X8087319Y17137917D02*
X8134938Y17280774D01*
X8134938Y17280774D02*
X8182557Y17328393D01*
X9087319Y18280774D02*
X9087319Y17709346D01*
X9087319Y17995060D02*
X8087319Y17995060D01*
X8087319Y17995060D02*
X8230176Y17899822D01*
X8230176Y17899822D02*
X8325414Y17804584D01*
X8325414Y17804584D02*
X8373033Y17709346D01*
X8515890Y18852203D02*
X8468271Y18756965D01*
X8468271Y18756965D02*
X8420652Y18709346D01*
X8420652Y18709346D02*
X8325414Y18661727D01*
X8325414Y18661727D02*
X8277795Y18661727D01*
X8277795Y18661727D02*
X8182557Y18709346D01*
X8182557Y18709346D02*
X8134938Y18756965D01*
X8134938Y18756965D02*
X8087319Y18852203D01*
X8087319Y18852203D02*
X8087319Y19042679D01*
X8087319Y19042679D02*
X8134938Y19137917D01*
X8134938Y19137917D02*
X8182557Y19185536D01*
X8182557Y19185536D02*
X8277795Y19233155D01*
X8277795Y19233155D02*
X8325414Y19233155D01*
X8325414Y19233155D02*
X8420652Y19185536D01*
X8420652Y19185536D02*
X8468271Y19137917D01*
X8468271Y19137917D02*
X8515890Y19042679D01*
X8515890Y19042679D02*
X8515890Y18852203D01*
X8515890Y18852203D02*
X8563509Y18756965D01*
X8563509Y18756965D02*
X8611128Y18709346D01*
X8611128Y18709346D02*
X8706366Y18661727D01*
X8706366Y18661727D02*
X8896842Y18661727D01*
X8896842Y18661727D02*
X8992080Y18709346D01*
X8992080Y18709346D02*
X9039700Y18756965D01*
X9039700Y18756965D02*
X9087319Y18852203D01*
X9087319Y18852203D02*
X9087319Y19042679D01*
X9087319Y19042679D02*
X9039700Y19137917D01*
X9039700Y19137917D02*
X8992080Y19185536D01*
X8992080Y19185536D02*
X8896842Y19233155D01*
X8896842Y19233155D02*
X8706366Y19233155D01*
X8706366Y19233155D02*
X8611128Y19185536D01*
X8611128Y19185536D02*
X8563509Y19137917D01*
X8563509Y19137917D02*
X8515890Y19042679D01*
%TO.C,Y1*%
X-15601372Y14303810D02*
X-15125181Y14303810D01*
X-16125181Y13970477D02*
X-15601372Y14303810D01*
X-15601372Y14303810D02*
X-16125181Y14637143D01*
X-15125181Y15494286D02*
X-15125181Y14922858D01*
X-15125181Y15208572D02*
X-16125181Y15208572D01*
X-16125181Y15208572D02*
X-15982324Y15113334D01*
X-15982324Y15113334D02*
X-15887086Y15018096D01*
X-15887086Y15018096D02*
X-15839467Y14922858D01*
%TO.C,U1*%
X626666Y20463967D02*
X626666Y19897300D01*
X626666Y19897300D02*
X660000Y19830634D01*
X660000Y19830634D02*
X693333Y19797300D01*
X693333Y19797300D02*
X760000Y19763967D01*
X760000Y19763967D02*
X893333Y19763967D01*
X893333Y19763967D02*
X960000Y19797300D01*
X960000Y19797300D02*
X993333Y19830634D01*
X993333Y19830634D02*
X1026666Y19897300D01*
X1026666Y19897300D02*
X1026666Y20463967D01*
X1726666Y19763967D02*
X1326666Y19763967D01*
X1526666Y19763967D02*
X1526666Y20463967D01*
X1526666Y20463967D02*
X1459999Y20363967D01*
X1459999Y20363967D02*
X1393333Y20297300D01*
X1393333Y20297300D02*
X1326666Y20263967D01*
X211666Y24325634D02*
X445000Y24325634D01*
X545000Y23958967D02*
X211666Y23958967D01*
X211666Y23958967D02*
X211666Y24658967D01*
X211666Y24658967D02*
X545000Y24658967D01*
X811666Y23992300D02*
X911666Y23958967D01*
X911666Y23958967D02*
X1078333Y23958967D01*
X1078333Y23958967D02*
X1144999Y23992300D01*
X1144999Y23992300D02*
X1178333Y24025634D01*
X1178333Y24025634D02*
X1211666Y24092300D01*
X1211666Y24092300D02*
X1211666Y24158967D01*
X1211666Y24158967D02*
X1178333Y24225634D01*
X1178333Y24225634D02*
X1144999Y24258967D01*
X1144999Y24258967D02*
X1078333Y24292300D01*
X1078333Y24292300D02*
X944999Y24325634D01*
X944999Y24325634D02*
X878333Y24358967D01*
X878333Y24358967D02*
X844999Y24392300D01*
X844999Y24392300D02*
X811666Y24458967D01*
X811666Y24458967D02*
X811666Y24525634D01*
X811666Y24525634D02*
X844999Y24592300D01*
X844999Y24592300D02*
X878333Y24625634D01*
X878333Y24625634D02*
X944999Y24658967D01*
X944999Y24658967D02*
X1111666Y24658967D01*
X1111666Y24658967D02*
X1211666Y24625634D01*
X1511666Y23958967D02*
X1511666Y24658967D01*
X1511666Y24658967D02*
X1678333Y24658967D01*
X1678333Y24658967D02*
X1778333Y24625634D01*
X1778333Y24625634D02*
X1845000Y24558967D01*
X1845000Y24558967D02*
X1878333Y24492300D01*
X1878333Y24492300D02*
X1911666Y24358967D01*
X1911666Y24358967D02*
X1911666Y24258967D01*
X1911666Y24258967D02*
X1878333Y24125634D01*
X1878333Y24125634D02*
X1845000Y24058967D01*
X1845000Y24058967D02*
X1778333Y23992300D01*
X1778333Y23992300D02*
X1678333Y23958967D01*
X1678333Y23958967D02*
X1511666Y23958967D01*
%TO.C,R6*%
X-18675181Y21313334D02*
X-19151372Y20980001D01*
X-18675181Y20741906D02*
X-19675181Y20741906D01*
X-19675181Y20741906D02*
X-19675181Y21122858D01*
X-19675181Y21122858D02*
X-19627562Y21218096D01*
X-19627562Y21218096D02*
X-19579943Y21265715D01*
X-19579943Y21265715D02*
X-19484705Y21313334D01*
X-19484705Y21313334D02*
X-19341848Y21313334D01*
X-19341848Y21313334D02*
X-19246610Y21265715D01*
X-19246610Y21265715D02*
X-19198991Y21218096D01*
X-19198991Y21218096D02*
X-19151372Y21122858D01*
X-19151372Y21122858D02*
X-19151372Y20741906D01*
X-19675181Y22170477D02*
X-19675181Y21980001D01*
X-19675181Y21980001D02*
X-19627562Y21884763D01*
X-19627562Y21884763D02*
X-19579943Y21837144D01*
X-19579943Y21837144D02*
X-19437086Y21741906D01*
X-19437086Y21741906D02*
X-19246610Y21694287D01*
X-19246610Y21694287D02*
X-18865658Y21694287D01*
X-18865658Y21694287D02*
X-18770420Y21741906D01*
X-18770420Y21741906D02*
X-18722800Y21789525D01*
X-18722800Y21789525D02*
X-18675181Y21884763D01*
X-18675181Y21884763D02*
X-18675181Y22075239D01*
X-18675181Y22075239D02*
X-18722800Y22170477D01*
X-18722800Y22170477D02*
X-18770420Y22218096D01*
X-18770420Y22218096D02*
X-18865658Y22265715D01*
X-18865658Y22265715D02*
X-19103753Y22265715D01*
X-19103753Y22265715D02*
X-19198991Y22218096D01*
X-19198991Y22218096D02*
X-19246610Y22170477D01*
X-19246610Y22170477D02*
X-19294229Y22075239D01*
X-19294229Y22075239D02*
X-19294229Y21884763D01*
X-19294229Y21884763D02*
X-19246610Y21789525D01*
X-19246610Y21789525D02*
X-19198991Y21741906D01*
X-19198991Y21741906D02*
X-19103753Y21694287D01*
%TO.C,C22*%
X-16652858Y-2669580D02*
X-16700477Y-2717200D01*
X-16700477Y-2717200D02*
X-16843334Y-2764819D01*
X-16843334Y-2764819D02*
X-16938572Y-2764819D01*
X-16938572Y-2764819D02*
X-17081429Y-2717200D01*
X-17081429Y-2717200D02*
X-17176667Y-2621961D01*
X-17176667Y-2621961D02*
X-17224286Y-2526723D01*
X-17224286Y-2526723D02*
X-17271905Y-2336247D01*
X-17271905Y-2336247D02*
X-17271905Y-2193390D01*
X-17271905Y-2193390D02*
X-17224286Y-2002914D01*
X-17224286Y-2002914D02*
X-17176667Y-1907676D01*
X-17176667Y-1907676D02*
X-17081429Y-1812438D01*
X-17081429Y-1812438D02*
X-16938572Y-1764819D01*
X-16938572Y-1764819D02*
X-16843334Y-1764819D01*
X-16843334Y-1764819D02*
X-16700477Y-1812438D01*
X-16700477Y-1812438D02*
X-16652858Y-1860057D01*
X-16271905Y-1860057D02*
X-16224286Y-1812438D01*
X-16224286Y-1812438D02*
X-16129048Y-1764819D01*
X-16129048Y-1764819D02*
X-15890953Y-1764819D01*
X-15890953Y-1764819D02*
X-15795715Y-1812438D01*
X-15795715Y-1812438D02*
X-15748096Y-1860057D01*
X-15748096Y-1860057D02*
X-15700477Y-1955295D01*
X-15700477Y-1955295D02*
X-15700477Y-2050533D01*
X-15700477Y-2050533D02*
X-15748096Y-2193390D01*
X-15748096Y-2193390D02*
X-16319524Y-2764819D01*
X-16319524Y-2764819D02*
X-15700477Y-2764819D01*
X-15319524Y-1860057D02*
X-15271905Y-1812438D01*
X-15271905Y-1812438D02*
X-15176667Y-1764819D01*
X-15176667Y-1764819D02*
X-14938572Y-1764819D01*
X-14938572Y-1764819D02*
X-14843334Y-1812438D01*
X-14843334Y-1812438D02*
X-14795715Y-1860057D01*
X-14795715Y-1860057D02*
X-14748096Y-1955295D01*
X-14748096Y-1955295D02*
X-14748096Y-2050533D01*
X-14748096Y-2050533D02*
X-14795715Y-2193390D01*
X-14795715Y-2193390D02*
X-15367143Y-2764819D01*
X-15367143Y-2764819D02*
X-14748096Y-2764819D01*
%TO.C,R5*%
X-16365181Y23223334D02*
X-16841372Y22890001D01*
X-16365181Y22651906D02*
X-17365181Y22651906D01*
X-17365181Y22651906D02*
X-17365181Y23032858D01*
X-17365181Y23032858D02*
X-17317562Y23128096D01*
X-17317562Y23128096D02*
X-17269943Y23175715D01*
X-17269943Y23175715D02*
X-17174705Y23223334D01*
X-17174705Y23223334D02*
X-17031848Y23223334D01*
X-17031848Y23223334D02*
X-16936610Y23175715D01*
X-16936610Y23175715D02*
X-16888991Y23128096D01*
X-16888991Y23128096D02*
X-16841372Y23032858D01*
X-16841372Y23032858D02*
X-16841372Y22651906D01*
X-17365181Y24128096D02*
X-17365181Y23651906D01*
X-17365181Y23651906D02*
X-16888991Y23604287D01*
X-16888991Y23604287D02*
X-16936610Y23651906D01*
X-16936610Y23651906D02*
X-16984229Y23747144D01*
X-16984229Y23747144D02*
X-16984229Y23985239D01*
X-16984229Y23985239D02*
X-16936610Y24080477D01*
X-16936610Y24080477D02*
X-16888991Y24128096D01*
X-16888991Y24128096D02*
X-16793753Y24175715D01*
X-16793753Y24175715D02*
X-16555658Y24175715D01*
X-16555658Y24175715D02*
X-16460420Y24128096D01*
X-16460420Y24128096D02*
X-16412800Y24080477D01*
X-16412800Y24080477D02*
X-16365181Y23985239D01*
X-16365181Y23985239D02*
X-16365181Y23747144D01*
X-16365181Y23747144D02*
X-16412800Y23651906D01*
X-16412800Y23651906D02*
X-16460420Y23604287D01*
%TO.C,C20*%
X-19014765Y15870420D02*
X-19062384Y15822800D01*
X-19062384Y15822800D02*
X-19205241Y15775181D01*
X-19205241Y15775181D02*
X-19300479Y15775181D01*
X-19300479Y15775181D02*
X-19443336Y15822800D01*
X-19443336Y15822800D02*
X-19538574Y15918039D01*
X-19538574Y15918039D02*
X-19586193Y16013277D01*
X-19586193Y16013277D02*
X-19633812Y16203753D01*
X-19633812Y16203753D02*
X-19633812Y16346610D01*
X-19633812Y16346610D02*
X-19586193Y16537086D01*
X-19586193Y16537086D02*
X-19538574Y16632324D01*
X-19538574Y16632324D02*
X-19443336Y16727562D01*
X-19443336Y16727562D02*
X-19300479Y16775181D01*
X-19300479Y16775181D02*
X-19205241Y16775181D01*
X-19205241Y16775181D02*
X-19062384Y16727562D01*
X-19062384Y16727562D02*
X-19014765Y16679943D01*
X-18633812Y16679943D02*
X-18586193Y16727562D01*
X-18586193Y16727562D02*
X-18490955Y16775181D01*
X-18490955Y16775181D02*
X-18252860Y16775181D01*
X-18252860Y16775181D02*
X-18157622Y16727562D01*
X-18157622Y16727562D02*
X-18110003Y16679943D01*
X-18110003Y16679943D02*
X-18062384Y16584705D01*
X-18062384Y16584705D02*
X-18062384Y16489467D01*
X-18062384Y16489467D02*
X-18110003Y16346610D01*
X-18110003Y16346610D02*
X-18681431Y15775181D01*
X-18681431Y15775181D02*
X-18062384Y15775181D01*
X-17443336Y16775181D02*
X-17348098Y16775181D01*
X-17348098Y16775181D02*
X-17252860Y16727562D01*
X-17252860Y16727562D02*
X-17205241Y16679943D01*
X-17205241Y16679943D02*
X-17157622Y16584705D01*
X-17157622Y16584705D02*
X-17110003Y16394229D01*
X-17110003Y16394229D02*
X-17110003Y16156134D01*
X-17110003Y16156134D02*
X-17157622Y15965658D01*
X-17157622Y15965658D02*
X-17205241Y15870420D01*
X-17205241Y15870420D02*
X-17252860Y15822800D01*
X-17252860Y15822800D02*
X-17348098Y15775181D01*
X-17348098Y15775181D02*
X-17443336Y15775181D01*
X-17443336Y15775181D02*
X-17538574Y15822800D01*
X-17538574Y15822800D02*
X-17586193Y15870420D01*
X-17586193Y15870420D02*
X-17633812Y15965658D01*
X-17633812Y15965658D02*
X-17681431Y16156134D01*
X-17681431Y16156134D02*
X-17681431Y16394229D01*
X-17681431Y16394229D02*
X-17633812Y16584705D01*
X-17633812Y16584705D02*
X-17586193Y16679943D01*
X-17586193Y16679943D02*
X-17538574Y16727562D01*
X-17538574Y16727562D02*
X-17443336Y16775181D01*
%TO.C,R8*%
X-15416667Y12645181D02*
X-15750000Y13121372D01*
X-15988095Y12645181D02*
X-15988095Y13645181D01*
X-15988095Y13645181D02*
X-15607143Y13645181D01*
X-15607143Y13645181D02*
X-15511905Y13597562D01*
X-15511905Y13597562D02*
X-15464286Y13549943D01*
X-15464286Y13549943D02*
X-15416667Y13454705D01*
X-15416667Y13454705D02*
X-15416667Y13311848D01*
X-15416667Y13311848D02*
X-15464286Y13216610D01*
X-15464286Y13216610D02*
X-15511905Y13168991D01*
X-15511905Y13168991D02*
X-15607143Y13121372D01*
X-15607143Y13121372D02*
X-15988095Y13121372D01*
X-14845238Y13216610D02*
X-14940476Y13264229D01*
X-14940476Y13264229D02*
X-14988095Y13311848D01*
X-14988095Y13311848D02*
X-15035714Y13407086D01*
X-15035714Y13407086D02*
X-15035714Y13454705D01*
X-15035714Y13454705D02*
X-14988095Y13549943D01*
X-14988095Y13549943D02*
X-14940476Y13597562D01*
X-14940476Y13597562D02*
X-14845238Y13645181D01*
X-14845238Y13645181D02*
X-14654762Y13645181D01*
X-14654762Y13645181D02*
X-14559524Y13597562D01*
X-14559524Y13597562D02*
X-14511905Y13549943D01*
X-14511905Y13549943D02*
X-14464286Y13454705D01*
X-14464286Y13454705D02*
X-14464286Y13407086D01*
X-14464286Y13407086D02*
X-14511905Y13311848D01*
X-14511905Y13311848D02*
X-14559524Y13264229D01*
X-14559524Y13264229D02*
X-14654762Y13216610D01*
X-14654762Y13216610D02*
X-14845238Y13216610D01*
X-14845238Y13216610D02*
X-14940476Y13168991D01*
X-14940476Y13168991D02*
X-14988095Y13121372D01*
X-14988095Y13121372D02*
X-15035714Y13026134D01*
X-15035714Y13026134D02*
X-15035714Y12835658D01*
X-15035714Y12835658D02*
X-14988095Y12740420D01*
X-14988095Y12740420D02*
X-14940476Y12692800D01*
X-14940476Y12692800D02*
X-14845238Y12645181D01*
X-14845238Y12645181D02*
X-14654762Y12645181D01*
X-14654762Y12645181D02*
X-14559524Y12692800D01*
X-14559524Y12692800D02*
X-14511905Y12740420D01*
X-14511905Y12740420D02*
X-14464286Y12835658D01*
X-14464286Y12835658D02*
X-14464286Y13026134D01*
X-14464286Y13026134D02*
X-14511905Y13121372D01*
X-14511905Y13121372D02*
X-14559524Y13168991D01*
X-14559524Y13168991D02*
X-14654762Y13216610D01*
%TO.C,U8*%
X2118095Y645181D02*
X2118095Y-164342D01*
X2118095Y-164342D02*
X2165714Y-259580D01*
X2165714Y-259580D02*
X2213333Y-307200D01*
X2213333Y-307200D02*
X2308571Y-354819D01*
X2308571Y-354819D02*
X2499047Y-354819D01*
X2499047Y-354819D02*
X2594285Y-307200D01*
X2594285Y-307200D02*
X2641904Y-259580D01*
X2641904Y-259580D02*
X2689523Y-164342D01*
X2689523Y-164342D02*
X2689523Y645181D01*
X3308571Y216610D02*
X3213333Y264229D01*
X3213333Y264229D02*
X3165714Y311848D01*
X3165714Y311848D02*
X3118095Y407086D01*
X3118095Y407086D02*
X3118095Y454705D01*
X3118095Y454705D02*
X3165714Y549943D01*
X3165714Y549943D02*
X3213333Y597562D01*
X3213333Y597562D02*
X3308571Y645181D01*
X3308571Y645181D02*
X3499047Y645181D01*
X3499047Y645181D02*
X3594285Y597562D01*
X3594285Y597562D02*
X3641904Y549943D01*
X3641904Y549943D02*
X3689523Y454705D01*
X3689523Y454705D02*
X3689523Y407086D01*
X3689523Y407086D02*
X3641904Y311848D01*
X3641904Y311848D02*
X3594285Y264229D01*
X3594285Y264229D02*
X3499047Y216610D01*
X3499047Y216610D02*
X3308571Y216610D01*
X3308571Y216610D02*
X3213333Y168991D01*
X3213333Y168991D02*
X3165714Y121372D01*
X3165714Y121372D02*
X3118095Y26134D01*
X3118095Y26134D02*
X3118095Y-164342D01*
X3118095Y-164342D02*
X3165714Y-259580D01*
X3165714Y-259580D02*
X3213333Y-307200D01*
X3213333Y-307200D02*
X3308571Y-354819D01*
X3308571Y-354819D02*
X3499047Y-354819D01*
X3499047Y-354819D02*
X3594285Y-307200D01*
X3594285Y-307200D02*
X3641904Y-259580D01*
X3641904Y-259580D02*
X3689523Y-164342D01*
X3689523Y-164342D02*
X3689523Y26134D01*
X3689523Y26134D02*
X3641904Y121372D01*
X3641904Y121372D02*
X3594285Y168991D01*
X3594285Y168991D02*
X3499047Y216610D01*
%TO.C,C24*%
X2277142Y-2639580D02*
X2229523Y-2687200D01*
X2229523Y-2687200D02*
X2086666Y-2734819D01*
X2086666Y-2734819D02*
X1991428Y-2734819D01*
X1991428Y-2734819D02*
X1848571Y-2687200D01*
X1848571Y-2687200D02*
X1753333Y-2591961D01*
X1753333Y-2591961D02*
X1705714Y-2496723D01*
X1705714Y-2496723D02*
X1658095Y-2306247D01*
X1658095Y-2306247D02*
X1658095Y-2163390D01*
X1658095Y-2163390D02*
X1705714Y-1972914D01*
X1705714Y-1972914D02*
X1753333Y-1877676D01*
X1753333Y-1877676D02*
X1848571Y-1782438D01*
X1848571Y-1782438D02*
X1991428Y-1734819D01*
X1991428Y-1734819D02*
X2086666Y-1734819D01*
X2086666Y-1734819D02*
X2229523Y-1782438D01*
X2229523Y-1782438D02*
X2277142Y-1830057D01*
X2658095Y-1830057D02*
X2705714Y-1782438D01*
X2705714Y-1782438D02*
X2800952Y-1734819D01*
X2800952Y-1734819D02*
X3039047Y-1734819D01*
X3039047Y-1734819D02*
X3134285Y-1782438D01*
X3134285Y-1782438D02*
X3181904Y-1830057D01*
X3181904Y-1830057D02*
X3229523Y-1925295D01*
X3229523Y-1925295D02*
X3229523Y-2020533D01*
X3229523Y-2020533D02*
X3181904Y-2163390D01*
X3181904Y-2163390D02*
X2610476Y-2734819D01*
X2610476Y-2734819D02*
X3229523Y-2734819D01*
X4086666Y-2068152D02*
X4086666Y-2734819D01*
X3848571Y-1687200D02*
X3610476Y-2401485D01*
X3610476Y-2401485D02*
X4229523Y-2401485D01*
%TO.C,U7*%
X-16711905Y405181D02*
X-16711905Y-404342D01*
X-16711905Y-404342D02*
X-16664286Y-499580D01*
X-16664286Y-499580D02*
X-16616667Y-547200D01*
X-16616667Y-547200D02*
X-16521429Y-594819D01*
X-16521429Y-594819D02*
X-16330953Y-594819D01*
X-16330953Y-594819D02*
X-16235715Y-547200D01*
X-16235715Y-547200D02*
X-16188096Y-499580D01*
X-16188096Y-499580D02*
X-16140477Y-404342D01*
X-16140477Y-404342D02*
X-16140477Y405181D01*
X-15759524Y405181D02*
X-15092858Y405181D01*
X-15092858Y405181D02*
X-15521429Y-594819D01*
%TO.C,C23*%
X20957142Y-2629580D02*
X20909523Y-2677200D01*
X20909523Y-2677200D02*
X20766666Y-2724819D01*
X20766666Y-2724819D02*
X20671428Y-2724819D01*
X20671428Y-2724819D02*
X20528571Y-2677200D01*
X20528571Y-2677200D02*
X20433333Y-2581961D01*
X20433333Y-2581961D02*
X20385714Y-2486723D01*
X20385714Y-2486723D02*
X20338095Y-2296247D01*
X20338095Y-2296247D02*
X20338095Y-2153390D01*
X20338095Y-2153390D02*
X20385714Y-1962914D01*
X20385714Y-1962914D02*
X20433333Y-1867676D01*
X20433333Y-1867676D02*
X20528571Y-1772438D01*
X20528571Y-1772438D02*
X20671428Y-1724819D01*
X20671428Y-1724819D02*
X20766666Y-1724819D01*
X20766666Y-1724819D02*
X20909523Y-1772438D01*
X20909523Y-1772438D02*
X20957142Y-1820057D01*
X21338095Y-1820057D02*
X21385714Y-1772438D01*
X21385714Y-1772438D02*
X21480952Y-1724819D01*
X21480952Y-1724819D02*
X21719047Y-1724819D01*
X21719047Y-1724819D02*
X21814285Y-1772438D01*
X21814285Y-1772438D02*
X21861904Y-1820057D01*
X21861904Y-1820057D02*
X21909523Y-1915295D01*
X21909523Y-1915295D02*
X21909523Y-2010533D01*
X21909523Y-2010533D02*
X21861904Y-2153390D01*
X21861904Y-2153390D02*
X21290476Y-2724819D01*
X21290476Y-2724819D02*
X21909523Y-2724819D01*
X22242857Y-1724819D02*
X22861904Y-1724819D01*
X22861904Y-1724819D02*
X22528571Y-2105771D01*
X22528571Y-2105771D02*
X22671428Y-2105771D01*
X22671428Y-2105771D02*
X22766666Y-2153390D01*
X22766666Y-2153390D02*
X22814285Y-2201009D01*
X22814285Y-2201009D02*
X22861904Y-2296247D01*
X22861904Y-2296247D02*
X22861904Y-2534342D01*
X22861904Y-2534342D02*
X22814285Y-2629580D01*
X22814285Y-2629580D02*
X22766666Y-2677200D01*
X22766666Y-2677200D02*
X22671428Y-2724819D01*
X22671428Y-2724819D02*
X22385714Y-2724819D01*
X22385714Y-2724819D02*
X22290476Y-2677200D01*
X22290476Y-2677200D02*
X22242857Y-2629580D01*
%TO.C,F1*%
X7086666Y24408991D02*
X6753333Y24408991D01*
X6753333Y23885181D02*
X6753333Y24885181D01*
X6753333Y24885181D02*
X7229523Y24885181D01*
X8134285Y23885181D02*
X7562857Y23885181D01*
X7848571Y23885181D02*
X7848571Y24885181D01*
X7848571Y24885181D02*
X7753333Y24742324D01*
X7753333Y24742324D02*
X7658095Y24647086D01*
X7658095Y24647086D02*
X7562857Y24599467D01*
%TO.C,C19*%
X2412080Y17328393D02*
X2459700Y17280774D01*
X2459700Y17280774D02*
X2507319Y17137917D01*
X2507319Y17137917D02*
X2507319Y17042679D01*
X2507319Y17042679D02*
X2459700Y16899822D01*
X2459700Y16899822D02*
X2364461Y16804584D01*
X2364461Y16804584D02*
X2269223Y16756965D01*
X2269223Y16756965D02*
X2078747Y16709346D01*
X2078747Y16709346D02*
X1935890Y16709346D01*
X1935890Y16709346D02*
X1745414Y16756965D01*
X1745414Y16756965D02*
X1650176Y16804584D01*
X1650176Y16804584D02*
X1554938Y16899822D01*
X1554938Y16899822D02*
X1507319Y17042679D01*
X1507319Y17042679D02*
X1507319Y17137917D01*
X1507319Y17137917D02*
X1554938Y17280774D01*
X1554938Y17280774D02*
X1602557Y17328393D01*
X2507319Y18280774D02*
X2507319Y17709346D01*
X2507319Y17995060D02*
X1507319Y17995060D01*
X1507319Y17995060D02*
X1650176Y17899822D01*
X1650176Y17899822D02*
X1745414Y17804584D01*
X1745414Y17804584D02*
X1793033Y17709346D01*
X2507319Y18756965D02*
X2507319Y18947441D01*
X2507319Y18947441D02*
X2459700Y19042679D01*
X2459700Y19042679D02*
X2412080Y19090298D01*
X2412080Y19090298D02*
X2269223Y19185536D01*
X2269223Y19185536D02*
X2078747Y19233155D01*
X2078747Y19233155D02*
X1697795Y19233155D01*
X1697795Y19233155D02*
X1602557Y19185536D01*
X1602557Y19185536D02*
X1554938Y19137917D01*
X1554938Y19137917D02*
X1507319Y19042679D01*
X1507319Y19042679D02*
X1507319Y18852203D01*
X1507319Y18852203D02*
X1554938Y18756965D01*
X1554938Y18756965D02*
X1602557Y18709346D01*
X1602557Y18709346D02*
X1697795Y18661727D01*
X1697795Y18661727D02*
X1935890Y18661727D01*
X1935890Y18661727D02*
X2031128Y18709346D01*
X2031128Y18709346D02*
X2078747Y18756965D01*
X2078747Y18756965D02*
X2126366Y18852203D01*
X2126366Y18852203D02*
X2126366Y19042679D01*
X2126366Y19042679D02*
X2078747Y19137917D01*
X2078747Y19137917D02*
X2031128Y19185536D01*
X2031128Y19185536D02*
X1935890Y19233155D01*
D11*
%TO.C,R3*%
X-1847002Y12270500D02*
X-2062674Y12270500D01*
X-1847002Y12990500D02*
X-2062674Y12990500D01*
%TO.C,C2*%
X-15772164Y11410000D02*
X-15987836Y11410000D01*
X-15772164Y12130000D02*
X-15987836Y12130000D01*
%TO.C,C11*%
X-4147836Y9980000D02*
X-3932164Y9980000D01*
X-4147836Y9260000D02*
X-3932164Y9260000D01*
%TO.C,C9*%
X-1574838Y10408336D02*
X-1574838Y10192664D01*
X-2294838Y10408336D02*
X-2294838Y10192664D01*
%TO.C,C7*%
X-7517002Y18520500D02*
X-7732674Y18520500D01*
X-7517002Y17800500D02*
X-7732674Y17800500D01*
%TO.C,C12*%
X-4137836Y8610000D02*
X-3922164Y8610000D01*
X-4137836Y7890000D02*
X-3922164Y7890000D01*
%TO.C,C8*%
X-6140000Y8527836D02*
X-6140000Y8312164D01*
X-5420000Y8527836D02*
X-5420000Y8312164D01*
%TO.C,C4*%
X-15172002Y13630500D02*
X-15387674Y13630500D01*
X-15172002Y12910500D02*
X-15387674Y12910500D01*
%TO.C,R4*%
X-1857002Y11340500D02*
X-2072674Y11340500D01*
X-1857002Y12060500D02*
X-2072674Y12060500D01*
%TO.C,C13*%
X-6660000Y23922164D02*
X-6660000Y24137836D01*
X-7380000Y23922164D02*
X-7380000Y24137836D01*
%TO.C,U5*%
X-9529838Y19455500D02*
X-9529838Y19715500D01*
X-9529838Y24905500D02*
X-9529838Y24645500D01*
X-12254838Y19455500D02*
X-9529838Y19455500D01*
X-12254838Y19455500D02*
X-14979838Y19455500D01*
X-12254838Y24905500D02*
X-9529838Y24905500D01*
X-12254838Y24905500D02*
X-14979838Y24905500D01*
X-14979838Y19455500D02*
X-14979838Y19715500D01*
X-14979838Y24645500D02*
X-16654838Y24645500D01*
X-14979838Y24905500D02*
X-14979838Y24645500D01*
%TO.C,C5*%
X-2632674Y13210500D02*
X-2417002Y13210500D01*
X-2632674Y13930500D02*
X-2417002Y13930500D01*
%TO.C,C6*%
X-11392002Y18540500D02*
X-11607674Y18540500D01*
X-11392002Y17820500D02*
X-11607674Y17820500D01*
%TO.C,U3*%
X-12712500Y9862500D02*
X-12062500Y9862500D01*
X-5492500Y9862500D02*
X-6142500Y9862500D01*
X-12712500Y10512500D02*
X-12712500Y9862500D01*
X-5492500Y10512500D02*
X-5492500Y9862500D01*
X-12712500Y16432500D02*
X-12712500Y17082500D01*
X-5492500Y16432500D02*
X-5492500Y17082500D01*
X-12712500Y17082500D02*
X-12062500Y17082500D01*
%TO.C,C3*%
X-10872002Y8860500D02*
X-11087674Y8860500D01*
X-10872002Y8140500D02*
X-11087674Y8140500D01*
%TO.C,C1*%
X-2894838Y14902664D02*
X-2894838Y15118336D01*
X-2174838Y14902664D02*
X-2174838Y15118336D01*
%TO.C,C10*%
X-4127836Y10210000D02*
X-3912164Y10210000D01*
X-4127836Y10930000D02*
X-3912164Y10930000D01*
%TO.C,C21*%
X-18479743Y12530000D02*
X-18264071Y12530000D01*
X-18479743Y11810000D02*
X-18264071Y11810000D01*
%TO.C,U6*%
X7177500Y18931250D02*
X6377500Y18931250D01*
X7177500Y18931250D02*
X7977500Y18931250D01*
X7177500Y15811250D02*
X6377500Y15811250D01*
X7177500Y15811250D02*
X8977500Y15811250D01*
%TO.C,U9*%
X19050000Y1560000D02*
X18400000Y1560000D01*
X19050000Y1560000D02*
X19700000Y1560000D01*
X19050000Y-1560000D02*
X18400000Y-1560000D01*
X19050000Y-1560000D02*
X20725000Y-1560000D01*
%TO.C,C18*%
X11392500Y17259998D02*
X11392500Y18682502D01*
X9572500Y17259998D02*
X9572500Y18682502D01*
%TO.C,Y1*%
X-16380000Y16780000D02*
X-19680000Y16780000D01*
X-19680000Y16780000D02*
X-19680000Y12780000D01*
D10*
%TO.C,U1*%
X2760000Y21280000D02*
X2760000Y22880000D01*
X2760000Y23280000D02*
X2760000Y23580000D01*
X-440000Y21280000D02*
X2760000Y21280000D01*
X-440000Y21280000D02*
X-440000Y22880000D01*
X-440000Y22880000D02*
X2760000Y22880000D01*
D11*
%TO.C,R1*%
X3962500Y22707836D02*
X3962500Y22492164D01*
X3242500Y22707836D02*
X3242500Y22492164D01*
%TO.C,R6*%
X-18330000Y21372164D02*
X-18330000Y21587836D01*
X-17610000Y21372164D02*
X-17610000Y21587836D01*
%TO.C,C22*%
X-19097836Y-2570000D02*
X-18882164Y-2570000D01*
X-19097836Y-1850000D02*
X-18882164Y-1850000D01*
%TO.C,R5*%
X-18340000Y23497836D02*
X-18340000Y23282164D01*
X-17620000Y23497836D02*
X-17620000Y23282164D01*
%TO.C,C20*%
X-18264071Y17030000D02*
X-18479743Y17030000D01*
X-18264071Y17750000D02*
X-18479743Y17750000D01*
%TO.C,R8*%
X-15096359Y13890000D02*
X-15403641Y13890000D01*
X-15096359Y14650000D02*
X-15403641Y14650000D01*
%TO.C,U8*%
X0Y1560000D02*
X-650000Y1560000D01*
X0Y1560000D02*
X650000Y1560000D01*
X0Y-1560000D02*
X-650000Y-1560000D01*
X0Y-1560000D02*
X1675000Y-1560000D01*
%TO.C,C24*%
X-77836Y-2600000D02*
X137836Y-2600000D01*
X-77836Y-1880000D02*
X137836Y-1880000D01*
%TO.C,U7*%
X-19050000Y1560000D02*
X-19700000Y1560000D01*
X-19050000Y1560000D02*
X-18400000Y1560000D01*
X-19050000Y-1560000D02*
X-19700000Y-1560000D01*
X-19050000Y-1560000D02*
X-17375000Y-1560000D01*
%TO.C,R2*%
X-1320000Y22967836D02*
X-1320000Y22752164D01*
X-2040000Y22967836D02*
X-2040000Y22752164D01*
%TO.C,C23*%
X18922164Y-2630000D02*
X19137836Y-2630000D01*
X18922164Y-1910000D02*
X19137836Y-1910000D01*
%TO.C,J1*%
X-14530000Y25585000D02*
X-6850000Y25585000D01*
X-14530000Y25585000D02*
X-14530000Y28245000D01*
X-6850000Y25585000D02*
X-6850000Y28245000D01*
X-17130000Y26915000D02*
X-17130000Y28245000D01*
X-17130000Y28245000D02*
X-15800000Y28245000D01*
X-14530000Y28245000D02*
X-6850000Y28245000D01*
%TO.C,F1*%
X6817936Y23430000D02*
X8022064Y23430000D01*
X6817936Y21610000D02*
X8022064Y21610000D01*
%TO.C,C19*%
X4812500Y17259998D02*
X4812500Y18682502D01*
X2992500Y17259998D02*
X2992500Y18682502D01*
%TD*%
%LPC*%
D12*
%TO.C,R3*%
X-1474838Y12630500D03*
X-2434838Y12630500D03*
%TD*%
%TO.C,C2*%
X-15400000Y11770000D03*
X-16360000Y11770000D03*
%TD*%
D13*
%TO.C,C11*%
X-4520000Y9620000D03*
X-3560000Y9620000D03*
%TD*%
D14*
%TO.C,C9*%
X-1934838Y10780500D03*
X-1934838Y9820500D03*
%TD*%
D12*
%TO.C,C7*%
X-8104838Y18160500D03*
X-7144838Y18160500D03*
%TD*%
D13*
%TO.C,C12*%
X-4510000Y8250000D03*
X-3550000Y8250000D03*
%TD*%
D14*
%TO.C,C8*%
X-5780000Y7940000D03*
X-5780000Y8900000D03*
%TD*%
D12*
%TO.C,C4*%
X-15759838Y13270500D03*
X-14799838Y13270500D03*
%TD*%
%TO.C,R4*%
X-1484838Y11700500D03*
X-2444838Y11700500D03*
%TD*%
D15*
%TO.C,C13*%
X-7020000Y24510000D03*
X-7020000Y23550000D03*
%TD*%
D16*
%TO.C,U5*%
X-8654838Y24085500D03*
X-8654838Y22815500D03*
X-8654838Y21545500D03*
X-8654838Y20275500D03*
X-15854838Y20275500D03*
X-15854838Y21545500D03*
X-15854838Y22815500D03*
X-15854838Y24085500D03*
%TD*%
D13*
%TO.C,C5*%
X-2044838Y13570500D03*
X-3004838Y13570500D03*
%TD*%
D12*
%TO.C,C6*%
X-11979838Y18180500D03*
X-11019838Y18180500D03*
%TD*%
D17*
%TO.C,U3*%
X-9102500Y13472500D03*
D18*
X-5665000Y16072500D03*
X-5665000Y15672500D03*
X-5665000Y15272500D03*
X-5665000Y14872500D03*
X-5665000Y14472500D03*
X-5665000Y14072500D03*
X-5665000Y13672500D03*
X-5665000Y13272500D03*
X-5665000Y12872500D03*
X-5665000Y12472500D03*
X-5665000Y12072500D03*
X-5665000Y11672500D03*
X-5665000Y11272500D03*
X-5665000Y10872500D03*
D19*
X-6502500Y10035000D03*
X-6902500Y10035000D03*
X-7302500Y10035000D03*
X-7702500Y10035000D03*
X-8102500Y10035000D03*
X-8502500Y10035000D03*
X-8902500Y10035000D03*
X-9302500Y10035000D03*
X-9702500Y10035000D03*
X-10102500Y10035000D03*
X-10502500Y10035000D03*
X-10902500Y10035000D03*
X-11302500Y10035000D03*
X-11702500Y10035000D03*
D18*
X-12540000Y10872500D03*
X-12540000Y11272500D03*
X-12540000Y11672500D03*
X-12540000Y12072500D03*
X-12540000Y12472500D03*
X-12540000Y12872500D03*
X-12540000Y13272500D03*
X-12540000Y13672500D03*
X-12540000Y14072500D03*
X-12540000Y14472500D03*
X-12540000Y14872500D03*
X-12540000Y15272500D03*
X-12540000Y15672500D03*
X-12540000Y16072500D03*
D19*
X-11702500Y16910000D03*
X-11302500Y16910000D03*
X-10902500Y16910000D03*
X-10502500Y16910000D03*
X-10102500Y16910000D03*
X-9702500Y16910000D03*
X-9302500Y16910000D03*
X-8902500Y16910000D03*
X-8502500Y16910000D03*
X-8102500Y16910000D03*
X-7702500Y16910000D03*
X-7302500Y16910000D03*
X-6902500Y16910000D03*
X-6502500Y16910000D03*
%TD*%
D12*
%TO.C,C3*%
X-11459838Y8500500D03*
X-10499838Y8500500D03*
%TD*%
D15*
%TO.C,C1*%
X-2534838Y14530500D03*
X-2534838Y15490500D03*
%TD*%
D13*
%TO.C,C10*%
X-3540000Y10570000D03*
X-4500000Y10570000D03*
%TD*%
D20*
%TO.C,P1*%
X3200000Y26225000D03*
X2400000Y26225000D03*
D21*
X1250000Y26225000D03*
X250000Y26225000D03*
X-250000Y26225000D03*
X-1250000Y26225000D03*
D20*
X-2400000Y26225000D03*
X-3200000Y26225000D03*
X-3200000Y26225000D03*
X-2400000Y26225000D03*
D21*
X-1750000Y26225000D03*
X-750000Y26225000D03*
X750000Y26225000D03*
X1750000Y26225000D03*
D20*
X2400000Y26225000D03*
X3200000Y26225000D03*
D22*
X5620000Y27450000D03*
D23*
X5620000Y31450000D03*
D22*
X-5620000Y27450000D03*
D23*
X-5620000Y31450000D03*
%TD*%
D13*
%TO.C,C21*%
X-18851907Y12170000D03*
X-17891907Y12170000D03*
%TD*%
D24*
%TO.C,U6*%
X6040000Y16421250D03*
X6040000Y18321250D03*
X8315000Y18321250D03*
X8315000Y17371250D03*
X8315000Y16421250D03*
%TD*%
D25*
%TO.C,U9*%
X18112500Y0D03*
X19987500Y950000D03*
X19987500Y-950000D03*
%TD*%
D26*
%TO.C,C18*%
X10482500Y19446250D03*
X10482500Y16496250D03*
%TD*%
D27*
%TO.C,REF\u002A\u002A*%
X12000000Y-13500000D03*
%TD*%
D28*
%TO.C,Y1*%
X-18880000Y15880000D03*
X-18880000Y13680000D03*
X-17180000Y13680000D03*
X-17180000Y15880000D03*
%TD*%
D29*
%TO.C,U1*%
X1910000Y23080000D03*
D30*
X210000Y23080000D03*
X210000Y21080000D03*
X2110000Y21080000D03*
%TD*%
D14*
%TO.C,R1*%
X3602500Y23080000D03*
X3602500Y22120000D03*
%TD*%
D15*
%TO.C,R6*%
X-17970000Y21000000D03*
X-17970000Y21960000D03*
%TD*%
D13*
%TO.C,C22*%
X-18510000Y-2210000D03*
X-19470000Y-2210000D03*
%TD*%
D14*
%TO.C,R5*%
X-17980000Y22910000D03*
X-17980000Y23870000D03*
%TD*%
D27*
%TO.C,REF\u002A\u002A*%
X-12000000Y-13500000D03*
%TD*%
D12*
%TO.C,C20*%
X-17891907Y17390000D03*
X-18851907Y17390000D03*
%TD*%
D31*
%TO.C,R8*%
X-14740000Y14270000D03*
X-15760000Y14270000D03*
%TD*%
D25*
%TO.C,U8*%
X-937500Y0D03*
X937500Y950000D03*
X937500Y-950000D03*
%TD*%
D13*
%TO.C,C24*%
X510000Y-2240000D03*
X-450000Y-2240000D03*
%TD*%
D32*
%TO.C,REF\u002A\u002A*%
X0Y-25000000D03*
%TD*%
D25*
%TO.C,U7*%
X-19987500Y0D03*
X-18112500Y950000D03*
X-18112500Y-950000D03*
%TD*%
D14*
%TO.C,R2*%
X-1680000Y23340000D03*
X-1680000Y22380000D03*
%TD*%
D13*
%TO.C,C23*%
X19510000Y-2270000D03*
X18550000Y-2270000D03*
%TD*%
D33*
%TO.C,J1*%
X-15800000Y26915000D03*
D34*
X-13260000Y26915000D03*
X-10720000Y26915000D03*
X-8180000Y26915000D03*
%TD*%
D35*
%TO.C,F1*%
X6020000Y22520000D03*
X8820000Y22520000D03*
%TD*%
D26*
%TO.C,C19*%
X3902500Y19446250D03*
X3902500Y16496250D03*
%TD*%
D36*
%TO.C,REF\u002A\u002A*%
X24130000Y0D03*
X13970000Y0D03*
%TD*%
%TO.C,REF\u002A\u002A*%
X5080000Y0D03*
X-5080000Y0D03*
%TD*%
%TO.C,REF\u002A\u002A*%
X-13970000Y0D03*
X-24130000Y0D03*
%TD*%
%LPD*%
M02*
