%TF.GenerationSoftware,KiCad,Pcbnew,(7.0.0-0)*%
%TF.CreationDate,2023-04-27T22:32:04-05:00*%
%TF.ProjectId,RP2040,52503230-3430-42e6-9b69-6361645f7063,REV1*%
%TF.SameCoordinates,Original*%
%TF.FileFunction,Soldermask,Top*%
%TF.FilePolarity,Negative*%
%FSLAX46Y46*%
G04 Gerber Fmt 4.6, Leading zero omitted, Abs format (unit mm)*
G04 Created by KiCad (PCBNEW (7.0.0-0)) date 2023-04-27 22:32:04*
%MOMM*%
%LPD*%
G01*
G04 APERTURE LIST*
G04 Aperture macros list*
%AMRoundRect*
0 Rectangle with rounded corners*
0 $1 Rounding radius*
0 $2 $3 $4 $5 $6 $7 $8 $9 X,Y pos of 4 corners*
0 Add a 4 corners polygon primitive as box body*
4,1,4,$2,$3,$4,$5,$6,$7,$8,$9,$2,$3,0*
0 Add four circle primitives for the rounded corners*
1,1,$1+$1,$2,$3*
1,1,$1+$1,$4,$5*
1,1,$1+$1,$6,$7*
1,1,$1+$1,$8,$9*
0 Add four rect primitives between the rounded corners*
20,1,$1+$1,$2,$3,$4,$5,0*
20,1,$1+$1,$4,$5,$6,$7,0*
20,1,$1+$1,$6,$7,$8,$9,0*
20,1,$1+$1,$8,$9,$2,$3,0*%
G04 Aperture macros list end*
%TA.AperFunction,Profile*%
%ADD10C,0.120000*%
%TD*%
%ADD11RoundRect,0.191000X-0.140000X-0.170000X0.140000X-0.170000X0.140000X0.170000X-0.140000X0.170000X0*%
%ADD12RoundRect,0.051000X-0.600000X0.700000X-0.600000X-0.700000X0.600000X-0.700000X0.600000X0.700000X0*%
%ADD13RoundRect,0.191000X0.140000X0.170000X-0.140000X0.170000X-0.140000X-0.170000X0.140000X-0.170000X0*%
%ADD14RoundRect,0.186000X0.135000X0.185000X-0.135000X0.185000X-0.135000X-0.185000X0.135000X-0.185000X0*%
%ADD15RoundRect,0.301000X0.650000X-0.325000X0.650000X0.325000X-0.650000X0.325000X-0.650000X-0.325000X0*%
%ADD16RoundRect,0.201000X0.512500X0.150000X-0.512500X0.150000X-0.512500X-0.150000X0.512500X-0.150000X0*%
%ADD17RoundRect,0.191000X-0.170000X0.140000X-0.170000X-0.140000X0.170000X-0.140000X0.170000X0.140000X0*%
%ADD18RoundRect,0.051000X0.300000X0.575000X-0.300000X0.575000X-0.300000X-0.575000X0.300000X-0.575000X0*%
%ADD19RoundRect,0.051000X0.150000X0.575000X-0.150000X0.575000X-0.150000X-0.575000X0.150000X-0.575000X0*%
%ADD20O,1.102000X1.902000*%
%ADD21O,1.102000X2.302000*%
%ADD22RoundRect,0.201000X0.587500X0.150000X-0.587500X0.150000X-0.587500X-0.150000X0.587500X-0.150000X0*%
%ADD23RoundRect,0.201000X0.150000X-0.587500X0.150000X0.587500X-0.150000X0.587500X-0.150000X-0.587500X0*%
%ADD24RoundRect,0.050000X0.500000X0.350000X-0.500000X0.350000X-0.500000X-0.350000X0.500000X-0.350000X0*%
%ADD25RoundRect,0.050000X0.300000X0.350000X-0.300000X0.350000X-0.300000X-0.350000X0.300000X-0.350000X0*%
%ADD26RoundRect,0.301000X-0.325000X-0.650000X0.325000X-0.650000X0.325000X0.650000X-0.325000X0.650000X0*%
%ADD27RoundRect,0.191000X0.170000X-0.140000X0.170000X0.140000X-0.170000X0.140000X-0.170000X-0.140000X0*%
%ADD28RoundRect,0.201000X-0.650000X-0.150000X0.650000X-0.150000X0.650000X0.150000X-0.650000X0.150000X0*%
%ADD29RoundRect,0.301000X0.325000X0.650000X-0.325000X0.650000X-0.325000X-0.650000X0.325000X-0.650000X0*%
%ADD30RoundRect,0.301000X-0.650000X0.325000X-0.650000X-0.325000X0.650000X-0.325000X0.650000X0.325000X0*%
%ADD31RoundRect,0.195000X-1.456000X1.456000X-1.456000X-1.456000X1.456000X-1.456000X1.456000X1.456000X0*%
%ADD32RoundRect,0.101000X-0.387500X0.050000X-0.387500X-0.050000X0.387500X-0.050000X0.387500X0.050000X0*%
%ADD33RoundRect,0.101000X-0.050000X0.387500X-0.050000X-0.387500X0.050000X-0.387500X0.050000X0.387500X0*%
%ADD34RoundRect,0.051000X0.850000X-0.850000X0.850000X0.850000X-0.850000X0.850000X-0.850000X-0.850000X0*%
%ADD35O,1.802000X1.802000*%
%ADD36RoundRect,0.301000X-0.375000X-0.625000X0.375000X-0.625000X0.375000X0.625000X-0.375000X0.625000X0*%
%ADD37RoundRect,0.201000X0.150000X-0.512500X0.150000X0.512500X-0.150000X0.512500X-0.150000X-0.512500X0*%
%ADD38C,4.402000*%
%ADD39C,1.802000*%
%ADD40C,6.502000*%
G04 APERTURE END LIST*
D10*
%TO.C,P1*%
X4620000Y27250000D02*
X4625000Y33550000D01*
X4025000Y27225000D02*
X-4025000Y27225000D01*
X-4620000Y27250000D02*
X-4625000Y33550000D01*
X4025000Y27225000D02*
G75*
G03*
X4620000Y27250000I297500J12500D01*
G01*
X-4620000Y27250000D02*
G75*
G03*
X-4025000Y27225000I297500J-12500D01*
G01*
%TD*%
D11*
%TO.C,C21*%
X-18851907Y12170000D03*
X-17891907Y12170000D03*
%TD*%
D12*
%TO.C,Y1*%
X-17180000Y15880000D03*
X-17180000Y13680000D03*
X-18880000Y13680000D03*
X-18880000Y15880000D03*
%TD*%
D13*
%TO.C,C20*%
X-17891907Y17390000D03*
X-18851907Y17390000D03*
%TD*%
D14*
%TO.C,R8*%
X-14740000Y14270000D03*
X-15760000Y14270000D03*
%TD*%
D15*
%TO.C,C18*%
X10482500Y16496250D03*
X10482500Y19446250D03*
%TD*%
%TO.C,C19*%
X3902500Y16496250D03*
X3902500Y19446250D03*
%TD*%
D16*
%TO.C,U6*%
X6040000Y16421250D03*
X6040000Y18321250D03*
X8315000Y18321250D03*
X8315000Y17371250D03*
X8315000Y16421250D03*
%TD*%
D17*
%TO.C,C9*%
X-1934838Y9820500D03*
X-1934838Y10780500D03*
%TD*%
D18*
%TO.C,P1*%
X3200000Y26625000D03*
X2400000Y26625000D03*
D19*
X1250000Y26625000D03*
X250000Y26625000D03*
X-250000Y26625000D03*
X-1250000Y26625000D03*
D18*
X-2400000Y26625000D03*
X-3200000Y26625000D03*
X-3200000Y26625000D03*
X-2400000Y26625000D03*
D19*
X-1750000Y26625000D03*
X-750000Y26625000D03*
X750000Y26625000D03*
X1750000Y26625000D03*
D18*
X2400000Y26625000D03*
X3200000Y26625000D03*
D20*
X5619999Y27849999D03*
D21*
X5619999Y31849999D03*
D20*
X-5619999Y27849999D03*
D21*
X-5619999Y31849999D03*
%TD*%
D11*
%TO.C,C12*%
X-3544838Y8690500D03*
X-4504838Y8690500D03*
%TD*%
D17*
%TO.C,C8*%
X-5780000Y8900000D03*
X-5780000Y7940000D03*
%TD*%
D13*
%TO.C,C2*%
X-16109838Y11780500D03*
X-15149838Y11780500D03*
%TD*%
D22*
%TO.C,U9*%
X19987500Y-950000D03*
X19987500Y950000D03*
X18112500Y0D03*
%TD*%
D13*
%TO.C,R3*%
X-2434838Y12630500D03*
X-1474838Y12630500D03*
%TD*%
D23*
%TO.C,U2*%
X12170000Y10047500D03*
X14070000Y10047500D03*
X13120000Y11922500D03*
%TD*%
D11*
%TO.C,C11*%
X-3554838Y9680500D03*
X-4514838Y9680500D03*
%TD*%
D13*
%TO.C,C4*%
X-15759838Y13270500D03*
X-14799838Y13270500D03*
%TD*%
D24*
%TO.C,U1*%
X1910000Y23480000D03*
D25*
X210000Y23480000D03*
X210000Y21480000D03*
X2110000Y21480000D03*
%TD*%
D26*
%TO.C,C16*%
X7010000Y10022500D03*
X9960000Y10022500D03*
%TD*%
D13*
%TO.C,R4*%
X-2444838Y11700500D03*
X-1484838Y11700500D03*
%TD*%
D17*
%TO.C,R1*%
X3602500Y23480000D03*
X3602500Y22520000D03*
%TD*%
D27*
%TO.C,R6*%
X-17970000Y21000000D03*
X-17970000Y21960000D03*
%TD*%
%TO.C,C13*%
X-7020000Y24510000D03*
X-7020000Y23550000D03*
%TD*%
D28*
%TO.C,U5*%
X-8654838Y24085500D03*
X-8654838Y22815500D03*
X-8654838Y21545500D03*
X-8654838Y20275500D03*
X-15854838Y20275500D03*
X-15854838Y21545500D03*
X-15854838Y22815500D03*
X-15854838Y24085500D03*
%TD*%
D29*
%TO.C,C14*%
X13105000Y14212500D03*
X10155000Y14212500D03*
%TD*%
D11*
%TO.C,C5*%
X-2044838Y13570500D03*
X-3004838Y13570500D03*
%TD*%
D27*
%TO.C,C22*%
X-16580000Y-1880000D03*
X-16580000Y-920000D03*
%TD*%
D13*
%TO.C,C6*%
X-11979838Y18180500D03*
X-11019838Y18180500D03*
%TD*%
D30*
%TO.C,C17*%
X4092813Y13416187D03*
X4092813Y10466187D03*
%TD*%
D17*
%TO.C,R5*%
X-17980000Y23870000D03*
X-17980000Y22910000D03*
%TD*%
D22*
%TO.C,U8*%
X937500Y-950000D03*
X937500Y950000D03*
X-937500Y0D03*
%TD*%
D17*
%TO.C,C24*%
X2450000Y10000D03*
X2450000Y-950000D03*
%TD*%
D31*
%TO.C,U3*%
X-9102500Y13472500D03*
D32*
X-5665000Y16072500D03*
X-5665000Y15672500D03*
X-5665000Y15272500D03*
X-5665000Y14872500D03*
X-5665000Y14472500D03*
X-5665000Y14072500D03*
X-5665000Y13672500D03*
X-5665000Y13272500D03*
X-5665000Y12872500D03*
X-5665000Y12472500D03*
X-5665000Y12072500D03*
X-5665000Y11672500D03*
X-5665000Y11272500D03*
X-5665000Y10872500D03*
D33*
X-6502500Y10035000D03*
X-6902500Y10035000D03*
X-7302500Y10035000D03*
X-7702500Y10035000D03*
X-8102500Y10035000D03*
X-8502500Y10035000D03*
X-8902500Y10035000D03*
X-9302500Y10035000D03*
X-9702500Y10035000D03*
X-10102500Y10035000D03*
X-10502500Y10035000D03*
X-10902500Y10035000D03*
X-11302500Y10035000D03*
X-11702500Y10035000D03*
D32*
X-12540000Y10872500D03*
X-12540000Y11272500D03*
X-12540000Y11672500D03*
X-12540000Y12072500D03*
X-12540000Y12472500D03*
X-12540000Y12872500D03*
X-12540000Y13272500D03*
X-12540000Y13672500D03*
X-12540000Y14072500D03*
X-12540000Y14472500D03*
X-12540000Y14872500D03*
X-12540000Y15272500D03*
X-12540000Y15672500D03*
X-12540000Y16072500D03*
D33*
X-11702500Y16910000D03*
X-11302500Y16910000D03*
X-10902500Y16910000D03*
X-10502500Y16910000D03*
X-10102500Y16910000D03*
X-9702500Y16910000D03*
X-9302500Y16910000D03*
X-8902500Y16910000D03*
X-8502500Y16910000D03*
X-8102500Y16910000D03*
X-7702500Y16910000D03*
X-7302500Y16910000D03*
X-6902500Y16910000D03*
X-6502500Y16910000D03*
%TD*%
D15*
%TO.C,C15*%
X16415000Y10010000D03*
X16415000Y12960000D03*
%TD*%
D22*
%TO.C,U7*%
X-18112500Y-950000D03*
X-18112500Y950000D03*
X-19987500Y0D03*
%TD*%
D17*
%TO.C,R2*%
X-1680000Y23340000D03*
X-1680000Y22380000D03*
%TD*%
%TO.C,C23*%
X21520000Y-50000D03*
X21520000Y-1010000D03*
%TD*%
D13*
%TO.C,C7*%
X-8104838Y18160500D03*
X-7144838Y18160500D03*
%TD*%
%TO.C,C3*%
X-11459838Y8500500D03*
X-10499838Y8500500D03*
%TD*%
D34*
%TO.C,J1*%
X-15680000Y27160000D03*
D35*
X-13139999Y27159999D03*
X-10599999Y27159999D03*
X-8059999Y27159999D03*
%TD*%
D36*
%TO.C,F1*%
X6020000Y22520000D03*
X8820000Y22520000D03*
%TD*%
D27*
%TO.C,C1*%
X-2534838Y15490500D03*
X-2534838Y14530500D03*
%TD*%
D11*
%TO.C,C10*%
X-3494838Y10690500D03*
X-4454838Y10690500D03*
%TD*%
D37*
%TO.C,U4*%
X6485000Y12215000D03*
X7435000Y12215000D03*
X8385000Y12215000D03*
X8385000Y14490000D03*
X6485000Y14490000D03*
%TD*%
D38*
%TO.C,H3*%
X0Y-25000000D03*
%TD*%
D39*
%TO.C,REF\u002A\u002A*%
X24130000Y0D03*
X13970000Y0D03*
%TD*%
%TO.C,REF\u002A\u002A*%
X5080000Y0D03*
X-5080000Y0D03*
%TD*%
D40*
%TO.C,H2*%
X-23500000Y12000000D03*
%TD*%
%TO.C,H1*%
X23500000Y12000000D03*
%TD*%
D39*
%TO.C,REF\u002A\u002A*%
X-13970000Y0D03*
X-24130000Y0D03*
%TD*%
M02*
