M48
; DRILL file {KiCad 7.0.5} date Sun Jul  2 01:32:46 2023
; FORMAT={-:-/ absolute / inch / decimal}
; #@! TF.CreationDate,2023-07-02T01:32:46-05:00
; #@! TF.GenerationSoftware,Kicad,Pcbnew,7.0.5
; #@! TF.FileFunction,Plated,1,4,PTH
FMAT,2
INCH
; #@! TA.AperFunction,Plated,PTH,ViaDrill
T1C0.0138
; #@! TA.AperFunction,Plated,PTH,ComponentDrill
T2C0.0138
; #@! TA.AperFunction,Plated,PTH,ViaDrill
T3C0.0157
; #@! TA.AperFunction,Plated,PTH,ComponentDrill
T4C0.0236
; #@! TA.AperFunction,Plated,PTH,ComponentDrill
T5C0.0394
%
G90
G05
T1
X-0.568Y0.4892
X-0.5Y0.7177
X-0.4414Y0.5053
X-0.3478Y0.715
X-0.2716Y0.487
X-0.2303Y0.286
X-0.158Y0.5318
X-0.1123Y0.4004
X-0.1114Y0.3347
X-0.1079Y0.365
X-0.099Y0.6382
X-0.0466Y0.3878
X-0.0451Y0.5379
X0.0098Y0.9898
X0.012Y0.9435
T2
X-0.4086Y0.5806
X-0.4086Y0.5304
X-0.4086Y0.4802
X-0.3584Y0.5806
X-0.3584Y0.5304
X-0.3584Y0.4802
X-0.3082Y0.5806
X-0.3082Y0.5304
X-0.3082Y0.4802
T3
X-1.2533Y0.2084
X-1.2533Y-0.1853
X-1.1746Y0.4446
X-1.1746Y0.3659
X-1.1746Y0.2872
X-1.1746Y0.2084
X-1.1746Y-0.1853
X-1.1746Y-0.264
X-1.1746Y-0.3428
X-1.1746Y-0.4215
X-1.1746Y-0.5002
X-1.0958Y0.6021
X-1.0958Y0.5234
X-1.0958Y0.4446
X-1.0958Y0.3659
X-1.0958Y0.2872
X-1.0958Y0.2084
X-1.0958Y0.1297
X-1.0958Y-0.1853
X-1.0958Y-0.264
X-1.0958Y-0.3428
X-1.0958Y-0.4215
X-1.0958Y-0.5002
X-1.0958Y-0.579
X-1.0958Y-0.6577
X-1.0171Y-0.5002
X-0.9462Y0.7809
X-0.9383Y0.6021
X-0.9383Y0.5234
X-0.9383Y0.4446
X-0.9383Y0.3659
X-0.9383Y0.1297
X-0.9383Y-0.1065
X-0.9383Y-0.264
X-0.9383Y-0.8152
X-0.9051Y-0.3413
X-0.8596Y0.3659
X-0.8596Y0.2084
X-0.8596Y0.1297
X-0.8596Y-0.1065
X-0.8596Y-0.264
X-0.8596Y-0.8152
X-0.8596Y-0.8939
X-0.8358Y0.7496
X-0.8346Y-0.0004
X-0.7914Y0.5421
X-0.7809Y0.2084
X-0.7809Y0.1297
X-0.7809Y0.0509
X-0.7809Y-0.1065
X-0.7809Y-0.1853
X-0.7809Y-0.264
X-0.7809Y-0.3428
X-0.7809Y-0.8939
X-0.7809Y-0.9727
X-0.752Y0.8138
X-0.7473Y0.4461
X-0.7285Y0.3626
X-0.707Y-0.643
X-0.7021Y0.2084
X-0.7021Y0.1297
X-0.7021Y-0.1065
X-0.7021Y-0.5002
X-0.7021Y-0.7365
X-0.7021Y-0.9727
X-0.7021Y-1.0514
X-0.6795Y0.9713
X-0.6626Y0.6839
X-0.6335Y0.4929
X-0.627Y0.001
X-0.626Y0.3732
X-0.6249Y0.6201
X-0.6234Y0.2084
X-0.6234Y0.1297
X-0.6234Y-0.5002
X-0.6234Y-1.0514
X-0.6142Y-0.0945
X-0.59Y-0.2839
X-0.5568Y0.7909
X-0.5514Y0.388
X-0.5446Y0.2084
X-0.5446Y-0.1853
X-0.5446Y-0.3428
X-0.5446Y-0.5002
X-0.5446Y-0.579
X-0.5446Y-0.8939
X-0.5446Y-1.1302
X-0.5374Y0.6047
X-0.5286Y0.6677
X-0.4882Y0.3146
X-0.4839Y0.9772
X-0.4689Y-0.8134
X-0.4659Y0.2084
X-0.4659Y0.0509
X-0.4659Y-0.0278
X-0.4659Y-0.1853
X-0.4659Y-0.264
X-0.4659Y-0.3428
X-0.4659Y-0.5002
X-0.4659Y-0.579
X-0.4659Y-0.8939
X-0.4659Y-0.9727
X-0.4659Y-1.1302
X-0.4604Y-0.6805
X-0.4173Y0.8012
X-0.4024Y0.7138
X-0.3872Y1.1533
X-0.3872Y0.1297
X-0.3872Y0.0509
X-0.3872Y-0.0278
X-0.3872Y-0.1853
X-0.3872Y-0.264
X-0.3872Y-0.3428
X-0.3872Y-0.5002
X-0.3872Y-0.579
X-0.3872Y-0.8939
X-0.3872Y-1.2089
X-0.3516Y0.9882
X-0.3084Y1.232
X-0.3084Y1.1533
X-0.3084Y0.0509
X-0.3084Y-0.0278
X-0.3084Y-0.1853
X-0.3084Y-0.264
X-0.3084Y-0.3428
X-0.3084Y-0.5002
X-0.3084Y-0.579
X-0.3084Y-0.9727
X-0.3084Y-1.1302
X-0.3084Y-1.2089
X-0.2703Y-0.912
X-0.2413Y0.9748
X-0.2297Y1.1533
X-0.2297Y0.2084
X-0.2297Y-0.1853
X-0.2297Y-0.264
X-0.2297Y-1.2089
X-0.213Y1.0142
X-0.1839Y0.9484
X-0.1713Y1.0192
X-0.1509Y0.2084
X-0.1509Y0.0509
X-0.1509Y-0.5002
X-0.1509Y-0.579
X-0.1509Y-1.2089
X-0.1437Y0.9197
X-0.1399Y0.9844
X-0.1029Y0.8793
X-0.1008Y0.9799
X-0.0831Y0.0
X-0.0722Y0.2084
X-0.0722Y-0.5002
X-0.0722Y-0.579
X-0.0722Y-1.1302
X-0.0722Y-1.2089
X-0.065Y0.8413
X-0.049Y0.6077
X-0.035Y-0.3402
X-0.0043Y-0.6906
X0.0Y-0.811
X0.0065Y0.4446
X0.0065Y0.2084
X0.0065Y-0.1853
X0.0065Y-0.264
X0.0065Y-0.5002
X0.0065Y-0.579
X0.0065Y-1.1302
X0.0065Y-1.2089
X0.0748Y0.8705
X0.0853Y0.2872
X0.0853Y0.2084
X0.0853Y-0.5002
X0.0853Y-0.579
X0.0853Y-1.1302
X0.0853Y-1.2089
X0.0864Y0.6295
X0.0868Y0.4969
X0.0868Y0.3923
X0.0965Y0.0339
X0.1182Y0.983
X0.1591Y-0.2811
X0.163Y0.9965
X0.164Y0.2872
X0.164Y0.2084
X0.164Y-0.3428
X0.164Y-0.5002
X0.164Y-0.579
X0.164Y-1.2089
X0.1648Y0.801
X0.174Y0.4551
X0.1789Y0.873
X0.1902Y1.0157
X0.2087Y0.9736
X0.2409Y0.8071
X0.2428Y1.1533
X0.2428Y0.2872
X0.2428Y0.2084
X0.2428Y-0.1853
X0.2428Y-0.264
X0.2428Y-0.3428
X0.2428Y-0.8939
X0.2428Y-1.2089
X0.2472Y0.9929
X0.2709Y1.0374
X0.2851Y0.5211
X0.2909Y0.6819
X0.3215Y1.232
X0.3215Y1.1533
X0.3215Y0.2872
X0.3215Y0.2084
X0.3215Y0.0509
X0.3215Y-0.0278
X0.3215Y-0.1853
X0.3215Y-0.264
X0.3215Y-0.3428
X0.3215Y-0.5002
X0.3215Y-0.579
X0.3215Y-0.9727
X0.3215Y-1.1302
X0.3215Y-1.2089
X0.336Y0.4054
X0.369Y0.4462
X0.398Y0.4891
X0.4002Y1.1533
X0.4002Y1.0746
X0.4002Y0.2872
X0.4002Y0.2084
X0.4002Y0.0509
X0.4002Y-0.0278
X0.4002Y-0.1853
X0.4002Y-0.264
X0.4002Y-0.3428
X0.4002Y-0.5002
X0.4002Y-0.579
X0.4002Y-1.2089
X0.4506Y0.5654
X0.4547Y0.8157
X0.463Y-0.913
X0.4752Y0.4404
X0.4772Y0.9768
X0.479Y1.0746
X0.479Y0.2872
X0.479Y0.2084
X0.479Y0.0509
X0.479Y-0.0278
X0.479Y-0.1853
X0.479Y-0.264
X0.479Y-0.3428
X0.479Y-0.5002
X0.479Y-0.579
X0.479Y-0.9727
X0.479Y-1.1302
X0.4804Y-0.6886
X0.4811Y-0.8114
X0.5577Y1.0746
X0.5577Y0.9171
X0.5577Y0.6809
X0.5577Y0.2872
X0.5577Y0.2084
X0.5577Y-0.1853
X0.5577Y-0.264
X0.5577Y-0.5002
X0.5577Y-0.579
X0.5577Y-0.8939
X0.5577Y-0.9727
X0.5577Y-1.1302
X0.5901Y0.5108
X0.6365Y1.0746
X0.6365Y0.9958
X0.6365Y0.6021
X0.6365Y0.4446
X0.6365Y0.2872
X0.6365Y0.2084
X0.6365Y-0.5002
X0.6365Y-0.579
X0.6365Y-0.8939
X0.6711Y0.0
X0.7142Y-0.3362
X0.7152Y0.9958
X0.7152Y0.6021
X0.7152Y0.5234
X0.7152Y0.4446
X0.7152Y0.2872
X0.7152Y0.2084
X0.7152Y-0.1853
X0.7152Y-0.264
X0.7152Y-0.5002
X0.7152Y-0.7365
X0.7152Y-0.8152
X0.7323Y0.8224
X0.7939Y0.9171
X0.7939Y0.8383
X0.7939Y0.6021
X0.7939Y0.5234
X0.7939Y0.4446
X0.7939Y0.2872
X0.7939Y0.2084
X0.7939Y-0.4215
X0.85Y0.0331
X0.8727Y0.8383
X0.8727Y0.6021
X0.8727Y0.5234
X0.8727Y0.4446
X0.8727Y0.2872
X0.8727Y0.2084
X0.8727Y0.1297
X0.8727Y-0.579
X0.9087Y-0.2811
X0.9514Y0.5234
X0.9514Y0.4446
X0.9514Y0.2872
X0.9514Y0.2084
X0.9514Y0.1297
X0.9514Y-0.5002
X1.027Y-0.6514
X1.0302Y-0.4215
X1.0302Y-0.5002
X1.1089Y0.6021
X1.1089Y0.5234
X1.1089Y0.4446
X1.1089Y0.3659
X1.1089Y0.2872
X1.1089Y0.2084
X1.1089Y0.1297
X1.1089Y-0.1853
X1.1089Y-0.264
X1.1089Y-0.3428
X1.1089Y-0.4215
X1.1089Y-0.5002
X1.1089Y-0.579
X1.1876Y0.4446
X1.1876Y0.3659
X1.1876Y0.2872
X1.1876Y0.2084
X1.1876Y-0.1853
X1.1876Y-0.264
X1.1876Y-0.3428
X1.1876Y-0.4215
T5
X-0.622Y1.0596
X-0.522Y1.0596
X-0.422Y1.0596
X-0.322Y1.0596
T4
G00X-0.2213Y1.2146
M15
G01X-0.2213Y1.2618
M16
G05
G00X-0.2213Y1.065
M15
G01X-0.2213Y1.0965
M16
G05
G00X0.2213Y1.2146
M15
G01X0.2213Y1.2618
M16
G05
G00X0.2213Y1.065
M15
G01X0.2213Y1.0965
M16
G05
T0
M30
