%TF.GenerationSoftware,KiCad,Pcbnew,7.0.5*%
%TF.CreationDate,2023-07-02T01:32:46-05:00*%
%TF.ProjectId,RP2040,52503230-3430-42e6-9b69-6361645f7063,REV1*%
%TF.SameCoordinates,Original*%
%TF.FileFunction,Paste,Bot*%
%TF.FilePolarity,Positive*%
%FSLAX46Y46*%
G04 Gerber Fmt 4.6, Leading zero omitted, Abs format (unit mm)*
G04 Created by KiCad (PCBNEW 7.0.5) date 2023-07-02 01:32:46*
%MOMM*%
%LPD*%
G01*
G04 APERTURE LIST*
G04 Aperture macros list*
%AMRoundRect*
0 Rectangle with rounded corners*
0 $1 Rounding radius*
0 $2 $3 $4 $5 $6 $7 $8 $9 X,Y pos of 4 corners*
0 Add a 4 corners polygon primitive as box body*
4,1,4,$2,$3,$4,$5,$6,$7,$8,$9,$2,$3,0*
0 Add four circle primitives for the rounded corners*
1,1,$1+$1,$2,$3*
1,1,$1+$1,$4,$5*
1,1,$1+$1,$6,$7*
1,1,$1+$1,$8,$9*
0 Add four rect primitives between the rounded corners*
20,1,$1+$1,$2,$3,$4,$5,0*
20,1,$1+$1,$4,$5,$6,$7,0*
20,1,$1+$1,$6,$7,$8,$9,0*
20,1,$1+$1,$8,$9,$2,$3,0*%
G04 Aperture macros list end*
%ADD10RoundRect,0.140000X0.170000X-0.140000X0.170000X0.140000X-0.170000X0.140000X-0.170000X-0.140000X0*%
%ADD11RoundRect,0.300000X0.500000X0.300000X-0.500000X0.300000X-0.500000X-0.300000X0.500000X-0.300000X0*%
%ADD12R,1.500000X0.900000*%
%ADD13R,1.000000X0.750000*%
%ADD14RoundRect,0.140000X-0.170000X0.140000X-0.170000X-0.140000X0.170000X-0.140000X0.170000X0.140000X0*%
%ADD15RoundRect,0.135000X-0.185000X0.135000X-0.185000X-0.135000X0.185000X-0.135000X0.185000X0.135000X0*%
%ADD16RoundRect,0.140000X0.140000X0.170000X-0.140000X0.170000X-0.140000X-0.170000X0.140000X-0.170000X0*%
%ADD17RoundRect,0.135000X0.185000X-0.135000X0.185000X0.135000X-0.185000X0.135000X-0.185000X-0.135000X0*%
%ADD18RoundRect,0.150000X-0.587500X-0.150000X0.587500X-0.150000X0.587500X0.150000X-0.587500X0.150000X0*%
%ADD19RoundRect,0.140000X-0.140000X-0.170000X0.140000X-0.170000X0.140000X0.170000X-0.140000X0.170000X0*%
G04 APERTURE END LIST*
D10*
%TO.C,R7*%
X-14920000Y15600000D03*
X-14920000Y16560000D03*
%TD*%
D11*
%TO.C,SW4*%
X2900000Y-17500000D03*
X-2900000Y-17500000D03*
X2900000Y-20500000D03*
X-2900000Y-20500000D03*
%TD*%
D12*
%TO.C,D10*%
X-14820000Y22320000D03*
X-14820000Y19020000D03*
X-19720000Y19020000D03*
X-19720000Y22320000D03*
%TD*%
D13*
%TO.C,SW1*%
X-7430000Y24775000D03*
X-13430000Y24775000D03*
X-7430000Y21025000D03*
X-13430000Y21025000D03*
%TD*%
D14*
%TO.C,C33*%
X-18000000Y-14470000D03*
X-18000000Y-15430000D03*
%TD*%
D15*
%TO.C,R9*%
X-6932500Y19100000D03*
X-6932500Y18080000D03*
%TD*%
D16*
%TO.C,C34*%
X-15370000Y23970000D03*
X-16330000Y23970000D03*
%TD*%
D11*
%TO.C,SW3*%
X-9100000Y-17500000D03*
X-14900000Y-17500000D03*
X-9100000Y-20500000D03*
X-14900000Y-20500000D03*
%TD*%
D14*
%TO.C,C27*%
X23020000Y-5350000D03*
X23020000Y-6310000D03*
%TD*%
D12*
%TO.C,D1*%
X-16600000Y-5350000D03*
X-16600000Y-8650000D03*
X-21500000Y-8650000D03*
X-21500000Y-5350000D03*
%TD*%
D14*
%TO.C,C25*%
X-15050000Y-5320000D03*
X-15050000Y-6280000D03*
%TD*%
%TO.C,C29*%
X18560000Y22750000D03*
X18560000Y21790000D03*
%TD*%
%TO.C,C26*%
X3960000Y-5310000D03*
X3960000Y-6270000D03*
%TD*%
D16*
%TO.C,C32*%
X-5010000Y-23170000D03*
X-5970000Y-23170000D03*
%TD*%
D12*
%TO.C,D3*%
X21500000Y-5350000D03*
X21500000Y-8650000D03*
X16600000Y-8650000D03*
X16600000Y-5350000D03*
%TD*%
D13*
%TO.C,SW2*%
X-18780000Y10210000D03*
X-12780000Y10210000D03*
X-18780000Y13960000D03*
X-12780000Y13960000D03*
%TD*%
D12*
%TO.C,D2*%
X2450000Y-5350000D03*
X2450000Y-8650000D03*
X-2450000Y-8650000D03*
X-2450000Y-5350000D03*
%TD*%
D14*
%TO.C,C30*%
X26045000Y-14745000D03*
X26045000Y-15705000D03*
%TD*%
D11*
%TO.C,SW5*%
X14900000Y-17500000D03*
X9100000Y-17500000D03*
X14900000Y-20500000D03*
X9100000Y-20500000D03*
%TD*%
D12*
%TO.C,D4*%
X2880000Y17260000D03*
X2880000Y13960000D03*
X-2020000Y13960000D03*
X-2020000Y17260000D03*
%TD*%
D10*
%TO.C,C28*%
X3380000Y18880000D03*
X3380000Y19840000D03*
%TD*%
D17*
%TO.C,R10*%
X-1805000Y18895000D03*
X-1805000Y19915000D03*
%TD*%
D12*
%TO.C,D8*%
X-5050000Y-24850000D03*
X-5050000Y-28150000D03*
X-9950000Y-28150000D03*
X-9950000Y-24850000D03*
%TD*%
%TO.C,D9*%
X-19580000Y-14450000D03*
X-19580000Y-17750000D03*
X-24480000Y-17750000D03*
X-24480000Y-14450000D03*
%TD*%
D18*
%TO.C,Q1*%
X-5230000Y17930000D03*
X-5230000Y19830000D03*
X-3355000Y18880000D03*
%TD*%
D12*
%TO.C,D6*%
X24475000Y-14855000D03*
X24475000Y-18155000D03*
X19575000Y-18155000D03*
X19575000Y-14855000D03*
%TD*%
%TO.C,D7*%
X9950000Y-24850000D03*
X9950000Y-28150000D03*
X5050000Y-28150000D03*
X5050000Y-24850000D03*
%TD*%
%TO.C,D5*%
X17060000Y22630000D03*
X17060000Y19330000D03*
X12160000Y19330000D03*
X12160000Y22630000D03*
%TD*%
D19*
%TO.C,C31*%
X9890000Y-23200000D03*
X10850000Y-23200000D03*
%TD*%
M02*
