%TF.GenerationSoftware,KiCad,Pcbnew,7.0.5*%
%TF.CreationDate,2024-03-27T21:50:32-05:00*%
%TF.ProjectId,RP2040,52503230-3430-42e6-9b69-6361645f7063,REV1*%
%TF.SameCoordinates,Original*%
%TF.FileFunction,Legend,Bot*%
%TF.FilePolarity,Positive*%
%FSLAX46Y46*%
G04 Gerber Fmt 4.6, Leading zero omitted, Abs format (unit mm)*
G04 Created by KiCad (PCBNEW 7.0.5) date 2024-03-27 21:50:32*
%MOMM*%
%LPD*%
G01*
G04 APERTURE LIST*
G04 Aperture macros list*
%AMRoundRect*
0 Rectangle with rounded corners*
0 $1 Rounding radius*
0 $2 $3 $4 $5 $6 $7 $8 $9 X,Y pos of 4 corners*
0 Add a 4 corners polygon primitive as box body*
4,1,4,$2,$3,$4,$5,$6,$7,$8,$9,$2,$3,0*
0 Add four circle primitives for the rounded corners*
1,1,$1+$1,$2,$3*
1,1,$1+$1,$4,$5*
1,1,$1+$1,$6,$7*
1,1,$1+$1,$8,$9*
0 Add four rect primitives between the rounded corners*
20,1,$1+$1,$2,$3,$4,$5,0*
20,1,$1+$1,$4,$5,$6,$7,0*
20,1,$1+$1,$6,$7,$8,$9,0*
20,1,$1+$1,$8,$9,$2,$3,0*%
G04 Aperture macros list end*
%ADD10C,2.560000*%
%ADD11C,0.150000*%
%ADD12C,0.100000*%
%ADD13C,0.127000*%
%ADD14C,0.200000*%
%ADD15C,0.120000*%
%ADD16O,1.102000X1.902000*%
%ADD17O,1.102000X2.302000*%
%ADD18C,2.802000*%
%ADD19C,4.402000*%
%ADD20RoundRect,0.102000X-0.350000X0.350000X-0.350000X-0.350000X0.350000X-0.350000X0.350000X0.350000X0*%
%ADD21RoundRect,0.191000X-0.140000X-0.170000X0.140000X-0.170000X0.140000X0.170000X-0.140000X0.170000X0*%
%ADD22RoundRect,0.051000X0.750000X0.450000X-0.750000X0.450000X-0.750000X-0.450000X0.750000X-0.450000X0*%
%ADD23RoundRect,0.051000X0.500000X0.375000X-0.500000X0.375000X-0.500000X-0.375000X0.500000X-0.375000X0*%
%ADD24RoundRect,0.191000X-0.170000X0.140000X-0.170000X-0.140000X0.170000X-0.140000X0.170000X0.140000X0*%
%ADD25RoundRect,0.186000X-0.185000X0.135000X-0.185000X-0.135000X0.185000X-0.135000X0.185000X0.135000X0*%
%ADD26C,1.802000*%
%ADD27RoundRect,0.051000X-0.500000X-0.375000X0.500000X-0.375000X0.500000X0.375000X-0.500000X0.375000X0*%
%ADD28RoundRect,0.191000X0.170000X-0.140000X0.170000X0.140000X-0.170000X0.140000X-0.170000X-0.140000X0*%
%ADD29RoundRect,0.186000X0.185000X-0.135000X0.185000X0.135000X-0.185000X0.135000X-0.185000X-0.135000X0*%
%ADD30RoundRect,0.051000X0.800000X0.700000X-0.800000X0.700000X-0.800000X-0.700000X0.800000X-0.700000X0*%
%ADD31RoundRect,0.051000X0.850000X0.850000X-0.850000X0.850000X-0.850000X-0.850000X0.850000X-0.850000X0*%
%ADD32O,1.802000X1.802000*%
%ADD33RoundRect,0.191000X0.140000X0.170000X-0.140000X0.170000X-0.140000X-0.170000X0.140000X-0.170000X0*%
%ADD34RoundRect,0.051000X-0.850000X0.850000X-0.850000X-0.850000X0.850000X-0.850000X0.850000X0.850000X0*%
%ADD35RoundRect,0.201000X-0.587500X-0.150000X0.587500X-0.150000X0.587500X0.150000X-0.587500X0.150000X0*%
G04 APERTURE END LIST*
D10*
X-21720000Y12000000D02*
G75*
G03*
X-21720000Y12000000I-1280000J0D01*
G01*
X14280000Y-12000000D02*
G75*
G03*
X14280000Y-12000000I-1280000J0D01*
G01*
X-11720000Y-12000000D02*
G75*
G03*
X-11720000Y-12000000I-1280000J0D01*
G01*
X24280000Y12000000D02*
G75*
G03*
X24280000Y12000000I-1280000J0D01*
G01*
D11*
X-20589161Y20977800D02*
X-20732018Y20930181D01*
X-20732018Y20930181D02*
X-20970113Y20930181D01*
X-20970113Y20930181D02*
X-21065351Y20977800D01*
X-21065351Y20977800D02*
X-21112970Y21025420D01*
X-21112970Y21025420D02*
X-21160589Y21120658D01*
X-21160589Y21120658D02*
X-21160589Y21215896D01*
X-21160589Y21215896D02*
X-21112970Y21311134D01*
X-21112970Y21311134D02*
X-21065351Y21358753D01*
X-21065351Y21358753D02*
X-20970113Y21406372D01*
X-20970113Y21406372D02*
X-20779637Y21453991D01*
X-20779637Y21453991D02*
X-20684399Y21501610D01*
X-20684399Y21501610D02*
X-20636780Y21549229D01*
X-20636780Y21549229D02*
X-20589161Y21644467D01*
X-20589161Y21644467D02*
X-20589161Y21739705D01*
X-20589161Y21739705D02*
X-20636780Y21834943D01*
X-20636780Y21834943D02*
X-20684399Y21882562D01*
X-20684399Y21882562D02*
X-20779637Y21930181D01*
X-20779637Y21930181D02*
X-21017732Y21930181D01*
X-21017732Y21930181D02*
X-21160589Y21882562D01*
X-21589161Y20930181D02*
X-21589161Y21930181D01*
X-21589161Y21930181D02*
X-21827256Y21930181D01*
X-21827256Y21930181D02*
X-21970113Y21882562D01*
X-21970113Y21882562D02*
X-22065351Y21787324D01*
X-22065351Y21787324D02*
X-22112970Y21692086D01*
X-22112970Y21692086D02*
X-22160589Y21501610D01*
X-22160589Y21501610D02*
X-22160589Y21358753D01*
X-22160589Y21358753D02*
X-22112970Y21168277D01*
X-22112970Y21168277D02*
X-22065351Y21073039D01*
X-22065351Y21073039D02*
X-21970113Y20977800D01*
X-21970113Y20977800D02*
X-21827256Y20930181D01*
X-21827256Y20930181D02*
X-21589161Y20930181D01*
X-22541542Y21215896D02*
X-23017732Y21215896D01*
X-22446304Y20930181D02*
X-22779637Y21930181D01*
X-22779637Y21930181D02*
X-23112970Y20930181D01*
X10537800Y26334161D02*
X10490180Y26477018D01*
X10490180Y26477018D02*
X10490180Y26715113D01*
X10490180Y26715113D02*
X10537800Y26810351D01*
X10537800Y26810351D02*
X10585419Y26857970D01*
X10585419Y26857970D02*
X10680657Y26905589D01*
X10680657Y26905589D02*
X10775895Y26905589D01*
X10775895Y26905589D02*
X10871133Y26857970D01*
X10871133Y26857970D02*
X10918752Y26810351D01*
X10918752Y26810351D02*
X10966371Y26715113D01*
X10966371Y26715113D02*
X11013990Y26524637D01*
X11013990Y26524637D02*
X11061609Y26429399D01*
X11061609Y26429399D02*
X11109228Y26381780D01*
X11109228Y26381780D02*
X11204466Y26334161D01*
X11204466Y26334161D02*
X11299704Y26334161D01*
X11299704Y26334161D02*
X11394942Y26381780D01*
X11394942Y26381780D02*
X11442561Y26429399D01*
X11442561Y26429399D02*
X11490180Y26524637D01*
X11490180Y26524637D02*
X11490180Y26762732D01*
X11490180Y26762732D02*
X11442561Y26905589D01*
X11490180Y27238923D02*
X10490180Y27477018D01*
X10490180Y27477018D02*
X11204466Y27667494D01*
X11204466Y27667494D02*
X10490180Y27857970D01*
X10490180Y27857970D02*
X11490180Y28096065D01*
X10490180Y28477018D02*
X11490180Y28477018D01*
X11490180Y28477018D02*
X11490180Y28715113D01*
X11490180Y28715113D02*
X11442561Y28857970D01*
X11442561Y28857970D02*
X11347323Y28953208D01*
X11347323Y28953208D02*
X11252085Y29000827D01*
X11252085Y29000827D02*
X11061609Y29048446D01*
X11061609Y29048446D02*
X10918752Y29048446D01*
X10918752Y29048446D02*
X10728276Y29000827D01*
X10728276Y29000827D02*
X10633038Y28953208D01*
X10633038Y28953208D02*
X10537800Y28857970D01*
X10537800Y28857970D02*
X10490180Y28715113D01*
X10490180Y28715113D02*
X10490180Y28477018D01*
X-17739161Y16077800D02*
X-17882018Y16030181D01*
X-17882018Y16030181D02*
X-18120113Y16030181D01*
X-18120113Y16030181D02*
X-18215351Y16077800D01*
X-18215351Y16077800D02*
X-18262970Y16125420D01*
X-18262970Y16125420D02*
X-18310589Y16220658D01*
X-18310589Y16220658D02*
X-18310589Y16315896D01*
X-18310589Y16315896D02*
X-18262970Y16411134D01*
X-18262970Y16411134D02*
X-18215351Y16458753D01*
X-18215351Y16458753D02*
X-18120113Y16506372D01*
X-18120113Y16506372D02*
X-17929637Y16553991D01*
X-17929637Y16553991D02*
X-17834399Y16601610D01*
X-17834399Y16601610D02*
X-17786780Y16649229D01*
X-17786780Y16649229D02*
X-17739161Y16744467D01*
X-17739161Y16744467D02*
X-17739161Y16839705D01*
X-17739161Y16839705D02*
X-17786780Y16934943D01*
X-17786780Y16934943D02*
X-17834399Y16982562D01*
X-17834399Y16982562D02*
X-17929637Y17030181D01*
X-17929637Y17030181D02*
X-18167732Y17030181D01*
X-18167732Y17030181D02*
X-18310589Y16982562D01*
X-19310589Y16125420D02*
X-19262970Y16077800D01*
X-19262970Y16077800D02*
X-19120113Y16030181D01*
X-19120113Y16030181D02*
X-19024875Y16030181D01*
X-19024875Y16030181D02*
X-18882018Y16077800D01*
X-18882018Y16077800D02*
X-18786780Y16173039D01*
X-18786780Y16173039D02*
X-18739161Y16268277D01*
X-18739161Y16268277D02*
X-18691542Y16458753D01*
X-18691542Y16458753D02*
X-18691542Y16601610D01*
X-18691542Y16601610D02*
X-18739161Y16792086D01*
X-18739161Y16792086D02*
X-18786780Y16887324D01*
X-18786780Y16887324D02*
X-18882018Y16982562D01*
X-18882018Y16982562D02*
X-19024875Y17030181D01*
X-19024875Y17030181D02*
X-19120113Y17030181D01*
X-19120113Y17030181D02*
X-19262970Y16982562D01*
X-19262970Y16982562D02*
X-19310589Y16934943D01*
X-20215351Y16030181D02*
X-19739161Y16030181D01*
X-19739161Y16030181D02*
X-19739161Y17030181D01*
X7787800Y26284161D02*
X7740180Y26427018D01*
X7740180Y26427018D02*
X7740180Y26665113D01*
X7740180Y26665113D02*
X7787800Y26760351D01*
X7787800Y26760351D02*
X7835419Y26807970D01*
X7835419Y26807970D02*
X7930657Y26855589D01*
X7930657Y26855589D02*
X8025895Y26855589D01*
X8025895Y26855589D02*
X8121133Y26807970D01*
X8121133Y26807970D02*
X8168752Y26760351D01*
X8168752Y26760351D02*
X8216371Y26665113D01*
X8216371Y26665113D02*
X8263990Y26474637D01*
X8263990Y26474637D02*
X8311609Y26379399D01*
X8311609Y26379399D02*
X8359228Y26331780D01*
X8359228Y26331780D02*
X8454466Y26284161D01*
X8454466Y26284161D02*
X8549704Y26284161D01*
X8549704Y26284161D02*
X8644942Y26331780D01*
X8644942Y26331780D02*
X8692561Y26379399D01*
X8692561Y26379399D02*
X8740180Y26474637D01*
X8740180Y26474637D02*
X8740180Y26712732D01*
X8740180Y26712732D02*
X8692561Y26855589D01*
X8740180Y27188923D02*
X7740180Y27427018D01*
X7740180Y27427018D02*
X8454466Y27617494D01*
X8454466Y27617494D02*
X7740180Y27807970D01*
X7740180Y27807970D02*
X8740180Y28046065D01*
X7835419Y28998446D02*
X7787800Y28950827D01*
X7787800Y28950827D02*
X7740180Y28807970D01*
X7740180Y28807970D02*
X7740180Y28712732D01*
X7740180Y28712732D02*
X7787800Y28569875D01*
X7787800Y28569875D02*
X7883038Y28474637D01*
X7883038Y28474637D02*
X7978276Y28427018D01*
X7978276Y28427018D02*
X8168752Y28379399D01*
X8168752Y28379399D02*
X8311609Y28379399D01*
X8311609Y28379399D02*
X8502085Y28427018D01*
X8502085Y28427018D02*
X8597323Y28474637D01*
X8597323Y28474637D02*
X8692561Y28569875D01*
X8692561Y28569875D02*
X8740180Y28712732D01*
X8740180Y28712732D02*
X8740180Y28807970D01*
X8740180Y28807970D02*
X8692561Y28950827D01*
X8692561Y28950827D02*
X8644942Y28998446D01*
X14958458Y27350181D02*
X14339411Y27350181D01*
X14339411Y27350181D02*
X14672744Y26969229D01*
X14672744Y26969229D02*
X14529887Y26969229D01*
X14529887Y26969229D02*
X14434649Y26921610D01*
X14434649Y26921610D02*
X14387030Y26873991D01*
X14387030Y26873991D02*
X14339411Y26778753D01*
X14339411Y26778753D02*
X14339411Y26540658D01*
X14339411Y26540658D02*
X14387030Y26445420D01*
X14387030Y26445420D02*
X14434649Y26397800D01*
X14434649Y26397800D02*
X14529887Y26350181D01*
X14529887Y26350181D02*
X14815601Y26350181D01*
X14815601Y26350181D02*
X14910839Y26397800D01*
X14910839Y26397800D02*
X14958458Y26445420D01*
X14053696Y27350181D02*
X13720363Y26350181D01*
X13720363Y26350181D02*
X13387030Y27350181D01*
X13148934Y27350181D02*
X12529887Y27350181D01*
X12529887Y27350181D02*
X12863220Y26969229D01*
X12863220Y26969229D02*
X12720363Y26969229D01*
X12720363Y26969229D02*
X12625125Y26921610D01*
X12625125Y26921610D02*
X12577506Y26873991D01*
X12577506Y26873991D02*
X12529887Y26778753D01*
X12529887Y26778753D02*
X12529887Y26540658D01*
X12529887Y26540658D02*
X12577506Y26445420D01*
X12577506Y26445420D02*
X12625125Y26397800D01*
X12625125Y26397800D02*
X12720363Y26350181D01*
X12720363Y26350181D02*
X13006077Y26350181D01*
X13006077Y26350181D02*
X13101315Y26397800D01*
X13101315Y26397800D02*
X13148934Y26445420D01*
X18712561Y23850589D02*
X18760180Y23755351D01*
X18760180Y23755351D02*
X18760180Y23612494D01*
X18760180Y23612494D02*
X18712561Y23469637D01*
X18712561Y23469637D02*
X18617323Y23374399D01*
X18617323Y23374399D02*
X18522085Y23326780D01*
X18522085Y23326780D02*
X18331609Y23279161D01*
X18331609Y23279161D02*
X18188752Y23279161D01*
X18188752Y23279161D02*
X17998276Y23326780D01*
X17998276Y23326780D02*
X17903038Y23374399D01*
X17903038Y23374399D02*
X17807800Y23469637D01*
X17807800Y23469637D02*
X17760180Y23612494D01*
X17760180Y23612494D02*
X17760180Y23707732D01*
X17760180Y23707732D02*
X17807800Y23850589D01*
X17807800Y23850589D02*
X17855419Y23898208D01*
X17855419Y23898208D02*
X18188752Y23898208D01*
X18188752Y23898208D02*
X18188752Y23707732D01*
X17760180Y24326780D02*
X18760180Y24326780D01*
X18760180Y24326780D02*
X17760180Y24898208D01*
X17760180Y24898208D02*
X18760180Y24898208D01*
X17760180Y25374399D02*
X18760180Y25374399D01*
X18760180Y25374399D02*
X18760180Y25612494D01*
X18760180Y25612494D02*
X18712561Y25755351D01*
X18712561Y25755351D02*
X18617323Y25850589D01*
X18617323Y25850589D02*
X18522085Y25898208D01*
X18522085Y25898208D02*
X18331609Y25945827D01*
X18331609Y25945827D02*
X18188752Y25945827D01*
X18188752Y25945827D02*
X17998276Y25898208D01*
X17998276Y25898208D02*
X17903038Y25850589D01*
X17903038Y25850589D02*
X17807800Y25755351D01*
X17807800Y25755351D02*
X17760180Y25612494D01*
X17760180Y25612494D02*
X17760180Y25374399D01*
%TO.C,D14*%
X837857Y6688593D02*
X837857Y7378593D01*
X837857Y7378593D02*
X673571Y7378593D01*
X673571Y7378593D02*
X575000Y7345736D01*
X575000Y7345736D02*
X509285Y7280022D01*
X509285Y7280022D02*
X476428Y7214308D01*
X476428Y7214308D02*
X443571Y7082879D01*
X443571Y7082879D02*
X443571Y6984308D01*
X443571Y6984308D02*
X476428Y6852879D01*
X476428Y6852879D02*
X509285Y6787165D01*
X509285Y6787165D02*
X575000Y6721450D01*
X575000Y6721450D02*
X673571Y6688593D01*
X673571Y6688593D02*
X837857Y6688593D01*
X-213572Y6688593D02*
X180714Y6688593D01*
X-16429Y6688593D02*
X-16429Y7378593D01*
X-16429Y7378593D02*
X49285Y7280022D01*
X49285Y7280022D02*
X115000Y7214308D01*
X115000Y7214308D02*
X180714Y7181450D01*
X-805000Y7148593D02*
X-805000Y6688593D01*
X-640715Y7411450D02*
X-476429Y6918593D01*
X-476429Y6918593D02*
X-903572Y6918593D01*
%TO.C,R8*%
X-14003334Y14595181D02*
X-13670001Y15071372D01*
X-13431906Y14595181D02*
X-13431906Y15595181D01*
X-13431906Y15595181D02*
X-13812858Y15595181D01*
X-13812858Y15595181D02*
X-13908096Y15547562D01*
X-13908096Y15547562D02*
X-13955715Y15499943D01*
X-13955715Y15499943D02*
X-14003334Y15404705D01*
X-14003334Y15404705D02*
X-14003334Y15261848D01*
X-14003334Y15261848D02*
X-13955715Y15166610D01*
X-13955715Y15166610D02*
X-13908096Y15118991D01*
X-13908096Y15118991D02*
X-13812858Y15071372D01*
X-13812858Y15071372D02*
X-13431906Y15071372D01*
X-14574763Y15166610D02*
X-14479525Y15214229D01*
X-14479525Y15214229D02*
X-14431906Y15261848D01*
X-14431906Y15261848D02*
X-14384287Y15357086D01*
X-14384287Y15357086D02*
X-14384287Y15404705D01*
X-14384287Y15404705D02*
X-14431906Y15499943D01*
X-14431906Y15499943D02*
X-14479525Y15547562D01*
X-14479525Y15547562D02*
X-14574763Y15595181D01*
X-14574763Y15595181D02*
X-14765239Y15595181D01*
X-14765239Y15595181D02*
X-14860477Y15547562D01*
X-14860477Y15547562D02*
X-14908096Y15499943D01*
X-14908096Y15499943D02*
X-14955715Y15404705D01*
X-14955715Y15404705D02*
X-14955715Y15357086D01*
X-14955715Y15357086D02*
X-14908096Y15261848D01*
X-14908096Y15261848D02*
X-14860477Y15214229D01*
X-14860477Y15214229D02*
X-14765239Y15166610D01*
X-14765239Y15166610D02*
X-14574763Y15166610D01*
X-14574763Y15166610D02*
X-14479525Y15118991D01*
X-14479525Y15118991D02*
X-14431906Y15071372D01*
X-14431906Y15071372D02*
X-14384287Y14976134D01*
X-14384287Y14976134D02*
X-14384287Y14785658D01*
X-14384287Y14785658D02*
X-14431906Y14690420D01*
X-14431906Y14690420D02*
X-14479525Y14642800D01*
X-14479525Y14642800D02*
X-14574763Y14595181D01*
X-14574763Y14595181D02*
X-14765239Y14595181D01*
X-14765239Y14595181D02*
X-14860477Y14642800D01*
X-14860477Y14642800D02*
X-14908096Y14690420D01*
X-14908096Y14690420D02*
X-14955715Y14785658D01*
X-14955715Y14785658D02*
X-14955715Y14976134D01*
X-14955715Y14976134D02*
X-14908096Y15071372D01*
X-14908096Y15071372D02*
X-14860477Y15118991D01*
X-14860477Y15118991D02*
X-14765239Y15166610D01*
%TO.C,D7*%
X-1611906Y-8904819D02*
X-1611906Y-7904819D01*
X-1611906Y-7904819D02*
X-1850001Y-7904819D01*
X-1850001Y-7904819D02*
X-1992858Y-7952438D01*
X-1992858Y-7952438D02*
X-2088096Y-8047676D01*
X-2088096Y-8047676D02*
X-2135715Y-8142914D01*
X-2135715Y-8142914D02*
X-2183334Y-8333390D01*
X-2183334Y-8333390D02*
X-2183334Y-8476247D01*
X-2183334Y-8476247D02*
X-2135715Y-8666723D01*
X-2135715Y-8666723D02*
X-2088096Y-8761961D01*
X-2088096Y-8761961D02*
X-1992858Y-8857200D01*
X-1992858Y-8857200D02*
X-1850001Y-8904819D01*
X-1850001Y-8904819D02*
X-1611906Y-8904819D01*
X-2516668Y-7904819D02*
X-3183334Y-7904819D01*
X-3183334Y-7904819D02*
X-2754763Y-8904819D01*
%TO.C,D3*%
X25925806Y9455382D02*
X25285806Y9455382D01*
X25285806Y9455382D02*
X25285806Y9303001D01*
X25285806Y9303001D02*
X25316282Y9211572D01*
X25316282Y9211572D02*
X25377234Y9150620D01*
X25377234Y9150620D02*
X25438187Y9120143D01*
X25438187Y9120143D02*
X25560091Y9089667D01*
X25560091Y9089667D02*
X25651520Y9089667D01*
X25651520Y9089667D02*
X25773425Y9120143D01*
X25773425Y9120143D02*
X25834377Y9150620D01*
X25834377Y9150620D02*
X25895330Y9211572D01*
X25895330Y9211572D02*
X25925806Y9303001D01*
X25925806Y9303001D02*
X25925806Y9455382D01*
X25285806Y8876334D02*
X25285806Y8480143D01*
X25285806Y8480143D02*
X25529615Y8693477D01*
X25529615Y8693477D02*
X25529615Y8602048D01*
X25529615Y8602048D02*
X25560091Y8541096D01*
X25560091Y8541096D02*
X25590568Y8510620D01*
X25590568Y8510620D02*
X25651520Y8480143D01*
X25651520Y8480143D02*
X25803901Y8480143D01*
X25803901Y8480143D02*
X25864853Y8510620D01*
X25864853Y8510620D02*
X25895330Y8541096D01*
X25895330Y8541096D02*
X25925806Y8602048D01*
X25925806Y8602048D02*
X25925806Y8784905D01*
X25925806Y8784905D02*
X25895330Y8845858D01*
X25895330Y8845858D02*
X25864853Y8876334D01*
%TO.C,SW4*%
X-8016668Y21217800D02*
X-8159525Y21170181D01*
X-8159525Y21170181D02*
X-8397620Y21170181D01*
X-8397620Y21170181D02*
X-8492858Y21217800D01*
X-8492858Y21217800D02*
X-8540477Y21265420D01*
X-8540477Y21265420D02*
X-8588096Y21360658D01*
X-8588096Y21360658D02*
X-8588096Y21455896D01*
X-8588096Y21455896D02*
X-8540477Y21551134D01*
X-8540477Y21551134D02*
X-8492858Y21598753D01*
X-8492858Y21598753D02*
X-8397620Y21646372D01*
X-8397620Y21646372D02*
X-8207144Y21693991D01*
X-8207144Y21693991D02*
X-8111906Y21741610D01*
X-8111906Y21741610D02*
X-8064287Y21789229D01*
X-8064287Y21789229D02*
X-8016668Y21884467D01*
X-8016668Y21884467D02*
X-8016668Y21979705D01*
X-8016668Y21979705D02*
X-8064287Y22074943D01*
X-8064287Y22074943D02*
X-8111906Y22122562D01*
X-8111906Y22122562D02*
X-8207144Y22170181D01*
X-8207144Y22170181D02*
X-8445239Y22170181D01*
X-8445239Y22170181D02*
X-8588096Y22122562D01*
X-8921430Y22170181D02*
X-9159525Y21170181D01*
X-9159525Y21170181D02*
X-9350001Y21884467D01*
X-9350001Y21884467D02*
X-9540477Y21170181D01*
X-9540477Y21170181D02*
X-9778572Y22170181D01*
X-10588096Y21836848D02*
X-10588096Y21170181D01*
X-10350001Y22217800D02*
X-10111906Y21503515D01*
X-10111906Y21503515D02*
X-10730953Y21503515D01*
X-7329524Y17543991D02*
X-7472381Y17496372D01*
X-7472381Y17496372D02*
X-7520000Y17448753D01*
X-7520000Y17448753D02*
X-7567619Y17353515D01*
X-7567619Y17353515D02*
X-7567619Y17210658D01*
X-7567619Y17210658D02*
X-7520000Y17115420D01*
X-7520000Y17115420D02*
X-7472381Y17067800D01*
X-7472381Y17067800D02*
X-7377143Y17020181D01*
X-7377143Y17020181D02*
X-6996191Y17020181D01*
X-6996191Y17020181D02*
X-6996191Y18020181D01*
X-6996191Y18020181D02*
X-7329524Y18020181D01*
X-7329524Y18020181D02*
X-7424762Y17972562D01*
X-7424762Y17972562D02*
X-7472381Y17924943D01*
X-7472381Y17924943D02*
X-7520000Y17829705D01*
X-7520000Y17829705D02*
X-7520000Y17734467D01*
X-7520000Y17734467D02*
X-7472381Y17639229D01*
X-7472381Y17639229D02*
X-7424762Y17591610D01*
X-7424762Y17591610D02*
X-7329524Y17543991D01*
X-7329524Y17543991D02*
X-6996191Y17543991D01*
X-8186667Y18020181D02*
X-8377143Y18020181D01*
X-8377143Y18020181D02*
X-8472381Y17972562D01*
X-8472381Y17972562D02*
X-8567619Y17877324D01*
X-8567619Y17877324D02*
X-8615238Y17686848D01*
X-8615238Y17686848D02*
X-8615238Y17353515D01*
X-8615238Y17353515D02*
X-8567619Y17163039D01*
X-8567619Y17163039D02*
X-8472381Y17067800D01*
X-8472381Y17067800D02*
X-8377143Y17020181D01*
X-8377143Y17020181D02*
X-8186667Y17020181D01*
X-8186667Y17020181D02*
X-8091429Y17067800D01*
X-8091429Y17067800D02*
X-7996191Y17163039D01*
X-7996191Y17163039D02*
X-7948572Y17353515D01*
X-7948572Y17353515D02*
X-7948572Y17686848D01*
X-7948572Y17686848D02*
X-7996191Y17877324D01*
X-7996191Y17877324D02*
X-8091429Y17972562D01*
X-8091429Y17972562D02*
X-8186667Y18020181D01*
X-9234286Y18020181D02*
X-9424762Y18020181D01*
X-9424762Y18020181D02*
X-9520000Y17972562D01*
X-9520000Y17972562D02*
X-9615238Y17877324D01*
X-9615238Y17877324D02*
X-9662857Y17686848D01*
X-9662857Y17686848D02*
X-9662857Y17353515D01*
X-9662857Y17353515D02*
X-9615238Y17163039D01*
X-9615238Y17163039D02*
X-9520000Y17067800D01*
X-9520000Y17067800D02*
X-9424762Y17020181D01*
X-9424762Y17020181D02*
X-9234286Y17020181D01*
X-9234286Y17020181D02*
X-9139048Y17067800D01*
X-9139048Y17067800D02*
X-9043810Y17163039D01*
X-9043810Y17163039D02*
X-8996191Y17353515D01*
X-8996191Y17353515D02*
X-8996191Y17686848D01*
X-8996191Y17686848D02*
X-9043810Y17877324D01*
X-9043810Y17877324D02*
X-9139048Y17972562D01*
X-9139048Y17972562D02*
X-9234286Y18020181D01*
X-9948572Y18020181D02*
X-10520000Y18020181D01*
X-10234286Y17020181D02*
X-10234286Y18020181D01*
X-10805715Y17067800D02*
X-10948572Y17020181D01*
X-10948572Y17020181D02*
X-11186667Y17020181D01*
X-11186667Y17020181D02*
X-11281905Y17067800D01*
X-11281905Y17067800D02*
X-11329524Y17115420D01*
X-11329524Y17115420D02*
X-11377143Y17210658D01*
X-11377143Y17210658D02*
X-11377143Y17305896D01*
X-11377143Y17305896D02*
X-11329524Y17401134D01*
X-11329524Y17401134D02*
X-11281905Y17448753D01*
X-11281905Y17448753D02*
X-11186667Y17496372D01*
X-11186667Y17496372D02*
X-10996191Y17543991D01*
X-10996191Y17543991D02*
X-10900953Y17591610D01*
X-10900953Y17591610D02*
X-10853334Y17639229D01*
X-10853334Y17639229D02*
X-10805715Y17734467D01*
X-10805715Y17734467D02*
X-10805715Y17829705D01*
X-10805715Y17829705D02*
X-10853334Y17924943D01*
X-10853334Y17924943D02*
X-10900953Y17972562D01*
X-10900953Y17972562D02*
X-10996191Y18020181D01*
X-10996191Y18020181D02*
X-11234286Y18020181D01*
X-11234286Y18020181D02*
X-11377143Y17972562D01*
X-11805715Y17543991D02*
X-12139048Y17543991D01*
X-12281905Y17020181D02*
X-11805715Y17020181D01*
X-11805715Y17020181D02*
X-11805715Y18020181D01*
X-11805715Y18020181D02*
X-12281905Y18020181D01*
X-13186667Y17020181D02*
X-12710477Y17020181D01*
X-12710477Y17020181D02*
X-12710477Y18020181D01*
%TO.C,C29*%
X-15940420Y-10307142D02*
X-15892800Y-10259523D01*
X-15892800Y-10259523D02*
X-15845181Y-10116666D01*
X-15845181Y-10116666D02*
X-15845181Y-10021428D01*
X-15845181Y-10021428D02*
X-15892800Y-9878571D01*
X-15892800Y-9878571D02*
X-15988039Y-9783333D01*
X-15988039Y-9783333D02*
X-16083277Y-9735714D01*
X-16083277Y-9735714D02*
X-16273753Y-9688095D01*
X-16273753Y-9688095D02*
X-16416610Y-9688095D01*
X-16416610Y-9688095D02*
X-16607086Y-9735714D01*
X-16607086Y-9735714D02*
X-16702324Y-9783333D01*
X-16702324Y-9783333D02*
X-16797562Y-9878571D01*
X-16797562Y-9878571D02*
X-16845181Y-10021428D01*
X-16845181Y-10021428D02*
X-16845181Y-10116666D01*
X-16845181Y-10116666D02*
X-16797562Y-10259523D01*
X-16797562Y-10259523D02*
X-16749943Y-10307142D01*
X-16749943Y-10688095D02*
X-16797562Y-10735714D01*
X-16797562Y-10735714D02*
X-16845181Y-10830952D01*
X-16845181Y-10830952D02*
X-16845181Y-11069047D01*
X-16845181Y-11069047D02*
X-16797562Y-11164285D01*
X-16797562Y-11164285D02*
X-16749943Y-11211904D01*
X-16749943Y-11211904D02*
X-16654705Y-11259523D01*
X-16654705Y-11259523D02*
X-16559467Y-11259523D01*
X-16559467Y-11259523D02*
X-16416610Y-11211904D01*
X-16416610Y-11211904D02*
X-15845181Y-10640476D01*
X-15845181Y-10640476D02*
X-15845181Y-11259523D01*
X-15845181Y-11735714D02*
X-15845181Y-11926190D01*
X-15845181Y-11926190D02*
X-15892800Y-12021428D01*
X-15892800Y-12021428D02*
X-15940420Y-12069047D01*
X-15940420Y-12069047D02*
X-16083277Y-12164285D01*
X-16083277Y-12164285D02*
X-16273753Y-12211904D01*
X-16273753Y-12211904D02*
X-16654705Y-12211904D01*
X-16654705Y-12211904D02*
X-16749943Y-12164285D01*
X-16749943Y-12164285D02*
X-16797562Y-12116666D01*
X-16797562Y-12116666D02*
X-16845181Y-12021428D01*
X-16845181Y-12021428D02*
X-16845181Y-11830952D01*
X-16845181Y-11830952D02*
X-16797562Y-11735714D01*
X-16797562Y-11735714D02*
X-16749943Y-11688095D01*
X-16749943Y-11688095D02*
X-16654705Y-11640476D01*
X-16654705Y-11640476D02*
X-16416610Y-11640476D01*
X-16416610Y-11640476D02*
X-16321372Y-11688095D01*
X-16321372Y-11688095D02*
X-16273753Y-11735714D01*
X-16273753Y-11735714D02*
X-16226134Y-11830952D01*
X-16226134Y-11830952D02*
X-16226134Y-12021428D01*
X-16226134Y-12021428D02*
X-16273753Y-12116666D01*
X-16273753Y-12116666D02*
X-16321372Y-12164285D01*
X-16321372Y-12164285D02*
X-16416610Y-12211904D01*
%TO.C,R12*%
X-6455181Y21662858D02*
X-6931372Y21996191D01*
X-6455181Y22234286D02*
X-7455181Y22234286D01*
X-7455181Y22234286D02*
X-7455181Y21853334D01*
X-7455181Y21853334D02*
X-7407562Y21758096D01*
X-7407562Y21758096D02*
X-7359943Y21710477D01*
X-7359943Y21710477D02*
X-7264705Y21662858D01*
X-7264705Y21662858D02*
X-7121848Y21662858D01*
X-7121848Y21662858D02*
X-7026610Y21710477D01*
X-7026610Y21710477D02*
X-6978991Y21758096D01*
X-6978991Y21758096D02*
X-6931372Y21853334D01*
X-6931372Y21853334D02*
X-6931372Y22234286D01*
X-6455181Y20710477D02*
X-6455181Y21281905D01*
X-6455181Y20996191D02*
X-7455181Y20996191D01*
X-7455181Y20996191D02*
X-7312324Y21091429D01*
X-7312324Y21091429D02*
X-7217086Y21186667D01*
X-7217086Y21186667D02*
X-7169467Y21281905D01*
X-7359943Y20329524D02*
X-7407562Y20281905D01*
X-7407562Y20281905D02*
X-7455181Y20186667D01*
X-7455181Y20186667D02*
X-7455181Y19948572D01*
X-7455181Y19948572D02*
X-7407562Y19853334D01*
X-7407562Y19853334D02*
X-7359943Y19805715D01*
X-7359943Y19805715D02*
X-7264705Y19758096D01*
X-7264705Y19758096D02*
X-7169467Y19758096D01*
X-7169467Y19758096D02*
X-7026610Y19805715D01*
X-7026610Y19805715D02*
X-6455181Y20377143D01*
X-6455181Y20377143D02*
X-6455181Y19758096D01*
%TO.C,C30*%
X5759580Y-9857142D02*
X5807200Y-9809523D01*
X5807200Y-9809523D02*
X5854819Y-9666666D01*
X5854819Y-9666666D02*
X5854819Y-9571428D01*
X5854819Y-9571428D02*
X5807200Y-9428571D01*
X5807200Y-9428571D02*
X5711961Y-9333333D01*
X5711961Y-9333333D02*
X5616723Y-9285714D01*
X5616723Y-9285714D02*
X5426247Y-9238095D01*
X5426247Y-9238095D02*
X5283390Y-9238095D01*
X5283390Y-9238095D02*
X5092914Y-9285714D01*
X5092914Y-9285714D02*
X4997676Y-9333333D01*
X4997676Y-9333333D02*
X4902438Y-9428571D01*
X4902438Y-9428571D02*
X4854819Y-9571428D01*
X4854819Y-9571428D02*
X4854819Y-9666666D01*
X4854819Y-9666666D02*
X4902438Y-9809523D01*
X4902438Y-9809523D02*
X4950057Y-9857142D01*
X4854819Y-10190476D02*
X4854819Y-10809523D01*
X4854819Y-10809523D02*
X5235771Y-10476190D01*
X5235771Y-10476190D02*
X5235771Y-10619047D01*
X5235771Y-10619047D02*
X5283390Y-10714285D01*
X5283390Y-10714285D02*
X5331009Y-10761904D01*
X5331009Y-10761904D02*
X5426247Y-10809523D01*
X5426247Y-10809523D02*
X5664342Y-10809523D01*
X5664342Y-10809523D02*
X5759580Y-10761904D01*
X5759580Y-10761904D02*
X5807200Y-10714285D01*
X5807200Y-10714285D02*
X5854819Y-10619047D01*
X5854819Y-10619047D02*
X5854819Y-10333333D01*
X5854819Y-10333333D02*
X5807200Y-10238095D01*
X5807200Y-10238095D02*
X5759580Y-10190476D01*
X4854819Y-11428571D02*
X4854819Y-11523809D01*
X4854819Y-11523809D02*
X4902438Y-11619047D01*
X4902438Y-11619047D02*
X4950057Y-11666666D01*
X4950057Y-11666666D02*
X5045295Y-11714285D01*
X5045295Y-11714285D02*
X5235771Y-11761904D01*
X5235771Y-11761904D02*
X5473866Y-11761904D01*
X5473866Y-11761904D02*
X5664342Y-11714285D01*
X5664342Y-11714285D02*
X5759580Y-11666666D01*
X5759580Y-11666666D02*
X5807200Y-11619047D01*
X5807200Y-11619047D02*
X5854819Y-11523809D01*
X5854819Y-11523809D02*
X5854819Y-11428571D01*
X5854819Y-11428571D02*
X5807200Y-11333333D01*
X5807200Y-11333333D02*
X5759580Y-11285714D01*
X5759580Y-11285714D02*
X5664342Y-11238095D01*
X5664342Y-11238095D02*
X5473866Y-11190476D01*
X5473866Y-11190476D02*
X5235771Y-11190476D01*
X5235771Y-11190476D02*
X5045295Y-11238095D01*
X5045295Y-11238095D02*
X4950057Y-11285714D01*
X4950057Y-11285714D02*
X4902438Y-11333333D01*
X4902438Y-11333333D02*
X4854819Y-11428571D01*
%TO.C,D15*%
X19887857Y6688593D02*
X19887857Y7378593D01*
X19887857Y7378593D02*
X19723571Y7378593D01*
X19723571Y7378593D02*
X19625000Y7345736D01*
X19625000Y7345736D02*
X19559285Y7280022D01*
X19559285Y7280022D02*
X19526428Y7214308D01*
X19526428Y7214308D02*
X19493571Y7082879D01*
X19493571Y7082879D02*
X19493571Y6984308D01*
X19493571Y6984308D02*
X19526428Y6852879D01*
X19526428Y6852879D02*
X19559285Y6787165D01*
X19559285Y6787165D02*
X19625000Y6721450D01*
X19625000Y6721450D02*
X19723571Y6688593D01*
X19723571Y6688593D02*
X19887857Y6688593D01*
X18836428Y6688593D02*
X19230714Y6688593D01*
X19033571Y6688593D02*
X19033571Y7378593D01*
X19033571Y7378593D02*
X19099285Y7280022D01*
X19099285Y7280022D02*
X19165000Y7214308D01*
X19165000Y7214308D02*
X19230714Y7181450D01*
X18212142Y7378593D02*
X18540714Y7378593D01*
X18540714Y7378593D02*
X18573571Y7050022D01*
X18573571Y7050022D02*
X18540714Y7082879D01*
X18540714Y7082879D02*
X18475000Y7115736D01*
X18475000Y7115736D02*
X18310714Y7115736D01*
X18310714Y7115736D02*
X18245000Y7082879D01*
X18245000Y7082879D02*
X18212142Y7050022D01*
X18212142Y7050022D02*
X18179285Y6984308D01*
X18179285Y6984308D02*
X18179285Y6820022D01*
X18179285Y6820022D02*
X18212142Y6754308D01*
X18212142Y6754308D02*
X18245000Y6721450D01*
X18245000Y6721450D02*
X18310714Y6688593D01*
X18310714Y6688593D02*
X18475000Y6688593D01*
X18475000Y6688593D02*
X18540714Y6721450D01*
X18540714Y6721450D02*
X18573571Y6754308D01*
%TO.C,C33*%
X-27437143Y-4119580D02*
X-27389524Y-4167200D01*
X-27389524Y-4167200D02*
X-27246667Y-4214819D01*
X-27246667Y-4214819D02*
X-27151429Y-4214819D01*
X-27151429Y-4214819D02*
X-27008572Y-4167200D01*
X-27008572Y-4167200D02*
X-26913334Y-4071961D01*
X-26913334Y-4071961D02*
X-26865715Y-3976723D01*
X-26865715Y-3976723D02*
X-26818096Y-3786247D01*
X-26818096Y-3786247D02*
X-26818096Y-3643390D01*
X-26818096Y-3643390D02*
X-26865715Y-3452914D01*
X-26865715Y-3452914D02*
X-26913334Y-3357676D01*
X-26913334Y-3357676D02*
X-27008572Y-3262438D01*
X-27008572Y-3262438D02*
X-27151429Y-3214819D01*
X-27151429Y-3214819D02*
X-27246667Y-3214819D01*
X-27246667Y-3214819D02*
X-27389524Y-3262438D01*
X-27389524Y-3262438D02*
X-27437143Y-3310057D01*
X-27770477Y-3214819D02*
X-28389524Y-3214819D01*
X-28389524Y-3214819D02*
X-28056191Y-3595771D01*
X-28056191Y-3595771D02*
X-28199048Y-3595771D01*
X-28199048Y-3595771D02*
X-28294286Y-3643390D01*
X-28294286Y-3643390D02*
X-28341905Y-3691009D01*
X-28341905Y-3691009D02*
X-28389524Y-3786247D01*
X-28389524Y-3786247D02*
X-28389524Y-4024342D01*
X-28389524Y-4024342D02*
X-28341905Y-4119580D01*
X-28341905Y-4119580D02*
X-28294286Y-4167200D01*
X-28294286Y-4167200D02*
X-28199048Y-4214819D01*
X-28199048Y-4214819D02*
X-27913334Y-4214819D01*
X-27913334Y-4214819D02*
X-27818096Y-4167200D01*
X-27818096Y-4167200D02*
X-27770477Y-4119580D01*
X-28722858Y-3214819D02*
X-29341905Y-3214819D01*
X-29341905Y-3214819D02*
X-29008572Y-3595771D01*
X-29008572Y-3595771D02*
X-29151429Y-3595771D01*
X-29151429Y-3595771D02*
X-29246667Y-3643390D01*
X-29246667Y-3643390D02*
X-29294286Y-3691009D01*
X-29294286Y-3691009D02*
X-29341905Y-3786247D01*
X-29341905Y-3786247D02*
X-29341905Y-4024342D01*
X-29341905Y-4024342D02*
X-29294286Y-4119580D01*
X-29294286Y-4119580D02*
X-29246667Y-4167200D01*
X-29246667Y-4167200D02*
X-29151429Y-4214819D01*
X-29151429Y-4214819D02*
X-28865715Y-4214819D01*
X-28865715Y-4214819D02*
X-28770477Y-4167200D01*
X-28770477Y-4167200D02*
X-28722858Y-4119580D01*
%TO.C,C25*%
X20359580Y21492858D02*
X20407200Y21540477D01*
X20407200Y21540477D02*
X20454819Y21683334D01*
X20454819Y21683334D02*
X20454819Y21778572D01*
X20454819Y21778572D02*
X20407200Y21921429D01*
X20407200Y21921429D02*
X20311961Y22016667D01*
X20311961Y22016667D02*
X20216723Y22064286D01*
X20216723Y22064286D02*
X20026247Y22111905D01*
X20026247Y22111905D02*
X19883390Y22111905D01*
X19883390Y22111905D02*
X19692914Y22064286D01*
X19692914Y22064286D02*
X19597676Y22016667D01*
X19597676Y22016667D02*
X19502438Y21921429D01*
X19502438Y21921429D02*
X19454819Y21778572D01*
X19454819Y21778572D02*
X19454819Y21683334D01*
X19454819Y21683334D02*
X19502438Y21540477D01*
X19502438Y21540477D02*
X19550057Y21492858D01*
X19550057Y21111905D02*
X19502438Y21064286D01*
X19502438Y21064286D02*
X19454819Y20969048D01*
X19454819Y20969048D02*
X19454819Y20730953D01*
X19454819Y20730953D02*
X19502438Y20635715D01*
X19502438Y20635715D02*
X19550057Y20588096D01*
X19550057Y20588096D02*
X19645295Y20540477D01*
X19645295Y20540477D02*
X19740533Y20540477D01*
X19740533Y20540477D02*
X19883390Y20588096D01*
X19883390Y20588096D02*
X20454819Y21159524D01*
X20454819Y21159524D02*
X20454819Y20540477D01*
X19454819Y19635715D02*
X19454819Y20111905D01*
X19454819Y20111905D02*
X19931009Y20159524D01*
X19931009Y20159524D02*
X19883390Y20111905D01*
X19883390Y20111905D02*
X19835771Y20016667D01*
X19835771Y20016667D02*
X19835771Y19778572D01*
X19835771Y19778572D02*
X19883390Y19683334D01*
X19883390Y19683334D02*
X19931009Y19635715D01*
X19931009Y19635715D02*
X20026247Y19588096D01*
X20026247Y19588096D02*
X20264342Y19588096D01*
X20264342Y19588096D02*
X20359580Y19635715D01*
X20359580Y19635715D02*
X20407200Y19683334D01*
X20407200Y19683334D02*
X20454819Y19778572D01*
X20454819Y19778572D02*
X20454819Y20016667D01*
X20454819Y20016667D02*
X20407200Y20111905D01*
X20407200Y20111905D02*
X20359580Y20159524D01*
%TO.C,D4*%
X27425806Y-7044618D02*
X26785806Y-7044618D01*
X26785806Y-7044618D02*
X26785806Y-7196999D01*
X26785806Y-7196999D02*
X26816282Y-7288428D01*
X26816282Y-7288428D02*
X26877234Y-7349380D01*
X26877234Y-7349380D02*
X26938187Y-7379857D01*
X26938187Y-7379857D02*
X27060091Y-7410333D01*
X27060091Y-7410333D02*
X27151520Y-7410333D01*
X27151520Y-7410333D02*
X27273425Y-7379857D01*
X27273425Y-7379857D02*
X27334377Y-7349380D01*
X27334377Y-7349380D02*
X27395330Y-7288428D01*
X27395330Y-7288428D02*
X27425806Y-7196999D01*
X27425806Y-7196999D02*
X27425806Y-7044618D01*
X26999139Y-7958904D02*
X27425806Y-7958904D01*
X26755330Y-7806523D02*
X27212472Y-7654142D01*
X27212472Y-7654142D02*
X27212472Y-8050333D01*
%TO.C,C28*%
X27159580Y-10407142D02*
X27207200Y-10359523D01*
X27207200Y-10359523D02*
X27254819Y-10216666D01*
X27254819Y-10216666D02*
X27254819Y-10121428D01*
X27254819Y-10121428D02*
X27207200Y-9978571D01*
X27207200Y-9978571D02*
X27111961Y-9883333D01*
X27111961Y-9883333D02*
X27016723Y-9835714D01*
X27016723Y-9835714D02*
X26826247Y-9788095D01*
X26826247Y-9788095D02*
X26683390Y-9788095D01*
X26683390Y-9788095D02*
X26492914Y-9835714D01*
X26492914Y-9835714D02*
X26397676Y-9883333D01*
X26397676Y-9883333D02*
X26302438Y-9978571D01*
X26302438Y-9978571D02*
X26254819Y-10121428D01*
X26254819Y-10121428D02*
X26254819Y-10216666D01*
X26254819Y-10216666D02*
X26302438Y-10359523D01*
X26302438Y-10359523D02*
X26350057Y-10407142D01*
X26350057Y-10788095D02*
X26302438Y-10835714D01*
X26302438Y-10835714D02*
X26254819Y-10930952D01*
X26254819Y-10930952D02*
X26254819Y-11169047D01*
X26254819Y-11169047D02*
X26302438Y-11264285D01*
X26302438Y-11264285D02*
X26350057Y-11311904D01*
X26350057Y-11311904D02*
X26445295Y-11359523D01*
X26445295Y-11359523D02*
X26540533Y-11359523D01*
X26540533Y-11359523D02*
X26683390Y-11311904D01*
X26683390Y-11311904D02*
X27254819Y-10740476D01*
X27254819Y-10740476D02*
X27254819Y-11359523D01*
X26683390Y-11930952D02*
X26635771Y-11835714D01*
X26635771Y-11835714D02*
X26588152Y-11788095D01*
X26588152Y-11788095D02*
X26492914Y-11740476D01*
X26492914Y-11740476D02*
X26445295Y-11740476D01*
X26445295Y-11740476D02*
X26350057Y-11788095D01*
X26350057Y-11788095D02*
X26302438Y-11835714D01*
X26302438Y-11835714D02*
X26254819Y-11930952D01*
X26254819Y-11930952D02*
X26254819Y-12121428D01*
X26254819Y-12121428D02*
X26302438Y-12216666D01*
X26302438Y-12216666D02*
X26350057Y-12264285D01*
X26350057Y-12264285D02*
X26445295Y-12311904D01*
X26445295Y-12311904D02*
X26492914Y-12311904D01*
X26492914Y-12311904D02*
X26588152Y-12264285D01*
X26588152Y-12264285D02*
X26635771Y-12216666D01*
X26635771Y-12216666D02*
X26683390Y-12121428D01*
X26683390Y-12121428D02*
X26683390Y-11930952D01*
X26683390Y-11930952D02*
X26731009Y-11835714D01*
X26731009Y-11835714D02*
X26778628Y-11788095D01*
X26778628Y-11788095D02*
X26873866Y-11740476D01*
X26873866Y-11740476D02*
X27064342Y-11740476D01*
X27064342Y-11740476D02*
X27159580Y-11788095D01*
X27159580Y-11788095D02*
X27207200Y-11835714D01*
X27207200Y-11835714D02*
X27254819Y-11930952D01*
X27254819Y-11930952D02*
X27254819Y-12121428D01*
X27254819Y-12121428D02*
X27207200Y-12216666D01*
X27207200Y-12216666D02*
X27159580Y-12264285D01*
X27159580Y-12264285D02*
X27064342Y-12311904D01*
X27064342Y-12311904D02*
X26873866Y-12311904D01*
X26873866Y-12311904D02*
X26778628Y-12264285D01*
X26778628Y-12264285D02*
X26731009Y-12216666D01*
X26731009Y-12216666D02*
X26683390Y-12121428D01*
%TO.C,D13*%
X-18212143Y6688593D02*
X-18212143Y7378593D01*
X-18212143Y7378593D02*
X-18376429Y7378593D01*
X-18376429Y7378593D02*
X-18475000Y7345736D01*
X-18475000Y7345736D02*
X-18540715Y7280022D01*
X-18540715Y7280022D02*
X-18573572Y7214308D01*
X-18573572Y7214308D02*
X-18606429Y7082879D01*
X-18606429Y7082879D02*
X-18606429Y6984308D01*
X-18606429Y6984308D02*
X-18573572Y6852879D01*
X-18573572Y6852879D02*
X-18540715Y6787165D01*
X-18540715Y6787165D02*
X-18475000Y6721450D01*
X-18475000Y6721450D02*
X-18376429Y6688593D01*
X-18376429Y6688593D02*
X-18212143Y6688593D01*
X-19263572Y6688593D02*
X-18869286Y6688593D01*
X-19066429Y6688593D02*
X-19066429Y7378593D01*
X-19066429Y7378593D02*
X-19000715Y7280022D01*
X-19000715Y7280022D02*
X-18935000Y7214308D01*
X-18935000Y7214308D02*
X-18869286Y7181450D01*
X-19493572Y7378593D02*
X-19920715Y7378593D01*
X-19920715Y7378593D02*
X-19690715Y7115736D01*
X-19690715Y7115736D02*
X-19789286Y7115736D01*
X-19789286Y7115736D02*
X-19855000Y7082879D01*
X-19855000Y7082879D02*
X-19887858Y7050022D01*
X-19887858Y7050022D02*
X-19920715Y6984308D01*
X-19920715Y6984308D02*
X-19920715Y6820022D01*
X-19920715Y6820022D02*
X-19887858Y6754308D01*
X-19887858Y6754308D02*
X-19855000Y6721450D01*
X-19855000Y6721450D02*
X-19789286Y6688593D01*
X-19789286Y6688593D02*
X-19592143Y6688593D01*
X-19592143Y6688593D02*
X-19526429Y6721450D01*
X-19526429Y6721450D02*
X-19493572Y6754308D01*
%TO.C,D9*%
X-20761906Y-9454819D02*
X-20761906Y-8454819D01*
X-20761906Y-8454819D02*
X-21000001Y-8454819D01*
X-21000001Y-8454819D02*
X-21142858Y-8502438D01*
X-21142858Y-8502438D02*
X-21238096Y-8597676D01*
X-21238096Y-8597676D02*
X-21285715Y-8692914D01*
X-21285715Y-8692914D02*
X-21333334Y-8883390D01*
X-21333334Y-8883390D02*
X-21333334Y-9026247D01*
X-21333334Y-9026247D02*
X-21285715Y-9216723D01*
X-21285715Y-9216723D02*
X-21238096Y-9311961D01*
X-21238096Y-9311961D02*
X-21142858Y-9407200D01*
X-21142858Y-9407200D02*
X-21000001Y-9454819D01*
X-21000001Y-9454819D02*
X-20761906Y-9454819D01*
X-21809525Y-9454819D02*
X-22000001Y-9454819D01*
X-22000001Y-9454819D02*
X-22095239Y-9407200D01*
X-22095239Y-9407200D02*
X-22142858Y-9359580D01*
X-22142858Y-9359580D02*
X-22238096Y-9216723D01*
X-22238096Y-9216723D02*
X-22285715Y-9026247D01*
X-22285715Y-9026247D02*
X-22285715Y-8645295D01*
X-22285715Y-8645295D02*
X-22238096Y-8550057D01*
X-22238096Y-8550057D02*
X-22190477Y-8502438D01*
X-22190477Y-8502438D02*
X-22095239Y-8454819D01*
X-22095239Y-8454819D02*
X-21904763Y-8454819D01*
X-21904763Y-8454819D02*
X-21809525Y-8502438D01*
X-21809525Y-8502438D02*
X-21761906Y-8550057D01*
X-21761906Y-8550057D02*
X-21714287Y-8645295D01*
X-21714287Y-8645295D02*
X-21714287Y-8883390D01*
X-21714287Y-8883390D02*
X-21761906Y-8978628D01*
X-21761906Y-8978628D02*
X-21809525Y-9026247D01*
X-21809525Y-9026247D02*
X-21904763Y-9073866D01*
X-21904763Y-9073866D02*
X-22095239Y-9073866D01*
X-22095239Y-9073866D02*
X-22190477Y-9026247D01*
X-22190477Y-9026247D02*
X-22238096Y-8978628D01*
X-22238096Y-8978628D02*
X-22285715Y-8883390D01*
%TO.C,SW5*%
X-16333333Y12807200D02*
X-16190476Y12854820D01*
X-16190476Y12854820D02*
X-15952381Y12854820D01*
X-15952381Y12854820D02*
X-15857143Y12807200D01*
X-15857143Y12807200D02*
X-15809524Y12759581D01*
X-15809524Y12759581D02*
X-15761905Y12664343D01*
X-15761905Y12664343D02*
X-15761905Y12569105D01*
X-15761905Y12569105D02*
X-15809524Y12473867D01*
X-15809524Y12473867D02*
X-15857143Y12426248D01*
X-15857143Y12426248D02*
X-15952381Y12378629D01*
X-15952381Y12378629D02*
X-16142857Y12331010D01*
X-16142857Y12331010D02*
X-16238095Y12283391D01*
X-16238095Y12283391D02*
X-16285714Y12235772D01*
X-16285714Y12235772D02*
X-16333333Y12140534D01*
X-16333333Y12140534D02*
X-16333333Y12045296D01*
X-16333333Y12045296D02*
X-16285714Y11950058D01*
X-16285714Y11950058D02*
X-16238095Y11902439D01*
X-16238095Y11902439D02*
X-16142857Y11854820D01*
X-16142857Y11854820D02*
X-15904762Y11854820D01*
X-15904762Y11854820D02*
X-15761905Y11902439D01*
X-15428571Y11854820D02*
X-15190476Y12854820D01*
X-15190476Y12854820D02*
X-15000000Y12140534D01*
X-15000000Y12140534D02*
X-14809524Y12854820D01*
X-14809524Y12854820D02*
X-14571428Y11854820D01*
X-13714286Y11854820D02*
X-14190476Y11854820D01*
X-14190476Y11854820D02*
X-14238095Y12331010D01*
X-14238095Y12331010D02*
X-14190476Y12283391D01*
X-14190476Y12283391D02*
X-14095238Y12235772D01*
X-14095238Y12235772D02*
X-13857143Y12235772D01*
X-13857143Y12235772D02*
X-13761905Y12283391D01*
X-13761905Y12283391D02*
X-13714286Y12331010D01*
X-13714286Y12331010D02*
X-13666667Y12426248D01*
X-13666667Y12426248D02*
X-13666667Y12664343D01*
X-13666667Y12664343D02*
X-13714286Y12759581D01*
X-13714286Y12759581D02*
X-13761905Y12807200D01*
X-13761905Y12807200D02*
X-13857143Y12854820D01*
X-13857143Y12854820D02*
X-14095238Y12854820D01*
X-14095238Y12854820D02*
X-14190476Y12807200D01*
X-14190476Y12807200D02*
X-14238095Y12759581D01*
X-14561905Y8795181D02*
X-14228572Y9271372D01*
X-13990477Y8795181D02*
X-13990477Y9795181D01*
X-13990477Y9795181D02*
X-14371429Y9795181D01*
X-14371429Y9795181D02*
X-14466667Y9747562D01*
X-14466667Y9747562D02*
X-14514286Y9699943D01*
X-14514286Y9699943D02*
X-14561905Y9604705D01*
X-14561905Y9604705D02*
X-14561905Y9461848D01*
X-14561905Y9461848D02*
X-14514286Y9366610D01*
X-14514286Y9366610D02*
X-14466667Y9318991D01*
X-14466667Y9318991D02*
X-14371429Y9271372D01*
X-14371429Y9271372D02*
X-13990477Y9271372D01*
X-14990477Y9795181D02*
X-14990477Y8985658D01*
X-14990477Y8985658D02*
X-15038096Y8890420D01*
X-15038096Y8890420D02*
X-15085715Y8842800D01*
X-15085715Y8842800D02*
X-15180953Y8795181D01*
X-15180953Y8795181D02*
X-15371429Y8795181D01*
X-15371429Y8795181D02*
X-15466667Y8842800D01*
X-15466667Y8842800D02*
X-15514286Y8890420D01*
X-15514286Y8890420D02*
X-15561905Y8985658D01*
X-15561905Y8985658D02*
X-15561905Y9795181D01*
X-16038096Y8795181D02*
X-16038096Y9795181D01*
X-16038096Y9795181D02*
X-16609524Y8795181D01*
X-16609524Y8795181D02*
X-16609524Y9795181D01*
%TO.C,C26*%
X27632857Y13300420D02*
X27680476Y13252800D01*
X27680476Y13252800D02*
X27823333Y13205181D01*
X27823333Y13205181D02*
X27918571Y13205181D01*
X27918571Y13205181D02*
X28061428Y13252800D01*
X28061428Y13252800D02*
X28156666Y13348039D01*
X28156666Y13348039D02*
X28204285Y13443277D01*
X28204285Y13443277D02*
X28251904Y13633753D01*
X28251904Y13633753D02*
X28251904Y13776610D01*
X28251904Y13776610D02*
X28204285Y13967086D01*
X28204285Y13967086D02*
X28156666Y14062324D01*
X28156666Y14062324D02*
X28061428Y14157562D01*
X28061428Y14157562D02*
X27918571Y14205181D01*
X27918571Y14205181D02*
X27823333Y14205181D01*
X27823333Y14205181D02*
X27680476Y14157562D01*
X27680476Y14157562D02*
X27632857Y14109943D01*
X27251904Y14109943D02*
X27204285Y14157562D01*
X27204285Y14157562D02*
X27109047Y14205181D01*
X27109047Y14205181D02*
X26870952Y14205181D01*
X26870952Y14205181D02*
X26775714Y14157562D01*
X26775714Y14157562D02*
X26728095Y14109943D01*
X26728095Y14109943D02*
X26680476Y14014705D01*
X26680476Y14014705D02*
X26680476Y13919467D01*
X26680476Y13919467D02*
X26728095Y13776610D01*
X26728095Y13776610D02*
X27299523Y13205181D01*
X27299523Y13205181D02*
X26680476Y13205181D01*
X25823333Y14205181D02*
X26013809Y14205181D01*
X26013809Y14205181D02*
X26109047Y14157562D01*
X26109047Y14157562D02*
X26156666Y14109943D01*
X26156666Y14109943D02*
X26251904Y13967086D01*
X26251904Y13967086D02*
X26299523Y13776610D01*
X26299523Y13776610D02*
X26299523Y13395658D01*
X26299523Y13395658D02*
X26251904Y13300420D01*
X26251904Y13300420D02*
X26204285Y13252800D01*
X26204285Y13252800D02*
X26109047Y13205181D01*
X26109047Y13205181D02*
X25918571Y13205181D01*
X25918571Y13205181D02*
X25823333Y13252800D01*
X25823333Y13252800D02*
X25775714Y13300420D01*
X25775714Y13300420D02*
X25728095Y13395658D01*
X25728095Y13395658D02*
X25728095Y13633753D01*
X25728095Y13633753D02*
X25775714Y13728991D01*
X25775714Y13728991D02*
X25823333Y13776610D01*
X25823333Y13776610D02*
X25918571Y13824229D01*
X25918571Y13824229D02*
X26109047Y13824229D01*
X26109047Y13824229D02*
X26204285Y13776610D01*
X26204285Y13776610D02*
X26251904Y13728991D01*
X26251904Y13728991D02*
X26299523Y13633753D01*
%TO.C,D1*%
X-441906Y12805181D02*
X-441906Y13805181D01*
X-441906Y13805181D02*
X-680001Y13805181D01*
X-680001Y13805181D02*
X-822858Y13757562D01*
X-822858Y13757562D02*
X-918096Y13662324D01*
X-918096Y13662324D02*
X-965715Y13567086D01*
X-965715Y13567086D02*
X-1013334Y13376610D01*
X-1013334Y13376610D02*
X-1013334Y13233753D01*
X-1013334Y13233753D02*
X-965715Y13043277D01*
X-965715Y13043277D02*
X-918096Y12948039D01*
X-918096Y12948039D02*
X-822858Y12852800D01*
X-822858Y12852800D02*
X-680001Y12805181D01*
X-680001Y12805181D02*
X-441906Y12805181D01*
X-1965715Y12805181D02*
X-1394287Y12805181D01*
X-1680001Y12805181D02*
X-1680001Y13805181D01*
X-1680001Y13805181D02*
X-1584763Y13662324D01*
X-1584763Y13662324D02*
X-1489525Y13567086D01*
X-1489525Y13567086D02*
X-1394287Y13519467D01*
%TO.C,C24*%
X5109580Y21362858D02*
X5157200Y21410477D01*
X5157200Y21410477D02*
X5204819Y21553334D01*
X5204819Y21553334D02*
X5204819Y21648572D01*
X5204819Y21648572D02*
X5157200Y21791429D01*
X5157200Y21791429D02*
X5061961Y21886667D01*
X5061961Y21886667D02*
X4966723Y21934286D01*
X4966723Y21934286D02*
X4776247Y21981905D01*
X4776247Y21981905D02*
X4633390Y21981905D01*
X4633390Y21981905D02*
X4442914Y21934286D01*
X4442914Y21934286D02*
X4347676Y21886667D01*
X4347676Y21886667D02*
X4252438Y21791429D01*
X4252438Y21791429D02*
X4204819Y21648572D01*
X4204819Y21648572D02*
X4204819Y21553334D01*
X4204819Y21553334D02*
X4252438Y21410477D01*
X4252438Y21410477D02*
X4300057Y21362858D01*
X4300057Y20981905D02*
X4252438Y20934286D01*
X4252438Y20934286D02*
X4204819Y20839048D01*
X4204819Y20839048D02*
X4204819Y20600953D01*
X4204819Y20600953D02*
X4252438Y20505715D01*
X4252438Y20505715D02*
X4300057Y20458096D01*
X4300057Y20458096D02*
X4395295Y20410477D01*
X4395295Y20410477D02*
X4490533Y20410477D01*
X4490533Y20410477D02*
X4633390Y20458096D01*
X4633390Y20458096D02*
X5204819Y21029524D01*
X5204819Y21029524D02*
X5204819Y20410477D01*
X4538152Y19553334D02*
X5204819Y19553334D01*
X4157200Y19791429D02*
X4871485Y20029524D01*
X4871485Y20029524D02*
X4871485Y19410477D01*
%TO.C,D12*%
X-17285715Y23745181D02*
X-17285715Y24745181D01*
X-17285715Y24745181D02*
X-17523810Y24745181D01*
X-17523810Y24745181D02*
X-17666667Y24697562D01*
X-17666667Y24697562D02*
X-17761905Y24602324D01*
X-17761905Y24602324D02*
X-17809524Y24507086D01*
X-17809524Y24507086D02*
X-17857143Y24316610D01*
X-17857143Y24316610D02*
X-17857143Y24173753D01*
X-17857143Y24173753D02*
X-17809524Y23983277D01*
X-17809524Y23983277D02*
X-17761905Y23888039D01*
X-17761905Y23888039D02*
X-17666667Y23792800D01*
X-17666667Y23792800D02*
X-17523810Y23745181D01*
X-17523810Y23745181D02*
X-17285715Y23745181D01*
X-18809524Y23745181D02*
X-18238096Y23745181D01*
X-18523810Y23745181D02*
X-18523810Y24745181D01*
X-18523810Y24745181D02*
X-18428572Y24602324D01*
X-18428572Y24602324D02*
X-18333334Y24507086D01*
X-18333334Y24507086D02*
X-18238096Y24459467D01*
X-19190477Y24649943D02*
X-19238096Y24697562D01*
X-19238096Y24697562D02*
X-19333334Y24745181D01*
X-19333334Y24745181D02*
X-19571429Y24745181D01*
X-19571429Y24745181D02*
X-19666667Y24697562D01*
X-19666667Y24697562D02*
X-19714286Y24649943D01*
X-19714286Y24649943D02*
X-19761905Y24554705D01*
X-19761905Y24554705D02*
X-19761905Y24459467D01*
X-19761905Y24459467D02*
X-19714286Y24316610D01*
X-19714286Y24316610D02*
X-19142858Y23745181D01*
X-19142858Y23745181D02*
X-19761905Y23745181D01*
X-12785715Y21845181D02*
X-12214287Y21845181D01*
X-12500001Y21845181D02*
X-12500001Y22845181D01*
X-12500001Y22845181D02*
X-12404763Y22702324D01*
X-12404763Y22702324D02*
X-12309525Y22607086D01*
X-12309525Y22607086D02*
X-12214287Y22559467D01*
%TO.C,C35*%
X-27910420Y13112858D02*
X-27862800Y13160477D01*
X-27862800Y13160477D02*
X-27815181Y13303334D01*
X-27815181Y13303334D02*
X-27815181Y13398572D01*
X-27815181Y13398572D02*
X-27862800Y13541429D01*
X-27862800Y13541429D02*
X-27958039Y13636667D01*
X-27958039Y13636667D02*
X-28053277Y13684286D01*
X-28053277Y13684286D02*
X-28243753Y13731905D01*
X-28243753Y13731905D02*
X-28386610Y13731905D01*
X-28386610Y13731905D02*
X-28577086Y13684286D01*
X-28577086Y13684286D02*
X-28672324Y13636667D01*
X-28672324Y13636667D02*
X-28767562Y13541429D01*
X-28767562Y13541429D02*
X-28815181Y13398572D01*
X-28815181Y13398572D02*
X-28815181Y13303334D01*
X-28815181Y13303334D02*
X-28767562Y13160477D01*
X-28767562Y13160477D02*
X-28719943Y13112858D01*
X-28815181Y12779524D02*
X-28815181Y12160477D01*
X-28815181Y12160477D02*
X-28434229Y12493810D01*
X-28434229Y12493810D02*
X-28434229Y12350953D01*
X-28434229Y12350953D02*
X-28386610Y12255715D01*
X-28386610Y12255715D02*
X-28338991Y12208096D01*
X-28338991Y12208096D02*
X-28243753Y12160477D01*
X-28243753Y12160477D02*
X-28005658Y12160477D01*
X-28005658Y12160477D02*
X-27910420Y12208096D01*
X-27910420Y12208096D02*
X-27862800Y12255715D01*
X-27862800Y12255715D02*
X-27815181Y12350953D01*
X-27815181Y12350953D02*
X-27815181Y12636667D01*
X-27815181Y12636667D02*
X-27862800Y12731905D01*
X-27862800Y12731905D02*
X-27910420Y12779524D01*
X-28815181Y11255715D02*
X-28815181Y11731905D01*
X-28815181Y11731905D02*
X-28338991Y11779524D01*
X-28338991Y11779524D02*
X-28386610Y11731905D01*
X-28386610Y11731905D02*
X-28434229Y11636667D01*
X-28434229Y11636667D02*
X-28434229Y11398572D01*
X-28434229Y11398572D02*
X-28386610Y11303334D01*
X-28386610Y11303334D02*
X-28338991Y11255715D01*
X-28338991Y11255715D02*
X-28243753Y11208096D01*
X-28243753Y11208096D02*
X-28005658Y11208096D01*
X-28005658Y11208096D02*
X-27910420Y11255715D01*
X-27910420Y11255715D02*
X-27862800Y11303334D01*
X-27862800Y11303334D02*
X-27815181Y11398572D01*
X-27815181Y11398572D02*
X-27815181Y11636667D01*
X-27815181Y11636667D02*
X-27862800Y11731905D01*
X-27862800Y11731905D02*
X-27910420Y11779524D01*
%TO.C,R13*%
X1004819Y22142858D02*
X528628Y22476191D01*
X1004819Y22714286D02*
X4819Y22714286D01*
X4819Y22714286D02*
X4819Y22333334D01*
X4819Y22333334D02*
X52438Y22238096D01*
X52438Y22238096D02*
X100057Y22190477D01*
X100057Y22190477D02*
X195295Y22142858D01*
X195295Y22142858D02*
X338152Y22142858D01*
X338152Y22142858D02*
X433390Y22190477D01*
X433390Y22190477D02*
X481009Y22238096D01*
X481009Y22238096D02*
X528628Y22333334D01*
X528628Y22333334D02*
X528628Y22714286D01*
X1004819Y21190477D02*
X1004819Y21761905D01*
X1004819Y21476191D02*
X4819Y21476191D01*
X4819Y21476191D02*
X147676Y21571429D01*
X147676Y21571429D02*
X242914Y21666667D01*
X242914Y21666667D02*
X290533Y21761905D01*
X4819Y20857143D02*
X4819Y20238096D01*
X4819Y20238096D02*
X385771Y20571429D01*
X385771Y20571429D02*
X385771Y20428572D01*
X385771Y20428572D02*
X433390Y20333334D01*
X433390Y20333334D02*
X481009Y20285715D01*
X481009Y20285715D02*
X576247Y20238096D01*
X576247Y20238096D02*
X814342Y20238096D01*
X814342Y20238096D02*
X909580Y20285715D01*
X909580Y20285715D02*
X957200Y20333334D01*
X957200Y20333334D02*
X1004819Y20428572D01*
X1004819Y20428572D02*
X1004819Y20714286D01*
X1004819Y20714286D02*
X957200Y20809524D01*
X957200Y20809524D02*
X909580Y20857143D01*
%TO.C,D10*%
X-30574194Y-6739856D02*
X-31214194Y-6739856D01*
X-31214194Y-6739856D02*
X-31214194Y-6892237D01*
X-31214194Y-6892237D02*
X-31183718Y-6983666D01*
X-31183718Y-6983666D02*
X-31122766Y-7044618D01*
X-31122766Y-7044618D02*
X-31061813Y-7075095D01*
X-31061813Y-7075095D02*
X-30939909Y-7105571D01*
X-30939909Y-7105571D02*
X-30848480Y-7105571D01*
X-30848480Y-7105571D02*
X-30726575Y-7075095D01*
X-30726575Y-7075095D02*
X-30665623Y-7044618D01*
X-30665623Y-7044618D02*
X-30604670Y-6983666D01*
X-30604670Y-6983666D02*
X-30574194Y-6892237D01*
X-30574194Y-6892237D02*
X-30574194Y-6739856D01*
X-30574194Y-7715095D02*
X-30574194Y-7349380D01*
X-30574194Y-7532237D02*
X-31214194Y-7532237D01*
X-31214194Y-7532237D02*
X-31122766Y-7471285D01*
X-31122766Y-7471285D02*
X-31061813Y-7410333D01*
X-31061813Y-7410333D02*
X-31031337Y-7349380D01*
X-31214194Y-8111285D02*
X-31214194Y-8172238D01*
X-31214194Y-8172238D02*
X-31183718Y-8233190D01*
X-31183718Y-8233190D02*
X-31153242Y-8263666D01*
X-31153242Y-8263666D02*
X-31092290Y-8294142D01*
X-31092290Y-8294142D02*
X-30970385Y-8324619D01*
X-30970385Y-8324619D02*
X-30818004Y-8324619D01*
X-30818004Y-8324619D02*
X-30696099Y-8294142D01*
X-30696099Y-8294142D02*
X-30635147Y-8263666D01*
X-30635147Y-8263666D02*
X-30604670Y-8233190D01*
X-30604670Y-8233190D02*
X-30574194Y-8172238D01*
X-30574194Y-8172238D02*
X-30574194Y-8111285D01*
X-30574194Y-8111285D02*
X-30604670Y-8050333D01*
X-30604670Y-8050333D02*
X-30635147Y-8019857D01*
X-30635147Y-8019857D02*
X-30696099Y-7989380D01*
X-30696099Y-7989380D02*
X-30818004Y-7958904D01*
X-30818004Y-7958904D02*
X-30970385Y-7958904D01*
X-30970385Y-7958904D02*
X-31092290Y-7989380D01*
X-31092290Y-7989380D02*
X-31153242Y-8019857D01*
X-31153242Y-8019857D02*
X-31183718Y-8050333D01*
X-31183718Y-8050333D02*
X-31214194Y-8111285D01*
%TO.C,C32*%
X14659580Y-23207142D02*
X14707200Y-23159523D01*
X14707200Y-23159523D02*
X14754819Y-23016666D01*
X14754819Y-23016666D02*
X14754819Y-22921428D01*
X14754819Y-22921428D02*
X14707200Y-22778571D01*
X14707200Y-22778571D02*
X14611961Y-22683333D01*
X14611961Y-22683333D02*
X14516723Y-22635714D01*
X14516723Y-22635714D02*
X14326247Y-22588095D01*
X14326247Y-22588095D02*
X14183390Y-22588095D01*
X14183390Y-22588095D02*
X13992914Y-22635714D01*
X13992914Y-22635714D02*
X13897676Y-22683333D01*
X13897676Y-22683333D02*
X13802438Y-22778571D01*
X13802438Y-22778571D02*
X13754819Y-22921428D01*
X13754819Y-22921428D02*
X13754819Y-23016666D01*
X13754819Y-23016666D02*
X13802438Y-23159523D01*
X13802438Y-23159523D02*
X13850057Y-23207142D01*
X13754819Y-23540476D02*
X13754819Y-24159523D01*
X13754819Y-24159523D02*
X14135771Y-23826190D01*
X14135771Y-23826190D02*
X14135771Y-23969047D01*
X14135771Y-23969047D02*
X14183390Y-24064285D01*
X14183390Y-24064285D02*
X14231009Y-24111904D01*
X14231009Y-24111904D02*
X14326247Y-24159523D01*
X14326247Y-24159523D02*
X14564342Y-24159523D01*
X14564342Y-24159523D02*
X14659580Y-24111904D01*
X14659580Y-24111904D02*
X14707200Y-24064285D01*
X14707200Y-24064285D02*
X14754819Y-23969047D01*
X14754819Y-23969047D02*
X14754819Y-23683333D01*
X14754819Y-23683333D02*
X14707200Y-23588095D01*
X14707200Y-23588095D02*
X14659580Y-23540476D01*
X13850057Y-24540476D02*
X13802438Y-24588095D01*
X13802438Y-24588095D02*
X13754819Y-24683333D01*
X13754819Y-24683333D02*
X13754819Y-24921428D01*
X13754819Y-24921428D02*
X13802438Y-25016666D01*
X13802438Y-25016666D02*
X13850057Y-25064285D01*
X13850057Y-25064285D02*
X13945295Y-25111904D01*
X13945295Y-25111904D02*
X14040533Y-25111904D01*
X14040533Y-25111904D02*
X14183390Y-25064285D01*
X14183390Y-25064285D02*
X14754819Y-24492857D01*
X14754819Y-24492857D02*
X14754819Y-25111904D01*
D12*
%TO.C,SW2*%
X1333332Y-12599800D02*
X1190475Y-12647419D01*
X1190475Y-12647419D02*
X952380Y-12647419D01*
X952380Y-12647419D02*
X857142Y-12599800D01*
X857142Y-12599800D02*
X809523Y-12552180D01*
X809523Y-12552180D02*
X761904Y-12456942D01*
X761904Y-12456942D02*
X761904Y-12361704D01*
X761904Y-12361704D02*
X809523Y-12266466D01*
X809523Y-12266466D02*
X857142Y-12218847D01*
X857142Y-12218847D02*
X952380Y-12171228D01*
X952380Y-12171228D02*
X1142856Y-12123609D01*
X1142856Y-12123609D02*
X1238094Y-12075990D01*
X1238094Y-12075990D02*
X1285713Y-12028371D01*
X1285713Y-12028371D02*
X1333332Y-11933133D01*
X1333332Y-11933133D02*
X1333332Y-11837895D01*
X1333332Y-11837895D02*
X1285713Y-11742657D01*
X1285713Y-11742657D02*
X1238094Y-11695038D01*
X1238094Y-11695038D02*
X1142856Y-11647419D01*
X1142856Y-11647419D02*
X904761Y-11647419D01*
X904761Y-11647419D02*
X761904Y-11695038D01*
X428570Y-11647419D02*
X190475Y-12647419D01*
X190475Y-12647419D02*
X-1Y-11933133D01*
X-1Y-11933133D02*
X-190477Y-12647419D01*
X-190477Y-12647419D02*
X-428572Y-11647419D01*
X-761906Y-11742657D02*
X-809525Y-11695038D01*
X-809525Y-11695038D02*
X-904763Y-11647419D01*
X-904763Y-11647419D02*
X-1142858Y-11647419D01*
X-1142858Y-11647419D02*
X-1238096Y-11695038D01*
X-1238096Y-11695038D02*
X-1285715Y-11742657D01*
X-1285715Y-11742657D02*
X-1333334Y-11837895D01*
X-1333334Y-11837895D02*
X-1333334Y-11933133D01*
X-1333334Y-11933133D02*
X-1285715Y-12075990D01*
X-1285715Y-12075990D02*
X-714287Y-12647419D01*
X-714287Y-12647419D02*
X-1333334Y-12647419D01*
%TO.C,SW1*%
X-12666668Y-12599800D02*
X-12809525Y-12647419D01*
X-12809525Y-12647419D02*
X-13047620Y-12647419D01*
X-13047620Y-12647419D02*
X-13142858Y-12599800D01*
X-13142858Y-12599800D02*
X-13190477Y-12552180D01*
X-13190477Y-12552180D02*
X-13238096Y-12456942D01*
X-13238096Y-12456942D02*
X-13238096Y-12361704D01*
X-13238096Y-12361704D02*
X-13190477Y-12266466D01*
X-13190477Y-12266466D02*
X-13142858Y-12218847D01*
X-13142858Y-12218847D02*
X-13047620Y-12171228D01*
X-13047620Y-12171228D02*
X-12857144Y-12123609D01*
X-12857144Y-12123609D02*
X-12761906Y-12075990D01*
X-12761906Y-12075990D02*
X-12714287Y-12028371D01*
X-12714287Y-12028371D02*
X-12666668Y-11933133D01*
X-12666668Y-11933133D02*
X-12666668Y-11837895D01*
X-12666668Y-11837895D02*
X-12714287Y-11742657D01*
X-12714287Y-11742657D02*
X-12761906Y-11695038D01*
X-12761906Y-11695038D02*
X-12857144Y-11647419D01*
X-12857144Y-11647419D02*
X-13095239Y-11647419D01*
X-13095239Y-11647419D02*
X-13238096Y-11695038D01*
X-13571430Y-11647419D02*
X-13809525Y-12647419D01*
X-13809525Y-12647419D02*
X-14000001Y-11933133D01*
X-14000001Y-11933133D02*
X-14190477Y-12647419D01*
X-14190477Y-12647419D02*
X-14428572Y-11647419D01*
X-15333334Y-12647419D02*
X-14761906Y-12647419D01*
X-15047620Y-12647419D02*
X-15047620Y-11647419D01*
X-15047620Y-11647419D02*
X-14952382Y-11790276D01*
X-14952382Y-11790276D02*
X-14857144Y-11885514D01*
X-14857144Y-11885514D02*
X-14761906Y-11933133D01*
D11*
%TO.C,D5*%
X21308094Y-9384819D02*
X21308094Y-8384819D01*
X21308094Y-8384819D02*
X21069999Y-8384819D01*
X21069999Y-8384819D02*
X20927142Y-8432438D01*
X20927142Y-8432438D02*
X20831904Y-8527676D01*
X20831904Y-8527676D02*
X20784285Y-8622914D01*
X20784285Y-8622914D02*
X20736666Y-8813390D01*
X20736666Y-8813390D02*
X20736666Y-8956247D01*
X20736666Y-8956247D02*
X20784285Y-9146723D01*
X20784285Y-9146723D02*
X20831904Y-9241961D01*
X20831904Y-9241961D02*
X20927142Y-9337200D01*
X20927142Y-9337200D02*
X21069999Y-9384819D01*
X21069999Y-9384819D02*
X21308094Y-9384819D01*
X19831904Y-8384819D02*
X20308094Y-8384819D01*
X20308094Y-8384819D02*
X20355713Y-8861009D01*
X20355713Y-8861009D02*
X20308094Y-8813390D01*
X20308094Y-8813390D02*
X20212856Y-8765771D01*
X20212856Y-8765771D02*
X19974761Y-8765771D01*
X19974761Y-8765771D02*
X19879523Y-8813390D01*
X19879523Y-8813390D02*
X19831904Y-8861009D01*
X19831904Y-8861009D02*
X19784285Y-8956247D01*
X19784285Y-8956247D02*
X19784285Y-9194342D01*
X19784285Y-9194342D02*
X19831904Y-9289580D01*
X19831904Y-9289580D02*
X19879523Y-9337200D01*
X19879523Y-9337200D02*
X19974761Y-9384819D01*
X19974761Y-9384819D02*
X20212856Y-9384819D01*
X20212856Y-9384819D02*
X20308094Y-9337200D01*
X20308094Y-9337200D02*
X20355713Y-9289580D01*
%TO.C,D6*%
X9048094Y-22684819D02*
X9048094Y-21684819D01*
X9048094Y-21684819D02*
X8809999Y-21684819D01*
X8809999Y-21684819D02*
X8667142Y-21732438D01*
X8667142Y-21732438D02*
X8571904Y-21827676D01*
X8571904Y-21827676D02*
X8524285Y-21922914D01*
X8524285Y-21922914D02*
X8476666Y-22113390D01*
X8476666Y-22113390D02*
X8476666Y-22256247D01*
X8476666Y-22256247D02*
X8524285Y-22446723D01*
X8524285Y-22446723D02*
X8571904Y-22541961D01*
X8571904Y-22541961D02*
X8667142Y-22637200D01*
X8667142Y-22637200D02*
X8809999Y-22684819D01*
X8809999Y-22684819D02*
X9048094Y-22684819D01*
X7619523Y-21684819D02*
X7809999Y-21684819D01*
X7809999Y-21684819D02*
X7905237Y-21732438D01*
X7905237Y-21732438D02*
X7952856Y-21780057D01*
X7952856Y-21780057D02*
X8048094Y-21922914D01*
X8048094Y-21922914D02*
X8095713Y-22113390D01*
X8095713Y-22113390D02*
X8095713Y-22494342D01*
X8095713Y-22494342D02*
X8048094Y-22589580D01*
X8048094Y-22589580D02*
X8000475Y-22637200D01*
X8000475Y-22637200D02*
X7905237Y-22684819D01*
X7905237Y-22684819D02*
X7714761Y-22684819D01*
X7714761Y-22684819D02*
X7619523Y-22637200D01*
X7619523Y-22637200D02*
X7571904Y-22589580D01*
X7571904Y-22589580D02*
X7524285Y-22494342D01*
X7524285Y-22494342D02*
X7524285Y-22256247D01*
X7524285Y-22256247D02*
X7571904Y-22161009D01*
X7571904Y-22161009D02*
X7619523Y-22113390D01*
X7619523Y-22113390D02*
X7714761Y-22065771D01*
X7714761Y-22065771D02*
X7905237Y-22065771D01*
X7905237Y-22065771D02*
X8000475Y-22113390D01*
X8000475Y-22113390D02*
X8048094Y-22161009D01*
X8048094Y-22161009D02*
X8095713Y-22256247D01*
D12*
%TO.C,SW3*%
X15333332Y-12599800D02*
X15190475Y-12647419D01*
X15190475Y-12647419D02*
X14952380Y-12647419D01*
X14952380Y-12647419D02*
X14857142Y-12599800D01*
X14857142Y-12599800D02*
X14809523Y-12552180D01*
X14809523Y-12552180D02*
X14761904Y-12456942D01*
X14761904Y-12456942D02*
X14761904Y-12361704D01*
X14761904Y-12361704D02*
X14809523Y-12266466D01*
X14809523Y-12266466D02*
X14857142Y-12218847D01*
X14857142Y-12218847D02*
X14952380Y-12171228D01*
X14952380Y-12171228D02*
X15142856Y-12123609D01*
X15142856Y-12123609D02*
X15238094Y-12075990D01*
X15238094Y-12075990D02*
X15285713Y-12028371D01*
X15285713Y-12028371D02*
X15333332Y-11933133D01*
X15333332Y-11933133D02*
X15333332Y-11837895D01*
X15333332Y-11837895D02*
X15285713Y-11742657D01*
X15285713Y-11742657D02*
X15238094Y-11695038D01*
X15238094Y-11695038D02*
X15142856Y-11647419D01*
X15142856Y-11647419D02*
X14904761Y-11647419D01*
X14904761Y-11647419D02*
X14761904Y-11695038D01*
X14428570Y-11647419D02*
X14190475Y-12647419D01*
X14190475Y-12647419D02*
X13999999Y-11933133D01*
X13999999Y-11933133D02*
X13809523Y-12647419D01*
X13809523Y-12647419D02*
X13571428Y-11647419D01*
X13285713Y-11647419D02*
X12666666Y-11647419D01*
X12666666Y-11647419D02*
X12999999Y-12028371D01*
X12999999Y-12028371D02*
X12857142Y-12028371D01*
X12857142Y-12028371D02*
X12761904Y-12075990D01*
X12761904Y-12075990D02*
X12714285Y-12123609D01*
X12714285Y-12123609D02*
X12666666Y-12218847D01*
X12666666Y-12218847D02*
X12666666Y-12456942D01*
X12666666Y-12456942D02*
X12714285Y-12552180D01*
X12714285Y-12552180D02*
X12761904Y-12599800D01*
X12761904Y-12599800D02*
X12857142Y-12647419D01*
X12857142Y-12647419D02*
X13142856Y-12647419D01*
X13142856Y-12647419D02*
X13238094Y-12599800D01*
X13238094Y-12599800D02*
X13285713Y-12552180D01*
D11*
%TO.C,D8*%
X-8261906Y-22954819D02*
X-8261906Y-21954819D01*
X-8261906Y-21954819D02*
X-8500001Y-21954819D01*
X-8500001Y-21954819D02*
X-8642858Y-22002438D01*
X-8642858Y-22002438D02*
X-8738096Y-22097676D01*
X-8738096Y-22097676D02*
X-8785715Y-22192914D01*
X-8785715Y-22192914D02*
X-8833334Y-22383390D01*
X-8833334Y-22383390D02*
X-8833334Y-22526247D01*
X-8833334Y-22526247D02*
X-8785715Y-22716723D01*
X-8785715Y-22716723D02*
X-8738096Y-22811961D01*
X-8738096Y-22811961D02*
X-8642858Y-22907200D01*
X-8642858Y-22907200D02*
X-8500001Y-22954819D01*
X-8500001Y-22954819D02*
X-8261906Y-22954819D01*
X-9404763Y-22383390D02*
X-9309525Y-22335771D01*
X-9309525Y-22335771D02*
X-9261906Y-22288152D01*
X-9261906Y-22288152D02*
X-9214287Y-22192914D01*
X-9214287Y-22192914D02*
X-9214287Y-22145295D01*
X-9214287Y-22145295D02*
X-9261906Y-22050057D01*
X-9261906Y-22050057D02*
X-9309525Y-22002438D01*
X-9309525Y-22002438D02*
X-9404763Y-21954819D01*
X-9404763Y-21954819D02*
X-9595239Y-21954819D01*
X-9595239Y-21954819D02*
X-9690477Y-22002438D01*
X-9690477Y-22002438D02*
X-9738096Y-22050057D01*
X-9738096Y-22050057D02*
X-9785715Y-22145295D01*
X-9785715Y-22145295D02*
X-9785715Y-22192914D01*
X-9785715Y-22192914D02*
X-9738096Y-22288152D01*
X-9738096Y-22288152D02*
X-9690477Y-22335771D01*
X-9690477Y-22335771D02*
X-9595239Y-22383390D01*
X-9595239Y-22383390D02*
X-9404763Y-22383390D01*
X-9404763Y-22383390D02*
X-9309525Y-22431009D01*
X-9309525Y-22431009D02*
X-9261906Y-22478628D01*
X-9261906Y-22478628D02*
X-9214287Y-22573866D01*
X-9214287Y-22573866D02*
X-9214287Y-22764342D01*
X-9214287Y-22764342D02*
X-9261906Y-22859580D01*
X-9261906Y-22859580D02*
X-9309525Y-22907200D01*
X-9309525Y-22907200D02*
X-9404763Y-22954819D01*
X-9404763Y-22954819D02*
X-9595239Y-22954819D01*
X-9595239Y-22954819D02*
X-9690477Y-22907200D01*
X-9690477Y-22907200D02*
X-9738096Y-22859580D01*
X-9738096Y-22859580D02*
X-9785715Y-22764342D01*
X-9785715Y-22764342D02*
X-9785715Y-22573866D01*
X-9785715Y-22573866D02*
X-9738096Y-22478628D01*
X-9738096Y-22478628D02*
X-9690477Y-22431009D01*
X-9690477Y-22431009D02*
X-9595239Y-22383390D01*
%TO.C,C34*%
X-14557143Y24830420D02*
X-14509524Y24782800D01*
X-14509524Y24782800D02*
X-14366667Y24735181D01*
X-14366667Y24735181D02*
X-14271429Y24735181D01*
X-14271429Y24735181D02*
X-14128572Y24782800D01*
X-14128572Y24782800D02*
X-14033334Y24878039D01*
X-14033334Y24878039D02*
X-13985715Y24973277D01*
X-13985715Y24973277D02*
X-13938096Y25163753D01*
X-13938096Y25163753D02*
X-13938096Y25306610D01*
X-13938096Y25306610D02*
X-13985715Y25497086D01*
X-13985715Y25497086D02*
X-14033334Y25592324D01*
X-14033334Y25592324D02*
X-14128572Y25687562D01*
X-14128572Y25687562D02*
X-14271429Y25735181D01*
X-14271429Y25735181D02*
X-14366667Y25735181D01*
X-14366667Y25735181D02*
X-14509524Y25687562D01*
X-14509524Y25687562D02*
X-14557143Y25639943D01*
X-14890477Y25735181D02*
X-15509524Y25735181D01*
X-15509524Y25735181D02*
X-15176191Y25354229D01*
X-15176191Y25354229D02*
X-15319048Y25354229D01*
X-15319048Y25354229D02*
X-15414286Y25306610D01*
X-15414286Y25306610D02*
X-15461905Y25258991D01*
X-15461905Y25258991D02*
X-15509524Y25163753D01*
X-15509524Y25163753D02*
X-15509524Y24925658D01*
X-15509524Y24925658D02*
X-15461905Y24830420D01*
X-15461905Y24830420D02*
X-15414286Y24782800D01*
X-15414286Y24782800D02*
X-15319048Y24735181D01*
X-15319048Y24735181D02*
X-15033334Y24735181D01*
X-15033334Y24735181D02*
X-14938096Y24782800D01*
X-14938096Y24782800D02*
X-14890477Y24830420D01*
X-16366667Y25401848D02*
X-16366667Y24735181D01*
X-16128572Y25782800D02*
X-15890477Y25068515D01*
X-15890477Y25068515D02*
X-16509524Y25068515D01*
%TO.C,Q1*%
X-4104762Y18499943D02*
X-4009524Y18547562D01*
X-4009524Y18547562D02*
X-3914286Y18642800D01*
X-3914286Y18642800D02*
X-3771429Y18785658D01*
X-3771429Y18785658D02*
X-3676191Y18833277D01*
X-3676191Y18833277D02*
X-3580953Y18833277D01*
X-3628572Y18595181D02*
X-3533334Y18642800D01*
X-3533334Y18642800D02*
X-3438096Y18738039D01*
X-3438096Y18738039D02*
X-3390477Y18928515D01*
X-3390477Y18928515D02*
X-3390477Y19261848D01*
X-3390477Y19261848D02*
X-3438096Y19452324D01*
X-3438096Y19452324D02*
X-3533334Y19547562D01*
X-3533334Y19547562D02*
X-3628572Y19595181D01*
X-3628572Y19595181D02*
X-3819048Y19595181D01*
X-3819048Y19595181D02*
X-3914286Y19547562D01*
X-3914286Y19547562D02*
X-4009524Y19452324D01*
X-4009524Y19452324D02*
X-4057143Y19261848D01*
X-4057143Y19261848D02*
X-4057143Y18928515D01*
X-4057143Y18928515D02*
X-4009524Y18738039D01*
X-4009524Y18738039D02*
X-3914286Y18642800D01*
X-3914286Y18642800D02*
X-3819048Y18595181D01*
X-3819048Y18595181D02*
X-3628572Y18595181D01*
X-5009524Y18595181D02*
X-4438096Y18595181D01*
X-4723810Y18595181D02*
X-4723810Y19595181D01*
X-4723810Y19595181D02*
X-4628572Y19452324D01*
X-4628572Y19452324D02*
X-4533334Y19357086D01*
X-4533334Y19357086D02*
X-4438096Y19309467D01*
%TO.C,D11*%
X-29074194Y9760144D02*
X-29714194Y9760144D01*
X-29714194Y9760144D02*
X-29714194Y9607763D01*
X-29714194Y9607763D02*
X-29683718Y9516334D01*
X-29683718Y9516334D02*
X-29622766Y9455382D01*
X-29622766Y9455382D02*
X-29561813Y9424905D01*
X-29561813Y9424905D02*
X-29439909Y9394429D01*
X-29439909Y9394429D02*
X-29348480Y9394429D01*
X-29348480Y9394429D02*
X-29226575Y9424905D01*
X-29226575Y9424905D02*
X-29165623Y9455382D01*
X-29165623Y9455382D02*
X-29104670Y9516334D01*
X-29104670Y9516334D02*
X-29074194Y9607763D01*
X-29074194Y9607763D02*
X-29074194Y9760144D01*
X-29074194Y8784905D02*
X-29074194Y9150620D01*
X-29074194Y8967763D02*
X-29714194Y8967763D01*
X-29714194Y8967763D02*
X-29622766Y9028715D01*
X-29622766Y9028715D02*
X-29561813Y9089667D01*
X-29561813Y9089667D02*
X-29531337Y9150620D01*
X-29074194Y8175381D02*
X-29074194Y8541096D01*
X-29074194Y8358239D02*
X-29714194Y8358239D01*
X-29714194Y8358239D02*
X-29622766Y8419191D01*
X-29622766Y8419191D02*
X-29561813Y8480143D01*
X-29561813Y8480143D02*
X-29531337Y8541096D01*
%TO.C,C31*%
X-3290420Y-24107142D02*
X-3242800Y-24059523D01*
X-3242800Y-24059523D02*
X-3195181Y-23916666D01*
X-3195181Y-23916666D02*
X-3195181Y-23821428D01*
X-3195181Y-23821428D02*
X-3242800Y-23678571D01*
X-3242800Y-23678571D02*
X-3338039Y-23583333D01*
X-3338039Y-23583333D02*
X-3433277Y-23535714D01*
X-3433277Y-23535714D02*
X-3623753Y-23488095D01*
X-3623753Y-23488095D02*
X-3766610Y-23488095D01*
X-3766610Y-23488095D02*
X-3957086Y-23535714D01*
X-3957086Y-23535714D02*
X-4052324Y-23583333D01*
X-4052324Y-23583333D02*
X-4147562Y-23678571D01*
X-4147562Y-23678571D02*
X-4195181Y-23821428D01*
X-4195181Y-23821428D02*
X-4195181Y-23916666D01*
X-4195181Y-23916666D02*
X-4147562Y-24059523D01*
X-4147562Y-24059523D02*
X-4099943Y-24107142D01*
X-4195181Y-24440476D02*
X-4195181Y-25059523D01*
X-4195181Y-25059523D02*
X-3814229Y-24726190D01*
X-3814229Y-24726190D02*
X-3814229Y-24869047D01*
X-3814229Y-24869047D02*
X-3766610Y-24964285D01*
X-3766610Y-24964285D02*
X-3718991Y-25011904D01*
X-3718991Y-25011904D02*
X-3623753Y-25059523D01*
X-3623753Y-25059523D02*
X-3385658Y-25059523D01*
X-3385658Y-25059523D02*
X-3290420Y-25011904D01*
X-3290420Y-25011904D02*
X-3242800Y-24964285D01*
X-3242800Y-24964285D02*
X-3195181Y-24869047D01*
X-3195181Y-24869047D02*
X-3195181Y-24583333D01*
X-3195181Y-24583333D02*
X-3242800Y-24488095D01*
X-3242800Y-24488095D02*
X-3290420Y-24440476D01*
X-3195181Y-26011904D02*
X-3195181Y-25440476D01*
X-3195181Y-25726190D02*
X-4195181Y-25726190D01*
X-4195181Y-25726190D02*
X-4052324Y-25630952D01*
X-4052324Y-25630952D02*
X-3957086Y-25535714D01*
X-3957086Y-25535714D02*
X-3909467Y-25440476D01*
%TO.C,D2*%
X12738094Y15445181D02*
X12738094Y16445181D01*
X12738094Y16445181D02*
X12499999Y16445181D01*
X12499999Y16445181D02*
X12357142Y16397562D01*
X12357142Y16397562D02*
X12261904Y16302324D01*
X12261904Y16302324D02*
X12214285Y16207086D01*
X12214285Y16207086D02*
X12166666Y16016610D01*
X12166666Y16016610D02*
X12166666Y15873753D01*
X12166666Y15873753D02*
X12214285Y15683277D01*
X12214285Y15683277D02*
X12261904Y15588039D01*
X12261904Y15588039D02*
X12357142Y15492800D01*
X12357142Y15492800D02*
X12499999Y15445181D01*
X12499999Y15445181D02*
X12738094Y15445181D01*
X11785713Y16349943D02*
X11738094Y16397562D01*
X11738094Y16397562D02*
X11642856Y16445181D01*
X11642856Y16445181D02*
X11404761Y16445181D01*
X11404761Y16445181D02*
X11309523Y16397562D01*
X11309523Y16397562D02*
X11261904Y16349943D01*
X11261904Y16349943D02*
X11214285Y16254705D01*
X11214285Y16254705D02*
X11214285Y16159467D01*
X11214285Y16159467D02*
X11261904Y16016610D01*
X11261904Y16016610D02*
X11833332Y15445181D01*
X11833332Y15445181D02*
X11214285Y15445181D01*
%TO.C,C27*%
X28332857Y-4169580D02*
X28380476Y-4217200D01*
X28380476Y-4217200D02*
X28523333Y-4264819D01*
X28523333Y-4264819D02*
X28618571Y-4264819D01*
X28618571Y-4264819D02*
X28761428Y-4217200D01*
X28761428Y-4217200D02*
X28856666Y-4121961D01*
X28856666Y-4121961D02*
X28904285Y-4026723D01*
X28904285Y-4026723D02*
X28951904Y-3836247D01*
X28951904Y-3836247D02*
X28951904Y-3693390D01*
X28951904Y-3693390D02*
X28904285Y-3502914D01*
X28904285Y-3502914D02*
X28856666Y-3407676D01*
X28856666Y-3407676D02*
X28761428Y-3312438D01*
X28761428Y-3312438D02*
X28618571Y-3264819D01*
X28618571Y-3264819D02*
X28523333Y-3264819D01*
X28523333Y-3264819D02*
X28380476Y-3312438D01*
X28380476Y-3312438D02*
X28332857Y-3360057D01*
X27951904Y-3360057D02*
X27904285Y-3312438D01*
X27904285Y-3312438D02*
X27809047Y-3264819D01*
X27809047Y-3264819D02*
X27570952Y-3264819D01*
X27570952Y-3264819D02*
X27475714Y-3312438D01*
X27475714Y-3312438D02*
X27428095Y-3360057D01*
X27428095Y-3360057D02*
X27380476Y-3455295D01*
X27380476Y-3455295D02*
X27380476Y-3550533D01*
X27380476Y-3550533D02*
X27428095Y-3693390D01*
X27428095Y-3693390D02*
X27999523Y-4264819D01*
X27999523Y-4264819D02*
X27380476Y-4264819D01*
X27047142Y-3264819D02*
X26380476Y-3264819D01*
X26380476Y-3264819D02*
X26809047Y-4264819D01*
D13*
%TO.C,D14*%
X1000000Y4805000D02*
X1000000Y5295000D01*
X-1000000Y4805000D02*
X-1000000Y5295000D01*
D14*
X650000Y3180000D02*
G75*
G03*
X650000Y3180000I-100000J0D01*
G01*
D15*
%TO.C,R8*%
X-14377836Y16540000D02*
X-14162164Y16540000D01*
X-14377836Y15820000D02*
X-14162164Y15820000D01*
%TO.C,D7*%
X3650000Y-14750000D02*
X-3650000Y-14750000D01*
X3650000Y-9250000D02*
X-3650000Y-9250000D01*
X-3650000Y-14750000D02*
X-3650000Y-13600000D01*
D13*
%TO.C,D3*%
X28500000Y9255000D02*
X28500000Y9745000D01*
X26500000Y9255000D02*
X26500000Y9745000D01*
D14*
X28150000Y7630000D02*
G75*
G03*
X28150000Y7630000I-100000J0D01*
G01*
D15*
%TO.C,C29*%
X-17140000Y-11072164D02*
X-17140000Y-11287836D01*
X-17860000Y-11072164D02*
X-17860000Y-11287836D01*
%TO.C,R12*%
X-5360000Y21173641D02*
X-5360000Y20866359D01*
X-6120000Y21173641D02*
X-6120000Y20866359D01*
%TO.C,C30*%
X4360000Y-10692164D02*
X4360000Y-10907836D01*
X3640000Y-10692164D02*
X3640000Y-10907836D01*
%TO.C,REF\u002A\u002A*%
X26035000Y-6985000D02*
X26035000Y6985000D01*
X26035000Y6985000D02*
X12065000Y6985000D01*
X12065000Y-6985000D02*
X26035000Y-6985000D01*
X12065000Y6985000D02*
X12065000Y-6985000D01*
D13*
%TO.C,D15*%
X20050000Y4805000D02*
X20050000Y5295000D01*
X18050000Y4805000D02*
X18050000Y5295000D01*
D14*
X19700000Y3180000D02*
G75*
G03*
X19700000Y3180000I-100000J0D01*
G01*
D15*
%TO.C,C33*%
X-28057836Y-4500000D02*
X-27842164Y-4500000D01*
X-28057836Y-5220000D02*
X-27842164Y-5220000D01*
%TO.C,REF\u002A\u002A*%
X6985000Y-6985000D02*
X6985000Y6985000D01*
X6985000Y6985000D02*
X-6985000Y6985000D01*
X-6985000Y-6985000D02*
X6985000Y-6985000D01*
X-6985000Y6985000D02*
X-6985000Y-6985000D01*
%TO.C,C25*%
X19060000Y20947836D02*
X19060000Y20732164D01*
X18340000Y20947836D02*
X18340000Y20732164D01*
D13*
%TO.C,D4*%
X30000000Y-7245000D02*
X30000000Y-6755000D01*
X28000000Y-7245000D02*
X28000000Y-6755000D01*
D14*
X29650000Y-8870000D02*
G75*
G03*
X29650000Y-8870000I-100000J0D01*
G01*
D15*
%TO.C,C28*%
X25910000Y-11292164D02*
X25910000Y-11507836D01*
X25190000Y-11292164D02*
X25190000Y-11507836D01*
D13*
%TO.C,D13*%
X-18050000Y4805000D02*
X-18050000Y5295000D01*
X-20050000Y4805000D02*
X-20050000Y5295000D01*
D14*
X-18400000Y3180000D02*
G75*
G03*
X-18400000Y3180000I-100000J0D01*
G01*
D15*
%TO.C,D9*%
X-17850000Y-15250000D02*
X-25150000Y-15250000D01*
X-17850000Y-9750000D02*
X-25150000Y-9750000D01*
X-25150000Y-15250000D02*
X-25150000Y-14100000D01*
%TO.C,C26*%
X27780000Y11952164D02*
X27780000Y12167836D01*
X28500000Y11952164D02*
X28500000Y12167836D01*
%TO.C,D1*%
X4020000Y14130000D02*
X-3280000Y14130000D01*
X4020000Y19630000D02*
X-3280000Y19630000D01*
X-3280000Y14130000D02*
X-3280000Y15280000D01*
%TO.C,C24*%
X3010000Y20612164D02*
X3010000Y20827836D01*
X3730000Y20612164D02*
X3730000Y20827836D01*
%TO.C,D12*%
X-13000000Y17950000D02*
X-20300000Y17950000D01*
X-13000000Y23450000D02*
X-20300000Y23450000D01*
X-20300000Y17950000D02*
X-20300000Y19100000D01*
%TO.C,C35*%
X-27530000Y11962164D02*
X-27530000Y12177836D01*
X-26810000Y11962164D02*
X-26810000Y12177836D01*
%TO.C,R13*%
X-1240000Y20866359D02*
X-1240000Y21173641D01*
X-480000Y20866359D02*
X-480000Y21173641D01*
D13*
%TO.C,D10*%
X-28000000Y-7245000D02*
X-28000000Y-6755000D01*
X-30000000Y-7245000D02*
X-30000000Y-6755000D01*
D14*
X-28350000Y-8870000D02*
G75*
G03*
X-28350000Y-8870000I-100000J0D01*
G01*
D15*
%TO.C,C32*%
X12690000Y-24007836D02*
X12690000Y-23792164D01*
X13410000Y-24007836D02*
X13410000Y-23792164D01*
%TO.C,J1*%
X-20570000Y15430000D02*
X-23230000Y15430000D01*
X-20570000Y18030000D02*
X-20570000Y15430000D01*
X-20570000Y18030000D02*
X-23230000Y18030000D01*
X-21900000Y20630000D02*
X-23230000Y20630000D01*
X-23230000Y18030000D02*
X-23230000Y15430000D01*
X-23230000Y20630000D02*
X-23230000Y19300000D01*
%TO.C,REF\u002A\u002A*%
X-12065000Y-6985000D02*
X-12065000Y6985000D01*
X-12065000Y6985000D02*
X-26035000Y6985000D01*
X-26035000Y-6985000D02*
X-12065000Y-6985000D01*
X-26035000Y6985000D02*
X-26035000Y-6985000D01*
%TO.C,D5*%
X25150000Y-15250000D02*
X17850000Y-15250000D01*
X25150000Y-9750000D02*
X17850000Y-9750000D01*
X17850000Y-15250000D02*
X17850000Y-14100000D01*
%TO.C,D6*%
X12650000Y-28750000D02*
X5350000Y-28750000D01*
X12650000Y-23250000D02*
X5350000Y-23250000D01*
X5350000Y-28750000D02*
X5350000Y-27600000D01*
%TO.C,D8*%
X-5350000Y-28750000D02*
X-12650000Y-28750000D01*
X-5350000Y-23250000D02*
X-12650000Y-23250000D01*
X-12650000Y-28750000D02*
X-12650000Y-27600000D01*
%TO.C,C34*%
X-15092164Y23670000D02*
X-15307836Y23670000D01*
X-15092164Y24390000D02*
X-15307836Y24390000D01*
%TO.C,J2*%
X17300000Y26005000D02*
X17300000Y23345000D01*
X9620000Y26005000D02*
X17300000Y26005000D01*
X9620000Y26005000D02*
X9620000Y23345000D01*
X7020000Y24675000D02*
X7020000Y23345000D01*
X9620000Y23345000D02*
X17300000Y23345000D01*
X7020000Y23345000D02*
X8350000Y23345000D01*
%TO.C,Q1*%
X-3312500Y23000000D02*
X-3962500Y23000000D01*
X-3312500Y23000000D02*
X-2662500Y23000000D01*
X-3312500Y19880000D02*
X-4987500Y19880000D01*
X-3312500Y19880000D02*
X-2662500Y19880000D01*
D13*
%TO.C,D11*%
X-26500000Y9255000D02*
X-26500000Y9745000D01*
X-28500000Y9255000D02*
X-28500000Y9745000D01*
D14*
X-26850000Y7630000D02*
G75*
G03*
X-26850000Y7630000I-100000J0D01*
G01*
D15*
%TO.C,C31*%
X-4590000Y-24592164D02*
X-4590000Y-24807836D01*
X-5310000Y-24592164D02*
X-5310000Y-24807836D01*
%TO.C,D2*%
X18400000Y16800000D02*
X11100000Y16800000D01*
X18400000Y22300000D02*
X11100000Y22300000D01*
X11100000Y16800000D02*
X11100000Y17950000D01*
%TO.C,C27*%
X29247836Y-5270000D02*
X29032164Y-5270000D01*
X29247836Y-4550000D02*
X29032164Y-4550000D01*
%TD*%
%LPC*%
D16*
%TO.C,P1*%
X5620000Y27450000D03*
D17*
X5620000Y31450000D03*
D16*
X-5620000Y27450000D03*
D17*
X-5620000Y31450000D03*
%TD*%
D18*
%TO.C,REF\u002A\u002A*%
X9525000Y0D03*
%TD*%
%TO.C,REF\u002A\u002A*%
X13000000Y-12000000D03*
%TD*%
%TO.C,REF\u002A\u002A*%
X-9525000Y0D03*
%TD*%
%TO.C,REF\u002A\u002A*%
X-13000000Y-12000000D03*
%TD*%
D19*
%TO.C,REF\u002A\u002A*%
X0Y-25000000D03*
%TD*%
D20*
%TO.C,D14*%
X550000Y5965000D03*
X550000Y4135000D03*
X-550000Y4135000D03*
X-550000Y5965000D03*
%TD*%
D21*
%TO.C,R8*%
X-14750000Y16180000D03*
X-13790000Y16180000D03*
%TD*%
D22*
%TO.C,D7*%
X2450000Y-10350000D03*
X2450000Y-13650000D03*
X-2450000Y-13650000D03*
X-2450000Y-10350000D03*
%TD*%
D20*
%TO.C,D3*%
X28050000Y10415000D03*
X28050000Y8585000D03*
X26950000Y8585000D03*
X26950000Y10415000D03*
%TD*%
D23*
%TO.C,SW4*%
X-6350000Y23000000D03*
X-12350000Y23000000D03*
X-6350000Y19250000D03*
X-12350000Y19250000D03*
%TD*%
D24*
%TO.C,C29*%
X-17500000Y-10700000D03*
X-17500000Y-11660000D03*
%TD*%
D25*
%TO.C,R12*%
X-5740000Y21530000D03*
X-5740000Y20510000D03*
%TD*%
D18*
%TO.C,REF\u002A\u002A*%
X23000000Y12000000D03*
%TD*%
D24*
%TO.C,C30*%
X4000000Y-10320000D03*
X4000000Y-11280000D03*
%TD*%
D26*
%TO.C,REF\u002A\u002A*%
X24130000Y0D03*
X13970000Y0D03*
%TD*%
D20*
%TO.C,D15*%
X19600000Y5965000D03*
X19600000Y4135000D03*
X18500000Y4135000D03*
X18500000Y5965000D03*
%TD*%
D21*
%TO.C,C33*%
X-28430000Y-4860000D03*
X-27470000Y-4860000D03*
%TD*%
D26*
%TO.C,REF\u002A\u002A*%
X5080000Y0D03*
X-5080000Y0D03*
%TD*%
D24*
%TO.C,C25*%
X18700000Y21320000D03*
X18700000Y20360000D03*
%TD*%
D20*
%TO.C,D4*%
X29550000Y-6085000D03*
X29550000Y-7915000D03*
X28450000Y-7915000D03*
X28450000Y-6085000D03*
%TD*%
D24*
%TO.C,C28*%
X25550000Y-10920000D03*
X25550000Y-11880000D03*
%TD*%
D20*
%TO.C,D13*%
X-18500000Y5965000D03*
X-18500000Y4135000D03*
X-19600000Y4135000D03*
X-19600000Y5965000D03*
%TD*%
D22*
%TO.C,D9*%
X-19050000Y-10850000D03*
X-19050000Y-14150000D03*
X-23950000Y-14150000D03*
X-23950000Y-10850000D03*
%TD*%
D27*
%TO.C,SW5*%
X-18000000Y11025000D03*
X-12000000Y11025000D03*
X-18000000Y14775000D03*
X-12000000Y14775000D03*
%TD*%
D28*
%TO.C,C26*%
X28140000Y11580000D03*
X28140000Y12540000D03*
%TD*%
D22*
%TO.C,D1*%
X2820000Y18530000D03*
X2820000Y15230000D03*
X-2080000Y15230000D03*
X-2080000Y18530000D03*
%TD*%
D28*
%TO.C,C24*%
X3370000Y20240000D03*
X3370000Y21200000D03*
%TD*%
D22*
%TO.C,D12*%
X-14200000Y22350000D03*
X-14200000Y19050000D03*
X-19100000Y19050000D03*
X-19100000Y22350000D03*
%TD*%
D28*
%TO.C,C35*%
X-27170000Y11590000D03*
X-27170000Y12550000D03*
%TD*%
D29*
%TO.C,R13*%
X-860000Y20510000D03*
X-860000Y21530000D03*
%TD*%
D20*
%TO.C,D10*%
X-28450000Y-6085000D03*
X-28450000Y-7915000D03*
X-29550000Y-7915000D03*
X-29550000Y-6085000D03*
%TD*%
D28*
%TO.C,C32*%
X13050000Y-24380000D03*
X13050000Y-23420000D03*
%TD*%
D30*
%TO.C,SW2*%
X4200000Y-16750000D03*
X-4200000Y-16750000D03*
X4200000Y-21250000D03*
X-4200000Y-21250000D03*
X-4200000Y-19000000D03*
%TD*%
%TO.C,SW1*%
X-9800000Y-16750000D03*
X-18200000Y-16750000D03*
X-9800000Y-21250000D03*
X-18200000Y-21250000D03*
X-18200000Y-19000000D03*
%TD*%
D31*
%TO.C,J1*%
X-21900000Y19300000D03*
D32*
X-21900000Y16760000D03*
%TD*%
D26*
%TO.C,REF\u002A\u002A*%
X-13970000Y0D03*
X-24130000Y0D03*
%TD*%
D18*
%TO.C,REF\u002A\u002A*%
X-23000000Y12000000D03*
%TD*%
D22*
%TO.C,D5*%
X23950000Y-10850000D03*
X23950000Y-14150000D03*
X19050000Y-14150000D03*
X19050000Y-10850000D03*
%TD*%
%TO.C,D6*%
X11450000Y-24350000D03*
X11450000Y-27650000D03*
X6550000Y-27650000D03*
X6550000Y-24350000D03*
%TD*%
D30*
%TO.C,SW3*%
X18200000Y-16750000D03*
X9800000Y-16750000D03*
X18200000Y-21250000D03*
X9800000Y-21250000D03*
X9800000Y-19000000D03*
%TD*%
D22*
%TO.C,D8*%
X-6550000Y-24350000D03*
X-6550000Y-27650000D03*
X-11450000Y-27650000D03*
X-11450000Y-24350000D03*
%TD*%
D33*
%TO.C,C34*%
X-14720000Y24030000D03*
X-15680000Y24030000D03*
%TD*%
D34*
%TO.C,J2*%
X8350000Y24675000D03*
D32*
X10890000Y24675000D03*
X13430000Y24675000D03*
X15970000Y24675000D03*
%TD*%
D35*
%TO.C,Q1*%
X-4250000Y20490000D03*
X-4250000Y22390000D03*
X-2375000Y21440000D03*
%TD*%
D20*
%TO.C,D11*%
X-26950000Y10415000D03*
X-26950000Y8585000D03*
X-28050000Y8585000D03*
X-28050000Y10415000D03*
%TD*%
D24*
%TO.C,C31*%
X-4950000Y-24220000D03*
X-4950000Y-25180000D03*
%TD*%
D22*
%TO.C,D2*%
X17200000Y21200000D03*
X17200000Y17900000D03*
X12300000Y17900000D03*
X12300000Y21200000D03*
%TD*%
D33*
%TO.C,C27*%
X29620000Y-4910000D03*
X28660000Y-4910000D03*
%TD*%
%LPD*%
M02*
