%TF.GenerationSoftware,KiCad,Pcbnew,7.0.5*%
%TF.CreationDate,2024-03-22T09:53:21-05:00*%
%TF.ProjectId,RP2040,52503230-3430-42e6-9b69-6361645f7063,REV1*%
%TF.SameCoordinates,Original*%
%TF.FileFunction,Profile,NP*%
%FSLAX46Y46*%
G04 Gerber Fmt 4.6, Leading zero omitted, Abs format (unit mm)*
G04 Created by KiCad (PCBNEW 7.0.5) date 2024-03-22 09:53:21*
%MOMM*%
%LPD*%
G01*
G04 APERTURE LIST*
%TA.AperFunction,Profile*%
%ADD10C,0.200000*%
%TD*%
%TA.AperFunction,Profile*%
%ADD11C,0.120000*%
%TD*%
G04 APERTURE END LIST*
D10*
X-4625000Y33550000D02*
G75*
G03*
X-9221008Y32591765I4624922J-33683733D01*
G01*
X-9220889Y32591834D02*
G75*
G03*
X-11996035Y30071156I1138841J-4041801D01*
G01*
X-14563591Y28775108D02*
G75*
G03*
X-11996043Y30071125I563562J2074825D01*
G01*
X-14563565Y28775049D02*
G75*
G03*
X-14924233Y28736697I-131065J-482508D01*
G01*
X-14924282Y28736722D02*
G75*
G03*
X-19959374Y25515097I14924303J-28870759D01*
G01*
X-19959229Y25515133D02*
X-25649129Y19825233D01*
X-25649094Y19825378D02*
G75*
G03*
X-32092949Y4993848I25649065J-19959345D01*
G01*
X-32092925Y4994009D02*
G75*
G03*
X-30150029Y2716033I1942896J-310436D01*
G01*
X-30150029Y-2983967D02*
G75*
G03*
X-30150029Y2716033I0J2850000D01*
G01*
X-30150029Y-2983967D02*
G75*
G03*
X-32092925Y-5261943I0J-1967540D01*
G01*
X-32092948Y-5261782D02*
G75*
G03*
X-25649093Y-20093311I32092919J5127815D01*
G01*
X-25649129Y-20093167D02*
X-19959229Y-25783067D01*
X-19959374Y-25783032D02*
G75*
G03*
X-29Y-32633967I19959342J25649056D01*
G01*
X-29Y-32633966D02*
G75*
G03*
X19959226Y-25783101I-1J32500004D01*
G01*
X25649071Y-20093167D02*
X19959171Y-25783067D01*
X25649105Y-20093223D02*
G75*
G03*
X32092863Y-5261950I-25649137J19959256D01*
G01*
X32092865Y-5261954D02*
G75*
G03*
X30149971Y-2983967I-1942894J310447D01*
G01*
X30149971Y2716033D02*
G75*
G03*
X30149971Y-2983967I0J-2850000D01*
G01*
X30149971Y2715987D02*
G75*
G03*
X32092864Y4994020I0J1967546D01*
G01*
X32092863Y4994016D02*
G75*
G03*
X25649105Y19825289I-32092895J-5127983D01*
G01*
X19959171Y25515133D02*
X25649071Y19825233D01*
X19959227Y25515168D02*
G75*
G03*
X14924224Y28736722I-19959256J-25649135D01*
G01*
X14924175Y28736696D02*
G75*
G03*
X14563510Y28775049I-229604J-444163D01*
G01*
X11995991Y30071111D02*
G75*
G03*
X14563547Y28775112I2003980J778822D01*
G01*
X11995988Y30071129D02*
G75*
G03*
X9220817Y32591837I-3913997J-1521096D01*
G01*
X9220836Y32591798D02*
G75*
G03*
X4624942Y33550000I-9220815J-32725545D01*
G01*
D11*
%TO.C,P1*%
X4620000Y26850000D02*
X4620000Y33550000D01*
X4025000Y26825000D02*
X-4025000Y26825000D01*
X-4620000Y26850000D02*
X-4625000Y33550000D01*
X4025000Y26825000D02*
G75*
G03*
X4620000Y26850000I297500J12500D01*
G01*
X-4620000Y26850000D02*
G75*
G03*
X-4025000Y26825000I297500J-12500D01*
G01*
%TD*%
M02*
