%TF.GenerationSoftware,KiCad,Pcbnew,7.0.5*%
%TF.CreationDate,2023-07-03T07:19:12-05:00*%
%TF.ProjectId,RP2040,52503230-3430-42e6-9b69-6361645f7063,REV1*%
%TF.SameCoordinates,Original*%
%TF.FileFunction,Paste,Top*%
%TF.FilePolarity,Positive*%
%FSLAX46Y46*%
G04 Gerber Fmt 4.6, Leading zero omitted, Abs format (unit mm)*
G04 Created by KiCad (PCBNEW 7.0.5) date 2023-07-03 07:19:12*
%MOMM*%
%LPD*%
G01*
G04 APERTURE LIST*
G04 Aperture macros list*
%AMRoundRect*
0 Rectangle with rounded corners*
0 $1 Rounding radius*
0 $2 $3 $4 $5 $6 $7 $8 $9 X,Y pos of 4 corners*
0 Add a 4 corners polygon primitive as box body*
4,1,4,$2,$3,$4,$5,$6,$7,$8,$9,$2,$3,0*
0 Add four circle primitives for the rounded corners*
1,1,$1+$1,$2,$3*
1,1,$1+$1,$4,$5*
1,1,$1+$1,$6,$7*
1,1,$1+$1,$8,$9*
0 Add four rect primitives between the rounded corners*
20,1,$1+$1,$2,$3,$4,$5,0*
20,1,$1+$1,$4,$5,$6,$7,0*
20,1,$1+$1,$6,$7,$8,$9,0*
20,1,$1+$1,$8,$9,$2,$3,0*%
G04 Aperture macros list end*
%ADD10RoundRect,0.140000X-0.170000X0.140000X-0.170000X-0.140000X0.170000X-0.140000X0.170000X0.140000X0*%
%ADD11R,0.600000X1.150000*%
%ADD12R,0.300000X1.150000*%
%ADD13RoundRect,0.140000X-0.140000X-0.170000X0.140000X-0.170000X0.140000X0.170000X-0.140000X0.170000X0*%
%ADD14RoundRect,0.150000X0.512500X0.150000X-0.512500X0.150000X-0.512500X-0.150000X0.512500X-0.150000X0*%
%ADD15RoundRect,0.140000X0.140000X0.170000X-0.140000X0.170000X-0.140000X-0.170000X0.140000X-0.170000X0*%
%ADD16RoundRect,0.150000X0.587500X0.150000X-0.587500X0.150000X-0.587500X-0.150000X0.587500X-0.150000X0*%
%ADD17RoundRect,0.250000X0.650000X-0.325000X0.650000X0.325000X-0.650000X0.325000X-0.650000X-0.325000X0*%
%ADD18RoundRect,0.150000X0.150000X-0.587500X0.150000X0.587500X-0.150000X0.587500X-0.150000X-0.587500X0*%
%ADD19R,1.200000X1.400000*%
%ADD20R,0.600000X0.700000*%
%ADD21R,1.000000X0.700000*%
%ADD22RoundRect,0.250000X-0.325000X-0.650000X0.325000X-0.650000X0.325000X0.650000X-0.325000X0.650000X0*%
%ADD23RoundRect,0.140000X0.170000X-0.140000X0.170000X0.140000X-0.170000X0.140000X-0.170000X-0.140000X0*%
%ADD24RoundRect,0.150000X-0.650000X-0.150000X0.650000X-0.150000X0.650000X0.150000X-0.650000X0.150000X0*%
%ADD25RoundRect,0.250000X0.325000X0.650000X-0.325000X0.650000X-0.325000X-0.650000X0.325000X-0.650000X0*%
%ADD26RoundRect,0.250000X-0.650000X0.325000X-0.650000X-0.325000X0.650000X-0.325000X0.650000X0.325000X0*%
%ADD27RoundRect,0.135000X0.135000X0.185000X-0.135000X0.185000X-0.135000X-0.185000X0.135000X-0.185000X0*%
%ADD28RoundRect,0.050000X-0.387500X0.050000X-0.387500X-0.050000X0.387500X-0.050000X0.387500X0.050000X0*%
%ADD29RoundRect,0.050000X-0.050000X0.387500X-0.050000X-0.387500X0.050000X-0.387500X0.050000X0.387500X0*%
%ADD30RoundRect,0.250000X-0.292217X0.292217X-0.292217X-0.292217X0.292217X-0.292217X0.292217X0.292217X0*%
%ADD31RoundRect,0.250000X-0.375000X-0.625000X0.375000X-0.625000X0.375000X0.625000X-0.375000X0.625000X0*%
%ADD32RoundRect,0.150000X0.150000X-0.512500X0.150000X0.512500X-0.150000X0.512500X-0.150000X-0.512500X0*%
G04 APERTURE END LIST*
D10*
%TO.C,C9*%
X-1934838Y9820500D03*
X-1934838Y10780500D03*
%TD*%
D11*
%TO.C,P1*%
X3200000Y26225000D03*
X2400000Y26225000D03*
D12*
X1750000Y26225000D03*
X750000Y26225000D03*
X-750000Y26225000D03*
X-1750000Y26225000D03*
D11*
X-2400000Y26225000D03*
X-3200000Y26225000D03*
X-3200000Y26225000D03*
X-2400000Y26225000D03*
D12*
X-1250000Y26225000D03*
X-250000Y26225000D03*
X250000Y26225000D03*
X1250000Y26225000D03*
D11*
X2400000Y26225000D03*
X3200000Y26225000D03*
%TD*%
D13*
%TO.C,C12*%
X-3544838Y8690500D03*
X-4504838Y8690500D03*
%TD*%
D10*
%TO.C,C8*%
X-5780000Y7940000D03*
X-5780000Y8900000D03*
%TD*%
D13*
%TO.C,C21*%
X-17891907Y12170000D03*
X-18851907Y12170000D03*
%TD*%
D14*
%TO.C,U6*%
X6040000Y16421250D03*
X6040000Y18321250D03*
X8315000Y18321250D03*
X8315000Y17371250D03*
X8315000Y16421250D03*
%TD*%
D15*
%TO.C,C2*%
X-16360000Y11770000D03*
X-15400000Y11770000D03*
%TD*%
D16*
%TO.C,U9*%
X18112500Y0D03*
X19987500Y950000D03*
X19987500Y-950000D03*
%TD*%
D15*
%TO.C,R3*%
X-2434838Y12630500D03*
X-1474838Y12630500D03*
%TD*%
D17*
%TO.C,C18*%
X10482500Y19446250D03*
X10482500Y16496250D03*
%TD*%
D18*
%TO.C,U2*%
X13120000Y11922500D03*
X14070000Y10047500D03*
X12170000Y10047500D03*
%TD*%
D13*
%TO.C,C11*%
X-3554838Y9680500D03*
X-4514838Y9680500D03*
%TD*%
D19*
%TO.C,Y1*%
X-17180000Y15880000D03*
X-17180000Y13680000D03*
X-18880000Y13680000D03*
X-18880000Y15880000D03*
%TD*%
D15*
%TO.C,C4*%
X-15759838Y13270500D03*
X-14799838Y13270500D03*
%TD*%
D20*
%TO.C,U1*%
X2110000Y21080000D03*
X210000Y21080000D03*
X210000Y23080000D03*
D21*
X1910000Y23080000D03*
%TD*%
D22*
%TO.C,C16*%
X9960000Y10022500D03*
X7010000Y10022500D03*
%TD*%
D15*
%TO.C,R4*%
X-2444838Y11700500D03*
X-1484838Y11700500D03*
%TD*%
D10*
%TO.C,R1*%
X3602500Y22120000D03*
X3602500Y23080000D03*
%TD*%
D23*
%TO.C,R6*%
X-17970000Y21960000D03*
X-17970000Y21000000D03*
%TD*%
%TO.C,C13*%
X-7020000Y24510000D03*
X-7020000Y23550000D03*
%TD*%
D24*
%TO.C,U5*%
X-8654838Y24085500D03*
X-8654838Y22815500D03*
X-8654838Y21545500D03*
X-8654838Y20275500D03*
X-15854838Y20275500D03*
X-15854838Y21545500D03*
X-15854838Y22815500D03*
X-15854838Y24085500D03*
%TD*%
D25*
%TO.C,C14*%
X10155000Y14212500D03*
X13105000Y14212500D03*
%TD*%
D13*
%TO.C,C5*%
X-2044838Y13570500D03*
X-3004838Y13570500D03*
%TD*%
%TO.C,C22*%
X-18510000Y-2210000D03*
X-19470000Y-2210000D03*
%TD*%
D15*
%TO.C,C6*%
X-11979838Y18180500D03*
X-11019838Y18180500D03*
%TD*%
D26*
%TO.C,C17*%
X4092813Y10466187D03*
X4092813Y13416187D03*
%TD*%
D10*
%TO.C,R5*%
X-17980000Y22910000D03*
X-17980000Y23870000D03*
%TD*%
D15*
%TO.C,C20*%
X-18851907Y17390000D03*
X-17891907Y17390000D03*
%TD*%
D27*
%TO.C,R8*%
X-15760000Y14270000D03*
X-14740000Y14270000D03*
%TD*%
D16*
%TO.C,U8*%
X-937500Y0D03*
X937500Y950000D03*
X937500Y-950000D03*
%TD*%
D13*
%TO.C,C24*%
X510000Y-2240000D03*
X-450000Y-2240000D03*
%TD*%
D28*
%TO.C,U3*%
X-5665000Y16072500D03*
X-5665000Y15672500D03*
X-5665000Y15272500D03*
X-5665000Y14872500D03*
X-5665000Y14472500D03*
X-5665000Y14072500D03*
X-5665000Y13672500D03*
X-5665000Y13272500D03*
X-5665000Y12872500D03*
X-5665000Y12472500D03*
X-5665000Y12072500D03*
X-5665000Y11672500D03*
X-5665000Y11272500D03*
X-5665000Y10872500D03*
D29*
X-6502500Y10035000D03*
X-6902500Y10035000D03*
X-7302500Y10035000D03*
X-7702500Y10035000D03*
X-8102500Y10035000D03*
X-8502500Y10035000D03*
X-8902500Y10035000D03*
X-9302500Y10035000D03*
X-9702500Y10035000D03*
X-10102500Y10035000D03*
X-10502500Y10035000D03*
X-10902500Y10035000D03*
X-11302500Y10035000D03*
X-11702500Y10035000D03*
D28*
X-12540000Y10872500D03*
X-12540000Y11272500D03*
X-12540000Y11672500D03*
X-12540000Y12072500D03*
X-12540000Y12472500D03*
X-12540000Y12872500D03*
X-12540000Y13272500D03*
X-12540000Y13672500D03*
X-12540000Y14072500D03*
X-12540000Y14472500D03*
X-12540000Y14872500D03*
X-12540000Y15272500D03*
X-12540000Y15672500D03*
X-12540000Y16072500D03*
D29*
X-11702500Y16910000D03*
X-11302500Y16910000D03*
X-10902500Y16910000D03*
X-10502500Y16910000D03*
X-10102500Y16910000D03*
X-9702500Y16910000D03*
X-9302500Y16910000D03*
X-8902500Y16910000D03*
X-8502500Y16910000D03*
X-8102500Y16910000D03*
X-7702500Y16910000D03*
X-7302500Y16910000D03*
X-6902500Y16910000D03*
X-6502500Y16910000D03*
D30*
X-9740000Y12835000D03*
X-8465000Y12835000D03*
X-9740000Y14110000D03*
X-8465000Y14110000D03*
%TD*%
D17*
%TO.C,C15*%
X16415000Y12960000D03*
X16415000Y10010000D03*
%TD*%
D16*
%TO.C,U7*%
X-19987500Y0D03*
X-18112500Y950000D03*
X-18112500Y-950000D03*
%TD*%
D10*
%TO.C,R2*%
X-1680000Y22380000D03*
X-1680000Y23340000D03*
%TD*%
D13*
%TO.C,C23*%
X19510000Y-2270000D03*
X18550000Y-2270000D03*
%TD*%
D15*
%TO.C,C7*%
X-8104838Y18160500D03*
X-7144838Y18160500D03*
%TD*%
%TO.C,C3*%
X-11459838Y8500500D03*
X-10499838Y8500500D03*
%TD*%
D31*
%TO.C,F1*%
X8820000Y22520000D03*
X6020000Y22520000D03*
%TD*%
D23*
%TO.C,C1*%
X-2534838Y15490500D03*
X-2534838Y14530500D03*
%TD*%
D13*
%TO.C,C10*%
X-3494838Y10690500D03*
X-4454838Y10690500D03*
%TD*%
D17*
%TO.C,C19*%
X3902500Y19446250D03*
X3902500Y16496250D03*
%TD*%
D32*
%TO.C,U4*%
X6485000Y14490000D03*
X8385000Y14490000D03*
X8385000Y12215000D03*
X7435000Y12215000D03*
X6485000Y12215000D03*
%TD*%
M02*
