%TF.GenerationSoftware,KiCad,Pcbnew,7.0.5*%
%TF.CreationDate,2024-03-22T10:45:08-05:00*%
%TF.ProjectId,RP2040,52503230-3430-42e6-9b69-6361645f7063,REV1*%
%TF.SameCoordinates,Original*%
%TF.FileFunction,Paste,Top*%
%TF.FilePolarity,Positive*%
%FSLAX46Y46*%
G04 Gerber Fmt 4.6, Leading zero omitted, Abs format (unit mm)*
G04 Created by KiCad (PCBNEW 7.0.5) date 2024-03-22 10:45:08*
%MOMM*%
%LPD*%
G01*
G04 APERTURE LIST*
G04 Aperture macros list*
%AMRoundRect*
0 Rectangle with rounded corners*
0 $1 Rounding radius*
0 $2 $3 $4 $5 $6 $7 $8 $9 X,Y pos of 4 corners*
0 Add a 4 corners polygon primitive as box body*
4,1,4,$2,$3,$4,$5,$6,$7,$8,$9,$2,$3,0*
0 Add four circle primitives for the rounded corners*
1,1,$1+$1,$2,$3*
1,1,$1+$1,$4,$5*
1,1,$1+$1,$6,$7*
1,1,$1+$1,$8,$9*
0 Add four rect primitives between the rounded corners*
20,1,$1+$1,$2,$3,$4,$5,0*
20,1,$1+$1,$4,$5,$6,$7,0*
20,1,$1+$1,$6,$7,$8,$9,0*
20,1,$1+$1,$8,$9,$2,$3,0*%
G04 Aperture macros list end*
%ADD10RoundRect,0.140000X0.140000X0.170000X-0.140000X0.170000X-0.140000X-0.170000X0.140000X-0.170000X0*%
%ADD11RoundRect,0.140000X-0.170000X0.140000X-0.170000X-0.140000X0.170000X-0.140000X0.170000X0.140000X0*%
%ADD12R,0.600000X1.150000*%
%ADD13R,0.300000X1.150000*%
%ADD14RoundRect,0.140000X-0.140000X-0.170000X0.140000X-0.170000X0.140000X0.170000X-0.140000X0.170000X0*%
%ADD15RoundRect,0.150000X0.512500X0.150000X-0.512500X0.150000X-0.512500X-0.150000X0.512500X-0.150000X0*%
%ADD16RoundRect,0.150000X-0.150000X0.587500X-0.150000X-0.587500X0.150000X-0.587500X0.150000X0.587500X0*%
%ADD17RoundRect,0.250000X0.650000X-0.325000X0.650000X0.325000X-0.650000X0.325000X-0.650000X-0.325000X0*%
%ADD18R,1.200000X1.400000*%
%ADD19R,1.000000X0.700000*%
%ADD20R,0.600000X0.700000*%
%ADD21RoundRect,0.140000X0.170000X-0.140000X0.170000X0.140000X-0.170000X0.140000X-0.170000X-0.140000X0*%
%ADD22RoundRect,0.150000X-0.650000X-0.150000X0.650000X-0.150000X0.650000X0.150000X-0.650000X0.150000X0*%
%ADD23RoundRect,0.135000X0.135000X0.185000X-0.135000X0.185000X-0.135000X-0.185000X0.135000X-0.185000X0*%
%ADD24RoundRect,0.250000X-0.292217X0.292217X-0.292217X-0.292217X0.292217X-0.292217X0.292217X0.292217X0*%
%ADD25RoundRect,0.050000X-0.050000X0.387500X-0.050000X-0.387500X0.050000X-0.387500X0.050000X0.387500X0*%
%ADD26RoundRect,0.050000X-0.387500X0.050000X-0.387500X-0.050000X0.387500X-0.050000X0.387500X0.050000X0*%
%ADD27RoundRect,0.250000X-0.375000X-0.625000X0.375000X-0.625000X0.375000X0.625000X-0.375000X0.625000X0*%
G04 APERTURE END LIST*
D10*
%TO.C,C21*%
X-17020000Y2400000D03*
X-17980000Y2400000D03*
%TD*%
D11*
%TO.C,C12*%
X-1934838Y10780500D03*
X-1934838Y9820500D03*
%TD*%
D12*
%TO.C,P1*%
X3200000Y26225000D03*
X2400000Y26225000D03*
D13*
X1250000Y26225000D03*
X250000Y26225000D03*
X-250000Y26225000D03*
X-1250000Y26225000D03*
D12*
X-2400000Y26225000D03*
X-3200000Y26225000D03*
X-3200000Y26225000D03*
X-2400000Y26225000D03*
D13*
X-1750000Y26225000D03*
X-750000Y26225000D03*
X750000Y26225000D03*
X1750000Y26225000D03*
D12*
X2400000Y26225000D03*
X3200000Y26225000D03*
%TD*%
D14*
%TO.C,C15*%
X-4510000Y8250000D03*
X-3550000Y8250000D03*
%TD*%
D11*
%TO.C,C8*%
X-5780000Y8900000D03*
X-5780000Y7940000D03*
%TD*%
D14*
%TO.C,C17*%
X-18380000Y12200000D03*
X-17420000Y12200000D03*
%TD*%
D15*
%TO.C,U1*%
X8315000Y16421250D03*
X8315000Y17371250D03*
X8315000Y18321250D03*
X6040000Y18321250D03*
X6040000Y16421250D03*
%TD*%
D10*
%TO.C,C2*%
X-15400000Y11770000D03*
X-16360000Y11770000D03*
%TD*%
D16*
%TO.C,U7*%
X20000000Y937500D03*
X18100000Y937500D03*
X19050000Y-937500D03*
%TD*%
D10*
%TO.C,R3*%
X-1474838Y12630500D03*
X-2434838Y12630500D03*
%TD*%
D17*
%TO.C,C9*%
X10482500Y16496250D03*
X10482500Y19446250D03*
%TD*%
D14*
%TO.C,C14*%
X-4520000Y9620000D03*
X-3560000Y9620000D03*
%TD*%
D18*
%TO.C,Y1*%
X-18450000Y15900000D03*
X-18450000Y13700000D03*
X-16750000Y13700000D03*
X-16750000Y15900000D03*
%TD*%
D10*
%TO.C,C4*%
X-14320000Y13270500D03*
X-15280000Y13270500D03*
%TD*%
D19*
%TO.C,U3*%
X1910000Y22555000D03*
D20*
X210000Y22555000D03*
X210000Y20555000D03*
X2110000Y20555000D03*
%TD*%
D10*
%TO.C,R11*%
X16780000Y1700000D03*
X15820000Y1700000D03*
%TD*%
%TO.C,R4*%
X-1484838Y11700500D03*
X-2444838Y11700500D03*
%TD*%
D11*
%TO.C,R5*%
X3602500Y23080000D03*
X3602500Y22120000D03*
%TD*%
D21*
%TO.C,R2*%
X-17970000Y21000000D03*
X-17970000Y21960000D03*
%TD*%
%TO.C,C11*%
X-7020000Y23550000D03*
X-7020000Y24510000D03*
%TD*%
D22*
%TO.C,U2*%
X-15854838Y24085500D03*
X-15854838Y22815500D03*
X-15854838Y21545500D03*
X-15854838Y20275500D03*
X-8654838Y20275500D03*
X-8654838Y21545500D03*
X-8654838Y22815500D03*
X-8654838Y24085500D03*
%TD*%
D14*
%TO.C,C5*%
X-3004838Y13570500D03*
X-2044838Y13570500D03*
%TD*%
D10*
%TO.C,C18*%
X-15620000Y1100000D03*
X-16580000Y1100000D03*
%TD*%
D14*
%TO.C,C6*%
X-9350000Y18140000D03*
X-8390000Y18140000D03*
%TD*%
D11*
%TO.C,R1*%
X-17980000Y23870000D03*
X-17980000Y22910000D03*
%TD*%
D10*
%TO.C,C16*%
X-17220000Y17390000D03*
X-18180000Y17390000D03*
%TD*%
D23*
%TO.C,R7*%
X-14390000Y14270000D03*
X-15410000Y14270000D03*
%TD*%
D10*
%TO.C,R10*%
X-2240000Y1700000D03*
X-3200000Y1700000D03*
%TD*%
D16*
%TO.C,U6*%
X950000Y937500D03*
X-950000Y937500D03*
X0Y-937500D03*
%TD*%
D10*
%TO.C,C20*%
X3280000Y900000D03*
X2320000Y900000D03*
%TD*%
D24*
%TO.C,U4*%
X-8465000Y14110000D03*
X-9740000Y14110000D03*
X-8465000Y12835000D03*
X-9740000Y12835000D03*
D25*
X-6502500Y16910000D03*
X-6902500Y16910000D03*
X-7302500Y16910000D03*
X-7702500Y16910000D03*
X-8102500Y16910000D03*
X-8502500Y16910000D03*
X-8902500Y16910000D03*
X-9302500Y16910000D03*
X-9702500Y16910000D03*
X-10102500Y16910000D03*
X-10502500Y16910000D03*
X-10902500Y16910000D03*
X-11302500Y16910000D03*
X-11702500Y16910000D03*
D26*
X-12540000Y16072500D03*
X-12540000Y15672500D03*
X-12540000Y15272500D03*
X-12540000Y14872500D03*
X-12540000Y14472500D03*
X-12540000Y14072500D03*
X-12540000Y13672500D03*
X-12540000Y13272500D03*
X-12540000Y12872500D03*
X-12540000Y12472500D03*
X-12540000Y12072500D03*
X-12540000Y11672500D03*
X-12540000Y11272500D03*
X-12540000Y10872500D03*
D25*
X-11702500Y10035000D03*
X-11302500Y10035000D03*
X-10902500Y10035000D03*
X-10502500Y10035000D03*
X-10102500Y10035000D03*
X-9702500Y10035000D03*
X-9302500Y10035000D03*
X-8902500Y10035000D03*
X-8502500Y10035000D03*
X-8102500Y10035000D03*
X-7702500Y10035000D03*
X-7302500Y10035000D03*
X-6902500Y10035000D03*
X-6502500Y10035000D03*
D26*
X-5665000Y10872500D03*
X-5665000Y11272500D03*
X-5665000Y11672500D03*
X-5665000Y12072500D03*
X-5665000Y12472500D03*
X-5665000Y12872500D03*
X-5665000Y13272500D03*
X-5665000Y13672500D03*
X-5665000Y14072500D03*
X-5665000Y14472500D03*
X-5665000Y14872500D03*
X-5665000Y15272500D03*
X-5665000Y15672500D03*
X-5665000Y16072500D03*
%TD*%
D14*
%TO.C,R9*%
X-19980000Y2400000D03*
X-19020000Y2400000D03*
%TD*%
D16*
%TO.C,U5*%
X-18100000Y937500D03*
X-20000000Y937500D03*
X-19050000Y-937500D03*
%TD*%
D11*
%TO.C,R6*%
X-1680000Y23340000D03*
X-1680000Y22380000D03*
%TD*%
D14*
%TO.C,C23*%
X13870000Y2100000D03*
X14830000Y2100000D03*
%TD*%
D10*
%TO.C,C19*%
X22280000Y1000000D03*
X21320000Y1000000D03*
%TD*%
D14*
%TO.C,C7*%
X-6960000Y18160000D03*
X-6000000Y18160000D03*
%TD*%
D11*
%TO.C,C3*%
X-10100000Y8880000D03*
X-10100000Y7920000D03*
%TD*%
D14*
%TO.C,C22*%
X-5280000Y1800000D03*
X-4320000Y1800000D03*
%TD*%
D27*
%TO.C,F1*%
X6020000Y22520000D03*
X8820000Y22520000D03*
%TD*%
D21*
%TO.C,C1*%
X-2534838Y14530500D03*
X-2534838Y15490500D03*
%TD*%
D14*
%TO.C,C13*%
X-4500000Y10570000D03*
X-3540000Y10570000D03*
%TD*%
D17*
%TO.C,C10*%
X3902500Y16496250D03*
X3902500Y19446250D03*
%TD*%
M02*
