%TF.GenerationSoftware,KiCad,Pcbnew,7.0.5*%
%TF.CreationDate,2023-07-14T01:07:39-05:00*%
%TF.ProjectId,RP2040,52503230-3430-42e6-9b69-6361645f7063,REV1*%
%TF.SameCoordinates,Original*%
%TF.FileFunction,Soldermask,Bot*%
%TF.FilePolarity,Negative*%
%FSLAX46Y46*%
G04 Gerber Fmt 4.6, Leading zero omitted, Abs format (unit mm)*
G04 Created by KiCad (PCBNEW 7.0.5) date 2023-07-14 01:07:39*
%MOMM*%
%LPD*%
G01*
G04 APERTURE LIST*
%TA.AperFunction,Profile*%
%ADD10C,0.120000*%
%TD*%
G04 APERTURE END LIST*
D10*
%TO.C,P1*%
X4620000Y26850000D02*
X4620000Y33550000D01*
X4025000Y26825000D02*
X-4025000Y26825000D01*
X-4620000Y26850000D02*
X-4625000Y33550000D01*
X4025000Y26825000D02*
G75*
G03*
X4620000Y26850000I297500J12500D01*
G01*
X-4620000Y26850000D02*
G75*
G03*
X-4025000Y26825000I297500J-12500D01*
G01*
%TD*%
G36*
X-9180483Y-27652882D02*
G01*
X-9163938Y-27663938D01*
X-9152882Y-27680483D01*
X-9149000Y-27700000D01*
X-9149000Y-28600000D01*
X-9152882Y-28619517D01*
X-9163938Y-28636062D01*
X-9180483Y-28647118D01*
X-9200000Y-28651000D01*
X-10700000Y-28651000D01*
X-10719517Y-28647118D01*
X-10736062Y-28636062D01*
X-10747118Y-28619517D01*
X-10751000Y-28600000D01*
X-10751000Y-27700000D01*
X-10747118Y-27680483D01*
X-10736062Y-27663938D01*
X-10719517Y-27652882D01*
X-10700000Y-27649000D01*
X-9200000Y-27649000D01*
X-9180483Y-27652882D01*
G37*
G36*
X-4280483Y-27652882D02*
G01*
X-4263938Y-27663938D01*
X-4252882Y-27680483D01*
X-4249000Y-27700000D01*
X-4249000Y-28600000D01*
X-4252882Y-28619517D01*
X-4263938Y-28636062D01*
X-4280483Y-28647118D01*
X-4300000Y-28651000D01*
X-5800000Y-28651000D01*
X-5819517Y-28647118D01*
X-5836062Y-28636062D01*
X-5847118Y-28619517D01*
X-5851000Y-28600000D01*
X-5851000Y-27700000D01*
X-5847118Y-27680483D01*
X-5836062Y-27663938D01*
X-5819517Y-27652882D01*
X-5800000Y-27649000D01*
X-4300000Y-27649000D01*
X-4280483Y-27652882D01*
G37*
G36*
X5819517Y-27652882D02*
G01*
X5836062Y-27663938D01*
X5847118Y-27680483D01*
X5851000Y-27700000D01*
X5851000Y-28600000D01*
X5847118Y-28619517D01*
X5836062Y-28636062D01*
X5819517Y-28647118D01*
X5800000Y-28651000D01*
X4300000Y-28651000D01*
X4280483Y-28647118D01*
X4263938Y-28636062D01*
X4252882Y-28619517D01*
X4249000Y-28600000D01*
X4249000Y-27700000D01*
X4252882Y-27680483D01*
X4263938Y-27663938D01*
X4280483Y-27652882D01*
X4300000Y-27649000D01*
X5800000Y-27649000D01*
X5819517Y-27652882D01*
G37*
G36*
X10719517Y-27652882D02*
G01*
X10736062Y-27663938D01*
X10747118Y-27680483D01*
X10751000Y-27700000D01*
X10751000Y-28600000D01*
X10747118Y-28619517D01*
X10736062Y-28636062D01*
X10719517Y-28647118D01*
X10700000Y-28651000D01*
X9200000Y-28651000D01*
X9180483Y-28647118D01*
X9163938Y-28636062D01*
X9152882Y-28619517D01*
X9149000Y-28600000D01*
X9149000Y-27700000D01*
X9152882Y-27680483D01*
X9163938Y-27663938D01*
X9180483Y-27652882D01*
X9200000Y-27649000D01*
X10700000Y-27649000D01*
X10719517Y-27652882D01*
G37*
G36*
X287288Y-22817830D02*
G01*
X569661Y-22873997D01*
X842286Y-22966541D01*
X1100500Y-23093878D01*
X1339884Y-23253829D01*
X1556342Y-23443658D01*
X1746171Y-23660116D01*
X1906122Y-23899500D01*
X2033459Y-24157714D01*
X2126003Y-24430339D01*
X2182170Y-24712712D01*
X2201000Y-25000000D01*
X2182170Y-25287288D01*
X2126003Y-25569661D01*
X2033459Y-25842286D01*
X1906122Y-26100500D01*
X1746171Y-26339884D01*
X1556342Y-26556342D01*
X1339884Y-26746171D01*
X1100500Y-26906122D01*
X842286Y-27033459D01*
X569661Y-27126003D01*
X287288Y-27182170D01*
X0Y-27201000D01*
X-287288Y-27182170D01*
X-569661Y-27126003D01*
X-842286Y-27033459D01*
X-1100500Y-26906122D01*
X-1339884Y-26746171D01*
X-1556342Y-26556342D01*
X-1746171Y-26339884D01*
X-1906122Y-26100500D01*
X-2033459Y-25842286D01*
X-2126003Y-25569661D01*
X-2182170Y-25287288D01*
X-2201000Y-25000000D01*
X-2182170Y-24712712D01*
X-2126003Y-24430339D01*
X-2033459Y-24157714D01*
X-1906122Y-23899500D01*
X-1746171Y-23660116D01*
X-1556342Y-23443658D01*
X-1339884Y-23253829D01*
X-1100500Y-23093878D01*
X-842286Y-22966541D01*
X-569661Y-22873997D01*
X-287288Y-22817830D01*
X0Y-22799000D01*
X287288Y-22817830D01*
G37*
G36*
X-9180483Y-24352882D02*
G01*
X-9163938Y-24363938D01*
X-9152882Y-24380483D01*
X-9149000Y-24400000D01*
X-9149000Y-25300000D01*
X-9152882Y-25319517D01*
X-9163938Y-25336062D01*
X-9180483Y-25347118D01*
X-9200000Y-25351000D01*
X-10700000Y-25351000D01*
X-10719517Y-25347118D01*
X-10736062Y-25336062D01*
X-10747118Y-25319517D01*
X-10751000Y-25300000D01*
X-10751000Y-24400000D01*
X-10747118Y-24380483D01*
X-10736062Y-24363938D01*
X-10719517Y-24352882D01*
X-10700000Y-24349000D01*
X-9200000Y-24349000D01*
X-9180483Y-24352882D01*
G37*
G36*
X-4280483Y-24352882D02*
G01*
X-4263938Y-24363938D01*
X-4252882Y-24380483D01*
X-4249000Y-24400000D01*
X-4249000Y-25300000D01*
X-4252882Y-25319517D01*
X-4263938Y-25336062D01*
X-4280483Y-25347118D01*
X-4300000Y-25351000D01*
X-5800000Y-25351000D01*
X-5819517Y-25347118D01*
X-5836062Y-25336062D01*
X-5847118Y-25319517D01*
X-5851000Y-25300000D01*
X-5851000Y-24400000D01*
X-5847118Y-24380483D01*
X-5836062Y-24363938D01*
X-5819517Y-24352882D01*
X-5800000Y-24349000D01*
X-4300000Y-24349000D01*
X-4280483Y-24352882D01*
G37*
G36*
X5819517Y-24352882D02*
G01*
X5836062Y-24363938D01*
X5847118Y-24380483D01*
X5851000Y-24400000D01*
X5851000Y-25300000D01*
X5847118Y-25319517D01*
X5836062Y-25336062D01*
X5819517Y-25347118D01*
X5800000Y-25351000D01*
X4300000Y-25351000D01*
X4280483Y-25347118D01*
X4263938Y-25336062D01*
X4252882Y-25319517D01*
X4249000Y-25300000D01*
X4249000Y-24400000D01*
X4252882Y-24380483D01*
X4263938Y-24363938D01*
X4280483Y-24352882D01*
X4300000Y-24349000D01*
X5800000Y-24349000D01*
X5819517Y-24352882D01*
G37*
G36*
X10719517Y-24352882D02*
G01*
X10736062Y-24363938D01*
X10747118Y-24380483D01*
X10751000Y-24400000D01*
X10751000Y-25300000D01*
X10747118Y-25319517D01*
X10736062Y-25336062D01*
X10719517Y-25347118D01*
X10700000Y-25351000D01*
X9200000Y-25351000D01*
X9180483Y-25347118D01*
X9163938Y-25336062D01*
X9152882Y-25319517D01*
X9149000Y-25300000D01*
X9149000Y-24400000D01*
X9152882Y-24380483D01*
X9163938Y-24363938D01*
X9180483Y-24352882D01*
X9200000Y-24349000D01*
X10700000Y-24349000D01*
X10719517Y-24352882D01*
G37*
G36*
X10103093Y-22853539D02*
G01*
X10165057Y-22894943D01*
X10206461Y-22956907D01*
X10221000Y-23030000D01*
X10221000Y-23370000D01*
X10206461Y-23443093D01*
X10165057Y-23505057D01*
X10103093Y-23546461D01*
X10030000Y-23561000D01*
X9750000Y-23561000D01*
X9676907Y-23546461D01*
X9614943Y-23505057D01*
X9573539Y-23443093D01*
X9559000Y-23370000D01*
X9559000Y-23030000D01*
X9573539Y-22956907D01*
X9614943Y-22894943D01*
X9676907Y-22853539D01*
X9750000Y-22839000D01*
X10030000Y-22839000D01*
X10103093Y-22853539D01*
G37*
G36*
X11063093Y-22853539D02*
G01*
X11125057Y-22894943D01*
X11166461Y-22956907D01*
X11181000Y-23030000D01*
X11181000Y-23370000D01*
X11166461Y-23443093D01*
X11125057Y-23505057D01*
X11063093Y-23546461D01*
X10990000Y-23561000D01*
X10710000Y-23561000D01*
X10636907Y-23546461D01*
X10574943Y-23505057D01*
X10533539Y-23443093D01*
X10519000Y-23370000D01*
X10519000Y-23030000D01*
X10533539Y-22956907D01*
X10574943Y-22894943D01*
X10636907Y-22853539D01*
X10710000Y-22839000D01*
X10990000Y-22839000D01*
X11063093Y-22853539D01*
G37*
G36*
X-5756907Y-22823539D02*
G01*
X-5694943Y-22864943D01*
X-5653539Y-22926907D01*
X-5639000Y-23000000D01*
X-5639000Y-23340000D01*
X-5653539Y-23413093D01*
X-5694943Y-23475057D01*
X-5756907Y-23516461D01*
X-5830000Y-23531000D01*
X-6110000Y-23531000D01*
X-6183093Y-23516461D01*
X-6245057Y-23475057D01*
X-6286461Y-23413093D01*
X-6301000Y-23340000D01*
X-6301000Y-23000000D01*
X-6286461Y-22926907D01*
X-6245057Y-22864943D01*
X-6183093Y-22823539D01*
X-6110000Y-22809000D01*
X-5830000Y-22809000D01*
X-5756907Y-22823539D01*
G37*
G36*
X-4796907Y-22823539D02*
G01*
X-4734943Y-22864943D01*
X-4693539Y-22926907D01*
X-4679000Y-23000000D01*
X-4679000Y-23340000D01*
X-4693539Y-23413093D01*
X-4734943Y-23475057D01*
X-4796907Y-23516461D01*
X-4870000Y-23531000D01*
X-5150000Y-23531000D01*
X-5223093Y-23516461D01*
X-5285057Y-23475057D01*
X-5326461Y-23413093D01*
X-5341000Y-23340000D01*
X-5341000Y-23000000D01*
X-5326461Y-22926907D01*
X-5285057Y-22864943D01*
X-5223093Y-22823539D01*
X-5150000Y-22809000D01*
X-4870000Y-22809000D01*
X-4796907Y-22823539D01*
G37*
G36*
X-14299847Y-19863592D02*
G01*
X-14294304Y-19866301D01*
X-14291708Y-19866713D01*
X-14250166Y-19887879D01*
X-14196042Y-19914339D01*
X-14114339Y-19996042D01*
X-14087868Y-20050189D01*
X-14066714Y-20091707D01*
X-14066304Y-20094301D01*
X-14063592Y-20099847D01*
X-14049000Y-20200000D01*
X-14049000Y-20800000D01*
X-14063592Y-20900153D01*
X-14066304Y-20905699D01*
X-14066714Y-20908292D01*
X-14087856Y-20949785D01*
X-14114339Y-21003958D01*
X-14196042Y-21085661D01*
X-14250215Y-21112144D01*
X-14291708Y-21133286D01*
X-14294301Y-21133696D01*
X-14299847Y-21136408D01*
X-14400000Y-21151000D01*
X-15400000Y-21151000D01*
X-15500153Y-21136408D01*
X-15505699Y-21133696D01*
X-15508293Y-21133286D01*
X-15549811Y-21112132D01*
X-15603958Y-21085661D01*
X-15685661Y-21003958D01*
X-15712121Y-20949834D01*
X-15733287Y-20908292D01*
X-15733699Y-20905696D01*
X-15736408Y-20900153D01*
X-15751000Y-20800000D01*
X-15751000Y-20200000D01*
X-15736408Y-20099847D01*
X-15733699Y-20094304D01*
X-15733287Y-20091707D01*
X-15712109Y-20050141D01*
X-15685661Y-19996042D01*
X-15603958Y-19914339D01*
X-15549859Y-19887891D01*
X-15508293Y-19866713D01*
X-15505696Y-19866301D01*
X-15500153Y-19863592D01*
X-15400000Y-19849000D01*
X-14400000Y-19849000D01*
X-14299847Y-19863592D01*
G37*
G36*
X-8499847Y-19863592D02*
G01*
X-8494304Y-19866301D01*
X-8491708Y-19866713D01*
X-8450166Y-19887879D01*
X-8396042Y-19914339D01*
X-8314339Y-19996042D01*
X-8287868Y-20050189D01*
X-8266714Y-20091707D01*
X-8266304Y-20094301D01*
X-8263592Y-20099847D01*
X-8249000Y-20200000D01*
X-8249000Y-20800000D01*
X-8263592Y-20900153D01*
X-8266304Y-20905699D01*
X-8266714Y-20908292D01*
X-8287856Y-20949785D01*
X-8314339Y-21003958D01*
X-8396042Y-21085661D01*
X-8450215Y-21112144D01*
X-8491708Y-21133286D01*
X-8494301Y-21133696D01*
X-8499847Y-21136408D01*
X-8600000Y-21151000D01*
X-9600000Y-21151000D01*
X-9700153Y-21136408D01*
X-9705699Y-21133696D01*
X-9708293Y-21133286D01*
X-9749811Y-21112132D01*
X-9803958Y-21085661D01*
X-9885661Y-21003958D01*
X-9912121Y-20949834D01*
X-9933287Y-20908292D01*
X-9933699Y-20905696D01*
X-9936408Y-20900153D01*
X-9951000Y-20800000D01*
X-9951000Y-20200000D01*
X-9936408Y-20099847D01*
X-9933699Y-20094304D01*
X-9933287Y-20091707D01*
X-9912109Y-20050141D01*
X-9885661Y-19996042D01*
X-9803958Y-19914339D01*
X-9749859Y-19887891D01*
X-9708293Y-19866713D01*
X-9705696Y-19866301D01*
X-9700153Y-19863592D01*
X-9600000Y-19849000D01*
X-8600000Y-19849000D01*
X-8499847Y-19863592D01*
G37*
G36*
X-2299847Y-19863592D02*
G01*
X-2294304Y-19866301D01*
X-2291708Y-19866713D01*
X-2250166Y-19887879D01*
X-2196042Y-19914339D01*
X-2114339Y-19996042D01*
X-2087868Y-20050189D01*
X-2066714Y-20091707D01*
X-2066304Y-20094301D01*
X-2063592Y-20099847D01*
X-2049000Y-20200000D01*
X-2049000Y-20800000D01*
X-2063592Y-20900153D01*
X-2066304Y-20905699D01*
X-2066714Y-20908292D01*
X-2087856Y-20949785D01*
X-2114339Y-21003958D01*
X-2196042Y-21085661D01*
X-2250215Y-21112144D01*
X-2291708Y-21133286D01*
X-2294301Y-21133696D01*
X-2299847Y-21136408D01*
X-2400000Y-21151000D01*
X-3400000Y-21151000D01*
X-3500153Y-21136408D01*
X-3505699Y-21133696D01*
X-3508293Y-21133286D01*
X-3549811Y-21112132D01*
X-3603958Y-21085661D01*
X-3685661Y-21003958D01*
X-3712121Y-20949834D01*
X-3733287Y-20908292D01*
X-3733699Y-20905696D01*
X-3736408Y-20900153D01*
X-3751000Y-20800000D01*
X-3751000Y-20200000D01*
X-3736408Y-20099847D01*
X-3733699Y-20094304D01*
X-3733287Y-20091707D01*
X-3712109Y-20050141D01*
X-3685661Y-19996042D01*
X-3603958Y-19914339D01*
X-3549859Y-19887891D01*
X-3508293Y-19866713D01*
X-3505696Y-19866301D01*
X-3500153Y-19863592D01*
X-3400000Y-19849000D01*
X-2400000Y-19849000D01*
X-2299847Y-19863592D01*
G37*
G36*
X3500153Y-19863592D02*
G01*
X3505696Y-19866301D01*
X3508292Y-19866713D01*
X3549834Y-19887879D01*
X3603958Y-19914339D01*
X3685661Y-19996042D01*
X3712132Y-20050189D01*
X3733286Y-20091707D01*
X3733696Y-20094301D01*
X3736408Y-20099847D01*
X3751000Y-20200000D01*
X3751000Y-20800000D01*
X3736408Y-20900153D01*
X3733696Y-20905699D01*
X3733286Y-20908292D01*
X3712144Y-20949785D01*
X3685661Y-21003958D01*
X3603958Y-21085661D01*
X3549785Y-21112144D01*
X3508292Y-21133286D01*
X3505699Y-21133696D01*
X3500153Y-21136408D01*
X3400000Y-21151000D01*
X2400000Y-21151000D01*
X2299847Y-21136408D01*
X2294301Y-21133696D01*
X2291707Y-21133286D01*
X2250189Y-21112132D01*
X2196042Y-21085661D01*
X2114339Y-21003958D01*
X2087879Y-20949834D01*
X2066713Y-20908292D01*
X2066301Y-20905696D01*
X2063592Y-20900153D01*
X2049000Y-20800000D01*
X2049000Y-20200000D01*
X2063592Y-20099847D01*
X2066301Y-20094304D01*
X2066713Y-20091707D01*
X2087891Y-20050141D01*
X2114339Y-19996042D01*
X2196042Y-19914339D01*
X2250141Y-19887891D01*
X2291707Y-19866713D01*
X2294304Y-19866301D01*
X2299847Y-19863592D01*
X2400000Y-19849000D01*
X3400000Y-19849000D01*
X3500153Y-19863592D01*
G37*
G36*
X9700153Y-19863592D02*
G01*
X9705696Y-19866301D01*
X9708292Y-19866713D01*
X9749834Y-19887879D01*
X9803958Y-19914339D01*
X9885661Y-19996042D01*
X9912132Y-20050189D01*
X9933286Y-20091707D01*
X9933696Y-20094301D01*
X9936408Y-20099847D01*
X9951000Y-20200000D01*
X9951000Y-20800000D01*
X9936408Y-20900153D01*
X9933696Y-20905699D01*
X9933286Y-20908292D01*
X9912144Y-20949785D01*
X9885661Y-21003958D01*
X9803958Y-21085661D01*
X9749785Y-21112144D01*
X9708292Y-21133286D01*
X9705699Y-21133696D01*
X9700153Y-21136408D01*
X9600000Y-21151000D01*
X8600000Y-21151000D01*
X8499847Y-21136408D01*
X8494301Y-21133696D01*
X8491707Y-21133286D01*
X8450189Y-21112132D01*
X8396042Y-21085661D01*
X8314339Y-21003958D01*
X8287879Y-20949834D01*
X8266713Y-20908292D01*
X8266301Y-20905696D01*
X8263592Y-20900153D01*
X8249000Y-20800000D01*
X8249000Y-20200000D01*
X8263592Y-20099847D01*
X8266301Y-20094304D01*
X8266713Y-20091707D01*
X8287891Y-20050141D01*
X8314339Y-19996042D01*
X8396042Y-19914339D01*
X8450141Y-19887891D01*
X8491707Y-19866713D01*
X8494304Y-19866301D01*
X8499847Y-19863592D01*
X8600000Y-19849000D01*
X9600000Y-19849000D01*
X9700153Y-19863592D01*
G37*
G36*
X15500153Y-19863592D02*
G01*
X15505696Y-19866301D01*
X15508292Y-19866713D01*
X15549834Y-19887879D01*
X15603958Y-19914339D01*
X15685661Y-19996042D01*
X15712132Y-20050189D01*
X15733286Y-20091707D01*
X15733696Y-20094301D01*
X15736408Y-20099847D01*
X15751000Y-20200000D01*
X15751000Y-20800000D01*
X15736408Y-20900153D01*
X15733696Y-20905699D01*
X15733286Y-20908292D01*
X15712144Y-20949785D01*
X15685661Y-21003958D01*
X15603958Y-21085661D01*
X15549785Y-21112144D01*
X15508292Y-21133286D01*
X15505699Y-21133696D01*
X15500153Y-21136408D01*
X15400000Y-21151000D01*
X14400000Y-21151000D01*
X14299847Y-21136408D01*
X14294301Y-21133696D01*
X14291707Y-21133286D01*
X14250189Y-21112132D01*
X14196042Y-21085661D01*
X14114339Y-21003958D01*
X14087879Y-20949834D01*
X14066713Y-20908292D01*
X14066301Y-20905696D01*
X14063592Y-20900153D01*
X14049000Y-20800000D01*
X14049000Y-20200000D01*
X14063592Y-20099847D01*
X14066301Y-20094304D01*
X14066713Y-20091707D01*
X14087891Y-20050141D01*
X14114339Y-19996042D01*
X14196042Y-19914339D01*
X14250141Y-19887891D01*
X14291707Y-19866713D01*
X14294304Y-19866301D01*
X14299847Y-19863592D01*
X14400000Y-19849000D01*
X15400000Y-19849000D01*
X15500153Y-19863592D01*
G37*
G36*
X20344517Y-17657882D02*
G01*
X20361062Y-17668938D01*
X20372118Y-17685483D01*
X20376000Y-17705000D01*
X20376000Y-18605000D01*
X20372118Y-18624517D01*
X20361062Y-18641062D01*
X20344517Y-18652118D01*
X20325000Y-18656000D01*
X18825000Y-18656000D01*
X18805483Y-18652118D01*
X18788938Y-18641062D01*
X18777882Y-18624517D01*
X18774000Y-18605000D01*
X18774000Y-17705000D01*
X18777882Y-17685483D01*
X18788938Y-17668938D01*
X18805483Y-17657882D01*
X18825000Y-17654000D01*
X20325000Y-17654000D01*
X20344517Y-17657882D01*
G37*
G36*
X25244517Y-17657882D02*
G01*
X25261062Y-17668938D01*
X25272118Y-17685483D01*
X25276000Y-17705000D01*
X25276000Y-18605000D01*
X25272118Y-18624517D01*
X25261062Y-18641062D01*
X25244517Y-18652118D01*
X25225000Y-18656000D01*
X23725000Y-18656000D01*
X23705483Y-18652118D01*
X23688938Y-18641062D01*
X23677882Y-18624517D01*
X23674000Y-18605000D01*
X23674000Y-17705000D01*
X23677882Y-17685483D01*
X23688938Y-17668938D01*
X23705483Y-17657882D01*
X23725000Y-17654000D01*
X25225000Y-17654000D01*
X25244517Y-17657882D01*
G37*
G36*
X-23710483Y-17252882D02*
G01*
X-23693938Y-17263938D01*
X-23682882Y-17280483D01*
X-23679000Y-17300000D01*
X-23679000Y-18200000D01*
X-23682882Y-18219517D01*
X-23693938Y-18236062D01*
X-23710483Y-18247118D01*
X-23730000Y-18251000D01*
X-25230000Y-18251000D01*
X-25249517Y-18247118D01*
X-25266062Y-18236062D01*
X-25277118Y-18219517D01*
X-25281000Y-18200000D01*
X-25281000Y-17300000D01*
X-25277118Y-17280483D01*
X-25266062Y-17263938D01*
X-25249517Y-17252882D01*
X-25230000Y-17249000D01*
X-23730000Y-17249000D01*
X-23710483Y-17252882D01*
G37*
G36*
X-18810483Y-17252882D02*
G01*
X-18793938Y-17263938D01*
X-18782882Y-17280483D01*
X-18779000Y-17300000D01*
X-18779000Y-18200000D01*
X-18782882Y-18219517D01*
X-18793938Y-18236062D01*
X-18810483Y-18247118D01*
X-18830000Y-18251000D01*
X-20330000Y-18251000D01*
X-20349517Y-18247118D01*
X-20366062Y-18236062D01*
X-20377118Y-18219517D01*
X-20381000Y-18200000D01*
X-20381000Y-17300000D01*
X-20377118Y-17280483D01*
X-20366062Y-17263938D01*
X-20349517Y-17252882D01*
X-20330000Y-17249000D01*
X-18830000Y-17249000D01*
X-18810483Y-17252882D01*
G37*
G36*
X-14299847Y-16863592D02*
G01*
X-14294304Y-16866301D01*
X-14291708Y-16866713D01*
X-14250166Y-16887879D01*
X-14196042Y-16914339D01*
X-14114339Y-16996042D01*
X-14087868Y-17050189D01*
X-14066714Y-17091707D01*
X-14066304Y-17094301D01*
X-14063592Y-17099847D01*
X-14049000Y-17200000D01*
X-14049000Y-17800000D01*
X-14063592Y-17900153D01*
X-14066304Y-17905699D01*
X-14066714Y-17908292D01*
X-14087856Y-17949785D01*
X-14114339Y-18003958D01*
X-14196042Y-18085661D01*
X-14250215Y-18112144D01*
X-14291708Y-18133286D01*
X-14294301Y-18133696D01*
X-14299847Y-18136408D01*
X-14400000Y-18151000D01*
X-15400000Y-18151000D01*
X-15500153Y-18136408D01*
X-15505699Y-18133696D01*
X-15508293Y-18133286D01*
X-15549811Y-18112132D01*
X-15603958Y-18085661D01*
X-15685661Y-18003958D01*
X-15712121Y-17949834D01*
X-15733287Y-17908292D01*
X-15733699Y-17905696D01*
X-15736408Y-17900153D01*
X-15751000Y-17800000D01*
X-15751000Y-17200000D01*
X-15736408Y-17099847D01*
X-15733699Y-17094304D01*
X-15733287Y-17091707D01*
X-15712109Y-17050141D01*
X-15685661Y-16996042D01*
X-15603958Y-16914339D01*
X-15549859Y-16887891D01*
X-15508293Y-16866713D01*
X-15505696Y-16866301D01*
X-15500153Y-16863592D01*
X-15400000Y-16849000D01*
X-14400000Y-16849000D01*
X-14299847Y-16863592D01*
G37*
G36*
X-8499847Y-16863592D02*
G01*
X-8494304Y-16866301D01*
X-8491708Y-16866713D01*
X-8450166Y-16887879D01*
X-8396042Y-16914339D01*
X-8314339Y-16996042D01*
X-8287868Y-17050189D01*
X-8266714Y-17091707D01*
X-8266304Y-17094301D01*
X-8263592Y-17099847D01*
X-8249000Y-17200000D01*
X-8249000Y-17800000D01*
X-8263592Y-17900153D01*
X-8266304Y-17905699D01*
X-8266714Y-17908292D01*
X-8287856Y-17949785D01*
X-8314339Y-18003958D01*
X-8396042Y-18085661D01*
X-8450215Y-18112144D01*
X-8491708Y-18133286D01*
X-8494301Y-18133696D01*
X-8499847Y-18136408D01*
X-8600000Y-18151000D01*
X-9600000Y-18151000D01*
X-9700153Y-18136408D01*
X-9705699Y-18133696D01*
X-9708293Y-18133286D01*
X-9749811Y-18112132D01*
X-9803958Y-18085661D01*
X-9885661Y-18003958D01*
X-9912121Y-17949834D01*
X-9933287Y-17908292D01*
X-9933699Y-17905696D01*
X-9936408Y-17900153D01*
X-9951000Y-17800000D01*
X-9951000Y-17200000D01*
X-9936408Y-17099847D01*
X-9933699Y-17094304D01*
X-9933287Y-17091707D01*
X-9912109Y-17050141D01*
X-9885661Y-16996042D01*
X-9803958Y-16914339D01*
X-9749859Y-16887891D01*
X-9708293Y-16866713D01*
X-9705696Y-16866301D01*
X-9700153Y-16863592D01*
X-9600000Y-16849000D01*
X-8600000Y-16849000D01*
X-8499847Y-16863592D01*
G37*
G36*
X-2299847Y-16863592D02*
G01*
X-2294304Y-16866301D01*
X-2291708Y-16866713D01*
X-2250166Y-16887879D01*
X-2196042Y-16914339D01*
X-2114339Y-16996042D01*
X-2087868Y-17050189D01*
X-2066714Y-17091707D01*
X-2066304Y-17094301D01*
X-2063592Y-17099847D01*
X-2049000Y-17200000D01*
X-2049000Y-17800000D01*
X-2063592Y-17900153D01*
X-2066304Y-17905699D01*
X-2066714Y-17908292D01*
X-2087856Y-17949785D01*
X-2114339Y-18003958D01*
X-2196042Y-18085661D01*
X-2250215Y-18112144D01*
X-2291708Y-18133286D01*
X-2294301Y-18133696D01*
X-2299847Y-18136408D01*
X-2400000Y-18151000D01*
X-3400000Y-18151000D01*
X-3500153Y-18136408D01*
X-3505699Y-18133696D01*
X-3508293Y-18133286D01*
X-3549811Y-18112132D01*
X-3603958Y-18085661D01*
X-3685661Y-18003958D01*
X-3712121Y-17949834D01*
X-3733287Y-17908292D01*
X-3733699Y-17905696D01*
X-3736408Y-17900153D01*
X-3751000Y-17800000D01*
X-3751000Y-17200000D01*
X-3736408Y-17099847D01*
X-3733699Y-17094304D01*
X-3733287Y-17091707D01*
X-3712109Y-17050141D01*
X-3685661Y-16996042D01*
X-3603958Y-16914339D01*
X-3549859Y-16887891D01*
X-3508293Y-16866713D01*
X-3505696Y-16866301D01*
X-3500153Y-16863592D01*
X-3400000Y-16849000D01*
X-2400000Y-16849000D01*
X-2299847Y-16863592D01*
G37*
G36*
X3500153Y-16863592D02*
G01*
X3505696Y-16866301D01*
X3508292Y-16866713D01*
X3549834Y-16887879D01*
X3603958Y-16914339D01*
X3685661Y-16996042D01*
X3712132Y-17050189D01*
X3733286Y-17091707D01*
X3733696Y-17094301D01*
X3736408Y-17099847D01*
X3751000Y-17200000D01*
X3751000Y-17800000D01*
X3736408Y-17900153D01*
X3733696Y-17905699D01*
X3733286Y-17908292D01*
X3712144Y-17949785D01*
X3685661Y-18003958D01*
X3603958Y-18085661D01*
X3549785Y-18112144D01*
X3508292Y-18133286D01*
X3505699Y-18133696D01*
X3500153Y-18136408D01*
X3400000Y-18151000D01*
X2400000Y-18151000D01*
X2299847Y-18136408D01*
X2294301Y-18133696D01*
X2291707Y-18133286D01*
X2250189Y-18112132D01*
X2196042Y-18085661D01*
X2114339Y-18003958D01*
X2087879Y-17949834D01*
X2066713Y-17908292D01*
X2066301Y-17905696D01*
X2063592Y-17900153D01*
X2049000Y-17800000D01*
X2049000Y-17200000D01*
X2063592Y-17099847D01*
X2066301Y-17094304D01*
X2066713Y-17091707D01*
X2087891Y-17050141D01*
X2114339Y-16996042D01*
X2196042Y-16914339D01*
X2250141Y-16887891D01*
X2291707Y-16866713D01*
X2294304Y-16866301D01*
X2299847Y-16863592D01*
X2400000Y-16849000D01*
X3400000Y-16849000D01*
X3500153Y-16863592D01*
G37*
G36*
X9700153Y-16863592D02*
G01*
X9705696Y-16866301D01*
X9708292Y-16866713D01*
X9749834Y-16887879D01*
X9803958Y-16914339D01*
X9885661Y-16996042D01*
X9912132Y-17050189D01*
X9933286Y-17091707D01*
X9933696Y-17094301D01*
X9936408Y-17099847D01*
X9951000Y-17200000D01*
X9951000Y-17800000D01*
X9936408Y-17900153D01*
X9933696Y-17905699D01*
X9933286Y-17908292D01*
X9912144Y-17949785D01*
X9885661Y-18003958D01*
X9803958Y-18085661D01*
X9749785Y-18112144D01*
X9708292Y-18133286D01*
X9705699Y-18133696D01*
X9700153Y-18136408D01*
X9600000Y-18151000D01*
X8600000Y-18151000D01*
X8499847Y-18136408D01*
X8494301Y-18133696D01*
X8491707Y-18133286D01*
X8450189Y-18112132D01*
X8396042Y-18085661D01*
X8314339Y-18003958D01*
X8287879Y-17949834D01*
X8266713Y-17908292D01*
X8266301Y-17905696D01*
X8263592Y-17900153D01*
X8249000Y-17800000D01*
X8249000Y-17200000D01*
X8263592Y-17099847D01*
X8266301Y-17094304D01*
X8266713Y-17091707D01*
X8287891Y-17050141D01*
X8314339Y-16996042D01*
X8396042Y-16914339D01*
X8450141Y-16887891D01*
X8491707Y-16866713D01*
X8494304Y-16866301D01*
X8499847Y-16863592D01*
X8600000Y-16849000D01*
X9600000Y-16849000D01*
X9700153Y-16863592D01*
G37*
G36*
X15500153Y-16863592D02*
G01*
X15505696Y-16866301D01*
X15508292Y-16866713D01*
X15549834Y-16887879D01*
X15603958Y-16914339D01*
X15685661Y-16996042D01*
X15712132Y-17050189D01*
X15733286Y-17091707D01*
X15733696Y-17094301D01*
X15736408Y-17099847D01*
X15751000Y-17200000D01*
X15751000Y-17800000D01*
X15736408Y-17900153D01*
X15733696Y-17905699D01*
X15733286Y-17908292D01*
X15712144Y-17949785D01*
X15685661Y-18003958D01*
X15603958Y-18085661D01*
X15549785Y-18112144D01*
X15508292Y-18133286D01*
X15505699Y-18133696D01*
X15500153Y-18136408D01*
X15400000Y-18151000D01*
X14400000Y-18151000D01*
X14299847Y-18136408D01*
X14294301Y-18133696D01*
X14291707Y-18133286D01*
X14250189Y-18112132D01*
X14196042Y-18085661D01*
X14114339Y-18003958D01*
X14087879Y-17949834D01*
X14066713Y-17908292D01*
X14066301Y-17905696D01*
X14063592Y-17900153D01*
X14049000Y-17800000D01*
X14049000Y-17200000D01*
X14063592Y-17099847D01*
X14066301Y-17094304D01*
X14066713Y-17091707D01*
X14087891Y-17050141D01*
X14114339Y-16996042D01*
X14196042Y-16914339D01*
X14250141Y-16887891D01*
X14291707Y-16866713D01*
X14294304Y-16866301D01*
X14299847Y-16863592D01*
X14400000Y-16849000D01*
X15400000Y-16849000D01*
X15500153Y-16863592D01*
G37*
G36*
X26288093Y-15388539D02*
G01*
X26350057Y-15429943D01*
X26391461Y-15491907D01*
X26406000Y-15565000D01*
X26406000Y-15845000D01*
X26391461Y-15918093D01*
X26350057Y-15980057D01*
X26288093Y-16021461D01*
X26215000Y-16036000D01*
X25875000Y-16036000D01*
X25801907Y-16021461D01*
X25739943Y-15980057D01*
X25698539Y-15918093D01*
X25684000Y-15845000D01*
X25684000Y-15565000D01*
X25698539Y-15491907D01*
X25739943Y-15429943D01*
X25801907Y-15388539D01*
X25875000Y-15374000D01*
X26215000Y-15374000D01*
X26288093Y-15388539D01*
G37*
G36*
X-17756907Y-15113539D02*
G01*
X-17694943Y-15154943D01*
X-17653539Y-15216907D01*
X-17639000Y-15290000D01*
X-17639000Y-15570000D01*
X-17653539Y-15643093D01*
X-17694943Y-15705057D01*
X-17756907Y-15746461D01*
X-17830000Y-15761000D01*
X-18170000Y-15761000D01*
X-18243093Y-15746461D01*
X-18305057Y-15705057D01*
X-18346461Y-15643093D01*
X-18361000Y-15570000D01*
X-18361000Y-15290000D01*
X-18346461Y-15216907D01*
X-18305057Y-15154943D01*
X-18243093Y-15113539D01*
X-18170000Y-15099000D01*
X-17830000Y-15099000D01*
X-17756907Y-15113539D01*
G37*
G36*
X20344517Y-14357882D02*
G01*
X20361062Y-14368938D01*
X20372118Y-14385483D01*
X20376000Y-14405000D01*
X20376000Y-15305000D01*
X20372118Y-15324517D01*
X20361062Y-15341062D01*
X20344517Y-15352118D01*
X20325000Y-15356000D01*
X18825000Y-15356000D01*
X18805483Y-15352118D01*
X18788938Y-15341062D01*
X18777882Y-15324517D01*
X18774000Y-15305000D01*
X18774000Y-14405000D01*
X18777882Y-14385483D01*
X18788938Y-14368938D01*
X18805483Y-14357882D01*
X18825000Y-14354000D01*
X20325000Y-14354000D01*
X20344517Y-14357882D01*
G37*
G36*
X25244517Y-14357882D02*
G01*
X25261062Y-14368938D01*
X25272118Y-14385483D01*
X25276000Y-14405000D01*
X25276000Y-15305000D01*
X25272118Y-15324517D01*
X25261062Y-15341062D01*
X25244517Y-15352118D01*
X25225000Y-15356000D01*
X23725000Y-15356000D01*
X23705483Y-15352118D01*
X23688938Y-15341062D01*
X23677882Y-15324517D01*
X23674000Y-15305000D01*
X23674000Y-14405000D01*
X23677882Y-14385483D01*
X23688938Y-14368938D01*
X23705483Y-14357882D01*
X23725000Y-14354000D01*
X25225000Y-14354000D01*
X25244517Y-14357882D01*
G37*
G36*
X26288093Y-14428539D02*
G01*
X26350057Y-14469943D01*
X26391461Y-14531907D01*
X26406000Y-14605000D01*
X26406000Y-14885000D01*
X26391461Y-14958093D01*
X26350057Y-15020057D01*
X26288093Y-15061461D01*
X26215000Y-15076000D01*
X25875000Y-15076000D01*
X25801907Y-15061461D01*
X25739943Y-15020057D01*
X25698539Y-14958093D01*
X25684000Y-14885000D01*
X25684000Y-14605000D01*
X25698539Y-14531907D01*
X25739943Y-14469943D01*
X25801907Y-14428539D01*
X25875000Y-14414000D01*
X26215000Y-14414000D01*
X26288093Y-14428539D01*
G37*
G36*
X-23710483Y-13952882D02*
G01*
X-23693938Y-13963938D01*
X-23682882Y-13980483D01*
X-23679000Y-14000000D01*
X-23679000Y-14900000D01*
X-23682882Y-14919517D01*
X-23693938Y-14936062D01*
X-23710483Y-14947118D01*
X-23730000Y-14951000D01*
X-25230000Y-14951000D01*
X-25249517Y-14947118D01*
X-25266062Y-14936062D01*
X-25277118Y-14919517D01*
X-25281000Y-14900000D01*
X-25281000Y-14000000D01*
X-25277118Y-13980483D01*
X-25266062Y-13963938D01*
X-25249517Y-13952882D01*
X-25230000Y-13949000D01*
X-23730000Y-13949000D01*
X-23710483Y-13952882D01*
G37*
G36*
X-18810483Y-13952882D02*
G01*
X-18793938Y-13963938D01*
X-18782882Y-13980483D01*
X-18779000Y-14000000D01*
X-18779000Y-14900000D01*
X-18782882Y-14919517D01*
X-18793938Y-14936062D01*
X-18810483Y-14947118D01*
X-18830000Y-14951000D01*
X-20330000Y-14951000D01*
X-20349517Y-14947118D01*
X-20366062Y-14936062D01*
X-20377118Y-14919517D01*
X-20381000Y-14900000D01*
X-20381000Y-14000000D01*
X-20377118Y-13980483D01*
X-20366062Y-13963938D01*
X-20349517Y-13952882D01*
X-20330000Y-13949000D01*
X-18830000Y-13949000D01*
X-18810483Y-13952882D01*
G37*
G36*
X-9156075Y-12141870D02*
G01*
X-8937225Y-12217002D01*
X-8733726Y-12327130D01*
X-8551129Y-12469251D01*
X-8394414Y-12639488D01*
X-8267857Y-12833198D01*
X-8174910Y-13045096D01*
X-8118108Y-13269403D01*
X-8099000Y-13500000D01*
X-8118108Y-13730597D01*
X-8174910Y-13954904D01*
X-8267857Y-14166802D01*
X-8394414Y-14360512D01*
X-8551129Y-14530749D01*
X-8733726Y-14672870D01*
X-8937225Y-14782998D01*
X-9156075Y-14858130D01*
X-9384306Y-14896215D01*
X-9615694Y-14896215D01*
X-9843925Y-14858130D01*
X-10062775Y-14782998D01*
X-10266274Y-14672870D01*
X-10448871Y-14530749D01*
X-10605586Y-14360512D01*
X-10732143Y-14166802D01*
X-10825090Y-13954904D01*
X-10881892Y-13730597D01*
X-10901000Y-13500000D01*
X-10881892Y-13269403D01*
X-10825090Y-13045096D01*
X-10732143Y-12833198D01*
X-10605586Y-12639488D01*
X-10448871Y-12469251D01*
X-10266274Y-12327130D01*
X-10062775Y-12217002D01*
X-9843925Y-12141870D01*
X-9615694Y-12103785D01*
X-9384306Y-12103785D01*
X-9156075Y-12141870D01*
G37*
G36*
X9843925Y-12141870D02*
G01*
X10062775Y-12217002D01*
X10266274Y-12327130D01*
X10448871Y-12469251D01*
X10605586Y-12639488D01*
X10732143Y-12833198D01*
X10825090Y-13045096D01*
X10881892Y-13269403D01*
X10901000Y-13500000D01*
X10881892Y-13730597D01*
X10825090Y-13954904D01*
X10732143Y-14166802D01*
X10605586Y-14360512D01*
X10448871Y-14530749D01*
X10266274Y-14672870D01*
X10062775Y-14782998D01*
X9843925Y-14858130D01*
X9615694Y-14896215D01*
X9384306Y-14896215D01*
X9156075Y-14858130D01*
X8937225Y-14782998D01*
X8733726Y-14672870D01*
X8551129Y-14530749D01*
X8394414Y-14360512D01*
X8267857Y-14166802D01*
X8174910Y-13954904D01*
X8118108Y-13730597D01*
X8099000Y-13500000D01*
X8118108Y-13269403D01*
X8174910Y-13045096D01*
X8267857Y-12833198D01*
X8394414Y-12639488D01*
X8551129Y-12469251D01*
X8733726Y-12327130D01*
X8937225Y-12217002D01*
X9156075Y-12141870D01*
X9384306Y-12103785D01*
X9615694Y-12103785D01*
X9843925Y-12141870D01*
G37*
G36*
X-17756907Y-14153539D02*
G01*
X-17694943Y-14194943D01*
X-17653539Y-14256907D01*
X-17639000Y-14330000D01*
X-17639000Y-14610000D01*
X-17653539Y-14683093D01*
X-17694943Y-14745057D01*
X-17756907Y-14786461D01*
X-17830000Y-14801000D01*
X-18170000Y-14801000D01*
X-18243093Y-14786461D01*
X-18305057Y-14745057D01*
X-18346461Y-14683093D01*
X-18361000Y-14610000D01*
X-18361000Y-14330000D01*
X-18346461Y-14256907D01*
X-18305057Y-14194943D01*
X-18243093Y-14153539D01*
X-18170000Y-14139000D01*
X-17830000Y-14139000D01*
X-17756907Y-14153539D01*
G37*
G36*
X-20730483Y-8152882D02*
G01*
X-20713938Y-8163938D01*
X-20702882Y-8180483D01*
X-20699000Y-8200000D01*
X-20699000Y-9100000D01*
X-20702882Y-9119517D01*
X-20713938Y-9136062D01*
X-20730483Y-9147118D01*
X-20750000Y-9151000D01*
X-22250000Y-9151000D01*
X-22269517Y-9147118D01*
X-22286062Y-9136062D01*
X-22297118Y-9119517D01*
X-22301000Y-9100000D01*
X-22301000Y-8200000D01*
X-22297118Y-8180483D01*
X-22286062Y-8163938D01*
X-22269517Y-8152882D01*
X-22250000Y-8149000D01*
X-20750000Y-8149000D01*
X-20730483Y-8152882D01*
G37*
G36*
X-15830483Y-8152882D02*
G01*
X-15813938Y-8163938D01*
X-15802882Y-8180483D01*
X-15799000Y-8200000D01*
X-15799000Y-9100000D01*
X-15802882Y-9119517D01*
X-15813938Y-9136062D01*
X-15830483Y-9147118D01*
X-15850000Y-9151000D01*
X-17350000Y-9151000D01*
X-17369517Y-9147118D01*
X-17386062Y-9136062D01*
X-17397118Y-9119517D01*
X-17401000Y-9100000D01*
X-17401000Y-8200000D01*
X-17397118Y-8180483D01*
X-17386062Y-8163938D01*
X-17369517Y-8152882D01*
X-17350000Y-8149000D01*
X-15850000Y-8149000D01*
X-15830483Y-8152882D01*
G37*
G36*
X-1680483Y-8152882D02*
G01*
X-1663938Y-8163938D01*
X-1652882Y-8180483D01*
X-1649000Y-8200000D01*
X-1649000Y-9100000D01*
X-1652882Y-9119517D01*
X-1663938Y-9136062D01*
X-1680483Y-9147118D01*
X-1700000Y-9151000D01*
X-3200000Y-9151000D01*
X-3219517Y-9147118D01*
X-3236062Y-9136062D01*
X-3247118Y-9119517D01*
X-3251000Y-9100000D01*
X-3251000Y-8200000D01*
X-3247118Y-8180483D01*
X-3236062Y-8163938D01*
X-3219517Y-8152882D01*
X-3200000Y-8149000D01*
X-1700000Y-8149000D01*
X-1680483Y-8152882D01*
G37*
G36*
X3219517Y-8152882D02*
G01*
X3236062Y-8163938D01*
X3247118Y-8180483D01*
X3251000Y-8200000D01*
X3251000Y-9100000D01*
X3247118Y-9119517D01*
X3236062Y-9136062D01*
X3219517Y-9147118D01*
X3200000Y-9151000D01*
X1700000Y-9151000D01*
X1680483Y-9147118D01*
X1663938Y-9136062D01*
X1652882Y-9119517D01*
X1649000Y-9100000D01*
X1649000Y-8200000D01*
X1652882Y-8180483D01*
X1663938Y-8163938D01*
X1680483Y-8152882D01*
X1700000Y-8149000D01*
X3200000Y-8149000D01*
X3219517Y-8152882D01*
G37*
G36*
X17369517Y-8152882D02*
G01*
X17386062Y-8163938D01*
X17397118Y-8180483D01*
X17401000Y-8200000D01*
X17401000Y-9100000D01*
X17397118Y-9119517D01*
X17386062Y-9136062D01*
X17369517Y-9147118D01*
X17350000Y-9151000D01*
X15850000Y-9151000D01*
X15830483Y-9147118D01*
X15813938Y-9136062D01*
X15802882Y-9119517D01*
X15799000Y-9100000D01*
X15799000Y-8200000D01*
X15802882Y-8180483D01*
X15813938Y-8163938D01*
X15830483Y-8152882D01*
X15850000Y-8149000D01*
X17350000Y-8149000D01*
X17369517Y-8152882D01*
G37*
G36*
X22269517Y-8152882D02*
G01*
X22286062Y-8163938D01*
X22297118Y-8180483D01*
X22301000Y-8200000D01*
X22301000Y-9100000D01*
X22297118Y-9119517D01*
X22286062Y-9136062D01*
X22269517Y-9147118D01*
X22250000Y-9151000D01*
X20750000Y-9151000D01*
X20730483Y-9147118D01*
X20713938Y-9136062D01*
X20702882Y-9119517D01*
X20699000Y-9100000D01*
X20699000Y-8200000D01*
X20702882Y-8180483D01*
X20713938Y-8163938D01*
X20730483Y-8152882D01*
X20750000Y-8149000D01*
X22250000Y-8149000D01*
X22269517Y-8152882D01*
G37*
G36*
X23263093Y-5993539D02*
G01*
X23325057Y-6034943D01*
X23366461Y-6096907D01*
X23381000Y-6170000D01*
X23381000Y-6450000D01*
X23366461Y-6523093D01*
X23325057Y-6585057D01*
X23263093Y-6626461D01*
X23190000Y-6641000D01*
X22850000Y-6641000D01*
X22776907Y-6626461D01*
X22714943Y-6585057D01*
X22673539Y-6523093D01*
X22659000Y-6450000D01*
X22659000Y-6170000D01*
X22673539Y-6096907D01*
X22714943Y-6034943D01*
X22776907Y-5993539D01*
X22850000Y-5979000D01*
X23190000Y-5979000D01*
X23263093Y-5993539D01*
G37*
G36*
X-14806907Y-5963539D02*
G01*
X-14744943Y-6004943D01*
X-14703539Y-6066907D01*
X-14689000Y-6140000D01*
X-14689000Y-6420000D01*
X-14703539Y-6493093D01*
X-14744943Y-6555057D01*
X-14806907Y-6596461D01*
X-14880000Y-6611000D01*
X-15220000Y-6611000D01*
X-15293093Y-6596461D01*
X-15355057Y-6555057D01*
X-15396461Y-6493093D01*
X-15411000Y-6420000D01*
X-15411000Y-6140000D01*
X-15396461Y-6066907D01*
X-15355057Y-6004943D01*
X-15293093Y-5963539D01*
X-15220000Y-5949000D01*
X-14880000Y-5949000D01*
X-14806907Y-5963539D01*
G37*
G36*
X4203093Y-5953539D02*
G01*
X4265057Y-5994943D01*
X4306461Y-6056907D01*
X4321000Y-6130000D01*
X4321000Y-6410000D01*
X4306461Y-6483093D01*
X4265057Y-6545057D01*
X4203093Y-6586461D01*
X4130000Y-6601000D01*
X3790000Y-6601000D01*
X3716907Y-6586461D01*
X3654943Y-6545057D01*
X3613539Y-6483093D01*
X3599000Y-6410000D01*
X3599000Y-6130000D01*
X3613539Y-6056907D01*
X3654943Y-5994943D01*
X3716907Y-5953539D01*
X3790000Y-5939000D01*
X4130000Y-5939000D01*
X4203093Y-5953539D01*
G37*
G36*
X-20730483Y-4852882D02*
G01*
X-20713938Y-4863938D01*
X-20702882Y-4880483D01*
X-20699000Y-4900000D01*
X-20699000Y-5800000D01*
X-20702882Y-5819517D01*
X-20713938Y-5836062D01*
X-20730483Y-5847118D01*
X-20750000Y-5851000D01*
X-22250000Y-5851000D01*
X-22269517Y-5847118D01*
X-22286062Y-5836062D01*
X-22297118Y-5819517D01*
X-22301000Y-5800000D01*
X-22301000Y-4900000D01*
X-22297118Y-4880483D01*
X-22286062Y-4863938D01*
X-22269517Y-4852882D01*
X-22250000Y-4849000D01*
X-20750000Y-4849000D01*
X-20730483Y-4852882D01*
G37*
G36*
X-15830483Y-4852882D02*
G01*
X-15813938Y-4863938D01*
X-15802882Y-4880483D01*
X-15799000Y-4900000D01*
X-15799000Y-5800000D01*
X-15802882Y-5819517D01*
X-15813938Y-5836062D01*
X-15830483Y-5847118D01*
X-15850000Y-5851000D01*
X-17350000Y-5851000D01*
X-17369517Y-5847118D01*
X-17386062Y-5836062D01*
X-17397118Y-5819517D01*
X-17401000Y-5800000D01*
X-17401000Y-4900000D01*
X-17397118Y-4880483D01*
X-17386062Y-4863938D01*
X-17369517Y-4852882D01*
X-17350000Y-4849000D01*
X-15850000Y-4849000D01*
X-15830483Y-4852882D01*
G37*
G36*
X-1680483Y-4852882D02*
G01*
X-1663938Y-4863938D01*
X-1652882Y-4880483D01*
X-1649000Y-4900000D01*
X-1649000Y-5800000D01*
X-1652882Y-5819517D01*
X-1663938Y-5836062D01*
X-1680483Y-5847118D01*
X-1700000Y-5851000D01*
X-3200000Y-5851000D01*
X-3219517Y-5847118D01*
X-3236062Y-5836062D01*
X-3247118Y-5819517D01*
X-3251000Y-5800000D01*
X-3251000Y-4900000D01*
X-3247118Y-4880483D01*
X-3236062Y-4863938D01*
X-3219517Y-4852882D01*
X-3200000Y-4849000D01*
X-1700000Y-4849000D01*
X-1680483Y-4852882D01*
G37*
G36*
X3219517Y-4852882D02*
G01*
X3236062Y-4863938D01*
X3247118Y-4880483D01*
X3251000Y-4900000D01*
X3251000Y-5800000D01*
X3247118Y-5819517D01*
X3236062Y-5836062D01*
X3219517Y-5847118D01*
X3200000Y-5851000D01*
X1700000Y-5851000D01*
X1680483Y-5847118D01*
X1663938Y-5836062D01*
X1652882Y-5819517D01*
X1649000Y-5800000D01*
X1649000Y-4900000D01*
X1652882Y-4880483D01*
X1663938Y-4863938D01*
X1680483Y-4852882D01*
X1700000Y-4849000D01*
X3200000Y-4849000D01*
X3219517Y-4852882D01*
G37*
G36*
X17369517Y-4852882D02*
G01*
X17386062Y-4863938D01*
X17397118Y-4880483D01*
X17401000Y-4900000D01*
X17401000Y-5800000D01*
X17397118Y-5819517D01*
X17386062Y-5836062D01*
X17369517Y-5847118D01*
X17350000Y-5851000D01*
X15850000Y-5851000D01*
X15830483Y-5847118D01*
X15813938Y-5836062D01*
X15802882Y-5819517D01*
X15799000Y-5800000D01*
X15799000Y-4900000D01*
X15802882Y-4880483D01*
X15813938Y-4863938D01*
X15830483Y-4852882D01*
X15850000Y-4849000D01*
X17350000Y-4849000D01*
X17369517Y-4852882D01*
G37*
G36*
X22269517Y-4852882D02*
G01*
X22286062Y-4863938D01*
X22297118Y-4880483D01*
X22301000Y-4900000D01*
X22301000Y-5800000D01*
X22297118Y-5819517D01*
X22286062Y-5836062D01*
X22269517Y-5847118D01*
X22250000Y-5851000D01*
X20750000Y-5851000D01*
X20730483Y-5847118D01*
X20713938Y-5836062D01*
X20702882Y-5819517D01*
X20699000Y-5800000D01*
X20699000Y-4900000D01*
X20702882Y-4880483D01*
X20713938Y-4863938D01*
X20730483Y-4852882D01*
X20750000Y-4849000D01*
X22250000Y-4849000D01*
X22269517Y-4852882D01*
G37*
G36*
X23263093Y-5033539D02*
G01*
X23325057Y-5074943D01*
X23366461Y-5136907D01*
X23381000Y-5210000D01*
X23381000Y-5490000D01*
X23366461Y-5563093D01*
X23325057Y-5625057D01*
X23263093Y-5666461D01*
X23190000Y-5681000D01*
X22850000Y-5681000D01*
X22776907Y-5666461D01*
X22714943Y-5625057D01*
X22673539Y-5563093D01*
X22659000Y-5490000D01*
X22659000Y-5210000D01*
X22673539Y-5136907D01*
X22714943Y-5074943D01*
X22776907Y-5033539D01*
X22850000Y-5019000D01*
X23190000Y-5019000D01*
X23263093Y-5033539D01*
G37*
G36*
X-14806907Y-5003539D02*
G01*
X-14744943Y-5044943D01*
X-14703539Y-5106907D01*
X-14689000Y-5180000D01*
X-14689000Y-5460000D01*
X-14703539Y-5533093D01*
X-14744943Y-5595057D01*
X-14806907Y-5636461D01*
X-14880000Y-5651000D01*
X-15220000Y-5651000D01*
X-15293093Y-5636461D01*
X-15355057Y-5595057D01*
X-15396461Y-5533093D01*
X-15411000Y-5460000D01*
X-15411000Y-5180000D01*
X-15396461Y-5106907D01*
X-15355057Y-5044943D01*
X-15293093Y-5003539D01*
X-15220000Y-4989000D01*
X-14880000Y-4989000D01*
X-14806907Y-5003539D01*
G37*
G36*
X4203093Y-4993539D02*
G01*
X4265057Y-5034943D01*
X4306461Y-5096907D01*
X4321000Y-5170000D01*
X4321000Y-5450000D01*
X4306461Y-5523093D01*
X4265057Y-5585057D01*
X4203093Y-5626461D01*
X4130000Y-5641000D01*
X3790000Y-5641000D01*
X3716907Y-5626461D01*
X3654943Y-5585057D01*
X3613539Y-5523093D01*
X3599000Y-5450000D01*
X3599000Y-5170000D01*
X3613539Y-5096907D01*
X3654943Y-5034943D01*
X3716907Y-4993539D01*
X3790000Y-4979000D01*
X4130000Y-4979000D01*
X4203093Y-4993539D01*
G37*
G36*
X-24082087Y896064D02*
G01*
X-24035820Y896064D01*
X-23995871Y887573D01*
X-23954267Y883475D01*
X-23902002Y867621D01*
X-23851576Y856902D01*
X-23819306Y842535D01*
X-23785288Y832215D01*
X-23731233Y803322D01*
X-23679500Y780289D01*
X-23655449Y762815D01*
X-23629553Y748973D01*
X-23576729Y705622D01*
X-23527113Y669573D01*
X-23511004Y651682D01*
X-23493052Y636949D01*
X-23444812Y578169D01*
X-23401076Y529595D01*
X-23391889Y513681D01*
X-23381028Y500448D01*
X-23340851Y425281D01*
X-23306896Y366470D01*
X-23302991Y354450D01*
X-23297786Y344713D01*
X-23269087Y250104D01*
X-23248689Y187328D01*
X-23247972Y180498D01*
X-23246526Y175734D01*
X-23232464Y32958D01*
X-23229000Y0D01*
X-23232465Y-32959D01*
X-23246526Y-175733D01*
X-23247971Y-180496D01*
X-23248689Y-187328D01*
X-23269091Y-250117D01*
X-23297786Y-344712D01*
X-23302990Y-354447D01*
X-23306896Y-366470D01*
X-23340858Y-425293D01*
X-23381028Y-500447D01*
X-23391887Y-513677D01*
X-23401076Y-529595D01*
X-23444822Y-578178D01*
X-23493052Y-636948D01*
X-23511000Y-651677D01*
X-23527113Y-669573D01*
X-23576740Y-705628D01*
X-23629553Y-748972D01*
X-23655443Y-762810D01*
X-23679500Y-780289D01*
X-23731244Y-803326D01*
X-23785288Y-832214D01*
X-23819299Y-842531D01*
X-23851576Y-856902D01*
X-23902013Y-867622D01*
X-23954267Y-883474D01*
X-23995862Y-887570D01*
X-24035820Y-896064D01*
X-24082097Y-896064D01*
X-24130000Y-900782D01*
X-24177903Y-896064D01*
X-24224180Y-896064D01*
X-24264138Y-887570D01*
X-24305734Y-883474D01*
X-24357991Y-867621D01*
X-24408424Y-856902D01*
X-24440700Y-842532D01*
X-24474713Y-832214D01*
X-24528763Y-803323D01*
X-24580500Y-780289D01*
X-24604555Y-762812D01*
X-24630448Y-748972D01*
X-24683270Y-705622D01*
X-24732887Y-669573D01*
X-24748998Y-651680D01*
X-24766949Y-636948D01*
X-24815191Y-578166D01*
X-24858924Y-529595D01*
X-24868112Y-513681D01*
X-24878973Y-500447D01*
X-24919156Y-425269D01*
X-24953104Y-366470D01*
X-24957009Y-354451D01*
X-24962215Y-344712D01*
X-24990925Y-250071D01*
X-25011311Y-187328D01*
X-25012029Y-180501D01*
X-25013475Y-175733D01*
X-25027552Y-32808D01*
X-25031000Y0D01*
X-25027552Y32806D01*
X-25013475Y175734D01*
X-25012029Y180503D01*
X-25011311Y187328D01*
X-24990929Y250058D01*
X-24962215Y344713D01*
X-24957009Y354455D01*
X-24953104Y366470D01*
X-24919164Y425258D01*
X-24878973Y500448D01*
X-24868110Y513686D01*
X-24858924Y529595D01*
X-24815200Y578157D01*
X-24766949Y636949D01*
X-24748995Y651685D01*
X-24732887Y669573D01*
X-24683280Y705615D01*
X-24630448Y748973D01*
X-24604550Y762817D01*
X-24580500Y780289D01*
X-24528774Y803319D01*
X-24474713Y832215D01*
X-24440693Y842536D01*
X-24408424Y856902D01*
X-24358002Y867620D01*
X-24305734Y883475D01*
X-24264129Y887573D01*
X-24224180Y896064D01*
X-24177914Y896064D01*
X-24130000Y900783D01*
X-24082087Y896064D01*
G37*
G36*
X-13922087Y896064D02*
G01*
X-13875820Y896064D01*
X-13835871Y887573D01*
X-13794267Y883475D01*
X-13742002Y867621D01*
X-13691576Y856902D01*
X-13659306Y842535D01*
X-13625288Y832215D01*
X-13571233Y803322D01*
X-13519500Y780289D01*
X-13495449Y762815D01*
X-13469553Y748973D01*
X-13416729Y705622D01*
X-13367113Y669573D01*
X-13351004Y651682D01*
X-13333052Y636949D01*
X-13284812Y578169D01*
X-13241076Y529595D01*
X-13231889Y513681D01*
X-13221028Y500448D01*
X-13180851Y425281D01*
X-13146896Y366470D01*
X-13142991Y354450D01*
X-13137786Y344713D01*
X-13109087Y250104D01*
X-13088689Y187328D01*
X-13087972Y180498D01*
X-13086526Y175734D01*
X-13072464Y32958D01*
X-13069000Y0D01*
X-13072465Y-32959D01*
X-13086526Y-175733D01*
X-13087971Y-180496D01*
X-13088689Y-187328D01*
X-13109091Y-250117D01*
X-13137786Y-344712D01*
X-13142990Y-354447D01*
X-13146896Y-366470D01*
X-13180858Y-425293D01*
X-13221028Y-500447D01*
X-13231887Y-513677D01*
X-13241076Y-529595D01*
X-13284822Y-578178D01*
X-13333052Y-636948D01*
X-13351000Y-651677D01*
X-13367113Y-669573D01*
X-13416740Y-705628D01*
X-13469553Y-748972D01*
X-13495443Y-762810D01*
X-13519500Y-780289D01*
X-13571244Y-803326D01*
X-13625288Y-832214D01*
X-13659299Y-842531D01*
X-13691576Y-856902D01*
X-13742013Y-867622D01*
X-13794267Y-883474D01*
X-13835862Y-887570D01*
X-13875820Y-896064D01*
X-13922097Y-896064D01*
X-13970000Y-900782D01*
X-14017903Y-896064D01*
X-14064180Y-896064D01*
X-14104138Y-887570D01*
X-14145734Y-883474D01*
X-14197991Y-867621D01*
X-14248424Y-856902D01*
X-14280700Y-842532D01*
X-14314713Y-832214D01*
X-14368763Y-803323D01*
X-14420500Y-780289D01*
X-14444555Y-762812D01*
X-14470448Y-748972D01*
X-14523270Y-705622D01*
X-14572887Y-669573D01*
X-14588998Y-651680D01*
X-14606949Y-636948D01*
X-14655191Y-578166D01*
X-14698924Y-529595D01*
X-14708112Y-513681D01*
X-14718973Y-500447D01*
X-14759156Y-425269D01*
X-14793104Y-366470D01*
X-14797009Y-354451D01*
X-14802215Y-344712D01*
X-14830925Y-250071D01*
X-14851311Y-187328D01*
X-14852029Y-180501D01*
X-14853475Y-175733D01*
X-14867552Y-32808D01*
X-14871000Y0D01*
X-14867552Y32806D01*
X-14853475Y175734D01*
X-14852029Y180503D01*
X-14851311Y187328D01*
X-14830929Y250058D01*
X-14802215Y344713D01*
X-14797009Y354455D01*
X-14793104Y366470D01*
X-14759164Y425258D01*
X-14718973Y500448D01*
X-14708110Y513686D01*
X-14698924Y529595D01*
X-14655200Y578157D01*
X-14606949Y636949D01*
X-14588995Y651685D01*
X-14572887Y669573D01*
X-14523280Y705615D01*
X-14470448Y748973D01*
X-14444550Y762817D01*
X-14420500Y780289D01*
X-14368774Y803319D01*
X-14314713Y832215D01*
X-14280693Y842536D01*
X-14248424Y856902D01*
X-14198002Y867620D01*
X-14145734Y883475D01*
X-14104129Y887573D01*
X-14064180Y896064D01*
X-14017914Y896064D01*
X-13970000Y900783D01*
X-13922087Y896064D01*
G37*
G36*
X-5032087Y896064D02*
G01*
X-4985820Y896064D01*
X-4945871Y887573D01*
X-4904267Y883475D01*
X-4852002Y867621D01*
X-4801576Y856902D01*
X-4769306Y842535D01*
X-4735288Y832215D01*
X-4681233Y803322D01*
X-4629500Y780289D01*
X-4605449Y762815D01*
X-4579553Y748973D01*
X-4526729Y705622D01*
X-4477113Y669573D01*
X-4461004Y651682D01*
X-4443052Y636949D01*
X-4394812Y578169D01*
X-4351076Y529595D01*
X-4341889Y513681D01*
X-4331028Y500448D01*
X-4290851Y425281D01*
X-4256896Y366470D01*
X-4252991Y354450D01*
X-4247786Y344713D01*
X-4219087Y250104D01*
X-4198689Y187328D01*
X-4197972Y180498D01*
X-4196526Y175734D01*
X-4182464Y32958D01*
X-4179000Y0D01*
X-4182465Y-32959D01*
X-4196526Y-175733D01*
X-4197971Y-180496D01*
X-4198689Y-187328D01*
X-4219091Y-250117D01*
X-4247786Y-344712D01*
X-4252990Y-354447D01*
X-4256896Y-366470D01*
X-4290858Y-425293D01*
X-4331028Y-500447D01*
X-4341887Y-513677D01*
X-4351076Y-529595D01*
X-4394822Y-578178D01*
X-4443052Y-636948D01*
X-4461000Y-651677D01*
X-4477113Y-669573D01*
X-4526740Y-705628D01*
X-4579553Y-748972D01*
X-4605443Y-762810D01*
X-4629500Y-780289D01*
X-4681244Y-803326D01*
X-4735288Y-832214D01*
X-4769299Y-842531D01*
X-4801576Y-856902D01*
X-4852013Y-867622D01*
X-4904267Y-883474D01*
X-4945862Y-887570D01*
X-4985820Y-896064D01*
X-5032097Y-896064D01*
X-5080000Y-900782D01*
X-5127903Y-896064D01*
X-5174180Y-896064D01*
X-5214138Y-887570D01*
X-5255734Y-883474D01*
X-5307991Y-867621D01*
X-5358424Y-856902D01*
X-5390700Y-842532D01*
X-5424713Y-832214D01*
X-5478763Y-803323D01*
X-5530500Y-780289D01*
X-5554555Y-762812D01*
X-5580448Y-748972D01*
X-5633270Y-705622D01*
X-5682887Y-669573D01*
X-5698998Y-651680D01*
X-5716949Y-636948D01*
X-5765191Y-578166D01*
X-5808924Y-529595D01*
X-5818112Y-513681D01*
X-5828973Y-500447D01*
X-5869156Y-425269D01*
X-5903104Y-366470D01*
X-5907009Y-354451D01*
X-5912215Y-344712D01*
X-5940925Y-250071D01*
X-5961311Y-187328D01*
X-5962029Y-180501D01*
X-5963475Y-175733D01*
X-5977552Y-32808D01*
X-5981000Y0D01*
X-5977552Y32806D01*
X-5963475Y175734D01*
X-5962029Y180503D01*
X-5961311Y187328D01*
X-5940929Y250058D01*
X-5912215Y344713D01*
X-5907009Y354455D01*
X-5903104Y366470D01*
X-5869164Y425258D01*
X-5828973Y500448D01*
X-5818110Y513686D01*
X-5808924Y529595D01*
X-5765200Y578157D01*
X-5716949Y636949D01*
X-5698995Y651685D01*
X-5682887Y669573D01*
X-5633280Y705615D01*
X-5580448Y748973D01*
X-5554550Y762817D01*
X-5530500Y780289D01*
X-5478774Y803319D01*
X-5424713Y832215D01*
X-5390693Y842536D01*
X-5358424Y856902D01*
X-5308002Y867620D01*
X-5255734Y883475D01*
X-5214129Y887573D01*
X-5174180Y896064D01*
X-5127914Y896064D01*
X-5080000Y900783D01*
X-5032087Y896064D01*
G37*
G36*
X5127913Y896064D02*
G01*
X5174180Y896064D01*
X5214129Y887573D01*
X5255733Y883475D01*
X5307998Y867621D01*
X5358424Y856902D01*
X5390694Y842535D01*
X5424712Y832215D01*
X5478767Y803322D01*
X5530500Y780289D01*
X5554551Y762815D01*
X5580447Y748973D01*
X5633271Y705622D01*
X5682887Y669573D01*
X5698996Y651682D01*
X5716948Y636949D01*
X5765188Y578169D01*
X5808924Y529595D01*
X5818111Y513681D01*
X5828972Y500448D01*
X5869149Y425281D01*
X5903104Y366470D01*
X5907009Y354450D01*
X5912214Y344713D01*
X5940913Y250104D01*
X5961311Y187328D01*
X5962028Y180498D01*
X5963474Y175734D01*
X5977536Y32958D01*
X5981000Y0D01*
X5977535Y-32959D01*
X5963474Y-175733D01*
X5962029Y-180496D01*
X5961311Y-187328D01*
X5940909Y-250117D01*
X5912214Y-344712D01*
X5907010Y-354447D01*
X5903104Y-366470D01*
X5869142Y-425293D01*
X5828972Y-500447D01*
X5818113Y-513677D01*
X5808924Y-529595D01*
X5765178Y-578178D01*
X5716948Y-636948D01*
X5699000Y-651677D01*
X5682887Y-669573D01*
X5633260Y-705628D01*
X5580447Y-748972D01*
X5554557Y-762810D01*
X5530500Y-780289D01*
X5478756Y-803326D01*
X5424712Y-832214D01*
X5390701Y-842531D01*
X5358424Y-856902D01*
X5307987Y-867622D01*
X5255733Y-883474D01*
X5214138Y-887570D01*
X5174180Y-896064D01*
X5127902Y-896064D01*
X5079999Y-900782D01*
X5032096Y-896064D01*
X4985820Y-896064D01*
X4945862Y-887570D01*
X4904266Y-883474D01*
X4852009Y-867621D01*
X4801576Y-856902D01*
X4769300Y-842532D01*
X4735287Y-832214D01*
X4681237Y-803323D01*
X4629500Y-780289D01*
X4605445Y-762812D01*
X4579552Y-748972D01*
X4526730Y-705622D01*
X4477113Y-669573D01*
X4461002Y-651680D01*
X4443051Y-636948D01*
X4394809Y-578166D01*
X4351076Y-529595D01*
X4341888Y-513681D01*
X4331027Y-500447D01*
X4290844Y-425269D01*
X4256896Y-366470D01*
X4252991Y-354451D01*
X4247785Y-344712D01*
X4219075Y-250071D01*
X4198689Y-187328D01*
X4197971Y-180501D01*
X4196525Y-175733D01*
X4182448Y-32808D01*
X4179000Y0D01*
X4182448Y32806D01*
X4196525Y175734D01*
X4197971Y180503D01*
X4198689Y187328D01*
X4219071Y250058D01*
X4247785Y344713D01*
X4252991Y354455D01*
X4256896Y366470D01*
X4290836Y425258D01*
X4331027Y500448D01*
X4341890Y513686D01*
X4351076Y529595D01*
X4394800Y578157D01*
X4443051Y636949D01*
X4461005Y651685D01*
X4477113Y669573D01*
X4526720Y705615D01*
X4579552Y748973D01*
X4605450Y762817D01*
X4629500Y780289D01*
X4681226Y803319D01*
X4735287Y832215D01*
X4769307Y842536D01*
X4801576Y856902D01*
X4851998Y867620D01*
X4904266Y883475D01*
X4945871Y887573D01*
X4985820Y896064D01*
X5032086Y896064D01*
X5079999Y900783D01*
X5127913Y896064D01*
G37*
G36*
X14017913Y896064D02*
G01*
X14064180Y896064D01*
X14104129Y887573D01*
X14145733Y883475D01*
X14197998Y867621D01*
X14248424Y856902D01*
X14280694Y842535D01*
X14314712Y832215D01*
X14368767Y803322D01*
X14420500Y780289D01*
X14444551Y762815D01*
X14470447Y748973D01*
X14523271Y705622D01*
X14572887Y669573D01*
X14588996Y651682D01*
X14606948Y636949D01*
X14655188Y578169D01*
X14698924Y529595D01*
X14708111Y513681D01*
X14718972Y500448D01*
X14759149Y425281D01*
X14793104Y366470D01*
X14797009Y354450D01*
X14802214Y344713D01*
X14830913Y250104D01*
X14851311Y187328D01*
X14852028Y180498D01*
X14853474Y175734D01*
X14867536Y32958D01*
X14871000Y0D01*
X14867535Y-32959D01*
X14853474Y-175733D01*
X14852029Y-180496D01*
X14851311Y-187328D01*
X14830909Y-250117D01*
X14802214Y-344712D01*
X14797010Y-354447D01*
X14793104Y-366470D01*
X14759142Y-425293D01*
X14718972Y-500447D01*
X14708113Y-513677D01*
X14698924Y-529595D01*
X14655178Y-578178D01*
X14606948Y-636948D01*
X14589000Y-651677D01*
X14572887Y-669573D01*
X14523260Y-705628D01*
X14470447Y-748972D01*
X14444557Y-762810D01*
X14420500Y-780289D01*
X14368756Y-803326D01*
X14314712Y-832214D01*
X14280701Y-842531D01*
X14248424Y-856902D01*
X14197987Y-867622D01*
X14145733Y-883474D01*
X14104138Y-887570D01*
X14064180Y-896064D01*
X14017902Y-896064D01*
X13969999Y-900782D01*
X13922096Y-896064D01*
X13875820Y-896064D01*
X13835862Y-887570D01*
X13794266Y-883474D01*
X13742009Y-867621D01*
X13691576Y-856902D01*
X13659300Y-842532D01*
X13625287Y-832214D01*
X13571237Y-803323D01*
X13519500Y-780289D01*
X13495445Y-762812D01*
X13469552Y-748972D01*
X13416730Y-705622D01*
X13367113Y-669573D01*
X13351002Y-651680D01*
X13333051Y-636948D01*
X13284809Y-578166D01*
X13241076Y-529595D01*
X13231888Y-513681D01*
X13221027Y-500447D01*
X13180844Y-425269D01*
X13146896Y-366470D01*
X13142991Y-354451D01*
X13137785Y-344712D01*
X13109075Y-250071D01*
X13088689Y-187328D01*
X13087971Y-180501D01*
X13086525Y-175733D01*
X13072448Y-32808D01*
X13069000Y0D01*
X13072448Y32806D01*
X13086525Y175734D01*
X13087971Y180503D01*
X13088689Y187328D01*
X13109071Y250058D01*
X13137785Y344713D01*
X13142991Y354455D01*
X13146896Y366470D01*
X13180836Y425258D01*
X13221027Y500448D01*
X13231890Y513686D01*
X13241076Y529595D01*
X13284800Y578157D01*
X13333051Y636949D01*
X13351005Y651685D01*
X13367113Y669573D01*
X13416720Y705615D01*
X13469552Y748973D01*
X13495450Y762817D01*
X13519500Y780289D01*
X13571226Y803319D01*
X13625287Y832215D01*
X13659307Y842536D01*
X13691576Y856902D01*
X13741998Y867620D01*
X13794266Y883475D01*
X13835871Y887573D01*
X13875820Y896064D01*
X13922086Y896064D01*
X13969999Y900783D01*
X14017913Y896064D01*
G37*
G36*
X24177913Y896064D02*
G01*
X24224180Y896064D01*
X24264129Y887573D01*
X24305733Y883475D01*
X24357998Y867621D01*
X24408424Y856902D01*
X24440694Y842535D01*
X24474712Y832215D01*
X24528767Y803322D01*
X24580500Y780289D01*
X24604551Y762815D01*
X24630447Y748973D01*
X24683271Y705622D01*
X24732887Y669573D01*
X24748996Y651682D01*
X24766948Y636949D01*
X24815188Y578169D01*
X24858924Y529595D01*
X24868111Y513681D01*
X24878972Y500448D01*
X24919149Y425281D01*
X24953104Y366470D01*
X24957009Y354450D01*
X24962214Y344713D01*
X24990913Y250104D01*
X25011311Y187328D01*
X25012028Y180498D01*
X25013474Y175734D01*
X25027536Y32958D01*
X25031000Y0D01*
X25027535Y-32959D01*
X25013474Y-175733D01*
X25012029Y-180496D01*
X25011311Y-187328D01*
X24990909Y-250117D01*
X24962214Y-344712D01*
X24957010Y-354447D01*
X24953104Y-366470D01*
X24919142Y-425293D01*
X24878972Y-500447D01*
X24868113Y-513677D01*
X24858924Y-529595D01*
X24815178Y-578178D01*
X24766948Y-636948D01*
X24749000Y-651677D01*
X24732887Y-669573D01*
X24683260Y-705628D01*
X24630447Y-748972D01*
X24604557Y-762810D01*
X24580500Y-780289D01*
X24528756Y-803326D01*
X24474712Y-832214D01*
X24440701Y-842531D01*
X24408424Y-856902D01*
X24357987Y-867622D01*
X24305733Y-883474D01*
X24264138Y-887570D01*
X24224180Y-896064D01*
X24177903Y-896064D01*
X24130000Y-900782D01*
X24082097Y-896064D01*
X24035820Y-896064D01*
X23995862Y-887570D01*
X23954266Y-883474D01*
X23902009Y-867621D01*
X23851576Y-856902D01*
X23819300Y-842532D01*
X23785287Y-832214D01*
X23731237Y-803323D01*
X23679500Y-780289D01*
X23655445Y-762812D01*
X23629552Y-748972D01*
X23576730Y-705622D01*
X23527113Y-669573D01*
X23511002Y-651680D01*
X23493051Y-636948D01*
X23444809Y-578166D01*
X23401076Y-529595D01*
X23391888Y-513681D01*
X23381027Y-500447D01*
X23340844Y-425269D01*
X23306896Y-366470D01*
X23302991Y-354451D01*
X23297785Y-344712D01*
X23269075Y-250071D01*
X23248689Y-187328D01*
X23247971Y-180501D01*
X23246525Y-175733D01*
X23232448Y-32808D01*
X23229000Y0D01*
X23232448Y32806D01*
X23246525Y175734D01*
X23247971Y180503D01*
X23248689Y187328D01*
X23269071Y250058D01*
X23297785Y344713D01*
X23302991Y354455D01*
X23306896Y366470D01*
X23340836Y425258D01*
X23381027Y500448D01*
X23391890Y513686D01*
X23401076Y529595D01*
X23444800Y578157D01*
X23493051Y636949D01*
X23511005Y651685D01*
X23527113Y669573D01*
X23576720Y705615D01*
X23629552Y748973D01*
X23655450Y762817D01*
X23679500Y780289D01*
X23731226Y803319D01*
X23785287Y832215D01*
X23819307Y842536D01*
X23851576Y856902D01*
X23901998Y867620D01*
X23954266Y883475D01*
X23995871Y887573D01*
X24035820Y896064D01*
X24082086Y896064D01*
X24129999Y900783D01*
X24177913Y896064D01*
G37*
G36*
X-18260483Y10632118D02*
G01*
X-18243938Y10621062D01*
X-18232882Y10604517D01*
X-18229000Y10585000D01*
X-18229000Y9835000D01*
X-18232882Y9815483D01*
X-18243938Y9798938D01*
X-18260483Y9787882D01*
X-18280000Y9784000D01*
X-19280000Y9784000D01*
X-19299517Y9787882D01*
X-19316062Y9798938D01*
X-19327118Y9815483D01*
X-19331000Y9835000D01*
X-19331000Y10585000D01*
X-19327118Y10604517D01*
X-19316062Y10621062D01*
X-19299517Y10632118D01*
X-19280000Y10636000D01*
X-18280000Y10636000D01*
X-18260483Y10632118D01*
G37*
G36*
X-12260483Y10632118D02*
G01*
X-12243938Y10621062D01*
X-12232882Y10604517D01*
X-12229000Y10585000D01*
X-12229000Y9835000D01*
X-12232882Y9815483D01*
X-12243938Y9798938D01*
X-12260483Y9787882D01*
X-12280000Y9784000D01*
X-13280000Y9784000D01*
X-13299517Y9787882D01*
X-13316062Y9798938D01*
X-13327118Y9815483D01*
X-13331000Y9835000D01*
X-13331000Y10585000D01*
X-13327118Y10604517D01*
X-13316062Y10621062D01*
X-13299517Y10632118D01*
X-13280000Y10636000D01*
X-12280000Y10636000D01*
X-12260483Y10632118D01*
G37*
G36*
X-1250483Y14457118D02*
G01*
X-1233938Y14446062D01*
X-1222882Y14429517D01*
X-1219000Y14410000D01*
X-1219000Y13510000D01*
X-1222882Y13490483D01*
X-1233938Y13473938D01*
X-1250483Y13462882D01*
X-1270000Y13459000D01*
X-2770000Y13459000D01*
X-2789517Y13462882D01*
X-2806062Y13473938D01*
X-2817118Y13490483D01*
X-2821000Y13510000D01*
X-2821000Y14410000D01*
X-2817118Y14429517D01*
X-2806062Y14446062D01*
X-2789517Y14457118D01*
X-2770000Y14461000D01*
X-1270000Y14461000D01*
X-1250483Y14457118D01*
G37*
G36*
X3649517Y14457118D02*
G01*
X3666062Y14446062D01*
X3677118Y14429517D01*
X3681000Y14410000D01*
X3681000Y13510000D01*
X3677118Y13490483D01*
X3666062Y13473938D01*
X3649517Y13462882D01*
X3630000Y13459000D01*
X2130000Y13459000D01*
X2110483Y13462882D01*
X2093938Y13473938D01*
X2082882Y13490483D01*
X2079000Y13510000D01*
X2079000Y14410000D01*
X2082882Y14429517D01*
X2093938Y14446062D01*
X2110483Y14457118D01*
X2130000Y14461000D01*
X3630000Y14461000D01*
X3649517Y14457118D01*
G37*
G36*
X-18260483Y14382118D02*
G01*
X-18243938Y14371062D01*
X-18232882Y14354517D01*
X-18229000Y14335000D01*
X-18229000Y13585000D01*
X-18232882Y13565483D01*
X-18243938Y13548938D01*
X-18260483Y13537882D01*
X-18280000Y13534000D01*
X-19280000Y13534000D01*
X-19299517Y13537882D01*
X-19316062Y13548938D01*
X-19327118Y13565483D01*
X-19331000Y13585000D01*
X-19331000Y14335000D01*
X-19327118Y14354517D01*
X-19316062Y14371062D01*
X-19299517Y14382118D01*
X-19280000Y14386000D01*
X-18280000Y14386000D01*
X-18260483Y14382118D01*
G37*
G36*
X-12260483Y14382118D02*
G01*
X-12243938Y14371062D01*
X-12232882Y14354517D01*
X-12229000Y14335000D01*
X-12229000Y13585000D01*
X-12232882Y13565483D01*
X-12243938Y13548938D01*
X-12260483Y13537882D01*
X-12280000Y13534000D01*
X-13280000Y13534000D01*
X-13299517Y13537882D01*
X-13316062Y13548938D01*
X-13327118Y13565483D01*
X-13331000Y13585000D01*
X-13331000Y14335000D01*
X-13327118Y14354517D01*
X-13316062Y14371062D01*
X-13299517Y14382118D01*
X-13280000Y14386000D01*
X-12280000Y14386000D01*
X-12260483Y14382118D01*
G37*
G36*
X-14676907Y15916461D02*
G01*
X-14614943Y15875057D01*
X-14573539Y15813093D01*
X-14559000Y15740000D01*
X-14559000Y15460000D01*
X-14573539Y15386907D01*
X-14614943Y15324943D01*
X-14676907Y15283539D01*
X-14750000Y15269000D01*
X-15090000Y15269000D01*
X-15163093Y15283539D01*
X-15225057Y15324943D01*
X-15266461Y15386907D01*
X-15281000Y15460000D01*
X-15281000Y15740000D01*
X-15266461Y15813093D01*
X-15225057Y15875057D01*
X-15163093Y15916461D01*
X-15090000Y15931000D01*
X-14750000Y15931000D01*
X-14676907Y15916461D01*
G37*
G36*
X-14676907Y16876461D02*
G01*
X-14614943Y16835057D01*
X-14573539Y16773093D01*
X-14559000Y16700000D01*
X-14559000Y16420000D01*
X-14573539Y16346907D01*
X-14614943Y16284943D01*
X-14676907Y16243539D01*
X-14750000Y16229000D01*
X-15090000Y16229000D01*
X-15163093Y16243539D01*
X-15225057Y16284943D01*
X-15266461Y16346907D01*
X-15281000Y16420000D01*
X-15281000Y16700000D01*
X-15266461Y16773093D01*
X-15225057Y16835057D01*
X-15163093Y16876461D01*
X-15090000Y16891000D01*
X-14750000Y16891000D01*
X-14676907Y16876461D01*
G37*
G36*
X-1250483Y17757118D02*
G01*
X-1233938Y17746062D01*
X-1222882Y17729517D01*
X-1219000Y17710000D01*
X-1219000Y16810000D01*
X-1222882Y16790483D01*
X-1233938Y16773938D01*
X-1250483Y16762882D01*
X-1270000Y16759000D01*
X-2770000Y16759000D01*
X-2789517Y16762882D01*
X-2806062Y16773938D01*
X-2817118Y16790483D01*
X-2821000Y16810000D01*
X-2821000Y17710000D01*
X-2817118Y17729517D01*
X-2806062Y17746062D01*
X-2789517Y17757118D01*
X-2770000Y17761000D01*
X-1270000Y17761000D01*
X-1250483Y17757118D01*
G37*
G36*
X3649517Y17757118D02*
G01*
X3666062Y17746062D01*
X3677118Y17729517D01*
X3681000Y17710000D01*
X3681000Y16810000D01*
X3677118Y16790483D01*
X3666062Y16773938D01*
X3649517Y16762882D01*
X3630000Y16759000D01*
X2130000Y16759000D01*
X2110483Y16762882D01*
X2093938Y16773938D01*
X2082882Y16790483D01*
X2079000Y16810000D01*
X2079000Y17710000D01*
X2082882Y17729517D01*
X2093938Y17746062D01*
X2110483Y17757118D01*
X2130000Y17761000D01*
X3630000Y17761000D01*
X3649517Y17757118D01*
G37*
G36*
X-4565581Y18265700D02*
G01*
X-4500372Y18222128D01*
X-4456800Y18156919D01*
X-4441500Y18080000D01*
X-4441500Y17780000D01*
X-4456800Y17703081D01*
X-4500372Y17637872D01*
X-4565581Y17594300D01*
X-4642500Y17579000D01*
X-5817500Y17579000D01*
X-5894419Y17594300D01*
X-5959628Y17637872D01*
X-6003200Y17703081D01*
X-6018500Y17780000D01*
X-6018500Y18080000D01*
X-6003200Y18156919D01*
X-5959628Y18222128D01*
X-5894419Y18265700D01*
X-5817500Y18281000D01*
X-4642500Y18281000D01*
X-4565581Y18265700D01*
G37*
G36*
X-6676321Y18386842D02*
G01*
X-6615978Y18346522D01*
X-6575658Y18286179D01*
X-6561500Y18215000D01*
X-6561500Y17945000D01*
X-6575658Y17873821D01*
X-6615978Y17813478D01*
X-6676321Y17773158D01*
X-6747500Y17759000D01*
X-7117500Y17759000D01*
X-7188679Y17773158D01*
X-7249022Y17813478D01*
X-7289342Y17873821D01*
X-7303500Y17945000D01*
X-7303500Y18215000D01*
X-7289342Y18286179D01*
X-7249022Y18346522D01*
X-7188679Y18386842D01*
X-7117500Y18401000D01*
X-6747500Y18401000D01*
X-6676321Y18386842D01*
G37*
G36*
X-18950483Y19517118D02*
G01*
X-18933938Y19506062D01*
X-18922882Y19489517D01*
X-18919000Y19470000D01*
X-18919000Y18570000D01*
X-18922882Y18550483D01*
X-18933938Y18533938D01*
X-18950483Y18522882D01*
X-18970000Y18519000D01*
X-20470000Y18519000D01*
X-20489517Y18522882D01*
X-20506062Y18533938D01*
X-20517118Y18550483D01*
X-20521000Y18570000D01*
X-20521000Y19470000D01*
X-20517118Y19489517D01*
X-20506062Y19506062D01*
X-20489517Y19517118D01*
X-20470000Y19521000D01*
X-18970000Y19521000D01*
X-18950483Y19517118D01*
G37*
G36*
X-14050483Y19517118D02*
G01*
X-14033938Y19506062D01*
X-14022882Y19489517D01*
X-14019000Y19470000D01*
X-14019000Y18570000D01*
X-14022882Y18550483D01*
X-14033938Y18533938D01*
X-14050483Y18522882D01*
X-14070000Y18519000D01*
X-15570000Y18519000D01*
X-15589517Y18522882D01*
X-15606062Y18533938D01*
X-15617118Y18550483D01*
X-15621000Y18570000D01*
X-15621000Y19470000D01*
X-15617118Y19489517D01*
X-15606062Y19506062D01*
X-15589517Y19517118D01*
X-15570000Y19521000D01*
X-14070000Y19521000D01*
X-14050483Y19517118D01*
G37*
G36*
X-2690581Y19215700D02*
G01*
X-2625372Y19172128D01*
X-2581800Y19106919D01*
X-2566500Y19030000D01*
X-2566500Y18730000D01*
X-2581800Y18653081D01*
X-2625372Y18587872D01*
X-2690581Y18544300D01*
X-2767500Y18529000D01*
X-3942500Y18529000D01*
X-4019419Y18544300D01*
X-4084628Y18587872D01*
X-4128200Y18653081D01*
X-4143500Y18730000D01*
X-4143500Y19030000D01*
X-4128200Y19106919D01*
X-4084628Y19172128D01*
X-4019419Y19215700D01*
X-3942500Y19231000D01*
X-2767500Y19231000D01*
X-2690581Y19215700D01*
G37*
G36*
X3623093Y19196461D02*
G01*
X3685057Y19155057D01*
X3726461Y19093093D01*
X3741000Y19020000D01*
X3741000Y18740000D01*
X3726461Y18666907D01*
X3685057Y18604943D01*
X3623093Y18563539D01*
X3550000Y18549000D01*
X3210000Y18549000D01*
X3136907Y18563539D01*
X3074943Y18604943D01*
X3033539Y18666907D01*
X3019000Y18740000D01*
X3019000Y19020000D01*
X3033539Y19093093D01*
X3074943Y19155057D01*
X3136907Y19196461D01*
X3210000Y19211000D01*
X3550000Y19211000D01*
X3623093Y19196461D01*
G37*
G36*
X-1548821Y19201842D02*
G01*
X-1488478Y19161522D01*
X-1448158Y19101179D01*
X-1434000Y19030000D01*
X-1434000Y18760000D01*
X-1448158Y18688821D01*
X-1488478Y18628478D01*
X-1548821Y18588158D01*
X-1620000Y18574000D01*
X-1990000Y18574000D01*
X-2061179Y18588158D01*
X-2121522Y18628478D01*
X-2161842Y18688821D01*
X-2176000Y18760000D01*
X-2176000Y19030000D01*
X-2161842Y19101179D01*
X-2121522Y19161522D01*
X-2061179Y19201842D01*
X-1990000Y19216000D01*
X-1620000Y19216000D01*
X-1548821Y19201842D01*
G37*
G36*
X-6676321Y19406842D02*
G01*
X-6615978Y19366522D01*
X-6575658Y19306179D01*
X-6561500Y19235000D01*
X-6561500Y18965000D01*
X-6575658Y18893821D01*
X-6615978Y18833478D01*
X-6676321Y18793158D01*
X-6747500Y18779000D01*
X-7117500Y18779000D01*
X-7188679Y18793158D01*
X-7249022Y18833478D01*
X-7289342Y18893821D01*
X-7303500Y18965000D01*
X-7303500Y19235000D01*
X-7289342Y19306179D01*
X-7249022Y19366522D01*
X-7188679Y19406842D01*
X-7117500Y19421000D01*
X-6747500Y19421000D01*
X-6676321Y19406842D01*
G37*
G36*
X12929517Y19827118D02*
G01*
X12946062Y19816062D01*
X12957118Y19799517D01*
X12961000Y19780000D01*
X12961000Y18880000D01*
X12957118Y18860483D01*
X12946062Y18843938D01*
X12929517Y18832882D01*
X12910000Y18829000D01*
X11410000Y18829000D01*
X11390483Y18832882D01*
X11373938Y18843938D01*
X11362882Y18860483D01*
X11359000Y18880000D01*
X11359000Y19780000D01*
X11362882Y19799517D01*
X11373938Y19816062D01*
X11390483Y19827118D01*
X11410000Y19831000D01*
X12910000Y19831000D01*
X12929517Y19827118D01*
G37*
G36*
X17829517Y19827118D02*
G01*
X17846062Y19816062D01*
X17857118Y19799517D01*
X17861000Y19780000D01*
X17861000Y18880000D01*
X17857118Y18860483D01*
X17846062Y18843938D01*
X17829517Y18832882D01*
X17810000Y18829000D01*
X16310000Y18829000D01*
X16290483Y18832882D01*
X16273938Y18843938D01*
X16262882Y18860483D01*
X16259000Y18880000D01*
X16259000Y19780000D01*
X16262882Y19799517D01*
X16273938Y19816062D01*
X16290483Y19827118D01*
X16310000Y19831000D01*
X17810000Y19831000D01*
X17829517Y19827118D01*
G37*
G36*
X-4565581Y20165700D02*
G01*
X-4500372Y20122128D01*
X-4456800Y20056919D01*
X-4441500Y19980000D01*
X-4441500Y19680000D01*
X-4456800Y19603081D01*
X-4500372Y19537872D01*
X-4565581Y19494300D01*
X-4642500Y19479000D01*
X-5817500Y19479000D01*
X-5894419Y19494300D01*
X-5959628Y19537872D01*
X-6003200Y19603081D01*
X-6018500Y19680000D01*
X-6018500Y19980000D01*
X-6003200Y20056919D01*
X-5959628Y20122128D01*
X-5894419Y20165700D01*
X-5817500Y20181000D01*
X-4642500Y20181000D01*
X-4565581Y20165700D01*
G37*
G36*
X3623093Y20156461D02*
G01*
X3685057Y20115057D01*
X3726461Y20053093D01*
X3741000Y19980000D01*
X3741000Y19700000D01*
X3726461Y19626907D01*
X3685057Y19564943D01*
X3623093Y19523539D01*
X3550000Y19509000D01*
X3210000Y19509000D01*
X3136907Y19523539D01*
X3074943Y19564943D01*
X3033539Y19626907D01*
X3019000Y19700000D01*
X3019000Y19980000D01*
X3033539Y20053093D01*
X3074943Y20115057D01*
X3136907Y20156461D01*
X3210000Y20171000D01*
X3550000Y20171000D01*
X3623093Y20156461D01*
G37*
G36*
X-1548821Y20221842D02*
G01*
X-1488478Y20181522D01*
X-1448158Y20121179D01*
X-1434000Y20050000D01*
X-1434000Y19780000D01*
X-1448158Y19708821D01*
X-1488478Y19648478D01*
X-1548821Y19608158D01*
X-1620000Y19594000D01*
X-1990000Y19594000D01*
X-2061179Y19608158D01*
X-2121522Y19648478D01*
X-2161842Y19708821D01*
X-2176000Y19780000D01*
X-2176000Y20050000D01*
X-2161842Y20121179D01*
X-2121522Y20181522D01*
X-2061179Y20221842D01*
X-1990000Y20236000D01*
X-1620000Y20236000D01*
X-1548821Y20221842D01*
G37*
G36*
X-12910483Y21447118D02*
G01*
X-12893938Y21436062D01*
X-12882882Y21419517D01*
X-12879000Y21400000D01*
X-12879000Y20650000D01*
X-12882882Y20630483D01*
X-12893938Y20613938D01*
X-12910483Y20602882D01*
X-12930000Y20599000D01*
X-13930000Y20599000D01*
X-13949517Y20602882D01*
X-13966062Y20613938D01*
X-13977118Y20630483D01*
X-13981000Y20650000D01*
X-13981000Y21400000D01*
X-13977118Y21419517D01*
X-13966062Y21436062D01*
X-13949517Y21447118D01*
X-13930000Y21451000D01*
X-12930000Y21451000D01*
X-12910483Y21447118D01*
G37*
G36*
X-6910483Y21447118D02*
G01*
X-6893938Y21436062D01*
X-6882882Y21419517D01*
X-6879000Y21400000D01*
X-6879000Y20650000D01*
X-6882882Y20630483D01*
X-6893938Y20613938D01*
X-6910483Y20602882D01*
X-6930000Y20599000D01*
X-7930000Y20599000D01*
X-7949517Y20602882D01*
X-7966062Y20613938D01*
X-7977118Y20630483D01*
X-7981000Y20650000D01*
X-7981000Y21400000D01*
X-7977118Y21419517D01*
X-7966062Y21436062D01*
X-7949517Y21447118D01*
X-7930000Y21451000D01*
X-6930000Y21451000D01*
X-6910483Y21447118D01*
G37*
G36*
X18803093Y22106461D02*
G01*
X18865057Y22065057D01*
X18906461Y22003093D01*
X18921000Y21930000D01*
X18921000Y21650000D01*
X18906461Y21576907D01*
X18865057Y21514943D01*
X18803093Y21473539D01*
X18730000Y21459000D01*
X18390000Y21459000D01*
X18316907Y21473539D01*
X18254943Y21514943D01*
X18213539Y21576907D01*
X18199000Y21650000D01*
X18199000Y21930000D01*
X18213539Y22003093D01*
X18254943Y22065057D01*
X18316907Y22106461D01*
X18390000Y22121000D01*
X18730000Y22121000D01*
X18803093Y22106461D01*
G37*
G36*
X-18950483Y22817118D02*
G01*
X-18933938Y22806062D01*
X-18922882Y22789517D01*
X-18919000Y22770000D01*
X-18919000Y21870000D01*
X-18922882Y21850483D01*
X-18933938Y21833938D01*
X-18950483Y21822882D01*
X-18970000Y21819000D01*
X-20470000Y21819000D01*
X-20489517Y21822882D01*
X-20506062Y21833938D01*
X-20517118Y21850483D01*
X-20521000Y21870000D01*
X-20521000Y22770000D01*
X-20517118Y22789517D01*
X-20506062Y22806062D01*
X-20489517Y22817118D01*
X-20470000Y22821000D01*
X-18970000Y22821000D01*
X-18950483Y22817118D01*
G37*
G36*
X-14050483Y22817118D02*
G01*
X-14033938Y22806062D01*
X-14022882Y22789517D01*
X-14019000Y22770000D01*
X-14019000Y21870000D01*
X-14022882Y21850483D01*
X-14033938Y21833938D01*
X-14050483Y21822882D01*
X-14070000Y21819000D01*
X-15570000Y21819000D01*
X-15589517Y21822882D01*
X-15606062Y21833938D01*
X-15617118Y21850483D01*
X-15621000Y21870000D01*
X-15621000Y22770000D01*
X-15617118Y22789517D01*
X-15606062Y22806062D01*
X-15589517Y22817118D01*
X-15570000Y22821000D01*
X-14070000Y22821000D01*
X-14050483Y22817118D01*
G37*
G36*
X12929517Y23127118D02*
G01*
X12946062Y23116062D01*
X12957118Y23099517D01*
X12961000Y23080000D01*
X12961000Y22180000D01*
X12957118Y22160483D01*
X12946062Y22143938D01*
X12929517Y22132882D01*
X12910000Y22129000D01*
X11410000Y22129000D01*
X11390483Y22132882D01*
X11373938Y22143938D01*
X11362882Y22160483D01*
X11359000Y22180000D01*
X11359000Y23080000D01*
X11362882Y23099517D01*
X11373938Y23116062D01*
X11390483Y23127118D01*
X11410000Y23131000D01*
X12910000Y23131000D01*
X12929517Y23127118D01*
G37*
G36*
X17829517Y23127118D02*
G01*
X17846062Y23116062D01*
X17857118Y23099517D01*
X17861000Y23080000D01*
X17861000Y22180000D01*
X17857118Y22160483D01*
X17846062Y22143938D01*
X17829517Y22132882D01*
X17810000Y22129000D01*
X16310000Y22129000D01*
X16290483Y22132882D01*
X16273938Y22143938D01*
X16262882Y22160483D01*
X16259000Y22180000D01*
X16259000Y23080000D01*
X16262882Y23099517D01*
X16273938Y23116062D01*
X16290483Y23127118D01*
X16310000Y23131000D01*
X17810000Y23131000D01*
X17829517Y23127118D01*
G37*
G36*
X18803093Y23066461D02*
G01*
X18865057Y23025057D01*
X18906461Y22963093D01*
X18921000Y22890000D01*
X18921000Y22610000D01*
X18906461Y22536907D01*
X18865057Y22474943D01*
X18803093Y22433539D01*
X18730000Y22419000D01*
X18390000Y22419000D01*
X18316907Y22433539D01*
X18254943Y22474943D01*
X18213539Y22536907D01*
X18199000Y22610000D01*
X18199000Y22890000D01*
X18213539Y22963093D01*
X18254943Y23025057D01*
X18316907Y23066461D01*
X18390000Y23081000D01*
X18730000Y23081000D01*
X18803093Y23066461D01*
G37*
G36*
X-16116907Y24316461D02*
G01*
X-16054943Y24275057D01*
X-16013539Y24213093D01*
X-15999000Y24140000D01*
X-15999000Y23800000D01*
X-16013539Y23726907D01*
X-16054943Y23664943D01*
X-16116907Y23623539D01*
X-16190000Y23609000D01*
X-16470000Y23609000D01*
X-16543093Y23623539D01*
X-16605057Y23664943D01*
X-16646461Y23726907D01*
X-16661000Y23800000D01*
X-16661000Y24140000D01*
X-16646461Y24213093D01*
X-16605057Y24275057D01*
X-16543093Y24316461D01*
X-16470000Y24331000D01*
X-16190000Y24331000D01*
X-16116907Y24316461D01*
G37*
G36*
X-15156907Y24316461D02*
G01*
X-15094943Y24275057D01*
X-15053539Y24213093D01*
X-15039000Y24140000D01*
X-15039000Y23800000D01*
X-15053539Y23726907D01*
X-15094943Y23664943D01*
X-15156907Y23623539D01*
X-15230000Y23609000D01*
X-15510000Y23609000D01*
X-15583093Y23623539D01*
X-15645057Y23664943D01*
X-15686461Y23726907D01*
X-15701000Y23800000D01*
X-15701000Y24140000D01*
X-15686461Y24213093D01*
X-15645057Y24275057D01*
X-15583093Y24316461D01*
X-15510000Y24331000D01*
X-15230000Y24331000D01*
X-15156907Y24316461D01*
G37*
G36*
X-12910483Y25197118D02*
G01*
X-12893938Y25186062D01*
X-12882882Y25169517D01*
X-12879000Y25150000D01*
X-12879000Y24400000D01*
X-12882882Y24380483D01*
X-12893938Y24363938D01*
X-12910483Y24352882D01*
X-12930000Y24349000D01*
X-13930000Y24349000D01*
X-13949517Y24352882D01*
X-13966062Y24363938D01*
X-13977118Y24380483D01*
X-13981000Y24400000D01*
X-13981000Y25150000D01*
X-13977118Y25169517D01*
X-13966062Y25186062D01*
X-13949517Y25197118D01*
X-13930000Y25201000D01*
X-12930000Y25201000D01*
X-12910483Y25197118D01*
G37*
G36*
X-6910483Y25197118D02*
G01*
X-6893938Y25186062D01*
X-6882882Y25169517D01*
X-6879000Y25150000D01*
X-6879000Y24400000D01*
X-6882882Y24380483D01*
X-6893938Y24363938D01*
X-6910483Y24352882D01*
X-6930000Y24349000D01*
X-7930000Y24349000D01*
X-7949517Y24352882D01*
X-7966062Y24363938D01*
X-7977118Y24380483D01*
X-7981000Y24400000D01*
X-7981000Y25150000D01*
X-7977118Y25169517D01*
X-7966062Y25186062D01*
X-7949517Y25197118D01*
X-7930000Y25201000D01*
X-6930000Y25201000D01*
X-6910483Y25197118D01*
G37*
G36*
X-14930483Y27812118D02*
G01*
X-14913938Y27801062D01*
X-14902882Y27784517D01*
X-14899000Y27765000D01*
X-14899000Y26065000D01*
X-14902882Y26045483D01*
X-14913938Y26028938D01*
X-14930483Y26017882D01*
X-14950000Y26014000D01*
X-16650000Y26014000D01*
X-16669517Y26017882D01*
X-16686062Y26028938D01*
X-16697118Y26045483D01*
X-16701000Y26065000D01*
X-16701000Y27765000D01*
X-16697118Y27784517D01*
X-16686062Y27801062D01*
X-16669517Y27812118D01*
X-16650000Y27816000D01*
X-14950000Y27816000D01*
X-14930483Y27812118D01*
G37*
G36*
X-13212087Y27811064D02*
G01*
X-13165820Y27811064D01*
X-13125871Y27802573D01*
X-13084267Y27798475D01*
X-13032002Y27782621D01*
X-12981576Y27771902D01*
X-12949306Y27757535D01*
X-12915288Y27747215D01*
X-12861233Y27718322D01*
X-12809500Y27695289D01*
X-12785449Y27677815D01*
X-12759553Y27663973D01*
X-12706729Y27620622D01*
X-12657113Y27584573D01*
X-12641004Y27566682D01*
X-12623052Y27551949D01*
X-12574812Y27493169D01*
X-12531076Y27444595D01*
X-12521889Y27428681D01*
X-12511028Y27415448D01*
X-12470851Y27340281D01*
X-12436896Y27281470D01*
X-12432991Y27269450D01*
X-12427786Y27259713D01*
X-12399087Y27165104D01*
X-12378689Y27102328D01*
X-12377972Y27095498D01*
X-12376526Y27090734D01*
X-12362464Y26947958D01*
X-12359000Y26915000D01*
X-12362465Y26882041D01*
X-12376526Y26739267D01*
X-12377971Y26734504D01*
X-12378689Y26727672D01*
X-12399091Y26664883D01*
X-12427786Y26570288D01*
X-12432990Y26560553D01*
X-12436896Y26548530D01*
X-12470858Y26489707D01*
X-12511028Y26414553D01*
X-12521887Y26401323D01*
X-12531076Y26385405D01*
X-12574822Y26336822D01*
X-12623052Y26278052D01*
X-12641000Y26263323D01*
X-12657113Y26245427D01*
X-12706740Y26209372D01*
X-12759553Y26166028D01*
X-12785443Y26152190D01*
X-12809500Y26134711D01*
X-12861244Y26111674D01*
X-12915288Y26082786D01*
X-12949299Y26072469D01*
X-12981576Y26058098D01*
X-13032013Y26047378D01*
X-13084267Y26031526D01*
X-13125862Y26027430D01*
X-13165820Y26018936D01*
X-13212098Y26018936D01*
X-13260001Y26014218D01*
X-13307904Y26018936D01*
X-13354180Y26018936D01*
X-13394138Y26027430D01*
X-13435734Y26031526D01*
X-13487991Y26047379D01*
X-13538424Y26058098D01*
X-13570700Y26072468D01*
X-13604713Y26082786D01*
X-13658763Y26111677D01*
X-13710500Y26134711D01*
X-13734555Y26152188D01*
X-13760448Y26166028D01*
X-13813270Y26209378D01*
X-13862887Y26245427D01*
X-13878998Y26263320D01*
X-13896949Y26278052D01*
X-13945191Y26336834D01*
X-13988924Y26385405D01*
X-13998112Y26401319D01*
X-14008973Y26414553D01*
X-14049156Y26489731D01*
X-14083104Y26548530D01*
X-14087009Y26560549D01*
X-14092215Y26570288D01*
X-14120925Y26664929D01*
X-14141311Y26727672D01*
X-14142029Y26734499D01*
X-14143475Y26739267D01*
X-14157552Y26882192D01*
X-14161000Y26915000D01*
X-14157552Y26947806D01*
X-14143475Y27090734D01*
X-14142029Y27095503D01*
X-14141311Y27102328D01*
X-14120929Y27165058D01*
X-14092215Y27259713D01*
X-14087009Y27269455D01*
X-14083104Y27281470D01*
X-14049164Y27340258D01*
X-14008973Y27415448D01*
X-13998110Y27428686D01*
X-13988924Y27444595D01*
X-13945200Y27493157D01*
X-13896949Y27551949D01*
X-13878995Y27566685D01*
X-13862887Y27584573D01*
X-13813280Y27620615D01*
X-13760448Y27663973D01*
X-13734550Y27677817D01*
X-13710500Y27695289D01*
X-13658774Y27718319D01*
X-13604713Y27747215D01*
X-13570693Y27757536D01*
X-13538424Y27771902D01*
X-13488002Y27782620D01*
X-13435734Y27798475D01*
X-13394129Y27802573D01*
X-13354180Y27811064D01*
X-13307914Y27811064D01*
X-13260001Y27815783D01*
X-13212087Y27811064D01*
G37*
G36*
X-10672087Y27811064D02*
G01*
X-10625820Y27811064D01*
X-10585871Y27802573D01*
X-10544267Y27798475D01*
X-10492002Y27782621D01*
X-10441576Y27771902D01*
X-10409306Y27757535D01*
X-10375288Y27747215D01*
X-10321233Y27718322D01*
X-10269500Y27695289D01*
X-10245449Y27677815D01*
X-10219553Y27663973D01*
X-10166729Y27620622D01*
X-10117113Y27584573D01*
X-10101004Y27566682D01*
X-10083052Y27551949D01*
X-10034812Y27493169D01*
X-9991076Y27444595D01*
X-9981889Y27428681D01*
X-9971028Y27415448D01*
X-9930851Y27340281D01*
X-9896896Y27281470D01*
X-9892991Y27269450D01*
X-9887786Y27259713D01*
X-9859087Y27165104D01*
X-9838689Y27102328D01*
X-9837972Y27095498D01*
X-9836526Y27090734D01*
X-9822464Y26947958D01*
X-9819000Y26915000D01*
X-9822465Y26882041D01*
X-9836526Y26739267D01*
X-9837971Y26734504D01*
X-9838689Y26727672D01*
X-9859091Y26664883D01*
X-9887786Y26570288D01*
X-9892990Y26560553D01*
X-9896896Y26548530D01*
X-9930858Y26489707D01*
X-9971028Y26414553D01*
X-9981887Y26401323D01*
X-9991076Y26385405D01*
X-10034822Y26336822D01*
X-10083052Y26278052D01*
X-10101000Y26263323D01*
X-10117113Y26245427D01*
X-10166740Y26209372D01*
X-10219553Y26166028D01*
X-10245443Y26152190D01*
X-10269500Y26134711D01*
X-10321244Y26111674D01*
X-10375288Y26082786D01*
X-10409299Y26072469D01*
X-10441576Y26058098D01*
X-10492013Y26047378D01*
X-10544267Y26031526D01*
X-10585862Y26027430D01*
X-10625820Y26018936D01*
X-10672098Y26018936D01*
X-10720001Y26014218D01*
X-10767904Y26018936D01*
X-10814180Y26018936D01*
X-10854138Y26027430D01*
X-10895734Y26031526D01*
X-10947991Y26047379D01*
X-10998424Y26058098D01*
X-11030700Y26072468D01*
X-11064713Y26082786D01*
X-11118763Y26111677D01*
X-11170500Y26134711D01*
X-11194555Y26152188D01*
X-11220448Y26166028D01*
X-11273270Y26209378D01*
X-11322887Y26245427D01*
X-11338998Y26263320D01*
X-11356949Y26278052D01*
X-11405191Y26336834D01*
X-11448924Y26385405D01*
X-11458112Y26401319D01*
X-11468973Y26414553D01*
X-11509156Y26489731D01*
X-11543104Y26548530D01*
X-11547009Y26560549D01*
X-11552215Y26570288D01*
X-11580925Y26664929D01*
X-11601311Y26727672D01*
X-11602029Y26734499D01*
X-11603475Y26739267D01*
X-11617552Y26882192D01*
X-11621000Y26915000D01*
X-11617552Y26947806D01*
X-11603475Y27090734D01*
X-11602029Y27095503D01*
X-11601311Y27102328D01*
X-11580929Y27165058D01*
X-11552215Y27259713D01*
X-11547009Y27269455D01*
X-11543104Y27281470D01*
X-11509164Y27340258D01*
X-11468973Y27415448D01*
X-11458110Y27428686D01*
X-11448924Y27444595D01*
X-11405200Y27493157D01*
X-11356949Y27551949D01*
X-11338995Y27566685D01*
X-11322887Y27584573D01*
X-11273280Y27620615D01*
X-11220448Y27663973D01*
X-11194550Y27677817D01*
X-11170500Y27695289D01*
X-11118774Y27718319D01*
X-11064713Y27747215D01*
X-11030693Y27757536D01*
X-10998424Y27771902D01*
X-10948002Y27782620D01*
X-10895734Y27798475D01*
X-10854129Y27802573D01*
X-10814180Y27811064D01*
X-10767914Y27811064D01*
X-10720000Y27815783D01*
X-10672087Y27811064D01*
G37*
G36*
X-8132087Y27811064D02*
G01*
X-8085820Y27811064D01*
X-8045871Y27802573D01*
X-8004267Y27798475D01*
X-7952002Y27782621D01*
X-7901576Y27771902D01*
X-7869306Y27757535D01*
X-7835288Y27747215D01*
X-7781233Y27718322D01*
X-7729500Y27695289D01*
X-7705449Y27677815D01*
X-7679553Y27663973D01*
X-7626729Y27620622D01*
X-7577113Y27584573D01*
X-7561004Y27566682D01*
X-7543052Y27551949D01*
X-7494812Y27493169D01*
X-7451076Y27444595D01*
X-7441889Y27428681D01*
X-7431028Y27415448D01*
X-7390851Y27340281D01*
X-7356896Y27281470D01*
X-7352991Y27269450D01*
X-7347786Y27259713D01*
X-7319087Y27165104D01*
X-7298689Y27102328D01*
X-7297972Y27095498D01*
X-7296526Y27090734D01*
X-7282464Y26947958D01*
X-7279000Y26915000D01*
X-7282465Y26882041D01*
X-7296526Y26739267D01*
X-7297971Y26734504D01*
X-7298689Y26727672D01*
X-7319091Y26664883D01*
X-7347786Y26570288D01*
X-7352990Y26560553D01*
X-7356896Y26548530D01*
X-7390858Y26489707D01*
X-7431028Y26414553D01*
X-7441887Y26401323D01*
X-7451076Y26385405D01*
X-7494822Y26336822D01*
X-7543052Y26278052D01*
X-7561000Y26263323D01*
X-7577113Y26245427D01*
X-7626740Y26209372D01*
X-7679553Y26166028D01*
X-7705443Y26152190D01*
X-7729500Y26134711D01*
X-7781244Y26111674D01*
X-7835288Y26082786D01*
X-7869299Y26072469D01*
X-7901576Y26058098D01*
X-7952013Y26047378D01*
X-8004267Y26031526D01*
X-8045862Y26027430D01*
X-8085820Y26018936D01*
X-8132097Y26018936D01*
X-8180000Y26014218D01*
X-8227903Y26018936D01*
X-8274180Y26018936D01*
X-8314138Y26027430D01*
X-8355734Y26031526D01*
X-8407991Y26047379D01*
X-8458424Y26058098D01*
X-8490700Y26072468D01*
X-8524713Y26082786D01*
X-8578763Y26111677D01*
X-8630500Y26134711D01*
X-8654555Y26152188D01*
X-8680448Y26166028D01*
X-8733270Y26209378D01*
X-8782887Y26245427D01*
X-8798998Y26263320D01*
X-8816949Y26278052D01*
X-8865191Y26336834D01*
X-8908924Y26385405D01*
X-8918112Y26401319D01*
X-8928973Y26414553D01*
X-8969156Y26489731D01*
X-9003104Y26548530D01*
X-9007009Y26560549D01*
X-9012215Y26570288D01*
X-9040925Y26664929D01*
X-9061311Y26727672D01*
X-9062029Y26734499D01*
X-9063475Y26739267D01*
X-9077552Y26882192D01*
X-9081000Y26915000D01*
X-9077552Y26947806D01*
X-9063475Y27090734D01*
X-9062029Y27095503D01*
X-9061311Y27102328D01*
X-9040929Y27165058D01*
X-9012215Y27259713D01*
X-9007009Y27269455D01*
X-9003104Y27281470D01*
X-8969164Y27340258D01*
X-8928973Y27415448D01*
X-8918110Y27428686D01*
X-8908924Y27444595D01*
X-8865200Y27493157D01*
X-8816949Y27551949D01*
X-8798995Y27566685D01*
X-8782887Y27584573D01*
X-8733280Y27620615D01*
X-8680448Y27663973D01*
X-8654550Y27677817D01*
X-8630500Y27695289D01*
X-8578774Y27718319D01*
X-8524713Y27747215D01*
X-8490693Y27757536D01*
X-8458424Y27771902D01*
X-8408002Y27782620D01*
X-8355734Y27798475D01*
X-8314129Y27802573D01*
X-8274180Y27811064D01*
X-8227914Y27811064D01*
X-8180000Y27815783D01*
X-8132087Y27811064D01*
G37*
G36*
X-5565154Y28393392D02*
G01*
X-5507896Y28389475D01*
X-5491711Y28383723D01*
X-5477493Y28381851D01*
X-5423410Y28359449D01*
X-5366504Y28339225D01*
X-5355029Y28331125D01*
X-5344694Y28326844D01*
X-5295644Y28289207D01*
X-5243913Y28252691D01*
X-5237031Y28244231D01*
X-5230659Y28239342D01*
X-5190935Y28187572D01*
X-5149215Y28136291D01*
X-5146122Y28129170D01*
X-5143158Y28125307D01*
X-5116711Y28061458D01*
X-5089433Y27998658D01*
X-5088805Y27994088D01*
X-5088150Y27992507D01*
X-5078208Y27916989D01*
X-5069000Y27850000D01*
X-5069000Y27050000D01*
X-5074132Y26974972D01*
X-5083817Y26940407D01*
X-5088150Y26907494D01*
X-5103259Y26871019D01*
X-5114617Y26830481D01*
X-5131657Y26802461D01*
X-5143158Y26774694D01*
X-5169106Y26740878D01*
X-5192583Y26702271D01*
X-5214273Y26682014D01*
X-5230659Y26660659D01*
X-5266979Y26632791D01*
X-5302249Y26599850D01*
X-5325836Y26587629D01*
X-5344694Y26573158D01*
X-5389896Y26554435D01*
X-5435481Y26530814D01*
X-5458437Y26526044D01*
X-5477494Y26518150D01*
X-5529155Y26511349D01*
X-5582398Y26500285D01*
X-5602665Y26501672D01*
X-5620000Y26499389D01*
X-5674832Y26506608D01*
X-5732104Y26510525D01*
X-5748294Y26516279D01*
X-5762508Y26518150D01*
X-5816581Y26540548D01*
X-5873496Y26560775D01*
X-5884974Y26568877D01*
X-5895307Y26573157D01*
X-5944353Y26610791D01*
X-5996087Y26647309D01*
X-6002971Y26655770D01*
X-6009342Y26660659D01*
X-6049070Y26712434D01*
X-6090785Y26763709D01*
X-6093879Y26770830D01*
X-6096843Y26774694D01*
X-6123303Y26838572D01*
X-6150567Y26901342D01*
X-6151195Y26905910D01*
X-6151851Y26907494D01*
X-6161801Y26983073D01*
X-6171000Y27050000D01*
X-6171000Y27850000D01*
X-6165868Y27925028D01*
X-6156185Y27959588D01*
X-6151851Y27992507D01*
X-6136739Y28028993D01*
X-6125383Y28069519D01*
X-6108348Y28097533D01*
X-6096843Y28125307D01*
X-6070888Y28159134D01*
X-6047417Y28197729D01*
X-6025734Y28217981D01*
X-6009342Y28239342D01*
X-5973012Y28267220D01*
X-5937751Y28300150D01*
X-5914172Y28312369D01*
X-5895307Y28326843D01*
X-5850092Y28345573D01*
X-5804519Y28369186D01*
X-5781571Y28373955D01*
X-5762507Y28381851D01*
X-5710832Y28388655D01*
X-5657602Y28399715D01*
X-5637341Y28398330D01*
X-5620000Y28400612D01*
X-5565154Y28393392D01*
G37*
G36*
X5674846Y28393392D02*
G01*
X5732104Y28389475D01*
X5748289Y28383723D01*
X5762507Y28381851D01*
X5816590Y28359449D01*
X5873496Y28339225D01*
X5884971Y28331125D01*
X5895306Y28326844D01*
X5944356Y28289207D01*
X5996087Y28252691D01*
X6002969Y28244231D01*
X6009341Y28239342D01*
X6049065Y28187572D01*
X6090785Y28136291D01*
X6093878Y28129170D01*
X6096842Y28125307D01*
X6123289Y28061458D01*
X6150567Y27998658D01*
X6151195Y27994088D01*
X6151850Y27992507D01*
X6161792Y27916989D01*
X6171000Y27850000D01*
X6171000Y27050000D01*
X6165868Y26974972D01*
X6156183Y26940407D01*
X6151850Y26907494D01*
X6136741Y26871019D01*
X6125383Y26830481D01*
X6108343Y26802461D01*
X6096842Y26774694D01*
X6070894Y26740878D01*
X6047417Y26702271D01*
X6025727Y26682014D01*
X6009341Y26660659D01*
X5973021Y26632791D01*
X5937751Y26599850D01*
X5914164Y26587629D01*
X5895306Y26573158D01*
X5850104Y26554435D01*
X5804519Y26530814D01*
X5781563Y26526044D01*
X5762506Y26518150D01*
X5710845Y26511349D01*
X5657602Y26500285D01*
X5637335Y26501672D01*
X5620000Y26499389D01*
X5565168Y26506608D01*
X5507896Y26510525D01*
X5491706Y26516279D01*
X5477492Y26518150D01*
X5423419Y26540548D01*
X5366504Y26560775D01*
X5355026Y26568877D01*
X5344693Y26573157D01*
X5295647Y26610791D01*
X5243913Y26647309D01*
X5237029Y26655770D01*
X5230658Y26660659D01*
X5190930Y26712434D01*
X5149215Y26763709D01*
X5146121Y26770830D01*
X5143157Y26774694D01*
X5116697Y26838572D01*
X5089433Y26901342D01*
X5088805Y26905910D01*
X5088149Y26907494D01*
X5078199Y26983073D01*
X5069000Y27050000D01*
X5069000Y27850000D01*
X5074132Y27925028D01*
X5083815Y27959588D01*
X5088149Y27992507D01*
X5103261Y28028993D01*
X5114617Y28069519D01*
X5131652Y28097533D01*
X5143157Y28125307D01*
X5169112Y28159134D01*
X5192583Y28197729D01*
X5214266Y28217981D01*
X5230658Y28239342D01*
X5266988Y28267220D01*
X5302249Y28300150D01*
X5325828Y28312369D01*
X5344693Y28326843D01*
X5389908Y28345573D01*
X5435481Y28369186D01*
X5458429Y28373955D01*
X5477493Y28381851D01*
X5529168Y28388655D01*
X5582398Y28399715D01*
X5602659Y28398330D01*
X5620000Y28400612D01*
X5674846Y28393392D01*
G37*
G36*
X-5565154Y32593392D02*
G01*
X-5507896Y32589475D01*
X-5491711Y32583723D01*
X-5477493Y32581851D01*
X-5423410Y32559449D01*
X-5366504Y32539225D01*
X-5355029Y32531125D01*
X-5344694Y32526844D01*
X-5295644Y32489207D01*
X-5243913Y32452691D01*
X-5237031Y32444231D01*
X-5230659Y32439342D01*
X-5190935Y32387572D01*
X-5149215Y32336291D01*
X-5146122Y32329170D01*
X-5143158Y32325307D01*
X-5116711Y32261458D01*
X-5089433Y32198658D01*
X-5088805Y32194088D01*
X-5088150Y32192507D01*
X-5078208Y32116989D01*
X-5069000Y32050000D01*
X-5069000Y30850000D01*
X-5074132Y30774972D01*
X-5083817Y30740407D01*
X-5088150Y30707494D01*
X-5103259Y30671019D01*
X-5114617Y30630481D01*
X-5131657Y30602461D01*
X-5143158Y30574694D01*
X-5169106Y30540878D01*
X-5192583Y30502271D01*
X-5214273Y30482014D01*
X-5230659Y30460659D01*
X-5266979Y30432791D01*
X-5302249Y30399850D01*
X-5325836Y30387629D01*
X-5344694Y30373158D01*
X-5389896Y30354435D01*
X-5435481Y30330814D01*
X-5458437Y30326044D01*
X-5477494Y30318150D01*
X-5529155Y30311349D01*
X-5582398Y30300285D01*
X-5602665Y30301672D01*
X-5620000Y30299389D01*
X-5674832Y30306608D01*
X-5732104Y30310525D01*
X-5748294Y30316279D01*
X-5762508Y30318150D01*
X-5816581Y30340548D01*
X-5873496Y30360775D01*
X-5884974Y30368877D01*
X-5895307Y30373157D01*
X-5944353Y30410791D01*
X-5996087Y30447309D01*
X-6002971Y30455770D01*
X-6009342Y30460659D01*
X-6049070Y30512434D01*
X-6090785Y30563709D01*
X-6093879Y30570830D01*
X-6096843Y30574694D01*
X-6123303Y30638572D01*
X-6150567Y30701342D01*
X-6151195Y30705910D01*
X-6151851Y30707494D01*
X-6161801Y30783073D01*
X-6171000Y30850000D01*
X-6171000Y32050000D01*
X-6165868Y32125028D01*
X-6156185Y32159588D01*
X-6151851Y32192507D01*
X-6136739Y32228993D01*
X-6125383Y32269519D01*
X-6108348Y32297533D01*
X-6096843Y32325307D01*
X-6070888Y32359134D01*
X-6047417Y32397729D01*
X-6025734Y32417981D01*
X-6009342Y32439342D01*
X-5973012Y32467220D01*
X-5937751Y32500150D01*
X-5914172Y32512369D01*
X-5895307Y32526843D01*
X-5850092Y32545573D01*
X-5804519Y32569186D01*
X-5781571Y32573955D01*
X-5762507Y32581851D01*
X-5710832Y32588655D01*
X-5657602Y32599715D01*
X-5637341Y32598330D01*
X-5620000Y32600612D01*
X-5565154Y32593392D01*
G37*
G36*
X5674846Y32593392D02*
G01*
X5732104Y32589475D01*
X5748289Y32583723D01*
X5762507Y32581851D01*
X5816590Y32559449D01*
X5873496Y32539225D01*
X5884971Y32531125D01*
X5895306Y32526844D01*
X5944356Y32489207D01*
X5996087Y32452691D01*
X6002969Y32444231D01*
X6009341Y32439342D01*
X6049065Y32387572D01*
X6090785Y32336291D01*
X6093878Y32329170D01*
X6096842Y32325307D01*
X6123289Y32261458D01*
X6150567Y32198658D01*
X6151195Y32194088D01*
X6151850Y32192507D01*
X6161792Y32116989D01*
X6171000Y32050000D01*
X6171000Y30850000D01*
X6165868Y30774972D01*
X6156183Y30740407D01*
X6151850Y30707494D01*
X6136741Y30671019D01*
X6125383Y30630481D01*
X6108343Y30602461D01*
X6096842Y30574694D01*
X6070894Y30540878D01*
X6047417Y30502271D01*
X6025727Y30482014D01*
X6009341Y30460659D01*
X5973021Y30432791D01*
X5937751Y30399850D01*
X5914164Y30387629D01*
X5895306Y30373158D01*
X5850104Y30354435D01*
X5804519Y30330814D01*
X5781563Y30326044D01*
X5762506Y30318150D01*
X5710845Y30311349D01*
X5657602Y30300285D01*
X5637335Y30301672D01*
X5620000Y30299389D01*
X5565168Y30306608D01*
X5507896Y30310525D01*
X5491706Y30316279D01*
X5477492Y30318150D01*
X5423419Y30340548D01*
X5366504Y30360775D01*
X5355026Y30368877D01*
X5344693Y30373157D01*
X5295647Y30410791D01*
X5243913Y30447309D01*
X5237029Y30455770D01*
X5230658Y30460659D01*
X5190930Y30512434D01*
X5149215Y30563709D01*
X5146121Y30570830D01*
X5143157Y30574694D01*
X5116697Y30638572D01*
X5089433Y30701342D01*
X5088805Y30705910D01*
X5088149Y30707494D01*
X5078199Y30783073D01*
X5069000Y30850000D01*
X5069000Y32050000D01*
X5074132Y32125028D01*
X5083815Y32159588D01*
X5088149Y32192507D01*
X5103261Y32228993D01*
X5114617Y32269519D01*
X5131652Y32297533D01*
X5143157Y32325307D01*
X5169112Y32359134D01*
X5192583Y32397729D01*
X5214266Y32417981D01*
X5230658Y32439342D01*
X5266988Y32467220D01*
X5302249Y32500150D01*
X5325828Y32512369D01*
X5344693Y32526843D01*
X5389908Y32545573D01*
X5435481Y32569186D01*
X5458429Y32573955D01*
X5477493Y32581851D01*
X5529168Y32588655D01*
X5582398Y32599715D01*
X5602659Y32598330D01*
X5620000Y32600612D01*
X5674846Y32593392D01*
G37*
M02*
