%TF.GenerationSoftware,KiCad,Pcbnew,7.0.5*%
%TF.CreationDate,2023-10-16T14:57:52-05:00*%
%TF.ProjectId,RP2040,52503230-3430-42e6-9b69-6361645f7063,REV1*%
%TF.SameCoordinates,Original*%
%TF.FileFunction,Copper,L2,Inr*%
%TF.FilePolarity,Positive*%
%FSLAX46Y46*%
G04 Gerber Fmt 4.6, Leading zero omitted, Abs format (unit mm)*
G04 Created by KiCad (PCBNEW 7.0.5) date 2023-10-16 14:57:52*
%MOMM*%
%LPD*%
G01*
G04 APERTURE LIST*
%TA.AperFunction,ComponentPad*%
%ADD10O,1.000000X1.800000*%
%TD*%
%TA.AperFunction,ComponentPad*%
%ADD11O,1.000000X2.200000*%
%TD*%
%TA.AperFunction,ComponentPad*%
%ADD12C,0.600000*%
%TD*%
%TA.AperFunction,ComponentPad*%
%ADD13R,1.700000X1.700000*%
%TD*%
%TA.AperFunction,ComponentPad*%
%ADD14O,1.700000X1.700000*%
%TD*%
%TA.AperFunction,ViaPad*%
%ADD15C,0.600000*%
%TD*%
G04 APERTURE END LIST*
D10*
%TO.N,unconnected-(P1-SHIELD-PadS1)*%
%TO.C,P1*%
X5620000Y27450000D03*
D11*
X5620000Y31450000D03*
D10*
X-5620000Y27450000D03*
D11*
X-5620000Y31450000D03*
%TD*%
D12*
%TO.N,GND*%
%TO.C,U3*%
X-7827500Y14747500D03*
X-9102500Y14747500D03*
X-10377500Y14747500D03*
X-7827500Y13472500D03*
X-9102500Y13472500D03*
X-10377500Y13472500D03*
X-7827500Y12197500D03*
X-9102500Y12197500D03*
X-10377500Y12197500D03*
%TD*%
D13*
%TO.N,SWCLK*%
%TO.C,J1*%
X-15800000Y26915000D03*
D14*
%TO.N,SWDIO*%
X-13260000Y26915000D03*
%TO.N,+3V3*%
X-10720000Y26915000D03*
%TO.N,GND*%
X-8180000Y26915000D03*
%TD*%
D15*
%TO.N,GND*%
X14560000Y-24000000D03*
X-8300000Y-6220000D03*
X6940000Y24260000D03*
X-8835000Y18160000D03*
X22180000Y21720000D03*
X-10840000Y6480000D03*
X9480000Y-6220000D03*
X9010000Y9460000D03*
X-12480000Y18221000D03*
X-3220000Y-26540000D03*
X-3220000Y-31620000D03*
X-4350252Y25888370D03*
X17900000Y-2270000D03*
X1860000Y-11300000D03*
X22180000Y11560000D03*
X9480000Y1400000D03*
X-28620000Y3940000D03*
X-23540000Y11560000D03*
X-2110000Y0D03*
X-13380000Y-24000000D03*
X27260000Y-8760000D03*
X12020000Y-8760000D03*
X-26080000Y-13840000D03*
X-5760000Y-6220000D03*
X-10840000Y-11300000D03*
X-13380000Y-18920000D03*
X24720000Y1400000D03*
X2992500Y8520000D03*
X10100000Y15421750D03*
X-13650000Y15360000D03*
X24720000Y-11300000D03*
X17100000Y14100000D03*
X-13380000Y1400000D03*
X-10840000Y1400000D03*
X-21000000Y16640000D03*
X19640000Y9020000D03*
X24720000Y11560000D03*
X9480000Y29340000D03*
X-2850000Y8240000D03*
X-8300000Y-11300000D03*
X1860000Y6480000D03*
X-20101907Y13770000D03*
X-8300000Y-24000000D03*
X24720000Y-16380000D03*
X19640000Y11560000D03*
X4400000Y1400000D03*
X14560000Y26800000D03*
X-18460000Y-18920000D03*
X-28620000Y-6220000D03*
X6940000Y-31620000D03*
X7390000Y17320000D03*
X-5760000Y29340000D03*
X14560000Y11560000D03*
X4400000Y-11300000D03*
X-8300000Y-18920000D03*
X9480000Y11560000D03*
X-1130000Y-2240000D03*
X22180000Y9020000D03*
X19640000Y-6220000D03*
X8535000Y10297500D03*
X-13380000Y-11300000D03*
X-11910000Y-20660000D03*
X7240531Y13235076D03*
X-3220000Y6480000D03*
X-28620000Y-11300000D03*
X11590000Y10000000D03*
X-13380000Y-29080000D03*
X9480000Y26800000D03*
X-8300000Y1400000D03*
X-3220000Y-18920000D03*
X-8300000Y31880000D03*
X-8350000Y-28200000D03*
X-21000000Y9020000D03*
X-3220000Y-13840000D03*
X24720000Y-3680000D03*
X-8300000Y-31620000D03*
X12020000Y-29080000D03*
X-31160000Y3940000D03*
X-15871907Y15750000D03*
X-22880000Y-18150000D03*
X16470000Y12010000D03*
X-18460000Y3940000D03*
X4830000Y25800000D03*
X19640000Y3940000D03*
X-680000Y-18920000D03*
X-3552964Y25004134D03*
X1860000Y-13840000D03*
X-26080000Y-16380000D03*
X-28620000Y-3680000D03*
X12020000Y-18920000D03*
X17100000Y26800000D03*
X18140000Y-8540000D03*
X9480000Y-11300000D03*
X-18460000Y-24000000D03*
X16700000Y0D03*
X-14142159Y20089294D03*
X4400000Y-18920000D03*
X-680000Y-13840000D03*
X14560000Y1400000D03*
X6940000Y29340000D03*
X29800000Y-11300000D03*
X12020000Y26800000D03*
X17100000Y-26540000D03*
X4185000Y20345000D03*
X11445000Y14360000D03*
X14560000Y16640000D03*
X9480000Y6480000D03*
X11550000Y20720000D03*
X4040000Y-7140000D03*
X-8300000Y-1140000D03*
X0Y-20600000D03*
X-2762866Y10490500D03*
X-28620000Y11560000D03*
X-2514838Y16210500D03*
X14560000Y-18920000D03*
X-10840000Y-1140000D03*
X6940000Y31880000D03*
X1900000Y22110000D03*
X-15920000Y-11300000D03*
X-2613000Y22333000D03*
X19640000Y24260000D03*
X12020000Y6480000D03*
X-1650000Y21370000D03*
X-8300000Y29340000D03*
X4400000Y6480000D03*
X14560000Y-11300000D03*
X22180000Y-21460000D03*
X6940000Y-8760000D03*
X-15920000Y3940000D03*
X-3220000Y-24000000D03*
X-18503800Y9211124D03*
X11760000Y-23190000D03*
X14560000Y21720000D03*
X14560000Y-6220000D03*
X6940000Y6480000D03*
X-6865000Y-23165000D03*
X29800000Y-8760000D03*
X-14985000Y-7210000D03*
X-18981907Y11330000D03*
X-20150000Y-2210000D03*
X-890000Y-8640000D03*
X-5760000Y1400000D03*
X19640000Y-8760000D03*
X-5760000Y-18920000D03*
X-15920000Y-1140000D03*
X26085000Y-16545000D03*
X4400000Y-8760000D03*
X-5850000Y7265000D03*
X17100000Y6480000D03*
X-5760000Y-11300000D03*
X27260000Y-11300000D03*
X-23540000Y14100000D03*
X-15920000Y-26540000D03*
X6940000Y1400000D03*
X9480000Y-8760000D03*
X-23540000Y9020000D03*
X4400000Y-13840000D03*
X6940000Y-6220000D03*
X-1144500Y13663483D03*
X-21000000Y11560000D03*
X-31160000Y-6220000D03*
X-31160000Y9020000D03*
X14560000Y14100000D03*
X-28620000Y9020000D03*
X-8300000Y-8760000D03*
X-31160000Y-8760000D03*
X-5760000Y-13840000D03*
X-28620000Y-13840000D03*
X1860000Y-31620000D03*
X6940000Y26800000D03*
X22180000Y14100000D03*
X-3220000Y-29080000D03*
X-31160000Y6480000D03*
X-14005000Y9855000D03*
X-5760000Y-31620000D03*
X12020000Y-11300000D03*
X4140000Y25310000D03*
X-10840000Y-8760000D03*
X29800000Y3940000D03*
X12020000Y1400000D03*
X6940000Y-1140000D03*
X19640000Y14100000D03*
X12020000Y-1140000D03*
X-10840000Y29340000D03*
X14560000Y-13840000D03*
X-1184838Y9850500D03*
X27260000Y-16380000D03*
X-12290000Y24820000D03*
X-10840000Y-6220000D03*
X29800000Y11560000D03*
X1860000Y-18920000D03*
X-8930000Y25100000D03*
X6940000Y-11300000D03*
X27260000Y-13840000D03*
X-680000Y-6220000D03*
X29800000Y6480000D03*
X24720000Y9020000D03*
X-3000000Y9240000D03*
X9480000Y-1140000D03*
X4400000Y-31620000D03*
X9480000Y-13840000D03*
X-20050000Y-8660000D03*
X21090000Y-18090000D03*
X-13380000Y-8760000D03*
X32340000Y3940000D03*
X9480000Y-18920000D03*
X24720000Y-13840000D03*
X-16840000Y17500000D03*
X-3220000Y-1140000D03*
X-7827500Y11510000D03*
X12020000Y11560000D03*
X1860000Y-29080000D03*
X14560000Y6480000D03*
X-3220000Y1400000D03*
X19640000Y-24000000D03*
X24720000Y6480000D03*
X6780000Y-28140000D03*
X-680000Y6480000D03*
X17100000Y24260000D03*
X-15920000Y-18920000D03*
X12020000Y-6220000D03*
X-28620000Y6480000D03*
X6940000Y-13840000D03*
X-28620000Y14100000D03*
X22180000Y-13840000D03*
X14560000Y-29080000D03*
X-17260000Y24670000D03*
X4544668Y22175332D03*
X-21000000Y-21460000D03*
X-21200000Y-10000D03*
X29800000Y-6220000D03*
X-12399838Y7990500D03*
X-8300000Y-13840000D03*
X24720000Y3940000D03*
X6940000Y-24000000D03*
X6940000Y-18920000D03*
X18600000Y20890000D03*
X-16090000Y12520000D03*
X-10840000Y-18920000D03*
X-680000Y-29080000D03*
X29800000Y9020000D03*
X-680000Y-31620000D03*
X24720000Y14100000D03*
X12220000Y-20610000D03*
X-680000Y-11300000D03*
X-13380000Y-6220000D03*
X-28620000Y-8760000D03*
X-17958000Y-16332000D03*
X17100000Y-11300000D03*
X-21230000Y19040000D03*
X-6130000Y24760000D03*
X22180000Y6480000D03*
X23080000Y-7140000D03*
X14560000Y-16380000D03*
%TO.N,VBUS*%
X3002858Y24967033D03*
X-2560000Y24890000D03*
%TO.N,BUTT0*%
X-12050000Y-17400000D03*
%TO.N,+5V*%
X12120000Y24810000D03*
X7605000Y21145000D03*
%TO.N,USB_D+*%
X250000Y25140000D03*
X303779Y23965500D03*
%TO.N,LED_D*%
X-12910000Y17289500D03*
%TO.N,BUTT1*%
X-110000Y-17540000D03*
%TO.N,BUTT2*%
X12202500Y-17490000D03*
%TO.N,+1V1*%
X-14426916Y12426916D03*
X-6899838Y12370500D03*
X-11212500Y12835000D03*
X-4011985Y13508702D03*
%TO.N,SWDIO*%
X-24032443Y19835329D03*
%TO.N,+3V3*%
X-10335000Y20340000D03*
X-4225705Y11073417D03*
X2195000Y15990000D03*
X-10219838Y18130500D03*
X-1244500Y15435273D03*
%TO.N,Net-(R6-Pad1)*%
X-19100000Y20670000D03*
%TO.N,Net-(U3-RUN)*%
X-15900000Y9480000D03*
%TD*%
%TA.AperFunction,Conductor*%
%TO.N,GND*%
G36*
X23500000Y-4660000D02*
G01*
X32890323Y-4643049D01*
X32752139Y-5565473D01*
X32751821Y-5567390D01*
X32565859Y-6589098D01*
X32565481Y-6591004D01*
X32347601Y-7606358D01*
X32347164Y-7608252D01*
X32097571Y-8616291D01*
X32097074Y-8618169D01*
X31816020Y-9617889D01*
X31815465Y-9619751D01*
X31503222Y-10610177D01*
X31502609Y-10612021D01*
X31159473Y-11592207D01*
X31158802Y-11594031D01*
X30866708Y-12351429D01*
X30785148Y-12562912D01*
X30784420Y-12564713D01*
X30380565Y-13521472D01*
X30379781Y-13523250D01*
X29946154Y-14466863D01*
X29945315Y-14468616D01*
X29482321Y-15398201D01*
X29481427Y-15399927D01*
X28989560Y-16314498D01*
X28988613Y-16316195D01*
X28493472Y-17171472D01*
X28473839Y-17197026D01*
X17063064Y-28607801D01*
X17037485Y-28627448D01*
X16169157Y-29129882D01*
X16167436Y-29130841D01*
X15239295Y-29629199D01*
X15237544Y-29630104D01*
X14294083Y-30098680D01*
X14292304Y-30099529D01*
X13334410Y-30537887D01*
X13332605Y-30538679D01*
X12887235Y-30725608D01*
X12361269Y-30946366D01*
X12359452Y-30947095D01*
X11375602Y-31323718D01*
X11373760Y-31324390D01*
X11196449Y-31385879D01*
X10378516Y-31669523D01*
X10376644Y-31670139D01*
X9370845Y-31983492D01*
X9368954Y-31984048D01*
X8353778Y-32265250D01*
X8351870Y-32265746D01*
X7328237Y-32514547D01*
X7326314Y-32514982D01*
X6295275Y-32731122D01*
X6293340Y-32731496D01*
X5255987Y-32914749D01*
X5254040Y-32915061D01*
X4211369Y-33065250D01*
X4209414Y-33065500D01*
X3162514Y-33182470D01*
X3160552Y-33182657D01*
X2110411Y-33266296D01*
X2108444Y-33266421D01*
X1056215Y-33316635D01*
X1054255Y-33316697D01*
X773701Y-33321157D01*
X634Y-33333446D01*
X-1337Y-33333446D01*
X-560472Y-33324557D01*
X-1054302Y-33316706D01*
X-1056261Y-33316644D01*
X-2108475Y-33266429D01*
X-2110442Y-33266304D01*
X-3160569Y-33182665D01*
X-3162531Y-33182478D01*
X-4209418Y-33065510D01*
X-4211373Y-33065260D01*
X-5254029Y-32915073D01*
X-5255976Y-32914761D01*
X-5256044Y-32914749D01*
X-6293336Y-32731507D01*
X-6295257Y-32731136D01*
X-7326270Y-32515002D01*
X-7328192Y-32514567D01*
X-8351819Y-32265770D01*
X-8353726Y-32265274D01*
X-9181670Y-32035936D01*
X-9368901Y-31984074D01*
X-9370783Y-31983521D01*
X-10376541Y-31670185D01*
X-10378413Y-31669569D01*
X-11373691Y-31324427D01*
X-11375543Y-31323751D01*
X-11980178Y-31092295D01*
X-12359372Y-30947138D01*
X-12361148Y-30946426D01*
X-13332530Y-30538724D01*
X-13334301Y-30537947D01*
X-14292183Y-30099598D01*
X-14293962Y-30098750D01*
X-15237425Y-29630177D01*
X-15239176Y-29629272D01*
X-16167282Y-29130940D01*
X-16169004Y-29129980D01*
X-17037591Y-28627402D01*
X-17063170Y-28607755D01*
X-20595552Y-25075373D01*
X-2254277Y-25075373D01*
X-2224119Y-25375160D01*
X-2224118Y-25375162D01*
X-2154272Y-25668252D01*
X-2154267Y-25668266D01*
X-2045980Y-25949427D01*
X-2045976Y-25949436D01*
X-1901175Y-26213665D01*
X-1901171Y-26213671D01*
X-1722449Y-26456234D01*
X-1722446Y-26456238D01*
X-1722439Y-26456245D01*
X-1512981Y-26672823D01*
X-1276522Y-26859553D01*
X-1276520Y-26859554D01*
X-1276515Y-26859558D01*
X-1017270Y-27013109D01*
X-739872Y-27130736D01*
X-449271Y-27210340D01*
X-150653Y-27250500D01*
X-150649Y-27250500D01*
X75252Y-27250500D01*
X239164Y-27239526D01*
X300634Y-27235412D01*
X595903Y-27175396D01*
X880537Y-27076560D01*
X1149459Y-26940668D01*
X1397869Y-26770144D01*
X1621333Y-26568032D01*
X1815865Y-26337939D01*
X1977993Y-26083970D01*
X2104823Y-25810658D01*
X2194093Y-25522879D01*
X2244209Y-25225770D01*
X2254277Y-24924631D01*
X2224118Y-24624838D01*
X2154269Y-24331739D01*
X2045977Y-24050566D01*
X1901175Y-23786335D01*
X1722446Y-23543762D01*
X1512980Y-23327176D01*
X1389742Y-23229856D01*
X1276521Y-23140446D01*
X1276517Y-23140443D01*
X1276515Y-23140442D01*
X1017270Y-22986891D01*
X739872Y-22869264D01*
X739863Y-22869261D01*
X449272Y-22789660D01*
X374616Y-22779620D01*
X150653Y-22749500D01*
X-75244Y-22749500D01*
X-75252Y-22749500D01*
X-300632Y-22764587D01*
X-300641Y-22764589D01*
X-595906Y-22824604D01*
X-880536Y-22923439D01*
X-880541Y-22923441D01*
X-1149454Y-23059328D01*
X-1397875Y-23229860D01*
X-1621335Y-23431969D01*
X-1815868Y-23662064D01*
X-1977994Y-23916030D01*
X-1977995Y-23916032D01*
X-2104819Y-24189333D01*
X-2104823Y-24189342D01*
X-2104824Y-24189346D01*
X-2194093Y-24477118D01*
X-2244209Y-24774230D01*
X-2254277Y-25075373D01*
X-20595552Y-25075373D01*
X-28270925Y-17400000D01*
X-12555647Y-17400000D01*
X-12535166Y-17542456D01*
X-12494063Y-17632457D01*
X-12475377Y-17673373D01*
X-12381128Y-17782143D01*
X-12260053Y-17859953D01*
X-12260050Y-17859954D01*
X-12260051Y-17859954D01*
X-12121964Y-17900499D01*
X-12121962Y-17900500D01*
X-12121961Y-17900500D01*
X-11978038Y-17900500D01*
X-11978038Y-17900499D01*
X-11839947Y-17859953D01*
X-11718872Y-17782143D01*
X-11624623Y-17673373D01*
X-11564835Y-17542457D01*
X-11564482Y-17539999D01*
X-615647Y-17539999D01*
X-595166Y-17682456D01*
X-535378Y-17813371D01*
X-535377Y-17813373D01*
X-441128Y-17922143D01*
X-320053Y-17999953D01*
X-320050Y-17999954D01*
X-320051Y-17999954D01*
X-181964Y-18040499D01*
X-181962Y-18040500D01*
X-181961Y-18040500D01*
X-38038Y-18040500D01*
X-38038Y-18040499D01*
X100053Y-17999953D01*
X221128Y-17922143D01*
X315377Y-17813373D01*
X375165Y-17682457D01*
X395647Y-17540000D01*
X388458Y-17490000D01*
X11696853Y-17490000D01*
X11717334Y-17632456D01*
X11736020Y-17673371D01*
X11777123Y-17763373D01*
X11871372Y-17872143D01*
X11992447Y-17949953D01*
X11992450Y-17949954D01*
X11992449Y-17949954D01*
X12130536Y-17990499D01*
X12130538Y-17990500D01*
X12130539Y-17990500D01*
X12274462Y-17990500D01*
X12274462Y-17990499D01*
X12412553Y-17949953D01*
X12533628Y-17872143D01*
X12627877Y-17763373D01*
X12687665Y-17632457D01*
X12708147Y-17490000D01*
X12687665Y-17347543D01*
X12627877Y-17216627D01*
X12533628Y-17107857D01*
X12412553Y-17030047D01*
X12412551Y-17030046D01*
X12412549Y-17030045D01*
X12412550Y-17030045D01*
X12274463Y-16989500D01*
X12274461Y-16989500D01*
X12130539Y-16989500D01*
X12130536Y-16989500D01*
X11992449Y-17030045D01*
X11871373Y-17107856D01*
X11777123Y-17216626D01*
X11777122Y-17216628D01*
X11717334Y-17347543D01*
X11696853Y-17490000D01*
X388458Y-17490000D01*
X375165Y-17397543D01*
X315377Y-17266627D01*
X221128Y-17157857D01*
X100053Y-17080047D01*
X100051Y-17080046D01*
X100049Y-17080045D01*
X100050Y-17080045D01*
X-38037Y-17039500D01*
X-38039Y-17039500D01*
X-181961Y-17039500D01*
X-181964Y-17039500D01*
X-320051Y-17080045D01*
X-441127Y-17157856D01*
X-535377Y-17266626D01*
X-535378Y-17266628D01*
X-595166Y-17397543D01*
X-615647Y-17539999D01*
X-11564482Y-17539999D01*
X-11544353Y-17400000D01*
X-11564835Y-17257543D01*
X-11624623Y-17126627D01*
X-11718872Y-17017857D01*
X-11839947Y-16940047D01*
X-11839949Y-16940046D01*
X-11839951Y-16940045D01*
X-11839950Y-16940045D01*
X-11978037Y-16899500D01*
X-11978039Y-16899500D01*
X-12121961Y-16899500D01*
X-12121964Y-16899500D01*
X-12260051Y-16940045D01*
X-12381127Y-17017856D01*
X-12475377Y-17126626D01*
X-12475378Y-17126628D01*
X-12535166Y-17257543D01*
X-12555647Y-17400000D01*
X-28270925Y-17400000D01*
X-28473900Y-17197025D01*
X-28493534Y-17171470D01*
X-28501415Y-17157857D01*
X-28988787Y-16315979D01*
X-28989734Y-16314282D01*
X-29080467Y-16145572D01*
X-29481637Y-15399631D01*
X-29482473Y-15398014D01*
X-29945472Y-14468399D01*
X-29946303Y-14466662D01*
X-30226323Y-13857300D01*
X-30335282Y-13620190D01*
X-13450500Y-13620190D01*
X-13410934Y-13857300D01*
X-13332884Y-14084652D01*
X-13332882Y-14084657D01*
X-13218471Y-14296069D01*
X-13218467Y-14296075D01*
X-13070831Y-14485757D01*
X-13070829Y-14485759D01*
X-13070825Y-14485764D01*
X-12893969Y-14648571D01*
X-12692728Y-14780049D01*
X-12472591Y-14876610D01*
X-12239563Y-14935620D01*
X-12059990Y-14950500D01*
X-12059986Y-14950500D01*
X-11940014Y-14950500D01*
X-11940010Y-14950500D01*
X-11760437Y-14935620D01*
X-11527409Y-14876610D01*
X-11307272Y-14780049D01*
X-11106031Y-14648571D01*
X-10929175Y-14485764D01*
X-10781528Y-14296067D01*
X-10667118Y-14084656D01*
X-10589066Y-13857297D01*
X-10549500Y-13620192D01*
X-10549500Y-13620190D01*
X10549500Y-13620190D01*
X10589066Y-13857300D01*
X10667116Y-14084652D01*
X10667118Y-14084657D01*
X10781529Y-14296069D01*
X10781533Y-14296075D01*
X10929169Y-14485757D01*
X10929171Y-14485759D01*
X10929175Y-14485764D01*
X11106031Y-14648571D01*
X11307272Y-14780049D01*
X11527409Y-14876610D01*
X11760437Y-14935620D01*
X11940010Y-14950500D01*
X11940014Y-14950500D01*
X12059986Y-14950500D01*
X12059990Y-14950500D01*
X12239563Y-14935620D01*
X12472591Y-14876610D01*
X12692728Y-14780049D01*
X12893969Y-14648571D01*
X13070825Y-14485764D01*
X13218472Y-14296067D01*
X13332882Y-14084656D01*
X13410934Y-13857297D01*
X13450500Y-13620192D01*
X13450500Y-13379808D01*
X13410934Y-13142703D01*
X13332882Y-12915344D01*
X13218472Y-12703933D01*
X13218470Y-12703930D01*
X13218466Y-12703924D01*
X13070830Y-12514242D01*
X13070827Y-12514239D01*
X13070825Y-12514236D01*
X12893969Y-12351429D01*
X12893966Y-12351427D01*
X12692729Y-12219951D01*
X12564757Y-12163817D01*
X12472591Y-12123390D01*
X12472589Y-12123389D01*
X12239559Y-12064379D01*
X12060000Y-12049500D01*
X12059990Y-12049500D01*
X11940010Y-12049500D01*
X11939999Y-12049500D01*
X11760440Y-12064379D01*
X11527410Y-12123389D01*
X11307270Y-12219951D01*
X11106033Y-12351427D01*
X11106029Y-12351430D01*
X10929172Y-12514239D01*
X10929169Y-12514242D01*
X10781533Y-12703924D01*
X10781529Y-12703930D01*
X10667118Y-12915342D01*
X10667116Y-12915347D01*
X10589066Y-13142699D01*
X10549500Y-13379809D01*
X10549500Y-13620190D01*
X-10549500Y-13620190D01*
X-10549500Y-13379808D01*
X-10589066Y-13142703D01*
X-10667118Y-12915344D01*
X-10781528Y-12703933D01*
X-10781530Y-12703930D01*
X-10781534Y-12703924D01*
X-10929170Y-12514242D01*
X-10929173Y-12514239D01*
X-10929175Y-12514236D01*
X-11106031Y-12351429D01*
X-11106034Y-12351427D01*
X-11307271Y-12219951D01*
X-11435243Y-12163817D01*
X-11527409Y-12123390D01*
X-11527411Y-12123389D01*
X-11760441Y-12064379D01*
X-11940000Y-12049500D01*
X-11940010Y-12049500D01*
X-12059990Y-12049500D01*
X-12060001Y-12049500D01*
X-12239560Y-12064379D01*
X-12472590Y-12123389D01*
X-12692730Y-12219951D01*
X-12893967Y-12351427D01*
X-12893971Y-12351430D01*
X-13070828Y-12514239D01*
X-13070831Y-12514242D01*
X-13218467Y-12703924D01*
X-13218471Y-12703930D01*
X-13332882Y-12915342D01*
X-13332884Y-12915347D01*
X-13410934Y-13142699D01*
X-13450500Y-13379809D01*
X-13450500Y-13620190D01*
X-30335282Y-13620190D01*
X-30379943Y-13523002D01*
X-30380718Y-13521242D01*
X-30784566Y-12564479D01*
X-30785276Y-12562718D01*
X-30803971Y-12514242D01*
X-30954701Y-12123389D01*
X-31158943Y-11593777D01*
X-31159614Y-11591953D01*
X-31502732Y-10611792D01*
X-31503345Y-10609948D01*
X-31601713Y-10297919D01*
X-31815582Y-9619518D01*
X-31816128Y-9617685D01*
X-32097183Y-8617933D01*
X-32097679Y-8616055D01*
X-32347270Y-7607983D01*
X-32347707Y-7606089D01*
X-32429211Y-7226252D01*
X-32565584Y-6590708D01*
X-32565945Y-6588889D01*
X-32751908Y-5567123D01*
X-32752221Y-5565234D01*
X-32815587Y-5142222D01*
X-32906077Y-4538136D01*
X-32906323Y-4536300D01*
X-32913555Y-4474950D01*
X23500000Y-4660000D01*
G37*
%TD.AperFunction*%
%TD*%
%TA.AperFunction,Conductor*%
%TO.N,GND*%
G36*
X5063000Y33179391D02*
G01*
X5556501Y33104271D01*
X5558246Y33103978D01*
X6525054Y32927775D01*
X6526831Y32927424D01*
X7020634Y32822438D01*
X7488060Y32723058D01*
X7489800Y32722661D01*
X7592694Y32697623D01*
X8444697Y32490293D01*
X8446332Y32489869D01*
X9304522Y32254279D01*
X9394039Y32229704D01*
X9395778Y32229199D01*
X9619641Y32160652D01*
X10335450Y31941471D01*
X10337134Y31940927D01*
X11264965Y31626900D01*
X11272816Y31623625D01*
X11356603Y31581705D01*
X11381934Y31564858D01*
X11444708Y31510917D01*
X11465177Y31488407D01*
X11512932Y31420796D01*
X11527302Y31393983D01*
X11557155Y31316787D01*
X11564565Y31287279D01*
X11572769Y31220933D01*
X11572140Y31186071D01*
X11556549Y31088909D01*
X11556549Y31088899D01*
X11545663Y30788201D01*
X11571643Y30488428D01*
X11634097Y30194096D01*
X11634099Y30194088D01*
X11732093Y29909596D01*
X11732095Y29909592D01*
X11864152Y29639225D01*
X12028289Y29387050D01*
X12028292Y29387046D01*
X12160681Y29229750D01*
X12222050Y29156835D01*
X12222051Y29156834D01*
X12442505Y28952063D01*
X12442507Y28952062D01*
X12442512Y28952057D01*
X12686370Y28775786D01*
X12686376Y28775783D01*
X12686377Y28775782D01*
X12949957Y28630669D01*
X12949959Y28630668D01*
X13229320Y28518886D01*
X13520258Y28442116D01*
X13818402Y28401513D01*
X14119273Y28397687D01*
X14418353Y28430694D01*
X14633460Y28481641D01*
X14711142Y28500038D01*
X14711144Y28500039D01*
X14711149Y28500040D01*
X14993263Y28604682D01*
X15260457Y28743049D01*
X15508719Y28913062D01*
X15600356Y28993985D01*
X15614350Y29006336D01*
X15629423Y29017719D01*
X15656469Y29035074D01*
X15690910Y29050369D01*
X15712647Y29056276D01*
X15750096Y29060517D01*
X15772608Y29059620D01*
X15809604Y29052411D01*
X15838301Y29042098D01*
X15857879Y29033071D01*
X17037929Y28358825D01*
X17064091Y28338842D01*
X28473836Y16929097D01*
X28493469Y16903543D01*
X28988625Y16048238D01*
X28989539Y16046601D01*
X29096595Y15847543D01*
X29481426Y15131993D01*
X29482320Y15130267D01*
X29945314Y14200682D01*
X29946153Y14198929D01*
X30379775Y13255328D01*
X30380559Y13253550D01*
X30784413Y12296795D01*
X30785141Y12294994D01*
X31158811Y11326069D01*
X31159482Y11324245D01*
X31502608Y10344088D01*
X31503221Y10342244D01*
X31815465Y9351817D01*
X31816020Y9349955D01*
X32097075Y8350236D01*
X32097572Y8348358D01*
X32347165Y7340319D01*
X32347602Y7338425D01*
X32565483Y6323071D01*
X32565861Y6321165D01*
X32751823Y5299457D01*
X32752141Y5297540D01*
X32905999Y4270501D01*
X32906256Y4268575D01*
X33026620Y3247697D01*
X33027207Y3225062D01*
X33024965Y3190880D01*
X33015440Y3150702D01*
X33005880Y3128094D01*
X32983697Y3093279D01*
X32967247Y3075064D01*
X32934860Y3049457D01*
X32913339Y3037651D01*
X32874337Y3024096D01*
X32839777Y3018263D01*
X32819132Y3016534D01*
X32771929Y3016537D01*
X32771879Y3016533D01*
X30119296Y3016533D01*
X30119166Y3016527D01*
X29979154Y3016527D01*
X29639530Y2979591D01*
X29305886Y2906151D01*
X29055622Y2821827D01*
X28982139Y2797067D01*
X28982136Y2797066D01*
X28982128Y2797063D01*
X28672092Y2653625D01*
X28379363Y2477497D01*
X28379360Y2477495D01*
X28107395Y2270754D01*
X28107386Y2270746D01*
X27859371Y2035814D01*
X27859366Y2035809D01*
X27638204Y1775439D01*
X27638196Y1775429D01*
X27446484Y1492676D01*
X27446483Y1492673D01*
X27286461Y1190841D01*
X27286452Y1190823D01*
X27160005Y873463D01*
X27160004Y873461D01*
X27068613Y544298D01*
X27068608Y544277D01*
X27013342Y207174D01*
X27013341Y207157D01*
X26994846Y-133967D01*
X26994846Y-133972D01*
X27013341Y-475096D01*
X27013342Y-475113D01*
X27068608Y-812216D01*
X27068613Y-812237D01*
X27160004Y-1141400D01*
X27160005Y-1141402D01*
X27286452Y-1458762D01*
X27286461Y-1458780D01*
X27446483Y-1760612D01*
X27446484Y-1760615D01*
X27638196Y-2043368D01*
X27638204Y-2043378D01*
X27798562Y-2232165D01*
X27859365Y-2303747D01*
X28107386Y-2538686D01*
X28379356Y-2745432D01*
X28672084Y-2921560D01*
X28672089Y-2921562D01*
X28672092Y-2921564D01*
X28862636Y-3009719D01*
X28982139Y-3065007D01*
X29305886Y-3174090D01*
X29639529Y-3247530D01*
X29979156Y-3284467D01*
X30093798Y-3284467D01*
X32771879Y-3284467D01*
X32771929Y-3284470D01*
X32781892Y-3284469D01*
X32781894Y-3284470D01*
X32819098Y-3284467D01*
X32839727Y-3286195D01*
X32874353Y-3292038D01*
X32913345Y-3305588D01*
X32934885Y-3317402D01*
X32967270Y-3343001D01*
X32983740Y-3361237D01*
X33005925Y-3396051D01*
X33015493Y-3418676D01*
X33025019Y-3458841D01*
X33027241Y-3492647D01*
X33026655Y-3515299D01*
X32906253Y-4536508D01*
X32905996Y-4538434D01*
X32890323Y-4643049D01*
X23500000Y-4660000D01*
X23494445Y-949916D01*
X23514029Y-882851D01*
X23566765Y-837017D01*
X23635908Y-826970D01*
X23667342Y-835782D01*
X23843988Y-911587D01*
X24033344Y-950500D01*
X24178207Y-950500D01*
X24322322Y-935845D01*
X24506759Y-877977D01*
X24506760Y-877976D01*
X24506768Y-877974D01*
X24675791Y-784159D01*
X24822468Y-658240D01*
X24940796Y-505373D01*
X25025930Y-331816D01*
X25074385Y-144674D01*
X25084176Y48390D01*
X25054903Y239474D01*
X24987764Y420753D01*
X24935020Y505373D01*
X24885511Y584804D01*
X24885510Y584805D01*
X24885509Y584807D01*
X24752323Y724919D01*
X24687419Y770094D01*
X24593657Y835354D01*
X24416012Y911587D01*
X24226656Y950500D01*
X24081794Y950500D01*
X24081793Y950500D01*
X23937677Y935846D01*
X23753240Y877978D01*
X23753225Y877971D01*
X23675788Y834990D01*
X23607619Y819667D01*
X23541988Y843631D01*
X23499731Y899274D01*
X23491611Y943218D01*
X23480000Y8700000D01*
X23479999Y8700002D01*
X18460000Y15080000D01*
X13780000Y15130001D01*
X13693982Y12578151D01*
X13672050Y12511812D01*
X13617734Y12467862D01*
X13571794Y12458340D01*
X9545742Y12401767D01*
X9478433Y12420508D01*
X9431941Y12472664D01*
X9420000Y12525755D01*
X9420000Y16040001D01*
X9419999Y16040001D01*
X6360001Y16020001D01*
X6359998Y16019999D01*
X-374242Y9504597D01*
X-409111Y9486299D01*
X-54048Y15990000D01*
X1689353Y15990000D01*
X1709834Y15847544D01*
X1769622Y15716629D01*
X1769623Y15716627D01*
X1863872Y15607857D01*
X1984947Y15530047D01*
X1984950Y15530046D01*
X1984949Y15530046D01*
X2123036Y15489501D01*
X2123038Y15489500D01*
X2123039Y15489500D01*
X2266962Y15489500D01*
X2266962Y15489501D01*
X2405053Y15530047D01*
X2526128Y15607857D01*
X2620377Y15716627D01*
X2680165Y15847543D01*
X2700647Y15990000D01*
X2680165Y16132457D01*
X2620377Y16263373D01*
X2526128Y16372143D01*
X2405053Y16449953D01*
X2405051Y16449954D01*
X2405049Y16449955D01*
X2405050Y16449955D01*
X2266963Y16490500D01*
X2266961Y16490500D01*
X2123039Y16490500D01*
X2123036Y16490500D01*
X1984949Y16449955D01*
X1863873Y16372144D01*
X1769623Y16263374D01*
X1769622Y16263372D01*
X1709834Y16132457D01*
X1689353Y15990000D01*
X-54048Y15990000D01*
X227384Y21145000D01*
X7099353Y21145000D01*
X7119834Y21002544D01*
X7179622Y20871629D01*
X7179623Y20871627D01*
X7273872Y20762857D01*
X7394947Y20685047D01*
X7394950Y20685046D01*
X7394949Y20685046D01*
X7533036Y20644501D01*
X7533038Y20644500D01*
X7533039Y20644500D01*
X7676962Y20644500D01*
X7676962Y20644501D01*
X7815053Y20685047D01*
X7936128Y20762857D01*
X8030377Y20871627D01*
X8090165Y21002543D01*
X8110647Y21145000D01*
X8090165Y21287457D01*
X8030377Y21418373D01*
X7936128Y21527143D01*
X7815053Y21604953D01*
X7815051Y21604954D01*
X7815049Y21604955D01*
X7815050Y21604955D01*
X7676963Y21645500D01*
X7676961Y21645500D01*
X7533039Y21645500D01*
X7533036Y21645500D01*
X7394949Y21604955D01*
X7273873Y21527144D01*
X7179623Y21418374D01*
X7179622Y21418372D01*
X7119834Y21287457D01*
X7099353Y21145000D01*
X227384Y21145000D01*
X354042Y23465000D01*
X375741Y23465000D01*
X375741Y23465001D01*
X513832Y23505547D01*
X634907Y23583357D01*
X729156Y23692127D01*
X788944Y23823043D01*
X809426Y23965500D01*
X788944Y24107957D01*
X729156Y24238873D01*
X634907Y24347643D01*
X513832Y24425453D01*
X513829Y24425455D01*
X458608Y24441669D01*
X409098Y24473488D01*
X419084Y24656400D01*
X426504Y24664962D01*
X458613Y24679625D01*
X460053Y24680047D01*
X581128Y24757857D01*
X675377Y24866627D01*
X721231Y24967033D01*
X2497211Y24967033D01*
X2517692Y24824577D01*
X2548163Y24757857D01*
X2577481Y24693660D01*
X2671730Y24584890D01*
X2792805Y24507080D01*
X2792808Y24507079D01*
X2792807Y24507079D01*
X2930894Y24466534D01*
X2930896Y24466533D01*
X2930897Y24466533D01*
X3074820Y24466533D01*
X3074820Y24466534D01*
X3212911Y24507080D01*
X3333986Y24584890D01*
X3428235Y24693660D01*
X3481366Y24810000D01*
X11614353Y24810000D01*
X11634834Y24667544D01*
X11647642Y24639500D01*
X11694623Y24536627D01*
X11788872Y24427857D01*
X11909947Y24350047D01*
X11909950Y24350046D01*
X11909949Y24350046D01*
X12048036Y24309501D01*
X12048038Y24309500D01*
X12048039Y24309500D01*
X12191962Y24309500D01*
X12191962Y24309501D01*
X12330053Y24350047D01*
X12451128Y24427857D01*
X12545377Y24536627D01*
X12605165Y24667543D01*
X12625647Y24810000D01*
X12605165Y24952457D01*
X12545377Y25083373D01*
X12451128Y25192143D01*
X12330053Y25269953D01*
X12330051Y25269954D01*
X12330049Y25269955D01*
X12330050Y25269955D01*
X12191963Y25310500D01*
X12191961Y25310500D01*
X12048039Y25310500D01*
X12048036Y25310500D01*
X11909949Y25269955D01*
X11788873Y25192144D01*
X11694623Y25083374D01*
X11694622Y25083372D01*
X11634834Y24952457D01*
X11614353Y24810000D01*
X3481366Y24810000D01*
X3488023Y24824576D01*
X3508505Y24967033D01*
X3488023Y25109490D01*
X3428235Y25240406D01*
X3333986Y25349176D01*
X3212911Y25426986D01*
X3212909Y25426987D01*
X3212907Y25426988D01*
X3212908Y25426988D01*
X3074821Y25467533D01*
X3074819Y25467533D01*
X2930897Y25467533D01*
X2930894Y25467533D01*
X2792807Y25426988D01*
X2671731Y25349177D01*
X2577481Y25240407D01*
X2577480Y25240405D01*
X2517692Y25109490D01*
X2497211Y24967033D01*
X721231Y24967033D01*
X735165Y24997543D01*
X755647Y25140000D01*
X735165Y25282457D01*
X675377Y25413373D01*
X581128Y25522143D01*
X558768Y25536513D01*
X470239Y25593408D01*
X521072Y26524500D01*
X3741931Y26524500D01*
X3808970Y26504815D01*
X3835908Y26479822D01*
X3836128Y26480033D01*
X3839902Y26476117D01*
X3840937Y26475157D01*
X3841330Y26474636D01*
X3942151Y26370030D01*
X3942152Y26370028D01*
X3942154Y26370027D01*
X4065080Y26292588D01*
X4202966Y26246817D01*
X4318153Y26237717D01*
X4347796Y26235375D01*
X4347796Y26235376D01*
X4347799Y26235375D01*
X4491162Y26258926D01*
X4624723Y26316102D01*
X4740719Y26403580D01*
X4832411Y26516275D01*
X4864344Y26583873D01*
X4910776Y26636079D01*
X4978064Y26654896D01*
X5044843Y26634347D01*
X5078511Y26601347D01*
X5091815Y26582073D01*
X5091816Y26582072D01*
X5091817Y26582071D01*
X5155482Y26525669D01*
X5219150Y26469264D01*
X5369773Y26390211D01*
X5369775Y26390210D01*
X5534944Y26349500D01*
X5705056Y26349500D01*
X5870225Y26390210D01*
X5949692Y26431919D01*
X6020849Y26469264D01*
X6020850Y26469266D01*
X6020852Y26469266D01*
X6148183Y26582071D01*
X6244818Y26722070D01*
X6305140Y26881128D01*
X6320500Y27007628D01*
X6320500Y27892372D01*
X6305140Y28018872D01*
X6244818Y28177930D01*
X6148183Y28317929D01*
X6053316Y28401974D01*
X6020849Y28430737D01*
X5870226Y28509790D01*
X5705056Y28550500D01*
X5534944Y28550500D01*
X5369773Y28509790D01*
X5219150Y28430737D01*
X5154534Y28373491D01*
X5126725Y28348856D01*
X5063494Y28319135D01*
X4994230Y28328319D01*
X4940927Y28373491D01*
X4920507Y28440310D01*
X4920500Y28441672D01*
X4920500Y30258329D01*
X4940185Y30325368D01*
X4992989Y30371123D01*
X5062147Y30381067D01*
X5125703Y30352042D01*
X5126592Y30351263D01*
X5219148Y30269266D01*
X5369775Y30190210D01*
X5534944Y30149500D01*
X5705056Y30149500D01*
X5870225Y30190210D01*
X6000014Y30258329D01*
X6020849Y30269264D01*
X6020850Y30269266D01*
X6020852Y30269266D01*
X6148183Y30382071D01*
X6244818Y30522070D01*
X6305140Y30681128D01*
X6320500Y30807628D01*
X6320500Y32092372D01*
X6305140Y32218872D01*
X6244818Y32377930D01*
X6148183Y32517929D01*
X6020852Y32630734D01*
X6020849Y32630737D01*
X5870226Y32709790D01*
X5705056Y32750500D01*
X5534944Y32750500D01*
X5369773Y32709790D01*
X5219150Y32630737D01*
X5154534Y32573491D01*
X5126725Y32548856D01*
X5063494Y32519135D01*
X4994230Y32528319D01*
X4940927Y32573491D01*
X4920507Y32640310D01*
X4920500Y32641672D01*
X4920500Y33056779D01*
X4940185Y33123818D01*
X4992989Y33169573D01*
X5062147Y33179517D01*
X5063000Y33179391D01*
G37*
%TD.AperFunction*%
%TD*%
%TA.AperFunction,Conductor*%
%TO.N,GND*%
G36*
X8952216Y15559860D02*
G01*
X8998385Y15507418D01*
X9010000Y15455020D01*
X9010000Y11880000D01*
X13920318Y11860161D01*
X13959998Y11860000D01*
X13959998Y11860001D01*
X13960000Y11860000D01*
X14286204Y14421666D01*
X14314200Y14485680D01*
X14372360Y14524398D01*
X14409211Y14530000D01*
X18228863Y14530000D01*
X18295902Y14510315D01*
X18327226Y14481503D01*
X22954760Y8452881D01*
X22979965Y8387716D01*
X22980391Y8378551D01*
X23098812Y-4144380D01*
X23079763Y-4211603D01*
X23027394Y-4257855D01*
X22974377Y-4269552D01*
X-21735313Y-4110443D01*
X-21802282Y-4090520D01*
X-21847849Y-4037554D01*
X-21858867Y-3985317D01*
X-21831277Y-950500D01*
X-21823076Y-48390D01*
X-14924176Y-48390D01*
X-14894905Y-239466D01*
X-14894902Y-239478D01*
X-14827766Y-420748D01*
X-14827762Y-420757D01*
X-14725512Y-584803D01*
X-14725511Y-584804D01*
X-14725509Y-584807D01*
X-14592323Y-724919D01*
X-14433658Y-835353D01*
X-14256012Y-911587D01*
X-14066656Y-950500D01*
X-13921793Y-950500D01*
X-13777678Y-935845D01*
X-13593241Y-877977D01*
X-13593240Y-877976D01*
X-13593232Y-877974D01*
X-13424209Y-784159D01*
X-13277532Y-658240D01*
X-13159204Y-505373D01*
X-13074070Y-331816D01*
X-13025615Y-144674D01*
X-13020732Y-48390D01*
X-6034176Y-48390D01*
X-6004905Y-239466D01*
X-6004902Y-239478D01*
X-5937766Y-420748D01*
X-5937762Y-420757D01*
X-5835512Y-584803D01*
X-5835511Y-584804D01*
X-5835509Y-584807D01*
X-5702323Y-724919D01*
X-5543658Y-835353D01*
X-5366012Y-911587D01*
X-5176656Y-950500D01*
X-5031793Y-950500D01*
X-4887678Y-935845D01*
X-4703241Y-877977D01*
X-4703240Y-877976D01*
X-4703232Y-877974D01*
X-4534209Y-784159D01*
X-4387532Y-658240D01*
X-4269204Y-505373D01*
X-4184070Y-331816D01*
X-4135615Y-144674D01*
X-4130732Y-48390D01*
X4125824Y-48390D01*
X4155095Y-239466D01*
X4155098Y-239478D01*
X4222234Y-420748D01*
X4222238Y-420757D01*
X4324488Y-584803D01*
X4324489Y-584804D01*
X4324491Y-584807D01*
X4457677Y-724919D01*
X4616342Y-835353D01*
X4793988Y-911587D01*
X4983344Y-950500D01*
X5128207Y-950500D01*
X5272322Y-935845D01*
X5456759Y-877977D01*
X5456760Y-877976D01*
X5456768Y-877974D01*
X5625791Y-784159D01*
X5772468Y-658240D01*
X5890796Y-505373D01*
X5975930Y-331816D01*
X6024385Y-144674D01*
X6029268Y-48390D01*
X13015824Y-48390D01*
X13045095Y-239466D01*
X13045098Y-239478D01*
X13112234Y-420748D01*
X13112238Y-420757D01*
X13214488Y-584803D01*
X13214489Y-584804D01*
X13214491Y-584807D01*
X13347677Y-724919D01*
X13506342Y-835353D01*
X13683988Y-911587D01*
X13873344Y-950500D01*
X14018207Y-950500D01*
X14162322Y-935845D01*
X14346759Y-877977D01*
X14346760Y-877976D01*
X14346768Y-877974D01*
X14515791Y-784159D01*
X14662468Y-658240D01*
X14780796Y-505373D01*
X14865930Y-331816D01*
X14914385Y-144674D01*
X14924176Y48390D01*
X14894903Y239474D01*
X14827764Y420753D01*
X14775020Y505373D01*
X14725511Y584804D01*
X14725510Y584805D01*
X14725509Y584807D01*
X14592323Y724919D01*
X14507211Y784159D01*
X14433657Y835354D01*
X14256012Y911587D01*
X14066656Y950500D01*
X13921794Y950500D01*
X13921793Y950500D01*
X13777677Y935846D01*
X13593240Y877978D01*
X13593225Y877971D01*
X13424211Y784161D01*
X13424206Y784158D01*
X13277533Y658242D01*
X13277531Y658241D01*
X13159205Y505376D01*
X13159203Y505372D01*
X13074068Y331813D01*
X13025616Y144683D01*
X13025615Y144677D01*
X13015824Y-48390D01*
X6029268Y-48390D01*
X6034176Y48390D01*
X6004903Y239474D01*
X5937764Y420753D01*
X5885020Y505373D01*
X5835511Y584804D01*
X5835510Y584805D01*
X5835509Y584807D01*
X5702323Y724919D01*
X5617211Y784159D01*
X5543657Y835354D01*
X5366012Y911587D01*
X5176656Y950500D01*
X5031794Y950500D01*
X5031793Y950500D01*
X4887677Y935846D01*
X4703240Y877978D01*
X4703225Y877971D01*
X4534211Y784161D01*
X4534206Y784158D01*
X4387533Y658242D01*
X4387531Y658241D01*
X4269205Y505376D01*
X4269203Y505372D01*
X4184068Y331813D01*
X4135616Y144683D01*
X4135615Y144677D01*
X4125824Y-48390D01*
X-4130732Y-48390D01*
X-4125824Y48390D01*
X-4155097Y239474D01*
X-4222236Y420753D01*
X-4274980Y505373D01*
X-4324489Y584804D01*
X-4324490Y584805D01*
X-4324491Y584807D01*
X-4457677Y724919D01*
X-4542789Y784159D01*
X-4616343Y835354D01*
X-4793988Y911587D01*
X-4983344Y950500D01*
X-5128206Y950500D01*
X-5128207Y950500D01*
X-5272323Y935846D01*
X-5456760Y877978D01*
X-5456775Y877971D01*
X-5625789Y784161D01*
X-5625794Y784158D01*
X-5772467Y658242D01*
X-5772469Y658241D01*
X-5890795Y505376D01*
X-5890797Y505372D01*
X-5975932Y331813D01*
X-6024384Y144683D01*
X-6024385Y144677D01*
X-6034176Y-48390D01*
X-13020732Y-48390D01*
X-13015824Y48390D01*
X-13045097Y239474D01*
X-13112236Y420753D01*
X-13164980Y505373D01*
X-13214489Y584804D01*
X-13214490Y584805D01*
X-13214491Y584807D01*
X-13347677Y724919D01*
X-13432789Y784159D01*
X-13506343Y835354D01*
X-13683988Y911587D01*
X-13873344Y950500D01*
X-14018206Y950500D01*
X-14018207Y950500D01*
X-14162323Y935846D01*
X-14346760Y877978D01*
X-14346775Y877971D01*
X-14515789Y784161D01*
X-14515794Y784158D01*
X-14662467Y658242D01*
X-14662469Y658241D01*
X-14780795Y505376D01*
X-14780797Y505372D01*
X-14865932Y331813D01*
X-14914384Y144683D01*
X-14914385Y144677D01*
X-14924176Y-48390D01*
X-21823076Y-48390D01*
X-21790797Y3502336D01*
X-21770504Y3569193D01*
X-21717286Y3614466D01*
X-21707094Y3618480D01*
X-9680000Y7750000D01*
X-9680000Y8719880D01*
X-9660315Y8786919D01*
X-9619913Y8826140D01*
X-8300000Y9620000D01*
X-8300000Y10610000D01*
X-8300000Y10630000D01*
X-8326796Y11692875D01*
X-8308806Y11760389D01*
X-8257172Y11807460D01*
X-8202834Y11820000D01*
X-7574000Y11820000D01*
X-7506961Y11800315D01*
X-7461206Y11747511D01*
X-7450000Y11696000D01*
X-7450000Y10990000D01*
X-6784000Y10990000D01*
X-6716961Y10970315D01*
X-6671206Y10917511D01*
X-6660000Y10866001D01*
X-6660000Y5850000D01*
X-4879946Y5840056D01*
X-4870001Y5840000D01*
X-4870002Y5840001D01*
X-4870000Y5840000D01*
X-4937838Y9919939D01*
X-4919271Y9987294D01*
X-4867235Y10033920D01*
X-4809983Y10045937D01*
X-3378731Y10001211D01*
X-3312341Y9979443D01*
X-3308869Y9976966D01*
X-1110000Y8350000D01*
X6434504Y15526238D01*
X6496645Y15558178D01*
X6518986Y15560386D01*
X8885024Y15579016D01*
X8952216Y15559860D01*
G37*
%TD.AperFunction*%
%TD*%
%TA.AperFunction,Conductor*%
%TO.N,GND*%
G36*
X-4998555Y33169307D02*
G01*
X-4945375Y33123990D01*
X-4925137Y33057116D01*
X-4925133Y33056184D01*
X-4924826Y32645598D01*
X-4944460Y32578544D01*
X-4997230Y32532749D01*
X-5066381Y32522754D01*
X-5129959Y32551731D01*
X-5131053Y32552689D01*
X-5139240Y32559942D01*
X-5219148Y32630734D01*
X-5219150Y32630735D01*
X-5219151Y32630736D01*
X-5369774Y32709790D01*
X-5534944Y32750500D01*
X-5705056Y32750500D01*
X-5870227Y32709790D01*
X-6020850Y32630737D01*
X-6148184Y32517928D01*
X-6244818Y32377932D01*
X-6305140Y32218875D01*
X-6305141Y32218869D01*
X-6320500Y32092375D01*
X-6320500Y30807626D01*
X-6305141Y30681132D01*
X-6305140Y30681126D01*
X-6244818Y30522069D01*
X-6182525Y30431823D01*
X-6148183Y30382071D01*
X-6110730Y30348891D01*
X-6020850Y30269264D01*
X-5877627Y30194095D01*
X-5870225Y30190210D01*
X-5705056Y30149500D01*
X-5534944Y30149500D01*
X-5369775Y30190210D01*
X-5219148Y30269266D01*
X-5129270Y30348892D01*
X-5066038Y30378613D01*
X-4996774Y30369430D01*
X-4943470Y30324258D01*
X-4923050Y30257438D01*
X-4923043Y30256169D01*
X-4921690Y28442819D01*
X-4941325Y28375764D01*
X-4994094Y28329970D01*
X-5063245Y28319975D01*
X-5126823Y28348952D01*
X-5127917Y28349911D01*
X-5219148Y28430734D01*
X-5219150Y28430736D01*
X-5369774Y28509790D01*
X-5534944Y28550500D01*
X-5705056Y28550500D01*
X-5870227Y28509790D01*
X-6020850Y28430737D01*
X-6137362Y28327516D01*
X-6145873Y28319975D01*
X-6148184Y28317928D01*
X-6244818Y28177932D01*
X-6305140Y28018875D01*
X-6305141Y28018869D01*
X-6320500Y27892375D01*
X-6320500Y27007626D01*
X-6305141Y26881132D01*
X-6305140Y26881126D01*
X-6244818Y26722069D01*
X-6197755Y26653888D01*
X-6148183Y26582071D01*
X-6044310Y26490048D01*
X-6020850Y26469264D01*
X-5870227Y26390211D01*
X-5870225Y26390210D01*
X-5705056Y26349500D01*
X-5534944Y26349500D01*
X-5369775Y26390210D01*
X-5290308Y26431919D01*
X-5219151Y26469264D01*
X-5219150Y26469266D01*
X-5219148Y26469266D01*
X-5091817Y26582071D01*
X-5078512Y26601347D01*
X-5024232Y26645336D01*
X-4954783Y26652996D01*
X-4892218Y26621894D01*
X-4864345Y26583873D01*
X-4832411Y26516275D01*
X-4750010Y26415000D01*
X-4740718Y26403579D01*
X-4624725Y26316103D01*
X-4624724Y26316103D01*
X-4624723Y26316102D01*
X-4491162Y26258926D01*
X-4347799Y26235375D01*
X-4347798Y26235376D01*
X-4347797Y26235375D01*
X-4328036Y26236937D01*
X-4202966Y26246817D01*
X-4065080Y26292588D01*
X-3942154Y26370027D01*
X-3841333Y26474633D01*
X-3841331Y26474636D01*
X-3840937Y26475157D01*
X-3840552Y26475444D01*
X-3836128Y26480033D01*
X-3835366Y26479298D01*
X-3784858Y26516833D01*
X-3741931Y26524500D01*
X521071Y26524500D01*
X488094Y25920448D01*
X470597Y25599955D01*
X470239Y25593408D01*
X460051Y25599955D01*
X321963Y25640500D01*
X321961Y25640500D01*
X178039Y25640500D01*
X178036Y25640500D01*
X39949Y25599955D01*
X-81127Y25522144D01*
X-175377Y25413374D01*
X-175378Y25413372D01*
X-235166Y25282457D01*
X-255647Y25140001D01*
X-235166Y24997544D01*
X-186052Y24890001D01*
X-175377Y24866627D01*
X-81128Y24757857D01*
X39947Y24680047D01*
X39950Y24680046D01*
X39949Y24680046D01*
X95169Y24663832D01*
X153947Y24626058D01*
X182973Y24562503D01*
X173030Y24493344D01*
X127275Y24440540D01*
X95176Y24425880D01*
X93730Y24425456D01*
X93729Y24425455D01*
X-27348Y24347644D01*
X-121598Y24238874D01*
X-121599Y24238872D01*
X-181387Y24107957D01*
X-201868Y23965500D01*
X-181387Y23823044D01*
X-121599Y23692129D01*
X-121598Y23692127D01*
X-27349Y23583357D01*
X93726Y23505547D01*
X93729Y23505546D01*
X93728Y23505546D01*
X231815Y23465001D01*
X231817Y23465000D01*
X354041Y23465000D01*
X37700Y17670547D01*
X-409111Y9486299D01*
X-436109Y9472129D01*
X-459754Y9469716D01*
X-2121460Y9460221D01*
X-2188611Y9479522D01*
X-2191873Y9481665D01*
X-3440000Y10330000D01*
X-4118604Y10330000D01*
X-4185643Y10349685D01*
X-4225705Y10395919D01*
X-4265766Y10349685D01*
X-4332805Y10330000D01*
X-5310000Y10330000D01*
X-5280979Y6624971D01*
X-5300138Y6557780D01*
X-5352582Y6511613D01*
X-5404975Y6500000D01*
X-6248329Y6500000D01*
X-6315368Y6519685D01*
X-6361123Y6572489D01*
X-6372307Y6621649D01*
X-6393160Y7721173D01*
X-6456738Y11073417D01*
X-4731352Y11073417D01*
X-4710871Y10930961D01*
X-4651083Y10800046D01*
X-4651082Y10800044D01*
X-4556833Y10691274D01*
X-4435758Y10613464D01*
X-4435755Y10613463D01*
X-4435756Y10613463D01*
X-4297872Y10572977D01*
X-4239093Y10535203D01*
X-4225705Y10505888D01*
X-4212317Y10535203D01*
X-4153539Y10572977D01*
X-4153538Y10572977D01*
X-4015655Y10613463D01*
X-4015655Y10613464D01*
X-4015652Y10613464D01*
X-3894577Y10691274D01*
X-3800328Y10800044D01*
X-3740540Y10930960D01*
X-3720058Y11073417D01*
X-3740540Y11215874D01*
X-3800328Y11346790D01*
X-3894577Y11455560D01*
X-4015652Y11533370D01*
X-4015654Y11533371D01*
X-4015656Y11533372D01*
X-4015655Y11533372D01*
X-4153742Y11573917D01*
X-4153744Y11573917D01*
X-4297666Y11573917D01*
X-4297669Y11573917D01*
X-4435756Y11533372D01*
X-4556832Y11455561D01*
X-4651082Y11346791D01*
X-4651083Y11346789D01*
X-4710871Y11215874D01*
X-4731352Y11073417D01*
X-6456738Y11073417D01*
X-6475551Y12065373D01*
X-6464368Y12119229D01*
X-6414673Y12228043D01*
X-6394191Y12370500D01*
X-6414673Y12512957D01*
X-6474461Y12643873D01*
X-6568710Y12752643D01*
X-6689785Y12830453D01*
X-6689787Y12830454D01*
X-6689789Y12830455D01*
X-6689788Y12830455D01*
X-6827875Y12871000D01*
X-6827877Y12871000D01*
X-6971799Y12871000D01*
X-6971803Y12871000D01*
X-7011887Y12859230D01*
X-7081757Y12859230D01*
X-7140535Y12897005D01*
X-7169559Y12960561D01*
X-7159615Y13029719D01*
X-7151815Y13044179D01*
X-7102164Y13123199D01*
X-7042623Y13293359D01*
X-7042622Y13293362D01*
X-7022438Y13472498D01*
X-7022438Y13472503D01*
X-7026517Y13508702D01*
X-4517632Y13508702D01*
X-4497151Y13366246D01*
X-4472792Y13312908D01*
X-4437362Y13235329D01*
X-4343113Y13126559D01*
X-4222038Y13048749D01*
X-4222035Y13048748D01*
X-4222036Y13048748D01*
X-4083949Y13008203D01*
X-4083947Y13008202D01*
X-4083946Y13008202D01*
X-3940023Y13008202D01*
X-3940023Y13008203D01*
X-3801932Y13048749D01*
X-3680857Y13126559D01*
X-3586608Y13235329D01*
X-3526820Y13366245D01*
X-3506338Y13508702D01*
X-3526820Y13651159D01*
X-3586608Y13782075D01*
X-3680857Y13890845D01*
X-3801932Y13968655D01*
X-3801934Y13968656D01*
X-3801936Y13968657D01*
X-3801935Y13968657D01*
X-3940022Y14009202D01*
X-3940024Y14009202D01*
X-4083946Y14009202D01*
X-4083949Y14009202D01*
X-4222036Y13968657D01*
X-4343112Y13890846D01*
X-4437362Y13782076D01*
X-4437363Y13782074D01*
X-4497151Y13651159D01*
X-4517632Y13508702D01*
X-7026517Y13508702D01*
X-7042622Y13651639D01*
X-7042623Y13651642D01*
X-7102163Y13821799D01*
X-7102165Y13821803D01*
X-7110840Y13835609D01*
X-7739820Y13206629D01*
X-7801143Y13173144D01*
X-7870835Y13178128D01*
X-7915182Y13206629D01*
X-8093372Y13384819D01*
X-8126857Y13446142D01*
X-8123418Y13494225D01*
X-8006423Y13494225D01*
X-7996025Y13408587D01*
X-7947019Y13337591D01*
X-7870634Y13297500D01*
X-7806253Y13297500D01*
X-7743740Y13312908D01*
X-7679168Y13370114D01*
X-7648577Y13450775D01*
X-7658975Y13536413D01*
X-7707981Y13607409D01*
X-7784366Y13647500D01*
X-7848747Y13647500D01*
X-7911260Y13632092D01*
X-7975832Y13574886D01*
X-8006423Y13494225D01*
X-8123418Y13494225D01*
X-8121873Y13515834D01*
X-8093372Y13560181D01*
X-7543553Y14110000D01*
X-8202778Y14769225D01*
X-8006423Y14769225D01*
X-7996025Y14683587D01*
X-7947019Y14612591D01*
X-7870634Y14572500D01*
X-7806253Y14572500D01*
X-7743740Y14587908D01*
X-7679168Y14645114D01*
X-7648577Y14725775D01*
X-7651215Y14747500D01*
X-7473947Y14747500D01*
X-7110840Y14384393D01*
X-7110839Y14384393D01*
X-7102167Y14398193D01*
X-7042622Y14568362D01*
X-7022438Y14747498D01*
X-7022438Y14747503D01*
X-7042622Y14926639D01*
X-7042623Y14926642D01*
X-7102163Y15096799D01*
X-7102165Y15096803D01*
X-7110840Y15110609D01*
X-7473947Y14747501D01*
X-7473947Y14747500D01*
X-7651215Y14747500D01*
X-7658975Y14811413D01*
X-7707981Y14882409D01*
X-7784366Y14922500D01*
X-7848747Y14922500D01*
X-7911260Y14907092D01*
X-7975832Y14849886D01*
X-8006423Y14769225D01*
X-8202778Y14769225D01*
X-8465000Y15031447D01*
X-9014819Y14481628D01*
X-9076142Y14448143D01*
X-9145834Y14453127D01*
X-9190181Y14481628D01*
X-9477778Y14769225D01*
X-9281423Y14769225D01*
X-9271025Y14683587D01*
X-9222019Y14612591D01*
X-9145634Y14572500D01*
X-9081253Y14572500D01*
X-9018740Y14587908D01*
X-8954168Y14645114D01*
X-8923577Y14725775D01*
X-8933975Y14811413D01*
X-8982981Y14882409D01*
X-9059366Y14922500D01*
X-9123747Y14922500D01*
X-9186260Y14907092D01*
X-9250832Y14849886D01*
X-9281423Y14769225D01*
X-9477778Y14769225D01*
X-9740000Y15031447D01*
X-10377500Y14393947D01*
X-10661448Y14110000D01*
X-10111629Y13560181D01*
X-10078144Y13498858D01*
X-10083128Y13429167D01*
X-10111629Y13384819D01*
X-10289819Y13206629D01*
X-10351142Y13173144D01*
X-10420834Y13178128D01*
X-10465181Y13206629D01*
X-10752777Y13494225D01*
X-10556423Y13494225D01*
X-10546025Y13408587D01*
X-10497019Y13337591D01*
X-10420634Y13297500D01*
X-10356253Y13297500D01*
X-10293740Y13312908D01*
X-10229168Y13370114D01*
X-10198577Y13450775D01*
X-10208975Y13536413D01*
X-10257981Y13607409D01*
X-10334366Y13647500D01*
X-10398747Y13647500D01*
X-10461260Y13632092D01*
X-10525832Y13574886D01*
X-10556423Y13494225D01*
X-10752777Y13494225D01*
X-11094162Y13835610D01*
X-11094162Y13835609D01*
X-11102836Y13821804D01*
X-11162378Y13651642D01*
X-11162379Y13651639D01*
X-11182562Y13472503D01*
X-11182562Y13472495D01*
X-11182462Y13471607D01*
X-11182562Y13471037D01*
X-11182562Y13465536D01*
X-11183525Y13465536D01*
X-11194517Y13402785D01*
X-11241867Y13351407D01*
X-11276294Y13339161D01*
X-11275952Y13337999D01*
X-11422551Y13294955D01*
X-11543627Y13217144D01*
X-11637877Y13108374D01*
X-11637878Y13108372D01*
X-11697666Y12977457D01*
X-11718147Y12835000D01*
X-11697666Y12692544D01*
X-11641415Y12569373D01*
X-11637877Y12561627D01*
X-11543628Y12452857D01*
X-11422553Y12375047D01*
X-11422550Y12375046D01*
X-11422551Y12375046D01*
X-11275952Y12332001D01*
X-11276601Y12329792D01*
X-11224483Y12305992D01*
X-11186706Y12247216D01*
X-11182989Y12204464D01*
X-11182562Y12204464D01*
X-11182562Y12199558D01*
X-11182461Y12198396D01*
X-11182562Y12197500D01*
X-11182562Y12197498D01*
X-11162379Y12018362D01*
X-11162378Y12018359D01*
X-11102838Y11848202D01*
X-11102833Y11848192D01*
X-11094162Y11834392D01*
X-10709328Y12219225D01*
X-10556423Y12219225D01*
X-10546025Y12133587D01*
X-10497019Y12062591D01*
X-10420634Y12022500D01*
X-10356253Y12022500D01*
X-10293740Y12037908D01*
X-10229168Y12095114D01*
X-10198577Y12175775D01*
X-10208975Y12261413D01*
X-10257981Y12332409D01*
X-10334366Y12372500D01*
X-10398747Y12372500D01*
X-10461260Y12357092D01*
X-10525832Y12299886D01*
X-10556423Y12219225D01*
X-10709328Y12219225D01*
X-10465181Y12463372D01*
X-10403858Y12496857D01*
X-10334166Y12491873D01*
X-10289819Y12463372D01*
X-9740000Y11913553D01*
X-9434328Y12219225D01*
X-9281423Y12219225D01*
X-9271025Y12133587D01*
X-9222019Y12062591D01*
X-9145634Y12022500D01*
X-9081253Y12022500D01*
X-9018740Y12037908D01*
X-8954168Y12095114D01*
X-8923577Y12175775D01*
X-8933975Y12261413D01*
X-8982981Y12332409D01*
X-9059366Y12372500D01*
X-9123747Y12372500D01*
X-9186260Y12357092D01*
X-9250832Y12299886D01*
X-9281423Y12219225D01*
X-9434328Y12219225D01*
X-9190181Y12463372D01*
X-9128858Y12496857D01*
X-9059166Y12491873D01*
X-9014819Y12463372D01*
X-8836629Y12285182D01*
X-8803144Y12223859D01*
X-8808128Y12154167D01*
X-8836629Y12109820D01*
X-9465609Y11480840D01*
X-9451803Y11472165D01*
X-9451799Y11472163D01*
X-9281642Y11412623D01*
X-9281639Y11412622D01*
X-9102503Y11392438D01*
X-9102497Y11392438D01*
X-8923362Y11412622D01*
X-8798565Y11456290D01*
X-8728786Y11459851D01*
X-8668158Y11425122D01*
X-8635931Y11363129D01*
X-8633611Y11338787D01*
X-8639730Y9692882D01*
X-8659664Y9625916D01*
X-8703809Y9584782D01*
X-10180001Y8770001D01*
X-10180001Y8770000D01*
X-10206477Y8125735D01*
X-10228897Y8059561D01*
X-10283535Y8016013D01*
X-10291477Y8013085D01*
X-23590000Y3620001D01*
X-23609351Y998129D01*
X-23629530Y931236D01*
X-23682670Y885873D01*
X-23751900Y876440D01*
X-23782247Y885093D01*
X-23843986Y911587D01*
X-24033344Y950500D01*
X-24178206Y950500D01*
X-24178207Y950500D01*
X-24322323Y935846D01*
X-24506760Y877978D01*
X-24506775Y877971D01*
X-24675789Y784161D01*
X-24675794Y784158D01*
X-24822467Y658242D01*
X-24822469Y658241D01*
X-24940795Y505376D01*
X-24940797Y505372D01*
X-25025932Y331813D01*
X-25074384Y144683D01*
X-25074385Y144677D01*
X-25084176Y-48390D01*
X-25054905Y-239466D01*
X-25054902Y-239478D01*
X-24987766Y-420748D01*
X-24987762Y-420757D01*
X-24885512Y-584803D01*
X-24885511Y-584804D01*
X-24885509Y-584807D01*
X-24752323Y-724919D01*
X-24593658Y-835353D01*
X-24416012Y-911587D01*
X-24226656Y-950500D01*
X-24081793Y-950500D01*
X-24009737Y-943172D01*
X-23937679Y-935845D01*
X-23785267Y-888024D01*
X-23715411Y-886737D01*
X-23655947Y-923422D01*
X-23625755Y-986432D01*
X-23624150Y-1007253D01*
X-23649749Y-4475981D01*
X-23649966Y-4505337D01*
X-32913555Y-4474950D01*
X-33026664Y-3515534D01*
X-33027250Y-3492884D01*
X-33025013Y-3458846D01*
X-33015488Y-3418682D01*
X-33014593Y-3416564D01*
X-33005921Y-3396058D01*
X-32983741Y-3361248D01*
X-32967273Y-3343015D01*
X-32934895Y-3317417D01*
X-32913359Y-3305602D01*
X-32874370Y-3292050D01*
X-32852202Y-3288306D01*
X-32839714Y-3286198D01*
X-32819067Y-3284467D01*
X-30201397Y-3284467D01*
X-30201377Y-3284473D01*
X-30150029Y-3284473D01*
X-29979220Y-3284473D01*
X-29979214Y-3284473D01*
X-29639586Y-3247536D01*
X-29305942Y-3174095D01*
X-28982195Y-3065012D01*
X-28672140Y-2921565D01*
X-28561391Y-2854929D01*
X-28379426Y-2745446D01*
X-28379421Y-2745442D01*
X-28379422Y-2745442D01*
X-28379411Y-2745436D01*
X-28107442Y-2538690D01*
X-27859419Y-2303751D01*
X-27638253Y-2043373D01*
X-27446534Y-1760609D01*
X-27286511Y-1458774D01*
X-27160061Y-1141408D01*
X-27068665Y-812230D01*
X-27051654Y-708463D01*
X-27013397Y-475113D01*
X-27013397Y-475110D01*
X-27013395Y-475099D01*
X-26994900Y-133970D01*
X-27013395Y207159D01*
X-27018693Y239474D01*
X-27068663Y544278D01*
X-27068664Y544279D01*
X-27068665Y544290D01*
X-27149478Y835353D01*
X-27160059Y873463D01*
X-27160060Y873465D01*
X-27161857Y877974D01*
X-27209730Y998129D01*
X-27286507Y1190825D01*
X-27286516Y1190843D01*
X-27446535Y1492670D01*
X-27489923Y1556663D01*
X-27638253Y1775433D01*
X-27638257Y1775438D01*
X-27638260Y1775442D01*
X-27859412Y2035803D01*
X-27859417Y2035809D01*
X-27951995Y2123503D01*
X-28107442Y2270750D01*
X-28379411Y2477496D01*
X-28379415Y2477499D01*
X-28379421Y2477503D01*
X-28379426Y2477507D01*
X-28672136Y2653623D01*
X-28672149Y2653630D01*
X-28982185Y2797068D01*
X-28982190Y2797070D01*
X-28982195Y2797072D01*
X-29140004Y2850244D01*
X-29305943Y2906156D01*
X-29639588Y2979597D01*
X-29979213Y3016533D01*
X-29979214Y3016533D01*
X-30093856Y3016533D01*
X-32819113Y3016533D01*
X-32839761Y3018264D01*
X-32874355Y3024107D01*
X-32913348Y3037662D01*
X-32934865Y3049467D01*
X-32967246Y3075070D01*
X-32983701Y3093292D01*
X-33005878Y3128102D01*
X-33015438Y3150714D01*
X-33024959Y3190879D01*
X-33027222Y3225387D01*
X-33026636Y3248003D01*
X-32906340Y4268369D01*
X-32906095Y4270205D01*
X-32752232Y5297338D01*
X-32751928Y5299171D01*
X-32565955Y6320982D01*
X-32565607Y6322741D01*
X-32347716Y7338181D01*
X-32347284Y7340052D01*
X-32097692Y8348125D01*
X-32097196Y8350003D01*
X-31816125Y9349807D01*
X-31815617Y9351511D01*
X-31775110Y9480000D01*
X-16405647Y9480000D01*
X-16385166Y9337544D01*
X-16325378Y9206629D01*
X-16325377Y9206627D01*
X-16231128Y9097857D01*
X-16110053Y9020047D01*
X-16110050Y9020046D01*
X-16110051Y9020046D01*
X-15971964Y8979501D01*
X-15971962Y8979500D01*
X-15971961Y8979500D01*
X-15828038Y8979500D01*
X-15828038Y8979501D01*
X-15689947Y9020047D01*
X-15568872Y9097857D01*
X-15474623Y9206627D01*
X-15414835Y9337543D01*
X-15394353Y9480000D01*
X-15414835Y9622457D01*
X-15474623Y9753373D01*
X-15568872Y9862143D01*
X-15689947Y9939953D01*
X-15689949Y9939954D01*
X-15689951Y9939955D01*
X-15689950Y9939955D01*
X-15828037Y9980500D01*
X-15828039Y9980500D01*
X-15971961Y9980500D01*
X-15971964Y9980500D01*
X-16110051Y9939955D01*
X-16231127Y9862144D01*
X-16325377Y9753374D01*
X-16325378Y9753372D01*
X-16385166Y9622457D01*
X-16405647Y9480000D01*
X-31775110Y9480000D01*
X-31503353Y10342028D01*
X-31502743Y10343861D01*
X-31408364Y10613464D01*
X-31159620Y11324036D01*
X-31158953Y11325846D01*
X-31099180Y11480840D01*
X-10740609Y11480840D01*
X-10726803Y11472165D01*
X-10726799Y11472163D01*
X-10556642Y11412623D01*
X-10556639Y11412622D01*
X-10377503Y11392438D01*
X-10377497Y11392438D01*
X-10198362Y11412622D01*
X-10028193Y11472167D01*
X-10014393Y11480839D01*
X-10014393Y11480840D01*
X-10377499Y11843947D01*
X-10377500Y11843947D01*
X-10740609Y11480840D01*
X-31099180Y11480840D01*
X-30831181Y12175775D01*
X-30785288Y12294779D01*
X-30784574Y12296550D01*
X-30729546Y12426917D01*
X-14932563Y12426917D01*
X-14912082Y12284460D01*
X-14875548Y12204464D01*
X-14852293Y12153543D01*
X-14758044Y12044773D01*
X-14636969Y11966963D01*
X-14636966Y11966962D01*
X-14636967Y11966962D01*
X-14498880Y11926417D01*
X-14498878Y11926416D01*
X-14498877Y11926416D01*
X-14354954Y11926416D01*
X-14354954Y11926417D01*
X-14216863Y11966963D01*
X-14095788Y12044773D01*
X-14001539Y12153543D01*
X-13941751Y12284459D01*
X-13921269Y12426916D01*
X-13941751Y12569373D01*
X-14001539Y12700289D01*
X-14095788Y12809059D01*
X-14216863Y12886869D01*
X-14216865Y12886870D01*
X-14216867Y12886871D01*
X-14216866Y12886871D01*
X-14354953Y12927416D01*
X-14354955Y12927416D01*
X-14498877Y12927416D01*
X-14498880Y12927416D01*
X-14636967Y12886871D01*
X-14758043Y12809060D01*
X-14852293Y12700290D01*
X-14852294Y12700288D01*
X-14912082Y12569373D01*
X-14932563Y12426917D01*
X-30729546Y12426917D01*
X-30380711Y13253343D01*
X-30379957Y13255056D01*
X-29946300Y14198750D01*
X-29945490Y14200443D01*
X-29673026Y14747498D01*
X-11182562Y14747498D01*
X-11162379Y14568362D01*
X-11162378Y14568359D01*
X-11102838Y14398202D01*
X-11102833Y14398192D01*
X-11094162Y14384392D01*
X-10731053Y14747500D01*
X-10731053Y14747501D01*
X-10752777Y14769225D01*
X-10556423Y14769225D01*
X-10546025Y14683587D01*
X-10497019Y14612591D01*
X-10420634Y14572500D01*
X-10356253Y14572500D01*
X-10293740Y14587908D01*
X-10229168Y14645114D01*
X-10198577Y14725775D01*
X-10208975Y14811413D01*
X-10257981Y14882409D01*
X-10334366Y14922500D01*
X-10398747Y14922500D01*
X-10461260Y14907092D01*
X-10525832Y14849886D01*
X-10556423Y14769225D01*
X-10752777Y14769225D01*
X-11094162Y15110610D01*
X-11094162Y15110609D01*
X-11102836Y15096804D01*
X-11162378Y14926642D01*
X-11162379Y14926639D01*
X-11182562Y14747503D01*
X-11182562Y14747498D01*
X-29673026Y14747498D01*
X-29482464Y15130109D01*
X-29481654Y15131673D01*
X-29302840Y15464162D01*
X-10740610Y15464162D01*
X-10377500Y15101053D01*
X-10377499Y15101053D01*
X-10014392Y15464162D01*
X-9465610Y15464162D01*
X-9102500Y15101053D01*
X-9102499Y15101053D01*
X-8739392Y15464162D01*
X-8190610Y15464162D01*
X-7827500Y15101053D01*
X-7827499Y15101053D01*
X-7493281Y15435273D01*
X-1750147Y15435273D01*
X-1729666Y15292817D01*
X-1669878Y15161902D01*
X-1669877Y15161900D01*
X-1575628Y15053130D01*
X-1454553Y14975320D01*
X-1454550Y14975319D01*
X-1454551Y14975319D01*
X-1316464Y14934774D01*
X-1316462Y14934773D01*
X-1316461Y14934773D01*
X-1172538Y14934773D01*
X-1172538Y14934774D01*
X-1034447Y14975320D01*
X-913372Y15053130D01*
X-819123Y15161900D01*
X-759335Y15292816D01*
X-738853Y15435273D01*
X-759335Y15577730D01*
X-819123Y15708646D01*
X-913372Y15817416D01*
X-1034447Y15895226D01*
X-1034449Y15895227D01*
X-1034451Y15895228D01*
X-1034450Y15895228D01*
X-1172537Y15935773D01*
X-1172539Y15935773D01*
X-1316461Y15935773D01*
X-1316464Y15935773D01*
X-1454551Y15895228D01*
X-1575627Y15817417D01*
X-1669877Y15708647D01*
X-1669878Y15708645D01*
X-1729666Y15577730D01*
X-1750147Y15435273D01*
X-7493281Y15435273D01*
X-7464392Y15464162D01*
X-7464392Y15464163D01*
X-7478192Y15472833D01*
X-7478202Y15472838D01*
X-7648359Y15532378D01*
X-7648362Y15532379D01*
X-7827497Y15552562D01*
X-7827503Y15552562D01*
X-8006639Y15532379D01*
X-8006642Y15532378D01*
X-8176804Y15472836D01*
X-8190609Y15464162D01*
X-8190610Y15464162D01*
X-8739392Y15464162D01*
X-8739392Y15464163D01*
X-8753192Y15472833D01*
X-8753202Y15472838D01*
X-8923359Y15532378D01*
X-8923362Y15532379D01*
X-9102497Y15552562D01*
X-9102503Y15552562D01*
X-9281639Y15532379D01*
X-9281642Y15532378D01*
X-9451804Y15472836D01*
X-9465609Y15464162D01*
X-9465610Y15464162D01*
X-10014392Y15464162D01*
X-10014392Y15464163D01*
X-10028192Y15472833D01*
X-10028202Y15472838D01*
X-10198359Y15532378D01*
X-10198362Y15532379D01*
X-10377497Y15552562D01*
X-10377503Y15552562D01*
X-10556639Y15532379D01*
X-10556642Y15532378D01*
X-10726804Y15472836D01*
X-10740609Y15464162D01*
X-10740610Y15464162D01*
X-29302840Y15464162D01*
X-28989691Y16046437D01*
X-28988821Y16047996D01*
X-28493538Y16903534D01*
X-28473912Y16929081D01*
X-28113493Y17289500D01*
X-13415647Y17289500D01*
X-13395166Y17147044D01*
X-13335378Y17016129D01*
X-13335377Y17016127D01*
X-13241128Y16907357D01*
X-13120053Y16829547D01*
X-13120050Y16829546D01*
X-13120051Y16829546D01*
X-12981964Y16789001D01*
X-12981962Y16789000D01*
X-12981961Y16789000D01*
X-12838038Y16789000D01*
X-12838038Y16789001D01*
X-12699947Y16829547D01*
X-12578872Y16907357D01*
X-12484623Y17016127D01*
X-12424835Y17147043D01*
X-12404353Y17289500D01*
X-12424835Y17431957D01*
X-12484623Y17562873D01*
X-12578872Y17671643D01*
X-12699947Y17749453D01*
X-12699949Y17749454D01*
X-12699951Y17749455D01*
X-12699950Y17749455D01*
X-12838037Y17790000D01*
X-12838039Y17790000D01*
X-12981961Y17790000D01*
X-12981964Y17790000D01*
X-13120051Y17749455D01*
X-13241127Y17671644D01*
X-13241128Y17671644D01*
X-13241128Y17671643D01*
X-13253710Y17657124D01*
X-13335377Y17562874D01*
X-13335378Y17562872D01*
X-13395166Y17431957D01*
X-13415647Y17289500D01*
X-28113493Y17289500D01*
X-27272493Y18130500D01*
X-10725485Y18130500D01*
X-10705004Y17988044D01*
X-10645216Y17857129D01*
X-10645215Y17857127D01*
X-10550966Y17748357D01*
X-10429891Y17670547D01*
X-10429888Y17670546D01*
X-10429889Y17670546D01*
X-10291802Y17630001D01*
X-10291800Y17630000D01*
X-10291799Y17630000D01*
X-10147876Y17630000D01*
X-10147876Y17630001D01*
X-10009785Y17670547D01*
X-9888710Y17748357D01*
X-9794461Y17857127D01*
X-9734673Y17988043D01*
X-9714191Y18130500D01*
X-9734673Y18272957D01*
X-9794461Y18403873D01*
X-9888710Y18512643D01*
X-10009785Y18590453D01*
X-10009787Y18590454D01*
X-10009789Y18590455D01*
X-10009788Y18590455D01*
X-10147875Y18631000D01*
X-10147877Y18631000D01*
X-10291799Y18631000D01*
X-10291802Y18631000D01*
X-10429889Y18590455D01*
X-10550965Y18512644D01*
X-10645215Y18403874D01*
X-10645216Y18403872D01*
X-10705004Y18272957D01*
X-10725485Y18130500D01*
X-27272493Y18130500D01*
X-25567664Y19835329D01*
X-24538090Y19835329D01*
X-24517609Y19692873D01*
X-24457821Y19561958D01*
X-24457820Y19561956D01*
X-24363571Y19453186D01*
X-24242496Y19375376D01*
X-24242493Y19375375D01*
X-24242494Y19375375D01*
X-24104407Y19334830D01*
X-24104405Y19334829D01*
X-24104404Y19334829D01*
X-23960481Y19334829D01*
X-23960481Y19334830D01*
X-23822390Y19375376D01*
X-23701315Y19453186D01*
X-23607066Y19561956D01*
X-23547278Y19692872D01*
X-23526796Y19835329D01*
X-23547278Y19977786D01*
X-23607066Y20108702D01*
X-23701315Y20217472D01*
X-23822390Y20295282D01*
X-23822392Y20295283D01*
X-23822394Y20295284D01*
X-23822393Y20295284D01*
X-23960480Y20335829D01*
X-23960482Y20335829D01*
X-24104404Y20335829D01*
X-24104407Y20335829D01*
X-24242494Y20295284D01*
X-24363570Y20217473D01*
X-24457820Y20108703D01*
X-24457821Y20108701D01*
X-24517609Y19977786D01*
X-24538090Y19835329D01*
X-25567664Y19835329D01*
X-24732992Y20670001D01*
X-19605647Y20670001D01*
X-19585166Y20527544D01*
X-19564575Y20482457D01*
X-19525377Y20396627D01*
X-19431128Y20287857D01*
X-19310053Y20210047D01*
X-19310050Y20210046D01*
X-19310051Y20210046D01*
X-19171964Y20169501D01*
X-19171962Y20169500D01*
X-19171961Y20169500D01*
X-19028038Y20169500D01*
X-19028038Y20169501D01*
X-18889947Y20210047D01*
X-18768872Y20287857D01*
X-18723689Y20340001D01*
X-10840647Y20340001D01*
X-10820166Y20197544D01*
X-10807359Y20169501D01*
X-10760377Y20066627D01*
X-10666128Y19957857D01*
X-10545053Y19880047D01*
X-10545050Y19880046D01*
X-10545051Y19880046D01*
X-10406964Y19839501D01*
X-10406962Y19839500D01*
X-10406961Y19839500D01*
X-10263038Y19839500D01*
X-10263038Y19839501D01*
X-10124947Y19880047D01*
X-10003872Y19957857D01*
X-9909623Y20066627D01*
X-9849835Y20197543D01*
X-9829353Y20340000D01*
X-9849835Y20482457D01*
X-9909623Y20613373D01*
X-10003872Y20722143D01*
X-10124947Y20799953D01*
X-10124949Y20799954D01*
X-10124951Y20799955D01*
X-10124950Y20799955D01*
X-10263037Y20840500D01*
X-10263039Y20840500D01*
X-10406961Y20840500D01*
X-10406964Y20840500D01*
X-10545051Y20799955D01*
X-10666127Y20722144D01*
X-10760377Y20613374D01*
X-10760378Y20613372D01*
X-10820166Y20482457D01*
X-10840647Y20340001D01*
X-18723689Y20340001D01*
X-18674623Y20396627D01*
X-18614835Y20527543D01*
X-18594353Y20670000D01*
X-18614835Y20812457D01*
X-18674623Y20943373D01*
X-18768872Y21052143D01*
X-18889947Y21129953D01*
X-18889949Y21129954D01*
X-18889951Y21129955D01*
X-18889950Y21129955D01*
X-19028037Y21170500D01*
X-19028039Y21170500D01*
X-19171961Y21170500D01*
X-19171964Y21170500D01*
X-19310051Y21129955D01*
X-19431127Y21052144D01*
X-19525377Y20943374D01*
X-19525378Y20943372D01*
X-19585166Y20812457D01*
X-19605647Y20670001D01*
X-24732992Y20670001D01*
X-20512992Y24890001D01*
X-3065647Y24890001D01*
X-3045166Y24747544D01*
X-3014340Y24680046D01*
X-2985377Y24616627D01*
X-2891128Y24507857D01*
X-2770053Y24430047D01*
X-2770050Y24430046D01*
X-2770051Y24430046D01*
X-2631964Y24389501D01*
X-2631962Y24389500D01*
X-2631961Y24389500D01*
X-2488038Y24389500D01*
X-2488038Y24389501D01*
X-2365586Y24425455D01*
X-2349950Y24430046D01*
X-2349950Y24430047D01*
X-2349947Y24430047D01*
X-2228872Y24507857D01*
X-2134623Y24616627D01*
X-2074835Y24747543D01*
X-2054353Y24890000D01*
X-2074835Y25032457D01*
X-2134623Y25163373D01*
X-2228872Y25272143D01*
X-2349947Y25349953D01*
X-2349949Y25349954D01*
X-2349951Y25349955D01*
X-2349950Y25349955D01*
X-2488037Y25390500D01*
X-2488039Y25390500D01*
X-2631961Y25390500D01*
X-2631964Y25390500D01*
X-2770051Y25349955D01*
X-2891127Y25272144D01*
X-2985377Y25163374D01*
X-2985378Y25163372D01*
X-3045166Y25032457D01*
X-3065647Y24890001D01*
X-20512992Y24890001D01*
X-19357745Y26045248D01*
X-16850500Y26045248D01*
X-16838869Y25986771D01*
X-16838868Y25986770D01*
X-16794553Y25920448D01*
X-16728231Y25876133D01*
X-16728230Y25876132D01*
X-16669753Y25864501D01*
X-16669750Y25864500D01*
X-16669748Y25864500D01*
X-14930250Y25864500D01*
X-14930249Y25864501D01*
X-14915432Y25867448D01*
X-14871771Y25876132D01*
X-14871771Y25876133D01*
X-14871769Y25876133D01*
X-14805448Y25920448D01*
X-14761133Y25986769D01*
X-14761133Y25986771D01*
X-14761132Y25986771D01*
X-14751078Y26037318D01*
X-14749500Y26045252D01*
X-14749500Y26915000D01*
X-14315583Y26915000D01*
X-14295301Y26709068D01*
X-14295300Y26709066D01*
X-14235232Y26511046D01*
X-14137685Y26328550D01*
X-14137683Y26328548D01*
X-14006411Y26168590D01*
X-13909791Y26089298D01*
X-13846450Y26037315D01*
X-13663954Y25939768D01*
X-13465934Y25879700D01*
X-13465935Y25879700D01*
X-13447471Y25877882D01*
X-13260000Y25859417D01*
X-13054066Y25879700D01*
X-12856046Y25939768D01*
X-12673550Y26037315D01*
X-12513590Y26168590D01*
X-12382315Y26328550D01*
X-12284768Y26511046D01*
X-12224700Y26709066D01*
X-12204417Y26915000D01*
X-11775583Y26915000D01*
X-11773625Y26895124D01*
X-11755301Y26709068D01*
X-11755300Y26709066D01*
X-11695232Y26511046D01*
X-11597685Y26328550D01*
X-11597683Y26328548D01*
X-11466411Y26168590D01*
X-11369791Y26089298D01*
X-11306450Y26037315D01*
X-11123954Y25939768D01*
X-10925934Y25879700D01*
X-10925935Y25879700D01*
X-10907471Y25877882D01*
X-10720000Y25859417D01*
X-10514066Y25879700D01*
X-10316046Y25939768D01*
X-10133550Y26037315D01*
X-9973590Y26168590D01*
X-9842315Y26328550D01*
X-9744768Y26511046D01*
X-9724594Y26577554D01*
X-9686298Y26635990D01*
X-9622486Y26664447D01*
X-9553419Y26653888D01*
X-9501025Y26607664D01*
X-9486159Y26573651D01*
X-9453433Y26451514D01*
X-9453430Y26451508D01*
X-9353601Y26237422D01*
X-9218106Y26043918D01*
X-9051083Y25876895D01*
X-8857579Y25741400D01*
X-8643493Y25641571D01*
X-8643484Y25641567D01*
X-8430000Y25584366D01*
X-8430000Y26479499D01*
X-8322315Y26430320D01*
X-8215763Y26415000D01*
X-8144237Y26415000D01*
X-8037685Y26430320D01*
X-7930000Y26479499D01*
X-7930000Y25584367D01*
X-7716517Y25641567D01*
X-7716508Y25641571D01*
X-7502422Y25741400D01*
X-7308918Y25876895D01*
X-7141895Y26043918D01*
X-7006400Y26237422D01*
X-6906571Y26451508D01*
X-6906568Y26451514D01*
X-6849364Y26665000D01*
X-7746314Y26665000D01*
X-7720507Y26705156D01*
X-7680000Y26843111D01*
X-7680000Y26986889D01*
X-7720507Y27124844D01*
X-7746314Y27165000D01*
X-6849364Y27165000D01*
X-6849365Y27165001D01*
X-6906568Y27378487D01*
X-6906571Y27378493D01*
X-7006400Y27592578D01*
X-7006401Y27592580D01*
X-7141887Y27786074D01*
X-7141892Y27786080D01*
X-7308918Y27953106D01*
X-7502422Y28088601D01*
X-7716508Y28188430D01*
X-7716514Y28188433D01*
X-7930000Y28245636D01*
X-7930000Y27350502D01*
X-8037685Y27399680D01*
X-8144237Y27415000D01*
X-8215763Y27415000D01*
X-8322315Y27399680D01*
X-8430000Y27350502D01*
X-8430000Y28245636D01*
X-8430001Y28245636D01*
X-8643487Y28188433D01*
X-8643493Y28188430D01*
X-8857578Y28088601D01*
X-8857580Y28088600D01*
X-9051074Y27953114D01*
X-9051080Y27953109D01*
X-9218109Y27786080D01*
X-9218114Y27786074D01*
X-9353600Y27592580D01*
X-9353601Y27592578D01*
X-9453430Y27378493D01*
X-9453433Y27378486D01*
X-9486159Y27256350D01*
X-9522524Y27196690D01*
X-9585371Y27166161D01*
X-9654747Y27174456D01*
X-9708625Y27218941D01*
X-9724594Y27252447D01*
X-9744768Y27318954D01*
X-9842315Y27501450D01*
X-9917103Y27592580D01*
X-9973590Y27661411D01*
X-10123879Y27784748D01*
X-10133550Y27792685D01*
X-10316046Y27890232D01*
X-10514066Y27950300D01*
X-10514068Y27950301D01*
X-10514066Y27950301D01*
X-10720000Y27970583D01*
X-10925933Y27950301D01*
X-11123957Y27890231D01*
X-11211886Y27843231D01*
X-11306450Y27792685D01*
X-11306452Y27792684D01*
X-11306453Y27792683D01*
X-11466411Y27661411D01*
X-11597683Y27501453D01*
X-11695231Y27318957D01*
X-11755301Y27120933D01*
X-11775223Y26918657D01*
X-11775583Y26915000D01*
X-12204417Y26915000D01*
X-12224700Y27120934D01*
X-12284768Y27318954D01*
X-12382315Y27501450D01*
X-12457103Y27592580D01*
X-12513590Y27661411D01*
X-12663879Y27784748D01*
X-12673550Y27792685D01*
X-12856046Y27890232D01*
X-13054066Y27950300D01*
X-13054068Y27950301D01*
X-13054066Y27950301D01*
X-13260000Y27970583D01*
X-13465933Y27950301D01*
X-13663957Y27890231D01*
X-13751886Y27843231D01*
X-13846450Y27792685D01*
X-13846452Y27792684D01*
X-13846453Y27792683D01*
X-14006411Y27661411D01*
X-14137683Y27501453D01*
X-14235231Y27318957D01*
X-14295301Y27120933D01*
X-14315583Y26915000D01*
X-14749500Y26915000D01*
X-14749500Y27784748D01*
X-14749500Y27784751D01*
X-14749501Y27784753D01*
X-14761132Y27843230D01*
X-14761133Y27843231D01*
X-14805448Y27909553D01*
X-14871770Y27953868D01*
X-14871771Y27953869D01*
X-14930248Y27965500D01*
X-14930252Y27965500D01*
X-16669748Y27965500D01*
X-16669753Y27965500D01*
X-16728230Y27953869D01*
X-16728231Y27953868D01*
X-16794553Y27909553D01*
X-16838868Y27843231D01*
X-16838869Y27843230D01*
X-16850500Y27784753D01*
X-16850500Y26045248D01*
X-19357745Y26045248D01*
X-17064146Y28338847D01*
X-17037992Y28358824D01*
X-15858040Y29033014D01*
X-15838493Y29042028D01*
X-15809614Y29052409D01*
X-15772626Y29059617D01*
X-15753070Y29060399D01*
X-15750115Y29060516D01*
X-15712670Y29056280D01*
X-15690930Y29050374D01*
X-15656481Y29035079D01*
X-15629656Y29017869D01*
X-15614537Y29006449D01*
X-15568375Y28965685D01*
X-15508765Y28913046D01*
X-15260499Y28743032D01*
X-14993301Y28604665D01*
X-14903593Y28571391D01*
X-14711186Y28500024D01*
X-14711184Y28500024D01*
X-14711182Y28500023D01*
X-14418382Y28430678D01*
X-14119298Y28397671D01*
X-13818423Y28401498D01*
X-13520275Y28442102D01*
X-13229334Y28518873D01*
X-12949969Y28630657D01*
X-12686376Y28775776D01*
X-12442515Y28952050D01*
X-12222049Y29156831D01*
X-12028289Y29387044D01*
X-11864145Y29639229D01*
X-11732084Y29909600D01*
X-11634088Y30194095D01*
X-11571630Y30488442D01*
X-11545648Y30788218D01*
X-11556532Y31088920D01*
X-11572138Y31186177D01*
X-11572766Y31221028D01*
X-11564575Y31287278D01*
X-11557169Y31316774D01*
X-11527315Y31393979D01*
X-11512949Y31420788D01*
X-11465195Y31488400D01*
X-11444732Y31510904D01*
X-11381957Y31564853D01*
X-11356637Y31581695D01*
X-11272847Y31623624D01*
X-11264994Y31626900D01*
X-10337382Y31940862D01*
X-10335697Y31941406D01*
X-9395947Y32229166D01*
X-9394295Y32229645D01*
X-8446518Y32489837D01*
X-8444884Y32490260D01*
X-7489896Y32722657D01*
X-7488280Y32723026D01*
X-6665832Y32897890D01*
X-6526923Y32927423D01*
X-6525180Y32927768D01*
X-5558303Y33103987D01*
X-5556629Y33104267D01*
X-5067791Y33178679D01*
X-4998555Y33169307D01*
G37*
%TD.AperFunction*%
%TD*%
M02*
