M48
; DRILL file {KiCad 7.0.5} date Sun Oct  8 22:30:31 2023
; FORMAT={-:-/ absolute / inch / decimal}
; #@! TF.CreationDate,2023-10-08T22:30:31-05:00
; #@! TF.GenerationSoftware,Kicad,Pcbnew,7.0.5
; #@! TF.FileFunction,Plated,1,2,PTH
FMAT,2
INCH
; #@! TA.AperFunction,Plated,PTH,ViaDrill
T1C0.0138
; #@! TA.AperFunction,Plated,PTH,ComponentDrill
T2C0.0138
; #@! TA.AperFunction,Plated,PTH,ComponentDrill
T3C0.0236
; #@! TA.AperFunction,Plated,PTH,ComponentDrill
T4C0.0394
%
G90
G05
T1
X-1.2268Y0.3551
X-1.2268Y0.2551
X-1.2268Y0.1551
X-1.2268Y-0.2449
X-1.2268Y-0.3449
X-1.1268Y0.5551
X-1.1268Y0.4551
X-1.1268Y0.3551
X-1.1268Y0.2551
X-1.1268Y0.1551
X-1.1268Y-0.1449
X-1.1268Y-0.2449
X-1.1268Y-0.3449
X-1.1268Y-0.4449
X-1.1268Y-0.5449
X-1.0268Y-0.5449
X-1.0268Y-0.6449
X-0.9462Y0.7809
X-0.9268Y0.5551
X-0.9268Y0.4551
X-0.9268Y0.3551
X-0.9008Y-0.7146
X-0.8358Y0.7496
X-0.8346Y-0.0004
X-0.8268Y0.6551
X-0.8268Y0.4551
X-0.8268Y0.3551
X-0.8268Y-0.8449
X-0.7933Y-0.087
X-0.7914Y0.5421
X-0.7894Y-0.3409
X-0.752Y0.8138
X-0.7473Y0.4461
X-0.7285Y0.3626
X-0.7268Y0.1551
X-0.7268Y-0.7449
X-0.7268Y-0.9449
X-0.707Y-0.643
X-0.6795Y0.9713
X-0.663Y0.689
X-0.6335Y0.4929
X-0.6268Y0.1551
X-0.6268Y-0.0449
X-0.6268Y-0.4449
X-0.6268Y-0.7449
X-0.6268Y-1.0449
X-0.626Y0.3732
X-0.6249Y0.6201
X-0.59Y-0.2839
X-0.568Y0.4892
X-0.5568Y0.7909
X-0.5514Y0.388
X-0.5374Y0.6047
X-0.5268Y0.0551
X-0.5268Y-0.2449
X-0.5268Y-0.3449
X-0.5268Y-0.4449
X-0.5268Y-0.7449
X-0.5268Y-0.9449
X-0.5268Y-1.1449
X-0.5083Y0.6807
X-0.4913Y0.7174
X-0.4882Y0.3146
X-0.4839Y0.9772
X-0.4744Y-0.685
X-0.4689Y-0.8134
X-0.4414Y0.5053
X-0.4268Y1.1551
X-0.4268Y0.2551
X-0.4268Y0.0551
X-0.4268Y-0.0449
X-0.4268Y-0.2449
X-0.4268Y-0.3449
X-0.4268Y-0.4449
X-0.4268Y-0.7449
X-0.4069Y0.8008
X-0.4024Y0.7138
X-0.3516Y0.9882
X-0.3478Y0.715
X-0.3287Y-1.1102
X-0.3268Y1.2551
X-0.3268Y1.1551
X-0.3268Y0.0551
X-0.3268Y-0.0449
X-0.3268Y-0.2449
X-0.3268Y-0.3449
X-0.3268Y-0.4449
X-0.3268Y-0.5449
X-0.3268Y-0.7449
X-0.3268Y-0.9449
X-0.3268Y-1.2449
X-0.3082Y0.4531
X-0.2716Y0.487
X-0.2703Y-0.912
X-0.2413Y0.9748
X-0.2303Y0.286
X-0.2268Y1.1551
X-0.2268Y0.0551
X-0.2268Y-0.2449
X-0.2268Y-0.4449
X-0.2268Y-0.5449
X-0.2268Y-0.7449
X-0.2268Y-1.2449
X-0.1713Y1.0192
X-0.1664Y0.436
X-0.158Y0.5318
X-0.1399Y0.9844
X-0.1268Y0.2551
X-0.1268Y0.0551
X-0.1268Y-0.0449
X-0.1268Y-0.5449
X-0.1268Y-0.7449
X-0.1268Y-0.9449
X-0.1268Y-1.0449
X-0.1268Y-1.1449
X-0.1268Y-1.2449
X-0.1181Y0.3638
X-0.1122Y0.3244
X-0.1088Y0.413
X-0.1029Y0.8793
X-0.1008Y0.9799
X-0.099Y0.6382
X-0.0831Y0.0
X-0.065Y0.8413
X-0.049Y0.6077
X-0.0466Y0.3878
X-0.0451Y0.5379
X-0.0445Y-0.0882
X-0.035Y-0.3402
X-0.0268Y0.2551
X-0.0268Y-0.2449
X-0.0268Y-0.4449
X-0.0268Y-0.5449
X-0.0268Y-0.7449
X-0.0268Y-1.1449
X-0.0268Y-1.2449
X-0.0043Y-0.6906
X0.0Y-0.811
X0.0098Y0.9898
X0.012Y0.9435
X0.0732Y0.2551
X0.0732Y-0.4449
X0.0732Y-0.5449
X0.0732Y-0.7449
X0.0732Y-1.1449
X0.0732Y-1.2449
X0.0748Y0.8705
X0.0864Y0.6295
X0.1178Y0.3354
X0.1182Y0.983
X0.1591Y-0.2811
X0.163Y0.9965
X0.1648Y0.801
X0.1732Y0.2551
X0.1732Y0.0551
X0.1732Y-0.3449
X0.1732Y-0.4449
X0.1732Y-0.5449
X0.1732Y-0.7449
X0.1732Y-1.2449
X0.1789Y0.873
X0.1902Y1.0157
X0.2669Y-1.1079
X0.2732Y1.2551
X0.2732Y1.1551
X0.2732Y1.0551
X0.2732Y0.9551
X0.2732Y0.2551
X0.2732Y0.0551
X0.2732Y-0.0449
X0.2732Y-0.2449
X0.2732Y-0.3449
X0.2732Y-0.4449
X0.2732Y-0.5449
X0.2732Y-0.7449
X0.2732Y-0.9449
X0.2732Y-1.2449
X0.2851Y0.5211
X0.2909Y0.6819
X0.2994Y0.8325
X0.336Y0.4054
X0.3547Y0.3724
X0.3732Y1.1551
X0.3732Y1.0551
X0.3732Y0.4551
X0.3732Y0.2551
X0.3732Y0.0551
X0.3732Y-0.0449
X0.3732Y-0.2449
X0.3732Y-0.3449
X0.3732Y-0.4449
X0.3732Y-0.5449
X0.3732Y-0.7449
X0.3976Y0.6072
X0.4506Y0.5654
X0.4547Y0.8157
X0.4563Y0.3937
X0.463Y-0.913
X0.4732Y1.0551
X0.4732Y0.4551
X0.4732Y0.2551
X0.4732Y0.0551
X0.4732Y-0.0449
X0.4732Y-0.2449
X0.4732Y-0.3449
X0.4732Y-0.4449
X0.4732Y-0.7449
X0.4732Y-1.1449
X0.4772Y0.9768
X0.4804Y-0.6886
X0.4811Y-0.8114
X0.5732Y1.0551
X0.5732Y0.8551
X0.5732Y0.6551
X0.5732Y0.5551
X0.5732Y0.4551
X0.5732Y0.2551
X0.5732Y0.0551
X0.5732Y-0.2449
X0.5732Y-0.4449
X0.5732Y-0.5449
X0.5732Y-0.6449
X0.5732Y-0.7449
X0.5732Y-0.9449
X0.5732Y-1.1449
X0.6484Y0.4728
X0.6575Y0.0
X0.6732Y1.0551
X0.6732Y0.9551
X0.6732Y0.5551
X0.6732Y0.2551
X0.6732Y-0.4449
X0.6732Y-1.0449
X0.7047Y-0.0894
X0.7142Y-0.3362
X0.7323Y0.8224
X0.7732Y0.9551
X0.7732Y0.5551
X0.7732Y0.4551
X0.7732Y0.3551
X0.7732Y0.1551
X0.7732Y-0.2449
X0.7732Y-0.3449
X0.7732Y-0.9449
X0.8303Y-0.7122
X0.8732Y0.8551
X0.8732Y0.5551
X0.8732Y0.4551
X0.8732Y0.3551
X0.8732Y0.2551
X0.8732Y-0.5449
X0.8732Y-0.8449
X0.9087Y-0.2811
X0.9732Y0.5551
X0.9732Y0.4551
X0.9732Y0.3551
X0.9732Y0.2551
X0.9732Y0.1551
X0.9732Y0.0551
X0.9732Y-0.1449
X0.9732Y-0.4449
X0.9732Y-0.5449
X0.9732Y-0.6449
X1.027Y-0.6514
X1.0732Y-0.3449
X1.0732Y-0.4449
X1.0732Y-0.5449
X1.0732Y-0.6449
X1.1732Y0.4551
X1.1732Y0.3551
X1.1732Y0.2551
X1.1732Y0.1551
X1.1732Y-0.2449
X1.1732Y-0.3449
X1.1732Y-0.4449
X1.2732Y0.1551
T2
X-0.4086Y0.5806
X-0.4086Y0.5304
X-0.4086Y0.4802
X-0.3584Y0.5806
X-0.3584Y0.5304
X-0.3584Y0.4802
X-0.3082Y0.5806
X-0.3082Y0.5304
X-0.3082Y0.4802
T4
X-0.622Y1.0596
X-0.522Y1.0596
X-0.422Y1.0596
X-0.322Y1.0596
T3
G00X-0.2213Y1.2146
M15
G01X-0.2213Y1.2618
M16
G05
G00X-0.2213Y1.065
M15
G01X-0.2213Y1.0965
M16
G05
G00X0.2213Y1.2146
M15
G01X0.2213Y1.2618
M16
G05
G00X0.2213Y1.065
M15
G01X0.2213Y1.0965
M16
G05
T0
M30
