%TF.GenerationSoftware,KiCad,Pcbnew,7.0.5*%
%TF.CreationDate,2024-03-22T11:59:17-05:00*%
%TF.ProjectId,RP2040,52503230-3430-42e6-9b69-6361645f7063,REV1*%
%TF.SameCoordinates,Original*%
%TF.FileFunction,Copper,L3,Inr*%
%TF.FilePolarity,Positive*%
%FSLAX46Y46*%
G04 Gerber Fmt 4.6, Leading zero omitted, Abs format (unit mm)*
G04 Created by KiCad (PCBNEW 7.0.5) date 2024-03-22 11:59:17*
%MOMM*%
%LPD*%
G01*
G04 APERTURE LIST*
%TA.AperFunction,ComponentPad*%
%ADD10O,1.000000X1.800000*%
%TD*%
%TA.AperFunction,ComponentPad*%
%ADD11O,1.000000X2.200000*%
%TD*%
%TA.AperFunction,ComponentPad*%
%ADD12C,0.600000*%
%TD*%
%TA.AperFunction,ComponentPad*%
%ADD13R,1.700000X1.700000*%
%TD*%
%TA.AperFunction,ComponentPad*%
%ADD14O,1.700000X1.700000*%
%TD*%
%TA.AperFunction,ViaPad*%
%ADD15C,0.600000*%
%TD*%
G04 APERTURE END LIST*
D10*
%TO.N,unconnected-(P1-SHIELD-PadS1)*%
%TO.C,P1*%
X5620000Y27450000D03*
D11*
X5620000Y31450000D03*
D10*
X-5620000Y27450000D03*
D11*
X-5620000Y31450000D03*
%TD*%
D12*
%TO.N,GND*%
%TO.C,U4*%
X-7827500Y14747500D03*
X-9102500Y14747500D03*
X-10377500Y14747500D03*
X-7827500Y13472500D03*
X-9102500Y13472500D03*
X-10377500Y13472500D03*
X-7827500Y12197500D03*
X-9102500Y12197500D03*
X-10377500Y12197500D03*
%TD*%
D13*
%TO.N,SDA_1*%
%TO.C,J1*%
X-21900000Y19300000D03*
D14*
%TO.N,SCL_1*%
X-21900000Y16760000D03*
%TD*%
D13*
%TO.N,SWCLK*%
%TO.C,J2*%
X8350000Y24675000D03*
D14*
%TO.N,SWDIO*%
X10890000Y24675000D03*
%TO.N,+3V3*%
X13430000Y24675000D03*
%TO.N,GND*%
X15970000Y24675000D03*
%TD*%
D15*
%TO.N,GND*%
X29140799Y-12233738D03*
X29140799Y5546262D03*
X29140799Y8086262D03*
X29140799Y10626262D03*
X26600799Y-14773738D03*
X26600799Y-9693738D03*
X26600799Y15706262D03*
X24060799Y-19853738D03*
X24060799Y-7153738D03*
X24060799Y-4613738D03*
X24060799Y3006262D03*
X24060799Y5546262D03*
X24060799Y18246262D03*
X21520799Y-22393738D03*
X21520799Y-17313738D03*
X21520799Y-7153738D03*
X21520799Y-4613738D03*
X21520799Y-2073738D03*
X21520799Y3006262D03*
X21520799Y15706262D03*
X21520799Y20786262D03*
X18980799Y-24933738D03*
X18980799Y-19853738D03*
X18980799Y-12233738D03*
X18980799Y-7153738D03*
X18980799Y-4613738D03*
X18980799Y3006262D03*
X18980799Y23326262D03*
X16440799Y-22393738D03*
X16440799Y-19853738D03*
X16440799Y-9693738D03*
X16440799Y-7153738D03*
X16440799Y-4613738D03*
X16440799Y-2073738D03*
X16440799Y466262D03*
X16440799Y3006262D03*
X16440799Y23326262D03*
X13900799Y-24933738D03*
X13900799Y-19853738D03*
X13900799Y-9693738D03*
X13900799Y-7153738D03*
X13900799Y-4613738D03*
X13900799Y-2073738D03*
X13900799Y8086262D03*
X11360799Y-22393738D03*
X11360799Y-19853738D03*
X11360799Y-9693738D03*
X11360799Y-7153738D03*
X11360799Y-4613738D03*
X11360799Y-2073738D03*
X11360799Y8086262D03*
X11360799Y23326262D03*
X11360799Y28406262D03*
X8820799Y-30013738D03*
X8820799Y-12233738D03*
X8820799Y-9693738D03*
X8820799Y-7153738D03*
X8820799Y-4613738D03*
X8820799Y-2073738D03*
X8820799Y8086262D03*
X8820799Y28406262D03*
X8820799Y30946262D03*
X6280799Y-30013738D03*
X6280799Y-9693738D03*
X6280799Y-7153738D03*
X6280799Y-4613738D03*
X6280799Y-2073738D03*
X6280799Y8086262D03*
X3740799Y-30013738D03*
X3740799Y-27473738D03*
X3740799Y-24933738D03*
X3740799Y-19853738D03*
X3740799Y-14773738D03*
X3740799Y-7153738D03*
X3740799Y-4613738D03*
X3740799Y10626262D03*
X1200799Y-30013738D03*
X1200799Y-22393738D03*
X1200799Y-19853738D03*
X1200799Y-14773738D03*
X1200799Y-12233738D03*
X1200799Y-7153738D03*
X1200799Y-4613738D03*
X1200799Y10626262D03*
X1200799Y20786262D03*
X-1339201Y-30013738D03*
X-1339201Y-22393738D03*
X-1339201Y-19853738D03*
X-1339201Y-12233738D03*
X-1339201Y-7153738D03*
X-1339201Y-4613738D03*
X-1339201Y8086262D03*
X-3879201Y-30013738D03*
X-3879201Y-27473738D03*
X-3879201Y-14773738D03*
X-3879201Y-12233738D03*
X-3879201Y-7153738D03*
X-3879201Y-4613738D03*
X-3879201Y-2073738D03*
X-6419201Y-30013738D03*
X-6419201Y-9693738D03*
X-6419201Y-7153738D03*
X-6419201Y-4613738D03*
X-6419201Y-2073738D03*
X-8959201Y-30013738D03*
X-8959201Y-27473738D03*
X-8959201Y-19853738D03*
X-8959201Y-12233738D03*
X-8959201Y-9693738D03*
X-8959201Y-7153738D03*
X-8959201Y-4613738D03*
X-8959201Y-2073738D03*
X-8959201Y8086262D03*
X-8959201Y28406262D03*
X-8959201Y30946262D03*
X-11499201Y-22393738D03*
X-11499201Y-19853738D03*
X-11499201Y-9693738D03*
X-11499201Y-7153738D03*
X-11499201Y-4613738D03*
X-11499201Y-2073738D03*
X-11499201Y466262D03*
X-11499201Y28406262D03*
X-14039201Y-27473738D03*
X-14039201Y-22393738D03*
X-14039201Y-19853738D03*
X-14039201Y-9693738D03*
X-14039201Y-7153738D03*
X-14039201Y-4613738D03*
X-16579201Y-22393738D03*
X-16579201Y-19853738D03*
X-16579201Y-9693738D03*
X-16579201Y-7153738D03*
X-16579201Y-4613738D03*
X-16579201Y-2073738D03*
X-19119201Y-24933738D03*
X-19119201Y-9693738D03*
X-19119201Y-7153738D03*
X-19119201Y-4613738D03*
X-21659201Y-22393738D03*
X-21659201Y-7153738D03*
X-21659201Y-4613738D03*
X-21659201Y-2073738D03*
X-21659201Y466262D03*
X-21659201Y3006262D03*
X-21659201Y5546262D03*
X-24199201Y-19853738D03*
X-24199201Y-17313738D03*
X-24199201Y-4613738D03*
X-24199201Y-2073738D03*
X-24199201Y3006262D03*
X-24199201Y15706262D03*
X-26739201Y-14773738D03*
X-26739201Y-12233738D03*
X-29279201Y5546262D03*
X-29279201Y10626262D03*
%TO.N,+5V*%
X-17320000Y6020000D03*
X1450000Y6020000D03*
X20640000Y6170000D03*
%TO.N,Net-(D11-DO)*%
X-26260000Y12690000D03*
X-26910000Y9400000D03*
%TO.N,GND*%
X-29600000Y-8980000D03*
X26910000Y7600000D03*
X-5790000Y17560000D03*
X-15300000Y25600000D03*
X-7809250Y18139000D03*
X-4350252Y25888370D03*
X22290000Y1810000D03*
X-1520000Y4135000D03*
X-20070000Y15940000D03*
X4850000Y-11250000D03*
X-15915000Y6955000D03*
X0Y-2000000D03*
X-15480000Y16990000D03*
X-20170000Y14900000D03*
X-13541011Y15233729D03*
X17225000Y4500000D03*
X-10900000Y22850000D03*
X-19700000Y13800000D03*
X7390000Y17320000D03*
X16080000Y26280000D03*
X3300000Y1600000D03*
X20570000Y-14030000D03*
X27170000Y-8030000D03*
X-16050000Y2350000D03*
X-16600000Y17390000D03*
X4830000Y25800000D03*
X-3552964Y25004134D03*
X19100000Y-2000000D03*
X-14675000Y20260500D03*
X4420000Y20445500D03*
X10440000Y20600000D03*
X2770000Y6930500D03*
X-2762866Y10490500D03*
X13000000Y-22650000D03*
X13100000Y2100000D03*
X-2514838Y16210500D03*
X1553279Y23769500D03*
X-18110000Y9631008D03*
X27820000Y-4910000D03*
X26505000Y-11905000D03*
X-20780000Y4200000D03*
X22160000Y7125500D03*
X-19100000Y12200000D03*
X-27480000Y-4010000D03*
X27980000Y13430000D03*
X-6025000Y1725000D03*
X-5850000Y7265000D03*
X-19420000Y11300000D03*
X-1144500Y13663483D03*
X4140000Y25310000D03*
X-19950000Y16870000D03*
X-1125000Y9950000D03*
X13650000Y17950000D03*
X-19150000Y17520000D03*
X-7827500Y11510000D03*
X-4950000Y-25950000D03*
X-27190000Y13470000D03*
X-19720000Y12750000D03*
X4544668Y22175332D03*
X-19100000Y-2050000D03*
X-10720000Y7860000D03*
X18740000Y19460000D03*
X-28020000Y7610000D03*
X-15726828Y12551602D03*
X-14850000Y1450000D03*
X-16650000Y-11700000D03*
X-2900000Y8350000D03*
X-2150000Y20300000D03*
X-19600000Y19900000D03*
X-8250000Y25000000D03*
X-15710000Y15920000D03*
%TO.N,VBUS*%
X3002858Y24967033D03*
X-2560000Y24890000D03*
%TO.N,BUTT0*%
X-14110000Y-16750000D03*
%TO.N,+5V*%
X14700000Y21750000D03*
X6070000Y19670000D03*
%TO.N,USB_D+*%
X265500Y25070000D03*
X303779Y23769500D03*
%TO.N,BUTT1*%
X80000Y-16770000D03*
%TO.N,BUTT2*%
X14100000Y-16820000D03*
%TO.N,+1V1*%
X-14426916Y12426916D03*
X-6899838Y12370500D03*
X-11212500Y12835000D03*
X-4011985Y13508702D03*
%TO.N,SWDIO*%
X-5451824Y25408175D03*
%TO.N,SWCLK*%
X-2611675Y23500919D03*
%TO.N,+3V3*%
X-9956088Y20275000D03*
X-4374561Y10924561D03*
X18634227Y10795033D03*
X-4470000Y7690000D03*
X-16100000Y200000D03*
X21725000Y100000D03*
X-10025000Y18225000D03*
X1570000Y16140000D03*
X1570000Y12360000D03*
X2600000Y100000D03*
X17590000Y11730000D03*
X-1200000Y16490000D03*
%TO.N,U_LED_D*%
X-13400000Y17200000D03*
%TO.N,BL_LED_D*%
X-12550000Y16900000D03*
%TO.N,Net-(R2-Pad1)*%
X-9954338Y21650500D03*
X-11650000Y21900000D03*
X-17954338Y20200000D03*
%TO.N,Net-(U4-RUN)*%
X-14250161Y10010161D03*
%TO.N,Net-(D13-DI)*%
X16210000Y12460000D03*
X16600000Y9400000D03*
%TD*%
%TA.AperFunction,Conductor*%
%TO.N,GND*%
G36*
X5063063Y33179767D02*
G01*
X5504084Y33112990D01*
X5505774Y33112710D01*
X6079221Y33009599D01*
X6420755Y32948188D01*
X6422371Y32947875D01*
X7332537Y32758112D01*
X7334137Y32757755D01*
X8238677Y32542922D01*
X8240276Y32542519D01*
X9138144Y32302874D01*
X9141693Y32301811D01*
X9478876Y32189731D01*
X9484220Y32187676D01*
X9809264Y32045063D01*
X9814399Y32042521D01*
X10124878Y31870475D01*
X10129758Y31867467D01*
X10423005Y31667467D01*
X10427591Y31664017D01*
X10701083Y31437785D01*
X10705331Y31433927D01*
X10956766Y31183369D01*
X10960625Y31179149D01*
X11187827Y30906426D01*
X11191280Y30901868D01*
X11256038Y30807626D01*
X11392298Y30609326D01*
X11395326Y30604451D01*
X11568450Y30294582D01*
X11571015Y30289447D01*
X11715079Y29964184D01*
X11716172Y29961555D01*
X11720618Y29950128D01*
X11736593Y29909025D01*
X11736690Y29908823D01*
X11770138Y29822615D01*
X11911871Y29558654D01*
X11911881Y29558639D01*
X12084709Y29313912D01*
X12084712Y29313908D01*
X12286071Y29092048D01*
X12286082Y29092037D01*
X12512950Y28896370D01*
X12512952Y28896368D01*
X12512961Y28896361D01*
X12698190Y28772454D01*
X12761993Y28729773D01*
X12761995Y28729772D01*
X13029467Y28594758D01*
X13311393Y28493330D01*
X13603575Y28426999D01*
X13901661Y28396753D01*
X14201211Y28403042D01*
X14201221Y28403044D01*
X14201227Y28403044D01*
X14301962Y28417560D01*
X14497765Y28445772D01*
X14586439Y28469911D01*
X14586698Y28469958D01*
X14596359Y28472583D01*
X14596378Y28472588D01*
X14598506Y28473167D01*
X14638604Y28484060D01*
X14646078Y28485600D01*
X14669425Y28488927D01*
X14675780Y28489832D01*
X14706371Y28490378D01*
X14724678Y28488433D01*
X14754473Y28481470D01*
X14782302Y28471207D01*
X14790168Y28467668D01*
X14965693Y28373491D01*
X15656337Y28002931D01*
X15658000Y28002005D01*
X16066537Y27766382D01*
X16512576Y27509129D01*
X16514119Y27508208D01*
X17353191Y26989317D01*
X17354743Y26988325D01*
X18177515Y26443913D01*
X18179024Y26442881D01*
X18878636Y25948433D01*
X18984660Y25873501D01*
X18986187Y25872385D01*
X19757589Y25290893D01*
X19764103Y25285230D01*
X25419021Y19630312D01*
X25424741Y19623723D01*
X25497030Y19527543D01*
X26059826Y18778745D01*
X26061047Y18777063D01*
X26679069Y17894693D01*
X26680228Y17892979D01*
X27268341Y16990371D01*
X27269430Y16988636D01*
X27826960Y16066828D01*
X27828005Y16065032D01*
X27847595Y16030046D01*
X28354324Y15125057D01*
X28355287Y15123267D01*
X28402730Y15031447D01*
X28849815Y14166162D01*
X28850738Y14164300D01*
X29312892Y13191196D01*
X29313752Y13189303D01*
X29743034Y12201250D01*
X29743830Y12199330D01*
X30139763Y11197424D01*
X30140490Y11195488D01*
X30205180Y11014243D01*
X30502606Y10180916D01*
X30503272Y10178947D01*
X30831187Y9152785D01*
X30831787Y9150794D01*
X30838626Y9126627D01*
X31115012Y8149953D01*
X31125132Y8114195D01*
X31125656Y8112212D01*
X31194786Y7832457D01*
X31384083Y7066401D01*
X31384548Y7064375D01*
X31607786Y6010457D01*
X31608182Y6008416D01*
X31795632Y4949517D01*
X31796350Y4944060D01*
X31816078Y4716386D01*
X31816335Y4698534D01*
X31803530Y4476776D01*
X31801220Y4459073D01*
X31756704Y4241460D01*
X31751876Y4224270D01*
X31676566Y4015299D01*
X31669319Y3998982D01*
X31564782Y3802996D01*
X31555267Y3787889D01*
X31423670Y3608950D01*
X31412085Y3595366D01*
X31256151Y3437174D01*
X31242734Y3425394D01*
X31065701Y3291241D01*
X31050732Y3281510D01*
X30856263Y3174166D01*
X30840051Y3166686D01*
X30632194Y3088388D01*
X30615077Y3083313D01*
X30398112Y3035672D01*
X30380443Y3033109D01*
X30152985Y3016695D01*
X30148521Y3016534D01*
X30092860Y3016534D01*
X30092769Y3016527D01*
X29979154Y3016527D01*
X29639530Y2979591D01*
X29305886Y2906151D01*
X29055622Y2821827D01*
X28982139Y2797067D01*
X28982136Y2797066D01*
X28982128Y2797063D01*
X28672092Y2653625D01*
X28379363Y2477497D01*
X28379360Y2477495D01*
X28107395Y2270754D01*
X28107386Y2270746D01*
X27859371Y2035814D01*
X27859366Y2035809D01*
X27638204Y1775439D01*
X27638196Y1775429D01*
X27446484Y1492676D01*
X27446483Y1492673D01*
X27286461Y1190841D01*
X27286452Y1190823D01*
X27160005Y873463D01*
X27160004Y873461D01*
X27068613Y544298D01*
X27068608Y544277D01*
X27013342Y207174D01*
X27013341Y207157D01*
X26999808Y-42457D01*
X26994846Y-133970D01*
X27011507Y-441279D01*
X27013341Y-475096D01*
X27013342Y-475113D01*
X27068608Y-812216D01*
X27068613Y-812237D01*
X27160004Y-1141400D01*
X27160005Y-1141402D01*
X27286452Y-1458762D01*
X27286457Y-1458772D01*
X27409046Y-1690000D01*
X27446483Y-1760612D01*
X27446484Y-1760615D01*
X27638196Y-2043368D01*
X27638204Y-2043378D01*
X27638207Y-2043381D01*
X27859365Y-2303747D01*
X28107386Y-2538686D01*
X28379356Y-2745432D01*
X28672084Y-2921560D01*
X28672089Y-2921562D01*
X28672092Y-2921564D01*
X28982128Y-3065002D01*
X28982139Y-3065007D01*
X29305886Y-3174090D01*
X29639529Y-3247530D01*
X29979156Y-3284467D01*
X29979162Y-3284467D01*
X30102378Y-3284467D01*
X30102381Y-3284468D01*
X30147746Y-3284467D01*
X30152202Y-3284627D01*
X30380448Y-3301098D01*
X30398104Y-3303660D01*
X30595480Y-3346997D01*
X30615069Y-3351299D01*
X30632188Y-3356374D01*
X30840049Y-3434673D01*
X30856258Y-3442152D01*
X31050718Y-3549488D01*
X31065687Y-3559218D01*
X31242724Y-3693373D01*
X31256140Y-3705152D01*
X31412073Y-3863335D01*
X31423659Y-3876919D01*
X31555260Y-4055858D01*
X31564775Y-4070965D01*
X31669314Y-4266946D01*
X31676561Y-4283263D01*
X31751874Y-4492229D01*
X31756702Y-4509417D01*
X31801223Y-4727020D01*
X31803534Y-4744724D01*
X31816345Y-4966487D01*
X31816088Y-4984338D01*
X31799933Y-5170861D01*
X31796409Y-5211543D01*
X31795691Y-5217002D01*
X31608162Y-6276346D01*
X31607766Y-6278386D01*
X31384530Y-7332305D01*
X31384066Y-7334330D01*
X31125647Y-8380115D01*
X31125115Y-8382124D01*
X30831771Y-9418724D01*
X30831171Y-9420714D01*
X30503267Y-10446852D01*
X30502601Y-10448821D01*
X30140472Y-11463436D01*
X30139741Y-11465381D01*
X29743819Y-12467260D01*
X29743023Y-12469180D01*
X29313743Y-13457233D01*
X29312882Y-13459126D01*
X28850730Y-14432231D01*
X28849807Y-14434093D01*
X28355288Y-15391185D01*
X28354303Y-15393015D01*
X27828000Y-16332964D01*
X27826955Y-16334760D01*
X27269426Y-17256568D01*
X27268321Y-17258328D01*
X26680231Y-18160904D01*
X26679067Y-18162626D01*
X26061047Y-19044997D01*
X26059826Y-19046680D01*
X25424750Y-19891646D01*
X25419022Y-19898244D01*
X19764232Y-25553034D01*
X19757645Y-25558753D01*
X18924608Y-26185162D01*
X18922949Y-26186367D01*
X18053077Y-26796525D01*
X18051379Y-26797674D01*
X17161785Y-27378760D01*
X17160050Y-27379853D01*
X16251742Y-27931207D01*
X16249972Y-27932241D01*
X15488988Y-28360401D01*
X15323914Y-28453278D01*
X15322125Y-28454246D01*
X14379381Y-28944366D01*
X14377547Y-28945281D01*
X13419078Y-29403988D01*
X13417215Y-29404842D01*
X12444138Y-29831597D01*
X12442247Y-29832389D01*
X11455602Y-30226740D01*
X11453686Y-30227469D01*
X10454515Y-30588999D01*
X10452576Y-30589664D01*
X9442017Y-30917959D01*
X9440057Y-30918560D01*
X8419189Y-31213271D01*
X8417210Y-31213807D01*
X7387154Y-31474609D01*
X7385158Y-31475080D01*
X6347062Y-31701684D01*
X6345052Y-31702088D01*
X5300027Y-31894251D01*
X5298005Y-31894588D01*
X4247195Y-32052101D01*
X4245163Y-32052371D01*
X3189707Y-32175061D01*
X3187667Y-32175264D01*
X2128746Y-32262994D01*
X2126700Y-32263130D01*
X1065436Y-32315807D01*
X1063387Y-32315875D01*
X660Y-32333444D01*
X-1390Y-32333444D01*
X-1063451Y-32315885D01*
X-1065500Y-32315817D01*
X-2126771Y-32263138D01*
X-2128817Y-32263002D01*
X-3187742Y-32175271D01*
X-3189782Y-32175068D01*
X-4245244Y-32052375D01*
X-4247276Y-32052105D01*
X-5298092Y-31894590D01*
X-5300114Y-31894253D01*
X-6345144Y-31702087D01*
X-6347145Y-31701684D01*
X-7385249Y-31475078D01*
X-7387244Y-31474607D01*
X-8417319Y-31213797D01*
X-8419298Y-31213261D01*
X-9440165Y-30918549D01*
X-9442125Y-30917948D01*
X-10452688Y-30589649D01*
X-10454627Y-30588984D01*
X-11453801Y-30227451D01*
X-11455691Y-30226731D01*
X-12442393Y-29832355D01*
X-12444257Y-29831574D01*
X-13417364Y-29404802D01*
X-13419227Y-29403948D01*
X-14377651Y-28945260D01*
X-14379485Y-28944345D01*
X-14680310Y-28787949D01*
X-15322277Y-28454196D01*
X-15324062Y-28453230D01*
X-16250109Y-27932196D01*
X-16251878Y-27931161D01*
X-17160175Y-27379811D01*
X-17161909Y-27378718D01*
X-18051535Y-26797608D01*
X-18053206Y-26796476D01*
X-18884084Y-26213665D01*
X-18923094Y-26186302D01*
X-18924752Y-26185098D01*
X-19757724Y-25558734D01*
X-19764311Y-25553014D01*
X-20241952Y-25075373D01*
X-2254277Y-25075373D01*
X-2224119Y-25375160D01*
X-2224118Y-25375162D01*
X-2154272Y-25668252D01*
X-2154267Y-25668266D01*
X-2045980Y-25949427D01*
X-2045976Y-25949436D01*
X-1901175Y-26213665D01*
X-1901171Y-26213671D01*
X-1722449Y-26456234D01*
X-1722446Y-26456238D01*
X-1722439Y-26456245D01*
X-1512981Y-26672823D01*
X-1276522Y-26859553D01*
X-1276520Y-26859554D01*
X-1276515Y-26859558D01*
X-1017270Y-27013109D01*
X-739872Y-27130736D01*
X-449271Y-27210340D01*
X-150653Y-27250500D01*
X-150649Y-27250500D01*
X75252Y-27250500D01*
X239164Y-27239526D01*
X300634Y-27235412D01*
X595903Y-27175396D01*
X880537Y-27076560D01*
X1149459Y-26940668D01*
X1397869Y-26770144D01*
X1621333Y-26568032D01*
X1815865Y-26337939D01*
X1977993Y-26083970D01*
X2104823Y-25810658D01*
X2194093Y-25522879D01*
X2244209Y-25225770D01*
X2254277Y-24924631D01*
X2224118Y-24624838D01*
X2154269Y-24331739D01*
X2045977Y-24050566D01*
X1901175Y-23786335D01*
X1722446Y-23543762D01*
X1512980Y-23327176D01*
X1389742Y-23229856D01*
X1276521Y-23140446D01*
X1276517Y-23140443D01*
X1276515Y-23140442D01*
X1017270Y-22986891D01*
X739872Y-22869264D01*
X739863Y-22869261D01*
X449272Y-22789660D01*
X374616Y-22779620D01*
X150653Y-22749500D01*
X-75244Y-22749500D01*
X-75252Y-22749500D01*
X-300632Y-22764587D01*
X-300641Y-22764589D01*
X-595906Y-22824604D01*
X-880536Y-22923439D01*
X-880541Y-22923441D01*
X-1149454Y-23059328D01*
X-1397875Y-23229860D01*
X-1621335Y-23431969D01*
X-1815868Y-23662064D01*
X-1977994Y-23916030D01*
X-1977995Y-23916032D01*
X-2104819Y-24189333D01*
X-2104823Y-24189342D01*
X-2104824Y-24189346D01*
X-2194093Y-24477118D01*
X-2244209Y-24774230D01*
X-2254277Y-25075373D01*
X-20241952Y-25075373D01*
X-25419063Y-19898262D01*
X-25424792Y-19891664D01*
X-26059829Y-19046752D01*
X-26061050Y-19045070D01*
X-26679093Y-18162672D01*
X-26680237Y-18160980D01*
X-27268380Y-17258328D01*
X-27269455Y-17256615D01*
X-27575867Y-16750000D01*
X-14615647Y-16750000D01*
X-14595166Y-16892456D01*
X-14563197Y-16962456D01*
X-14535377Y-17023373D01*
X-14441128Y-17132143D01*
X-14320053Y-17209953D01*
X-14320050Y-17209954D01*
X-14320051Y-17209954D01*
X-14181964Y-17250499D01*
X-14181962Y-17250500D01*
X-14181961Y-17250500D01*
X-14038038Y-17250500D01*
X-14038038Y-17250499D01*
X-13899947Y-17209953D01*
X-13778872Y-17132143D01*
X-13684623Y-17023373D01*
X-13624835Y-16892457D01*
X-13607229Y-16770000D01*
X-425647Y-16770000D01*
X-405166Y-16912456D01*
X-382331Y-16962456D01*
X-345377Y-17043373D01*
X-251128Y-17152143D01*
X-130053Y-17229953D01*
X-130050Y-17229954D01*
X-130051Y-17229954D01*
X8036Y-17270499D01*
X8038Y-17270500D01*
X8039Y-17270500D01*
X151962Y-17270500D01*
X151962Y-17270499D01*
X290053Y-17229953D01*
X411128Y-17152143D01*
X505377Y-17043373D01*
X565165Y-16912457D01*
X578458Y-16820000D01*
X13594353Y-16820000D01*
X13614834Y-16962456D01*
X13674622Y-17093371D01*
X13674623Y-17093373D01*
X13768872Y-17202143D01*
X13889947Y-17279953D01*
X13889950Y-17279954D01*
X13889949Y-17279954D01*
X14028036Y-17320499D01*
X14028038Y-17320500D01*
X14028039Y-17320500D01*
X14171962Y-17320500D01*
X14171962Y-17320499D01*
X14310053Y-17279953D01*
X14431128Y-17202143D01*
X14525377Y-17093373D01*
X14585165Y-16962457D01*
X14605647Y-16820000D01*
X14585165Y-16677543D01*
X14525377Y-16546627D01*
X14431128Y-16437857D01*
X14310053Y-16360047D01*
X14310051Y-16360046D01*
X14310049Y-16360045D01*
X14310050Y-16360045D01*
X14171963Y-16319500D01*
X14171961Y-16319500D01*
X14028039Y-16319500D01*
X14028036Y-16319500D01*
X13889949Y-16360045D01*
X13768873Y-16437856D01*
X13674623Y-16546626D01*
X13674622Y-16546628D01*
X13614834Y-16677543D01*
X13594353Y-16820000D01*
X578458Y-16820000D01*
X585647Y-16770000D01*
X565165Y-16627543D01*
X505377Y-16496627D01*
X411128Y-16387857D01*
X290053Y-16310047D01*
X290051Y-16310046D01*
X290049Y-16310045D01*
X290050Y-16310045D01*
X151963Y-16269500D01*
X151961Y-16269500D01*
X8039Y-16269500D01*
X8036Y-16269500D01*
X-130051Y-16310045D01*
X-251127Y-16387856D01*
X-345377Y-16496626D01*
X-345378Y-16496628D01*
X-405166Y-16627543D01*
X-425647Y-16770000D01*
X-13607229Y-16770000D01*
X-13604353Y-16750000D01*
X-13624835Y-16607543D01*
X-13684623Y-16476627D01*
X-13778872Y-16367857D01*
X-13899947Y-16290047D01*
X-13899949Y-16290046D01*
X-13899951Y-16290045D01*
X-13899950Y-16290045D01*
X-14038037Y-16249500D01*
X-14038039Y-16249500D01*
X-14181961Y-16249500D01*
X-14181964Y-16249500D01*
X-14320051Y-16290045D01*
X-14441127Y-16367856D01*
X-14535377Y-16476626D01*
X-14535378Y-16476628D01*
X-14595166Y-16607543D01*
X-14615647Y-16750000D01*
X-27575867Y-16750000D01*
X-27698871Y-16546627D01*
X-27827012Y-16334760D01*
X-27828039Y-16332995D01*
X-27924301Y-16161077D01*
X-28354379Y-15392983D01*
X-28355319Y-15391236D01*
X-28750967Y-14625502D01*
X-28849866Y-14434092D01*
X-28850785Y-14432239D01*
X-28976968Y-14166548D01*
X-29312949Y-13459108D01*
X-29313802Y-13457233D01*
X-29743098Y-12469142D01*
X-29743892Y-12467225D01*
X-29881033Y-12120190D01*
X-14450500Y-12120190D01*
X-14410934Y-12357300D01*
X-14332884Y-12584652D01*
X-14332882Y-12584657D01*
X-14218471Y-12796069D01*
X-14218467Y-12796075D01*
X-14070831Y-12985757D01*
X-14070829Y-12985759D01*
X-14070825Y-12985764D01*
X-13893969Y-13148571D01*
X-13692728Y-13280049D01*
X-13472591Y-13376610D01*
X-13239563Y-13435620D01*
X-13059990Y-13450500D01*
X-13059986Y-13450500D01*
X-12940014Y-13450500D01*
X-12940010Y-13450500D01*
X-12760437Y-13435620D01*
X-12527409Y-13376610D01*
X-12307272Y-13280049D01*
X-12106031Y-13148571D01*
X-11929175Y-12985764D01*
X-11781528Y-12796067D01*
X-11667118Y-12584656D01*
X-11589066Y-12357297D01*
X-11549500Y-12120192D01*
X-11549500Y-12120190D01*
X11549499Y-12120190D01*
X11589066Y-12357300D01*
X11667116Y-12584652D01*
X11667118Y-12584657D01*
X11781529Y-12796069D01*
X11781533Y-12796075D01*
X11929169Y-12985757D01*
X11929171Y-12985759D01*
X11929175Y-12985764D01*
X12106031Y-13148571D01*
X12307272Y-13280049D01*
X12527409Y-13376610D01*
X12760437Y-13435620D01*
X12940010Y-13450500D01*
X12940014Y-13450500D01*
X13059986Y-13450500D01*
X13059990Y-13450500D01*
X13239563Y-13435620D01*
X13472591Y-13376610D01*
X13692728Y-13280049D01*
X13893969Y-13148571D01*
X14070825Y-12985764D01*
X14218472Y-12796067D01*
X14332882Y-12584656D01*
X14410934Y-12357297D01*
X14450500Y-12120192D01*
X14450500Y-11879808D01*
X14410934Y-11642703D01*
X14332882Y-11415344D01*
X14218472Y-11203933D01*
X14218470Y-11203930D01*
X14218466Y-11203924D01*
X14070830Y-11014242D01*
X14070827Y-11014239D01*
X14070825Y-11014236D01*
X13893969Y-10851429D01*
X13893966Y-10851427D01*
X13692729Y-10719951D01*
X13564757Y-10663817D01*
X13472591Y-10623390D01*
X13472589Y-10623389D01*
X13239559Y-10564379D01*
X13060000Y-10549500D01*
X13059990Y-10549500D01*
X12940010Y-10549500D01*
X12939999Y-10549500D01*
X12760440Y-10564379D01*
X12527410Y-10623389D01*
X12307270Y-10719951D01*
X12106033Y-10851427D01*
X12106029Y-10851430D01*
X11929172Y-11014239D01*
X11929169Y-11014242D01*
X11781533Y-11203924D01*
X11781529Y-11203930D01*
X11667118Y-11415342D01*
X11667116Y-11415347D01*
X11589066Y-11642699D01*
X11549499Y-11879809D01*
X11549499Y-12120190D01*
X-11549500Y-12120190D01*
X-11549500Y-11879808D01*
X-11589066Y-11642703D01*
X-11667118Y-11415344D01*
X-11781528Y-11203933D01*
X-11781530Y-11203930D01*
X-11781534Y-11203924D01*
X-11929170Y-11014242D01*
X-11929173Y-11014239D01*
X-11929175Y-11014236D01*
X-12106031Y-10851429D01*
X-12106034Y-10851427D01*
X-12307271Y-10719951D01*
X-12435243Y-10663817D01*
X-12527409Y-10623390D01*
X-12527411Y-10623389D01*
X-12760441Y-10564379D01*
X-12940000Y-10549500D01*
X-12940010Y-10549500D01*
X-13059990Y-10549500D01*
X-13060001Y-10549500D01*
X-13239560Y-10564379D01*
X-13472590Y-10623389D01*
X-13692730Y-10719951D01*
X-13893967Y-10851427D01*
X-13893971Y-10851430D01*
X-14070828Y-11014239D01*
X-14070831Y-11014242D01*
X-14218467Y-11203924D01*
X-14218471Y-11203930D01*
X-14332882Y-11415342D01*
X-14332884Y-11415347D01*
X-14410934Y-11642699D01*
X-14450500Y-11879809D01*
X-14450500Y-12120190D01*
X-29881033Y-12120190D01*
X-30069725Y-11642703D01*
X-30139830Y-11465302D01*
X-30140551Y-11463382D01*
X-30502684Y-10448749D01*
X-30503335Y-10446825D01*
X-30831258Y-9420624D01*
X-30831858Y-9418634D01*
X-31125203Y-8382015D01*
X-31125735Y-8380006D01*
X-31218748Y-8003591D01*
X-31384167Y-7334152D01*
X-31384621Y-7332170D01*
X-31607855Y-6278240D01*
X-31608242Y-6276251D01*
X-31795716Y-5217191D01*
X-31796431Y-5211748D01*
X-31796449Y-5211543D01*
X-31816128Y-4984318D01*
X-31816383Y-4966470D01*
X-31811995Y-4890535D01*
X-31803570Y-4744708D01*
X-31801259Y-4727009D01*
X-31756737Y-4509399D01*
X-31751912Y-4492224D01*
X-31676594Y-4283241D01*
X-31669356Y-4266944D01*
X-31564808Y-4070947D01*
X-31555303Y-4055855D01*
X-31423688Y-3876894D01*
X-31412122Y-3863333D01*
X-31256170Y-3705126D01*
X-31242776Y-3693366D01*
X-31065727Y-3559199D01*
X-31050770Y-3549476D01*
X-30856298Y-3442129D01*
X-30840094Y-3434652D01*
X-30632230Y-3356348D01*
X-30615124Y-3351276D01*
X-30398156Y-3303629D01*
X-30380501Y-3301067D01*
X-30152849Y-3284633D01*
X-30148388Y-3284473D01*
X-29979220Y-3284473D01*
X-29979214Y-3284473D01*
X-29639586Y-3247536D01*
X-29305942Y-3174095D01*
X-28982195Y-3065012D01*
X-28672140Y-2921565D01*
X-28561391Y-2854929D01*
X-28379426Y-2745446D01*
X-28379421Y-2745442D01*
X-28379422Y-2745442D01*
X-28379411Y-2745436D01*
X-28107442Y-2538690D01*
X-27859419Y-2303751D01*
X-27638253Y-2043373D01*
X-27446534Y-1760609D01*
X-27286511Y-1458774D01*
X-27160061Y-1141408D01*
X-27160058Y-1141400D01*
X-27116847Y-985764D01*
X-27068665Y-812230D01*
X-27043420Y-658241D01*
X-27013397Y-475113D01*
X-27013397Y-475110D01*
X-27013395Y-475099D01*
X-26994900Y-133970D01*
X-26999540Y-48390D01*
X-25084176Y-48390D01*
X-25054905Y-239466D01*
X-25054902Y-239478D01*
X-24987766Y-420748D01*
X-24987762Y-420757D01*
X-24885512Y-584803D01*
X-24885511Y-584804D01*
X-24885509Y-584807D01*
X-24752323Y-724919D01*
X-24593658Y-835353D01*
X-24416012Y-911587D01*
X-24226656Y-950500D01*
X-24081793Y-950500D01*
X-23937678Y-935845D01*
X-23753241Y-877977D01*
X-23753240Y-877976D01*
X-23753232Y-877974D01*
X-23584209Y-784159D01*
X-23437532Y-658240D01*
X-23319204Y-505373D01*
X-23234070Y-331816D01*
X-23210159Y-239466D01*
X-23185617Y-144682D01*
X-23185616Y-144676D01*
X-23185615Y-144674D01*
X-23175824Y48390D01*
X-23205097Y239474D01*
X-23272236Y420753D01*
X-23324980Y505373D01*
X-23374489Y584804D01*
X-23374490Y584805D01*
X-23374491Y584807D01*
X-23507677Y724919D01*
X-23572581Y770094D01*
X-23666343Y835354D01*
X-23843988Y911587D01*
X-24033344Y950500D01*
X-24178206Y950500D01*
X-24178207Y950500D01*
X-24322323Y935846D01*
X-24506760Y877978D01*
X-24506775Y877971D01*
X-24675789Y784161D01*
X-24675794Y784158D01*
X-24822467Y658242D01*
X-24822469Y658241D01*
X-24940795Y505376D01*
X-24940797Y505372D01*
X-25025932Y331813D01*
X-25074384Y144683D01*
X-25074385Y144677D01*
X-25084176Y-48390D01*
X-26999540Y-48390D01*
X-27013395Y207159D01*
X-27018692Y239467D01*
X-27068663Y544278D01*
X-27068664Y544279D01*
X-27068665Y544290D01*
X-27135265Y784161D01*
X-27160059Y873463D01*
X-27160060Y873465D01*
X-27161857Y877974D01*
X-27230733Y1050841D01*
X-27286507Y1190825D01*
X-27286510Y1190830D01*
X-27286511Y1190834D01*
X-27446534Y1492669D01*
X-27573548Y1680000D01*
X-20630000Y1680000D01*
X-20630000Y-1650000D01*
X-20560000Y-1720000D01*
X-17220000Y-1720000D01*
X-17110000Y-1610000D01*
X-17110000Y200001D01*
X-16605647Y200001D01*
X-16585166Y57544D01*
X-16525378Y-73371D01*
X-16525377Y-73373D01*
X-16431128Y-182143D01*
X-16310053Y-259953D01*
X-16310050Y-259954D01*
X-16310051Y-259954D01*
X-16171964Y-300499D01*
X-16171962Y-300500D01*
X-16171961Y-300500D01*
X-16028038Y-300500D01*
X-16028038Y-300499D01*
X-15889947Y-259953D01*
X-15768872Y-182143D01*
X-15674623Y-73373D01*
X-15663214Y-48390D01*
X-14924176Y-48390D01*
X-14894905Y-239466D01*
X-14894902Y-239478D01*
X-14827766Y-420748D01*
X-14827762Y-420757D01*
X-14725512Y-584803D01*
X-14725511Y-584804D01*
X-14725509Y-584807D01*
X-14592323Y-724919D01*
X-14433658Y-835353D01*
X-14256012Y-911587D01*
X-14066656Y-950500D01*
X-13921793Y-950500D01*
X-13777678Y-935845D01*
X-13593241Y-877977D01*
X-13593240Y-877976D01*
X-13593232Y-877974D01*
X-13424209Y-784159D01*
X-13277532Y-658240D01*
X-13159204Y-505373D01*
X-13074070Y-331816D01*
X-13050159Y-239466D01*
X-13025617Y-144682D01*
X-13025616Y-144676D01*
X-13025615Y-144674D01*
X-13024373Y-120192D01*
X-10975500Y-120192D01*
X-10965162Y-182143D01*
X-10935934Y-357300D01*
X-10857884Y-584652D01*
X-10857882Y-584657D01*
X-10743471Y-796069D01*
X-10743467Y-796075D01*
X-10595831Y-985757D01*
X-10595829Y-985759D01*
X-10595825Y-985764D01*
X-10418969Y-1148571D01*
X-10217728Y-1280049D01*
X-9997591Y-1376610D01*
X-9764563Y-1435620D01*
X-9584990Y-1450500D01*
X-9584986Y-1450500D01*
X-9465014Y-1450500D01*
X-9465010Y-1450500D01*
X-9285437Y-1435620D01*
X-9052409Y-1376610D01*
X-8832272Y-1280049D01*
X-8631031Y-1148571D01*
X-8454175Y-985764D01*
X-8356109Y-859768D01*
X-8306534Y-796075D01*
X-8306530Y-796069D01*
X-8306528Y-796067D01*
X-8192118Y-584656D01*
X-8114066Y-357297D01*
X-8074500Y-120192D01*
X-8074500Y-48390D01*
X-6034176Y-48390D01*
X-6004905Y-239466D01*
X-6004902Y-239478D01*
X-5937766Y-420748D01*
X-5937762Y-420757D01*
X-5835512Y-584803D01*
X-5835511Y-584804D01*
X-5835509Y-584807D01*
X-5702323Y-724919D01*
X-5543658Y-835353D01*
X-5366012Y-911587D01*
X-5176656Y-950500D01*
X-5031793Y-950500D01*
X-4887678Y-935845D01*
X-4703241Y-877977D01*
X-4703240Y-877976D01*
X-4703232Y-877974D01*
X-4534209Y-784159D01*
X-4387532Y-658240D01*
X-4269204Y-505373D01*
X-4184070Y-331816D01*
X-4160159Y-239466D01*
X-4135617Y-144682D01*
X-4135616Y-144676D01*
X-4135615Y-144674D01*
X-4125824Y48390D01*
X-4155097Y239474D01*
X-4222236Y420753D01*
X-4274980Y505373D01*
X-4324489Y584804D01*
X-4324490Y584805D01*
X-4324491Y584807D01*
X-4457677Y724919D01*
X-4522581Y770094D01*
X-4616343Y835354D01*
X-4793988Y911587D01*
X-4983344Y950500D01*
X-5128206Y950500D01*
X-5128207Y950500D01*
X-5272323Y935846D01*
X-5456760Y877978D01*
X-5456775Y877971D01*
X-5625789Y784161D01*
X-5625794Y784158D01*
X-5772467Y658242D01*
X-5772469Y658241D01*
X-5890795Y505376D01*
X-5890797Y505372D01*
X-5975932Y331813D01*
X-6024384Y144683D01*
X-6024385Y144677D01*
X-6034176Y-48390D01*
X-8074500Y-48390D01*
X-8074500Y120192D01*
X-8114066Y357297D01*
X-8119585Y373372D01*
X-8192117Y584653D01*
X-8192119Y584658D01*
X-8292472Y770094D01*
X-8306528Y796067D01*
X-8306530Y796070D01*
X-8306534Y796076D01*
X-8454170Y985758D01*
X-8454173Y985761D01*
X-8454175Y985764D01*
X-8631031Y1148571D01*
X-8695719Y1190834D01*
X-8832271Y1280049D01*
X-8960243Y1336183D01*
X-9052409Y1376610D01*
X-9052411Y1376611D01*
X-9285441Y1435621D01*
X-9465000Y1450500D01*
X-9465010Y1450500D01*
X-9584990Y1450500D01*
X-9585001Y1450500D01*
X-9764560Y1435621D01*
X-9997590Y1376611D01*
X-10217730Y1280049D01*
X-10418967Y1148573D01*
X-10418971Y1148570D01*
X-10595828Y985761D01*
X-10595831Y985758D01*
X-10743467Y796076D01*
X-10743471Y796070D01*
X-10857882Y584658D01*
X-10857884Y584653D01*
X-10935934Y357301D01*
X-10960985Y207174D01*
X-10975500Y120192D01*
X-10975500Y-120192D01*
X-13024373Y-120192D01*
X-13015824Y48390D01*
X-13045097Y239474D01*
X-13112236Y420753D01*
X-13164980Y505373D01*
X-13214489Y584804D01*
X-13214490Y584805D01*
X-13214491Y584807D01*
X-13347677Y724919D01*
X-13412581Y770094D01*
X-13506343Y835354D01*
X-13683988Y911587D01*
X-13873344Y950500D01*
X-14018206Y950500D01*
X-14018207Y950500D01*
X-14162323Y935846D01*
X-14346760Y877978D01*
X-14346775Y877971D01*
X-14515789Y784161D01*
X-14515794Y784158D01*
X-14662467Y658242D01*
X-14662469Y658241D01*
X-14780795Y505376D01*
X-14780797Y505372D01*
X-14865932Y331813D01*
X-14914384Y144683D01*
X-14914385Y144677D01*
X-14924176Y-48390D01*
X-15663214Y-48390D01*
X-15614835Y57543D01*
X-15594353Y200000D01*
X-15614835Y342457D01*
X-15674623Y473373D01*
X-15768872Y582143D01*
X-15889947Y659953D01*
X-15889949Y659954D01*
X-15889951Y659955D01*
X-15889950Y659955D01*
X-16028037Y700500D01*
X-16028039Y700500D01*
X-16171961Y700500D01*
X-16171964Y700500D01*
X-16310051Y659955D01*
X-16431127Y582144D01*
X-16525377Y473374D01*
X-16525378Y473372D01*
X-16585166Y342457D01*
X-16605647Y200001D01*
X-17110000Y200001D01*
X-17110000Y1670000D01*
X-17120000Y1680000D01*
X-20630000Y1680000D01*
X-27573548Y1680000D01*
X-27593888Y1710000D01*
X-1690000Y1710000D01*
X-1690000Y-1620000D01*
X-1620000Y-1690000D01*
X1720000Y-1690000D01*
X1830000Y-1580000D01*
X1830000Y100001D01*
X2094353Y100001D01*
X2114834Y-42456D01*
X2156628Y-133970D01*
X2174623Y-173373D01*
X2268872Y-282143D01*
X2389947Y-359953D01*
X2389950Y-359954D01*
X2389949Y-359954D01*
X2528036Y-400499D01*
X2528038Y-400500D01*
X2528039Y-400500D01*
X2671962Y-400500D01*
X2671962Y-400499D01*
X2810053Y-359953D01*
X2931128Y-282143D01*
X3025377Y-173373D01*
X3082455Y-48390D01*
X4125824Y-48390D01*
X4155095Y-239466D01*
X4155098Y-239478D01*
X4222234Y-420748D01*
X4222238Y-420757D01*
X4324488Y-584803D01*
X4324489Y-584804D01*
X4324491Y-584807D01*
X4457677Y-724919D01*
X4616342Y-835353D01*
X4793988Y-911587D01*
X4983344Y-950500D01*
X5128207Y-950500D01*
X5272322Y-935845D01*
X5456759Y-877977D01*
X5456760Y-877976D01*
X5456768Y-877974D01*
X5625791Y-784159D01*
X5772468Y-658240D01*
X5890796Y-505373D01*
X5975930Y-331816D01*
X5999841Y-239466D01*
X6024383Y-144682D01*
X6024384Y-144676D01*
X6024385Y-144674D01*
X6025627Y-120192D01*
X8074500Y-120192D01*
X8084838Y-182143D01*
X8114066Y-357300D01*
X8192116Y-584652D01*
X8192118Y-584657D01*
X8306529Y-796069D01*
X8306533Y-796075D01*
X8454169Y-985757D01*
X8454171Y-985759D01*
X8454175Y-985764D01*
X8631031Y-1148571D01*
X8832272Y-1280049D01*
X9052409Y-1376610D01*
X9285437Y-1435620D01*
X9465010Y-1450500D01*
X9465014Y-1450500D01*
X9584986Y-1450500D01*
X9584990Y-1450500D01*
X9764563Y-1435620D01*
X9997591Y-1376610D01*
X10217728Y-1280049D01*
X10418969Y-1148571D01*
X10595825Y-985764D01*
X10693891Y-859768D01*
X10743466Y-796075D01*
X10743470Y-796069D01*
X10743472Y-796067D01*
X10857882Y-584656D01*
X10935934Y-357297D01*
X10975500Y-120192D01*
X10975500Y-48390D01*
X13015824Y-48390D01*
X13045095Y-239466D01*
X13045098Y-239478D01*
X13112234Y-420748D01*
X13112238Y-420757D01*
X13214488Y-584803D01*
X13214489Y-584804D01*
X13214491Y-584807D01*
X13347677Y-724919D01*
X13506342Y-835353D01*
X13683988Y-911587D01*
X13873344Y-950500D01*
X14018207Y-950500D01*
X14162322Y-935845D01*
X14346759Y-877977D01*
X14346760Y-877976D01*
X14346768Y-877974D01*
X14515791Y-784159D01*
X14662468Y-658240D01*
X14780796Y-505373D01*
X14865930Y-331816D01*
X14889841Y-239466D01*
X14914383Y-144682D01*
X14914384Y-144676D01*
X14914385Y-144674D01*
X14924176Y48390D01*
X14894903Y239474D01*
X14827764Y420753D01*
X14775020Y505373D01*
X14725511Y584804D01*
X14725510Y584805D01*
X14725509Y584807D01*
X14592323Y724919D01*
X14527419Y770094D01*
X14433657Y835354D01*
X14256012Y911587D01*
X14066656Y950500D01*
X13921794Y950500D01*
X13921793Y950500D01*
X13777677Y935846D01*
X13593240Y877978D01*
X13593225Y877971D01*
X13424211Y784161D01*
X13424206Y784158D01*
X13277533Y658242D01*
X13277531Y658241D01*
X13159205Y505376D01*
X13159203Y505372D01*
X13074068Y331813D01*
X13025616Y144683D01*
X13025615Y144677D01*
X13015824Y-48390D01*
X10975500Y-48390D01*
X10975500Y120192D01*
X10935934Y357297D01*
X10930415Y373372D01*
X10857883Y584653D01*
X10857881Y584658D01*
X10757528Y770094D01*
X10743472Y796067D01*
X10743470Y796070D01*
X10743466Y796076D01*
X10595830Y985758D01*
X10595827Y985761D01*
X10595825Y985764D01*
X10418969Y1148571D01*
X10354281Y1190834D01*
X10217729Y1280049D01*
X10089757Y1336183D01*
X9997591Y1376610D01*
X9997589Y1376611D01*
X9764559Y1435621D01*
X9585000Y1450500D01*
X9584990Y1450500D01*
X9465010Y1450500D01*
X9464999Y1450500D01*
X9285440Y1435621D01*
X9052410Y1376611D01*
X8832270Y1280049D01*
X8631033Y1148573D01*
X8631029Y1148570D01*
X8454172Y985761D01*
X8454169Y985758D01*
X8306533Y796076D01*
X8306529Y796070D01*
X8192118Y584658D01*
X8192116Y584653D01*
X8114066Y357301D01*
X8089015Y207174D01*
X8074500Y120192D01*
X8074500Y-120192D01*
X6025627Y-120192D01*
X6034176Y48390D01*
X6004903Y239474D01*
X5937764Y420753D01*
X5885020Y505373D01*
X5835511Y584804D01*
X5835510Y584805D01*
X5835509Y584807D01*
X5702323Y724919D01*
X5637419Y770094D01*
X5543657Y835354D01*
X5366012Y911587D01*
X5176656Y950500D01*
X5031794Y950500D01*
X5031793Y950500D01*
X4887677Y935846D01*
X4703240Y877978D01*
X4703225Y877971D01*
X4534211Y784161D01*
X4534206Y784158D01*
X4387533Y658242D01*
X4387531Y658241D01*
X4269205Y505376D01*
X4269203Y505372D01*
X4184068Y331813D01*
X4135616Y144683D01*
X4135615Y144677D01*
X4125824Y-48390D01*
X3082455Y-48390D01*
X3085165Y-42457D01*
X3105647Y100000D01*
X3085165Y242457D01*
X3025377Y373373D01*
X2931128Y482143D01*
X2810053Y559953D01*
X2810051Y559954D01*
X2810049Y559955D01*
X2810050Y559955D01*
X2671963Y600500D01*
X2671961Y600500D01*
X2528039Y600500D01*
X2528036Y600500D01*
X2389949Y559955D01*
X2268873Y482144D01*
X2174623Y373374D01*
X2174622Y373372D01*
X2114834Y242457D01*
X2094353Y100001D01*
X1830000Y100001D01*
X1830000Y1700000D01*
X1820000Y1710000D01*
X-1690000Y1710000D01*
X-27593888Y1710000D01*
X-27607448Y1730000D01*
X17290000Y1730000D01*
X17290000Y-1600000D01*
X17360000Y-1670000D01*
X20700000Y-1670000D01*
X20810000Y-1560000D01*
X20810000Y100001D01*
X21219353Y100001D01*
X21239834Y-42456D01*
X21281628Y-133970D01*
X21299623Y-173373D01*
X21393872Y-282143D01*
X21514947Y-359953D01*
X21514950Y-359954D01*
X21514949Y-359954D01*
X21653036Y-400499D01*
X21653038Y-400500D01*
X21653039Y-400500D01*
X21796962Y-400500D01*
X21796962Y-400499D01*
X21935053Y-359953D01*
X22056128Y-282143D01*
X22150377Y-173373D01*
X22207455Y-48390D01*
X23175824Y-48390D01*
X23205095Y-239466D01*
X23205098Y-239478D01*
X23272234Y-420748D01*
X23272238Y-420757D01*
X23374488Y-584803D01*
X23374489Y-584804D01*
X23374491Y-584807D01*
X23507677Y-724919D01*
X23666342Y-835353D01*
X23843988Y-911587D01*
X24033344Y-950500D01*
X24178207Y-950500D01*
X24322322Y-935845D01*
X24506759Y-877977D01*
X24506760Y-877976D01*
X24506768Y-877974D01*
X24675791Y-784159D01*
X24822468Y-658240D01*
X24940796Y-505373D01*
X25025930Y-331816D01*
X25049841Y-239466D01*
X25074383Y-144682D01*
X25074384Y-144676D01*
X25074385Y-144674D01*
X25084176Y48390D01*
X25054903Y239474D01*
X24987764Y420753D01*
X24935020Y505373D01*
X24885511Y584804D01*
X24885510Y584805D01*
X24885509Y584807D01*
X24752323Y724919D01*
X24687419Y770094D01*
X24593657Y835354D01*
X24416012Y911587D01*
X24226656Y950500D01*
X24081794Y950500D01*
X24081793Y950500D01*
X23937677Y935846D01*
X23753240Y877978D01*
X23753225Y877971D01*
X23584211Y784161D01*
X23584206Y784158D01*
X23437533Y658242D01*
X23437531Y658241D01*
X23319205Y505376D01*
X23319203Y505372D01*
X23234068Y331813D01*
X23185616Y144683D01*
X23185615Y144677D01*
X23175824Y-48390D01*
X22207455Y-48390D01*
X22210165Y-42457D01*
X22230647Y100000D01*
X22210165Y242457D01*
X22150377Y373373D01*
X22056128Y482143D01*
X21935053Y559953D01*
X21935051Y559954D01*
X21935049Y559955D01*
X21935050Y559955D01*
X21796963Y600500D01*
X21796961Y600500D01*
X21653039Y600500D01*
X21653036Y600500D01*
X21514949Y559955D01*
X21393873Y482144D01*
X21299623Y373374D01*
X21299622Y373372D01*
X21239834Y242457D01*
X21219353Y100001D01*
X20810000Y100001D01*
X20810000Y1720000D01*
X20800000Y1730000D01*
X17290000Y1730000D01*
X-27607448Y1730000D01*
X-27638253Y1775433D01*
X-27638258Y1775439D01*
X-27638260Y1775442D01*
X-27859412Y2035803D01*
X-27859417Y2035809D01*
X-27859422Y2035814D01*
X-28107442Y2270750D01*
X-28379411Y2477496D01*
X-28379415Y2477499D01*
X-28379421Y2477503D01*
X-28379426Y2477507D01*
X-28672136Y2653623D01*
X-28672149Y2653630D01*
X-28982185Y2797068D01*
X-28982190Y2797070D01*
X-28982195Y2797072D01*
X-29140004Y2850244D01*
X-29305943Y2906156D01*
X-29639588Y2979597D01*
X-29979213Y3016533D01*
X-29979214Y3016533D01*
X-30147791Y3016533D01*
X-30152254Y3016694D01*
X-30220859Y3021647D01*
X-30380494Y3033171D01*
X-30398161Y3035735D01*
X-30615106Y3083375D01*
X-30632223Y3088449D01*
X-30840087Y3166753D01*
X-30856297Y3174233D01*
X-31050760Y3281574D01*
X-31065722Y3291301D01*
X-31242755Y3425454D01*
X-31256167Y3437229D01*
X-31370008Y3552714D01*
X-31412104Y3595418D01*
X-31423687Y3608999D01*
X-31555284Y3787932D01*
X-31564799Y3803038D01*
X-31565396Y3804157D01*
X-31669347Y3999033D01*
X-31676583Y4015324D01*
X-31751904Y4224306D01*
X-31756729Y4241483D01*
X-31801255Y4459096D01*
X-31803565Y4476799D01*
X-31811992Y4622617D01*
X-31816380Y4698549D01*
X-31816125Y4716386D01*
X-31796435Y4943790D01*
X-31795719Y4949232D01*
X-31608241Y6008320D01*
X-31607855Y6010301D01*
X-31605800Y6020000D01*
X-17825647Y6020000D01*
X-17824129Y6009439D01*
X-17805166Y5877544D01*
X-17745378Y5746629D01*
X-17745377Y5746627D01*
X-17651128Y5637857D01*
X-17530053Y5560047D01*
X-17530050Y5560046D01*
X-17530051Y5560046D01*
X-17391964Y5519501D01*
X-17391962Y5519500D01*
X-17391961Y5519500D01*
X-17248038Y5519500D01*
X-17248038Y5519501D01*
X-17109947Y5560047D01*
X-16988872Y5637857D01*
X-16894623Y5746627D01*
X-16834835Y5877543D01*
X-16814353Y6020000D01*
X944353Y6020000D01*
X945871Y6009439D01*
X964834Y5877544D01*
X1024622Y5746629D01*
X1024623Y5746627D01*
X1118872Y5637857D01*
X1239947Y5560047D01*
X1239950Y5560046D01*
X1239949Y5560046D01*
X1378036Y5519501D01*
X1378038Y5519500D01*
X1378039Y5519500D01*
X1521962Y5519500D01*
X1521962Y5519501D01*
X1660053Y5560047D01*
X1781128Y5637857D01*
X1875377Y5746627D01*
X1935165Y5877543D01*
X1955647Y6020000D01*
X1935165Y6162457D01*
X1931720Y6170000D01*
X20134353Y6170000D01*
X20154834Y6027544D01*
X20214622Y5896629D01*
X20214623Y5896627D01*
X20308872Y5787857D01*
X20429947Y5710047D01*
X20429950Y5710046D01*
X20429949Y5710046D01*
X20568036Y5669501D01*
X20568038Y5669500D01*
X20568039Y5669500D01*
X20711962Y5669500D01*
X20711962Y5669501D01*
X20850053Y5710047D01*
X20971128Y5787857D01*
X21065377Y5896627D01*
X21125165Y6027543D01*
X21145647Y6170000D01*
X21125165Y6312457D01*
X21065377Y6443373D01*
X20971128Y6552143D01*
X20850053Y6629953D01*
X20850051Y6629954D01*
X20850049Y6629955D01*
X20850050Y6629955D01*
X20711963Y6670500D01*
X20711961Y6670500D01*
X20568039Y6670500D01*
X20568036Y6670500D01*
X20429949Y6629955D01*
X20308873Y6552144D01*
X20214623Y6443374D01*
X20214622Y6443372D01*
X20154834Y6312457D01*
X20134353Y6170000D01*
X1931720Y6170000D01*
X1875377Y6293373D01*
X1781128Y6402143D01*
X1660053Y6479953D01*
X1660051Y6479954D01*
X1660049Y6479955D01*
X1660050Y6479955D01*
X1521963Y6520500D01*
X1521961Y6520500D01*
X1378039Y6520500D01*
X1378036Y6520500D01*
X1239949Y6479955D01*
X1118873Y6402144D01*
X1024623Y6293374D01*
X1024622Y6293372D01*
X964834Y6162457D01*
X944353Y6020001D01*
X944353Y6020000D01*
X-16814353Y6020000D01*
X-16834835Y6162457D01*
X-16894623Y6293373D01*
X-16988872Y6402143D01*
X-17109947Y6479953D01*
X-17109949Y6479954D01*
X-17109951Y6479955D01*
X-17109950Y6479955D01*
X-17248037Y6520500D01*
X-17248039Y6520500D01*
X-17391961Y6520500D01*
X-17391964Y6520500D01*
X-17530051Y6479955D01*
X-17651127Y6402144D01*
X-17745377Y6293374D01*
X-17745378Y6293372D01*
X-17805166Y6162457D01*
X-17825647Y6020001D01*
X-17825647Y6020000D01*
X-31605800Y6020000D01*
X-31384618Y7064246D01*
X-31384174Y7066186D01*
X-31230029Y7690000D01*
X-4975647Y7690000D01*
X-4955166Y7547544D01*
X-4895378Y7416629D01*
X-4895377Y7416627D01*
X-4801128Y7307857D01*
X-4680053Y7230047D01*
X-4680050Y7230046D01*
X-4680051Y7230046D01*
X-4541964Y7189501D01*
X-4541962Y7189500D01*
X-4541961Y7189500D01*
X-4398038Y7189500D01*
X-4398038Y7189501D01*
X-4259947Y7230047D01*
X-4138872Y7307857D01*
X-4044623Y7416627D01*
X-3984835Y7547543D01*
X-3964353Y7690000D01*
X-3984835Y7832457D01*
X-4044623Y7963373D01*
X-4138872Y8072143D01*
X-4259947Y8149953D01*
X-4259949Y8149954D01*
X-4259951Y8149955D01*
X-4259950Y8149955D01*
X-4398037Y8190500D01*
X-4398039Y8190500D01*
X-4541961Y8190500D01*
X-4541964Y8190500D01*
X-4680051Y8149955D01*
X-4801127Y8072144D01*
X-4895377Y7963374D01*
X-4895378Y7963372D01*
X-4955166Y7832457D01*
X-4975647Y7690000D01*
X-31230029Y7690000D01*
X-31125727Y8112100D01*
X-31125202Y8114082D01*
X-31115051Y8149953D01*
X-30831848Y9150732D01*
X-30831257Y9152691D01*
X-30831227Y9152785D01*
X-30752230Y9400000D01*
X-27415647Y9400000D01*
X-27395166Y9257544D01*
X-27335378Y9126629D01*
X-27335377Y9126627D01*
X-27241128Y9017857D01*
X-27120053Y8940047D01*
X-27120050Y8940046D01*
X-27120051Y8940046D01*
X-26981964Y8899501D01*
X-26981962Y8899500D01*
X-26981961Y8899500D01*
X-26838038Y8899500D01*
X-26838038Y8899501D01*
X-26699947Y8940047D01*
X-26578872Y9017857D01*
X-26484623Y9126627D01*
X-26424835Y9257543D01*
X-26404353Y9400000D01*
X16094353Y9400000D01*
X16114834Y9257544D01*
X16174622Y9126629D01*
X16174623Y9126627D01*
X16268872Y9017857D01*
X16389947Y8940047D01*
X16389950Y8940046D01*
X16389949Y8940046D01*
X16528036Y8899501D01*
X16528038Y8899500D01*
X16528039Y8899500D01*
X16671962Y8899500D01*
X16671962Y8899501D01*
X16810053Y8940047D01*
X16931128Y9017857D01*
X17025377Y9126627D01*
X17085165Y9257543D01*
X17105647Y9400000D01*
X17085165Y9542457D01*
X17025377Y9673373D01*
X16931128Y9782143D01*
X16810053Y9859953D01*
X16810051Y9859954D01*
X16810049Y9859955D01*
X16810050Y9859955D01*
X16671963Y9900500D01*
X16671961Y9900500D01*
X16528039Y9900500D01*
X16528036Y9900500D01*
X16389949Y9859955D01*
X16268873Y9782144D01*
X16174623Y9673374D01*
X16174622Y9673372D01*
X16114834Y9542457D01*
X16094353Y9400000D01*
X-26404353Y9400000D01*
X-26424835Y9542457D01*
X-26484623Y9673373D01*
X-26578872Y9782143D01*
X-26699947Y9859953D01*
X-26699949Y9859954D01*
X-26699951Y9859955D01*
X-26699950Y9859955D01*
X-26838037Y9900500D01*
X-26838039Y9900500D01*
X-26981961Y9900500D01*
X-26981964Y9900500D01*
X-27120051Y9859955D01*
X-27241127Y9782144D01*
X-27335377Y9673374D01*
X-27335378Y9673372D01*
X-27395166Y9542457D01*
X-27415647Y9400000D01*
X-30752230Y9400000D01*
X-30557253Y10010161D01*
X-14755808Y10010161D01*
X-14735327Y9867705D01*
X-14696252Y9782144D01*
X-14675538Y9736788D01*
X-14581289Y9628018D01*
X-14460214Y9550208D01*
X-14460211Y9550207D01*
X-14460212Y9550207D01*
X-14322125Y9509662D01*
X-14322123Y9509661D01*
X-14322122Y9509661D01*
X-14178199Y9509661D01*
X-14178199Y9509662D01*
X-14040108Y9550208D01*
X-13919033Y9628018D01*
X-13824784Y9736788D01*
X-13764996Y9867704D01*
X-13744514Y10010161D01*
X-13764996Y10152618D01*
X-13824784Y10283534D01*
X-13919033Y10392304D01*
X-14040108Y10470114D01*
X-14040110Y10470115D01*
X-14040112Y10470116D01*
X-14040111Y10470116D01*
X-14178198Y10510661D01*
X-14178200Y10510661D01*
X-14322122Y10510661D01*
X-14322125Y10510661D01*
X-14460212Y10470116D01*
X-14581288Y10392305D01*
X-14675538Y10283535D01*
X-14675539Y10283533D01*
X-14735327Y10152618D01*
X-14755808Y10010161D01*
X-30557253Y10010161D01*
X-30503329Y10178910D01*
X-30502684Y10180816D01*
X-30466022Y10283534D01*
X-30140539Y11195479D01*
X-30139837Y11197349D01*
X-29870145Y11879808D01*
X-24450500Y11879808D01*
X-24442921Y11834392D01*
X-24410934Y11642700D01*
X-24332884Y11415348D01*
X-24332882Y11415343D01*
X-24218471Y11203931D01*
X-24218467Y11203925D01*
X-24070831Y11014243D01*
X-24070829Y11014241D01*
X-24070825Y11014236D01*
X-23893969Y10851429D01*
X-23692728Y10719951D01*
X-23472591Y10623390D01*
X-23239563Y10564380D01*
X-23059990Y10549500D01*
X-23059986Y10549500D01*
X-22940014Y10549500D01*
X-22940010Y10549500D01*
X-22760437Y10564380D01*
X-22527409Y10623390D01*
X-22307272Y10719951D01*
X-22106031Y10851429D01*
X-22026588Y10924561D01*
X-4880208Y10924561D01*
X-4859727Y10782105D01*
X-4800572Y10652577D01*
X-4799938Y10651188D01*
X-4705689Y10542418D01*
X-4584614Y10464608D01*
X-4584611Y10464607D01*
X-4584612Y10464607D01*
X-4446525Y10424062D01*
X-4446523Y10424061D01*
X-4446522Y10424061D01*
X-4302599Y10424061D01*
X-4302599Y10424062D01*
X-4164508Y10464608D01*
X-4043433Y10542418D01*
X-3949184Y10651188D01*
X-3889396Y10782104D01*
X-3887537Y10795034D01*
X18128580Y10795034D01*
X18149061Y10652577D01*
X18162391Y10623390D01*
X18208850Y10521660D01*
X18303099Y10412890D01*
X18424174Y10335080D01*
X18424177Y10335079D01*
X18424176Y10335079D01*
X18562263Y10294534D01*
X18562265Y10294533D01*
X18562266Y10294533D01*
X18706189Y10294533D01*
X18706189Y10294534D01*
X18844280Y10335080D01*
X18965355Y10412890D01*
X19059604Y10521660D01*
X19119392Y10652576D01*
X19139874Y10795033D01*
X19119392Y10937490D01*
X19059604Y11068406D01*
X18965355Y11177176D01*
X18844280Y11254986D01*
X18844278Y11254987D01*
X18844276Y11254988D01*
X18844277Y11254988D01*
X18706190Y11295533D01*
X18706188Y11295533D01*
X18562266Y11295533D01*
X18562263Y11295533D01*
X18424176Y11254988D01*
X18303100Y11177177D01*
X18208850Y11068407D01*
X18208849Y11068405D01*
X18149061Y10937490D01*
X18128580Y10795034D01*
X-3887537Y10795034D01*
X-3868914Y10924561D01*
X-3889396Y11067018D01*
X-3949184Y11197934D01*
X-4043433Y11306704D01*
X-4164508Y11384514D01*
X-4164510Y11384515D01*
X-4164512Y11384516D01*
X-4164511Y11384516D01*
X-4302598Y11425061D01*
X-4302600Y11425061D01*
X-4446522Y11425061D01*
X-4446525Y11425061D01*
X-4584612Y11384516D01*
X-4705688Y11306705D01*
X-4799938Y11197935D01*
X-4799939Y11197933D01*
X-4859727Y11067018D01*
X-4880208Y10924561D01*
X-22026588Y10924561D01*
X-21929175Y11014236D01*
X-21781528Y11203933D01*
X-21667118Y11415344D01*
X-21644633Y11480840D01*
X-10740609Y11480840D01*
X-10726803Y11472165D01*
X-10726799Y11472163D01*
X-10556642Y11412623D01*
X-10556639Y11412622D01*
X-10377503Y11392438D01*
X-10377497Y11392438D01*
X-10198362Y11412622D01*
X-10028193Y11472167D01*
X-10014393Y11480839D01*
X-10014393Y11480840D01*
X-9465609Y11480840D01*
X-9451803Y11472165D01*
X-9451799Y11472163D01*
X-9281642Y11412623D01*
X-9281639Y11412622D01*
X-9102503Y11392438D01*
X-9102497Y11392438D01*
X-8923362Y11412622D01*
X-8753193Y11472167D01*
X-8739393Y11480839D01*
X-8739393Y11480840D01*
X-8190609Y11480840D01*
X-8176803Y11472165D01*
X-8176799Y11472163D01*
X-8006642Y11412623D01*
X-8006639Y11412622D01*
X-7827503Y11392438D01*
X-7827497Y11392438D01*
X-7648362Y11412622D01*
X-7478193Y11472167D01*
X-7464393Y11480839D01*
X-7464393Y11480840D01*
X-7713553Y11730001D01*
X17084353Y11730001D01*
X17104834Y11587544D01*
X17157526Y11472167D01*
X17164623Y11456627D01*
X17258872Y11347857D01*
X17379947Y11270047D01*
X17379950Y11270046D01*
X17379949Y11270046D01*
X17518036Y11229501D01*
X17518038Y11229500D01*
X17518039Y11229500D01*
X17661962Y11229500D01*
X17661962Y11229501D01*
X17800053Y11270047D01*
X17921128Y11347857D01*
X18015377Y11456627D01*
X18075165Y11587543D01*
X18095647Y11730000D01*
X18075165Y11872457D01*
X18071807Y11879810D01*
X21549499Y11879810D01*
X21589066Y11642700D01*
X21667116Y11415348D01*
X21667118Y11415343D01*
X21781529Y11203931D01*
X21781533Y11203925D01*
X21929169Y11014243D01*
X21929171Y11014241D01*
X21929175Y11014236D01*
X22106031Y10851429D01*
X22307272Y10719951D01*
X22527409Y10623390D01*
X22760437Y10564380D01*
X22940010Y10549500D01*
X22940014Y10549500D01*
X23059986Y10549500D01*
X23059990Y10549500D01*
X23239563Y10564380D01*
X23472591Y10623390D01*
X23692728Y10719951D01*
X23893969Y10851429D01*
X24070825Y11014236D01*
X24218472Y11203933D01*
X24332882Y11415344D01*
X24410934Y11642703D01*
X24450500Y11879808D01*
X24450500Y12120192D01*
X24410934Y12357297D01*
X24406401Y12370500D01*
X24332883Y12584653D01*
X24332881Y12584658D01*
X24300835Y12643874D01*
X24218472Y12796067D01*
X24218470Y12796070D01*
X24218466Y12796076D01*
X24070830Y12985758D01*
X24070827Y12985761D01*
X24070825Y12985764D01*
X23893969Y13148571D01*
X23891851Y13149955D01*
X23692729Y13280049D01*
X23530048Y13351407D01*
X23472591Y13376610D01*
X23472589Y13376611D01*
X23239559Y13435621D01*
X23060000Y13450500D01*
X23059990Y13450500D01*
X22940010Y13450500D01*
X22939999Y13450500D01*
X22760440Y13435621D01*
X22527410Y13376611D01*
X22307270Y13280049D01*
X22106033Y13148573D01*
X22106029Y13148570D01*
X21929172Y12985761D01*
X21929169Y12985758D01*
X21781533Y12796076D01*
X21781529Y12796070D01*
X21667118Y12584658D01*
X21667116Y12584653D01*
X21589066Y12357301D01*
X21549499Y12120191D01*
X21549499Y11879810D01*
X18071807Y11879810D01*
X18015377Y12003373D01*
X17921128Y12112143D01*
X17800053Y12189953D01*
X17800051Y12189954D01*
X17800049Y12189955D01*
X17800050Y12189955D01*
X17661963Y12230500D01*
X17661961Y12230500D01*
X17518039Y12230500D01*
X17518036Y12230500D01*
X17379949Y12189955D01*
X17258873Y12112144D01*
X17164623Y12003374D01*
X17164622Y12003372D01*
X17104834Y11872457D01*
X17084353Y11730001D01*
X-7713553Y11730001D01*
X-7827499Y11843947D01*
X-7827500Y11843947D01*
X-8190609Y11480840D01*
X-8739393Y11480840D01*
X-9102499Y11843947D01*
X-9102500Y11843947D01*
X-9465609Y11480840D01*
X-10014393Y11480840D01*
X-10377499Y11843947D01*
X-10377500Y11843947D01*
X-10740609Y11480840D01*
X-21644633Y11480840D01*
X-21589066Y11642703D01*
X-21549500Y11879808D01*
X-21549500Y12120192D01*
X-21589066Y12357297D01*
X-21593599Y12370500D01*
X-21612967Y12426917D01*
X-14932563Y12426917D01*
X-14912082Y12284460D01*
X-14873186Y12199292D01*
X-14852293Y12153543D01*
X-14758044Y12044773D01*
X-14636969Y11966963D01*
X-14636966Y11966962D01*
X-14636967Y11966962D01*
X-14498880Y11926417D01*
X-14498878Y11926416D01*
X-14498877Y11926416D01*
X-14354954Y11926416D01*
X-14354954Y11926417D01*
X-14242280Y11959500D01*
X-14216866Y11966962D01*
X-14216866Y11966963D01*
X-14216863Y11966963D01*
X-14095788Y12044773D01*
X-14001539Y12153543D01*
X-13941751Y12284459D01*
X-13921269Y12426916D01*
X-13941751Y12569373D01*
X-14001539Y12700289D01*
X-14095788Y12809059D01*
X-14136153Y12835000D01*
X-11718147Y12835000D01*
X-11697666Y12692544D01*
X-11656524Y12602457D01*
X-11637877Y12561627D01*
X-11543628Y12452857D01*
X-11422553Y12375047D01*
X-11422550Y12375046D01*
X-11422551Y12375046D01*
X-11275952Y12332001D01*
X-11276601Y12329792D01*
X-11224483Y12305992D01*
X-11186706Y12247216D01*
X-11182989Y12204464D01*
X-11182562Y12204464D01*
X-11182562Y12199558D01*
X-11182461Y12198396D01*
X-11182562Y12197500D01*
X-11182562Y12197498D01*
X-11162379Y12018362D01*
X-11162378Y12018359D01*
X-11102838Y11848202D01*
X-11102833Y11848192D01*
X-11094162Y11834392D01*
X-10709328Y12219225D01*
X-10556423Y12219225D01*
X-10546025Y12133587D01*
X-10497019Y12062591D01*
X-10420634Y12022500D01*
X-10356253Y12022500D01*
X-10293740Y12037908D01*
X-10229168Y12095114D01*
X-10198577Y12175775D01*
X-10208975Y12261413D01*
X-10257981Y12332409D01*
X-10334366Y12372500D01*
X-10398747Y12372500D01*
X-10461260Y12357092D01*
X-10525832Y12299886D01*
X-10556423Y12219225D01*
X-10709328Y12219225D01*
X-10465181Y12463372D01*
X-10403858Y12496857D01*
X-10334166Y12491873D01*
X-10289819Y12463372D01*
X-9740001Y11913554D01*
X-9434329Y12219225D01*
X-9281423Y12219225D01*
X-9271025Y12133587D01*
X-9222019Y12062591D01*
X-9145634Y12022500D01*
X-9081253Y12022500D01*
X-9018740Y12037908D01*
X-8954168Y12095114D01*
X-8923577Y12175775D01*
X-8933975Y12261413D01*
X-8982981Y12332409D01*
X-9059366Y12372500D01*
X-9123747Y12372500D01*
X-9186260Y12357092D01*
X-9250832Y12299886D01*
X-9281423Y12219225D01*
X-9434329Y12219225D01*
X-9190182Y12463372D01*
X-9128859Y12496857D01*
X-9059168Y12491873D01*
X-9014820Y12463372D01*
X-8465002Y11913553D01*
X-8465001Y11913553D01*
X-8159330Y12219225D01*
X-8006423Y12219225D01*
X-7996025Y12133587D01*
X-7947019Y12062591D01*
X-7870634Y12022500D01*
X-7806253Y12022500D01*
X-7743740Y12037908D01*
X-7679168Y12095114D01*
X-7648577Y12175775D01*
X-7658975Y12261413D01*
X-7707981Y12332409D01*
X-7784366Y12372500D01*
X-7848747Y12372500D01*
X-7911260Y12357092D01*
X-7975832Y12299886D01*
X-8006423Y12219225D01*
X-8159330Y12219225D01*
X-7915182Y12463373D01*
X-7853859Y12496858D01*
X-7784168Y12491874D01*
X-7739820Y12463373D01*
X-7110840Y11834393D01*
X-7102262Y11835359D01*
X-7067873Y11865776D01*
X-6998819Y11876424D01*
X-6980286Y11872492D01*
X-6971799Y11870000D01*
X-6971797Y11870000D01*
X-6827876Y11870000D01*
X-6827876Y11870001D01*
X-6689785Y11910547D01*
X-6568710Y11988357D01*
X-6474461Y12097127D01*
X-6414673Y12228043D01*
X-6395701Y12360000D01*
X1064353Y12360000D01*
X1084834Y12217544D01*
X1132970Y12112143D01*
X1144623Y12086627D01*
X1238872Y11977857D01*
X1359947Y11900047D01*
X1359950Y11900046D01*
X1359949Y11900046D01*
X1498036Y11859501D01*
X1498038Y11859500D01*
X1498039Y11859500D01*
X1641962Y11859500D01*
X1641962Y11859501D01*
X1780053Y11900047D01*
X1901128Y11977857D01*
X1995377Y12086627D01*
X2055165Y12217543D01*
X2075647Y12360000D01*
X2061269Y12460000D01*
X15704353Y12460000D01*
X15724834Y12317544D01*
X15778822Y12199330D01*
X15784623Y12186627D01*
X15878872Y12077857D01*
X15999947Y12000047D01*
X15999950Y12000046D01*
X15999949Y12000046D01*
X16075520Y11977857D01*
X16112625Y11966962D01*
X16138036Y11959501D01*
X16138038Y11959500D01*
X16138039Y11959500D01*
X16281962Y11959500D01*
X16281962Y11959501D01*
X16420053Y12000047D01*
X16541128Y12077857D01*
X16635377Y12186627D01*
X16695165Y12317543D01*
X16715647Y12460000D01*
X16695165Y12602457D01*
X16635377Y12733373D01*
X16541128Y12842143D01*
X16420053Y12919953D01*
X16420051Y12919954D01*
X16420049Y12919955D01*
X16420050Y12919955D01*
X16281963Y12960500D01*
X16281961Y12960500D01*
X16138039Y12960500D01*
X16138036Y12960500D01*
X15999949Y12919955D01*
X15878873Y12842144D01*
X15784623Y12733374D01*
X15784622Y12733372D01*
X15724834Y12602457D01*
X15704353Y12460000D01*
X2061269Y12460000D01*
X2055165Y12502457D01*
X1995377Y12633373D01*
X1901128Y12742143D01*
X1780053Y12819953D01*
X1780051Y12819954D01*
X1780049Y12819955D01*
X1780050Y12819955D01*
X1641963Y12860500D01*
X1641961Y12860500D01*
X1498039Y12860500D01*
X1498036Y12860500D01*
X1359949Y12819955D01*
X1238873Y12742144D01*
X1144623Y12633374D01*
X1144622Y12633372D01*
X1084834Y12502457D01*
X1064353Y12360000D01*
X-6395701Y12360000D01*
X-6394191Y12370500D01*
X-6414673Y12512957D01*
X-6474461Y12643873D01*
X-6568710Y12752643D01*
X-6689785Y12830453D01*
X-6689787Y12830454D01*
X-6689789Y12830455D01*
X-6689788Y12830455D01*
X-6827875Y12871000D01*
X-6827877Y12871000D01*
X-6971799Y12871000D01*
X-6971803Y12871000D01*
X-7011887Y12859230D01*
X-7081757Y12859230D01*
X-7140535Y12897005D01*
X-7169559Y12960561D01*
X-7159615Y13029719D01*
X-7151815Y13044179D01*
X-7102164Y13123199D01*
X-7042623Y13293359D01*
X-7042622Y13293362D01*
X-7022438Y13472498D01*
X-7022438Y13472503D01*
X-7026517Y13508702D01*
X-4517632Y13508702D01*
X-4497151Y13366246D01*
X-4472792Y13312908D01*
X-4437362Y13235329D01*
X-4343113Y13126559D01*
X-4222038Y13048749D01*
X-4222035Y13048748D01*
X-4222036Y13048748D01*
X-4083949Y13008203D01*
X-4083947Y13008202D01*
X-4083946Y13008202D01*
X-3940023Y13008202D01*
X-3940023Y13008203D01*
X-3801932Y13048749D01*
X-3680857Y13126559D01*
X-3586608Y13235329D01*
X-3526820Y13366245D01*
X-3506338Y13508702D01*
X-3526820Y13651159D01*
X-3586608Y13782075D01*
X-3680857Y13890845D01*
X-3801932Y13968655D01*
X-3801934Y13968656D01*
X-3801936Y13968657D01*
X-3801935Y13968657D01*
X-3940022Y14009202D01*
X-3940024Y14009202D01*
X-4083946Y14009202D01*
X-4083949Y14009202D01*
X-4222036Y13968657D01*
X-4343112Y13890846D01*
X-4437362Y13782076D01*
X-4437363Y13782074D01*
X-4497151Y13651159D01*
X-4517632Y13508702D01*
X-7026517Y13508702D01*
X-7042622Y13651639D01*
X-7042623Y13651642D01*
X-7102163Y13821799D01*
X-7102165Y13821803D01*
X-7110840Y13835609D01*
X-7739820Y13206629D01*
X-7801143Y13173144D01*
X-7870835Y13178128D01*
X-7915182Y13206629D01*
X-8093372Y13384819D01*
X-8126857Y13446142D01*
X-8123418Y13494225D01*
X-8006423Y13494225D01*
X-7996025Y13408587D01*
X-7947019Y13337591D01*
X-7870634Y13297500D01*
X-7806253Y13297500D01*
X-7743740Y13312908D01*
X-7679168Y13370114D01*
X-7648577Y13450775D01*
X-7658975Y13536413D01*
X-7707981Y13607409D01*
X-7784366Y13647500D01*
X-7848747Y13647500D01*
X-7911260Y13632092D01*
X-7975832Y13574886D01*
X-8006423Y13494225D01*
X-8123418Y13494225D01*
X-8121873Y13515834D01*
X-8093372Y13560181D01*
X-7543553Y14110000D01*
X-8202778Y14769225D01*
X-8006423Y14769225D01*
X-7996025Y14683587D01*
X-7947019Y14612591D01*
X-7870634Y14572500D01*
X-7806253Y14572500D01*
X-7743740Y14587908D01*
X-7679168Y14645114D01*
X-7648577Y14725775D01*
X-7651215Y14747500D01*
X-7473947Y14747500D01*
X-7110840Y14384393D01*
X-7110839Y14384393D01*
X-7102167Y14398193D01*
X-7042622Y14568362D01*
X-7022438Y14747498D01*
X-7022438Y14747503D01*
X-7042622Y14926639D01*
X-7042623Y14926642D01*
X-7102163Y15096799D01*
X-7102165Y15096803D01*
X-7110840Y15110609D01*
X-7473947Y14747501D01*
X-7473947Y14747500D01*
X-7651215Y14747500D01*
X-7658975Y14811413D01*
X-7707981Y14882409D01*
X-7784366Y14922500D01*
X-7848747Y14922500D01*
X-7911260Y14907092D01*
X-7975832Y14849886D01*
X-8006423Y14769225D01*
X-8202778Y14769225D01*
X-8465000Y15031447D01*
X-9014819Y14481628D01*
X-9076142Y14448143D01*
X-9145834Y14453127D01*
X-9190181Y14481628D01*
X-9477778Y14769225D01*
X-9281423Y14769225D01*
X-9271025Y14683587D01*
X-9222019Y14612591D01*
X-9145634Y14572500D01*
X-9081253Y14572500D01*
X-9018740Y14587908D01*
X-8954168Y14645114D01*
X-8923577Y14725775D01*
X-8933975Y14811413D01*
X-8982981Y14882409D01*
X-9059366Y14922500D01*
X-9123747Y14922500D01*
X-9186260Y14907092D01*
X-9250832Y14849886D01*
X-9281423Y14769225D01*
X-9477778Y14769225D01*
X-9740000Y15031447D01*
X-10377500Y14393947D01*
X-10661448Y14110000D01*
X-10111629Y13560181D01*
X-10078144Y13498858D01*
X-10083128Y13429167D01*
X-10111629Y13384819D01*
X-10289819Y13206629D01*
X-10351142Y13173144D01*
X-10420834Y13178128D01*
X-10465181Y13206629D01*
X-10752777Y13494225D01*
X-10556423Y13494225D01*
X-10546025Y13408587D01*
X-10497019Y13337591D01*
X-10420634Y13297500D01*
X-10356253Y13297500D01*
X-10293740Y13312908D01*
X-10229168Y13370114D01*
X-10198577Y13450775D01*
X-10208975Y13536413D01*
X-10257981Y13607409D01*
X-10334366Y13647500D01*
X-10398747Y13647500D01*
X-10461260Y13632092D01*
X-10525832Y13574886D01*
X-10556423Y13494225D01*
X-10752777Y13494225D01*
X-11094162Y13835610D01*
X-11094162Y13835609D01*
X-11102836Y13821804D01*
X-11162378Y13651642D01*
X-11162379Y13651639D01*
X-11182562Y13472503D01*
X-11182562Y13472495D01*
X-11182462Y13471607D01*
X-11182562Y13471037D01*
X-11182562Y13465536D01*
X-11183525Y13465536D01*
X-11194517Y13402785D01*
X-11241867Y13351407D01*
X-11276294Y13339161D01*
X-11275952Y13337999D01*
X-11422551Y13294955D01*
X-11543627Y13217144D01*
X-11637877Y13108374D01*
X-11637878Y13108372D01*
X-11697666Y12977457D01*
X-11718147Y12835000D01*
X-14136153Y12835000D01*
X-14216863Y12886869D01*
X-14216865Y12886870D01*
X-14216867Y12886871D01*
X-14216866Y12886871D01*
X-14354953Y12927416D01*
X-14354955Y12927416D01*
X-14498877Y12927416D01*
X-14498880Y12927416D01*
X-14636967Y12886871D01*
X-14758043Y12809060D01*
X-14852293Y12700290D01*
X-14852294Y12700288D01*
X-14912082Y12569373D01*
X-14932563Y12426917D01*
X-21612967Y12426917D01*
X-21667117Y12584653D01*
X-21667119Y12584658D01*
X-21699165Y12643874D01*
X-21781528Y12796067D01*
X-21781530Y12796070D01*
X-21781534Y12796076D01*
X-21929170Y12985758D01*
X-21929173Y12985761D01*
X-21929175Y12985764D01*
X-22106031Y13148571D01*
X-22108149Y13149955D01*
X-22307271Y13280049D01*
X-22469952Y13351407D01*
X-22527409Y13376610D01*
X-22527411Y13376611D01*
X-22760441Y13435621D01*
X-22940000Y13450500D01*
X-22940010Y13450500D01*
X-23059990Y13450500D01*
X-23060001Y13450500D01*
X-23239560Y13435621D01*
X-23472590Y13376611D01*
X-23692730Y13280049D01*
X-23893967Y13148573D01*
X-23893971Y13148570D01*
X-24070828Y12985761D01*
X-24070831Y12985758D01*
X-24218467Y12796076D01*
X-24218471Y12796070D01*
X-24332882Y12584658D01*
X-24332884Y12584653D01*
X-24410934Y12357301D01*
X-24439414Y12186629D01*
X-24450500Y12120192D01*
X-24450500Y11879808D01*
X-29870145Y11879808D01*
X-29743887Y12199306D01*
X-29743096Y12201212D01*
X-29741683Y12204464D01*
X-29530732Y12690001D01*
X-26765647Y12690001D01*
X-26745166Y12547544D01*
X-26706725Y12463372D01*
X-26685377Y12416627D01*
X-26591128Y12307857D01*
X-26470053Y12230047D01*
X-26470050Y12230046D01*
X-26470051Y12230046D01*
X-26371978Y12201250D01*
X-26333504Y12189953D01*
X-26331964Y12189501D01*
X-26331962Y12189500D01*
X-26331961Y12189500D01*
X-26188038Y12189500D01*
X-26188038Y12189501D01*
X-26056772Y12228043D01*
X-26049950Y12230046D01*
X-26049950Y12230047D01*
X-26049947Y12230047D01*
X-25928872Y12307857D01*
X-25834623Y12416627D01*
X-25774835Y12547543D01*
X-25754353Y12690000D01*
X-25774835Y12832457D01*
X-25834623Y12963373D01*
X-25928872Y13072143D01*
X-26049947Y13149953D01*
X-26049949Y13149954D01*
X-26049951Y13149955D01*
X-26049950Y13149955D01*
X-26188037Y13190500D01*
X-26188039Y13190500D01*
X-26331961Y13190500D01*
X-26331964Y13190500D01*
X-26470051Y13149955D01*
X-26591127Y13072144D01*
X-26685377Y12963374D01*
X-26685378Y12963372D01*
X-26745166Y12832457D01*
X-26765647Y12690001D01*
X-29530732Y12690001D01*
X-29313788Y13189331D01*
X-29312971Y13191129D01*
X-28850773Y14164330D01*
X-28849866Y14166159D01*
X-28737107Y14384392D01*
X-28549494Y14747498D01*
X-11182562Y14747498D01*
X-11162379Y14568362D01*
X-11162378Y14568359D01*
X-11102838Y14398202D01*
X-11102833Y14398192D01*
X-11094162Y14384392D01*
X-10731053Y14747500D01*
X-10731053Y14747501D01*
X-10752777Y14769225D01*
X-10556423Y14769225D01*
X-10546025Y14683587D01*
X-10497019Y14612591D01*
X-10420634Y14572500D01*
X-10356253Y14572500D01*
X-10293740Y14587908D01*
X-10229168Y14645114D01*
X-10198577Y14725775D01*
X-10208975Y14811413D01*
X-10257981Y14882409D01*
X-10334366Y14922500D01*
X-10398747Y14922500D01*
X-10461260Y14907092D01*
X-10525832Y14849886D01*
X-10556423Y14769225D01*
X-10752777Y14769225D01*
X-11094162Y15110610D01*
X-11094162Y15110609D01*
X-11102836Y15096804D01*
X-11162378Y14926642D01*
X-11162379Y14926639D01*
X-11182562Y14747503D01*
X-11182562Y14747498D01*
X-28549494Y14747498D01*
X-28355306Y15123328D01*
X-28354393Y15125025D01*
X-28164500Y15464162D01*
X-10740610Y15464162D01*
X-10377500Y15101053D01*
X-10377499Y15101053D01*
X-10014392Y15464162D01*
X-9465610Y15464162D01*
X-9102500Y15101053D01*
X-9102499Y15101053D01*
X-8739392Y15464162D01*
X-8190610Y15464162D01*
X-7827500Y15101053D01*
X-7827499Y15101053D01*
X-7464392Y15464162D01*
X-7464392Y15464163D01*
X-7478192Y15472833D01*
X-7478202Y15472838D01*
X-7648359Y15532378D01*
X-7648362Y15532379D01*
X-7827497Y15552562D01*
X-7827503Y15552562D01*
X-8006639Y15532379D01*
X-8006642Y15532378D01*
X-8176804Y15472836D01*
X-8190609Y15464162D01*
X-8190610Y15464162D01*
X-8739392Y15464162D01*
X-8739392Y15464163D01*
X-8753192Y15472833D01*
X-8753202Y15472838D01*
X-8923359Y15532378D01*
X-8923362Y15532379D01*
X-9102497Y15552562D01*
X-9102503Y15552562D01*
X-9281639Y15532379D01*
X-9281642Y15532378D01*
X-9451804Y15472836D01*
X-9465609Y15464162D01*
X-9465610Y15464162D01*
X-10014392Y15464162D01*
X-10014392Y15464163D01*
X-10028192Y15472833D01*
X-10028202Y15472838D01*
X-10198359Y15532378D01*
X-10198362Y15532379D01*
X-10377497Y15552562D01*
X-10377503Y15552562D01*
X-10556639Y15532379D01*
X-10556642Y15532378D01*
X-10726804Y15472836D01*
X-10740609Y15464162D01*
X-10740610Y15464162D01*
X-28164500Y15464162D01*
X-27828024Y16065089D01*
X-27827011Y16066828D01*
X-27407767Y16760000D01*
X-22955583Y16760000D01*
X-22935301Y16554068D01*
X-22924316Y16517857D01*
X-22875232Y16356046D01*
X-22777685Y16173550D01*
X-22777683Y16173548D01*
X-22646411Y16013590D01*
X-22549791Y15934298D01*
X-22486450Y15882315D01*
X-22303954Y15784768D01*
X-22105934Y15724700D01*
X-22105935Y15724700D01*
X-22087471Y15722882D01*
X-21900000Y15704417D01*
X-21694066Y15724700D01*
X-21496046Y15784768D01*
X-21313550Y15882315D01*
X-21153590Y16013590D01*
X-21022315Y16173550D01*
X-20924768Y16356046D01*
X-20864700Y16554066D01*
X-20844417Y16760000D01*
X-20864700Y16965934D01*
X-20924768Y17163954D01*
X-20944035Y17200000D01*
X-13905647Y17200000D01*
X-13885166Y17057544D01*
X-13854547Y16990500D01*
X-13825377Y16926627D01*
X-13731128Y16817857D01*
X-13610053Y16740047D01*
X-13610050Y16740046D01*
X-13610051Y16740046D01*
X-13471964Y16699501D01*
X-13471962Y16699500D01*
X-13471961Y16699500D01*
X-13328038Y16699500D01*
X-13328038Y16699501D01*
X-13240490Y16725207D01*
X-13189953Y16740045D01*
X-13189953Y16740046D01*
X-13189947Y16740047D01*
X-13184498Y16743550D01*
X-13117464Y16763237D01*
X-13050423Y16743557D01*
X-13004666Y16690759D01*
X-12975377Y16626627D01*
X-12881128Y16517857D01*
X-12760053Y16440047D01*
X-12760050Y16440046D01*
X-12760051Y16440046D01*
X-12621964Y16399501D01*
X-12621962Y16399500D01*
X-12621961Y16399500D01*
X-12478038Y16399500D01*
X-12478038Y16399501D01*
X-12339947Y16440047D01*
X-12262217Y16490001D01*
X-1705647Y16490001D01*
X-1685166Y16347544D01*
X-1655441Y16282457D01*
X-1625377Y16216627D01*
X-1531128Y16107857D01*
X-1410053Y16030047D01*
X-1410050Y16030046D01*
X-1410051Y16030046D01*
X-1271964Y15989501D01*
X-1271962Y15989500D01*
X-1271961Y15989500D01*
X-1128038Y15989500D01*
X-1128038Y15989501D01*
X-989947Y16030047D01*
X-868872Y16107857D01*
X-841019Y16140001D01*
X1064353Y16140001D01*
X1084834Y15997544D01*
X1137457Y15882318D01*
X1144623Y15866627D01*
X1238872Y15757857D01*
X1359947Y15680047D01*
X1359950Y15680046D01*
X1359949Y15680046D01*
X1498036Y15639501D01*
X1498038Y15639500D01*
X1498039Y15639500D01*
X1641962Y15639500D01*
X1641962Y15639501D01*
X1780053Y15680047D01*
X1901128Y15757857D01*
X1995377Y15866627D01*
X2055165Y15997543D01*
X2075647Y16140000D01*
X2055165Y16282457D01*
X1995377Y16413373D01*
X1901128Y16522143D01*
X1780053Y16599953D01*
X1780051Y16599954D01*
X1780049Y16599955D01*
X1780050Y16599955D01*
X1641963Y16640500D01*
X1641961Y16640500D01*
X1498039Y16640500D01*
X1498036Y16640500D01*
X1359949Y16599955D01*
X1238873Y16522144D01*
X1144623Y16413374D01*
X1144622Y16413372D01*
X1084834Y16282457D01*
X1064353Y16140001D01*
X-841019Y16140001D01*
X-774623Y16216627D01*
X-714835Y16347543D01*
X-694353Y16490000D01*
X-714835Y16632457D01*
X-774623Y16763373D01*
X-868872Y16872143D01*
X-989947Y16949953D01*
X-989949Y16949954D01*
X-989951Y16949955D01*
X-989950Y16949955D01*
X-1128037Y16990500D01*
X-1128039Y16990500D01*
X-1271961Y16990500D01*
X-1271964Y16990500D01*
X-1410051Y16949955D01*
X-1531127Y16872144D01*
X-1625377Y16763374D01*
X-1625378Y16763372D01*
X-1685166Y16632457D01*
X-1705647Y16490001D01*
X-12262217Y16490001D01*
X-12218872Y16517857D01*
X-12124623Y16626627D01*
X-12064835Y16757543D01*
X-12044353Y16900000D01*
X-12064835Y17042457D01*
X-12124623Y17173373D01*
X-12218872Y17282143D01*
X-12339947Y17359953D01*
X-12339949Y17359954D01*
X-12339951Y17359955D01*
X-12339950Y17359955D01*
X-12478037Y17400500D01*
X-12478039Y17400500D01*
X-12621961Y17400500D01*
X-12621964Y17400500D01*
X-12760051Y17359955D01*
X-12760057Y17359952D01*
X-12765514Y17356445D01*
X-12832555Y17336765D01*
X-12899593Y17356454D01*
X-12945340Y17409253D01*
X-12974623Y17473372D01*
X-12974624Y17473374D01*
X-13068872Y17582143D01*
X-13189947Y17659953D01*
X-13189949Y17659954D01*
X-13189951Y17659955D01*
X-13189950Y17659955D01*
X-13328037Y17700500D01*
X-13328039Y17700500D01*
X-13471961Y17700500D01*
X-13471964Y17700500D01*
X-13610051Y17659955D01*
X-13731127Y17582144D01*
X-13825377Y17473374D01*
X-13825378Y17473372D01*
X-13885166Y17342457D01*
X-13905647Y17200000D01*
X-20944035Y17200000D01*
X-21022315Y17346450D01*
X-21074298Y17409791D01*
X-21153590Y17506411D01*
X-21313548Y17637683D01*
X-21313547Y17637683D01*
X-21313550Y17637685D01*
X-21496046Y17735232D01*
X-21694066Y17795300D01*
X-21694068Y17795301D01*
X-21694066Y17795301D01*
X-21900000Y17815583D01*
X-22105933Y17795301D01*
X-22303957Y17735231D01*
X-22414102Y17676357D01*
X-22486450Y17637685D01*
X-22486452Y17637684D01*
X-22486453Y17637683D01*
X-22646411Y17506411D01*
X-22777683Y17346453D01*
X-22777685Y17346450D01*
X-22812058Y17282144D01*
X-22875231Y17163957D01*
X-22935301Y16965933D01*
X-22955583Y16760000D01*
X-27407767Y16760000D01*
X-27269451Y16988690D01*
X-27268393Y16990375D01*
X-26680215Y17893081D01*
X-26679101Y17894728D01*
X-26447774Y18225000D01*
X-10530647Y18225000D01*
X-10510166Y18082544D01*
X-10450378Y17951629D01*
X-10450377Y17951627D01*
X-10356128Y17842857D01*
X-10235053Y17765047D01*
X-10235050Y17765046D01*
X-10235051Y17765046D01*
X-10096964Y17724501D01*
X-10096962Y17724500D01*
X-10096961Y17724500D01*
X-9953038Y17724500D01*
X-9953038Y17724501D01*
X-9814947Y17765047D01*
X-9693872Y17842857D01*
X-9599623Y17951627D01*
X-9539835Y18082543D01*
X-9519353Y18225000D01*
X-9539835Y18367457D01*
X-9599623Y18498373D01*
X-9693872Y18607143D01*
X-9814947Y18684953D01*
X-9814949Y18684954D01*
X-9814951Y18684955D01*
X-9814950Y18684955D01*
X-9953037Y18725500D01*
X-9953039Y18725500D01*
X-10096961Y18725500D01*
X-10096964Y18725500D01*
X-10235051Y18684955D01*
X-10356127Y18607144D01*
X-10450377Y18498374D01*
X-10450378Y18498372D01*
X-10510166Y18367457D01*
X-10530647Y18225000D01*
X-26447774Y18225000D01*
X-26304016Y18430248D01*
X-22950500Y18430248D01*
X-22938869Y18371771D01*
X-22938868Y18371770D01*
X-22894553Y18305448D01*
X-22828231Y18261133D01*
X-22828230Y18261132D01*
X-22769753Y18249501D01*
X-22769750Y18249500D01*
X-22769748Y18249500D01*
X-21030250Y18249500D01*
X-21030249Y18249501D01*
X-21015432Y18252448D01*
X-20971771Y18261132D01*
X-20971771Y18261133D01*
X-20971769Y18261133D01*
X-20905448Y18305448D01*
X-20861133Y18371769D01*
X-20861133Y18371771D01*
X-20861132Y18371771D01*
X-20849501Y18430248D01*
X-20849500Y18430250D01*
X-20849500Y19670001D01*
X5564353Y19670001D01*
X5584834Y19527544D01*
X5644622Y19396629D01*
X5644623Y19396627D01*
X5738872Y19287857D01*
X5859947Y19210047D01*
X5859950Y19210046D01*
X5859949Y19210046D01*
X5998036Y19169501D01*
X5998038Y19169500D01*
X5998039Y19169500D01*
X6141962Y19169500D01*
X6141962Y19169501D01*
X6280053Y19210047D01*
X6401128Y19287857D01*
X6495377Y19396627D01*
X6555165Y19527543D01*
X6575647Y19670000D01*
X6555165Y19812457D01*
X6495377Y19943373D01*
X6401128Y20052143D01*
X6280053Y20129953D01*
X6280051Y20129954D01*
X6280049Y20129955D01*
X6280050Y20129955D01*
X6141963Y20170500D01*
X6141961Y20170500D01*
X5998039Y20170500D01*
X5998036Y20170500D01*
X5859949Y20129955D01*
X5738873Y20052144D01*
X5738872Y20052144D01*
X5738872Y20052143D01*
X5726290Y20037623D01*
X5644623Y19943374D01*
X5644622Y19943372D01*
X5584834Y19812457D01*
X5564353Y19670001D01*
X-20849500Y19670001D01*
X-20849500Y20169751D01*
X-20849501Y20169753D01*
X-20855517Y20200000D01*
X-18459985Y20200000D01*
X-18439504Y20057544D01*
X-18404437Y19980760D01*
X-18379715Y19926627D01*
X-18285466Y19817857D01*
X-18164391Y19740047D01*
X-18164388Y19740046D01*
X-18164389Y19740046D01*
X-18026302Y19699501D01*
X-18026300Y19699500D01*
X-18026299Y19699500D01*
X-17882376Y19699500D01*
X-17882376Y19699501D01*
X-17744285Y19740047D01*
X-17623210Y19817857D01*
X-17528961Y19926627D01*
X-17469173Y20057543D01*
X-17448691Y20200000D01*
X-17459474Y20275000D01*
X-10461735Y20275000D01*
X-10441254Y20132544D01*
X-10404536Y20052144D01*
X-10381465Y20001627D01*
X-10287216Y19892857D01*
X-10166141Y19815047D01*
X-10166138Y19815046D01*
X-10166139Y19815046D01*
X-10028052Y19774501D01*
X-10028050Y19774500D01*
X-10028049Y19774500D01*
X-9884126Y19774500D01*
X-9884126Y19774501D01*
X-9746035Y19815047D01*
X-9624960Y19892857D01*
X-9530711Y20001627D01*
X-9470923Y20132543D01*
X-9450441Y20275000D01*
X-9470923Y20417457D01*
X-9530711Y20548373D01*
X-9624960Y20657143D01*
X-9746035Y20734953D01*
X-9746037Y20734954D01*
X-9746039Y20734955D01*
X-9746038Y20734955D01*
X-9884125Y20775500D01*
X-9884127Y20775500D01*
X-10028049Y20775500D01*
X-10028052Y20775500D01*
X-10166139Y20734955D01*
X-10287215Y20657144D01*
X-10381465Y20548374D01*
X-10381466Y20548372D01*
X-10441254Y20417457D01*
X-10461735Y20275000D01*
X-17459474Y20275000D01*
X-17469173Y20342457D01*
X-17528961Y20473373D01*
X-17623210Y20582143D01*
X-17744285Y20659953D01*
X-17744287Y20659954D01*
X-17744289Y20659955D01*
X-17744288Y20659955D01*
X-17882375Y20700500D01*
X-17882377Y20700500D01*
X-18026299Y20700500D01*
X-18026302Y20700500D01*
X-18164389Y20659955D01*
X-18285465Y20582144D01*
X-18379715Y20473374D01*
X-18379716Y20473372D01*
X-18439504Y20342457D01*
X-18459985Y20200000D01*
X-20855517Y20200000D01*
X-20861132Y20228230D01*
X-20861133Y20228231D01*
X-20905448Y20294553D01*
X-20971770Y20338868D01*
X-20971771Y20338869D01*
X-21030248Y20350500D01*
X-21030252Y20350500D01*
X-22769748Y20350500D01*
X-22769753Y20350500D01*
X-22828230Y20338869D01*
X-22828231Y20338868D01*
X-22894553Y20294553D01*
X-22938868Y20228231D01*
X-22938869Y20228230D01*
X-22950500Y20169753D01*
X-22950500Y18430248D01*
X-26304016Y18430248D01*
X-26060995Y18777217D01*
X-26059870Y18778767D01*
X-25424790Y19623736D01*
X-25419070Y19630323D01*
X-23149392Y21900001D01*
X-12155647Y21900001D01*
X-12135166Y21757544D01*
X-12086280Y21650501D01*
X-12075377Y21626627D01*
X-11981128Y21517857D01*
X-11860053Y21440047D01*
X-11860050Y21440046D01*
X-11860051Y21440046D01*
X-11721964Y21399501D01*
X-11721962Y21399500D01*
X-11721961Y21399500D01*
X-11578038Y21399500D01*
X-11578038Y21399501D01*
X-11439947Y21440047D01*
X-11318872Y21517857D01*
X-11224623Y21626627D01*
X-11213720Y21650500D01*
X-10459985Y21650500D01*
X-10439504Y21508044D01*
X-10389933Y21399501D01*
X-10379715Y21377127D01*
X-10285466Y21268357D01*
X-10164391Y21190547D01*
X-10164388Y21190546D01*
X-10164389Y21190546D01*
X-10026302Y21150001D01*
X-10026300Y21150000D01*
X-10026299Y21150000D01*
X-9882376Y21150000D01*
X-9882376Y21150001D01*
X-9744285Y21190547D01*
X-9623210Y21268357D01*
X-9528961Y21377127D01*
X-9469173Y21508043D01*
X-9448691Y21650500D01*
X-9462997Y21750000D01*
X14194353Y21750000D01*
X14214834Y21607544D01*
X14274622Y21476629D01*
X14274623Y21476627D01*
X14368872Y21367857D01*
X14489947Y21290047D01*
X14489950Y21290046D01*
X14489949Y21290046D01*
X14628036Y21249501D01*
X14628038Y21249500D01*
X14628039Y21249500D01*
X14771962Y21249500D01*
X14771962Y21249501D01*
X14910053Y21290047D01*
X15031128Y21367857D01*
X15125377Y21476627D01*
X15185165Y21607543D01*
X15205647Y21750000D01*
X15185165Y21892457D01*
X15125377Y22023373D01*
X15031128Y22132143D01*
X14910053Y22209953D01*
X14910051Y22209954D01*
X14910049Y22209955D01*
X14910050Y22209955D01*
X14771963Y22250500D01*
X14771961Y22250500D01*
X14628039Y22250500D01*
X14628036Y22250500D01*
X14489949Y22209955D01*
X14368873Y22132144D01*
X14274623Y22023374D01*
X14274622Y22023372D01*
X14214834Y21892457D01*
X14194353Y21750000D01*
X-9462997Y21750000D01*
X-9469173Y21792957D01*
X-9528961Y21923873D01*
X-9623210Y22032643D01*
X-9744285Y22110453D01*
X-9744287Y22110454D01*
X-9744289Y22110455D01*
X-9744288Y22110455D01*
X-9882375Y22151000D01*
X-9882377Y22151000D01*
X-10026299Y22151000D01*
X-10026302Y22151000D01*
X-10164389Y22110455D01*
X-10285465Y22032644D01*
X-10379715Y21923874D01*
X-10379716Y21923872D01*
X-10439504Y21792957D01*
X-10459985Y21650500D01*
X-11213720Y21650500D01*
X-11164835Y21757543D01*
X-11144353Y21900000D01*
X-11164835Y22042457D01*
X-11224623Y22173373D01*
X-11318872Y22282143D01*
X-11439947Y22359953D01*
X-11439949Y22359954D01*
X-11439951Y22359955D01*
X-11439950Y22359955D01*
X-11578037Y22400500D01*
X-11578039Y22400500D01*
X-11721961Y22400500D01*
X-11721964Y22400500D01*
X-11860051Y22359955D01*
X-11981127Y22282144D01*
X-12075377Y22173374D01*
X-12075378Y22173372D01*
X-12135166Y22042457D01*
X-12155647Y21900001D01*
X-23149392Y21900001D01*
X-21548474Y23500919D01*
X-3117322Y23500919D01*
X-3096841Y23358463D01*
X-3090403Y23344367D01*
X-3037052Y23227546D01*
X-2942803Y23118776D01*
X-2821728Y23040966D01*
X-2821725Y23040965D01*
X-2821726Y23040965D01*
X-2683639Y23000420D01*
X-2683637Y23000419D01*
X-2683636Y23000419D01*
X-2539713Y23000419D01*
X-2539713Y23000420D01*
X-2401622Y23040966D01*
X-2280547Y23118776D01*
X-2186298Y23227546D01*
X-2126510Y23358462D01*
X-2106028Y23500919D01*
X-2126510Y23643376D01*
X-2184110Y23769500D01*
X-201868Y23769500D01*
X-181387Y23627044D01*
X-121599Y23496129D01*
X-121598Y23496127D01*
X-27349Y23387357D01*
X93726Y23309547D01*
X93729Y23309546D01*
X93728Y23309546D01*
X231815Y23269001D01*
X231817Y23269000D01*
X231818Y23269000D01*
X375741Y23269000D01*
X375741Y23269001D01*
X513832Y23309547D01*
X634907Y23387357D01*
X729156Y23496127D01*
X788944Y23627043D01*
X809426Y23769500D01*
X804286Y23805248D01*
X7299500Y23805248D01*
X7311131Y23746771D01*
X7311132Y23746770D01*
X7355447Y23680448D01*
X7421769Y23636133D01*
X7421770Y23636132D01*
X7480247Y23624501D01*
X7480250Y23624500D01*
X7480252Y23624500D01*
X9219750Y23624500D01*
X9219751Y23624501D01*
X9234568Y23627448D01*
X9278229Y23636132D01*
X9278229Y23636133D01*
X9278231Y23636133D01*
X9344552Y23680448D01*
X9388867Y23746769D01*
X9388867Y23746771D01*
X9388868Y23746771D01*
X9398922Y23797318D01*
X9400500Y23805252D01*
X9400500Y24675001D01*
X9834417Y24675001D01*
X9854699Y24469068D01*
X9854700Y24469066D01*
X9914768Y24271046D01*
X10012315Y24088550D01*
X10012317Y24088548D01*
X10143589Y23928590D01*
X10163857Y23911957D01*
X10303550Y23797315D01*
X10486046Y23699768D01*
X10684066Y23639700D01*
X10684065Y23639700D01*
X10704347Y23637703D01*
X10890000Y23619417D01*
X11095934Y23639700D01*
X11293954Y23699768D01*
X11476450Y23797315D01*
X11636410Y23928590D01*
X11767685Y24088550D01*
X11865232Y24271046D01*
X11925300Y24469066D01*
X11945583Y24675000D01*
X11945583Y24675001D01*
X12374417Y24675001D01*
X12394699Y24469068D01*
X12394700Y24469066D01*
X12454768Y24271046D01*
X12552315Y24088550D01*
X12552317Y24088548D01*
X12683589Y23928590D01*
X12703857Y23911957D01*
X12843550Y23797315D01*
X13026046Y23699768D01*
X13224066Y23639700D01*
X13224065Y23639700D01*
X13242529Y23637882D01*
X13430000Y23619417D01*
X13635934Y23639700D01*
X13833954Y23699768D01*
X14016450Y23797315D01*
X14176410Y23928590D01*
X14307685Y24088550D01*
X14405232Y24271046D01*
X14425406Y24337554D01*
X14463702Y24395990D01*
X14527514Y24424447D01*
X14596581Y24413888D01*
X14648975Y24367664D01*
X14663841Y24333651D01*
X14696567Y24211514D01*
X14696570Y24211508D01*
X14796399Y23997422D01*
X14931894Y23803918D01*
X15098917Y23636895D01*
X15292421Y23501400D01*
X15506507Y23401571D01*
X15506516Y23401567D01*
X15720000Y23344366D01*
X15720000Y24239499D01*
X15827685Y24190320D01*
X15934237Y24175000D01*
X16005763Y24175000D01*
X16112315Y24190320D01*
X16220000Y24239499D01*
X16220000Y23344367D01*
X16433483Y23401567D01*
X16433492Y23401571D01*
X16647578Y23501400D01*
X16841082Y23636895D01*
X17008105Y23803918D01*
X17143600Y23997422D01*
X17243429Y24211508D01*
X17243432Y24211514D01*
X17300636Y24425000D01*
X16403686Y24425000D01*
X16429493Y24465156D01*
X16470000Y24603111D01*
X16470000Y24746889D01*
X16429493Y24884844D01*
X16403686Y24925000D01*
X17300636Y24925000D01*
X17300635Y24925001D01*
X17243432Y25138487D01*
X17243429Y25138493D01*
X17143600Y25352578D01*
X17143599Y25352580D01*
X17008113Y25546074D01*
X17008108Y25546080D01*
X16841082Y25713106D01*
X16647578Y25848601D01*
X16433492Y25948430D01*
X16433486Y25948433D01*
X16220000Y26005636D01*
X16219999Y26005636D01*
X16219999Y25110502D01*
X16112315Y25159680D01*
X16005763Y25175000D01*
X15934237Y25175000D01*
X15827685Y25159680D01*
X15720000Y25110502D01*
X15720000Y26005636D01*
X15719999Y26005636D01*
X15506513Y25948433D01*
X15506507Y25948430D01*
X15292422Y25848601D01*
X15292420Y25848600D01*
X15098926Y25713114D01*
X15098920Y25713109D01*
X14931891Y25546080D01*
X14931886Y25546074D01*
X14796400Y25352580D01*
X14796399Y25352578D01*
X14696570Y25138493D01*
X14696567Y25138486D01*
X14663841Y25016350D01*
X14627476Y24956690D01*
X14564629Y24926161D01*
X14495253Y24934456D01*
X14441375Y24978941D01*
X14425406Y25012447D01*
X14405232Y25078954D01*
X14307685Y25261450D01*
X14232897Y25352580D01*
X14176410Y25421411D01*
X14026121Y25544748D01*
X14016450Y25552685D01*
X13833954Y25650232D01*
X13635934Y25710300D01*
X13635932Y25710301D01*
X13635934Y25710301D01*
X13448463Y25728765D01*
X13430000Y25730583D01*
X13429999Y25730583D01*
X13224067Y25710301D01*
X13026043Y25650231D01*
X12938114Y25603231D01*
X12843550Y25552685D01*
X12843548Y25552684D01*
X12843547Y25552683D01*
X12683589Y25421411D01*
X12552317Y25261453D01*
X12552315Y25261450D01*
X12513643Y25189102D01*
X12454769Y25078957D01*
X12394699Y24880933D01*
X12374417Y24675001D01*
X11945583Y24675001D01*
X11925300Y24880934D01*
X11865232Y25078954D01*
X11767685Y25261450D01*
X11692897Y25352580D01*
X11636410Y25421411D01*
X11486121Y25544748D01*
X11476450Y25552685D01*
X11293954Y25650232D01*
X11095934Y25710300D01*
X11095932Y25710301D01*
X11095934Y25710301D01*
X10890000Y25730583D01*
X10684067Y25710301D01*
X10486043Y25650231D01*
X10398114Y25603231D01*
X10303550Y25552685D01*
X10303548Y25552684D01*
X10303547Y25552683D01*
X10143589Y25421411D01*
X10012317Y25261453D01*
X10012315Y25261450D01*
X9973643Y25189102D01*
X9914769Y25078957D01*
X9854699Y24880933D01*
X9834417Y24675001D01*
X9400500Y24675001D01*
X9400500Y25544748D01*
X9400500Y25544749D01*
X9400500Y25544751D01*
X9400499Y25544753D01*
X9388868Y25603230D01*
X9388867Y25603231D01*
X9344552Y25669553D01*
X9278230Y25713868D01*
X9278229Y25713869D01*
X9219752Y25725500D01*
X9219748Y25725500D01*
X7480252Y25725500D01*
X7480247Y25725500D01*
X7421770Y25713869D01*
X7421769Y25713868D01*
X7355447Y25669553D01*
X7311132Y25603231D01*
X7311131Y25603230D01*
X7299500Y25544753D01*
X7299500Y23805248D01*
X804286Y23805248D01*
X788944Y23911957D01*
X729156Y24042873D01*
X634907Y24151643D01*
X513832Y24229453D01*
X513830Y24229454D01*
X513828Y24229455D01*
X513829Y24229455D01*
X375742Y24270000D01*
X375740Y24270000D01*
X231818Y24270000D01*
X231815Y24270000D01*
X93728Y24229455D01*
X-27348Y24151644D01*
X-121598Y24042874D01*
X-121599Y24042872D01*
X-181387Y23911957D01*
X-201868Y23769500D01*
X-2184110Y23769500D01*
X-2186298Y23774292D01*
X-2280547Y23883062D01*
X-2401622Y23960872D01*
X-2401624Y23960873D01*
X-2401626Y23960874D01*
X-2401625Y23960874D01*
X-2539712Y24001419D01*
X-2539714Y24001419D01*
X-2683636Y24001419D01*
X-2683639Y24001419D01*
X-2821726Y23960874D01*
X-2942802Y23883063D01*
X-3037052Y23774293D01*
X-3037053Y23774291D01*
X-3096841Y23643376D01*
X-3117322Y23500919D01*
X-21548474Y23500919D01*
X-20159393Y24890000D01*
X-3065647Y24890000D01*
X-3064343Y24880933D01*
X-3045166Y24747544D01*
X-2985378Y24616629D01*
X-2985377Y24616627D01*
X-2891128Y24507857D01*
X-2770053Y24430047D01*
X-2770050Y24430046D01*
X-2770051Y24430046D01*
X-2631964Y24389501D01*
X-2631962Y24389500D01*
X-2631961Y24389500D01*
X-2488038Y24389500D01*
X-2488038Y24389501D01*
X-2349947Y24430047D01*
X-2228872Y24507857D01*
X-2134623Y24616627D01*
X-2074835Y24747543D01*
X-2054353Y24890000D01*
X-2074835Y25032457D01*
X-2091981Y25070000D01*
X-240147Y25070000D01*
X-219666Y24927544D01*
X-172641Y24824576D01*
X-159877Y24796627D01*
X-65628Y24687857D01*
X55447Y24610047D01*
X55450Y24610046D01*
X55449Y24610046D01*
X193536Y24569501D01*
X193538Y24569500D01*
X193539Y24569500D01*
X337462Y24569500D01*
X337462Y24569501D01*
X475553Y24610047D01*
X596628Y24687857D01*
X690877Y24796627D01*
X750665Y24927543D01*
X756343Y24967033D01*
X2497211Y24967033D01*
X2517692Y24824577D01*
X2577480Y24693661D01*
X2577481Y24693660D01*
X2671730Y24584890D01*
X2792805Y24507080D01*
X2792808Y24507079D01*
X2792807Y24507079D01*
X2899965Y24475616D01*
X2922270Y24469066D01*
X2930894Y24466534D01*
X2930896Y24466533D01*
X2930897Y24466533D01*
X3074820Y24466533D01*
X3074820Y24466534D01*
X3212911Y24507080D01*
X3333986Y24584890D01*
X3428235Y24693660D01*
X3488023Y24824576D01*
X3508505Y24967033D01*
X3488023Y25109490D01*
X3428235Y25240406D01*
X3333986Y25349176D01*
X3212911Y25426986D01*
X3212909Y25426987D01*
X3212907Y25426988D01*
X3212908Y25426988D01*
X3074821Y25467533D01*
X3074819Y25467533D01*
X2930897Y25467533D01*
X2930894Y25467533D01*
X2792807Y25426988D01*
X2671731Y25349177D01*
X2577481Y25240407D01*
X2577480Y25240405D01*
X2517692Y25109490D01*
X2497211Y24967033D01*
X756343Y24967033D01*
X771147Y25070000D01*
X750665Y25212457D01*
X690877Y25343373D01*
X596628Y25452143D01*
X475553Y25529953D01*
X475551Y25529954D01*
X475549Y25529955D01*
X475550Y25529955D01*
X337463Y25570500D01*
X337461Y25570500D01*
X193539Y25570500D01*
X193536Y25570500D01*
X55449Y25529955D01*
X-65627Y25452144D01*
X-159877Y25343374D01*
X-159878Y25343372D01*
X-219666Y25212457D01*
X-240147Y25070000D01*
X-2091981Y25070000D01*
X-2134623Y25163373D01*
X-2228872Y25272143D01*
X-2349947Y25349953D01*
X-2349949Y25349954D01*
X-2349951Y25349955D01*
X-2349950Y25349955D01*
X-2488037Y25390500D01*
X-2488039Y25390500D01*
X-2631961Y25390500D01*
X-2631964Y25390500D01*
X-2770051Y25349955D01*
X-2891127Y25272144D01*
X-2985377Y25163374D01*
X-2985378Y25163372D01*
X-3045166Y25032457D01*
X-3060448Y24926161D01*
X-3065647Y24890000D01*
X-20159393Y24890000D01*
X-19764170Y25285223D01*
X-19757656Y25290887D01*
X-19602062Y25408176D01*
X-5957471Y25408176D01*
X-5936990Y25265719D01*
X-5877202Y25134804D01*
X-5877201Y25134802D01*
X-5782952Y25026032D01*
X-5661877Y24948222D01*
X-5661874Y24948221D01*
X-5661875Y24948221D01*
X-5523788Y24907676D01*
X-5523786Y24907675D01*
X-5523785Y24907675D01*
X-5379862Y24907675D01*
X-5379862Y24907676D01*
X-5241771Y24948222D01*
X-5120696Y25026032D01*
X-5026447Y25134802D01*
X-4966659Y25265718D01*
X-4946177Y25408175D01*
X-4966659Y25550632D01*
X-5026447Y25681548D01*
X-5120696Y25790318D01*
X-5241771Y25868128D01*
X-5241773Y25868129D01*
X-5241775Y25868130D01*
X-5241774Y25868130D01*
X-5379861Y25908675D01*
X-5379863Y25908675D01*
X-5523785Y25908675D01*
X-5523788Y25908675D01*
X-5661875Y25868130D01*
X-5782951Y25790319D01*
X-5877201Y25681549D01*
X-5877202Y25681547D01*
X-5936990Y25550632D01*
X-5957471Y25408176D01*
X-19602062Y25408176D01*
X-18986290Y25872355D01*
X-18984779Y25873456D01*
X-18456499Y26246818D01*
X-18179136Y26442845D01*
X-18177586Y26443904D01*
X-17354845Y26988298D01*
X-17353304Y26989284D01*
X-16514228Y27508178D01*
X-16512701Y27509091D01*
X-15833867Y27900608D01*
X-15658075Y28001996D01*
X-15656412Y28002922D01*
X-15330231Y28177932D01*
X-14790350Y28467602D01*
X-14782502Y28471135D01*
X-14754494Y28481467D01*
X-14724710Y28488432D01*
X-14706385Y28490381D01*
X-14675806Y28489839D01*
X-14646239Y28485628D01*
X-14638745Y28484082D01*
X-14586967Y28470021D01*
X-14586608Y28469955D01*
X-14497810Y28445781D01*
X-14201254Y28403045D01*
X-13901700Y28396751D01*
X-13603610Y28426993D01*
X-13311424Y28493320D01*
X-13029493Y28594746D01*
X-12762017Y28729758D01*
X-12512978Y28896347D01*
X-12286086Y29092031D01*
X-12286080Y29092037D01*
X-12236150Y29147051D01*
X-12084721Y29313896D01*
X-12084712Y29313908D01*
X-12025933Y29397139D01*
X-11911880Y29558637D01*
X-11770139Y29822610D01*
X-11716415Y29961078D01*
X-11715317Y29963721D01*
X-11633032Y30149500D01*
X-11571034Y30289477D01*
X-11568474Y30294599D01*
X-11551903Y30324258D01*
X-11395355Y30604461D01*
X-11392333Y30609326D01*
X-11191309Y30901878D01*
X-11187870Y30906419D01*
X-10960653Y31179162D01*
X-10956801Y31183373D01*
X-10705369Y31433933D01*
X-10701131Y31437781D01*
X-10610046Y31513129D01*
X-10427623Y31664031D01*
X-10423053Y31667467D01*
X-10129788Y31867484D01*
X-10124962Y31870459D01*
X-9814450Y32042528D01*
X-9809351Y32045053D01*
X-9484269Y32187688D01*
X-9478953Y32189732D01*
X-9141911Y32301773D01*
X-9138357Y32302835D01*
X-9127925Y32305620D01*
X-8240410Y32542503D01*
X-8238845Y32542898D01*
X-7334250Y32757745D01*
X-7332680Y32758095D01*
X-6422462Y32947869D01*
X-6420874Y32948177D01*
X-5915977Y33038962D01*
X-5505856Y33112705D01*
X-5504166Y33112985D01*
X-5371947Y33133006D01*
X-5067695Y33179073D01*
X-4998466Y33169646D01*
X-4945321Y33124287D01*
X-4925136Y33057397D01*
X-4925133Y33056563D01*
X-4924826Y32645598D01*
X-4944461Y32578543D01*
X-4997230Y32532749D01*
X-5066381Y32522754D01*
X-5129959Y32551731D01*
X-5131053Y32552689D01*
X-5154534Y32573491D01*
X-5219148Y32630734D01*
X-5219150Y32630735D01*
X-5219151Y32630736D01*
X-5369774Y32709790D01*
X-5534944Y32750500D01*
X-5705056Y32750500D01*
X-5870227Y32709790D01*
X-6020850Y32630737D01*
X-6148184Y32517928D01*
X-6244818Y32377932D01*
X-6305140Y32218875D01*
X-6305141Y32218869D01*
X-6320500Y32092375D01*
X-6320500Y30807626D01*
X-6305141Y30681132D01*
X-6305140Y30681126D01*
X-6244818Y30522069D01*
X-6182525Y30431823D01*
X-6148183Y30382071D01*
X-6110730Y30348891D01*
X-6020850Y30269264D01*
X-5870227Y30190211D01*
X-5870225Y30190210D01*
X-5705056Y30149500D01*
X-5534944Y30149500D01*
X-5369775Y30190210D01*
X-5219148Y30269266D01*
X-5129270Y30348892D01*
X-5066038Y30378613D01*
X-4996774Y30369430D01*
X-4943470Y30324258D01*
X-4923050Y30257438D01*
X-4923043Y30256169D01*
X-4921690Y28442819D01*
X-4941325Y28375764D01*
X-4994094Y28329970D01*
X-5063245Y28319975D01*
X-5126823Y28348952D01*
X-5127917Y28349911D01*
X-5219148Y28430734D01*
X-5219150Y28430736D01*
X-5369774Y28509790D01*
X-5534944Y28550500D01*
X-5705056Y28550500D01*
X-5870227Y28509790D01*
X-6020850Y28430737D01*
X-6136455Y28328319D01*
X-6145873Y28319975D01*
X-6148184Y28317928D01*
X-6244818Y28177932D01*
X-6305140Y28018875D01*
X-6305141Y28018869D01*
X-6320500Y27892375D01*
X-6320500Y27007626D01*
X-6305141Y26881132D01*
X-6305140Y26881126D01*
X-6244818Y26722069D01*
X-6198648Y26655182D01*
X-6148183Y26582071D01*
X-6042495Y26488440D01*
X-6020850Y26469264D01*
X-5870227Y26390211D01*
X-5870225Y26390210D01*
X-5705056Y26349500D01*
X-5534944Y26349500D01*
X-5369775Y26390210D01*
X-5269517Y26442830D01*
X-5219151Y26469264D01*
X-5219150Y26469266D01*
X-5219148Y26469266D01*
X-5091817Y26582071D01*
X-5078512Y26601347D01*
X-5024232Y26645336D01*
X-4954783Y26652996D01*
X-4892218Y26621894D01*
X-4864345Y26583873D01*
X-4832411Y26516275D01*
X-4799189Y26475444D01*
X-4740718Y26403579D01*
X-4624725Y26316103D01*
X-4624724Y26316103D01*
X-4624723Y26316102D01*
X-4491162Y26258926D01*
X-4347799Y26235375D01*
X-4347798Y26235376D01*
X-4347797Y26235375D01*
X-4328036Y26236937D01*
X-4202966Y26246817D01*
X-4065080Y26292588D01*
X-3942154Y26370027D01*
X-3841333Y26474633D01*
X-3841331Y26474636D01*
X-3840937Y26475157D01*
X-3840552Y26475444D01*
X-3836128Y26480033D01*
X-3835366Y26479298D01*
X-3784858Y26516833D01*
X-3741931Y26524500D01*
X3741931Y26524500D01*
X3808970Y26504815D01*
X3835908Y26479822D01*
X3836128Y26480033D01*
X3839902Y26476117D01*
X3840937Y26475157D01*
X3841330Y26474636D01*
X3942151Y26370030D01*
X3942152Y26370028D01*
X3942154Y26370027D01*
X4065080Y26292588D01*
X4202966Y26246817D01*
X4318153Y26237717D01*
X4347796Y26235375D01*
X4347796Y26235376D01*
X4347799Y26235375D01*
X4491162Y26258926D01*
X4624723Y26316102D01*
X4740719Y26403580D01*
X4832411Y26516275D01*
X4864344Y26583873D01*
X4910776Y26636079D01*
X4978064Y26654896D01*
X5044843Y26634347D01*
X5078511Y26601347D01*
X5091815Y26582073D01*
X5219150Y26469264D01*
X5369773Y26390211D01*
X5369775Y26390210D01*
X5534944Y26349500D01*
X5705056Y26349500D01*
X5870225Y26390210D01*
X5970483Y26442830D01*
X6020849Y26469264D01*
X6020850Y26469266D01*
X6020852Y26469266D01*
X6148183Y26582071D01*
X6244818Y26722070D01*
X6305140Y26881128D01*
X6318278Y26989328D01*
X6320500Y27007626D01*
X6320500Y27892375D01*
X6307130Y28002483D01*
X6305140Y28018872D01*
X6244818Y28177930D01*
X6148183Y28317929D01*
X6020852Y28430734D01*
X6020849Y28430737D01*
X5870226Y28509790D01*
X5705056Y28550500D01*
X5534944Y28550500D01*
X5369773Y28509790D01*
X5219150Y28430737D01*
X5157099Y28375764D01*
X5126725Y28348856D01*
X5063494Y28319135D01*
X4994230Y28328319D01*
X4940927Y28373491D01*
X4920507Y28440310D01*
X4920500Y28441672D01*
X4920500Y30258329D01*
X4940185Y30325368D01*
X4992989Y30371123D01*
X5062147Y30381067D01*
X5125703Y30352042D01*
X5126592Y30351263D01*
X5219148Y30269266D01*
X5369775Y30190210D01*
X5534944Y30149500D01*
X5705056Y30149500D01*
X5870225Y30190210D01*
X5949692Y30231919D01*
X6020849Y30269264D01*
X6020850Y30269266D01*
X6020852Y30269266D01*
X6148183Y30382071D01*
X6244818Y30522070D01*
X6305140Y30681128D01*
X6320500Y30807628D01*
X6320500Y32092372D01*
X6305140Y32218872D01*
X6244818Y32377930D01*
X6148183Y32517929D01*
X6020852Y32630734D01*
X6020849Y32630737D01*
X5870226Y32709790D01*
X5705056Y32750500D01*
X5534944Y32750500D01*
X5369773Y32709790D01*
X5219150Y32630737D01*
X5160236Y32578543D01*
X5126725Y32548856D01*
X5063494Y32519135D01*
X4994230Y32528319D01*
X4940927Y32573491D01*
X4920507Y32640310D01*
X4920500Y32641672D01*
X4920500Y32829682D01*
X4920500Y33057168D01*
X4940183Y33124203D01*
X4992987Y33169958D01*
X5062146Y33179902D01*
X5063063Y33179767D01*
G37*
%TD.AperFunction*%
%TD*%
M02*
