%TF.GenerationSoftware,KiCad,Pcbnew,7.0.5*%
%TF.CreationDate,2023-07-03T07:19:12-05:00*%
%TF.ProjectId,RP2040,52503230-3430-42e6-9b69-6361645f7063,REV1*%
%TF.SameCoordinates,Original*%
%TF.FileFunction,Legend,Bot*%
%TF.FilePolarity,Positive*%
%FSLAX46Y46*%
G04 Gerber Fmt 4.6, Leading zero omitted, Abs format (unit mm)*
G04 Created by KiCad (PCBNEW 7.0.5) date 2023-07-03 07:19:12*
%MOMM*%
%LPD*%
G01*
G04 APERTURE LIST*
G04 Aperture macros list*
%AMRoundRect*
0 Rectangle with rounded corners*
0 $1 Rounding radius*
0 $2 $3 $4 $5 $6 $7 $8 $9 X,Y pos of 4 corners*
0 Add a 4 corners polygon primitive as box body*
4,1,4,$2,$3,$4,$5,$6,$7,$8,$9,$2,$3,0*
0 Add four circle primitives for the rounded corners*
1,1,$1+$1,$2,$3*
1,1,$1+$1,$4,$5*
1,1,$1+$1,$6,$7*
1,1,$1+$1,$8,$9*
0 Add four rect primitives between the rounded corners*
20,1,$1+$1,$2,$3,$4,$5,0*
20,1,$1+$1,$4,$5,$6,$7,0*
20,1,$1+$1,$6,$7,$8,$9,0*
20,1,$1+$1,$8,$9,$2,$3,0*%
G04 Aperture macros list end*
%ADD10C,0.150000*%
%ADD11C,0.120000*%
%ADD12O,1.102000X2.302000*%
%ADD13O,1.102000X1.902000*%
%ADD14C,4.402000*%
%ADD15O,1.802000X1.802000*%
%ADD16RoundRect,0.051000X0.850000X-0.850000X0.850000X0.850000X-0.850000X0.850000X-0.850000X-0.850000X0*%
%ADD17RoundRect,0.191000X0.170000X-0.140000X0.170000X0.140000X-0.170000X0.140000X-0.170000X-0.140000X0*%
%ADD18RoundRect,0.351000X0.500000X0.300000X-0.500000X0.300000X-0.500000X-0.300000X0.500000X-0.300000X0*%
%ADD19RoundRect,0.051000X0.750000X0.450000X-0.750000X0.450000X-0.750000X-0.450000X0.750000X-0.450000X0*%
%ADD20RoundRect,0.051000X0.500000X0.375000X-0.500000X0.375000X-0.500000X-0.375000X0.500000X-0.375000X0*%
%ADD21RoundRect,0.191000X-0.170000X0.140000X-0.170000X-0.140000X0.170000X-0.140000X0.170000X0.140000X0*%
%ADD22RoundRect,0.186000X-0.185000X0.135000X-0.185000X-0.135000X0.185000X-0.135000X0.185000X0.135000X0*%
%ADD23RoundRect,0.191000X0.140000X0.170000X-0.140000X0.170000X-0.140000X-0.170000X0.140000X-0.170000X0*%
%ADD24C,1.802000*%
%ADD25RoundRect,0.051000X-0.500000X-0.375000X0.500000X-0.375000X0.500000X0.375000X-0.500000X0.375000X0*%
%ADD26RoundRect,0.186000X0.185000X-0.135000X0.185000X0.135000X-0.185000X0.135000X-0.185000X-0.135000X0*%
%ADD27RoundRect,0.201000X-0.587500X-0.150000X0.587500X-0.150000X0.587500X0.150000X-0.587500X0.150000X0*%
%ADD28RoundRect,0.191000X-0.140000X-0.170000X0.140000X-0.170000X0.140000X0.170000X-0.140000X0.170000X0*%
G04 APERTURE END LIST*
D10*
%TO.C,R7*%
X-13305181Y16246667D02*
X-13781372Y16580000D01*
X-13305181Y16818095D02*
X-14305181Y16818095D01*
X-14305181Y16818095D02*
X-14305181Y16437143D01*
X-14305181Y16437143D02*
X-14257562Y16341905D01*
X-14257562Y16341905D02*
X-14209943Y16294286D01*
X-14209943Y16294286D02*
X-14114705Y16246667D01*
X-14114705Y16246667D02*
X-13971848Y16246667D01*
X-13971848Y16246667D02*
X-13876610Y16294286D01*
X-13876610Y16294286D02*
X-13828991Y16341905D01*
X-13828991Y16341905D02*
X-13781372Y16437143D01*
X-13781372Y16437143D02*
X-13781372Y16818095D01*
X-14305181Y15913333D02*
X-14305181Y15246667D01*
X-14305181Y15246667D02*
X-13305181Y15675238D01*
%TO.C,SW4*%
X1358332Y-18687200D02*
X1215475Y-18734819D01*
X1215475Y-18734819D02*
X977380Y-18734819D01*
X977380Y-18734819D02*
X882142Y-18687200D01*
X882142Y-18687200D02*
X834523Y-18639580D01*
X834523Y-18639580D02*
X786904Y-18544342D01*
X786904Y-18544342D02*
X786904Y-18449104D01*
X786904Y-18449104D02*
X834523Y-18353866D01*
X834523Y-18353866D02*
X882142Y-18306247D01*
X882142Y-18306247D02*
X977380Y-18258628D01*
X977380Y-18258628D02*
X1167856Y-18211009D01*
X1167856Y-18211009D02*
X1263094Y-18163390D01*
X1263094Y-18163390D02*
X1310713Y-18115771D01*
X1310713Y-18115771D02*
X1358332Y-18020533D01*
X1358332Y-18020533D02*
X1358332Y-17925295D01*
X1358332Y-17925295D02*
X1310713Y-17830057D01*
X1310713Y-17830057D02*
X1263094Y-17782438D01*
X1263094Y-17782438D02*
X1167856Y-17734819D01*
X1167856Y-17734819D02*
X929761Y-17734819D01*
X929761Y-17734819D02*
X786904Y-17782438D01*
X453570Y-17734819D02*
X215475Y-18734819D01*
X215475Y-18734819D02*
X24999Y-18020533D01*
X24999Y-18020533D02*
X-165477Y-18734819D01*
X-165477Y-18734819D02*
X-403572Y-17734819D01*
X-1213096Y-18068152D02*
X-1213096Y-18734819D01*
X-975001Y-17687200D02*
X-736906Y-18401485D01*
X-736906Y-18401485D02*
X-1355953Y-18401485D01*
%TO.C,D10*%
X-16055715Y23715181D02*
X-16055715Y24715181D01*
X-16055715Y24715181D02*
X-16293810Y24715181D01*
X-16293810Y24715181D02*
X-16436667Y24667562D01*
X-16436667Y24667562D02*
X-16531905Y24572324D01*
X-16531905Y24572324D02*
X-16579524Y24477086D01*
X-16579524Y24477086D02*
X-16627143Y24286610D01*
X-16627143Y24286610D02*
X-16627143Y24143753D01*
X-16627143Y24143753D02*
X-16579524Y23953277D01*
X-16579524Y23953277D02*
X-16531905Y23858039D01*
X-16531905Y23858039D02*
X-16436667Y23762800D01*
X-16436667Y23762800D02*
X-16293810Y23715181D01*
X-16293810Y23715181D02*
X-16055715Y23715181D01*
X-17579524Y23715181D02*
X-17008096Y23715181D01*
X-17293810Y23715181D02*
X-17293810Y24715181D01*
X-17293810Y24715181D02*
X-17198572Y24572324D01*
X-17198572Y24572324D02*
X-17103334Y24477086D01*
X-17103334Y24477086D02*
X-17008096Y24429467D01*
X-18198572Y24715181D02*
X-18293810Y24715181D01*
X-18293810Y24715181D02*
X-18389048Y24667562D01*
X-18389048Y24667562D02*
X-18436667Y24619943D01*
X-18436667Y24619943D02*
X-18484286Y24524705D01*
X-18484286Y24524705D02*
X-18531905Y24334229D01*
X-18531905Y24334229D02*
X-18531905Y24096134D01*
X-18531905Y24096134D02*
X-18484286Y23905658D01*
X-18484286Y23905658D02*
X-18436667Y23810420D01*
X-18436667Y23810420D02*
X-18389048Y23762800D01*
X-18389048Y23762800D02*
X-18293810Y23715181D01*
X-18293810Y23715181D02*
X-18198572Y23715181D01*
X-18198572Y23715181D02*
X-18103334Y23762800D01*
X-18103334Y23762800D02*
X-18055715Y23810420D01*
X-18055715Y23810420D02*
X-18008096Y23905658D01*
X-18008096Y23905658D02*
X-17960477Y24096134D01*
X-17960477Y24096134D02*
X-17960477Y24334229D01*
X-17960477Y24334229D02*
X-18008096Y24524705D01*
X-18008096Y24524705D02*
X-18055715Y24619943D01*
X-18055715Y24619943D02*
X-18103334Y24667562D01*
X-18103334Y24667562D02*
X-18198572Y24715181D01*
X-13405715Y21815181D02*
X-12834287Y21815181D01*
X-13120001Y21815181D02*
X-13120001Y22815181D01*
X-13120001Y22815181D02*
X-13024763Y22672324D01*
X-13024763Y22672324D02*
X-12929525Y22577086D01*
X-12929525Y22577086D02*
X-12834287Y22529467D01*
%TO.C,SW1*%
X-9096668Y22992800D02*
X-9239525Y22945181D01*
X-9239525Y22945181D02*
X-9477620Y22945181D01*
X-9477620Y22945181D02*
X-9572858Y22992800D01*
X-9572858Y22992800D02*
X-9620477Y23040420D01*
X-9620477Y23040420D02*
X-9668096Y23135658D01*
X-9668096Y23135658D02*
X-9668096Y23230896D01*
X-9668096Y23230896D02*
X-9620477Y23326134D01*
X-9620477Y23326134D02*
X-9572858Y23373753D01*
X-9572858Y23373753D02*
X-9477620Y23421372D01*
X-9477620Y23421372D02*
X-9287144Y23468991D01*
X-9287144Y23468991D02*
X-9191906Y23516610D01*
X-9191906Y23516610D02*
X-9144287Y23564229D01*
X-9144287Y23564229D02*
X-9096668Y23659467D01*
X-9096668Y23659467D02*
X-9096668Y23754705D01*
X-9096668Y23754705D02*
X-9144287Y23849943D01*
X-9144287Y23849943D02*
X-9191906Y23897562D01*
X-9191906Y23897562D02*
X-9287144Y23945181D01*
X-9287144Y23945181D02*
X-9525239Y23945181D01*
X-9525239Y23945181D02*
X-9668096Y23897562D01*
X-10001430Y23945181D02*
X-10239525Y22945181D01*
X-10239525Y22945181D02*
X-10430001Y23659467D01*
X-10430001Y23659467D02*
X-10620477Y22945181D01*
X-10620477Y22945181D02*
X-10858572Y23945181D01*
X-11763334Y22945181D02*
X-11191906Y22945181D01*
X-11477620Y22945181D02*
X-11477620Y23945181D01*
X-11477620Y23945181D02*
X-11382382Y23802324D01*
X-11382382Y23802324D02*
X-11287144Y23707086D01*
X-11287144Y23707086D02*
X-11191906Y23659467D01*
X-7869524Y20123991D02*
X-8012381Y20076372D01*
X-8012381Y20076372D02*
X-8060000Y20028753D01*
X-8060000Y20028753D02*
X-8107619Y19933515D01*
X-8107619Y19933515D02*
X-8107619Y19790658D01*
X-8107619Y19790658D02*
X-8060000Y19695420D01*
X-8060000Y19695420D02*
X-8012381Y19647800D01*
X-8012381Y19647800D02*
X-7917143Y19600181D01*
X-7917143Y19600181D02*
X-7536191Y19600181D01*
X-7536191Y19600181D02*
X-7536191Y20600181D01*
X-7536191Y20600181D02*
X-7869524Y20600181D01*
X-7869524Y20600181D02*
X-7964762Y20552562D01*
X-7964762Y20552562D02*
X-8012381Y20504943D01*
X-8012381Y20504943D02*
X-8060000Y20409705D01*
X-8060000Y20409705D02*
X-8060000Y20314467D01*
X-8060000Y20314467D02*
X-8012381Y20219229D01*
X-8012381Y20219229D02*
X-7964762Y20171610D01*
X-7964762Y20171610D02*
X-7869524Y20123991D01*
X-7869524Y20123991D02*
X-7536191Y20123991D01*
X-8726667Y20600181D02*
X-8917143Y20600181D01*
X-8917143Y20600181D02*
X-9012381Y20552562D01*
X-9012381Y20552562D02*
X-9107619Y20457324D01*
X-9107619Y20457324D02*
X-9155238Y20266848D01*
X-9155238Y20266848D02*
X-9155238Y19933515D01*
X-9155238Y19933515D02*
X-9107619Y19743039D01*
X-9107619Y19743039D02*
X-9012381Y19647800D01*
X-9012381Y19647800D02*
X-8917143Y19600181D01*
X-8917143Y19600181D02*
X-8726667Y19600181D01*
X-8726667Y19600181D02*
X-8631429Y19647800D01*
X-8631429Y19647800D02*
X-8536191Y19743039D01*
X-8536191Y19743039D02*
X-8488572Y19933515D01*
X-8488572Y19933515D02*
X-8488572Y20266848D01*
X-8488572Y20266848D02*
X-8536191Y20457324D01*
X-8536191Y20457324D02*
X-8631429Y20552562D01*
X-8631429Y20552562D02*
X-8726667Y20600181D01*
X-9774286Y20600181D02*
X-9964762Y20600181D01*
X-9964762Y20600181D02*
X-10060000Y20552562D01*
X-10060000Y20552562D02*
X-10155238Y20457324D01*
X-10155238Y20457324D02*
X-10202857Y20266848D01*
X-10202857Y20266848D02*
X-10202857Y19933515D01*
X-10202857Y19933515D02*
X-10155238Y19743039D01*
X-10155238Y19743039D02*
X-10060000Y19647800D01*
X-10060000Y19647800D02*
X-9964762Y19600181D01*
X-9964762Y19600181D02*
X-9774286Y19600181D01*
X-9774286Y19600181D02*
X-9679048Y19647800D01*
X-9679048Y19647800D02*
X-9583810Y19743039D01*
X-9583810Y19743039D02*
X-9536191Y19933515D01*
X-9536191Y19933515D02*
X-9536191Y20266848D01*
X-9536191Y20266848D02*
X-9583810Y20457324D01*
X-9583810Y20457324D02*
X-9679048Y20552562D01*
X-9679048Y20552562D02*
X-9774286Y20600181D01*
X-10488572Y20600181D02*
X-11060000Y20600181D01*
X-10774286Y19600181D02*
X-10774286Y20600181D01*
X-11345715Y19647800D02*
X-11488572Y19600181D01*
X-11488572Y19600181D02*
X-11726667Y19600181D01*
X-11726667Y19600181D02*
X-11821905Y19647800D01*
X-11821905Y19647800D02*
X-11869524Y19695420D01*
X-11869524Y19695420D02*
X-11917143Y19790658D01*
X-11917143Y19790658D02*
X-11917143Y19885896D01*
X-11917143Y19885896D02*
X-11869524Y19981134D01*
X-11869524Y19981134D02*
X-11821905Y20028753D01*
X-11821905Y20028753D02*
X-11726667Y20076372D01*
X-11726667Y20076372D02*
X-11536191Y20123991D01*
X-11536191Y20123991D02*
X-11440953Y20171610D01*
X-11440953Y20171610D02*
X-11393334Y20219229D01*
X-11393334Y20219229D02*
X-11345715Y20314467D01*
X-11345715Y20314467D02*
X-11345715Y20409705D01*
X-11345715Y20409705D02*
X-11393334Y20504943D01*
X-11393334Y20504943D02*
X-11440953Y20552562D01*
X-11440953Y20552562D02*
X-11536191Y20600181D01*
X-11536191Y20600181D02*
X-11774286Y20600181D01*
X-11774286Y20600181D02*
X-11917143Y20552562D01*
X-12345715Y20123991D02*
X-12679048Y20123991D01*
X-12821905Y19600181D02*
X-12345715Y19600181D01*
X-12345715Y19600181D02*
X-12345715Y20600181D01*
X-12345715Y20600181D02*
X-12821905Y20600181D01*
X-13726667Y19600181D02*
X-13250477Y19600181D01*
X-13250477Y19600181D02*
X-13250477Y20600181D01*
%TO.C,C33*%
X-18800420Y-14307142D02*
X-18752800Y-14259523D01*
X-18752800Y-14259523D02*
X-18705181Y-14116666D01*
X-18705181Y-14116666D02*
X-18705181Y-14021428D01*
X-18705181Y-14021428D02*
X-18752800Y-13878571D01*
X-18752800Y-13878571D02*
X-18848039Y-13783333D01*
X-18848039Y-13783333D02*
X-18943277Y-13735714D01*
X-18943277Y-13735714D02*
X-19133753Y-13688095D01*
X-19133753Y-13688095D02*
X-19276610Y-13688095D01*
X-19276610Y-13688095D02*
X-19467086Y-13735714D01*
X-19467086Y-13735714D02*
X-19562324Y-13783333D01*
X-19562324Y-13783333D02*
X-19657562Y-13878571D01*
X-19657562Y-13878571D02*
X-19705181Y-14021428D01*
X-19705181Y-14021428D02*
X-19705181Y-14116666D01*
X-19705181Y-14116666D02*
X-19657562Y-14259523D01*
X-19657562Y-14259523D02*
X-19609943Y-14307142D01*
X-19705181Y-14640476D02*
X-19705181Y-15259523D01*
X-19705181Y-15259523D02*
X-19324229Y-14926190D01*
X-19324229Y-14926190D02*
X-19324229Y-15069047D01*
X-19324229Y-15069047D02*
X-19276610Y-15164285D01*
X-19276610Y-15164285D02*
X-19228991Y-15211904D01*
X-19228991Y-15211904D02*
X-19133753Y-15259523D01*
X-19133753Y-15259523D02*
X-18895658Y-15259523D01*
X-18895658Y-15259523D02*
X-18800420Y-15211904D01*
X-18800420Y-15211904D02*
X-18752800Y-15164285D01*
X-18752800Y-15164285D02*
X-18705181Y-15069047D01*
X-18705181Y-15069047D02*
X-18705181Y-14783333D01*
X-18705181Y-14783333D02*
X-18752800Y-14688095D01*
X-18752800Y-14688095D02*
X-18800420Y-14640476D01*
X-19705181Y-15592857D02*
X-19705181Y-16211904D01*
X-19705181Y-16211904D02*
X-19324229Y-15878571D01*
X-19324229Y-15878571D02*
X-19324229Y-16021428D01*
X-19324229Y-16021428D02*
X-19276610Y-16116666D01*
X-19276610Y-16116666D02*
X-19228991Y-16164285D01*
X-19228991Y-16164285D02*
X-19133753Y-16211904D01*
X-19133753Y-16211904D02*
X-18895658Y-16211904D01*
X-18895658Y-16211904D02*
X-18800420Y-16164285D01*
X-18800420Y-16164285D02*
X-18752800Y-16116666D01*
X-18752800Y-16116666D02*
X-18705181Y-16021428D01*
X-18705181Y-16021428D02*
X-18705181Y-15735714D01*
X-18705181Y-15735714D02*
X-18752800Y-15640476D01*
X-18752800Y-15640476D02*
X-18800420Y-15592857D01*
%TO.C,R9*%
X-7647681Y18756667D02*
X-8123872Y19090000D01*
X-7647681Y19328095D02*
X-8647681Y19328095D01*
X-8647681Y19328095D02*
X-8647681Y18947143D01*
X-8647681Y18947143D02*
X-8600062Y18851905D01*
X-8600062Y18851905D02*
X-8552443Y18804286D01*
X-8552443Y18804286D02*
X-8457205Y18756667D01*
X-8457205Y18756667D02*
X-8314348Y18756667D01*
X-8314348Y18756667D02*
X-8219110Y18804286D01*
X-8219110Y18804286D02*
X-8171491Y18851905D01*
X-8171491Y18851905D02*
X-8123872Y18947143D01*
X-8123872Y18947143D02*
X-8123872Y19328095D01*
X-7647681Y18280476D02*
X-7647681Y18090000D01*
X-7647681Y18090000D02*
X-7695300Y17994762D01*
X-7695300Y17994762D02*
X-7742920Y17947143D01*
X-7742920Y17947143D02*
X-7885777Y17851905D01*
X-7885777Y17851905D02*
X-8076253Y17804286D01*
X-8076253Y17804286D02*
X-8457205Y17804286D01*
X-8457205Y17804286D02*
X-8552443Y17851905D01*
X-8552443Y17851905D02*
X-8600062Y17899524D01*
X-8600062Y17899524D02*
X-8647681Y17994762D01*
X-8647681Y17994762D02*
X-8647681Y18185238D01*
X-8647681Y18185238D02*
X-8600062Y18280476D01*
X-8600062Y18280476D02*
X-8552443Y18328095D01*
X-8552443Y18328095D02*
X-8457205Y18375714D01*
X-8457205Y18375714D02*
X-8219110Y18375714D01*
X-8219110Y18375714D02*
X-8123872Y18328095D01*
X-8123872Y18328095D02*
X-8076253Y18280476D01*
X-8076253Y18280476D02*
X-8028634Y18185238D01*
X-8028634Y18185238D02*
X-8028634Y17994762D01*
X-8028634Y17994762D02*
X-8076253Y17899524D01*
X-8076253Y17899524D02*
X-8123872Y17851905D01*
X-8123872Y17851905D02*
X-8219110Y17804286D01*
%TO.C,C34*%
X-15007143Y24710420D02*
X-14959524Y24662800D01*
X-14959524Y24662800D02*
X-14816667Y24615181D01*
X-14816667Y24615181D02*
X-14721429Y24615181D01*
X-14721429Y24615181D02*
X-14578572Y24662800D01*
X-14578572Y24662800D02*
X-14483334Y24758039D01*
X-14483334Y24758039D02*
X-14435715Y24853277D01*
X-14435715Y24853277D02*
X-14388096Y25043753D01*
X-14388096Y25043753D02*
X-14388096Y25186610D01*
X-14388096Y25186610D02*
X-14435715Y25377086D01*
X-14435715Y25377086D02*
X-14483334Y25472324D01*
X-14483334Y25472324D02*
X-14578572Y25567562D01*
X-14578572Y25567562D02*
X-14721429Y25615181D01*
X-14721429Y25615181D02*
X-14816667Y25615181D01*
X-14816667Y25615181D02*
X-14959524Y25567562D01*
X-14959524Y25567562D02*
X-15007143Y25519943D01*
X-15340477Y25615181D02*
X-15959524Y25615181D01*
X-15959524Y25615181D02*
X-15626191Y25234229D01*
X-15626191Y25234229D02*
X-15769048Y25234229D01*
X-15769048Y25234229D02*
X-15864286Y25186610D01*
X-15864286Y25186610D02*
X-15911905Y25138991D01*
X-15911905Y25138991D02*
X-15959524Y25043753D01*
X-15959524Y25043753D02*
X-15959524Y24805658D01*
X-15959524Y24805658D02*
X-15911905Y24710420D01*
X-15911905Y24710420D02*
X-15864286Y24662800D01*
X-15864286Y24662800D02*
X-15769048Y24615181D01*
X-15769048Y24615181D02*
X-15483334Y24615181D01*
X-15483334Y24615181D02*
X-15388096Y24662800D01*
X-15388096Y24662800D02*
X-15340477Y24710420D01*
X-16816667Y25281848D02*
X-16816667Y24615181D01*
X-16578572Y25662800D02*
X-16340477Y24948515D01*
X-16340477Y24948515D02*
X-16959524Y24948515D01*
%TO.C,SW3*%
X-10641668Y-18687200D02*
X-10784525Y-18734819D01*
X-10784525Y-18734819D02*
X-11022620Y-18734819D01*
X-11022620Y-18734819D02*
X-11117858Y-18687200D01*
X-11117858Y-18687200D02*
X-11165477Y-18639580D01*
X-11165477Y-18639580D02*
X-11213096Y-18544342D01*
X-11213096Y-18544342D02*
X-11213096Y-18449104D01*
X-11213096Y-18449104D02*
X-11165477Y-18353866D01*
X-11165477Y-18353866D02*
X-11117858Y-18306247D01*
X-11117858Y-18306247D02*
X-11022620Y-18258628D01*
X-11022620Y-18258628D02*
X-10832144Y-18211009D01*
X-10832144Y-18211009D02*
X-10736906Y-18163390D01*
X-10736906Y-18163390D02*
X-10689287Y-18115771D01*
X-10689287Y-18115771D02*
X-10641668Y-18020533D01*
X-10641668Y-18020533D02*
X-10641668Y-17925295D01*
X-10641668Y-17925295D02*
X-10689287Y-17830057D01*
X-10689287Y-17830057D02*
X-10736906Y-17782438D01*
X-10736906Y-17782438D02*
X-10832144Y-17734819D01*
X-10832144Y-17734819D02*
X-11070239Y-17734819D01*
X-11070239Y-17734819D02*
X-11213096Y-17782438D01*
X-11546430Y-17734819D02*
X-11784525Y-18734819D01*
X-11784525Y-18734819D02*
X-11975001Y-18020533D01*
X-11975001Y-18020533D02*
X-12165477Y-18734819D01*
X-12165477Y-18734819D02*
X-12403572Y-17734819D01*
X-12689287Y-17734819D02*
X-13308334Y-17734819D01*
X-13308334Y-17734819D02*
X-12975001Y-18115771D01*
X-12975001Y-18115771D02*
X-13117858Y-18115771D01*
X-13117858Y-18115771D02*
X-13213096Y-18163390D01*
X-13213096Y-18163390D02*
X-13260715Y-18211009D01*
X-13260715Y-18211009D02*
X-13308334Y-18306247D01*
X-13308334Y-18306247D02*
X-13308334Y-18544342D01*
X-13308334Y-18544342D02*
X-13260715Y-18639580D01*
X-13260715Y-18639580D02*
X-13213096Y-18687200D01*
X-13213096Y-18687200D02*
X-13117858Y-18734819D01*
X-13117858Y-18734819D02*
X-12832144Y-18734819D01*
X-12832144Y-18734819D02*
X-12736906Y-18687200D01*
X-12736906Y-18687200D02*
X-12689287Y-18639580D01*
%TO.C,C27*%
X22219580Y-5187142D02*
X22267200Y-5139523D01*
X22267200Y-5139523D02*
X22314819Y-4996666D01*
X22314819Y-4996666D02*
X22314819Y-4901428D01*
X22314819Y-4901428D02*
X22267200Y-4758571D01*
X22267200Y-4758571D02*
X22171961Y-4663333D01*
X22171961Y-4663333D02*
X22076723Y-4615714D01*
X22076723Y-4615714D02*
X21886247Y-4568095D01*
X21886247Y-4568095D02*
X21743390Y-4568095D01*
X21743390Y-4568095D02*
X21552914Y-4615714D01*
X21552914Y-4615714D02*
X21457676Y-4663333D01*
X21457676Y-4663333D02*
X21362438Y-4758571D01*
X21362438Y-4758571D02*
X21314819Y-4901428D01*
X21314819Y-4901428D02*
X21314819Y-4996666D01*
X21314819Y-4996666D02*
X21362438Y-5139523D01*
X21362438Y-5139523D02*
X21410057Y-5187142D01*
X21410057Y-5568095D02*
X21362438Y-5615714D01*
X21362438Y-5615714D02*
X21314819Y-5710952D01*
X21314819Y-5710952D02*
X21314819Y-5949047D01*
X21314819Y-5949047D02*
X21362438Y-6044285D01*
X21362438Y-6044285D02*
X21410057Y-6091904D01*
X21410057Y-6091904D02*
X21505295Y-6139523D01*
X21505295Y-6139523D02*
X21600533Y-6139523D01*
X21600533Y-6139523D02*
X21743390Y-6091904D01*
X21743390Y-6091904D02*
X22314819Y-5520476D01*
X22314819Y-5520476D02*
X22314819Y-6139523D01*
X21314819Y-6472857D02*
X21314819Y-7139523D01*
X21314819Y-7139523D02*
X22314819Y-6710952D01*
%TO.C,D1*%
X-18311906Y-3954819D02*
X-18311906Y-2954819D01*
X-18311906Y-2954819D02*
X-18550001Y-2954819D01*
X-18550001Y-2954819D02*
X-18692858Y-3002438D01*
X-18692858Y-3002438D02*
X-18788096Y-3097676D01*
X-18788096Y-3097676D02*
X-18835715Y-3192914D01*
X-18835715Y-3192914D02*
X-18883334Y-3383390D01*
X-18883334Y-3383390D02*
X-18883334Y-3526247D01*
X-18883334Y-3526247D02*
X-18835715Y-3716723D01*
X-18835715Y-3716723D02*
X-18788096Y-3811961D01*
X-18788096Y-3811961D02*
X-18692858Y-3907200D01*
X-18692858Y-3907200D02*
X-18550001Y-3954819D01*
X-18550001Y-3954819D02*
X-18311906Y-3954819D01*
X-19835715Y-3954819D02*
X-19264287Y-3954819D01*
X-19550001Y-3954819D02*
X-19550001Y-2954819D01*
X-19550001Y-2954819D02*
X-19454763Y-3097676D01*
X-19454763Y-3097676D02*
X-19359525Y-3192914D01*
X-19359525Y-3192914D02*
X-19264287Y-3240533D01*
X-15185715Y-5854819D02*
X-14614287Y-5854819D01*
X-14900001Y-5854819D02*
X-14900001Y-4854819D01*
X-14900001Y-4854819D02*
X-14804763Y-4997676D01*
X-14804763Y-4997676D02*
X-14709525Y-5092914D01*
X-14709525Y-5092914D02*
X-14614287Y-5140533D01*
%TO.C,C25*%
X-15850420Y-5157142D02*
X-15802800Y-5109523D01*
X-15802800Y-5109523D02*
X-15755181Y-4966666D01*
X-15755181Y-4966666D02*
X-15755181Y-4871428D01*
X-15755181Y-4871428D02*
X-15802800Y-4728571D01*
X-15802800Y-4728571D02*
X-15898039Y-4633333D01*
X-15898039Y-4633333D02*
X-15993277Y-4585714D01*
X-15993277Y-4585714D02*
X-16183753Y-4538095D01*
X-16183753Y-4538095D02*
X-16326610Y-4538095D01*
X-16326610Y-4538095D02*
X-16517086Y-4585714D01*
X-16517086Y-4585714D02*
X-16612324Y-4633333D01*
X-16612324Y-4633333D02*
X-16707562Y-4728571D01*
X-16707562Y-4728571D02*
X-16755181Y-4871428D01*
X-16755181Y-4871428D02*
X-16755181Y-4966666D01*
X-16755181Y-4966666D02*
X-16707562Y-5109523D01*
X-16707562Y-5109523D02*
X-16659943Y-5157142D01*
X-16659943Y-5538095D02*
X-16707562Y-5585714D01*
X-16707562Y-5585714D02*
X-16755181Y-5680952D01*
X-16755181Y-5680952D02*
X-16755181Y-5919047D01*
X-16755181Y-5919047D02*
X-16707562Y-6014285D01*
X-16707562Y-6014285D02*
X-16659943Y-6061904D01*
X-16659943Y-6061904D02*
X-16564705Y-6109523D01*
X-16564705Y-6109523D02*
X-16469467Y-6109523D01*
X-16469467Y-6109523D02*
X-16326610Y-6061904D01*
X-16326610Y-6061904D02*
X-15755181Y-5490476D01*
X-15755181Y-5490476D02*
X-15755181Y-6109523D01*
X-16755181Y-7014285D02*
X-16755181Y-6538095D01*
X-16755181Y-6538095D02*
X-16278991Y-6490476D01*
X-16278991Y-6490476D02*
X-16326610Y-6538095D01*
X-16326610Y-6538095D02*
X-16374229Y-6633333D01*
X-16374229Y-6633333D02*
X-16374229Y-6871428D01*
X-16374229Y-6871428D02*
X-16326610Y-6966666D01*
X-16326610Y-6966666D02*
X-16278991Y-7014285D01*
X-16278991Y-7014285D02*
X-16183753Y-7061904D01*
X-16183753Y-7061904D02*
X-15945658Y-7061904D01*
X-15945658Y-7061904D02*
X-15850420Y-7014285D01*
X-15850420Y-7014285D02*
X-15802800Y-6966666D01*
X-15802800Y-6966666D02*
X-15755181Y-6871428D01*
X-15755181Y-6871428D02*
X-15755181Y-6633333D01*
X-15755181Y-6633333D02*
X-15802800Y-6538095D01*
X-15802800Y-6538095D02*
X-15850420Y-6490476D01*
%TO.C,C29*%
X17744580Y22927858D02*
X17792200Y22975477D01*
X17792200Y22975477D02*
X17839819Y23118334D01*
X17839819Y23118334D02*
X17839819Y23213572D01*
X17839819Y23213572D02*
X17792200Y23356429D01*
X17792200Y23356429D02*
X17696961Y23451667D01*
X17696961Y23451667D02*
X17601723Y23499286D01*
X17601723Y23499286D02*
X17411247Y23546905D01*
X17411247Y23546905D02*
X17268390Y23546905D01*
X17268390Y23546905D02*
X17077914Y23499286D01*
X17077914Y23499286D02*
X16982676Y23451667D01*
X16982676Y23451667D02*
X16887438Y23356429D01*
X16887438Y23356429D02*
X16839819Y23213572D01*
X16839819Y23213572D02*
X16839819Y23118334D01*
X16839819Y23118334D02*
X16887438Y22975477D01*
X16887438Y22975477D02*
X16935057Y22927858D01*
X16935057Y22546905D02*
X16887438Y22499286D01*
X16887438Y22499286D02*
X16839819Y22404048D01*
X16839819Y22404048D02*
X16839819Y22165953D01*
X16839819Y22165953D02*
X16887438Y22070715D01*
X16887438Y22070715D02*
X16935057Y22023096D01*
X16935057Y22023096D02*
X17030295Y21975477D01*
X17030295Y21975477D02*
X17125533Y21975477D01*
X17125533Y21975477D02*
X17268390Y22023096D01*
X17268390Y22023096D02*
X17839819Y22594524D01*
X17839819Y22594524D02*
X17839819Y21975477D01*
X17839819Y21499286D02*
X17839819Y21308810D01*
X17839819Y21308810D02*
X17792200Y21213572D01*
X17792200Y21213572D02*
X17744580Y21165953D01*
X17744580Y21165953D02*
X17601723Y21070715D01*
X17601723Y21070715D02*
X17411247Y21023096D01*
X17411247Y21023096D02*
X17030295Y21023096D01*
X17030295Y21023096D02*
X16935057Y21070715D01*
X16935057Y21070715D02*
X16887438Y21118334D01*
X16887438Y21118334D02*
X16839819Y21213572D01*
X16839819Y21213572D02*
X16839819Y21404048D01*
X16839819Y21404048D02*
X16887438Y21499286D01*
X16887438Y21499286D02*
X16935057Y21546905D01*
X16935057Y21546905D02*
X17030295Y21594524D01*
X17030295Y21594524D02*
X17268390Y21594524D01*
X17268390Y21594524D02*
X17363628Y21546905D01*
X17363628Y21546905D02*
X17411247Y21499286D01*
X17411247Y21499286D02*
X17458866Y21404048D01*
X17458866Y21404048D02*
X17458866Y21213572D01*
X17458866Y21213572D02*
X17411247Y21118334D01*
X17411247Y21118334D02*
X17363628Y21070715D01*
X17363628Y21070715D02*
X17268390Y21023096D01*
%TO.C,C26*%
X3159580Y-5147142D02*
X3207200Y-5099523D01*
X3207200Y-5099523D02*
X3254819Y-4956666D01*
X3254819Y-4956666D02*
X3254819Y-4861428D01*
X3254819Y-4861428D02*
X3207200Y-4718571D01*
X3207200Y-4718571D02*
X3111961Y-4623333D01*
X3111961Y-4623333D02*
X3016723Y-4575714D01*
X3016723Y-4575714D02*
X2826247Y-4528095D01*
X2826247Y-4528095D02*
X2683390Y-4528095D01*
X2683390Y-4528095D02*
X2492914Y-4575714D01*
X2492914Y-4575714D02*
X2397676Y-4623333D01*
X2397676Y-4623333D02*
X2302438Y-4718571D01*
X2302438Y-4718571D02*
X2254819Y-4861428D01*
X2254819Y-4861428D02*
X2254819Y-4956666D01*
X2254819Y-4956666D02*
X2302438Y-5099523D01*
X2302438Y-5099523D02*
X2350057Y-5147142D01*
X2350057Y-5528095D02*
X2302438Y-5575714D01*
X2302438Y-5575714D02*
X2254819Y-5670952D01*
X2254819Y-5670952D02*
X2254819Y-5909047D01*
X2254819Y-5909047D02*
X2302438Y-6004285D01*
X2302438Y-6004285D02*
X2350057Y-6051904D01*
X2350057Y-6051904D02*
X2445295Y-6099523D01*
X2445295Y-6099523D02*
X2540533Y-6099523D01*
X2540533Y-6099523D02*
X2683390Y-6051904D01*
X2683390Y-6051904D02*
X3254819Y-5480476D01*
X3254819Y-5480476D02*
X3254819Y-6099523D01*
X2254819Y-6956666D02*
X2254819Y-6766190D01*
X2254819Y-6766190D02*
X2302438Y-6670952D01*
X2302438Y-6670952D02*
X2350057Y-6623333D01*
X2350057Y-6623333D02*
X2492914Y-6528095D01*
X2492914Y-6528095D02*
X2683390Y-6480476D01*
X2683390Y-6480476D02*
X3064342Y-6480476D01*
X3064342Y-6480476D02*
X3159580Y-6528095D01*
X3159580Y-6528095D02*
X3207200Y-6575714D01*
X3207200Y-6575714D02*
X3254819Y-6670952D01*
X3254819Y-6670952D02*
X3254819Y-6861428D01*
X3254819Y-6861428D02*
X3207200Y-6956666D01*
X3207200Y-6956666D02*
X3159580Y-7004285D01*
X3159580Y-7004285D02*
X3064342Y-7051904D01*
X3064342Y-7051904D02*
X2826247Y-7051904D01*
X2826247Y-7051904D02*
X2731009Y-7004285D01*
X2731009Y-7004285D02*
X2683390Y-6956666D01*
X2683390Y-6956666D02*
X2635771Y-6861428D01*
X2635771Y-6861428D02*
X2635771Y-6670952D01*
X2635771Y-6670952D02*
X2683390Y-6575714D01*
X2683390Y-6575714D02*
X2731009Y-6528095D01*
X2731009Y-6528095D02*
X2826247Y-6480476D01*
%TO.C,C32*%
X-4847143Y-22369580D02*
X-4799524Y-22417200D01*
X-4799524Y-22417200D02*
X-4656667Y-22464819D01*
X-4656667Y-22464819D02*
X-4561429Y-22464819D01*
X-4561429Y-22464819D02*
X-4418572Y-22417200D01*
X-4418572Y-22417200D02*
X-4323334Y-22321961D01*
X-4323334Y-22321961D02*
X-4275715Y-22226723D01*
X-4275715Y-22226723D02*
X-4228096Y-22036247D01*
X-4228096Y-22036247D02*
X-4228096Y-21893390D01*
X-4228096Y-21893390D02*
X-4275715Y-21702914D01*
X-4275715Y-21702914D02*
X-4323334Y-21607676D01*
X-4323334Y-21607676D02*
X-4418572Y-21512438D01*
X-4418572Y-21512438D02*
X-4561429Y-21464819D01*
X-4561429Y-21464819D02*
X-4656667Y-21464819D01*
X-4656667Y-21464819D02*
X-4799524Y-21512438D01*
X-4799524Y-21512438D02*
X-4847143Y-21560057D01*
X-5180477Y-21464819D02*
X-5799524Y-21464819D01*
X-5799524Y-21464819D02*
X-5466191Y-21845771D01*
X-5466191Y-21845771D02*
X-5609048Y-21845771D01*
X-5609048Y-21845771D02*
X-5704286Y-21893390D01*
X-5704286Y-21893390D02*
X-5751905Y-21941009D01*
X-5751905Y-21941009D02*
X-5799524Y-22036247D01*
X-5799524Y-22036247D02*
X-5799524Y-22274342D01*
X-5799524Y-22274342D02*
X-5751905Y-22369580D01*
X-5751905Y-22369580D02*
X-5704286Y-22417200D01*
X-5704286Y-22417200D02*
X-5609048Y-22464819D01*
X-5609048Y-22464819D02*
X-5323334Y-22464819D01*
X-5323334Y-22464819D02*
X-5228096Y-22417200D01*
X-5228096Y-22417200D02*
X-5180477Y-22369580D01*
X-6180477Y-21560057D02*
X-6228096Y-21512438D01*
X-6228096Y-21512438D02*
X-6323334Y-21464819D01*
X-6323334Y-21464819D02*
X-6561429Y-21464819D01*
X-6561429Y-21464819D02*
X-6656667Y-21512438D01*
X-6656667Y-21512438D02*
X-6704286Y-21560057D01*
X-6704286Y-21560057D02*
X-6751905Y-21655295D01*
X-6751905Y-21655295D02*
X-6751905Y-21750533D01*
X-6751905Y-21750533D02*
X-6704286Y-21893390D01*
X-6704286Y-21893390D02*
X-6132858Y-22464819D01*
X-6132858Y-22464819D02*
X-6751905Y-22464819D01*
%TO.C,D3*%
X19788094Y-3954819D02*
X19788094Y-2954819D01*
X19788094Y-2954819D02*
X19549999Y-2954819D01*
X19549999Y-2954819D02*
X19407142Y-3002438D01*
X19407142Y-3002438D02*
X19311904Y-3097676D01*
X19311904Y-3097676D02*
X19264285Y-3192914D01*
X19264285Y-3192914D02*
X19216666Y-3383390D01*
X19216666Y-3383390D02*
X19216666Y-3526247D01*
X19216666Y-3526247D02*
X19264285Y-3716723D01*
X19264285Y-3716723D02*
X19311904Y-3811961D01*
X19311904Y-3811961D02*
X19407142Y-3907200D01*
X19407142Y-3907200D02*
X19549999Y-3954819D01*
X19549999Y-3954819D02*
X19788094Y-3954819D01*
X18883332Y-2954819D02*
X18264285Y-2954819D01*
X18264285Y-2954819D02*
X18597618Y-3335771D01*
X18597618Y-3335771D02*
X18454761Y-3335771D01*
X18454761Y-3335771D02*
X18359523Y-3383390D01*
X18359523Y-3383390D02*
X18311904Y-3431009D01*
X18311904Y-3431009D02*
X18264285Y-3526247D01*
X18264285Y-3526247D02*
X18264285Y-3764342D01*
X18264285Y-3764342D02*
X18311904Y-3859580D01*
X18311904Y-3859580D02*
X18359523Y-3907200D01*
X18359523Y-3907200D02*
X18454761Y-3954819D01*
X18454761Y-3954819D02*
X18740475Y-3954819D01*
X18740475Y-3954819D02*
X18835713Y-3907200D01*
X18835713Y-3907200D02*
X18883332Y-3859580D01*
X22914285Y-5854819D02*
X23485713Y-5854819D01*
X23199999Y-5854819D02*
X23199999Y-4854819D01*
X23199999Y-4854819D02*
X23295237Y-4997676D01*
X23295237Y-4997676D02*
X23390475Y-5092914D01*
X23390475Y-5092914D02*
X23485713Y-5140533D01*
%TO.C,SW2*%
X-17113333Y11992200D02*
X-16970476Y12039820D01*
X-16970476Y12039820D02*
X-16732381Y12039820D01*
X-16732381Y12039820D02*
X-16637143Y11992200D01*
X-16637143Y11992200D02*
X-16589524Y11944581D01*
X-16589524Y11944581D02*
X-16541905Y11849343D01*
X-16541905Y11849343D02*
X-16541905Y11754105D01*
X-16541905Y11754105D02*
X-16589524Y11658867D01*
X-16589524Y11658867D02*
X-16637143Y11611248D01*
X-16637143Y11611248D02*
X-16732381Y11563629D01*
X-16732381Y11563629D02*
X-16922857Y11516010D01*
X-16922857Y11516010D02*
X-17018095Y11468391D01*
X-17018095Y11468391D02*
X-17065714Y11420772D01*
X-17065714Y11420772D02*
X-17113333Y11325534D01*
X-17113333Y11325534D02*
X-17113333Y11230296D01*
X-17113333Y11230296D02*
X-17065714Y11135058D01*
X-17065714Y11135058D02*
X-17018095Y11087439D01*
X-17018095Y11087439D02*
X-16922857Y11039820D01*
X-16922857Y11039820D02*
X-16684762Y11039820D01*
X-16684762Y11039820D02*
X-16541905Y11087439D01*
X-16208571Y11039820D02*
X-15970476Y12039820D01*
X-15970476Y12039820D02*
X-15780000Y11325534D01*
X-15780000Y11325534D02*
X-15589524Y12039820D01*
X-15589524Y12039820D02*
X-15351428Y11039820D01*
X-15018095Y11135058D02*
X-14970476Y11087439D01*
X-14970476Y11087439D02*
X-14875238Y11039820D01*
X-14875238Y11039820D02*
X-14637143Y11039820D01*
X-14637143Y11039820D02*
X-14541905Y11087439D01*
X-14541905Y11087439D02*
X-14494286Y11135058D01*
X-14494286Y11135058D02*
X-14446667Y11230296D01*
X-14446667Y11230296D02*
X-14446667Y11325534D01*
X-14446667Y11325534D02*
X-14494286Y11468391D01*
X-14494286Y11468391D02*
X-15065714Y12039820D01*
X-15065714Y12039820D02*
X-14446667Y12039820D01*
X-16688096Y15514820D02*
X-17021429Y15038629D01*
X-17259524Y15514820D02*
X-17259524Y14514820D01*
X-17259524Y14514820D02*
X-16878572Y14514820D01*
X-16878572Y14514820D02*
X-16783334Y14562439D01*
X-16783334Y14562439D02*
X-16735715Y14610058D01*
X-16735715Y14610058D02*
X-16688096Y14705296D01*
X-16688096Y14705296D02*
X-16688096Y14848153D01*
X-16688096Y14848153D02*
X-16735715Y14943391D01*
X-16735715Y14943391D02*
X-16783334Y14991010D01*
X-16783334Y14991010D02*
X-16878572Y15038629D01*
X-16878572Y15038629D02*
X-17259524Y15038629D01*
X-16259524Y14514820D02*
X-16259524Y15324343D01*
X-16259524Y15324343D02*
X-16211905Y15419581D01*
X-16211905Y15419581D02*
X-16164286Y15467200D01*
X-16164286Y15467200D02*
X-16069048Y15514820D01*
X-16069048Y15514820D02*
X-15878572Y15514820D01*
X-15878572Y15514820D02*
X-15783334Y15467200D01*
X-15783334Y15467200D02*
X-15735715Y15419581D01*
X-15735715Y15419581D02*
X-15688096Y15324343D01*
X-15688096Y15324343D02*
X-15688096Y14514820D01*
X-15211905Y15514820D02*
X-15211905Y14514820D01*
X-15211905Y14514820D02*
X-14640477Y15514820D01*
X-14640477Y15514820D02*
X-14640477Y14514820D01*
%TO.C,D2*%
X738094Y-3954819D02*
X738094Y-2954819D01*
X738094Y-2954819D02*
X499999Y-2954819D01*
X499999Y-2954819D02*
X357142Y-3002438D01*
X357142Y-3002438D02*
X261904Y-3097676D01*
X261904Y-3097676D02*
X214285Y-3192914D01*
X214285Y-3192914D02*
X166666Y-3383390D01*
X166666Y-3383390D02*
X166666Y-3526247D01*
X166666Y-3526247D02*
X214285Y-3716723D01*
X214285Y-3716723D02*
X261904Y-3811961D01*
X261904Y-3811961D02*
X357142Y-3907200D01*
X357142Y-3907200D02*
X499999Y-3954819D01*
X499999Y-3954819D02*
X738094Y-3954819D01*
X-214287Y-3050057D02*
X-261906Y-3002438D01*
X-261906Y-3002438D02*
X-357144Y-2954819D01*
X-357144Y-2954819D02*
X-595239Y-2954819D01*
X-595239Y-2954819D02*
X-690477Y-3002438D01*
X-690477Y-3002438D02*
X-738096Y-3050057D01*
X-738096Y-3050057D02*
X-785715Y-3145295D01*
X-785715Y-3145295D02*
X-785715Y-3240533D01*
X-785715Y-3240533D02*
X-738096Y-3383390D01*
X-738096Y-3383390D02*
X-166668Y-3954819D01*
X-166668Y-3954819D02*
X-785715Y-3954819D01*
X3864285Y-5854819D02*
X4435713Y-5854819D01*
X4149999Y-5854819D02*
X4149999Y-4854819D01*
X4149999Y-4854819D02*
X4245237Y-4997676D01*
X4245237Y-4997676D02*
X4340475Y-5092914D01*
X4340475Y-5092914D02*
X4435713Y-5140533D01*
%TO.C,C30*%
X25244580Y-14582142D02*
X25292200Y-14534523D01*
X25292200Y-14534523D02*
X25339819Y-14391666D01*
X25339819Y-14391666D02*
X25339819Y-14296428D01*
X25339819Y-14296428D02*
X25292200Y-14153571D01*
X25292200Y-14153571D02*
X25196961Y-14058333D01*
X25196961Y-14058333D02*
X25101723Y-14010714D01*
X25101723Y-14010714D02*
X24911247Y-13963095D01*
X24911247Y-13963095D02*
X24768390Y-13963095D01*
X24768390Y-13963095D02*
X24577914Y-14010714D01*
X24577914Y-14010714D02*
X24482676Y-14058333D01*
X24482676Y-14058333D02*
X24387438Y-14153571D01*
X24387438Y-14153571D02*
X24339819Y-14296428D01*
X24339819Y-14296428D02*
X24339819Y-14391666D01*
X24339819Y-14391666D02*
X24387438Y-14534523D01*
X24387438Y-14534523D02*
X24435057Y-14582142D01*
X24339819Y-14915476D02*
X24339819Y-15534523D01*
X24339819Y-15534523D02*
X24720771Y-15201190D01*
X24720771Y-15201190D02*
X24720771Y-15344047D01*
X24720771Y-15344047D02*
X24768390Y-15439285D01*
X24768390Y-15439285D02*
X24816009Y-15486904D01*
X24816009Y-15486904D02*
X24911247Y-15534523D01*
X24911247Y-15534523D02*
X25149342Y-15534523D01*
X25149342Y-15534523D02*
X25244580Y-15486904D01*
X25244580Y-15486904D02*
X25292200Y-15439285D01*
X25292200Y-15439285D02*
X25339819Y-15344047D01*
X25339819Y-15344047D02*
X25339819Y-15058333D01*
X25339819Y-15058333D02*
X25292200Y-14963095D01*
X25292200Y-14963095D02*
X25244580Y-14915476D01*
X24339819Y-16153571D02*
X24339819Y-16248809D01*
X24339819Y-16248809D02*
X24387438Y-16344047D01*
X24387438Y-16344047D02*
X24435057Y-16391666D01*
X24435057Y-16391666D02*
X24530295Y-16439285D01*
X24530295Y-16439285D02*
X24720771Y-16486904D01*
X24720771Y-16486904D02*
X24958866Y-16486904D01*
X24958866Y-16486904D02*
X25149342Y-16439285D01*
X25149342Y-16439285D02*
X25244580Y-16391666D01*
X25244580Y-16391666D02*
X25292200Y-16344047D01*
X25292200Y-16344047D02*
X25339819Y-16248809D01*
X25339819Y-16248809D02*
X25339819Y-16153571D01*
X25339819Y-16153571D02*
X25292200Y-16058333D01*
X25292200Y-16058333D02*
X25244580Y-16010714D01*
X25244580Y-16010714D02*
X25149342Y-15963095D01*
X25149342Y-15963095D02*
X24958866Y-15915476D01*
X24958866Y-15915476D02*
X24720771Y-15915476D01*
X24720771Y-15915476D02*
X24530295Y-15963095D01*
X24530295Y-15963095D02*
X24435057Y-16010714D01*
X24435057Y-16010714D02*
X24387438Y-16058333D01*
X24387438Y-16058333D02*
X24339819Y-16153571D01*
%TO.C,SW5*%
X13358332Y-18687200D02*
X13215475Y-18734819D01*
X13215475Y-18734819D02*
X12977380Y-18734819D01*
X12977380Y-18734819D02*
X12882142Y-18687200D01*
X12882142Y-18687200D02*
X12834523Y-18639580D01*
X12834523Y-18639580D02*
X12786904Y-18544342D01*
X12786904Y-18544342D02*
X12786904Y-18449104D01*
X12786904Y-18449104D02*
X12834523Y-18353866D01*
X12834523Y-18353866D02*
X12882142Y-18306247D01*
X12882142Y-18306247D02*
X12977380Y-18258628D01*
X12977380Y-18258628D02*
X13167856Y-18211009D01*
X13167856Y-18211009D02*
X13263094Y-18163390D01*
X13263094Y-18163390D02*
X13310713Y-18115771D01*
X13310713Y-18115771D02*
X13358332Y-18020533D01*
X13358332Y-18020533D02*
X13358332Y-17925295D01*
X13358332Y-17925295D02*
X13310713Y-17830057D01*
X13310713Y-17830057D02*
X13263094Y-17782438D01*
X13263094Y-17782438D02*
X13167856Y-17734819D01*
X13167856Y-17734819D02*
X12929761Y-17734819D01*
X12929761Y-17734819D02*
X12786904Y-17782438D01*
X12453570Y-17734819D02*
X12215475Y-18734819D01*
X12215475Y-18734819D02*
X12024999Y-18020533D01*
X12024999Y-18020533D02*
X11834523Y-18734819D01*
X11834523Y-18734819D02*
X11596428Y-17734819D01*
X10739285Y-17734819D02*
X11215475Y-17734819D01*
X11215475Y-17734819D02*
X11263094Y-18211009D01*
X11263094Y-18211009D02*
X11215475Y-18163390D01*
X11215475Y-18163390D02*
X11120237Y-18115771D01*
X11120237Y-18115771D02*
X10882142Y-18115771D01*
X10882142Y-18115771D02*
X10786904Y-18163390D01*
X10786904Y-18163390D02*
X10739285Y-18211009D01*
X10739285Y-18211009D02*
X10691666Y-18306247D01*
X10691666Y-18306247D02*
X10691666Y-18544342D01*
X10691666Y-18544342D02*
X10739285Y-18639580D01*
X10739285Y-18639580D02*
X10786904Y-18687200D01*
X10786904Y-18687200D02*
X10882142Y-18734819D01*
X10882142Y-18734819D02*
X11120237Y-18734819D01*
X11120237Y-18734819D02*
X11215475Y-18687200D01*
X11215475Y-18687200D02*
X11263094Y-18639580D01*
%TO.C,D4*%
X1168094Y18655181D02*
X1168094Y19655181D01*
X1168094Y19655181D02*
X929999Y19655181D01*
X929999Y19655181D02*
X787142Y19607562D01*
X787142Y19607562D02*
X691904Y19512324D01*
X691904Y19512324D02*
X644285Y19417086D01*
X644285Y19417086D02*
X596666Y19226610D01*
X596666Y19226610D02*
X596666Y19083753D01*
X596666Y19083753D02*
X644285Y18893277D01*
X644285Y18893277D02*
X691904Y18798039D01*
X691904Y18798039D02*
X787142Y18702800D01*
X787142Y18702800D02*
X929999Y18655181D01*
X929999Y18655181D02*
X1168094Y18655181D01*
X-260477Y19321848D02*
X-260477Y18655181D01*
X-22382Y19702800D02*
X215713Y18988515D01*
X215713Y18988515D02*
X-403334Y18988515D01*
X4294285Y16755181D02*
X4865713Y16755181D01*
X4579999Y16755181D02*
X4579999Y17755181D01*
X4579999Y17755181D02*
X4675237Y17612324D01*
X4675237Y17612324D02*
X4770475Y17517086D01*
X4770475Y17517086D02*
X4865713Y17469467D01*
%TO.C,C28*%
X4899580Y20002858D02*
X4947200Y20050477D01*
X4947200Y20050477D02*
X4994819Y20193334D01*
X4994819Y20193334D02*
X4994819Y20288572D01*
X4994819Y20288572D02*
X4947200Y20431429D01*
X4947200Y20431429D02*
X4851961Y20526667D01*
X4851961Y20526667D02*
X4756723Y20574286D01*
X4756723Y20574286D02*
X4566247Y20621905D01*
X4566247Y20621905D02*
X4423390Y20621905D01*
X4423390Y20621905D02*
X4232914Y20574286D01*
X4232914Y20574286D02*
X4137676Y20526667D01*
X4137676Y20526667D02*
X4042438Y20431429D01*
X4042438Y20431429D02*
X3994819Y20288572D01*
X3994819Y20288572D02*
X3994819Y20193334D01*
X3994819Y20193334D02*
X4042438Y20050477D01*
X4042438Y20050477D02*
X4090057Y20002858D01*
X4090057Y19621905D02*
X4042438Y19574286D01*
X4042438Y19574286D02*
X3994819Y19479048D01*
X3994819Y19479048D02*
X3994819Y19240953D01*
X3994819Y19240953D02*
X4042438Y19145715D01*
X4042438Y19145715D02*
X4090057Y19098096D01*
X4090057Y19098096D02*
X4185295Y19050477D01*
X4185295Y19050477D02*
X4280533Y19050477D01*
X4280533Y19050477D02*
X4423390Y19098096D01*
X4423390Y19098096D02*
X4994819Y19669524D01*
X4994819Y19669524D02*
X4994819Y19050477D01*
X4423390Y18479048D02*
X4375771Y18574286D01*
X4375771Y18574286D02*
X4328152Y18621905D01*
X4328152Y18621905D02*
X4232914Y18669524D01*
X4232914Y18669524D02*
X4185295Y18669524D01*
X4185295Y18669524D02*
X4090057Y18621905D01*
X4090057Y18621905D02*
X4042438Y18574286D01*
X4042438Y18574286D02*
X3994819Y18479048D01*
X3994819Y18479048D02*
X3994819Y18288572D01*
X3994819Y18288572D02*
X4042438Y18193334D01*
X4042438Y18193334D02*
X4090057Y18145715D01*
X4090057Y18145715D02*
X4185295Y18098096D01*
X4185295Y18098096D02*
X4232914Y18098096D01*
X4232914Y18098096D02*
X4328152Y18145715D01*
X4328152Y18145715D02*
X4375771Y18193334D01*
X4375771Y18193334D02*
X4423390Y18288572D01*
X4423390Y18288572D02*
X4423390Y18479048D01*
X4423390Y18479048D02*
X4471009Y18574286D01*
X4471009Y18574286D02*
X4518628Y18621905D01*
X4518628Y18621905D02*
X4613866Y18669524D01*
X4613866Y18669524D02*
X4804342Y18669524D01*
X4804342Y18669524D02*
X4899580Y18621905D01*
X4899580Y18621905D02*
X4947200Y18574286D01*
X4947200Y18574286D02*
X4994819Y18479048D01*
X4994819Y18479048D02*
X4994819Y18288572D01*
X4994819Y18288572D02*
X4947200Y18193334D01*
X4947200Y18193334D02*
X4899580Y18145715D01*
X4899580Y18145715D02*
X4804342Y18098096D01*
X4804342Y18098096D02*
X4613866Y18098096D01*
X4613866Y18098096D02*
X4518628Y18145715D01*
X4518628Y18145715D02*
X4471009Y18193334D01*
X4471009Y18193334D02*
X4423390Y18288572D01*
%TO.C,R10*%
X-180181Y20047858D02*
X-656372Y20381191D01*
X-180181Y20619286D02*
X-1180181Y20619286D01*
X-1180181Y20619286D02*
X-1180181Y20238334D01*
X-1180181Y20238334D02*
X-1132562Y20143096D01*
X-1132562Y20143096D02*
X-1084943Y20095477D01*
X-1084943Y20095477D02*
X-989705Y20047858D01*
X-989705Y20047858D02*
X-846848Y20047858D01*
X-846848Y20047858D02*
X-751610Y20095477D01*
X-751610Y20095477D02*
X-703991Y20143096D01*
X-703991Y20143096D02*
X-656372Y20238334D01*
X-656372Y20238334D02*
X-656372Y20619286D01*
X-180181Y19095477D02*
X-180181Y19666905D01*
X-180181Y19381191D02*
X-1180181Y19381191D01*
X-1180181Y19381191D02*
X-1037324Y19476429D01*
X-1037324Y19476429D02*
X-942086Y19571667D01*
X-942086Y19571667D02*
X-894467Y19666905D01*
X-1180181Y18476429D02*
X-1180181Y18381191D01*
X-1180181Y18381191D02*
X-1132562Y18285953D01*
X-1132562Y18285953D02*
X-1084943Y18238334D01*
X-1084943Y18238334D02*
X-989705Y18190715D01*
X-989705Y18190715D02*
X-799229Y18143096D01*
X-799229Y18143096D02*
X-561134Y18143096D01*
X-561134Y18143096D02*
X-370658Y18190715D01*
X-370658Y18190715D02*
X-275420Y18238334D01*
X-275420Y18238334D02*
X-227800Y18285953D01*
X-227800Y18285953D02*
X-180181Y18381191D01*
X-180181Y18381191D02*
X-180181Y18476429D01*
X-180181Y18476429D02*
X-227800Y18571667D01*
X-227800Y18571667D02*
X-275420Y18619286D01*
X-275420Y18619286D02*
X-370658Y18666905D01*
X-370658Y18666905D02*
X-561134Y18714524D01*
X-561134Y18714524D02*
X-799229Y18714524D01*
X-799229Y18714524D02*
X-989705Y18666905D01*
X-989705Y18666905D02*
X-1084943Y18619286D01*
X-1084943Y18619286D02*
X-1132562Y18571667D01*
X-1132562Y18571667D02*
X-1180181Y18476429D01*
%TO.C,D8*%
X-6831906Y-22904105D02*
X-6831906Y-21904105D01*
X-6831906Y-21904105D02*
X-7070001Y-21904105D01*
X-7070001Y-21904105D02*
X-7212858Y-21951724D01*
X-7212858Y-21951724D02*
X-7308096Y-22046962D01*
X-7308096Y-22046962D02*
X-7355715Y-22142200D01*
X-7355715Y-22142200D02*
X-7403334Y-22332676D01*
X-7403334Y-22332676D02*
X-7403334Y-22475533D01*
X-7403334Y-22475533D02*
X-7355715Y-22666009D01*
X-7355715Y-22666009D02*
X-7308096Y-22761247D01*
X-7308096Y-22761247D02*
X-7212858Y-22856486D01*
X-7212858Y-22856486D02*
X-7070001Y-22904105D01*
X-7070001Y-22904105D02*
X-6831906Y-22904105D01*
X-7974763Y-22332676D02*
X-7879525Y-22285057D01*
X-7879525Y-22285057D02*
X-7831906Y-22237438D01*
X-7831906Y-22237438D02*
X-7784287Y-22142200D01*
X-7784287Y-22142200D02*
X-7784287Y-22094581D01*
X-7784287Y-22094581D02*
X-7831906Y-21999343D01*
X-7831906Y-21999343D02*
X-7879525Y-21951724D01*
X-7879525Y-21951724D02*
X-7974763Y-21904105D01*
X-7974763Y-21904105D02*
X-8165239Y-21904105D01*
X-8165239Y-21904105D02*
X-8260477Y-21951724D01*
X-8260477Y-21951724D02*
X-8308096Y-21999343D01*
X-8308096Y-21999343D02*
X-8355715Y-22094581D01*
X-8355715Y-22094581D02*
X-8355715Y-22142200D01*
X-8355715Y-22142200D02*
X-8308096Y-22237438D01*
X-8308096Y-22237438D02*
X-8260477Y-22285057D01*
X-8260477Y-22285057D02*
X-8165239Y-22332676D01*
X-8165239Y-22332676D02*
X-7974763Y-22332676D01*
X-7974763Y-22332676D02*
X-7879525Y-22380295D01*
X-7879525Y-22380295D02*
X-7831906Y-22427914D01*
X-7831906Y-22427914D02*
X-7784287Y-22523152D01*
X-7784287Y-22523152D02*
X-7784287Y-22713628D01*
X-7784287Y-22713628D02*
X-7831906Y-22808866D01*
X-7831906Y-22808866D02*
X-7879525Y-22856486D01*
X-7879525Y-22856486D02*
X-7974763Y-22904105D01*
X-7974763Y-22904105D02*
X-8165239Y-22904105D01*
X-8165239Y-22904105D02*
X-8260477Y-22856486D01*
X-8260477Y-22856486D02*
X-8308096Y-22808866D01*
X-8308096Y-22808866D02*
X-8355715Y-22713628D01*
X-8355715Y-22713628D02*
X-8355715Y-22523152D01*
X-8355715Y-22523152D02*
X-8308096Y-22427914D01*
X-8308096Y-22427914D02*
X-8260477Y-22380295D01*
X-8260477Y-22380295D02*
X-8165239Y-22332676D01*
X-3635715Y-25354819D02*
X-3064287Y-25354819D01*
X-3350001Y-25354819D02*
X-3350001Y-24354819D01*
X-3350001Y-24354819D02*
X-3254763Y-24497676D01*
X-3254763Y-24497676D02*
X-3159525Y-24592914D01*
X-3159525Y-24592914D02*
X-3064287Y-24640533D01*
%TO.C,D9*%
X-21291906Y-13054819D02*
X-21291906Y-12054819D01*
X-21291906Y-12054819D02*
X-21530001Y-12054819D01*
X-21530001Y-12054819D02*
X-21672858Y-12102438D01*
X-21672858Y-12102438D02*
X-21768096Y-12197676D01*
X-21768096Y-12197676D02*
X-21815715Y-12292914D01*
X-21815715Y-12292914D02*
X-21863334Y-12483390D01*
X-21863334Y-12483390D02*
X-21863334Y-12626247D01*
X-21863334Y-12626247D02*
X-21815715Y-12816723D01*
X-21815715Y-12816723D02*
X-21768096Y-12911961D01*
X-21768096Y-12911961D02*
X-21672858Y-13007200D01*
X-21672858Y-13007200D02*
X-21530001Y-13054819D01*
X-21530001Y-13054819D02*
X-21291906Y-13054819D01*
X-22339525Y-13054819D02*
X-22530001Y-13054819D01*
X-22530001Y-13054819D02*
X-22625239Y-13007200D01*
X-22625239Y-13007200D02*
X-22672858Y-12959580D01*
X-22672858Y-12959580D02*
X-22768096Y-12816723D01*
X-22768096Y-12816723D02*
X-22815715Y-12626247D01*
X-22815715Y-12626247D02*
X-22815715Y-12245295D01*
X-22815715Y-12245295D02*
X-22768096Y-12150057D01*
X-22768096Y-12150057D02*
X-22720477Y-12102438D01*
X-22720477Y-12102438D02*
X-22625239Y-12054819D01*
X-22625239Y-12054819D02*
X-22434763Y-12054819D01*
X-22434763Y-12054819D02*
X-22339525Y-12102438D01*
X-22339525Y-12102438D02*
X-22291906Y-12150057D01*
X-22291906Y-12150057D02*
X-22244287Y-12245295D01*
X-22244287Y-12245295D02*
X-22244287Y-12483390D01*
X-22244287Y-12483390D02*
X-22291906Y-12578628D01*
X-22291906Y-12578628D02*
X-22339525Y-12626247D01*
X-22339525Y-12626247D02*
X-22434763Y-12673866D01*
X-22434763Y-12673866D02*
X-22625239Y-12673866D01*
X-22625239Y-12673866D02*
X-22720477Y-12626247D01*
X-22720477Y-12626247D02*
X-22768096Y-12578628D01*
X-22768096Y-12578628D02*
X-22815715Y-12483390D01*
X-18165715Y-14954819D02*
X-17594287Y-14954819D01*
X-17880001Y-14954819D02*
X-17880001Y-13954819D01*
X-17880001Y-13954819D02*
X-17784763Y-14097676D01*
X-17784763Y-14097676D02*
X-17689525Y-14192914D01*
X-17689525Y-14192914D02*
X-17594287Y-14240533D01*
%TO.C,Q1*%
X-4309762Y15179943D02*
X-4214524Y15227562D01*
X-4214524Y15227562D02*
X-4119286Y15322800D01*
X-4119286Y15322800D02*
X-3976429Y15465658D01*
X-3976429Y15465658D02*
X-3881191Y15513277D01*
X-3881191Y15513277D02*
X-3785953Y15513277D01*
X-3833572Y15275181D02*
X-3738334Y15322800D01*
X-3738334Y15322800D02*
X-3643096Y15418039D01*
X-3643096Y15418039D02*
X-3595477Y15608515D01*
X-3595477Y15608515D02*
X-3595477Y15941848D01*
X-3595477Y15941848D02*
X-3643096Y16132324D01*
X-3643096Y16132324D02*
X-3738334Y16227562D01*
X-3738334Y16227562D02*
X-3833572Y16275181D01*
X-3833572Y16275181D02*
X-4024048Y16275181D01*
X-4024048Y16275181D02*
X-4119286Y16227562D01*
X-4119286Y16227562D02*
X-4214524Y16132324D01*
X-4214524Y16132324D02*
X-4262143Y15941848D01*
X-4262143Y15941848D02*
X-4262143Y15608515D01*
X-4262143Y15608515D02*
X-4214524Y15418039D01*
X-4214524Y15418039D02*
X-4119286Y15322800D01*
X-4119286Y15322800D02*
X-4024048Y15275181D01*
X-4024048Y15275181D02*
X-3833572Y15275181D01*
X-5214524Y15275181D02*
X-4643096Y15275181D01*
X-4928810Y15275181D02*
X-4928810Y16275181D01*
X-4928810Y16275181D02*
X-4833572Y16132324D01*
X-4833572Y16132324D02*
X-4738334Y16037086D01*
X-4738334Y16037086D02*
X-4643096Y15989467D01*
%TO.C,D6*%
X22763094Y-13459819D02*
X22763094Y-12459819D01*
X22763094Y-12459819D02*
X22524999Y-12459819D01*
X22524999Y-12459819D02*
X22382142Y-12507438D01*
X22382142Y-12507438D02*
X22286904Y-12602676D01*
X22286904Y-12602676D02*
X22239285Y-12697914D01*
X22239285Y-12697914D02*
X22191666Y-12888390D01*
X22191666Y-12888390D02*
X22191666Y-13031247D01*
X22191666Y-13031247D02*
X22239285Y-13221723D01*
X22239285Y-13221723D02*
X22286904Y-13316961D01*
X22286904Y-13316961D02*
X22382142Y-13412200D01*
X22382142Y-13412200D02*
X22524999Y-13459819D01*
X22524999Y-13459819D02*
X22763094Y-13459819D01*
X21334523Y-12459819D02*
X21524999Y-12459819D01*
X21524999Y-12459819D02*
X21620237Y-12507438D01*
X21620237Y-12507438D02*
X21667856Y-12555057D01*
X21667856Y-12555057D02*
X21763094Y-12697914D01*
X21763094Y-12697914D02*
X21810713Y-12888390D01*
X21810713Y-12888390D02*
X21810713Y-13269342D01*
X21810713Y-13269342D02*
X21763094Y-13364580D01*
X21763094Y-13364580D02*
X21715475Y-13412200D01*
X21715475Y-13412200D02*
X21620237Y-13459819D01*
X21620237Y-13459819D02*
X21429761Y-13459819D01*
X21429761Y-13459819D02*
X21334523Y-13412200D01*
X21334523Y-13412200D02*
X21286904Y-13364580D01*
X21286904Y-13364580D02*
X21239285Y-13269342D01*
X21239285Y-13269342D02*
X21239285Y-13031247D01*
X21239285Y-13031247D02*
X21286904Y-12936009D01*
X21286904Y-12936009D02*
X21334523Y-12888390D01*
X21334523Y-12888390D02*
X21429761Y-12840771D01*
X21429761Y-12840771D02*
X21620237Y-12840771D01*
X21620237Y-12840771D02*
X21715475Y-12888390D01*
X21715475Y-12888390D02*
X21763094Y-12936009D01*
X21763094Y-12936009D02*
X21810713Y-13031247D01*
X25889285Y-15359819D02*
X26460713Y-15359819D01*
X26174999Y-15359819D02*
X26174999Y-14359819D01*
X26174999Y-14359819D02*
X26270237Y-14502676D01*
X26270237Y-14502676D02*
X26365475Y-14597914D01*
X26365475Y-14597914D02*
X26460713Y-14645533D01*
%TO.C,D7*%
X8238094Y-23454819D02*
X8238094Y-22454819D01*
X8238094Y-22454819D02*
X7999999Y-22454819D01*
X7999999Y-22454819D02*
X7857142Y-22502438D01*
X7857142Y-22502438D02*
X7761904Y-22597676D01*
X7761904Y-22597676D02*
X7714285Y-22692914D01*
X7714285Y-22692914D02*
X7666666Y-22883390D01*
X7666666Y-22883390D02*
X7666666Y-23026247D01*
X7666666Y-23026247D02*
X7714285Y-23216723D01*
X7714285Y-23216723D02*
X7761904Y-23311961D01*
X7761904Y-23311961D02*
X7857142Y-23407200D01*
X7857142Y-23407200D02*
X7999999Y-23454819D01*
X7999999Y-23454819D02*
X8238094Y-23454819D01*
X7333332Y-22454819D02*
X6666666Y-22454819D01*
X6666666Y-22454819D02*
X7095237Y-23454819D01*
X11364285Y-25354819D02*
X11935713Y-25354819D01*
X11649999Y-25354819D02*
X11649999Y-24354819D01*
X11649999Y-24354819D02*
X11745237Y-24497676D01*
X11745237Y-24497676D02*
X11840475Y-24592914D01*
X11840475Y-24592914D02*
X11935713Y-24640533D01*
%TO.C,D5*%
X15348094Y24025181D02*
X15348094Y25025181D01*
X15348094Y25025181D02*
X15109999Y25025181D01*
X15109999Y25025181D02*
X14967142Y24977562D01*
X14967142Y24977562D02*
X14871904Y24882324D01*
X14871904Y24882324D02*
X14824285Y24787086D01*
X14824285Y24787086D02*
X14776666Y24596610D01*
X14776666Y24596610D02*
X14776666Y24453753D01*
X14776666Y24453753D02*
X14824285Y24263277D01*
X14824285Y24263277D02*
X14871904Y24168039D01*
X14871904Y24168039D02*
X14967142Y24072800D01*
X14967142Y24072800D02*
X15109999Y24025181D01*
X15109999Y24025181D02*
X15348094Y24025181D01*
X13871904Y25025181D02*
X14348094Y25025181D01*
X14348094Y25025181D02*
X14395713Y24548991D01*
X14395713Y24548991D02*
X14348094Y24596610D01*
X14348094Y24596610D02*
X14252856Y24644229D01*
X14252856Y24644229D02*
X14014761Y24644229D01*
X14014761Y24644229D02*
X13919523Y24596610D01*
X13919523Y24596610D02*
X13871904Y24548991D01*
X13871904Y24548991D02*
X13824285Y24453753D01*
X13824285Y24453753D02*
X13824285Y24215658D01*
X13824285Y24215658D02*
X13871904Y24120420D01*
X13871904Y24120420D02*
X13919523Y24072800D01*
X13919523Y24072800D02*
X14014761Y24025181D01*
X14014761Y24025181D02*
X14252856Y24025181D01*
X14252856Y24025181D02*
X14348094Y24072800D01*
X14348094Y24072800D02*
X14395713Y24120420D01*
X18474285Y22125181D02*
X19045713Y22125181D01*
X18759999Y22125181D02*
X18759999Y23125181D01*
X18759999Y23125181D02*
X18855237Y22982324D01*
X18855237Y22982324D02*
X18950475Y22887086D01*
X18950475Y22887086D02*
X19045713Y22839467D01*
%TO.C,C31*%
X11012857Y-24719580D02*
X11060476Y-24767200D01*
X11060476Y-24767200D02*
X11203333Y-24814819D01*
X11203333Y-24814819D02*
X11298571Y-24814819D01*
X11298571Y-24814819D02*
X11441428Y-24767200D01*
X11441428Y-24767200D02*
X11536666Y-24671961D01*
X11536666Y-24671961D02*
X11584285Y-24576723D01*
X11584285Y-24576723D02*
X11631904Y-24386247D01*
X11631904Y-24386247D02*
X11631904Y-24243390D01*
X11631904Y-24243390D02*
X11584285Y-24052914D01*
X11584285Y-24052914D02*
X11536666Y-23957676D01*
X11536666Y-23957676D02*
X11441428Y-23862438D01*
X11441428Y-23862438D02*
X11298571Y-23814819D01*
X11298571Y-23814819D02*
X11203333Y-23814819D01*
X11203333Y-23814819D02*
X11060476Y-23862438D01*
X11060476Y-23862438D02*
X11012857Y-23910057D01*
X10679523Y-23814819D02*
X10060476Y-23814819D01*
X10060476Y-23814819D02*
X10393809Y-24195771D01*
X10393809Y-24195771D02*
X10250952Y-24195771D01*
X10250952Y-24195771D02*
X10155714Y-24243390D01*
X10155714Y-24243390D02*
X10108095Y-24291009D01*
X10108095Y-24291009D02*
X10060476Y-24386247D01*
X10060476Y-24386247D02*
X10060476Y-24624342D01*
X10060476Y-24624342D02*
X10108095Y-24719580D01*
X10108095Y-24719580D02*
X10155714Y-24767200D01*
X10155714Y-24767200D02*
X10250952Y-24814819D01*
X10250952Y-24814819D02*
X10536666Y-24814819D01*
X10536666Y-24814819D02*
X10631904Y-24767200D01*
X10631904Y-24767200D02*
X10679523Y-24719580D01*
X9108095Y-24814819D02*
X9679523Y-24814819D01*
X9393809Y-24814819D02*
X9393809Y-23814819D01*
X9393809Y-23814819D02*
X9489047Y-23957676D01*
X9489047Y-23957676D02*
X9584285Y-24052914D01*
X9584285Y-24052914D02*
X9679523Y-24100533D01*
D11*
%TO.C,R7*%
X-14560000Y15972164D02*
X-14560000Y16187836D01*
X-15280000Y15972164D02*
X-15280000Y16187836D01*
%TO.C,D10*%
X-20920000Y17920000D02*
X-20920000Y19070000D01*
X-13620000Y23420000D02*
X-20920000Y23420000D01*
X-13620000Y17920000D02*
X-20920000Y17920000D01*
%TO.C,C33*%
X-18360000Y-14842164D02*
X-18360000Y-15057836D01*
X-17640000Y-14842164D02*
X-17640000Y-15057836D01*
%TO.C,R9*%
X-7312500Y18743641D02*
X-7312500Y18436359D01*
X-6552500Y18743641D02*
X-6552500Y18436359D01*
%TO.C,C34*%
X-15742164Y24330000D02*
X-15957836Y24330000D01*
X-15742164Y23610000D02*
X-15957836Y23610000D01*
%TO.C,REF\u002A\u002A*%
X12065000Y6985000D02*
X12065000Y-6985000D01*
X12065000Y-6985000D02*
X26035000Y-6985000D01*
X26035000Y6985000D02*
X12065000Y6985000D01*
X26035000Y-6985000D02*
X26035000Y6985000D01*
%TO.C,C27*%
X22660000Y-5722164D02*
X22660000Y-5937836D01*
X23380000Y-5722164D02*
X23380000Y-5937836D01*
%TO.C,D1*%
X-22700000Y-9750000D02*
X-22700000Y-8600000D01*
X-15400000Y-4250000D02*
X-22700000Y-4250000D01*
X-15400000Y-9750000D02*
X-22700000Y-9750000D01*
%TO.C,C25*%
X-15410000Y-5692164D02*
X-15410000Y-5907836D01*
X-14690000Y-5692164D02*
X-14690000Y-5907836D01*
%TO.C,REF\u002A\u002A*%
X-6985000Y6985000D02*
X-6985000Y-6985000D01*
X-6985000Y-6985000D02*
X6985000Y-6985000D01*
X6985000Y6985000D02*
X-6985000Y6985000D01*
X6985000Y-6985000D02*
X6985000Y6985000D01*
%TO.C,C29*%
X18200000Y22377836D02*
X18200000Y22162164D01*
X18920000Y22377836D02*
X18920000Y22162164D01*
%TO.C,C26*%
X3600000Y-5682164D02*
X3600000Y-5897836D01*
X4320000Y-5682164D02*
X4320000Y-5897836D01*
%TO.C,C32*%
X-5382164Y-22810000D02*
X-5597836Y-22810000D01*
X-5382164Y-23530000D02*
X-5597836Y-23530000D01*
%TO.C,D3*%
X15400000Y-9750000D02*
X15400000Y-8600000D01*
X22700000Y-4250000D02*
X15400000Y-4250000D01*
X22700000Y-9750000D02*
X15400000Y-9750000D01*
%TO.C,D2*%
X-3650000Y-9750000D02*
X-3650000Y-8600000D01*
X3650000Y-4250000D02*
X-3650000Y-4250000D01*
X3650000Y-9750000D02*
X-3650000Y-9750000D01*
%TO.C,C30*%
X25685000Y-15117164D02*
X25685000Y-15332836D01*
X26405000Y-15117164D02*
X26405000Y-15332836D01*
%TO.C,D4*%
X-3220000Y12860000D02*
X-3220000Y14010000D01*
X4080000Y18360000D02*
X-3220000Y18360000D01*
X4080000Y12860000D02*
X-3220000Y12860000D01*
%TO.C,C28*%
X3740000Y19252164D02*
X3740000Y19467836D01*
X3020000Y19252164D02*
X3020000Y19467836D01*
%TO.C,R10*%
X-1425000Y19251359D02*
X-1425000Y19558641D01*
X-2185000Y19251359D02*
X-2185000Y19558641D01*
%TO.C,REF\u002A\u002A*%
X-26035000Y6985000D02*
X-26035000Y-6985000D01*
X-26035000Y-6985000D02*
X-12065000Y-6985000D01*
X-12065000Y6985000D02*
X-26035000Y6985000D01*
X-12065000Y-6985000D02*
X-12065000Y6985000D01*
%TO.C,D8*%
X-11150000Y-29250000D02*
X-11150000Y-28100000D01*
X-3850000Y-23750000D02*
X-11150000Y-23750000D01*
X-3850000Y-29250000D02*
X-11150000Y-29250000D01*
%TO.C,D9*%
X-25680000Y-18850000D02*
X-25680000Y-17700000D01*
X-18380000Y-13350000D02*
X-25680000Y-13350000D01*
X-18380000Y-18850000D02*
X-25680000Y-18850000D01*
%TO.C,Q1*%
X-4292500Y17320000D02*
X-3642500Y17320000D01*
X-4292500Y17320000D02*
X-5967500Y17320000D01*
X-4292500Y20440000D02*
X-3642500Y20440000D01*
X-4292500Y20440000D02*
X-4942500Y20440000D01*
%TO.C,D6*%
X18375000Y-19255000D02*
X18375000Y-18105000D01*
X25675000Y-13755000D02*
X18375000Y-13755000D01*
X25675000Y-19255000D02*
X18375000Y-19255000D01*
%TO.C,D7*%
X3850000Y-29250000D02*
X3850000Y-28100000D01*
X11150000Y-23750000D02*
X3850000Y-23750000D01*
X11150000Y-29250000D02*
X3850000Y-29250000D01*
%TO.C,D5*%
X10960000Y18230000D02*
X10960000Y19380000D01*
X18260000Y23730000D02*
X10960000Y23730000D01*
X18260000Y18230000D02*
X10960000Y18230000D01*
%TO.C,C31*%
X10262164Y-23560000D02*
X10477836Y-23560000D01*
X10262164Y-22840000D02*
X10477836Y-22840000D01*
%TD*%
%LPC*%
D12*
%TO.C,P1*%
X-5620000Y31450000D03*
D13*
X-5620000Y27450000D03*
D12*
X5620000Y31450000D03*
D13*
X5620000Y27450000D03*
%TD*%
D14*
%TO.C,REF\u002A\u002A*%
X0Y-25000000D03*
%TD*%
D15*
%TO.C,J1*%
X-8180000Y26915000D03*
X-10720000Y26915000D03*
X-13260000Y26915000D03*
D16*
X-15800000Y26915000D03*
%TD*%
D17*
%TO.C,R7*%
X-14920000Y16560000D03*
X-14920000Y15600000D03*
%TD*%
D18*
%TO.C,SW4*%
X-2900000Y-20500000D03*
X2900000Y-20500000D03*
X-2900000Y-17500000D03*
X2900000Y-17500000D03*
%TD*%
D19*
%TO.C,D10*%
X-19720000Y22320000D03*
X-19720000Y19020000D03*
X-14820000Y19020000D03*
X-14820000Y22320000D03*
%TD*%
D20*
%TO.C,SW1*%
X-13430000Y21025000D03*
X-7430000Y21025000D03*
X-13430000Y24775000D03*
X-7430000Y24775000D03*
%TD*%
D21*
%TO.C,C33*%
X-18000000Y-15430000D03*
X-18000000Y-14470000D03*
%TD*%
D22*
%TO.C,R9*%
X-6932500Y18080000D03*
X-6932500Y19100000D03*
%TD*%
D23*
%TO.C,C34*%
X-16330000Y23970000D03*
X-15370000Y23970000D03*
%TD*%
D18*
%TO.C,SW3*%
X-14900000Y-20500000D03*
X-9100000Y-20500000D03*
X-14900000Y-17500000D03*
X-9100000Y-17500000D03*
%TD*%
D24*
%TO.C,REF\u002A\u002A*%
X13970000Y0D03*
X24130000Y0D03*
%TD*%
D21*
%TO.C,C27*%
X23020000Y-6310000D03*
X23020000Y-5350000D03*
%TD*%
D19*
%TO.C,D1*%
X-21500000Y-5350000D03*
X-21500000Y-8650000D03*
X-16600000Y-8650000D03*
X-16600000Y-5350000D03*
%TD*%
D21*
%TO.C,C25*%
X-15050000Y-6280000D03*
X-15050000Y-5320000D03*
%TD*%
D24*
%TO.C,REF\u002A\u002A*%
X-5080000Y0D03*
X5080000Y0D03*
%TD*%
D21*
%TO.C,C29*%
X18560000Y21790000D03*
X18560000Y22750000D03*
%TD*%
%TO.C,C26*%
X3960000Y-6270000D03*
X3960000Y-5310000D03*
%TD*%
D23*
%TO.C,C32*%
X-5970000Y-23170000D03*
X-5010000Y-23170000D03*
%TD*%
D19*
%TO.C,D3*%
X16600000Y-5350000D03*
X16600000Y-8650000D03*
X21500000Y-8650000D03*
X21500000Y-5350000D03*
%TD*%
D25*
%TO.C,SW2*%
X-12780000Y13960000D03*
X-18780000Y13960000D03*
X-12780000Y10210000D03*
X-18780000Y10210000D03*
%TD*%
D19*
%TO.C,D2*%
X-2450000Y-5350000D03*
X-2450000Y-8650000D03*
X2450000Y-8650000D03*
X2450000Y-5350000D03*
%TD*%
D21*
%TO.C,C30*%
X26045000Y-15705000D03*
X26045000Y-14745000D03*
%TD*%
D18*
%TO.C,SW5*%
X9100000Y-20500000D03*
X14900000Y-20500000D03*
X9100000Y-17500000D03*
X14900000Y-17500000D03*
%TD*%
D19*
%TO.C,D4*%
X-2020000Y17260000D03*
X-2020000Y13960000D03*
X2880000Y13960000D03*
X2880000Y17260000D03*
%TD*%
D17*
%TO.C,C28*%
X3380000Y19840000D03*
X3380000Y18880000D03*
%TD*%
D26*
%TO.C,R10*%
X-1805000Y19915000D03*
X-1805000Y18895000D03*
%TD*%
D24*
%TO.C,REF\u002A\u002A*%
X-24130000Y0D03*
X-13970000Y0D03*
%TD*%
D19*
%TO.C,D8*%
X-9950000Y-24850000D03*
X-9950000Y-28150000D03*
X-5050000Y-28150000D03*
X-5050000Y-24850000D03*
%TD*%
%TO.C,D9*%
X-24480000Y-14450000D03*
X-24480000Y-17750000D03*
X-19580000Y-17750000D03*
X-19580000Y-14450000D03*
%TD*%
D27*
%TO.C,Q1*%
X-3355000Y18880000D03*
X-5230000Y19830000D03*
X-5230000Y17930000D03*
%TD*%
D19*
%TO.C,D6*%
X19575000Y-14855000D03*
X19575000Y-18155000D03*
X24475000Y-18155000D03*
X24475000Y-14855000D03*
%TD*%
%TO.C,D7*%
X5050000Y-24850000D03*
X5050000Y-28150000D03*
X9950000Y-28150000D03*
X9950000Y-24850000D03*
%TD*%
%TO.C,D5*%
X12160000Y22630000D03*
X12160000Y19330000D03*
X17060000Y19330000D03*
X17060000Y22630000D03*
%TD*%
D28*
%TO.C,C31*%
X10850000Y-23200000D03*
X9890000Y-23200000D03*
%TD*%
%LPD*%
M02*
