%TF.GenerationSoftware,KiCad,Pcbnew,7.0.5*%
%TF.CreationDate,2024-03-22T10:45:08-05:00*%
%TF.ProjectId,RP2040,52503230-3430-42e6-9b69-6361645f7063,REV1*%
%TF.SameCoordinates,Original*%
%TF.FileFunction,Other,Comment*%
%FSLAX46Y46*%
G04 Gerber Fmt 4.6, Leading zero omitted, Abs format (unit mm)*
G04 Created by KiCad (PCBNEW 7.0.5) date 2024-03-22 10:45:08*
%MOMM*%
%LPD*%
G01*
G04 APERTURE LIST*
%ADD10C,0.100000*%
%ADD11C,0.150000*%
%ADD12C,0.037500*%
%ADD13C,0.120000*%
G04 APERTURE END LIST*
D10*
X27170000Y-23710000D02*
X25470000Y-25330000D01*
X28520000Y-28280000D01*
X27800000Y-29160000D01*
X24530000Y-26150000D01*
X23020000Y-27710000D01*
X23030000Y-23680000D01*
X27240000Y-23680000D01*
X27170000Y-23710000D01*
G36*
X27170000Y-23710000D02*
G01*
X25470000Y-25330000D01*
X28520000Y-28280000D01*
X27800000Y-29160000D01*
X24530000Y-26150000D01*
X23020000Y-27710000D01*
X23030000Y-23680000D01*
X27240000Y-23680000D01*
X27170000Y-23710000D01*
G37*
X-25390000Y25190000D02*
X-23880000Y26750000D01*
X-23890000Y22720000D01*
X-28100000Y22720000D01*
X-28030000Y22750000D01*
X-26330000Y24370000D01*
X-29380000Y27320000D01*
X-28660000Y28200000D01*
X-25390000Y25190000D01*
G36*
X-25390000Y25190000D02*
G01*
X-23880000Y26750000D01*
X-23890000Y22720000D01*
X-28100000Y22720000D01*
X-28030000Y22750000D01*
X-26330000Y24370000D01*
X-29380000Y27320000D01*
X-28660000Y28200000D01*
X-25390000Y25190000D01*
G37*
X-23040000Y-23990000D02*
X-23040000Y-28200000D01*
X-23070000Y-28130000D01*
X-24690000Y-26430000D01*
X-27640000Y-29480000D01*
X-28520000Y-28760000D01*
X-25510000Y-25490000D01*
X-27070000Y-23980000D01*
X-23040000Y-23990000D01*
G36*
X-23040000Y-23990000D02*
G01*
X-23040000Y-28200000D01*
X-23070000Y-28130000D01*
X-24690000Y-26430000D01*
X-27640000Y-29480000D01*
X-28520000Y-28760000D01*
X-25510000Y-25490000D01*
X-27070000Y-23980000D01*
X-23040000Y-23990000D01*
G37*
X27740000Y28810000D02*
X24730000Y25540000D01*
X26290000Y24030000D01*
X22260000Y24040000D01*
X22260000Y28250000D01*
X22290000Y28180000D01*
X23910000Y26480000D01*
X26860000Y29530000D01*
X27740000Y28810000D01*
G36*
X27740000Y28810000D02*
G01*
X24730000Y25540000D01*
X26290000Y24030000D01*
X22260000Y24040000D01*
X22260000Y28250000D01*
X22290000Y28180000D01*
X23910000Y26480000D01*
X26860000Y29530000D01*
X27740000Y28810000D01*
G37*
D11*
X21966779Y-30529819D02*
X21966779Y-29529819D01*
X21966779Y-29529819D02*
X22347731Y-29529819D01*
X22347731Y-29529819D02*
X22442969Y-29577438D01*
X22442969Y-29577438D02*
X22490588Y-29625057D01*
X22490588Y-29625057D02*
X22538207Y-29720295D01*
X22538207Y-29720295D02*
X22538207Y-29863152D01*
X22538207Y-29863152D02*
X22490588Y-29958390D01*
X22490588Y-29958390D02*
X22442969Y-30006009D01*
X22442969Y-30006009D02*
X22347731Y-30053628D01*
X22347731Y-30053628D02*
X21966779Y-30053628D01*
X23395350Y-29863152D02*
X23395350Y-30529819D01*
X22966779Y-29863152D02*
X22966779Y-30386961D01*
X22966779Y-30386961D02*
X23014398Y-30482200D01*
X23014398Y-30482200D02*
X23109636Y-30529819D01*
X23109636Y-30529819D02*
X23252493Y-30529819D01*
X23252493Y-30529819D02*
X23347731Y-30482200D01*
X23347731Y-30482200D02*
X23395350Y-30434580D01*
X23728684Y-29863152D02*
X24109636Y-29863152D01*
X23871541Y-29529819D02*
X23871541Y-30386961D01*
X23871541Y-30386961D02*
X23919160Y-30482200D01*
X23919160Y-30482200D02*
X24014398Y-30529819D01*
X24014398Y-30529819D02*
X24109636Y-30529819D01*
X25204875Y-30529819D02*
X25204875Y-29863152D01*
X25204875Y-29958390D02*
X25252494Y-29910771D01*
X25252494Y-29910771D02*
X25347732Y-29863152D01*
X25347732Y-29863152D02*
X25490589Y-29863152D01*
X25490589Y-29863152D02*
X25585827Y-29910771D01*
X25585827Y-29910771D02*
X25633446Y-30006009D01*
X25633446Y-30006009D02*
X25633446Y-30529819D01*
X25633446Y-30006009D02*
X25681065Y-29910771D01*
X25681065Y-29910771D02*
X25776303Y-29863152D01*
X25776303Y-29863152D02*
X25919160Y-29863152D01*
X25919160Y-29863152D02*
X26014399Y-29910771D01*
X26014399Y-29910771D02*
X26062018Y-30006009D01*
X26062018Y-30006009D02*
X26062018Y-30529819D01*
X26681065Y-30529819D02*
X26585827Y-30482200D01*
X26585827Y-30482200D02*
X26538208Y-30434580D01*
X26538208Y-30434580D02*
X26490589Y-30339342D01*
X26490589Y-30339342D02*
X26490589Y-30053628D01*
X26490589Y-30053628D02*
X26538208Y-29958390D01*
X26538208Y-29958390D02*
X26585827Y-29910771D01*
X26585827Y-29910771D02*
X26681065Y-29863152D01*
X26681065Y-29863152D02*
X26823922Y-29863152D01*
X26823922Y-29863152D02*
X26919160Y-29910771D01*
X26919160Y-29910771D02*
X26966779Y-29958390D01*
X26966779Y-29958390D02*
X27014398Y-30053628D01*
X27014398Y-30053628D02*
X27014398Y-30339342D01*
X27014398Y-30339342D02*
X26966779Y-30434580D01*
X26966779Y-30434580D02*
X26919160Y-30482200D01*
X26919160Y-30482200D02*
X26823922Y-30529819D01*
X26823922Y-30529819D02*
X26681065Y-30529819D01*
X27871541Y-29863152D02*
X27871541Y-30529819D01*
X27442970Y-29863152D02*
X27442970Y-30386961D01*
X27442970Y-30386961D02*
X27490589Y-30482200D01*
X27490589Y-30482200D02*
X27585827Y-30529819D01*
X27585827Y-30529819D02*
X27728684Y-30529819D01*
X27728684Y-30529819D02*
X27823922Y-30482200D01*
X27823922Y-30482200D02*
X27871541Y-30434580D01*
X28300113Y-30482200D02*
X28395351Y-30529819D01*
X28395351Y-30529819D02*
X28585827Y-30529819D01*
X28585827Y-30529819D02*
X28681065Y-30482200D01*
X28681065Y-30482200D02*
X28728684Y-30386961D01*
X28728684Y-30386961D02*
X28728684Y-30339342D01*
X28728684Y-30339342D02*
X28681065Y-30244104D01*
X28681065Y-30244104D02*
X28585827Y-30196485D01*
X28585827Y-30196485D02*
X28442970Y-30196485D01*
X28442970Y-30196485D02*
X28347732Y-30148866D01*
X28347732Y-30148866D02*
X28300113Y-30053628D01*
X28300113Y-30053628D02*
X28300113Y-30006009D01*
X28300113Y-30006009D02*
X28347732Y-29910771D01*
X28347732Y-29910771D02*
X28442970Y-29863152D01*
X28442970Y-29863152D02*
X28585827Y-29863152D01*
X28585827Y-29863152D02*
X28681065Y-29910771D01*
X29538208Y-30482200D02*
X29442970Y-30529819D01*
X29442970Y-30529819D02*
X29252494Y-30529819D01*
X29252494Y-30529819D02*
X29157256Y-30482200D01*
X29157256Y-30482200D02*
X29109637Y-30386961D01*
X29109637Y-30386961D02*
X29109637Y-30006009D01*
X29109637Y-30006009D02*
X29157256Y-29910771D01*
X29157256Y-29910771D02*
X29252494Y-29863152D01*
X29252494Y-29863152D02*
X29442970Y-29863152D01*
X29442970Y-29863152D02*
X29538208Y-29910771D01*
X29538208Y-29910771D02*
X29585827Y-30006009D01*
X29585827Y-30006009D02*
X29585827Y-30101247D01*
X29585827Y-30101247D02*
X29109637Y-30196485D01*
X30014399Y-30529819D02*
X30014399Y-29529819D01*
X30014399Y-29910771D02*
X30109637Y-29863152D01*
X30109637Y-29863152D02*
X30300113Y-29863152D01*
X30300113Y-29863152D02*
X30395351Y-29910771D01*
X30395351Y-29910771D02*
X30442970Y-29958390D01*
X30442970Y-29958390D02*
X30490589Y-30053628D01*
X30490589Y-30053628D02*
X30490589Y-30339342D01*
X30490589Y-30339342D02*
X30442970Y-30434580D01*
X30442970Y-30434580D02*
X30395351Y-30482200D01*
X30395351Y-30482200D02*
X30300113Y-30529819D01*
X30300113Y-30529819D02*
X30109637Y-30529819D01*
X30109637Y-30529819D02*
X30014399Y-30482200D01*
X30919161Y-30529819D02*
X30919161Y-29863152D01*
X30919161Y-29529819D02*
X30871542Y-29577438D01*
X30871542Y-29577438D02*
X30919161Y-29625057D01*
X30919161Y-29625057D02*
X30966780Y-29577438D01*
X30966780Y-29577438D02*
X30919161Y-29529819D01*
X30919161Y-29529819D02*
X30919161Y-29625057D01*
X31252494Y-29863152D02*
X31633446Y-29863152D01*
X31395351Y-29529819D02*
X31395351Y-30386961D01*
X31395351Y-30386961D02*
X31442970Y-30482200D01*
X31442970Y-30482200D02*
X31538208Y-30529819D01*
X31538208Y-30529819D02*
X31633446Y-30529819D01*
X32347732Y-30482200D02*
X32252494Y-30529819D01*
X32252494Y-30529819D02*
X32062018Y-30529819D01*
X32062018Y-30529819D02*
X31966780Y-30482200D01*
X31966780Y-30482200D02*
X31919161Y-30386961D01*
X31919161Y-30386961D02*
X31919161Y-30006009D01*
X31919161Y-30006009D02*
X31966780Y-29910771D01*
X31966780Y-29910771D02*
X32062018Y-29863152D01*
X32062018Y-29863152D02*
X32252494Y-29863152D01*
X32252494Y-29863152D02*
X32347732Y-29910771D01*
X32347732Y-29910771D02*
X32395351Y-30006009D01*
X32395351Y-30006009D02*
X32395351Y-30101247D01*
X32395351Y-30101247D02*
X31919161Y-30196485D01*
X32776304Y-30482200D02*
X32871542Y-30529819D01*
X32871542Y-30529819D02*
X33062018Y-30529819D01*
X33062018Y-30529819D02*
X33157256Y-30482200D01*
X33157256Y-30482200D02*
X33204875Y-30386961D01*
X33204875Y-30386961D02*
X33204875Y-30339342D01*
X33204875Y-30339342D02*
X33157256Y-30244104D01*
X33157256Y-30244104D02*
X33062018Y-30196485D01*
X33062018Y-30196485D02*
X32919161Y-30196485D01*
X32919161Y-30196485D02*
X32823923Y-30148866D01*
X32823923Y-30148866D02*
X32776304Y-30053628D01*
X32776304Y-30053628D02*
X32776304Y-30006009D01*
X32776304Y-30006009D02*
X32823923Y-29910771D01*
X32823923Y-29910771D02*
X32919161Y-29863152D01*
X32919161Y-29863152D02*
X33062018Y-29863152D01*
X33062018Y-29863152D02*
X33157256Y-29910771D01*
X34395352Y-30529819D02*
X34395352Y-29529819D01*
X34823923Y-30529819D02*
X34823923Y-30006009D01*
X34823923Y-30006009D02*
X34776304Y-29910771D01*
X34776304Y-29910771D02*
X34681066Y-29863152D01*
X34681066Y-29863152D02*
X34538209Y-29863152D01*
X34538209Y-29863152D02*
X34442971Y-29910771D01*
X34442971Y-29910771D02*
X34395352Y-29958390D01*
X35681066Y-30482200D02*
X35585828Y-30529819D01*
X35585828Y-30529819D02*
X35395352Y-30529819D01*
X35395352Y-30529819D02*
X35300114Y-30482200D01*
X35300114Y-30482200D02*
X35252495Y-30386961D01*
X35252495Y-30386961D02*
X35252495Y-30006009D01*
X35252495Y-30006009D02*
X35300114Y-29910771D01*
X35300114Y-29910771D02*
X35395352Y-29863152D01*
X35395352Y-29863152D02*
X35585828Y-29863152D01*
X35585828Y-29863152D02*
X35681066Y-29910771D01*
X35681066Y-29910771D02*
X35728685Y-30006009D01*
X35728685Y-30006009D02*
X35728685Y-30101247D01*
X35728685Y-30101247D02*
X35252495Y-30196485D01*
X36157257Y-30529819D02*
X36157257Y-29863152D01*
X36157257Y-30053628D02*
X36204876Y-29958390D01*
X36204876Y-29958390D02*
X36252495Y-29910771D01*
X36252495Y-29910771D02*
X36347733Y-29863152D01*
X36347733Y-29863152D02*
X36442971Y-29863152D01*
X37157257Y-30482200D02*
X37062019Y-30529819D01*
X37062019Y-30529819D02*
X36871543Y-30529819D01*
X36871543Y-30529819D02*
X36776305Y-30482200D01*
X36776305Y-30482200D02*
X36728686Y-30386961D01*
X36728686Y-30386961D02*
X36728686Y-30006009D01*
X36728686Y-30006009D02*
X36776305Y-29910771D01*
X36776305Y-29910771D02*
X36871543Y-29863152D01*
X36871543Y-29863152D02*
X37062019Y-29863152D01*
X37062019Y-29863152D02*
X37157257Y-29910771D01*
X37157257Y-29910771D02*
X37204876Y-30006009D01*
X37204876Y-30006009D02*
X37204876Y-30101247D01*
X37204876Y-30101247D02*
X36728686Y-30196485D01*
X-36463221Y29600181D02*
X-36463221Y30600181D01*
X-36463221Y30600181D02*
X-36082269Y30600181D01*
X-36082269Y30600181D02*
X-35987031Y30552562D01*
X-35987031Y30552562D02*
X-35939412Y30504943D01*
X-35939412Y30504943D02*
X-35891793Y30409705D01*
X-35891793Y30409705D02*
X-35891793Y30266848D01*
X-35891793Y30266848D02*
X-35939412Y30171610D01*
X-35939412Y30171610D02*
X-35987031Y30123991D01*
X-35987031Y30123991D02*
X-36082269Y30076372D01*
X-36082269Y30076372D02*
X-36463221Y30076372D01*
X-35034650Y30266848D02*
X-35034650Y29600181D01*
X-35463221Y30266848D02*
X-35463221Y29743039D01*
X-35463221Y29743039D02*
X-35415602Y29647800D01*
X-35415602Y29647800D02*
X-35320364Y29600181D01*
X-35320364Y29600181D02*
X-35177507Y29600181D01*
X-35177507Y29600181D02*
X-35082269Y29647800D01*
X-35082269Y29647800D02*
X-35034650Y29695420D01*
X-34701316Y30266848D02*
X-34320364Y30266848D01*
X-34558459Y30600181D02*
X-34558459Y29743039D01*
X-34558459Y29743039D02*
X-34510840Y29647800D01*
X-34510840Y29647800D02*
X-34415602Y29600181D01*
X-34415602Y29600181D02*
X-34320364Y29600181D01*
X-33225125Y29600181D02*
X-33225125Y30266848D01*
X-33225125Y30171610D02*
X-33177506Y30219229D01*
X-33177506Y30219229D02*
X-33082268Y30266848D01*
X-33082268Y30266848D02*
X-32939411Y30266848D01*
X-32939411Y30266848D02*
X-32844173Y30219229D01*
X-32844173Y30219229D02*
X-32796554Y30123991D01*
X-32796554Y30123991D02*
X-32796554Y29600181D01*
X-32796554Y30123991D02*
X-32748935Y30219229D01*
X-32748935Y30219229D02*
X-32653697Y30266848D01*
X-32653697Y30266848D02*
X-32510840Y30266848D01*
X-32510840Y30266848D02*
X-32415601Y30219229D01*
X-32415601Y30219229D02*
X-32367982Y30123991D01*
X-32367982Y30123991D02*
X-32367982Y29600181D01*
X-31748935Y29600181D02*
X-31844173Y29647800D01*
X-31844173Y29647800D02*
X-31891792Y29695420D01*
X-31891792Y29695420D02*
X-31939411Y29790658D01*
X-31939411Y29790658D02*
X-31939411Y30076372D01*
X-31939411Y30076372D02*
X-31891792Y30171610D01*
X-31891792Y30171610D02*
X-31844173Y30219229D01*
X-31844173Y30219229D02*
X-31748935Y30266848D01*
X-31748935Y30266848D02*
X-31606078Y30266848D01*
X-31606078Y30266848D02*
X-31510840Y30219229D01*
X-31510840Y30219229D02*
X-31463221Y30171610D01*
X-31463221Y30171610D02*
X-31415602Y30076372D01*
X-31415602Y30076372D02*
X-31415602Y29790658D01*
X-31415602Y29790658D02*
X-31463221Y29695420D01*
X-31463221Y29695420D02*
X-31510840Y29647800D01*
X-31510840Y29647800D02*
X-31606078Y29600181D01*
X-31606078Y29600181D02*
X-31748935Y29600181D01*
X-30558459Y30266848D02*
X-30558459Y29600181D01*
X-30987030Y30266848D02*
X-30987030Y29743039D01*
X-30987030Y29743039D02*
X-30939411Y29647800D01*
X-30939411Y29647800D02*
X-30844173Y29600181D01*
X-30844173Y29600181D02*
X-30701316Y29600181D01*
X-30701316Y29600181D02*
X-30606078Y29647800D01*
X-30606078Y29647800D02*
X-30558459Y29695420D01*
X-30129887Y29647800D02*
X-30034649Y29600181D01*
X-30034649Y29600181D02*
X-29844173Y29600181D01*
X-29844173Y29600181D02*
X-29748935Y29647800D01*
X-29748935Y29647800D02*
X-29701316Y29743039D01*
X-29701316Y29743039D02*
X-29701316Y29790658D01*
X-29701316Y29790658D02*
X-29748935Y29885896D01*
X-29748935Y29885896D02*
X-29844173Y29933515D01*
X-29844173Y29933515D02*
X-29987030Y29933515D01*
X-29987030Y29933515D02*
X-30082268Y29981134D01*
X-30082268Y29981134D02*
X-30129887Y30076372D01*
X-30129887Y30076372D02*
X-30129887Y30123991D01*
X-30129887Y30123991D02*
X-30082268Y30219229D01*
X-30082268Y30219229D02*
X-29987030Y30266848D01*
X-29987030Y30266848D02*
X-29844173Y30266848D01*
X-29844173Y30266848D02*
X-29748935Y30219229D01*
X-28891792Y29647800D02*
X-28987030Y29600181D01*
X-28987030Y29600181D02*
X-29177506Y29600181D01*
X-29177506Y29600181D02*
X-29272744Y29647800D01*
X-29272744Y29647800D02*
X-29320363Y29743039D01*
X-29320363Y29743039D02*
X-29320363Y30123991D01*
X-29320363Y30123991D02*
X-29272744Y30219229D01*
X-29272744Y30219229D02*
X-29177506Y30266848D01*
X-29177506Y30266848D02*
X-28987030Y30266848D01*
X-28987030Y30266848D02*
X-28891792Y30219229D01*
X-28891792Y30219229D02*
X-28844173Y30123991D01*
X-28844173Y30123991D02*
X-28844173Y30028753D01*
X-28844173Y30028753D02*
X-29320363Y29933515D01*
X-28415601Y29600181D02*
X-28415601Y30600181D01*
X-28415601Y30219229D02*
X-28320363Y30266848D01*
X-28320363Y30266848D02*
X-28129887Y30266848D01*
X-28129887Y30266848D02*
X-28034649Y30219229D01*
X-28034649Y30219229D02*
X-27987030Y30171610D01*
X-27987030Y30171610D02*
X-27939411Y30076372D01*
X-27939411Y30076372D02*
X-27939411Y29790658D01*
X-27939411Y29790658D02*
X-27987030Y29695420D01*
X-27987030Y29695420D02*
X-28034649Y29647800D01*
X-28034649Y29647800D02*
X-28129887Y29600181D01*
X-28129887Y29600181D02*
X-28320363Y29600181D01*
X-28320363Y29600181D02*
X-28415601Y29647800D01*
X-27510839Y29600181D02*
X-27510839Y30266848D01*
X-27510839Y30600181D02*
X-27558458Y30552562D01*
X-27558458Y30552562D02*
X-27510839Y30504943D01*
X-27510839Y30504943D02*
X-27463220Y30552562D01*
X-27463220Y30552562D02*
X-27510839Y30600181D01*
X-27510839Y30600181D02*
X-27510839Y30504943D01*
X-27177506Y30266848D02*
X-26796554Y30266848D01*
X-27034649Y30600181D02*
X-27034649Y29743039D01*
X-27034649Y29743039D02*
X-26987030Y29647800D01*
X-26987030Y29647800D02*
X-26891792Y29600181D01*
X-26891792Y29600181D02*
X-26796554Y29600181D01*
X-26082268Y29647800D02*
X-26177506Y29600181D01*
X-26177506Y29600181D02*
X-26367982Y29600181D01*
X-26367982Y29600181D02*
X-26463220Y29647800D01*
X-26463220Y29647800D02*
X-26510839Y29743039D01*
X-26510839Y29743039D02*
X-26510839Y30123991D01*
X-26510839Y30123991D02*
X-26463220Y30219229D01*
X-26463220Y30219229D02*
X-26367982Y30266848D01*
X-26367982Y30266848D02*
X-26177506Y30266848D01*
X-26177506Y30266848D02*
X-26082268Y30219229D01*
X-26082268Y30219229D02*
X-26034649Y30123991D01*
X-26034649Y30123991D02*
X-26034649Y30028753D01*
X-26034649Y30028753D02*
X-26510839Y29933515D01*
X-25653696Y29647800D02*
X-25558458Y29600181D01*
X-25558458Y29600181D02*
X-25367982Y29600181D01*
X-25367982Y29600181D02*
X-25272744Y29647800D01*
X-25272744Y29647800D02*
X-25225125Y29743039D01*
X-25225125Y29743039D02*
X-25225125Y29790658D01*
X-25225125Y29790658D02*
X-25272744Y29885896D01*
X-25272744Y29885896D02*
X-25367982Y29933515D01*
X-25367982Y29933515D02*
X-25510839Y29933515D01*
X-25510839Y29933515D02*
X-25606077Y29981134D01*
X-25606077Y29981134D02*
X-25653696Y30076372D01*
X-25653696Y30076372D02*
X-25653696Y30123991D01*
X-25653696Y30123991D02*
X-25606077Y30219229D01*
X-25606077Y30219229D02*
X-25510839Y30266848D01*
X-25510839Y30266848D02*
X-25367982Y30266848D01*
X-25367982Y30266848D02*
X-25272744Y30219229D01*
X-24034648Y29600181D02*
X-24034648Y30600181D01*
X-23606077Y29600181D02*
X-23606077Y30123991D01*
X-23606077Y30123991D02*
X-23653696Y30219229D01*
X-23653696Y30219229D02*
X-23748934Y30266848D01*
X-23748934Y30266848D02*
X-23891791Y30266848D01*
X-23891791Y30266848D02*
X-23987029Y30219229D01*
X-23987029Y30219229D02*
X-24034648Y30171610D01*
X-22748934Y29647800D02*
X-22844172Y29600181D01*
X-22844172Y29600181D02*
X-23034648Y29600181D01*
X-23034648Y29600181D02*
X-23129886Y29647800D01*
X-23129886Y29647800D02*
X-23177505Y29743039D01*
X-23177505Y29743039D02*
X-23177505Y30123991D01*
X-23177505Y30123991D02*
X-23129886Y30219229D01*
X-23129886Y30219229D02*
X-23034648Y30266848D01*
X-23034648Y30266848D02*
X-22844172Y30266848D01*
X-22844172Y30266848D02*
X-22748934Y30219229D01*
X-22748934Y30219229D02*
X-22701315Y30123991D01*
X-22701315Y30123991D02*
X-22701315Y30028753D01*
X-22701315Y30028753D02*
X-23177505Y29933515D01*
X-22272743Y29600181D02*
X-22272743Y30266848D01*
X-22272743Y30076372D02*
X-22225124Y30171610D01*
X-22225124Y30171610D02*
X-22177505Y30219229D01*
X-22177505Y30219229D02*
X-22082267Y30266848D01*
X-22082267Y30266848D02*
X-21987029Y30266848D01*
X-21272743Y29647800D02*
X-21367981Y29600181D01*
X-21367981Y29600181D02*
X-21558457Y29600181D01*
X-21558457Y29600181D02*
X-21653695Y29647800D01*
X-21653695Y29647800D02*
X-21701314Y29743039D01*
X-21701314Y29743039D02*
X-21701314Y30123991D01*
X-21701314Y30123991D02*
X-21653695Y30219229D01*
X-21653695Y30219229D02*
X-21558457Y30266848D01*
X-21558457Y30266848D02*
X-21367981Y30266848D01*
X-21367981Y30266848D02*
X-21272743Y30219229D01*
X-21272743Y30219229D02*
X-21225124Y30123991D01*
X-21225124Y30123991D02*
X-21225124Y30028753D01*
X-21225124Y30028753D02*
X-21701314Y29933515D01*
X-6480840Y35845896D02*
X-6004650Y35845896D01*
X-6576078Y35560181D02*
X-6242745Y36560181D01*
X-6242745Y36560181D02*
X-5909412Y35560181D01*
X-5623697Y35607800D02*
X-5528459Y35560181D01*
X-5528459Y35560181D02*
X-5337983Y35560181D01*
X-5337983Y35560181D02*
X-5242745Y35607800D01*
X-5242745Y35607800D02*
X-5195126Y35703039D01*
X-5195126Y35703039D02*
X-5195126Y35750658D01*
X-5195126Y35750658D02*
X-5242745Y35845896D01*
X-5242745Y35845896D02*
X-5337983Y35893515D01*
X-5337983Y35893515D02*
X-5480840Y35893515D01*
X-5480840Y35893515D02*
X-5576078Y35941134D01*
X-5576078Y35941134D02*
X-5623697Y36036372D01*
X-5623697Y36036372D02*
X-5623697Y36083991D01*
X-5623697Y36083991D02*
X-5576078Y36179229D01*
X-5576078Y36179229D02*
X-5480840Y36226848D01*
X-5480840Y36226848D02*
X-5337983Y36226848D01*
X-5337983Y36226848D02*
X-5242745Y36179229D01*
X-4814173Y35607800D02*
X-4718935Y35560181D01*
X-4718935Y35560181D02*
X-4528459Y35560181D01*
X-4528459Y35560181D02*
X-4433221Y35607800D01*
X-4433221Y35607800D02*
X-4385602Y35703039D01*
X-4385602Y35703039D02*
X-4385602Y35750658D01*
X-4385602Y35750658D02*
X-4433221Y35845896D01*
X-4433221Y35845896D02*
X-4528459Y35893515D01*
X-4528459Y35893515D02*
X-4671316Y35893515D01*
X-4671316Y35893515D02*
X-4766554Y35941134D01*
X-4766554Y35941134D02*
X-4814173Y36036372D01*
X-4814173Y36036372D02*
X-4814173Y36083991D01*
X-4814173Y36083991D02*
X-4766554Y36179229D01*
X-4766554Y36179229D02*
X-4671316Y36226848D01*
X-4671316Y36226848D02*
X-4528459Y36226848D01*
X-4528459Y36226848D02*
X-4433221Y36179229D01*
X-3576078Y35607800D02*
X-3671316Y35560181D01*
X-3671316Y35560181D02*
X-3861792Y35560181D01*
X-3861792Y35560181D02*
X-3957030Y35607800D01*
X-3957030Y35607800D02*
X-4004649Y35703039D01*
X-4004649Y35703039D02*
X-4004649Y36083991D01*
X-4004649Y36083991D02*
X-3957030Y36179229D01*
X-3957030Y36179229D02*
X-3861792Y36226848D01*
X-3861792Y36226848D02*
X-3671316Y36226848D01*
X-3671316Y36226848D02*
X-3576078Y36179229D01*
X-3576078Y36179229D02*
X-3528459Y36083991D01*
X-3528459Y36083991D02*
X-3528459Y35988753D01*
X-3528459Y35988753D02*
X-4004649Y35893515D01*
X-3099887Y35560181D02*
X-3099887Y36226848D01*
X-3099887Y36131610D02*
X-3052268Y36179229D01*
X-3052268Y36179229D02*
X-2957030Y36226848D01*
X-2957030Y36226848D02*
X-2814173Y36226848D01*
X-2814173Y36226848D02*
X-2718935Y36179229D01*
X-2718935Y36179229D02*
X-2671316Y36083991D01*
X-2671316Y36083991D02*
X-2671316Y35560181D01*
X-2671316Y36083991D02*
X-2623697Y36179229D01*
X-2623697Y36179229D02*
X-2528459Y36226848D01*
X-2528459Y36226848D02*
X-2385602Y36226848D01*
X-2385602Y36226848D02*
X-2290363Y36179229D01*
X-2290363Y36179229D02*
X-2242744Y36083991D01*
X-2242744Y36083991D02*
X-2242744Y35560181D01*
X-1766554Y35560181D02*
X-1766554Y36560181D01*
X-1766554Y36179229D02*
X-1671316Y36226848D01*
X-1671316Y36226848D02*
X-1480840Y36226848D01*
X-1480840Y36226848D02*
X-1385602Y36179229D01*
X-1385602Y36179229D02*
X-1337983Y36131610D01*
X-1337983Y36131610D02*
X-1290364Y36036372D01*
X-1290364Y36036372D02*
X-1290364Y35750658D01*
X-1290364Y35750658D02*
X-1337983Y35655420D01*
X-1337983Y35655420D02*
X-1385602Y35607800D01*
X-1385602Y35607800D02*
X-1480840Y35560181D01*
X-1480840Y35560181D02*
X-1671316Y35560181D01*
X-1671316Y35560181D02*
X-1766554Y35607800D01*
X-718935Y35560181D02*
X-814173Y35607800D01*
X-814173Y35607800D02*
X-861792Y35703039D01*
X-861792Y35703039D02*
X-861792Y36560181D01*
X-433220Y36226848D02*
X-195125Y35560181D01*
X42970Y36226848D02*
X-195125Y35560181D01*
X-195125Y35560181D02*
X-290363Y35322086D01*
X-290363Y35322086D02*
X-337982Y35274467D01*
X-337982Y35274467D02*
X-433220Y35226848D01*
X1185828Y35560181D02*
X1185828Y36226848D01*
X1185828Y36131610D02*
X1233447Y36179229D01*
X1233447Y36179229D02*
X1328685Y36226848D01*
X1328685Y36226848D02*
X1471542Y36226848D01*
X1471542Y36226848D02*
X1566780Y36179229D01*
X1566780Y36179229D02*
X1614399Y36083991D01*
X1614399Y36083991D02*
X1614399Y35560181D01*
X1614399Y36083991D02*
X1662018Y36179229D01*
X1662018Y36179229D02*
X1757256Y36226848D01*
X1757256Y36226848D02*
X1900113Y36226848D01*
X1900113Y36226848D02*
X1995352Y36179229D01*
X1995352Y36179229D02*
X2042971Y36083991D01*
X2042971Y36083991D02*
X2042971Y35560181D01*
X2662018Y35560181D02*
X2566780Y35607800D01*
X2566780Y35607800D02*
X2519161Y35655420D01*
X2519161Y35655420D02*
X2471542Y35750658D01*
X2471542Y35750658D02*
X2471542Y36036372D01*
X2471542Y36036372D02*
X2519161Y36131610D01*
X2519161Y36131610D02*
X2566780Y36179229D01*
X2566780Y36179229D02*
X2662018Y36226848D01*
X2662018Y36226848D02*
X2804875Y36226848D01*
X2804875Y36226848D02*
X2900113Y36179229D01*
X2900113Y36179229D02*
X2947732Y36131610D01*
X2947732Y36131610D02*
X2995351Y36036372D01*
X2995351Y36036372D02*
X2995351Y35750658D01*
X2995351Y35750658D02*
X2947732Y35655420D01*
X2947732Y35655420D02*
X2900113Y35607800D01*
X2900113Y35607800D02*
X2804875Y35560181D01*
X2804875Y35560181D02*
X2662018Y35560181D01*
X3852494Y36226848D02*
X3852494Y35560181D01*
X3423923Y36226848D02*
X3423923Y35703039D01*
X3423923Y35703039D02*
X3471542Y35607800D01*
X3471542Y35607800D02*
X3566780Y35560181D01*
X3566780Y35560181D02*
X3709637Y35560181D01*
X3709637Y35560181D02*
X3804875Y35607800D01*
X3804875Y35607800D02*
X3852494Y35655420D01*
X4281066Y35607800D02*
X4376304Y35560181D01*
X4376304Y35560181D02*
X4566780Y35560181D01*
X4566780Y35560181D02*
X4662018Y35607800D01*
X4662018Y35607800D02*
X4709637Y35703039D01*
X4709637Y35703039D02*
X4709637Y35750658D01*
X4709637Y35750658D02*
X4662018Y35845896D01*
X4662018Y35845896D02*
X4566780Y35893515D01*
X4566780Y35893515D02*
X4423923Y35893515D01*
X4423923Y35893515D02*
X4328685Y35941134D01*
X4328685Y35941134D02*
X4281066Y36036372D01*
X4281066Y36036372D02*
X4281066Y36083991D01*
X4281066Y36083991D02*
X4328685Y36179229D01*
X4328685Y36179229D02*
X4423923Y36226848D01*
X4423923Y36226848D02*
X4566780Y36226848D01*
X4566780Y36226848D02*
X4662018Y36179229D01*
X5519161Y35607800D02*
X5423923Y35560181D01*
X5423923Y35560181D02*
X5233447Y35560181D01*
X5233447Y35560181D02*
X5138209Y35607800D01*
X5138209Y35607800D02*
X5090590Y35703039D01*
X5090590Y35703039D02*
X5090590Y36083991D01*
X5090590Y36083991D02*
X5138209Y36179229D01*
X5138209Y36179229D02*
X5233447Y36226848D01*
X5233447Y36226848D02*
X5423923Y36226848D01*
X5423923Y36226848D02*
X5519161Y36179229D01*
X5519161Y36179229D02*
X5566780Y36083991D01*
X5566780Y36083991D02*
X5566780Y35988753D01*
X5566780Y35988753D02*
X5090590Y35893515D01*
X5995352Y35560181D02*
X5995352Y36560181D01*
X5995352Y36179229D02*
X6090590Y36226848D01*
X6090590Y36226848D02*
X6281066Y36226848D01*
X6281066Y36226848D02*
X6376304Y36179229D01*
X6376304Y36179229D02*
X6423923Y36131610D01*
X6423923Y36131610D02*
X6471542Y36036372D01*
X6471542Y36036372D02*
X6471542Y35750658D01*
X6471542Y35750658D02*
X6423923Y35655420D01*
X6423923Y35655420D02*
X6376304Y35607800D01*
X6376304Y35607800D02*
X6281066Y35560181D01*
X6281066Y35560181D02*
X6090590Y35560181D01*
X6090590Y35560181D02*
X5995352Y35607800D01*
X6900114Y35560181D02*
X6900114Y36226848D01*
X6900114Y36560181D02*
X6852495Y36512562D01*
X6852495Y36512562D02*
X6900114Y36464943D01*
X6900114Y36464943D02*
X6947733Y36512562D01*
X6947733Y36512562D02*
X6900114Y36560181D01*
X6900114Y36560181D02*
X6900114Y36464943D01*
X7233447Y36226848D02*
X7614399Y36226848D01*
X7376304Y36560181D02*
X7376304Y35703039D01*
X7376304Y35703039D02*
X7423923Y35607800D01*
X7423923Y35607800D02*
X7519161Y35560181D01*
X7519161Y35560181D02*
X7614399Y35560181D01*
X8328685Y35607800D02*
X8233447Y35560181D01*
X8233447Y35560181D02*
X8042971Y35560181D01*
X8042971Y35560181D02*
X7947733Y35607800D01*
X7947733Y35607800D02*
X7900114Y35703039D01*
X7900114Y35703039D02*
X7900114Y36083991D01*
X7900114Y36083991D02*
X7947733Y36179229D01*
X7947733Y36179229D02*
X8042971Y36226848D01*
X8042971Y36226848D02*
X8233447Y36226848D01*
X8233447Y36226848D02*
X8328685Y36179229D01*
X8328685Y36179229D02*
X8376304Y36083991D01*
X8376304Y36083991D02*
X8376304Y35988753D01*
X8376304Y35988753D02*
X7900114Y35893515D01*
X8757257Y35607800D02*
X8852495Y35560181D01*
X8852495Y35560181D02*
X9042971Y35560181D01*
X9042971Y35560181D02*
X9138209Y35607800D01*
X9138209Y35607800D02*
X9185828Y35703039D01*
X9185828Y35703039D02*
X9185828Y35750658D01*
X9185828Y35750658D02*
X9138209Y35845896D01*
X9138209Y35845896D02*
X9042971Y35893515D01*
X9042971Y35893515D02*
X8900114Y35893515D01*
X8900114Y35893515D02*
X8804876Y35941134D01*
X8804876Y35941134D02*
X8757257Y36036372D01*
X8757257Y36036372D02*
X8757257Y36083991D01*
X8757257Y36083991D02*
X8804876Y36179229D01*
X8804876Y36179229D02*
X8900114Y36226848D01*
X8900114Y36226848D02*
X9042971Y36226848D01*
X9042971Y36226848D02*
X9138209Y36179229D01*
X10233448Y36226848D02*
X10614400Y36226848D01*
X10376305Y36560181D02*
X10376305Y35703039D01*
X10376305Y35703039D02*
X10423924Y35607800D01*
X10423924Y35607800D02*
X10519162Y35560181D01*
X10519162Y35560181D02*
X10614400Y35560181D01*
X11090591Y35560181D02*
X10995353Y35607800D01*
X10995353Y35607800D02*
X10947734Y35655420D01*
X10947734Y35655420D02*
X10900115Y35750658D01*
X10900115Y35750658D02*
X10900115Y36036372D01*
X10900115Y36036372D02*
X10947734Y36131610D01*
X10947734Y36131610D02*
X10995353Y36179229D01*
X10995353Y36179229D02*
X11090591Y36226848D01*
X11090591Y36226848D02*
X11233448Y36226848D01*
X11233448Y36226848D02*
X11328686Y36179229D01*
X11328686Y36179229D02*
X11376305Y36131610D01*
X11376305Y36131610D02*
X11423924Y36036372D01*
X11423924Y36036372D02*
X11423924Y35750658D01*
X11423924Y35750658D02*
X11376305Y35655420D01*
X11376305Y35655420D02*
X11328686Y35607800D01*
X11328686Y35607800D02*
X11233448Y35560181D01*
X11233448Y35560181D02*
X11090591Y35560181D01*
X12614401Y35560181D02*
X12614401Y36560181D01*
X12614401Y36179229D02*
X12709639Y36226848D01*
X12709639Y36226848D02*
X12900115Y36226848D01*
X12900115Y36226848D02*
X12995353Y36179229D01*
X12995353Y36179229D02*
X13042972Y36131610D01*
X13042972Y36131610D02*
X13090591Y36036372D01*
X13090591Y36036372D02*
X13090591Y35750658D01*
X13090591Y35750658D02*
X13042972Y35655420D01*
X13042972Y35655420D02*
X12995353Y35607800D01*
X12995353Y35607800D02*
X12900115Y35560181D01*
X12900115Y35560181D02*
X12709639Y35560181D01*
X12709639Y35560181D02*
X12614401Y35607800D01*
X13900115Y35607800D02*
X13804877Y35560181D01*
X13804877Y35560181D02*
X13614401Y35560181D01*
X13614401Y35560181D02*
X13519163Y35607800D01*
X13519163Y35607800D02*
X13471544Y35703039D01*
X13471544Y35703039D02*
X13471544Y36083991D01*
X13471544Y36083991D02*
X13519163Y36179229D01*
X13519163Y36179229D02*
X13614401Y36226848D01*
X13614401Y36226848D02*
X13804877Y36226848D01*
X13804877Y36226848D02*
X13900115Y36179229D01*
X13900115Y36179229D02*
X13947734Y36083991D01*
X13947734Y36083991D02*
X13947734Y35988753D01*
X13947734Y35988753D02*
X13471544Y35893515D01*
X15138211Y36226848D02*
X15138211Y35226848D01*
X15138211Y36179229D02*
X15233449Y36226848D01*
X15233449Y36226848D02*
X15423925Y36226848D01*
X15423925Y36226848D02*
X15519163Y36179229D01*
X15519163Y36179229D02*
X15566782Y36131610D01*
X15566782Y36131610D02*
X15614401Y36036372D01*
X15614401Y36036372D02*
X15614401Y35750658D01*
X15614401Y35750658D02*
X15566782Y35655420D01*
X15566782Y35655420D02*
X15519163Y35607800D01*
X15519163Y35607800D02*
X15423925Y35560181D01*
X15423925Y35560181D02*
X15233449Y35560181D01*
X15233449Y35560181D02*
X15138211Y35607800D01*
X16471544Y36226848D02*
X16471544Y35560181D01*
X16042973Y36226848D02*
X16042973Y35703039D01*
X16042973Y35703039D02*
X16090592Y35607800D01*
X16090592Y35607800D02*
X16185830Y35560181D01*
X16185830Y35560181D02*
X16328687Y35560181D01*
X16328687Y35560181D02*
X16423925Y35607800D01*
X16423925Y35607800D02*
X16471544Y35655420D01*
X16804878Y36226848D02*
X17185830Y36226848D01*
X16947735Y36560181D02*
X16947735Y35703039D01*
X16947735Y35703039D02*
X16995354Y35607800D01*
X16995354Y35607800D02*
X17090592Y35560181D01*
X17090592Y35560181D02*
X17185830Y35560181D01*
X18423926Y35560181D02*
X18328688Y35607800D01*
X18328688Y35607800D02*
X18281069Y35655420D01*
X18281069Y35655420D02*
X18233450Y35750658D01*
X18233450Y35750658D02*
X18233450Y36036372D01*
X18233450Y36036372D02*
X18281069Y36131610D01*
X18281069Y36131610D02*
X18328688Y36179229D01*
X18328688Y36179229D02*
X18423926Y36226848D01*
X18423926Y36226848D02*
X18566783Y36226848D01*
X18566783Y36226848D02*
X18662021Y36179229D01*
X18662021Y36179229D02*
X18709640Y36131610D01*
X18709640Y36131610D02*
X18757259Y36036372D01*
X18757259Y36036372D02*
X18757259Y35750658D01*
X18757259Y35750658D02*
X18709640Y35655420D01*
X18709640Y35655420D02*
X18662021Y35607800D01*
X18662021Y35607800D02*
X18566783Y35560181D01*
X18566783Y35560181D02*
X18423926Y35560181D01*
X19185831Y36226848D02*
X19185831Y35560181D01*
X19185831Y36131610D02*
X19233450Y36179229D01*
X19233450Y36179229D02*
X19328688Y36226848D01*
X19328688Y36226848D02*
X19471545Y36226848D01*
X19471545Y36226848D02*
X19566783Y36179229D01*
X19566783Y36179229D02*
X19614402Y36083991D01*
X19614402Y36083991D02*
X19614402Y35560181D01*
X20709641Y36226848D02*
X21090593Y36226848D01*
X20852498Y35560181D02*
X20852498Y36417324D01*
X20852498Y36417324D02*
X20900117Y36512562D01*
X20900117Y36512562D02*
X20995355Y36560181D01*
X20995355Y36560181D02*
X21090593Y36560181D01*
X21566784Y35560181D02*
X21471546Y35607800D01*
X21471546Y35607800D02*
X21423927Y35703039D01*
X21423927Y35703039D02*
X21423927Y36560181D01*
X22376308Y35560181D02*
X22376308Y36083991D01*
X22376308Y36083991D02*
X22328689Y36179229D01*
X22328689Y36179229D02*
X22233451Y36226848D01*
X22233451Y36226848D02*
X22042975Y36226848D01*
X22042975Y36226848D02*
X21947737Y36179229D01*
X22376308Y35607800D02*
X22281070Y35560181D01*
X22281070Y35560181D02*
X22042975Y35560181D01*
X22042975Y35560181D02*
X21947737Y35607800D01*
X21947737Y35607800D02*
X21900118Y35703039D01*
X21900118Y35703039D02*
X21900118Y35798277D01*
X21900118Y35798277D02*
X21947737Y35893515D01*
X21947737Y35893515D02*
X22042975Y35941134D01*
X22042975Y35941134D02*
X22281070Y35941134D01*
X22281070Y35941134D02*
X22376308Y35988753D01*
X22709642Y36226848D02*
X23090594Y36226848D01*
X22852499Y36560181D02*
X22852499Y35703039D01*
X22852499Y35703039D02*
X22900118Y35607800D01*
X22900118Y35607800D02*
X22995356Y35560181D01*
X22995356Y35560181D02*
X23090594Y35560181D01*
X24185833Y36226848D02*
X24185833Y35226848D01*
X24185833Y36179229D02*
X24281071Y36226848D01*
X24281071Y36226848D02*
X24471547Y36226848D01*
X24471547Y36226848D02*
X24566785Y36179229D01*
X24566785Y36179229D02*
X24614404Y36131610D01*
X24614404Y36131610D02*
X24662023Y36036372D01*
X24662023Y36036372D02*
X24662023Y35750658D01*
X24662023Y35750658D02*
X24614404Y35655420D01*
X24614404Y35655420D02*
X24566785Y35607800D01*
X24566785Y35607800D02*
X24471547Y35560181D01*
X24471547Y35560181D02*
X24281071Y35560181D01*
X24281071Y35560181D02*
X24185833Y35607800D01*
X25233452Y35560181D02*
X25138214Y35607800D01*
X25138214Y35607800D02*
X25090595Y35655420D01*
X25090595Y35655420D02*
X25042976Y35750658D01*
X25042976Y35750658D02*
X25042976Y36036372D01*
X25042976Y36036372D02*
X25090595Y36131610D01*
X25090595Y36131610D02*
X25138214Y36179229D01*
X25138214Y36179229D02*
X25233452Y36226848D01*
X25233452Y36226848D02*
X25376309Y36226848D01*
X25376309Y36226848D02*
X25471547Y36179229D01*
X25471547Y36179229D02*
X25519166Y36131610D01*
X25519166Y36131610D02*
X25566785Y36036372D01*
X25566785Y36036372D02*
X25566785Y35750658D01*
X25566785Y35750658D02*
X25519166Y35655420D01*
X25519166Y35655420D02*
X25471547Y35607800D01*
X25471547Y35607800D02*
X25376309Y35560181D01*
X25376309Y35560181D02*
X25233452Y35560181D01*
X25995357Y35560181D02*
X25995357Y36226848D01*
X25995357Y36036372D02*
X26042976Y36131610D01*
X26042976Y36131610D02*
X26090595Y36179229D01*
X26090595Y36179229D02*
X26185833Y36226848D01*
X26185833Y36226848D02*
X26281071Y36226848D01*
X26471548Y36226848D02*
X26852500Y36226848D01*
X26614405Y36560181D02*
X26614405Y35703039D01*
X26614405Y35703039D02*
X26662024Y35607800D01*
X26662024Y35607800D02*
X26757262Y35560181D01*
X26757262Y35560181D02*
X26852500Y35560181D01*
X27185834Y35560181D02*
X27185834Y36226848D01*
X27185834Y36560181D02*
X27138215Y36512562D01*
X27138215Y36512562D02*
X27185834Y36464943D01*
X27185834Y36464943D02*
X27233453Y36512562D01*
X27233453Y36512562D02*
X27185834Y36560181D01*
X27185834Y36560181D02*
X27185834Y36464943D01*
X27804881Y35560181D02*
X27709643Y35607800D01*
X27709643Y35607800D02*
X27662024Y35655420D01*
X27662024Y35655420D02*
X27614405Y35750658D01*
X27614405Y35750658D02*
X27614405Y36036372D01*
X27614405Y36036372D02*
X27662024Y36131610D01*
X27662024Y36131610D02*
X27709643Y36179229D01*
X27709643Y36179229D02*
X27804881Y36226848D01*
X27804881Y36226848D02*
X27947738Y36226848D01*
X27947738Y36226848D02*
X28042976Y36179229D01*
X28042976Y36179229D02*
X28090595Y36131610D01*
X28090595Y36131610D02*
X28138214Y36036372D01*
X28138214Y36036372D02*
X28138214Y35750658D01*
X28138214Y35750658D02*
X28090595Y35655420D01*
X28090595Y35655420D02*
X28042976Y35607800D01*
X28042976Y35607800D02*
X27947738Y35560181D01*
X27947738Y35560181D02*
X27804881Y35560181D01*
X28566786Y36226848D02*
X28566786Y35560181D01*
X28566786Y36131610D02*
X28614405Y36179229D01*
X28614405Y36179229D02*
X28709643Y36226848D01*
X28709643Y36226848D02*
X28852500Y36226848D01*
X28852500Y36226848D02*
X28947738Y36179229D01*
X28947738Y36179229D02*
X28995357Y36083991D01*
X28995357Y36083991D02*
X28995357Y35560181D01*
X29423929Y35607800D02*
X29519167Y35560181D01*
X29519167Y35560181D02*
X29709643Y35560181D01*
X29709643Y35560181D02*
X29804881Y35607800D01*
X29804881Y35607800D02*
X29852500Y35703039D01*
X29852500Y35703039D02*
X29852500Y35750658D01*
X29852500Y35750658D02*
X29804881Y35845896D01*
X29804881Y35845896D02*
X29709643Y35893515D01*
X29709643Y35893515D02*
X29566786Y35893515D01*
X29566786Y35893515D02*
X29471548Y35941134D01*
X29471548Y35941134D02*
X29423929Y36036372D01*
X29423929Y36036372D02*
X29423929Y36083991D01*
X29423929Y36083991D02*
X29471548Y36179229D01*
X29471548Y36179229D02*
X29566786Y36226848D01*
X29566786Y36226848D02*
X29709643Y36226848D01*
X29709643Y36226848D02*
X29804881Y36179229D01*
X31185834Y35560181D02*
X31090596Y35607800D01*
X31090596Y35607800D02*
X31042977Y35655420D01*
X31042977Y35655420D02*
X30995358Y35750658D01*
X30995358Y35750658D02*
X30995358Y36036372D01*
X30995358Y36036372D02*
X31042977Y36131610D01*
X31042977Y36131610D02*
X31090596Y36179229D01*
X31090596Y36179229D02*
X31185834Y36226848D01*
X31185834Y36226848D02*
X31328691Y36226848D01*
X31328691Y36226848D02*
X31423929Y36179229D01*
X31423929Y36179229D02*
X31471548Y36131610D01*
X31471548Y36131610D02*
X31519167Y36036372D01*
X31519167Y36036372D02*
X31519167Y35750658D01*
X31519167Y35750658D02*
X31471548Y35655420D01*
X31471548Y35655420D02*
X31423929Y35607800D01*
X31423929Y35607800D02*
X31328691Y35560181D01*
X31328691Y35560181D02*
X31185834Y35560181D01*
X31804882Y36226848D02*
X32185834Y36226848D01*
X31947739Y35560181D02*
X31947739Y36417324D01*
X31947739Y36417324D02*
X31995358Y36512562D01*
X31995358Y36512562D02*
X32090596Y36560181D01*
X32090596Y36560181D02*
X32185834Y36560181D01*
X33281073Y35560181D02*
X33281073Y36560181D01*
X33281073Y36560181D02*
X33662025Y36560181D01*
X33662025Y36560181D02*
X33757263Y36512562D01*
X33757263Y36512562D02*
X33804882Y36464943D01*
X33804882Y36464943D02*
X33852501Y36369705D01*
X33852501Y36369705D02*
X33852501Y36226848D01*
X33852501Y36226848D02*
X33804882Y36131610D01*
X33804882Y36131610D02*
X33757263Y36083991D01*
X33757263Y36083991D02*
X33662025Y36036372D01*
X33662025Y36036372D02*
X33281073Y36036372D01*
X34852501Y35655420D02*
X34804882Y35607800D01*
X34804882Y35607800D02*
X34662025Y35560181D01*
X34662025Y35560181D02*
X34566787Y35560181D01*
X34566787Y35560181D02*
X34423930Y35607800D01*
X34423930Y35607800D02*
X34328692Y35703039D01*
X34328692Y35703039D02*
X34281073Y35798277D01*
X34281073Y35798277D02*
X34233454Y35988753D01*
X34233454Y35988753D02*
X34233454Y36131610D01*
X34233454Y36131610D02*
X34281073Y36322086D01*
X34281073Y36322086D02*
X34328692Y36417324D01*
X34328692Y36417324D02*
X34423930Y36512562D01*
X34423930Y36512562D02*
X34566787Y36560181D01*
X34566787Y36560181D02*
X34662025Y36560181D01*
X34662025Y36560181D02*
X34804882Y36512562D01*
X34804882Y36512562D02*
X34852501Y36464943D01*
X35614406Y36083991D02*
X35757263Y36036372D01*
X35757263Y36036372D02*
X35804882Y35988753D01*
X35804882Y35988753D02*
X35852501Y35893515D01*
X35852501Y35893515D02*
X35852501Y35750658D01*
X35852501Y35750658D02*
X35804882Y35655420D01*
X35804882Y35655420D02*
X35757263Y35607800D01*
X35757263Y35607800D02*
X35662025Y35560181D01*
X35662025Y35560181D02*
X35281073Y35560181D01*
X35281073Y35560181D02*
X35281073Y36560181D01*
X35281073Y36560181D02*
X35614406Y36560181D01*
X35614406Y36560181D02*
X35709644Y36512562D01*
X35709644Y36512562D02*
X35757263Y36464943D01*
X35757263Y36464943D02*
X35804882Y36369705D01*
X35804882Y36369705D02*
X35804882Y36274467D01*
X35804882Y36274467D02*
X35757263Y36179229D01*
X35757263Y36179229D02*
X35709644Y36131610D01*
X35709644Y36131610D02*
X35614406Y36083991D01*
X35614406Y36083991D02*
X35281073Y36083991D01*
X-34853221Y-30929819D02*
X-34853221Y-29929819D01*
X-34853221Y-29929819D02*
X-34472269Y-29929819D01*
X-34472269Y-29929819D02*
X-34377031Y-29977438D01*
X-34377031Y-29977438D02*
X-34329412Y-30025057D01*
X-34329412Y-30025057D02*
X-34281793Y-30120295D01*
X-34281793Y-30120295D02*
X-34281793Y-30263152D01*
X-34281793Y-30263152D02*
X-34329412Y-30358390D01*
X-34329412Y-30358390D02*
X-34377031Y-30406009D01*
X-34377031Y-30406009D02*
X-34472269Y-30453628D01*
X-34472269Y-30453628D02*
X-34853221Y-30453628D01*
X-33424650Y-30263152D02*
X-33424650Y-30929819D01*
X-33853221Y-30263152D02*
X-33853221Y-30786961D01*
X-33853221Y-30786961D02*
X-33805602Y-30882200D01*
X-33805602Y-30882200D02*
X-33710364Y-30929819D01*
X-33710364Y-30929819D02*
X-33567507Y-30929819D01*
X-33567507Y-30929819D02*
X-33472269Y-30882200D01*
X-33472269Y-30882200D02*
X-33424650Y-30834580D01*
X-33091316Y-30263152D02*
X-32710364Y-30263152D01*
X-32948459Y-29929819D02*
X-32948459Y-30786961D01*
X-32948459Y-30786961D02*
X-32900840Y-30882200D01*
X-32900840Y-30882200D02*
X-32805602Y-30929819D01*
X-32805602Y-30929819D02*
X-32710364Y-30929819D01*
X-31615125Y-30929819D02*
X-31615125Y-30263152D01*
X-31615125Y-30358390D02*
X-31567506Y-30310771D01*
X-31567506Y-30310771D02*
X-31472268Y-30263152D01*
X-31472268Y-30263152D02*
X-31329411Y-30263152D01*
X-31329411Y-30263152D02*
X-31234173Y-30310771D01*
X-31234173Y-30310771D02*
X-31186554Y-30406009D01*
X-31186554Y-30406009D02*
X-31186554Y-30929819D01*
X-31186554Y-30406009D02*
X-31138935Y-30310771D01*
X-31138935Y-30310771D02*
X-31043697Y-30263152D01*
X-31043697Y-30263152D02*
X-30900840Y-30263152D01*
X-30900840Y-30263152D02*
X-30805601Y-30310771D01*
X-30805601Y-30310771D02*
X-30757982Y-30406009D01*
X-30757982Y-30406009D02*
X-30757982Y-30929819D01*
X-30138935Y-30929819D02*
X-30234173Y-30882200D01*
X-30234173Y-30882200D02*
X-30281792Y-30834580D01*
X-30281792Y-30834580D02*
X-30329411Y-30739342D01*
X-30329411Y-30739342D02*
X-30329411Y-30453628D01*
X-30329411Y-30453628D02*
X-30281792Y-30358390D01*
X-30281792Y-30358390D02*
X-30234173Y-30310771D01*
X-30234173Y-30310771D02*
X-30138935Y-30263152D01*
X-30138935Y-30263152D02*
X-29996078Y-30263152D01*
X-29996078Y-30263152D02*
X-29900840Y-30310771D01*
X-29900840Y-30310771D02*
X-29853221Y-30358390D01*
X-29853221Y-30358390D02*
X-29805602Y-30453628D01*
X-29805602Y-30453628D02*
X-29805602Y-30739342D01*
X-29805602Y-30739342D02*
X-29853221Y-30834580D01*
X-29853221Y-30834580D02*
X-29900840Y-30882200D01*
X-29900840Y-30882200D02*
X-29996078Y-30929819D01*
X-29996078Y-30929819D02*
X-30138935Y-30929819D01*
X-28948459Y-30263152D02*
X-28948459Y-30929819D01*
X-29377030Y-30263152D02*
X-29377030Y-30786961D01*
X-29377030Y-30786961D02*
X-29329411Y-30882200D01*
X-29329411Y-30882200D02*
X-29234173Y-30929819D01*
X-29234173Y-30929819D02*
X-29091316Y-30929819D01*
X-29091316Y-30929819D02*
X-28996078Y-30882200D01*
X-28996078Y-30882200D02*
X-28948459Y-30834580D01*
X-28519887Y-30882200D02*
X-28424649Y-30929819D01*
X-28424649Y-30929819D02*
X-28234173Y-30929819D01*
X-28234173Y-30929819D02*
X-28138935Y-30882200D01*
X-28138935Y-30882200D02*
X-28091316Y-30786961D01*
X-28091316Y-30786961D02*
X-28091316Y-30739342D01*
X-28091316Y-30739342D02*
X-28138935Y-30644104D01*
X-28138935Y-30644104D02*
X-28234173Y-30596485D01*
X-28234173Y-30596485D02*
X-28377030Y-30596485D01*
X-28377030Y-30596485D02*
X-28472268Y-30548866D01*
X-28472268Y-30548866D02*
X-28519887Y-30453628D01*
X-28519887Y-30453628D02*
X-28519887Y-30406009D01*
X-28519887Y-30406009D02*
X-28472268Y-30310771D01*
X-28472268Y-30310771D02*
X-28377030Y-30263152D01*
X-28377030Y-30263152D02*
X-28234173Y-30263152D01*
X-28234173Y-30263152D02*
X-28138935Y-30310771D01*
X-27281792Y-30882200D02*
X-27377030Y-30929819D01*
X-27377030Y-30929819D02*
X-27567506Y-30929819D01*
X-27567506Y-30929819D02*
X-27662744Y-30882200D01*
X-27662744Y-30882200D02*
X-27710363Y-30786961D01*
X-27710363Y-30786961D02*
X-27710363Y-30406009D01*
X-27710363Y-30406009D02*
X-27662744Y-30310771D01*
X-27662744Y-30310771D02*
X-27567506Y-30263152D01*
X-27567506Y-30263152D02*
X-27377030Y-30263152D01*
X-27377030Y-30263152D02*
X-27281792Y-30310771D01*
X-27281792Y-30310771D02*
X-27234173Y-30406009D01*
X-27234173Y-30406009D02*
X-27234173Y-30501247D01*
X-27234173Y-30501247D02*
X-27710363Y-30596485D01*
X-26805601Y-30929819D02*
X-26805601Y-29929819D01*
X-26805601Y-30310771D02*
X-26710363Y-30263152D01*
X-26710363Y-30263152D02*
X-26519887Y-30263152D01*
X-26519887Y-30263152D02*
X-26424649Y-30310771D01*
X-26424649Y-30310771D02*
X-26377030Y-30358390D01*
X-26377030Y-30358390D02*
X-26329411Y-30453628D01*
X-26329411Y-30453628D02*
X-26329411Y-30739342D01*
X-26329411Y-30739342D02*
X-26377030Y-30834580D01*
X-26377030Y-30834580D02*
X-26424649Y-30882200D01*
X-26424649Y-30882200D02*
X-26519887Y-30929819D01*
X-26519887Y-30929819D02*
X-26710363Y-30929819D01*
X-26710363Y-30929819D02*
X-26805601Y-30882200D01*
X-25900839Y-30929819D02*
X-25900839Y-30263152D01*
X-25900839Y-29929819D02*
X-25948458Y-29977438D01*
X-25948458Y-29977438D02*
X-25900839Y-30025057D01*
X-25900839Y-30025057D02*
X-25853220Y-29977438D01*
X-25853220Y-29977438D02*
X-25900839Y-29929819D01*
X-25900839Y-29929819D02*
X-25900839Y-30025057D01*
X-25567506Y-30263152D02*
X-25186554Y-30263152D01*
X-25424649Y-29929819D02*
X-25424649Y-30786961D01*
X-25424649Y-30786961D02*
X-25377030Y-30882200D01*
X-25377030Y-30882200D02*
X-25281792Y-30929819D01*
X-25281792Y-30929819D02*
X-25186554Y-30929819D01*
X-24472268Y-30882200D02*
X-24567506Y-30929819D01*
X-24567506Y-30929819D02*
X-24757982Y-30929819D01*
X-24757982Y-30929819D02*
X-24853220Y-30882200D01*
X-24853220Y-30882200D02*
X-24900839Y-30786961D01*
X-24900839Y-30786961D02*
X-24900839Y-30406009D01*
X-24900839Y-30406009D02*
X-24853220Y-30310771D01*
X-24853220Y-30310771D02*
X-24757982Y-30263152D01*
X-24757982Y-30263152D02*
X-24567506Y-30263152D01*
X-24567506Y-30263152D02*
X-24472268Y-30310771D01*
X-24472268Y-30310771D02*
X-24424649Y-30406009D01*
X-24424649Y-30406009D02*
X-24424649Y-30501247D01*
X-24424649Y-30501247D02*
X-24900839Y-30596485D01*
X-24043696Y-30882200D02*
X-23948458Y-30929819D01*
X-23948458Y-30929819D02*
X-23757982Y-30929819D01*
X-23757982Y-30929819D02*
X-23662744Y-30882200D01*
X-23662744Y-30882200D02*
X-23615125Y-30786961D01*
X-23615125Y-30786961D02*
X-23615125Y-30739342D01*
X-23615125Y-30739342D02*
X-23662744Y-30644104D01*
X-23662744Y-30644104D02*
X-23757982Y-30596485D01*
X-23757982Y-30596485D02*
X-23900839Y-30596485D01*
X-23900839Y-30596485D02*
X-23996077Y-30548866D01*
X-23996077Y-30548866D02*
X-24043696Y-30453628D01*
X-24043696Y-30453628D02*
X-24043696Y-30406009D01*
X-24043696Y-30406009D02*
X-23996077Y-30310771D01*
X-23996077Y-30310771D02*
X-23900839Y-30263152D01*
X-23900839Y-30263152D02*
X-23757982Y-30263152D01*
X-23757982Y-30263152D02*
X-23662744Y-30310771D01*
X-22424648Y-30929819D02*
X-22424648Y-29929819D01*
X-21996077Y-30929819D02*
X-21996077Y-30406009D01*
X-21996077Y-30406009D02*
X-22043696Y-30310771D01*
X-22043696Y-30310771D02*
X-22138934Y-30263152D01*
X-22138934Y-30263152D02*
X-22281791Y-30263152D01*
X-22281791Y-30263152D02*
X-22377029Y-30310771D01*
X-22377029Y-30310771D02*
X-22424648Y-30358390D01*
X-21138934Y-30882200D02*
X-21234172Y-30929819D01*
X-21234172Y-30929819D02*
X-21424648Y-30929819D01*
X-21424648Y-30929819D02*
X-21519886Y-30882200D01*
X-21519886Y-30882200D02*
X-21567505Y-30786961D01*
X-21567505Y-30786961D02*
X-21567505Y-30406009D01*
X-21567505Y-30406009D02*
X-21519886Y-30310771D01*
X-21519886Y-30310771D02*
X-21424648Y-30263152D01*
X-21424648Y-30263152D02*
X-21234172Y-30263152D01*
X-21234172Y-30263152D02*
X-21138934Y-30310771D01*
X-21138934Y-30310771D02*
X-21091315Y-30406009D01*
X-21091315Y-30406009D02*
X-21091315Y-30501247D01*
X-21091315Y-30501247D02*
X-21567505Y-30596485D01*
X-20662743Y-30929819D02*
X-20662743Y-30263152D01*
X-20662743Y-30453628D02*
X-20615124Y-30358390D01*
X-20615124Y-30358390D02*
X-20567505Y-30310771D01*
X-20567505Y-30310771D02*
X-20472267Y-30263152D01*
X-20472267Y-30263152D02*
X-20377029Y-30263152D01*
X-19662743Y-30882200D02*
X-19757981Y-30929819D01*
X-19757981Y-30929819D02*
X-19948457Y-30929819D01*
X-19948457Y-30929819D02*
X-20043695Y-30882200D01*
X-20043695Y-30882200D02*
X-20091314Y-30786961D01*
X-20091314Y-30786961D02*
X-20091314Y-30406009D01*
X-20091314Y-30406009D02*
X-20043695Y-30310771D01*
X-20043695Y-30310771D02*
X-19948457Y-30263152D01*
X-19948457Y-30263152D02*
X-19757981Y-30263152D01*
X-19757981Y-30263152D02*
X-19662743Y-30310771D01*
X-19662743Y-30310771D02*
X-19615124Y-30406009D01*
X-19615124Y-30406009D02*
X-19615124Y-30501247D01*
X-19615124Y-30501247D02*
X-20091314Y-30596485D01*
X23016779Y30130181D02*
X23016779Y31130181D01*
X23016779Y31130181D02*
X23397731Y31130181D01*
X23397731Y31130181D02*
X23492969Y31082562D01*
X23492969Y31082562D02*
X23540588Y31034943D01*
X23540588Y31034943D02*
X23588207Y30939705D01*
X23588207Y30939705D02*
X23588207Y30796848D01*
X23588207Y30796848D02*
X23540588Y30701610D01*
X23540588Y30701610D02*
X23492969Y30653991D01*
X23492969Y30653991D02*
X23397731Y30606372D01*
X23397731Y30606372D02*
X23016779Y30606372D01*
X24445350Y30796848D02*
X24445350Y30130181D01*
X24016779Y30796848D02*
X24016779Y30273039D01*
X24016779Y30273039D02*
X24064398Y30177800D01*
X24064398Y30177800D02*
X24159636Y30130181D01*
X24159636Y30130181D02*
X24302493Y30130181D01*
X24302493Y30130181D02*
X24397731Y30177800D01*
X24397731Y30177800D02*
X24445350Y30225420D01*
X24778684Y30796848D02*
X25159636Y30796848D01*
X24921541Y31130181D02*
X24921541Y30273039D01*
X24921541Y30273039D02*
X24969160Y30177800D01*
X24969160Y30177800D02*
X25064398Y30130181D01*
X25064398Y30130181D02*
X25159636Y30130181D01*
X26254875Y30130181D02*
X26254875Y30796848D01*
X26254875Y30701610D02*
X26302494Y30749229D01*
X26302494Y30749229D02*
X26397732Y30796848D01*
X26397732Y30796848D02*
X26540589Y30796848D01*
X26540589Y30796848D02*
X26635827Y30749229D01*
X26635827Y30749229D02*
X26683446Y30653991D01*
X26683446Y30653991D02*
X26683446Y30130181D01*
X26683446Y30653991D02*
X26731065Y30749229D01*
X26731065Y30749229D02*
X26826303Y30796848D01*
X26826303Y30796848D02*
X26969160Y30796848D01*
X26969160Y30796848D02*
X27064399Y30749229D01*
X27064399Y30749229D02*
X27112018Y30653991D01*
X27112018Y30653991D02*
X27112018Y30130181D01*
X27731065Y30130181D02*
X27635827Y30177800D01*
X27635827Y30177800D02*
X27588208Y30225420D01*
X27588208Y30225420D02*
X27540589Y30320658D01*
X27540589Y30320658D02*
X27540589Y30606372D01*
X27540589Y30606372D02*
X27588208Y30701610D01*
X27588208Y30701610D02*
X27635827Y30749229D01*
X27635827Y30749229D02*
X27731065Y30796848D01*
X27731065Y30796848D02*
X27873922Y30796848D01*
X27873922Y30796848D02*
X27969160Y30749229D01*
X27969160Y30749229D02*
X28016779Y30701610D01*
X28016779Y30701610D02*
X28064398Y30606372D01*
X28064398Y30606372D02*
X28064398Y30320658D01*
X28064398Y30320658D02*
X28016779Y30225420D01*
X28016779Y30225420D02*
X27969160Y30177800D01*
X27969160Y30177800D02*
X27873922Y30130181D01*
X27873922Y30130181D02*
X27731065Y30130181D01*
X28921541Y30796848D02*
X28921541Y30130181D01*
X28492970Y30796848D02*
X28492970Y30273039D01*
X28492970Y30273039D02*
X28540589Y30177800D01*
X28540589Y30177800D02*
X28635827Y30130181D01*
X28635827Y30130181D02*
X28778684Y30130181D01*
X28778684Y30130181D02*
X28873922Y30177800D01*
X28873922Y30177800D02*
X28921541Y30225420D01*
X29350113Y30177800D02*
X29445351Y30130181D01*
X29445351Y30130181D02*
X29635827Y30130181D01*
X29635827Y30130181D02*
X29731065Y30177800D01*
X29731065Y30177800D02*
X29778684Y30273039D01*
X29778684Y30273039D02*
X29778684Y30320658D01*
X29778684Y30320658D02*
X29731065Y30415896D01*
X29731065Y30415896D02*
X29635827Y30463515D01*
X29635827Y30463515D02*
X29492970Y30463515D01*
X29492970Y30463515D02*
X29397732Y30511134D01*
X29397732Y30511134D02*
X29350113Y30606372D01*
X29350113Y30606372D02*
X29350113Y30653991D01*
X29350113Y30653991D02*
X29397732Y30749229D01*
X29397732Y30749229D02*
X29492970Y30796848D01*
X29492970Y30796848D02*
X29635827Y30796848D01*
X29635827Y30796848D02*
X29731065Y30749229D01*
X30588208Y30177800D02*
X30492970Y30130181D01*
X30492970Y30130181D02*
X30302494Y30130181D01*
X30302494Y30130181D02*
X30207256Y30177800D01*
X30207256Y30177800D02*
X30159637Y30273039D01*
X30159637Y30273039D02*
X30159637Y30653991D01*
X30159637Y30653991D02*
X30207256Y30749229D01*
X30207256Y30749229D02*
X30302494Y30796848D01*
X30302494Y30796848D02*
X30492970Y30796848D01*
X30492970Y30796848D02*
X30588208Y30749229D01*
X30588208Y30749229D02*
X30635827Y30653991D01*
X30635827Y30653991D02*
X30635827Y30558753D01*
X30635827Y30558753D02*
X30159637Y30463515D01*
X31064399Y30130181D02*
X31064399Y31130181D01*
X31064399Y30749229D02*
X31159637Y30796848D01*
X31159637Y30796848D02*
X31350113Y30796848D01*
X31350113Y30796848D02*
X31445351Y30749229D01*
X31445351Y30749229D02*
X31492970Y30701610D01*
X31492970Y30701610D02*
X31540589Y30606372D01*
X31540589Y30606372D02*
X31540589Y30320658D01*
X31540589Y30320658D02*
X31492970Y30225420D01*
X31492970Y30225420D02*
X31445351Y30177800D01*
X31445351Y30177800D02*
X31350113Y30130181D01*
X31350113Y30130181D02*
X31159637Y30130181D01*
X31159637Y30130181D02*
X31064399Y30177800D01*
X31969161Y30130181D02*
X31969161Y30796848D01*
X31969161Y31130181D02*
X31921542Y31082562D01*
X31921542Y31082562D02*
X31969161Y31034943D01*
X31969161Y31034943D02*
X32016780Y31082562D01*
X32016780Y31082562D02*
X31969161Y31130181D01*
X31969161Y31130181D02*
X31969161Y31034943D01*
X32302494Y30796848D02*
X32683446Y30796848D01*
X32445351Y31130181D02*
X32445351Y30273039D01*
X32445351Y30273039D02*
X32492970Y30177800D01*
X32492970Y30177800D02*
X32588208Y30130181D01*
X32588208Y30130181D02*
X32683446Y30130181D01*
X33397732Y30177800D02*
X33302494Y30130181D01*
X33302494Y30130181D02*
X33112018Y30130181D01*
X33112018Y30130181D02*
X33016780Y30177800D01*
X33016780Y30177800D02*
X32969161Y30273039D01*
X32969161Y30273039D02*
X32969161Y30653991D01*
X32969161Y30653991D02*
X33016780Y30749229D01*
X33016780Y30749229D02*
X33112018Y30796848D01*
X33112018Y30796848D02*
X33302494Y30796848D01*
X33302494Y30796848D02*
X33397732Y30749229D01*
X33397732Y30749229D02*
X33445351Y30653991D01*
X33445351Y30653991D02*
X33445351Y30558753D01*
X33445351Y30558753D02*
X32969161Y30463515D01*
X33826304Y30177800D02*
X33921542Y30130181D01*
X33921542Y30130181D02*
X34112018Y30130181D01*
X34112018Y30130181D02*
X34207256Y30177800D01*
X34207256Y30177800D02*
X34254875Y30273039D01*
X34254875Y30273039D02*
X34254875Y30320658D01*
X34254875Y30320658D02*
X34207256Y30415896D01*
X34207256Y30415896D02*
X34112018Y30463515D01*
X34112018Y30463515D02*
X33969161Y30463515D01*
X33969161Y30463515D02*
X33873923Y30511134D01*
X33873923Y30511134D02*
X33826304Y30606372D01*
X33826304Y30606372D02*
X33826304Y30653991D01*
X33826304Y30653991D02*
X33873923Y30749229D01*
X33873923Y30749229D02*
X33969161Y30796848D01*
X33969161Y30796848D02*
X34112018Y30796848D01*
X34112018Y30796848D02*
X34207256Y30749229D01*
X35445352Y30130181D02*
X35445352Y31130181D01*
X35873923Y30130181D02*
X35873923Y30653991D01*
X35873923Y30653991D02*
X35826304Y30749229D01*
X35826304Y30749229D02*
X35731066Y30796848D01*
X35731066Y30796848D02*
X35588209Y30796848D01*
X35588209Y30796848D02*
X35492971Y30749229D01*
X35492971Y30749229D02*
X35445352Y30701610D01*
X36731066Y30177800D02*
X36635828Y30130181D01*
X36635828Y30130181D02*
X36445352Y30130181D01*
X36445352Y30130181D02*
X36350114Y30177800D01*
X36350114Y30177800D02*
X36302495Y30273039D01*
X36302495Y30273039D02*
X36302495Y30653991D01*
X36302495Y30653991D02*
X36350114Y30749229D01*
X36350114Y30749229D02*
X36445352Y30796848D01*
X36445352Y30796848D02*
X36635828Y30796848D01*
X36635828Y30796848D02*
X36731066Y30749229D01*
X36731066Y30749229D02*
X36778685Y30653991D01*
X36778685Y30653991D02*
X36778685Y30558753D01*
X36778685Y30558753D02*
X36302495Y30463515D01*
X37207257Y30130181D02*
X37207257Y30796848D01*
X37207257Y30606372D02*
X37254876Y30701610D01*
X37254876Y30701610D02*
X37302495Y30749229D01*
X37302495Y30749229D02*
X37397733Y30796848D01*
X37397733Y30796848D02*
X37492971Y30796848D01*
X38207257Y30177800D02*
X38112019Y30130181D01*
X38112019Y30130181D02*
X37921543Y30130181D01*
X37921543Y30130181D02*
X37826305Y30177800D01*
X37826305Y30177800D02*
X37778686Y30273039D01*
X37778686Y30273039D02*
X37778686Y30653991D01*
X37778686Y30653991D02*
X37826305Y30749229D01*
X37826305Y30749229D02*
X37921543Y30796848D01*
X37921543Y30796848D02*
X38112019Y30796848D01*
X38112019Y30796848D02*
X38207257Y30749229D01*
X38207257Y30749229D02*
X38254876Y30653991D01*
X38254876Y30653991D02*
X38254876Y30558753D01*
X38254876Y30558753D02*
X37778686Y30463515D01*
D12*
%TO.C,P1*%
X878900Y33361336D02*
X878900Y33061336D01*
X878900Y33061336D02*
X764614Y33061336D01*
X764614Y33061336D02*
X736043Y33075622D01*
X736043Y33075622D02*
X721757Y33089908D01*
X721757Y33089908D02*
X707471Y33118479D01*
X707471Y33118479D02*
X707471Y33161336D01*
X707471Y33161336D02*
X721757Y33189908D01*
X721757Y33189908D02*
X736043Y33204193D01*
X736043Y33204193D02*
X764614Y33218479D01*
X764614Y33218479D02*
X878900Y33218479D01*
X407471Y33332765D02*
X421757Y33347050D01*
X421757Y33347050D02*
X464614Y33361336D01*
X464614Y33361336D02*
X493186Y33361336D01*
X493186Y33361336D02*
X536043Y33347050D01*
X536043Y33347050D02*
X564614Y33318479D01*
X564614Y33318479D02*
X578900Y33289908D01*
X578900Y33289908D02*
X593186Y33232765D01*
X593186Y33232765D02*
X593186Y33189908D01*
X593186Y33189908D02*
X578900Y33132765D01*
X578900Y33132765D02*
X564614Y33104193D01*
X564614Y33104193D02*
X536043Y33075622D01*
X536043Y33075622D02*
X493186Y33061336D01*
X493186Y33061336D02*
X464614Y33061336D01*
X464614Y33061336D02*
X421757Y33075622D01*
X421757Y33075622D02*
X407471Y33089908D01*
X178900Y33204193D02*
X136043Y33218479D01*
X136043Y33218479D02*
X121757Y33232765D01*
X121757Y33232765D02*
X107471Y33261336D01*
X107471Y33261336D02*
X107471Y33304193D01*
X107471Y33304193D02*
X121757Y33332765D01*
X121757Y33332765D02*
X136043Y33347050D01*
X136043Y33347050D02*
X164614Y33361336D01*
X164614Y33361336D02*
X278900Y33361336D01*
X278900Y33361336D02*
X278900Y33061336D01*
X278900Y33061336D02*
X178900Y33061336D01*
X178900Y33061336D02*
X150329Y33075622D01*
X150329Y33075622D02*
X136043Y33089908D01*
X136043Y33089908D02*
X121757Y33118479D01*
X121757Y33118479D02*
X121757Y33147050D01*
X121757Y33147050D02*
X136043Y33175622D01*
X136043Y33175622D02*
X150329Y33189908D01*
X150329Y33189908D02*
X178900Y33204193D01*
X178900Y33204193D02*
X278900Y33204193D01*
X-249671Y33204193D02*
X-349671Y33204193D01*
X-392528Y33361336D02*
X-249671Y33361336D01*
X-249671Y33361336D02*
X-249671Y33061336D01*
X-249671Y33061336D02*
X-392528Y33061336D01*
X-521100Y33361336D02*
X-521100Y33061336D01*
X-521100Y33061336D02*
X-592529Y33061336D01*
X-592529Y33061336D02*
X-635386Y33075622D01*
X-635386Y33075622D02*
X-663957Y33104193D01*
X-663957Y33104193D02*
X-678243Y33132765D01*
X-678243Y33132765D02*
X-692529Y33189908D01*
X-692529Y33189908D02*
X-692529Y33232765D01*
X-692529Y33232765D02*
X-678243Y33289908D01*
X-678243Y33289908D02*
X-663957Y33318479D01*
X-663957Y33318479D02*
X-635386Y33347050D01*
X-635386Y33347050D02*
X-592529Y33361336D01*
X-592529Y33361336D02*
X-521100Y33361336D01*
X-978243Y33075622D02*
X-949671Y33061336D01*
X-949671Y33061336D02*
X-906814Y33061336D01*
X-906814Y33061336D02*
X-863957Y33075622D01*
X-863957Y33075622D02*
X-835386Y33104193D01*
X-835386Y33104193D02*
X-821100Y33132765D01*
X-821100Y33132765D02*
X-806814Y33189908D01*
X-806814Y33189908D02*
X-806814Y33232765D01*
X-806814Y33232765D02*
X-821100Y33289908D01*
X-821100Y33289908D02*
X-835386Y33318479D01*
X-835386Y33318479D02*
X-863957Y33347050D01*
X-863957Y33347050D02*
X-906814Y33361336D01*
X-906814Y33361336D02*
X-935386Y33361336D01*
X-935386Y33361336D02*
X-978243Y33347050D01*
X-978243Y33347050D02*
X-992529Y33332765D01*
X-992529Y33332765D02*
X-992529Y33232765D01*
X-992529Y33232765D02*
X-935386Y33232765D01*
X-1121100Y33204193D02*
X-1221100Y33204193D01*
X-1263957Y33361336D02*
X-1121100Y33361336D01*
X-1121100Y33361336D02*
X-1121100Y33061336D01*
X-1121100Y33061336D02*
X-1263957Y33061336D01*
D13*
X4500000Y33550000D02*
X-4500000Y33550000D01*
D11*
%TO.C,REF\u002A\u002A*%
X12225000Y0D02*
G75*
G03*
X12225000Y0I-2700000J0D01*
G01*
X15700000Y-12000000D02*
G75*
G03*
X15700000Y-12000000I-2700000J0D01*
G01*
X-6825000Y0D02*
G75*
G03*
X-6825000Y0I-2700000J0D01*
G01*
X-10300000Y-12000000D02*
G75*
G03*
X-10300000Y-12000000I-2700000J0D01*
G01*
X4300000Y-25000000D02*
G75*
G03*
X4300000Y-25000000I-4300000J0D01*
G01*
X25700000Y12000000D02*
G75*
G03*
X25700000Y12000000I-2700000J0D01*
G01*
X-20300000Y12000000D02*
G75*
G03*
X-20300000Y12000000I-2700000J0D01*
G01*
%TD*%
M02*
