%TF.GenerationSoftware,KiCad,Pcbnew,7.0.5*%
%TF.CreationDate,2024-03-22T09:53:21-05:00*%
%TF.ProjectId,RP2040,52503230-3430-42e6-9b69-6361645f7063,REV1*%
%TF.SameCoordinates,Original*%
%TF.FileFunction,Soldermask,Top*%
%TF.FilePolarity,Negative*%
%FSLAX46Y46*%
G04 Gerber Fmt 4.6, Leading zero omitted, Abs format (unit mm)*
G04 Created by KiCad (PCBNEW 7.0.5) date 2024-03-22 09:53:21*
%MOMM*%
%LPD*%
G01*
G04 APERTURE LIST*
%TA.AperFunction,Profile*%
%ADD10C,0.120000*%
%TD*%
G04 APERTURE END LIST*
D10*
%TO.C,P1*%
X4620000Y26850000D02*
X4620000Y33550000D01*
X4025000Y26825000D02*
X-4025000Y26825000D01*
X-4620000Y26850000D02*
X-4625000Y33550000D01*
X4025000Y26825000D02*
G75*
G03*
X4620000Y26850000I297500J12500D01*
G01*
X-4620000Y26850000D02*
G75*
G03*
X-4025000Y26825000I297500J-12500D01*
G01*
%TD*%
G36*
X287288Y-22817830D02*
G01*
X569661Y-22873997D01*
X842286Y-22966541D01*
X1100500Y-23093878D01*
X1339884Y-23253829D01*
X1556342Y-23443658D01*
X1746171Y-23660116D01*
X1906122Y-23899500D01*
X2033459Y-24157714D01*
X2126003Y-24430339D01*
X2182170Y-24712712D01*
X2201000Y-25000000D01*
X2182170Y-25287288D01*
X2126003Y-25569661D01*
X2033459Y-25842286D01*
X1906122Y-26100500D01*
X1746171Y-26339884D01*
X1556342Y-26556342D01*
X1339884Y-26746171D01*
X1100500Y-26906122D01*
X842286Y-27033459D01*
X569661Y-27126003D01*
X287288Y-27182170D01*
X0Y-27201000D01*
X-287288Y-27182170D01*
X-569661Y-27126003D01*
X-842286Y-27033459D01*
X-1100500Y-26906122D01*
X-1339884Y-26746171D01*
X-1556342Y-26556342D01*
X-1746171Y-26339884D01*
X-1906122Y-26100500D01*
X-2033459Y-25842286D01*
X-2126003Y-25569661D01*
X-2182170Y-25287288D01*
X-2201000Y-25000000D01*
X-2182170Y-24712712D01*
X-2126003Y-24430339D01*
X-2033459Y-24157714D01*
X-1906122Y-23899500D01*
X-1746171Y-23660116D01*
X-1556342Y-23443658D01*
X-1339884Y-23253829D01*
X-1100500Y-23093878D01*
X-842286Y-22966541D01*
X-569661Y-22873997D01*
X-287288Y-22817830D01*
X0Y-22799000D01*
X287288Y-22817830D01*
G37*
G36*
X-12656075Y-10641870D02*
G01*
X-12437225Y-10717002D01*
X-12233726Y-10827130D01*
X-12051129Y-10969251D01*
X-11894414Y-11139488D01*
X-11767857Y-11333198D01*
X-11674910Y-11545096D01*
X-11618108Y-11769403D01*
X-11599000Y-12000000D01*
X-11618108Y-12230597D01*
X-11674910Y-12454904D01*
X-11767857Y-12666802D01*
X-11894414Y-12860512D01*
X-12051129Y-13030749D01*
X-12233726Y-13172870D01*
X-12437225Y-13282998D01*
X-12656075Y-13358130D01*
X-12884306Y-13396215D01*
X-13115694Y-13396215D01*
X-13343925Y-13358130D01*
X-13562775Y-13282998D01*
X-13766274Y-13172870D01*
X-13948871Y-13030749D01*
X-14105586Y-12860512D01*
X-14232143Y-12666802D01*
X-14325090Y-12454904D01*
X-14381892Y-12230597D01*
X-14401000Y-12000000D01*
X-14381892Y-11769403D01*
X-14325090Y-11545096D01*
X-14232143Y-11333198D01*
X-14105586Y-11139488D01*
X-13948871Y-10969251D01*
X-13766274Y-10827130D01*
X-13562775Y-10717002D01*
X-13343925Y-10641870D01*
X-13115694Y-10603785D01*
X-12884306Y-10603785D01*
X-12656075Y-10641870D01*
G37*
G36*
X13343925Y-10641870D02*
G01*
X13562775Y-10717002D01*
X13766274Y-10827130D01*
X13948871Y-10969251D01*
X14105586Y-11139488D01*
X14232143Y-11333198D01*
X14325090Y-11545096D01*
X14381892Y-11769403D01*
X14401000Y-12000000D01*
X14381892Y-12230597D01*
X14325090Y-12454904D01*
X14232143Y-12666802D01*
X14105586Y-12860512D01*
X13948871Y-13030749D01*
X13766274Y-13172870D01*
X13562775Y-13282998D01*
X13343925Y-13358130D01*
X13115694Y-13396215D01*
X12884306Y-13396215D01*
X12656075Y-13358130D01*
X12437225Y-13282998D01*
X12233726Y-13172870D01*
X12051129Y-13030749D01*
X11894414Y-12860512D01*
X11767857Y-12666802D01*
X11674910Y-12454904D01*
X11618108Y-12230597D01*
X11599000Y-12000000D01*
X11618108Y-11769403D01*
X11674910Y-11545096D01*
X11767857Y-11333198D01*
X11894414Y-11139488D01*
X12051129Y-10969251D01*
X12233726Y-10827130D01*
X12437225Y-10717002D01*
X12656075Y-10641870D01*
X12884306Y-10603785D01*
X13115694Y-10603785D01*
X13343925Y-10641870D01*
G37*
G36*
X-18823081Y-164300D02*
G01*
X-18757872Y-207872D01*
X-18714300Y-273081D01*
X-18699000Y-350000D01*
X-18699000Y-1525000D01*
X-18714300Y-1601919D01*
X-18757872Y-1667128D01*
X-18823081Y-1710700D01*
X-18900000Y-1726000D01*
X-19200000Y-1726000D01*
X-19276919Y-1710700D01*
X-19342128Y-1667128D01*
X-19385700Y-1601919D01*
X-19401000Y-1525000D01*
X-19401000Y-350000D01*
X-19385700Y-273081D01*
X-19342128Y-207872D01*
X-19276919Y-164300D01*
X-19200000Y-149000D01*
X-18900000Y-149000D01*
X-18823081Y-164300D01*
G37*
G36*
X226919Y-164300D02*
G01*
X292128Y-207872D01*
X335700Y-273081D01*
X351000Y-350000D01*
X351000Y-1525000D01*
X335700Y-1601919D01*
X292128Y-1667128D01*
X226919Y-1710700D01*
X150000Y-1726000D01*
X-150000Y-1726000D01*
X-226919Y-1710700D01*
X-292128Y-1667128D01*
X-335700Y-1601919D01*
X-351000Y-1525000D01*
X-351000Y-350000D01*
X-335700Y-273081D01*
X-292128Y-207872D01*
X-226919Y-164300D01*
X-150000Y-149000D01*
X150000Y-149000D01*
X226919Y-164300D01*
G37*
G36*
X19276919Y-164300D02*
G01*
X19342128Y-207872D01*
X19385700Y-273081D01*
X19401000Y-350000D01*
X19401000Y-1525000D01*
X19385700Y-1601919D01*
X19342128Y-1667128D01*
X19276919Y-1710700D01*
X19200000Y-1726000D01*
X18900000Y-1726000D01*
X18823081Y-1710700D01*
X18757872Y-1667128D01*
X18714300Y-1601919D01*
X18699000Y-1525000D01*
X18699000Y-350000D01*
X18714300Y-273081D01*
X18757872Y-207872D01*
X18823081Y-164300D01*
X18900000Y-149000D01*
X19200000Y-149000D01*
X19276919Y-164300D01*
G37*
G36*
X-9181075Y1358130D02*
G01*
X-8962225Y1282998D01*
X-8758726Y1172870D01*
X-8576129Y1030749D01*
X-8419414Y860512D01*
X-8292857Y666802D01*
X-8199910Y454904D01*
X-8143108Y230597D01*
X-8124000Y0D01*
X-8143108Y-230597D01*
X-8199910Y-454904D01*
X-8292857Y-666802D01*
X-8419414Y-860512D01*
X-8576129Y-1030749D01*
X-8758726Y-1172870D01*
X-8962225Y-1282998D01*
X-9181075Y-1358130D01*
X-9409306Y-1396215D01*
X-9640694Y-1396215D01*
X-9868925Y-1358130D01*
X-10087775Y-1282998D01*
X-10291274Y-1172870D01*
X-10473871Y-1030749D01*
X-10630586Y-860512D01*
X-10757143Y-666802D01*
X-10850090Y-454904D01*
X-10906892Y-230597D01*
X-10926000Y0D01*
X-10906892Y230597D01*
X-10850090Y454904D01*
X-10757143Y666802D01*
X-10630586Y860512D01*
X-10473871Y1030749D01*
X-10291274Y1172870D01*
X-10087775Y1282998D01*
X-9868925Y1358130D01*
X-9640694Y1396215D01*
X-9409306Y1396215D01*
X-9181075Y1358130D01*
G37*
G36*
X9868925Y1358130D02*
G01*
X10087775Y1282998D01*
X10291274Y1172870D01*
X10473871Y1030749D01*
X10630586Y860512D01*
X10757143Y666802D01*
X10850090Y454904D01*
X10906892Y230597D01*
X10926000Y0D01*
X10906892Y-230597D01*
X10850090Y-454904D01*
X10757143Y-666802D01*
X10630586Y-860512D01*
X10473871Y-1030749D01*
X10291274Y-1172870D01*
X10087775Y-1282998D01*
X9868925Y-1358130D01*
X9640694Y-1396215D01*
X9409306Y-1396215D01*
X9181075Y-1358130D01*
X8962225Y-1282998D01*
X8758726Y-1172870D01*
X8576129Y-1030749D01*
X8419414Y-860512D01*
X8292857Y-666802D01*
X8199910Y-454904D01*
X8143108Y-230597D01*
X8124000Y0D01*
X8143108Y230597D01*
X8199910Y454904D01*
X8292857Y666802D01*
X8419414Y860512D01*
X8576129Y1030749D01*
X8758726Y1172870D01*
X8962225Y1282998D01*
X9181075Y1358130D01*
X9409306Y1396215D01*
X9640694Y1396215D01*
X9868925Y1358130D01*
G37*
G36*
X-24082087Y896064D02*
G01*
X-24035820Y896064D01*
X-23995871Y887573D01*
X-23954267Y883475D01*
X-23902002Y867621D01*
X-23851576Y856902D01*
X-23819306Y842535D01*
X-23785288Y832215D01*
X-23731233Y803322D01*
X-23679500Y780289D01*
X-23655449Y762815D01*
X-23629553Y748973D01*
X-23576729Y705622D01*
X-23527113Y669573D01*
X-23511004Y651682D01*
X-23493052Y636949D01*
X-23444812Y578169D01*
X-23401076Y529595D01*
X-23391889Y513681D01*
X-23381028Y500448D01*
X-23340851Y425281D01*
X-23306896Y366470D01*
X-23302991Y354450D01*
X-23297786Y344713D01*
X-23269087Y250104D01*
X-23248689Y187328D01*
X-23247972Y180498D01*
X-23246526Y175734D01*
X-23232464Y32958D01*
X-23229000Y0D01*
X-23232465Y-32959D01*
X-23246526Y-175733D01*
X-23247971Y-180496D01*
X-23248689Y-187328D01*
X-23269091Y-250117D01*
X-23297786Y-344712D01*
X-23302990Y-354447D01*
X-23306896Y-366470D01*
X-23340858Y-425293D01*
X-23381028Y-500447D01*
X-23391887Y-513677D01*
X-23401076Y-529595D01*
X-23444822Y-578178D01*
X-23493052Y-636948D01*
X-23511000Y-651677D01*
X-23527113Y-669573D01*
X-23576740Y-705628D01*
X-23629553Y-748972D01*
X-23655443Y-762810D01*
X-23679500Y-780289D01*
X-23731244Y-803326D01*
X-23785288Y-832214D01*
X-23819299Y-842531D01*
X-23851576Y-856902D01*
X-23902013Y-867622D01*
X-23954267Y-883474D01*
X-23995862Y-887570D01*
X-24035820Y-896064D01*
X-24082097Y-896064D01*
X-24130000Y-900782D01*
X-24177903Y-896064D01*
X-24224180Y-896064D01*
X-24264138Y-887570D01*
X-24305734Y-883474D01*
X-24357991Y-867621D01*
X-24408424Y-856902D01*
X-24440700Y-842532D01*
X-24474713Y-832214D01*
X-24528763Y-803323D01*
X-24580500Y-780289D01*
X-24604555Y-762812D01*
X-24630448Y-748972D01*
X-24683270Y-705622D01*
X-24732887Y-669573D01*
X-24748998Y-651680D01*
X-24766949Y-636948D01*
X-24815191Y-578166D01*
X-24858924Y-529595D01*
X-24868112Y-513681D01*
X-24878973Y-500447D01*
X-24919156Y-425269D01*
X-24953104Y-366470D01*
X-24957009Y-354451D01*
X-24962215Y-344712D01*
X-24990925Y-250071D01*
X-25011311Y-187328D01*
X-25012029Y-180501D01*
X-25013475Y-175733D01*
X-25027552Y-32808D01*
X-25031000Y0D01*
X-25027552Y32806D01*
X-25013475Y175734D01*
X-25012029Y180503D01*
X-25011311Y187328D01*
X-24990929Y250058D01*
X-24962215Y344713D01*
X-24957009Y354455D01*
X-24953104Y366470D01*
X-24919164Y425258D01*
X-24878973Y500448D01*
X-24868110Y513686D01*
X-24858924Y529595D01*
X-24815200Y578157D01*
X-24766949Y636949D01*
X-24748995Y651685D01*
X-24732887Y669573D01*
X-24683280Y705615D01*
X-24630448Y748973D01*
X-24604550Y762817D01*
X-24580500Y780289D01*
X-24528774Y803319D01*
X-24474713Y832215D01*
X-24440693Y842536D01*
X-24408424Y856902D01*
X-24358002Y867620D01*
X-24305734Y883475D01*
X-24264129Y887573D01*
X-24224180Y896064D01*
X-24177914Y896064D01*
X-24130000Y900783D01*
X-24082087Y896064D01*
G37*
G36*
X-13922087Y896064D02*
G01*
X-13875820Y896064D01*
X-13835871Y887573D01*
X-13794267Y883475D01*
X-13742002Y867621D01*
X-13691576Y856902D01*
X-13659306Y842535D01*
X-13625288Y832215D01*
X-13571233Y803322D01*
X-13519500Y780289D01*
X-13495449Y762815D01*
X-13469553Y748973D01*
X-13416729Y705622D01*
X-13367113Y669573D01*
X-13351004Y651682D01*
X-13333052Y636949D01*
X-13284812Y578169D01*
X-13241076Y529595D01*
X-13231889Y513681D01*
X-13221028Y500448D01*
X-13180851Y425281D01*
X-13146896Y366470D01*
X-13142991Y354450D01*
X-13137786Y344713D01*
X-13109087Y250104D01*
X-13088689Y187328D01*
X-13087972Y180498D01*
X-13086526Y175734D01*
X-13072464Y32958D01*
X-13069000Y0D01*
X-13072465Y-32959D01*
X-13086526Y-175733D01*
X-13087971Y-180496D01*
X-13088689Y-187328D01*
X-13109091Y-250117D01*
X-13137786Y-344712D01*
X-13142990Y-354447D01*
X-13146896Y-366470D01*
X-13180858Y-425293D01*
X-13221028Y-500447D01*
X-13231887Y-513677D01*
X-13241076Y-529595D01*
X-13284822Y-578178D01*
X-13333052Y-636948D01*
X-13351000Y-651677D01*
X-13367113Y-669573D01*
X-13416740Y-705628D01*
X-13469553Y-748972D01*
X-13495443Y-762810D01*
X-13519500Y-780289D01*
X-13571244Y-803326D01*
X-13625288Y-832214D01*
X-13659299Y-842531D01*
X-13691576Y-856902D01*
X-13742013Y-867622D01*
X-13794267Y-883474D01*
X-13835862Y-887570D01*
X-13875820Y-896064D01*
X-13922097Y-896064D01*
X-13970000Y-900782D01*
X-14017903Y-896064D01*
X-14064180Y-896064D01*
X-14104138Y-887570D01*
X-14145734Y-883474D01*
X-14197991Y-867621D01*
X-14248424Y-856902D01*
X-14280700Y-842532D01*
X-14314713Y-832214D01*
X-14368763Y-803323D01*
X-14420500Y-780289D01*
X-14444555Y-762812D01*
X-14470448Y-748972D01*
X-14523270Y-705622D01*
X-14572887Y-669573D01*
X-14588998Y-651680D01*
X-14606949Y-636948D01*
X-14655191Y-578166D01*
X-14698924Y-529595D01*
X-14708112Y-513681D01*
X-14718973Y-500447D01*
X-14759156Y-425269D01*
X-14793104Y-366470D01*
X-14797009Y-354451D01*
X-14802215Y-344712D01*
X-14830925Y-250071D01*
X-14851311Y-187328D01*
X-14852029Y-180501D01*
X-14853475Y-175733D01*
X-14867552Y-32808D01*
X-14871000Y0D01*
X-14867552Y32806D01*
X-14853475Y175734D01*
X-14852029Y180503D01*
X-14851311Y187328D01*
X-14830929Y250058D01*
X-14802215Y344713D01*
X-14797009Y354455D01*
X-14793104Y366470D01*
X-14759164Y425258D01*
X-14718973Y500448D01*
X-14708110Y513686D01*
X-14698924Y529595D01*
X-14655200Y578157D01*
X-14606949Y636949D01*
X-14588995Y651685D01*
X-14572887Y669573D01*
X-14523280Y705615D01*
X-14470448Y748973D01*
X-14444550Y762817D01*
X-14420500Y780289D01*
X-14368774Y803319D01*
X-14314713Y832215D01*
X-14280693Y842536D01*
X-14248424Y856902D01*
X-14198002Y867620D01*
X-14145734Y883475D01*
X-14104129Y887573D01*
X-14064180Y896064D01*
X-14017914Y896064D01*
X-13970000Y900783D01*
X-13922087Y896064D01*
G37*
G36*
X-5032087Y896064D02*
G01*
X-4985820Y896064D01*
X-4945871Y887573D01*
X-4904267Y883475D01*
X-4852002Y867621D01*
X-4801576Y856902D01*
X-4769306Y842535D01*
X-4735288Y832215D01*
X-4681233Y803322D01*
X-4629500Y780289D01*
X-4605449Y762815D01*
X-4579553Y748973D01*
X-4526729Y705622D01*
X-4477113Y669573D01*
X-4461004Y651682D01*
X-4443052Y636949D01*
X-4394812Y578169D01*
X-4351076Y529595D01*
X-4341889Y513681D01*
X-4331028Y500448D01*
X-4290851Y425281D01*
X-4256896Y366470D01*
X-4252991Y354450D01*
X-4247786Y344713D01*
X-4219087Y250104D01*
X-4198689Y187328D01*
X-4197972Y180498D01*
X-4196526Y175734D01*
X-4182464Y32958D01*
X-4179000Y0D01*
X-4182465Y-32959D01*
X-4196526Y-175733D01*
X-4197971Y-180496D01*
X-4198689Y-187328D01*
X-4219091Y-250117D01*
X-4247786Y-344712D01*
X-4252990Y-354447D01*
X-4256896Y-366470D01*
X-4290858Y-425293D01*
X-4331028Y-500447D01*
X-4341887Y-513677D01*
X-4351076Y-529595D01*
X-4394822Y-578178D01*
X-4443052Y-636948D01*
X-4461000Y-651677D01*
X-4477113Y-669573D01*
X-4526740Y-705628D01*
X-4579553Y-748972D01*
X-4605443Y-762810D01*
X-4629500Y-780289D01*
X-4681244Y-803326D01*
X-4735288Y-832214D01*
X-4769299Y-842531D01*
X-4801576Y-856902D01*
X-4852013Y-867622D01*
X-4904267Y-883474D01*
X-4945862Y-887570D01*
X-4985820Y-896064D01*
X-5032097Y-896064D01*
X-5080000Y-900782D01*
X-5127903Y-896064D01*
X-5174180Y-896064D01*
X-5214138Y-887570D01*
X-5255734Y-883474D01*
X-5307991Y-867621D01*
X-5358424Y-856902D01*
X-5390700Y-842532D01*
X-5424713Y-832214D01*
X-5478763Y-803323D01*
X-5530500Y-780289D01*
X-5554555Y-762812D01*
X-5580448Y-748972D01*
X-5633270Y-705622D01*
X-5682887Y-669573D01*
X-5698998Y-651680D01*
X-5716949Y-636948D01*
X-5765191Y-578166D01*
X-5808924Y-529595D01*
X-5818112Y-513681D01*
X-5828973Y-500447D01*
X-5869156Y-425269D01*
X-5903104Y-366470D01*
X-5907009Y-354451D01*
X-5912215Y-344712D01*
X-5940925Y-250071D01*
X-5961311Y-187328D01*
X-5962029Y-180501D01*
X-5963475Y-175733D01*
X-5977552Y-32808D01*
X-5981000Y0D01*
X-5977552Y32806D01*
X-5963475Y175734D01*
X-5962029Y180503D01*
X-5961311Y187328D01*
X-5940929Y250058D01*
X-5912215Y344713D01*
X-5907009Y354455D01*
X-5903104Y366470D01*
X-5869164Y425258D01*
X-5828973Y500448D01*
X-5818110Y513686D01*
X-5808924Y529595D01*
X-5765200Y578157D01*
X-5716949Y636949D01*
X-5698995Y651685D01*
X-5682887Y669573D01*
X-5633280Y705615D01*
X-5580448Y748973D01*
X-5554550Y762817D01*
X-5530500Y780289D01*
X-5478774Y803319D01*
X-5424713Y832215D01*
X-5390693Y842536D01*
X-5358424Y856902D01*
X-5308002Y867620D01*
X-5255734Y883475D01*
X-5214129Y887573D01*
X-5174180Y896064D01*
X-5127914Y896064D01*
X-5080000Y900783D01*
X-5032087Y896064D01*
G37*
G36*
X5127913Y896064D02*
G01*
X5174180Y896064D01*
X5214129Y887573D01*
X5255733Y883475D01*
X5307998Y867621D01*
X5358424Y856902D01*
X5390694Y842535D01*
X5424712Y832215D01*
X5478767Y803322D01*
X5530500Y780289D01*
X5554551Y762815D01*
X5580447Y748973D01*
X5633271Y705622D01*
X5682887Y669573D01*
X5698996Y651682D01*
X5716948Y636949D01*
X5765188Y578169D01*
X5808924Y529595D01*
X5818111Y513681D01*
X5828972Y500448D01*
X5869149Y425281D01*
X5903104Y366470D01*
X5907009Y354450D01*
X5912214Y344713D01*
X5940913Y250104D01*
X5961311Y187328D01*
X5962028Y180498D01*
X5963474Y175734D01*
X5977536Y32958D01*
X5981000Y0D01*
X5977535Y-32959D01*
X5963474Y-175733D01*
X5962029Y-180496D01*
X5961311Y-187328D01*
X5940909Y-250117D01*
X5912214Y-344712D01*
X5907010Y-354447D01*
X5903104Y-366470D01*
X5869142Y-425293D01*
X5828972Y-500447D01*
X5818113Y-513677D01*
X5808924Y-529595D01*
X5765178Y-578178D01*
X5716948Y-636948D01*
X5699000Y-651677D01*
X5682887Y-669573D01*
X5633260Y-705628D01*
X5580447Y-748972D01*
X5554557Y-762810D01*
X5530500Y-780289D01*
X5478756Y-803326D01*
X5424712Y-832214D01*
X5390701Y-842531D01*
X5358424Y-856902D01*
X5307987Y-867622D01*
X5255733Y-883474D01*
X5214138Y-887570D01*
X5174180Y-896064D01*
X5127902Y-896064D01*
X5079999Y-900782D01*
X5032096Y-896064D01*
X4985820Y-896064D01*
X4945862Y-887570D01*
X4904266Y-883474D01*
X4852009Y-867621D01*
X4801576Y-856902D01*
X4769300Y-842532D01*
X4735287Y-832214D01*
X4681237Y-803323D01*
X4629500Y-780289D01*
X4605445Y-762812D01*
X4579552Y-748972D01*
X4526730Y-705622D01*
X4477113Y-669573D01*
X4461002Y-651680D01*
X4443051Y-636948D01*
X4394809Y-578166D01*
X4351076Y-529595D01*
X4341888Y-513681D01*
X4331027Y-500447D01*
X4290844Y-425269D01*
X4256896Y-366470D01*
X4252991Y-354451D01*
X4247785Y-344712D01*
X4219075Y-250071D01*
X4198689Y-187328D01*
X4197971Y-180501D01*
X4196525Y-175733D01*
X4182448Y-32808D01*
X4179000Y0D01*
X4182448Y32806D01*
X4196525Y175734D01*
X4197971Y180503D01*
X4198689Y187328D01*
X4219071Y250058D01*
X4247785Y344713D01*
X4252991Y354455D01*
X4256896Y366470D01*
X4290836Y425258D01*
X4331027Y500448D01*
X4341890Y513686D01*
X4351076Y529595D01*
X4394800Y578157D01*
X4443051Y636949D01*
X4461005Y651685D01*
X4477113Y669573D01*
X4526720Y705615D01*
X4579552Y748973D01*
X4605450Y762817D01*
X4629500Y780289D01*
X4681226Y803319D01*
X4735287Y832215D01*
X4769307Y842536D01*
X4801576Y856902D01*
X4851998Y867620D01*
X4904266Y883475D01*
X4945871Y887573D01*
X4985820Y896064D01*
X5032086Y896064D01*
X5079999Y900783D01*
X5127913Y896064D01*
G37*
G36*
X14017913Y896064D02*
G01*
X14064180Y896064D01*
X14104129Y887573D01*
X14145733Y883475D01*
X14197998Y867621D01*
X14248424Y856902D01*
X14280694Y842535D01*
X14314712Y832215D01*
X14368767Y803322D01*
X14420500Y780289D01*
X14444551Y762815D01*
X14470447Y748973D01*
X14523271Y705622D01*
X14572887Y669573D01*
X14588996Y651682D01*
X14606948Y636949D01*
X14655188Y578169D01*
X14698924Y529595D01*
X14708111Y513681D01*
X14718972Y500448D01*
X14759149Y425281D01*
X14793104Y366470D01*
X14797009Y354450D01*
X14802214Y344713D01*
X14830913Y250104D01*
X14851311Y187328D01*
X14852028Y180498D01*
X14853474Y175734D01*
X14867536Y32958D01*
X14871000Y0D01*
X14867535Y-32959D01*
X14853474Y-175733D01*
X14852029Y-180496D01*
X14851311Y-187328D01*
X14830909Y-250117D01*
X14802214Y-344712D01*
X14797010Y-354447D01*
X14793104Y-366470D01*
X14759142Y-425293D01*
X14718972Y-500447D01*
X14708113Y-513677D01*
X14698924Y-529595D01*
X14655178Y-578178D01*
X14606948Y-636948D01*
X14589000Y-651677D01*
X14572887Y-669573D01*
X14523260Y-705628D01*
X14470447Y-748972D01*
X14444557Y-762810D01*
X14420500Y-780289D01*
X14368756Y-803326D01*
X14314712Y-832214D01*
X14280701Y-842531D01*
X14248424Y-856902D01*
X14197987Y-867622D01*
X14145733Y-883474D01*
X14104138Y-887570D01*
X14064180Y-896064D01*
X14017902Y-896064D01*
X13969999Y-900782D01*
X13922096Y-896064D01*
X13875820Y-896064D01*
X13835862Y-887570D01*
X13794266Y-883474D01*
X13742009Y-867621D01*
X13691576Y-856902D01*
X13659300Y-842532D01*
X13625287Y-832214D01*
X13571237Y-803323D01*
X13519500Y-780289D01*
X13495445Y-762812D01*
X13469552Y-748972D01*
X13416730Y-705622D01*
X13367113Y-669573D01*
X13351002Y-651680D01*
X13333051Y-636948D01*
X13284809Y-578166D01*
X13241076Y-529595D01*
X13231888Y-513681D01*
X13221027Y-500447D01*
X13180844Y-425269D01*
X13146896Y-366470D01*
X13142991Y-354451D01*
X13137785Y-344712D01*
X13109075Y-250071D01*
X13088689Y-187328D01*
X13087971Y-180501D01*
X13086525Y-175733D01*
X13072448Y-32808D01*
X13069000Y0D01*
X13072448Y32806D01*
X13086525Y175734D01*
X13087971Y180503D01*
X13088689Y187328D01*
X13109071Y250058D01*
X13137785Y344713D01*
X13142991Y354455D01*
X13146896Y366470D01*
X13180836Y425258D01*
X13221027Y500448D01*
X13231890Y513686D01*
X13241076Y529595D01*
X13284800Y578157D01*
X13333051Y636949D01*
X13351005Y651685D01*
X13367113Y669573D01*
X13416720Y705615D01*
X13469552Y748973D01*
X13495450Y762817D01*
X13519500Y780289D01*
X13571226Y803319D01*
X13625287Y832215D01*
X13659307Y842536D01*
X13691576Y856902D01*
X13741998Y867620D01*
X13794266Y883475D01*
X13835871Y887573D01*
X13875820Y896064D01*
X13922086Y896064D01*
X13969999Y900783D01*
X14017913Y896064D01*
G37*
G36*
X24177913Y896064D02*
G01*
X24224180Y896064D01*
X24264129Y887573D01*
X24305733Y883475D01*
X24357998Y867621D01*
X24408424Y856902D01*
X24440694Y842535D01*
X24474712Y832215D01*
X24528767Y803322D01*
X24580500Y780289D01*
X24604551Y762815D01*
X24630447Y748973D01*
X24683271Y705622D01*
X24732887Y669573D01*
X24748996Y651682D01*
X24766948Y636949D01*
X24815188Y578169D01*
X24858924Y529595D01*
X24868111Y513681D01*
X24878972Y500448D01*
X24919149Y425281D01*
X24953104Y366470D01*
X24957009Y354450D01*
X24962214Y344713D01*
X24990913Y250104D01*
X25011311Y187328D01*
X25012028Y180498D01*
X25013474Y175734D01*
X25027536Y32958D01*
X25031000Y0D01*
X25027535Y-32959D01*
X25013474Y-175733D01*
X25012029Y-180496D01*
X25011311Y-187328D01*
X24990909Y-250117D01*
X24962214Y-344712D01*
X24957010Y-354447D01*
X24953104Y-366470D01*
X24919142Y-425293D01*
X24878972Y-500447D01*
X24868113Y-513677D01*
X24858924Y-529595D01*
X24815178Y-578178D01*
X24766948Y-636948D01*
X24749000Y-651677D01*
X24732887Y-669573D01*
X24683260Y-705628D01*
X24630447Y-748972D01*
X24604557Y-762810D01*
X24580500Y-780289D01*
X24528756Y-803326D01*
X24474712Y-832214D01*
X24440701Y-842531D01*
X24408424Y-856902D01*
X24357987Y-867622D01*
X24305733Y-883474D01*
X24264138Y-887570D01*
X24224180Y-896064D01*
X24177903Y-896064D01*
X24130000Y-900782D01*
X24082097Y-896064D01*
X24035820Y-896064D01*
X23995862Y-887570D01*
X23954266Y-883474D01*
X23902009Y-867621D01*
X23851576Y-856902D01*
X23819300Y-842532D01*
X23785287Y-832214D01*
X23731237Y-803323D01*
X23679500Y-780289D01*
X23655445Y-762812D01*
X23629552Y-748972D01*
X23576730Y-705622D01*
X23527113Y-669573D01*
X23511002Y-651680D01*
X23493051Y-636948D01*
X23444809Y-578166D01*
X23401076Y-529595D01*
X23391888Y-513681D01*
X23381027Y-500447D01*
X23340844Y-425269D01*
X23306896Y-366470D01*
X23302991Y-354451D01*
X23297785Y-344712D01*
X23269075Y-250071D01*
X23248689Y-187328D01*
X23247971Y-180501D01*
X23246525Y-175733D01*
X23232448Y-32808D01*
X23229000Y0D01*
X23232448Y32806D01*
X23246525Y175734D01*
X23247971Y180503D01*
X23248689Y187328D01*
X23269071Y250058D01*
X23297785Y344713D01*
X23302991Y354455D01*
X23306896Y366470D01*
X23340836Y425258D01*
X23381027Y500448D01*
X23391890Y513686D01*
X23401076Y529595D01*
X23444800Y578157D01*
X23493051Y636949D01*
X23511005Y651685D01*
X23527113Y669573D01*
X23576720Y705615D01*
X23629552Y748973D01*
X23655450Y762817D01*
X23679500Y780289D01*
X23731226Y803319D01*
X23785287Y832215D01*
X23819307Y842536D01*
X23851576Y856902D01*
X23901998Y867620D01*
X23954266Y883475D01*
X23995871Y887573D01*
X24035820Y896064D01*
X24082086Y896064D01*
X24129999Y900783D01*
X24177913Y896064D01*
G37*
G36*
X-19773081Y1710700D02*
G01*
X-19707872Y1667128D01*
X-19664300Y1601919D01*
X-19649000Y1525000D01*
X-19649000Y350000D01*
X-19664300Y273081D01*
X-19707872Y207872D01*
X-19773081Y164300D01*
X-19850000Y149000D01*
X-20150000Y149000D01*
X-20226919Y164300D01*
X-20292128Y207872D01*
X-20335700Y273081D01*
X-20351000Y350000D01*
X-20351000Y1525000D01*
X-20335700Y1601919D01*
X-20292128Y1667128D01*
X-20226919Y1710700D01*
X-20150000Y1726000D01*
X-19850000Y1726000D01*
X-19773081Y1710700D01*
G37*
G36*
X-17873081Y1710700D02*
G01*
X-17807872Y1667128D01*
X-17764300Y1601919D01*
X-17749000Y1525000D01*
X-17749000Y350000D01*
X-17764300Y273081D01*
X-17807872Y207872D01*
X-17873081Y164300D01*
X-17950000Y149000D01*
X-18250000Y149000D01*
X-18326919Y164300D01*
X-18392128Y207872D01*
X-18435700Y273081D01*
X-18451000Y350000D01*
X-18451000Y1525000D01*
X-18435700Y1601919D01*
X-18392128Y1667128D01*
X-18326919Y1710700D01*
X-18250000Y1726000D01*
X-17950000Y1726000D01*
X-17873081Y1710700D01*
G37*
G36*
X-723081Y1710700D02*
G01*
X-657872Y1667128D01*
X-614300Y1601919D01*
X-599000Y1525000D01*
X-599000Y350000D01*
X-614300Y273081D01*
X-657872Y207872D01*
X-723081Y164300D01*
X-800000Y149000D01*
X-1100000Y149000D01*
X-1176919Y164300D01*
X-1242128Y207872D01*
X-1285700Y273081D01*
X-1301000Y350000D01*
X-1301000Y1525000D01*
X-1285700Y1601919D01*
X-1242128Y1667128D01*
X-1176919Y1710700D01*
X-1100000Y1726000D01*
X-800000Y1726000D01*
X-723081Y1710700D01*
G37*
G36*
X1176919Y1710700D02*
G01*
X1242128Y1667128D01*
X1285700Y1601919D01*
X1301000Y1525000D01*
X1301000Y350000D01*
X1285700Y273081D01*
X1242128Y207872D01*
X1176919Y164300D01*
X1100000Y149000D01*
X800000Y149000D01*
X723081Y164300D01*
X657872Y207872D01*
X614300Y273081D01*
X599000Y350000D01*
X599000Y1525000D01*
X614300Y1601919D01*
X657872Y1667128D01*
X723081Y1710700D01*
X800000Y1726000D01*
X1100000Y1726000D01*
X1176919Y1710700D01*
G37*
G36*
X18326919Y1710700D02*
G01*
X18392128Y1667128D01*
X18435700Y1601919D01*
X18451000Y1525000D01*
X18451000Y350000D01*
X18435700Y273081D01*
X18392128Y207872D01*
X18326919Y164300D01*
X18250000Y149000D01*
X17950000Y149000D01*
X17873081Y164300D01*
X17807872Y207872D01*
X17764300Y273081D01*
X17749000Y350000D01*
X17749000Y1525000D01*
X17764300Y1601919D01*
X17807872Y1667128D01*
X17873081Y1710700D01*
X17950000Y1726000D01*
X18250000Y1726000D01*
X18326919Y1710700D01*
G37*
G36*
X20226919Y1710700D02*
G01*
X20292128Y1667128D01*
X20335700Y1601919D01*
X20351000Y1525000D01*
X20351000Y350000D01*
X20335700Y273081D01*
X20292128Y207872D01*
X20226919Y164300D01*
X20150000Y149000D01*
X19850000Y149000D01*
X19773081Y164300D01*
X19707872Y207872D01*
X19664300Y273081D01*
X19649000Y350000D01*
X19649000Y1525000D01*
X19664300Y1601919D01*
X19707872Y1667128D01*
X19773081Y1710700D01*
X19850000Y1726000D01*
X20150000Y1726000D01*
X20226919Y1710700D01*
G37*
G36*
X2533093Y1246461D02*
G01*
X2595057Y1205057D01*
X2636461Y1143093D01*
X2651000Y1070000D01*
X2651000Y730000D01*
X2636461Y656907D01*
X2595057Y594943D01*
X2533093Y553539D01*
X2460000Y539000D01*
X2180000Y539000D01*
X2106907Y553539D01*
X2044943Y594943D01*
X2003539Y656907D01*
X1989000Y730000D01*
X1989000Y1070000D01*
X2003539Y1143093D01*
X2044943Y1205057D01*
X2106907Y1246461D01*
X2180000Y1261000D01*
X2460000Y1261000D01*
X2533093Y1246461D01*
G37*
G36*
X3493093Y1246461D02*
G01*
X3555057Y1205057D01*
X3596461Y1143093D01*
X3611000Y1070000D01*
X3611000Y730000D01*
X3596461Y656907D01*
X3555057Y594943D01*
X3493093Y553539D01*
X3420000Y539000D01*
X3140000Y539000D01*
X3066907Y553539D01*
X3004943Y594943D01*
X2963539Y656907D01*
X2949000Y730000D01*
X2949000Y1070000D01*
X2963539Y1143093D01*
X3004943Y1205057D01*
X3066907Y1246461D01*
X3140000Y1261000D01*
X3420000Y1261000D01*
X3493093Y1246461D01*
G37*
G36*
X21533093Y1346461D02*
G01*
X21595057Y1305057D01*
X21636461Y1243093D01*
X21651000Y1170000D01*
X21651000Y830000D01*
X21636461Y756907D01*
X21595057Y694943D01*
X21533093Y653539D01*
X21460000Y639000D01*
X21180000Y639000D01*
X21106907Y653539D01*
X21044943Y694943D01*
X21003539Y756907D01*
X20989000Y830000D01*
X20989000Y1170000D01*
X21003539Y1243093D01*
X21044943Y1305057D01*
X21106907Y1346461D01*
X21180000Y1361000D01*
X21460000Y1361000D01*
X21533093Y1346461D01*
G37*
G36*
X22493093Y1346461D02*
G01*
X22555057Y1305057D01*
X22596461Y1243093D01*
X22611000Y1170000D01*
X22611000Y830000D01*
X22596461Y756907D01*
X22555057Y694943D01*
X22493093Y653539D01*
X22420000Y639000D01*
X22140000Y639000D01*
X22066907Y653539D01*
X22004943Y694943D01*
X21963539Y756907D01*
X21949000Y830000D01*
X21949000Y1170000D01*
X21963539Y1243093D01*
X22004943Y1305057D01*
X22066907Y1346461D01*
X22140000Y1361000D01*
X22420000Y1361000D01*
X22493093Y1346461D01*
G37*
G36*
X-16366907Y1446461D02*
G01*
X-16304943Y1405057D01*
X-16263539Y1343093D01*
X-16249000Y1270000D01*
X-16249000Y930000D01*
X-16263539Y856907D01*
X-16304943Y794943D01*
X-16366907Y753539D01*
X-16440000Y739000D01*
X-16720000Y739000D01*
X-16793093Y753539D01*
X-16855057Y794943D01*
X-16896461Y856907D01*
X-16911000Y930000D01*
X-16911000Y1270000D01*
X-16896461Y1343093D01*
X-16855057Y1405057D01*
X-16793093Y1446461D01*
X-16720000Y1461000D01*
X-16440000Y1461000D01*
X-16366907Y1446461D01*
G37*
G36*
X-15406907Y1446461D02*
G01*
X-15344943Y1405057D01*
X-15303539Y1343093D01*
X-15289000Y1270000D01*
X-15289000Y930000D01*
X-15303539Y856907D01*
X-15344943Y794943D01*
X-15406907Y753539D01*
X-15480000Y739000D01*
X-15760000Y739000D01*
X-15833093Y753539D01*
X-15895057Y794943D01*
X-15936461Y856907D01*
X-15951000Y930000D01*
X-15951000Y1270000D01*
X-15936461Y1343093D01*
X-15895057Y1405057D01*
X-15833093Y1446461D01*
X-15760000Y1461000D01*
X-15480000Y1461000D01*
X-15406907Y1446461D01*
G37*
G36*
X-2986907Y2046461D02*
G01*
X-2924943Y2005057D01*
X-2883539Y1943093D01*
X-2869000Y1870000D01*
X-2869000Y1530000D01*
X-2883539Y1456907D01*
X-2924943Y1394943D01*
X-2986907Y1353539D01*
X-3060000Y1339000D01*
X-3340000Y1339000D01*
X-3413093Y1353539D01*
X-3475057Y1394943D01*
X-3516461Y1456907D01*
X-3531000Y1530000D01*
X-3531000Y1870000D01*
X-3516461Y1943093D01*
X-3475057Y2005057D01*
X-3413093Y2046461D01*
X-3340000Y2061000D01*
X-3060000Y2061000D01*
X-2986907Y2046461D01*
G37*
G36*
X-2026907Y2046461D02*
G01*
X-1964943Y2005057D01*
X-1923539Y1943093D01*
X-1909000Y1870000D01*
X-1909000Y1530000D01*
X-1923539Y1456907D01*
X-1964943Y1394943D01*
X-2026907Y1353539D01*
X-2100000Y1339000D01*
X-2380000Y1339000D01*
X-2453093Y1353539D01*
X-2515057Y1394943D01*
X-2556461Y1456907D01*
X-2571000Y1530000D01*
X-2571000Y1870000D01*
X-2556461Y1943093D01*
X-2515057Y2005057D01*
X-2453093Y2046461D01*
X-2380000Y2061000D01*
X-2100000Y2061000D01*
X-2026907Y2046461D01*
G37*
G36*
X16033093Y2046461D02*
G01*
X16095057Y2005057D01*
X16136461Y1943093D01*
X16151000Y1870000D01*
X16151000Y1530000D01*
X16136461Y1456907D01*
X16095057Y1394943D01*
X16033093Y1353539D01*
X15960000Y1339000D01*
X15680000Y1339000D01*
X15606907Y1353539D01*
X15544943Y1394943D01*
X15503539Y1456907D01*
X15489000Y1530000D01*
X15489000Y1870000D01*
X15503539Y1943093D01*
X15544943Y2005057D01*
X15606907Y2046461D01*
X15680000Y2061000D01*
X15960000Y2061000D01*
X16033093Y2046461D01*
G37*
G36*
X16993093Y2046461D02*
G01*
X17055057Y2005057D01*
X17096461Y1943093D01*
X17111000Y1870000D01*
X17111000Y1530000D01*
X17096461Y1456907D01*
X17055057Y1394943D01*
X16993093Y1353539D01*
X16920000Y1339000D01*
X16640000Y1339000D01*
X16566907Y1353539D01*
X16504943Y1394943D01*
X16463539Y1456907D01*
X16449000Y1530000D01*
X16449000Y1870000D01*
X16463539Y1943093D01*
X16504943Y2005057D01*
X16566907Y2046461D01*
X16640000Y2061000D01*
X16920000Y2061000D01*
X16993093Y2046461D01*
G37*
G36*
X-5066907Y2146461D02*
G01*
X-5004943Y2105057D01*
X-4963539Y2043093D01*
X-4949000Y1970000D01*
X-4949000Y1630000D01*
X-4963539Y1556907D01*
X-5004943Y1494943D01*
X-5066907Y1453539D01*
X-5140000Y1439000D01*
X-5420000Y1439000D01*
X-5493093Y1453539D01*
X-5555057Y1494943D01*
X-5596461Y1556907D01*
X-5611000Y1630000D01*
X-5611000Y1970000D01*
X-5596461Y2043093D01*
X-5555057Y2105057D01*
X-5493093Y2146461D01*
X-5420000Y2161000D01*
X-5140000Y2161000D01*
X-5066907Y2146461D01*
G37*
G36*
X-4106907Y2146461D02*
G01*
X-4044943Y2105057D01*
X-4003539Y2043093D01*
X-3989000Y1970000D01*
X-3989000Y1630000D01*
X-4003539Y1556907D01*
X-4044943Y1494943D01*
X-4106907Y1453539D01*
X-4180000Y1439000D01*
X-4460000Y1439000D01*
X-4533093Y1453539D01*
X-4595057Y1494943D01*
X-4636461Y1556907D01*
X-4651000Y1630000D01*
X-4651000Y1970000D01*
X-4636461Y2043093D01*
X-4595057Y2105057D01*
X-4533093Y2146461D01*
X-4460000Y2161000D01*
X-4180000Y2161000D01*
X-4106907Y2146461D01*
G37*
G36*
X14083093Y2446461D02*
G01*
X14145057Y2405057D01*
X14186461Y2343093D01*
X14201000Y2270000D01*
X14201000Y1930000D01*
X14186461Y1856907D01*
X14145057Y1794943D01*
X14083093Y1753539D01*
X14010000Y1739000D01*
X13730000Y1739000D01*
X13656907Y1753539D01*
X13594943Y1794943D01*
X13553539Y1856907D01*
X13539000Y1930000D01*
X13539000Y2270000D01*
X13553539Y2343093D01*
X13594943Y2405057D01*
X13656907Y2446461D01*
X13730000Y2461000D01*
X14010000Y2461000D01*
X14083093Y2446461D01*
G37*
G36*
X15043093Y2446461D02*
G01*
X15105057Y2405057D01*
X15146461Y2343093D01*
X15161000Y2270000D01*
X15161000Y1930000D01*
X15146461Y1856907D01*
X15105057Y1794943D01*
X15043093Y1753539D01*
X14970000Y1739000D01*
X14690000Y1739000D01*
X14616907Y1753539D01*
X14554943Y1794943D01*
X14513539Y1856907D01*
X14499000Y1930000D01*
X14499000Y2270000D01*
X14513539Y2343093D01*
X14554943Y2405057D01*
X14616907Y2446461D01*
X14690000Y2461000D01*
X14970000Y2461000D01*
X15043093Y2446461D01*
G37*
G36*
X-19766907Y2746461D02*
G01*
X-19704943Y2705057D01*
X-19663539Y2643093D01*
X-19649000Y2570000D01*
X-19649000Y2230000D01*
X-19663539Y2156907D01*
X-19704943Y2094943D01*
X-19766907Y2053539D01*
X-19840000Y2039000D01*
X-20120000Y2039000D01*
X-20193093Y2053539D01*
X-20255057Y2094943D01*
X-20296461Y2156907D01*
X-20311000Y2230000D01*
X-20311000Y2570000D01*
X-20296461Y2643093D01*
X-20255057Y2705057D01*
X-20193093Y2746461D01*
X-20120000Y2761000D01*
X-19840000Y2761000D01*
X-19766907Y2746461D01*
G37*
G36*
X-18806907Y2746461D02*
G01*
X-18744943Y2705057D01*
X-18703539Y2643093D01*
X-18689000Y2570000D01*
X-18689000Y2230000D01*
X-18703539Y2156907D01*
X-18744943Y2094943D01*
X-18806907Y2053539D01*
X-18880000Y2039000D01*
X-19160000Y2039000D01*
X-19233093Y2053539D01*
X-19295057Y2094943D01*
X-19336461Y2156907D01*
X-19351000Y2230000D01*
X-19351000Y2570000D01*
X-19336461Y2643093D01*
X-19295057Y2705057D01*
X-19233093Y2746461D01*
X-19160000Y2761000D01*
X-18880000Y2761000D01*
X-18806907Y2746461D01*
G37*
G36*
X-17766907Y2746461D02*
G01*
X-17704943Y2705057D01*
X-17663539Y2643093D01*
X-17649000Y2570000D01*
X-17649000Y2230000D01*
X-17663539Y2156907D01*
X-17704943Y2094943D01*
X-17766907Y2053539D01*
X-17840000Y2039000D01*
X-18120000Y2039000D01*
X-18193093Y2053539D01*
X-18255057Y2094943D01*
X-18296461Y2156907D01*
X-18311000Y2230000D01*
X-18311000Y2570000D01*
X-18296461Y2643093D01*
X-18255057Y2705057D01*
X-18193093Y2746461D01*
X-18120000Y2761000D01*
X-17840000Y2761000D01*
X-17766907Y2746461D01*
G37*
G36*
X-16806907Y2746461D02*
G01*
X-16744943Y2705057D01*
X-16703539Y2643093D01*
X-16689000Y2570000D01*
X-16689000Y2230000D01*
X-16703539Y2156907D01*
X-16744943Y2094943D01*
X-16806907Y2053539D01*
X-16880000Y2039000D01*
X-17160000Y2039000D01*
X-17233093Y2053539D01*
X-17295057Y2094943D01*
X-17336461Y2156907D01*
X-17351000Y2230000D01*
X-17351000Y2570000D01*
X-17336461Y2643093D01*
X-17295057Y2705057D01*
X-17233093Y2746461D01*
X-17160000Y2761000D01*
X-16880000Y2761000D01*
X-16806907Y2746461D01*
G37*
G36*
X-9856907Y8236461D02*
G01*
X-9794943Y8195057D01*
X-9753539Y8133093D01*
X-9739000Y8060000D01*
X-9739000Y7780000D01*
X-9753539Y7706907D01*
X-9794943Y7644943D01*
X-9856907Y7603539D01*
X-9930000Y7589000D01*
X-10270000Y7589000D01*
X-10343093Y7603539D01*
X-10405057Y7644943D01*
X-10446461Y7706907D01*
X-10461000Y7780000D01*
X-10461000Y8060000D01*
X-10446461Y8133093D01*
X-10405057Y8195057D01*
X-10343093Y8236461D01*
X-10270000Y8251000D01*
X-9930000Y8251000D01*
X-9856907Y8236461D01*
G37*
G36*
X-5536907Y8256461D02*
G01*
X-5474943Y8215057D01*
X-5433539Y8153093D01*
X-5419000Y8080000D01*
X-5419000Y7800000D01*
X-5433539Y7726907D01*
X-5474943Y7664943D01*
X-5536907Y7623539D01*
X-5610000Y7609000D01*
X-5950000Y7609000D01*
X-6023093Y7623539D01*
X-6085057Y7664943D01*
X-6126461Y7726907D01*
X-6141000Y7800000D01*
X-6141000Y8080000D01*
X-6126461Y8153093D01*
X-6085057Y8215057D01*
X-6023093Y8256461D01*
X-5950000Y8271000D01*
X-5610000Y8271000D01*
X-5536907Y8256461D01*
G37*
G36*
X-4296907Y8596461D02*
G01*
X-4234943Y8555057D01*
X-4193539Y8493093D01*
X-4179000Y8420000D01*
X-4179000Y8080000D01*
X-4193539Y8006907D01*
X-4234943Y7944943D01*
X-4296907Y7903539D01*
X-4370000Y7889000D01*
X-4650000Y7889000D01*
X-4723093Y7903539D01*
X-4785057Y7944943D01*
X-4826461Y8006907D01*
X-4841000Y8080000D01*
X-4841000Y8420000D01*
X-4826461Y8493093D01*
X-4785057Y8555057D01*
X-4723093Y8596461D01*
X-4650000Y8611000D01*
X-4370000Y8611000D01*
X-4296907Y8596461D01*
G37*
G36*
X-3336907Y8596461D02*
G01*
X-3274943Y8555057D01*
X-3233539Y8493093D01*
X-3219000Y8420000D01*
X-3219000Y8080000D01*
X-3233539Y8006907D01*
X-3274943Y7944943D01*
X-3336907Y7903539D01*
X-3410000Y7889000D01*
X-3690000Y7889000D01*
X-3763093Y7903539D01*
X-3825057Y7944943D01*
X-3866461Y8006907D01*
X-3881000Y8080000D01*
X-3881000Y8420000D01*
X-3866461Y8493093D01*
X-3825057Y8555057D01*
X-3763093Y8596461D01*
X-3690000Y8611000D01*
X-3410000Y8611000D01*
X-3336907Y8596461D01*
G37*
G36*
X-9856907Y9196461D02*
G01*
X-9794943Y9155057D01*
X-9753539Y9093093D01*
X-9739000Y9020000D01*
X-9739000Y8740000D01*
X-9753539Y8666907D01*
X-9794943Y8604943D01*
X-9856907Y8563539D01*
X-9930000Y8549000D01*
X-10270000Y8549000D01*
X-10343093Y8563539D01*
X-10405057Y8604943D01*
X-10446461Y8666907D01*
X-10461000Y8740000D01*
X-10461000Y9020000D01*
X-10446461Y9093093D01*
X-10405057Y9155057D01*
X-10343093Y9196461D01*
X-10270000Y9211000D01*
X-9930000Y9211000D01*
X-9856907Y9196461D01*
G37*
G36*
X-5536907Y9216461D02*
G01*
X-5474943Y9175057D01*
X-5433539Y9113093D01*
X-5419000Y9040000D01*
X-5419000Y8760000D01*
X-5433539Y8686907D01*
X-5474943Y8624943D01*
X-5536907Y8583539D01*
X-5610000Y8569000D01*
X-5950000Y8569000D01*
X-6023093Y8583539D01*
X-6085057Y8624943D01*
X-6126461Y8686907D01*
X-6141000Y8760000D01*
X-6141000Y9040000D01*
X-6126461Y9113093D01*
X-6085057Y9175057D01*
X-6023093Y9216461D01*
X-5950000Y9231000D01*
X-5610000Y9231000D01*
X-5536907Y9216461D01*
G37*
G36*
X-4306907Y9966461D02*
G01*
X-4244943Y9925057D01*
X-4203539Y9863093D01*
X-4189000Y9790000D01*
X-4189000Y9450000D01*
X-4203539Y9376907D01*
X-4244943Y9314943D01*
X-4306907Y9273539D01*
X-4380000Y9259000D01*
X-4660000Y9259000D01*
X-4733093Y9273539D01*
X-4795057Y9314943D01*
X-4836461Y9376907D01*
X-4851000Y9450000D01*
X-4851000Y9790000D01*
X-4836461Y9863093D01*
X-4795057Y9925057D01*
X-4733093Y9966461D01*
X-4660000Y9981000D01*
X-4380000Y9981000D01*
X-4306907Y9966461D01*
G37*
G36*
X-3346907Y9966461D02*
G01*
X-3284943Y9925057D01*
X-3243539Y9863093D01*
X-3229000Y9790000D01*
X-3229000Y9450000D01*
X-3243539Y9376907D01*
X-3284943Y9314943D01*
X-3346907Y9273539D01*
X-3420000Y9259000D01*
X-3700000Y9259000D01*
X-3773093Y9273539D01*
X-3835057Y9314943D01*
X-3876461Y9376907D01*
X-3891000Y9450000D01*
X-3891000Y9790000D01*
X-3876461Y9863093D01*
X-3835057Y9925057D01*
X-3773093Y9966461D01*
X-3700000Y9981000D01*
X-3420000Y9981000D01*
X-3346907Y9966461D01*
G37*
G36*
X-1691745Y10136961D02*
G01*
X-1629781Y10095557D01*
X-1588377Y10033593D01*
X-1573838Y9960500D01*
X-1573838Y9680500D01*
X-1588377Y9607407D01*
X-1629781Y9545443D01*
X-1691745Y9504039D01*
X-1764838Y9489500D01*
X-2104838Y9489500D01*
X-2177931Y9504039D01*
X-2239895Y9545443D01*
X-2281299Y9607407D01*
X-2295838Y9680500D01*
X-2295838Y9960500D01*
X-2281299Y10033593D01*
X-2239895Y10095557D01*
X-2177931Y10136961D01*
X-2104838Y10151500D01*
X-1764838Y10151500D01*
X-1691745Y10136961D01*
G37*
G36*
X-11613849Y10515812D02*
G01*
X-11581082Y10493918D01*
X-11559188Y10461151D01*
X-11551500Y10422500D01*
X-11551500Y9647500D01*
X-11559188Y9608849D01*
X-11581082Y9576082D01*
X-11613849Y9554188D01*
X-11652500Y9546500D01*
X-11752500Y9546500D01*
X-11791151Y9554188D01*
X-11823918Y9576082D01*
X-11845812Y9608849D01*
X-11853500Y9647500D01*
X-11853500Y10422500D01*
X-11845812Y10461151D01*
X-11823918Y10493918D01*
X-11791151Y10515812D01*
X-11752500Y10523500D01*
X-11652500Y10523500D01*
X-11613849Y10515812D01*
G37*
G36*
X-11213849Y10515812D02*
G01*
X-11181082Y10493918D01*
X-11159188Y10461151D01*
X-11151500Y10422500D01*
X-11151500Y9647500D01*
X-11159188Y9608849D01*
X-11181082Y9576082D01*
X-11213849Y9554188D01*
X-11252500Y9546500D01*
X-11352500Y9546500D01*
X-11391151Y9554188D01*
X-11423918Y9576082D01*
X-11445812Y9608849D01*
X-11453500Y9647500D01*
X-11453500Y10422500D01*
X-11445812Y10461151D01*
X-11423918Y10493918D01*
X-11391151Y10515812D01*
X-11352500Y10523500D01*
X-11252500Y10523500D01*
X-11213849Y10515812D01*
G37*
G36*
X-10813849Y10515812D02*
G01*
X-10781082Y10493918D01*
X-10759188Y10461151D01*
X-10751500Y10422500D01*
X-10751500Y9647500D01*
X-10759188Y9608849D01*
X-10781082Y9576082D01*
X-10813849Y9554188D01*
X-10852500Y9546500D01*
X-10952500Y9546500D01*
X-10991151Y9554188D01*
X-11023918Y9576082D01*
X-11045812Y9608849D01*
X-11053500Y9647500D01*
X-11053500Y10422500D01*
X-11045812Y10461151D01*
X-11023918Y10493918D01*
X-10991151Y10515812D01*
X-10952500Y10523500D01*
X-10852500Y10523500D01*
X-10813849Y10515812D01*
G37*
G36*
X-10413849Y10515812D02*
G01*
X-10381082Y10493918D01*
X-10359188Y10461151D01*
X-10351500Y10422500D01*
X-10351500Y9647500D01*
X-10359188Y9608849D01*
X-10381082Y9576082D01*
X-10413849Y9554188D01*
X-10452500Y9546500D01*
X-10552500Y9546500D01*
X-10591151Y9554188D01*
X-10623918Y9576082D01*
X-10645812Y9608849D01*
X-10653500Y9647500D01*
X-10653500Y10422500D01*
X-10645812Y10461151D01*
X-10623918Y10493918D01*
X-10591151Y10515812D01*
X-10552500Y10523500D01*
X-10452500Y10523500D01*
X-10413849Y10515812D01*
G37*
G36*
X-10013849Y10515812D02*
G01*
X-9981082Y10493918D01*
X-9959188Y10461151D01*
X-9951500Y10422500D01*
X-9951500Y9647500D01*
X-9959188Y9608849D01*
X-9981082Y9576082D01*
X-10013849Y9554188D01*
X-10052500Y9546500D01*
X-10152500Y9546500D01*
X-10191151Y9554188D01*
X-10223918Y9576082D01*
X-10245812Y9608849D01*
X-10253500Y9647500D01*
X-10253500Y10422500D01*
X-10245812Y10461151D01*
X-10223918Y10493918D01*
X-10191151Y10515812D01*
X-10152500Y10523500D01*
X-10052500Y10523500D01*
X-10013849Y10515812D01*
G37*
G36*
X-9613849Y10515812D02*
G01*
X-9581082Y10493918D01*
X-9559188Y10461151D01*
X-9551500Y10422500D01*
X-9551500Y9647500D01*
X-9559188Y9608849D01*
X-9581082Y9576082D01*
X-9613849Y9554188D01*
X-9652500Y9546500D01*
X-9752500Y9546500D01*
X-9791151Y9554188D01*
X-9823918Y9576082D01*
X-9845812Y9608849D01*
X-9853500Y9647500D01*
X-9853500Y10422500D01*
X-9845812Y10461151D01*
X-9823918Y10493918D01*
X-9791151Y10515812D01*
X-9752500Y10523500D01*
X-9652500Y10523500D01*
X-9613849Y10515812D01*
G37*
G36*
X-9213849Y10515812D02*
G01*
X-9181082Y10493918D01*
X-9159188Y10461151D01*
X-9151500Y10422500D01*
X-9151500Y9647500D01*
X-9159188Y9608849D01*
X-9181082Y9576082D01*
X-9213849Y9554188D01*
X-9252500Y9546500D01*
X-9352500Y9546500D01*
X-9391151Y9554188D01*
X-9423918Y9576082D01*
X-9445812Y9608849D01*
X-9453500Y9647500D01*
X-9453500Y10422500D01*
X-9445812Y10461151D01*
X-9423918Y10493918D01*
X-9391151Y10515812D01*
X-9352500Y10523500D01*
X-9252500Y10523500D01*
X-9213849Y10515812D01*
G37*
G36*
X-8813849Y10515812D02*
G01*
X-8781082Y10493918D01*
X-8759188Y10461151D01*
X-8751500Y10422500D01*
X-8751500Y9647500D01*
X-8759188Y9608849D01*
X-8781082Y9576082D01*
X-8813849Y9554188D01*
X-8852500Y9546500D01*
X-8952500Y9546500D01*
X-8991151Y9554188D01*
X-9023918Y9576082D01*
X-9045812Y9608849D01*
X-9053500Y9647500D01*
X-9053500Y10422500D01*
X-9045812Y10461151D01*
X-9023918Y10493918D01*
X-8991151Y10515812D01*
X-8952500Y10523500D01*
X-8852500Y10523500D01*
X-8813849Y10515812D01*
G37*
G36*
X-8413849Y10515812D02*
G01*
X-8381082Y10493918D01*
X-8359188Y10461151D01*
X-8351500Y10422500D01*
X-8351500Y9647500D01*
X-8359188Y9608849D01*
X-8381082Y9576082D01*
X-8413849Y9554188D01*
X-8452500Y9546500D01*
X-8552500Y9546500D01*
X-8591151Y9554188D01*
X-8623918Y9576082D01*
X-8645812Y9608849D01*
X-8653500Y9647500D01*
X-8653500Y10422500D01*
X-8645812Y10461151D01*
X-8623918Y10493918D01*
X-8591151Y10515812D01*
X-8552500Y10523500D01*
X-8452500Y10523500D01*
X-8413849Y10515812D01*
G37*
G36*
X-8013849Y10515812D02*
G01*
X-7981082Y10493918D01*
X-7959188Y10461151D01*
X-7951500Y10422500D01*
X-7951500Y9647500D01*
X-7959188Y9608849D01*
X-7981082Y9576082D01*
X-8013849Y9554188D01*
X-8052500Y9546500D01*
X-8152500Y9546500D01*
X-8191151Y9554188D01*
X-8223918Y9576082D01*
X-8245812Y9608849D01*
X-8253500Y9647500D01*
X-8253500Y10422500D01*
X-8245812Y10461151D01*
X-8223918Y10493918D01*
X-8191151Y10515812D01*
X-8152500Y10523500D01*
X-8052500Y10523500D01*
X-8013849Y10515812D01*
G37*
G36*
X-7613849Y10515812D02*
G01*
X-7581082Y10493918D01*
X-7559188Y10461151D01*
X-7551500Y10422500D01*
X-7551500Y9647500D01*
X-7559188Y9608849D01*
X-7581082Y9576082D01*
X-7613849Y9554188D01*
X-7652500Y9546500D01*
X-7752500Y9546500D01*
X-7791151Y9554188D01*
X-7823918Y9576082D01*
X-7845812Y9608849D01*
X-7853500Y9647500D01*
X-7853500Y10422500D01*
X-7845812Y10461151D01*
X-7823918Y10493918D01*
X-7791151Y10515812D01*
X-7752500Y10523500D01*
X-7652500Y10523500D01*
X-7613849Y10515812D01*
G37*
G36*
X-7213849Y10515812D02*
G01*
X-7181082Y10493918D01*
X-7159188Y10461151D01*
X-7151500Y10422500D01*
X-7151500Y9647500D01*
X-7159188Y9608849D01*
X-7181082Y9576082D01*
X-7213849Y9554188D01*
X-7252500Y9546500D01*
X-7352500Y9546500D01*
X-7391151Y9554188D01*
X-7423918Y9576082D01*
X-7445812Y9608849D01*
X-7453500Y9647500D01*
X-7453500Y10422500D01*
X-7445812Y10461151D01*
X-7423918Y10493918D01*
X-7391151Y10515812D01*
X-7352500Y10523500D01*
X-7252500Y10523500D01*
X-7213849Y10515812D01*
G37*
G36*
X-6813849Y10515812D02*
G01*
X-6781082Y10493918D01*
X-6759188Y10461151D01*
X-6751500Y10422500D01*
X-6751500Y9647500D01*
X-6759188Y9608849D01*
X-6781082Y9576082D01*
X-6813849Y9554188D01*
X-6852500Y9546500D01*
X-6952500Y9546500D01*
X-6991151Y9554188D01*
X-7023918Y9576082D01*
X-7045812Y9608849D01*
X-7053500Y9647500D01*
X-7053500Y10422500D01*
X-7045812Y10461151D01*
X-7023918Y10493918D01*
X-6991151Y10515812D01*
X-6952500Y10523500D01*
X-6852500Y10523500D01*
X-6813849Y10515812D01*
G37*
G36*
X-6413849Y10515812D02*
G01*
X-6381082Y10493918D01*
X-6359188Y10461151D01*
X-6351500Y10422500D01*
X-6351500Y9647500D01*
X-6359188Y9608849D01*
X-6381082Y9576082D01*
X-6413849Y9554188D01*
X-6452500Y9546500D01*
X-6552500Y9546500D01*
X-6591151Y9554188D01*
X-6623918Y9576082D01*
X-6645812Y9608849D01*
X-6653500Y9647500D01*
X-6653500Y10422500D01*
X-6645812Y10461151D01*
X-6623918Y10493918D01*
X-6591151Y10515812D01*
X-6552500Y10523500D01*
X-6452500Y10523500D01*
X-6413849Y10515812D01*
G37*
G36*
X-4286907Y10916461D02*
G01*
X-4224943Y10875057D01*
X-4183539Y10813093D01*
X-4169000Y10740000D01*
X-4169000Y10400000D01*
X-4183539Y10326907D01*
X-4224943Y10264943D01*
X-4286907Y10223539D01*
X-4360000Y10209000D01*
X-4640000Y10209000D01*
X-4713093Y10223539D01*
X-4775057Y10264943D01*
X-4816461Y10326907D01*
X-4831000Y10400000D01*
X-4831000Y10740000D01*
X-4816461Y10813093D01*
X-4775057Y10875057D01*
X-4713093Y10916461D01*
X-4640000Y10931000D01*
X-4360000Y10931000D01*
X-4286907Y10916461D01*
G37*
G36*
X-3326907Y10916461D02*
G01*
X-3264943Y10875057D01*
X-3223539Y10813093D01*
X-3209000Y10740000D01*
X-3209000Y10400000D01*
X-3223539Y10326907D01*
X-3264943Y10264943D01*
X-3326907Y10223539D01*
X-3400000Y10209000D01*
X-3680000Y10209000D01*
X-3753093Y10223539D01*
X-3815057Y10264943D01*
X-3856461Y10326907D01*
X-3871000Y10400000D01*
X-3871000Y10740000D01*
X-3856461Y10813093D01*
X-3815057Y10875057D01*
X-3753093Y10916461D01*
X-3680000Y10931000D01*
X-3400000Y10931000D01*
X-3326907Y10916461D01*
G37*
G36*
X-1691745Y11096961D02*
G01*
X-1629781Y11055557D01*
X-1588377Y10993593D01*
X-1573838Y10920500D01*
X-1573838Y10640500D01*
X-1588377Y10567407D01*
X-1629781Y10505443D01*
X-1691745Y10464039D01*
X-1764838Y10449500D01*
X-2104838Y10449500D01*
X-2177931Y10464039D01*
X-2239895Y10505443D01*
X-2281299Y10567407D01*
X-2295838Y10640500D01*
X-2295838Y10920500D01*
X-2281299Y10993593D01*
X-2239895Y11055557D01*
X-2177931Y11096961D01*
X-2104838Y11111500D01*
X-1764838Y11111500D01*
X-1691745Y11096961D01*
G37*
G36*
X-22656075Y13358130D02*
G01*
X-22437225Y13282998D01*
X-22233726Y13172870D01*
X-22051129Y13030749D01*
X-21894414Y12860512D01*
X-21767857Y12666802D01*
X-21674910Y12454904D01*
X-21618108Y12230597D01*
X-21599000Y12000000D01*
X-21618108Y11769403D01*
X-21674910Y11545096D01*
X-21767857Y11333198D01*
X-21894414Y11139488D01*
X-22051129Y10969251D01*
X-22233726Y10827130D01*
X-22437225Y10717002D01*
X-22656075Y10641870D01*
X-22884306Y10603785D01*
X-23115694Y10603785D01*
X-23343925Y10641870D01*
X-23562775Y10717002D01*
X-23766274Y10827130D01*
X-23948871Y10969251D01*
X-24105586Y11139488D01*
X-24232143Y11333198D01*
X-24325090Y11545096D01*
X-24381892Y11769403D01*
X-24401000Y12000000D01*
X-24381892Y12230597D01*
X-24325090Y12454904D01*
X-24232143Y12666802D01*
X-24105586Y12860512D01*
X-23948871Y13030749D01*
X-23766274Y13172870D01*
X-23562775Y13282998D01*
X-23343925Y13358130D01*
X-23115694Y13396215D01*
X-22884306Y13396215D01*
X-22656075Y13358130D01*
G37*
G36*
X23343925Y13358130D02*
G01*
X23562775Y13282998D01*
X23766274Y13172870D01*
X23948871Y13030749D01*
X24105586Y12860512D01*
X24232143Y12666802D01*
X24325090Y12454904D01*
X24381892Y12230597D01*
X24401000Y12000000D01*
X24381892Y11769403D01*
X24325090Y11545096D01*
X24232143Y11333198D01*
X24105586Y11139488D01*
X23948871Y10969251D01*
X23766274Y10827130D01*
X23562775Y10717002D01*
X23343925Y10641870D01*
X23115694Y10603785D01*
X22884306Y10603785D01*
X22656075Y10641870D01*
X22437225Y10717002D01*
X22233726Y10827130D01*
X22051129Y10969251D01*
X21894414Y11139488D01*
X21767857Y11333198D01*
X21674910Y11545096D01*
X21618108Y11769403D01*
X21599000Y12000000D01*
X21618108Y12230597D01*
X21674910Y12454904D01*
X21767857Y12666802D01*
X21894414Y12860512D01*
X22051129Y13030749D01*
X22233726Y13172870D01*
X22437225Y13282998D01*
X22656075Y13358130D01*
X22884306Y13396215D01*
X23115694Y13396215D01*
X23343925Y13358130D01*
G37*
G36*
X-12113849Y11015812D02*
G01*
X-12081082Y10993918D01*
X-12059188Y10961151D01*
X-12051500Y10922500D01*
X-12051500Y10822500D01*
X-12059188Y10783849D01*
X-12081082Y10751082D01*
X-12113849Y10729188D01*
X-12152500Y10721500D01*
X-12927500Y10721500D01*
X-12966151Y10729188D01*
X-12998918Y10751082D01*
X-13020812Y10783849D01*
X-13028500Y10822500D01*
X-13028500Y10922500D01*
X-13020812Y10961151D01*
X-12998918Y10993918D01*
X-12966151Y11015812D01*
X-12927500Y11023500D01*
X-12152500Y11023500D01*
X-12113849Y11015812D01*
G37*
G36*
X-5238849Y11015812D02*
G01*
X-5206082Y10993918D01*
X-5184188Y10961151D01*
X-5176500Y10922500D01*
X-5176500Y10822500D01*
X-5184188Y10783849D01*
X-5206082Y10751082D01*
X-5238849Y10729188D01*
X-5277500Y10721500D01*
X-6052500Y10721500D01*
X-6091151Y10729188D01*
X-6123918Y10751082D01*
X-6145812Y10783849D01*
X-6153500Y10822500D01*
X-6153500Y10922500D01*
X-6145812Y10961151D01*
X-6123918Y10993918D01*
X-6091151Y11015812D01*
X-6052500Y11023500D01*
X-5277500Y11023500D01*
X-5238849Y11015812D01*
G37*
G36*
X-12113849Y11415812D02*
G01*
X-12081082Y11393918D01*
X-12059188Y11361151D01*
X-12051500Y11322500D01*
X-12051500Y11222500D01*
X-12059188Y11183849D01*
X-12081082Y11151082D01*
X-12113849Y11129188D01*
X-12152500Y11121500D01*
X-12927500Y11121500D01*
X-12966151Y11129188D01*
X-12998918Y11151082D01*
X-13020812Y11183849D01*
X-13028500Y11222500D01*
X-13028500Y11322500D01*
X-13020812Y11361151D01*
X-12998918Y11393918D01*
X-12966151Y11415812D01*
X-12927500Y11423500D01*
X-12152500Y11423500D01*
X-12113849Y11415812D01*
G37*
G36*
X-5238849Y11415812D02*
G01*
X-5206082Y11393918D01*
X-5184188Y11361151D01*
X-5176500Y11322500D01*
X-5176500Y11222500D01*
X-5184188Y11183849D01*
X-5206082Y11151082D01*
X-5238849Y11129188D01*
X-5277500Y11121500D01*
X-6052500Y11121500D01*
X-6091151Y11129188D01*
X-6123918Y11151082D01*
X-6145812Y11183849D01*
X-6153500Y11222500D01*
X-6153500Y11322500D01*
X-6145812Y11361151D01*
X-6123918Y11393918D01*
X-6091151Y11415812D01*
X-6052500Y11423500D01*
X-5277500Y11423500D01*
X-5238849Y11415812D01*
G37*
G36*
X-2231745Y12046961D02*
G01*
X-2169781Y12005557D01*
X-2128377Y11943593D01*
X-2113838Y11870500D01*
X-2113838Y11530500D01*
X-2128377Y11457407D01*
X-2169781Y11395443D01*
X-2231745Y11354039D01*
X-2304838Y11339500D01*
X-2584838Y11339500D01*
X-2657931Y11354039D01*
X-2719895Y11395443D01*
X-2761299Y11457407D01*
X-2775838Y11530500D01*
X-2775838Y11870500D01*
X-2761299Y11943593D01*
X-2719895Y12005557D01*
X-2657931Y12046961D01*
X-2584838Y12061500D01*
X-2304838Y12061500D01*
X-2231745Y12046961D01*
G37*
G36*
X-1271745Y12046961D02*
G01*
X-1209781Y12005557D01*
X-1168377Y11943593D01*
X-1153838Y11870500D01*
X-1153838Y11530500D01*
X-1168377Y11457407D01*
X-1209781Y11395443D01*
X-1271745Y11354039D01*
X-1344838Y11339500D01*
X-1624838Y11339500D01*
X-1697931Y11354039D01*
X-1759895Y11395443D01*
X-1801299Y11457407D01*
X-1815838Y11530500D01*
X-1815838Y11870500D01*
X-1801299Y11943593D01*
X-1759895Y12005557D01*
X-1697931Y12046961D01*
X-1624838Y12061500D01*
X-1344838Y12061500D01*
X-1271745Y12046961D01*
G37*
G36*
X-16146907Y12116461D02*
G01*
X-16084943Y12075057D01*
X-16043539Y12013093D01*
X-16029000Y11940000D01*
X-16029000Y11600000D01*
X-16043539Y11526907D01*
X-16084943Y11464943D01*
X-16146907Y11423539D01*
X-16220000Y11409000D01*
X-16500000Y11409000D01*
X-16573093Y11423539D01*
X-16635057Y11464943D01*
X-16676461Y11526907D01*
X-16691000Y11600000D01*
X-16691000Y11940000D01*
X-16676461Y12013093D01*
X-16635057Y12075057D01*
X-16573093Y12116461D01*
X-16500000Y12131000D01*
X-16220000Y12131000D01*
X-16146907Y12116461D01*
G37*
G36*
X-15186907Y12116461D02*
G01*
X-15124943Y12075057D01*
X-15083539Y12013093D01*
X-15069000Y11940000D01*
X-15069000Y11600000D01*
X-15083539Y11526907D01*
X-15124943Y11464943D01*
X-15186907Y11423539D01*
X-15260000Y11409000D01*
X-15540000Y11409000D01*
X-15613093Y11423539D01*
X-15675057Y11464943D01*
X-15716461Y11526907D01*
X-15731000Y11600000D01*
X-15731000Y11940000D01*
X-15716461Y12013093D01*
X-15675057Y12075057D01*
X-15613093Y12116461D01*
X-15540000Y12131000D01*
X-15260000Y12131000D01*
X-15186907Y12116461D01*
G37*
G36*
X-12113849Y11815812D02*
G01*
X-12081082Y11793918D01*
X-12059188Y11761151D01*
X-12051500Y11722500D01*
X-12051500Y11622500D01*
X-12059188Y11583849D01*
X-12081082Y11551082D01*
X-12113849Y11529188D01*
X-12152500Y11521500D01*
X-12927500Y11521500D01*
X-12966151Y11529188D01*
X-12998918Y11551082D01*
X-13020812Y11583849D01*
X-13028500Y11622500D01*
X-13028500Y11722500D01*
X-13020812Y11761151D01*
X-12998918Y11793918D01*
X-12966151Y11815812D01*
X-12927500Y11823500D01*
X-12152500Y11823500D01*
X-12113849Y11815812D01*
G37*
G36*
X-5238849Y11815812D02*
G01*
X-5206082Y11793918D01*
X-5184188Y11761151D01*
X-5176500Y11722500D01*
X-5176500Y11622500D01*
X-5184188Y11583849D01*
X-5206082Y11551082D01*
X-5238849Y11529188D01*
X-5277500Y11521500D01*
X-6052500Y11521500D01*
X-6091151Y11529188D01*
X-6123918Y11551082D01*
X-6145812Y11583849D01*
X-6153500Y11622500D01*
X-6153500Y11722500D01*
X-6145812Y11761151D01*
X-6123918Y11793918D01*
X-6091151Y11815812D01*
X-6052500Y11823500D01*
X-5277500Y11823500D01*
X-5238849Y11815812D01*
G37*
G36*
X-7571877Y15108657D02*
G01*
X-7508614Y15066386D01*
X-7466343Y15003123D01*
X-7451500Y14928500D01*
X-7451500Y12016500D01*
X-7466343Y11941877D01*
X-7508614Y11878614D01*
X-7571877Y11836343D01*
X-7646500Y11821500D01*
X-10558500Y11821500D01*
X-10633123Y11836343D01*
X-10696386Y11878614D01*
X-10738657Y11941877D01*
X-10753500Y12016500D01*
X-10753500Y14928500D01*
X-10738657Y15003123D01*
X-10696386Y15066386D01*
X-10633123Y15108657D01*
X-10558500Y15123500D01*
X-7646500Y15123500D01*
X-7571877Y15108657D01*
G37*
G36*
X-18166907Y12546461D02*
G01*
X-18104943Y12505057D01*
X-18063539Y12443093D01*
X-18049000Y12370000D01*
X-18049000Y12030000D01*
X-18063539Y11956907D01*
X-18104943Y11894943D01*
X-18166907Y11853539D01*
X-18240000Y11839000D01*
X-18520000Y11839000D01*
X-18593093Y11853539D01*
X-18655057Y11894943D01*
X-18696461Y11956907D01*
X-18711000Y12030000D01*
X-18711000Y12370000D01*
X-18696461Y12443093D01*
X-18655057Y12505057D01*
X-18593093Y12546461D01*
X-18520000Y12561000D01*
X-18240000Y12561000D01*
X-18166907Y12546461D01*
G37*
G36*
X-17206907Y12546461D02*
G01*
X-17144943Y12505057D01*
X-17103539Y12443093D01*
X-17089000Y12370000D01*
X-17089000Y12030000D01*
X-17103539Y11956907D01*
X-17144943Y11894943D01*
X-17206907Y11853539D01*
X-17280000Y11839000D01*
X-17560000Y11839000D01*
X-17633093Y11853539D01*
X-17695057Y11894943D01*
X-17736461Y11956907D01*
X-17751000Y12030000D01*
X-17751000Y12370000D01*
X-17736461Y12443093D01*
X-17695057Y12505057D01*
X-17633093Y12546461D01*
X-17560000Y12561000D01*
X-17280000Y12561000D01*
X-17206907Y12546461D01*
G37*
G36*
X-12113849Y12215812D02*
G01*
X-12081082Y12193918D01*
X-12059188Y12161151D01*
X-12051500Y12122500D01*
X-12051500Y12022500D01*
X-12059188Y11983849D01*
X-12081082Y11951082D01*
X-12113849Y11929188D01*
X-12152500Y11921500D01*
X-12927500Y11921500D01*
X-12966151Y11929188D01*
X-12998918Y11951082D01*
X-13020812Y11983849D01*
X-13028500Y12022500D01*
X-13028500Y12122500D01*
X-13020812Y12161151D01*
X-12998918Y12193918D01*
X-12966151Y12215812D01*
X-12927500Y12223500D01*
X-12152500Y12223500D01*
X-12113849Y12215812D01*
G37*
G36*
X-5238849Y12215812D02*
G01*
X-5206082Y12193918D01*
X-5184188Y12161151D01*
X-5176500Y12122500D01*
X-5176500Y12022500D01*
X-5184188Y11983849D01*
X-5206082Y11951082D01*
X-5238849Y11929188D01*
X-5277500Y11921500D01*
X-6052500Y11921500D01*
X-6091151Y11929188D01*
X-6123918Y11951082D01*
X-6145812Y11983849D01*
X-6153500Y12022500D01*
X-6153500Y12122500D01*
X-6145812Y12161151D01*
X-6123918Y12193918D01*
X-6091151Y12215812D01*
X-6052500Y12223500D01*
X-5277500Y12223500D01*
X-5238849Y12215812D01*
G37*
G36*
X-2221745Y12976961D02*
G01*
X-2159781Y12935557D01*
X-2118377Y12873593D01*
X-2103838Y12800500D01*
X-2103838Y12460500D01*
X-2118377Y12387407D01*
X-2159781Y12325443D01*
X-2221745Y12284039D01*
X-2294838Y12269500D01*
X-2574838Y12269500D01*
X-2647931Y12284039D01*
X-2709895Y12325443D01*
X-2751299Y12387407D01*
X-2765838Y12460500D01*
X-2765838Y12800500D01*
X-2751299Y12873593D01*
X-2709895Y12935557D01*
X-2647931Y12976961D01*
X-2574838Y12991500D01*
X-2294838Y12991500D01*
X-2221745Y12976961D01*
G37*
G36*
X-1261745Y12976961D02*
G01*
X-1199781Y12935557D01*
X-1158377Y12873593D01*
X-1143838Y12800500D01*
X-1143838Y12460500D01*
X-1158377Y12387407D01*
X-1199781Y12325443D01*
X-1261745Y12284039D01*
X-1334838Y12269500D01*
X-1614838Y12269500D01*
X-1687931Y12284039D01*
X-1749895Y12325443D01*
X-1791299Y12387407D01*
X-1805838Y12460500D01*
X-1805838Y12800500D01*
X-1791299Y12873593D01*
X-1749895Y12935557D01*
X-1687931Y12976961D01*
X-1614838Y12991500D01*
X-1334838Y12991500D01*
X-1261745Y12976961D01*
G37*
G36*
X-12113849Y12615812D02*
G01*
X-12081082Y12593918D01*
X-12059188Y12561151D01*
X-12051500Y12522500D01*
X-12051500Y12422500D01*
X-12059188Y12383849D01*
X-12081082Y12351082D01*
X-12113849Y12329188D01*
X-12152500Y12321500D01*
X-12927500Y12321500D01*
X-12966151Y12329188D01*
X-12998918Y12351082D01*
X-13020812Y12383849D01*
X-13028500Y12422500D01*
X-13028500Y12522500D01*
X-13020812Y12561151D01*
X-12998918Y12593918D01*
X-12966151Y12615812D01*
X-12927500Y12623500D01*
X-12152500Y12623500D01*
X-12113849Y12615812D01*
G37*
G36*
X-5238849Y12615812D02*
G01*
X-5206082Y12593918D01*
X-5184188Y12561151D01*
X-5176500Y12522500D01*
X-5176500Y12422500D01*
X-5184188Y12383849D01*
X-5206082Y12351082D01*
X-5238849Y12329188D01*
X-5277500Y12321500D01*
X-6052500Y12321500D01*
X-6091151Y12329188D01*
X-6123918Y12351082D01*
X-6145812Y12383849D01*
X-6153500Y12422500D01*
X-6153500Y12522500D01*
X-6145812Y12561151D01*
X-6123918Y12593918D01*
X-6091151Y12615812D01*
X-6052500Y12623500D01*
X-5277500Y12623500D01*
X-5238849Y12615812D01*
G37*
G36*
X-12113849Y13015812D02*
G01*
X-12081082Y12993918D01*
X-12059188Y12961151D01*
X-12051500Y12922500D01*
X-12051500Y12822500D01*
X-12059188Y12783849D01*
X-12081082Y12751082D01*
X-12113849Y12729188D01*
X-12152500Y12721500D01*
X-12927500Y12721500D01*
X-12966151Y12729188D01*
X-12998918Y12751082D01*
X-13020812Y12783849D01*
X-13028500Y12822500D01*
X-13028500Y12922500D01*
X-13020812Y12961151D01*
X-12998918Y12993918D01*
X-12966151Y13015812D01*
X-12927500Y13023500D01*
X-12152500Y13023500D01*
X-12113849Y13015812D01*
G37*
G36*
X-5238849Y13015812D02*
G01*
X-5206082Y12993918D01*
X-5184188Y12961151D01*
X-5176500Y12922500D01*
X-5176500Y12822500D01*
X-5184188Y12783849D01*
X-5206082Y12751082D01*
X-5238849Y12729188D01*
X-5277500Y12721500D01*
X-6052500Y12721500D01*
X-6091151Y12729188D01*
X-6123918Y12751082D01*
X-6145812Y12783849D01*
X-6153500Y12822500D01*
X-6153500Y12922500D01*
X-6145812Y12961151D01*
X-6123918Y12993918D01*
X-6091151Y13015812D01*
X-6052500Y13023500D01*
X-5277500Y13023500D01*
X-5238849Y13015812D01*
G37*
G36*
X-15066907Y13616961D02*
G01*
X-15004943Y13575557D01*
X-14963539Y13513593D01*
X-14949000Y13440500D01*
X-14949000Y13100500D01*
X-14963539Y13027407D01*
X-15004943Y12965443D01*
X-15066907Y12924039D01*
X-15140000Y12909500D01*
X-15420000Y12909500D01*
X-15493093Y12924039D01*
X-15555057Y12965443D01*
X-15596461Y13027407D01*
X-15611000Y13100500D01*
X-15611000Y13440500D01*
X-15596461Y13513593D01*
X-15555057Y13575557D01*
X-15493093Y13616961D01*
X-15420000Y13631500D01*
X-15140000Y13631500D01*
X-15066907Y13616961D01*
G37*
G36*
X-14106907Y13616961D02*
G01*
X-14044943Y13575557D01*
X-14003539Y13513593D01*
X-13989000Y13440500D01*
X-13989000Y13100500D01*
X-14003539Y13027407D01*
X-14044943Y12965443D01*
X-14106907Y12924039D01*
X-14180000Y12909500D01*
X-14460000Y12909500D01*
X-14533093Y12924039D01*
X-14595057Y12965443D01*
X-14636461Y13027407D01*
X-14651000Y13100500D01*
X-14651000Y13440500D01*
X-14636461Y13513593D01*
X-14595057Y13575557D01*
X-14533093Y13616961D01*
X-14460000Y13631500D01*
X-14180000Y13631500D01*
X-14106907Y13616961D01*
G37*
G36*
X-17830483Y14447118D02*
G01*
X-17813938Y14436062D01*
X-17802882Y14419517D01*
X-17799000Y14400000D01*
X-17799000Y13000000D01*
X-17802882Y12980483D01*
X-17813938Y12963938D01*
X-17830483Y12952882D01*
X-17850000Y12949000D01*
X-19050000Y12949000D01*
X-19069517Y12952882D01*
X-19086062Y12963938D01*
X-19097118Y12980483D01*
X-19101000Y13000000D01*
X-19101000Y14400000D01*
X-19097118Y14419517D01*
X-19086062Y14436062D01*
X-19069517Y14447118D01*
X-19050000Y14451000D01*
X-17850000Y14451000D01*
X-17830483Y14447118D01*
G37*
G36*
X-16130483Y14447118D02*
G01*
X-16113938Y14436062D01*
X-16102882Y14419517D01*
X-16099000Y14400000D01*
X-16099000Y13000000D01*
X-16102882Y12980483D01*
X-16113938Y12963938D01*
X-16130483Y12952882D01*
X-16150000Y12949000D01*
X-17350000Y12949000D01*
X-17369517Y12952882D01*
X-17386062Y12963938D01*
X-17397118Y12980483D01*
X-17401000Y13000000D01*
X-17401000Y14400000D01*
X-17397118Y14419517D01*
X-17386062Y14436062D01*
X-17369517Y14447118D01*
X-17350000Y14451000D01*
X-16150000Y14451000D01*
X-16130483Y14447118D01*
G37*
G36*
X-12113849Y13415812D02*
G01*
X-12081082Y13393918D01*
X-12059188Y13361151D01*
X-12051500Y13322500D01*
X-12051500Y13222500D01*
X-12059188Y13183849D01*
X-12081082Y13151082D01*
X-12113849Y13129188D01*
X-12152500Y13121500D01*
X-12927500Y13121500D01*
X-12966151Y13129188D01*
X-12998918Y13151082D01*
X-13020812Y13183849D01*
X-13028500Y13222500D01*
X-13028500Y13322500D01*
X-13020812Y13361151D01*
X-12998918Y13393918D01*
X-12966151Y13415812D01*
X-12927500Y13423500D01*
X-12152500Y13423500D01*
X-12113849Y13415812D01*
G37*
G36*
X-5238849Y13415812D02*
G01*
X-5206082Y13393918D01*
X-5184188Y13361151D01*
X-5176500Y13322500D01*
X-5176500Y13222500D01*
X-5184188Y13183849D01*
X-5206082Y13151082D01*
X-5238849Y13129188D01*
X-5277500Y13121500D01*
X-6052500Y13121500D01*
X-6091151Y13129188D01*
X-6123918Y13151082D01*
X-6145812Y13183849D01*
X-6153500Y13222500D01*
X-6153500Y13322500D01*
X-6145812Y13361151D01*
X-6123918Y13393918D01*
X-6091151Y13415812D01*
X-6052500Y13423500D01*
X-5277500Y13423500D01*
X-5238849Y13415812D01*
G37*
G36*
X-2791745Y13916961D02*
G01*
X-2729781Y13875557D01*
X-2688377Y13813593D01*
X-2673838Y13740500D01*
X-2673838Y13400500D01*
X-2688377Y13327407D01*
X-2729781Y13265443D01*
X-2791745Y13224039D01*
X-2864838Y13209500D01*
X-3144838Y13209500D01*
X-3217931Y13224039D01*
X-3279895Y13265443D01*
X-3321299Y13327407D01*
X-3335838Y13400500D01*
X-3335838Y13740500D01*
X-3321299Y13813593D01*
X-3279895Y13875557D01*
X-3217931Y13916961D01*
X-3144838Y13931500D01*
X-2864838Y13931500D01*
X-2791745Y13916961D01*
G37*
G36*
X-1831745Y13916961D02*
G01*
X-1769781Y13875557D01*
X-1728377Y13813593D01*
X-1713838Y13740500D01*
X-1713838Y13400500D01*
X-1728377Y13327407D01*
X-1769781Y13265443D01*
X-1831745Y13224039D01*
X-1904838Y13209500D01*
X-2184838Y13209500D01*
X-2257931Y13224039D01*
X-2319895Y13265443D01*
X-2361299Y13327407D01*
X-2375838Y13400500D01*
X-2375838Y13740500D01*
X-2361299Y13813593D01*
X-2319895Y13875557D01*
X-2257931Y13916961D01*
X-2184838Y13931500D01*
X-1904838Y13931500D01*
X-1831745Y13916961D01*
G37*
G36*
X-12113849Y13815812D02*
G01*
X-12081082Y13793918D01*
X-12059188Y13761151D01*
X-12051500Y13722500D01*
X-12051500Y13622500D01*
X-12059188Y13583849D01*
X-12081082Y13551082D01*
X-12113849Y13529188D01*
X-12152500Y13521500D01*
X-12927500Y13521500D01*
X-12966151Y13529188D01*
X-12998918Y13551082D01*
X-13020812Y13583849D01*
X-13028500Y13622500D01*
X-13028500Y13722500D01*
X-13020812Y13761151D01*
X-12998918Y13793918D01*
X-12966151Y13815812D01*
X-12927500Y13823500D01*
X-12152500Y13823500D01*
X-12113849Y13815812D01*
G37*
G36*
X-5238849Y13815812D02*
G01*
X-5206082Y13793918D01*
X-5184188Y13761151D01*
X-5176500Y13722500D01*
X-5176500Y13622500D01*
X-5184188Y13583849D01*
X-5206082Y13551082D01*
X-5238849Y13529188D01*
X-5277500Y13521500D01*
X-6052500Y13521500D01*
X-6091151Y13529188D01*
X-6123918Y13551082D01*
X-6145812Y13583849D01*
X-6153500Y13622500D01*
X-6153500Y13722500D01*
X-6145812Y13761151D01*
X-6123918Y13793918D01*
X-6091151Y13815812D01*
X-6052500Y13823500D01*
X-5277500Y13823500D01*
X-5238849Y13815812D01*
G37*
G36*
X-15203821Y14626842D02*
G01*
X-15143478Y14586522D01*
X-15103158Y14526179D01*
X-15089000Y14455000D01*
X-15089000Y14085000D01*
X-15103158Y14013821D01*
X-15143478Y13953478D01*
X-15203821Y13913158D01*
X-15275000Y13899000D01*
X-15545000Y13899000D01*
X-15616179Y13913158D01*
X-15676522Y13953478D01*
X-15716842Y14013821D01*
X-15731000Y14085000D01*
X-15731000Y14455000D01*
X-15716842Y14526179D01*
X-15676522Y14586522D01*
X-15616179Y14626842D01*
X-15545000Y14641000D01*
X-15275000Y14641000D01*
X-15203821Y14626842D01*
G37*
G36*
X-14183821Y14626842D02*
G01*
X-14123478Y14586522D01*
X-14083158Y14526179D01*
X-14069000Y14455000D01*
X-14069000Y14085000D01*
X-14083158Y14013821D01*
X-14123478Y13953478D01*
X-14183821Y13913158D01*
X-14255000Y13899000D01*
X-14525000Y13899000D01*
X-14596179Y13913158D01*
X-14656522Y13953478D01*
X-14696842Y14013821D01*
X-14711000Y14085000D01*
X-14711000Y14455000D01*
X-14696842Y14526179D01*
X-14656522Y14586522D01*
X-14596179Y14626842D01*
X-14525000Y14641000D01*
X-14255000Y14641000D01*
X-14183821Y14626842D01*
G37*
G36*
X-12113849Y14215812D02*
G01*
X-12081082Y14193918D01*
X-12059188Y14161151D01*
X-12051500Y14122500D01*
X-12051500Y14022500D01*
X-12059188Y13983849D01*
X-12081082Y13951082D01*
X-12113849Y13929188D01*
X-12152500Y13921500D01*
X-12927500Y13921500D01*
X-12966151Y13929188D01*
X-12998918Y13951082D01*
X-13020812Y13983849D01*
X-13028500Y14022500D01*
X-13028500Y14122500D01*
X-13020812Y14161151D01*
X-12998918Y14193918D01*
X-12966151Y14215812D01*
X-12927500Y14223500D01*
X-12152500Y14223500D01*
X-12113849Y14215812D01*
G37*
G36*
X-5238849Y14215812D02*
G01*
X-5206082Y14193918D01*
X-5184188Y14161151D01*
X-5176500Y14122500D01*
X-5176500Y14022500D01*
X-5184188Y13983849D01*
X-5206082Y13951082D01*
X-5238849Y13929188D01*
X-5277500Y13921500D01*
X-6052500Y13921500D01*
X-6091151Y13929188D01*
X-6123918Y13951082D01*
X-6145812Y13983849D01*
X-6153500Y14022500D01*
X-6153500Y14122500D01*
X-6145812Y14161151D01*
X-6123918Y14193918D01*
X-6091151Y14215812D01*
X-6052500Y14223500D01*
X-5277500Y14223500D01*
X-5238849Y14215812D01*
G37*
G36*
X-2291745Y14846961D02*
G01*
X-2229781Y14805557D01*
X-2188377Y14743593D01*
X-2173838Y14670500D01*
X-2173838Y14390500D01*
X-2188377Y14317407D01*
X-2229781Y14255443D01*
X-2291745Y14214039D01*
X-2364838Y14199500D01*
X-2704838Y14199500D01*
X-2777931Y14214039D01*
X-2839895Y14255443D01*
X-2881299Y14317407D01*
X-2895838Y14390500D01*
X-2895838Y14670500D01*
X-2881299Y14743593D01*
X-2839895Y14805557D01*
X-2777931Y14846961D01*
X-2704838Y14861500D01*
X-2364838Y14861500D01*
X-2291745Y14846961D01*
G37*
G36*
X-12113849Y14615812D02*
G01*
X-12081082Y14593918D01*
X-12059188Y14561151D01*
X-12051500Y14522500D01*
X-12051500Y14422500D01*
X-12059188Y14383849D01*
X-12081082Y14351082D01*
X-12113849Y14329188D01*
X-12152500Y14321500D01*
X-12927500Y14321500D01*
X-12966151Y14329188D01*
X-12998918Y14351082D01*
X-13020812Y14383849D01*
X-13028500Y14422500D01*
X-13028500Y14522500D01*
X-13020812Y14561151D01*
X-12998918Y14593918D01*
X-12966151Y14615812D01*
X-12927500Y14623500D01*
X-12152500Y14623500D01*
X-12113849Y14615812D01*
G37*
G36*
X-5238849Y14615812D02*
G01*
X-5206082Y14593918D01*
X-5184188Y14561151D01*
X-5176500Y14522500D01*
X-5176500Y14422500D01*
X-5184188Y14383849D01*
X-5206082Y14351082D01*
X-5238849Y14329188D01*
X-5277500Y14321500D01*
X-6052500Y14321500D01*
X-6091151Y14329188D01*
X-6123918Y14351082D01*
X-6145812Y14383849D01*
X-6153500Y14422500D01*
X-6153500Y14522500D01*
X-6145812Y14561151D01*
X-6123918Y14593918D01*
X-6091151Y14615812D01*
X-6052500Y14623500D01*
X-5277500Y14623500D01*
X-5238849Y14615812D01*
G37*
G36*
X-12113849Y15015812D02*
G01*
X-12081082Y14993918D01*
X-12059188Y14961151D01*
X-12051500Y14922500D01*
X-12051500Y14822500D01*
X-12059188Y14783849D01*
X-12081082Y14751082D01*
X-12113849Y14729188D01*
X-12152500Y14721500D01*
X-12927500Y14721500D01*
X-12966151Y14729188D01*
X-12998918Y14751082D01*
X-13020812Y14783849D01*
X-13028500Y14822500D01*
X-13028500Y14922500D01*
X-13020812Y14961151D01*
X-12998918Y14993918D01*
X-12966151Y15015812D01*
X-12927500Y15023500D01*
X-12152500Y15023500D01*
X-12113849Y15015812D01*
G37*
G36*
X-5238849Y15015812D02*
G01*
X-5206082Y14993918D01*
X-5184188Y14961151D01*
X-5176500Y14922500D01*
X-5176500Y14822500D01*
X-5184188Y14783849D01*
X-5206082Y14751082D01*
X-5238849Y14729188D01*
X-5277500Y14721500D01*
X-6052500Y14721500D01*
X-6091151Y14729188D01*
X-6123918Y14751082D01*
X-6145812Y14783849D01*
X-6153500Y14822500D01*
X-6153500Y14922500D01*
X-6145812Y14961151D01*
X-6123918Y14993918D01*
X-6091151Y15015812D01*
X-6052500Y15023500D01*
X-5277500Y15023500D01*
X-5238849Y15015812D01*
G37*
G36*
X-12113849Y15415812D02*
G01*
X-12081082Y15393918D01*
X-12059188Y15361151D01*
X-12051500Y15322500D01*
X-12051500Y15222500D01*
X-12059188Y15183849D01*
X-12081082Y15151082D01*
X-12113849Y15129188D01*
X-12152500Y15121500D01*
X-12927500Y15121500D01*
X-12966151Y15129188D01*
X-12998918Y15151082D01*
X-13020812Y15183849D01*
X-13028500Y15222500D01*
X-13028500Y15322500D01*
X-13020812Y15361151D01*
X-12998918Y15393918D01*
X-12966151Y15415812D01*
X-12927500Y15423500D01*
X-12152500Y15423500D01*
X-12113849Y15415812D01*
G37*
G36*
X-5238849Y15415812D02*
G01*
X-5206082Y15393918D01*
X-5184188Y15361151D01*
X-5176500Y15322500D01*
X-5176500Y15222500D01*
X-5184188Y15183849D01*
X-5206082Y15151082D01*
X-5238849Y15129188D01*
X-5277500Y15121500D01*
X-6052500Y15121500D01*
X-6091151Y15129188D01*
X-6123918Y15151082D01*
X-6145812Y15183849D01*
X-6153500Y15222500D01*
X-6153500Y15322500D01*
X-6145812Y15361151D01*
X-6123918Y15393918D01*
X-6091151Y15415812D01*
X-6052500Y15423500D01*
X-5277500Y15423500D01*
X-5238849Y15415812D01*
G37*
G36*
X-17830483Y16647118D02*
G01*
X-17813938Y16636062D01*
X-17802882Y16619517D01*
X-17799000Y16600000D01*
X-17799000Y15200000D01*
X-17802882Y15180483D01*
X-17813938Y15163938D01*
X-17830483Y15152882D01*
X-17850000Y15149000D01*
X-19050000Y15149000D01*
X-19069517Y15152882D01*
X-19086062Y15163938D01*
X-19097118Y15180483D01*
X-19101000Y15200000D01*
X-19101000Y16600000D01*
X-19097118Y16619517D01*
X-19086062Y16636062D01*
X-19069517Y16647118D01*
X-19050000Y16651000D01*
X-17850000Y16651000D01*
X-17830483Y16647118D01*
G37*
G36*
X-16130483Y16647118D02*
G01*
X-16113938Y16636062D01*
X-16102882Y16619517D01*
X-16099000Y16600000D01*
X-16099000Y15200000D01*
X-16102882Y15180483D01*
X-16113938Y15163938D01*
X-16130483Y15152882D01*
X-16150000Y15149000D01*
X-17350000Y15149000D01*
X-17369517Y15152882D01*
X-17386062Y15163938D01*
X-17397118Y15180483D01*
X-17401000Y15200000D01*
X-17401000Y16600000D01*
X-17397118Y16619517D01*
X-17386062Y16636062D01*
X-17369517Y16647118D01*
X-17350000Y16651000D01*
X-16150000Y16651000D01*
X-16130483Y16647118D01*
G37*
G36*
X-2291745Y15806961D02*
G01*
X-2229781Y15765557D01*
X-2188377Y15703593D01*
X-2173838Y15630500D01*
X-2173838Y15350500D01*
X-2188377Y15277407D01*
X-2229781Y15215443D01*
X-2291745Y15174039D01*
X-2364838Y15159500D01*
X-2704838Y15159500D01*
X-2777931Y15174039D01*
X-2839895Y15215443D01*
X-2881299Y15277407D01*
X-2895838Y15350500D01*
X-2895838Y15630500D01*
X-2881299Y15703593D01*
X-2839895Y15765557D01*
X-2777931Y15806961D01*
X-2704838Y15821500D01*
X-2364838Y15821500D01*
X-2291745Y15806961D01*
G37*
G36*
X-12113849Y15815812D02*
G01*
X-12081082Y15793918D01*
X-12059188Y15761151D01*
X-12051500Y15722500D01*
X-12051500Y15622500D01*
X-12059188Y15583849D01*
X-12081082Y15551082D01*
X-12113849Y15529188D01*
X-12152500Y15521500D01*
X-12927500Y15521500D01*
X-12966151Y15529188D01*
X-12998918Y15551082D01*
X-13020812Y15583849D01*
X-13028500Y15622500D01*
X-13028500Y15722500D01*
X-13020812Y15761151D01*
X-12998918Y15793918D01*
X-12966151Y15815812D01*
X-12927500Y15823500D01*
X-12152500Y15823500D01*
X-12113849Y15815812D01*
G37*
G36*
X-5238849Y15815812D02*
G01*
X-5206082Y15793918D01*
X-5184188Y15761151D01*
X-5176500Y15722500D01*
X-5176500Y15622500D01*
X-5184188Y15583849D01*
X-5206082Y15551082D01*
X-5238849Y15529188D01*
X-5277500Y15521500D01*
X-6052500Y15521500D01*
X-6091151Y15529188D01*
X-6123918Y15551082D01*
X-6145812Y15583849D01*
X-6153500Y15622500D01*
X-6153500Y15722500D01*
X-6145812Y15761151D01*
X-6123918Y15793918D01*
X-6091151Y15815812D01*
X-6052500Y15823500D01*
X-5277500Y15823500D01*
X-5238849Y15815812D01*
G37*
G36*
X-21852087Y17656064D02*
G01*
X-21805820Y17656064D01*
X-21765871Y17647573D01*
X-21724267Y17643475D01*
X-21672002Y17627621D01*
X-21621576Y17616902D01*
X-21589306Y17602535D01*
X-21555288Y17592215D01*
X-21501233Y17563322D01*
X-21449500Y17540289D01*
X-21425449Y17522815D01*
X-21399553Y17508973D01*
X-21346729Y17465622D01*
X-21297113Y17429573D01*
X-21281004Y17411682D01*
X-21263052Y17396949D01*
X-21214812Y17338169D01*
X-21171076Y17289595D01*
X-21161889Y17273681D01*
X-21151028Y17260448D01*
X-21110851Y17185281D01*
X-21076896Y17126470D01*
X-21072991Y17114450D01*
X-21067786Y17104713D01*
X-21039087Y17010104D01*
X-21018689Y16947328D01*
X-21017972Y16940498D01*
X-21016526Y16935734D01*
X-21002463Y16792946D01*
X-20999000Y16760000D01*
X-21002466Y16727028D01*
X-21016526Y16584267D01*
X-21017971Y16579504D01*
X-21018689Y16572672D01*
X-21039091Y16509883D01*
X-21067786Y16415288D01*
X-21072990Y16405553D01*
X-21076896Y16393530D01*
X-21110858Y16334707D01*
X-21151028Y16259553D01*
X-21161887Y16246323D01*
X-21171076Y16230405D01*
X-21214822Y16181822D01*
X-21263052Y16123052D01*
X-21281000Y16108323D01*
X-21297113Y16090427D01*
X-21346740Y16054372D01*
X-21399553Y16011028D01*
X-21425443Y15997190D01*
X-21449500Y15979711D01*
X-21501244Y15956674D01*
X-21555288Y15927786D01*
X-21589299Y15917469D01*
X-21621576Y15903098D01*
X-21672013Y15892378D01*
X-21724267Y15876526D01*
X-21765862Y15872430D01*
X-21805820Y15863936D01*
X-21852098Y15863936D01*
X-21900001Y15859218D01*
X-21947904Y15863936D01*
X-21994180Y15863936D01*
X-22034138Y15872430D01*
X-22075734Y15876526D01*
X-22127991Y15892379D01*
X-22178424Y15903098D01*
X-22210700Y15917468D01*
X-22244713Y15927786D01*
X-22298763Y15956677D01*
X-22350500Y15979711D01*
X-22374555Y15997188D01*
X-22400448Y16011028D01*
X-22453270Y16054378D01*
X-22502887Y16090427D01*
X-22518998Y16108320D01*
X-22536949Y16123052D01*
X-22585191Y16181834D01*
X-22628924Y16230405D01*
X-22638112Y16246319D01*
X-22648973Y16259553D01*
X-22689156Y16334731D01*
X-22723104Y16393530D01*
X-22727009Y16405549D01*
X-22732215Y16415288D01*
X-22760925Y16509929D01*
X-22781311Y16572672D01*
X-22782029Y16579499D01*
X-22783475Y16584267D01*
X-22797551Y16727180D01*
X-22801000Y16760000D01*
X-22797554Y16792794D01*
X-22783475Y16935734D01*
X-22782029Y16940503D01*
X-22781311Y16947328D01*
X-22760929Y17010058D01*
X-22732215Y17104713D01*
X-22727009Y17114455D01*
X-22723104Y17126470D01*
X-22689164Y17185258D01*
X-22648973Y17260448D01*
X-22638110Y17273686D01*
X-22628924Y17289595D01*
X-22585200Y17338157D01*
X-22536949Y17396949D01*
X-22518995Y17411685D01*
X-22502887Y17429573D01*
X-22453280Y17465615D01*
X-22400448Y17508973D01*
X-22374550Y17522817D01*
X-22350500Y17540289D01*
X-22298774Y17563319D01*
X-22244713Y17592215D01*
X-22210693Y17602536D01*
X-22178424Y17616902D01*
X-22128002Y17627620D01*
X-22075734Y17643475D01*
X-22034129Y17647573D01*
X-21994180Y17656064D01*
X-21947914Y17656064D01*
X-21900001Y17660783D01*
X-21852087Y17656064D01*
G37*
G36*
X4621414Y17114255D02*
G01*
X4626145Y17112166D01*
X4629311Y17111749D01*
X4668942Y17093269D01*
X4722606Y17069574D01*
X4800824Y16991356D01*
X4824528Y16937671D01*
X4842998Y16898062D01*
X4843414Y16894899D01*
X4845505Y16890164D01*
X4853500Y16821250D01*
X4853500Y16171250D01*
X4845505Y16102336D01*
X4843414Y16097602D01*
X4842998Y16094439D01*
X4824536Y16054848D01*
X4800824Y16001144D01*
X4722606Y15922926D01*
X4668902Y15899214D01*
X4629311Y15880752D01*
X4626148Y15880336D01*
X4621414Y15878245D01*
X4552500Y15870250D01*
X3252500Y15870250D01*
X3183586Y15878245D01*
X3178851Y15880336D01*
X3175688Y15880752D01*
X3136079Y15899222D01*
X3082394Y15922926D01*
X3004176Y16001144D01*
X2980481Y16054808D01*
X2962001Y16094439D01*
X2961584Y16097605D01*
X2959495Y16102336D01*
X2951500Y16171250D01*
X2951500Y16821250D01*
X2959495Y16890164D01*
X2961584Y16894896D01*
X2962001Y16898062D01*
X2980489Y16937712D01*
X3004176Y16991356D01*
X3082394Y17069574D01*
X3136038Y17093261D01*
X3175688Y17111749D01*
X3178854Y17112166D01*
X3183586Y17114255D01*
X3252500Y17122250D01*
X4552500Y17122250D01*
X4621414Y17114255D01*
G37*
G36*
X11201414Y17114255D02*
G01*
X11206145Y17112166D01*
X11209311Y17111749D01*
X11248942Y17093269D01*
X11302606Y17069574D01*
X11380824Y16991356D01*
X11404528Y16937671D01*
X11422998Y16898062D01*
X11423414Y16894899D01*
X11425505Y16890164D01*
X11433500Y16821250D01*
X11433500Y16171250D01*
X11425505Y16102336D01*
X11423414Y16097602D01*
X11422998Y16094439D01*
X11404536Y16054848D01*
X11380824Y16001144D01*
X11302606Y15922926D01*
X11248902Y15899214D01*
X11209311Y15880752D01*
X11206148Y15880336D01*
X11201414Y15878245D01*
X11132500Y15870250D01*
X9832500Y15870250D01*
X9763586Y15878245D01*
X9758851Y15880336D01*
X9755688Y15880752D01*
X9716079Y15899222D01*
X9662394Y15922926D01*
X9584176Y16001144D01*
X9560481Y16054808D01*
X9542001Y16094439D01*
X9541584Y16097605D01*
X9539495Y16102336D01*
X9531500Y16171250D01*
X9531500Y16821250D01*
X9539495Y16890164D01*
X9541584Y16894896D01*
X9542001Y16898062D01*
X9560489Y16937712D01*
X9584176Y16991356D01*
X9662394Y17069574D01*
X9716038Y17093261D01*
X9755688Y17111749D01*
X9758854Y17112166D01*
X9763586Y17114255D01*
X9832500Y17122250D01*
X11132500Y17122250D01*
X11201414Y17114255D01*
G37*
G36*
X-12113849Y16215812D02*
G01*
X-12081082Y16193918D01*
X-12059188Y16161151D01*
X-12051500Y16122500D01*
X-12051500Y16022500D01*
X-12059188Y15983849D01*
X-12081082Y15951082D01*
X-12113849Y15929188D01*
X-12152500Y15921500D01*
X-12927500Y15921500D01*
X-12966151Y15929188D01*
X-12998918Y15951082D01*
X-13020812Y15983849D01*
X-13028500Y16022500D01*
X-13028500Y16122500D01*
X-13020812Y16161151D01*
X-12998918Y16193918D01*
X-12966151Y16215812D01*
X-12927500Y16223500D01*
X-12152500Y16223500D01*
X-12113849Y16215812D01*
G37*
G36*
X-5238849Y16215812D02*
G01*
X-5206082Y16193918D01*
X-5184188Y16161151D01*
X-5176500Y16122500D01*
X-5176500Y16022500D01*
X-5184188Y15983849D01*
X-5206082Y15951082D01*
X-5238849Y15929188D01*
X-5277500Y15921500D01*
X-6052500Y15921500D01*
X-6091151Y15929188D01*
X-6123918Y15951082D01*
X-6145812Y15983849D01*
X-6153500Y16022500D01*
X-6153500Y16122500D01*
X-6145812Y16161151D01*
X-6123918Y16193918D01*
X-6091151Y16215812D01*
X-6052500Y16223500D01*
X-5277500Y16223500D01*
X-5238849Y16215812D01*
G37*
G36*
X6629419Y16756950D02*
G01*
X6694628Y16713378D01*
X6738200Y16648169D01*
X6753500Y16571250D01*
X6753500Y16271250D01*
X6738200Y16194331D01*
X6694628Y16129122D01*
X6629419Y16085550D01*
X6552500Y16070250D01*
X5527500Y16070250D01*
X5450581Y16085550D01*
X5385372Y16129122D01*
X5341800Y16194331D01*
X5326500Y16271250D01*
X5326500Y16571250D01*
X5341800Y16648169D01*
X5385372Y16713378D01*
X5450581Y16756950D01*
X5527500Y16772250D01*
X6552500Y16772250D01*
X6629419Y16756950D01*
G37*
G36*
X8904419Y16756950D02*
G01*
X8969628Y16713378D01*
X9013200Y16648169D01*
X9028500Y16571250D01*
X9028500Y16271250D01*
X9013200Y16194331D01*
X8969628Y16129122D01*
X8904419Y16085550D01*
X8827500Y16070250D01*
X7802500Y16070250D01*
X7725581Y16085550D01*
X7660372Y16129122D01*
X7616800Y16194331D01*
X7601500Y16271250D01*
X7601500Y16571250D01*
X7616800Y16648169D01*
X7660372Y16713378D01*
X7725581Y16756950D01*
X7802500Y16772250D01*
X8827500Y16772250D01*
X8904419Y16756950D01*
G37*
G36*
X-11613849Y17390812D02*
G01*
X-11581082Y17368918D01*
X-11559188Y17336151D01*
X-11551500Y17297500D01*
X-11551500Y16522500D01*
X-11559188Y16483849D01*
X-11581082Y16451082D01*
X-11613849Y16429188D01*
X-11652500Y16421500D01*
X-11752500Y16421500D01*
X-11791151Y16429188D01*
X-11823918Y16451082D01*
X-11845812Y16483849D01*
X-11853500Y16522500D01*
X-11853500Y17297500D01*
X-11845812Y17336151D01*
X-11823918Y17368918D01*
X-11791151Y17390812D01*
X-11752500Y17398500D01*
X-11652500Y17398500D01*
X-11613849Y17390812D01*
G37*
G36*
X-11213849Y17390812D02*
G01*
X-11181082Y17368918D01*
X-11159188Y17336151D01*
X-11151500Y17297500D01*
X-11151500Y16522500D01*
X-11159188Y16483849D01*
X-11181082Y16451082D01*
X-11213849Y16429188D01*
X-11252500Y16421500D01*
X-11352500Y16421500D01*
X-11391151Y16429188D01*
X-11423918Y16451082D01*
X-11445812Y16483849D01*
X-11453500Y16522500D01*
X-11453500Y17297500D01*
X-11445812Y17336151D01*
X-11423918Y17368918D01*
X-11391151Y17390812D01*
X-11352500Y17398500D01*
X-11252500Y17398500D01*
X-11213849Y17390812D01*
G37*
G36*
X-10813849Y17390812D02*
G01*
X-10781082Y17368918D01*
X-10759188Y17336151D01*
X-10751500Y17297500D01*
X-10751500Y16522500D01*
X-10759188Y16483849D01*
X-10781082Y16451082D01*
X-10813849Y16429188D01*
X-10852500Y16421500D01*
X-10952500Y16421500D01*
X-10991151Y16429188D01*
X-11023918Y16451082D01*
X-11045812Y16483849D01*
X-11053500Y16522500D01*
X-11053500Y17297500D01*
X-11045812Y17336151D01*
X-11023918Y17368918D01*
X-10991151Y17390812D01*
X-10952500Y17398500D01*
X-10852500Y17398500D01*
X-10813849Y17390812D01*
G37*
G36*
X-10413849Y17390812D02*
G01*
X-10381082Y17368918D01*
X-10359188Y17336151D01*
X-10351500Y17297500D01*
X-10351500Y16522500D01*
X-10359188Y16483849D01*
X-10381082Y16451082D01*
X-10413849Y16429188D01*
X-10452500Y16421500D01*
X-10552500Y16421500D01*
X-10591151Y16429188D01*
X-10623918Y16451082D01*
X-10645812Y16483849D01*
X-10653500Y16522500D01*
X-10653500Y17297500D01*
X-10645812Y17336151D01*
X-10623918Y17368918D01*
X-10591151Y17390812D01*
X-10552500Y17398500D01*
X-10452500Y17398500D01*
X-10413849Y17390812D01*
G37*
G36*
X-10013849Y17390812D02*
G01*
X-9981082Y17368918D01*
X-9959188Y17336151D01*
X-9951500Y17297500D01*
X-9951500Y16522500D01*
X-9959188Y16483849D01*
X-9981082Y16451082D01*
X-10013849Y16429188D01*
X-10052500Y16421500D01*
X-10152500Y16421500D01*
X-10191151Y16429188D01*
X-10223918Y16451082D01*
X-10245812Y16483849D01*
X-10253500Y16522500D01*
X-10253500Y17297500D01*
X-10245812Y17336151D01*
X-10223918Y17368918D01*
X-10191151Y17390812D01*
X-10152500Y17398500D01*
X-10052500Y17398500D01*
X-10013849Y17390812D01*
G37*
G36*
X-9613849Y17390812D02*
G01*
X-9581082Y17368918D01*
X-9559188Y17336151D01*
X-9551500Y17297500D01*
X-9551500Y16522500D01*
X-9559188Y16483849D01*
X-9581082Y16451082D01*
X-9613849Y16429188D01*
X-9652500Y16421500D01*
X-9752500Y16421500D01*
X-9791151Y16429188D01*
X-9823918Y16451082D01*
X-9845812Y16483849D01*
X-9853500Y16522500D01*
X-9853500Y17297500D01*
X-9845812Y17336151D01*
X-9823918Y17368918D01*
X-9791151Y17390812D01*
X-9752500Y17398500D01*
X-9652500Y17398500D01*
X-9613849Y17390812D01*
G37*
G36*
X-9213849Y17390812D02*
G01*
X-9181082Y17368918D01*
X-9159188Y17336151D01*
X-9151500Y17297500D01*
X-9151500Y16522500D01*
X-9159188Y16483849D01*
X-9181082Y16451082D01*
X-9213849Y16429188D01*
X-9252500Y16421500D01*
X-9352500Y16421500D01*
X-9391151Y16429188D01*
X-9423918Y16451082D01*
X-9445812Y16483849D01*
X-9453500Y16522500D01*
X-9453500Y17297500D01*
X-9445812Y17336151D01*
X-9423918Y17368918D01*
X-9391151Y17390812D01*
X-9352500Y17398500D01*
X-9252500Y17398500D01*
X-9213849Y17390812D01*
G37*
G36*
X-8813849Y17390812D02*
G01*
X-8781082Y17368918D01*
X-8759188Y17336151D01*
X-8751500Y17297500D01*
X-8751500Y16522500D01*
X-8759188Y16483849D01*
X-8781082Y16451082D01*
X-8813849Y16429188D01*
X-8852500Y16421500D01*
X-8952500Y16421500D01*
X-8991151Y16429188D01*
X-9023918Y16451082D01*
X-9045812Y16483849D01*
X-9053500Y16522500D01*
X-9053500Y17297500D01*
X-9045812Y17336151D01*
X-9023918Y17368918D01*
X-8991151Y17390812D01*
X-8952500Y17398500D01*
X-8852500Y17398500D01*
X-8813849Y17390812D01*
G37*
G36*
X-8413849Y17390812D02*
G01*
X-8381082Y17368918D01*
X-8359188Y17336151D01*
X-8351500Y17297500D01*
X-8351500Y16522500D01*
X-8359188Y16483849D01*
X-8381082Y16451082D01*
X-8413849Y16429188D01*
X-8452500Y16421500D01*
X-8552500Y16421500D01*
X-8591151Y16429188D01*
X-8623918Y16451082D01*
X-8645812Y16483849D01*
X-8653500Y16522500D01*
X-8653500Y17297500D01*
X-8645812Y17336151D01*
X-8623918Y17368918D01*
X-8591151Y17390812D01*
X-8552500Y17398500D01*
X-8452500Y17398500D01*
X-8413849Y17390812D01*
G37*
G36*
X-8013849Y17390812D02*
G01*
X-7981082Y17368918D01*
X-7959188Y17336151D01*
X-7951500Y17297500D01*
X-7951500Y16522500D01*
X-7959188Y16483849D01*
X-7981082Y16451082D01*
X-8013849Y16429188D01*
X-8052500Y16421500D01*
X-8152500Y16421500D01*
X-8191151Y16429188D01*
X-8223918Y16451082D01*
X-8245812Y16483849D01*
X-8253500Y16522500D01*
X-8253500Y17297500D01*
X-8245812Y17336151D01*
X-8223918Y17368918D01*
X-8191151Y17390812D01*
X-8152500Y17398500D01*
X-8052500Y17398500D01*
X-8013849Y17390812D01*
G37*
G36*
X-7613849Y17390812D02*
G01*
X-7581082Y17368918D01*
X-7559188Y17336151D01*
X-7551500Y17297500D01*
X-7551500Y16522500D01*
X-7559188Y16483849D01*
X-7581082Y16451082D01*
X-7613849Y16429188D01*
X-7652500Y16421500D01*
X-7752500Y16421500D01*
X-7791151Y16429188D01*
X-7823918Y16451082D01*
X-7845812Y16483849D01*
X-7853500Y16522500D01*
X-7853500Y17297500D01*
X-7845812Y17336151D01*
X-7823918Y17368918D01*
X-7791151Y17390812D01*
X-7752500Y17398500D01*
X-7652500Y17398500D01*
X-7613849Y17390812D01*
G37*
G36*
X-7213849Y17390812D02*
G01*
X-7181082Y17368918D01*
X-7159188Y17336151D01*
X-7151500Y17297500D01*
X-7151500Y16522500D01*
X-7159188Y16483849D01*
X-7181082Y16451082D01*
X-7213849Y16429188D01*
X-7252500Y16421500D01*
X-7352500Y16421500D01*
X-7391151Y16429188D01*
X-7423918Y16451082D01*
X-7445812Y16483849D01*
X-7453500Y16522500D01*
X-7453500Y17297500D01*
X-7445812Y17336151D01*
X-7423918Y17368918D01*
X-7391151Y17390812D01*
X-7352500Y17398500D01*
X-7252500Y17398500D01*
X-7213849Y17390812D01*
G37*
G36*
X-6813849Y17390812D02*
G01*
X-6781082Y17368918D01*
X-6759188Y17336151D01*
X-6751500Y17297500D01*
X-6751500Y16522500D01*
X-6759188Y16483849D01*
X-6781082Y16451082D01*
X-6813849Y16429188D01*
X-6852500Y16421500D01*
X-6952500Y16421500D01*
X-6991151Y16429188D01*
X-7023918Y16451082D01*
X-7045812Y16483849D01*
X-7053500Y16522500D01*
X-7053500Y17297500D01*
X-7045812Y17336151D01*
X-7023918Y17368918D01*
X-6991151Y17390812D01*
X-6952500Y17398500D01*
X-6852500Y17398500D01*
X-6813849Y17390812D01*
G37*
G36*
X-6413849Y17390812D02*
G01*
X-6381082Y17368918D01*
X-6359188Y17336151D01*
X-6351500Y17297500D01*
X-6351500Y16522500D01*
X-6359188Y16483849D01*
X-6381082Y16451082D01*
X-6413849Y16429188D01*
X-6452500Y16421500D01*
X-6552500Y16421500D01*
X-6591151Y16429188D01*
X-6623918Y16451082D01*
X-6645812Y16483849D01*
X-6653500Y16522500D01*
X-6653500Y17297500D01*
X-6645812Y17336151D01*
X-6623918Y17368918D01*
X-6591151Y17390812D01*
X-6552500Y17398500D01*
X-6452500Y17398500D01*
X-6413849Y17390812D01*
G37*
G36*
X8904419Y17706950D02*
G01*
X8969628Y17663378D01*
X9013200Y17598169D01*
X9028500Y17521250D01*
X9028500Y17221250D01*
X9013200Y17144331D01*
X8969628Y17079122D01*
X8904419Y17035550D01*
X8827500Y17020250D01*
X7802500Y17020250D01*
X7725581Y17035550D01*
X7660372Y17079122D01*
X7616800Y17144331D01*
X7601500Y17221250D01*
X7601500Y17521250D01*
X7616800Y17598169D01*
X7660372Y17663378D01*
X7725581Y17706950D01*
X7802500Y17722250D01*
X8827500Y17722250D01*
X8904419Y17706950D01*
G37*
G36*
X-17966907Y17736461D02*
G01*
X-17904943Y17695057D01*
X-17863539Y17633093D01*
X-17849000Y17560000D01*
X-17849000Y17220000D01*
X-17863539Y17146907D01*
X-17904943Y17084943D01*
X-17966907Y17043539D01*
X-18040000Y17029000D01*
X-18320000Y17029000D01*
X-18393093Y17043539D01*
X-18455057Y17084943D01*
X-18496461Y17146907D01*
X-18511000Y17220000D01*
X-18511000Y17560000D01*
X-18496461Y17633093D01*
X-18455057Y17695057D01*
X-18393093Y17736461D01*
X-18320000Y17751000D01*
X-18040000Y17751000D01*
X-17966907Y17736461D01*
G37*
G36*
X-17006907Y17736461D02*
G01*
X-16944943Y17695057D01*
X-16903539Y17633093D01*
X-16889000Y17560000D01*
X-16889000Y17220000D01*
X-16903539Y17146907D01*
X-16944943Y17084943D01*
X-17006907Y17043539D01*
X-17080000Y17029000D01*
X-17360000Y17029000D01*
X-17433093Y17043539D01*
X-17495057Y17084943D01*
X-17536461Y17146907D01*
X-17551000Y17220000D01*
X-17551000Y17560000D01*
X-17536461Y17633093D01*
X-17495057Y17695057D01*
X-17433093Y17736461D01*
X-17360000Y17751000D01*
X-17080000Y17751000D01*
X-17006907Y17736461D01*
G37*
G36*
X-9136907Y18486461D02*
G01*
X-9074943Y18445057D01*
X-9033539Y18383093D01*
X-9019000Y18310000D01*
X-9019000Y17970000D01*
X-9033539Y17896907D01*
X-9074943Y17834943D01*
X-9136907Y17793539D01*
X-9210000Y17779000D01*
X-9490000Y17779000D01*
X-9563093Y17793539D01*
X-9625057Y17834943D01*
X-9666461Y17896907D01*
X-9681000Y17970000D01*
X-9681000Y18310000D01*
X-9666461Y18383093D01*
X-9625057Y18445057D01*
X-9563093Y18486461D01*
X-9490000Y18501000D01*
X-9210000Y18501000D01*
X-9136907Y18486461D01*
G37*
G36*
X-8176907Y18486461D02*
G01*
X-8114943Y18445057D01*
X-8073539Y18383093D01*
X-8059000Y18310000D01*
X-8059000Y17970000D01*
X-8073539Y17896907D01*
X-8114943Y17834943D01*
X-8176907Y17793539D01*
X-8250000Y17779000D01*
X-8530000Y17779000D01*
X-8603093Y17793539D01*
X-8665057Y17834943D01*
X-8706461Y17896907D01*
X-8721000Y17970000D01*
X-8721000Y18310000D01*
X-8706461Y18383093D01*
X-8665057Y18445057D01*
X-8603093Y18486461D01*
X-8530000Y18501000D01*
X-8250000Y18501000D01*
X-8176907Y18486461D01*
G37*
G36*
X-6746907Y18506461D02*
G01*
X-6684943Y18465057D01*
X-6643539Y18403093D01*
X-6629000Y18330000D01*
X-6629000Y17990000D01*
X-6643539Y17916907D01*
X-6684943Y17854943D01*
X-6746907Y17813539D01*
X-6820000Y17799000D01*
X-7100000Y17799000D01*
X-7173093Y17813539D01*
X-7235057Y17854943D01*
X-7276461Y17916907D01*
X-7291000Y17990000D01*
X-7291000Y18330000D01*
X-7276461Y18403093D01*
X-7235057Y18465057D01*
X-7173093Y18506461D01*
X-7100000Y18521000D01*
X-6820000Y18521000D01*
X-6746907Y18506461D01*
G37*
G36*
X-5786907Y18506461D02*
G01*
X-5724943Y18465057D01*
X-5683539Y18403093D01*
X-5669000Y18330000D01*
X-5669000Y17990000D01*
X-5683539Y17916907D01*
X-5724943Y17854943D01*
X-5786907Y17813539D01*
X-5860000Y17799000D01*
X-6140000Y17799000D01*
X-6213093Y17813539D01*
X-6275057Y17854943D01*
X-6316461Y17916907D01*
X-6331000Y17990000D01*
X-6331000Y18330000D01*
X-6316461Y18403093D01*
X-6275057Y18465057D01*
X-6213093Y18506461D01*
X-6140000Y18521000D01*
X-5860000Y18521000D01*
X-5786907Y18506461D01*
G37*
G36*
X6629419Y18656950D02*
G01*
X6694628Y18613378D01*
X6738200Y18548169D01*
X6753500Y18471250D01*
X6753500Y18171250D01*
X6738200Y18094331D01*
X6694628Y18029122D01*
X6629419Y17985550D01*
X6552500Y17970250D01*
X5527500Y17970250D01*
X5450581Y17985550D01*
X5385372Y18029122D01*
X5341800Y18094331D01*
X5326500Y18171250D01*
X5326500Y18471250D01*
X5341800Y18548169D01*
X5385372Y18613378D01*
X5450581Y18656950D01*
X5527500Y18672250D01*
X6552500Y18672250D01*
X6629419Y18656950D01*
G37*
G36*
X8904419Y18656950D02*
G01*
X8969628Y18613378D01*
X9013200Y18548169D01*
X9028500Y18471250D01*
X9028500Y18171250D01*
X9013200Y18094331D01*
X8969628Y18029122D01*
X8904419Y17985550D01*
X8827500Y17970250D01*
X7802500Y17970250D01*
X7725581Y17985550D01*
X7660372Y18029122D01*
X7616800Y18094331D01*
X7601500Y18171250D01*
X7601500Y18471250D01*
X7616800Y18548169D01*
X7660372Y18613378D01*
X7725581Y18656950D01*
X7802500Y18672250D01*
X8827500Y18672250D01*
X8904419Y18656950D01*
G37*
G36*
X-21030483Y20197118D02*
G01*
X-21013938Y20186062D01*
X-21002882Y20169517D01*
X-20999000Y20150000D01*
X-20999000Y18450000D01*
X-21002882Y18430483D01*
X-21013938Y18413938D01*
X-21030483Y18402882D01*
X-21050000Y18399000D01*
X-22750000Y18399000D01*
X-22769517Y18402882D01*
X-22786062Y18413938D01*
X-22797118Y18430483D01*
X-22801000Y18450000D01*
X-22801000Y20150000D01*
X-22797118Y20169517D01*
X-22786062Y20186062D01*
X-22769517Y20197118D01*
X-22750000Y20201000D01*
X-21050000Y20201000D01*
X-21030483Y20197118D01*
G37*
G36*
X4621414Y20064255D02*
G01*
X4626145Y20062166D01*
X4629311Y20061749D01*
X4668942Y20043269D01*
X4722606Y20019574D01*
X4800824Y19941356D01*
X4824528Y19887671D01*
X4842998Y19848062D01*
X4843414Y19844899D01*
X4845505Y19840164D01*
X4853500Y19771250D01*
X4853500Y19121250D01*
X4845505Y19052336D01*
X4843414Y19047602D01*
X4842998Y19044439D01*
X4824536Y19004848D01*
X4800824Y18951144D01*
X4722606Y18872926D01*
X4668902Y18849214D01*
X4629311Y18830752D01*
X4626148Y18830336D01*
X4621414Y18828245D01*
X4552500Y18820250D01*
X3252500Y18820250D01*
X3183586Y18828245D01*
X3178851Y18830336D01*
X3175688Y18830752D01*
X3136079Y18849222D01*
X3082394Y18872926D01*
X3004176Y18951144D01*
X2980481Y19004808D01*
X2962001Y19044439D01*
X2961584Y19047605D01*
X2959495Y19052336D01*
X2951500Y19121250D01*
X2951500Y19771250D01*
X2959495Y19840164D01*
X2961584Y19844896D01*
X2962001Y19848062D01*
X2980489Y19887712D01*
X3004176Y19941356D01*
X3082394Y20019574D01*
X3136038Y20043261D01*
X3175688Y20061749D01*
X3178854Y20062166D01*
X3183586Y20064255D01*
X3252500Y20072250D01*
X4552500Y20072250D01*
X4621414Y20064255D01*
G37*
G36*
X11201414Y20064255D02*
G01*
X11206145Y20062166D01*
X11209311Y20061749D01*
X11248942Y20043269D01*
X11302606Y20019574D01*
X11380824Y19941356D01*
X11404528Y19887671D01*
X11422998Y19848062D01*
X11423414Y19844899D01*
X11425505Y19840164D01*
X11433500Y19771250D01*
X11433500Y19121250D01*
X11425505Y19052336D01*
X11423414Y19047602D01*
X11422998Y19044439D01*
X11404536Y19004848D01*
X11380824Y18951144D01*
X11302606Y18872926D01*
X11248902Y18849214D01*
X11209311Y18830752D01*
X11206148Y18830336D01*
X11201414Y18828245D01*
X11132500Y18820250D01*
X9832500Y18820250D01*
X9763586Y18828245D01*
X9758851Y18830336D01*
X9755688Y18830752D01*
X9716079Y18849222D01*
X9662394Y18872926D01*
X9584176Y18951144D01*
X9560481Y19004808D01*
X9542001Y19044439D01*
X9541584Y19047605D01*
X9539495Y19052336D01*
X9531500Y19121250D01*
X9531500Y19771250D01*
X9539495Y19840164D01*
X9541584Y19844896D01*
X9542001Y19848062D01*
X9560489Y19887712D01*
X9584176Y19941356D01*
X9662394Y20019574D01*
X9716038Y20043261D01*
X9755688Y20061749D01*
X9758854Y20062166D01*
X9763586Y20064255D01*
X9832500Y20072250D01*
X11132500Y20072250D01*
X11201414Y20064255D01*
G37*
G36*
X-15127919Y20611200D02*
G01*
X-15062710Y20567628D01*
X-15019138Y20502419D01*
X-15003838Y20425500D01*
X-15003838Y20125500D01*
X-15019138Y20048581D01*
X-15062710Y19983372D01*
X-15127919Y19939800D01*
X-15204838Y19924500D01*
X-16504838Y19924500D01*
X-16581757Y19939800D01*
X-16646966Y19983372D01*
X-16690538Y20048581D01*
X-16705838Y20125500D01*
X-16705838Y20425500D01*
X-16690538Y20502419D01*
X-16646966Y20567628D01*
X-16581757Y20611200D01*
X-16504838Y20626500D01*
X-15204838Y20626500D01*
X-15127919Y20611200D01*
G37*
G36*
X-7927919Y20611200D02*
G01*
X-7862710Y20567628D01*
X-7819138Y20502419D01*
X-7803838Y20425500D01*
X-7803838Y20125500D01*
X-7819138Y20048581D01*
X-7862710Y19983372D01*
X-7927919Y19939800D01*
X-8004838Y19924500D01*
X-9304838Y19924500D01*
X-9381757Y19939800D01*
X-9446966Y19983372D01*
X-9490538Y20048581D01*
X-9505838Y20125500D01*
X-9505838Y20425500D01*
X-9490538Y20502419D01*
X-9446966Y20567628D01*
X-9381757Y20611200D01*
X-9304838Y20626500D01*
X-8004838Y20626500D01*
X-7927919Y20611200D01*
G37*
G36*
X-17726907Y21316461D02*
G01*
X-17664943Y21275057D01*
X-17623539Y21213093D01*
X-17609000Y21140000D01*
X-17609000Y20860000D01*
X-17623539Y20786907D01*
X-17664943Y20724943D01*
X-17726907Y20683539D01*
X-17800000Y20669000D01*
X-18140000Y20669000D01*
X-18213093Y20683539D01*
X-18275057Y20724943D01*
X-18316461Y20786907D01*
X-18331000Y20860000D01*
X-18331000Y21140000D01*
X-18316461Y21213093D01*
X-18275057Y21275057D01*
X-18213093Y21316461D01*
X-18140000Y21331000D01*
X-17800000Y21331000D01*
X-17726907Y21316461D01*
G37*
G36*
X529134Y21476194D02*
G01*
X545355Y21465355D01*
X556194Y21449134D01*
X560000Y21430000D01*
X560000Y20730000D01*
X556194Y20710866D01*
X545355Y20694645D01*
X529134Y20683806D01*
X510000Y20680000D01*
X-90000Y20680000D01*
X-109134Y20683806D01*
X-125355Y20694645D01*
X-136194Y20710866D01*
X-140000Y20730000D01*
X-140000Y21430000D01*
X-136194Y21449134D01*
X-125355Y21465355D01*
X-109134Y21476194D01*
X-90000Y21480000D01*
X510000Y21480000D01*
X529134Y21476194D01*
G37*
G36*
X2429134Y21476194D02*
G01*
X2445355Y21465355D01*
X2456194Y21449134D01*
X2460000Y21430000D01*
X2460000Y20730000D01*
X2456194Y20710866D01*
X2445355Y20694645D01*
X2429134Y20683806D01*
X2410000Y20680000D01*
X1810000Y20680000D01*
X1790866Y20683806D01*
X1774645Y20694645D01*
X1763806Y20710866D01*
X1760000Y20730000D01*
X1760000Y21430000D01*
X1763806Y21449134D01*
X1774645Y21465355D01*
X1790866Y21476194D01*
X1810000Y21480000D01*
X2410000Y21480000D01*
X2429134Y21476194D01*
G37*
G36*
X-15127919Y21881200D02*
G01*
X-15062710Y21837628D01*
X-15019138Y21772419D01*
X-15003838Y21695500D01*
X-15003838Y21395500D01*
X-15019138Y21318581D01*
X-15062710Y21253372D01*
X-15127919Y21209800D01*
X-15204838Y21194500D01*
X-16504838Y21194500D01*
X-16581757Y21209800D01*
X-16646966Y21253372D01*
X-16690538Y21318581D01*
X-16705838Y21395500D01*
X-16705838Y21695500D01*
X-16690538Y21772419D01*
X-16646966Y21837628D01*
X-16581757Y21881200D01*
X-16504838Y21896500D01*
X-15204838Y21896500D01*
X-15127919Y21881200D01*
G37*
G36*
X-7927919Y21881200D02*
G01*
X-7862710Y21837628D01*
X-7819138Y21772419D01*
X-7803838Y21695500D01*
X-7803838Y21395500D01*
X-7819138Y21318581D01*
X-7862710Y21253372D01*
X-7927919Y21209800D01*
X-8004838Y21194500D01*
X-9304838Y21194500D01*
X-9381757Y21209800D01*
X-9446966Y21253372D01*
X-9490538Y21318581D01*
X-9505838Y21395500D01*
X-9505838Y21695500D01*
X-9490538Y21772419D01*
X-9446966Y21837628D01*
X-9381757Y21881200D01*
X-9304838Y21896500D01*
X-8004838Y21896500D01*
X-7927919Y21881200D01*
G37*
G36*
X6463914Y23438005D02*
G01*
X6468645Y23435916D01*
X6471811Y23435499D01*
X6511442Y23417019D01*
X6565106Y23393324D01*
X6643324Y23315106D01*
X6667028Y23261421D01*
X6685498Y23221812D01*
X6685914Y23218649D01*
X6688005Y23213914D01*
X6696000Y23145000D01*
X6696000Y21895000D01*
X6688005Y21826086D01*
X6685914Y21821352D01*
X6685498Y21818189D01*
X6667036Y21778598D01*
X6643324Y21724894D01*
X6565106Y21646676D01*
X6511402Y21622964D01*
X6471811Y21604502D01*
X6468648Y21604086D01*
X6463914Y21601995D01*
X6395000Y21594000D01*
X5645000Y21594000D01*
X5576086Y21601995D01*
X5571351Y21604086D01*
X5568188Y21604502D01*
X5528579Y21622972D01*
X5474894Y21646676D01*
X5396676Y21724894D01*
X5372981Y21778558D01*
X5354501Y21818189D01*
X5354084Y21821355D01*
X5351995Y21826086D01*
X5344000Y21895000D01*
X5344000Y23145000D01*
X5351995Y23213914D01*
X5354084Y23218646D01*
X5354501Y23221812D01*
X5372989Y23261462D01*
X5396676Y23315106D01*
X5474894Y23393324D01*
X5528538Y23417011D01*
X5568188Y23435499D01*
X5571354Y23435916D01*
X5576086Y23438005D01*
X5645000Y23446000D01*
X6395000Y23446000D01*
X6463914Y23438005D01*
G37*
G36*
X9263914Y23438005D02*
G01*
X9268645Y23435916D01*
X9271811Y23435499D01*
X9311442Y23417019D01*
X9365106Y23393324D01*
X9443324Y23315106D01*
X9467028Y23261421D01*
X9485498Y23221812D01*
X9485914Y23218649D01*
X9488005Y23213914D01*
X9496000Y23145000D01*
X9496000Y21895000D01*
X9488005Y21826086D01*
X9485914Y21821352D01*
X9485498Y21818189D01*
X9467036Y21778598D01*
X9443324Y21724894D01*
X9365106Y21646676D01*
X9311402Y21622964D01*
X9271811Y21604502D01*
X9268648Y21604086D01*
X9263914Y21601995D01*
X9195000Y21594000D01*
X8445000Y21594000D01*
X8376086Y21601995D01*
X8371351Y21604086D01*
X8368188Y21604502D01*
X8328579Y21622972D01*
X8274894Y21646676D01*
X8196676Y21724894D01*
X8172981Y21778558D01*
X8154501Y21818189D01*
X8154084Y21821355D01*
X8151995Y21826086D01*
X8144000Y21895000D01*
X8144000Y23145000D01*
X8151995Y23213914D01*
X8154084Y23218646D01*
X8154501Y23221812D01*
X8172989Y23261462D01*
X8196676Y23315106D01*
X8274894Y23393324D01*
X8328538Y23417011D01*
X8368188Y23435499D01*
X8371354Y23435916D01*
X8376086Y23438005D01*
X8445000Y23446000D01*
X9195000Y23446000D01*
X9263914Y23438005D01*
G37*
G36*
X-17726907Y22276461D02*
G01*
X-17664943Y22235057D01*
X-17623539Y22173093D01*
X-17609000Y22100000D01*
X-17609000Y21820000D01*
X-17623539Y21746907D01*
X-17664943Y21684943D01*
X-17726907Y21643539D01*
X-17800000Y21629000D01*
X-18140000Y21629000D01*
X-18213093Y21643539D01*
X-18275057Y21684943D01*
X-18316461Y21746907D01*
X-18331000Y21820000D01*
X-18331000Y22100000D01*
X-18316461Y22173093D01*
X-18275057Y22235057D01*
X-18213093Y22276461D01*
X-18140000Y22291000D01*
X-17800000Y22291000D01*
X-17726907Y22276461D01*
G37*
G36*
X3845593Y22436461D02*
G01*
X3907557Y22395057D01*
X3948961Y22333093D01*
X3963500Y22260000D01*
X3963500Y21980000D01*
X3948961Y21906907D01*
X3907557Y21844943D01*
X3845593Y21803539D01*
X3772500Y21789000D01*
X3432500Y21789000D01*
X3359407Y21803539D01*
X3297443Y21844943D01*
X3256039Y21906907D01*
X3241500Y21980000D01*
X3241500Y22260000D01*
X3256039Y22333093D01*
X3297443Y22395057D01*
X3359407Y22436461D01*
X3432500Y22451000D01*
X3772500Y22451000D01*
X3845593Y22436461D01*
G37*
G36*
X-1436907Y22696461D02*
G01*
X-1374943Y22655057D01*
X-1333539Y22593093D01*
X-1319000Y22520000D01*
X-1319000Y22240000D01*
X-1333539Y22166907D01*
X-1374943Y22104943D01*
X-1436907Y22063539D01*
X-1510000Y22049000D01*
X-1850000Y22049000D01*
X-1923093Y22063539D01*
X-1985057Y22104943D01*
X-2026461Y22166907D01*
X-2041000Y22240000D01*
X-2041000Y22520000D01*
X-2026461Y22593093D01*
X-1985057Y22655057D01*
X-1923093Y22696461D01*
X-1850000Y22711000D01*
X-1510000Y22711000D01*
X-1436907Y22696461D01*
G37*
G36*
X-15127919Y23151200D02*
G01*
X-15062710Y23107628D01*
X-15019138Y23042419D01*
X-15003838Y22965500D01*
X-15003838Y22665500D01*
X-15019138Y22588581D01*
X-15062710Y22523372D01*
X-15127919Y22479800D01*
X-15204838Y22464500D01*
X-16504838Y22464500D01*
X-16581757Y22479800D01*
X-16646966Y22523372D01*
X-16690538Y22588581D01*
X-16705838Y22665500D01*
X-16705838Y22965500D01*
X-16690538Y23042419D01*
X-16646966Y23107628D01*
X-16581757Y23151200D01*
X-16504838Y23166500D01*
X-15204838Y23166500D01*
X-15127919Y23151200D01*
G37*
G36*
X-7927919Y23151200D02*
G01*
X-7862710Y23107628D01*
X-7819138Y23042419D01*
X-7803838Y22965500D01*
X-7803838Y22665500D01*
X-7819138Y22588581D01*
X-7862710Y22523372D01*
X-7927919Y22479800D01*
X-8004838Y22464500D01*
X-9304838Y22464500D01*
X-9381757Y22479800D01*
X-9446966Y22523372D01*
X-9490538Y22588581D01*
X-9505838Y22665500D01*
X-9505838Y22965500D01*
X-9490538Y23042419D01*
X-9446966Y23107628D01*
X-9381757Y23151200D01*
X-9304838Y23166500D01*
X-8004838Y23166500D01*
X-7927919Y23151200D01*
G37*
G36*
X-17736907Y23226461D02*
G01*
X-17674943Y23185057D01*
X-17633539Y23123093D01*
X-17619000Y23050000D01*
X-17619000Y22770000D01*
X-17633539Y22696907D01*
X-17674943Y22634943D01*
X-17736907Y22593539D01*
X-17810000Y22579000D01*
X-18150000Y22579000D01*
X-18223093Y22593539D01*
X-18285057Y22634943D01*
X-18326461Y22696907D01*
X-18341000Y22770000D01*
X-18341000Y23050000D01*
X-18326461Y23123093D01*
X-18285057Y23185057D01*
X-18223093Y23226461D01*
X-18150000Y23241000D01*
X-17810000Y23241000D01*
X-17736907Y23226461D01*
G37*
G36*
X529134Y23476194D02*
G01*
X545355Y23465355D01*
X556194Y23449134D01*
X560000Y23430000D01*
X560000Y22730000D01*
X556194Y22710866D01*
X545355Y22694645D01*
X529134Y22683806D01*
X510000Y22680000D01*
X-90000Y22680000D01*
X-109134Y22683806D01*
X-125355Y22694645D01*
X-136194Y22710866D01*
X-140000Y22730000D01*
X-140000Y23430000D01*
X-136194Y23449134D01*
X-125355Y23465355D01*
X-109134Y23476194D01*
X-90000Y23480000D01*
X510000Y23480000D01*
X529134Y23476194D01*
G37*
G36*
X2429134Y23476194D02*
G01*
X2445355Y23465355D01*
X2456194Y23449134D01*
X2460000Y23430000D01*
X2460000Y22730000D01*
X2456194Y22710866D01*
X2445355Y22694645D01*
X2429134Y22683806D01*
X2410000Y22680000D01*
X1410000Y22680000D01*
X1390866Y22683806D01*
X1374645Y22694645D01*
X1363806Y22710866D01*
X1360000Y22730000D01*
X1360000Y23430000D01*
X1363806Y23449134D01*
X1374645Y23465355D01*
X1390866Y23476194D01*
X1410000Y23480000D01*
X2410000Y23480000D01*
X2429134Y23476194D01*
G37*
G36*
X3845593Y23396461D02*
G01*
X3907557Y23355057D01*
X3948961Y23293093D01*
X3963500Y23220000D01*
X3963500Y22940000D01*
X3948961Y22866907D01*
X3907557Y22804943D01*
X3845593Y22763539D01*
X3772500Y22749000D01*
X3432500Y22749000D01*
X3359407Y22763539D01*
X3297443Y22804943D01*
X3256039Y22866907D01*
X3241500Y22940000D01*
X3241500Y23220000D01*
X3256039Y23293093D01*
X3297443Y23355057D01*
X3359407Y23396461D01*
X3432500Y23411000D01*
X3772500Y23411000D01*
X3845593Y23396461D01*
G37*
G36*
X-1436907Y23656461D02*
G01*
X-1374943Y23615057D01*
X-1333539Y23553093D01*
X-1319000Y23480000D01*
X-1319000Y23200000D01*
X-1333539Y23126907D01*
X-1374943Y23064943D01*
X-1436907Y23023539D01*
X-1510000Y23009000D01*
X-1850000Y23009000D01*
X-1923093Y23023539D01*
X-1985057Y23064943D01*
X-2026461Y23126907D01*
X-2041000Y23200000D01*
X-2041000Y23480000D01*
X-2026461Y23553093D01*
X-1985057Y23615057D01*
X-1923093Y23656461D01*
X-1850000Y23671000D01*
X-1510000Y23671000D01*
X-1436907Y23656461D01*
G37*
G36*
X-6776907Y23866461D02*
G01*
X-6714943Y23825057D01*
X-6673539Y23763093D01*
X-6659000Y23690000D01*
X-6659000Y23410000D01*
X-6673539Y23336907D01*
X-6714943Y23274943D01*
X-6776907Y23233539D01*
X-6850000Y23219000D01*
X-7190000Y23219000D01*
X-7263093Y23233539D01*
X-7325057Y23274943D01*
X-7366461Y23336907D01*
X-7381000Y23410000D01*
X-7381000Y23690000D01*
X-7366461Y23763093D01*
X-7325057Y23825057D01*
X-7263093Y23866461D01*
X-7190000Y23881000D01*
X-6850000Y23881000D01*
X-6776907Y23866461D01*
G37*
G36*
X-17736907Y24186461D02*
G01*
X-17674943Y24145057D01*
X-17633539Y24083093D01*
X-17619000Y24010000D01*
X-17619000Y23730000D01*
X-17633539Y23656907D01*
X-17674943Y23594943D01*
X-17736907Y23553539D01*
X-17810000Y23539000D01*
X-18150000Y23539000D01*
X-18223093Y23553539D01*
X-18285057Y23594943D01*
X-18326461Y23656907D01*
X-18341000Y23730000D01*
X-18341000Y24010000D01*
X-18326461Y24083093D01*
X-18285057Y24145057D01*
X-18223093Y24186461D01*
X-18150000Y24201000D01*
X-17810000Y24201000D01*
X-17736907Y24186461D01*
G37*
G36*
X-15127919Y24421200D02*
G01*
X-15062710Y24377628D01*
X-15019138Y24312419D01*
X-15003838Y24235500D01*
X-15003838Y23935500D01*
X-15019138Y23858581D01*
X-15062710Y23793372D01*
X-15127919Y23749800D01*
X-15204838Y23734500D01*
X-16504838Y23734500D01*
X-16581757Y23749800D01*
X-16646966Y23793372D01*
X-16690538Y23858581D01*
X-16705838Y23935500D01*
X-16705838Y24235500D01*
X-16690538Y24312419D01*
X-16646966Y24377628D01*
X-16581757Y24421200D01*
X-16504838Y24436500D01*
X-15204838Y24436500D01*
X-15127919Y24421200D01*
G37*
G36*
X-7927919Y24421200D02*
G01*
X-7862710Y24377628D01*
X-7819138Y24312419D01*
X-7803838Y24235500D01*
X-7803838Y23935500D01*
X-7819138Y23858581D01*
X-7862710Y23793372D01*
X-7927919Y23749800D01*
X-8004838Y23734500D01*
X-9304838Y23734500D01*
X-9381757Y23749800D01*
X-9446966Y23793372D01*
X-9490538Y23858581D01*
X-9505838Y23935500D01*
X-9505838Y24235500D01*
X-9490538Y24312419D01*
X-9446966Y24377628D01*
X-9381757Y24421200D01*
X-9304838Y24436500D01*
X-8004838Y24436500D01*
X-7927919Y24421200D01*
G37*
G36*
X-6776907Y24826461D02*
G01*
X-6714943Y24785057D01*
X-6673539Y24723093D01*
X-6659000Y24650000D01*
X-6659000Y24370000D01*
X-6673539Y24296907D01*
X-6714943Y24234943D01*
X-6776907Y24193539D01*
X-6850000Y24179000D01*
X-7190000Y24179000D01*
X-7263093Y24193539D01*
X-7325057Y24234943D01*
X-7366461Y24296907D01*
X-7381000Y24370000D01*
X-7381000Y24650000D01*
X-7366461Y24723093D01*
X-7325057Y24785057D01*
X-7263093Y24826461D01*
X-7190000Y24841000D01*
X-6850000Y24841000D01*
X-6776907Y24826461D01*
G37*
G36*
X9059517Y26227118D02*
G01*
X9076062Y26216062D01*
X9087118Y26199517D01*
X9091000Y26180000D01*
X9091000Y24480000D01*
X9087118Y24460483D01*
X9076062Y24443938D01*
X9059517Y24432882D01*
X9040000Y24429000D01*
X7340000Y24429000D01*
X7320483Y24432882D01*
X7303938Y24443938D01*
X7292882Y24460483D01*
X7289000Y24480000D01*
X7289000Y26180000D01*
X7292882Y26199517D01*
X7303938Y26216062D01*
X7320483Y26227118D01*
X7340000Y26231000D01*
X9040000Y26231000D01*
X9059517Y26227118D01*
G37*
G36*
X10777913Y26226064D02*
G01*
X10824180Y26226064D01*
X10864129Y26217573D01*
X10905733Y26213475D01*
X10957998Y26197621D01*
X11008424Y26186902D01*
X11040694Y26172535D01*
X11074712Y26162215D01*
X11128767Y26133322D01*
X11180500Y26110289D01*
X11204551Y26092815D01*
X11230447Y26078973D01*
X11283271Y26035622D01*
X11332887Y25999573D01*
X11348996Y25981682D01*
X11366948Y25966949D01*
X11415188Y25908169D01*
X11458924Y25859595D01*
X11468111Y25843681D01*
X11478972Y25830448D01*
X11519149Y25755281D01*
X11553104Y25696470D01*
X11557009Y25684450D01*
X11562214Y25674713D01*
X11590913Y25580104D01*
X11611311Y25517328D01*
X11612028Y25510498D01*
X11613474Y25505734D01*
X11627536Y25362958D01*
X11631000Y25330000D01*
X11627535Y25297041D01*
X11613474Y25154267D01*
X11612029Y25149504D01*
X11611311Y25142672D01*
X11590909Y25079883D01*
X11562214Y24985288D01*
X11557010Y24975553D01*
X11553104Y24963530D01*
X11519142Y24904707D01*
X11478972Y24829553D01*
X11468113Y24816323D01*
X11458924Y24800405D01*
X11415178Y24751822D01*
X11366948Y24693052D01*
X11349000Y24678323D01*
X11332887Y24660427D01*
X11283260Y24624372D01*
X11230447Y24581028D01*
X11204557Y24567190D01*
X11180500Y24549711D01*
X11128756Y24526674D01*
X11074712Y24497786D01*
X11040701Y24487469D01*
X11008424Y24473098D01*
X10957987Y24462378D01*
X10905733Y24446526D01*
X10864138Y24442430D01*
X10824180Y24433936D01*
X10777902Y24433936D01*
X10729999Y24429218D01*
X10682096Y24433936D01*
X10635820Y24433936D01*
X10595862Y24442430D01*
X10554266Y24446526D01*
X10502009Y24462379D01*
X10451576Y24473098D01*
X10419300Y24487468D01*
X10385287Y24497786D01*
X10331237Y24526677D01*
X10279500Y24549711D01*
X10255445Y24567188D01*
X10229552Y24581028D01*
X10176730Y24624378D01*
X10127113Y24660427D01*
X10111002Y24678320D01*
X10093051Y24693052D01*
X10044809Y24751834D01*
X10001076Y24800405D01*
X9991888Y24816319D01*
X9981027Y24829553D01*
X9940844Y24904731D01*
X9906896Y24963530D01*
X9902991Y24975549D01*
X9897785Y24985288D01*
X9869075Y25079929D01*
X9848689Y25142672D01*
X9847971Y25149499D01*
X9846525Y25154267D01*
X9832449Y25297180D01*
X9829000Y25330000D01*
X9832446Y25362794D01*
X9846525Y25505734D01*
X9847971Y25510503D01*
X9848689Y25517328D01*
X9869071Y25580058D01*
X9897785Y25674713D01*
X9902991Y25684455D01*
X9906896Y25696470D01*
X9940836Y25755258D01*
X9981027Y25830448D01*
X9991890Y25843686D01*
X10001076Y25859595D01*
X10044800Y25908157D01*
X10093051Y25966949D01*
X10111005Y25981685D01*
X10127113Y25999573D01*
X10176720Y26035615D01*
X10229552Y26078973D01*
X10255450Y26092817D01*
X10279500Y26110289D01*
X10331226Y26133319D01*
X10385287Y26162215D01*
X10419307Y26172536D01*
X10451576Y26186902D01*
X10501998Y26197620D01*
X10554266Y26213475D01*
X10595871Y26217573D01*
X10635820Y26226064D01*
X10682086Y26226064D01*
X10729999Y26230783D01*
X10777913Y26226064D01*
G37*
G36*
X13317913Y26226064D02*
G01*
X13364180Y26226064D01*
X13404129Y26217573D01*
X13445733Y26213475D01*
X13497998Y26197621D01*
X13548424Y26186902D01*
X13580694Y26172535D01*
X13614712Y26162215D01*
X13668767Y26133322D01*
X13720500Y26110289D01*
X13744551Y26092815D01*
X13770447Y26078973D01*
X13823271Y26035622D01*
X13872887Y25999573D01*
X13888996Y25981682D01*
X13906948Y25966949D01*
X13955188Y25908169D01*
X13998924Y25859595D01*
X14008111Y25843681D01*
X14018972Y25830448D01*
X14059149Y25755281D01*
X14093104Y25696470D01*
X14097009Y25684450D01*
X14102214Y25674713D01*
X14130913Y25580104D01*
X14151311Y25517328D01*
X14152028Y25510498D01*
X14153474Y25505734D01*
X14167537Y25362946D01*
X14171000Y25330000D01*
X14167534Y25297028D01*
X14153474Y25154267D01*
X14152029Y25149504D01*
X14151311Y25142672D01*
X14130909Y25079883D01*
X14102214Y24985288D01*
X14097010Y24975553D01*
X14093104Y24963530D01*
X14059142Y24904707D01*
X14018972Y24829553D01*
X14008113Y24816323D01*
X13998924Y24800405D01*
X13955178Y24751822D01*
X13906948Y24693052D01*
X13889000Y24678323D01*
X13872887Y24660427D01*
X13823260Y24624372D01*
X13770447Y24581028D01*
X13744557Y24567190D01*
X13720500Y24549711D01*
X13668756Y24526674D01*
X13614712Y24497786D01*
X13580701Y24487469D01*
X13548424Y24473098D01*
X13497987Y24462378D01*
X13445733Y24446526D01*
X13404138Y24442430D01*
X13364180Y24433936D01*
X13317903Y24433936D01*
X13270000Y24429218D01*
X13222097Y24433936D01*
X13175820Y24433936D01*
X13135862Y24442430D01*
X13094266Y24446526D01*
X13042009Y24462379D01*
X12991576Y24473098D01*
X12959300Y24487468D01*
X12925287Y24497786D01*
X12871237Y24526677D01*
X12819500Y24549711D01*
X12795445Y24567188D01*
X12769552Y24581028D01*
X12716730Y24624378D01*
X12667113Y24660427D01*
X12651002Y24678320D01*
X12633051Y24693052D01*
X12584809Y24751834D01*
X12541076Y24800405D01*
X12531888Y24816319D01*
X12521027Y24829553D01*
X12480844Y24904731D01*
X12446896Y24963530D01*
X12442991Y24975549D01*
X12437785Y24985288D01*
X12409075Y25079929D01*
X12388689Y25142672D01*
X12387971Y25149499D01*
X12386525Y25154267D01*
X12372448Y25297192D01*
X12369000Y25330000D01*
X12372448Y25362806D01*
X12386525Y25505734D01*
X12387971Y25510503D01*
X12388689Y25517328D01*
X12409071Y25580058D01*
X12437785Y25674713D01*
X12442991Y25684455D01*
X12446896Y25696470D01*
X12480836Y25755258D01*
X12521027Y25830448D01*
X12531890Y25843686D01*
X12541076Y25859595D01*
X12584800Y25908157D01*
X12633051Y25966949D01*
X12651005Y25981685D01*
X12667113Y25999573D01*
X12716720Y26035615D01*
X12769552Y26078973D01*
X12795450Y26092817D01*
X12819500Y26110289D01*
X12871226Y26133319D01*
X12925287Y26162215D01*
X12959307Y26172536D01*
X12991576Y26186902D01*
X13041998Y26197620D01*
X13094266Y26213475D01*
X13135871Y26217573D01*
X13175820Y26226064D01*
X13222086Y26226064D01*
X13270000Y26230783D01*
X13317913Y26226064D01*
G37*
G36*
X15857913Y26226064D02*
G01*
X15904180Y26226064D01*
X15944129Y26217573D01*
X15985733Y26213475D01*
X16037998Y26197621D01*
X16088424Y26186902D01*
X16120694Y26172535D01*
X16154712Y26162215D01*
X16208767Y26133322D01*
X16260500Y26110289D01*
X16284551Y26092815D01*
X16310447Y26078973D01*
X16363271Y26035622D01*
X16412887Y25999573D01*
X16428996Y25981682D01*
X16446948Y25966949D01*
X16495188Y25908169D01*
X16538924Y25859595D01*
X16548111Y25843681D01*
X16558972Y25830448D01*
X16599149Y25755281D01*
X16633104Y25696470D01*
X16637009Y25684450D01*
X16642214Y25674713D01*
X16670913Y25580104D01*
X16691311Y25517328D01*
X16692028Y25510498D01*
X16693474Y25505734D01*
X16707536Y25362958D01*
X16711000Y25330000D01*
X16707535Y25297041D01*
X16693474Y25154267D01*
X16692029Y25149504D01*
X16691311Y25142672D01*
X16670909Y25079883D01*
X16642214Y24985288D01*
X16637010Y24975553D01*
X16633104Y24963530D01*
X16599142Y24904707D01*
X16558972Y24829553D01*
X16548113Y24816323D01*
X16538924Y24800405D01*
X16495178Y24751822D01*
X16446948Y24693052D01*
X16429000Y24678323D01*
X16412887Y24660427D01*
X16363260Y24624372D01*
X16310447Y24581028D01*
X16284557Y24567190D01*
X16260500Y24549711D01*
X16208756Y24526674D01*
X16154712Y24497786D01*
X16120701Y24487469D01*
X16088424Y24473098D01*
X16037987Y24462378D01*
X15985733Y24446526D01*
X15944138Y24442430D01*
X15904180Y24433936D01*
X15857903Y24433936D01*
X15810000Y24429218D01*
X15762097Y24433936D01*
X15715820Y24433936D01*
X15675862Y24442430D01*
X15634266Y24446526D01*
X15582009Y24462379D01*
X15531576Y24473098D01*
X15499300Y24487468D01*
X15465287Y24497786D01*
X15411237Y24526677D01*
X15359500Y24549711D01*
X15335445Y24567188D01*
X15309552Y24581028D01*
X15256730Y24624378D01*
X15207113Y24660427D01*
X15191002Y24678320D01*
X15173051Y24693052D01*
X15124809Y24751834D01*
X15081076Y24800405D01*
X15071888Y24816319D01*
X15061027Y24829553D01*
X15020844Y24904731D01*
X14986896Y24963530D01*
X14982991Y24975549D01*
X14977785Y24985288D01*
X14949075Y25079929D01*
X14928689Y25142672D01*
X14927971Y25149499D01*
X14926525Y25154267D01*
X14912448Y25297192D01*
X14909000Y25330000D01*
X14912448Y25362806D01*
X14926525Y25505734D01*
X14927971Y25510503D01*
X14928689Y25517328D01*
X14949071Y25580058D01*
X14977785Y25674713D01*
X14982991Y25684455D01*
X14986896Y25696470D01*
X15020836Y25755258D01*
X15061027Y25830448D01*
X15071890Y25843686D01*
X15081076Y25859595D01*
X15124800Y25908157D01*
X15173051Y25966949D01*
X15191005Y25981685D01*
X15207113Y25999573D01*
X15256720Y26035615D01*
X15309552Y26078973D01*
X15335450Y26092817D01*
X15359500Y26110289D01*
X15411226Y26133319D01*
X15465287Y26162215D01*
X15499307Y26172536D01*
X15531576Y26186902D01*
X15581998Y26197620D01*
X15634266Y26213475D01*
X15675871Y26217573D01*
X15715820Y26226064D01*
X15762086Y26226064D01*
X15810000Y26230783D01*
X15857913Y26226064D01*
G37*
G36*
X-2880483Y26847118D02*
G01*
X-2863938Y26836062D01*
X-2852882Y26819517D01*
X-2849000Y26800000D01*
X-2849000Y25650000D01*
X-2852882Y25630483D01*
X-2863938Y25613938D01*
X-2880483Y25602882D01*
X-2900000Y25599000D01*
X-3500000Y25599000D01*
X-3519517Y25602882D01*
X-3536062Y25613938D01*
X-3547118Y25630483D01*
X-3551000Y25650000D01*
X-3551000Y26800000D01*
X-3547118Y26819517D01*
X-3536062Y26836062D01*
X-3519517Y26847118D01*
X-3500000Y26851000D01*
X-2900000Y26851000D01*
X-2880483Y26847118D01*
G37*
G36*
X-2080483Y26847118D02*
G01*
X-2063938Y26836062D01*
X-2052882Y26819517D01*
X-2049000Y26800000D01*
X-2049000Y25650000D01*
X-2052882Y25630483D01*
X-2063938Y25613938D01*
X-2080483Y25602882D01*
X-2100000Y25599000D01*
X-2700000Y25599000D01*
X-2719517Y25602882D01*
X-2736062Y25613938D01*
X-2747118Y25630483D01*
X-2751000Y25650000D01*
X-2751000Y26800000D01*
X-2747118Y26819517D01*
X-2736062Y26836062D01*
X-2719517Y26847118D01*
X-2700000Y26851000D01*
X-2100000Y26851000D01*
X-2080483Y26847118D01*
G37*
G36*
X-1580483Y26847118D02*
G01*
X-1563938Y26836062D01*
X-1552882Y26819517D01*
X-1549000Y26800000D01*
X-1549000Y25650000D01*
X-1552882Y25630483D01*
X-1563938Y25613938D01*
X-1580483Y25602882D01*
X-1600000Y25599000D01*
X-1900000Y25599000D01*
X-1919517Y25602882D01*
X-1936062Y25613938D01*
X-1947118Y25630483D01*
X-1951000Y25650000D01*
X-1951000Y26800000D01*
X-1947118Y26819517D01*
X-1936062Y26836062D01*
X-1919517Y26847118D01*
X-1900000Y26851000D01*
X-1600000Y26851000D01*
X-1580483Y26847118D01*
G37*
G36*
X-1080483Y26847118D02*
G01*
X-1063938Y26836062D01*
X-1052882Y26819517D01*
X-1049000Y26800000D01*
X-1049000Y25650000D01*
X-1052882Y25630483D01*
X-1063938Y25613938D01*
X-1080483Y25602882D01*
X-1100000Y25599000D01*
X-1400000Y25599000D01*
X-1419517Y25602882D01*
X-1436062Y25613938D01*
X-1447118Y25630483D01*
X-1451000Y25650000D01*
X-1451000Y26800000D01*
X-1447118Y26819517D01*
X-1436062Y26836062D01*
X-1419517Y26847118D01*
X-1400000Y26851000D01*
X-1100000Y26851000D01*
X-1080483Y26847118D01*
G37*
G36*
X-580483Y26847118D02*
G01*
X-563938Y26836062D01*
X-552882Y26819517D01*
X-549000Y26800000D01*
X-549000Y25650000D01*
X-552882Y25630483D01*
X-563938Y25613938D01*
X-580483Y25602882D01*
X-600000Y25599000D01*
X-900000Y25599000D01*
X-919517Y25602882D01*
X-936062Y25613938D01*
X-947118Y25630483D01*
X-951000Y25650000D01*
X-951000Y26800000D01*
X-947118Y26819517D01*
X-936062Y26836062D01*
X-919517Y26847118D01*
X-900000Y26851000D01*
X-600000Y26851000D01*
X-580483Y26847118D01*
G37*
G36*
X-80483Y26847118D02*
G01*
X-63938Y26836062D01*
X-52882Y26819517D01*
X-49000Y26800000D01*
X-49000Y25650000D01*
X-52882Y25630483D01*
X-63938Y25613938D01*
X-80483Y25602882D01*
X-100000Y25599000D01*
X-400000Y25599000D01*
X-419517Y25602882D01*
X-436062Y25613938D01*
X-447118Y25630483D01*
X-451000Y25650000D01*
X-451000Y26800000D01*
X-447118Y26819517D01*
X-436062Y26836062D01*
X-419517Y26847118D01*
X-400000Y26851000D01*
X-100000Y26851000D01*
X-80483Y26847118D01*
G37*
G36*
X419517Y26847118D02*
G01*
X436062Y26836062D01*
X447118Y26819517D01*
X451000Y26800000D01*
X451000Y25650000D01*
X447118Y25630483D01*
X436062Y25613938D01*
X419517Y25602882D01*
X400000Y25599000D01*
X100000Y25599000D01*
X80483Y25602882D01*
X63938Y25613938D01*
X52882Y25630483D01*
X49000Y25650000D01*
X49000Y26800000D01*
X52882Y26819517D01*
X63938Y26836062D01*
X80483Y26847118D01*
X100000Y26851000D01*
X400000Y26851000D01*
X419517Y26847118D01*
G37*
G36*
X919517Y26847118D02*
G01*
X936062Y26836062D01*
X947118Y26819517D01*
X951000Y26800000D01*
X951000Y25650000D01*
X947118Y25630483D01*
X936062Y25613938D01*
X919517Y25602882D01*
X900000Y25599000D01*
X600000Y25599000D01*
X580483Y25602882D01*
X563938Y25613938D01*
X552882Y25630483D01*
X549000Y25650000D01*
X549000Y26800000D01*
X552882Y26819517D01*
X563938Y26836062D01*
X580483Y26847118D01*
X600000Y26851000D01*
X900000Y26851000D01*
X919517Y26847118D01*
G37*
G36*
X1419517Y26847118D02*
G01*
X1436062Y26836062D01*
X1447118Y26819517D01*
X1451000Y26800000D01*
X1451000Y25650000D01*
X1447118Y25630483D01*
X1436062Y25613938D01*
X1419517Y25602882D01*
X1400000Y25599000D01*
X1100000Y25599000D01*
X1080483Y25602882D01*
X1063938Y25613938D01*
X1052882Y25630483D01*
X1049000Y25650000D01*
X1049000Y26800000D01*
X1052882Y26819517D01*
X1063938Y26836062D01*
X1080483Y26847118D01*
X1100000Y26851000D01*
X1400000Y26851000D01*
X1419517Y26847118D01*
G37*
G36*
X1919517Y26847118D02*
G01*
X1936062Y26836062D01*
X1947118Y26819517D01*
X1951000Y26800000D01*
X1951000Y25650000D01*
X1947118Y25630483D01*
X1936062Y25613938D01*
X1919517Y25602882D01*
X1900000Y25599000D01*
X1600000Y25599000D01*
X1580483Y25602882D01*
X1563938Y25613938D01*
X1552882Y25630483D01*
X1549000Y25650000D01*
X1549000Y26800000D01*
X1552882Y26819517D01*
X1563938Y26836062D01*
X1580483Y26847118D01*
X1600000Y26851000D01*
X1900000Y26851000D01*
X1919517Y26847118D01*
G37*
G36*
X2719517Y26847118D02*
G01*
X2736062Y26836062D01*
X2747118Y26819517D01*
X2751000Y26800000D01*
X2751000Y25650000D01*
X2747118Y25630483D01*
X2736062Y25613938D01*
X2719517Y25602882D01*
X2700000Y25599000D01*
X2100000Y25599000D01*
X2080483Y25602882D01*
X2063938Y25613938D01*
X2052882Y25630483D01*
X2049000Y25650000D01*
X2049000Y26800000D01*
X2052882Y26819517D01*
X2063938Y26836062D01*
X2080483Y26847118D01*
X2100000Y26851000D01*
X2700000Y26851000D01*
X2719517Y26847118D01*
G37*
G36*
X3519517Y26847118D02*
G01*
X3536062Y26836062D01*
X3547118Y26819517D01*
X3551000Y26800000D01*
X3551000Y25650000D01*
X3547118Y25630483D01*
X3536062Y25613938D01*
X3519517Y25602882D01*
X3500000Y25599000D01*
X2900000Y25599000D01*
X2880483Y25602882D01*
X2863938Y25613938D01*
X2852882Y25630483D01*
X2849000Y25650000D01*
X2849000Y26800000D01*
X2852882Y26819517D01*
X2863938Y26836062D01*
X2880483Y26847118D01*
X2900000Y26851000D01*
X3500000Y26851000D01*
X3519517Y26847118D01*
G37*
G36*
X-5565154Y28393392D02*
G01*
X-5507896Y28389475D01*
X-5491711Y28383723D01*
X-5477493Y28381851D01*
X-5423410Y28359449D01*
X-5366504Y28339225D01*
X-5355029Y28331125D01*
X-5344694Y28326844D01*
X-5295644Y28289207D01*
X-5243913Y28252691D01*
X-5237031Y28244231D01*
X-5230659Y28239342D01*
X-5190935Y28187572D01*
X-5149215Y28136291D01*
X-5146122Y28129170D01*
X-5143158Y28125307D01*
X-5116711Y28061458D01*
X-5089433Y27998658D01*
X-5088805Y27994088D01*
X-5088150Y27992507D01*
X-5078208Y27916989D01*
X-5069000Y27850000D01*
X-5069000Y27050000D01*
X-5074132Y26974972D01*
X-5083817Y26940407D01*
X-5088150Y26907494D01*
X-5103259Y26871019D01*
X-5114617Y26830481D01*
X-5131657Y26802461D01*
X-5143158Y26774694D01*
X-5169106Y26740878D01*
X-5192583Y26702271D01*
X-5214273Y26682014D01*
X-5230659Y26660659D01*
X-5266979Y26632791D01*
X-5302249Y26599850D01*
X-5325836Y26587629D01*
X-5344694Y26573158D01*
X-5389896Y26554435D01*
X-5435481Y26530814D01*
X-5458437Y26526044D01*
X-5477494Y26518150D01*
X-5529155Y26511349D01*
X-5582398Y26500285D01*
X-5602665Y26501672D01*
X-5620000Y26499389D01*
X-5674832Y26506608D01*
X-5732104Y26510525D01*
X-5748294Y26516279D01*
X-5762508Y26518150D01*
X-5816581Y26540548D01*
X-5873496Y26560775D01*
X-5884974Y26568877D01*
X-5895307Y26573157D01*
X-5944353Y26610791D01*
X-5996087Y26647309D01*
X-6002971Y26655770D01*
X-6009342Y26660659D01*
X-6049070Y26712434D01*
X-6090785Y26763709D01*
X-6093879Y26770830D01*
X-6096843Y26774694D01*
X-6123303Y26838572D01*
X-6150567Y26901342D01*
X-6151195Y26905910D01*
X-6151851Y26907494D01*
X-6161801Y26983073D01*
X-6171000Y27050000D01*
X-6171000Y27850000D01*
X-6165868Y27925028D01*
X-6156185Y27959588D01*
X-6151851Y27992507D01*
X-6136739Y28028993D01*
X-6125383Y28069519D01*
X-6108348Y28097533D01*
X-6096843Y28125307D01*
X-6070888Y28159134D01*
X-6047417Y28197729D01*
X-6025734Y28217981D01*
X-6009342Y28239342D01*
X-5973012Y28267220D01*
X-5937751Y28300150D01*
X-5914172Y28312369D01*
X-5895307Y28326843D01*
X-5850092Y28345573D01*
X-5804519Y28369186D01*
X-5781571Y28373955D01*
X-5762507Y28381851D01*
X-5710832Y28388655D01*
X-5657602Y28399715D01*
X-5637341Y28398330D01*
X-5620000Y28400612D01*
X-5565154Y28393392D01*
G37*
G36*
X5674846Y28393392D02*
G01*
X5732104Y28389475D01*
X5748289Y28383723D01*
X5762507Y28381851D01*
X5816590Y28359449D01*
X5873496Y28339225D01*
X5884971Y28331125D01*
X5895306Y28326844D01*
X5944356Y28289207D01*
X5996087Y28252691D01*
X6002969Y28244231D01*
X6009341Y28239342D01*
X6049065Y28187572D01*
X6090785Y28136291D01*
X6093878Y28129170D01*
X6096842Y28125307D01*
X6123289Y28061458D01*
X6150567Y27998658D01*
X6151195Y27994088D01*
X6151850Y27992507D01*
X6161792Y27916989D01*
X6171000Y27850000D01*
X6171000Y27050000D01*
X6165868Y26974972D01*
X6156183Y26940407D01*
X6151850Y26907494D01*
X6136741Y26871019D01*
X6125383Y26830481D01*
X6108343Y26802461D01*
X6096842Y26774694D01*
X6070894Y26740878D01*
X6047417Y26702271D01*
X6025727Y26682014D01*
X6009341Y26660659D01*
X5973021Y26632791D01*
X5937751Y26599850D01*
X5914164Y26587629D01*
X5895306Y26573158D01*
X5850104Y26554435D01*
X5804519Y26530814D01*
X5781563Y26526044D01*
X5762506Y26518150D01*
X5710845Y26511349D01*
X5657602Y26500285D01*
X5637335Y26501672D01*
X5620000Y26499389D01*
X5565168Y26506608D01*
X5507896Y26510525D01*
X5491706Y26516279D01*
X5477492Y26518150D01*
X5423419Y26540548D01*
X5366504Y26560775D01*
X5355026Y26568877D01*
X5344693Y26573157D01*
X5295647Y26610791D01*
X5243913Y26647309D01*
X5237029Y26655770D01*
X5230658Y26660659D01*
X5190930Y26712434D01*
X5149215Y26763709D01*
X5146121Y26770830D01*
X5143157Y26774694D01*
X5116697Y26838572D01*
X5089433Y26901342D01*
X5088805Y26905910D01*
X5088149Y26907494D01*
X5078199Y26983073D01*
X5069000Y27050000D01*
X5069000Y27850000D01*
X5074132Y27925028D01*
X5083815Y27959588D01*
X5088149Y27992507D01*
X5103261Y28028993D01*
X5114617Y28069519D01*
X5131652Y28097533D01*
X5143157Y28125307D01*
X5169112Y28159134D01*
X5192583Y28197729D01*
X5214266Y28217981D01*
X5230658Y28239342D01*
X5266988Y28267220D01*
X5302249Y28300150D01*
X5325828Y28312369D01*
X5344693Y28326843D01*
X5389908Y28345573D01*
X5435481Y28369186D01*
X5458429Y28373955D01*
X5477493Y28381851D01*
X5529168Y28388655D01*
X5582398Y28399715D01*
X5602659Y28398330D01*
X5620000Y28400612D01*
X5674846Y28393392D01*
G37*
G36*
X-5565154Y32593392D02*
G01*
X-5507896Y32589475D01*
X-5491711Y32583723D01*
X-5477493Y32581851D01*
X-5423410Y32559449D01*
X-5366504Y32539225D01*
X-5355029Y32531125D01*
X-5344694Y32526844D01*
X-5295644Y32489207D01*
X-5243913Y32452691D01*
X-5237031Y32444231D01*
X-5230659Y32439342D01*
X-5190935Y32387572D01*
X-5149215Y32336291D01*
X-5146122Y32329170D01*
X-5143158Y32325307D01*
X-5116711Y32261458D01*
X-5089433Y32198658D01*
X-5088805Y32194088D01*
X-5088150Y32192507D01*
X-5078208Y32116989D01*
X-5069000Y32050000D01*
X-5069000Y30850000D01*
X-5074132Y30774972D01*
X-5083817Y30740407D01*
X-5088150Y30707494D01*
X-5103259Y30671019D01*
X-5114617Y30630481D01*
X-5131657Y30602461D01*
X-5143158Y30574694D01*
X-5169106Y30540878D01*
X-5192583Y30502271D01*
X-5214273Y30482014D01*
X-5230659Y30460659D01*
X-5266979Y30432791D01*
X-5302249Y30399850D01*
X-5325836Y30387629D01*
X-5344694Y30373158D01*
X-5389896Y30354435D01*
X-5435481Y30330814D01*
X-5458437Y30326044D01*
X-5477494Y30318150D01*
X-5529155Y30311349D01*
X-5582398Y30300285D01*
X-5602665Y30301672D01*
X-5620000Y30299389D01*
X-5674832Y30306608D01*
X-5732104Y30310525D01*
X-5748294Y30316279D01*
X-5762508Y30318150D01*
X-5816581Y30340548D01*
X-5873496Y30360775D01*
X-5884974Y30368877D01*
X-5895307Y30373157D01*
X-5944353Y30410791D01*
X-5996087Y30447309D01*
X-6002971Y30455770D01*
X-6009342Y30460659D01*
X-6049070Y30512434D01*
X-6090785Y30563709D01*
X-6093879Y30570830D01*
X-6096843Y30574694D01*
X-6123303Y30638572D01*
X-6150567Y30701342D01*
X-6151195Y30705910D01*
X-6151851Y30707494D01*
X-6161801Y30783073D01*
X-6171000Y30850000D01*
X-6171000Y32050000D01*
X-6165868Y32125028D01*
X-6156185Y32159588D01*
X-6151851Y32192507D01*
X-6136739Y32228993D01*
X-6125383Y32269519D01*
X-6108348Y32297533D01*
X-6096843Y32325307D01*
X-6070888Y32359134D01*
X-6047417Y32397729D01*
X-6025734Y32417981D01*
X-6009342Y32439342D01*
X-5973012Y32467220D01*
X-5937751Y32500150D01*
X-5914172Y32512369D01*
X-5895307Y32526843D01*
X-5850092Y32545573D01*
X-5804519Y32569186D01*
X-5781571Y32573955D01*
X-5762507Y32581851D01*
X-5710832Y32588655D01*
X-5657602Y32599715D01*
X-5637341Y32598330D01*
X-5620000Y32600612D01*
X-5565154Y32593392D01*
G37*
G36*
X5674846Y32593392D02*
G01*
X5732104Y32589475D01*
X5748289Y32583723D01*
X5762507Y32581851D01*
X5816590Y32559449D01*
X5873496Y32539225D01*
X5884971Y32531125D01*
X5895306Y32526844D01*
X5944356Y32489207D01*
X5996087Y32452691D01*
X6002969Y32444231D01*
X6009341Y32439342D01*
X6049065Y32387572D01*
X6090785Y32336291D01*
X6093878Y32329170D01*
X6096842Y32325307D01*
X6123289Y32261458D01*
X6150567Y32198658D01*
X6151195Y32194088D01*
X6151850Y32192507D01*
X6161792Y32116989D01*
X6171000Y32050000D01*
X6171000Y30850000D01*
X6165868Y30774972D01*
X6156183Y30740407D01*
X6151850Y30707494D01*
X6136741Y30671019D01*
X6125383Y30630481D01*
X6108343Y30602461D01*
X6096842Y30574694D01*
X6070894Y30540878D01*
X6047417Y30502271D01*
X6025727Y30482014D01*
X6009341Y30460659D01*
X5973021Y30432791D01*
X5937751Y30399850D01*
X5914164Y30387629D01*
X5895306Y30373158D01*
X5850104Y30354435D01*
X5804519Y30330814D01*
X5781563Y30326044D01*
X5762506Y30318150D01*
X5710845Y30311349D01*
X5657602Y30300285D01*
X5637335Y30301672D01*
X5620000Y30299389D01*
X5565168Y30306608D01*
X5507896Y30310525D01*
X5491706Y30316279D01*
X5477492Y30318150D01*
X5423419Y30340548D01*
X5366504Y30360775D01*
X5355026Y30368877D01*
X5344693Y30373157D01*
X5295647Y30410791D01*
X5243913Y30447309D01*
X5237029Y30455770D01*
X5230658Y30460659D01*
X5190930Y30512434D01*
X5149215Y30563709D01*
X5146121Y30570830D01*
X5143157Y30574694D01*
X5116697Y30638572D01*
X5089433Y30701342D01*
X5088805Y30705910D01*
X5088149Y30707494D01*
X5078199Y30783073D01*
X5069000Y30850000D01*
X5069000Y32050000D01*
X5074132Y32125028D01*
X5083815Y32159588D01*
X5088149Y32192507D01*
X5103261Y32228993D01*
X5114617Y32269519D01*
X5131652Y32297533D01*
X5143157Y32325307D01*
X5169112Y32359134D01*
X5192583Y32397729D01*
X5214266Y32417981D01*
X5230658Y32439342D01*
X5266988Y32467220D01*
X5302249Y32500150D01*
X5325828Y32512369D01*
X5344693Y32526843D01*
X5389908Y32545573D01*
X5435481Y32569186D01*
X5458429Y32573955D01*
X5477493Y32581851D01*
X5529168Y32588655D01*
X5582398Y32599715D01*
X5602659Y32598330D01*
X5620000Y32600612D01*
X5674846Y32593392D01*
G37*
M02*
