%TF.GenerationSoftware,KiCad,Pcbnew,7.0.5*%
%TF.CreationDate,2023-07-12T06:44:21-05:00*%
%TF.ProjectId,plate,706c6174-652e-46b6-9963-61645f706362,REV1*%
%TF.SameCoordinates,Original*%
%TF.FileFunction,Copper,L1,Top*%
%TF.FilePolarity,Positive*%
%FSLAX46Y46*%
G04 Gerber Fmt 4.6, Leading zero omitted, Abs format (unit mm)*
G04 Created by KiCad (PCBNEW 7.0.5) date 2023-07-12 06:44:21*
%MOMM*%
%LPD*%
G01*
G04 APERTURE LIST*
G04 APERTURE END LIST*
%TA.AperFunction,Conductor*%
%TO.N,GND*%
G36*
X582500Y33694452D02*
G01*
X1743512Y33654354D01*
X1745179Y33654267D01*
X2904088Y33574121D01*
X2905714Y33573981D01*
X3573560Y33504565D01*
X4061176Y33453881D01*
X4062872Y33453675D01*
X4695043Y33365818D01*
X5213475Y33293768D01*
X5215101Y33293514D01*
X6359531Y33093983D01*
X6361199Y33093662D01*
X7498021Y32854756D01*
X7499644Y32854386D01*
X8627592Y32576372D01*
X8629201Y32575945D01*
X9123077Y32435968D01*
X9173905Y32401911D01*
X9195009Y32344480D01*
X9181709Y32291035D01*
X7040000Y28600001D01*
X7040000Y28600000D01*
X15332206Y28582010D01*
X15332205Y28582011D01*
X15321870Y28600001D01*
X14353872Y30285055D01*
X14341281Y30344931D01*
X14366289Y30400772D01*
X14419343Y30431250D01*
X14480179Y30424722D01*
X14482649Y30423575D01*
X15142795Y30105665D01*
X15144301Y30104908D01*
X16172893Y29565061D01*
X16174392Y29564241D01*
X17183734Y28989215D01*
X17185204Y28988344D01*
X17844443Y28582010D01*
X18174083Y28378831D01*
X18175522Y28377909D01*
X18654209Y28059553D01*
X19142804Y27734606D01*
X19144167Y27733666D01*
X19575549Y27424777D01*
X20088683Y27057349D01*
X20090055Y27056330D01*
X20168371Y26996057D01*
X21010638Y26347835D01*
X21011893Y26346836D01*
X21825146Y25675000D01*
X21907508Y25606960D01*
X21908807Y25605849D01*
X22778332Y24835517D01*
X22779581Y24834371D01*
X22937676Y24684258D01*
X23621972Y24034511D01*
X23623191Y24033313D01*
X24437492Y23204834D01*
X24438635Y23203631D01*
X25223867Y22347525D01*
X25224981Y22346267D01*
X25980192Y21463572D01*
X25981255Y21462287D01*
X26705527Y20554078D01*
X26706569Y20552724D01*
X27399086Y19620025D01*
X27400061Y19618664D01*
X27561633Y19384587D01*
X27926007Y18856699D01*
X27943503Y18798069D01*
X27930161Y18750775D01*
X26481319Y16253832D01*
X26481319Y16253831D01*
X29460140Y16247369D01*
X29518289Y16228335D01*
X29546778Y16195883D01*
X29839016Y15661685D01*
X29839810Y15660172D01*
X30361813Y14622434D01*
X30362555Y14620895D01*
X30848432Y13565746D01*
X30849120Y13564182D01*
X31298288Y12492896D01*
X31298922Y12491309D01*
X31710852Y11405137D01*
X31711430Y11403529D01*
X32085612Y10303823D01*
X32086135Y10302196D01*
X32422142Y9190211D01*
X32422608Y9188567D01*
X32720034Y8065650D01*
X32720443Y8063991D01*
X32978932Y6931470D01*
X32979283Y6929798D01*
X33198529Y5789033D01*
X33198823Y5787349D01*
X33378565Y4639688D01*
X33378800Y4637995D01*
X33518816Y3484856D01*
X33518993Y3483156D01*
X33619130Y2325796D01*
X33619248Y2324091D01*
X33673362Y1280047D01*
X33679376Y1164033D01*
X33679434Y1162342D01*
X33686008Y781535D01*
X33699485Y854D01*
X33699485Y-852D01*
X33685758Y-796067D01*
X33679435Y-1162324D01*
X33679376Y-1164013D01*
X33665299Y-1435620D01*
X33619248Y-2324090D01*
X33619130Y-2325795D01*
X33518993Y-3483155D01*
X33518816Y-3484855D01*
X33378800Y-4637994D01*
X33378565Y-4639687D01*
X33198823Y-5787348D01*
X33198529Y-5789032D01*
X32979283Y-6929797D01*
X32978932Y-6931469D01*
X32720443Y-8063990D01*
X32720034Y-8065649D01*
X32422608Y-9188566D01*
X32422142Y-9190210D01*
X32086135Y-10302195D01*
X32085612Y-10303822D01*
X31711430Y-11403528D01*
X31710852Y-11405136D01*
X31298922Y-12491308D01*
X31298288Y-12492895D01*
X30849120Y-13564181D01*
X30848432Y-13565745D01*
X30362555Y-14620894D01*
X30361813Y-14622433D01*
X29839810Y-15660171D01*
X29839016Y-15661684D01*
X29281493Y-16680810D01*
X29280647Y-16682295D01*
X28688304Y-17681530D01*
X28687407Y-17682985D01*
X28060890Y-18661235D01*
X28059944Y-18662658D01*
X27400081Y-19618635D01*
X27399086Y-19620024D01*
X26706569Y-20552723D01*
X26705527Y-20554077D01*
X25981281Y-21462254D01*
X25980192Y-21463571D01*
X25224981Y-22346266D01*
X25223848Y-22347545D01*
X24438669Y-23203594D01*
X24437492Y-23204833D01*
X23623191Y-24033312D01*
X23621972Y-24034510D01*
X22779591Y-24834361D01*
X22778332Y-24835516D01*
X21908807Y-25605848D01*
X21907508Y-25606959D01*
X21605439Y-25856502D01*
X21011927Y-26346807D01*
X21010620Y-26347849D01*
X20090055Y-27056329D01*
X20088683Y-27057348D01*
X19144193Y-27733647D01*
X19142786Y-27734618D01*
X18175522Y-28377908D01*
X18174083Y-28378830D01*
X17185204Y-28988343D01*
X17183734Y-28989214D01*
X16174392Y-29564240D01*
X16172893Y-29565060D01*
X15144309Y-30104903D01*
X15142782Y-30105671D01*
X14096178Y-30609689D01*
X14094625Y-30610403D01*
X13031269Y-31077987D01*
X13029693Y-31078648D01*
X11950808Y-31509260D01*
X11949210Y-31509866D01*
X10889593Y-31890939D01*
X10828437Y-31892840D01*
X10777844Y-31858431D01*
X10770252Y-31847103D01*
X8650883Y-28157788D01*
X8650882Y-28157788D01*
X5745357Y-33165184D01*
X5699799Y-33206026D01*
X5676732Y-33213027D01*
X5215150Y-33293505D01*
X5213461Y-33293769D01*
X4062872Y-33453674D01*
X4061176Y-33453880D01*
X2905742Y-33573977D01*
X2904040Y-33574124D01*
X1745187Y-33654265D01*
X1743480Y-33654354D01*
X1206559Y-33672898D01*
X582500Y-33694451D01*
X580820Y-33694480D01*
X-580820Y-33694480D01*
X-582501Y-33694451D01*
X-1230885Y-33672058D01*
X-1743481Y-33654354D01*
X-1745188Y-33654265D01*
X-2904041Y-33574124D01*
X-2905743Y-33573977D01*
X-4061177Y-33453880D01*
X-4062873Y-33453674D01*
X-5213462Y-33293769D01*
X-5215150Y-33293505D01*
X-6359522Y-33093984D01*
X-6361200Y-33093661D01*
X-7498022Y-32854755D01*
X-7499688Y-32854375D01*
X-8627557Y-32576380D01*
X-8629209Y-32575942D01*
X-9746820Y-32259181D01*
X-9748456Y-32258687D01*
X-10763340Y-31932801D01*
X-10812964Y-31897008D01*
X-10818909Y-31887867D01*
X-12483044Y-28991005D01*
X-6426103Y-28991005D01*
X-4223960Y-28995782D01*
X-4165811Y-29014816D01*
X-4129954Y-29064394D01*
X-4130087Y-29125579D01*
X-4138546Y-29144468D01*
X-4766103Y-30226004D01*
X-4766103Y-30226005D01*
X-620000Y-30235000D01*
X-1960790Y-27901005D01*
X11933897Y-27901005D01*
X16080000Y-27910000D01*
X14014738Y-24314872D01*
X14014737Y-24314872D01*
X11933897Y-27901004D01*
X11933897Y-27901005D01*
X-1960790Y-27901005D01*
X-2685262Y-26639872D01*
X-2685263Y-26639872D01*
X-3076856Y-27314744D01*
X-3122415Y-27355586D01*
X-3183278Y-27361850D01*
X-3236200Y-27331142D01*
X-3248326Y-27314376D01*
X-4345262Y-25404872D01*
X-4345263Y-25404872D01*
X-6426103Y-28991004D01*
X-6426103Y-28991005D01*
X-12483044Y-28991005D01*
X-12880000Y-28300000D01*
X-12880001Y-28300000D01*
X-14147104Y-30483731D01*
X-14192662Y-30524573D01*
X-14253526Y-30530837D01*
X-14275687Y-30523241D01*
X-15142783Y-30105671D01*
X-15144310Y-30104903D01*
X-16172894Y-29565060D01*
X-16174393Y-29564240D01*
X-17183735Y-28989214D01*
X-17185205Y-28988343D01*
X-18174084Y-28378830D01*
X-18175523Y-28377908D01*
X-19142787Y-27734618D01*
X-19144180Y-27733656D01*
X-19672178Y-27355586D01*
X-20088684Y-27057348D01*
X-20090056Y-27056329D01*
X-21010621Y-26347849D01*
X-21011901Y-26346830D01*
X-21907516Y-25606953D01*
X-21908808Y-25605848D01*
X-22778333Y-24835516D01*
X-22779592Y-24834361D01*
X-23621973Y-24034510D01*
X-23623192Y-24033312D01*
X-24155426Y-23491811D01*
X-18991490Y-23491811D01*
X-10699284Y-23509801D01*
X-11017345Y-22956133D01*
X16379159Y-22956133D01*
X20525262Y-22965128D01*
X18460000Y-19370000D01*
X18459999Y-19370000D01*
X16379159Y-22956132D01*
X16379159Y-22956133D01*
X-11017345Y-22956133D01*
X-11650866Y-21853326D01*
X-9295419Y-21853326D01*
X-5149316Y-21862321D01*
X-5296486Y-21606133D01*
X3019159Y-21606133D01*
X7165262Y-21615128D01*
X5907769Y-19426133D01*
X7389159Y-19426133D01*
X10544577Y-19432978D01*
X10602726Y-19452012D01*
X10637997Y-19499831D01*
X10667118Y-19584656D01*
X10667119Y-19584659D01*
X10667120Y-19584660D01*
X10685896Y-19619355D01*
X10781528Y-19796067D01*
X10929175Y-19985764D01*
X11106031Y-20148571D01*
X11106033Y-20148572D01*
X11106035Y-20148574D01*
X11166632Y-20188164D01*
X11307272Y-20280049D01*
X11527409Y-20376610D01*
X11760437Y-20435620D01*
X11940010Y-20450500D01*
X12059982Y-20450500D01*
X12059990Y-20450500D01*
X12239563Y-20435620D01*
X12472591Y-20376610D01*
X12692728Y-20280049D01*
X12893969Y-20148571D01*
X13070825Y-19985764D01*
X13218472Y-19796067D01*
X13332882Y-19584656D01*
X13410934Y-19357297D01*
X13450500Y-19120192D01*
X13450500Y-18879808D01*
X13410934Y-18642703D01*
X13332882Y-18415344D01*
X13218472Y-18203933D01*
X13070825Y-18014236D01*
X12893969Y-17851429D01*
X12893966Y-17851427D01*
X12893964Y-17851425D01*
X12693909Y-17720722D01*
X15232986Y-17720722D01*
X23525192Y-17738712D01*
X20935508Y-13230691D01*
X25232688Y-13230691D01*
X29511236Y-13239973D01*
X27380000Y-9530000D01*
X27379999Y-9530000D01*
X25232688Y-13230690D01*
X25232688Y-13230691D01*
X20935508Y-13230691D01*
X19394668Y-10548458D01*
X19394667Y-10548458D01*
X15232986Y-17720721D01*
X15232986Y-17720722D01*
X12693909Y-17720722D01*
X12692732Y-17719953D01*
X12692727Y-17719950D01*
X12589157Y-17674520D01*
X12472591Y-17623390D01*
X12472587Y-17623389D01*
X12472585Y-17623388D01*
X12239561Y-17564379D01*
X12059999Y-17549500D01*
X12059990Y-17549500D01*
X11940010Y-17549500D01*
X11940000Y-17549500D01*
X11760438Y-17564379D01*
X11760437Y-17564379D01*
X11527414Y-17623388D01*
X11307272Y-17719950D01*
X11307267Y-17719953D01*
X11106035Y-17851425D01*
X10929171Y-18014239D01*
X10929170Y-18014240D01*
X10898798Y-18053262D01*
X10848135Y-18087569D01*
X10786984Y-18085545D01*
X10738700Y-18047964D01*
X10734830Y-18041768D01*
X10432160Y-17514892D01*
X9470000Y-15840000D01*
X9469999Y-15840000D01*
X7389159Y-19426132D01*
X7389159Y-19426133D01*
X5907769Y-19426133D01*
X5100000Y-18020000D01*
X5099999Y-18020000D01*
X3019159Y-21606132D01*
X3019159Y-21606133D01*
X-5296486Y-21606133D01*
X-6722183Y-19124335D01*
X-1500500Y-19124335D01*
X-1459572Y-19369611D01*
X-1378827Y-19604813D01*
X-1370957Y-19619355D01*
X-1260474Y-19823509D01*
X-1107738Y-20019744D01*
X-924785Y-20188164D01*
X-716607Y-20324173D01*
X-488881Y-20424063D01*
X-247821Y-20485108D01*
X-62067Y-20500500D01*
X62059Y-20500500D01*
X62067Y-20500500D01*
X247821Y-20485108D01*
X488881Y-20424063D01*
X716607Y-20324173D01*
X924785Y-20188164D01*
X1107738Y-20019744D01*
X1260474Y-19823509D01*
X1378828Y-19604810D01*
X1459571Y-19369614D01*
X1500500Y-19124335D01*
X1500500Y-18875665D01*
X1459571Y-18630386D01*
X1378828Y-18395190D01*
X1260474Y-18176491D01*
X1107738Y-17980256D01*
X924785Y-17811836D01*
X716607Y-17675827D01*
X488881Y-17575937D01*
X366788Y-17545018D01*
X247819Y-17514891D01*
X62076Y-17499500D01*
X62067Y-17499500D01*
X-62067Y-17499500D01*
X-62077Y-17499500D01*
X-247820Y-17514891D01*
X-427835Y-17560477D01*
X-488881Y-17575937D01*
X-716607Y-17675827D01*
X-785324Y-17720722D01*
X-924784Y-17811835D01*
X-1107741Y-17980259D01*
X-1260472Y-18176487D01*
X-1260474Y-18176490D01*
X-1378827Y-18395186D01*
X-1459572Y-18630388D01*
X-1500500Y-18875664D01*
X-1500500Y-19124335D01*
X-6722183Y-19124335D01*
X-7214578Y-18267193D01*
X-7214579Y-18267193D01*
X-9295419Y-21853325D01*
X-9295419Y-21853326D01*
X-11650866Y-21853326D01*
X-12387291Y-20571387D01*
X-12399881Y-20511512D01*
X-12374873Y-20455671D01*
X-12321819Y-20425193D01*
X-12277142Y-20426104D01*
X-12239571Y-20435618D01*
X-12239563Y-20435620D01*
X-12059990Y-20450500D01*
X-11940018Y-20450500D01*
X-11940010Y-20450500D01*
X-11760437Y-20435620D01*
X-11527409Y-20376610D01*
X-11307272Y-20280049D01*
X-11106031Y-20148571D01*
X-10929175Y-19985764D01*
X-10781528Y-19796067D01*
X-10667118Y-19584656D01*
X-10589066Y-19357297D01*
X-10549500Y-19120192D01*
X-10549500Y-18879808D01*
X-10550192Y-18875664D01*
X-10570088Y-18756431D01*
X-10589066Y-18642703D01*
X-10667118Y-18415344D01*
X-10781528Y-18203933D01*
X-10929175Y-18014236D01*
X-11106031Y-17851429D01*
X-11106034Y-17851427D01*
X-11106036Y-17851425D01*
X-11307268Y-17719953D01*
X-11307273Y-17719950D01*
X-11410843Y-17674520D01*
X-11527409Y-17623390D01*
X-11527413Y-17623389D01*
X-11527415Y-17623388D01*
X-11760439Y-17564379D01*
X-11940001Y-17549500D01*
X-11940010Y-17549500D01*
X-12059990Y-17549500D01*
X-12060000Y-17549500D01*
X-12239562Y-17564379D01*
X-12239563Y-17564379D01*
X-12472586Y-17623388D01*
X-12692728Y-17719950D01*
X-12692733Y-17719953D01*
X-12893965Y-17851425D01*
X-13070828Y-18014239D01*
X-13218470Y-18203929D01*
X-13218472Y-18203932D01*
X-13332880Y-18415339D01*
X-13371646Y-18528260D01*
X-13408424Y-18577158D01*
X-13466919Y-18595100D01*
X-13524789Y-18575233D01*
X-13551124Y-18545430D01*
X-14829808Y-16319547D01*
X-14829809Y-16319547D01*
X-18991490Y-23491810D01*
X-18991490Y-23491811D01*
X-24155426Y-23491811D01*
X-24437493Y-23204833D01*
X-24438635Y-23203631D01*
X-25223871Y-22347520D01*
X-25224982Y-22346266D01*
X-25980193Y-21463571D01*
X-25981251Y-21462292D01*
X-26705542Y-20554060D01*
X-26706570Y-20552723D01*
X-26756012Y-20486133D01*
X-23630841Y-20486133D01*
X-19484738Y-20495128D01*
X-21550000Y-16900000D01*
X-21550001Y-16900000D01*
X-23630841Y-20486132D01*
X-23630841Y-20486133D01*
X-26756012Y-20486133D01*
X-27399087Y-19620024D01*
X-27400055Y-19618674D01*
X-28059963Y-18662631D01*
X-28060891Y-18661235D01*
X-28687408Y-17682985D01*
X-28688280Y-17681571D01*
X-29280654Y-16682285D01*
X-29281494Y-16680810D01*
X-29773191Y-15782010D01*
X-9292206Y-15782010D01*
X-1000000Y-15800000D01*
X-5130524Y-8609746D01*
X-5130525Y-8609746D01*
X-9292206Y-15782009D01*
X-9292206Y-15782010D01*
X-29773191Y-15782010D01*
X-29839017Y-15661684D01*
X-29839811Y-15660171D01*
X-30176414Y-14991005D01*
X-25946103Y-14991005D01*
X-21800000Y-15000000D01*
X-22913878Y-13061005D01*
X-18086103Y-13061005D01*
X-13940000Y-13070000D01*
X-14743669Y-11671005D01*
X-13116103Y-11671005D01*
X-8970000Y-11680000D01*
X-11035262Y-8084872D01*
X-11035263Y-8084872D01*
X-13116103Y-11671004D01*
X-13116103Y-11671005D01*
X-14743669Y-11671005D01*
X-16005262Y-9474872D01*
X-16005263Y-9474872D01*
X-18086103Y-13061004D01*
X-18086103Y-13061005D01*
X-22913878Y-13061005D01*
X-23865262Y-11404872D01*
X-23865263Y-11404872D01*
X-25946103Y-14991004D01*
X-25946103Y-14991005D01*
X-30176414Y-14991005D01*
X-30176415Y-14991004D01*
X-30361822Y-14622417D01*
X-30362535Y-14620938D01*
X-30637212Y-14024442D01*
X-30848433Y-13565745D01*
X-30849121Y-13564181D01*
X-31298289Y-12492895D01*
X-31298923Y-12491308D01*
X-31610023Y-11671004D01*
X-31710860Y-11405119D01*
X-31711420Y-11403560D01*
X-31943734Y-10720800D01*
X-31944578Y-10659621D01*
X-31909301Y-10609629D01*
X-31851377Y-10589920D01*
X-31849879Y-10589911D01*
X-27200000Y-10600000D01*
X-29284265Y-6971794D01*
X-26354401Y-6971794D01*
X-26350711Y-7011615D01*
X-26350500Y-7016184D01*
X-26350500Y-7027845D01*
X-26348359Y-7039305D01*
X-26347728Y-7043831D01*
X-26344036Y-7083656D01*
X-26344035Y-7083661D01*
X-26343833Y-7084066D01*
X-26335145Y-7109987D01*
X-26335063Y-7110428D01*
X-26335060Y-7110436D01*
X-26314010Y-7144433D01*
X-26311787Y-7148424D01*
X-26293958Y-7184228D01*
X-26293631Y-7184526D01*
X-26276158Y-7205567D01*
X-26275921Y-7205950D01*
X-26275919Y-7205952D01*
X-26244005Y-7230052D01*
X-26240491Y-7232970D01*
X-26210933Y-7259916D01*
X-26210517Y-7260077D01*
X-26186623Y-7273385D01*
X-26186264Y-7273656D01*
X-26147800Y-7284599D01*
X-26143482Y-7286046D01*
X-26106173Y-7300500D01*
X-26105727Y-7300500D01*
X-26078636Y-7304279D01*
X-26078207Y-7304401D01*
X-26038386Y-7300711D01*
X-26033816Y-7300500D01*
X-12105727Y-7300500D01*
X-12078636Y-7304279D01*
X-12078207Y-7304401D01*
X-12038386Y-7300711D01*
X-12033816Y-7300500D01*
X-12022156Y-7300500D01*
X-12010685Y-7298355D01*
X-12006181Y-7297726D01*
X-11966340Y-7294035D01*
X-11965946Y-7293838D01*
X-11940000Y-7285141D01*
X-11939567Y-7285061D01*
X-11905566Y-7264008D01*
X-11901590Y-7261792D01*
X-11865772Y-7243958D01*
X-11865481Y-7243638D01*
X-11844424Y-7226151D01*
X-11844048Y-7225919D01*
X-11819951Y-7194007D01*
X-11817027Y-7190487D01*
X-11803545Y-7175698D01*
X-11790084Y-7160933D01*
X-11789924Y-7160521D01*
X-11776605Y-7136609D01*
X-11776344Y-7136264D01*
X-11765395Y-7097778D01*
X-11763957Y-7093487D01*
X-11749500Y-7056173D01*
X-11749500Y-7055726D01*
X-11745721Y-7028635D01*
X-11745599Y-7028207D01*
X-11749289Y-6988384D01*
X-11749500Y-6983815D01*
X-11749500Y-6971794D01*
X-7304401Y-6971794D01*
X-7300711Y-7011615D01*
X-7300500Y-7016184D01*
X-7300500Y-7027845D01*
X-7298359Y-7039305D01*
X-7297728Y-7043831D01*
X-7294036Y-7083656D01*
X-7294035Y-7083661D01*
X-7293833Y-7084066D01*
X-7285145Y-7109987D01*
X-7285063Y-7110428D01*
X-7285060Y-7110436D01*
X-7264010Y-7144433D01*
X-7261787Y-7148424D01*
X-7243958Y-7184228D01*
X-7243631Y-7184526D01*
X-7226158Y-7205567D01*
X-7225921Y-7205950D01*
X-7225919Y-7205952D01*
X-7194005Y-7230052D01*
X-7190491Y-7232970D01*
X-7160933Y-7259916D01*
X-7160517Y-7260077D01*
X-7136623Y-7273385D01*
X-7136264Y-7273656D01*
X-7097800Y-7284599D01*
X-7093482Y-7286046D01*
X-7056173Y-7300500D01*
X-7055727Y-7300500D01*
X-7028636Y-7304279D01*
X-7028207Y-7304401D01*
X-6988386Y-7300711D01*
X-6983816Y-7300500D01*
X6614129Y-7300500D01*
X6672320Y-7319407D01*
X6708284Y-7368907D01*
X6708284Y-7430093D01*
X6699758Y-7449186D01*
X2851877Y-14080643D01*
X2851877Y-14080644D01*
X11144083Y-14098634D01*
X7233767Y-7291710D01*
X7221177Y-7231836D01*
X7246185Y-7175995D01*
X7246269Y-7175901D01*
X7259916Y-7160933D01*
X7260076Y-7160521D01*
X7273395Y-7136609D01*
X7273656Y-7136264D01*
X7284605Y-7097778D01*
X7286043Y-7093487D01*
X7300500Y-7056173D01*
X7300500Y-7055726D01*
X7304279Y-7028635D01*
X7304401Y-7028207D01*
X7300711Y-6988384D01*
X7300500Y-6983815D01*
X7300500Y-6971794D01*
X11745599Y-6971794D01*
X11749289Y-7011615D01*
X11749500Y-7016184D01*
X11749500Y-7027845D01*
X11751641Y-7039305D01*
X11752272Y-7043831D01*
X11755964Y-7083656D01*
X11755965Y-7083661D01*
X11756167Y-7084066D01*
X11764855Y-7109987D01*
X11764937Y-7110428D01*
X11764940Y-7110436D01*
X11785990Y-7144433D01*
X11788213Y-7148424D01*
X11806042Y-7184228D01*
X11806369Y-7184526D01*
X11823842Y-7205567D01*
X11824079Y-7205950D01*
X11824081Y-7205952D01*
X11855995Y-7230052D01*
X11859509Y-7232970D01*
X11889067Y-7259916D01*
X11889483Y-7260077D01*
X11913377Y-7273385D01*
X11913736Y-7273656D01*
X11952200Y-7284599D01*
X11956518Y-7286046D01*
X11993827Y-7300500D01*
X11994273Y-7300500D01*
X12021364Y-7304279D01*
X12021793Y-7304401D01*
X12061614Y-7300711D01*
X12066184Y-7300500D01*
X25994273Y-7300500D01*
X26021364Y-7304279D01*
X26021793Y-7304401D01*
X26061614Y-7300711D01*
X26066184Y-7300500D01*
X26077844Y-7300500D01*
X26089315Y-7298355D01*
X26093819Y-7297726D01*
X26133660Y-7294035D01*
X26134054Y-7293838D01*
X26160000Y-7285141D01*
X26160433Y-7285061D01*
X26194434Y-7264008D01*
X26198410Y-7261792D01*
X26234228Y-7243958D01*
X26234519Y-7243638D01*
X26255576Y-7226151D01*
X26255952Y-7225919D01*
X26280049Y-7194007D01*
X26282973Y-7190487D01*
X26296455Y-7175698D01*
X26309916Y-7160933D01*
X26310076Y-7160521D01*
X26323395Y-7136609D01*
X26323656Y-7136264D01*
X26334605Y-7097778D01*
X26336043Y-7093487D01*
X26350500Y-7056173D01*
X26350500Y-7055726D01*
X26354279Y-7028635D01*
X26354401Y-7028207D01*
X26350711Y-6988384D01*
X26350500Y-6983815D01*
X26350500Y-5431005D01*
X28483897Y-5431005D01*
X32630000Y-5440000D01*
X30564738Y-1844872D01*
X30564737Y-1844872D01*
X28483897Y-5431004D01*
X28483897Y-5431005D01*
X26350500Y-5431005D01*
X26350500Y-120192D01*
X26350500Y913867D01*
X27659159Y913867D01*
X28827978Y911332D01*
X28886126Y892298D01*
X28921983Y842720D01*
X28921850Y781535D01*
X28914830Y765213D01*
X28817119Y584660D01*
X28739065Y357294D01*
X28699500Y120193D01*
X28699500Y-120192D01*
X28739065Y-357293D01*
X28817119Y-584659D01*
X28931527Y-796067D01*
X28931528Y-796067D01*
X29079175Y-985764D01*
X29256031Y-1148571D01*
X29256033Y-1148572D01*
X29256035Y-1148574D01*
X29457267Y-1280046D01*
X29457272Y-1280049D01*
X29677409Y-1376610D01*
X29910437Y-1435620D01*
X30090010Y-1450500D01*
X30209982Y-1450500D01*
X30209990Y-1450500D01*
X30389563Y-1435620D01*
X30622591Y-1376610D01*
X30842728Y-1280049D01*
X31043969Y-1148571D01*
X31220825Y-985764D01*
X31368472Y-796067D01*
X31482882Y-584656D01*
X31560934Y-357297D01*
X31600500Y-120192D01*
X31600500Y120192D01*
X31560934Y357297D01*
X31482882Y584656D01*
X31388276Y759472D01*
X31377210Y819645D01*
X31403627Y874834D01*
X31457437Y903955D01*
X31475557Y905588D01*
X31805262Y904872D01*
X29740000Y4500000D01*
X29739999Y4500000D01*
X27659159Y913868D01*
X27659159Y913867D01*
X26350500Y913867D01*
X26350500Y6944282D01*
X26354281Y6971371D01*
X26354401Y6971793D01*
X26350711Y7011616D01*
X26350500Y7016185D01*
X26350500Y7027843D01*
X26350432Y7028207D01*
X26348354Y7039322D01*
X26347727Y7043815D01*
X26344035Y7083660D01*
X26343837Y7084057D01*
X26335140Y7110008D01*
X26335060Y7110436D01*
X26318843Y7136626D01*
X26314006Y7144438D01*
X26311785Y7148425D01*
X26293958Y7184229D01*
X26293956Y7184231D01*
X26293628Y7184530D01*
X26276154Y7205573D01*
X26275919Y7205952D01*
X26243994Y7230060D01*
X26240489Y7232972D01*
X26210932Y7259917D01*
X26210930Y7259918D01*
X26210509Y7260081D01*
X26186622Y7273386D01*
X26186266Y7273655D01*
X26186261Y7273657D01*
X26147800Y7284601D01*
X26143464Y7286054D01*
X26106175Y7300500D01*
X26106173Y7300500D01*
X26105727Y7300500D01*
X26078636Y7304279D01*
X26078207Y7304401D01*
X26038385Y7300711D01*
X26033816Y7300500D01*
X12105727Y7300500D01*
X12078636Y7304279D01*
X12078207Y7304401D01*
X12038385Y7300711D01*
X12033816Y7300500D01*
X12022156Y7300500D01*
X12010696Y7298359D01*
X12006170Y7297728D01*
X11966344Y7294036D01*
X11966334Y7294034D01*
X11965929Y7293831D01*
X11940012Y7285145D01*
X11939570Y7285063D01*
X11939568Y7285062D01*
X11905573Y7264014D01*
X11901580Y7261789D01*
X11865769Y7243957D01*
X11865465Y7243622D01*
X11844435Y7226160D01*
X11844053Y7225924D01*
X11844047Y7225919D01*
X11819944Y7194002D01*
X11817023Y7190484D01*
X11790085Y7160936D01*
X11790081Y7160930D01*
X11789918Y7160507D01*
X11776616Y7136626D01*
X11776348Y7136272D01*
X11776344Y7136264D01*
X11765398Y7097798D01*
X11763945Y7093464D01*
X11749500Y7056175D01*
X11749500Y7055728D01*
X11745722Y7028639D01*
X11745599Y7028210D01*
X11745599Y7028206D01*
X11749289Y6988385D01*
X11749500Y6983816D01*
X11749499Y-6944272D01*
X11745724Y-6971351D01*
X11745600Y-6971786D01*
X11745599Y-6971794D01*
X7300500Y-6971794D01*
X7300500Y6944274D01*
X7304279Y6971365D01*
X7304401Y6971793D01*
X7300711Y7011616D01*
X7300500Y7016185D01*
X7300500Y7027843D01*
X7300432Y7028207D01*
X7298354Y7039322D01*
X7297727Y7043815D01*
X7294035Y7083660D01*
X7293837Y7084057D01*
X7285140Y7110008D01*
X7285060Y7110436D01*
X7268843Y7136626D01*
X7264006Y7144438D01*
X7261785Y7148425D01*
X7243958Y7184229D01*
X7243956Y7184231D01*
X7243628Y7184530D01*
X7226154Y7205573D01*
X7225919Y7205952D01*
X7193994Y7230060D01*
X7190489Y7232972D01*
X7160932Y7259917D01*
X7160930Y7259918D01*
X7160509Y7260081D01*
X7136622Y7273386D01*
X7136266Y7273655D01*
X7136261Y7273657D01*
X7097800Y7284601D01*
X7093464Y7286054D01*
X7056175Y7300500D01*
X7056173Y7300500D01*
X7055727Y7300500D01*
X7028636Y7304279D01*
X7028207Y7304401D01*
X6988385Y7300711D01*
X6983816Y7300500D01*
X-6944273Y7300500D01*
X-6971364Y7304279D01*
X-6971793Y7304401D01*
X-7011615Y7300711D01*
X-7016184Y7300500D01*
X-7027844Y7300500D01*
X-7039304Y7298359D01*
X-7043830Y7297728D01*
X-7083656Y7294036D01*
X-7083666Y7294034D01*
X-7084071Y7293831D01*
X-7109988Y7285145D01*
X-7110430Y7285063D01*
X-7110432Y7285062D01*
X-7144427Y7264014D01*
X-7148420Y7261789D01*
X-7184231Y7243957D01*
X-7184535Y7243622D01*
X-7205565Y7226160D01*
X-7205947Y7225924D01*
X-7205953Y7225919D01*
X-7230056Y7194002D01*
X-7232977Y7190484D01*
X-7259915Y7160936D01*
X-7259919Y7160930D01*
X-7260082Y7160507D01*
X-7273384Y7136626D01*
X-7273652Y7136272D01*
X-7273656Y7136264D01*
X-7284602Y7097798D01*
X-7286055Y7093464D01*
X-7300500Y7056175D01*
X-7300500Y7055728D01*
X-7304278Y7028639D01*
X-7304401Y7028210D01*
X-7304401Y7028206D01*
X-7300711Y6988385D01*
X-7300500Y6983816D01*
X-7300500Y-6944272D01*
X-7304278Y-6971361D01*
X-7304401Y-6971790D01*
X-7304401Y-6971794D01*
X-11749500Y-6971794D01*
X-11749500Y6944274D01*
X-11745721Y6971365D01*
X-11745599Y6971793D01*
X-11749289Y7011616D01*
X-11749500Y7016185D01*
X-11749500Y7027843D01*
X-11749568Y7028207D01*
X-11751646Y7039322D01*
X-11752273Y7043815D01*
X-11755965Y7083660D01*
X-11756163Y7084057D01*
X-11764860Y7110008D01*
X-11764940Y7110436D01*
X-11781157Y7136626D01*
X-11785994Y7144438D01*
X-11788215Y7148425D01*
X-11806042Y7184229D01*
X-11806044Y7184231D01*
X-11806372Y7184530D01*
X-11823846Y7205573D01*
X-11824081Y7205952D01*
X-11856006Y7230060D01*
X-11859511Y7232972D01*
X-11889068Y7259917D01*
X-11889070Y7259918D01*
X-11889491Y7260081D01*
X-11913378Y7273386D01*
X-11913734Y7273655D01*
X-11913739Y7273657D01*
X-11952200Y7284601D01*
X-11956536Y7286054D01*
X-11993825Y7300500D01*
X-11993827Y7300500D01*
X-11994273Y7300500D01*
X-12021364Y7304279D01*
X-12021793Y7304401D01*
X-12061615Y7300711D01*
X-12066184Y7300500D01*
X-25994273Y7300500D01*
X-26021364Y7304279D01*
X-26021793Y7304401D01*
X-26061615Y7300711D01*
X-26066184Y7300500D01*
X-26077844Y7300500D01*
X-26089304Y7298359D01*
X-26093830Y7297728D01*
X-26133656Y7294036D01*
X-26133666Y7294034D01*
X-26134071Y7293831D01*
X-26159988Y7285145D01*
X-26160430Y7285063D01*
X-26160432Y7285062D01*
X-26194427Y7264014D01*
X-26198420Y7261789D01*
X-26234231Y7243957D01*
X-26234535Y7243622D01*
X-26255565Y7226160D01*
X-26255947Y7225924D01*
X-26255953Y7225919D01*
X-26280056Y7194002D01*
X-26282977Y7190484D01*
X-26309915Y7160936D01*
X-26309919Y7160930D01*
X-26310082Y7160507D01*
X-26323384Y7136626D01*
X-26323652Y7136272D01*
X-26323656Y7136264D01*
X-26334602Y7097798D01*
X-26336055Y7093464D01*
X-26350500Y7056175D01*
X-26350500Y7055728D01*
X-26354278Y7028639D01*
X-26354401Y7028210D01*
X-26354401Y7028206D01*
X-26350711Y6988385D01*
X-26350500Y6983816D01*
X-26350500Y-6944272D01*
X-26354278Y-6971361D01*
X-26354401Y-6971790D01*
X-26354401Y-6971794D01*
X-29284265Y-6971794D01*
X-31330524Y-3409746D01*
X-31330525Y-3409746D01*
X-32944372Y-6191058D01*
X-32989930Y-6231900D01*
X-33050794Y-6238164D01*
X-33103716Y-6207456D01*
X-33127222Y-6160057D01*
X-33198530Y-5789032D01*
X-33198820Y-5787375D01*
X-33378569Y-4639669D01*
X-33378801Y-4637994D01*
X-33515980Y-3508223D01*
X-33518820Y-3484832D01*
X-33518994Y-3483155D01*
X-33619131Y-2325795D01*
X-33619247Y-2324121D01*
X-33679380Y-1163955D01*
X-33679434Y-1162397D01*
X-33697425Y-120192D01*
X-31600500Y-120192D01*
X-31560935Y-357293D01*
X-31482881Y-584659D01*
X-31368472Y-796066D01*
X-31368472Y-796067D01*
X-31220825Y-985764D01*
X-31043969Y-1148571D01*
X-31043967Y-1148572D01*
X-31043965Y-1148574D01*
X-30842733Y-1280046D01*
X-30842728Y-1280049D01*
X-30622591Y-1376610D01*
X-30389563Y-1435620D01*
X-30209990Y-1450500D01*
X-30090018Y-1450500D01*
X-30090010Y-1450500D01*
X-29910437Y-1435620D01*
X-29677409Y-1376610D01*
X-29457272Y-1280049D01*
X-29256031Y-1148571D01*
X-29079175Y-985764D01*
X-28931528Y-796067D01*
X-28817118Y-584656D01*
X-28739066Y-357297D01*
X-28699500Y-120192D01*
X-28699500Y120192D01*
X-28739066Y357297D01*
X-28817118Y584656D01*
X-28931528Y796067D01*
X-29079175Y985764D01*
X-29256031Y1148571D01*
X-29256034Y1148573D01*
X-29256036Y1148575D01*
X-29457268Y1280047D01*
X-29457273Y1280050D01*
X-29560843Y1325480D01*
X-29677409Y1376610D01*
X-29677413Y1376611D01*
X-29677415Y1376612D01*
X-29910439Y1435621D01*
X-30090001Y1450500D01*
X-30090010Y1450500D01*
X-30209990Y1450500D01*
X-30210000Y1450500D01*
X-30389562Y1435621D01*
X-30389563Y1435621D01*
X-30622586Y1376612D01*
X-30842728Y1280050D01*
X-30842733Y1280047D01*
X-31043965Y1148575D01*
X-31220828Y985761D01*
X-31368470Y796071D01*
X-31368472Y796068D01*
X-31482881Y584660D01*
X-31560935Y357294D01*
X-31600500Y120193D01*
X-31600500Y-120192D01*
X-33697425Y-120192D01*
X-33699486Y-810D01*
X-33699486Y811D01*
X-33679434Y1162400D01*
X-33679380Y1163954D01*
X-33619247Y2324126D01*
X-33619131Y2325796D01*
X-33518994Y3483156D01*
X-33518821Y3484827D01*
X-33455798Y4003867D01*
X-31760841Y4003867D01*
X-27614738Y3994872D01*
X-29680000Y7590000D01*
X-29680001Y7590000D01*
X-31760841Y4003868D01*
X-31760841Y4003867D01*
X-33455798Y4003867D01*
X-33378797Y4638029D01*
X-33378566Y4639688D01*
X-33198818Y5787386D01*
X-33198530Y5789033D01*
X-32979284Y6929798D01*
X-32978933Y6931470D01*
X-32812881Y7658995D01*
X8850000Y7658995D01*
X12996103Y7650000D01*
X12220580Y9000000D01*
X16400000Y9000000D01*
X24692206Y8982010D01*
X20561682Y16172264D01*
X20561681Y16172264D01*
X16400000Y9000001D01*
X16400000Y9000000D01*
X12220580Y9000000D01*
X10930841Y11245128D01*
X10930840Y11245128D01*
X8850000Y7658996D01*
X8850000Y7658995D01*
X-32812881Y7658995D01*
X-32720428Y8064059D01*
X-32720054Y8065576D01*
X-32422609Y9188568D01*
X-32422143Y9190211D01*
X-32313426Y9550000D01*
X-32086119Y10302250D01*
X-32085624Y10303790D01*
X-32041321Y10433995D01*
X-16771103Y10433995D01*
X-14912417Y10429963D01*
X-14854268Y10410929D01*
X-14818411Y10361351D01*
X-14818544Y10300166D01*
X-14827003Y10281277D01*
X-15246103Y9558996D01*
X-15246103Y9558995D01*
X-11100000Y9550000D01*
X-12035071Y11177736D01*
X-1186682Y11177736D01*
X7105524Y11159746D01*
X4248083Y16133867D01*
X8439159Y16133867D01*
X12585262Y16124872D01*
X10520000Y19720000D01*
X10519999Y19720000D01*
X8439159Y16133868D01*
X8439159Y16133867D01*
X4248083Y16133867D01*
X2975000Y18350000D01*
X2974999Y18350000D01*
X-1186682Y11177737D01*
X-1186682Y11177736D01*
X-12035071Y11177736D01*
X-13165262Y13145128D01*
X-13165263Y13145128D01*
X-13592939Y12408070D01*
X-13638497Y12367228D01*
X-13699361Y12360964D01*
X-13752283Y12391672D01*
X-13764409Y12408438D01*
X-14690262Y14020128D01*
X-14690263Y14020128D01*
X-16771103Y10433996D01*
X-16771103Y10433995D01*
X-32041321Y10433995D01*
X-31711413Y11403580D01*
X-31710866Y11405102D01*
X-31298906Y12491353D01*
X-31298289Y12492896D01*
X-31259622Y12585117D01*
X-30849121Y13564182D01*
X-30848433Y13565746D01*
X-30669710Y13953867D01*
X-22000841Y13953867D01*
X-17854738Y13944872D01*
X-19920000Y17540000D01*
X-19920001Y17540000D01*
X-22000841Y13953868D01*
X-22000841Y13953867D01*
X-30669710Y13953867D01*
X-30639198Y14020128D01*
X-30362525Y14620961D01*
X-30361833Y14622395D01*
X-29839807Y15660181D01*
X-29839017Y15661685D01*
X-29580705Y16133867D01*
X-29281488Y16680823D01*
X-29280669Y16682261D01*
X-28688264Y17681598D01*
X-28687429Y17682953D01*
X-28302928Y18283317D01*
X-15729768Y18283317D01*
X-11583665Y18274322D01*
X-11714880Y18502736D01*
X-11161682Y18502736D01*
X-7497552Y18494787D01*
X-7439403Y18475753D01*
X-7403546Y18426175D01*
X-7403679Y18364990D01*
X-7412138Y18346101D01*
X-8336682Y16752737D01*
X-8336682Y16752736D01*
X-44476Y16734746D01*
X-1819015Y19823793D01*
X14422937Y19823793D01*
X17085898Y19818016D01*
X17144047Y19798982D01*
X17179904Y19749404D01*
X17179771Y19688219D01*
X17171312Y19669330D01*
X16178897Y17958996D01*
X16178897Y17958995D01*
X20325000Y17950000D01*
X19340013Y19664626D01*
X19327423Y19724501D01*
X19352431Y19780342D01*
X19405485Y19810820D01*
X19426072Y19812939D01*
X22715143Y19805803D01*
X18584619Y26996057D01*
X18584618Y26996057D01*
X14422937Y19823794D01*
X14422937Y19823793D01*
X-1819015Y19823793D01*
X-2229797Y20538867D01*
X5744159Y20538867D01*
X9890262Y20529872D01*
X7825000Y24125000D01*
X7824999Y24125000D01*
X5744159Y20538868D01*
X5744159Y20538867D01*
X-2229797Y20538867D01*
X-4175000Y23925000D01*
X-4175001Y23925000D01*
X-5003347Y22497425D01*
X-5048905Y22456583D01*
X-5109769Y22450319D01*
X-5162691Y22481027D01*
X-5174817Y22497793D01*
X-6258294Y24383867D01*
X119159Y24383867D01*
X4265262Y24374872D01*
X2200000Y27970000D01*
X2199999Y27970000D01*
X119159Y24383868D01*
X119159Y24383867D01*
X-6258294Y24383867D01*
X-7000000Y25675000D01*
X-7000001Y25675000D01*
X-11161682Y18502737D01*
X-11161682Y18502736D01*
X-11714880Y18502736D01*
X-13648927Y21869450D01*
X-13648928Y21869450D01*
X-15729768Y18283318D01*
X-15729768Y18283317D01*
X-28302928Y18283317D01*
X-28060890Y18661238D01*
X-28059981Y18662606D01*
X-27400036Y19618702D01*
X-27399087Y19620025D01*
X-27365972Y19664625D01*
X-27035834Y20109264D01*
X-26985966Y20144711D01*
X-26956138Y20149245D01*
X-20214214Y20134618D01*
X-22827809Y24684261D01*
X-22840399Y24744134D01*
X-22815391Y24799975D01*
X-22810145Y24805352D01*
X-22779551Y24834400D01*
X-22778364Y24835490D01*
X-21908786Y25605869D01*
X-21907551Y25606925D01*
X-21011867Y26346859D01*
X-21010669Y26347813D01*
X-20090047Y27056338D01*
X-20088684Y27057349D01*
X-20049682Y27085277D01*
X-19144142Y27733685D01*
X-19142833Y27734588D01*
X-18175515Y28377915D01*
X-18174118Y28378810D01*
X-17185182Y28988359D01*
X-17183735Y28989215D01*
X-16618406Y29311285D01*
X-16174368Y29564256D01*
X-16172924Y29565046D01*
X-15144279Y30104920D01*
X-15142820Y30105654D01*
X-14096113Y30609721D01*
X-14094657Y30610390D01*
X-13031214Y31078012D01*
X-13029738Y31078631D01*
X-11950754Y31509282D01*
X-11949249Y31509853D01*
X-10856076Y31902994D01*
X-10854491Y31903532D01*
X-10675160Y31961117D01*
X-10380550Y32055719D01*
X-10319366Y32055507D01*
X-10269990Y32019373D01*
X-10251284Y31961117D01*
X-10264654Y31911773D01*
X-11960000Y28990001D01*
X-11960000Y28990000D01*
X-7813897Y28981005D01*
X-8398349Y29998395D01*
X-8410939Y30058270D01*
X-8385931Y30114111D01*
X-8332877Y30144589D01*
X-8312290Y30146708D01*
X-5683897Y30141005D01*
X-7202447Y32784437D01*
X-7215037Y32844312D01*
X-7190029Y32900153D01*
X-7136975Y32930631D01*
X-6361200Y33093662D01*
X-6359543Y33093982D01*
X-5215094Y33293515D01*
X-5213485Y33293767D01*
X-4544172Y33386786D01*
X-4062873Y33453675D01*
X-4061177Y33453881D01*
X-3718674Y33489482D01*
X-2905710Y33573981D01*
X-2904094Y33574121D01*
X-1745177Y33654267D01*
X-1743516Y33654354D01*
X-582501Y33694452D01*
X-580820Y33694480D01*
X580820Y33694480D01*
X582500Y33694452D01*
G37*
%TD.AperFunction*%
%TA.AperFunction,Conductor*%
G36*
X-8553080Y32575264D02*
G01*
X-8506316Y32535809D01*
X-8491673Y32476402D01*
X-8504784Y32433887D01*
X-9068294Y31462731D01*
X-9113852Y31421889D01*
X-9174716Y31415625D01*
X-9227638Y31446333D01*
X-9239764Y31463099D01*
X-9640870Y32161329D01*
X-9653461Y32221205D01*
X-9628453Y32277046D01*
X-9582025Y32305890D01*
X-8629187Y32575949D01*
X-8627607Y32576368D01*
X-8614105Y32579696D01*
X-8553080Y32575264D01*
G37*
%TD.AperFunction*%
%TD*%
M02*
