%TF.GenerationSoftware,KiCad,Pcbnew,7.0.5*%
%TF.CreationDate,2023-07-12T06:44:21-05:00*%
%TF.ProjectId,plate,706c6174-652e-46b6-9963-61645f706362,REV1*%
%TF.SameCoordinates,Original*%
%TF.FileFunction,Other,Comment*%
%FSLAX46Y46*%
G04 Gerber Fmt 4.6, Leading zero omitted, Abs format (unit mm)*
G04 Created by KiCad (PCBNEW 7.0.5) date 2023-07-12 06:44:21*
%MOMM*%
%LPD*%
G01*
G04 APERTURE LIST*
%ADD10C,0.150000*%
%ADD11C,0.100000*%
G04 APERTURE END LIST*
D10*
X5905952Y4515181D02*
X5429762Y4515181D01*
X5429762Y4515181D02*
X5382143Y4038991D01*
X5382143Y4038991D02*
X5429762Y4086610D01*
X5429762Y4086610D02*
X5525000Y4134229D01*
X5525000Y4134229D02*
X5763095Y4134229D01*
X5763095Y4134229D02*
X5858333Y4086610D01*
X5858333Y4086610D02*
X5905952Y4038991D01*
X5905952Y4038991D02*
X5953571Y3943753D01*
X5953571Y3943753D02*
X5953571Y3705658D01*
X5953571Y3705658D02*
X5905952Y3610420D01*
X5905952Y3610420D02*
X5858333Y3562800D01*
X5858333Y3562800D02*
X5763095Y3515181D01*
X5763095Y3515181D02*
X5525000Y3515181D01*
X5525000Y3515181D02*
X5429762Y3562800D01*
X5429762Y3562800D02*
X5382143Y3610420D01*
X6382143Y3610420D02*
X6429762Y3562800D01*
X6429762Y3562800D02*
X6382143Y3515181D01*
X6382143Y3515181D02*
X6334524Y3562800D01*
X6334524Y3562800D02*
X6382143Y3610420D01*
X6382143Y3610420D02*
X6382143Y3515181D01*
X7048809Y4515181D02*
X7144047Y4515181D01*
X7144047Y4515181D02*
X7239285Y4467562D01*
X7239285Y4467562D02*
X7286904Y4419943D01*
X7286904Y4419943D02*
X7334523Y4324705D01*
X7334523Y4324705D02*
X7382142Y4134229D01*
X7382142Y4134229D02*
X7382142Y3896134D01*
X7382142Y3896134D02*
X7334523Y3705658D01*
X7334523Y3705658D02*
X7286904Y3610420D01*
X7286904Y3610420D02*
X7239285Y3562800D01*
X7239285Y3562800D02*
X7144047Y3515181D01*
X7144047Y3515181D02*
X7048809Y3515181D01*
X7048809Y3515181D02*
X6953571Y3562800D01*
X6953571Y3562800D02*
X6905952Y3610420D01*
X6905952Y3610420D02*
X6858333Y3705658D01*
X6858333Y3705658D02*
X6810714Y3896134D01*
X6810714Y3896134D02*
X6810714Y4134229D01*
X6810714Y4134229D02*
X6858333Y4324705D01*
X6858333Y4324705D02*
X6905952Y4419943D01*
X6905952Y4419943D02*
X6953571Y4467562D01*
X6953571Y4467562D02*
X7048809Y4515181D01*
X8286904Y4515181D02*
X7810714Y4515181D01*
X7810714Y4515181D02*
X7763095Y4038991D01*
X7763095Y4038991D02*
X7810714Y4086610D01*
X7810714Y4086610D02*
X7905952Y4134229D01*
X7905952Y4134229D02*
X8144047Y4134229D01*
X8144047Y4134229D02*
X8239285Y4086610D01*
X8239285Y4086610D02*
X8286904Y4038991D01*
X8286904Y4038991D02*
X8334523Y3943753D01*
X8334523Y3943753D02*
X8334523Y3705658D01*
X8334523Y3705658D02*
X8286904Y3610420D01*
X8286904Y3610420D02*
X8239285Y3562800D01*
X8239285Y3562800D02*
X8144047Y3515181D01*
X8144047Y3515181D02*
X7905952Y3515181D01*
X7905952Y3515181D02*
X7810714Y3562800D01*
X7810714Y3562800D02*
X7763095Y3610420D01*
X8953571Y4515181D02*
X9048809Y4515181D01*
X9048809Y4515181D02*
X9144047Y4467562D01*
X9144047Y4467562D02*
X9191666Y4419943D01*
X9191666Y4419943D02*
X9239285Y4324705D01*
X9239285Y4324705D02*
X9286904Y4134229D01*
X9286904Y4134229D02*
X9286904Y3896134D01*
X9286904Y3896134D02*
X9239285Y3705658D01*
X9239285Y3705658D02*
X9191666Y3610420D01*
X9191666Y3610420D02*
X9144047Y3562800D01*
X9144047Y3562800D02*
X9048809Y3515181D01*
X9048809Y3515181D02*
X8953571Y3515181D01*
X8953571Y3515181D02*
X8858333Y3562800D01*
X8858333Y3562800D02*
X8810714Y3610420D01*
X8810714Y3610420D02*
X8763095Y3705658D01*
X8763095Y3705658D02*
X8715476Y3896134D01*
X8715476Y3896134D02*
X8715476Y4134229D01*
X8715476Y4134229D02*
X8763095Y4324705D01*
X8763095Y4324705D02*
X8810714Y4419943D01*
X8810714Y4419943D02*
X8858333Y4467562D01*
X8858333Y4467562D02*
X8953571Y4515181D01*
X9905952Y4515181D02*
X10001190Y4515181D01*
X10001190Y4515181D02*
X10096428Y4467562D01*
X10096428Y4467562D02*
X10144047Y4419943D01*
X10144047Y4419943D02*
X10191666Y4324705D01*
X10191666Y4324705D02*
X10239285Y4134229D01*
X10239285Y4134229D02*
X10239285Y3896134D01*
X10239285Y3896134D02*
X10191666Y3705658D01*
X10191666Y3705658D02*
X10144047Y3610420D01*
X10144047Y3610420D02*
X10096428Y3562800D01*
X10096428Y3562800D02*
X10001190Y3515181D01*
X10001190Y3515181D02*
X9905952Y3515181D01*
X9905952Y3515181D02*
X9810714Y3562800D01*
X9810714Y3562800D02*
X9763095Y3610420D01*
X9763095Y3610420D02*
X9715476Y3705658D01*
X9715476Y3705658D02*
X9667857Y3896134D01*
X9667857Y3896134D02*
X9667857Y4134229D01*
X9667857Y4134229D02*
X9715476Y4324705D01*
X9715476Y4324705D02*
X9763095Y4419943D01*
X9763095Y4419943D02*
X9810714Y4467562D01*
X9810714Y4467562D02*
X9905952Y4515181D01*
X11429762Y3515181D02*
X11429762Y4181848D01*
X11429762Y4086610D02*
X11477381Y4134229D01*
X11477381Y4134229D02*
X11572619Y4181848D01*
X11572619Y4181848D02*
X11715476Y4181848D01*
X11715476Y4181848D02*
X11810714Y4134229D01*
X11810714Y4134229D02*
X11858333Y4038991D01*
X11858333Y4038991D02*
X11858333Y3515181D01*
X11858333Y4038991D02*
X11905952Y4134229D01*
X11905952Y4134229D02*
X12001190Y4181848D01*
X12001190Y4181848D02*
X12144047Y4181848D01*
X12144047Y4181848D02*
X12239286Y4134229D01*
X12239286Y4134229D02*
X12286905Y4038991D01*
X12286905Y4038991D02*
X12286905Y3515181D01*
X12763095Y3515181D02*
X12763095Y4181848D01*
X12763095Y4086610D02*
X12810714Y4134229D01*
X12810714Y4134229D02*
X12905952Y4181848D01*
X12905952Y4181848D02*
X13048809Y4181848D01*
X13048809Y4181848D02*
X13144047Y4134229D01*
X13144047Y4134229D02*
X13191666Y4038991D01*
X13191666Y4038991D02*
X13191666Y3515181D01*
X13191666Y4038991D02*
X13239285Y4134229D01*
X13239285Y4134229D02*
X13334523Y4181848D01*
X13334523Y4181848D02*
X13477380Y4181848D01*
X13477380Y4181848D02*
X13572619Y4134229D01*
X13572619Y4134229D02*
X13620238Y4038991D01*
X13620238Y4038991D02*
X13620238Y3515181D01*
D11*
X7000000Y500000D02*
X7000000Y3406420D01*
X12050000Y500000D02*
X12050000Y3406420D01*
X7000000Y2820000D02*
X12050000Y2820000D01*
X7000000Y2820000D02*
X12050000Y2820000D01*
X7000000Y2820000D02*
X8126504Y3406421D01*
X7000000Y2820000D02*
X8126504Y2233579D01*
X12050000Y2820000D02*
X10923496Y2233579D01*
X12050000Y2820000D02*
X10923496Y3406421D01*
D10*
%TO.C,REF\u002A\u002A*%
X-9300000Y-19000000D02*
G75*
G03*
X-9300000Y-19000000I-2700000J0D01*
G01*
X14700000Y-19000000D02*
G75*
G03*
X14700000Y-19000000I-2700000J0D01*
G01*
X32850000Y0D02*
G75*
G03*
X32850000Y0I-2700000J0D01*
G01*
X-27450000Y0D02*
G75*
G03*
X-27450000Y0I-2700000J0D01*
G01*
X2700000Y-19000000D02*
G75*
G03*
X2700000Y-19000000I-2700000J0D01*
G01*
%TD*%
M02*
