%TF.GenerationSoftware,KiCad,Pcbnew,7.0.5*%
%TF.CreationDate,2024-03-22T12:50:57-05:00*%
%TF.ProjectId,plate,706c6174-652e-46b6-9963-61645f706362,REV1*%
%TF.SameCoordinates,Original*%
%TF.FileFunction,Soldermask,Top*%
%TF.FilePolarity,Negative*%
%FSLAX46Y46*%
G04 Gerber Fmt 4.6, Leading zero omitted, Abs format (unit mm)*
G04 Created by KiCad (PCBNEW 7.0.5) date 2024-03-22 12:50:57*
%MOMM*%
%LPD*%
G01*
G04 APERTURE LIST*
%TA.AperFunction,Profile*%
%ADD10C,0.120000*%
%TD*%
G04 APERTURE END LIST*
D10*
%TO.C,REF\u002A\u002A*%
X-26050000Y7000000D02*
X-12050000Y7000000D01*
X-12050000Y7000000D02*
X-12050000Y-7000000D01*
X-12050000Y-7000000D02*
X-26050000Y-7000000D01*
X-26050000Y-7000000D02*
X-26050000Y7000000D01*
X-7000000Y7000000D02*
X7000000Y7000000D01*
X7000000Y7000000D02*
X7000000Y-7000000D01*
X7000000Y-7000000D02*
X-7000000Y-7000000D01*
X-7000000Y-7000000D02*
X-7000000Y7000000D01*
X12050000Y7000000D02*
X26050000Y7000000D01*
X26050000Y7000000D02*
X26050000Y-7000000D01*
X26050000Y-7000000D02*
X12050000Y-7000000D01*
X12050000Y-7000000D02*
X12050000Y7000000D01*
%TD*%
G36*
X8654866Y-28157116D02*
G01*
X8658170Y-28160434D01*
X10841390Y-31960898D01*
X12781283Y-35337788D01*
X12782654Y-35348379D01*
X12779997Y-35351827D01*
X12775472Y-35353029D01*
X4498140Y-35335071D01*
X4488285Y-35330964D01*
X4486627Y-35326937D01*
X4487849Y-35322418D01*
X5519841Y-33543878D01*
X5519843Y-33543871D01*
X8642066Y-28163020D01*
X8650550Y-28156538D01*
X8654866Y-28157116D01*
G37*
G36*
X-12876017Y-28299328D02*
G01*
X-12872713Y-28302646D01*
X-10814862Y-31884874D01*
X-10813491Y-31895465D01*
X-10816148Y-31898913D01*
X-10820673Y-31900115D01*
X-11775671Y-31898042D01*
X-11785462Y-31896204D01*
X-12810617Y-31499652D01*
X-12810730Y-31499606D01*
X-13884290Y-31041367D01*
X-13884423Y-31041308D01*
X-14336928Y-30829512D01*
X-14344129Y-30821631D01*
X-14343723Y-30812622D01*
X-12888817Y-28305232D01*
X-12880333Y-28298750D01*
X-12876017Y-28299328D01*
G37*
G36*
X-2681279Y-26639200D02*
G01*
X-2677975Y-26642518D01*
X-620124Y-30224746D01*
X-618753Y-30235337D01*
X-621410Y-30238785D01*
X-625935Y-30239987D01*
X-4757164Y-30231024D01*
X-4767019Y-30226917D01*
X-4768677Y-30222890D01*
X-4767455Y-30218371D01*
X-2694079Y-26645104D01*
X-2685595Y-26638622D01*
X-2681279Y-26639200D01*
G37*
G36*
X14018721Y-24314200D02*
G01*
X14022025Y-24317518D01*
X16079876Y-27899746D01*
X16081247Y-27910337D01*
X16078590Y-27913785D01*
X16074065Y-27914987D01*
X11942836Y-27906024D01*
X11932981Y-27901917D01*
X11931323Y-27897890D01*
X11932545Y-27893371D01*
X14005921Y-24320104D01*
X14014405Y-24313622D01*
X14018721Y-24314200D01*
G37*
G36*
X-16466541Y-15629074D02*
G01*
X-16463237Y-15632392D01*
X-15534905Y-17248397D01*
X-15492978Y-17255366D01*
X-15400760Y-17174494D01*
X-15150500Y-17007276D01*
X-14880555Y-16874153D01*
X-14595543Y-16777405D01*
X-14300341Y-16718685D01*
X-14000000Y-16699000D01*
X-13699659Y-16718685D01*
X-13404457Y-16777405D01*
X-13119445Y-16874153D01*
X-12849500Y-17007276D01*
X-12599240Y-17174494D01*
X-12372947Y-17372947D01*
X-12174494Y-17599240D01*
X-12007276Y-17849500D01*
X-11874153Y-18119445D01*
X-11777405Y-18404457D01*
X-11718685Y-18699659D01*
X-11699000Y-19000000D01*
X-11718685Y-19300341D01*
X-11777405Y-19595543D01*
X-11874153Y-19880555D01*
X-12007276Y-20150500D01*
X-12174494Y-20400760D01*
X-12372947Y-20627053D01*
X-12599240Y-20825506D01*
X-12849500Y-20992724D01*
X-13119445Y-21125847D01*
X-13245192Y-21168532D01*
X-13260163Y-21208179D01*
X-12340124Y-22809746D01*
X-12338753Y-22820337D01*
X-12341410Y-22823785D01*
X-12345935Y-22824987D01*
X-20623267Y-22807029D01*
X-20633122Y-22802922D01*
X-20634780Y-22798895D01*
X-20633558Y-22794376D01*
X-16479341Y-15634978D01*
X-16470857Y-15628496D01*
X-16466541Y-15629074D01*
G37*
G36*
X-7210595Y-18266521D02*
G01*
X-7207291Y-18269839D01*
X-5149440Y-21852067D01*
X-5148069Y-21862658D01*
X-5150726Y-21866106D01*
X-5155251Y-21867308D01*
X-9286480Y-21858345D01*
X-9296335Y-21854238D01*
X-9297993Y-21850211D01*
X-9296771Y-21845692D01*
X-7223395Y-18272425D01*
X-7214911Y-18265943D01*
X-7210595Y-18266521D01*
G37*
G36*
X300341Y-16718685D02*
G01*
X595543Y-16777405D01*
X880555Y-16874153D01*
X1150500Y-17007276D01*
X1400760Y-17174494D01*
X1627053Y-17372947D01*
X1825506Y-17599240D01*
X1992724Y-17849500D01*
X2125847Y-18119445D01*
X2222595Y-18404457D01*
X2281315Y-18699659D01*
X2301000Y-19000000D01*
X2281315Y-19300341D01*
X2222595Y-19595543D01*
X2125847Y-19880555D01*
X1992724Y-20150500D01*
X1825506Y-20400760D01*
X1627053Y-20627053D01*
X1400760Y-20825506D01*
X1150500Y-20992724D01*
X880555Y-21125847D01*
X595543Y-21222595D01*
X300341Y-21281315D01*
X0Y-21301000D01*
X-300341Y-21281315D01*
X-595543Y-21222595D01*
X-880555Y-21125847D01*
X-1150500Y-20992724D01*
X-1400760Y-20825506D01*
X-1627053Y-20627053D01*
X-1825506Y-20400760D01*
X-1992724Y-20150500D01*
X-2125847Y-19880555D01*
X-2222595Y-19595543D01*
X-2281315Y-19300341D01*
X-2301000Y-19000000D01*
X-2281315Y-18699659D01*
X-2222595Y-18404457D01*
X-2125847Y-18119445D01*
X-1992724Y-17849500D01*
X-1825506Y-17599240D01*
X-1627053Y-17372947D01*
X-1400760Y-17174494D01*
X-1150500Y-17007276D01*
X-880555Y-16874153D01*
X-595543Y-16777405D01*
X-300341Y-16718685D01*
X0Y-16699000D01*
X300341Y-16718685D01*
G37*
G36*
X19398651Y-10547786D02*
G01*
X19401955Y-10551104D01*
X23525068Y-17728458D01*
X23526439Y-17739049D01*
X23523782Y-17742497D01*
X23519257Y-17743699D01*
X15968288Y-17727317D01*
X15942827Y-17774825D01*
X15992724Y-17849500D01*
X16125847Y-18119445D01*
X16222595Y-18404457D01*
X16281315Y-18699659D01*
X16301000Y-19000000D01*
X16281315Y-19300341D01*
X16222595Y-19595543D01*
X16125847Y-19880555D01*
X15992724Y-20150500D01*
X15825506Y-20400760D01*
X15627053Y-20627053D01*
X15400760Y-20825506D01*
X15150500Y-20992724D01*
X14880555Y-21125847D01*
X14595543Y-21222595D01*
X14300341Y-21281315D01*
X14000000Y-21301000D01*
X13699659Y-21281315D01*
X13404457Y-21222595D01*
X13119445Y-21125847D01*
X12849500Y-20992724D01*
X12599240Y-20825506D01*
X12372947Y-20627053D01*
X12174494Y-20400760D01*
X12007276Y-20150500D01*
X11874153Y-19880555D01*
X11777405Y-19595543D01*
X11718685Y-19300341D01*
X11699000Y-19000000D01*
X11718685Y-18699659D01*
X11777405Y-18404457D01*
X11874153Y-18119445D01*
X12007276Y-17849500D01*
X12174494Y-17599240D01*
X12372947Y-17372947D01*
X12599240Y-17174494D01*
X12849500Y-17007276D01*
X13119445Y-16874153D01*
X13404457Y-16777405D01*
X13699659Y-16718685D01*
X14000000Y-16699000D01*
X14300341Y-16718685D01*
X14595543Y-16777405D01*
X14880555Y-16874153D01*
X15150500Y-17007276D01*
X15400760Y-17174494D01*
X15470711Y-17235839D01*
X15512535Y-17228982D01*
X19385851Y-10553690D01*
X19394335Y-10547208D01*
X19398651Y-10547786D01*
G37*
G36*
X9473983Y-15839328D02*
G01*
X9477287Y-15842646D01*
X11535138Y-19424874D01*
X11536509Y-19435465D01*
X11533852Y-19438913D01*
X11529327Y-19440115D01*
X7398098Y-19431152D01*
X7388243Y-19427045D01*
X7386585Y-19423018D01*
X7387807Y-19418499D01*
X9461183Y-15845232D01*
X9469667Y-15838750D01*
X9473983Y-15839328D01*
G37*
G36*
X68834189Y-2133323D02*
G01*
X68837493Y-2136641D01*
X77091129Y-16504249D01*
X77092500Y-16514840D01*
X77089843Y-16518288D01*
X77085318Y-16519490D01*
X60515781Y-16483542D01*
X60505926Y-16479435D01*
X60504268Y-16475408D01*
X60505490Y-16470889D01*
X68821389Y-2139227D01*
X68829873Y-2132745D01*
X68834189Y-2133323D01*
G37*
G36*
X-5126541Y-8609074D02*
G01*
X-5123237Y-8612392D01*
X-1000124Y-15789746D01*
X-998753Y-15800337D01*
X-1001410Y-15803785D01*
X-1005935Y-15804987D01*
X-9283267Y-15787029D01*
X-9293122Y-15782922D01*
X-9294780Y-15778895D01*
X-9293558Y-15774376D01*
X-5139341Y-8614978D01*
X-5130857Y-8608496D01*
X-5126541Y-8609074D01*
G37*
G36*
X-23861279Y-11404200D02*
G01*
X-23857975Y-11407518D01*
X-21800124Y-14989746D01*
X-21798753Y-15000337D01*
X-21801410Y-15003785D01*
X-21805935Y-15004987D01*
X-25937164Y-14996024D01*
X-25947019Y-14991917D01*
X-25948677Y-14987890D01*
X-25947455Y-14983371D01*
X-23874079Y-11410104D01*
X-23865595Y-11403622D01*
X-23861279Y-11404200D01*
G37*
G36*
X-16001279Y-9474200D02*
G01*
X-15997975Y-9477518D01*
X-13940124Y-13059746D01*
X-13938753Y-13070337D01*
X-13941410Y-13073785D01*
X-13945935Y-13074987D01*
X-18077164Y-13066024D01*
X-18087019Y-13061917D01*
X-18088677Y-13057890D01*
X-18087455Y-13053371D01*
X-16014079Y-9480104D01*
X-16005595Y-9473622D01*
X-16001279Y-9474200D01*
G37*
G36*
X7038953Y-9329594D02*
G01*
X7042257Y-9332912D01*
X9100108Y-12915140D01*
X9101479Y-12925731D01*
X9098822Y-12929179D01*
X9094297Y-12930381D01*
X4963068Y-12921418D01*
X4953213Y-12917311D01*
X4951555Y-12913284D01*
X4952777Y-12908765D01*
X7026153Y-9335498D01*
X7034637Y-9329016D01*
X7038953Y-9329594D01*
G37*
G36*
X-31326541Y-3409074D02*
G01*
X-31323237Y-3412392D01*
X-27200124Y-10589746D01*
X-27198753Y-10600337D01*
X-27201410Y-10603785D01*
X-27205935Y-10604987D01*
X-35483267Y-10587029D01*
X-35493122Y-10582922D01*
X-35494780Y-10578895D01*
X-35493558Y-10574376D01*
X-33309835Y-6810936D01*
X-31339341Y-3414978D01*
X-31330857Y-3408496D01*
X-31326541Y-3409074D01*
G37*
G36*
X30568721Y-1844200D02*
G01*
X30572025Y-1847518D01*
X32629876Y-5429746D01*
X32631247Y-5440337D01*
X32628590Y-5443785D01*
X32624065Y-5444987D01*
X28492836Y-5436024D01*
X28482981Y-5431917D01*
X28481323Y-5427890D01*
X28482545Y-5423371D01*
X30555921Y-1850104D01*
X30564405Y-1843622D01*
X30568721Y-1844200D01*
G37*
G36*
X-29806075Y1358130D02*
G01*
X-29587225Y1282998D01*
X-29383726Y1172870D01*
X-29201129Y1030749D01*
X-29044414Y860512D01*
X-28917857Y666802D01*
X-28824910Y454904D01*
X-28768108Y230597D01*
X-28749000Y0D01*
X-28768108Y-230597D01*
X-28824910Y-454904D01*
X-28917857Y-666802D01*
X-29044414Y-860512D01*
X-29201129Y-1030749D01*
X-29383726Y-1172870D01*
X-29587225Y-1282998D01*
X-29806075Y-1358130D01*
X-30034306Y-1396215D01*
X-30265694Y-1396215D01*
X-30493925Y-1358130D01*
X-30712775Y-1282998D01*
X-30916274Y-1172870D01*
X-31098871Y-1030749D01*
X-31255586Y-860512D01*
X-31382143Y-666802D01*
X-31475090Y-454904D01*
X-31531892Y-230597D01*
X-31551000Y0D01*
X-31531892Y230597D01*
X-31475090Y454904D01*
X-31382143Y666802D01*
X-31255586Y860512D01*
X-31098871Y1030749D01*
X-30916274Y1172870D01*
X-30712775Y1282998D01*
X-30493925Y1358130D01*
X-30265694Y1396215D01*
X-30034306Y1396215D01*
X-29806075Y1358130D01*
G37*
G36*
X30493925Y1358130D02*
G01*
X30712775Y1282998D01*
X30916274Y1172870D01*
X31098871Y1030749D01*
X31255586Y860512D01*
X31382143Y666802D01*
X31475090Y454904D01*
X31531892Y230597D01*
X31551000Y0D01*
X31531892Y-230597D01*
X31475090Y-454904D01*
X31382143Y-666802D01*
X31255586Y-860512D01*
X31098871Y-1030749D01*
X30916274Y-1172870D01*
X30712775Y-1282998D01*
X30493925Y-1358130D01*
X30265694Y-1396215D01*
X30034306Y-1396215D01*
X29806075Y-1358130D01*
X29587225Y-1282998D01*
X29383726Y-1172870D01*
X29201129Y-1030749D01*
X29044414Y-860512D01*
X28917857Y-666802D01*
X28824910Y-454904D01*
X28768108Y-230597D01*
X28749000Y0D01*
X28768108Y230597D01*
X28824910Y454904D01*
X28917857Y666802D01*
X29044414Y860512D01*
X29201129Y1030749D01*
X29383726Y1172870D01*
X29587225Y1282998D01*
X29806075Y1358130D01*
X30034306Y1396215D01*
X30265694Y1396215D01*
X30493925Y1358130D01*
G37*
G36*
X74152659Y18843540D02*
G01*
X74155963Y18840222D01*
X82409599Y4472614D01*
X82410970Y4462023D01*
X82408313Y4458575D01*
X82403788Y4457373D01*
X65834251Y4493321D01*
X65824396Y4497428D01*
X65822738Y4501455D01*
X65823960Y4505974D01*
X74139859Y18837636D01*
X74148343Y18844118D01*
X74152659Y18843540D01*
G37*
G36*
X100516333Y20200761D02*
G01*
X100519637Y20197443D01*
X108773273Y5829835D01*
X108774644Y5819244D01*
X108771987Y5815796D01*
X108767462Y5814594D01*
X92197925Y5850542D01*
X92188070Y5854649D01*
X92186412Y5858676D01*
X92187634Y5863195D01*
X100503533Y20194857D01*
X100512017Y20201339D01*
X100516333Y20200761D01*
G37*
G36*
X10934824Y11245800D02*
G01*
X10938128Y11242482D01*
X12995979Y7660254D01*
X12997350Y7649663D01*
X12994693Y7646215D01*
X12990168Y7645013D01*
X8858939Y7653976D01*
X8849084Y7658083D01*
X8847426Y7662110D01*
X8848648Y7666629D01*
X10922024Y11239896D01*
X10930508Y11246378D01*
X10934824Y11245800D01*
G37*
G36*
X20565665Y16172936D02*
G01*
X20568969Y16169618D01*
X24692082Y8992264D01*
X24693453Y8981673D01*
X24690796Y8978225D01*
X24686271Y8977023D01*
X16408939Y8994981D01*
X16399084Y8999088D01*
X16397426Y9003115D01*
X16398648Y9007634D01*
X20552865Y16167032D01*
X20561349Y16173514D01*
X20565665Y16172936D01*
G37*
G36*
X-14686279Y14020800D02*
G01*
X-14682975Y14017482D01*
X-12625124Y10435254D01*
X-12623753Y10424663D01*
X-12626410Y10421215D01*
X-12630935Y10420013D01*
X-16762164Y10428976D01*
X-16772019Y10433083D01*
X-16773677Y10437110D01*
X-16772455Y10441629D01*
X-14699079Y14014896D01*
X-14690595Y14021378D01*
X-14686279Y14020800D01*
G37*
G36*
X2934462Y16273926D02*
G01*
X2937766Y16270608D01*
X4995617Y12688380D01*
X4996988Y12677789D01*
X4994331Y12674341D01*
X4989806Y12673139D01*
X858577Y12682102D01*
X848722Y12686209D01*
X847064Y12690236D01*
X848286Y12694755D01*
X2921662Y16268022D01*
X2930146Y16274504D01*
X2934462Y16273926D01*
G37*
G36*
X28133000Y19092336D02*
G01*
X28134998Y19090482D01*
X28375051Y18740239D01*
X28375081Y18740193D01*
X29001638Y17755140D01*
X29001657Y17755109D01*
X29594034Y16749123D01*
X29594060Y16749077D01*
X29861646Y16256750D01*
X29862766Y16246132D01*
X29859842Y16242518D01*
X29855863Y16241511D01*
X26490258Y16248812D01*
X26480403Y16252919D01*
X26478745Y16256946D01*
X26479967Y16261465D01*
X27346596Y17755017D01*
X28119220Y19086563D01*
X28127704Y19093045D01*
X28133000Y19092336D01*
G37*
G36*
X-4171017Y23925672D02*
G01*
X-4167713Y23922354D01*
X-44600Y16745000D01*
X-43229Y16734409D01*
X-45886Y16730961D01*
X-50411Y16729759D01*
X-8327743Y16747717D01*
X-8337598Y16751824D01*
X-8339256Y16755851D01*
X-8338034Y16760370D01*
X-4183817Y23919768D01*
X-4175333Y23926250D01*
X-4171017Y23925672D01*
G37*
G36*
X53748459Y24865926D02*
G01*
X53751763Y24862608D01*
X57874876Y17685254D01*
X57876247Y17674663D01*
X57873590Y17671215D01*
X57869065Y17670013D01*
X49591733Y17687971D01*
X49581878Y17692078D01*
X49580220Y17696105D01*
X49581442Y17700624D01*
X53735659Y24860022D01*
X53744143Y24866504D01*
X53748459Y24865926D01*
G37*
G36*
X18263721Y21545800D02*
G01*
X18267025Y21542482D01*
X20324876Y17960254D01*
X20326247Y17949663D01*
X20323590Y17946215D01*
X20319065Y17945013D01*
X16187836Y17953976D01*
X16177981Y17958083D01*
X16176323Y17962110D01*
X16177545Y17966629D01*
X18250921Y21539896D01*
X18259405Y21546378D01*
X18263721Y21545800D01*
G37*
G36*
X-13644944Y21870122D02*
G01*
X-13641640Y21866804D01*
X-11583789Y18284576D01*
X-11582418Y18273985D01*
X-11585075Y18270537D01*
X-11589600Y18269335D01*
X-15720829Y18278298D01*
X-15730684Y18282405D01*
X-15732342Y18286432D01*
X-15731120Y18290951D01*
X-13657744Y21864218D01*
X-13649260Y21870700D01*
X-13644944Y21870122D01*
G37*
G36*
X-26406017Y30920672D02*
G01*
X-26402713Y30917354D01*
X-21287926Y22013733D01*
X-20214338Y20144872D01*
X-20212967Y20134281D01*
X-20215624Y20130833D01*
X-20220149Y20129631D01*
X-32643584Y20156584D01*
X-32653439Y20160691D01*
X-32655097Y20164718D01*
X-32653875Y20169237D01*
X-26418817Y30914768D01*
X-26410333Y30921250D01*
X-26406017Y30920672D01*
G37*
G36*
X7828983Y24125672D02*
G01*
X7832287Y24122354D01*
X9890138Y20540126D01*
X9891509Y20529535D01*
X9888852Y20526087D01*
X9884327Y20524885D01*
X5753098Y20533848D01*
X5743243Y20537955D01*
X5741585Y20541982D01*
X5742807Y20546501D01*
X7816183Y24119768D01*
X7824667Y24126250D01*
X7828983Y24125672D01*
G37*
G36*
X86016989Y37266971D02*
G01*
X86020293Y37263653D01*
X92208668Y26491171D01*
X92210039Y26480580D01*
X92207382Y26477132D01*
X92202857Y26475930D01*
X79779422Y26502883D01*
X79769567Y26506990D01*
X79767909Y26511017D01*
X79769131Y26515536D01*
X86004189Y37261067D01*
X86012673Y37267549D01*
X86016989Y37266971D01*
G37*
G36*
X113152659Y41043540D02*
G01*
X113155963Y41040222D01*
X121409599Y26672614D01*
X121410970Y26662023D01*
X121408313Y26658575D01*
X121403788Y26657373D01*
X104834251Y26693321D01*
X104824396Y26697428D01*
X104822738Y26701455D01*
X104823960Y26705974D01*
X113139859Y41037636D01*
X113148343Y41044118D01*
X113152659Y41043540D01*
G37*
G36*
X11205665Y35772936D02*
G01*
X11208969Y35769618D01*
X14471955Y30089540D01*
X15332082Y28592264D01*
X15333453Y28581673D01*
X15330796Y28578225D01*
X15326271Y28577023D01*
X7048939Y28594981D01*
X7039084Y28599088D01*
X7037426Y28603115D01*
X7038648Y28607634D01*
X9399893Y32677015D01*
X9399893Y32677018D01*
X11192865Y35767032D01*
X11201349Y35773514D01*
X11205665Y35772936D01*
G37*
G36*
X67198459Y37315926D02*
G01*
X67201763Y37312608D01*
X71324876Y30135254D01*
X71326247Y30124663D01*
X71323590Y30121215D01*
X71319065Y30120013D01*
X63041733Y30137971D01*
X63031878Y30142078D01*
X63030220Y30146105D01*
X63031442Y30150624D01*
X67185659Y37310022D01*
X67194143Y37316504D01*
X67198459Y37315926D01*
G37*
G36*
X-7423036Y33176497D02*
G01*
X-7420253Y33173624D01*
X-5684021Y30151259D01*
X-5682650Y30140668D01*
X-5685307Y30137220D01*
X-5689832Y30136018D01*
X-9821061Y30144981D01*
X-9830943Y30149099D01*
X-9832577Y30153057D01*
X-9831339Y30157657D01*
X-8185619Y32993901D01*
X-8169918Y33005895D01*
X-7437242Y33178803D01*
X-7423036Y33176497D01*
G37*
G36*
X149808197Y50386054D02*
G01*
X149811501Y50382736D01*
X155999876Y39610254D01*
X156001247Y39599663D01*
X155998590Y39596215D01*
X155994065Y39595013D01*
X143570630Y39621966D01*
X143560775Y39626073D01*
X143559117Y39630100D01*
X143560339Y39634619D01*
X149795397Y50380150D01*
X149803881Y50386632D01*
X149808197Y50386054D01*
G37*
G36*
X58098459Y50965926D02*
G01*
X58101763Y50962608D01*
X62224876Y43785254D01*
X62226247Y43774663D01*
X62223590Y43771215D01*
X62219065Y43770013D01*
X53941733Y43787971D01*
X53931878Y43792078D01*
X53930220Y43796105D01*
X53931442Y43800624D01*
X58085659Y50960022D01*
X58094143Y50966504D01*
X58098459Y50965926D01*
G37*
G36*
X135952659Y59443540D02*
G01*
X135955963Y59440222D01*
X144209599Y45072614D01*
X144210970Y45062023D01*
X144208313Y45058575D01*
X144203788Y45057373D01*
X127634251Y45093321D01*
X127624396Y45097428D01*
X127622738Y45101455D01*
X127623960Y45105974D01*
X135939859Y59437636D01*
X135948343Y59444118D01*
X135952659Y59443540D01*
G37*
G36*
X86552659Y80043540D02*
G01*
X86555963Y80040222D01*
X94809599Y65672614D01*
X94810970Y65662023D01*
X94808313Y65658575D01*
X94803788Y65657373D01*
X78234251Y65693321D01*
X78224396Y65697428D01*
X78222738Y65701455D01*
X78223960Y65705974D01*
X86539859Y80037636D01*
X86548343Y80044118D01*
X86552659Y80043540D01*
G37*
M02*
