%TF.GenerationSoftware,KiCad,Pcbnew,(7.0.0-0)*%
%TF.CreationDate,2023-04-23T02:23:08-05:00*%
%TF.ProjectId,RP2040_minimal,52503230-3430-45f6-9d69-6e696d616c2e,REV1*%
%TF.SameCoordinates,Original*%
%TF.FileFunction,Legend,Bot*%
%TF.FilePolarity,Positive*%
%FSLAX46Y46*%
G04 Gerber Fmt 4.6, Leading zero omitted, Abs format (unit mm)*
G04 Created by KiCad (PCBNEW (7.0.0-0)) date 2023-04-23 02:23:08*
%MOMM*%
%LPD*%
G01*
G04 APERTURE LIST*
G04 Aperture macros list*
%AMRoundRect*
0 Rectangle with rounded corners*
0 $1 Rounding radius*
0 $2 $3 $4 $5 $6 $7 $8 $9 X,Y pos of 4 corners*
0 Add a 4 corners polygon primitive as box body*
4,1,4,$2,$3,$4,$5,$6,$7,$8,$9,$2,$3,0*
0 Add four circle primitives for the rounded corners*
1,1,$1+$1,$2,$3*
1,1,$1+$1,$4,$5*
1,1,$1+$1,$6,$7*
1,1,$1+$1,$8,$9*
0 Add four rect primitives between the rounded corners*
20,1,$1+$1,$2,$3,$4,$5,0*
20,1,$1+$1,$4,$5,$6,$7,0*
20,1,$1+$1,$6,$7,$8,$9,0*
20,1,$1+$1,$8,$9,$2,$3,0*%
G04 Aperture macros list end*
%ADD10C,0.150000*%
%ADD11C,0.120000*%
%ADD12C,4.402000*%
%ADD13O,1.102000X1.902000*%
%ADD14O,1.102000X2.302000*%
%ADD15RoundRect,0.051000X0.850000X-0.850000X0.850000X0.850000X-0.850000X0.850000X-0.850000X-0.850000X0*%
%ADD16O,1.802000X1.802000*%
%ADD17RoundRect,0.351000X0.500000X0.300000X-0.500000X0.300000X-0.500000X-0.300000X0.500000X-0.300000X0*%
%ADD18RoundRect,0.051000X0.750000X0.450000X-0.750000X0.450000X-0.750000X-0.450000X0.750000X-0.450000X0*%
%ADD19RoundRect,0.051000X0.500000X0.375000X-0.500000X0.375000X-0.500000X-0.375000X0.500000X-0.375000X0*%
%ADD20RoundRect,0.191000X-0.170000X0.140000X-0.170000X-0.140000X0.170000X-0.140000X0.170000X0.140000X0*%
%ADD21RoundRect,0.186000X-0.185000X0.135000X-0.185000X-0.135000X0.185000X-0.135000X0.185000X0.135000X0*%
%ADD22RoundRect,0.191000X0.140000X0.170000X-0.140000X0.170000X-0.140000X-0.170000X0.140000X-0.170000X0*%
%ADD23C,1.802000*%
%ADD24C,6.502000*%
%ADD25RoundRect,0.191000X0.170000X-0.140000X0.170000X0.140000X-0.170000X0.140000X-0.170000X-0.140000X0*%
%ADD26RoundRect,0.186000X0.185000X-0.135000X0.185000X0.135000X-0.185000X0.135000X-0.185000X-0.135000X0*%
%ADD27RoundRect,0.201000X-0.587500X-0.150000X0.587500X-0.150000X0.587500X0.150000X-0.587500X0.150000X0*%
%ADD28RoundRect,0.191000X-0.140000X-0.170000X0.140000X-0.170000X0.140000X0.170000X-0.140000X0.170000X0*%
G04 APERTURE END LIST*
D10*
%TO.C,H3*%
X761904Y-20617380D02*
X761904Y-19617380D01*
X761904Y-20093571D02*
X190476Y-20093571D01*
X190476Y-20617380D02*
X190476Y-19617380D01*
X-190477Y-19617380D02*
X-809524Y-19617380D01*
X-809524Y-19617380D02*
X-476191Y-19998333D01*
X-476191Y-19998333D02*
X-619048Y-19998333D01*
X-619048Y-19998333D02*
X-714286Y-20045952D01*
X-714286Y-20045952D02*
X-761905Y-20093571D01*
X-761905Y-20093571D02*
X-809524Y-20188809D01*
X-809524Y-20188809D02*
X-809524Y-20426904D01*
X-809524Y-20426904D02*
X-761905Y-20522142D01*
X-761905Y-20522142D02*
X-714286Y-20569761D01*
X-714286Y-20569761D02*
X-619048Y-20617380D01*
X-619048Y-20617380D02*
X-333334Y-20617380D01*
X-333334Y-20617380D02*
X-238096Y-20569761D01*
X-238096Y-20569761D02*
X-190477Y-20522142D01*
%TO.C,SW4*%
X13083332Y-14819761D02*
X12940475Y-14867380D01*
X12940475Y-14867380D02*
X12702380Y-14867380D01*
X12702380Y-14867380D02*
X12607142Y-14819761D01*
X12607142Y-14819761D02*
X12559523Y-14772142D01*
X12559523Y-14772142D02*
X12511904Y-14676904D01*
X12511904Y-14676904D02*
X12511904Y-14581666D01*
X12511904Y-14581666D02*
X12559523Y-14486428D01*
X12559523Y-14486428D02*
X12607142Y-14438809D01*
X12607142Y-14438809D02*
X12702380Y-14391190D01*
X12702380Y-14391190D02*
X12892856Y-14343571D01*
X12892856Y-14343571D02*
X12988094Y-14295952D01*
X12988094Y-14295952D02*
X13035713Y-14248333D01*
X13035713Y-14248333D02*
X13083332Y-14153095D01*
X13083332Y-14153095D02*
X13083332Y-14057857D01*
X13083332Y-14057857D02*
X13035713Y-13962619D01*
X13035713Y-13962619D02*
X12988094Y-13915000D01*
X12988094Y-13915000D02*
X12892856Y-13867380D01*
X12892856Y-13867380D02*
X12654761Y-13867380D01*
X12654761Y-13867380D02*
X12511904Y-13915000D01*
X12178570Y-13867380D02*
X11940475Y-14867380D01*
X11940475Y-14867380D02*
X11749999Y-14153095D01*
X11749999Y-14153095D02*
X11559523Y-14867380D01*
X11559523Y-14867380D02*
X11321428Y-13867380D01*
X10511904Y-14200714D02*
X10511904Y-14867380D01*
X10749999Y-13819761D02*
X10988094Y-14534047D01*
X10988094Y-14534047D02*
X10369047Y-14534047D01*
%TO.C,D10*%
X-16055715Y23802620D02*
X-16055715Y24802620D01*
X-16055715Y24802620D02*
X-16293810Y24802620D01*
X-16293810Y24802620D02*
X-16436667Y24755000D01*
X-16436667Y24755000D02*
X-16531905Y24659762D01*
X-16531905Y24659762D02*
X-16579524Y24564524D01*
X-16579524Y24564524D02*
X-16627143Y24374048D01*
X-16627143Y24374048D02*
X-16627143Y24231191D01*
X-16627143Y24231191D02*
X-16579524Y24040715D01*
X-16579524Y24040715D02*
X-16531905Y23945477D01*
X-16531905Y23945477D02*
X-16436667Y23850239D01*
X-16436667Y23850239D02*
X-16293810Y23802620D01*
X-16293810Y23802620D02*
X-16055715Y23802620D01*
X-17579524Y23802620D02*
X-17008096Y23802620D01*
X-17293810Y23802620D02*
X-17293810Y24802620D01*
X-17293810Y24802620D02*
X-17198572Y24659762D01*
X-17198572Y24659762D02*
X-17103334Y24564524D01*
X-17103334Y24564524D02*
X-17008096Y24516905D01*
X-18198572Y24802620D02*
X-18293810Y24802620D01*
X-18293810Y24802620D02*
X-18389048Y24755000D01*
X-18389048Y24755000D02*
X-18436667Y24707381D01*
X-18436667Y24707381D02*
X-18484286Y24612143D01*
X-18484286Y24612143D02*
X-18531905Y24421667D01*
X-18531905Y24421667D02*
X-18531905Y24183572D01*
X-18531905Y24183572D02*
X-18484286Y23993096D01*
X-18484286Y23993096D02*
X-18436667Y23897858D01*
X-18436667Y23897858D02*
X-18389048Y23850239D01*
X-18389048Y23850239D02*
X-18293810Y23802620D01*
X-18293810Y23802620D02*
X-18198572Y23802620D01*
X-18198572Y23802620D02*
X-18103334Y23850239D01*
X-18103334Y23850239D02*
X-18055715Y23897858D01*
X-18055715Y23897858D02*
X-18008096Y23993096D01*
X-18008096Y23993096D02*
X-17960477Y24183572D01*
X-17960477Y24183572D02*
X-17960477Y24421667D01*
X-17960477Y24421667D02*
X-18008096Y24612143D01*
X-18008096Y24612143D02*
X-18055715Y24707381D01*
X-18055715Y24707381D02*
X-18103334Y24755000D01*
X-18103334Y24755000D02*
X-18198572Y24802620D01*
X-13405715Y21902620D02*
X-12834287Y21902620D01*
X-13120001Y21902620D02*
X-13120001Y22902620D01*
X-13120001Y22902620D02*
X-13024763Y22759762D01*
X-13024763Y22759762D02*
X-12929525Y22664524D01*
X-12929525Y22664524D02*
X-12834287Y22616905D01*
%TO.C,SW1*%
X-9106668Y23105239D02*
X-9249525Y23057620D01*
X-9249525Y23057620D02*
X-9487620Y23057620D01*
X-9487620Y23057620D02*
X-9582858Y23105239D01*
X-9582858Y23105239D02*
X-9630477Y23152858D01*
X-9630477Y23152858D02*
X-9678096Y23248096D01*
X-9678096Y23248096D02*
X-9678096Y23343334D01*
X-9678096Y23343334D02*
X-9630477Y23438572D01*
X-9630477Y23438572D02*
X-9582858Y23486191D01*
X-9582858Y23486191D02*
X-9487620Y23533810D01*
X-9487620Y23533810D02*
X-9297144Y23581429D01*
X-9297144Y23581429D02*
X-9201906Y23629048D01*
X-9201906Y23629048D02*
X-9154287Y23676667D01*
X-9154287Y23676667D02*
X-9106668Y23771905D01*
X-9106668Y23771905D02*
X-9106668Y23867143D01*
X-9106668Y23867143D02*
X-9154287Y23962381D01*
X-9154287Y23962381D02*
X-9201906Y24010000D01*
X-9201906Y24010000D02*
X-9297144Y24057620D01*
X-9297144Y24057620D02*
X-9535239Y24057620D01*
X-9535239Y24057620D02*
X-9678096Y24010000D01*
X-10011430Y24057620D02*
X-10249525Y23057620D01*
X-10249525Y23057620D02*
X-10440001Y23771905D01*
X-10440001Y23771905D02*
X-10630477Y23057620D01*
X-10630477Y23057620D02*
X-10868572Y24057620D01*
X-11773334Y23057620D02*
X-11201906Y23057620D01*
X-11487620Y23057620D02*
X-11487620Y24057620D01*
X-11487620Y24057620D02*
X-11392382Y23914762D01*
X-11392382Y23914762D02*
X-11297144Y23819524D01*
X-11297144Y23819524D02*
X-11201906Y23771905D01*
X-7879524Y20236429D02*
X-8022381Y20188810D01*
X-8022381Y20188810D02*
X-8070000Y20141191D01*
X-8070000Y20141191D02*
X-8117619Y20045953D01*
X-8117619Y20045953D02*
X-8117619Y19903096D01*
X-8117619Y19903096D02*
X-8070000Y19807858D01*
X-8070000Y19807858D02*
X-8022381Y19760239D01*
X-8022381Y19760239D02*
X-7927143Y19712620D01*
X-7927143Y19712620D02*
X-7546191Y19712620D01*
X-7546191Y19712620D02*
X-7546191Y20712620D01*
X-7546191Y20712620D02*
X-7879524Y20712620D01*
X-7879524Y20712620D02*
X-7974762Y20665000D01*
X-7974762Y20665000D02*
X-8022381Y20617381D01*
X-8022381Y20617381D02*
X-8070000Y20522143D01*
X-8070000Y20522143D02*
X-8070000Y20426905D01*
X-8070000Y20426905D02*
X-8022381Y20331667D01*
X-8022381Y20331667D02*
X-7974762Y20284048D01*
X-7974762Y20284048D02*
X-7879524Y20236429D01*
X-7879524Y20236429D02*
X-7546191Y20236429D01*
X-8736667Y20712620D02*
X-8927143Y20712620D01*
X-8927143Y20712620D02*
X-9022381Y20665000D01*
X-9022381Y20665000D02*
X-9117619Y20569762D01*
X-9117619Y20569762D02*
X-9165238Y20379286D01*
X-9165238Y20379286D02*
X-9165238Y20045953D01*
X-9165238Y20045953D02*
X-9117619Y19855477D01*
X-9117619Y19855477D02*
X-9022381Y19760239D01*
X-9022381Y19760239D02*
X-8927143Y19712620D01*
X-8927143Y19712620D02*
X-8736667Y19712620D01*
X-8736667Y19712620D02*
X-8641429Y19760239D01*
X-8641429Y19760239D02*
X-8546191Y19855477D01*
X-8546191Y19855477D02*
X-8498572Y20045953D01*
X-8498572Y20045953D02*
X-8498572Y20379286D01*
X-8498572Y20379286D02*
X-8546191Y20569762D01*
X-8546191Y20569762D02*
X-8641429Y20665000D01*
X-8641429Y20665000D02*
X-8736667Y20712620D01*
X-9784286Y20712620D02*
X-9974762Y20712620D01*
X-9974762Y20712620D02*
X-10070000Y20665000D01*
X-10070000Y20665000D02*
X-10165238Y20569762D01*
X-10165238Y20569762D02*
X-10212857Y20379286D01*
X-10212857Y20379286D02*
X-10212857Y20045953D01*
X-10212857Y20045953D02*
X-10165238Y19855477D01*
X-10165238Y19855477D02*
X-10070000Y19760239D01*
X-10070000Y19760239D02*
X-9974762Y19712620D01*
X-9974762Y19712620D02*
X-9784286Y19712620D01*
X-9784286Y19712620D02*
X-9689048Y19760239D01*
X-9689048Y19760239D02*
X-9593810Y19855477D01*
X-9593810Y19855477D02*
X-9546191Y20045953D01*
X-9546191Y20045953D02*
X-9546191Y20379286D01*
X-9546191Y20379286D02*
X-9593810Y20569762D01*
X-9593810Y20569762D02*
X-9689048Y20665000D01*
X-9689048Y20665000D02*
X-9784286Y20712620D01*
X-10498572Y20712620D02*
X-11070000Y20712620D01*
X-10784286Y19712620D02*
X-10784286Y20712620D01*
X-11355715Y19760239D02*
X-11498572Y19712620D01*
X-11498572Y19712620D02*
X-11736667Y19712620D01*
X-11736667Y19712620D02*
X-11831905Y19760239D01*
X-11831905Y19760239D02*
X-11879524Y19807858D01*
X-11879524Y19807858D02*
X-11927143Y19903096D01*
X-11927143Y19903096D02*
X-11927143Y19998334D01*
X-11927143Y19998334D02*
X-11879524Y20093572D01*
X-11879524Y20093572D02*
X-11831905Y20141191D01*
X-11831905Y20141191D02*
X-11736667Y20188810D01*
X-11736667Y20188810D02*
X-11546191Y20236429D01*
X-11546191Y20236429D02*
X-11450953Y20284048D01*
X-11450953Y20284048D02*
X-11403334Y20331667D01*
X-11403334Y20331667D02*
X-11355715Y20426905D01*
X-11355715Y20426905D02*
X-11355715Y20522143D01*
X-11355715Y20522143D02*
X-11403334Y20617381D01*
X-11403334Y20617381D02*
X-11450953Y20665000D01*
X-11450953Y20665000D02*
X-11546191Y20712620D01*
X-11546191Y20712620D02*
X-11784286Y20712620D01*
X-11784286Y20712620D02*
X-11927143Y20665000D01*
X-12355715Y20236429D02*
X-12689048Y20236429D01*
X-12831905Y19712620D02*
X-12355715Y19712620D01*
X-12355715Y19712620D02*
X-12355715Y20712620D01*
X-12355715Y20712620D02*
X-12831905Y20712620D01*
X-13736667Y19712620D02*
X-13260477Y19712620D01*
X-13260477Y19712620D02*
X-13260477Y20712620D01*
%TO.C,C33*%
X-18887858Y-14307142D02*
X-18840239Y-14259523D01*
X-18840239Y-14259523D02*
X-18792620Y-14116666D01*
X-18792620Y-14116666D02*
X-18792620Y-14021428D01*
X-18792620Y-14021428D02*
X-18840239Y-13878571D01*
X-18840239Y-13878571D02*
X-18935477Y-13783333D01*
X-18935477Y-13783333D02*
X-19030715Y-13735714D01*
X-19030715Y-13735714D02*
X-19221191Y-13688095D01*
X-19221191Y-13688095D02*
X-19364048Y-13688095D01*
X-19364048Y-13688095D02*
X-19554524Y-13735714D01*
X-19554524Y-13735714D02*
X-19649762Y-13783333D01*
X-19649762Y-13783333D02*
X-19745000Y-13878571D01*
X-19745000Y-13878571D02*
X-19792620Y-14021428D01*
X-19792620Y-14021428D02*
X-19792620Y-14116666D01*
X-19792620Y-14116666D02*
X-19745000Y-14259523D01*
X-19745000Y-14259523D02*
X-19697381Y-14307142D01*
X-19792620Y-14640476D02*
X-19792620Y-15259523D01*
X-19792620Y-15259523D02*
X-19411667Y-14926190D01*
X-19411667Y-14926190D02*
X-19411667Y-15069047D01*
X-19411667Y-15069047D02*
X-19364048Y-15164285D01*
X-19364048Y-15164285D02*
X-19316429Y-15211904D01*
X-19316429Y-15211904D02*
X-19221191Y-15259523D01*
X-19221191Y-15259523D02*
X-18983096Y-15259523D01*
X-18983096Y-15259523D02*
X-18887858Y-15211904D01*
X-18887858Y-15211904D02*
X-18840239Y-15164285D01*
X-18840239Y-15164285D02*
X-18792620Y-15069047D01*
X-18792620Y-15069047D02*
X-18792620Y-14783333D01*
X-18792620Y-14783333D02*
X-18840239Y-14688095D01*
X-18840239Y-14688095D02*
X-18887858Y-14640476D01*
X-19792620Y-15592857D02*
X-19792620Y-16211904D01*
X-19792620Y-16211904D02*
X-19411667Y-15878571D01*
X-19411667Y-15878571D02*
X-19411667Y-16021428D01*
X-19411667Y-16021428D02*
X-19364048Y-16116666D01*
X-19364048Y-16116666D02*
X-19316429Y-16164285D01*
X-19316429Y-16164285D02*
X-19221191Y-16211904D01*
X-19221191Y-16211904D02*
X-18983096Y-16211904D01*
X-18983096Y-16211904D02*
X-18887858Y-16164285D01*
X-18887858Y-16164285D02*
X-18840239Y-16116666D01*
X-18840239Y-16116666D02*
X-18792620Y-16021428D01*
X-18792620Y-16021428D02*
X-18792620Y-15735714D01*
X-18792620Y-15735714D02*
X-18840239Y-15640476D01*
X-18840239Y-15640476D02*
X-18887858Y-15592857D01*
%TO.C,R8*%
X-7735120Y18756667D02*
X-8211310Y19090000D01*
X-7735120Y19328095D02*
X-8735120Y19328095D01*
X-8735120Y19328095D02*
X-8735120Y18947143D01*
X-8735120Y18947143D02*
X-8687500Y18851905D01*
X-8687500Y18851905D02*
X-8639881Y18804286D01*
X-8639881Y18804286D02*
X-8544643Y18756667D01*
X-8544643Y18756667D02*
X-8401786Y18756667D01*
X-8401786Y18756667D02*
X-8306548Y18804286D01*
X-8306548Y18804286D02*
X-8258929Y18851905D01*
X-8258929Y18851905D02*
X-8211310Y18947143D01*
X-8211310Y18947143D02*
X-8211310Y19328095D01*
X-8306548Y18185238D02*
X-8354167Y18280476D01*
X-8354167Y18280476D02*
X-8401786Y18328095D01*
X-8401786Y18328095D02*
X-8497024Y18375714D01*
X-8497024Y18375714D02*
X-8544643Y18375714D01*
X-8544643Y18375714D02*
X-8639881Y18328095D01*
X-8639881Y18328095D02*
X-8687500Y18280476D01*
X-8687500Y18280476D02*
X-8735120Y18185238D01*
X-8735120Y18185238D02*
X-8735120Y17994762D01*
X-8735120Y17994762D02*
X-8687500Y17899524D01*
X-8687500Y17899524D02*
X-8639881Y17851905D01*
X-8639881Y17851905D02*
X-8544643Y17804286D01*
X-8544643Y17804286D02*
X-8497024Y17804286D01*
X-8497024Y17804286D02*
X-8401786Y17851905D01*
X-8401786Y17851905D02*
X-8354167Y17899524D01*
X-8354167Y17899524D02*
X-8306548Y17994762D01*
X-8306548Y17994762D02*
X-8306548Y18185238D01*
X-8306548Y18185238D02*
X-8258929Y18280476D01*
X-8258929Y18280476D02*
X-8211310Y18328095D01*
X-8211310Y18328095D02*
X-8116072Y18375714D01*
X-8116072Y18375714D02*
X-7925596Y18375714D01*
X-7925596Y18375714D02*
X-7830358Y18328095D01*
X-7830358Y18328095D02*
X-7782739Y18280476D01*
X-7782739Y18280476D02*
X-7735120Y18185238D01*
X-7735120Y18185238D02*
X-7735120Y17994762D01*
X-7735120Y17994762D02*
X-7782739Y17899524D01*
X-7782739Y17899524D02*
X-7830358Y17851905D01*
X-7830358Y17851905D02*
X-7925596Y17804286D01*
X-7925596Y17804286D02*
X-8116072Y17804286D01*
X-8116072Y17804286D02*
X-8211310Y17851905D01*
X-8211310Y17851905D02*
X-8258929Y17899524D01*
X-8258929Y17899524D02*
X-8306548Y17994762D01*
%TO.C,C34*%
X-15007143Y24797858D02*
X-14959524Y24750239D01*
X-14959524Y24750239D02*
X-14816667Y24702620D01*
X-14816667Y24702620D02*
X-14721429Y24702620D01*
X-14721429Y24702620D02*
X-14578572Y24750239D01*
X-14578572Y24750239D02*
X-14483334Y24845477D01*
X-14483334Y24845477D02*
X-14435715Y24940715D01*
X-14435715Y24940715D02*
X-14388096Y25131191D01*
X-14388096Y25131191D02*
X-14388096Y25274048D01*
X-14388096Y25274048D02*
X-14435715Y25464524D01*
X-14435715Y25464524D02*
X-14483334Y25559762D01*
X-14483334Y25559762D02*
X-14578572Y25655000D01*
X-14578572Y25655000D02*
X-14721429Y25702620D01*
X-14721429Y25702620D02*
X-14816667Y25702620D01*
X-14816667Y25702620D02*
X-14959524Y25655000D01*
X-14959524Y25655000D02*
X-15007143Y25607381D01*
X-15340477Y25702620D02*
X-15959524Y25702620D01*
X-15959524Y25702620D02*
X-15626191Y25321667D01*
X-15626191Y25321667D02*
X-15769048Y25321667D01*
X-15769048Y25321667D02*
X-15864286Y25274048D01*
X-15864286Y25274048D02*
X-15911905Y25226429D01*
X-15911905Y25226429D02*
X-15959524Y25131191D01*
X-15959524Y25131191D02*
X-15959524Y24893096D01*
X-15959524Y24893096D02*
X-15911905Y24797858D01*
X-15911905Y24797858D02*
X-15864286Y24750239D01*
X-15864286Y24750239D02*
X-15769048Y24702620D01*
X-15769048Y24702620D02*
X-15483334Y24702620D01*
X-15483334Y24702620D02*
X-15388096Y24750239D01*
X-15388096Y24750239D02*
X-15340477Y24797858D01*
X-16816667Y25369286D02*
X-16816667Y24702620D01*
X-16578572Y25750239D02*
X-16340477Y25035953D01*
X-16340477Y25035953D02*
X-16959524Y25035953D01*
%TO.C,SW3*%
X-10916668Y-14819761D02*
X-11059525Y-14867380D01*
X-11059525Y-14867380D02*
X-11297620Y-14867380D01*
X-11297620Y-14867380D02*
X-11392858Y-14819761D01*
X-11392858Y-14819761D02*
X-11440477Y-14772142D01*
X-11440477Y-14772142D02*
X-11488096Y-14676904D01*
X-11488096Y-14676904D02*
X-11488096Y-14581666D01*
X-11488096Y-14581666D02*
X-11440477Y-14486428D01*
X-11440477Y-14486428D02*
X-11392858Y-14438809D01*
X-11392858Y-14438809D02*
X-11297620Y-14391190D01*
X-11297620Y-14391190D02*
X-11107144Y-14343571D01*
X-11107144Y-14343571D02*
X-11011906Y-14295952D01*
X-11011906Y-14295952D02*
X-10964287Y-14248333D01*
X-10964287Y-14248333D02*
X-10916668Y-14153095D01*
X-10916668Y-14153095D02*
X-10916668Y-14057857D01*
X-10916668Y-14057857D02*
X-10964287Y-13962619D01*
X-10964287Y-13962619D02*
X-11011906Y-13915000D01*
X-11011906Y-13915000D02*
X-11107144Y-13867380D01*
X-11107144Y-13867380D02*
X-11345239Y-13867380D01*
X-11345239Y-13867380D02*
X-11488096Y-13915000D01*
X-11821430Y-13867380D02*
X-12059525Y-14867380D01*
X-12059525Y-14867380D02*
X-12250001Y-14153095D01*
X-12250001Y-14153095D02*
X-12440477Y-14867380D01*
X-12440477Y-14867380D02*
X-12678572Y-13867380D01*
X-12964287Y-13867380D02*
X-13583334Y-13867380D01*
X-13583334Y-13867380D02*
X-13250001Y-14248333D01*
X-13250001Y-14248333D02*
X-13392858Y-14248333D01*
X-13392858Y-14248333D02*
X-13488096Y-14295952D01*
X-13488096Y-14295952D02*
X-13535715Y-14343571D01*
X-13535715Y-14343571D02*
X-13583334Y-14438809D01*
X-13583334Y-14438809D02*
X-13583334Y-14676904D01*
X-13583334Y-14676904D02*
X-13535715Y-14772142D01*
X-13535715Y-14772142D02*
X-13488096Y-14819761D01*
X-13488096Y-14819761D02*
X-13392858Y-14867380D01*
X-13392858Y-14867380D02*
X-13107144Y-14867380D01*
X-13107144Y-14867380D02*
X-13011906Y-14819761D01*
X-13011906Y-14819761D02*
X-12964287Y-14772142D01*
%TO.C,C27*%
X22632142Y-5187142D02*
X22679761Y-5139523D01*
X22679761Y-5139523D02*
X22727380Y-4996666D01*
X22727380Y-4996666D02*
X22727380Y-4901428D01*
X22727380Y-4901428D02*
X22679761Y-4758571D01*
X22679761Y-4758571D02*
X22584523Y-4663333D01*
X22584523Y-4663333D02*
X22489285Y-4615714D01*
X22489285Y-4615714D02*
X22298809Y-4568095D01*
X22298809Y-4568095D02*
X22155952Y-4568095D01*
X22155952Y-4568095D02*
X21965476Y-4615714D01*
X21965476Y-4615714D02*
X21870238Y-4663333D01*
X21870238Y-4663333D02*
X21775000Y-4758571D01*
X21775000Y-4758571D02*
X21727380Y-4901428D01*
X21727380Y-4901428D02*
X21727380Y-4996666D01*
X21727380Y-4996666D02*
X21775000Y-5139523D01*
X21775000Y-5139523D02*
X21822619Y-5187142D01*
X21822619Y-5568095D02*
X21775000Y-5615714D01*
X21775000Y-5615714D02*
X21727380Y-5710952D01*
X21727380Y-5710952D02*
X21727380Y-5949047D01*
X21727380Y-5949047D02*
X21775000Y-6044285D01*
X21775000Y-6044285D02*
X21822619Y-6091904D01*
X21822619Y-6091904D02*
X21917857Y-6139523D01*
X21917857Y-6139523D02*
X22013095Y-6139523D01*
X22013095Y-6139523D02*
X22155952Y-6091904D01*
X22155952Y-6091904D02*
X22727380Y-5520476D01*
X22727380Y-5520476D02*
X22727380Y-6139523D01*
X21727380Y-6472857D02*
X21727380Y-7139523D01*
X21727380Y-7139523D02*
X22727380Y-6710952D01*
%TO.C,D1*%
X-18761906Y-3867380D02*
X-18761906Y-2867380D01*
X-18761906Y-2867380D02*
X-19000001Y-2867380D01*
X-19000001Y-2867380D02*
X-19142858Y-2915000D01*
X-19142858Y-2915000D02*
X-19238096Y-3010238D01*
X-19238096Y-3010238D02*
X-19285715Y-3105476D01*
X-19285715Y-3105476D02*
X-19333334Y-3295952D01*
X-19333334Y-3295952D02*
X-19333334Y-3438809D01*
X-19333334Y-3438809D02*
X-19285715Y-3629285D01*
X-19285715Y-3629285D02*
X-19238096Y-3724523D01*
X-19238096Y-3724523D02*
X-19142858Y-3819761D01*
X-19142858Y-3819761D02*
X-19000001Y-3867380D01*
X-19000001Y-3867380D02*
X-18761906Y-3867380D01*
X-20285715Y-3867380D02*
X-19714287Y-3867380D01*
X-20000001Y-3867380D02*
X-20000001Y-2867380D01*
X-20000001Y-2867380D02*
X-19904763Y-3010238D01*
X-19904763Y-3010238D02*
X-19809525Y-3105476D01*
X-19809525Y-3105476D02*
X-19714287Y-3153095D01*
X-15635715Y-5767380D02*
X-15064287Y-5767380D01*
X-15350001Y-5767380D02*
X-15350001Y-4767380D01*
X-15350001Y-4767380D02*
X-15254763Y-4910238D01*
X-15254763Y-4910238D02*
X-15159525Y-5005476D01*
X-15159525Y-5005476D02*
X-15064287Y-5053095D01*
%TO.C,C25*%
X-16337858Y-5157142D02*
X-16290239Y-5109523D01*
X-16290239Y-5109523D02*
X-16242620Y-4966666D01*
X-16242620Y-4966666D02*
X-16242620Y-4871428D01*
X-16242620Y-4871428D02*
X-16290239Y-4728571D01*
X-16290239Y-4728571D02*
X-16385477Y-4633333D01*
X-16385477Y-4633333D02*
X-16480715Y-4585714D01*
X-16480715Y-4585714D02*
X-16671191Y-4538095D01*
X-16671191Y-4538095D02*
X-16814048Y-4538095D01*
X-16814048Y-4538095D02*
X-17004524Y-4585714D01*
X-17004524Y-4585714D02*
X-17099762Y-4633333D01*
X-17099762Y-4633333D02*
X-17195000Y-4728571D01*
X-17195000Y-4728571D02*
X-17242620Y-4871428D01*
X-17242620Y-4871428D02*
X-17242620Y-4966666D01*
X-17242620Y-4966666D02*
X-17195000Y-5109523D01*
X-17195000Y-5109523D02*
X-17147381Y-5157142D01*
X-17147381Y-5538095D02*
X-17195000Y-5585714D01*
X-17195000Y-5585714D02*
X-17242620Y-5680952D01*
X-17242620Y-5680952D02*
X-17242620Y-5919047D01*
X-17242620Y-5919047D02*
X-17195000Y-6014285D01*
X-17195000Y-6014285D02*
X-17147381Y-6061904D01*
X-17147381Y-6061904D02*
X-17052143Y-6109523D01*
X-17052143Y-6109523D02*
X-16956905Y-6109523D01*
X-16956905Y-6109523D02*
X-16814048Y-6061904D01*
X-16814048Y-6061904D02*
X-16242620Y-5490476D01*
X-16242620Y-5490476D02*
X-16242620Y-6109523D01*
X-17242620Y-7014285D02*
X-17242620Y-6538095D01*
X-17242620Y-6538095D02*
X-16766429Y-6490476D01*
X-16766429Y-6490476D02*
X-16814048Y-6538095D01*
X-16814048Y-6538095D02*
X-16861667Y-6633333D01*
X-16861667Y-6633333D02*
X-16861667Y-6871428D01*
X-16861667Y-6871428D02*
X-16814048Y-6966666D01*
X-16814048Y-6966666D02*
X-16766429Y-7014285D01*
X-16766429Y-7014285D02*
X-16671191Y-7061904D01*
X-16671191Y-7061904D02*
X-16433096Y-7061904D01*
X-16433096Y-7061904D02*
X-16337858Y-7014285D01*
X-16337858Y-7014285D02*
X-16290239Y-6966666D01*
X-16290239Y-6966666D02*
X-16242620Y-6871428D01*
X-16242620Y-6871428D02*
X-16242620Y-6633333D01*
X-16242620Y-6633333D02*
X-16290239Y-6538095D01*
X-16290239Y-6538095D02*
X-16337858Y-6490476D01*
%TO.C,C29*%
X17657142Y22927858D02*
X17704761Y22975477D01*
X17704761Y22975477D02*
X17752380Y23118334D01*
X17752380Y23118334D02*
X17752380Y23213572D01*
X17752380Y23213572D02*
X17704761Y23356429D01*
X17704761Y23356429D02*
X17609523Y23451667D01*
X17609523Y23451667D02*
X17514285Y23499286D01*
X17514285Y23499286D02*
X17323809Y23546905D01*
X17323809Y23546905D02*
X17180952Y23546905D01*
X17180952Y23546905D02*
X16990476Y23499286D01*
X16990476Y23499286D02*
X16895238Y23451667D01*
X16895238Y23451667D02*
X16800000Y23356429D01*
X16800000Y23356429D02*
X16752380Y23213572D01*
X16752380Y23213572D02*
X16752380Y23118334D01*
X16752380Y23118334D02*
X16800000Y22975477D01*
X16800000Y22975477D02*
X16847619Y22927858D01*
X16847619Y22546905D02*
X16800000Y22499286D01*
X16800000Y22499286D02*
X16752380Y22404048D01*
X16752380Y22404048D02*
X16752380Y22165953D01*
X16752380Y22165953D02*
X16800000Y22070715D01*
X16800000Y22070715D02*
X16847619Y22023096D01*
X16847619Y22023096D02*
X16942857Y21975477D01*
X16942857Y21975477D02*
X17038095Y21975477D01*
X17038095Y21975477D02*
X17180952Y22023096D01*
X17180952Y22023096D02*
X17752380Y22594524D01*
X17752380Y22594524D02*
X17752380Y21975477D01*
X17752380Y21499286D02*
X17752380Y21308810D01*
X17752380Y21308810D02*
X17704761Y21213572D01*
X17704761Y21213572D02*
X17657142Y21165953D01*
X17657142Y21165953D02*
X17514285Y21070715D01*
X17514285Y21070715D02*
X17323809Y21023096D01*
X17323809Y21023096D02*
X16942857Y21023096D01*
X16942857Y21023096D02*
X16847619Y21070715D01*
X16847619Y21070715D02*
X16800000Y21118334D01*
X16800000Y21118334D02*
X16752380Y21213572D01*
X16752380Y21213572D02*
X16752380Y21404048D01*
X16752380Y21404048D02*
X16800000Y21499286D01*
X16800000Y21499286D02*
X16847619Y21546905D01*
X16847619Y21546905D02*
X16942857Y21594524D01*
X16942857Y21594524D02*
X17180952Y21594524D01*
X17180952Y21594524D02*
X17276190Y21546905D01*
X17276190Y21546905D02*
X17323809Y21499286D01*
X17323809Y21499286D02*
X17371428Y21404048D01*
X17371428Y21404048D02*
X17371428Y21213572D01*
X17371428Y21213572D02*
X17323809Y21118334D01*
X17323809Y21118334D02*
X17276190Y21070715D01*
X17276190Y21070715D02*
X17180952Y21023096D01*
%TO.C,H2*%
X-22738096Y18132620D02*
X-22738096Y19132620D01*
X-22738096Y18656429D02*
X-23309524Y18656429D01*
X-23309524Y18132620D02*
X-23309524Y19132620D01*
X-23738096Y19037381D02*
X-23785715Y19085000D01*
X-23785715Y19085000D02*
X-23880953Y19132620D01*
X-23880953Y19132620D02*
X-24119048Y19132620D01*
X-24119048Y19132620D02*
X-24214286Y19085000D01*
X-24214286Y19085000D02*
X-24261905Y19037381D01*
X-24261905Y19037381D02*
X-24309524Y18942143D01*
X-24309524Y18942143D02*
X-24309524Y18846905D01*
X-24309524Y18846905D02*
X-24261905Y18704048D01*
X-24261905Y18704048D02*
X-23690477Y18132620D01*
X-23690477Y18132620D02*
X-24309524Y18132620D01*
%TO.C,C26*%
X3142142Y-5127142D02*
X3189761Y-5079523D01*
X3189761Y-5079523D02*
X3237380Y-4936666D01*
X3237380Y-4936666D02*
X3237380Y-4841428D01*
X3237380Y-4841428D02*
X3189761Y-4698571D01*
X3189761Y-4698571D02*
X3094523Y-4603333D01*
X3094523Y-4603333D02*
X2999285Y-4555714D01*
X2999285Y-4555714D02*
X2808809Y-4508095D01*
X2808809Y-4508095D02*
X2665952Y-4508095D01*
X2665952Y-4508095D02*
X2475476Y-4555714D01*
X2475476Y-4555714D02*
X2380238Y-4603333D01*
X2380238Y-4603333D02*
X2285000Y-4698571D01*
X2285000Y-4698571D02*
X2237380Y-4841428D01*
X2237380Y-4841428D02*
X2237380Y-4936666D01*
X2237380Y-4936666D02*
X2285000Y-5079523D01*
X2285000Y-5079523D02*
X2332619Y-5127142D01*
X2332619Y-5508095D02*
X2285000Y-5555714D01*
X2285000Y-5555714D02*
X2237380Y-5650952D01*
X2237380Y-5650952D02*
X2237380Y-5889047D01*
X2237380Y-5889047D02*
X2285000Y-5984285D01*
X2285000Y-5984285D02*
X2332619Y-6031904D01*
X2332619Y-6031904D02*
X2427857Y-6079523D01*
X2427857Y-6079523D02*
X2523095Y-6079523D01*
X2523095Y-6079523D02*
X2665952Y-6031904D01*
X2665952Y-6031904D02*
X3237380Y-5460476D01*
X3237380Y-5460476D02*
X3237380Y-6079523D01*
X2237380Y-6936666D02*
X2237380Y-6746190D01*
X2237380Y-6746190D02*
X2285000Y-6650952D01*
X2285000Y-6650952D02*
X2332619Y-6603333D01*
X2332619Y-6603333D02*
X2475476Y-6508095D01*
X2475476Y-6508095D02*
X2665952Y-6460476D01*
X2665952Y-6460476D02*
X3046904Y-6460476D01*
X3046904Y-6460476D02*
X3142142Y-6508095D01*
X3142142Y-6508095D02*
X3189761Y-6555714D01*
X3189761Y-6555714D02*
X3237380Y-6650952D01*
X3237380Y-6650952D02*
X3237380Y-6841428D01*
X3237380Y-6841428D02*
X3189761Y-6936666D01*
X3189761Y-6936666D02*
X3142142Y-6984285D01*
X3142142Y-6984285D02*
X3046904Y-7031904D01*
X3046904Y-7031904D02*
X2808809Y-7031904D01*
X2808809Y-7031904D02*
X2713571Y-6984285D01*
X2713571Y-6984285D02*
X2665952Y-6936666D01*
X2665952Y-6936666D02*
X2618333Y-6841428D01*
X2618333Y-6841428D02*
X2618333Y-6650952D01*
X2618333Y-6650952D02*
X2665952Y-6555714D01*
X2665952Y-6555714D02*
X2713571Y-6508095D01*
X2713571Y-6508095D02*
X2808809Y-6460476D01*
%TO.C,C32*%
X-4847143Y-22282142D02*
X-4799524Y-22329761D01*
X-4799524Y-22329761D02*
X-4656667Y-22377380D01*
X-4656667Y-22377380D02*
X-4561429Y-22377380D01*
X-4561429Y-22377380D02*
X-4418572Y-22329761D01*
X-4418572Y-22329761D02*
X-4323334Y-22234523D01*
X-4323334Y-22234523D02*
X-4275715Y-22139285D01*
X-4275715Y-22139285D02*
X-4228096Y-21948809D01*
X-4228096Y-21948809D02*
X-4228096Y-21805952D01*
X-4228096Y-21805952D02*
X-4275715Y-21615476D01*
X-4275715Y-21615476D02*
X-4323334Y-21520238D01*
X-4323334Y-21520238D02*
X-4418572Y-21425000D01*
X-4418572Y-21425000D02*
X-4561429Y-21377380D01*
X-4561429Y-21377380D02*
X-4656667Y-21377380D01*
X-4656667Y-21377380D02*
X-4799524Y-21425000D01*
X-4799524Y-21425000D02*
X-4847143Y-21472619D01*
X-5180477Y-21377380D02*
X-5799524Y-21377380D01*
X-5799524Y-21377380D02*
X-5466191Y-21758333D01*
X-5466191Y-21758333D02*
X-5609048Y-21758333D01*
X-5609048Y-21758333D02*
X-5704286Y-21805952D01*
X-5704286Y-21805952D02*
X-5751905Y-21853571D01*
X-5751905Y-21853571D02*
X-5799524Y-21948809D01*
X-5799524Y-21948809D02*
X-5799524Y-22186904D01*
X-5799524Y-22186904D02*
X-5751905Y-22282142D01*
X-5751905Y-22282142D02*
X-5704286Y-22329761D01*
X-5704286Y-22329761D02*
X-5609048Y-22377380D01*
X-5609048Y-22377380D02*
X-5323334Y-22377380D01*
X-5323334Y-22377380D02*
X-5228096Y-22329761D01*
X-5228096Y-22329761D02*
X-5180477Y-22282142D01*
X-6180477Y-21472619D02*
X-6228096Y-21425000D01*
X-6228096Y-21425000D02*
X-6323334Y-21377380D01*
X-6323334Y-21377380D02*
X-6561429Y-21377380D01*
X-6561429Y-21377380D02*
X-6656667Y-21425000D01*
X-6656667Y-21425000D02*
X-6704286Y-21472619D01*
X-6704286Y-21472619D02*
X-6751905Y-21567857D01*
X-6751905Y-21567857D02*
X-6751905Y-21663095D01*
X-6751905Y-21663095D02*
X-6704286Y-21805952D01*
X-6704286Y-21805952D02*
X-6132858Y-22377380D01*
X-6132858Y-22377380D02*
X-6751905Y-22377380D01*
%TO.C,D3*%
X20238094Y-3867380D02*
X20238094Y-2867380D01*
X20238094Y-2867380D02*
X19999999Y-2867380D01*
X19999999Y-2867380D02*
X19857142Y-2915000D01*
X19857142Y-2915000D02*
X19761904Y-3010238D01*
X19761904Y-3010238D02*
X19714285Y-3105476D01*
X19714285Y-3105476D02*
X19666666Y-3295952D01*
X19666666Y-3295952D02*
X19666666Y-3438809D01*
X19666666Y-3438809D02*
X19714285Y-3629285D01*
X19714285Y-3629285D02*
X19761904Y-3724523D01*
X19761904Y-3724523D02*
X19857142Y-3819761D01*
X19857142Y-3819761D02*
X19999999Y-3867380D01*
X19999999Y-3867380D02*
X20238094Y-3867380D01*
X19333332Y-2867380D02*
X18714285Y-2867380D01*
X18714285Y-2867380D02*
X19047618Y-3248333D01*
X19047618Y-3248333D02*
X18904761Y-3248333D01*
X18904761Y-3248333D02*
X18809523Y-3295952D01*
X18809523Y-3295952D02*
X18761904Y-3343571D01*
X18761904Y-3343571D02*
X18714285Y-3438809D01*
X18714285Y-3438809D02*
X18714285Y-3676904D01*
X18714285Y-3676904D02*
X18761904Y-3772142D01*
X18761904Y-3772142D02*
X18809523Y-3819761D01*
X18809523Y-3819761D02*
X18904761Y-3867380D01*
X18904761Y-3867380D02*
X19190475Y-3867380D01*
X19190475Y-3867380D02*
X19285713Y-3819761D01*
X19285713Y-3819761D02*
X19333332Y-3772142D01*
X23364285Y-5767380D02*
X23935713Y-5767380D01*
X23649999Y-5767380D02*
X23649999Y-4767380D01*
X23649999Y-4767380D02*
X23745237Y-4910238D01*
X23745237Y-4910238D02*
X23840475Y-5005476D01*
X23840475Y-5005476D02*
X23935713Y-5053095D01*
%TO.C,H1*%
X24261904Y18132620D02*
X24261904Y19132620D01*
X24261904Y18656429D02*
X23690476Y18656429D01*
X23690476Y18132620D02*
X23690476Y19132620D01*
X22690476Y18132620D02*
X23261904Y18132620D01*
X22976190Y18132620D02*
X22976190Y19132620D01*
X22976190Y19132620D02*
X23071428Y18989762D01*
X23071428Y18989762D02*
X23166666Y18894524D01*
X23166666Y18894524D02*
X23261904Y18846905D01*
%TO.C,SW2*%
X-15236668Y11735239D02*
X-15379525Y11687620D01*
X-15379525Y11687620D02*
X-15617620Y11687620D01*
X-15617620Y11687620D02*
X-15712858Y11735239D01*
X-15712858Y11735239D02*
X-15760477Y11782858D01*
X-15760477Y11782858D02*
X-15808096Y11878096D01*
X-15808096Y11878096D02*
X-15808096Y11973334D01*
X-15808096Y11973334D02*
X-15760477Y12068572D01*
X-15760477Y12068572D02*
X-15712858Y12116191D01*
X-15712858Y12116191D02*
X-15617620Y12163810D01*
X-15617620Y12163810D02*
X-15427144Y12211429D01*
X-15427144Y12211429D02*
X-15331906Y12259048D01*
X-15331906Y12259048D02*
X-15284287Y12306667D01*
X-15284287Y12306667D02*
X-15236668Y12401905D01*
X-15236668Y12401905D02*
X-15236668Y12497143D01*
X-15236668Y12497143D02*
X-15284287Y12592381D01*
X-15284287Y12592381D02*
X-15331906Y12640000D01*
X-15331906Y12640000D02*
X-15427144Y12687620D01*
X-15427144Y12687620D02*
X-15665239Y12687620D01*
X-15665239Y12687620D02*
X-15808096Y12640000D01*
X-16141430Y12687620D02*
X-16379525Y11687620D01*
X-16379525Y11687620D02*
X-16570001Y12401905D01*
X-16570001Y12401905D02*
X-16760477Y11687620D01*
X-16760477Y11687620D02*
X-16998572Y12687620D01*
X-17331906Y12592381D02*
X-17379525Y12640000D01*
X-17379525Y12640000D02*
X-17474763Y12687620D01*
X-17474763Y12687620D02*
X-17712858Y12687620D01*
X-17712858Y12687620D02*
X-17808096Y12640000D01*
X-17808096Y12640000D02*
X-17855715Y12592381D01*
X-17855715Y12592381D02*
X-17903334Y12497143D01*
X-17903334Y12497143D02*
X-17903334Y12401905D01*
X-17903334Y12401905D02*
X-17855715Y12259048D01*
X-17855715Y12259048D02*
X-17284287Y11687620D01*
X-17284287Y11687620D02*
X-17903334Y11687620D01*
X-15661905Y8212620D02*
X-15328572Y8688810D01*
X-15090477Y8212620D02*
X-15090477Y9212620D01*
X-15090477Y9212620D02*
X-15471429Y9212620D01*
X-15471429Y9212620D02*
X-15566667Y9165000D01*
X-15566667Y9165000D02*
X-15614286Y9117381D01*
X-15614286Y9117381D02*
X-15661905Y9022143D01*
X-15661905Y9022143D02*
X-15661905Y8879286D01*
X-15661905Y8879286D02*
X-15614286Y8784048D01*
X-15614286Y8784048D02*
X-15566667Y8736429D01*
X-15566667Y8736429D02*
X-15471429Y8688810D01*
X-15471429Y8688810D02*
X-15090477Y8688810D01*
X-16090477Y9212620D02*
X-16090477Y8403096D01*
X-16090477Y8403096D02*
X-16138096Y8307858D01*
X-16138096Y8307858D02*
X-16185715Y8260239D01*
X-16185715Y8260239D02*
X-16280953Y8212620D01*
X-16280953Y8212620D02*
X-16471429Y8212620D01*
X-16471429Y8212620D02*
X-16566667Y8260239D01*
X-16566667Y8260239D02*
X-16614286Y8307858D01*
X-16614286Y8307858D02*
X-16661905Y8403096D01*
X-16661905Y8403096D02*
X-16661905Y9212620D01*
X-17138096Y8212620D02*
X-17138096Y9212620D01*
X-17138096Y9212620D02*
X-17709524Y8212620D01*
X-17709524Y8212620D02*
X-17709524Y9212620D01*
%TO.C,D2*%
X738094Y-3867380D02*
X738094Y-2867380D01*
X738094Y-2867380D02*
X499999Y-2867380D01*
X499999Y-2867380D02*
X357142Y-2915000D01*
X357142Y-2915000D02*
X261904Y-3010238D01*
X261904Y-3010238D02*
X214285Y-3105476D01*
X214285Y-3105476D02*
X166666Y-3295952D01*
X166666Y-3295952D02*
X166666Y-3438809D01*
X166666Y-3438809D02*
X214285Y-3629285D01*
X214285Y-3629285D02*
X261904Y-3724523D01*
X261904Y-3724523D02*
X357142Y-3819761D01*
X357142Y-3819761D02*
X499999Y-3867380D01*
X499999Y-3867380D02*
X738094Y-3867380D01*
X-214287Y-2962619D02*
X-261906Y-2915000D01*
X-261906Y-2915000D02*
X-357144Y-2867380D01*
X-357144Y-2867380D02*
X-595239Y-2867380D01*
X-595239Y-2867380D02*
X-690477Y-2915000D01*
X-690477Y-2915000D02*
X-738096Y-2962619D01*
X-738096Y-2962619D02*
X-785715Y-3057857D01*
X-785715Y-3057857D02*
X-785715Y-3153095D01*
X-785715Y-3153095D02*
X-738096Y-3295952D01*
X-738096Y-3295952D02*
X-166668Y-3867380D01*
X-166668Y-3867380D02*
X-785715Y-3867380D01*
X3864285Y-5767380D02*
X4435713Y-5767380D01*
X4149999Y-5767380D02*
X4149999Y-4767380D01*
X4149999Y-4767380D02*
X4245237Y-4910238D01*
X4245237Y-4910238D02*
X4340475Y-5005476D01*
X4340475Y-5005476D02*
X4435713Y-5053095D01*
%TO.C,C30*%
X25157142Y-14582142D02*
X25204761Y-14534523D01*
X25204761Y-14534523D02*
X25252380Y-14391666D01*
X25252380Y-14391666D02*
X25252380Y-14296428D01*
X25252380Y-14296428D02*
X25204761Y-14153571D01*
X25204761Y-14153571D02*
X25109523Y-14058333D01*
X25109523Y-14058333D02*
X25014285Y-14010714D01*
X25014285Y-14010714D02*
X24823809Y-13963095D01*
X24823809Y-13963095D02*
X24680952Y-13963095D01*
X24680952Y-13963095D02*
X24490476Y-14010714D01*
X24490476Y-14010714D02*
X24395238Y-14058333D01*
X24395238Y-14058333D02*
X24300000Y-14153571D01*
X24300000Y-14153571D02*
X24252380Y-14296428D01*
X24252380Y-14296428D02*
X24252380Y-14391666D01*
X24252380Y-14391666D02*
X24300000Y-14534523D01*
X24300000Y-14534523D02*
X24347619Y-14582142D01*
X24252380Y-14915476D02*
X24252380Y-15534523D01*
X24252380Y-15534523D02*
X24633333Y-15201190D01*
X24633333Y-15201190D02*
X24633333Y-15344047D01*
X24633333Y-15344047D02*
X24680952Y-15439285D01*
X24680952Y-15439285D02*
X24728571Y-15486904D01*
X24728571Y-15486904D02*
X24823809Y-15534523D01*
X24823809Y-15534523D02*
X25061904Y-15534523D01*
X25061904Y-15534523D02*
X25157142Y-15486904D01*
X25157142Y-15486904D02*
X25204761Y-15439285D01*
X25204761Y-15439285D02*
X25252380Y-15344047D01*
X25252380Y-15344047D02*
X25252380Y-15058333D01*
X25252380Y-15058333D02*
X25204761Y-14963095D01*
X25204761Y-14963095D02*
X25157142Y-14915476D01*
X24252380Y-16153571D02*
X24252380Y-16248809D01*
X24252380Y-16248809D02*
X24300000Y-16344047D01*
X24300000Y-16344047D02*
X24347619Y-16391666D01*
X24347619Y-16391666D02*
X24442857Y-16439285D01*
X24442857Y-16439285D02*
X24633333Y-16486904D01*
X24633333Y-16486904D02*
X24871428Y-16486904D01*
X24871428Y-16486904D02*
X25061904Y-16439285D01*
X25061904Y-16439285D02*
X25157142Y-16391666D01*
X25157142Y-16391666D02*
X25204761Y-16344047D01*
X25204761Y-16344047D02*
X25252380Y-16248809D01*
X25252380Y-16248809D02*
X25252380Y-16153571D01*
X25252380Y-16153571D02*
X25204761Y-16058333D01*
X25204761Y-16058333D02*
X25157142Y-16010714D01*
X25157142Y-16010714D02*
X25061904Y-15963095D01*
X25061904Y-15963095D02*
X24871428Y-15915476D01*
X24871428Y-15915476D02*
X24633333Y-15915476D01*
X24633333Y-15915476D02*
X24442857Y-15963095D01*
X24442857Y-15963095D02*
X24347619Y-16010714D01*
X24347619Y-16010714D02*
X24300000Y-16058333D01*
X24300000Y-16058333D02*
X24252380Y-16153571D01*
%TO.C,SW5*%
X1083332Y-14819761D02*
X940475Y-14867380D01*
X940475Y-14867380D02*
X702380Y-14867380D01*
X702380Y-14867380D02*
X607142Y-14819761D01*
X607142Y-14819761D02*
X559523Y-14772142D01*
X559523Y-14772142D02*
X511904Y-14676904D01*
X511904Y-14676904D02*
X511904Y-14581666D01*
X511904Y-14581666D02*
X559523Y-14486428D01*
X559523Y-14486428D02*
X607142Y-14438809D01*
X607142Y-14438809D02*
X702380Y-14391190D01*
X702380Y-14391190D02*
X892856Y-14343571D01*
X892856Y-14343571D02*
X988094Y-14295952D01*
X988094Y-14295952D02*
X1035713Y-14248333D01*
X1035713Y-14248333D02*
X1083332Y-14153095D01*
X1083332Y-14153095D02*
X1083332Y-14057857D01*
X1083332Y-14057857D02*
X1035713Y-13962619D01*
X1035713Y-13962619D02*
X988094Y-13915000D01*
X988094Y-13915000D02*
X892856Y-13867380D01*
X892856Y-13867380D02*
X654761Y-13867380D01*
X654761Y-13867380D02*
X511904Y-13915000D01*
X178570Y-13867380D02*
X-59525Y-14867380D01*
X-59525Y-14867380D02*
X-250001Y-14153095D01*
X-250001Y-14153095D02*
X-440477Y-14867380D01*
X-440477Y-14867380D02*
X-678572Y-13867380D01*
X-1535715Y-13867380D02*
X-1059525Y-13867380D01*
X-1059525Y-13867380D02*
X-1011906Y-14343571D01*
X-1011906Y-14343571D02*
X-1059525Y-14295952D01*
X-1059525Y-14295952D02*
X-1154763Y-14248333D01*
X-1154763Y-14248333D02*
X-1392858Y-14248333D01*
X-1392858Y-14248333D02*
X-1488096Y-14295952D01*
X-1488096Y-14295952D02*
X-1535715Y-14343571D01*
X-1535715Y-14343571D02*
X-1583334Y-14438809D01*
X-1583334Y-14438809D02*
X-1583334Y-14676904D01*
X-1583334Y-14676904D02*
X-1535715Y-14772142D01*
X-1535715Y-14772142D02*
X-1488096Y-14819761D01*
X-1488096Y-14819761D02*
X-1392858Y-14867380D01*
X-1392858Y-14867380D02*
X-1154763Y-14867380D01*
X-1154763Y-14867380D02*
X-1059525Y-14819761D01*
X-1059525Y-14819761D02*
X-1011906Y-14772142D01*
%TO.C,D4*%
X1168094Y18742620D02*
X1168094Y19742620D01*
X1168094Y19742620D02*
X929999Y19742620D01*
X929999Y19742620D02*
X787142Y19695000D01*
X787142Y19695000D02*
X691904Y19599762D01*
X691904Y19599762D02*
X644285Y19504524D01*
X644285Y19504524D02*
X596666Y19314048D01*
X596666Y19314048D02*
X596666Y19171191D01*
X596666Y19171191D02*
X644285Y18980715D01*
X644285Y18980715D02*
X691904Y18885477D01*
X691904Y18885477D02*
X787142Y18790239D01*
X787142Y18790239D02*
X929999Y18742620D01*
X929999Y18742620D02*
X1168094Y18742620D01*
X-260477Y19409286D02*
X-260477Y18742620D01*
X-22382Y19790239D02*
X215713Y19075953D01*
X215713Y19075953D02*
X-403334Y19075953D01*
X4294285Y16842620D02*
X4865713Y16842620D01*
X4579999Y16842620D02*
X4579999Y17842620D01*
X4579999Y17842620D02*
X4675237Y17699762D01*
X4675237Y17699762D02*
X4770475Y17604524D01*
X4770475Y17604524D02*
X4865713Y17556905D01*
%TO.C,C28*%
X4792142Y20042858D02*
X4839761Y20090477D01*
X4839761Y20090477D02*
X4887380Y20233334D01*
X4887380Y20233334D02*
X4887380Y20328572D01*
X4887380Y20328572D02*
X4839761Y20471429D01*
X4839761Y20471429D02*
X4744523Y20566667D01*
X4744523Y20566667D02*
X4649285Y20614286D01*
X4649285Y20614286D02*
X4458809Y20661905D01*
X4458809Y20661905D02*
X4315952Y20661905D01*
X4315952Y20661905D02*
X4125476Y20614286D01*
X4125476Y20614286D02*
X4030238Y20566667D01*
X4030238Y20566667D02*
X3935000Y20471429D01*
X3935000Y20471429D02*
X3887380Y20328572D01*
X3887380Y20328572D02*
X3887380Y20233334D01*
X3887380Y20233334D02*
X3935000Y20090477D01*
X3935000Y20090477D02*
X3982619Y20042858D01*
X3982619Y19661905D02*
X3935000Y19614286D01*
X3935000Y19614286D02*
X3887380Y19519048D01*
X3887380Y19519048D02*
X3887380Y19280953D01*
X3887380Y19280953D02*
X3935000Y19185715D01*
X3935000Y19185715D02*
X3982619Y19138096D01*
X3982619Y19138096D02*
X4077857Y19090477D01*
X4077857Y19090477D02*
X4173095Y19090477D01*
X4173095Y19090477D02*
X4315952Y19138096D01*
X4315952Y19138096D02*
X4887380Y19709524D01*
X4887380Y19709524D02*
X4887380Y19090477D01*
X4315952Y18519048D02*
X4268333Y18614286D01*
X4268333Y18614286D02*
X4220714Y18661905D01*
X4220714Y18661905D02*
X4125476Y18709524D01*
X4125476Y18709524D02*
X4077857Y18709524D01*
X4077857Y18709524D02*
X3982619Y18661905D01*
X3982619Y18661905D02*
X3935000Y18614286D01*
X3935000Y18614286D02*
X3887380Y18519048D01*
X3887380Y18519048D02*
X3887380Y18328572D01*
X3887380Y18328572D02*
X3935000Y18233334D01*
X3935000Y18233334D02*
X3982619Y18185715D01*
X3982619Y18185715D02*
X4077857Y18138096D01*
X4077857Y18138096D02*
X4125476Y18138096D01*
X4125476Y18138096D02*
X4220714Y18185715D01*
X4220714Y18185715D02*
X4268333Y18233334D01*
X4268333Y18233334D02*
X4315952Y18328572D01*
X4315952Y18328572D02*
X4315952Y18519048D01*
X4315952Y18519048D02*
X4363571Y18614286D01*
X4363571Y18614286D02*
X4411190Y18661905D01*
X4411190Y18661905D02*
X4506428Y18709524D01*
X4506428Y18709524D02*
X4696904Y18709524D01*
X4696904Y18709524D02*
X4792142Y18661905D01*
X4792142Y18661905D02*
X4839761Y18614286D01*
X4839761Y18614286D02*
X4887380Y18519048D01*
X4887380Y18519048D02*
X4887380Y18328572D01*
X4887380Y18328572D02*
X4839761Y18233334D01*
X4839761Y18233334D02*
X4792142Y18185715D01*
X4792142Y18185715D02*
X4696904Y18138096D01*
X4696904Y18138096D02*
X4506428Y18138096D01*
X4506428Y18138096D02*
X4411190Y18185715D01*
X4411190Y18185715D02*
X4363571Y18233334D01*
X4363571Y18233334D02*
X4315952Y18328572D01*
%TO.C,R9*%
X-267620Y19571667D02*
X-743810Y19905000D01*
X-267620Y20143095D02*
X-1267620Y20143095D01*
X-1267620Y20143095D02*
X-1267620Y19762143D01*
X-1267620Y19762143D02*
X-1220000Y19666905D01*
X-1220000Y19666905D02*
X-1172381Y19619286D01*
X-1172381Y19619286D02*
X-1077143Y19571667D01*
X-1077143Y19571667D02*
X-934286Y19571667D01*
X-934286Y19571667D02*
X-839048Y19619286D01*
X-839048Y19619286D02*
X-791429Y19666905D01*
X-791429Y19666905D02*
X-743810Y19762143D01*
X-743810Y19762143D02*
X-743810Y20143095D01*
X-267620Y19095476D02*
X-267620Y18905000D01*
X-267620Y18905000D02*
X-315239Y18809762D01*
X-315239Y18809762D02*
X-362858Y18762143D01*
X-362858Y18762143D02*
X-505715Y18666905D01*
X-505715Y18666905D02*
X-696191Y18619286D01*
X-696191Y18619286D02*
X-1077143Y18619286D01*
X-1077143Y18619286D02*
X-1172381Y18666905D01*
X-1172381Y18666905D02*
X-1220000Y18714524D01*
X-1220000Y18714524D02*
X-1267620Y18809762D01*
X-1267620Y18809762D02*
X-1267620Y19000238D01*
X-1267620Y19000238D02*
X-1220000Y19095476D01*
X-1220000Y19095476D02*
X-1172381Y19143095D01*
X-1172381Y19143095D02*
X-1077143Y19190714D01*
X-1077143Y19190714D02*
X-839048Y19190714D01*
X-839048Y19190714D02*
X-743810Y19143095D01*
X-743810Y19143095D02*
X-696191Y19095476D01*
X-696191Y19095476D02*
X-648572Y19000238D01*
X-648572Y19000238D02*
X-648572Y18809762D01*
X-648572Y18809762D02*
X-696191Y18714524D01*
X-696191Y18714524D02*
X-743810Y18666905D01*
X-743810Y18666905D02*
X-839048Y18619286D01*
%TO.C,D8*%
X-6831906Y-22816666D02*
X-6831906Y-21816666D01*
X-6831906Y-21816666D02*
X-7070001Y-21816666D01*
X-7070001Y-21816666D02*
X-7212858Y-21864286D01*
X-7212858Y-21864286D02*
X-7308096Y-21959524D01*
X-7308096Y-21959524D02*
X-7355715Y-22054762D01*
X-7355715Y-22054762D02*
X-7403334Y-22245238D01*
X-7403334Y-22245238D02*
X-7403334Y-22388095D01*
X-7403334Y-22388095D02*
X-7355715Y-22578571D01*
X-7355715Y-22578571D02*
X-7308096Y-22673809D01*
X-7308096Y-22673809D02*
X-7212858Y-22769047D01*
X-7212858Y-22769047D02*
X-7070001Y-22816666D01*
X-7070001Y-22816666D02*
X-6831906Y-22816666D01*
X-7974763Y-22245238D02*
X-7879525Y-22197619D01*
X-7879525Y-22197619D02*
X-7831906Y-22150000D01*
X-7831906Y-22150000D02*
X-7784287Y-22054762D01*
X-7784287Y-22054762D02*
X-7784287Y-22007143D01*
X-7784287Y-22007143D02*
X-7831906Y-21911905D01*
X-7831906Y-21911905D02*
X-7879525Y-21864286D01*
X-7879525Y-21864286D02*
X-7974763Y-21816666D01*
X-7974763Y-21816666D02*
X-8165239Y-21816666D01*
X-8165239Y-21816666D02*
X-8260477Y-21864286D01*
X-8260477Y-21864286D02*
X-8308096Y-21911905D01*
X-8308096Y-21911905D02*
X-8355715Y-22007143D01*
X-8355715Y-22007143D02*
X-8355715Y-22054762D01*
X-8355715Y-22054762D02*
X-8308096Y-22150000D01*
X-8308096Y-22150000D02*
X-8260477Y-22197619D01*
X-8260477Y-22197619D02*
X-8165239Y-22245238D01*
X-8165239Y-22245238D02*
X-7974763Y-22245238D01*
X-7974763Y-22245238D02*
X-7879525Y-22292857D01*
X-7879525Y-22292857D02*
X-7831906Y-22340476D01*
X-7831906Y-22340476D02*
X-7784287Y-22435714D01*
X-7784287Y-22435714D02*
X-7784287Y-22626190D01*
X-7784287Y-22626190D02*
X-7831906Y-22721428D01*
X-7831906Y-22721428D02*
X-7879525Y-22769047D01*
X-7879525Y-22769047D02*
X-7974763Y-22816666D01*
X-7974763Y-22816666D02*
X-8165239Y-22816666D01*
X-8165239Y-22816666D02*
X-8260477Y-22769047D01*
X-8260477Y-22769047D02*
X-8308096Y-22721428D01*
X-8308096Y-22721428D02*
X-8355715Y-22626190D01*
X-8355715Y-22626190D02*
X-8355715Y-22435714D01*
X-8355715Y-22435714D02*
X-8308096Y-22340476D01*
X-8308096Y-22340476D02*
X-8260477Y-22292857D01*
X-8260477Y-22292857D02*
X-8165239Y-22245238D01*
X-3635715Y-25267380D02*
X-3064287Y-25267380D01*
X-3350001Y-25267380D02*
X-3350001Y-24267380D01*
X-3350001Y-24267380D02*
X-3254763Y-24410238D01*
X-3254763Y-24410238D02*
X-3159525Y-24505476D01*
X-3159525Y-24505476D02*
X-3064287Y-24553095D01*
%TO.C,D9*%
X-21291906Y-12967380D02*
X-21291906Y-11967380D01*
X-21291906Y-11967380D02*
X-21530001Y-11967380D01*
X-21530001Y-11967380D02*
X-21672858Y-12015000D01*
X-21672858Y-12015000D02*
X-21768096Y-12110238D01*
X-21768096Y-12110238D02*
X-21815715Y-12205476D01*
X-21815715Y-12205476D02*
X-21863334Y-12395952D01*
X-21863334Y-12395952D02*
X-21863334Y-12538809D01*
X-21863334Y-12538809D02*
X-21815715Y-12729285D01*
X-21815715Y-12729285D02*
X-21768096Y-12824523D01*
X-21768096Y-12824523D02*
X-21672858Y-12919761D01*
X-21672858Y-12919761D02*
X-21530001Y-12967380D01*
X-21530001Y-12967380D02*
X-21291906Y-12967380D01*
X-22339525Y-12967380D02*
X-22530001Y-12967380D01*
X-22530001Y-12967380D02*
X-22625239Y-12919761D01*
X-22625239Y-12919761D02*
X-22672858Y-12872142D01*
X-22672858Y-12872142D02*
X-22768096Y-12729285D01*
X-22768096Y-12729285D02*
X-22815715Y-12538809D01*
X-22815715Y-12538809D02*
X-22815715Y-12157857D01*
X-22815715Y-12157857D02*
X-22768096Y-12062619D01*
X-22768096Y-12062619D02*
X-22720477Y-12015000D01*
X-22720477Y-12015000D02*
X-22625239Y-11967380D01*
X-22625239Y-11967380D02*
X-22434763Y-11967380D01*
X-22434763Y-11967380D02*
X-22339525Y-12015000D01*
X-22339525Y-12015000D02*
X-22291906Y-12062619D01*
X-22291906Y-12062619D02*
X-22244287Y-12157857D01*
X-22244287Y-12157857D02*
X-22244287Y-12395952D01*
X-22244287Y-12395952D02*
X-22291906Y-12491190D01*
X-22291906Y-12491190D02*
X-22339525Y-12538809D01*
X-22339525Y-12538809D02*
X-22434763Y-12586428D01*
X-22434763Y-12586428D02*
X-22625239Y-12586428D01*
X-22625239Y-12586428D02*
X-22720477Y-12538809D01*
X-22720477Y-12538809D02*
X-22768096Y-12491190D01*
X-22768096Y-12491190D02*
X-22815715Y-12395952D01*
X-18165715Y-14867380D02*
X-17594287Y-14867380D01*
X-17880001Y-14867380D02*
X-17880001Y-13867380D01*
X-17880001Y-13867380D02*
X-17784763Y-14010238D01*
X-17784763Y-14010238D02*
X-17689525Y-14105476D01*
X-17689525Y-14105476D02*
X-17594287Y-14153095D01*
%TO.C,Q1*%
X-4309762Y15267381D02*
X-4214524Y15315000D01*
X-4214524Y15315000D02*
X-4119286Y15410239D01*
X-4119286Y15410239D02*
X-3976429Y15553096D01*
X-3976429Y15553096D02*
X-3881191Y15600715D01*
X-3881191Y15600715D02*
X-3785953Y15600715D01*
X-3833572Y15362620D02*
X-3738334Y15410239D01*
X-3738334Y15410239D02*
X-3643096Y15505477D01*
X-3643096Y15505477D02*
X-3595477Y15695953D01*
X-3595477Y15695953D02*
X-3595477Y16029286D01*
X-3595477Y16029286D02*
X-3643096Y16219762D01*
X-3643096Y16219762D02*
X-3738334Y16315000D01*
X-3738334Y16315000D02*
X-3833572Y16362620D01*
X-3833572Y16362620D02*
X-4024048Y16362620D01*
X-4024048Y16362620D02*
X-4119286Y16315000D01*
X-4119286Y16315000D02*
X-4214524Y16219762D01*
X-4214524Y16219762D02*
X-4262143Y16029286D01*
X-4262143Y16029286D02*
X-4262143Y15695953D01*
X-4262143Y15695953D02*
X-4214524Y15505477D01*
X-4214524Y15505477D02*
X-4119286Y15410239D01*
X-4119286Y15410239D02*
X-4024048Y15362620D01*
X-4024048Y15362620D02*
X-3833572Y15362620D01*
X-5214524Y15362620D02*
X-4643096Y15362620D01*
X-4928810Y15362620D02*
X-4928810Y16362620D01*
X-4928810Y16362620D02*
X-4833572Y16219762D01*
X-4833572Y16219762D02*
X-4738334Y16124524D01*
X-4738334Y16124524D02*
X-4643096Y16076905D01*
%TO.C,D6*%
X22763094Y-13372380D02*
X22763094Y-12372380D01*
X22763094Y-12372380D02*
X22524999Y-12372380D01*
X22524999Y-12372380D02*
X22382142Y-12420000D01*
X22382142Y-12420000D02*
X22286904Y-12515238D01*
X22286904Y-12515238D02*
X22239285Y-12610476D01*
X22239285Y-12610476D02*
X22191666Y-12800952D01*
X22191666Y-12800952D02*
X22191666Y-12943809D01*
X22191666Y-12943809D02*
X22239285Y-13134285D01*
X22239285Y-13134285D02*
X22286904Y-13229523D01*
X22286904Y-13229523D02*
X22382142Y-13324761D01*
X22382142Y-13324761D02*
X22524999Y-13372380D01*
X22524999Y-13372380D02*
X22763094Y-13372380D01*
X21334523Y-12372380D02*
X21524999Y-12372380D01*
X21524999Y-12372380D02*
X21620237Y-12420000D01*
X21620237Y-12420000D02*
X21667856Y-12467619D01*
X21667856Y-12467619D02*
X21763094Y-12610476D01*
X21763094Y-12610476D02*
X21810713Y-12800952D01*
X21810713Y-12800952D02*
X21810713Y-13181904D01*
X21810713Y-13181904D02*
X21763094Y-13277142D01*
X21763094Y-13277142D02*
X21715475Y-13324761D01*
X21715475Y-13324761D02*
X21620237Y-13372380D01*
X21620237Y-13372380D02*
X21429761Y-13372380D01*
X21429761Y-13372380D02*
X21334523Y-13324761D01*
X21334523Y-13324761D02*
X21286904Y-13277142D01*
X21286904Y-13277142D02*
X21239285Y-13181904D01*
X21239285Y-13181904D02*
X21239285Y-12943809D01*
X21239285Y-12943809D02*
X21286904Y-12848571D01*
X21286904Y-12848571D02*
X21334523Y-12800952D01*
X21334523Y-12800952D02*
X21429761Y-12753333D01*
X21429761Y-12753333D02*
X21620237Y-12753333D01*
X21620237Y-12753333D02*
X21715475Y-12800952D01*
X21715475Y-12800952D02*
X21763094Y-12848571D01*
X21763094Y-12848571D02*
X21810713Y-12943809D01*
X25889285Y-15272380D02*
X26460713Y-15272380D01*
X26174999Y-15272380D02*
X26174999Y-14272380D01*
X26174999Y-14272380D02*
X26270237Y-14415238D01*
X26270237Y-14415238D02*
X26365475Y-14510476D01*
X26365475Y-14510476D02*
X26460713Y-14558095D01*
%TO.C,D7*%
X8238094Y-23367380D02*
X8238094Y-22367380D01*
X8238094Y-22367380D02*
X7999999Y-22367380D01*
X7999999Y-22367380D02*
X7857142Y-22415000D01*
X7857142Y-22415000D02*
X7761904Y-22510238D01*
X7761904Y-22510238D02*
X7714285Y-22605476D01*
X7714285Y-22605476D02*
X7666666Y-22795952D01*
X7666666Y-22795952D02*
X7666666Y-22938809D01*
X7666666Y-22938809D02*
X7714285Y-23129285D01*
X7714285Y-23129285D02*
X7761904Y-23224523D01*
X7761904Y-23224523D02*
X7857142Y-23319761D01*
X7857142Y-23319761D02*
X7999999Y-23367380D01*
X7999999Y-23367380D02*
X8238094Y-23367380D01*
X7333332Y-22367380D02*
X6666666Y-22367380D01*
X6666666Y-22367380D02*
X7095237Y-23367380D01*
X11364285Y-25267380D02*
X11935713Y-25267380D01*
X11649999Y-25267380D02*
X11649999Y-24267380D01*
X11649999Y-24267380D02*
X11745237Y-24410238D01*
X11745237Y-24410238D02*
X11840475Y-24505476D01*
X11840475Y-24505476D02*
X11935713Y-24553095D01*
%TO.C,D5*%
X15348094Y24112620D02*
X15348094Y25112620D01*
X15348094Y25112620D02*
X15109999Y25112620D01*
X15109999Y25112620D02*
X14967142Y25065000D01*
X14967142Y25065000D02*
X14871904Y24969762D01*
X14871904Y24969762D02*
X14824285Y24874524D01*
X14824285Y24874524D02*
X14776666Y24684048D01*
X14776666Y24684048D02*
X14776666Y24541191D01*
X14776666Y24541191D02*
X14824285Y24350715D01*
X14824285Y24350715D02*
X14871904Y24255477D01*
X14871904Y24255477D02*
X14967142Y24160239D01*
X14967142Y24160239D02*
X15109999Y24112620D01*
X15109999Y24112620D02*
X15348094Y24112620D01*
X13871904Y25112620D02*
X14348094Y25112620D01*
X14348094Y25112620D02*
X14395713Y24636429D01*
X14395713Y24636429D02*
X14348094Y24684048D01*
X14348094Y24684048D02*
X14252856Y24731667D01*
X14252856Y24731667D02*
X14014761Y24731667D01*
X14014761Y24731667D02*
X13919523Y24684048D01*
X13919523Y24684048D02*
X13871904Y24636429D01*
X13871904Y24636429D02*
X13824285Y24541191D01*
X13824285Y24541191D02*
X13824285Y24303096D01*
X13824285Y24303096D02*
X13871904Y24207858D01*
X13871904Y24207858D02*
X13919523Y24160239D01*
X13919523Y24160239D02*
X14014761Y24112620D01*
X14014761Y24112620D02*
X14252856Y24112620D01*
X14252856Y24112620D02*
X14348094Y24160239D01*
X14348094Y24160239D02*
X14395713Y24207858D01*
X18474285Y22212620D02*
X19045713Y22212620D01*
X18759999Y22212620D02*
X18759999Y23212620D01*
X18759999Y23212620D02*
X18855237Y23069762D01*
X18855237Y23069762D02*
X18950475Y22974524D01*
X18950475Y22974524D02*
X19045713Y22926905D01*
%TO.C,C31*%
X11012857Y-24632142D02*
X11060476Y-24679761D01*
X11060476Y-24679761D02*
X11203333Y-24727380D01*
X11203333Y-24727380D02*
X11298571Y-24727380D01*
X11298571Y-24727380D02*
X11441428Y-24679761D01*
X11441428Y-24679761D02*
X11536666Y-24584523D01*
X11536666Y-24584523D02*
X11584285Y-24489285D01*
X11584285Y-24489285D02*
X11631904Y-24298809D01*
X11631904Y-24298809D02*
X11631904Y-24155952D01*
X11631904Y-24155952D02*
X11584285Y-23965476D01*
X11584285Y-23965476D02*
X11536666Y-23870238D01*
X11536666Y-23870238D02*
X11441428Y-23775000D01*
X11441428Y-23775000D02*
X11298571Y-23727380D01*
X11298571Y-23727380D02*
X11203333Y-23727380D01*
X11203333Y-23727380D02*
X11060476Y-23775000D01*
X11060476Y-23775000D02*
X11012857Y-23822619D01*
X10679523Y-23727380D02*
X10060476Y-23727380D01*
X10060476Y-23727380D02*
X10393809Y-24108333D01*
X10393809Y-24108333D02*
X10250952Y-24108333D01*
X10250952Y-24108333D02*
X10155714Y-24155952D01*
X10155714Y-24155952D02*
X10108095Y-24203571D01*
X10108095Y-24203571D02*
X10060476Y-24298809D01*
X10060476Y-24298809D02*
X10060476Y-24536904D01*
X10060476Y-24536904D02*
X10108095Y-24632142D01*
X10108095Y-24632142D02*
X10155714Y-24679761D01*
X10155714Y-24679761D02*
X10250952Y-24727380D01*
X10250952Y-24727380D02*
X10536666Y-24727380D01*
X10536666Y-24727380D02*
X10631904Y-24679761D01*
X10631904Y-24679761D02*
X10679523Y-24632142D01*
X9108095Y-24727380D02*
X9679523Y-24727380D01*
X9393809Y-24727380D02*
X9393809Y-23727380D01*
X9393809Y-23727380D02*
X9489047Y-23870238D01*
X9489047Y-23870238D02*
X9584285Y-23965476D01*
X9584285Y-23965476D02*
X9679523Y-24013095D01*
D11*
%TO.C,SW4*%
X14250000Y-21250000D02*
X9750000Y-21250000D01*
X9750000Y-21250000D02*
X9750000Y-16750000D01*
X9750000Y-16750000D02*
X14250000Y-16750000D01*
X14250000Y-16750000D02*
X14250000Y-21250000D01*
%TO.C,D10*%
X-13620000Y17920000D02*
X-20920000Y17920000D01*
X-13620000Y23420000D02*
X-20920000Y23420000D01*
X-20920000Y17920000D02*
X-20920000Y19070000D01*
%TO.C,C33*%
X-17640000Y-14842164D02*
X-17640000Y-15057836D01*
X-18360000Y-14842164D02*
X-18360000Y-15057836D01*
%TO.C,R8*%
X-6552500Y18743641D02*
X-6552500Y18436359D01*
X-7312500Y18743641D02*
X-7312500Y18436359D01*
%TO.C,C34*%
X-15742164Y23610000D02*
X-15957836Y23610000D01*
X-15742164Y24330000D02*
X-15957836Y24330000D01*
%TO.C,SW3*%
X-9750000Y-21250000D02*
X-14250000Y-21250000D01*
X-14250000Y-21250000D02*
X-14250000Y-16750000D01*
X-14250000Y-16750000D02*
X-9750000Y-16750000D01*
X-9750000Y-16750000D02*
X-9750000Y-21250000D01*
%TO.C,REF\u002A\u002A*%
X26485000Y-6985000D02*
X26485000Y6985000D01*
X26485000Y6985000D02*
X12515000Y6985000D01*
X12515000Y-6985000D02*
X26485000Y-6985000D01*
X12515000Y6985000D02*
X12515000Y-6985000D01*
%TO.C,C27*%
X23880000Y-5722164D02*
X23880000Y-5937836D01*
X23160000Y-5722164D02*
X23160000Y-5937836D01*
%TO.C,D1*%
X-15850000Y-9750000D02*
X-23150000Y-9750000D01*
X-15850000Y-4250000D02*
X-23150000Y-4250000D01*
X-23150000Y-9750000D02*
X-23150000Y-8600000D01*
%TO.C,C25*%
X-15090000Y-5692164D02*
X-15090000Y-5907836D01*
X-15810000Y-5692164D02*
X-15810000Y-5907836D01*
%TO.C,REF\u002A\u002A*%
X6985000Y-6985000D02*
X6985000Y6985000D01*
X6985000Y6985000D02*
X-6985000Y6985000D01*
X-6985000Y-6985000D02*
X6985000Y-6985000D01*
X-6985000Y6985000D02*
X-6985000Y-6985000D01*
%TO.C,C29*%
X18920000Y22377836D02*
X18920000Y22162164D01*
X18200000Y22377836D02*
X18200000Y22162164D01*
%TO.C,C26*%
X4390000Y-5662164D02*
X4390000Y-5877836D01*
X3670000Y-5662164D02*
X3670000Y-5877836D01*
%TO.C,C32*%
X-5382164Y-23530000D02*
X-5597836Y-23530000D01*
X-5382164Y-22810000D02*
X-5597836Y-22810000D01*
%TO.C,D3*%
X23150000Y-9750000D02*
X15850000Y-9750000D01*
X23150000Y-4250000D02*
X15850000Y-4250000D01*
X15850000Y-9750000D02*
X15850000Y-8600000D01*
%TO.C,D2*%
X3650000Y-9750000D02*
X-3650000Y-9750000D01*
X3650000Y-4250000D02*
X-3650000Y-4250000D01*
X-3650000Y-9750000D02*
X-3650000Y-8600000D01*
%TO.C,C30*%
X26405000Y-15117164D02*
X26405000Y-15332836D01*
X25685000Y-15117164D02*
X25685000Y-15332836D01*
%TO.C,SW5*%
X2250000Y-21250000D02*
X-2250000Y-21250000D01*
X-2250000Y-21250000D02*
X-2250000Y-16750000D01*
X-2250000Y-16750000D02*
X2250000Y-16750000D01*
X2250000Y-16750000D02*
X2250000Y-21250000D01*
%TO.C,D4*%
X4080000Y12860000D02*
X-3220000Y12860000D01*
X4080000Y18360000D02*
X-3220000Y18360000D01*
X-3220000Y12860000D02*
X-3220000Y14010000D01*
%TO.C,C28*%
X3000000Y19292164D02*
X3000000Y19507836D01*
X3720000Y19292164D02*
X3720000Y19507836D01*
%TO.C,R9*%
X-2185000Y19251359D02*
X-2185000Y19558641D01*
X-1425000Y19251359D02*
X-1425000Y19558641D01*
%TO.C,REF\u002A\u002A*%
X-12515000Y-6985000D02*
X-12515000Y6985000D01*
X-12515000Y6985000D02*
X-26485000Y6985000D01*
X-26485000Y-6985000D02*
X-12515000Y-6985000D01*
X-26485000Y6985000D02*
X-26485000Y-6985000D01*
%TO.C,D8*%
X-3850000Y-29250000D02*
X-11150000Y-29250000D01*
X-3850000Y-23750000D02*
X-11150000Y-23750000D01*
X-11150000Y-29250000D02*
X-11150000Y-28100000D01*
%TO.C,D9*%
X-18380000Y-18850000D02*
X-25680000Y-18850000D01*
X-18380000Y-13350000D02*
X-25680000Y-13350000D01*
X-25680000Y-18850000D02*
X-25680000Y-17700000D01*
%TO.C,Q1*%
X-4292500Y20440000D02*
X-4942500Y20440000D01*
X-4292500Y20440000D02*
X-3642500Y20440000D01*
X-4292500Y17320000D02*
X-5967500Y17320000D01*
X-4292500Y17320000D02*
X-3642500Y17320000D01*
%TO.C,D6*%
X25675000Y-19255000D02*
X18375000Y-19255000D01*
X25675000Y-13755000D02*
X18375000Y-13755000D01*
X18375000Y-19255000D02*
X18375000Y-18105000D01*
%TO.C,D7*%
X11150000Y-29250000D02*
X3850000Y-29250000D01*
X11150000Y-23750000D02*
X3850000Y-23750000D01*
X3850000Y-29250000D02*
X3850000Y-28100000D01*
%TO.C,D5*%
X18260000Y18230000D02*
X10960000Y18230000D01*
X18260000Y23730000D02*
X10960000Y23730000D01*
X10960000Y18230000D02*
X10960000Y19380000D01*
%TO.C,C31*%
X10262164Y-22840000D02*
X10477836Y-22840000D01*
X10262164Y-23560000D02*
X10477836Y-23560000D01*
%TD*%
%LPC*%
D12*
%TO.C,H3*%
X0Y-25000000D03*
%TD*%
D13*
%TO.C,P1*%
X5619999Y28119999D03*
D14*
X5619999Y32119999D03*
D13*
X-5619999Y28119999D03*
D14*
X-5619999Y32119999D03*
%TD*%
D15*
%TO.C,J1*%
X-16530000Y26350000D03*
D16*
X-13989999Y26349999D03*
X-11449999Y26349999D03*
X-8909999Y26349999D03*
%TD*%
D17*
%TO.C,SW4*%
X14650000Y-17400000D03*
X9375000Y-17400000D03*
X14625000Y-20600000D03*
X9375000Y-20600000D03*
%TD*%
D18*
%TO.C,D10*%
X-14820000Y22320000D03*
X-14820000Y19020000D03*
X-19720000Y19020000D03*
X-19720000Y22320000D03*
%TD*%
D19*
%TO.C,SW1*%
X-7440000Y24800000D03*
X-13440000Y24800000D03*
X-7440000Y21050000D03*
X-13440000Y21050000D03*
%TD*%
D20*
%TO.C,C33*%
X-18000000Y-14470000D03*
X-18000000Y-15430000D03*
%TD*%
D21*
%TO.C,R8*%
X-6932500Y19100000D03*
X-6932500Y18080000D03*
%TD*%
D22*
%TO.C,C34*%
X-15370000Y23970000D03*
X-16330000Y23970000D03*
%TD*%
D17*
%TO.C,SW3*%
X-9350000Y-17400000D03*
X-14625000Y-17400000D03*
X-9375000Y-20600000D03*
X-14625000Y-20600000D03*
%TD*%
D23*
%TO.C,REF\u002A\u002A*%
X24580000Y0D03*
X14420000Y0D03*
%TD*%
D20*
%TO.C,C27*%
X23520000Y-5350000D03*
X23520000Y-6310000D03*
%TD*%
D18*
%TO.C,D1*%
X-17050000Y-5350000D03*
X-17050000Y-8650000D03*
X-21950000Y-8650000D03*
X-21950000Y-5350000D03*
%TD*%
D20*
%TO.C,C25*%
X-15450000Y-5320000D03*
X-15450000Y-6280000D03*
%TD*%
D23*
%TO.C,REF\u002A\u002A*%
X5080000Y0D03*
X-5080000Y0D03*
%TD*%
D20*
%TO.C,C29*%
X18560000Y22750000D03*
X18560000Y21790000D03*
%TD*%
D24*
%TO.C,H2*%
X-23500000Y12000000D03*
%TD*%
D20*
%TO.C,C26*%
X4030000Y-5290000D03*
X4030000Y-6250000D03*
%TD*%
D22*
%TO.C,C32*%
X-5010000Y-23170000D03*
X-5970000Y-23170000D03*
%TD*%
D18*
%TO.C,D3*%
X21950000Y-5350000D03*
X21950000Y-8650000D03*
X17050000Y-8650000D03*
X17050000Y-5350000D03*
%TD*%
D24*
%TO.C,H1*%
X23500000Y12000000D03*
%TD*%
D19*
%TO.C,SW2*%
X-13570000Y13430000D03*
X-19570000Y13430000D03*
X-13570000Y9680000D03*
X-19570000Y9680000D03*
%TD*%
D18*
%TO.C,D2*%
X2450000Y-5350000D03*
X2450000Y-8650000D03*
X-2450000Y-8650000D03*
X-2450000Y-5350000D03*
%TD*%
D20*
%TO.C,C30*%
X26045000Y-14745000D03*
X26045000Y-15705000D03*
%TD*%
D17*
%TO.C,SW5*%
X2650000Y-17400000D03*
X-2625000Y-17400000D03*
X2625000Y-20600000D03*
X-2625000Y-20600000D03*
%TD*%
D18*
%TO.C,D4*%
X2880000Y17260000D03*
X2880000Y13960000D03*
X-2020000Y13960000D03*
X-2020000Y17260000D03*
%TD*%
D25*
%TO.C,C28*%
X3360000Y18920000D03*
X3360000Y19880000D03*
%TD*%
D26*
%TO.C,R9*%
X-1805000Y18895000D03*
X-1805000Y19915000D03*
%TD*%
D23*
%TO.C,REF\u002A\u002A*%
X-14420000Y0D03*
X-24580000Y0D03*
%TD*%
D18*
%TO.C,D8*%
X-5050000Y-24850000D03*
X-5050000Y-28150000D03*
X-9950000Y-28150000D03*
X-9950000Y-24850000D03*
%TD*%
%TO.C,D9*%
X-19580000Y-14450000D03*
X-19580000Y-17750000D03*
X-24480000Y-17750000D03*
X-24480000Y-14450000D03*
%TD*%
D27*
%TO.C,Q1*%
X-5230000Y17930000D03*
X-5230000Y19830000D03*
X-3355000Y18880000D03*
%TD*%
D18*
%TO.C,D6*%
X24475000Y-14855000D03*
X24475000Y-18155000D03*
X19575000Y-18155000D03*
X19575000Y-14855000D03*
%TD*%
%TO.C,D7*%
X9950000Y-24850000D03*
X9950000Y-28150000D03*
X5050000Y-28150000D03*
X5050000Y-24850000D03*
%TD*%
%TO.C,D5*%
X17060000Y22630000D03*
X17060000Y19330000D03*
X12160000Y19330000D03*
X12160000Y22630000D03*
%TD*%
D28*
%TO.C,C31*%
X9890000Y-23200000D03*
X10850000Y-23200000D03*
%TD*%
M02*
