%TF.GenerationSoftware,KiCad,Pcbnew,(7.0.0-0)*%
%TF.CreationDate,2023-03-08T23:01:28-06:00*%
%TF.ProjectId,RP2040_minimal,52503230-3430-45f6-9d69-6e696d616c2e,REV1*%
%TF.SameCoordinates,Original*%
%TF.FileFunction,Copper,L2,Bot*%
%TF.FilePolarity,Positive*%
%FSLAX46Y46*%
G04 Gerber Fmt 4.6, Leading zero omitted, Abs format (unit mm)*
G04 Created by KiCad (PCBNEW (7.0.0-0)) date 2023-03-08 23:01:28*
%MOMM*%
%LPD*%
G01*
G04 APERTURE LIST*
%TA.AperFunction,SMDPad,CuDef*%
%ADD10C,6.200000*%
%TD*%
G04 APERTURE END LIST*
D10*
%TO.P,H3,1*%
%TO.N,N/C*%
X0Y-29000000D03*
%TD*%
%TO.P,H2,1*%
%TO.N,N/C*%
X27000000Y14000000D03*
%TD*%
%TO.P,H1,1*%
%TO.N,N/C*%
X-27000000Y14000000D03*
%TD*%
%TA.AperFunction,Conductor*%
%TO.N,GND*%
G36*
X631446Y39694453D02*
G01*
X1887433Y39654584D01*
X1890490Y39654438D01*
X3144637Y39574735D01*
X3147726Y39574489D01*
X4398656Y39455040D01*
X4401768Y39454693D01*
X5605349Y39301093D01*
X5648300Y39295611D01*
X5651409Y39295163D01*
X6892177Y39096626D01*
X6895271Y39096081D01*
X7429066Y38993201D01*
X8129172Y38858267D01*
X8132236Y38857627D01*
X9358004Y38580774D01*
X9361028Y38580040D01*
X10577351Y38264448D01*
X10580378Y38263611D01*
X11786095Y37909581D01*
X11789078Y37908654D01*
X12982925Y37516556D01*
X12985892Y37515530D01*
X14166765Y37085728D01*
X14169665Y37084619D01*
X15336237Y36617593D01*
X15339129Y36616382D01*
X16490354Y36112554D01*
X16493150Y36111277D01*
X16910876Y35912439D01*
X17627812Y35571176D01*
X17630626Y35569781D01*
X18747539Y34993973D01*
X18750308Y34992489D01*
X19848377Y34381540D01*
X19851095Y34379971D01*
X20929254Y33734474D01*
X20931907Y33732827D01*
X21989018Y33053463D01*
X21991634Y33051723D01*
X23026669Y32339153D01*
X23029228Y32337331D01*
X24041144Y31592273D01*
X24043644Y31590370D01*
X24300090Y31388699D01*
X25031416Y30813579D01*
X25033817Y30811628D01*
X25722706Y30233581D01*
X25996439Y30003891D01*
X25998813Y30001834D01*
X26935299Y29163984D01*
X26937607Y29161853D01*
X27847068Y28294683D01*
X27849307Y28292479D01*
X28730780Y27396908D01*
X28732948Y27394634D01*
X29225847Y26860995D01*
X29416589Y26654487D01*
X29585567Y26471543D01*
X29587648Y26469217D01*
X30410550Y25519537D01*
X30412569Y25517131D01*
X31204930Y24541815D01*
X31206872Y24539345D01*
X31967861Y23539417D01*
X31969724Y23536888D01*
X32698647Y22513258D01*
X32700428Y22510670D01*
X33396468Y21464488D01*
X33398167Y21461845D01*
X34060677Y20394083D01*
X34062291Y20391388D01*
X34690601Y19303121D01*
X34692128Y19300376D01*
X35229027Y18298301D01*
X35285586Y18192740D01*
X35287025Y18189948D01*
X35845026Y17064066D01*
X35846377Y17061229D01*
X36368401Y15918157D01*
X36369660Y15915279D01*
X36855129Y14756280D01*
X36856296Y14753366D01*
X37144115Y14000000D01*
X37304771Y13579485D01*
X37305845Y13576533D01*
X37716837Y12389047D01*
X37717817Y12386062D01*
X38090924Y11186143D01*
X38091809Y11183129D01*
X38426660Y9971964D01*
X38427449Y9968923D01*
X38723704Y8747744D01*
X38724396Y8744680D01*
X38981753Y7514731D01*
X38982348Y7511646D01*
X39200559Y6274113D01*
X39201055Y6271011D01*
X39379884Y5027223D01*
X39380282Y5024107D01*
X39519562Y3775251D01*
X39519861Y3772124D01*
X39619448Y2519457D01*
X39619647Y2516322D01*
X39679437Y1261163D01*
X39679537Y1258023D01*
X39699475Y1572D01*
X39699475Y-1570D01*
X39679537Y-1258022D01*
X39679437Y-1261162D01*
X39619647Y-2516321D01*
X39619448Y-2519456D01*
X39519861Y-3772123D01*
X39519562Y-3775250D01*
X39380282Y-5024106D01*
X39379884Y-5027222D01*
X39201055Y-6271010D01*
X39200559Y-6274112D01*
X39095919Y-6867548D01*
X39068388Y-6920399D01*
X39015508Y-6947872D01*
X38956438Y-6940013D01*
X38912580Y-6899672D01*
X35069476Y-209746D01*
X35062936Y-221016D01*
X35062934Y-221019D01*
X30914335Y-7370736D01*
X30914334Y-7370738D01*
X30907794Y-7382010D01*
X38884260Y-7399314D01*
X38939436Y-7416261D01*
X38975783Y-7461100D01*
X38980945Y-7518590D01*
X38724396Y-8744679D01*
X38723704Y-8747743D01*
X38427449Y-9968922D01*
X38426660Y-9971963D01*
X38091809Y-11183128D01*
X38090924Y-11186142D01*
X37717817Y-12386061D01*
X37716837Y-12389046D01*
X37305845Y-13576532D01*
X37304771Y-13579484D01*
X36856297Y-14753363D01*
X36855129Y-14756279D01*
X36369660Y-15915278D01*
X36368401Y-15918156D01*
X35846377Y-17061228D01*
X35845026Y-17064065D01*
X35287025Y-18189947D01*
X35285586Y-18192739D01*
X34692128Y-19300375D01*
X34690601Y-19303120D01*
X34062291Y-20391387D01*
X34060677Y-20394082D01*
X33398167Y-21461844D01*
X33396468Y-21464487D01*
X32700428Y-22510669D01*
X32698647Y-22513257D01*
X31969724Y-23536887D01*
X31967861Y-23539416D01*
X31206872Y-24539344D01*
X31204930Y-24541814D01*
X30412569Y-25517130D01*
X30410550Y-25519536D01*
X29587661Y-26469201D01*
X29585567Y-26471542D01*
X28732948Y-27394633D01*
X28730780Y-27396907D01*
X27849307Y-28292478D01*
X27847068Y-28294682D01*
X26937607Y-29161852D01*
X26935299Y-29163983D01*
X25998813Y-30001833D01*
X25996439Y-30003890D01*
X25033835Y-30811612D01*
X25031397Y-30813593D01*
X24043644Y-31590369D01*
X24041144Y-31592272D01*
X23029228Y-32337330D01*
X23026669Y-32339152D01*
X21991634Y-33051722D01*
X21989018Y-33053462D01*
X20931907Y-33732826D01*
X20929238Y-33734482D01*
X19851098Y-34379968D01*
X19848377Y-34381539D01*
X18750308Y-34992488D01*
X18747539Y-34993972D01*
X17630626Y-35569780D01*
X17627812Y-35571175D01*
X16493181Y-36111262D01*
X16490323Y-36112567D01*
X15339134Y-36616379D01*
X15336237Y-36617592D01*
X14169682Y-37084611D01*
X14166747Y-37085733D01*
X12985894Y-37515528D01*
X12982925Y-37516555D01*
X11789095Y-37908647D01*
X11786095Y-37909580D01*
X10580378Y-38263610D01*
X10577351Y-38264447D01*
X9361043Y-38580035D01*
X9357990Y-38580776D01*
X8132241Y-38857624D01*
X8129166Y-38858267D01*
X6895271Y-39096080D01*
X6892177Y-39096625D01*
X5651409Y-39295162D01*
X5648300Y-39295610D01*
X4401773Y-39454691D01*
X4398651Y-39455039D01*
X3147748Y-39574486D01*
X3144616Y-39574735D01*
X1890530Y-39654435D01*
X1887392Y-39654584D01*
X631446Y-39694453D01*
X628305Y-39694503D01*
X-628305Y-39694503D01*
X-631446Y-39694453D01*
X-1887393Y-39654584D01*
X-1890531Y-39654435D01*
X-3144617Y-39574735D01*
X-3147749Y-39574486D01*
X-4398652Y-39455039D01*
X-4401774Y-39454691D01*
X-5648301Y-39295610D01*
X-5651410Y-39295162D01*
X-6892178Y-39096625D01*
X-6895272Y-39096080D01*
X-8129167Y-38858267D01*
X-8132242Y-38857624D01*
X-9357991Y-38580776D01*
X-9361044Y-38580035D01*
X-10577352Y-38264447D01*
X-10580379Y-38263610D01*
X-11539422Y-37982010D01*
X-492206Y-37982010D01*
X7800000Y-38000000D01*
X3669476Y-30809746D01*
X3662936Y-30821016D01*
X3662934Y-30821019D01*
X-485665Y-37970736D01*
X-485666Y-37970738D01*
X-492206Y-37982010D01*
X-11539422Y-37982010D01*
X-11786096Y-37909580D01*
X-11789096Y-37908647D01*
X-12982926Y-37516555D01*
X-12985895Y-37515528D01*
X-14166748Y-37085733D01*
X-14169683Y-37084611D01*
X-15336238Y-36617592D01*
X-15339135Y-36616379D01*
X-16490324Y-36112567D01*
X-16493182Y-36111262D01*
X-16958016Y-35890000D01*
X-7290000Y-35890000D01*
X-3143897Y-35898995D01*
X-5209159Y-32303867D01*
X-5215699Y-32315137D01*
X-5215701Y-32315140D01*
X-7283459Y-35878726D01*
X-7283460Y-35878728D01*
X-7290000Y-35890000D01*
X-16958016Y-35890000D01*
X-17627813Y-35571175D01*
X-17630627Y-35569780D01*
X-18747540Y-34993972D01*
X-18750309Y-34992488D01*
X-19848378Y-34381539D01*
X-19851099Y-34379968D01*
X-20929239Y-33734482D01*
X-20931908Y-33732826D01*
X-21989019Y-33053462D01*
X-21991635Y-33051722D01*
X-23026670Y-32339152D01*
X-23029229Y-32337330D01*
X-24041145Y-31592272D01*
X-24043645Y-31590369D01*
X-25021955Y-30821019D01*
X-25031410Y-30813583D01*
X-25033836Y-30811612D01*
X-25035724Y-30810028D01*
X-25035757Y-30810000D01*
X-17450000Y-30810000D01*
X-13303897Y-30818995D01*
X-14348839Y-29000000D01*
X-3305348Y-29000000D01*
X-3305203Y-29002674D01*
X-3286118Y-29354688D01*
X-3286117Y-29354697D01*
X-3285972Y-29357371D01*
X-3285540Y-29360009D01*
X-3285538Y-29360023D01*
X-3228505Y-29707910D01*
X-3228502Y-29707925D01*
X-3228071Y-29710552D01*
X-3227356Y-29713128D01*
X-3227354Y-29713136D01*
X-3133042Y-30052818D01*
X-3132324Y-30055403D01*
X-2999853Y-30387880D01*
X-2998606Y-30390233D01*
X-2998605Y-30390234D01*
X-2833466Y-30701719D01*
X-2833461Y-30701727D01*
X-2832211Y-30704085D01*
X-2830706Y-30706304D01*
X-2830704Y-30706308D01*
X-2754320Y-30818966D01*
X-2631365Y-31000311D01*
X-2629625Y-31002359D01*
X-2401409Y-31271037D01*
X-2401404Y-31271042D01*
X-2399668Y-31273086D01*
X-2139837Y-31519211D01*
X-1854919Y-31735800D01*
X-1548253Y-31920315D01*
X-1351415Y-32011381D01*
X-1225878Y-32069461D01*
X-1225875Y-32069462D01*
X-1223435Y-32070591D01*
X-884274Y-32184868D01*
X-534746Y-32261805D01*
X-178948Y-32300500D01*
X176268Y-32300500D01*
X178948Y-32300500D01*
X534746Y-32261805D01*
X884274Y-32184868D01*
X1223435Y-32070591D01*
X1548253Y-31920315D01*
X1854919Y-31735800D01*
X2139837Y-31519211D01*
X2399668Y-31273086D01*
X2631365Y-31000311D01*
X2832211Y-30704085D01*
X2999853Y-30387880D01*
X3132324Y-30055403D01*
X3228071Y-29710552D01*
X3285972Y-29357371D01*
X3305348Y-29000000D01*
X3285972Y-28642629D01*
X3230458Y-28304010D01*
X3237597Y-28247991D01*
X3274205Y-28204987D01*
X3328368Y-28188996D01*
X8400000Y-28200000D01*
X11800000Y-28200000D01*
X20092206Y-28217990D01*
X19114678Y-26516348D01*
X19101523Y-26466821D01*
X19114894Y-26417350D01*
X19151209Y-26381192D01*
X19200737Y-26368036D01*
X27195786Y-26385382D01*
X21000000Y-15600000D01*
X20993460Y-15611270D01*
X20993458Y-15611273D01*
X16987454Y-22515240D01*
X16951139Y-22551398D01*
X16901610Y-22564554D01*
X16852139Y-22551183D01*
X16815982Y-22514869D01*
X15961682Y-21027736D01*
X15955142Y-21039006D01*
X15955140Y-21039009D01*
X11806541Y-28188726D01*
X11806540Y-28188728D01*
X11800000Y-28200000D01*
X8400000Y-28200000D01*
X4269476Y-21009746D01*
X4262936Y-21021016D01*
X4262934Y-21021019D01*
X1419638Y-25921169D01*
X1385945Y-25955766D01*
X1339893Y-25970308D01*
X1292441Y-25961334D01*
X1225869Y-25930535D01*
X1225867Y-25930534D01*
X1223435Y-25929409D01*
X1220901Y-25928555D01*
X1220888Y-25928550D01*
X886804Y-25815984D01*
X886796Y-25815981D01*
X884274Y-25815132D01*
X881661Y-25814556D01*
X881658Y-25814556D01*
X537376Y-25738774D01*
X537377Y-25738774D01*
X534746Y-25738195D01*
X532084Y-25737905D01*
X532075Y-25737904D01*
X181609Y-25699789D01*
X181601Y-25699788D01*
X178948Y-25699500D01*
X-178948Y-25699500D01*
X-181601Y-25699788D01*
X-181610Y-25699789D01*
X-532076Y-25737904D01*
X-532088Y-25737905D01*
X-534746Y-25738195D01*
X-537375Y-25738773D01*
X-537377Y-25738774D01*
X-881659Y-25814556D01*
X-881666Y-25814557D01*
X-884274Y-25815132D01*
X-886792Y-25815980D01*
X-886805Y-25815984D01*
X-1220889Y-25928550D01*
X-1220908Y-25928557D01*
X-1223435Y-25929409D01*
X-1225859Y-25930530D01*
X-1225878Y-25930538D01*
X-1545827Y-26078562D01*
X-1545837Y-26078566D01*
X-1548253Y-26079685D01*
X-1550532Y-26081055D01*
X-1550543Y-26081062D01*
X-1852625Y-26262819D01*
X-1852635Y-26262825D01*
X-1854919Y-26264200D01*
X-1857046Y-26265816D01*
X-1857055Y-26265823D01*
X-2127673Y-26471542D01*
X-2139837Y-26480789D01*
X-2141774Y-26482623D01*
X-2141786Y-26482634D01*
X-2397719Y-26725067D01*
X-2397727Y-26725074D01*
X-2399668Y-26726914D01*
X-2401396Y-26728947D01*
X-2401409Y-26728962D01*
X-2629625Y-26997640D01*
X-2631365Y-26999689D01*
X-2632869Y-27001906D01*
X-2632875Y-27001915D01*
X-2830704Y-27293691D01*
X-2830712Y-27293702D01*
X-2832211Y-27295915D01*
X-2833457Y-27298263D01*
X-2833466Y-27298280D01*
X-2998605Y-27609765D01*
X-2998609Y-27609773D01*
X-2999853Y-27612120D01*
X-3000840Y-27614595D01*
X-3000840Y-27614597D01*
X-3131335Y-27942113D01*
X-3131339Y-27942124D01*
X-3132324Y-27944597D01*
X-3133039Y-27947171D01*
X-3133042Y-27947181D01*
X-3227354Y-28286863D01*
X-3227357Y-28286875D01*
X-3228071Y-28289448D01*
X-3228501Y-28292070D01*
X-3228505Y-28292089D01*
X-3285538Y-28639976D01*
X-3285538Y-28639979D01*
X-3285972Y-28642629D01*
X-3286117Y-28645300D01*
X-3286118Y-28645311D01*
X-3304556Y-28985374D01*
X-3305348Y-29000000D01*
X-14348839Y-29000000D01*
X-14804566Y-28206689D01*
X-15362667Y-27235168D01*
X-15362668Y-27235167D01*
X-15369159Y-27223867D01*
X-15375699Y-27235137D01*
X-15375701Y-27235140D01*
X-17443459Y-30798726D01*
X-17443460Y-30798728D01*
X-17450000Y-30810000D01*
X-25035757Y-30810000D01*
X-25543443Y-30384000D01*
X-25996440Y-30003890D01*
X-25998814Y-30001833D01*
X-26935300Y-29163983D01*
X-26937608Y-29161852D01*
X-27847069Y-28294682D01*
X-27849308Y-28292478D01*
X-28730781Y-27396907D01*
X-28732949Y-27394633D01*
X-29351398Y-26725067D01*
X-29585584Y-26471524D01*
X-29587646Y-26469219D01*
X-30410560Y-25519525D01*
X-30412570Y-25517130D01*
X-30530239Y-25372292D01*
X-30917769Y-24895281D01*
X-31204931Y-24541814D01*
X-31206873Y-24539344D01*
X-31967862Y-23539416D01*
X-31969725Y-23536887D01*
X-32216742Y-23190000D01*
X-21260000Y-23190000D01*
X-20068620Y-23192584D01*
X-20019149Y-23205955D01*
X-19982991Y-23242270D01*
X-19969835Y-23291799D01*
X-19983206Y-23341270D01*
X-21155141Y-25360990D01*
X-21155142Y-25360992D01*
X-21161682Y-25372264D01*
X-12869476Y-25390254D01*
X-15933610Y-20056330D01*
X-11254290Y-20056330D01*
X-11253695Y-20060728D01*
X-11253694Y-20060732D01*
X-11224672Y-20274986D01*
X-11224670Y-20274995D01*
X-11224075Y-20279387D01*
X-11222705Y-20283605D01*
X-11222704Y-20283607D01*
X-11155890Y-20489241D01*
X-11155887Y-20489249D01*
X-11154517Y-20493464D01*
X-11152413Y-20497374D01*
X-11152412Y-20497376D01*
X-11049961Y-20687763D01*
X-11049958Y-20687768D01*
X-11047852Y-20691681D01*
X-10907508Y-20867666D01*
X-10737996Y-21015765D01*
X-10544764Y-21131215D01*
X-10334024Y-21210307D01*
X-10112547Y-21250500D01*
X-9946068Y-21250500D01*
X-9943845Y-21250500D01*
X-9775812Y-21235377D01*
X-9558830Y-21175493D01*
X-9356027Y-21077829D01*
X-9173922Y-20945522D01*
X-9018368Y-20782825D01*
X-8894365Y-20594968D01*
X-8805897Y-20387988D01*
X-8755809Y-20168537D01*
X-8750770Y-20056330D01*
X8745710Y-20056330D01*
X8746305Y-20060728D01*
X8746306Y-20060732D01*
X8775328Y-20274986D01*
X8775330Y-20274995D01*
X8775925Y-20279387D01*
X8777295Y-20283605D01*
X8777296Y-20283607D01*
X8844110Y-20489241D01*
X8844113Y-20489249D01*
X8845483Y-20493464D01*
X8847587Y-20497374D01*
X8847588Y-20497376D01*
X8950039Y-20687763D01*
X8950042Y-20687768D01*
X8952148Y-20691681D01*
X9092492Y-20867666D01*
X9262004Y-21015765D01*
X9455236Y-21131215D01*
X9665976Y-21210307D01*
X9887453Y-21250500D01*
X10053932Y-21250500D01*
X10056155Y-21250500D01*
X10224188Y-21235377D01*
X10441170Y-21175493D01*
X10643973Y-21077829D01*
X10826078Y-20945522D01*
X10981632Y-20782825D01*
X11105635Y-20594968D01*
X11194103Y-20387988D01*
X11244191Y-20168537D01*
X11254290Y-19943670D01*
X11224075Y-19720613D01*
X11154517Y-19506536D01*
X11047852Y-19308319D01*
X10907508Y-19132334D01*
X10904159Y-19129408D01*
X10741343Y-18987159D01*
X10741341Y-18987158D01*
X10737996Y-18984235D01*
X10734182Y-18981956D01*
X10548581Y-18871065D01*
X10548576Y-18871062D01*
X10544764Y-18868785D01*
X10334024Y-18789693D01*
X10329654Y-18788899D01*
X10329647Y-18788898D01*
X10116917Y-18750293D01*
X10116916Y-18750292D01*
X10112547Y-18749500D01*
X9943845Y-18749500D01*
X9941642Y-18749698D01*
X9941625Y-18749699D01*
X9780242Y-18764224D01*
X9780238Y-18764224D01*
X9775812Y-18764623D01*
X9771526Y-18765805D01*
X9771525Y-18765806D01*
X9563114Y-18823324D01*
X9563107Y-18823326D01*
X9558830Y-18824507D01*
X9554831Y-18826432D01*
X9554825Y-18826435D01*
X9360030Y-18920242D01*
X9360019Y-18920248D01*
X9356027Y-18922171D01*
X9352437Y-18924778D01*
X9352434Y-18924781D01*
X9177515Y-19051867D01*
X9177511Y-19051870D01*
X9173922Y-19054478D01*
X9170856Y-19057683D01*
X9170851Y-19057689D01*
X9021439Y-19213962D01*
X9021434Y-19213967D01*
X9018368Y-19217175D01*
X9015926Y-19220872D01*
X9015919Y-19220883D01*
X8896815Y-19401319D01*
X8896810Y-19401326D01*
X8894365Y-19405032D01*
X8892618Y-19409119D01*
X8892616Y-19409123D01*
X8807646Y-19607918D01*
X8807643Y-19607926D01*
X8805897Y-19612012D01*
X8804907Y-19616347D01*
X8804906Y-19616352D01*
X8756797Y-19827131D01*
X8756795Y-19827139D01*
X8755809Y-19831463D01*
X8755609Y-19835896D01*
X8755609Y-19835903D01*
X8750570Y-19948110D01*
X8745710Y-20056330D01*
X-8750770Y-20056330D01*
X-8745710Y-19943670D01*
X-8775925Y-19720613D01*
X-8845483Y-19506536D01*
X-8952148Y-19308319D01*
X-9092492Y-19132334D01*
X-9095841Y-19129408D01*
X-9258657Y-18987159D01*
X-9258659Y-18987158D01*
X-9262004Y-18984235D01*
X-9265818Y-18981956D01*
X-9451419Y-18871065D01*
X-9451424Y-18871062D01*
X-9455236Y-18868785D01*
X-9665976Y-18789693D01*
X-9670346Y-18788899D01*
X-9670353Y-18788898D01*
X-9883083Y-18750293D01*
X-9883084Y-18750292D01*
X-9887453Y-18749500D01*
X-10056155Y-18749500D01*
X-10058358Y-18749698D01*
X-10058375Y-18749699D01*
X-10219758Y-18764224D01*
X-10219762Y-18764224D01*
X-10224188Y-18764623D01*
X-10228474Y-18765805D01*
X-10228475Y-18765806D01*
X-10436886Y-18823324D01*
X-10436893Y-18823326D01*
X-10441170Y-18824507D01*
X-10445169Y-18826432D01*
X-10445175Y-18826435D01*
X-10639970Y-18920242D01*
X-10639981Y-18920248D01*
X-10643973Y-18922171D01*
X-10647563Y-18924778D01*
X-10647566Y-18924781D01*
X-10822485Y-19051867D01*
X-10822489Y-19051870D01*
X-10826078Y-19054478D01*
X-10829144Y-19057683D01*
X-10829149Y-19057689D01*
X-10978561Y-19213962D01*
X-10978566Y-19213967D01*
X-10981632Y-19217175D01*
X-10984074Y-19220872D01*
X-10984081Y-19220883D01*
X-11103185Y-19401319D01*
X-11103190Y-19401326D01*
X-11105635Y-19405032D01*
X-11107382Y-19409119D01*
X-11107384Y-19409123D01*
X-11192354Y-19607918D01*
X-11192357Y-19607926D01*
X-11194103Y-19612012D01*
X-11195093Y-19616347D01*
X-11195094Y-19616352D01*
X-11243203Y-19827131D01*
X-11243205Y-19827139D01*
X-11244191Y-19831463D01*
X-11244391Y-19835896D01*
X-11244391Y-19835903D01*
X-11249430Y-19948110D01*
X-11254290Y-20056330D01*
X-15933610Y-20056330D01*
X-16307756Y-19405032D01*
X-16993508Y-18211301D01*
X-16993509Y-18211300D01*
X-17000000Y-18200000D01*
X-17006540Y-18211270D01*
X-17006542Y-18211273D01*
X-18414235Y-20637297D01*
X-18450550Y-20673455D01*
X-18500079Y-20686611D01*
X-18549550Y-20673240D01*
X-18585707Y-20636926D01*
X-19179159Y-19603867D01*
X-19185699Y-19615137D01*
X-19185701Y-19615140D01*
X-21253459Y-23178726D01*
X-21253460Y-23178728D01*
X-21260000Y-23190000D01*
X-32216742Y-23190000D01*
X-32698651Y-22513253D01*
X-32700429Y-22510669D01*
X-33396469Y-21464487D01*
X-33398168Y-21461844D01*
X-33539418Y-21234193D01*
X-34060683Y-20394075D01*
X-34062292Y-20391387D01*
X-34318218Y-19948110D01*
X-34690607Y-19303112D01*
X-34692129Y-19300375D01*
X-34734720Y-19220883D01*
X-35285605Y-18192704D01*
X-35287008Y-18189983D01*
X-35705811Y-17344963D01*
X-35845027Y-17064065D01*
X-35846378Y-17061228D01*
X-36368402Y-15918156D01*
X-36369661Y-15915278D01*
X-36501721Y-15600000D01*
X-27400000Y-15600000D01*
X-19107794Y-15617990D01*
X-19993531Y-14076133D01*
X-19107794Y-14076133D01*
X-14961691Y-14085128D01*
X-15135821Y-13782010D01*
X-13292206Y-13782010D01*
X-8309674Y-13792819D01*
X-8260203Y-13806190D01*
X-8224045Y-13842505D01*
X-8210889Y-13892034D01*
X-8224260Y-13941505D01*
X-9285665Y-15770736D01*
X-9285666Y-15770738D01*
X-9292206Y-15782010D01*
X-1000000Y-15800000D01*
X-4004011Y-10570736D01*
X-5124032Y-8621047D01*
X-5124033Y-8621046D01*
X-5130524Y-8609746D01*
X-5137064Y-8621016D01*
X-5137066Y-8621019D01*
X-6477147Y-10930520D01*
X-6513462Y-10966678D01*
X-6562991Y-10979834D01*
X-6612462Y-10966463D01*
X-6648619Y-10930149D01*
X-8778927Y-7221793D01*
X-7479401Y-7221793D01*
X-7478555Y-7230924D01*
X-7478555Y-7230927D01*
X-7475922Y-7259338D01*
X-7475500Y-7268472D01*
X-7475500Y-7277844D01*
X-7474660Y-7282343D01*
X-7474659Y-7282344D01*
X-7473778Y-7287059D01*
X-7472517Y-7296105D01*
X-7469884Y-7324521D01*
X-7469882Y-7324531D01*
X-7469035Y-7333660D01*
X-7464947Y-7341871D01*
X-7463568Y-7346716D01*
X-7461748Y-7351416D01*
X-7460061Y-7360433D01*
X-7440207Y-7392498D01*
X-7435772Y-7400460D01*
X-7418958Y-7434228D01*
X-7412180Y-7440407D01*
X-7409141Y-7444431D01*
X-7405749Y-7448152D01*
X-7400919Y-7455952D01*
X-7370830Y-7478674D01*
X-7363805Y-7484507D01*
X-7335933Y-7509916D01*
X-7327373Y-7513232D01*
X-7323088Y-7515885D01*
X-7318586Y-7518126D01*
X-7311264Y-7523656D01*
X-7274998Y-7533974D01*
X-7266343Y-7536874D01*
X-7231173Y-7550500D01*
X-7221996Y-7550500D01*
X-7217049Y-7551425D01*
X-7212034Y-7551889D01*
X-7203207Y-7554401D01*
X-7165663Y-7550922D01*
X-7156528Y-7550500D01*
X4524330Y-7550500D01*
X4573876Y-7563790D01*
X4610120Y-7600093D01*
X4623330Y-7649661D01*
X4609959Y-7699186D01*
X-671768Y-16801741D01*
X-671769Y-16801743D01*
X-678309Y-16813015D01*
X11760000Y-16840000D01*
X11037333Y-15582010D01*
X21707794Y-15582010D01*
X30000000Y-15600000D01*
X26796552Y-10023563D01*
X25875968Y-8421047D01*
X25875967Y-8421046D01*
X25869476Y-8409746D01*
X25862936Y-8421016D01*
X25862934Y-8421019D01*
X21714335Y-15570736D01*
X21714334Y-15570738D01*
X21707794Y-15582010D01*
X11037333Y-15582010D01*
X9657153Y-13179447D01*
X9643998Y-13129920D01*
X9657369Y-13080449D01*
X9693684Y-13044291D01*
X9743212Y-13031135D01*
X13366103Y-13038995D01*
X12631370Y-11760000D01*
X16840000Y-11760000D01*
X20986103Y-11768995D01*
X18920841Y-8173867D01*
X18914301Y-8185137D01*
X18914299Y-8185140D01*
X16846541Y-11748726D01*
X16846540Y-11748728D01*
X16840000Y-11760000D01*
X12631370Y-11760000D01*
X11300841Y-9443867D01*
X11294301Y-9455137D01*
X11294299Y-9455140D01*
X9482588Y-12577451D01*
X9446273Y-12613609D01*
X9396744Y-12626765D01*
X9347273Y-12613394D01*
X9311116Y-12577080D01*
X6927479Y-8427736D01*
X6508742Y-7698814D01*
X6495586Y-7649339D01*
X6508903Y-7599907D01*
X6545133Y-7563737D01*
X6594586Y-7550500D01*
X7119272Y-7550500D01*
X7128763Y-7551823D01*
X7128836Y-7551044D01*
X7137967Y-7551890D01*
X7146793Y-7554401D01*
X7184337Y-7550922D01*
X7193472Y-7550500D01*
X7198263Y-7550500D01*
X7202844Y-7550500D01*
X7212049Y-7548778D01*
X7221107Y-7547514D01*
X7258660Y-7544035D01*
X7266876Y-7539943D01*
X7271714Y-7538567D01*
X7276411Y-7536747D01*
X7285433Y-7535061D01*
X7317491Y-7515210D01*
X7325463Y-7510770D01*
X7359228Y-7493958D01*
X7365413Y-7487172D01*
X7369434Y-7484136D01*
X7373147Y-7480750D01*
X7380952Y-7475919D01*
X7403673Y-7445829D01*
X7409504Y-7438806D01*
X7434916Y-7410933D01*
X7438230Y-7402375D01*
X7440873Y-7398108D01*
X7443122Y-7393591D01*
X7448656Y-7386264D01*
X7458977Y-7349983D01*
X7461872Y-7341348D01*
X7475500Y-7306173D01*
X7475500Y-7296998D01*
X7476425Y-7292050D01*
X7476889Y-7287033D01*
X7479401Y-7278207D01*
X7475922Y-7240662D01*
X7475500Y-7231528D01*
X7475500Y7194272D01*
X7476823Y7203764D01*
X7476044Y7203836D01*
X7476890Y7212968D01*
X7479401Y7221793D01*
X7475922Y7259338D01*
X7475500Y7268472D01*
X7475500Y7273263D01*
X7475500Y7277844D01*
X7473778Y7287055D01*
X7472514Y7296103D01*
X7469035Y7333660D01*
X7464945Y7341873D01*
X7463569Y7346711D01*
X7461747Y7351414D01*
X7460061Y7360433D01*
X7440217Y7392482D01*
X7435766Y7400472D01*
X7430557Y7410933D01*
X7418958Y7434228D01*
X7412179Y7440408D01*
X7409145Y7444426D01*
X7406661Y7447151D01*
X7404589Y7451438D01*
X7401150Y7455580D01*
X7400916Y7455958D01*
X7402062Y7456668D01*
X7382108Y7497961D01*
X7389306Y7553932D01*
X7425915Y7596878D01*
X7480038Y7612844D01*
X12016181Y7603003D01*
X12070145Y7586861D01*
X12106571Y7543895D01*
X12113664Y7488014D01*
X12089129Y7437310D01*
X12071261Y7417709D01*
X12065084Y7410933D01*
X12061772Y7402386D01*
X12059124Y7398109D01*
X12056870Y7393583D01*
X12051344Y7386264D01*
X12048834Y7377446D01*
X12048831Y7377438D01*
X12041024Y7349998D01*
X12038120Y7341331D01*
X12027812Y7314724D01*
X12027811Y7314722D01*
X12024500Y7306173D01*
X12024500Y7297003D01*
X12023575Y7292054D01*
X12023109Y7287031D01*
X12020599Y7278207D01*
X12021445Y7269076D01*
X12021445Y7269073D01*
X12024078Y7240662D01*
X12024500Y7231528D01*
X12024500Y-7194272D01*
X12023176Y-7203763D01*
X12023956Y-7203836D01*
X12023109Y-7212969D01*
X12020599Y-7221793D01*
X12021445Y-7230924D01*
X12021445Y-7230927D01*
X12024078Y-7259338D01*
X12024500Y-7268472D01*
X12024500Y-7277844D01*
X12025340Y-7282343D01*
X12025341Y-7282344D01*
X12026222Y-7287059D01*
X12027483Y-7296105D01*
X12030116Y-7324521D01*
X12030118Y-7324531D01*
X12030965Y-7333660D01*
X12035053Y-7341871D01*
X12036432Y-7346716D01*
X12038252Y-7351416D01*
X12039939Y-7360433D01*
X12059793Y-7392498D01*
X12064228Y-7400460D01*
X12081042Y-7434228D01*
X12087820Y-7440407D01*
X12090859Y-7444431D01*
X12094251Y-7448152D01*
X12099081Y-7455952D01*
X12129170Y-7478674D01*
X12136195Y-7484507D01*
X12164067Y-7509916D01*
X12172627Y-7513232D01*
X12176912Y-7515885D01*
X12181414Y-7518126D01*
X12188736Y-7523656D01*
X12225002Y-7533974D01*
X12233657Y-7536874D01*
X12268827Y-7550500D01*
X12278004Y-7550500D01*
X12282951Y-7551425D01*
X12287966Y-7551889D01*
X12296793Y-7554401D01*
X12334337Y-7550922D01*
X12343472Y-7550500D01*
X26619272Y-7550500D01*
X26628763Y-7551823D01*
X26628836Y-7551044D01*
X26637967Y-7551890D01*
X26646793Y-7554401D01*
X26684337Y-7550922D01*
X26693472Y-7550500D01*
X26698263Y-7550500D01*
X26702844Y-7550500D01*
X26712049Y-7548778D01*
X26721107Y-7547514D01*
X26758660Y-7544035D01*
X26766876Y-7539943D01*
X26771714Y-7538567D01*
X26776411Y-7536747D01*
X26785433Y-7535061D01*
X26817491Y-7515210D01*
X26825463Y-7510770D01*
X26859228Y-7493958D01*
X26865413Y-7487172D01*
X26869434Y-7484136D01*
X26873147Y-7480750D01*
X26880952Y-7475919D01*
X26903673Y-7445829D01*
X26909504Y-7438806D01*
X26934916Y-7410933D01*
X26938230Y-7402375D01*
X26940873Y-7398108D01*
X26943122Y-7393591D01*
X26948656Y-7386264D01*
X26958977Y-7349983D01*
X26961872Y-7341348D01*
X26975500Y-7306173D01*
X26975500Y-7296998D01*
X26976425Y-7292050D01*
X26976889Y-7287033D01*
X26979401Y-7278207D01*
X26975922Y-7240662D01*
X26975500Y-7231528D01*
X26975500Y-887013D01*
X26988799Y-837451D01*
X27025124Y-801205D01*
X27074714Y-788013D01*
X32600000Y-800000D01*
X31185457Y1662381D01*
X31172302Y1711908D01*
X31185673Y1761379D01*
X31221988Y1797537D01*
X31271516Y1810693D01*
X36200000Y1800000D01*
X33045105Y7291918D01*
X32075968Y8978953D01*
X32075967Y8978954D01*
X32069476Y8990254D01*
X32062936Y8978984D01*
X32062934Y8978981D01*
X29595974Y4727411D01*
X29559659Y4691253D01*
X29510130Y4678097D01*
X29460659Y4691468D01*
X29424502Y4727782D01*
X28469476Y6390254D01*
X28462936Y6378984D01*
X28462934Y6378981D01*
X27160129Y4133719D01*
X27123851Y4097583D01*
X27074371Y4084405D01*
X27024926Y4097711D01*
X26988742Y4133942D01*
X26975500Y4183405D01*
X26975500Y7194272D01*
X26976823Y7203764D01*
X26976044Y7203836D01*
X26976890Y7212968D01*
X26979401Y7221793D01*
X26975922Y7259338D01*
X26975500Y7268472D01*
X26975500Y7273263D01*
X26975500Y7277844D01*
X26973778Y7287055D01*
X26972514Y7296103D01*
X26969035Y7333660D01*
X26964945Y7341873D01*
X26963569Y7346711D01*
X26961747Y7351414D01*
X26960061Y7360433D01*
X26940217Y7392482D01*
X26935766Y7400472D01*
X26930557Y7410933D01*
X26918958Y7434228D01*
X26912179Y7440408D01*
X26909145Y7444426D01*
X26905748Y7448152D01*
X26900919Y7455952D01*
X26870833Y7478672D01*
X26863798Y7484513D01*
X26859958Y7488014D01*
X26835933Y7509916D01*
X26827381Y7513230D01*
X26823104Y7515878D01*
X26818582Y7518130D01*
X26811264Y7523656D01*
X26802443Y7526166D01*
X26802441Y7526167D01*
X26775001Y7533974D01*
X26766332Y7536880D01*
X26739726Y7547187D01*
X26739723Y7547188D01*
X26731173Y7550500D01*
X26722002Y7550500D01*
X26717053Y7551425D01*
X26712030Y7551891D01*
X26703207Y7554401D01*
X26694074Y7553555D01*
X26694072Y7553555D01*
X26665662Y7550922D01*
X26656528Y7550500D01*
X13485737Y7550500D01*
X13436144Y7563817D01*
X13399893Y7600186D01*
X13392621Y7612844D01*
X12595754Y9000000D01*
X16400000Y9000000D01*
X24692206Y8982010D01*
X21809564Y14000000D01*
X23694652Y14000000D01*
X23694797Y13997326D01*
X23713882Y13645312D01*
X23713883Y13645303D01*
X23714028Y13642629D01*
X23714460Y13639991D01*
X23714462Y13639977D01*
X23771495Y13292090D01*
X23771498Y13292075D01*
X23771929Y13289448D01*
X23867676Y12944597D01*
X24000147Y12612120D01*
X24001394Y12609767D01*
X24001395Y12609766D01*
X24166534Y12298281D01*
X24166539Y12298273D01*
X24167789Y12295915D01*
X24368635Y11999689D01*
X24370375Y11997641D01*
X24598591Y11728963D01*
X24598596Y11728958D01*
X24600332Y11726914D01*
X24860163Y11480789D01*
X25145081Y11264200D01*
X25451747Y11079685D01*
X25641425Y10991931D01*
X25774122Y10930539D01*
X25774125Y10930538D01*
X25776565Y10929409D01*
X26115726Y10815132D01*
X26465254Y10738195D01*
X26821052Y10699500D01*
X27176268Y10699500D01*
X27178948Y10699500D01*
X27534746Y10738195D01*
X27884274Y10815132D01*
X28223435Y10929409D01*
X28548253Y11079685D01*
X28854919Y11264200D01*
X29139837Y11480789D01*
X29399668Y11726914D01*
X29631365Y11999689D01*
X29832211Y12295915D01*
X29999853Y12612120D01*
X30132324Y12944597D01*
X30228071Y13289448D01*
X30285972Y13642629D01*
X30305348Y14000000D01*
X30285972Y14357371D01*
X30228071Y14710552D01*
X30132324Y15055403D01*
X29999853Y15387880D01*
X29832211Y15704085D01*
X29631365Y16000311D01*
X29399668Y16273086D01*
X29139837Y16519211D01*
X28854919Y16735800D01*
X28548253Y16920315D01*
X28545826Y16921438D01*
X28225877Y17069462D01*
X28225864Y17069467D01*
X28223435Y17070591D01*
X28220901Y17071445D01*
X28220888Y17071450D01*
X27886804Y17184016D01*
X27886796Y17184019D01*
X27884274Y17184868D01*
X27881661Y17185444D01*
X27881658Y17185444D01*
X27537376Y17261226D01*
X27537377Y17261226D01*
X27534746Y17261805D01*
X27532084Y17262095D01*
X27532075Y17262096D01*
X27181609Y17300211D01*
X27181601Y17300212D01*
X27178948Y17300500D01*
X26821052Y17300500D01*
X26818399Y17300212D01*
X26818390Y17300211D01*
X26467924Y17262096D01*
X26467912Y17262095D01*
X26465254Y17261805D01*
X26462625Y17261227D01*
X26462623Y17261226D01*
X26118341Y17185444D01*
X26118334Y17185443D01*
X26115726Y17184868D01*
X26113208Y17184020D01*
X26113195Y17184016D01*
X25779111Y17071450D01*
X25779092Y17071443D01*
X25776565Y17070591D01*
X25774141Y17069470D01*
X25774122Y17069462D01*
X25454173Y16921438D01*
X25454163Y16921434D01*
X25451747Y16920315D01*
X25449468Y16918945D01*
X25449457Y16918938D01*
X25147375Y16737181D01*
X25147365Y16737175D01*
X25145081Y16735800D01*
X25142954Y16734184D01*
X25142945Y16734177D01*
X24862303Y16520838D01*
X24860163Y16519211D01*
X24858226Y16517377D01*
X24858214Y16517366D01*
X24602281Y16274933D01*
X24602273Y16274926D01*
X24600332Y16273086D01*
X24598604Y16271053D01*
X24598591Y16271038D01*
X24370375Y16002360D01*
X24368635Y16000311D01*
X24367131Y15998094D01*
X24367125Y15998085D01*
X24169296Y15706309D01*
X24169288Y15706298D01*
X24167789Y15704085D01*
X24166543Y15701737D01*
X24166534Y15701720D01*
X24001395Y15390235D01*
X24001391Y15390227D01*
X24000147Y15387880D01*
X23999160Y15385405D01*
X23999160Y15385403D01*
X23868665Y15057887D01*
X23868661Y15057876D01*
X23867676Y15055403D01*
X23866961Y15052829D01*
X23866958Y15052819D01*
X23772646Y14713137D01*
X23772643Y14713125D01*
X23771929Y14710552D01*
X23771499Y14707930D01*
X23771495Y14707911D01*
X23714462Y14360024D01*
X23714460Y14360008D01*
X23714028Y14357371D01*
X23713883Y14354700D01*
X23713882Y14354689D01*
X23695444Y14014626D01*
X23694652Y14000000D01*
X21809564Y14000000D01*
X20561682Y16172264D01*
X20555142Y16160994D01*
X20555140Y16160991D01*
X16406541Y9011274D01*
X16406540Y9011272D01*
X16400000Y9000000D01*
X12595754Y9000000D01*
X9516627Y14360024D01*
X9275968Y14778953D01*
X9275967Y14778954D01*
X9269476Y14790254D01*
X9262936Y14778984D01*
X9262934Y14778981D01*
X7155342Y11146745D01*
X7119027Y11110587D01*
X7069498Y11097431D01*
X7020027Y11110802D01*
X6983869Y11147117D01*
X4957333Y14674832D01*
X4957332Y14674833D01*
X4950841Y14686133D01*
X4944301Y14674863D01*
X4944299Y14674860D01*
X2876541Y11111274D01*
X2876540Y11111272D01*
X2870000Y11100000D01*
X6951394Y11091146D01*
X7000863Y11077775D01*
X7037021Y11041460D01*
X7050177Y10991931D01*
X7036806Y10942460D01*
X5114334Y7629262D01*
X5114333Y7629261D01*
X5107794Y7617990D01*
X5109851Y7617986D01*
X5092997Y7585753D01*
X5059026Y7559745D01*
X5017252Y7550500D01*
X-7119272Y7550500D01*
X-7128764Y7551824D01*
X-7128836Y7551044D01*
X-7137970Y7551891D01*
X-7146793Y7554401D01*
X-7155926Y7553555D01*
X-7155928Y7553555D01*
X-7184338Y7550922D01*
X-7193472Y7550500D01*
X-7202844Y7550500D01*
X-7207339Y7549661D01*
X-7207350Y7549659D01*
X-7212061Y7548778D01*
X-7221105Y7547517D01*
X-7249522Y7544883D01*
X-7249528Y7544882D01*
X-7258660Y7544035D01*
X-7266870Y7539949D01*
X-7271717Y7538569D01*
X-7276423Y7536747D01*
X-7285433Y7535061D01*
X-7293226Y7530237D01*
X-7293229Y7530235D01*
X-7317484Y7515217D01*
X-7325466Y7510771D01*
X-7351015Y7498049D01*
X-7351021Y7498046D01*
X-7359228Y7493958D01*
X-7365406Y7487183D01*
X-7369437Y7484138D01*
X-7373160Y7480745D01*
X-7380952Y7475919D01*
X-7386478Y7468603D01*
X-7386480Y7468600D01*
X-7403678Y7445826D01*
X-7409512Y7438801D01*
X-7434916Y7410933D01*
X-7438228Y7402386D01*
X-7440876Y7398109D01*
X-7443130Y7393583D01*
X-7448656Y7386264D01*
X-7451166Y7377446D01*
X-7451169Y7377438D01*
X-7458976Y7349998D01*
X-7461880Y7341331D01*
X-7472188Y7314724D01*
X-7472189Y7314722D01*
X-7475500Y7306173D01*
X-7475500Y7297003D01*
X-7476425Y7292054D01*
X-7476891Y7287031D01*
X-7479401Y7278207D01*
X-7478555Y7269076D01*
X-7478555Y7269073D01*
X-7475922Y7240662D01*
X-7475500Y7231528D01*
X-7475500Y-7194272D01*
X-7476824Y-7203763D01*
X-7476044Y-7203836D01*
X-7476891Y-7212969D01*
X-7479401Y-7221793D01*
X-8778927Y-7221793D01*
X-9130524Y-6609746D01*
X-9137064Y-6621016D01*
X-9137066Y-6621019D01*
X-13285665Y-13770736D01*
X-13285666Y-13770738D01*
X-13292206Y-13782010D01*
X-15135821Y-13782010D01*
X-17026953Y-10490000D01*
X-17033493Y-10501270D01*
X-17033495Y-10501273D01*
X-19101253Y-14064859D01*
X-19101254Y-14064861D01*
X-19107794Y-14076133D01*
X-19993531Y-14076133D01*
X-23238318Y-8427736D01*
X-23244858Y-8439006D01*
X-23244860Y-8439009D01*
X-27393459Y-15588726D01*
X-27393460Y-15588728D01*
X-27400000Y-15600000D01*
X-36501721Y-15600000D01*
X-36513979Y-15570736D01*
X-36855145Y-14756243D01*
X-36856284Y-14753398D01*
X-37304790Y-13579436D01*
X-37305828Y-13576581D01*
X-37716841Y-12389037D01*
X-37717818Y-12386061D01*
X-38090933Y-11186118D01*
X-38091810Y-11183128D01*
X-38148015Y-10979834D01*
X-38258001Y-10582010D01*
X-35492206Y-10582010D01*
X-27200000Y-10600000D01*
X-29140650Y-7221793D01*
X-26979401Y-7221793D01*
X-26978555Y-7230924D01*
X-26978555Y-7230927D01*
X-26975922Y-7259338D01*
X-26975500Y-7268472D01*
X-26975500Y-7277844D01*
X-26974660Y-7282343D01*
X-26974659Y-7282344D01*
X-26973778Y-7287059D01*
X-26972517Y-7296105D01*
X-26969884Y-7324521D01*
X-26969882Y-7324531D01*
X-26969035Y-7333660D01*
X-26964947Y-7341871D01*
X-26963568Y-7346716D01*
X-26961748Y-7351416D01*
X-26960061Y-7360433D01*
X-26940207Y-7392498D01*
X-26935772Y-7400460D01*
X-26918958Y-7434228D01*
X-26912180Y-7440407D01*
X-26909141Y-7444431D01*
X-26905749Y-7448152D01*
X-26900919Y-7455952D01*
X-26870830Y-7478674D01*
X-26863805Y-7484507D01*
X-26835933Y-7509916D01*
X-26827373Y-7513232D01*
X-26823088Y-7515885D01*
X-26818586Y-7518126D01*
X-26811264Y-7523656D01*
X-26774998Y-7533974D01*
X-26766343Y-7536874D01*
X-26731173Y-7550500D01*
X-26721996Y-7550500D01*
X-26717049Y-7551425D01*
X-26712034Y-7551889D01*
X-26703207Y-7554401D01*
X-26665663Y-7550922D01*
X-26656528Y-7550500D01*
X-12380728Y-7550500D01*
X-12371237Y-7551823D01*
X-12371164Y-7551044D01*
X-12362033Y-7551890D01*
X-12353207Y-7554401D01*
X-12315663Y-7550922D01*
X-12306528Y-7550500D01*
X-12301737Y-7550500D01*
X-12297156Y-7550500D01*
X-12287951Y-7548778D01*
X-12278893Y-7547514D01*
X-12241340Y-7544035D01*
X-12233124Y-7539943D01*
X-12228286Y-7538567D01*
X-12223589Y-7536747D01*
X-12214567Y-7535061D01*
X-12182509Y-7515210D01*
X-12174537Y-7510770D01*
X-12140772Y-7493958D01*
X-12134587Y-7487172D01*
X-12130566Y-7484136D01*
X-12126853Y-7480750D01*
X-12119048Y-7475919D01*
X-12096327Y-7445829D01*
X-12090496Y-7438806D01*
X-12065084Y-7410933D01*
X-12061770Y-7402375D01*
X-12059127Y-7398108D01*
X-12056878Y-7393591D01*
X-12051344Y-7386264D01*
X-12041023Y-7349983D01*
X-12038128Y-7341348D01*
X-12024500Y-7306173D01*
X-12024500Y-7296998D01*
X-12023575Y-7292050D01*
X-12023111Y-7287033D01*
X-12020599Y-7278207D01*
X-12024078Y-7240662D01*
X-12024500Y-7231528D01*
X-12024500Y7194272D01*
X-12023177Y7203764D01*
X-12023956Y7203836D01*
X-12023110Y7212968D01*
X-12020599Y7221793D01*
X-12024078Y7259338D01*
X-12024500Y7268472D01*
X-12024500Y7273263D01*
X-12024500Y7277844D01*
X-12026222Y7287055D01*
X-12027486Y7296103D01*
X-12030965Y7333660D01*
X-12035055Y7341873D01*
X-12036431Y7346711D01*
X-12038253Y7351414D01*
X-12039939Y7360433D01*
X-12059783Y7392482D01*
X-12064234Y7400472D01*
X-12069443Y7410933D01*
X-12081042Y7434228D01*
X-12087821Y7440408D01*
X-12090855Y7444426D01*
X-12094252Y7448152D01*
X-12099081Y7455952D01*
X-12129167Y7478672D01*
X-12136202Y7484513D01*
X-12140042Y7488014D01*
X-12164067Y7509916D01*
X-12172619Y7513230D01*
X-12176896Y7515878D01*
X-12181418Y7518130D01*
X-12188736Y7523656D01*
X-12197557Y7526166D01*
X-12197559Y7526167D01*
X-12224999Y7533974D01*
X-12233668Y7536880D01*
X-12260274Y7547187D01*
X-12260277Y7547188D01*
X-12268827Y7550500D01*
X-12277998Y7550500D01*
X-12282947Y7551425D01*
X-12287970Y7551891D01*
X-12296793Y7554401D01*
X-12305926Y7553555D01*
X-12305928Y7553555D01*
X-12334338Y7550922D01*
X-12343472Y7550500D01*
X-26619272Y7550500D01*
X-26628764Y7551824D01*
X-26628836Y7551044D01*
X-26637970Y7551891D01*
X-26646793Y7554401D01*
X-26655926Y7553555D01*
X-26655928Y7553555D01*
X-26684338Y7550922D01*
X-26693472Y7550500D01*
X-26702844Y7550500D01*
X-26707339Y7549661D01*
X-26707350Y7549659D01*
X-26712061Y7548778D01*
X-26721105Y7547517D01*
X-26749522Y7544883D01*
X-26749528Y7544882D01*
X-26758660Y7544035D01*
X-26766870Y7539949D01*
X-26771717Y7538569D01*
X-26776423Y7536747D01*
X-26785433Y7535061D01*
X-26793226Y7530237D01*
X-26793229Y7530235D01*
X-26817484Y7515217D01*
X-26825466Y7510771D01*
X-26851015Y7498049D01*
X-26851021Y7498046D01*
X-26859228Y7493958D01*
X-26865406Y7487183D01*
X-26869437Y7484138D01*
X-26873160Y7480745D01*
X-26880952Y7475919D01*
X-26886478Y7468603D01*
X-26886480Y7468600D01*
X-26903678Y7445826D01*
X-26909512Y7438801D01*
X-26934916Y7410933D01*
X-26938228Y7402386D01*
X-26940876Y7398109D01*
X-26943130Y7393583D01*
X-26948656Y7386264D01*
X-26951166Y7377446D01*
X-26951169Y7377438D01*
X-26958976Y7349998D01*
X-26961880Y7341331D01*
X-26972188Y7314724D01*
X-26972189Y7314722D01*
X-26975500Y7306173D01*
X-26975500Y7297003D01*
X-26976425Y7292054D01*
X-26976891Y7287031D01*
X-26979401Y7278207D01*
X-26978555Y7269076D01*
X-26978555Y7269073D01*
X-26975922Y7240662D01*
X-26975500Y7231528D01*
X-26975500Y-7194272D01*
X-26976824Y-7203763D01*
X-26976044Y-7203836D01*
X-26976891Y-7212969D01*
X-26979401Y-7221793D01*
X-29140650Y-7221793D01*
X-31330524Y-3409746D01*
X-31337064Y-3421016D01*
X-31337066Y-3421019D01*
X-35485665Y-10570736D01*
X-35485666Y-10570738D01*
X-35492206Y-10582010D01*
X-38258001Y-10582010D01*
X-38426666Y-9971945D01*
X-38427450Y-9968922D01*
X-38723705Y-8747743D01*
X-38724397Y-8744679D01*
X-38943236Y-7698814D01*
X-38981758Y-7514710D01*
X-38982349Y-7511645D01*
X-38984747Y-7498046D01*
X-39200569Y-6274060D01*
X-39201048Y-6271062D01*
X-39379886Y-5027221D01*
X-39380283Y-5024106D01*
X-39519563Y-3775250D01*
X-39519862Y-3772123D01*
X-39619453Y-2519402D01*
X-39619645Y-2516376D01*
X-39679439Y-1261148D01*
X-39679538Y-1258022D01*
X-39685425Y-887013D01*
X-39699476Y-1512D01*
X-39699476Y1512D01*
X-39679538Y1258039D01*
X-39679438Y1261163D01*
X-39679206Y1266025D01*
X-39619645Y2516381D01*
X-39619453Y2519399D01*
X-39611615Y2617990D01*
X-36692206Y2617990D01*
X-28400000Y2600000D01*
X-32530524Y9790254D01*
X-32537064Y9778984D01*
X-32537066Y9778981D01*
X-36685665Y2629264D01*
X-36685666Y2629262D01*
X-36692206Y2617990D01*
X-39611615Y2617990D01*
X-39519859Y3772158D01*
X-39519567Y3775217D01*
X-39380282Y5024116D01*
X-39379885Y5027223D01*
X-39376378Y5051615D01*
X-39201047Y6271073D01*
X-39200570Y6274052D01*
X-38982344Y7511678D01*
X-38981761Y7514699D01*
X-38724395Y8744692D01*
X-38723705Y8747744D01*
X-38667607Y8978981D01*
X-38427442Y9968956D01*
X-38426670Y9971931D01*
X-38091799Y11183170D01*
X-38090938Y11186102D01*
X-37717810Y12386090D01*
X-37716848Y12389019D01*
X-37305821Y13576603D01*
X-37304798Y13579417D01*
X-37144116Y14000000D01*
X-30305348Y14000000D01*
X-30305203Y13997326D01*
X-30286118Y13645312D01*
X-30286117Y13645303D01*
X-30285972Y13642629D01*
X-30285540Y13639991D01*
X-30285538Y13639977D01*
X-30228505Y13292090D01*
X-30228502Y13292075D01*
X-30228071Y13289448D01*
X-30132324Y12944597D01*
X-29999853Y12612120D01*
X-29998606Y12609767D01*
X-29998605Y12609766D01*
X-29833466Y12298281D01*
X-29833461Y12298273D01*
X-29832211Y12295915D01*
X-29631365Y11999689D01*
X-29629625Y11997641D01*
X-29401409Y11728963D01*
X-29401404Y11728958D01*
X-29399668Y11726914D01*
X-29139837Y11480789D01*
X-28854919Y11264200D01*
X-28548253Y11079685D01*
X-28358575Y10991931D01*
X-28225878Y10930539D01*
X-28225875Y10930538D01*
X-28223435Y10929409D01*
X-27884274Y10815132D01*
X-27534746Y10738195D01*
X-27178948Y10699500D01*
X-26823732Y10699500D01*
X-26821052Y10699500D01*
X-26465254Y10738195D01*
X-26115726Y10815132D01*
X-25776565Y10929409D01*
X-25451747Y11079685D01*
X-25145081Y11264200D01*
X-24860163Y11480789D01*
X-24600332Y11726914D01*
X-24368635Y11999689D01*
X-24167789Y12295915D01*
X-24149718Y12330000D01*
X-10930000Y12330000D01*
X-6783897Y12321005D01*
X-8849159Y15916133D01*
X-8855699Y15904863D01*
X-8855701Y15904860D01*
X-10923459Y12341274D01*
X-10923460Y12341272D01*
X-10930000Y12330000D01*
X-24149718Y12330000D01*
X-24000147Y12612120D01*
X-23867676Y12944597D01*
X-23771929Y13289448D01*
X-23714028Y13642629D01*
X-23694652Y14000000D01*
X-23714028Y14357371D01*
X-23771929Y14710552D01*
X-23867676Y15055403D01*
X-24000147Y15387880D01*
X-24167789Y15704085D01*
X-24368635Y16000311D01*
X-24600332Y16273086D01*
X-24860163Y16519211D01*
X-25145081Y16735800D01*
X-25451747Y16920315D01*
X-25454174Y16921438D01*
X-25774123Y17069462D01*
X-25774136Y17069467D01*
X-25776565Y17070591D01*
X-25779099Y17071445D01*
X-25779112Y17071450D01*
X-26113196Y17184016D01*
X-26113204Y17184019D01*
X-26115726Y17184868D01*
X-26118339Y17185444D01*
X-26118342Y17185444D01*
X-26462624Y17261226D01*
X-26462623Y17261226D01*
X-26465254Y17261805D01*
X-26467916Y17262095D01*
X-26467925Y17262096D01*
X-26818391Y17300211D01*
X-26818399Y17300212D01*
X-26821052Y17300500D01*
X-27178948Y17300500D01*
X-27181601Y17300212D01*
X-27181610Y17300211D01*
X-27532076Y17262096D01*
X-27532088Y17262095D01*
X-27534746Y17261805D01*
X-27537375Y17261227D01*
X-27537377Y17261226D01*
X-27881659Y17185444D01*
X-27881666Y17185443D01*
X-27884274Y17184868D01*
X-27886792Y17184020D01*
X-27886805Y17184016D01*
X-28220889Y17071450D01*
X-28220908Y17071443D01*
X-28223435Y17070591D01*
X-28225859Y17069470D01*
X-28225878Y17069462D01*
X-28545827Y16921438D01*
X-28545837Y16921434D01*
X-28548253Y16920315D01*
X-28550532Y16918945D01*
X-28550543Y16918938D01*
X-28852625Y16737181D01*
X-28852635Y16737175D01*
X-28854919Y16735800D01*
X-28857046Y16734184D01*
X-28857055Y16734177D01*
X-29137697Y16520838D01*
X-29139837Y16519211D01*
X-29141774Y16517377D01*
X-29141786Y16517366D01*
X-29397719Y16274933D01*
X-29397727Y16274926D01*
X-29399668Y16273086D01*
X-29401396Y16271053D01*
X-29401409Y16271038D01*
X-29629625Y16002360D01*
X-29631365Y16000311D01*
X-29632869Y15998094D01*
X-29632875Y15998085D01*
X-29830704Y15706309D01*
X-29830712Y15706298D01*
X-29832211Y15704085D01*
X-29833457Y15701737D01*
X-29833466Y15701720D01*
X-29998605Y15390235D01*
X-29998609Y15390227D01*
X-29999853Y15387880D01*
X-30000840Y15385405D01*
X-30000840Y15385403D01*
X-30131335Y15057887D01*
X-30131339Y15057876D01*
X-30132324Y15055403D01*
X-30133039Y15052829D01*
X-30133042Y15052819D01*
X-30227354Y14713137D01*
X-30227357Y14713125D01*
X-30228071Y14710552D01*
X-30228501Y14707930D01*
X-30228505Y14707911D01*
X-30285538Y14360024D01*
X-30285540Y14360008D01*
X-30285972Y14357371D01*
X-30286117Y14354700D01*
X-30286118Y14354689D01*
X-30304556Y14014626D01*
X-30305348Y14000000D01*
X-37144116Y14000000D01*
X-36856276Y14753420D01*
X-36855154Y14756223D01*
X-36369657Y15915290D01*
X-36368402Y15918157D01*
X-36206311Y16273086D01*
X-35846372Y17061242D01*
X-35845027Y17064066D01*
X-35653753Y17450000D01*
X4140000Y17450000D01*
X8286103Y17441005D01*
X6220841Y21036133D01*
X6214301Y21024863D01*
X6214299Y21024860D01*
X4146541Y17461274D01*
X4146540Y17461272D01*
X4140000Y17450000D01*
X-35653753Y17450000D01*
X-35286995Y18190010D01*
X-35285619Y18192680D01*
X-34692110Y19300412D01*
X-34690622Y19303087D01*
X-34329395Y19928751D01*
X-4856619Y19928751D01*
X-710516Y19919756D01*
X-1480434Y21260000D01*
X25730000Y21260000D01*
X29876103Y21251005D01*
X27810841Y24846133D01*
X27804301Y24834863D01*
X27804299Y24834860D01*
X25736541Y21271274D01*
X25736540Y21271272D01*
X25730000Y21260000D01*
X-1480434Y21260000D01*
X-2775778Y23514884D01*
X-2782318Y23503614D01*
X-2782320Y23503611D01*
X-4850078Y19940025D01*
X-4850079Y19940023D01*
X-4856619Y19928751D01*
X-34329395Y19928751D01*
X-34062272Y20391423D01*
X-34060700Y20394048D01*
X-33994177Y20501262D01*
X-25248678Y20501262D01*
X-12810369Y20474277D01*
X-15984683Y26000000D01*
X5000000Y26000000D01*
X13084804Y25982461D01*
X13134272Y25969090D01*
X13170430Y25932775D01*
X13183586Y25883246D01*
X13170215Y25833775D01*
X12244859Y24239010D01*
X12244858Y24239008D01*
X12238318Y24227736D01*
X20530524Y24209746D01*
X16483361Y31254889D01*
X16406492Y31388699D01*
X16406491Y31388700D01*
X16400000Y31400000D01*
X16393460Y31388730D01*
X16393458Y31388727D01*
X15441207Y29747613D01*
X15404892Y29711455D01*
X15355363Y29698299D01*
X15305892Y29711670D01*
X15269735Y29747984D01*
X11242523Y36758397D01*
X11235983Y36747127D01*
X11235981Y36747124D01*
X5006541Y26011274D01*
X5006540Y26011272D01*
X5000000Y26000000D01*
X-15984683Y26000000D01*
X-16925052Y27636957D01*
X-16925068Y27636985D01*
X-14648309Y27636985D01*
X-2913890Y27611528D01*
X-2864419Y27598157D01*
X-2828261Y27561842D01*
X-2815105Y27512313D01*
X-2828476Y27462842D01*
X-3473459Y26351274D01*
X-3473460Y26351272D01*
X-3480000Y26340000D01*
X666103Y26331005D01*
X-1086245Y29381425D01*
X-1392667Y29914832D01*
X-1392668Y29914833D01*
X-1399159Y29926133D01*
X-1405699Y29914863D01*
X-1405701Y29914860D01*
X-2389151Y28219978D01*
X-2425466Y28183820D01*
X-2474995Y28170664D01*
X-2524466Y28184035D01*
X-2560623Y28220349D01*
X-8405786Y38395382D01*
X-8412326Y38384112D01*
X-8412328Y38384109D01*
X-14641768Y27648259D01*
X-14641769Y27648257D01*
X-14648309Y27636985D01*
X-16925068Y27636985D01*
X-18999663Y31248358D01*
X-18999664Y31248359D01*
X-19006155Y31259659D01*
X-19012695Y31248389D01*
X-19012697Y31248386D01*
X-25242137Y20512536D01*
X-25242138Y20512534D01*
X-25248678Y20501262D01*
X-33994177Y20501262D01*
X-33398143Y21461885D01*
X-33396495Y21464449D01*
X-32700406Y22510705D01*
X-32698672Y22513225D01*
X-31969703Y23536919D01*
X-31967886Y23539386D01*
X-31206855Y24539370D01*
X-31204951Y24541791D01*
X-30412536Y25517173D01*
X-30410586Y25519496D01*
X-29587618Y26469252D01*
X-29585612Y26471494D01*
X-28732936Y27394648D01*
X-28730781Y27396908D01*
X-27849287Y28292501D01*
X-27847092Y28294662D01*
X-26937584Y29161876D01*
X-26935325Y29163962D01*
X-25998787Y30001858D01*
X-25996467Y30003869D01*
X-25033787Y30811654D01*
X-25031448Y30813554D01*
X-24043625Y31590386D01*
X-24041165Y31592259D01*
X-23029200Y32337353D01*
X-23026700Y32339132D01*
X-21991607Y33051742D01*
X-21989047Y33053445D01*
X-20931866Y33732854D01*
X-20929283Y33734456D01*
X-19851069Y34379987D01*
X-19848409Y34381523D01*
X-18750286Y34992502D01*
X-18747563Y34993961D01*
X-17630611Y35569790D01*
X-17627829Y35571169D01*
X-16493128Y36111289D01*
X-16490379Y36112543D01*
X-15339108Y36616392D01*
X-15336266Y36617582D01*
X-14169645Y37084627D01*
X-14166786Y37085720D01*
X-12985874Y37515537D01*
X-12982949Y37516549D01*
X-11789061Y37908660D01*
X-11786115Y37909576D01*
X-10580378Y38263612D01*
X-10577371Y38264443D01*
X-9361015Y38580044D01*
X-9358019Y38580771D01*
X-8132224Y38857629D01*
X-8129186Y38858265D01*
X-6895266Y39096083D01*
X-6892185Y39096625D01*
X-5651402Y39295165D01*
X-5648309Y39295610D01*
X-4401763Y39454694D01*
X-4398664Y39455039D01*
X-3147722Y39574490D01*
X-3144643Y39574734D01*
X-1890488Y39654439D01*
X-1887437Y39654583D01*
X-631447Y39694453D01*
X-628305Y39694503D01*
X628305Y39694503D01*
X631446Y39694453D01*
G37*
%TD.AperFunction*%
%TD*%
M02*
