M48
; DRILL file {KiCad (7.0.0-0)} date Tuesday, March 07, 2023 at 01:41:50 AM
; FORMAT={-:-/ absolute / inch / decimal}
; #@! TF.CreationDate,2023-03-07T01:41:50-06:00
; #@! TF.GenerationSoftware,Kicad,Pcbnew,(7.0.0-0)
; #@! TF.FileFunction,Plated,1,2,PTH
FMAT,2
INCH
; #@! TA.AperFunction,Plated,PTH,ViaDrill
T1C0.0138
; #@! TA.AperFunction,Plated,PTH,ComponentDrill
T2C0.0138
; #@! TA.AperFunction,Plated,PTH,ComponentDrill
T3C0.0236
%
G90
G05
T1
X-1.3598Y-0.4079
X-1.3453Y0.0508
X-1.2573Y0.005
X-1.2535Y-0.4059
X-0.9181Y-0.1961
X-0.9079Y0.9854
X-0.9055Y-0.0323
X-0.8595Y-1.0427
X-0.8148Y0.5171
X-0.8132Y0.87
X-0.807Y0.087
X-0.7902Y0.9878
X-0.7359Y0.7021
X-0.7019Y-1.0224
X-0.6902Y-0.1685
X-0.6827Y1.1795
X-0.6808Y0.5171
X-0.6678Y0.864
X-0.6255Y0.7446
X-0.6223Y0.6666
X-0.5824Y0.8091
X-0.5819Y0.5891
X-0.5467Y0.6397
X-0.5324Y0.5575
X-0.5324Y0.6015
X-0.4969Y0.7341
X-0.4723Y0.9534
X-0.4307Y0.585
X-0.3625Y0.804
X-0.3515Y0.4192
X-0.3382Y-0.8071
X-0.3226Y0.5924
X-0.3187Y1.3424
X-0.229Y0.8021
X-0.1569Y0.5904
X-0.1528Y-0.1913
X-0.1502Y1.1798
X-0.128Y-0.4445
X-0.1244Y1.2217
X-0.1114Y0.3664
X-0.1039Y-0.076
X-0.0965Y1.1035
X-0.0957Y0.0382
X-0.0716Y-0.6556
X-0.069Y0.3668
X-0.0506Y0.6254
X-0.0386Y-0.4417
X-0.0128Y1.3139
X0.0354Y1.3161
X0.0533Y0.3948
X0.0628Y0.6612
X0.0636Y0.6195
X0.0686Y0.4989
X0.0691Y0.4599
X0.0787Y-0.1701
X0.0803Y-0.5307
X0.1118Y1.165
X0.1571Y1.2287
X0.2139Y0.8837
X0.2266Y0.7532
X0.4429Y-0.8028
X0.5128Y0.9362
X0.5276Y0.5106
X0.6154Y-0.9815
X0.6185Y-0.1933
X0.6398Y0.6685
X0.6642Y-0.0665
X0.7547Y-0.9669
X0.8413Y-0.1724
X0.8551Y-0.0191
X0.9059Y0.9811
X1.0213Y0.9354
X1.2185Y-0.2382
X1.238Y0.0037
X1.2591Y-0.1594
X1.287Y-0.2366
T2
X-0.2898Y0.6677
X-0.2898Y0.6175
X-0.2898Y0.5673
X-0.2396Y0.6677
X-0.2396Y0.6175
X-0.2396Y0.5673
X-0.1894Y0.6677
X-0.1894Y0.6175
X-0.1894Y0.5673
T3
G00X-0.1701Y1.4439
M15
G01X-0.1701Y1.4754
M16
G05
G00X-0.1701Y1.2734
M15
G01X-0.1701Y1.3167
M16
G05
G00X0.1701Y1.4439
M15
G01X0.1701Y1.4754
M16
G05
G00X0.1701Y1.2734
M15
G01X0.1701Y1.3167
M16
G05
T0
M30
