%TF.GenerationSoftware,KiCad,Pcbnew,(7.0.0-0)*%
%TF.CreationDate,2023-03-25T02:40:01-05:00*%
%TF.ProjectId,RP2040_minimal,52503230-3430-45f6-9d69-6e696d616c2e,REV1*%
%TF.SameCoordinates,Original*%
%TF.FileFunction,Copper,L1,Top*%
%TF.FilePolarity,Positive*%
%FSLAX46Y46*%
G04 Gerber Fmt 4.6, Leading zero omitted, Abs format (unit mm)*
G04 Created by KiCad (PCBNEW (7.0.0-0)) date 2023-03-25 02:40:01*
%MOMM*%
%LPD*%
G01*
G04 APERTURE LIST*
G04 Aperture macros list*
%AMRoundRect*
0 Rectangle with rounded corners*
0 $1 Rounding radius*
0 $2 $3 $4 $5 $6 $7 $8 $9 X,Y pos of 4 corners*
0 Add a 4 corners polygon primitive as box body*
4,1,4,$2,$3,$4,$5,$6,$7,$8,$9,$2,$3,0*
0 Add four circle primitives for the rounded corners*
1,1,$1+$1,$2,$3*
1,1,$1+$1,$4,$5*
1,1,$1+$1,$6,$7*
1,1,$1+$1,$8,$9*
0 Add four rect primitives between the rounded corners*
20,1,$1+$1,$2,$3,$4,$5,0*
20,1,$1+$1,$4,$5,$6,$7,0*
20,1,$1+$1,$6,$7,$8,$9,0*
20,1,$1+$1,$8,$9,$2,$3,0*%
G04 Aperture macros list end*
%TA.AperFunction,SMDPad,CuDef*%
%ADD10RoundRect,0.150000X0.512500X0.150000X-0.512500X0.150000X-0.512500X-0.150000X0.512500X-0.150000X0*%
%TD*%
%TA.AperFunction,SMDPad,CuDef*%
%ADD11RoundRect,0.250000X0.475000X-0.250000X0.475000X0.250000X-0.475000X0.250000X-0.475000X-0.250000X0*%
%TD*%
%TA.AperFunction,SMDPad,CuDef*%
%ADD12RoundRect,0.225000X0.225000X0.250000X-0.225000X0.250000X-0.225000X-0.250000X0.225000X-0.250000X0*%
%TD*%
%TA.AperFunction,SMDPad,CuDef*%
%ADD13RoundRect,0.150000X-0.512500X-0.150000X0.512500X-0.150000X0.512500X0.150000X-0.512500X0.150000X0*%
%TD*%
%TA.AperFunction,SMDPad,CuDef*%
%ADD14R,0.600000X1.150000*%
%TD*%
%TA.AperFunction,SMDPad,CuDef*%
%ADD15R,0.300000X1.150000*%
%TD*%
%TA.AperFunction,ComponentPad*%
%ADD16O,1.000000X1.800000*%
%TD*%
%TA.AperFunction,ComponentPad*%
%ADD17O,1.000000X2.200000*%
%TD*%
%TA.AperFunction,SMDPad,CuDef*%
%ADD18RoundRect,0.140000X0.140000X0.170000X-0.140000X0.170000X-0.140000X-0.170000X0.140000X-0.170000X0*%
%TD*%
%TA.AperFunction,SMDPad,CuDef*%
%ADD19R,0.800000X1.000000*%
%TD*%
%TA.AperFunction,SMDPad,CuDef*%
%ADD20R,1.500000X0.700000*%
%TD*%
%TA.AperFunction,SMDPad,CuDef*%
%ADD21RoundRect,0.150000X0.587500X0.150000X-0.587500X0.150000X-0.587500X-0.150000X0.587500X-0.150000X0*%
%TD*%
%TA.AperFunction,SMDPad,CuDef*%
%ADD22R,1.200000X1.400000*%
%TD*%
%TA.AperFunction,SMDPad,CuDef*%
%ADD23R,1.000000X0.700000*%
%TD*%
%TA.AperFunction,SMDPad,CuDef*%
%ADD24R,0.600000X0.700000*%
%TD*%
%TA.AperFunction,SMDPad,CuDef*%
%ADD25RoundRect,0.250000X-0.325000X-0.650000X0.325000X-0.650000X0.325000X0.650000X-0.325000X0.650000X0*%
%TD*%
%TA.AperFunction,SMDPad,CuDef*%
%ADD26RoundRect,0.140000X-0.170000X0.140000X-0.170000X-0.140000X0.170000X-0.140000X0.170000X0.140000X0*%
%TD*%
%TA.AperFunction,SMDPad,CuDef*%
%ADD27RoundRect,0.250000X-0.650000X0.325000X-0.650000X-0.325000X0.650000X-0.325000X0.650000X0.325000X0*%
%TD*%
%TA.AperFunction,SMDPad,CuDef*%
%ADD28R,1.000000X1.200000*%
%TD*%
%TA.AperFunction,SMDPad,CuDef*%
%ADD29R,2.000000X1.500000*%
%TD*%
%TA.AperFunction,SMDPad,CuDef*%
%ADD30R,2.000000X3.800000*%
%TD*%
%TA.AperFunction,SMDPad,CuDef*%
%ADD31RoundRect,0.140000X0.170000X-0.140000X0.170000X0.140000X-0.170000X0.140000X-0.170000X-0.140000X0*%
%TD*%
%TA.AperFunction,SMDPad,CuDef*%
%ADD32RoundRect,0.250000X0.325000X0.650000X-0.325000X0.650000X-0.325000X-0.650000X0.325000X-0.650000X0*%
%TD*%
%TA.AperFunction,SMDPad,CuDef*%
%ADD33RoundRect,0.140000X-0.140000X-0.170000X0.140000X-0.170000X0.140000X0.170000X-0.140000X0.170000X0*%
%TD*%
%TA.AperFunction,ComponentPad*%
%ADD34R,1.700000X1.700000*%
%TD*%
%TA.AperFunction,ComponentPad*%
%ADD35O,1.700000X1.700000*%
%TD*%
%TA.AperFunction,SMDPad,CuDef*%
%ADD36RoundRect,0.135000X0.135000X0.185000X-0.135000X0.185000X-0.135000X-0.185000X0.135000X-0.185000X0*%
%TD*%
%TA.AperFunction,SMDPad,CuDef*%
%ADD37RoundRect,0.150000X-0.150000X0.512500X-0.150000X-0.512500X0.150000X-0.512500X0.150000X0.512500X0*%
%TD*%
%TA.AperFunction,SMDPad,CuDef*%
%ADD38RoundRect,0.112500X0.112500X-0.187500X0.112500X0.187500X-0.112500X0.187500X-0.112500X-0.187500X0*%
%TD*%
%TA.AperFunction,SMDPad,CuDef*%
%ADD39RoundRect,0.150000X-0.587500X-0.150000X0.587500X-0.150000X0.587500X0.150000X-0.587500X0.150000X0*%
%TD*%
%TA.AperFunction,SMDPad,CuDef*%
%ADD40RoundRect,0.135000X0.185000X-0.135000X0.185000X0.135000X-0.185000X0.135000X-0.185000X-0.135000X0*%
%TD*%
%TA.AperFunction,SMDPad,CuDef*%
%ADD41RoundRect,0.075000X-0.700000X-0.075000X0.700000X-0.075000X0.700000X0.075000X-0.700000X0.075000X0*%
%TD*%
%TA.AperFunction,SMDPad,CuDef*%
%ADD42RoundRect,0.075000X-0.075000X-0.700000X0.075000X-0.700000X0.075000X0.700000X-0.075000X0.700000X0*%
%TD*%
%TA.AperFunction,SMDPad,CuDef*%
%ADD43RoundRect,0.250000X-0.375000X-0.625000X0.375000X-0.625000X0.375000X0.625000X-0.375000X0.625000X0*%
%TD*%
%TA.AperFunction,SMDPad,CuDef*%
%ADD44RoundRect,0.250000X-0.475000X0.250000X-0.475000X-0.250000X0.475000X-0.250000X0.475000X0.250000X0*%
%TD*%
%TA.AperFunction,ViaPad*%
%ADD45C,0.800000*%
%TD*%
%TA.AperFunction,ViaPad*%
%ADD46C,0.600000*%
%TD*%
%TA.AperFunction,Conductor*%
%ADD47C,0.300000*%
%TD*%
%TA.AperFunction,Conductor*%
%ADD48C,0.600000*%
%TD*%
%TA.AperFunction,Conductor*%
%ADD49C,0.400000*%
%TD*%
%TA.AperFunction,Conductor*%
%ADD50C,0.250000*%
%TD*%
G04 APERTURE END LIST*
D10*
%TO.P,U6,1*%
%TO.N,O_ADC_IN3*%
X11497500Y5020000D03*
%TO.P,U6,2,V-*%
%TO.N,GND*%
X11497500Y5970000D03*
%TO.P,U6,3,+*%
%TO.N,ALT_ADC_3*%
X11497500Y6920000D03*
%TO.P,U6,4,-*%
%TO.N,O_ADC_IN3*%
X9222500Y6920000D03*
%TO.P,U6,5,V+*%
%TO.N,V_test*%
X9222500Y5020000D03*
%TD*%
D11*
%TO.P,FB1,1*%
%TO.N,VDD*%
X-16630000Y8460000D03*
%TO.P,FB1,2*%
%TO.N,VDDA*%
X-16630000Y10360000D03*
%TD*%
D12*
%TO.P,C1,1*%
%TO.N,VDD*%
X-13575000Y20400000D03*
%TO.P,C1,2*%
%TO.N,GND*%
X-15125000Y20400000D03*
%TD*%
D13*
%TO.P,Q1,1,NC*%
%TO.N,unconnected-(Q1-NC-Pad1)*%
X3970000Y16365000D03*
%TO.P,Q1,2,A*%
%TO.N,LED_D*%
X3970000Y15415000D03*
%TO.P,Q1,3,GND*%
%TO.N,GND*%
X3970000Y14465000D03*
%TO.P,Q1,4,Y*%
%TO.N,Net-(D2-DIN)*%
X6245000Y14465000D03*
%TO.P,Q1,5,VCC*%
%TO.N,Net-(D1-K)*%
X6245000Y16365000D03*
%TD*%
D14*
%TO.P,P1,A1,GND*%
%TO.N,GND*%
X3199999Y26894999D03*
%TO.P,P1,A4,VBUS*%
%TO.N,VBUS*%
X2399999Y26894999D03*
D15*
%TO.P,P1,A5,CC1*%
%TO.N,Net-(P1-CC1)*%
X1249999Y26894999D03*
%TO.P,P1,A6,D+*%
%TO.N,USB_D+*%
X249999Y26894999D03*
%TO.P,P1,A7,D-*%
%TO.N,USB_D-*%
X-249999Y26894999D03*
%TO.P,P1,A8,SBU1*%
%TO.N,unconnected-(P1-SBU1-PadA8)*%
X-1249999Y26894999D03*
D14*
%TO.P,P1,A9,VBUS*%
%TO.N,VBUS*%
X-2399999Y26894999D03*
%TO.P,P1,A12,GND*%
%TO.N,GND*%
X-3199999Y26894999D03*
%TO.P,P1,B1,GND*%
X-3199999Y26894999D03*
%TO.P,P1,B4,VBUS*%
%TO.N,VBUS*%
X-2399999Y26894999D03*
D15*
%TO.P,P1,B5,CC2*%
%TO.N,Net-(P1-CC2)*%
X-1749999Y26894999D03*
%TO.P,P1,B6,D+*%
%TO.N,USB_D+*%
X-749999Y26894999D03*
%TO.P,P1,B7,D-*%
%TO.N,USB_D-*%
X749999Y26894999D03*
%TO.P,P1,B8,SBU2*%
%TO.N,unconnected-(P1-SBU2-PadB8)*%
X1749999Y26894999D03*
D14*
%TO.P,P1,B9,VBUS*%
%TO.N,VBUS*%
X2399999Y26894999D03*
%TO.P,P1,B12,GND*%
%TO.N,GND*%
X3199999Y26894999D03*
D16*
%TO.P,P1,S1,SHIELD*%
%TO.N,unconnected-(P1-SHIELD-PadS1)*%
X5619999Y28119999D03*
D17*
X5619999Y32119999D03*
D16*
X-5619999Y28119999D03*
D17*
X-5619999Y32119999D03*
%TD*%
D18*
%TO.P,C13,1*%
%TO.N,NRST*%
X-15870000Y14480000D03*
%TO.P,C13,2*%
%TO.N,GND*%
X-16830000Y14480000D03*
%TD*%
%TO.P,C5,1*%
%TO.N,VDD*%
X-11165000Y7000000D03*
%TO.P,C5,2*%
%TO.N,GND*%
X-12125000Y7000000D03*
%TD*%
D19*
%TO.P,SW7,*%
%TO.N,*%
X14599999Y-14169999D03*
X16809999Y-14169999D03*
X14599999Y-6869999D03*
X16809999Y-6869999D03*
D20*
%TO.P,SW7,1,A*%
%TO.N,unconnected-(SW7-A-Pad1)*%
X13949999Y-12769999D03*
%TO.P,SW7,2,B*%
%TO.N,+4V4*%
X13949999Y-9769999D03*
%TO.P,SW7,3,C*%
%TO.N,V_test*%
X13949999Y-8269999D03*
%TD*%
D21*
%TO.P,U9,1,VCC*%
%TO.N,+4V4*%
X20437500Y-950000D03*
%TO.P,U9,2,GND*%
%TO.N,GND*%
X20437500Y950000D03*
%TO.P,U9,3,Vout*%
%TO.N,S_ADC_IN3*%
X18562500Y0D03*
%TD*%
%TO.P,U2,1,GND*%
%TO.N,GND*%
X11037500Y-11860000D03*
%TO.P,U2,2,VO*%
%TO.N,+4V4*%
X11037500Y-9960000D03*
%TO.P,U2,3,VI*%
%TO.N,+5V*%
X9162500Y-10910000D03*
%TD*%
D22*
%TO.P,Y1,1,1*%
%TO.N,OSC_IN*%
X-20609999Y17204999D03*
%TO.P,Y1,2,2*%
%TO.N,GND*%
X-20609999Y15004999D03*
%TO.P,Y1,3,3*%
%TO.N,Net-(C15-Pad1)*%
X-18909999Y15004999D03*
%TO.P,Y1,4,4*%
%TO.N,GND*%
X-18909999Y17204999D03*
%TD*%
D23*
%TO.P,U3,1,GND*%
%TO.N,GND*%
X1909999Y23479999D03*
D24*
%TO.P,U3,2,I/O1*%
%TO.N,USB_D+*%
X209999Y23479999D03*
%TO.P,U3,3,I/O2*%
%TO.N,USB_D-*%
X209999Y21479999D03*
%TO.P,U3,4,VCC*%
%TO.N,VBUS*%
X2109999Y21479999D03*
%TD*%
D25*
%TO.P,C9,1*%
%TO.N,+5V*%
X13015000Y24090000D03*
%TO.P,C9,2*%
%TO.N,GND*%
X15965000Y24090000D03*
%TD*%
D18*
%TO.P,C2,1*%
%TO.N,VDD*%
X-15810000Y17900000D03*
%TO.P,C2,2*%
%TO.N,GND*%
X-16770000Y17900000D03*
%TD*%
D26*
%TO.P,R1,1*%
%TO.N,Net-(P1-CC1)*%
X3600000Y24065000D03*
%TO.P,R1,2*%
%TO.N,GND*%
X3600000Y23105000D03*
%TD*%
D27*
%TO.P,C11,1*%
%TO.N,+5V*%
X6872500Y-10925000D03*
%TO.P,C11,2*%
%TO.N,GND*%
X6872500Y-13875000D03*
%TD*%
D28*
%TO.P,SW8,1,A*%
%TO.N,S_ADC_IN3*%
X6799999Y5619999D03*
%TO.P,SW8,2,B*%
%TO.N,ADC_IN3*%
X4299999Y5619999D03*
%TO.P,SW8,3,C*%
%TO.N,O_ADC_IN3*%
X1799999Y5619999D03*
%TO.P,SW8,4,A*%
%TO.N,unconnected-(SW8B-A-Pad4)*%
X6799999Y11119999D03*
%TO.P,SW8,5,B*%
%TO.N,S_ADC_IN3*%
X4299999Y11119999D03*
%TO.P,SW8,6,C*%
%TO.N,ALT_ADC_3*%
X1799999Y11119999D03*
%TD*%
D29*
%TO.P,U1,1,GND*%
%TO.N,GND*%
X17939999Y16939999D03*
%TO.P,U1,2,VO*%
%TO.N,N/C*%
X17939999Y19239999D03*
D30*
%TO.N,VDD*%
X11639999Y19239999D03*
D29*
%TO.P,U1,3,VI*%
%TO.N,+5V*%
X17939999Y21539999D03*
%TD*%
D26*
%TO.P,C17,1*%
%TO.N,GND*%
X-22120000Y1890000D03*
%TO.P,C17,2*%
%TO.N,+4V4*%
X-22120000Y930000D03*
%TD*%
D31*
%TO.P,C8,1*%
%TO.N,VDDA*%
X-16070000Y11610000D03*
%TO.P,C8,2*%
%TO.N,GND*%
X-16070000Y12570000D03*
%TD*%
D32*
%TO.P,C10,1*%
%TO.N,VDD*%
X11455000Y14490000D03*
%TO.P,C10,2*%
%TO.N,GND*%
X8505000Y14490000D03*
%TD*%
D28*
%TO.P,SW6,1,A*%
%TO.N,S_ADC_IN2*%
X-12459999Y-4799999D03*
%TO.P,SW6,2,B*%
%TO.N,ADC_IN2*%
X-9959999Y-4799999D03*
%TO.P,SW6,3,C*%
%TO.N,O_ADC_IN2*%
X-7459999Y-4799999D03*
%TO.P,SW6,4,A*%
%TO.N,unconnected-(SW6B-A-Pad4)*%
X-12459999Y-10299999D03*
%TO.P,SW6,5,B*%
%TO.N,S_ADC_IN2*%
X-9959999Y-10299999D03*
%TO.P,SW6,6,C*%
%TO.N,ALT_ADC_2*%
X-7459999Y-10299999D03*
%TD*%
D33*
%TO.P,C3,1*%
%TO.N,VDD*%
X-12675000Y21630000D03*
%TO.P,C3,2*%
%TO.N,GND*%
X-11715000Y21630000D03*
%TD*%
D34*
%TO.P,J2,1,Pin_1*%
%TO.N,VDD*%
X-15679999Y27524999D03*
D35*
%TO.P,J2,2,Pin_2*%
%TO.N,USART1_RX*%
X-13139999Y27524999D03*
%TO.P,J2,3,Pin_3*%
%TO.N,USART1_TX*%
X-10599999Y27524999D03*
%TO.P,J2,4,Pin_4*%
%TO.N,GND*%
X-8059999Y27524999D03*
%TD*%
D36*
%TO.P,R8,1*%
%TO.N,OSC_OUT*%
X-16150000Y15490000D03*
%TO.P,R8,2*%
%TO.N,Net-(C15-Pad1)*%
X-17170000Y15490000D03*
%TD*%
D21*
%TO.P,U8,1,VCC*%
%TO.N,+4V4*%
X937500Y-950000D03*
%TO.P,U8,2,GND*%
%TO.N,GND*%
X937500Y950000D03*
%TO.P,U8,3,Vout*%
%TO.N,S_ADC_IN2*%
X-937500Y0D03*
%TD*%
D33*
%TO.P,C6,1*%
%TO.N,VDD*%
X-2850000Y19020000D03*
%TO.P,C6,2*%
%TO.N,GND*%
X-1890000Y19020000D03*
%TD*%
D31*
%TO.P,C19,1*%
%TO.N,GND*%
X2510000Y-1260000D03*
%TO.P,C19,2*%
%TO.N,+4V4*%
X2510000Y-300000D03*
%TD*%
D37*
%TO.P,U5,1*%
%TO.N,O_ADC_IN2*%
X-6875000Y-600000D03*
%TO.P,U5,2,V-*%
%TO.N,GND*%
X-7825000Y-600000D03*
%TO.P,U5,3,+*%
%TO.N,ALT_ADC_2*%
X-8775000Y-600000D03*
%TO.P,U5,4,-*%
%TO.N,O_ADC_IN2*%
X-8775000Y-2875000D03*
%TO.P,U5,5,V+*%
%TO.N,V_test*%
X-6875000Y-2875000D03*
%TD*%
D38*
%TO.P,D1,1,K*%
%TO.N,Net-(D1-K)*%
X6240000Y17825000D03*
%TO.P,D1,2,A*%
%TO.N,+5V*%
X6240000Y19925000D03*
%TD*%
D39*
%TO.P,U7,1,VCC*%
%TO.N,+4V4*%
X-20437500Y950000D03*
%TO.P,U7,2,GND*%
%TO.N,GND*%
X-20437500Y-950000D03*
%TO.P,U7,3,Vout*%
%TO.N,ADC_IN1*%
X-18562500Y0D03*
%TD*%
D26*
%TO.P,R2,1*%
%TO.N,Net-(P1-CC2)*%
X-1758000Y25097000D03*
%TO.P,R2,2*%
%TO.N,GND*%
X-1758000Y24137000D03*
%TD*%
D40*
%TO.P,R5,1*%
%TO.N,GND*%
X-1340000Y9450000D03*
%TO.P,R5,2*%
%TO.N,BOOT1*%
X-1340000Y10470000D03*
%TD*%
D31*
%TO.P,C7,1*%
%TO.N,VDDA*%
X-17150000Y11620000D03*
%TO.P,C7,2*%
%TO.N,GND*%
X-17150000Y12580000D03*
%TD*%
D18*
%TO.P,C18,1*%
%TO.N,GND*%
X21360000Y-2340000D03*
%TO.P,C18,2*%
%TO.N,+4V4*%
X20400000Y-2340000D03*
%TD*%
D32*
%TO.P,C12,1*%
%TO.N,+4V4*%
X11307500Y-7830000D03*
%TO.P,C12,2*%
%TO.N,GND*%
X8357500Y-7830000D03*
%TD*%
D18*
%TO.P,C15,1*%
%TO.N,Net-(C15-Pad1)*%
X-19290000Y13245000D03*
%TO.P,C15,2*%
%TO.N,GND*%
X-20250000Y13245000D03*
%TD*%
D26*
%TO.P,C4,1*%
%TO.N,VDD*%
X-3890000Y8591041D03*
%TO.P,C4,2*%
%TO.N,GND*%
X-3890000Y7631041D03*
%TD*%
D33*
%TO.P,C14,1*%
%TO.N,OSC_IN*%
X-20250000Y18855000D03*
%TO.P,C14,2*%
%TO.N,GND*%
X-19290000Y18855000D03*
%TD*%
D41*
%TO.P,U4,1,VBAT*%
%TO.N,VDD*%
X-14275000Y18100000D03*
%TO.P,U4,2,PC13*%
%TO.N,unconnected-(U4-PC13-Pad2)*%
X-14275000Y17600000D03*
%TO.P,U4,3,PC14*%
%TO.N,unconnected-(U4-PC14-Pad3)*%
X-14275000Y17100000D03*
%TO.P,U4,4,PC15*%
%TO.N,unconnected-(U4-PC15-Pad4)*%
X-14275000Y16600000D03*
%TO.P,U4,5,PH0*%
%TO.N,OSC_IN*%
X-14275000Y16100000D03*
%TO.P,U4,6,PH1*%
%TO.N,OSC_OUT*%
X-14275000Y15600000D03*
%TO.P,U4,7,NRST*%
%TO.N,NRST*%
X-14275000Y15100000D03*
%TO.P,U4,8,PC0*%
%TO.N,unconnected-(U4-PC0-Pad8)*%
X-14275000Y14600000D03*
%TO.P,U4,9,PC1*%
%TO.N,unconnected-(U4-PC1-Pad9)*%
X-14275000Y14100000D03*
%TO.P,U4,10,PC2*%
%TO.N,unconnected-(U4-PC2-Pad10)*%
X-14275000Y13600000D03*
%TO.P,U4,11,PC3*%
%TO.N,unconnected-(U4-PC3-Pad11)*%
X-14275000Y13100000D03*
%TO.P,U4,12,VSSA*%
%TO.N,GND*%
X-14275000Y12600000D03*
%TO.P,U4,13,VREF+*%
%TO.N,VDDA*%
X-14275000Y12100000D03*
%TO.P,U4,14,PA0*%
%TO.N,unconnected-(U4-PA0-Pad14)*%
X-14275000Y11600000D03*
%TO.P,U4,15,PA1*%
%TO.N,BUTT0*%
X-14275000Y11100000D03*
%TO.P,U4,16,PA2*%
%TO.N,BUTT1*%
X-14275000Y10600000D03*
D42*
%TO.P,U4,17,PA3*%
%TO.N,BUTT2*%
X-12350000Y8675000D03*
%TO.P,U4,18,VSS*%
%TO.N,GND*%
X-11850000Y8675000D03*
%TO.P,U4,19,VDD*%
%TO.N,VDD*%
X-11350000Y8675000D03*
%TO.P,U4,20,PA4*%
%TO.N,unconnected-(U4-PA4-Pad20)*%
X-10850000Y8675000D03*
%TO.P,U4,21,PA5*%
%TO.N,unconnected-(U4-PA5-Pad21)*%
X-10350000Y8675000D03*
%TO.P,U4,22,PA6*%
%TO.N,unconnected-(U4-PA6-Pad22)*%
X-9850000Y8675000D03*
%TO.P,U4,23,PA7*%
%TO.N,ADC_IN1*%
X-9350000Y8675000D03*
%TO.P,U4,24,PC4*%
%TO.N,ADC_IN2*%
X-8850000Y8675000D03*
%TO.P,U4,25,PC5*%
%TO.N,ADC_IN3*%
X-8350000Y8675000D03*
%TO.P,U4,26,PB0*%
%TO.N,unconnected-(U4-PB0-Pad26)*%
X-7850000Y8675000D03*
%TO.P,U4,27,PB1*%
%TO.N,unconnected-(U4-PB1-Pad27)*%
X-7350000Y8675000D03*
%TO.P,U4,28,PB2*%
%TO.N,BOOT1*%
X-6850000Y8675000D03*
%TO.P,U4,29,PB10*%
%TO.N,unconnected-(U4-PB10-Pad29)*%
X-6350000Y8675000D03*
%TO.P,U4,30,VCAP1*%
%TO.N,Net-(U4-VCAP1)*%
X-5850000Y8675000D03*
%TO.P,U4,31,VSS*%
%TO.N,GND*%
X-5350000Y8675000D03*
%TO.P,U4,32,VDD*%
%TO.N,VDD*%
X-4850000Y8675000D03*
D41*
%TO.P,U4,33,PB12*%
%TO.N,unconnected-(U4-PB12-Pad33)*%
X-2925000Y10600000D03*
%TO.P,U4,34,PB13*%
%TO.N,unconnected-(U4-PB13-Pad34)*%
X-2925000Y11100000D03*
%TO.P,U4,35,PB14*%
%TO.N,unconnected-(U4-PB14-Pad35)*%
X-2925000Y11600000D03*
%TO.P,U4,36,PB15*%
%TO.N,unconnected-(U4-PB15-Pad36)*%
X-2925000Y12100000D03*
%TO.P,U4,37,PC6*%
%TO.N,unconnected-(U4-PC6-Pad37)*%
X-2925000Y12600000D03*
%TO.P,U4,38,PC7*%
%TO.N,unconnected-(U4-PC7-Pad38)*%
X-2925000Y13100000D03*
%TO.P,U4,39,PC8*%
%TO.N,unconnected-(U4-PC8-Pad39)*%
X-2925000Y13600000D03*
%TO.P,U4,40,PC9*%
%TO.N,LED_D*%
X-2925000Y14100000D03*
%TO.P,U4,41,PA8*%
%TO.N,unconnected-(U4-PA8-Pad41)*%
X-2925000Y14600000D03*
%TO.P,U4,42,PA9*%
%TO.N,unconnected-(U4-PA9-Pad42)*%
X-2925000Y15100000D03*
%TO.P,U4,43,PA10*%
%TO.N,unconnected-(U4-PA10-Pad43)*%
X-2925000Y15600000D03*
%TO.P,U4,44,PA11*%
%TO.N,USB_D-*%
X-2925000Y16100000D03*
%TO.P,U4,45,PA12*%
%TO.N,USB_D+*%
X-2925000Y16600000D03*
%TO.P,U4,46,PA13*%
%TO.N,SWDIO*%
X-2925000Y17100000D03*
%TO.P,U4,47,VSS*%
%TO.N,GND*%
X-2925000Y17600000D03*
%TO.P,U4,48,VDD*%
%TO.N,VDD*%
X-2925000Y18100000D03*
D42*
%TO.P,U4,49,PA14*%
%TO.N,SWCLK*%
X-4850000Y20025000D03*
%TO.P,U4,50,PA15*%
%TO.N,unconnected-(U4-PA15-Pad50)*%
X-5350000Y20025000D03*
%TO.P,U4,51,PC10*%
%TO.N,unconnected-(U4-PC10-Pad51)*%
X-5850000Y20025000D03*
%TO.P,U4,52,PC11*%
%TO.N,unconnected-(U4-PC11-Pad52)*%
X-6350000Y20025000D03*
%TO.P,U4,53,PC12*%
%TO.N,unconnected-(U4-PC12-Pad53)*%
X-6850000Y20025000D03*
%TO.P,U4,54,PD2*%
%TO.N,unconnected-(U4-PD2-Pad54)*%
X-7350000Y20025000D03*
%TO.P,U4,55,PB3*%
%TO.N,SWO*%
X-7850000Y20025000D03*
%TO.P,U4,56,PB4*%
%TO.N,unconnected-(U4-PB4-Pad56)*%
X-8350000Y20025000D03*
%TO.P,U4,57,PB5*%
%TO.N,unconnected-(U4-PB5-Pad57)*%
X-8850000Y20025000D03*
%TO.P,U4,58,PB6*%
%TO.N,USART1_TX*%
X-9350000Y20025000D03*
%TO.P,U4,59,PB7*%
%TO.N,USART1_RX*%
X-9850000Y20025000D03*
%TO.P,U4,60,BOOT0*%
%TO.N,BOOT0*%
X-10350000Y20025000D03*
%TO.P,U4,61,PB8*%
%TO.N,unconnected-(U4-PB8-Pad61)*%
X-10850000Y20025000D03*
%TO.P,U4,62,PB9*%
%TO.N,unconnected-(U4-PB9-Pad62)*%
X-11350000Y20025000D03*
%TO.P,U4,63,VSS*%
%TO.N,GND*%
X-11850000Y20025000D03*
%TO.P,U4,64,VDD*%
%TO.N,VDD*%
X-12350000Y20025000D03*
%TD*%
D34*
%TO.P,J1,1,Pin_1*%
%TO.N,NRST*%
X-14739999Y23909999D03*
D35*
%TO.P,J1,2,Pin_2*%
%TO.N,SWDIO*%
X-12199999Y23909999D03*
%TO.P,J1,3,Pin_3*%
%TO.N,SWCLK*%
X-9659999Y23909999D03*
%TO.P,J1,4,Pin_4*%
%TO.N,SWO*%
X-7119999Y23909999D03*
%TD*%
D43*
%TO.P,F1,1*%
%TO.N,VBUS*%
X7450000Y24770000D03*
%TO.P,F1,2*%
%TO.N,+5V*%
X10250000Y24770000D03*
%TD*%
D44*
%TO.P,C16,1*%
%TO.N,Net-(U4-VCAP1)*%
X-5840000Y6761041D03*
%TO.P,C16,2*%
%TO.N,GND*%
X-5840000Y4861041D03*
%TD*%
D45*
%TO.N,GND*%
X8210000Y-2330000D03*
X-16000000Y-2070000D03*
X24300000Y4850000D03*
X-27730000Y6100000D03*
X24594000Y-13234000D03*
X-24400000Y-13120000D03*
X-16040000Y13390000D03*
X-4340000Y4971041D03*
X6120000Y-2350000D03*
X25030000Y-1610000D03*
X-28110000Y3410000D03*
X13105000Y11950000D03*
X25030000Y-2860000D03*
X15490000Y8830000D03*
X4300000Y-4460000D03*
X-15440000Y4370000D03*
X-22070000Y-4030000D03*
X17310000Y7310000D03*
X15965000Y25600000D03*
X21060000Y3710000D03*
X-6528000Y-8458000D03*
X-4120000Y25800000D03*
X-10180000Y7000000D03*
X-21768000Y18974000D03*
X9780000Y-2490000D03*
X11470000Y-2490000D03*
X-4880000Y-11120000D03*
X14400000Y6820000D03*
X21480000Y-5480000D03*
X5410000Y12370000D03*
X-20370000Y12250000D03*
X-21760000Y12300000D03*
X-17840000Y24240000D03*
X-2210000Y-17094000D03*
X-10965000Y21690000D03*
X8442500Y-6170000D03*
X23640000Y2370000D03*
X8662500Y-13920000D03*
X-14148000Y-6426000D03*
X3812000Y-18110000D03*
X17090000Y-2510000D03*
X584000Y12116000D03*
X-130000Y4950000D03*
X584000Y11100000D03*
X-7810000Y840000D03*
X13020000Y-2490000D03*
X2350000Y-2132250D03*
X-80000Y6100000D03*
X-3960000Y-5060000D03*
X-15950000Y-6930000D03*
X-26610000Y7230000D03*
X-21865000Y14980000D03*
X-23546000Y18720000D03*
X470000Y8390000D03*
X13290000Y9870000D03*
X-1830000Y19950000D03*
X24930000Y-4180000D03*
X-28090000Y-1860000D03*
X-3990000Y3730000D03*
X910000Y-2370000D03*
X-16660000Y16949500D03*
X-21930000Y16190000D03*
X11870000Y-4460000D03*
X14620433Y24129487D03*
X-17100000Y-3750000D03*
X-14140000Y4710000D03*
X-22120000Y2810000D03*
X-15164000Y-10744000D03*
X-15930000Y-8240000D03*
X9728000Y14402000D03*
X7080000Y-4580000D03*
X-22911353Y19355354D03*
X-19914502Y22170023D03*
X17995000Y11620000D03*
X5664000Y11100000D03*
X-17700000Y17195000D03*
X-12080000Y-22270000D03*
X-11290000Y-10360000D03*
X18270000Y-2450000D03*
X12482500Y-11850000D03*
X14770000Y-4520000D03*
X19450000Y16280000D03*
X-28160000Y-470000D03*
X-10399333Y17660000D03*
X22380000Y3670000D03*
X24940000Y3740000D03*
X-27940000Y-3120000D03*
X-3190000Y-11020000D03*
X-28160000Y870000D03*
X-1110000Y14970000D03*
X-4750000Y-9474000D03*
X-17680000Y14420000D03*
X-23700000Y-4930000D03*
X21160000Y6610000D03*
X-15940000Y-9470000D03*
X4489898Y26525534D03*
X-4520741Y26532318D03*
X10998000Y10084000D03*
X14520000Y-2470000D03*
X3124000Y11100000D03*
X-13990000Y-11960000D03*
X-13025000Y6950000D03*
X-6528000Y-6426000D03*
X5380000Y15420000D03*
X1710450Y12333669D03*
X7950000Y12116000D03*
X1780000Y-5540000D03*
X-16170000Y20390000D03*
X-23380000Y-1210000D03*
X-14490000Y-2020000D03*
X820000Y3710000D03*
X22310000Y-2200000D03*
X8550000Y15940000D03*
X-12670000Y-12610000D03*
X5132500Y-13930000D03*
X10580000Y-4480000D03*
X-22690000Y6920000D03*
X-24308000Y17958000D03*
X-8665000Y-25270000D03*
X-2920000Y-6230000D03*
X-130000Y-25396000D03*
X22682000Y-4902000D03*
X14490000Y9370000D03*
X5580000Y-4540000D03*
X16500000Y17590000D03*
X-18800000Y-2220000D03*
X1985023Y24275023D03*
X-2740000Y24140000D03*
X-12420000Y4790000D03*
X-28100000Y4830000D03*
X-40000Y7490000D03*
X4140000Y12370000D03*
X-3050000Y-9930000D03*
X-16270000Y-4360000D03*
X6426000Y-24968000D03*
X-21990000Y4100000D03*
X6680000Y12370000D03*
X-25760000Y-4930000D03*
X-7520000Y6790000D03*
X-7460000Y4460000D03*
X2240000Y16220000D03*
X18350000Y6640000D03*
X9257500Y26630000D03*
X-2433957Y9606043D03*
X-2410000Y3650000D03*
X-20340000Y4170000D03*
X-17050000Y4400000D03*
X-7770000Y-12700000D03*
X-25324000Y16942000D03*
X4760000Y-2390000D03*
X-18400000Y19015000D03*
X12522000Y8560000D03*
X-17150000Y13360000D03*
X-20330000Y-2131750D03*
X-17720000Y-5390000D03*
X-23500000Y1590000D03*
X23820000Y-2350000D03*
X-27710000Y-4280000D03*
X7062500Y-7900000D03*
X-23510000Y2710000D03*
X-3734000Y-12014000D03*
X19810000Y-11178000D03*
X19600000Y6610000D03*
X-21930000Y17450000D03*
X3800000Y25970000D03*
X22050000Y950000D03*
X17430000Y3730000D03*
X-28140000Y2140000D03*
X-23400000Y-2420000D03*
X22580000Y6530000D03*
X-25350000Y7380000D03*
X13560000Y7660000D03*
X2360369Y983318D03*
X8966000Y10846000D03*
X2870000Y12370000D03*
X-9140000Y-12740000D03*
X-21280000Y6759500D03*
X15780000Y-4320000D03*
X16370000Y7980000D03*
X-20130000Y-12060000D03*
X-11500000Y-2000000D03*
X2940000Y-4420000D03*
X12850000Y5980000D03*
X584000Y9830000D03*
X-24106981Y7019500D03*
X-12940000Y-1990000D03*
X-21870000Y13750000D03*
X9930000Y22575000D03*
X-3910000Y6741041D03*
X-15970000Y-5670000D03*
X-19990000Y19990000D03*
X-720000Y3730000D03*
X-3730000Y-27240000D03*
X23480000Y3670000D03*
X-10720000Y4910000D03*
X-6320000Y-12800000D03*
X-10230000Y5880000D03*
X24940000Y2670000D03*
X23540000Y5610000D03*
X-7520000Y5620000D03*
X-22784000Y11519500D03*
X-4830000Y-12750000D03*
X-11590000Y-12690000D03*
X-19190000Y8690000D03*
X-3080000Y-7320000D03*
X-22790000Y8919500D03*
X16010000Y-2510000D03*
X-3110000Y-8540000D03*
X19220000Y3770000D03*
X19450000Y17390000D03*
X4570000Y23140000D03*
X11105001Y-26694999D03*
X-18540000Y4250000D03*
X-21080000Y13220000D03*
X-22022000Y19990000D03*
X24980000Y1590000D03*
X-19080000Y12320000D03*
X23800000Y-4660000D03*
X-23500000Y3940000D03*
X-13750000Y-10720000D03*
X11910000Y-22240000D03*
X-17300000Y-2160000D03*
X-13640000Y-9220000D03*
X-4750000Y-7188000D03*
X15990000Y3750000D03*
X-5520000Y3590000D03*
X-10440000Y-12690000D03*
X-21006000Y20140498D03*
X-25832000Y15926000D03*
X16450000Y16420000D03*
%TO.N,VBUS*%
X2650000Y25750000D03*
X-2690000Y25720000D03*
%TO.N,BUTT0*%
X-24438957Y-6688957D03*
X-25790000Y6050000D03*
X-12720000Y11410000D03*
%TO.N,+5V*%
X18100000Y10570000D03*
X10000Y-6340000D03*
X-18960000Y23690000D03*
X-19550000Y-6500000D03*
X9500000Y-27810000D03*
X10353Y16219646D03*
X23500000Y-12180000D03*
X-23440000Y-15190000D03*
X-6010000Y-28170000D03*
X-23060000Y10020000D03*
X12170000Y26490000D03*
X2108000Y-16827500D03*
X19280000Y-7120000D03*
D46*
%TO.N,USB_D+*%
X210000Y25640000D03*
X303779Y24365500D03*
D45*
%TO.N,BOOT0*%
X-8300000Y18470000D03*
%TO.N,BUTT1*%
X-14620000Y9730000D03*
X-23090000Y-6720000D03*
X-3975000Y-19380000D03*
X-19730000Y7120000D03*
X-19404692Y-10664692D03*
%TO.N,BUTT2*%
X-19830000Y5260500D03*
X-5766000Y-16078000D03*
X-18280000Y-10450000D03*
X-13330023Y8300023D03*
X-22070000Y-6600000D03*
%TO.N,NRST*%
X-12610000Y15010000D03*
%TO.N,BOOT1*%
X-1460000Y11380000D03*
X-6240000Y10210000D03*
%TO.N,Net-(D2-DIN)*%
X6680000Y15418000D03*
%TO.N,VDD*%
X-6060000Y13390000D03*
%TO.N,SWDIO*%
X-4370000Y23450000D03*
X-4430000Y17310000D03*
%TO.N,USART1_RX*%
X-9068380Y22282525D03*
%TO.N,USART1_TX*%
X-8100000Y22530000D03*
%TO.N,V_test*%
X12600000Y-6360000D03*
X-5650000Y-2910000D03*
X8990000Y5880000D03*
X15220000Y4930000D03*
X-850000Y-7820000D03*
X-2320000Y-4140000D03*
%TO.N,+4V4*%
X-12680000Y-3010000D03*
X-3890000Y-4030000D03*
%TD*%
D47*
%TO.N,GND*%
X-19110000Y19035000D02*
X-18630000Y19035000D01*
D48*
X8662500Y-13920000D02*
X8535000Y-13930000D01*
D47*
X-12845000Y7000000D02*
X-12895000Y6950000D01*
X20437500Y950000D02*
X21890000Y950000D01*
D48*
X15965000Y25600000D02*
X15965000Y24090000D01*
D47*
X-13025000Y6820000D02*
X-12875000Y6970000D01*
X-21080000Y13220000D02*
X-21055000Y13245000D01*
X-5101041Y7550000D02*
X-3971041Y7550000D01*
X-11035000Y21700000D02*
X-11045000Y21700000D01*
X-20610000Y15005000D02*
X-20610000Y13605000D01*
X-21055000Y13245000D02*
X-20250000Y13245000D01*
X-2687000Y24137000D02*
X-2690000Y24140000D01*
X-18630000Y19035000D02*
X-18400000Y19015000D01*
D48*
X-20680000Y14975000D02*
X-21830000Y14975000D01*
X-3200000Y26895000D02*
X-3652645Y26895000D01*
D47*
X-17610000Y14420000D02*
X-17680000Y14420000D01*
D48*
X5160000Y-13940000D02*
X5170000Y-13940000D01*
D47*
X-4520741Y26532318D02*
X-4235927Y26532318D01*
D48*
X19450000Y16280000D02*
X19450000Y16210000D01*
X14710946Y24220000D02*
X15665000Y24220000D01*
D47*
X-11850000Y8675000D02*
X-11850000Y7275000D01*
D48*
X5180000Y-13940000D02*
X5132500Y-13930000D01*
D47*
X-2257914Y9430000D02*
X-1360000Y9430000D01*
X-5350000Y7798959D02*
X-5101041Y7550000D01*
D48*
X19450000Y16210000D02*
X18720000Y16940000D01*
D47*
X22310000Y-2200000D02*
X21340000Y-2200000D01*
X5380000Y15420000D02*
X5380000Y15380000D01*
X-16660000Y17790000D02*
X-16770000Y17900000D01*
D48*
X8520000Y15910000D02*
X8520000Y14780000D01*
X18720000Y16940000D02*
X17940000Y16940000D01*
D47*
X2360369Y983318D02*
X2350369Y973318D01*
X3800000Y26050000D02*
X3720000Y26130000D01*
X12690000Y5980000D02*
X12850000Y5980000D01*
X-4340000Y5041041D02*
X-4390000Y4991041D01*
X-20330000Y-2131750D02*
X-20437500Y-2024250D01*
D48*
X8550000Y15940000D02*
X8520000Y15910000D01*
X9608813Y14282813D02*
X8540000Y14282813D01*
X6855000Y-13940000D02*
X5180000Y-13940000D01*
X16590000Y17590000D02*
X16500000Y17590000D01*
D47*
X22050000Y950000D02*
X22050000Y790000D01*
D48*
X-5450000Y4981041D02*
X-4400000Y4981041D01*
X11037500Y-11860000D02*
X12472500Y-11860000D01*
D47*
X-3890000Y6761041D02*
X-3910000Y6741041D01*
X-10965000Y21690000D02*
X-11035000Y21700000D01*
D48*
X7062500Y-7900000D02*
X7217500Y-7910000D01*
D47*
X11497500Y5970000D02*
X12680000Y5970000D01*
X4375000Y23105000D02*
X4570000Y23140000D01*
X-11850000Y7275000D02*
X-12125000Y7000000D01*
X-17700000Y17145000D02*
X-17750000Y17195000D01*
X2510000Y-1260000D02*
X2460369Y-1309631D01*
X-11055000Y21700000D02*
X-10965000Y21690000D01*
D48*
X16680000Y17500000D02*
X16590000Y17590000D01*
X14620433Y24129487D02*
X14710946Y24220000D01*
D47*
X-17760000Y17205000D02*
X-17750000Y17195000D01*
X-4340000Y4971041D02*
X-4340000Y5041041D01*
X-1830000Y19950000D02*
X-1830000Y18831041D01*
X-1758000Y24137000D02*
X-2687000Y24137000D01*
X-18400000Y19015000D02*
X-18590000Y19035000D01*
X-7825000Y825000D02*
X-7810000Y840000D01*
X-16040000Y13390000D02*
X-16090000Y13340000D01*
X-1830000Y18831041D02*
X-1810000Y18811041D01*
D48*
X-3200000Y26895000D02*
X-3200000Y26780000D01*
X-4046103Y26635883D02*
X-4149668Y26532318D01*
X17420000Y16420000D02*
X17940000Y16940000D01*
D47*
X3600000Y23105000D02*
X4375000Y23105000D01*
X12850000Y5980000D02*
X12850000Y6140000D01*
X-2740000Y24140000D02*
X-2740000Y24190000D01*
X-22120000Y1890000D02*
X-22120000Y2650000D01*
X22050000Y790000D02*
X21980000Y860000D01*
X4465000Y14465000D02*
X5380000Y15380000D01*
X-18910000Y17205000D02*
X-18910000Y18475000D01*
X-1810000Y18811041D02*
X-1810000Y18361041D01*
D48*
X16020000Y23917500D02*
X16000000Y23897500D01*
X7217500Y-7910000D02*
X7227500Y-7910000D01*
D47*
X-16090000Y13340000D02*
X-16090000Y12850000D01*
D48*
X5132500Y-13930000D02*
X5160000Y-13940000D01*
D47*
X-2690000Y24140000D02*
X-2740000Y24140000D01*
X-4400000Y4981041D02*
X-4410000Y4971041D01*
X-21960000Y2810000D02*
X-22110000Y2660000D01*
X-1800000Y17848959D02*
X-2048959Y17600000D01*
D48*
X4489898Y26525534D02*
X3569466Y26525534D01*
X17200000Y16980000D02*
X17380000Y16980000D01*
D47*
X-19290000Y18855000D02*
X-19110000Y19035000D01*
D48*
X3200000Y26650000D02*
X3800000Y26050000D01*
D47*
X-17700000Y17195000D02*
X-17700000Y17145000D01*
X12680000Y5970000D02*
X12690000Y5980000D01*
D48*
X17940000Y16940000D02*
X19000000Y16940000D01*
D47*
X22310000Y-2200000D02*
X22340000Y-2170000D01*
D48*
X-4180000Y25800000D02*
X-4100000Y25880000D01*
X7237500Y-7910000D02*
X7062500Y-7900000D01*
D47*
X3200000Y26895000D02*
X3200000Y26650000D01*
D48*
X-4149668Y26532318D02*
X-4520741Y26532318D01*
D47*
X-4410000Y4971041D02*
X-4340000Y4971041D01*
X-22120000Y2810000D02*
X-21960000Y2810000D01*
X-20437500Y-2024250D02*
X-20437500Y-950000D01*
X-1800000Y18351041D02*
X-1800000Y17848959D01*
X-11850000Y20025000D02*
X-11850000Y21495000D01*
X-18910000Y18475000D02*
X-19290000Y18855000D01*
X-11645000Y21700000D02*
X-11055000Y21700000D01*
D48*
X-3200000Y26780000D02*
X-4120000Y25860000D01*
D47*
X-2048959Y17600000D02*
X-2925000Y17600000D01*
D49*
X1985023Y24275023D02*
X1985023Y23674977D01*
D47*
X-13025000Y6950000D02*
X-13025000Y6820000D01*
D48*
X16500000Y17590000D02*
X16500000Y17680000D01*
D47*
X-12125000Y7000000D02*
X-12845000Y7000000D01*
X-3890000Y7631041D02*
X-3890000Y6761041D01*
D48*
X8392500Y-7240000D02*
X8442500Y-6170000D01*
D47*
X2510000Y-1972250D02*
X2510000Y-1260000D01*
X-12895000Y6950000D02*
X-13025000Y6950000D01*
X-14275000Y12600000D02*
X-15925000Y12600000D01*
X-17680000Y14420000D02*
X-17680000Y14350000D01*
X-21080000Y13220000D02*
X-20895000Y13035000D01*
X2350000Y-2132250D02*
X2510000Y-1972250D01*
D48*
X16500000Y17680000D02*
X17200000Y16980000D01*
D47*
X4465000Y14465000D02*
X3970000Y14465000D01*
D48*
X3569466Y26525534D02*
X3200000Y26895000D01*
D47*
X-11850000Y21495000D02*
X-11715000Y21630000D01*
X3800000Y25970000D02*
X3800000Y26050000D01*
D48*
X-16170000Y20390000D02*
X-15185000Y20390000D01*
D47*
X-2433957Y9606043D02*
X-2257914Y9430000D01*
D48*
X-3652645Y26895000D02*
X-3764667Y26782978D01*
D47*
X-22120000Y2650000D02*
X-22120000Y2810000D01*
D48*
X8212500Y-7910000D02*
X7237500Y-7910000D01*
X-3764667Y26782978D02*
X-4046103Y26635883D01*
D47*
X2350369Y973318D02*
X867869Y973318D01*
X-20895000Y13035000D02*
X-20880000Y13035000D01*
D48*
X-4120000Y25860000D02*
X-4120000Y25800000D01*
D47*
X21890000Y950000D02*
X22050000Y950000D01*
X-17680000Y14350000D02*
X-17560000Y14470000D01*
X-18590000Y19035000D02*
X-18610000Y19035000D01*
D48*
X8545000Y-13930000D02*
X8555000Y-13930000D01*
D47*
X-20610000Y13605000D02*
X-20250000Y13245000D01*
X-17150000Y13360000D02*
X-17150000Y12580000D01*
X-17540000Y14490000D02*
X-17610000Y14420000D01*
X-1810000Y18361041D02*
X-1800000Y18351041D01*
D48*
X17185000Y16880000D02*
X18280000Y16880000D01*
X8535000Y-13930000D02*
X6860000Y-13930000D01*
X-18910000Y17205000D02*
X-17760000Y17205000D01*
D47*
X12850000Y6140000D02*
X12720000Y6010000D01*
X-5350000Y8675000D02*
X-5350000Y7798959D01*
D48*
X8555000Y-13930000D02*
X8662500Y-13920000D01*
D47*
X-11715000Y21630000D02*
X-11645000Y21700000D01*
X-16660000Y16949500D02*
X-16660000Y17790000D01*
D48*
X19000000Y16940000D02*
X19450000Y17390000D01*
X12472500Y-11860000D02*
X12482500Y-11850000D01*
X16450000Y16420000D02*
X17420000Y16420000D01*
D47*
X-7825000Y-600000D02*
X-7825000Y825000D01*
X-2740000Y24190000D02*
X-2690000Y24140000D01*
D48*
X9728000Y14402000D02*
X9608813Y14282813D01*
D47*
X-17750000Y17195000D02*
X-17700000Y17195000D01*
X4570000Y23140000D02*
X4390000Y23120000D01*
X-3971041Y7550000D02*
X-3890000Y7631041D01*
X-16790000Y14490000D02*
X-17540000Y14490000D01*
D48*
X-4120000Y25800000D02*
X-4180000Y25800000D01*
%TO.N,VBUS*%
X2650000Y25750000D02*
X3350000Y25050000D01*
X5420000Y25050000D02*
X7170000Y25050000D01*
D49*
X-2680000Y25720000D02*
X-2585000Y25815000D01*
X5950000Y23290000D02*
X4140000Y21480000D01*
D48*
X-2400000Y26000000D02*
X-2400000Y26895000D01*
X5420000Y25050000D02*
X5950000Y25050000D01*
D49*
X5950000Y25050000D02*
X5950000Y23290000D01*
X4140000Y21480000D02*
X2110000Y21480000D01*
D48*
X3350000Y25050000D02*
X5420000Y25050000D01*
X2400000Y26000000D02*
X2400000Y26895000D01*
X7170000Y25050000D02*
X7450000Y24770000D01*
X2650000Y25750000D02*
X2400000Y26000000D01*
D49*
X-2690000Y25720000D02*
X-2680000Y25720000D01*
D47*
%TO.N,BUTT0*%
X-25281043Y-6688957D02*
X-24438957Y-6688957D01*
X-12740000Y11410000D02*
X-12720000Y11410000D01*
X-25790000Y6050000D02*
X-26780000Y5060000D01*
X-26780000Y5060000D02*
X-26780000Y-5190000D01*
X-12720000Y11430000D02*
X-12840000Y11310000D01*
X-12720000Y11410000D02*
X-12720000Y11430000D01*
X-26780000Y-5190000D02*
X-25281043Y-6688957D01*
X-13050000Y11100000D02*
X-12740000Y11410000D01*
X-14275000Y11100000D02*
X-13050000Y11100000D01*
D48*
%TO.N,+5V*%
X-4940000Y-29330000D02*
X-11056000Y-29330000D01*
X-11056000Y-29330000D02*
X-23440000Y-16946000D01*
X3467207Y-12040000D02*
X3467207Y-13956793D01*
X-17830000Y-9540000D02*
X-19550000Y-7820000D01*
X-5255207Y-15316000D02*
X-5509207Y-15062000D01*
X12325000Y24780000D02*
X12325000Y26335000D01*
X20380000Y10700000D02*
X21380000Y10700000D01*
X2108000Y-15316000D02*
X2108000Y-16827500D01*
X6907500Y-10890000D02*
X6872500Y-10925000D01*
X-19550000Y-7820000D02*
X-19550000Y-6500000D01*
X18100000Y10570000D02*
X20250000Y10570000D01*
X27600000Y-5130000D02*
X26040000Y-6690000D01*
X21380000Y10700000D02*
X27600000Y4480000D01*
X26040000Y-6690000D02*
X25610000Y-7120000D01*
X25080000Y-16610000D02*
X23928000Y-16610000D01*
X21140000Y11460000D02*
X20380000Y10700000D01*
X23928000Y-16610000D02*
X12728000Y-27810000D01*
X11540000Y24780000D02*
X10260000Y24780000D01*
X16400000Y26500000D02*
X21140000Y21760000D01*
X-29650000Y11819848D02*
X-27610000Y13859848D01*
X-5100000Y-28170000D02*
X-6010000Y-28170000D01*
X26040000Y-6690000D02*
X26040000Y-9640000D01*
X-6274000Y-15062000D02*
X-6386000Y-15174000D01*
X27600000Y4480000D02*
X27600000Y-5130000D01*
X12728000Y-27810000D02*
X11262793Y-27810000D01*
X25610000Y-7120000D02*
X19950000Y-7120000D01*
X20380000Y10700000D02*
X20250000Y10570000D01*
X10260000Y24780000D02*
X10250000Y24770000D01*
D49*
X10353Y16219646D02*
X855707Y17065000D01*
D48*
X-21370000Y23690000D02*
X-18960000Y23690000D01*
X19950000Y-8480000D02*
X17520000Y-10910000D01*
X-3222000Y-30048000D02*
X-4440000Y-28830000D01*
X10250000Y24770000D02*
X7990000Y22510000D01*
X4595000Y-10925000D02*
X10000Y-6340000D01*
X-26110000Y-9540000D02*
X-29650000Y-6000000D01*
X12325000Y26335000D02*
X12170000Y26490000D01*
X12325000Y24780000D02*
X11540000Y24780000D01*
X21140000Y21760000D02*
X21140000Y11460000D01*
X-27610000Y17450000D02*
X-21370000Y23690000D01*
X26040000Y-9640000D02*
X23500000Y-12180000D01*
X2108000Y-15316000D02*
X-5255207Y-15316000D01*
X19280000Y-7120000D02*
X19950000Y-7120000D01*
X-4440000Y-28830000D02*
X-5100000Y-28170000D01*
X25890000Y-9790000D02*
X25890000Y-15800000D01*
D49*
X855707Y17065000D02*
X3380000Y17065000D01*
D48*
X-29630000Y8870000D02*
X-28480000Y10020000D01*
X9024793Y-30048000D02*
X-3222000Y-30048000D01*
X6872500Y-10925000D02*
X4595000Y-10925000D01*
X-6386000Y-15174000D02*
X-12283207Y-15174000D01*
X-12283207Y-15174000D02*
X-17917207Y-9540000D01*
X11262793Y-27810000D02*
X9500000Y-27810000D01*
X25890000Y-15800000D02*
X25080000Y-16610000D01*
X-23440000Y-16946000D02*
X-23440000Y-15190000D01*
X13015000Y24090000D02*
X12325000Y24780000D01*
X15425000Y26500000D02*
X16400000Y26500000D01*
D49*
X3380000Y17065000D02*
X6240000Y19925000D01*
D48*
X17520000Y-10910000D02*
X9162500Y-10910000D01*
X4595000Y-10925000D02*
X3480000Y-12040000D01*
X15565000Y21540000D02*
X17940000Y21540000D01*
X8797500Y-10890000D02*
X6907500Y-10890000D01*
X-29650000Y-6000000D02*
X-29650000Y11819848D01*
X6590000Y22510000D02*
X6590000Y20275000D01*
X-17917207Y-9540000D02*
X-26110000Y-9540000D01*
X-5509207Y-15062000D02*
X-6274000Y-15062000D01*
X-27610000Y13859848D02*
X-27610000Y17450000D01*
X3467207Y-13956793D02*
X2108000Y-15316000D01*
X26040000Y-9640000D02*
X25890000Y-9790000D01*
X-28480000Y10020000D02*
X-23060000Y10020000D01*
X-23440000Y-9540000D02*
X-23440000Y-15190000D01*
X6590000Y20275000D02*
X6240000Y19925000D01*
X-4440000Y-28830000D02*
X-4940000Y-29330000D01*
X13015000Y24090000D02*
X15425000Y26500000D01*
X7990000Y22510000D02*
X6590000Y22510000D01*
X13015000Y24090000D02*
X15565000Y21540000D01*
X11262793Y-27810000D02*
X9024793Y-30048000D01*
X19950000Y-7120000D02*
X19950000Y-8480000D01*
D47*
%TO.N,Net-(P1-CC1)*%
X1365000Y25955000D02*
X3255000Y24065000D01*
X1365000Y26040635D02*
X1365000Y25955000D01*
X1250000Y26895000D02*
X1250000Y26155636D01*
X1250000Y26155636D02*
X1365000Y26040635D01*
X3255000Y24065000D02*
X3600000Y24065000D01*
%TO.N,Net-(P1-CC2)*%
X-1750000Y26895000D02*
X-1750000Y25105000D01*
X-1750000Y25105000D02*
X-1758000Y25097000D01*
%TO.N,OSC_IN*%
X-20610000Y16205000D02*
X-20560000Y16155000D01*
X-18005000Y16155000D02*
X-17960000Y16200000D01*
X-15251041Y16200000D02*
X-15151041Y16100000D01*
X-20610000Y17205000D02*
X-20610000Y18495000D01*
X-20610000Y17205000D02*
X-20610000Y16205000D01*
X-20560000Y16155000D02*
X-18005000Y16155000D01*
X-20610000Y18495000D02*
X-20250000Y18855000D01*
X-17960000Y16200000D02*
X-15251041Y16200000D01*
X-15151041Y16100000D02*
X-14275000Y16100000D01*
%TO.N,USB_D+*%
X-480000Y22790000D02*
X-480000Y18168959D01*
X-480000Y18168959D02*
X-2048959Y16600000D01*
X303779Y23573779D02*
X-480000Y22790000D01*
D50*
X-910000Y26040280D02*
X-910000Y25239720D01*
D47*
X245500Y24365500D02*
X190000Y24310000D01*
X303779Y24365500D02*
X303779Y23573779D01*
D50*
X-910000Y25239720D02*
X-35780Y24365500D01*
X-750000Y26200280D02*
X-910000Y26040280D01*
X-750000Y26895000D02*
X-750000Y26200280D01*
X-35780Y24365500D02*
X303779Y24365500D01*
X240000Y25729372D02*
X240000Y26690000D01*
D47*
X303779Y24365500D02*
X245500Y24365500D01*
X-2048959Y16600000D02*
X-2925000Y16600000D01*
D50*
%TO.N,USB_D-*%
X750000Y25983884D02*
X890000Y25843884D01*
X-415000Y25898884D02*
X-250000Y26063884D01*
X890000Y25843884D02*
X890000Y25020000D01*
D47*
X210000Y21480000D02*
X210000Y22240000D01*
X-2925000Y16100000D02*
X-1841853Y16100000D01*
X20000Y21290000D02*
X210000Y21480000D01*
D50*
X-250000Y26063884D02*
X-250000Y26895000D01*
D47*
X210000Y22240000D02*
X953779Y22983779D01*
D50*
X890000Y25020000D02*
X860000Y24990000D01*
X750000Y26895000D02*
X750000Y25983884D01*
D47*
X20000Y17961853D02*
X20000Y21290000D01*
X953779Y22983779D02*
X953779Y24896221D01*
D50*
X-415000Y25381116D02*
X-415000Y25898884D01*
X860000Y24990000D02*
X-23884Y24990000D01*
X-23884Y24990000D02*
X-415000Y25381116D01*
D47*
X-1841853Y16100000D02*
X20000Y17961853D01*
X953779Y24896221D02*
X860000Y24990000D01*
%TO.N,LED_D*%
X-2925000Y14100000D02*
X-247500Y14100000D01*
X-247500Y14100000D02*
X1067500Y15415000D01*
X1067500Y15415000D02*
X3970000Y15415000D01*
%TO.N,ADC_IN1*%
X-11220369Y3949892D02*
X-10219347Y3949892D01*
X-17100000Y0D02*
X-13170500Y3929500D01*
X-10219347Y3949892D02*
X-9350000Y4819239D01*
X-18562500Y0D02*
X-17100000Y0D01*
X-9350000Y4819239D02*
X-9350000Y8675000D01*
X-13170500Y3929500D02*
X-11240761Y3929500D01*
X-11240761Y3929500D02*
X-11220369Y3949892D01*
%TO.N,OSC_OUT*%
X-14275000Y15600000D02*
X-16040000Y15600000D01*
X-16040000Y15600000D02*
X-16150000Y15490000D01*
%TO.N,BOOT0*%
X-8380000Y18460000D02*
X-8390000Y18460000D01*
X-9661041Y18460000D02*
X-8400000Y18460000D01*
X-8300000Y18470000D02*
X-8380000Y18460000D01*
X-8400000Y18460000D02*
X-8300000Y18470000D01*
X-10350000Y19148959D02*
X-9661041Y18460000D01*
X-10350000Y20025000D02*
X-10350000Y19148959D01*
%TO.N,ADC_IN2*%
X-10440000Y840000D02*
X-8850000Y2430000D01*
X-10440000Y-4320000D02*
X-10440000Y840000D01*
X-9960000Y-4800000D02*
X-10440000Y-4320000D01*
X-8850000Y2430000D02*
X-8850000Y8675000D01*
%TO.N,ADC_IN3*%
X1150500Y2820500D02*
X-6898739Y2820500D01*
X-8350000Y4270761D02*
X-8350000Y8675000D01*
X-6898739Y2820500D02*
X-6899239Y2820000D01*
X-6899239Y2820000D02*
X-8350000Y4270761D01*
X4260000Y5930000D02*
X1150500Y2820500D01*
%TO.N,BUTT1*%
X-26280000Y4420000D02*
X-24750000Y5950000D01*
X-23090000Y-6720000D02*
X-24450000Y-5360000D01*
X-14275000Y10115000D02*
X-14620000Y9730000D01*
X-20910000Y5950000D02*
X-19790000Y7070000D01*
X-3975000Y-19380000D02*
X-6435000Y-16920000D01*
X-14620000Y9730000D02*
X-14640000Y9720000D01*
X-24450000Y-5360000D02*
X-24450000Y-4990000D01*
X-24750000Y5950000D02*
X-20910000Y5950000D01*
X-13149384Y-16920000D02*
X-19404692Y-10664692D01*
X-24450000Y-4990000D02*
X-26280000Y-3160000D01*
X-14640000Y9720000D02*
X-14420000Y9970000D01*
X-26280000Y-3160000D02*
X-26280000Y4420000D01*
X-6435000Y-16920000D02*
X-13149384Y-16920000D01*
X-14275000Y10600000D02*
X-14275000Y10115000D01*
%TO.N,BUTT2*%
X-12652000Y-16078000D02*
X-18280000Y-10450000D01*
X-5766000Y-16078000D02*
X-12652000Y-16078000D01*
X-19830000Y5260500D02*
X-19900500Y5190000D01*
X-19900500Y5190000D02*
X-24660000Y5190000D01*
X-12955046Y8675000D02*
X-12350000Y8675000D01*
X-22070000Y-5450000D02*
X-22070000Y-6600000D01*
X-24660000Y5190000D02*
X-25780000Y4070000D01*
X-25780000Y-1740000D02*
X-22070000Y-5450000D01*
X-25780000Y4070000D02*
X-25780000Y-1740000D01*
X-13330023Y8300023D02*
X-12955046Y8675000D01*
%TO.N,NRST*%
X-15220000Y15100000D02*
X-14275000Y15100000D01*
X-12700000Y15100000D02*
X-12610000Y15010000D01*
X-14275000Y15100000D02*
X-12700000Y15100000D01*
X-15830000Y14490000D02*
X-15220000Y15100000D01*
%TO.N,BOOT1*%
X-6601041Y9848959D02*
X-6601041Y9800000D01*
X-1630000Y11380000D02*
X-1510000Y11500000D01*
X-6240000Y10210000D02*
X-6601041Y9848959D01*
X-1340000Y11260000D02*
X-1460000Y11380000D01*
X-1340000Y10470000D02*
X-1340000Y11260000D01*
X-1460000Y11380000D02*
X-1630000Y11380000D01*
X-6850000Y9551041D02*
X-6850000Y8675000D01*
X-6601041Y9800000D02*
X-6850000Y9551041D01*
D49*
%TO.N,Net-(D1-K)*%
X6240000Y17780000D02*
X6240000Y16420000D01*
D47*
%TO.N,Net-(D2-DIN)*%
X6245000Y14983000D02*
X6245000Y14465000D01*
X6680000Y15418000D02*
X6245000Y14983000D01*
D48*
%TO.N,VDD*%
X7387207Y13090000D02*
X6837207Y13640000D01*
X330000Y13640000D02*
X-432000Y12878000D01*
D47*
X-17090000Y24080000D02*
X-17090000Y20019339D01*
D48*
X-14130000Y19180000D02*
X-14090000Y19170000D01*
X-14070000Y19170000D02*
X-14130000Y19180000D01*
D47*
X-12350000Y20025000D02*
X-12350000Y21305000D01*
X-14617207Y7481546D02*
X-13175661Y6040000D01*
D48*
X6837207Y13640000D02*
X330000Y13640000D01*
D47*
X-15520000Y19180000D02*
X-15900000Y18800000D01*
D48*
X11455000Y19055000D02*
X11455000Y14490000D01*
X-8300000Y14712793D02*
X-3992793Y19020000D01*
D47*
X-3995000Y8540000D02*
X-4715000Y8540000D01*
X-15580000Y18130000D02*
X-15810000Y17900000D01*
D48*
X-14617207Y8460000D02*
X-16630000Y8460000D01*
X11455000Y13335000D02*
X11210000Y13090000D01*
D47*
X-6675000Y12775000D02*
X-6875000Y12775000D01*
D48*
X-2300000Y8200000D02*
X-6875000Y12775000D01*
D47*
X-13175661Y6040000D02*
X-11375000Y6040000D01*
X-11350000Y7185000D02*
X-11165000Y7000000D01*
X-6060000Y13390000D02*
X-6675000Y12775000D01*
D48*
X-14070000Y19180000D02*
X-14070000Y19170000D01*
X11640000Y19240000D02*
X11455000Y19055000D01*
X-1371974Y8200000D02*
X-2300000Y8200000D01*
X-432000Y12878000D02*
X-432000Y9139974D01*
X-14090000Y19170000D02*
X-14080000Y19170000D01*
D47*
X-11375000Y6040000D02*
X-11165000Y6250000D01*
X-16250661Y19180000D02*
X-15520000Y19180000D01*
X-15680000Y27525000D02*
X-15680000Y25490000D01*
X-13575000Y20400000D02*
X-13575000Y20730000D01*
D48*
X-13877184Y9200023D02*
X-14617207Y8460000D01*
D47*
X-13575000Y20730000D02*
X-12675000Y21630000D01*
X-3080000Y8600000D02*
X-3088959Y8591041D01*
D48*
X-13657184Y9200023D02*
X-13877184Y9200023D01*
D47*
X-4825000Y8480000D02*
X-4775000Y8530000D01*
X-3088959Y8591041D02*
X-3890000Y8591041D01*
D48*
X11455000Y14490000D02*
X11455000Y13335000D01*
D47*
X-14760000Y18130000D02*
X-15580000Y18130000D01*
D48*
X-13192126Y19180000D02*
X-14130000Y19180000D01*
X-6875000Y12775000D02*
X-8300000Y14200000D01*
D47*
X-14617207Y8460000D02*
X-14617207Y7481546D01*
X-15850000Y17940000D02*
X-15900000Y18800000D01*
X-2910000Y18115000D02*
X-2925000Y18100000D01*
D48*
X-8657207Y14200000D02*
X-13657184Y9200023D01*
D47*
X-4825000Y8570000D02*
X-4825000Y8480000D01*
D48*
X-432000Y9139974D02*
X-1371974Y8200000D01*
D47*
X-11165000Y6250000D02*
X-11165000Y7000000D01*
X-4715000Y8540000D02*
X-4850000Y8675000D01*
D48*
X11210000Y13090000D02*
X7387207Y13090000D01*
D47*
X-15810000Y17900000D02*
X-15850000Y17940000D01*
D48*
X-8300000Y14200000D02*
X-8300000Y14287874D01*
D47*
X-12350000Y21305000D02*
X-12675000Y21630000D01*
X-15680000Y25490000D02*
X-17090000Y24080000D01*
X-17090000Y20019339D02*
X-16250661Y19180000D01*
D48*
X-13900000Y19350000D02*
X-14070000Y19180000D01*
X-14080000Y19170000D02*
X-13575000Y19675000D01*
D47*
X-11350000Y8675000D02*
X-11350000Y7185000D01*
X-2910000Y18971041D02*
X-2910000Y18115000D01*
D48*
X-8300000Y14287874D02*
X-13192126Y19180000D01*
D47*
X-14130000Y19180000D02*
X-15520000Y19180000D01*
D48*
X-13575000Y19675000D02*
X-13575000Y20400000D01*
X-3992793Y19020000D02*
X-2850000Y19020000D01*
D47*
%TO.N,VDDA*%
X-14275000Y12100000D02*
X-15450000Y12100000D01*
X-16630000Y11100000D02*
X-17170000Y11640000D01*
X-17150000Y11620000D02*
X-16080000Y11620000D01*
X-16630000Y10360000D02*
X-16630000Y11100000D01*
X-15940000Y11610000D02*
X-16070000Y11610000D01*
X-16080000Y11620000D02*
X-16070000Y11610000D01*
X-15450000Y12100000D02*
X-15940000Y11610000D01*
%TO.N,Net-(C15-Pad1)*%
X-18425000Y15490000D02*
X-18910000Y15005000D01*
X-18910000Y13625000D02*
X-19290000Y13245000D01*
X-17170000Y15490000D02*
X-18425000Y15490000D01*
X-18910000Y15005000D02*
X-18910000Y13625000D01*
%TO.N,SWDIO*%
X-3801041Y17100000D02*
X-2925000Y17100000D01*
X-10500000Y25610000D02*
X-12200000Y23910000D01*
X-4350000Y23544163D02*
X-4350000Y24300000D01*
X-4430000Y17310000D02*
X-4011041Y17310000D01*
X-4011041Y17310000D02*
X-3801041Y17100000D01*
X-4350000Y24300000D02*
X-5660000Y25610000D01*
X-5660000Y25610000D02*
X-10500000Y25610000D01*
%TO.N,SWCLK*%
X-8460000Y25110000D02*
X-9660000Y23910000D01*
X-5550000Y21601041D02*
X-5550000Y24037057D01*
X-6622943Y25110000D02*
X-8460000Y25110000D01*
X-4850000Y20025000D02*
X-4850000Y20901041D01*
X-5550000Y24037057D02*
X-6622943Y25110000D01*
X-4850000Y20901041D02*
X-5550000Y21601041D01*
%TO.N,SWO*%
X-7270000Y21481041D02*
X-7270000Y23760000D01*
X-7850000Y20901041D02*
X-7270000Y21481041D01*
X-7850000Y20025000D02*
X-7850000Y20901041D01*
X-7270000Y23760000D02*
X-7120000Y23910000D01*
%TO.N,USART1_RX*%
X-9068380Y21889767D02*
X-9850000Y21108147D01*
X-9850000Y21108147D02*
X-9850000Y20025000D01*
X-9068380Y22282525D02*
X-9068380Y21889767D01*
%TO.N,USART1_TX*%
X-9350000Y20901041D02*
X-8090000Y22161041D01*
X-8090000Y22161041D02*
X-8090000Y22520000D01*
X-8090000Y22520000D02*
X-8100000Y22530000D01*
X-9350000Y20025000D02*
X-9350000Y20901041D01*
%TO.N,V_test*%
X20959339Y-6020000D02*
X21189719Y-6250380D01*
X21189719Y-6250380D02*
X23979620Y-6250380D01*
X-850000Y-5610000D02*
X-2320000Y-4140000D01*
X8990000Y5880000D02*
X8990000Y5252500D01*
X26470000Y3740661D02*
X22850661Y7360000D01*
X19060000Y4970000D02*
X15410000Y4970000D01*
X-5650000Y-2910000D02*
X-6840000Y-2910000D01*
X15330000Y4970000D02*
X15370000Y4970000D01*
X20849339Y7360000D02*
X20350000Y6860661D01*
X20350000Y6860661D02*
X20350000Y6260000D01*
X15410000Y4970000D02*
X15220000Y4930000D01*
X-850000Y-7820000D02*
X-850000Y-5610000D01*
X12940000Y-6020000D02*
X20959339Y-6020000D01*
X12600000Y-6360000D02*
X12940000Y-6020000D01*
X20350000Y6260000D02*
X19060000Y4970000D01*
X8990000Y5252500D02*
X9222500Y5020000D01*
X12630000Y-6950000D02*
X12600000Y-6360000D01*
X-6840000Y-2910000D02*
X-6875000Y-2875000D01*
X26470000Y-3760000D02*
X26470000Y3740661D01*
X15220000Y4930000D02*
X15330000Y4970000D01*
X13950000Y-8270000D02*
X12630000Y-6950000D01*
X23979620Y-6250380D02*
X26470000Y-3760000D01*
X22850661Y7360000D02*
X20849339Y7360000D01*
%TO.N,Net-(U4-VCAP1)*%
X-5850000Y8675000D02*
X-5850000Y7035000D01*
%TO.N,ALT_ADC_2*%
X-8832500Y-4187107D02*
X-9940000Y-3079607D01*
X-9940000Y-1765000D02*
X-8775000Y-600000D01*
X-7460000Y-10300000D02*
X-7460000Y-6600000D01*
X-9940000Y-3079607D02*
X-9940000Y-1765000D01*
X-8832500Y-5227500D02*
X-8832500Y-4187107D01*
X-7460000Y-6600000D02*
X-8832500Y-5227500D01*
%TO.N,ALT_ADC_3*%
X9095500Y9322000D02*
X3398000Y9322000D01*
X11497500Y6920000D02*
X9095500Y9322000D01*
X3398000Y9322000D02*
X1740000Y10980000D01*
%TO.N,+4V4*%
X-12699239Y-3000000D02*
X-20522411Y-3000000D01*
X19759239Y-3420000D02*
X19220761Y-3420000D01*
D48*
X11307500Y-7830000D02*
X11307500Y-8465000D01*
D47*
X3430000Y-870000D02*
X3430000Y-3510000D01*
X867869Y-926682D02*
X1494551Y-300000D01*
X3430000Y-3510000D02*
X3270000Y-3350000D01*
X19220761Y-3420000D02*
X19200761Y-3400000D01*
D48*
X11037500Y-9960000D02*
X13760000Y-9960000D01*
X11252500Y-9420000D02*
X11252500Y-8435000D01*
D47*
X1494551Y-300000D02*
X2860000Y-300000D01*
X19200761Y-3400000D02*
X14495000Y-3400000D01*
X8230000Y-3510000D02*
X11307500Y-6587500D01*
X20400000Y-2779239D02*
X19759239Y-3420000D01*
X3430000Y-3510000D02*
X8230000Y-3510000D01*
X3270000Y-3350000D02*
X-3076827Y-3350000D01*
D48*
X11252500Y-9745000D02*
X11252500Y-9420000D01*
D47*
X20437500Y-950000D02*
X20437500Y-2302500D01*
X20437500Y-2302500D02*
X20400000Y-2340000D01*
D48*
X13760000Y-9960000D02*
X13950000Y-9770000D01*
D47*
X20400000Y-2340000D02*
X20400000Y-2779239D01*
D48*
X11037500Y-9960000D02*
X11252500Y-9745000D01*
D47*
X-20522411Y-3000000D02*
X-22120000Y-1402411D01*
X11307500Y-6587500D02*
X11307500Y-7830000D01*
X-22120000Y930000D02*
X-20457500Y930000D01*
X-3076827Y-3350000D02*
X-3890000Y-4030000D01*
X-20457500Y930000D02*
X-20437500Y950000D01*
X14495000Y-3400000D02*
X11307500Y-6587500D01*
X2860000Y-300000D02*
X3430000Y-870000D01*
X-22120000Y-1402411D02*
X-22120000Y930000D01*
%TO.N,S_ADC_IN2*%
X-9010000Y-11250000D02*
X-6280000Y-11250000D01*
X-5500000Y-4562500D02*
X-937500Y0D01*
X-9960000Y-10181371D02*
X-9960000Y-10300000D01*
X-5500000Y-10470000D02*
X-5500000Y-4562500D01*
X-6280000Y-11250000D02*
X-5500000Y-10470000D01*
X-12460000Y-4800000D02*
X-12460000Y-7681371D01*
X-9960000Y-10300000D02*
X-9010000Y-11250000D01*
X-12460000Y-7681371D02*
X-9960000Y-10181371D01*
%TO.N,O_ADC_IN2*%
X-6875000Y-1019607D02*
X-6875000Y-1495000D01*
X-6875000Y-1495000D02*
X-8255000Y-2875000D01*
X-7460000Y-4800000D02*
X-7460000Y-4190000D01*
X-8255000Y-2875000D02*
X-8730393Y-2875000D01*
X-7460000Y-4190000D02*
X-8775000Y-2875000D01*
%TO.N,O_ADC_IN3*%
X11077893Y5020000D02*
X11497500Y5020000D01*
X9222500Y6920000D02*
X2750000Y6920000D01*
X9222500Y6875393D02*
X11077893Y5020000D01*
X2750000Y6920000D02*
X1760000Y5930000D01*
X9222500Y6920000D02*
X9222500Y6875393D01*
%TO.N,S_ADC_IN3*%
X14046000Y5844661D02*
X14046000Y3020000D01*
X9400000Y3020000D02*
X6760000Y5660000D01*
X4300000Y11120000D02*
X5598000Y9822000D01*
X18562500Y0D02*
X15542500Y3020000D01*
X14046000Y3020000D02*
X9400000Y3020000D01*
X5598000Y9822000D02*
X10068661Y9822000D01*
X10068661Y9822000D02*
X14046000Y5844661D01*
X15542500Y3020000D02*
X14046000Y3020000D01*
%TD*%
%TA.AperFunction,Conductor*%
%TO.N,GND*%
G36*
X1480381Y13089443D02*
G01*
X6720369Y12930656D01*
X6765789Y12920543D01*
X6804288Y12894395D01*
X6989786Y12708897D01*
X6992728Y12705853D01*
X7030736Y12665156D01*
X7030738Y12665155D01*
X7036527Y12658956D01*
X7057724Y12646066D01*
X7071626Y12637612D01*
X7082124Y12630467D01*
X7114864Y12605639D01*
X7131558Y12599056D01*
X7150498Y12589649D01*
X7165825Y12580328D01*
X7191740Y12573067D01*
X7205384Y12569244D01*
X7217421Y12565196D01*
X7247749Y12553236D01*
X7247752Y12553236D01*
X7255642Y12550124D01*
X7273491Y12548290D01*
X7294263Y12544342D01*
X7311542Y12539500D01*
X7352632Y12539500D01*
X7365311Y12538851D01*
X7406178Y12534649D01*
X7423857Y12537698D01*
X7444925Y12539500D01*
X8793677Y12539500D01*
X8837606Y12531458D01*
X8875835Y12508377D01*
X9732391Y11750654D01*
X15020159Y7073013D01*
X15051057Y7031070D01*
X15062000Y6980137D01*
X15062000Y5655523D01*
X15052078Y5606921D01*
X15023901Y5566096D01*
X14987451Y5543046D01*
X14987635Y5542696D01*
X14983304Y5540424D01*
X14983293Y5540418D01*
X14980997Y5539213D01*
X14980994Y5539211D01*
X14854406Y5472772D01*
X14854400Y5472769D01*
X14847760Y5469283D01*
X14842148Y5464313D01*
X14842143Y5464308D01*
X14735127Y5369501D01*
X14735122Y5369497D01*
X14729517Y5364530D01*
X14725262Y5358366D01*
X14725257Y5358360D01*
X14672550Y5281999D01*
X14625456Y5241282D01*
X14564509Y5228584D01*
X14505073Y5247105D01*
X14462128Y5292177D01*
X14446500Y5352439D01*
X14446500Y5898338D01*
X14446500Y5908094D01*
X14439655Y5929160D01*
X14435111Y5948086D01*
X14433172Y5960329D01*
X14431646Y5969965D01*
X14421585Y5989710D01*
X14414142Y6007679D01*
X14407296Y6028750D01*
X14394269Y6046681D01*
X14384107Y6063265D01*
X14378481Y6074307D01*
X14378480Y6074308D01*
X14374050Y6083003D01*
X14351486Y6105567D01*
X14351484Y6105570D01*
X10329570Y10127484D01*
X10329566Y10127487D01*
X10307003Y10150050D01*
X10298310Y10154480D01*
X10298308Y10154481D01*
X10287259Y10160111D01*
X10270676Y10170274D01*
X10260648Y10177560D01*
X10260641Y10177564D01*
X10252751Y10183296D01*
X10231680Y10190143D01*
X10213705Y10197588D01*
X10202660Y10203216D01*
X10202657Y10203217D01*
X10193965Y10207646D01*
X10184328Y10209173D01*
X10184327Y10209173D01*
X10172079Y10211113D01*
X10153167Y10215654D01*
X10141378Y10219484D01*
X10141375Y10219485D01*
X10132094Y10222500D01*
X10122334Y10222500D01*
X7634479Y10222500D01*
X7570731Y10240141D01*
X7525122Y10288045D01*
X7510628Y10352581D01*
X7526315Y10400073D01*
X7524507Y10400822D01*
X7529179Y10412104D01*
X7535966Y10422260D01*
X7550500Y10495326D01*
X7550500Y11744674D01*
X7535966Y11817740D01*
X7480601Y11900601D01*
X7397740Y11955966D01*
X7385762Y11958349D01*
X7385759Y11958350D01*
X7330653Y11969311D01*
X7330649Y11969312D01*
X7324674Y11970500D01*
X6275326Y11970500D01*
X6269351Y11969312D01*
X6269346Y11969311D01*
X6214240Y11958350D01*
X6214235Y11958349D01*
X6202260Y11955966D01*
X6192105Y11949181D01*
X6192103Y11949180D01*
X6129551Y11907385D01*
X6129548Y11907383D01*
X6119399Y11900601D01*
X6112617Y11890452D01*
X6112615Y11890449D01*
X6070820Y11827897D01*
X6070819Y11827895D01*
X6064034Y11817740D01*
X6061651Y11805765D01*
X6061650Y11805760D01*
X6050689Y11750654D01*
X6050688Y11750649D01*
X6049500Y11744674D01*
X6049500Y10495326D01*
X6050688Y10489351D01*
X6050689Y10489347D01*
X6061650Y10434241D01*
X6061651Y10434238D01*
X6064034Y10422260D01*
X6070819Y10412105D01*
X6075493Y10400822D01*
X6073684Y10400073D01*
X6089372Y10352581D01*
X6074878Y10288045D01*
X6029269Y10240141D01*
X5965521Y10222500D01*
X5815254Y10222500D01*
X5767801Y10231939D01*
X5727573Y10258819D01*
X5086819Y10899574D01*
X5059939Y10939802D01*
X5050500Y10987255D01*
X5050500Y11738579D01*
X5050500Y11744674D01*
X5035966Y11817740D01*
X4980601Y11900601D01*
X4897740Y11955966D01*
X4885762Y11958349D01*
X4885759Y11958350D01*
X4830653Y11969311D01*
X4830649Y11969312D01*
X4824674Y11970500D01*
X3775326Y11970500D01*
X3769351Y11969312D01*
X3769346Y11969311D01*
X3714240Y11958350D01*
X3714235Y11958349D01*
X3702260Y11955966D01*
X3692105Y11949181D01*
X3692103Y11949180D01*
X3629551Y11907385D01*
X3629548Y11907383D01*
X3619399Y11900601D01*
X3612617Y11890452D01*
X3612615Y11890449D01*
X3570820Y11827897D01*
X3570819Y11827895D01*
X3564034Y11817740D01*
X3561651Y11805765D01*
X3561650Y11805760D01*
X3550689Y11750654D01*
X3550688Y11750649D01*
X3549500Y11744674D01*
X3549500Y10495326D01*
X3550688Y10489351D01*
X3550689Y10489347D01*
X3561650Y10434241D01*
X3561651Y10434238D01*
X3564034Y10422260D01*
X3619399Y10339399D01*
X3702260Y10284034D01*
X3775326Y10269500D01*
X4532745Y10269500D01*
X4580198Y10260061D01*
X4620426Y10233181D01*
X4842591Y10011016D01*
X4919427Y9934181D01*
X4949677Y9884818D01*
X4954219Y9827102D01*
X4932064Y9773615D01*
X4888041Y9736015D01*
X4831746Y9722500D01*
X3615255Y9722500D01*
X3567802Y9731939D01*
X3527574Y9758819D01*
X2586819Y10699574D01*
X2559939Y10739802D01*
X2550500Y10787255D01*
X2550500Y11738579D01*
X2550500Y11744674D01*
X2535966Y11817740D01*
X2480601Y11900601D01*
X2397740Y11955966D01*
X2385762Y11958349D01*
X2385759Y11958350D01*
X2330653Y11969311D01*
X2330649Y11969312D01*
X2324674Y11970500D01*
X1275326Y11970500D01*
X1269351Y11969312D01*
X1269346Y11969311D01*
X1214240Y11958350D01*
X1214235Y11958349D01*
X1202260Y11955966D01*
X1192105Y11949181D01*
X1192103Y11949180D01*
X1129551Y11907385D01*
X1129548Y11907383D01*
X1119399Y11900601D01*
X1112617Y11890452D01*
X1112615Y11890449D01*
X1070820Y11827897D01*
X1070819Y11827895D01*
X1064034Y11817740D01*
X1061651Y11805765D01*
X1061650Y11805760D01*
X1050689Y11750654D01*
X1050688Y11750649D01*
X1049500Y11744674D01*
X1049500Y10495326D01*
X1050688Y10489351D01*
X1050689Y10489347D01*
X1061650Y10434241D01*
X1061651Y10434238D01*
X1064034Y10422260D01*
X1119399Y10339399D01*
X1202260Y10284034D01*
X1275326Y10269500D01*
X1832745Y10269500D01*
X1880198Y10260061D01*
X1920426Y10233181D01*
X3037399Y9116208D01*
X3069566Y9060348D01*
X3069345Y8995888D01*
X3036798Y8940249D01*
X2980720Y8908465D01*
X2916263Y8909125D01*
X2883829Y8918213D01*
X2883825Y8918214D01*
X2875665Y8920500D01*
X2762342Y8920500D01*
X2758158Y8919925D01*
X2758144Y8919924D01*
X2658485Y8906226D01*
X2658479Y8906225D01*
X2650080Y8905070D01*
X2642299Y8901691D01*
X2642298Y8901690D01*
X2519062Y8848161D01*
X2519057Y8848159D01*
X2511280Y8844780D01*
X2504702Y8839429D01*
X2504698Y8839426D01*
X2400470Y8754630D01*
X2400468Y8754629D01*
X2393892Y8749278D01*
X2389003Y8742353D01*
X2389002Y8742351D01*
X2356741Y8696647D01*
X2306623Y8625647D01*
X2303785Y8617663D01*
X2303782Y8617656D01*
X2258786Y8491049D01*
X2258784Y8491045D01*
X2255946Y8483056D01*
X2255367Y8474597D01*
X2255367Y8474595D01*
X2246197Y8340543D01*
X2246197Y8340537D01*
X2245619Y8332079D01*
X2247344Y8323774D01*
X2247345Y8323772D01*
X2274681Y8192223D01*
X2274682Y8192220D01*
X2276408Y8183915D01*
X2280309Y8176386D01*
X2280310Y8176384D01*
X2308311Y8122345D01*
X2346029Y8049553D01*
X2351816Y8043357D01*
X2351818Y8043354D01*
X2443529Y7945156D01*
X2443531Y7945155D01*
X2449320Y7938956D01*
X2456566Y7934550D01*
X2456568Y7934548D01*
X2547004Y7879553D01*
X2578618Y7860328D01*
X2724335Y7819500D01*
X2833421Y7819500D01*
X2837658Y7819500D01*
X2949920Y7834930D01*
X3088720Y7895220D01*
X3206108Y7990722D01*
X3293377Y8114353D01*
X3344054Y8256944D01*
X3354381Y8407921D01*
X3323592Y8556085D01*
X3253971Y8690447D01*
X3231141Y8714892D01*
X3201788Y8768199D01*
X3201331Y8829053D01*
X3229881Y8882795D01*
X3280562Y8916482D01*
X3334567Y8921400D01*
X3334567Y8921500D01*
X3366481Y8921500D01*
X3461433Y8921500D01*
X5276150Y8921500D01*
X5340578Y8903448D01*
X5386248Y8854548D01*
X5399861Y8789038D01*
X5377454Y8725991D01*
X5356741Y8696647D01*
X5306623Y8625647D01*
X5303785Y8617663D01*
X5303782Y8617656D01*
X5258786Y8491049D01*
X5258784Y8491045D01*
X5255946Y8483056D01*
X5255367Y8474597D01*
X5255367Y8474595D01*
X5246197Y8340543D01*
X5246197Y8340537D01*
X5245619Y8332079D01*
X5247344Y8323774D01*
X5247345Y8323772D01*
X5274681Y8192223D01*
X5274682Y8192220D01*
X5276408Y8183915D01*
X5280309Y8176386D01*
X5280310Y8176384D01*
X5308311Y8122345D01*
X5346029Y8049553D01*
X5351816Y8043357D01*
X5351818Y8043354D01*
X5443529Y7945156D01*
X5443531Y7945155D01*
X5449320Y7938956D01*
X5456566Y7934550D01*
X5456568Y7934548D01*
X5547004Y7879553D01*
X5578618Y7860328D01*
X5724335Y7819500D01*
X5833421Y7819500D01*
X5837658Y7819500D01*
X5949920Y7834930D01*
X6088720Y7895220D01*
X6206108Y7990722D01*
X6293377Y8114353D01*
X6344054Y8256944D01*
X6354381Y8407921D01*
X6323592Y8556085D01*
X6253971Y8690447D01*
X6233035Y8712864D01*
X6204725Y8762418D01*
X6201609Y8819403D01*
X6224346Y8871749D01*
X6268120Y8908367D01*
X6323659Y8921500D01*
X8878245Y8921500D01*
X8925698Y8912061D01*
X8965926Y8885181D01*
X10562396Y7288711D01*
X10592646Y7239349D01*
X10597188Y7181635D01*
X10584500Y7101519D01*
X10584500Y7096642D01*
X10584500Y7096641D01*
X10584500Y6743353D01*
X10584500Y6743341D01*
X10584501Y6738482D01*
X10585261Y6733678D01*
X10585262Y6733676D01*
X10588255Y6714780D01*
X10583712Y6657065D01*
X10553463Y6607702D01*
X10472832Y6527071D01*
X10463342Y6514837D01*
X10428067Y6455190D01*
X10389414Y6414671D01*
X10336877Y6395290D01*
X10281170Y6400998D01*
X10233655Y6430631D01*
X10148382Y6515904D01*
X10115489Y6574640D01*
X10118042Y6639587D01*
X10120646Y6644696D01*
X10135500Y6738481D01*
X10135499Y7101518D01*
X10120646Y7195304D01*
X10105268Y7225484D01*
X10079753Y7275561D01*
X10063050Y7308342D01*
X9973342Y7398050D01*
X9860304Y7455646D01*
X9850667Y7457173D01*
X9850662Y7457174D01*
X9771339Y7469737D01*
X9771333Y7469738D01*
X9766519Y7470500D01*
X9761640Y7470500D01*
X8683352Y7470500D01*
X8683339Y7470500D01*
X8678482Y7470499D01*
X8673680Y7469739D01*
X8673673Y7469738D01*
X8594331Y7457172D01*
X8594330Y7457172D01*
X8584696Y7455646D01*
X8576010Y7451221D01*
X8576003Y7451218D01*
X8480353Y7402481D01*
X8480349Y7402479D01*
X8471658Y7398050D01*
X8464759Y7391152D01*
X8464756Y7391149D01*
X8430427Y7356819D01*
X8390199Y7329939D01*
X8342746Y7320500D01*
X2718481Y7320500D01*
X2718477Y7320500D01*
X2718469Y7320499D01*
X2686567Y7320499D01*
X2670928Y7315419D01*
X2665496Y7313653D01*
X2646585Y7309113D01*
X2634335Y7307173D01*
X2634333Y7307173D01*
X2624696Y7305646D01*
X2616001Y7301216D01*
X2615995Y7301214D01*
X2604949Y7295586D01*
X2586986Y7288145D01*
X2575186Y7284311D01*
X2575181Y7284309D01*
X2565910Y7281296D01*
X2558024Y7275567D01*
X2558013Y7275561D01*
X2547983Y7268273D01*
X2531400Y7258110D01*
X2520355Y7252483D01*
X2520347Y7252478D01*
X2511658Y7248050D01*
X2504757Y7241150D01*
X2504755Y7241148D01*
X2489095Y7225489D01*
X2489092Y7225486D01*
X2489091Y7225484D01*
X2489091Y7225483D01*
X1770426Y6506819D01*
X1730198Y6479939D01*
X1682745Y6470500D01*
X1275326Y6470500D01*
X1269351Y6469312D01*
X1269346Y6469311D01*
X1214240Y6458350D01*
X1214235Y6458349D01*
X1202260Y6455966D01*
X1192105Y6449181D01*
X1192103Y6449180D01*
X1129551Y6407385D01*
X1129548Y6407383D01*
X1119399Y6400601D01*
X1112617Y6390452D01*
X1112615Y6390449D01*
X1070820Y6327897D01*
X1070819Y6327895D01*
X1064034Y6317740D01*
X1061651Y6305765D01*
X1061650Y6305760D01*
X1050689Y6250654D01*
X1050688Y6250649D01*
X1049500Y6244674D01*
X1049500Y4995326D01*
X1050688Y4989351D01*
X1050689Y4989347D01*
X1061650Y4934241D01*
X1061651Y4934238D01*
X1064034Y4922260D01*
X1070820Y4912104D01*
X1094985Y4875937D01*
X1119399Y4839399D01*
X1202260Y4784034D01*
X1275326Y4769500D01*
X1281421Y4769500D01*
X2233744Y4769500D01*
X2290039Y4755985D01*
X2334062Y4718385D01*
X2356217Y4664898D01*
X2351675Y4607182D01*
X2321425Y4557819D01*
X1795018Y4031413D01*
X-940000Y3988000D01*
X-461621Y8293412D01*
X-450144Y8333423D01*
X-426068Y8367383D01*
X-50855Y8742596D01*
X-47870Y8745481D01*
X-956Y8789294D01*
X20398Y8824412D01*
X27525Y8834883D01*
X52361Y8867632D01*
X58943Y8884326D01*
X68352Y8903267D01*
X68462Y8903448D01*
X77672Y8918592D01*
X88758Y8958163D01*
X92802Y8970188D01*
X107876Y9008410D01*
X109711Y9026261D01*
X113660Y9047037D01*
X118500Y9064309D01*
X118500Y9105392D01*
X119150Y9118073D01*
X123352Y9158946D01*
X120303Y9176630D01*
X118500Y9197699D01*
X118500Y12598613D01*
X127939Y12646066D01*
X154819Y12686294D01*
X521706Y13053181D01*
X561934Y13080061D01*
X609387Y13089500D01*
X1476625Y13089500D01*
X1480381Y13089443D01*
G37*
%TD.AperFunction*%
%TA.AperFunction,Conductor*%
G36*
X6030607Y6501858D02*
G01*
X6076217Y6453952D01*
X6090709Y6389414D01*
X6074278Y6339682D01*
X6075493Y6339178D01*
X6070819Y6327895D01*
X6064034Y6317740D01*
X6061651Y6305765D01*
X6061650Y6305760D01*
X6050689Y6250654D01*
X6050688Y6250649D01*
X6049500Y6244674D01*
X6049500Y4995326D01*
X6050688Y4989351D01*
X6050689Y4989347D01*
X6061650Y4934241D01*
X6061651Y4934238D01*
X6064034Y4922260D01*
X6070820Y4912104D01*
X6094985Y4875937D01*
X6119399Y4839399D01*
X6202260Y4784034D01*
X6275326Y4769500D01*
X7032745Y4769500D01*
X7080198Y4760061D01*
X7120426Y4733181D01*
X7728019Y4125588D01*
X2946076Y4049685D01*
X3637183Y4740792D01*
X3688867Y4771770D01*
X3749054Y4774726D01*
X3775326Y4769500D01*
X4818579Y4769500D01*
X4824674Y4769500D01*
X4897740Y4784034D01*
X4980601Y4839399D01*
X5035966Y4922260D01*
X5050500Y4995326D01*
X5050500Y6244674D01*
X5035966Y6317740D01*
X5029180Y6327897D01*
X5024507Y6339178D01*
X5025721Y6339682D01*
X5009291Y6389414D01*
X5023783Y6453952D01*
X5069393Y6501858D01*
X5133142Y6519500D01*
X5966858Y6519500D01*
X6030607Y6501858D01*
G37*
%TD.AperFunction*%
%TA.AperFunction,Conductor*%
G36*
X12815174Y6509094D02*
G01*
X13609181Y5715087D01*
X13636061Y5674859D01*
X13645500Y5627406D01*
X13645500Y4219516D01*
X8843105Y4143288D01*
X8728573Y4257820D01*
X8698323Y4307183D01*
X8693781Y4364899D01*
X8715936Y4418386D01*
X8759959Y4455986D01*
X8816250Y4469501D01*
X9766518Y4469501D01*
X9860304Y4484354D01*
X9973342Y4541950D01*
X10063050Y4631658D01*
X10120646Y4744696D01*
X10135500Y4838481D01*
X10135499Y5096641D01*
X10149014Y5152933D01*
X10186613Y5196957D01*
X10240101Y5219112D01*
X10297817Y5214570D01*
X10347180Y5184320D01*
X10548181Y4983319D01*
X10575061Y4943092D01*
X10584500Y4895640D01*
X10584500Y4843353D01*
X10584500Y4843341D01*
X10584501Y4838482D01*
X10585261Y4833680D01*
X10585262Y4833674D01*
X10585430Y4832616D01*
X10599354Y4744696D01*
X10603780Y4736009D01*
X10603782Y4736004D01*
X10640013Y4664898D01*
X10656950Y4631658D01*
X10746658Y4541950D01*
X10859696Y4484354D01*
X10953481Y4469500D01*
X12041518Y4469501D01*
X12135304Y4484354D01*
X12248342Y4541950D01*
X12338050Y4631658D01*
X12395646Y4744696D01*
X12410500Y4838481D01*
X12410499Y5201518D01*
X12406744Y5225226D01*
X12411287Y5282937D01*
X12441537Y5332300D01*
X12522167Y5412930D01*
X12531655Y5425162D01*
X12607310Y5553088D01*
X12613458Y5567295D01*
X12654692Y5709224D01*
X12653286Y5716294D01*
X12640144Y5720000D01*
X11371500Y5720000D01*
X11309500Y5736613D01*
X11264113Y5782000D01*
X11247500Y5844000D01*
X11247500Y6096000D01*
X11264113Y6158000D01*
X11309500Y6203387D01*
X11371500Y6220000D01*
X12640144Y6220000D01*
X12653286Y6223707D01*
X12654692Y6230777D01*
X12611282Y6380198D01*
X12612576Y6380575D01*
X12604785Y6439267D01*
X12632446Y6501050D01*
X12688433Y6539100D01*
X12756060Y6542077D01*
X12815174Y6509094D01*
G37*
%TD.AperFunction*%
%TA.AperFunction,Conductor*%
G36*
X14625456Y4618718D02*
G01*
X14672550Y4578001D01*
X14686480Y4557819D01*
X14729517Y4495470D01*
X14735126Y4490501D01*
X14735127Y4490500D01*
X14833320Y4403509D01*
X14847760Y4390717D01*
X14987635Y4317304D01*
X14994915Y4315510D01*
X15001933Y4312848D01*
X15001434Y4311533D01*
X15051906Y4283090D01*
X15062000Y4273010D01*
X15062000Y4242000D01*
X14446500Y4232230D01*
X14446500Y4507561D01*
X14462128Y4567823D01*
X14505073Y4612895D01*
X14564509Y4631416D01*
X14625456Y4618718D01*
G37*
%TD.AperFunction*%
%TD*%
%TA.AperFunction,Conductor*%
%TO.N,GND*%
G36*
X24409188Y4263579D02*
G01*
X24454560Y4218934D01*
X24471803Y4157660D01*
X24517436Y1062900D01*
X24503438Y1003814D01*
X24463064Y958458D01*
X24405998Y937709D01*
X24393938Y936483D01*
X24393923Y936480D01*
X24387679Y935845D01*
X24381681Y933964D01*
X24381680Y933963D01*
X24209235Y879858D01*
X24209230Y879857D01*
X24203232Y877974D01*
X24197736Y874924D01*
X24197730Y874921D01*
X24039708Y787212D01*
X24039702Y787208D01*
X24034209Y784159D01*
X24029444Y780070D01*
X24029439Y780065D01*
X23892300Y662334D01*
X23892295Y662330D01*
X23887532Y658240D01*
X23883689Y653276D01*
X23883682Y653268D01*
X23777398Y515959D01*
X23769204Y505373D01*
X23766436Y499732D01*
X23766432Y499724D01*
X23686840Y337464D01*
X23684070Y331816D01*
X23682493Y325727D01*
X23682492Y325723D01*
X23654087Y216017D01*
X23635615Y144674D01*
X23635296Y138394D01*
X23635296Y138390D01*
X23626142Y-42108D01*
X23626142Y-42113D01*
X23625824Y-48390D01*
X23626775Y-54602D01*
X23626776Y-54608D01*
X23654144Y-233259D01*
X23654146Y-233267D01*
X23655097Y-239474D01*
X23657278Y-245364D01*
X23657280Y-245370D01*
X23712200Y-393656D01*
X23722236Y-420753D01*
X23725562Y-426089D01*
X23725564Y-426093D01*
X23816457Y-571919D01*
X23824491Y-584807D01*
X23858348Y-620425D01*
X23929415Y-695188D01*
X23957677Y-724919D01*
X24116342Y-835353D01*
X24293988Y-911587D01*
X24449761Y-943598D01*
X24500218Y-966632D01*
X24535585Y-1009359D01*
X24548787Y-1063232D01*
X24578141Y-3053991D01*
X24562116Y-3116812D01*
X24516578Y-3162960D01*
X24453976Y-3179819D01*
X22037930Y-3176350D01*
X21981686Y-3162770D01*
X21937727Y-3125149D01*
X21915623Y-3071677D01*
X21920188Y-3013997D01*
X21950427Y-2964668D01*
X22004203Y-2910891D01*
X22013691Y-2898660D01*
X22088060Y-2772909D01*
X22094208Y-2758702D01*
X22135376Y-2617002D01*
X22137310Y-2606415D01*
X22134782Y-2593706D01*
X22121641Y-2590000D01*
X21234000Y-2590000D01*
X21172000Y-2573387D01*
X21126613Y-2528000D01*
X21110000Y-2466000D01*
X21110000Y-2214000D01*
X21126613Y-2152000D01*
X21172000Y-2106613D01*
X21234000Y-2090000D01*
X22121637Y-2090000D01*
X22134781Y-2086293D01*
X22137309Y-2073585D01*
X22135375Y-2062994D01*
X22094208Y-1921297D01*
X22088060Y-1907090D01*
X22013691Y-1781339D01*
X22004200Y-1769103D01*
X21900896Y-1665799D01*
X21888660Y-1656308D01*
X21762909Y-1581939D01*
X21748702Y-1575791D01*
X21651485Y-1547547D01*
X21604885Y-1522191D01*
X21573148Y-1479680D01*
X21562083Y-1427802D01*
X21572126Y414985D01*
X21589392Y477428D01*
X21622311Y533090D01*
X21628458Y547295D01*
X21669692Y689224D01*
X21668286Y696295D01*
X21664657Y697318D01*
X21617613Y722518D01*
X21585518Y765158D01*
X21574318Y817335D01*
X21575774Y1084426D01*
X21587352Y1136072D01*
X21619412Y1178186D01*
X21666114Y1203094D01*
X21668286Y1203707D01*
X21669692Y1210777D01*
X21628458Y1352706D01*
X21622309Y1366915D01*
X21595177Y1412793D01*
X21577911Y1476587D01*
X21580036Y1866463D01*
X21563655Y1866463D01*
X17671560Y1866463D01*
X17644697Y1869408D01*
X17643706Y1869628D01*
X17630036Y1876463D01*
X17614758Y1876052D01*
X17406062Y1870433D01*
X17406060Y1870433D01*
X17390000Y1870000D01*
X17390011Y1865736D01*
X17362412Y1857659D01*
X17296866Y1856534D01*
X17239906Y1888987D01*
X15803416Y3325477D01*
X15803415Y3325478D01*
X15803409Y3325484D01*
X15803405Y3325487D01*
X15780842Y3348050D01*
X15772149Y3352480D01*
X15772147Y3352481D01*
X15761098Y3358111D01*
X15744515Y3368274D01*
X15734487Y3375560D01*
X15734480Y3375564D01*
X15726590Y3381296D01*
X15705519Y3388143D01*
X15687544Y3395588D01*
X15676499Y3401216D01*
X15676496Y3401217D01*
X15667804Y3405646D01*
X15658167Y3407173D01*
X15658166Y3407173D01*
X15645918Y3409113D01*
X15627006Y3413654D01*
X15615217Y3417484D01*
X15615214Y3417485D01*
X15605933Y3420500D01*
X15596173Y3420500D01*
X14570500Y3420500D01*
X14508500Y3437113D01*
X14463113Y3482500D01*
X14446500Y3544500D01*
X14446500Y4232230D01*
X15062000Y4242000D01*
X15062000Y4267029D01*
X24347647Y4279832D01*
X24409188Y4263579D01*
G37*
%TD.AperFunction*%
%TA.AperFunction,Conductor*%
G36*
X9139091Y2714516D02*
G01*
X9139094Y2714514D01*
X9161658Y2691950D01*
X9170353Y2687520D01*
X9170354Y2687519D01*
X9181396Y2681893D01*
X9197980Y2671731D01*
X9215911Y2658704D01*
X9236982Y2651858D01*
X9254951Y2644415D01*
X9274696Y2634354D01*
X9296576Y2630889D01*
X9315501Y2626345D01*
X9336567Y2619500D01*
X9368481Y2619500D01*
X9463433Y2619500D01*
X14004725Y2619500D01*
X14024122Y2617973D01*
X14046000Y2614508D01*
X14055641Y2616035D01*
X14067878Y2617973D01*
X14087275Y2619500D01*
X15325245Y2619500D01*
X15372698Y2610061D01*
X15412926Y2583181D01*
X17357224Y638883D01*
X17384040Y598809D01*
X17393543Y551535D01*
X17399991Y-1847091D01*
X17399991Y-1847093D01*
X17400036Y-1863537D01*
X19791325Y-1829047D01*
X19852527Y-1844195D01*
X19898369Y-1887483D01*
X19916998Y-1947718D01*
X19903598Y-2009327D01*
X19888414Y-2039127D01*
X19888412Y-2039131D01*
X19883983Y-2047825D01*
X19882456Y-2057460D01*
X19882455Y-2057466D01*
X19870263Y-2134444D01*
X19870262Y-2134451D01*
X19869500Y-2139265D01*
X19869500Y-2144142D01*
X19869500Y-2144143D01*
X19869500Y-2535864D01*
X19869500Y-2535876D01*
X19869501Y-2540734D01*
X19870261Y-2545538D01*
X19870262Y-2545540D01*
X19882456Y-2622539D01*
X19882457Y-2622544D01*
X19883983Y-2632175D01*
X19885565Y-2635281D01*
X19888067Y-2698936D01*
X19855174Y-2757670D01*
X19629662Y-2983183D01*
X19589437Y-3010061D01*
X19541984Y-3019500D01*
X19356604Y-3019500D01*
X19326945Y-3014802D01*
X19326065Y-3014354D01*
X19316428Y-3012827D01*
X19316427Y-3012827D01*
X19304179Y-3010887D01*
X19285267Y-3006346D01*
X19273478Y-3002516D01*
X19273475Y-3002515D01*
X19264194Y-2999500D01*
X19232280Y-2999500D01*
X14558433Y-2999500D01*
X14431567Y-2999500D01*
X14422291Y-3002513D01*
X14422283Y-3002515D01*
X14410491Y-3006347D01*
X14391582Y-3010886D01*
X14379339Y-3012825D01*
X14379330Y-3012827D01*
X14369696Y-3014354D01*
X14361002Y-3018783D01*
X14360997Y-3018785D01*
X14349951Y-3024413D01*
X14331989Y-3031853D01*
X14320194Y-3035686D01*
X14320186Y-3035690D01*
X14310911Y-3038704D01*
X14303023Y-3044434D01*
X14303016Y-3044438D01*
X14292978Y-3051731D01*
X14276405Y-3061886D01*
X14265359Y-3067515D01*
X14265353Y-3067519D01*
X14256658Y-3071950D01*
X14249761Y-3078846D01*
X14249755Y-3078851D01*
X14234094Y-3094513D01*
X14234091Y-3094516D01*
X14234089Y-3094516D01*
X14234090Y-3094517D01*
X14199951Y-3128655D01*
X14159641Y-3155567D01*
X14112093Y-3164972D01*
X8456311Y-3156852D01*
X8414697Y-3146831D01*
X8414089Y-3148703D01*
X8393019Y-3141857D01*
X8375044Y-3134412D01*
X8363999Y-3128784D01*
X8363996Y-3128783D01*
X8355304Y-3124354D01*
X8345667Y-3122827D01*
X8345666Y-3122827D01*
X8333418Y-3120887D01*
X8314506Y-3116346D01*
X8302717Y-3112516D01*
X8302714Y-3112515D01*
X8293433Y-3109500D01*
X8283673Y-3109500D01*
X3954500Y-3109500D01*
X3892500Y-3092887D01*
X3847113Y-3047500D01*
X3830500Y-2985500D01*
X3830500Y-816323D01*
X3830500Y-806567D01*
X3823655Y-785501D01*
X3819111Y-766575D01*
X3817172Y-754332D01*
X3815646Y-744696D01*
X3805585Y-724951D01*
X3798142Y-706982D01*
X3791296Y-685911D01*
X3778269Y-667980D01*
X3768107Y-651396D01*
X3762481Y-640354D01*
X3762480Y-640353D01*
X3758050Y-631658D01*
X3735486Y-609094D01*
X3735484Y-609091D01*
X3174783Y-48390D01*
X4125824Y-48390D01*
X4126775Y-54602D01*
X4126776Y-54608D01*
X4154144Y-233259D01*
X4154146Y-233267D01*
X4155097Y-239474D01*
X4157278Y-245364D01*
X4157280Y-245370D01*
X4212200Y-393656D01*
X4222236Y-420753D01*
X4225562Y-426089D01*
X4225564Y-426093D01*
X4316457Y-571919D01*
X4324491Y-584807D01*
X4358348Y-620425D01*
X4429415Y-695188D01*
X4457677Y-724919D01*
X4616342Y-835353D01*
X4793988Y-911587D01*
X4983344Y-950500D01*
X5125064Y-950500D01*
X5128206Y-950500D01*
X5272321Y-935845D01*
X5456768Y-877974D01*
X5625791Y-784159D01*
X5772468Y-658240D01*
X5890796Y-505373D01*
X5975930Y-331816D01*
X6024385Y-144674D01*
X6029268Y-48390D01*
X13465824Y-48390D01*
X13466775Y-54602D01*
X13466776Y-54608D01*
X13494144Y-233259D01*
X13494146Y-233267D01*
X13495097Y-239474D01*
X13497278Y-245364D01*
X13497280Y-245370D01*
X13552200Y-393656D01*
X13562236Y-420753D01*
X13565562Y-426089D01*
X13565564Y-426093D01*
X13656457Y-571919D01*
X13664491Y-584807D01*
X13698348Y-620425D01*
X13769415Y-695188D01*
X13797677Y-724919D01*
X13956342Y-835353D01*
X14133988Y-911587D01*
X14323344Y-950500D01*
X14465064Y-950500D01*
X14468206Y-950500D01*
X14612321Y-935845D01*
X14796768Y-877974D01*
X14965791Y-784159D01*
X15112468Y-658240D01*
X15230796Y-505373D01*
X15315930Y-331816D01*
X15364385Y-144674D01*
X15374176Y48390D01*
X15344903Y239474D01*
X15277764Y420753D01*
X15222254Y509811D01*
X15178835Y579471D01*
X15178834Y579472D01*
X15175509Y584807D01*
X15042323Y724919D01*
X14883658Y835353D01*
X14877884Y837831D01*
X14877882Y837832D01*
X14771212Y883608D01*
X14706012Y911587D01*
X14699858Y912852D01*
X14699857Y912852D01*
X14522814Y949235D01*
X14522809Y949236D01*
X14516656Y950500D01*
X14371794Y950500D01*
X14368683Y950184D01*
X14368670Y950183D01*
X14233931Y936481D01*
X14233928Y936481D01*
X14227679Y935845D01*
X14221681Y933964D01*
X14221680Y933963D01*
X14049235Y879858D01*
X14049230Y879857D01*
X14043232Y877974D01*
X14037736Y874924D01*
X14037730Y874921D01*
X13879708Y787212D01*
X13879702Y787208D01*
X13874209Y784159D01*
X13869444Y780070D01*
X13869439Y780065D01*
X13732300Y662334D01*
X13732295Y662330D01*
X13727532Y658240D01*
X13723689Y653276D01*
X13723682Y653268D01*
X13617398Y515959D01*
X13609204Y505373D01*
X13606436Y499732D01*
X13606432Y499724D01*
X13526840Y337464D01*
X13524070Y331816D01*
X13522493Y325727D01*
X13522492Y325723D01*
X13494087Y216017D01*
X13475615Y144674D01*
X13475296Y138394D01*
X13475296Y138390D01*
X13466142Y-42108D01*
X13466142Y-42113D01*
X13465824Y-48390D01*
X6029268Y-48390D01*
X6034176Y48390D01*
X6004903Y239474D01*
X5937764Y420753D01*
X5882254Y509811D01*
X5838835Y579471D01*
X5838834Y579472D01*
X5835509Y584807D01*
X5702323Y724919D01*
X5543658Y835353D01*
X5537884Y837831D01*
X5537882Y837832D01*
X5431212Y883608D01*
X5366012Y911587D01*
X5359858Y912852D01*
X5359857Y912852D01*
X5182814Y949235D01*
X5182809Y949236D01*
X5176656Y950500D01*
X5031794Y950500D01*
X5028683Y950184D01*
X5028670Y950183D01*
X4893931Y936481D01*
X4893928Y936481D01*
X4887679Y935845D01*
X4881681Y933964D01*
X4881680Y933963D01*
X4709235Y879858D01*
X4709230Y879857D01*
X4703232Y877974D01*
X4697736Y874924D01*
X4697730Y874921D01*
X4539708Y787212D01*
X4539702Y787208D01*
X4534209Y784159D01*
X4529444Y780070D01*
X4529439Y780065D01*
X4392300Y662334D01*
X4392295Y662330D01*
X4387532Y658240D01*
X4383689Y653276D01*
X4383682Y653268D01*
X4277398Y515959D01*
X4269204Y505373D01*
X4266436Y499732D01*
X4266432Y499724D01*
X4186840Y337464D01*
X4184070Y331816D01*
X4182493Y325727D01*
X4182492Y325723D01*
X4154087Y216017D01*
X4135615Y144674D01*
X4135296Y138394D01*
X4135296Y138390D01*
X4126142Y-42108D01*
X4126142Y-42113D01*
X4125824Y-48390D01*
X3174783Y-48390D01*
X3120909Y5484D01*
X3120905Y5487D01*
X3098342Y28050D01*
X3089649Y32480D01*
X3089647Y32481D01*
X3078598Y38111D01*
X3062015Y48274D01*
X3051987Y55560D01*
X3051980Y55564D01*
X3044090Y61296D01*
X3034808Y64312D01*
X3034806Y64313D01*
X3023315Y68047D01*
X2973954Y98296D01*
X2919292Y152958D01*
X2912391Y159859D01*
X2802175Y216017D01*
X2792537Y217544D01*
X2792533Y217545D01*
X2715555Y229737D01*
X2715549Y229738D01*
X2710735Y230500D01*
X2705856Y230500D01*
X2314135Y230500D01*
X2314122Y230500D01*
X2309266Y230499D01*
X2304462Y229739D01*
X2304459Y229738D01*
X2227461Y217544D01*
X2227455Y217543D01*
X2217825Y216017D01*
X2209137Y211591D01*
X2209130Y211588D01*
X2186371Y199991D01*
X2118364Y187032D01*
X2054008Y212552D01*
X2013364Y268597D01*
X2009102Y337697D01*
X2035039Y384702D01*
X2032384Y386761D01*
X2046653Y405158D01*
X2122310Y533088D01*
X2128458Y547295D01*
X2169692Y689224D01*
X2168286Y696294D01*
X2155144Y700000D01*
X2086548Y700000D01*
X2024293Y716760D01*
X1978868Y762510D01*
X1962551Y824883D01*
X1964345Y1076883D01*
X1981250Y1138509D01*
X2026597Y1183534D01*
X2088342Y1200000D01*
X2155144Y1200000D01*
X2168286Y1203707D01*
X2169692Y1210777D01*
X2128458Y1352706D01*
X2122310Y1366913D01*
X2046655Y1494839D01*
X2037164Y1507075D01*
X2004584Y1539655D01*
X1977536Y1580291D01*
X1968268Y1628216D01*
X1970369Y1923318D01*
X1953942Y1923277D01*
X-2003421Y1913359D01*
X-2003423Y1913359D01*
X-2019631Y1913318D01*
X-2019766Y1897110D01*
X-2019766Y1897107D01*
X-2039498Y-485265D01*
X-2049130Y-532165D01*
X-2075813Y-571919D01*
X-4242000Y-2738104D01*
X-4242000Y-2362000D01*
X-5260854Y-2385694D01*
X-5272144Y-2375692D01*
X-5272146Y-2375690D01*
X-5277760Y-2370717D01*
X-5284405Y-2367229D01*
X-5284407Y-2367228D01*
X-5410994Y-2300789D01*
X-5410998Y-2300787D01*
X-5417635Y-2297304D01*
X-5424913Y-2295510D01*
X-5424916Y-2295509D01*
X-5563733Y-2261294D01*
X-5563740Y-2261293D01*
X-5571015Y-2259500D01*
X-5728985Y-2259500D01*
X-5736260Y-2261292D01*
X-5736268Y-2261294D01*
X-5875085Y-2295509D01*
X-5875091Y-2295510D01*
X-5882365Y-2297304D01*
X-5889000Y-2300786D01*
X-5889007Y-2300789D01*
X-6015594Y-2367228D01*
X-6015600Y-2367231D01*
X-6022240Y-2370717D01*
X-6027855Y-2375690D01*
X-6027856Y-2375692D01*
X-6060128Y-2404282D01*
X-6313472Y-2410173D01*
X-6324501Y-2362979D01*
X-6324501Y-2335853D01*
X-6324501Y-2330982D01*
X-6339354Y-2237196D01*
X-6344985Y-2226145D01*
X-6389253Y-2139265D01*
X-6396950Y-2124158D01*
X-6486658Y-2034450D01*
X-6574003Y-1989945D01*
X-6618025Y-1952346D01*
X-6640180Y-1898858D01*
X-6635638Y-1841142D01*
X-6605389Y-1791781D01*
X-6569516Y-1755909D01*
X-6569514Y-1755905D01*
X-6546950Y-1733342D01*
X-6536891Y-1713598D01*
X-6526726Y-1697012D01*
X-6513704Y-1679089D01*
X-6506858Y-1658015D01*
X-6499417Y-1640052D01*
X-6489354Y-1620304D01*
X-6485889Y-1598422D01*
X-6481347Y-1579501D01*
X-6474500Y-1558433D01*
X-6474500Y-1479754D01*
X-6465061Y-1432301D01*
X-6438181Y-1392073D01*
X-6424812Y-1378704D01*
X-6396950Y-1350842D01*
X-6339354Y-1237804D01*
X-6324500Y-1144019D01*
X-6324501Y-55982D01*
X-6325703Y-48390D01*
X-6034176Y-48390D01*
X-6033225Y-54602D01*
X-6033224Y-54608D01*
X-6005856Y-233259D01*
X-6005854Y-233267D01*
X-6004903Y-239474D01*
X-6002722Y-245364D01*
X-6002720Y-245370D01*
X-5947800Y-393656D01*
X-5937764Y-420753D01*
X-5934438Y-426089D01*
X-5934436Y-426093D01*
X-5843543Y-571919D01*
X-5835509Y-584807D01*
X-5801652Y-620425D01*
X-5730585Y-695188D01*
X-5702323Y-724919D01*
X-5543658Y-835353D01*
X-5366012Y-911587D01*
X-5176656Y-950500D01*
X-5034936Y-950500D01*
X-5031794Y-950500D01*
X-4887679Y-935845D01*
X-4703232Y-877974D01*
X-4534209Y-784159D01*
X-4387532Y-658240D01*
X-4269204Y-505373D01*
X-4184070Y-331816D01*
X-4135615Y-144674D01*
X-4125824Y48390D01*
X-4155097Y239474D01*
X-4222236Y420753D01*
X-4277746Y509811D01*
X-4321165Y579471D01*
X-4321166Y579472D01*
X-4324491Y584807D01*
X-4457677Y724919D01*
X-4616342Y835353D01*
X-4622116Y837831D01*
X-4622118Y837832D01*
X-4728788Y883608D01*
X-4793988Y911587D01*
X-4800142Y912852D01*
X-4800143Y912852D01*
X-4977186Y949235D01*
X-4977191Y949236D01*
X-4983344Y950500D01*
X-5128206Y950500D01*
X-5131317Y950184D01*
X-5131330Y950183D01*
X-5266069Y936481D01*
X-5266072Y936481D01*
X-5272321Y935845D01*
X-5278319Y933964D01*
X-5278320Y933963D01*
X-5450765Y879858D01*
X-5450770Y879857D01*
X-5456768Y877974D01*
X-5462264Y874924D01*
X-5462270Y874921D01*
X-5620292Y787212D01*
X-5620298Y787208D01*
X-5625791Y784159D01*
X-5630556Y780070D01*
X-5630561Y780065D01*
X-5767700Y662334D01*
X-5767705Y662330D01*
X-5772468Y658240D01*
X-5776311Y653276D01*
X-5776318Y653268D01*
X-5882602Y515959D01*
X-5890796Y505373D01*
X-5893564Y499732D01*
X-5893568Y499724D01*
X-5973160Y337464D01*
X-5975930Y331816D01*
X-5977507Y325727D01*
X-5977508Y325723D01*
X-6005913Y216017D01*
X-6024385Y144674D01*
X-6024704Y138394D01*
X-6024704Y138390D01*
X-6033858Y-42108D01*
X-6033858Y-42113D01*
X-6034176Y-48390D01*
X-6325703Y-48390D01*
X-6339354Y37804D01*
X-6344689Y48274D01*
X-6371299Y100500D01*
X-6396950Y150842D01*
X-6486658Y240550D01*
X-6496120Y245371D01*
X-6591000Y293715D01*
X-6599696Y298146D01*
X-6609333Y299673D01*
X-6609338Y299674D01*
X-6688661Y312237D01*
X-6688667Y312238D01*
X-6693481Y313000D01*
X-6698360Y313000D01*
X-7051648Y313000D01*
X-7051661Y313000D01*
X-7056518Y312999D01*
X-7061318Y312239D01*
X-7061329Y312238D01*
X-7080229Y309245D01*
X-7137941Y313790D01*
X-7187300Y344039D01*
X-7267926Y424665D01*
X-7280162Y434156D01*
X-7408088Y509811D01*
X-7422295Y515959D01*
X-7564224Y557193D01*
X-7571294Y555787D01*
X-7575000Y542644D01*
X-7575000Y-726000D01*
X-7591613Y-788000D01*
X-7637000Y-833387D01*
X-7699000Y-850000D01*
X-7951000Y-850000D01*
X-8013000Y-833387D01*
X-8058387Y-788000D01*
X-8075000Y-726000D01*
X-8075000Y542644D01*
X-8078707Y555787D01*
X-8085777Y557193D01*
X-8227706Y515959D01*
X-8241913Y509811D01*
X-8369839Y434156D01*
X-8382071Y424668D01*
X-8462701Y344038D01*
X-8512064Y313789D01*
X-8569779Y309246D01*
X-8588675Y312239D01*
X-8588678Y312240D01*
X-8593481Y313000D01*
X-8598352Y313000D01*
X-8951648Y313000D01*
X-8951661Y313000D01*
X-8956518Y312999D01*
X-8961320Y312239D01*
X-8961327Y312238D01*
X-9040669Y299672D01*
X-9040670Y299672D01*
X-9050304Y298146D01*
X-9058990Y293721D01*
X-9058997Y293718D01*
X-9154647Y244981D01*
X-9154651Y244979D01*
X-9163342Y240550D01*
X-9170241Y233652D01*
X-9170244Y233649D01*
X-9246149Y157744D01*
X-9246152Y157741D01*
X-9253050Y150842D01*
X-9257479Y142151D01*
X-9257481Y142147D01*
X-9306215Y46501D01*
X-9310646Y37804D01*
X-9312173Y28170D01*
X-9312174Y28163D01*
X-9324737Y-51160D01*
X-9324738Y-51167D01*
X-9325500Y-55981D01*
X-9325500Y-60859D01*
X-9325500Y-532744D01*
X-9334939Y-580197D01*
X-9361820Y-620425D01*
X-9677873Y-936480D01*
X-9827819Y-1086426D01*
X-9877182Y-1116676D01*
X-9934898Y-1121218D01*
X-9988385Y-1099063D01*
X-10025985Y-1055040D01*
X-10039500Y-998745D01*
X-10039500Y622745D01*
X-10030061Y670198D01*
X-10003181Y710426D01*
X-9300814Y1412793D01*
X-8544516Y2169091D01*
X-8544514Y2169095D01*
X-8521950Y2191658D01*
X-8511895Y2211394D01*
X-8501731Y2227982D01*
X-8488703Y2245911D01*
X-8481858Y2266981D01*
X-8474410Y2284962D01*
X-8464354Y2304696D01*
X-8460888Y2326585D01*
X-8456348Y2345493D01*
X-8449500Y2366567D01*
X-8449500Y2493433D01*
X-8449500Y3504506D01*
X-8435985Y3560801D01*
X-8398385Y3604824D01*
X-8344898Y3626979D01*
X-8287182Y3622437D01*
X-8237819Y3592187D01*
X-7211625Y2565993D01*
X-7198989Y2551199D01*
X-7191704Y2541172D01*
X-7191702Y2541170D01*
X-7185965Y2533274D01*
X-7178070Y2527538D01*
X-7178068Y2527536D01*
X-7164386Y2517596D01*
X-7149590Y2504959D01*
X-7137081Y2492450D01*
X-7124759Y2486172D01*
X-7121322Y2484420D01*
X-7104732Y2474254D01*
X-7084017Y2459204D01*
X-7083329Y2458704D01*
X-7058166Y2450529D01*
X-7040197Y2443085D01*
X-7024043Y2434854D01*
X-7014403Y2433328D01*
X-7014402Y2433327D01*
X-7006144Y2432019D01*
X-6987223Y2427477D01*
X-6962672Y2419500D01*
X-6839000Y2419500D01*
X-6835806Y2419500D01*
X-6834785Y2419832D01*
X-6832649Y2420000D01*
X1204177Y2420000D01*
X1213933Y2420000D01*
X1234995Y2426844D01*
X1253923Y2431389D01*
X1275804Y2434854D01*
X1295545Y2444914D01*
X1313514Y2452357D01*
X1334590Y2459204D01*
X1352516Y2472229D01*
X1369102Y2482393D01*
X1388842Y2492450D01*
X1411405Y2515014D01*
X1411409Y2515016D01*
X2946074Y4049684D01*
X7728019Y4125588D01*
X9139091Y2714516D01*
G37*
%TD.AperFunction*%
%TA.AperFunction,Conductor*%
G36*
X-10047596Y7673019D02*
G01*
X-10010545Y7655741D01*
X-9963139Y7649500D01*
X-9959086Y7649501D01*
X-9959085Y7649500D01*
X-9874500Y7649500D01*
X-9812500Y7632887D01*
X-9767113Y7587500D01*
X-9750500Y7525500D01*
X-9750500Y5036493D01*
X-9759939Y4989040D01*
X-9786819Y4948812D01*
X-10348921Y4386711D01*
X-10389149Y4359831D01*
X-10436602Y4350392D01*
X-11156936Y4350392D01*
X-11283802Y4350392D01*
X-11293078Y4347379D01*
X-11293086Y4347377D01*
X-11304878Y4343545D01*
X-11323787Y4339006D01*
X-11336034Y4337066D01*
X-11336041Y4337064D01*
X-11345673Y4335538D01*
X-11347125Y4334799D01*
X-11377418Y4330000D01*
X-13202019Y4330000D01*
X-13202023Y4330000D01*
X-13202031Y4329999D01*
X-13233933Y4329999D01*
X-13249572Y4324919D01*
X-13255004Y4323153D01*
X-13273915Y4318613D01*
X-13286165Y4316673D01*
X-13286167Y4316673D01*
X-13295804Y4315146D01*
X-13304499Y4310716D01*
X-13304505Y4310714D01*
X-13315551Y4305086D01*
X-13333514Y4297645D01*
X-13345314Y4293811D01*
X-13345319Y4293809D01*
X-13354590Y4290796D01*
X-13362476Y4285067D01*
X-13362487Y4285061D01*
X-13372517Y4277773D01*
X-13389100Y4267610D01*
X-13400146Y4261982D01*
X-13400152Y4261979D01*
X-13408842Y4257550D01*
X-13415741Y4250652D01*
X-13415744Y4250649D01*
X-13431409Y4234983D01*
X-17229574Y436819D01*
X-17269802Y409939D01*
X-17317255Y400500D01*
X-17406796Y400500D01*
X-17468894Y417170D01*
X-17514296Y462696D01*
X-17530796Y524840D01*
X-17527199Y1837761D01*
X-17527165Y1840304D01*
X-17517165Y2270304D01*
X-17533785Y2270222D01*
X-21266223Y2251699D01*
X-21328007Y2267835D01*
X-21373570Y2312576D01*
X-21436309Y2418661D01*
X-21445800Y2430897D01*
X-21549104Y2534201D01*
X-21561340Y2543692D01*
X-21687091Y2618061D01*
X-21701298Y2624209D01*
X-21842998Y2665377D01*
X-21853585Y2667311D01*
X-21866294Y2664783D01*
X-21870000Y2651641D01*
X-21870000Y1764000D01*
X-21886613Y1702000D01*
X-21932000Y1656613D01*
X-21994000Y1640000D01*
X-22910075Y1640000D01*
X-22921055Y1637410D01*
X-22920480Y1626143D01*
X-22884208Y1501294D01*
X-22878062Y1487092D01*
X-22803692Y1361340D01*
X-22794201Y1349104D01*
X-22706763Y1261666D01*
X-22676513Y1212303D01*
X-22671971Y1154588D01*
X-22679737Y1105558D01*
X-22679738Y1105547D01*
X-22680500Y1100735D01*
X-22680500Y1095858D01*
X-22680500Y1095857D01*
X-22680500Y764136D01*
X-22680500Y764124D01*
X-22680499Y759266D01*
X-22679739Y754462D01*
X-22679738Y754460D01*
X-22667544Y677462D01*
X-22667543Y677458D01*
X-22666017Y667825D01*
X-22661589Y659134D01*
X-22661588Y659132D01*
X-22643048Y622745D01*
X-22609859Y557609D01*
X-22602959Y550709D01*
X-22602958Y550708D01*
X-22556819Y504569D01*
X-22529939Y464341D01*
X-22520500Y416888D01*
X-22520500Y-1338978D01*
X-22520500Y-1465844D01*
X-22517485Y-1475125D01*
X-22517484Y-1475128D01*
X-22513654Y-1486917D01*
X-22509113Y-1505829D01*
X-22507853Y-1513787D01*
X-22505646Y-1527715D01*
X-22501217Y-1536407D01*
X-22501216Y-1536410D01*
X-22495588Y-1547455D01*
X-22488143Y-1565430D01*
X-22481296Y-1586501D01*
X-22475564Y-1594391D01*
X-22475560Y-1594398D01*
X-22468274Y-1604426D01*
X-22458111Y-1621009D01*
X-22454041Y-1628997D01*
X-22448050Y-1640753D01*
X-22441151Y-1647652D01*
X-22441150Y-1647653D01*
X-22425487Y-1663316D01*
X-22425484Y-1663320D01*
X-21186314Y-2902490D01*
X-21156053Y-2951887D01*
X-21151533Y-3009639D01*
X-21173740Y-3063143D01*
X-21217827Y-3100720D01*
X-21274173Y-3114171D01*
X-23791867Y-3110556D01*
X-23839224Y-3101083D01*
X-23879370Y-3074237D01*
X-24143169Y-2810438D01*
X-24170080Y-2770134D01*
X-24179488Y-2722593D01*
X-24177125Y-936308D01*
X-24159944Y-873501D01*
X-24113307Y-828061D01*
X-24034209Y-784159D01*
X-23887532Y-658240D01*
X-23769204Y-505373D01*
X-23684070Y-331816D01*
X-23635615Y-144674D01*
X-23625824Y48390D01*
X-23655097Y239474D01*
X-23722236Y420753D01*
X-23777746Y509811D01*
X-23821165Y579471D01*
X-23821166Y579472D01*
X-23824491Y584807D01*
X-23957677Y724919D01*
X-24116342Y835353D01*
X-24115682Y836302D01*
X-24157548Y877152D01*
X-24174643Y940141D01*
X-24173053Y2142591D01*
X-22921055Y2142591D01*
X-22910075Y2140000D01*
X-22386326Y2140000D01*
X-22373451Y2143451D01*
X-22370000Y2156326D01*
X-22370000Y2651637D01*
X-22373707Y2664782D01*
X-22386415Y2667310D01*
X-22397006Y2665376D01*
X-22538703Y2624209D01*
X-22552910Y2618061D01*
X-22678661Y2543692D01*
X-22690897Y2534201D01*
X-22794201Y2430897D01*
X-22803692Y2418661D01*
X-22878062Y2292909D01*
X-22884208Y2278707D01*
X-22920480Y2153858D01*
X-22921055Y2142591D01*
X-24173053Y2142591D01*
X-24170153Y4334796D01*
X-24154948Y4394124D01*
X-24113199Y4438940D01*
X-24055094Y4458306D01*
X-20263582Y4732357D01*
X-20197018Y4718476D01*
X-20131048Y4683852D01*
X-20062365Y4647804D01*
X-19908985Y4610000D01*
X-19758515Y4610000D01*
X-19751015Y4610000D01*
X-19597635Y4647804D01*
X-19457760Y4721217D01*
X-19403895Y4768938D01*
X-19369802Y4790396D01*
X-19330625Y4799791D01*
X-10750000Y5420000D01*
X-10534446Y7538062D01*
X-10514037Y7594615D01*
X-10469419Y7634922D01*
X-10411088Y7649501D01*
X-10236862Y7649501D01*
X-10189455Y7655741D01*
X-10152405Y7673019D01*
X-10100000Y7684636D01*
X-10047596Y7673019D01*
G37*
%TD.AperFunction*%
%TA.AperFunction,Conductor*%
G36*
X2698000Y-1026613D02*
G01*
X2743387Y-1072000D01*
X2760000Y-1134000D01*
X2760000Y-2021637D01*
X2763706Y-2034781D01*
X2776414Y-2037309D01*
X2787005Y-2035375D01*
X2870905Y-2011000D01*
X2927778Y-2008094D01*
X2979952Y-2030915D01*
X3016424Y-2074651D01*
X3029500Y-2130076D01*
X3029500Y-2825500D01*
X3012887Y-2887500D01*
X2967500Y-2932887D01*
X2905500Y-2949500D01*
X-3021247Y-2949500D01*
X-3077542Y-2935985D01*
X-3121565Y-2898385D01*
X-3143720Y-2844898D01*
X-3139178Y-2787182D01*
X-3108929Y-2737820D01*
X-2120771Y-1749661D01*
X-2079882Y-1722511D01*
X-2031660Y-1713353D01*
X1742447Y-1757020D01*
X1796205Y-1769972D01*
X1828907Y-1796751D01*
X1830281Y-1795378D01*
X1939103Y-1904200D01*
X1951339Y-1913691D01*
X2077090Y-1988060D01*
X2091297Y-1994208D01*
X2232997Y-2035376D01*
X2243584Y-2037310D01*
X2256293Y-2034782D01*
X2260000Y-2021641D01*
X2260000Y-1134000D01*
X2276613Y-1072000D01*
X2322000Y-1026613D01*
X2384000Y-1010000D01*
X2636000Y-1010000D01*
X2698000Y-1026613D01*
G37*
%TD.AperFunction*%
%TA.AperFunction,Conductor*%
G36*
X-9301615Y4153303D02*
G01*
X-9264015Y4109280D01*
X-9250500Y4052985D01*
X-9250500Y2647255D01*
X-9259939Y2599802D01*
X-9286819Y2559574D01*
X-10745487Y1100906D01*
X-10761149Y1085245D01*
X-10761154Y1085239D01*
X-10768050Y1078342D01*
X-10772480Y1069651D01*
X-10772485Y1069642D01*
X-10778110Y1058602D01*
X-10788269Y1042024D01*
X-10795558Y1031991D01*
X-10795563Y1031982D01*
X-10801296Y1024090D01*
X-10804310Y1014816D01*
X-10804315Y1014805D01*
X-10808146Y1003013D01*
X-10815588Y985046D01*
X-10821217Y974000D01*
X-10821221Y973991D01*
X-10825646Y965304D01*
X-10829113Y943418D01*
X-10833653Y924508D01*
X-10837485Y912715D01*
X-10837486Y912712D01*
X-10840500Y903433D01*
X-10840500Y871519D01*
X-10840500Y-2515453D01*
X-12221023Y-2547558D01*
X-12302144Y-2475692D01*
X-12302146Y-2475690D01*
X-12307760Y-2470717D01*
X-12314405Y-2467229D01*
X-12314407Y-2467228D01*
X-12440994Y-2400789D01*
X-12440998Y-2400787D01*
X-12447635Y-2397304D01*
X-12454913Y-2395510D01*
X-12454916Y-2395509D01*
X-12593733Y-2361294D01*
X-12593740Y-2361293D01*
X-12601015Y-2359500D01*
X-12758985Y-2359500D01*
X-12766260Y-2361292D01*
X-12766268Y-2361294D01*
X-12905085Y-2395509D01*
X-12905091Y-2395510D01*
X-12912365Y-2397304D01*
X-12919000Y-2400786D01*
X-12919007Y-2400789D01*
X-13045594Y-2467228D01*
X-13045600Y-2467231D01*
X-13052240Y-2470717D01*
X-13057852Y-2475687D01*
X-13057857Y-2475692D01*
X-13162408Y-2568316D01*
X-13164362Y-2569496D01*
X-14454500Y-2599500D01*
X-20305156Y-2599500D01*
X-20352609Y-2590061D01*
X-20392837Y-2563181D01*
X-20961198Y-1994820D01*
X-20991486Y-1945340D01*
X-20995952Y-1887498D01*
X-20973618Y-1833955D01*
X-20929373Y-1796432D01*
X-20872903Y-1783141D01*
X-17537165Y-1799696D01*
X-17533671Y-524159D01*
X-17516945Y-462304D01*
X-17471573Y-417056D01*
X-17409671Y-400500D01*
X-17046323Y-400500D01*
X-17036567Y-400500D01*
X-17015505Y-393656D01*
X-16996577Y-389111D01*
X-16974696Y-385646D01*
X-16954955Y-375586D01*
X-16936986Y-368143D01*
X-16915910Y-361296D01*
X-16897984Y-348271D01*
X-16881398Y-338107D01*
X-16861658Y-328050D01*
X-16839095Y-305486D01*
X-16839091Y-305484D01*
X-16581997Y-48390D01*
X-15374176Y-48390D01*
X-15373225Y-54602D01*
X-15373224Y-54608D01*
X-15345856Y-233259D01*
X-15345854Y-233267D01*
X-15344903Y-239474D01*
X-15342722Y-245364D01*
X-15342720Y-245370D01*
X-15287800Y-393656D01*
X-15277764Y-420753D01*
X-15274438Y-426089D01*
X-15274436Y-426093D01*
X-15183543Y-571919D01*
X-15175509Y-584807D01*
X-15141652Y-620425D01*
X-15070585Y-695188D01*
X-15042323Y-724919D01*
X-14883658Y-835353D01*
X-14706012Y-911587D01*
X-14516656Y-950500D01*
X-14374936Y-950500D01*
X-14371794Y-950500D01*
X-14227679Y-935845D01*
X-14043232Y-877974D01*
X-13874209Y-784159D01*
X-13727532Y-658240D01*
X-13609204Y-505373D01*
X-13524070Y-331816D01*
X-13475615Y-144674D01*
X-13465824Y48390D01*
X-13495097Y239474D01*
X-13562236Y420753D01*
X-13617746Y509811D01*
X-13661165Y579471D01*
X-13661166Y579472D01*
X-13664491Y584807D01*
X-13797677Y724919D01*
X-13956342Y835353D01*
X-13962116Y837831D01*
X-13962118Y837832D01*
X-14068788Y883608D01*
X-14133988Y911587D01*
X-14140142Y912852D01*
X-14140143Y912852D01*
X-14317186Y949235D01*
X-14317191Y949236D01*
X-14323344Y950500D01*
X-14468206Y950500D01*
X-14471317Y950184D01*
X-14471330Y950183D01*
X-14606069Y936481D01*
X-14606072Y936481D01*
X-14612321Y935845D01*
X-14618319Y933964D01*
X-14618320Y933963D01*
X-14790765Y879858D01*
X-14790770Y879857D01*
X-14796768Y877974D01*
X-14802264Y874924D01*
X-14802270Y874921D01*
X-14960292Y787212D01*
X-14960298Y787208D01*
X-14965791Y784159D01*
X-14970556Y780070D01*
X-14970561Y780065D01*
X-15107700Y662334D01*
X-15107705Y662330D01*
X-15112468Y658240D01*
X-15116311Y653276D01*
X-15116318Y653268D01*
X-15222602Y515959D01*
X-15230796Y505373D01*
X-15233564Y499732D01*
X-15233568Y499724D01*
X-15313160Y337464D01*
X-15315930Y331816D01*
X-15317507Y325727D01*
X-15317508Y325723D01*
X-15345913Y216017D01*
X-15364385Y144674D01*
X-15364704Y138394D01*
X-15364704Y138390D01*
X-15373858Y-42108D01*
X-15373858Y-42113D01*
X-15374176Y-48390D01*
X-16581997Y-48390D01*
X-13040927Y3492682D01*
X-13000699Y3519561D01*
X-12953246Y3529000D01*
X-11187084Y3529000D01*
X-11177328Y3529000D01*
X-11156266Y3535844D01*
X-11137338Y3540389D01*
X-11115457Y3543854D01*
X-11114005Y3544594D01*
X-11083712Y3549392D01*
X-10165670Y3549392D01*
X-10155914Y3549392D01*
X-10134852Y3556236D01*
X-10115924Y3560781D01*
X-10094043Y3564246D01*
X-10074302Y3574306D01*
X-10056333Y3581749D01*
X-10035257Y3588596D01*
X-10017331Y3601621D01*
X-10000745Y3611785D01*
X-9981005Y3621842D01*
X-9958442Y3644406D01*
X-9958438Y3644408D01*
X-9462181Y4140667D01*
X-9412818Y4170916D01*
X-9355102Y4175458D01*
X-9301615Y4153303D01*
G37*
%TD.AperFunction*%
%TA.AperFunction,Conductor*%
G36*
X-7047596Y7673019D02*
G01*
X-7016397Y7658470D01*
X-7010545Y7655741D01*
X-7010734Y7655338D01*
X-6972223Y7634414D01*
X-6940550Y7592305D01*
X-6929220Y7540847D01*
X-6924120Y5587636D01*
X-6942580Y5522217D01*
X-6995568Y5436308D01*
X-7001630Y5423309D01*
X-7052376Y5270167D01*
X-7055195Y5257000D01*
X-7064681Y5164151D01*
X-7065000Y5157873D01*
X-7065000Y5127367D01*
X-7061550Y5114492D01*
X-7048674Y5111041D01*
X-6922875Y5111041D01*
X-6921569Y4611041D01*
X-7048673Y4611041D01*
X-7061549Y4607591D01*
X-7064999Y4594715D01*
X-7064999Y4564212D01*
X-7064679Y4557930D01*
X-7055195Y4465082D01*
X-7052377Y4451919D01*
X-7001630Y4298774D01*
X-6995568Y4285775D01*
X-6938772Y4193693D01*
X-6920311Y4128920D01*
X-6920112Y4052985D01*
X-6920000Y4010000D01*
X-6808567Y4011530D01*
X-6741769Y3993081D01*
X-6640271Y3930476D01*
X-6627267Y3924412D01*
X-6474126Y3873666D01*
X-6460959Y3870847D01*
X-6368110Y3861361D01*
X-6361832Y3861041D01*
X-6106326Y3861041D01*
X-6093451Y3864492D01*
X-6090000Y3877367D01*
X-6090000Y4021396D01*
X-5590000Y4028261D01*
X-5590000Y3877368D01*
X-5586550Y3864493D01*
X-5573674Y3861042D01*
X-5318171Y3861042D01*
X-5311889Y3861363D01*
X-5219041Y3870847D01*
X-5205878Y3873665D01*
X-5052733Y3924412D01*
X-5039734Y3930474D01*
X-4896656Y4018724D01*
X-4896063Y4017763D01*
X-4871192Y4031527D01*
X-4831366Y4038677D01*
X-928416Y4092265D01*
X-940000Y3988000D01*
X1795017Y4031413D01*
X1020926Y3257319D01*
X980698Y3230439D01*
X933245Y3221000D01*
X-6682484Y3221000D01*
X-6729937Y3230439D01*
X-6770165Y3257319D01*
X-7913181Y4400335D01*
X-7940061Y4440563D01*
X-7949500Y4488016D01*
X-7949500Y7525501D01*
X-7932887Y7587501D01*
X-7887500Y7632888D01*
X-7825502Y7649501D01*
X-7736862Y7649501D01*
X-7689455Y7655741D01*
X-7652405Y7673019D01*
X-7600000Y7684636D01*
X-7547596Y7673019D01*
X-7510545Y7655741D01*
X-7463139Y7649500D01*
X-7236862Y7649501D01*
X-7189455Y7655741D01*
X-7152405Y7673019D01*
X-7100000Y7684636D01*
X-7047596Y7673019D01*
G37*
%TD.AperFunction*%
%TA.AperFunction,Conductor*%
G36*
X13645500Y3544500D02*
G01*
X13628887Y3482500D01*
X13583500Y3437113D01*
X13521500Y3420500D01*
X9617255Y3420500D01*
X9569802Y3429939D01*
X9529574Y3456819D01*
X8843105Y4143288D01*
X13645500Y4219516D01*
X13645500Y3544500D01*
G37*
%TD.AperFunction*%
%TD*%
%TA.AperFunction,Conductor*%
%TO.N,GND*%
G36*
X-4510086Y-4285337D02*
G01*
X-4472566Y-4328338D01*
X-4470220Y-4334523D01*
X-4465959Y-4340696D01*
X-4392701Y-4446830D01*
X-4380483Y-4464530D01*
X-4374874Y-4469499D01*
X-4374873Y-4469500D01*
X-4283773Y-4550207D01*
X-4252925Y-4592132D01*
X-4242000Y-4643023D01*
X-4242000Y-11629645D01*
X-4259660Y-11693425D01*
X-4307610Y-11739037D01*
X-4372192Y-11753490D01*
X-5850183Y-11679590D01*
X-5904655Y-11663892D01*
X-5946448Y-11625591D01*
X-5966828Y-11572692D01*
X-5961533Y-11516250D01*
X-5931674Y-11468066D01*
X-5194516Y-10730909D01*
X-5194514Y-10730905D01*
X-5171950Y-10708342D01*
X-5161895Y-10688606D01*
X-5151731Y-10672018D01*
X-5138703Y-10654089D01*
X-5131858Y-10633019D01*
X-5124410Y-10615038D01*
X-5114354Y-10595304D01*
X-5110888Y-10573415D01*
X-5106348Y-10554507D01*
X-5099500Y-10533433D01*
X-5099500Y-10406567D01*
X-5099500Y-4779755D01*
X-5090061Y-4732302D01*
X-5063181Y-4692074D01*
X-4982171Y-4611063D01*
X-4669739Y-4298630D01*
X-4620734Y-4268497D01*
X-4563402Y-4263724D01*
X-4510086Y-4285337D01*
G37*
%TD.AperFunction*%
%TA.AperFunction,Conductor*%
G36*
X-10840500Y-4256567D02*
G01*
X-10840500Y-4383433D01*
X-10837485Y-4392714D01*
X-10837484Y-4392717D01*
X-10833654Y-4404506D01*
X-10829113Y-4423418D01*
X-10825646Y-4445304D01*
X-10821217Y-4453996D01*
X-10821216Y-4453999D01*
X-10815588Y-4465044D01*
X-10808143Y-4483019D01*
X-10801296Y-4504090D01*
X-10795564Y-4511980D01*
X-10795560Y-4511987D01*
X-10788274Y-4522015D01*
X-10778111Y-4538598D01*
X-10768050Y-4558342D01*
X-10761150Y-4565242D01*
X-10746819Y-4579573D01*
X-10719939Y-4619801D01*
X-10710500Y-4667254D01*
X-10710500Y-5424674D01*
X-10709312Y-5430649D01*
X-10709311Y-5430653D01*
X-10698350Y-5485759D01*
X-10698349Y-5485762D01*
X-10695966Y-5497740D01*
X-10640601Y-5580601D01*
X-10557740Y-5635966D01*
X-10484674Y-5650500D01*
X-9441421Y-5650500D01*
X-9435326Y-5650500D01*
X-9362260Y-5635966D01*
X-9279399Y-5580601D01*
X-9269775Y-5566196D01*
X-9230425Y-5528729D01*
X-9178829Y-5511682D01*
X-9124899Y-5518332D01*
X-9078990Y-5547403D01*
X-7896819Y-6729573D01*
X-7869939Y-6769801D01*
X-7860500Y-6817254D01*
X-7860500Y-7070935D01*
X-7874402Y-7127983D01*
X-7912992Y-7172239D01*
X-7967615Y-7193780D01*
X-8026025Y-7187775D01*
X-8075122Y-7155573D01*
X-8109320Y-7118956D01*
X-8116566Y-7114550D01*
X-8116569Y-7114547D01*
X-8231375Y-7044732D01*
X-8231379Y-7044730D01*
X-8238618Y-7040328D01*
X-8246780Y-7038041D01*
X-8376171Y-7001787D01*
X-8376175Y-7001786D01*
X-8384335Y-6999500D01*
X-8497658Y-6999500D01*
X-8501842Y-7000075D01*
X-8501856Y-7000076D01*
X-8601515Y-7013774D01*
X-8601521Y-7013775D01*
X-8609920Y-7014930D01*
X-8617701Y-7018309D01*
X-8617702Y-7018310D01*
X-8740938Y-7071839D01*
X-8740943Y-7071841D01*
X-8748720Y-7075220D01*
X-8755298Y-7080571D01*
X-8755302Y-7080574D01*
X-8859530Y-7165370D01*
X-8859532Y-7165371D01*
X-8866108Y-7170722D01*
X-8870997Y-7177647D01*
X-8870998Y-7177649D01*
X-8903259Y-7223353D01*
X-8953377Y-7294353D01*
X-8956215Y-7302337D01*
X-8956218Y-7302344D01*
X-9001214Y-7428951D01*
X-9001216Y-7428955D01*
X-9004054Y-7436944D01*
X-9004633Y-7445403D01*
X-9004633Y-7445405D01*
X-9013803Y-7579457D01*
X-9013803Y-7579463D01*
X-9014381Y-7587921D01*
X-9012656Y-7596226D01*
X-9012655Y-7596228D01*
X-8985319Y-7727777D01*
X-8985318Y-7727780D01*
X-8983592Y-7736085D01*
X-8979691Y-7743614D01*
X-8979690Y-7743616D01*
X-8958356Y-7784789D01*
X-8913971Y-7870447D01*
X-8908184Y-7876643D01*
X-8908182Y-7876646D01*
X-8816471Y-7974844D01*
X-8816469Y-7974845D01*
X-8810680Y-7981044D01*
X-8803434Y-7985450D01*
X-8803432Y-7985452D01*
X-8688626Y-8055267D01*
X-8681382Y-8059672D01*
X-8535665Y-8100500D01*
X-8426579Y-8100500D01*
X-8422342Y-8100500D01*
X-8310080Y-8085070D01*
X-8171280Y-8024780D01*
X-8094097Y-7961987D01*
X-8062755Y-7936489D01*
X-7999285Y-7909562D01*
X-7931244Y-7920696D01*
X-7879667Y-7966449D01*
X-7860500Y-8032677D01*
X-7860500Y-9325500D01*
X-7877113Y-9387500D01*
X-7922500Y-9432887D01*
X-7972769Y-9446356D01*
X-7972518Y-9448903D01*
X-7978580Y-9449500D01*
X-7984674Y-9449500D01*
X-7990649Y-9450688D01*
X-7990654Y-9450689D01*
X-8045760Y-9461650D01*
X-8045765Y-9461651D01*
X-8057740Y-9464034D01*
X-8067895Y-9470819D01*
X-8067897Y-9470820D01*
X-8130449Y-9512615D01*
X-8130452Y-9512617D01*
X-8140601Y-9519399D01*
X-8147383Y-9529548D01*
X-8147385Y-9529551D01*
X-8189180Y-9592103D01*
X-8189181Y-9592105D01*
X-8195966Y-9602260D01*
X-8198349Y-9614235D01*
X-8198350Y-9614240D01*
X-8209311Y-9669346D01*
X-8209312Y-9669351D01*
X-8210500Y-9675326D01*
X-8210500Y-9681421D01*
X-8210500Y-10725500D01*
X-8227113Y-10787500D01*
X-8272500Y-10832887D01*
X-8334500Y-10849500D01*
X-8792745Y-10849500D01*
X-8840198Y-10840061D01*
X-8880426Y-10813181D01*
X-9173181Y-10520426D01*
X-9200061Y-10480198D01*
X-9209500Y-10432745D01*
X-9209500Y-9681421D01*
X-9209500Y-9675326D01*
X-9224034Y-9602260D01*
X-9279399Y-9519399D01*
X-9362260Y-9464034D01*
X-9374238Y-9461651D01*
X-9374241Y-9461650D01*
X-9429347Y-9450689D01*
X-9429351Y-9450688D01*
X-9435326Y-9449500D01*
X-9441421Y-9449500D01*
X-10074116Y-9449500D01*
X-10121569Y-9440061D01*
X-10161797Y-9413181D01*
X-11306623Y-8268355D01*
X-11337448Y-8217175D01*
X-11340761Y-8157521D01*
X-11315794Y-8103243D01*
X-11268349Y-8066943D01*
X-11171280Y-8024780D01*
X-11053892Y-7929278D01*
X-10966623Y-7805647D01*
X-10915946Y-7663056D01*
X-10905619Y-7512079D01*
X-10936408Y-7363915D01*
X-11006029Y-7229553D01*
X-11011819Y-7223353D01*
X-11103530Y-7125155D01*
X-11103533Y-7125153D01*
X-11109320Y-7118956D01*
X-11116566Y-7114550D01*
X-11116569Y-7114547D01*
X-11231375Y-7044732D01*
X-11231379Y-7044730D01*
X-11238618Y-7040328D01*
X-11246780Y-7038041D01*
X-11376171Y-7001787D01*
X-11376175Y-7001786D01*
X-11384335Y-6999500D01*
X-11497658Y-6999500D01*
X-11501842Y-7000075D01*
X-11501856Y-7000076D01*
X-11601515Y-7013774D01*
X-11601521Y-7013775D01*
X-11609920Y-7014930D01*
X-11617701Y-7018309D01*
X-11617702Y-7018310D01*
X-11740938Y-7071839D01*
X-11740943Y-7071841D01*
X-11748720Y-7075220D01*
X-11755298Y-7080571D01*
X-11755302Y-7080574D01*
X-11857245Y-7163511D01*
X-11920715Y-7190438D01*
X-11988756Y-7179304D01*
X-12040333Y-7133551D01*
X-12059500Y-7067323D01*
X-12059500Y-5774500D01*
X-12042887Y-5712500D01*
X-11997500Y-5667113D01*
X-11947232Y-5653643D01*
X-11947482Y-5651097D01*
X-11941423Y-5650500D01*
X-11935326Y-5650500D01*
X-11862260Y-5635966D01*
X-11779399Y-5580601D01*
X-11724034Y-5497740D01*
X-11709500Y-5424674D01*
X-11709500Y-4175326D01*
X-11724034Y-4102260D01*
X-11779399Y-4019399D01*
X-11862260Y-3964034D01*
X-11874238Y-3961651D01*
X-11874241Y-3961650D01*
X-11929347Y-3950689D01*
X-11929351Y-3950688D01*
X-11935326Y-3949500D01*
X-12984674Y-3949500D01*
X-12990649Y-3950688D01*
X-12990654Y-3950689D01*
X-13045760Y-3961650D01*
X-13045765Y-3961651D01*
X-13057740Y-3964034D01*
X-13067895Y-3970819D01*
X-13067897Y-3970820D01*
X-13130449Y-4012615D01*
X-13130452Y-4012617D01*
X-13140601Y-4019399D01*
X-13147383Y-4029548D01*
X-13147385Y-4029551D01*
X-13189180Y-4092103D01*
X-13189181Y-4092105D01*
X-13195966Y-4102260D01*
X-13198349Y-4114235D01*
X-13198350Y-4114240D01*
X-13209311Y-4169346D01*
X-13209312Y-4169351D01*
X-13210500Y-4175326D01*
X-13210500Y-5424674D01*
X-13209312Y-5430649D01*
X-13209311Y-5430653D01*
X-13198350Y-5485759D01*
X-13198349Y-5485762D01*
X-13195966Y-5497740D01*
X-13140601Y-5580601D01*
X-13057740Y-5635966D01*
X-12984674Y-5650500D01*
X-12978577Y-5650500D01*
X-12972518Y-5651097D01*
X-12972769Y-5653643D01*
X-12922500Y-5667113D01*
X-12877113Y-5712500D01*
X-12860500Y-5774500D01*
X-12860500Y-7617938D01*
X-12860500Y-7744804D01*
X-12857485Y-7754085D01*
X-12857484Y-7754088D01*
X-12853654Y-7765877D01*
X-12849113Y-7784789D01*
X-12845646Y-7806675D01*
X-12841217Y-7815367D01*
X-12841216Y-7815370D01*
X-12835588Y-7826415D01*
X-12828143Y-7844390D01*
X-12821296Y-7865461D01*
X-12815564Y-7873351D01*
X-12815560Y-7873358D01*
X-12808274Y-7883386D01*
X-12798111Y-7899969D01*
X-12793223Y-7909562D01*
X-12788050Y-7919713D01*
X-12781150Y-7926613D01*
X-12765487Y-7942276D01*
X-12765484Y-7942280D01*
X-10746819Y-9960945D01*
X-10719939Y-10001173D01*
X-10710500Y-10048626D01*
X-10710500Y-10924674D01*
X-10709312Y-10930649D01*
X-10709311Y-10930653D01*
X-10698350Y-10985759D01*
X-10698349Y-10985762D01*
X-10695966Y-10997740D01*
X-10640601Y-11080601D01*
X-10557740Y-11135966D01*
X-10484674Y-11150500D01*
X-9727255Y-11150500D01*
X-9679802Y-11159939D01*
X-9639574Y-11186819D01*
X-9547909Y-11278484D01*
X-9517282Y-11329027D01*
X-9513529Y-11388006D01*
X-9537501Y-11442024D01*
X-9583755Y-11478811D01*
X-9641782Y-11490010D01*
X-11840940Y-11380052D01*
X-11903711Y-11359261D01*
X-11946871Y-11309164D01*
X-11958146Y-11244008D01*
X-11934331Y-11182321D01*
X-11882198Y-11141645D01*
X-11874242Y-11138349D01*
X-11862260Y-11135966D01*
X-11779399Y-11080601D01*
X-11724034Y-10997740D01*
X-11709500Y-10924674D01*
X-11709500Y-9675326D01*
X-11724034Y-9602260D01*
X-11779399Y-9519399D01*
X-11862260Y-9464034D01*
X-11874238Y-9461651D01*
X-11874241Y-9461650D01*
X-11929347Y-9450689D01*
X-11929351Y-9450688D01*
X-11935326Y-9449500D01*
X-12984674Y-9449500D01*
X-12990649Y-9450688D01*
X-12990654Y-9450689D01*
X-13045760Y-9461650D01*
X-13045765Y-9461651D01*
X-13057740Y-9464034D01*
X-13067895Y-9470819D01*
X-13067897Y-9470820D01*
X-13130449Y-9512615D01*
X-13130452Y-9512617D01*
X-13140601Y-9519399D01*
X-13147383Y-9529548D01*
X-13147385Y-9529551D01*
X-13189180Y-9592103D01*
X-13189181Y-9592105D01*
X-13195966Y-9602260D01*
X-13198349Y-9614235D01*
X-13198350Y-9614240D01*
X-13209311Y-9669346D01*
X-13209312Y-9669351D01*
X-13210500Y-9675326D01*
X-13210500Y-10924674D01*
X-13209312Y-10930649D01*
X-13209311Y-10930653D01*
X-13198350Y-10985759D01*
X-13198349Y-10985762D01*
X-13195966Y-10997740D01*
X-13140601Y-11080601D01*
X-13130449Y-11087384D01*
X-13121810Y-11096023D01*
X-13123254Y-11097466D01*
X-13092357Y-11132585D01*
X-13079616Y-11195116D01*
X-13099659Y-11255703D01*
X-13147180Y-11298299D01*
X-13209590Y-11311620D01*
X-14294163Y-11257391D01*
X-14350397Y-11240686D01*
X-14392659Y-11200002D01*
X-14411490Y-11144448D01*
X-15082877Y-3535397D01*
X-15070195Y-3468904D01*
X-15024480Y-3418978D01*
X-14959357Y-3400500D01*
X-13264090Y-3400500D01*
X-13213197Y-3411425D01*
X-13172831Y-3441128D01*
X-13170483Y-3444530D01*
X-13052240Y-3549283D01*
X-12912365Y-3622696D01*
X-12758985Y-3660500D01*
X-12608515Y-3660500D01*
X-12601015Y-3660500D01*
X-12447635Y-3622696D01*
X-12307760Y-3549283D01*
X-12189517Y-3444530D01*
X-12099780Y-3314523D01*
X-12043763Y-3166818D01*
X-12024722Y-3010000D01*
X-12043763Y-2853182D01*
X-12099780Y-2705477D01*
X-12189517Y-2575470D01*
X-12221024Y-2547558D01*
X-10840500Y-2515453D01*
X-10840500Y-4256567D01*
G37*
%TD.AperFunction*%
%TA.AperFunction,Conductor*%
G36*
X-6122197Y-3360730D02*
G01*
X-6027857Y-3444307D01*
X-6022240Y-3449283D01*
X-5882365Y-3522696D01*
X-5728985Y-3560500D01*
X-5578515Y-3560500D01*
X-5571015Y-3560500D01*
X-5417635Y-3522696D01*
X-5316062Y-3469385D01*
X-5247964Y-3455625D01*
X-5183151Y-3480654D01*
X-5141973Y-3536615D01*
X-5137359Y-3605939D01*
X-5170757Y-3666863D01*
X-5805484Y-4301591D01*
X-5805487Y-4301594D01*
X-5821149Y-4317255D01*
X-5821154Y-4317261D01*
X-5828050Y-4324158D01*
X-5832480Y-4332849D01*
X-5832485Y-4332858D01*
X-5838110Y-4343898D01*
X-5848269Y-4360476D01*
X-5855558Y-4370509D01*
X-5855563Y-4370518D01*
X-5861296Y-4378410D01*
X-5864310Y-4387684D01*
X-5864315Y-4387695D01*
X-5868146Y-4399487D01*
X-5875588Y-4417454D01*
X-5881217Y-4428500D01*
X-5881221Y-4428509D01*
X-5885646Y-4437196D01*
X-5887173Y-4446830D01*
X-5887172Y-4446830D01*
X-5889113Y-4459082D01*
X-5893653Y-4477992D01*
X-5897485Y-4489785D01*
X-5897486Y-4489788D01*
X-5900500Y-4499067D01*
X-5900500Y-4508827D01*
X-5900500Y-10252745D01*
X-5909939Y-10300198D01*
X-5936819Y-10340426D01*
X-6409574Y-10813181D01*
X-6449802Y-10840061D01*
X-6497255Y-10849500D01*
X-6585500Y-10849500D01*
X-6647500Y-10832887D01*
X-6692887Y-10787500D01*
X-6709500Y-10725500D01*
X-6709500Y-9681421D01*
X-6709500Y-9675326D01*
X-6724034Y-9602260D01*
X-6779399Y-9519399D01*
X-6862260Y-9464034D01*
X-6874238Y-9461651D01*
X-6874241Y-9461650D01*
X-6929347Y-9450689D01*
X-6929351Y-9450688D01*
X-6935326Y-9449500D01*
X-6941420Y-9449500D01*
X-6947482Y-9448903D01*
X-6947232Y-9446356D01*
X-6997500Y-9432887D01*
X-7042887Y-9387500D01*
X-7059500Y-9325500D01*
X-7059500Y-6546324D01*
X-7059500Y-6536567D01*
X-7066349Y-6515489D01*
X-7070888Y-6496581D01*
X-7074354Y-6474696D01*
X-7084414Y-6454954D01*
X-7091858Y-6436981D01*
X-7098704Y-6415910D01*
X-7111725Y-6397989D01*
X-7121895Y-6381394D01*
X-7131950Y-6361658D01*
X-7221658Y-6271950D01*
X-7631427Y-5862181D01*
X-7661677Y-5812818D01*
X-7666219Y-5755102D01*
X-7644064Y-5701615D01*
X-7600041Y-5664015D01*
X-7543746Y-5650500D01*
X-6941421Y-5650500D01*
X-6935326Y-5650500D01*
X-6862260Y-5635966D01*
X-6779399Y-5580601D01*
X-6724034Y-5497740D01*
X-6709500Y-5424674D01*
X-6709500Y-4175326D01*
X-6724034Y-4102260D01*
X-6779399Y-4019399D01*
X-6789552Y-4012615D01*
X-6798190Y-4003977D01*
X-6796881Y-4002667D01*
X-6827425Y-3968294D01*
X-6840844Y-3907131D01*
X-6822668Y-3847209D01*
X-6777529Y-3803810D01*
X-6716941Y-3787999D01*
X-6693482Y-3787999D01*
X-6599696Y-3773146D01*
X-6486658Y-3715550D01*
X-6396950Y-3625842D01*
X-6339354Y-3512804D01*
X-6326896Y-3434143D01*
X-6299921Y-3374449D01*
X-6246288Y-3336826D01*
X-6180969Y-3331785D01*
X-6122197Y-3360730D01*
G37*
%TD.AperFunction*%
%TA.AperFunction,Conductor*%
G36*
X-4242000Y-2738107D02*
G01*
X-4887876Y-3383982D01*
X-4939862Y-3415052D01*
X-5000363Y-3417795D01*
X-5054946Y-3391555D01*
X-5090592Y-3342593D01*
X-5098797Y-3282589D01*
X-5077605Y-3225858D01*
X-5069780Y-3214523D01*
X-5013763Y-3066818D01*
X-4994722Y-2910000D01*
X-5013763Y-2753182D01*
X-5069780Y-2605477D01*
X-5159517Y-2475470D01*
X-5260855Y-2385694D01*
X-4242000Y-2362000D01*
X-4242000Y-2738107D01*
G37*
%TD.AperFunction*%
%TA.AperFunction,Conductor*%
G36*
X-13200663Y-2591442D02*
G01*
X-13244635Y-2599500D01*
X-14454500Y-2599500D01*
X-13164364Y-2569496D01*
X-13200663Y-2591442D01*
G37*
%TD.AperFunction*%
%TD*%
%TA.AperFunction,Conductor*%
%TO.N,GND*%
G36*
X-20777455Y19488915D02*
G01*
X-20721233Y19475313D01*
X-20677296Y19437685D01*
X-20655210Y19384220D01*
X-20659781Y19326554D01*
X-20690015Y19277236D01*
X-20702957Y19264295D01*
X-20702963Y19264288D01*
X-20709859Y19257391D01*
X-20714288Y19248700D01*
X-20714290Y19248696D01*
X-20761586Y19155872D01*
X-20766017Y19147175D01*
X-20767544Y19137540D01*
X-20767545Y19137534D01*
X-20779737Y19060556D01*
X-20779738Y19060549D01*
X-20780500Y19055735D01*
X-20780500Y19050857D01*
X-20780500Y18942257D01*
X-20789939Y18894805D01*
X-20816818Y18854576D01*
X-20915484Y18755909D01*
X-20915487Y18755906D01*
X-20931149Y18740245D01*
X-20931154Y18740239D01*
X-20938050Y18733342D01*
X-20942480Y18724651D01*
X-20942485Y18724642D01*
X-20948110Y18713602D01*
X-20958269Y18697024D01*
X-20965558Y18686991D01*
X-20965563Y18686982D01*
X-20971296Y18679090D01*
X-20974310Y18669816D01*
X-20974315Y18669805D01*
X-20978146Y18658013D01*
X-20985588Y18640046D01*
X-20991217Y18629000D01*
X-20991221Y18628991D01*
X-20995646Y18620304D01*
X-20997173Y18610670D01*
X-20997172Y18610670D01*
X-20999113Y18598418D01*
X-21003653Y18579508D01*
X-21007485Y18567715D01*
X-21007486Y18567712D01*
X-21010500Y18558433D01*
X-21010500Y18548673D01*
X-21010500Y18279500D01*
X-21027113Y18217500D01*
X-21072500Y18172113D01*
X-21134500Y18155500D01*
X-21234674Y18155500D01*
X-21240649Y18154312D01*
X-21240654Y18154311D01*
X-21295760Y18143350D01*
X-21295765Y18143349D01*
X-21307740Y18140966D01*
X-21317895Y18134181D01*
X-21317897Y18134180D01*
X-21380449Y18092385D01*
X-21380452Y18092383D01*
X-21390601Y18085601D01*
X-21397383Y18075452D01*
X-21397385Y18075449D01*
X-21439180Y18012897D01*
X-21439181Y18012895D01*
X-21445966Y18002740D01*
X-21448349Y17990765D01*
X-21448350Y17990760D01*
X-21459311Y17935654D01*
X-21459312Y17935649D01*
X-21460500Y17929674D01*
X-21460500Y16480326D01*
X-21459312Y16474351D01*
X-21459311Y16474347D01*
X-21448350Y16419241D01*
X-21448349Y16419238D01*
X-21445966Y16407260D01*
X-21439180Y16397104D01*
X-21395479Y16331700D01*
X-21374661Y16267236D01*
X-21390828Y16201450D01*
X-21439154Y16153978D01*
X-21459190Y16143038D01*
X-21560093Y16067502D01*
X-21572502Y16055093D01*
X-21648038Y15954190D01*
X-21656453Y15938778D01*
X-21700889Y15819642D01*
X-21704427Y15804668D01*
X-21709647Y15756115D01*
X-21710000Y15749518D01*
X-21710000Y15271326D01*
X-21706550Y15258451D01*
X-21693674Y15255000D01*
X-20484000Y15255000D01*
X-20422000Y15238387D01*
X-20376613Y15193000D01*
X-20360000Y15131000D01*
X-20360000Y14879000D01*
X-20376613Y14817000D01*
X-20422000Y14771613D01*
X-20484000Y14755000D01*
X-21693674Y14755000D01*
X-21706550Y14751550D01*
X-21710000Y14738674D01*
X-21710000Y14260482D01*
X-21709647Y14253886D01*
X-21704427Y14205333D01*
X-21700889Y14190359D01*
X-21656453Y14071223D01*
X-21648038Y14055811D01*
X-21572502Y13954908D01*
X-21560093Y13942499D01*
X-21459190Y13866963D01*
X-21443778Y13858548D01*
X-21324642Y13814112D01*
X-21309668Y13810574D01*
X-21261115Y13805354D01*
X-21254518Y13805000D01*
X-21108310Y13805000D01*
X-21052885Y13791924D01*
X-21009149Y13755452D01*
X-20986328Y13703278D01*
X-20989234Y13646405D01*
X-21025377Y13522003D01*
X-21027311Y13511416D01*
X-21024783Y13498707D01*
X-21011641Y13495000D01*
X-20124000Y13495000D01*
X-20062000Y13478387D01*
X-20016613Y13433000D01*
X-20000000Y13371000D01*
X-20000000Y12454925D01*
X-19997410Y12443946D01*
X-19986143Y12444521D01*
X-19861294Y12480793D01*
X-19847092Y12486939D01*
X-19721340Y12561309D01*
X-19709108Y12570797D01*
X-19621667Y12658238D01*
X-19572303Y12688488D01*
X-19514589Y12693030D01*
X-19460735Y12684500D01*
X-19119266Y12684501D01*
X-19027825Y12698983D01*
X-18917609Y12755141D01*
X-18830141Y12842609D01*
X-18773983Y12952825D01*
X-18759500Y13044265D01*
X-18759501Y13157747D01*
X-18750062Y13205199D01*
X-18723185Y13245425D01*
X-18604517Y13364091D01*
X-18604514Y13364096D01*
X-18581950Y13386658D01*
X-18571896Y13406394D01*
X-18561725Y13422991D01*
X-18548704Y13440910D01*
X-18541857Y13461986D01*
X-18534414Y13479955D01*
X-18524354Y13499696D01*
X-18520889Y13521577D01*
X-18516344Y13540504D01*
X-18512515Y13552288D01*
X-18512515Y13552289D01*
X-18509500Y13561567D01*
X-18509500Y13688433D01*
X-18509500Y13930500D01*
X-18492887Y13992500D01*
X-18447500Y14037887D01*
X-18385500Y14054500D01*
X-18291421Y14054500D01*
X-18285326Y14054500D01*
X-18245697Y14062383D01*
X-18191634Y14061114D01*
X-18143251Y14036953D01*
X-18109753Y13994496D01*
X-18097511Y13941819D01*
X-18081038Y12002140D01*
X-18096818Y11940545D01*
X-18141053Y11894868D01*
X-18202110Y11877121D01*
X-22193995Y11782972D01*
X-22256961Y11798444D01*
X-22303510Y11843579D01*
X-22320916Y11906036D01*
X-22328704Y12978586D01*
X-21027310Y12978586D01*
X-21025376Y12967995D01*
X-20984209Y12826298D01*
X-20978061Y12812091D01*
X-20903692Y12686340D01*
X-20894201Y12674104D01*
X-20790897Y12570800D01*
X-20778661Y12561309D01*
X-20652909Y12486939D01*
X-20638707Y12480793D01*
X-20513858Y12444521D01*
X-20502591Y12443946D01*
X-20500000Y12454925D01*
X-20500000Y12978674D01*
X-20503451Y12991550D01*
X-20516326Y12995000D01*
X-21011637Y12995000D01*
X-21024782Y12991294D01*
X-21027310Y12978586D01*
X-22328704Y12978586D01*
X-22375092Y19366862D01*
X-22358741Y19429308D01*
X-22313217Y19475076D01*
X-22250859Y19491759D01*
X-20777455Y19488915D01*
G37*
%TD.AperFunction*%
%TA.AperFunction,Conductor*%
G36*
X-17318687Y19482237D02*
G01*
X-17257100Y19465724D01*
X-17211861Y19420791D01*
X-17194931Y19359318D01*
X-17189358Y18720146D01*
X-17205375Y18658099D01*
X-17250230Y18612334D01*
X-17298663Y18583691D01*
X-17310898Y18574200D01*
X-17414201Y18470897D01*
X-17423692Y18458661D01*
X-17498061Y18332910D01*
X-17504209Y18318703D01*
X-17545377Y18177003D01*
X-17547311Y18166416D01*
X-17544783Y18153707D01*
X-17531641Y18150000D01*
X-17184386Y18150000D01*
X-17180027Y17650000D01*
X-17531637Y17650000D01*
X-17544782Y17646294D01*
X-17547310Y17633586D01*
X-17545376Y17622995D01*
X-17504209Y17481298D01*
X-17498061Y17467091D01*
X-17423692Y17341340D01*
X-17414201Y17329104D01*
X-17310897Y17225800D01*
X-17298661Y17216309D01*
X-17235875Y17179177D01*
X-17191555Y17134351D01*
X-17175001Y17073526D01*
X-17171967Y16725581D01*
X-17188216Y16663125D01*
X-17233650Y16617294D01*
X-17295962Y16600500D01*
X-17686000Y16600500D01*
X-17748000Y16617113D01*
X-17793387Y16662500D01*
X-17810000Y16724500D01*
X-17810000Y16938674D01*
X-17813451Y16951550D01*
X-17826326Y16955000D01*
X-19036000Y16955000D01*
X-19098000Y16971613D01*
X-19143387Y17017000D01*
X-19160000Y17079000D01*
X-19160000Y17331000D01*
X-19143387Y17393000D01*
X-19098000Y17438387D01*
X-19036000Y17455000D01*
X-17826326Y17455000D01*
X-17813451Y17458451D01*
X-17810000Y17471326D01*
X-17810000Y17949518D01*
X-17810354Y17956115D01*
X-17815574Y18004668D01*
X-17819112Y18019642D01*
X-17863548Y18138778D01*
X-17871963Y18154190D01*
X-17947499Y18255093D01*
X-17959908Y18267502D01*
X-18060811Y18343038D01*
X-18076223Y18351453D01*
X-18195359Y18395889D01*
X-18210333Y18399427D01*
X-18258886Y18404647D01*
X-18265482Y18405000D01*
X-18399732Y18405000D01*
X-18455157Y18418076D01*
X-18498893Y18454547D01*
X-18521714Y18506721D01*
X-18518809Y18563594D01*
X-18514623Y18578004D01*
X-18512690Y18588585D01*
X-18515218Y18601294D01*
X-18528359Y18605000D01*
X-19416000Y18605000D01*
X-19478000Y18621613D01*
X-19523387Y18667000D01*
X-19540000Y18729000D01*
X-19540000Y18981000D01*
X-19523387Y19043000D01*
X-19478000Y19088387D01*
X-19416000Y19105000D01*
X-18528363Y19105000D01*
X-18515219Y19108707D01*
X-18512691Y19121415D01*
X-18514625Y19132006D01*
X-18555792Y19273703D01*
X-18561938Y19287906D01*
X-18567505Y19297320D01*
X-18584770Y19359528D01*
X-18568424Y19421983D01*
X-18522899Y19467756D01*
X-18460538Y19484442D01*
X-17318687Y19482237D01*
G37*
%TD.AperFunction*%
%TD*%
M02*
