%TF.GenerationSoftware,KiCad,Pcbnew,(7.0.0-0)*%
%TF.CreationDate,2023-03-14T22:07:24-05:00*%
%TF.ProjectId,RP2040_minimal,52503230-3430-45f6-9d69-6e696d616c2e,REV1*%
%TF.SameCoordinates,Original*%
%TF.FileFunction,Paste,Bot*%
%TF.FilePolarity,Positive*%
%FSLAX46Y46*%
G04 Gerber Fmt 4.6, Leading zero omitted, Abs format (unit mm)*
G04 Created by KiCad (PCBNEW (7.0.0-0)) date 2023-03-14 22:07:24*
%MOMM*%
%LPD*%
G01*
G04 APERTURE LIST*
G04 Aperture macros list*
%AMRoundRect*
0 Rectangle with rounded corners*
0 $1 Rounding radius*
0 $2 $3 $4 $5 $6 $7 $8 $9 X,Y pos of 4 corners*
0 Add a 4 corners polygon primitive as box body*
4,1,4,$2,$3,$4,$5,$6,$7,$8,$9,$2,$3,0*
0 Add four circle primitives for the rounded corners*
1,1,$1+$1,$2,$3*
1,1,$1+$1,$4,$5*
1,1,$1+$1,$6,$7*
1,1,$1+$1,$8,$9*
0 Add four rect primitives between the rounded corners*
20,1,$1+$1,$2,$3,$4,$5,0*
20,1,$1+$1,$4,$5,$6,$7,0*
20,1,$1+$1,$6,$7,$8,$9,0*
20,1,$1+$1,$8,$9,$2,$3,0*%
G04 Aperture macros list end*
%ADD10RoundRect,0.140000X-0.170000X0.140000X-0.170000X-0.140000X0.170000X-0.140000X0.170000X0.140000X0*%
%ADD11RoundRect,0.200000X0.800000X-0.200000X0.800000X0.200000X-0.800000X0.200000X-0.800000X-0.200000X0*%
%ADD12RoundRect,0.140000X0.140000X0.170000X-0.140000X0.170000X-0.140000X-0.170000X0.140000X-0.170000X0*%
%ADD13RoundRect,0.140000X0.170000X-0.140000X0.170000X0.140000X-0.170000X0.140000X-0.170000X-0.140000X0*%
%ADD14RoundRect,0.367500X0.762500X0.367500X-0.762500X0.367500X-0.762500X-0.367500X0.762500X-0.367500X0*%
%ADD15RoundRect,0.367500X0.775000X0.367500X-0.775000X0.367500X-0.775000X-0.367500X0.775000X-0.367500X0*%
%ADD16RoundRect,0.375000X0.707500X0.375000X-0.707500X0.375000X-0.707500X-0.375000X0.707500X-0.375000X0*%
%ADD17RoundRect,0.410000X0.702500X0.410000X-0.702500X0.410000X-0.702500X-0.410000X0.702500X-0.410000X0*%
%ADD18R,0.700000X0.700000*%
%ADD19RoundRect,0.140000X-0.140000X-0.170000X0.140000X-0.170000X0.140000X0.170000X-0.140000X0.170000X0*%
%ADD20RoundRect,0.370000X0.835000X0.370000X-0.835000X0.370000X-0.835000X-0.370000X0.835000X-0.370000X0*%
%ADD21RoundRect,0.375000X0.777500X0.375000X-0.777500X0.375000X-0.777500X-0.375000X0.777500X-0.375000X0*%
%ADD22RoundRect,0.390000X0.782500X0.390000X-0.782500X0.390000X-0.782500X-0.390000X0.782500X-0.390000X0*%
%ADD23RoundRect,0.405000X0.782500X0.405000X-0.782500X0.405000X-0.782500X-0.405000X0.782500X-0.405000X0*%
G04 APERTURE END LIST*
D10*
%TO.C,C26*%
X31960000Y-2200000D03*
X31960000Y-3160000D03*
%TD*%
D11*
%TO.C,SW1*%
X-9470000Y26030000D03*
X-9470000Y30230000D03*
%TD*%
D12*
%TO.C,C29*%
X-2040000Y-4900000D03*
X-3000000Y-4900000D03*
%TD*%
D13*
%TO.C,C25*%
X17856000Y-26210000D03*
X17856000Y-25250000D03*
%TD*%
D12*
%TO.C,C27*%
X22908000Y22022000D03*
X21948000Y22022000D03*
%TD*%
D14*
%TO.C,SW2*%
X-7020000Y-18265000D03*
D15*
X-12967500Y-18265000D03*
D16*
X-7092500Y-21750000D03*
D17*
X-12937500Y-21820000D03*
%TD*%
D18*
%TO.C,D2*%
X-34112999Y-625999D03*
X-34112999Y473999D03*
X-32282999Y473999D03*
X-32282999Y-625999D03*
%TD*%
D13*
%TO.C,C21*%
X-19557000Y24022000D03*
X-19557000Y24982000D03*
%TD*%
%TO.C,C22*%
X-30968000Y-556000D03*
X-30968000Y404000D03*
%TD*%
D18*
%TO.C,D10*%
X20414999Y-4299999D03*
X20414999Y-5399999D03*
X18584999Y-5399999D03*
X18584999Y-4299999D03*
%TD*%
%TO.C,D5*%
X19449999Y-24084999D03*
X20549999Y-24084999D03*
X20549999Y-25914999D03*
X19449999Y-25914999D03*
%TD*%
D19*
%TO.C,C23*%
X-17676000Y-25799000D03*
X-16716000Y-25799000D03*
%TD*%
D18*
%TO.C,D7*%
X21157999Y23461999D03*
X21157999Y24561999D03*
X22987999Y24561999D03*
X22987999Y23461999D03*
%TD*%
%TO.C,D3*%
X-20914999Y-25549999D03*
X-20914999Y-24449999D03*
X-19084999Y-24449999D03*
X-19084999Y-25549999D03*
%TD*%
%TO.C,D9*%
X914999Y-4299999D03*
X914999Y-5399999D03*
X-914999Y-5399999D03*
X-914999Y-4299999D03*
%TD*%
D20*
%TO.C,SW3*%
X12995000Y-18260000D03*
D21*
X6962500Y-18250000D03*
D22*
X12937500Y-21780000D03*
D23*
X6927500Y-21810000D03*
%TD*%
D18*
%TO.C,D1*%
X-22581999Y24081999D03*
X-22581999Y25181999D03*
X-20751999Y25181999D03*
X-20751999Y24081999D03*
%TD*%
%TO.C,D6*%
X30484999Y-449999D03*
X30484999Y649999D03*
X32314999Y649999D03*
X32314999Y-449999D03*
%TD*%
%TO.C,D8*%
X-18584999Y-4299999D03*
X-18584999Y-5399999D03*
X-20414999Y-5399999D03*
X-20414999Y-4299999D03*
%TD*%
D12*
%TO.C,C28*%
X-21542000Y-4902000D03*
X-22502000Y-4902000D03*
%TD*%
D18*
%TO.C,D4*%
X990999Y-14003999D03*
X990999Y-15103999D03*
X-838999Y-15103999D03*
X-838999Y-14003999D03*
%TD*%
D12*
%TO.C,C30*%
X17410000Y-4980000D03*
X16450000Y-4980000D03*
%TD*%
%TO.C,C24*%
X-2650000Y-13930000D03*
X-3610000Y-13930000D03*
%TD*%
M02*
