M48
; DRILL file {KiCad (7.0.0-0)} date Saturday, March 25, 2023 at 02:40:02 AM
; FORMAT={-:-/ absolute / inch / decimal}
; #@! TF.CreationDate,2023-03-25T02:40:02-05:00
; #@! TF.GenerationSoftware,Kicad,Pcbnew,(7.0.0-0)
; #@! TF.FileFunction,Plated,1,4,PTH
FMAT,2
INCH
; #@! TA.AperFunction,Plated,PTH,ViaDrill
T1C0.0138
; #@! TA.AperFunction,Plated,PTH,ViaDrill
T2C0.0157
; #@! TA.AperFunction,Plated,PTH,ComponentDrill
T3C0.0236
; #@! TA.AperFunction,Plated,PTH,ComponentDrill
T4C0.0394
%
G90
G05
T1
X0.0083Y1.0094
X0.012Y0.9593
T2
X-1.1087Y0.0343
X-1.1087Y-0.0185
X-1.1079Y0.0843
X-1.1067Y0.1343
X-1.1063Y0.1902
X-1.1059Y-0.0732
X-1.1Y-0.1228
X-1.0917Y0.2402
X-1.0909Y-0.1685
X-1.0476Y0.2846
X-1.017Y0.627
X-1.0154Y0.2382
X-1.0142Y-0.1941
X-0.998Y0.2906
X-0.997Y0.667
X-0.9622Y-0.2633
X-0.9606Y-0.5165
X-0.957Y0.707
X-0.9491Y0.2764
X-0.9331Y-0.1941
X-0.927Y0.737
X-0.9256Y0.1067
X-0.9252Y0.1551
X-0.9252Y0.0626
X-0.9228Y-0.598
X-0.9213Y-0.0953
X-0.9205Y-0.0476
X-0.9091Y-0.2646
X-0.9079Y0.3945
X-0.902Y0.762
X-0.8972Y0.3512
X-0.897Y0.4535
X-0.8933Y0.2724
X-0.8709Y0.1106
X-0.8689Y-0.1587
X-0.8689Y-0.2598
X-0.867Y0.787
X-0.8657Y0.1614
X-0.8634Y0.687
X-0.8634Y0.6374
X-0.861Y0.5413
X-0.8608Y0.5898
X-0.857Y0.747
X-0.8567Y0.4843
X-0.8378Y0.2661
X-0.8299Y0.5205
X-0.827Y0.7929
X-0.802Y0.4823
X-0.8008Y0.1642
X-0.8004Y-0.0839
X-0.7925Y-0.4748
X-0.787Y0.787
X-0.784Y0.8728
X-0.7807Y0.2071
X-0.7768Y0.2803
X-0.7697Y-0.2559
X-0.764Y-0.4199
X-0.7555Y0.3421
X-0.7512Y0.485
X-0.7465Y0.9327
X-0.7402Y-0.0874
X-0.7299Y0.1673
X-0.7244Y0.7486
X-0.7197Y-0.4114
X-0.7024Y0.9543
X-0.6976Y-0.2122
X-0.6969Y0.677
X-0.6961Y0.5677
X-0.6811Y-0.085
X-0.6752Y0.526
X-0.6732Y-0.1476
X-0.6713Y0.1732
X-0.6559Y0.6673
X-0.6406Y-0.1717
X-0.6366Y0.8028
X-0.6315Y0.5272
X-0.6299Y-0.0815
X-0.6287Y-0.2232
X-0.628Y-0.2728
X-0.6276Y-0.3728
X-0.6272Y-0.3244
X-0.6079Y0.172
X-0.597Y-0.423
X-0.5756Y0.3831
X-0.5705Y-0.0795
X-0.557Y-0.253
X-0.5567Y0.1854
X-0.5508Y-0.4709
X-0.5413Y-0.422
X-0.537Y-0.363
X-0.5248Y0.3268
X-0.5128Y0.2736
X-0.5094Y-0.0783
X-0.5008Y0.4492
X-0.4992Y-0.1185
X-0.4988Y-0.4965
X-0.4965Y0.5909
X-0.489Y0.1886
X-0.4756Y-0.8768
X-0.4563Y-0.4996
X-0.4528Y-0.0787
X-0.4445Y-0.4079
X-0.4317Y0.8539
X-0.422Y0.1933
X-0.411Y-0.4996
X-0.4094Y0.6953
X-0.4028Y0.2315
X-0.4008Y0.2756
X-0.3598Y-0.5016
X-0.357Y0.8773
X-0.3411Y-0.9949
X-0.3268Y0.7272
X-0.3189Y0.887
X-0.3075Y0.0331
X-0.3059Y-0.5
X-0.2961Y0.2673
X-0.2961Y0.2213
X-0.2937Y0.1756
X-0.257Y-0.253
X-0.257Y-0.333
X-0.2488Y-0.5039
X-0.2457Y0.402
X-0.2386Y0.5272
X-0.2366Y-1.1091
X-0.227Y-0.633
X-0.2224Y-0.1146
X-0.2173Y0.1413
X-0.1921Y-0.4378
X-0.1902Y-0.502
X-0.187Y-0.283
X-0.187Y-0.373
X-0.178Y1.0446
X-0.1744Y0.6815
X-0.172Y0.9232
X-0.1709Y0.1957
X-0.1622Y1.0157
X-0.1571Y0.1469
X-0.1565Y-0.763
X-0.1559Y-0.1992
X-0.1539Y0.2654
X-0.1531Y-0.1587
X-0.147Y-0.473
X-0.1469Y-1.0724
X-0.1256Y-0.4339
X-0.1224Y-0.3362
X-0.1213Y-0.2882
X-0.1201Y-0.3909
X-0.115Y-0.2453
X-0.1079Y0.9504
X-0.1059Y1.0126
X-0.0958Y0.3782
X-0.0949Y0.1437
X-0.0913Y-0.163
X-0.087Y-0.673
X-0.072Y0.7854
X-0.0575Y0.448
X-0.0437Y0.5894
X-0.0335Y-0.3079
X-0.0283Y0.1469
X-0.0051Y0.1949
X-0.0051Y-0.9998
X-0.0031Y0.2402
X-0.0016Y0.2949
X0.0004Y-0.2496
X0.0004Y0.6386
X0.0185Y0.3303
X0.023Y0.477
X0.023Y0.437
X0.023Y0.387
X0.0323Y0.1461
X0.0358Y-0.0933
X0.0673Y0.4856
X0.0701Y-0.2181
X0.0782Y0.9557
X0.083Y-0.6625
X0.0882Y0.6386
X0.0925Y-0.0839
X0.0929Y0.0387
X0.1043Y1.0138
X0.113Y0.487
X0.1157Y-0.174
X0.123Y0.437
X0.1496Y1.0224
X0.1501Y-0.713
X0.163Y0.487
X0.1693Y-0.1756
X0.1768Y1.0443
X0.1799Y0.911
X0.1874Y-0.0941
X0.2021Y-0.5484
X0.2118Y0.6071
X0.213Y0.487
X0.2197Y-0.1787
X0.223Y0.437
X0.2409Y-0.0925
X0.253Y-0.983
X0.263Y0.607
X0.263Y0.487
X0.2781Y-0.311
X0.2787Y-0.1803
X0.313Y0.477
X0.3232Y-0.0917
X0.3324Y-0.2429
X0.3366Y0.6276
X0.341Y-0.548
X0.353Y0.427
X0.3539Y0.2315
X0.3645Y1.0484
X0.374Y-1.0949
X0.383Y0.567
X0.385Y-0.098
X0.3909Y0.8888
X0.4165Y-0.1764
X0.433Y0.397
X0.4372Y-1.051
X0.4516Y-0.098
X0.4673Y-0.1756
X0.4689Y-0.8756
X0.4791Y1.0429
X0.4914Y-0.4665
X0.493Y0.337
X0.4961Y-0.2504
X0.5059Y0.2354
X0.5126Y-0.098
X0.5159Y0.4705
X0.5232Y0.3886
X0.5339Y0.3016
X0.5669Y0.2685
X0.5705Y0.3689
X0.5717Y-0.0972
X0.5756Y0.95
X0.5815Y-0.178
X0.5992Y0.1941
X0.6098Y0.3476
X0.6213Y-0.1701
X0.6285Y1.0079
X0.6295Y0.1476
X0.6303Y-0.0988
X0.6445Y0.3142
X0.6476Y0.6465
X0.6496Y0.6925
X0.6728Y-0.0988
X0.6815Y0.2878
X0.6862Y0.1469
X0.7085Y0.4575
X0.7126Y0.4161
X0.7193Y-0.0965
X0.7224Y0.2614
X0.7567Y0.1484
X0.7591Y-0.2803
X0.7657Y0.6846
X0.7657Y0.6409
X0.7717Y0.2602
X0.7799Y-0.4401
X0.8291Y0.1461
X0.8331Y0.2602
X0.8457Y-0.2157
X0.8681Y0.0374
X0.8783Y-0.0866
X0.8811Y0.1445
X0.889Y0.2571
X0.893Y-0.193
X0.9244Y0.1445
X0.9252Y-0.4795
X0.9268Y0.2209
X0.9307Y0.0933
X0.937Y-0.1835
X0.9378Y-0.0925
X0.9567Y0.1909
X0.9683Y-0.521
X0.9815Y-0.1646
X0.9819Y0.1472
X0.9819Y0.1051
X0.9835Y0.0626
X0.9854Y-0.0634
X0.9854Y-0.1126
T4
X-0.6173Y1.0837
X-0.5803Y0.9413
X-0.5173Y1.0837
X-0.4803Y0.9413
X-0.4173Y1.0837
X-0.3803Y0.9413
X-0.3173Y1.0837
X-0.2803Y0.9413
T3
G00X-0.2213Y1.2409
M15
G01X-0.2213Y1.2882
M16
G05
G00X-0.2213Y1.0913
M15
G01X-0.2213Y1.1228
M16
G05
G00X0.2213Y1.2409
M15
G01X0.2213Y1.2882
M16
G05
G00X0.2213Y1.0913
M15
G01X0.2213Y1.1228
M16
G05
T0
M30
