%TF.GenerationSoftware,KiCad,Pcbnew,(7.0.0-0)*%
%TF.CreationDate,2023-03-26T23:48:35-05:00*%
%TF.ProjectId,RP2040_minimal,52503230-3430-45f6-9d69-6e696d616c2e,REV1*%
%TF.SameCoordinates,Original*%
%TF.FileFunction,Paste,Bot*%
%TF.FilePolarity,Positive*%
%FSLAX46Y46*%
G04 Gerber Fmt 4.6, Leading zero omitted, Abs format (unit mm)*
G04 Created by KiCad (PCBNEW (7.0.0-0)) date 2023-03-26 23:48:35*
%MOMM*%
%LPD*%
G01*
G04 APERTURE LIST*
G04 Aperture macros list*
%AMRoundRect*
0 Rectangle with rounded corners*
0 $1 Rounding radius*
0 $2 $3 $4 $5 $6 $7 $8 $9 X,Y pos of 4 corners*
0 Add a 4 corners polygon primitive as box body*
4,1,4,$2,$3,$4,$5,$6,$7,$8,$9,$2,$3,0*
0 Add four circle primitives for the rounded corners*
1,1,$1+$1,$2,$3*
1,1,$1+$1,$4,$5*
1,1,$1+$1,$6,$7*
1,1,$1+$1,$8,$9*
0 Add four rect primitives between the rounded corners*
20,1,$1+$1,$2,$3,$4,$5,0*
20,1,$1+$1,$4,$5,$6,$7,0*
20,1,$1+$1,$6,$7,$8,$9,0*
20,1,$1+$1,$8,$9,$2,$3,0*%
G04 Aperture macros list end*
%ADD10RoundRect,0.140000X0.170000X-0.140000X0.170000X0.140000X-0.170000X0.140000X-0.170000X-0.140000X0*%
%ADD11R,0.700000X0.700000*%
%ADD12RoundRect,0.140000X0.140000X0.170000X-0.140000X0.170000X-0.140000X-0.170000X0.140000X-0.170000X0*%
%ADD13R,1.550000X1.300000*%
%ADD14RoundRect,0.140000X-0.140000X-0.170000X0.140000X-0.170000X0.140000X0.170000X-0.140000X0.170000X0*%
%ADD15RoundRect,0.140000X-0.170000X0.140000X-0.170000X-0.140000X0.170000X-0.140000X0.170000X0.140000X0*%
%ADD16R,1.000000X0.750000*%
%ADD17RoundRect,0.135000X0.135000X0.185000X-0.135000X0.185000X-0.135000X-0.185000X0.135000X-0.185000X0*%
%ADD18R,1.940000X1.740000*%
%ADD19R,2.120000X1.840000*%
%ADD20R,2.050000X1.810000*%
%ADD21R,2.120000X1.860000*%
G04 APERTURE END LIST*
D10*
%TO.C,C28*%
X-17810000Y22460000D03*
X-17810000Y23420000D03*
%TD*%
D11*
%TO.C,D14*%
X20414999Y-4299999D03*
X20414999Y-5399999D03*
X18584999Y-5399999D03*
X18584999Y-4299999D03*
%TD*%
D12*
%TO.C,C32*%
X17360000Y-4870000D03*
X16400000Y-4870000D03*
%TD*%
D13*
%TO.C,SW7*%
X15974999Y-17749999D03*
X8024999Y-17749999D03*
X15974999Y-22249999D03*
X8024999Y-22249999D03*
%TD*%
D14*
%TO.C,C25*%
X1862000Y-18110000D03*
X2822000Y-18110000D03*
%TD*%
D10*
%TO.C,C27*%
X-23460000Y-14100000D03*
X-23460000Y-13140000D03*
%TD*%
D15*
%TO.C,C29*%
X-19190000Y10620000D03*
X-19190000Y9660000D03*
%TD*%
D13*
%TO.C,SW6*%
X-8024999Y-17749999D03*
X-15974999Y-17749999D03*
X-8024999Y-22249999D03*
X-15974999Y-22249999D03*
%TD*%
D16*
%TO.C,SW5*%
X-5339999Y14734999D03*
X-11339999Y14734999D03*
X-5339999Y10984999D03*
X-11339999Y10984999D03*
%TD*%
D11*
%TO.C,D3*%
X11029999Y23464999D03*
X9929999Y23464999D03*
X9929999Y25294999D03*
X11029999Y25294999D03*
%TD*%
D10*
%TO.C,C20*%
X-1230000Y13210000D03*
X-1230000Y14170000D03*
%TD*%
D12*
%TO.C,C31*%
X-2030000Y-5060000D03*
X-2990000Y-5060000D03*
%TD*%
%TO.C,C21*%
X10960000Y26610000D03*
X10000000Y26610000D03*
%TD*%
D16*
%TO.C,SW3*%
X-5849999Y20854999D03*
X-11849999Y20854999D03*
X-5849999Y17104999D03*
X-11849999Y17104999D03*
%TD*%
D11*
%TO.C,D13*%
X914999Y-4299999D03*
X914999Y-5399999D03*
X-914999Y-5399999D03*
X-914999Y-4299999D03*
%TD*%
%TO.C,D8*%
X-8669999Y-27339999D03*
X-8669999Y-26239999D03*
X-6839999Y-26239999D03*
X-6839999Y-27339999D03*
%TD*%
%TO.C,D9*%
X-22239999Y-12074999D03*
X-21139999Y-12074999D03*
X-21139999Y-13904999D03*
X-22239999Y-13904999D03*
%TD*%
D10*
%TO.C,C22*%
X17100000Y10680000D03*
X17100000Y11640000D03*
%TD*%
D11*
%TO.C,D11*%
X-20509999Y8389999D03*
X-21609999Y8389999D03*
X-21609999Y10219999D03*
X-20509999Y10219999D03*
%TD*%
D17*
%TO.C,R3*%
X-9910000Y22190000D03*
X-10930000Y22190000D03*
%TD*%
D11*
%TO.C,D4*%
X14094999Y10859999D03*
X14094999Y11959999D03*
X15924999Y11959999D03*
X15924999Y10859999D03*
%TD*%
%TO.C,D12*%
X-18584999Y-4299999D03*
X-18584999Y-5399999D03*
X-20414999Y-5399999D03*
X-20414999Y-4299999D03*
%TD*%
%TO.C,D7*%
X-1104999Y-18259999D03*
X-1104999Y-17159999D03*
X724999Y-17159999D03*
X724999Y-18259999D03*
%TD*%
D18*
%TO.C,SW8*%
X3569999Y-21179999D03*
D19*
X-3339999Y-21219999D03*
D20*
X3479999Y-24809999D03*
D21*
X-3289999Y-24799999D03*
%TD*%
D12*
%TO.C,C30*%
X-21600000Y-4900000D03*
X-22560000Y-4900000D03*
%TD*%
D11*
%TO.C,D2*%
X24999Y15064999D03*
X1124999Y15064999D03*
X1124999Y13234999D03*
X24999Y13234999D03*
%TD*%
%TO.C,D10*%
X-20794999Y21089999D03*
X-20794999Y22189999D03*
X-18964999Y22189999D03*
X-18964999Y21089999D03*
%TD*%
%TO.C,D6*%
X6310000Y-27364998D03*
X6310000Y-26264998D03*
X8140000Y-26264998D03*
X8140000Y-27364998D03*
%TD*%
D14*
%TO.C,C24*%
X9267001Y-26762999D03*
X10227001Y-26762999D03*
%TD*%
D11*
%TO.C,D5*%
X19794999Y-13319999D03*
X19794999Y-12219999D03*
X21624999Y-12219999D03*
X21624999Y-13319999D03*
%TD*%
D14*
%TO.C,C26*%
X-5590000Y-27310000D03*
X-4630000Y-27310000D03*
%TD*%
%TO.C,C23*%
X22770000Y-13250000D03*
X23730000Y-13250000D03*
%TD*%
M02*
