%TF.GenerationSoftware,KiCad,Pcbnew,(7.0.0-0)*%
%TF.CreationDate,2023-03-25T22:40:13-05:00*%
%TF.ProjectId,RP2040_minimal,52503230-3430-45f6-9d69-6e696d616c2e,REV1*%
%TF.SameCoordinates,Original*%
%TF.FileFunction,Paste,Top*%
%TF.FilePolarity,Positive*%
%FSLAX46Y46*%
G04 Gerber Fmt 4.6, Leading zero omitted, Abs format (unit mm)*
G04 Created by KiCad (PCBNEW (7.0.0-0)) date 2023-03-25 22:40:13*
%MOMM*%
%LPD*%
G01*
G04 APERTURE LIST*
G04 Aperture macros list*
%AMRoundRect*
0 Rectangle with rounded corners*
0 $1 Rounding radius*
0 $2 $3 $4 $5 $6 $7 $8 $9 X,Y pos of 4 corners*
0 Add a 4 corners polygon primitive as box body*
4,1,4,$2,$3,$4,$5,$6,$7,$8,$9,$2,$3,0*
0 Add four circle primitives for the rounded corners*
1,1,$1+$1,$2,$3*
1,1,$1+$1,$4,$5*
1,1,$1+$1,$6,$7*
1,1,$1+$1,$8,$9*
0 Add four rect primitives between the rounded corners*
20,1,$1+$1,$2,$3,$4,$5,0*
20,1,$1+$1,$4,$5,$6,$7,0*
20,1,$1+$1,$6,$7,$8,$9,0*
20,1,$1+$1,$8,$9,$2,$3,0*%
G04 Aperture macros list end*
%ADD10RoundRect,0.140000X0.140000X0.170000X-0.140000X0.170000X-0.140000X-0.170000X0.140000X-0.170000X0*%
%ADD11RoundRect,0.150000X0.512500X0.150000X-0.512500X0.150000X-0.512500X-0.150000X0.512500X-0.150000X0*%
%ADD12RoundRect,0.250000X0.475000X-0.250000X0.475000X0.250000X-0.475000X0.250000X-0.475000X-0.250000X0*%
%ADD13RoundRect,0.225000X0.225000X0.250000X-0.225000X0.250000X-0.225000X-0.250000X0.225000X-0.250000X0*%
%ADD14RoundRect,0.150000X-0.512500X-0.150000X0.512500X-0.150000X0.512500X0.150000X-0.512500X0.150000X0*%
%ADD15R,0.600000X1.150000*%
%ADD16R,0.300000X1.150000*%
%ADD17R,0.800000X1.000000*%
%ADD18R,1.500000X0.700000*%
%ADD19RoundRect,0.150000X0.587500X0.150000X-0.587500X0.150000X-0.587500X-0.150000X0.587500X-0.150000X0*%
%ADD20R,1.200000X1.400000*%
%ADD21R,1.000000X0.700000*%
%ADD22R,0.600000X0.700000*%
%ADD23RoundRect,0.250000X-0.325000X-0.650000X0.325000X-0.650000X0.325000X0.650000X-0.325000X0.650000X0*%
%ADD24RoundRect,0.140000X-0.170000X0.140000X-0.170000X-0.140000X0.170000X-0.140000X0.170000X0.140000X0*%
%ADD25RoundRect,0.250000X-0.650000X0.325000X-0.650000X-0.325000X0.650000X-0.325000X0.650000X0.325000X0*%
%ADD26R,1.000000X1.200000*%
%ADD27R,2.000000X1.500000*%
%ADD28R,2.000000X3.800000*%
%ADD29RoundRect,0.140000X0.170000X-0.140000X0.170000X0.140000X-0.170000X0.140000X-0.170000X-0.140000X0*%
%ADD30RoundRect,0.250000X0.325000X0.650000X-0.325000X0.650000X-0.325000X-0.650000X0.325000X-0.650000X0*%
%ADD31RoundRect,0.140000X-0.140000X-0.170000X0.140000X-0.170000X0.140000X0.170000X-0.140000X0.170000X0*%
%ADD32RoundRect,0.135000X0.135000X0.185000X-0.135000X0.185000X-0.135000X-0.185000X0.135000X-0.185000X0*%
%ADD33RoundRect,0.150000X-0.150000X0.512500X-0.150000X-0.512500X0.150000X-0.512500X0.150000X0.512500X0*%
%ADD34RoundRect,0.112500X0.112500X-0.187500X0.112500X0.187500X-0.112500X0.187500X-0.112500X-0.187500X0*%
%ADD35RoundRect,0.150000X-0.587500X-0.150000X0.587500X-0.150000X0.587500X0.150000X-0.587500X0.150000X0*%
%ADD36RoundRect,0.135000X0.185000X-0.135000X0.185000X0.135000X-0.185000X0.135000X-0.185000X-0.135000X0*%
%ADD37RoundRect,0.075000X-0.700000X-0.075000X0.700000X-0.075000X0.700000X0.075000X-0.700000X0.075000X0*%
%ADD38RoundRect,0.075000X-0.075000X-0.700000X0.075000X-0.700000X0.075000X0.700000X-0.075000X0.700000X0*%
%ADD39RoundRect,0.250000X-0.375000X-0.625000X0.375000X-0.625000X0.375000X0.625000X-0.375000X0.625000X0*%
%ADD40RoundRect,0.250000X-0.475000X0.250000X-0.475000X-0.250000X0.475000X-0.250000X0.475000X0.250000X0*%
G04 APERTURE END LIST*
D10*
%TO.C,C13*%
X-15850000Y14430000D03*
X-16810000Y14430000D03*
%TD*%
D11*
%TO.C,U6*%
X11497500Y5020000D03*
X11497500Y5970000D03*
X11497500Y6920000D03*
X9222500Y6920000D03*
X9222500Y5020000D03*
%TD*%
D12*
%TO.C,FB1*%
X-16630000Y8460000D03*
X-16630000Y10360000D03*
%TD*%
D13*
%TO.C,C1*%
X-13575000Y20400000D03*
X-15125000Y20400000D03*
%TD*%
D14*
%TO.C,Q1*%
X3970000Y16365000D03*
X3970000Y15415000D03*
X3970000Y14465000D03*
X6245000Y14465000D03*
X6245000Y16365000D03*
%TD*%
D15*
%TO.C,P1*%
X3199999Y26894999D03*
X2399999Y26894999D03*
D16*
X1249999Y26894999D03*
X249999Y26894999D03*
X-249999Y26894999D03*
X-1249999Y26894999D03*
D15*
X-2399999Y26894999D03*
X-3199999Y26894999D03*
X-3199999Y26894999D03*
X-2399999Y26894999D03*
D16*
X-1749999Y26894999D03*
X-749999Y26894999D03*
X749999Y26894999D03*
X1749999Y26894999D03*
D15*
X2399999Y26894999D03*
X3199999Y26894999D03*
%TD*%
D10*
%TO.C,C5*%
X-11165000Y7000000D03*
X-12125000Y7000000D03*
%TD*%
D17*
%TO.C,SW1*%
X14599999Y-14169999D03*
X16809999Y-14169999D03*
X14599999Y-6869999D03*
X16809999Y-6869999D03*
D18*
X13949999Y-12769999D03*
X13949999Y-9769999D03*
X13949999Y-8269999D03*
%TD*%
D19*
%TO.C,U9*%
X20437500Y-950000D03*
X20437500Y950000D03*
X18562500Y0D03*
%TD*%
%TO.C,U2*%
X11037500Y-11860000D03*
X11037500Y-9960000D03*
X9162500Y-10910000D03*
%TD*%
D20*
%TO.C,Y1*%
X-20609999Y17204999D03*
X-20609999Y15004999D03*
X-18909999Y15004999D03*
X-18909999Y17204999D03*
%TD*%
D21*
%TO.C,U3*%
X1909999Y23479999D03*
D22*
X209999Y23479999D03*
X209999Y21479999D03*
X2109999Y21479999D03*
%TD*%
D23*
%TO.C,C9*%
X13015000Y24090000D03*
X15965000Y24090000D03*
%TD*%
D10*
%TO.C,C2*%
X-15810000Y17900000D03*
X-16770000Y17900000D03*
%TD*%
D24*
%TO.C,R1*%
X3600000Y24065000D03*
X3600000Y23105000D03*
%TD*%
D25*
%TO.C,C11*%
X6872500Y-10925000D03*
X6872500Y-13875000D03*
%TD*%
D26*
%TO.C,SW4*%
X6799999Y5619999D03*
X4299999Y5619999D03*
X1799999Y5619999D03*
X6799999Y11119999D03*
X4299999Y11119999D03*
X1799999Y11119999D03*
%TD*%
D27*
%TO.C,U1*%
X17939999Y16939999D03*
X17939999Y19239999D03*
D28*
X11639999Y19239999D03*
D27*
X17939999Y21539999D03*
%TD*%
D24*
%TO.C,C17*%
X-22120000Y1890000D03*
X-22120000Y930000D03*
%TD*%
D29*
%TO.C,C8*%
X-16070000Y11610000D03*
X-16070000Y12570000D03*
%TD*%
D30*
%TO.C,C10*%
X11455000Y14490000D03*
X8505000Y14490000D03*
%TD*%
D26*
%TO.C,SW2*%
X-12459999Y-4799999D03*
X-9959999Y-4799999D03*
X-7459999Y-4799999D03*
X-12459999Y-10299999D03*
X-9959999Y-10299999D03*
X-7459999Y-10299999D03*
%TD*%
D31*
%TO.C,C3*%
X-12675000Y21630000D03*
X-11715000Y21630000D03*
%TD*%
D32*
%TO.C,R5*%
X-16150000Y15490000D03*
X-17170000Y15490000D03*
%TD*%
D19*
%TO.C,U8*%
X937500Y-950000D03*
X937500Y950000D03*
X-937500Y0D03*
%TD*%
D31*
%TO.C,C6*%
X-2850000Y19020000D03*
X-1890000Y19020000D03*
%TD*%
D29*
%TO.C,C19*%
X2510000Y-1260000D03*
X2510000Y-300000D03*
%TD*%
D33*
%TO.C,U4*%
X-6875000Y-600000D03*
X-7825000Y-600000D03*
X-8775000Y-600000D03*
X-8775000Y-2875000D03*
X-6875000Y-2875000D03*
%TD*%
D34*
%TO.C,D1*%
X6240000Y17825000D03*
X6240000Y19925000D03*
%TD*%
D35*
%TO.C,U7*%
X-20437500Y950000D03*
X-20437500Y-950000D03*
X-18562500Y0D03*
%TD*%
D24*
%TO.C,R2*%
X-1758000Y25097000D03*
X-1758000Y24137000D03*
%TD*%
D36*
%TO.C,R4*%
X-1340000Y9450000D03*
X-1340000Y10470000D03*
%TD*%
D29*
%TO.C,C7*%
X-17150000Y11620000D03*
X-17150000Y12580000D03*
%TD*%
D10*
%TO.C,C18*%
X21360000Y-2340000D03*
X20400000Y-2340000D03*
%TD*%
D30*
%TO.C,C12*%
X11307500Y-7830000D03*
X8357500Y-7830000D03*
%TD*%
D10*
%TO.C,C15*%
X-19290000Y13245000D03*
X-20250000Y13245000D03*
%TD*%
D24*
%TO.C,C4*%
X-3890000Y8591041D03*
X-3890000Y7631041D03*
%TD*%
D31*
%TO.C,C14*%
X-20250000Y18855000D03*
X-19290000Y18855000D03*
%TD*%
D37*
%TO.C,U5*%
X-14275000Y18100000D03*
X-14275000Y17600000D03*
X-14275000Y17100000D03*
X-14275000Y16600000D03*
X-14275000Y16100000D03*
X-14275000Y15600000D03*
X-14275000Y15100000D03*
X-14275000Y14600000D03*
X-14275000Y14100000D03*
X-14275000Y13600000D03*
X-14275000Y13100000D03*
X-14275000Y12600000D03*
X-14275000Y12100000D03*
X-14275000Y11600000D03*
X-14275000Y11100000D03*
X-14275000Y10600000D03*
D38*
X-12350000Y8675000D03*
X-11850000Y8675000D03*
X-11350000Y8675000D03*
X-10850000Y8675000D03*
X-10350000Y8675000D03*
X-9850000Y8675000D03*
X-9350000Y8675000D03*
X-8850000Y8675000D03*
X-8350000Y8675000D03*
X-7850000Y8675000D03*
X-7350000Y8675000D03*
X-6850000Y8675000D03*
X-6350000Y8675000D03*
X-5850000Y8675000D03*
X-5350000Y8675000D03*
X-4850000Y8675000D03*
D37*
X-2925000Y10600000D03*
X-2925000Y11100000D03*
X-2925000Y11600000D03*
X-2925000Y12100000D03*
X-2925000Y12600000D03*
X-2925000Y13100000D03*
X-2925000Y13600000D03*
X-2925000Y14100000D03*
X-2925000Y14600000D03*
X-2925000Y15100000D03*
X-2925000Y15600000D03*
X-2925000Y16100000D03*
X-2925000Y16600000D03*
X-2925000Y17100000D03*
X-2925000Y17600000D03*
X-2925000Y18100000D03*
D38*
X-4850000Y20025000D03*
X-5350000Y20025000D03*
X-5850000Y20025000D03*
X-6350000Y20025000D03*
X-6850000Y20025000D03*
X-7350000Y20025000D03*
X-7850000Y20025000D03*
X-8350000Y20025000D03*
X-8850000Y20025000D03*
X-9350000Y20025000D03*
X-9850000Y20025000D03*
X-10350000Y20025000D03*
X-10850000Y20025000D03*
X-11350000Y20025000D03*
X-11850000Y20025000D03*
X-12350000Y20025000D03*
%TD*%
D39*
%TO.C,F1*%
X7450000Y24770000D03*
X10250000Y24770000D03*
%TD*%
D40*
%TO.C,C16*%
X-5840000Y6761041D03*
X-5840000Y4861041D03*
%TD*%
M02*
