%TF.GenerationSoftware,KiCad,Pcbnew,(7.0.0-0)*%
%TF.CreationDate,2023-03-25T02:40:01-05:00*%
%TF.ProjectId,RP2040_minimal,52503230-3430-45f6-9d69-6e696d616c2e,REV1*%
%TF.SameCoordinates,Original*%
%TF.FileFunction,Soldermask,Bot*%
%TF.FilePolarity,Negative*%
%FSLAX46Y46*%
G04 Gerber Fmt 4.6, Leading zero omitted, Abs format (unit mm)*
G04 Created by KiCad (PCBNEW (7.0.0-0)) date 2023-03-25 02:40:01*
%MOMM*%
%LPD*%
G01*
G04 APERTURE LIST*
G04 Aperture macros list*
%AMRoundRect*
0 Rectangle with rounded corners*
0 $1 Rounding radius*
0 $2 $3 $4 $5 $6 $7 $8 $9 X,Y pos of 4 corners*
0 Add a 4 corners polygon primitive as box body*
4,1,4,$2,$3,$4,$5,$6,$7,$8,$9,$2,$3,0*
0 Add four circle primitives for the rounded corners*
1,1,$1+$1,$2,$3*
1,1,$1+$1,$4,$5*
1,1,$1+$1,$6,$7*
1,1,$1+$1,$8,$9*
0 Add four rect primitives between the rounded corners*
20,1,$1+$1,$2,$3,$4,$5,0*
20,1,$1+$1,$4,$5,$6,$7,0*
20,1,$1+$1,$6,$7,$8,$9,0*
20,1,$1+$1,$8,$9,$2,$3,0*%
G04 Aperture macros list end*
%TA.AperFunction,Profile*%
%ADD10C,0.120000*%
%TD*%
%ADD11O,1.102000X1.902000*%
%ADD12O,1.102000X2.302000*%
%ADD13C,1.002000*%
%ADD14RoundRect,0.051000X0.850000X-0.850000X0.850000X0.850000X-0.850000X0.850000X-0.850000X-0.850000X0*%
%ADD15O,1.802000X1.802000*%
%ADD16RoundRect,0.191000X0.170000X-0.140000X0.170000X0.140000X-0.170000X0.140000X-0.170000X-0.140000X0*%
%ADD17RoundRect,0.051000X0.350000X0.350000X-0.350000X0.350000X-0.350000X-0.350000X0.350000X-0.350000X0*%
%ADD18RoundRect,0.191000X0.140000X0.170000X-0.140000X0.170000X-0.140000X-0.170000X0.140000X-0.170000X0*%
%ADD19RoundRect,0.051000X0.775000X0.650000X-0.775000X0.650000X-0.775000X-0.650000X0.775000X-0.650000X0*%
%ADD20RoundRect,0.191000X-0.140000X-0.170000X0.140000X-0.170000X0.140000X0.170000X-0.140000X0.170000X0*%
%ADD21C,3.302000*%
%ADD22RoundRect,0.191000X-0.170000X0.140000X-0.170000X-0.140000X0.170000X-0.140000X0.170000X0.140000X0*%
%ADD23RoundRect,0.051000X0.350000X-0.350000X0.350000X0.350000X-0.350000X0.350000X-0.350000X-0.350000X0*%
%ADD24C,1.802000*%
%ADD25RoundRect,0.051000X-0.350000X-0.350000X0.350000X-0.350000X0.350000X0.350000X-0.350000X0.350000X0*%
%ADD26RoundRect,0.051000X-0.350000X0.350000X-0.350000X-0.350000X0.350000X-0.350000X0.350000X0.350000X0*%
%ADD27RoundRect,0.186000X0.185000X-0.135000X0.185000X0.135000X-0.185000X0.135000X-0.185000X-0.135000X0*%
%ADD28RoundRect,0.251000X-0.800000X0.200000X-0.800000X-0.200000X0.800000X-0.200000X0.800000X0.200000X0*%
%ADD29RoundRect,0.251000X0.800000X-0.200000X0.800000X0.200000X-0.800000X0.200000X-0.800000X-0.200000X0*%
G04 APERTURE END LIST*
D10*
%TO.C,P1*%
X4620000Y27520000D02*
X4625000Y33620000D01*
X4025000Y27495000D02*
X-4025000Y27495000D01*
X-4620000Y27520000D02*
X-4625000Y33620000D01*
X4025000Y27495000D02*
G75*
G03*
X4620000Y27520000I297500J12500D01*
G01*
X-4620000Y27520000D02*
G75*
G03*
X-4025000Y27495000I297500J-12500D01*
G01*
%TD*%
D11*
%TO.C,P1*%
X5619999Y28119999D03*
D12*
X5619999Y32119999D03*
D11*
X-5619999Y28119999D03*
D12*
X-5619999Y32119999D03*
%TD*%
D13*
%TO.C,SW7*%
X15710000Y-12020000D03*
X15710000Y-9020000D03*
%TD*%
%TO.C,SW8*%
X5800000Y8370000D03*
X2800000Y8370000D03*
%TD*%
%TO.C,SW6*%
X-11460000Y-7550000D03*
X-8460000Y-7550000D03*
%TD*%
D14*
%TO.C,J2*%
X-15680000Y27525000D03*
D15*
X-13139999Y27524999D03*
X-10599999Y27524999D03*
X-8059999Y27524999D03*
%TD*%
D14*
%TO.C,J1*%
X-14740000Y23910000D03*
D15*
X-12199999Y23909999D03*
X-9659999Y23909999D03*
X-7119999Y23909999D03*
%TD*%
D16*
%TO.C,C28*%
X-17810000Y22460000D03*
X-17810000Y23420000D03*
%TD*%
D17*
%TO.C,D14*%
X20415000Y-4300000D03*
X20415000Y-5400000D03*
X18585000Y-5400000D03*
X18585000Y-4300000D03*
%TD*%
D18*
%TO.C,C32*%
X17360000Y-4870000D03*
X16400000Y-4870000D03*
%TD*%
D19*
%TO.C,SW4*%
X15975000Y-17750000D03*
X8025000Y-17750000D03*
X15975000Y-22250000D03*
X8025000Y-22250000D03*
%TD*%
D20*
%TO.C,C25*%
X1862000Y-18110000D03*
X2822000Y-18110000D03*
%TD*%
D16*
%TO.C,C27*%
X-23460000Y-14100000D03*
X-23460000Y-13140000D03*
%TD*%
D21*
%TO.C,H3*%
X0Y-13000000D03*
%TD*%
D22*
%TO.C,C29*%
X-19190000Y10620000D03*
X-19190000Y9660000D03*
%TD*%
D19*
%TO.C,SW3*%
X-8025000Y-17750000D03*
X-15975000Y-17750000D03*
X-8025000Y-22250000D03*
X-15975000Y-22250000D03*
%TD*%
D23*
%TO.C,D3*%
X11030000Y23465000D03*
X9930000Y23465000D03*
X9930000Y25295000D03*
X11030000Y25295000D03*
%TD*%
D24*
%TO.C,REF\u002A\u002A*%
X24580000Y0D03*
X14420000Y0D03*
%TD*%
D16*
%TO.C,C20*%
X-1230000Y13210000D03*
X-1230000Y14170000D03*
%TD*%
D24*
%TO.C,REF\u002A\u002A*%
X5080000Y0D03*
X-5080000Y0D03*
%TD*%
D18*
%TO.C,C31*%
X-2030000Y-5060000D03*
X-2990000Y-5060000D03*
%TD*%
%TO.C,C21*%
X10960000Y26610000D03*
X10000000Y26610000D03*
%TD*%
D17*
%TO.C,D13*%
X915000Y-4300000D03*
X915000Y-5400000D03*
X-915000Y-5400000D03*
X-915000Y-4300000D03*
%TD*%
D25*
%TO.C,D8*%
X-8670000Y-27340000D03*
X-8670000Y-26240000D03*
X-6840000Y-26240000D03*
X-6840000Y-27340000D03*
%TD*%
D26*
%TO.C,D9*%
X-22240000Y-12075000D03*
X-21140000Y-12075000D03*
X-21140000Y-13905000D03*
X-22240000Y-13905000D03*
%TD*%
D21*
%TO.C,H2*%
X-24500000Y13500000D03*
%TD*%
D16*
%TO.C,C22*%
X17100000Y10680000D03*
X17100000Y11640000D03*
%TD*%
D23*
%TO.C,D11*%
X-20510000Y8390000D03*
X-21610000Y8390000D03*
X-21610000Y10220000D03*
X-20510000Y10220000D03*
%TD*%
D27*
%TO.C,R3*%
X-8280000Y16340000D03*
X-8280000Y17360000D03*
%TD*%
D21*
%TO.C,H1*%
X24500000Y13000000D03*
%TD*%
D25*
%TO.C,D4*%
X14095000Y10860000D03*
X14095000Y11960000D03*
X15925000Y11960000D03*
X15925000Y10860000D03*
%TD*%
D17*
%TO.C,D12*%
X-18585000Y-4300000D03*
X-18585000Y-5400000D03*
X-20415000Y-5400000D03*
X-20415000Y-4300000D03*
%TD*%
D25*
%TO.C,D7*%
X-1105000Y-18260000D03*
X-1105000Y-17160000D03*
X725000Y-17160000D03*
X725000Y-18260000D03*
%TD*%
D19*
%TO.C,SW5*%
X3975000Y-20750000D03*
X-3975000Y-20750000D03*
X3975000Y-25250000D03*
X-3975000Y-25250000D03*
%TD*%
D18*
%TO.C,C30*%
X-21600000Y-4900000D03*
X-22560000Y-4900000D03*
%TD*%
D26*
%TO.C,D2*%
X25000Y15065000D03*
X1125000Y15065000D03*
X1125000Y13235000D03*
X25000Y13235000D03*
%TD*%
D24*
%TO.C,REF\u002A\u002A*%
X-14420000Y0D03*
X-24580000Y0D03*
%TD*%
D25*
%TO.C,D10*%
X-20795000Y21090000D03*
X-20795000Y22190000D03*
X-18965000Y22190000D03*
X-18965000Y21090000D03*
%TD*%
%TO.C,D6*%
X6310001Y-27364999D03*
X6310001Y-26264999D03*
X8140001Y-26264999D03*
X8140001Y-27364999D03*
%TD*%
D20*
%TO.C,C24*%
X9267001Y-26762999D03*
X10227001Y-26762999D03*
%TD*%
D28*
%TO.C,SW1*%
X-6070000Y18530000D03*
X-6070000Y14330000D03*
%TD*%
D25*
%TO.C,D5*%
X19795000Y-13320000D03*
X19795000Y-12220000D03*
X21625000Y-12220000D03*
X21625000Y-13320000D03*
%TD*%
D20*
%TO.C,C26*%
X-5590000Y-27310000D03*
X-4630000Y-27310000D03*
%TD*%
D29*
%TO.C,SW2*%
X-10520000Y14350000D03*
X-10520000Y18550000D03*
%TD*%
D20*
%TO.C,C23*%
X22770000Y-13250000D03*
X23730000Y-13250000D03*
%TD*%
M02*
