%TF.GenerationSoftware,KiCad,Pcbnew,(7.0.0-0)*%
%TF.CreationDate,2023-03-25T22:40:13-05:00*%
%TF.ProjectId,RP2040_minimal,52503230-3430-45f6-9d69-6e696d616c2e,REV1*%
%TF.SameCoordinates,Original*%
%TF.FileFunction,Legend,Top*%
%TF.FilePolarity,Positive*%
%FSLAX46Y46*%
G04 Gerber Fmt 4.6, Leading zero omitted, Abs format (unit mm)*
G04 Created by KiCad (PCBNEW (7.0.0-0)) date 2023-03-25 22:40:13*
%MOMM*%
%LPD*%
G01*
G04 APERTURE LIST*
G04 Aperture macros list*
%AMRoundRect*
0 Rectangle with rounded corners*
0 $1 Rounding radius*
0 $2 $3 $4 $5 $6 $7 $8 $9 X,Y pos of 4 corners*
0 Add a 4 corners polygon primitive as box body*
4,1,4,$2,$3,$4,$5,$6,$7,$8,$9,$2,$3,0*
0 Add four circle primitives for the rounded corners*
1,1,$1+$1,$2,$3*
1,1,$1+$1,$4,$5*
1,1,$1+$1,$6,$7*
1,1,$1+$1,$8,$9*
0 Add four rect primitives between the rounded corners*
20,1,$1+$1,$2,$3,$4,$5,0*
20,1,$1+$1,$4,$5,$6,$7,0*
20,1,$1+$1,$6,$7,$8,$9,0*
20,1,$1+$1,$8,$9,$2,$3,0*%
G04 Aperture macros list end*
%ADD10C,0.150000*%
%ADD11C,0.120000*%
%ADD12RoundRect,0.191000X0.140000X0.170000X-0.140000X0.170000X-0.140000X-0.170000X0.140000X-0.170000X0*%
%ADD13RoundRect,0.201000X0.512500X0.150000X-0.512500X0.150000X-0.512500X-0.150000X0.512500X-0.150000X0*%
%ADD14RoundRect,0.301000X0.475000X-0.250000X0.475000X0.250000X-0.475000X0.250000X-0.475000X-0.250000X0*%
%ADD15RoundRect,0.276000X0.225000X0.250000X-0.225000X0.250000X-0.225000X-0.250000X0.225000X-0.250000X0*%
%ADD16RoundRect,0.201000X-0.512500X-0.150000X0.512500X-0.150000X0.512500X0.150000X-0.512500X0.150000X0*%
%ADD17RoundRect,0.051000X0.300000X0.575000X-0.300000X0.575000X-0.300000X-0.575000X0.300000X-0.575000X0*%
%ADD18RoundRect,0.051000X0.150000X0.575000X-0.150000X0.575000X-0.150000X-0.575000X0.150000X-0.575000X0*%
%ADD19O,1.102000X1.902000*%
%ADD20O,1.102000X2.302000*%
%ADD21RoundRect,0.051000X0.400000X-0.500000X0.400000X0.500000X-0.400000X0.500000X-0.400000X-0.500000X0*%
%ADD22C,1.002000*%
%ADD23RoundRect,0.051000X0.750000X-0.350000X0.750000X0.350000X-0.750000X0.350000X-0.750000X-0.350000X0*%
%ADD24RoundRect,0.201000X0.587500X0.150000X-0.587500X0.150000X-0.587500X-0.150000X0.587500X-0.150000X0*%
%ADD25RoundRect,0.051000X-0.600000X0.700000X-0.600000X-0.700000X0.600000X-0.700000X0.600000X0.700000X0*%
%ADD26RoundRect,0.050000X0.500000X0.350000X-0.500000X0.350000X-0.500000X-0.350000X0.500000X-0.350000X0*%
%ADD27RoundRect,0.050000X0.300000X0.350000X-0.300000X0.350000X-0.300000X-0.350000X0.300000X-0.350000X0*%
%ADD28RoundRect,0.301000X-0.325000X-0.650000X0.325000X-0.650000X0.325000X0.650000X-0.325000X0.650000X0*%
%ADD29RoundRect,0.191000X-0.170000X0.140000X-0.170000X-0.140000X0.170000X-0.140000X0.170000X0.140000X0*%
%ADD30RoundRect,0.301000X-0.650000X0.325000X-0.650000X-0.325000X0.650000X-0.325000X0.650000X0.325000X0*%
%ADD31RoundRect,0.051000X0.500000X0.600000X-0.500000X0.600000X-0.500000X-0.600000X0.500000X-0.600000X0*%
%ADD32RoundRect,0.051000X1.000000X0.750000X-1.000000X0.750000X-1.000000X-0.750000X1.000000X-0.750000X0*%
%ADD33RoundRect,0.051000X1.000000X1.900000X-1.000000X1.900000X-1.000000X-1.900000X1.000000X-1.900000X0*%
%ADD34RoundRect,0.191000X0.170000X-0.140000X0.170000X0.140000X-0.170000X0.140000X-0.170000X-0.140000X0*%
%ADD35RoundRect,0.301000X0.325000X0.650000X-0.325000X0.650000X-0.325000X-0.650000X0.325000X-0.650000X0*%
%ADD36RoundRect,0.051000X-0.500000X-0.600000X0.500000X-0.600000X0.500000X0.600000X-0.500000X0.600000X0*%
%ADD37RoundRect,0.191000X-0.140000X-0.170000X0.140000X-0.170000X0.140000X0.170000X-0.140000X0.170000X0*%
%ADD38RoundRect,0.051000X0.850000X-0.850000X0.850000X0.850000X-0.850000X0.850000X-0.850000X-0.850000X0*%
%ADD39O,1.802000X1.802000*%
%ADD40RoundRect,0.186000X0.135000X0.185000X-0.135000X0.185000X-0.135000X-0.185000X0.135000X-0.185000X0*%
%ADD41RoundRect,0.201000X-0.150000X0.512500X-0.150000X-0.512500X0.150000X-0.512500X0.150000X0.512500X0*%
%ADD42RoundRect,0.163500X0.112500X-0.187500X0.112500X0.187500X-0.112500X0.187500X-0.112500X-0.187500X0*%
%ADD43RoundRect,0.201000X-0.587500X-0.150000X0.587500X-0.150000X0.587500X0.150000X-0.587500X0.150000X0*%
%ADD44RoundRect,0.186000X0.185000X-0.135000X0.185000X0.135000X-0.185000X0.135000X-0.185000X-0.135000X0*%
%ADD45RoundRect,0.126000X-0.700000X-0.075000X0.700000X-0.075000X0.700000X0.075000X-0.700000X0.075000X0*%
%ADD46RoundRect,0.126000X-0.075000X-0.700000X0.075000X-0.700000X0.075000X0.700000X-0.075000X0.700000X0*%
%ADD47RoundRect,0.301000X-0.375000X-0.625000X0.375000X-0.625000X0.375000X0.625000X-0.375000X0.625000X0*%
%ADD48RoundRect,0.301000X-0.475000X0.250000X-0.475000X-0.250000X0.475000X-0.250000X0.475000X0.250000X0*%
%ADD49C,3.302000*%
%ADD50C,1.802000*%
G04 APERTURE END LIST*
D10*
%TO.C,C13*%
X-16972858Y12997858D02*
X-17020477Y12950239D01*
X-17020477Y12950239D02*
X-17163334Y12902620D01*
X-17163334Y12902620D02*
X-17258572Y12902620D01*
X-17258572Y12902620D02*
X-17401429Y12950239D01*
X-17401429Y12950239D02*
X-17496667Y13045477D01*
X-17496667Y13045477D02*
X-17544286Y13140715D01*
X-17544286Y13140715D02*
X-17591905Y13331191D01*
X-17591905Y13331191D02*
X-17591905Y13474048D01*
X-17591905Y13474048D02*
X-17544286Y13664524D01*
X-17544286Y13664524D02*
X-17496667Y13759762D01*
X-17496667Y13759762D02*
X-17401429Y13855000D01*
X-17401429Y13855000D02*
X-17258572Y13902620D01*
X-17258572Y13902620D02*
X-17163334Y13902620D01*
X-17163334Y13902620D02*
X-17020477Y13855000D01*
X-17020477Y13855000D02*
X-16972858Y13807381D01*
X-16020477Y12902620D02*
X-16591905Y12902620D01*
X-16306191Y12902620D02*
X-16306191Y13902620D01*
X-16306191Y13902620D02*
X-16401429Y13759762D01*
X-16401429Y13759762D02*
X-16496667Y13664524D01*
X-16496667Y13664524D02*
X-16591905Y13616905D01*
X-15687143Y13902620D02*
X-15068096Y13902620D01*
X-15068096Y13902620D02*
X-15401429Y13521667D01*
X-15401429Y13521667D02*
X-15258572Y13521667D01*
X-15258572Y13521667D02*
X-15163334Y13474048D01*
X-15163334Y13474048D02*
X-15115715Y13426429D01*
X-15115715Y13426429D02*
X-15068096Y13331191D01*
X-15068096Y13331191D02*
X-15068096Y13093096D01*
X-15068096Y13093096D02*
X-15115715Y12997858D01*
X-15115715Y12997858D02*
X-15163334Y12950239D01*
X-15163334Y12950239D02*
X-15258572Y12902620D01*
X-15258572Y12902620D02*
X-15544286Y12902620D01*
X-15544286Y12902620D02*
X-15639524Y12950239D01*
X-15639524Y12950239D02*
X-15687143Y12997858D01*
%TO.C,U6*%
X9598095Y4202620D02*
X9598095Y3393096D01*
X9598095Y3393096D02*
X9645714Y3297858D01*
X9645714Y3297858D02*
X9693333Y3250239D01*
X9693333Y3250239D02*
X9788571Y3202620D01*
X9788571Y3202620D02*
X9979047Y3202620D01*
X9979047Y3202620D02*
X10074285Y3250239D01*
X10074285Y3250239D02*
X10121904Y3297858D01*
X10121904Y3297858D02*
X10169523Y3393096D01*
X10169523Y3393096D02*
X10169523Y4202620D01*
X11074285Y4202620D02*
X10883809Y4202620D01*
X10883809Y4202620D02*
X10788571Y4155000D01*
X10788571Y4155000D02*
X10740952Y4107381D01*
X10740952Y4107381D02*
X10645714Y3964524D01*
X10645714Y3964524D02*
X10598095Y3774048D01*
X10598095Y3774048D02*
X10598095Y3393096D01*
X10598095Y3393096D02*
X10645714Y3297858D01*
X10645714Y3297858D02*
X10693333Y3250239D01*
X10693333Y3250239D02*
X10788571Y3202620D01*
X10788571Y3202620D02*
X10979047Y3202620D01*
X10979047Y3202620D02*
X11074285Y3250239D01*
X11074285Y3250239D02*
X11121904Y3297858D01*
X11121904Y3297858D02*
X11169523Y3393096D01*
X11169523Y3393096D02*
X11169523Y3631191D01*
X11169523Y3631191D02*
X11121904Y3726429D01*
X11121904Y3726429D02*
X11074285Y3774048D01*
X11074285Y3774048D02*
X10979047Y3821667D01*
X10979047Y3821667D02*
X10788571Y3821667D01*
X10788571Y3821667D02*
X10693333Y3774048D01*
X10693333Y3774048D02*
X10645714Y3726429D01*
X10645714Y3726429D02*
X10598095Y3631191D01*
%TO.C,FB1*%
X-18466429Y8576667D02*
X-18466429Y8243334D01*
X-17942620Y8243334D02*
X-18942620Y8243334D01*
X-18942620Y8243334D02*
X-18942620Y8719524D01*
X-18466429Y9433810D02*
X-18418810Y9576667D01*
X-18418810Y9576667D02*
X-18371191Y9624286D01*
X-18371191Y9624286D02*
X-18275953Y9671905D01*
X-18275953Y9671905D02*
X-18133096Y9671905D01*
X-18133096Y9671905D02*
X-18037858Y9624286D01*
X-18037858Y9624286D02*
X-17990239Y9576667D01*
X-17990239Y9576667D02*
X-17942620Y9481429D01*
X-17942620Y9481429D02*
X-17942620Y9100477D01*
X-17942620Y9100477D02*
X-18942620Y9100477D01*
X-18942620Y9100477D02*
X-18942620Y9433810D01*
X-18942620Y9433810D02*
X-18895000Y9529048D01*
X-18895000Y9529048D02*
X-18847381Y9576667D01*
X-18847381Y9576667D02*
X-18752143Y9624286D01*
X-18752143Y9624286D02*
X-18656905Y9624286D01*
X-18656905Y9624286D02*
X-18561667Y9576667D01*
X-18561667Y9576667D02*
X-18514048Y9529048D01*
X-18514048Y9529048D02*
X-18466429Y9433810D01*
X-18466429Y9433810D02*
X-18466429Y9100477D01*
X-17942620Y10624286D02*
X-17942620Y10052858D01*
X-17942620Y10338572D02*
X-18942620Y10338572D01*
X-18942620Y10338572D02*
X-18799762Y10243334D01*
X-18799762Y10243334D02*
X-18704524Y10148096D01*
X-18704524Y10148096D02*
X-18656905Y10052858D01*
%TO.C,C1*%
X-14516667Y18697858D02*
X-14564286Y18650239D01*
X-14564286Y18650239D02*
X-14707143Y18602620D01*
X-14707143Y18602620D02*
X-14802381Y18602620D01*
X-14802381Y18602620D02*
X-14945238Y18650239D01*
X-14945238Y18650239D02*
X-15040476Y18745477D01*
X-15040476Y18745477D02*
X-15088095Y18840715D01*
X-15088095Y18840715D02*
X-15135714Y19031191D01*
X-15135714Y19031191D02*
X-15135714Y19174048D01*
X-15135714Y19174048D02*
X-15088095Y19364524D01*
X-15088095Y19364524D02*
X-15040476Y19459762D01*
X-15040476Y19459762D02*
X-14945238Y19555000D01*
X-14945238Y19555000D02*
X-14802381Y19602620D01*
X-14802381Y19602620D02*
X-14707143Y19602620D01*
X-14707143Y19602620D02*
X-14564286Y19555000D01*
X-14564286Y19555000D02*
X-14516667Y19507381D01*
X-13564286Y18602620D02*
X-14135714Y18602620D01*
X-13850000Y18602620D02*
X-13850000Y19602620D01*
X-13850000Y19602620D02*
X-13945238Y19459762D01*
X-13945238Y19459762D02*
X-14040476Y19364524D01*
X-14040476Y19364524D02*
X-14135714Y19316905D01*
%TO.C,Q1*%
X5012261Y17352381D02*
X4917023Y17400000D01*
X4917023Y17400000D02*
X4821785Y17495239D01*
X4821785Y17495239D02*
X4678928Y17638096D01*
X4678928Y17638096D02*
X4583690Y17685715D01*
X4583690Y17685715D02*
X4488452Y17685715D01*
X4536071Y17447620D02*
X4440833Y17495239D01*
X4440833Y17495239D02*
X4345595Y17590477D01*
X4345595Y17590477D02*
X4297976Y17780953D01*
X4297976Y17780953D02*
X4297976Y18114286D01*
X4297976Y18114286D02*
X4345595Y18304762D01*
X4345595Y18304762D02*
X4440833Y18400000D01*
X4440833Y18400000D02*
X4536071Y18447620D01*
X4536071Y18447620D02*
X4726547Y18447620D01*
X4726547Y18447620D02*
X4821785Y18400000D01*
X4821785Y18400000D02*
X4917023Y18304762D01*
X4917023Y18304762D02*
X4964642Y18114286D01*
X4964642Y18114286D02*
X4964642Y17780953D01*
X4964642Y17780953D02*
X4917023Y17590477D01*
X4917023Y17590477D02*
X4821785Y17495239D01*
X4821785Y17495239D02*
X4726547Y17447620D01*
X4726547Y17447620D02*
X4536071Y17447620D01*
X5917023Y17447620D02*
X5345595Y17447620D01*
X5631309Y17447620D02*
X5631309Y18447620D01*
X5631309Y18447620D02*
X5536071Y18304762D01*
X5536071Y18304762D02*
X5440833Y18209524D01*
X5440833Y18209524D02*
X5345595Y18161905D01*
%TO.C,P1*%
X388094Y32737381D02*
X388094Y31737381D01*
X388094Y31737381D02*
X7142Y31737381D01*
X7142Y31737381D02*
X-88096Y31785000D01*
X-88096Y31785000D02*
X-135715Y31832620D01*
X-135715Y31832620D02*
X-183334Y31927858D01*
X-183334Y31927858D02*
X-183334Y32070715D01*
X-183334Y32070715D02*
X-135715Y32165953D01*
X-135715Y32165953D02*
X-88096Y32213572D01*
X-88096Y32213572D02*
X7142Y32261191D01*
X7142Y32261191D02*
X388094Y32261191D01*
X-1135715Y32737381D02*
X-564287Y32737381D01*
X-850001Y32737381D02*
X-850001Y31737381D01*
X-850001Y31737381D02*
X-754763Y31880239D01*
X-754763Y31880239D02*
X-659525Y31975477D01*
X-659525Y31975477D02*
X-564287Y32023096D01*
%TO.C,C5*%
X-11811667Y5567858D02*
X-11859286Y5520239D01*
X-11859286Y5520239D02*
X-12002143Y5472620D01*
X-12002143Y5472620D02*
X-12097381Y5472620D01*
X-12097381Y5472620D02*
X-12240238Y5520239D01*
X-12240238Y5520239D02*
X-12335476Y5615477D01*
X-12335476Y5615477D02*
X-12383095Y5710715D01*
X-12383095Y5710715D02*
X-12430714Y5901191D01*
X-12430714Y5901191D02*
X-12430714Y6044048D01*
X-12430714Y6044048D02*
X-12383095Y6234524D01*
X-12383095Y6234524D02*
X-12335476Y6329762D01*
X-12335476Y6329762D02*
X-12240238Y6425000D01*
X-12240238Y6425000D02*
X-12097381Y6472620D01*
X-12097381Y6472620D02*
X-12002143Y6472620D01*
X-12002143Y6472620D02*
X-11859286Y6425000D01*
X-11859286Y6425000D02*
X-11811667Y6377381D01*
X-10906905Y6472620D02*
X-11383095Y6472620D01*
X-11383095Y6472620D02*
X-11430714Y5996429D01*
X-11430714Y5996429D02*
X-11383095Y6044048D01*
X-11383095Y6044048D02*
X-11287857Y6091667D01*
X-11287857Y6091667D02*
X-11049762Y6091667D01*
X-11049762Y6091667D02*
X-10954524Y6044048D01*
X-10954524Y6044048D02*
X-10906905Y5996429D01*
X-10906905Y5996429D02*
X-10859286Y5901191D01*
X-10859286Y5901191D02*
X-10859286Y5663096D01*
X-10859286Y5663096D02*
X-10906905Y5567858D01*
X-10906905Y5567858D02*
X-10954524Y5520239D01*
X-10954524Y5520239D02*
X-11049762Y5472620D01*
X-11049762Y5472620D02*
X-11287857Y5472620D01*
X-11287857Y5472620D02*
X-11383095Y5520239D01*
X-11383095Y5520239D02*
X-11430714Y5567858D01*
%TO.C,SW1*%
X12499761Y-11853332D02*
X12547380Y-11710475D01*
X12547380Y-11710475D02*
X12547380Y-11472380D01*
X12547380Y-11472380D02*
X12499761Y-11377142D01*
X12499761Y-11377142D02*
X12452142Y-11329523D01*
X12452142Y-11329523D02*
X12356904Y-11281904D01*
X12356904Y-11281904D02*
X12261666Y-11281904D01*
X12261666Y-11281904D02*
X12166428Y-11329523D01*
X12166428Y-11329523D02*
X12118809Y-11377142D01*
X12118809Y-11377142D02*
X12071190Y-11472380D01*
X12071190Y-11472380D02*
X12023571Y-11662856D01*
X12023571Y-11662856D02*
X11975952Y-11758094D01*
X11975952Y-11758094D02*
X11928333Y-11805713D01*
X11928333Y-11805713D02*
X11833095Y-11853332D01*
X11833095Y-11853332D02*
X11737857Y-11853332D01*
X11737857Y-11853332D02*
X11642619Y-11805713D01*
X11642619Y-11805713D02*
X11595000Y-11758094D01*
X11595000Y-11758094D02*
X11547380Y-11662856D01*
X11547380Y-11662856D02*
X11547380Y-11424761D01*
X11547380Y-11424761D02*
X11595000Y-11281904D01*
X11547380Y-10948570D02*
X12547380Y-10710475D01*
X12547380Y-10710475D02*
X11833095Y-10519999D01*
X11833095Y-10519999D02*
X12547380Y-10329523D01*
X12547380Y-10329523D02*
X11547380Y-10091428D01*
X12547380Y-9186666D02*
X12547380Y-9758094D01*
X12547380Y-9472380D02*
X11547380Y-9472380D01*
X11547380Y-9472380D02*
X11690238Y-9567618D01*
X11690238Y-9567618D02*
X11785476Y-9662856D01*
X11785476Y-9662856D02*
X11833095Y-9758094D01*
%TO.C,U9*%
X18738095Y-1767380D02*
X18738095Y-2576904D01*
X18738095Y-2576904D02*
X18785714Y-2672142D01*
X18785714Y-2672142D02*
X18833333Y-2719761D01*
X18833333Y-2719761D02*
X18928571Y-2767380D01*
X18928571Y-2767380D02*
X19119047Y-2767380D01*
X19119047Y-2767380D02*
X19214285Y-2719761D01*
X19214285Y-2719761D02*
X19261904Y-2672142D01*
X19261904Y-2672142D02*
X19309523Y-2576904D01*
X19309523Y-2576904D02*
X19309523Y-1767380D01*
X19833333Y-2767380D02*
X20023809Y-2767380D01*
X20023809Y-2767380D02*
X20119047Y-2719761D01*
X20119047Y-2719761D02*
X20166666Y-2672142D01*
X20166666Y-2672142D02*
X20261904Y-2529285D01*
X20261904Y-2529285D02*
X20309523Y-2338809D01*
X20309523Y-2338809D02*
X20309523Y-1957857D01*
X20309523Y-1957857D02*
X20261904Y-1862619D01*
X20261904Y-1862619D02*
X20214285Y-1815000D01*
X20214285Y-1815000D02*
X20119047Y-1767380D01*
X20119047Y-1767380D02*
X19928571Y-1767380D01*
X19928571Y-1767380D02*
X19833333Y-1815000D01*
X19833333Y-1815000D02*
X19785714Y-1862619D01*
X19785714Y-1862619D02*
X19738095Y-1957857D01*
X19738095Y-1957857D02*
X19738095Y-2195952D01*
X19738095Y-2195952D02*
X19785714Y-2291190D01*
X19785714Y-2291190D02*
X19833333Y-2338809D01*
X19833333Y-2338809D02*
X19928571Y-2386428D01*
X19928571Y-2386428D02*
X20119047Y-2386428D01*
X20119047Y-2386428D02*
X20214285Y-2338809D01*
X20214285Y-2338809D02*
X20261904Y-2291190D01*
X20261904Y-2291190D02*
X20309523Y-2195952D01*
%TO.C,U2*%
X9338095Y-12677380D02*
X9338095Y-13486904D01*
X9338095Y-13486904D02*
X9385714Y-13582142D01*
X9385714Y-13582142D02*
X9433333Y-13629761D01*
X9433333Y-13629761D02*
X9528571Y-13677380D01*
X9528571Y-13677380D02*
X9719047Y-13677380D01*
X9719047Y-13677380D02*
X9814285Y-13629761D01*
X9814285Y-13629761D02*
X9861904Y-13582142D01*
X9861904Y-13582142D02*
X9909523Y-13486904D01*
X9909523Y-13486904D02*
X9909523Y-12677380D01*
X10338095Y-12772619D02*
X10385714Y-12725000D01*
X10385714Y-12725000D02*
X10480952Y-12677380D01*
X10480952Y-12677380D02*
X10719047Y-12677380D01*
X10719047Y-12677380D02*
X10814285Y-12725000D01*
X10814285Y-12725000D02*
X10861904Y-12772619D01*
X10861904Y-12772619D02*
X10909523Y-12867857D01*
X10909523Y-12867857D02*
X10909523Y-12963095D01*
X10909523Y-12963095D02*
X10861904Y-13105952D01*
X10861904Y-13105952D02*
X10290476Y-13677380D01*
X10290476Y-13677380D02*
X10909523Y-13677380D01*
%TO.C,Y1*%
X-17418810Y15628810D02*
X-16942620Y15628810D01*
X-17942620Y15295477D02*
X-17418810Y15628810D01*
X-17418810Y15628810D02*
X-17942620Y15962143D01*
X-16942620Y16819286D02*
X-16942620Y16247858D01*
X-16942620Y16533572D02*
X-17942620Y16533572D01*
X-17942620Y16533572D02*
X-17799762Y16438334D01*
X-17799762Y16438334D02*
X-17704524Y16343096D01*
X-17704524Y16343096D02*
X-17656905Y16247858D01*
%TO.C,U3*%
X626666Y20922834D02*
X626666Y20356167D01*
X626666Y20356167D02*
X660000Y20289500D01*
X660000Y20289500D02*
X693333Y20256167D01*
X693333Y20256167D02*
X760000Y20222834D01*
X760000Y20222834D02*
X893333Y20222834D01*
X893333Y20222834D02*
X960000Y20256167D01*
X960000Y20256167D02*
X993333Y20289500D01*
X993333Y20289500D02*
X1026666Y20356167D01*
X1026666Y20356167D02*
X1026666Y20922834D01*
X1293333Y20922834D02*
X1726666Y20922834D01*
X1726666Y20922834D02*
X1493333Y20656167D01*
X1493333Y20656167D02*
X1593333Y20656167D01*
X1593333Y20656167D02*
X1659999Y20622834D01*
X1659999Y20622834D02*
X1693333Y20589500D01*
X1693333Y20589500D02*
X1726666Y20522834D01*
X1726666Y20522834D02*
X1726666Y20356167D01*
X1726666Y20356167D02*
X1693333Y20289500D01*
X1693333Y20289500D02*
X1659999Y20256167D01*
X1659999Y20256167D02*
X1593333Y20222834D01*
X1593333Y20222834D02*
X1393333Y20222834D01*
X1393333Y20222834D02*
X1326666Y20256167D01*
X1326666Y20256167D02*
X1293333Y20289500D01*
X211666Y24784500D02*
X445000Y24784500D01*
X545000Y24417834D02*
X211666Y24417834D01*
X211666Y24417834D02*
X211666Y25117834D01*
X211666Y25117834D02*
X545000Y25117834D01*
X811666Y24451167D02*
X911666Y24417834D01*
X911666Y24417834D02*
X1078333Y24417834D01*
X1078333Y24417834D02*
X1144999Y24451167D01*
X1144999Y24451167D02*
X1178333Y24484500D01*
X1178333Y24484500D02*
X1211666Y24551167D01*
X1211666Y24551167D02*
X1211666Y24617834D01*
X1211666Y24617834D02*
X1178333Y24684500D01*
X1178333Y24684500D02*
X1144999Y24717834D01*
X1144999Y24717834D02*
X1078333Y24751167D01*
X1078333Y24751167D02*
X944999Y24784500D01*
X944999Y24784500D02*
X878333Y24817834D01*
X878333Y24817834D02*
X844999Y24851167D01*
X844999Y24851167D02*
X811666Y24917834D01*
X811666Y24917834D02*
X811666Y24984500D01*
X811666Y24984500D02*
X844999Y25051167D01*
X844999Y25051167D02*
X878333Y25084500D01*
X878333Y25084500D02*
X944999Y25117834D01*
X944999Y25117834D02*
X1111666Y25117834D01*
X1111666Y25117834D02*
X1211666Y25084500D01*
X1511666Y24417834D02*
X1511666Y25117834D01*
X1511666Y25117834D02*
X1678333Y25117834D01*
X1678333Y25117834D02*
X1778333Y25084500D01*
X1778333Y25084500D02*
X1845000Y25017834D01*
X1845000Y25017834D02*
X1878333Y24951167D01*
X1878333Y24951167D02*
X1911666Y24817834D01*
X1911666Y24817834D02*
X1911666Y24717834D01*
X1911666Y24717834D02*
X1878333Y24584500D01*
X1878333Y24584500D02*
X1845000Y24517834D01*
X1845000Y24517834D02*
X1778333Y24451167D01*
X1778333Y24451167D02*
X1678333Y24417834D01*
X1678333Y24417834D02*
X1511666Y24417834D01*
%TO.C,C9*%
X14463333Y25237858D02*
X14415714Y25190239D01*
X14415714Y25190239D02*
X14272857Y25142620D01*
X14272857Y25142620D02*
X14177619Y25142620D01*
X14177619Y25142620D02*
X14034762Y25190239D01*
X14034762Y25190239D02*
X13939524Y25285477D01*
X13939524Y25285477D02*
X13891905Y25380715D01*
X13891905Y25380715D02*
X13844286Y25571191D01*
X13844286Y25571191D02*
X13844286Y25714048D01*
X13844286Y25714048D02*
X13891905Y25904524D01*
X13891905Y25904524D02*
X13939524Y25999762D01*
X13939524Y25999762D02*
X14034762Y26095000D01*
X14034762Y26095000D02*
X14177619Y26142620D01*
X14177619Y26142620D02*
X14272857Y26142620D01*
X14272857Y26142620D02*
X14415714Y26095000D01*
X14415714Y26095000D02*
X14463333Y26047381D01*
X14939524Y25142620D02*
X15130000Y25142620D01*
X15130000Y25142620D02*
X15225238Y25190239D01*
X15225238Y25190239D02*
X15272857Y25237858D01*
X15272857Y25237858D02*
X15368095Y25380715D01*
X15368095Y25380715D02*
X15415714Y25571191D01*
X15415714Y25571191D02*
X15415714Y25952143D01*
X15415714Y25952143D02*
X15368095Y26047381D01*
X15368095Y26047381D02*
X15320476Y26095000D01*
X15320476Y26095000D02*
X15225238Y26142620D01*
X15225238Y26142620D02*
X15034762Y26142620D01*
X15034762Y26142620D02*
X14939524Y26095000D01*
X14939524Y26095000D02*
X14891905Y26047381D01*
X14891905Y26047381D02*
X14844286Y25952143D01*
X14844286Y25952143D02*
X14844286Y25714048D01*
X14844286Y25714048D02*
X14891905Y25618810D01*
X14891905Y25618810D02*
X14939524Y25571191D01*
X14939524Y25571191D02*
X15034762Y25523572D01*
X15034762Y25523572D02*
X15225238Y25523572D01*
X15225238Y25523572D02*
X15320476Y25571191D01*
X15320476Y25571191D02*
X15368095Y25618810D01*
X15368095Y25618810D02*
X15415714Y25714048D01*
%TO.C,C2*%
X-21756667Y13117858D02*
X-21804286Y13070239D01*
X-21804286Y13070239D02*
X-21947143Y13022620D01*
X-21947143Y13022620D02*
X-22042381Y13022620D01*
X-22042381Y13022620D02*
X-22185238Y13070239D01*
X-22185238Y13070239D02*
X-22280476Y13165477D01*
X-22280476Y13165477D02*
X-22328095Y13260715D01*
X-22328095Y13260715D02*
X-22375714Y13451191D01*
X-22375714Y13451191D02*
X-22375714Y13594048D01*
X-22375714Y13594048D02*
X-22328095Y13784524D01*
X-22328095Y13784524D02*
X-22280476Y13879762D01*
X-22280476Y13879762D02*
X-22185238Y13975000D01*
X-22185238Y13975000D02*
X-22042381Y14022620D01*
X-22042381Y14022620D02*
X-21947143Y14022620D01*
X-21947143Y14022620D02*
X-21804286Y13975000D01*
X-21804286Y13975000D02*
X-21756667Y13927381D01*
X-21375714Y13927381D02*
X-21328095Y13975000D01*
X-21328095Y13975000D02*
X-21232857Y14022620D01*
X-21232857Y14022620D02*
X-20994762Y14022620D01*
X-20994762Y14022620D02*
X-20899524Y13975000D01*
X-20899524Y13975000D02*
X-20851905Y13927381D01*
X-20851905Y13927381D02*
X-20804286Y13832143D01*
X-20804286Y13832143D02*
X-20804286Y13736905D01*
X-20804286Y13736905D02*
X-20851905Y13594048D01*
X-20851905Y13594048D02*
X-21423333Y13022620D01*
X-21423333Y13022620D02*
X-20804286Y13022620D01*
%TO.C,C11*%
X8994642Y-13042857D02*
X9042261Y-13090476D01*
X9042261Y-13090476D02*
X9089880Y-13233333D01*
X9089880Y-13233333D02*
X9089880Y-13328571D01*
X9089880Y-13328571D02*
X9042261Y-13471428D01*
X9042261Y-13471428D02*
X8947023Y-13566666D01*
X8947023Y-13566666D02*
X8851785Y-13614285D01*
X8851785Y-13614285D02*
X8661309Y-13661904D01*
X8661309Y-13661904D02*
X8518452Y-13661904D01*
X8518452Y-13661904D02*
X8327976Y-13614285D01*
X8327976Y-13614285D02*
X8232738Y-13566666D01*
X8232738Y-13566666D02*
X8137500Y-13471428D01*
X8137500Y-13471428D02*
X8089880Y-13328571D01*
X8089880Y-13328571D02*
X8089880Y-13233333D01*
X8089880Y-13233333D02*
X8137500Y-13090476D01*
X8137500Y-13090476D02*
X8185119Y-13042857D01*
X9089880Y-12090476D02*
X9089880Y-12661904D01*
X9089880Y-12376190D02*
X8089880Y-12376190D01*
X8089880Y-12376190D02*
X8232738Y-12471428D01*
X8232738Y-12471428D02*
X8327976Y-12566666D01*
X8327976Y-12566666D02*
X8375595Y-12661904D01*
X9089880Y-11138095D02*
X9089880Y-11709523D01*
X9089880Y-11423809D02*
X8089880Y-11423809D01*
X8089880Y-11423809D02*
X8232738Y-11519047D01*
X8232738Y-11519047D02*
X8327976Y-11614285D01*
X8327976Y-11614285D02*
X8375595Y-11709523D01*
%TO.C,SW4*%
X5633332Y8189762D02*
X5490475Y8237381D01*
X5490475Y8237381D02*
X5252380Y8237381D01*
X5252380Y8237381D02*
X5157142Y8189762D01*
X5157142Y8189762D02*
X5109523Y8142143D01*
X5109523Y8142143D02*
X5061904Y8046905D01*
X5061904Y8046905D02*
X5061904Y7951667D01*
X5061904Y7951667D02*
X5109523Y7856429D01*
X5109523Y7856429D02*
X5157142Y7808810D01*
X5157142Y7808810D02*
X5252380Y7761191D01*
X5252380Y7761191D02*
X5442856Y7713572D01*
X5442856Y7713572D02*
X5538094Y7665953D01*
X5538094Y7665953D02*
X5585713Y7618334D01*
X5585713Y7618334D02*
X5633332Y7523096D01*
X5633332Y7523096D02*
X5633332Y7427858D01*
X5633332Y7427858D02*
X5585713Y7332620D01*
X5585713Y7332620D02*
X5538094Y7285000D01*
X5538094Y7285000D02*
X5442856Y7237381D01*
X5442856Y7237381D02*
X5204761Y7237381D01*
X5204761Y7237381D02*
X5061904Y7285000D01*
X4728570Y7237381D02*
X4490475Y8237381D01*
X4490475Y8237381D02*
X4299999Y7523096D01*
X4299999Y7523096D02*
X4109523Y8237381D01*
X4109523Y8237381D02*
X3871428Y7237381D01*
X3061904Y7570715D02*
X3061904Y8237381D01*
X3299999Y7189762D02*
X3538094Y7904048D01*
X3538094Y7904048D02*
X2919047Y7904048D01*
%TO.C,U1*%
X14028095Y15372620D02*
X14028095Y14563096D01*
X14028095Y14563096D02*
X14075714Y14467858D01*
X14075714Y14467858D02*
X14123333Y14420239D01*
X14123333Y14420239D02*
X14218571Y14372620D01*
X14218571Y14372620D02*
X14409047Y14372620D01*
X14409047Y14372620D02*
X14504285Y14420239D01*
X14504285Y14420239D02*
X14551904Y14467858D01*
X14551904Y14467858D02*
X14599523Y14563096D01*
X14599523Y14563096D02*
X14599523Y15372620D01*
X15599523Y14372620D02*
X15028095Y14372620D01*
X15313809Y14372620D02*
X15313809Y15372620D01*
X15313809Y15372620D02*
X15218571Y15229762D01*
X15218571Y15229762D02*
X15123333Y15134524D01*
X15123333Y15134524D02*
X15028095Y15086905D01*
%TO.C,C17*%
X-20687858Y767143D02*
X-20640239Y719524D01*
X-20640239Y719524D02*
X-20592620Y576667D01*
X-20592620Y576667D02*
X-20592620Y481429D01*
X-20592620Y481429D02*
X-20640239Y338572D01*
X-20640239Y338572D02*
X-20735477Y243334D01*
X-20735477Y243334D02*
X-20830715Y195715D01*
X-20830715Y195715D02*
X-21021191Y148096D01*
X-21021191Y148096D02*
X-21164048Y148096D01*
X-21164048Y148096D02*
X-21354524Y195715D01*
X-21354524Y195715D02*
X-21449762Y243334D01*
X-21449762Y243334D02*
X-21545000Y338572D01*
X-21545000Y338572D02*
X-21592620Y481429D01*
X-21592620Y481429D02*
X-21592620Y576667D01*
X-21592620Y576667D02*
X-21545000Y719524D01*
X-21545000Y719524D02*
X-21497381Y767143D01*
X-20592620Y1719524D02*
X-20592620Y1148096D01*
X-20592620Y1433810D02*
X-21592620Y1433810D01*
X-21592620Y1433810D02*
X-21449762Y1338572D01*
X-21449762Y1338572D02*
X-21354524Y1243334D01*
X-21354524Y1243334D02*
X-21306905Y1148096D01*
X-21592620Y2052858D02*
X-21592620Y2719524D01*
X-21592620Y2719524D02*
X-20592620Y2290953D01*
%TO.C,C8*%
X-16817858Y11023334D02*
X-16770239Y10975715D01*
X-16770239Y10975715D02*
X-16722620Y10832858D01*
X-16722620Y10832858D02*
X-16722620Y10737620D01*
X-16722620Y10737620D02*
X-16770239Y10594763D01*
X-16770239Y10594763D02*
X-16865477Y10499525D01*
X-16865477Y10499525D02*
X-16960715Y10451906D01*
X-16960715Y10451906D02*
X-17151191Y10404287D01*
X-17151191Y10404287D02*
X-17294048Y10404287D01*
X-17294048Y10404287D02*
X-17484524Y10451906D01*
X-17484524Y10451906D02*
X-17579762Y10499525D01*
X-17579762Y10499525D02*
X-17675000Y10594763D01*
X-17675000Y10594763D02*
X-17722620Y10737620D01*
X-17722620Y10737620D02*
X-17722620Y10832858D01*
X-17722620Y10832858D02*
X-17675000Y10975715D01*
X-17675000Y10975715D02*
X-17627381Y11023334D01*
X-17294048Y11594763D02*
X-17341667Y11499525D01*
X-17341667Y11499525D02*
X-17389286Y11451906D01*
X-17389286Y11451906D02*
X-17484524Y11404287D01*
X-17484524Y11404287D02*
X-17532143Y11404287D01*
X-17532143Y11404287D02*
X-17627381Y11451906D01*
X-17627381Y11451906D02*
X-17675000Y11499525D01*
X-17675000Y11499525D02*
X-17722620Y11594763D01*
X-17722620Y11594763D02*
X-17722620Y11785239D01*
X-17722620Y11785239D02*
X-17675000Y11880477D01*
X-17675000Y11880477D02*
X-17627381Y11928096D01*
X-17627381Y11928096D02*
X-17532143Y11975715D01*
X-17532143Y11975715D02*
X-17484524Y11975715D01*
X-17484524Y11975715D02*
X-17389286Y11928096D01*
X-17389286Y11928096D02*
X-17341667Y11880477D01*
X-17341667Y11880477D02*
X-17294048Y11785239D01*
X-17294048Y11785239D02*
X-17294048Y11594763D01*
X-17294048Y11594763D02*
X-17246429Y11499525D01*
X-17246429Y11499525D02*
X-17198810Y11451906D01*
X-17198810Y11451906D02*
X-17103572Y11404287D01*
X-17103572Y11404287D02*
X-16913096Y11404287D01*
X-16913096Y11404287D02*
X-16817858Y11451906D01*
X-16817858Y11451906D02*
X-16770239Y11499525D01*
X-16770239Y11499525D02*
X-16722620Y11594763D01*
X-16722620Y11594763D02*
X-16722620Y11785239D01*
X-16722620Y11785239D02*
X-16770239Y11880477D01*
X-16770239Y11880477D02*
X-16817858Y11928096D01*
X-16817858Y11928096D02*
X-16913096Y11975715D01*
X-16913096Y11975715D02*
X-17103572Y11975715D01*
X-17103572Y11975715D02*
X-17198810Y11928096D01*
X-17198810Y11928096D02*
X-17246429Y11880477D01*
X-17246429Y11880477D02*
X-17294048Y11785239D01*
%TO.C,C10*%
X9337142Y12367858D02*
X9289523Y12320239D01*
X9289523Y12320239D02*
X9146666Y12272620D01*
X9146666Y12272620D02*
X9051428Y12272620D01*
X9051428Y12272620D02*
X8908571Y12320239D01*
X8908571Y12320239D02*
X8813333Y12415477D01*
X8813333Y12415477D02*
X8765714Y12510715D01*
X8765714Y12510715D02*
X8718095Y12701191D01*
X8718095Y12701191D02*
X8718095Y12844048D01*
X8718095Y12844048D02*
X8765714Y13034524D01*
X8765714Y13034524D02*
X8813333Y13129762D01*
X8813333Y13129762D02*
X8908571Y13225000D01*
X8908571Y13225000D02*
X9051428Y13272620D01*
X9051428Y13272620D02*
X9146666Y13272620D01*
X9146666Y13272620D02*
X9289523Y13225000D01*
X9289523Y13225000D02*
X9337142Y13177381D01*
X10289523Y12272620D02*
X9718095Y12272620D01*
X10003809Y12272620D02*
X10003809Y13272620D01*
X10003809Y13272620D02*
X9908571Y13129762D01*
X9908571Y13129762D02*
X9813333Y13034524D01*
X9813333Y13034524D02*
X9718095Y12986905D01*
X10908571Y13272620D02*
X11003809Y13272620D01*
X11003809Y13272620D02*
X11099047Y13225000D01*
X11099047Y13225000D02*
X11146666Y13177381D01*
X11146666Y13177381D02*
X11194285Y13082143D01*
X11194285Y13082143D02*
X11241904Y12891667D01*
X11241904Y12891667D02*
X11241904Y12653572D01*
X11241904Y12653572D02*
X11194285Y12463096D01*
X11194285Y12463096D02*
X11146666Y12367858D01*
X11146666Y12367858D02*
X11099047Y12320239D01*
X11099047Y12320239D02*
X11003809Y12272620D01*
X11003809Y12272620D02*
X10908571Y12272620D01*
X10908571Y12272620D02*
X10813333Y12320239D01*
X10813333Y12320239D02*
X10765714Y12367858D01*
X10765714Y12367858D02*
X10718095Y12463096D01*
X10718095Y12463096D02*
X10670476Y12653572D01*
X10670476Y12653572D02*
X10670476Y12891667D01*
X10670476Y12891667D02*
X10718095Y13082143D01*
X10718095Y13082143D02*
X10765714Y13177381D01*
X10765714Y13177381D02*
X10813333Y13225000D01*
X10813333Y13225000D02*
X10908571Y13272620D01*
%TO.C,SW2*%
X-11293333Y-7369761D02*
X-11150476Y-7417380D01*
X-11150476Y-7417380D02*
X-10912381Y-7417380D01*
X-10912381Y-7417380D02*
X-10817143Y-7369761D01*
X-10817143Y-7369761D02*
X-10769524Y-7322142D01*
X-10769524Y-7322142D02*
X-10721905Y-7226904D01*
X-10721905Y-7226904D02*
X-10721905Y-7131666D01*
X-10721905Y-7131666D02*
X-10769524Y-7036428D01*
X-10769524Y-7036428D02*
X-10817143Y-6988809D01*
X-10817143Y-6988809D02*
X-10912381Y-6941190D01*
X-10912381Y-6941190D02*
X-11102857Y-6893571D01*
X-11102857Y-6893571D02*
X-11198095Y-6845952D01*
X-11198095Y-6845952D02*
X-11245714Y-6798333D01*
X-11245714Y-6798333D02*
X-11293333Y-6703095D01*
X-11293333Y-6703095D02*
X-11293333Y-6607857D01*
X-11293333Y-6607857D02*
X-11245714Y-6512619D01*
X-11245714Y-6512619D02*
X-11198095Y-6465000D01*
X-11198095Y-6465000D02*
X-11102857Y-6417380D01*
X-11102857Y-6417380D02*
X-10864762Y-6417380D01*
X-10864762Y-6417380D02*
X-10721905Y-6465000D01*
X-10388571Y-6417380D02*
X-10150476Y-7417380D01*
X-10150476Y-7417380D02*
X-9960000Y-6703095D01*
X-9960000Y-6703095D02*
X-9769524Y-7417380D01*
X-9769524Y-7417380D02*
X-9531428Y-6417380D01*
X-9198095Y-6512619D02*
X-9150476Y-6465000D01*
X-9150476Y-6465000D02*
X-9055238Y-6417380D01*
X-9055238Y-6417380D02*
X-8817143Y-6417380D01*
X-8817143Y-6417380D02*
X-8721905Y-6465000D01*
X-8721905Y-6465000D02*
X-8674286Y-6512619D01*
X-8674286Y-6512619D02*
X-8626667Y-6607857D01*
X-8626667Y-6607857D02*
X-8626667Y-6703095D01*
X-8626667Y-6703095D02*
X-8674286Y-6845952D01*
X-8674286Y-6845952D02*
X-9245714Y-7417380D01*
X-9245714Y-7417380D02*
X-8626667Y-7417380D01*
%TO.C,C3*%
X-12361667Y22517858D02*
X-12409286Y22470239D01*
X-12409286Y22470239D02*
X-12552143Y22422620D01*
X-12552143Y22422620D02*
X-12647381Y22422620D01*
X-12647381Y22422620D02*
X-12790238Y22470239D01*
X-12790238Y22470239D02*
X-12885476Y22565477D01*
X-12885476Y22565477D02*
X-12933095Y22660715D01*
X-12933095Y22660715D02*
X-12980714Y22851191D01*
X-12980714Y22851191D02*
X-12980714Y22994048D01*
X-12980714Y22994048D02*
X-12933095Y23184524D01*
X-12933095Y23184524D02*
X-12885476Y23279762D01*
X-12885476Y23279762D02*
X-12790238Y23375000D01*
X-12790238Y23375000D02*
X-12647381Y23422620D01*
X-12647381Y23422620D02*
X-12552143Y23422620D01*
X-12552143Y23422620D02*
X-12409286Y23375000D01*
X-12409286Y23375000D02*
X-12361667Y23327381D01*
X-12028333Y23422620D02*
X-11409286Y23422620D01*
X-11409286Y23422620D02*
X-11742619Y23041667D01*
X-11742619Y23041667D02*
X-11599762Y23041667D01*
X-11599762Y23041667D02*
X-11504524Y22994048D01*
X-11504524Y22994048D02*
X-11456905Y22946429D01*
X-11456905Y22946429D02*
X-11409286Y22851191D01*
X-11409286Y22851191D02*
X-11409286Y22613096D01*
X-11409286Y22613096D02*
X-11456905Y22517858D01*
X-11456905Y22517858D02*
X-11504524Y22470239D01*
X-11504524Y22470239D02*
X-11599762Y22422620D01*
X-11599762Y22422620D02*
X-11885476Y22422620D01*
X-11885476Y22422620D02*
X-11980714Y22470239D01*
X-11980714Y22470239D02*
X-12028333Y22517858D01*
%TO.C,J2*%
X-19082620Y27191667D02*
X-18368334Y27191667D01*
X-18368334Y27191667D02*
X-18225477Y27144048D01*
X-18225477Y27144048D02*
X-18130239Y27048810D01*
X-18130239Y27048810D02*
X-18082620Y26905953D01*
X-18082620Y26905953D02*
X-18082620Y26810715D01*
X-18987381Y27620239D02*
X-19035000Y27667858D01*
X-19035000Y27667858D02*
X-19082620Y27763096D01*
X-19082620Y27763096D02*
X-19082620Y28001191D01*
X-19082620Y28001191D02*
X-19035000Y28096429D01*
X-19035000Y28096429D02*
X-18987381Y28144048D01*
X-18987381Y28144048D02*
X-18892143Y28191667D01*
X-18892143Y28191667D02*
X-18796905Y28191667D01*
X-18796905Y28191667D02*
X-18654048Y28144048D01*
X-18654048Y28144048D02*
X-18082620Y27572620D01*
X-18082620Y27572620D02*
X-18082620Y28191667D01*
%TO.C,R5*%
X-16826667Y13952620D02*
X-17160000Y14428810D01*
X-17398095Y13952620D02*
X-17398095Y14952620D01*
X-17398095Y14952620D02*
X-17017143Y14952620D01*
X-17017143Y14952620D02*
X-16921905Y14905000D01*
X-16921905Y14905000D02*
X-16874286Y14857381D01*
X-16874286Y14857381D02*
X-16826667Y14762143D01*
X-16826667Y14762143D02*
X-16826667Y14619286D01*
X-16826667Y14619286D02*
X-16874286Y14524048D01*
X-16874286Y14524048D02*
X-16921905Y14476429D01*
X-16921905Y14476429D02*
X-17017143Y14428810D01*
X-17017143Y14428810D02*
X-17398095Y14428810D01*
X-15921905Y14952620D02*
X-16398095Y14952620D01*
X-16398095Y14952620D02*
X-16445714Y14476429D01*
X-16445714Y14476429D02*
X-16398095Y14524048D01*
X-16398095Y14524048D02*
X-16302857Y14571667D01*
X-16302857Y14571667D02*
X-16064762Y14571667D01*
X-16064762Y14571667D02*
X-15969524Y14524048D01*
X-15969524Y14524048D02*
X-15921905Y14476429D01*
X-15921905Y14476429D02*
X-15874286Y14381191D01*
X-15874286Y14381191D02*
X-15874286Y14143096D01*
X-15874286Y14143096D02*
X-15921905Y14047858D01*
X-15921905Y14047858D02*
X-15969524Y14000239D01*
X-15969524Y14000239D02*
X-16064762Y13952620D01*
X-16064762Y13952620D02*
X-16302857Y13952620D01*
X-16302857Y13952620D02*
X-16398095Y14000239D01*
X-16398095Y14000239D02*
X-16445714Y14047858D01*
%TO.C,U8*%
X-761905Y-1767380D02*
X-761905Y-2576904D01*
X-761905Y-2576904D02*
X-714286Y-2672142D01*
X-714286Y-2672142D02*
X-666667Y-2719761D01*
X-666667Y-2719761D02*
X-571429Y-2767380D01*
X-571429Y-2767380D02*
X-380953Y-2767380D01*
X-380953Y-2767380D02*
X-285715Y-2719761D01*
X-285715Y-2719761D02*
X-238096Y-2672142D01*
X-238096Y-2672142D02*
X-190477Y-2576904D01*
X-190477Y-2576904D02*
X-190477Y-1767380D01*
X428571Y-2195952D02*
X333333Y-2148333D01*
X333333Y-2148333D02*
X285714Y-2100714D01*
X285714Y-2100714D02*
X238095Y-2005476D01*
X238095Y-2005476D02*
X238095Y-1957857D01*
X238095Y-1957857D02*
X285714Y-1862619D01*
X285714Y-1862619D02*
X333333Y-1815000D01*
X333333Y-1815000D02*
X428571Y-1767380D01*
X428571Y-1767380D02*
X619047Y-1767380D01*
X619047Y-1767380D02*
X714285Y-1815000D01*
X714285Y-1815000D02*
X761904Y-1862619D01*
X761904Y-1862619D02*
X809523Y-1957857D01*
X809523Y-1957857D02*
X809523Y-2005476D01*
X809523Y-2005476D02*
X761904Y-2100714D01*
X761904Y-2100714D02*
X714285Y-2148333D01*
X714285Y-2148333D02*
X619047Y-2195952D01*
X619047Y-2195952D02*
X428571Y-2195952D01*
X428571Y-2195952D02*
X333333Y-2243571D01*
X333333Y-2243571D02*
X285714Y-2291190D01*
X285714Y-2291190D02*
X238095Y-2386428D01*
X238095Y-2386428D02*
X238095Y-2576904D01*
X238095Y-2576904D02*
X285714Y-2672142D01*
X285714Y-2672142D02*
X333333Y-2719761D01*
X333333Y-2719761D02*
X428571Y-2767380D01*
X428571Y-2767380D02*
X619047Y-2767380D01*
X619047Y-2767380D02*
X714285Y-2719761D01*
X714285Y-2719761D02*
X761904Y-2672142D01*
X761904Y-2672142D02*
X809523Y-2576904D01*
X809523Y-2576904D02*
X809523Y-2386428D01*
X809523Y-2386428D02*
X761904Y-2291190D01*
X761904Y-2291190D02*
X714285Y-2243571D01*
X714285Y-2243571D02*
X619047Y-2195952D01*
%TO.C,C6*%
X-2536667Y19907858D02*
X-2584286Y19860239D01*
X-2584286Y19860239D02*
X-2727143Y19812620D01*
X-2727143Y19812620D02*
X-2822381Y19812620D01*
X-2822381Y19812620D02*
X-2965238Y19860239D01*
X-2965238Y19860239D02*
X-3060476Y19955477D01*
X-3060476Y19955477D02*
X-3108095Y20050715D01*
X-3108095Y20050715D02*
X-3155714Y20241191D01*
X-3155714Y20241191D02*
X-3155714Y20384048D01*
X-3155714Y20384048D02*
X-3108095Y20574524D01*
X-3108095Y20574524D02*
X-3060476Y20669762D01*
X-3060476Y20669762D02*
X-2965238Y20765000D01*
X-2965238Y20765000D02*
X-2822381Y20812620D01*
X-2822381Y20812620D02*
X-2727143Y20812620D01*
X-2727143Y20812620D02*
X-2584286Y20765000D01*
X-2584286Y20765000D02*
X-2536667Y20717381D01*
X-1679524Y20812620D02*
X-1870000Y20812620D01*
X-1870000Y20812620D02*
X-1965238Y20765000D01*
X-1965238Y20765000D02*
X-2012857Y20717381D01*
X-2012857Y20717381D02*
X-2108095Y20574524D01*
X-2108095Y20574524D02*
X-2155714Y20384048D01*
X-2155714Y20384048D02*
X-2155714Y20003096D01*
X-2155714Y20003096D02*
X-2108095Y19907858D01*
X-2108095Y19907858D02*
X-2060476Y19860239D01*
X-2060476Y19860239D02*
X-1965238Y19812620D01*
X-1965238Y19812620D02*
X-1774762Y19812620D01*
X-1774762Y19812620D02*
X-1679524Y19860239D01*
X-1679524Y19860239D02*
X-1631905Y19907858D01*
X-1631905Y19907858D02*
X-1584286Y20003096D01*
X-1584286Y20003096D02*
X-1584286Y20241191D01*
X-1584286Y20241191D02*
X-1631905Y20336429D01*
X-1631905Y20336429D02*
X-1679524Y20384048D01*
X-1679524Y20384048D02*
X-1774762Y20431667D01*
X-1774762Y20431667D02*
X-1965238Y20431667D01*
X-1965238Y20431667D02*
X-2060476Y20384048D01*
X-2060476Y20384048D02*
X-2108095Y20336429D01*
X-2108095Y20336429D02*
X-2155714Y20241191D01*
%TO.C,C19*%
X1622142Y-1422857D02*
X1669761Y-1470476D01*
X1669761Y-1470476D02*
X1717380Y-1613333D01*
X1717380Y-1613333D02*
X1717380Y-1708571D01*
X1717380Y-1708571D02*
X1669761Y-1851428D01*
X1669761Y-1851428D02*
X1574523Y-1946666D01*
X1574523Y-1946666D02*
X1479285Y-1994285D01*
X1479285Y-1994285D02*
X1288809Y-2041904D01*
X1288809Y-2041904D02*
X1145952Y-2041904D01*
X1145952Y-2041904D02*
X955476Y-1994285D01*
X955476Y-1994285D02*
X860238Y-1946666D01*
X860238Y-1946666D02*
X765000Y-1851428D01*
X765000Y-1851428D02*
X717380Y-1708571D01*
X717380Y-1708571D02*
X717380Y-1613333D01*
X717380Y-1613333D02*
X765000Y-1470476D01*
X765000Y-1470476D02*
X812619Y-1422857D01*
X1717380Y-470476D02*
X1717380Y-1041904D01*
X1717380Y-756190D02*
X717380Y-756190D01*
X717380Y-756190D02*
X860238Y-851428D01*
X860238Y-851428D02*
X955476Y-946666D01*
X955476Y-946666D02*
X1003095Y-1041904D01*
X1717380Y5715D02*
X1717380Y196191D01*
X1717380Y196191D02*
X1669761Y291429D01*
X1669761Y291429D02*
X1622142Y339048D01*
X1622142Y339048D02*
X1479285Y434286D01*
X1479285Y434286D02*
X1288809Y481905D01*
X1288809Y481905D02*
X907857Y481905D01*
X907857Y481905D02*
X812619Y434286D01*
X812619Y434286D02*
X765000Y386667D01*
X765000Y386667D02*
X717380Y291429D01*
X717380Y291429D02*
X717380Y100953D01*
X717380Y100953D02*
X765000Y5715D01*
X765000Y5715D02*
X812619Y-41904D01*
X812619Y-41904D02*
X907857Y-89523D01*
X907857Y-89523D02*
X1145952Y-89523D01*
X1145952Y-89523D02*
X1241190Y-41904D01*
X1241190Y-41904D02*
X1288809Y5715D01*
X1288809Y5715D02*
X1336428Y100953D01*
X1336428Y100953D02*
X1336428Y291429D01*
X1336428Y291429D02*
X1288809Y386667D01*
X1288809Y386667D02*
X1241190Y434286D01*
X1241190Y434286D02*
X1145952Y481905D01*
%TO.C,U4*%
X-6057620Y-2499404D02*
X-5248096Y-2499404D01*
X-5248096Y-2499404D02*
X-5152858Y-2451785D01*
X-5152858Y-2451785D02*
X-5105239Y-2404166D01*
X-5105239Y-2404166D02*
X-5057620Y-2308928D01*
X-5057620Y-2308928D02*
X-5057620Y-2118452D01*
X-5057620Y-2118452D02*
X-5105239Y-2023214D01*
X-5105239Y-2023214D02*
X-5152858Y-1975595D01*
X-5152858Y-1975595D02*
X-5248096Y-1927976D01*
X-5248096Y-1927976D02*
X-6057620Y-1927976D01*
X-5724286Y-1023214D02*
X-5057620Y-1023214D01*
X-6105239Y-1261309D02*
X-5390953Y-1499404D01*
X-5390953Y-1499404D02*
X-5390953Y-880357D01*
%TO.C,D1*%
X4757380Y18136906D02*
X3757380Y18136906D01*
X3757380Y18136906D02*
X3757380Y18375001D01*
X3757380Y18375001D02*
X3805000Y18517858D01*
X3805000Y18517858D02*
X3900238Y18613096D01*
X3900238Y18613096D02*
X3995476Y18660715D01*
X3995476Y18660715D02*
X4185952Y18708334D01*
X4185952Y18708334D02*
X4328809Y18708334D01*
X4328809Y18708334D02*
X4519285Y18660715D01*
X4519285Y18660715D02*
X4614523Y18613096D01*
X4614523Y18613096D02*
X4709761Y18517858D01*
X4709761Y18517858D02*
X4757380Y18375001D01*
X4757380Y18375001D02*
X4757380Y18136906D01*
X4757380Y19660715D02*
X4757380Y19089287D01*
X4757380Y19375001D02*
X3757380Y19375001D01*
X3757380Y19375001D02*
X3900238Y19279763D01*
X3900238Y19279763D02*
X3995476Y19184525D01*
X3995476Y19184525D02*
X4043095Y19089287D01*
%TO.C,U7*%
X-20261905Y3032620D02*
X-20261905Y2223096D01*
X-20261905Y2223096D02*
X-20214286Y2127858D01*
X-20214286Y2127858D02*
X-20166667Y2080239D01*
X-20166667Y2080239D02*
X-20071429Y2032620D01*
X-20071429Y2032620D02*
X-19880953Y2032620D01*
X-19880953Y2032620D02*
X-19785715Y2080239D01*
X-19785715Y2080239D02*
X-19738096Y2127858D01*
X-19738096Y2127858D02*
X-19690477Y2223096D01*
X-19690477Y2223096D02*
X-19690477Y3032620D01*
X-19309524Y3032620D02*
X-18642858Y3032620D01*
X-18642858Y3032620D02*
X-19071429Y2032620D01*
%TO.C,R4*%
X-2142620Y9793334D02*
X-2618810Y9460001D01*
X-2142620Y9221906D02*
X-3142620Y9221906D01*
X-3142620Y9221906D02*
X-3142620Y9602858D01*
X-3142620Y9602858D02*
X-3095000Y9698096D01*
X-3095000Y9698096D02*
X-3047381Y9745715D01*
X-3047381Y9745715D02*
X-2952143Y9793334D01*
X-2952143Y9793334D02*
X-2809286Y9793334D01*
X-2809286Y9793334D02*
X-2714048Y9745715D01*
X-2714048Y9745715D02*
X-2666429Y9698096D01*
X-2666429Y9698096D02*
X-2618810Y9602858D01*
X-2618810Y9602858D02*
X-2618810Y9221906D01*
X-2809286Y10650477D02*
X-2142620Y10650477D01*
X-3190239Y10412382D02*
X-2475953Y10174287D01*
X-2475953Y10174287D02*
X-2475953Y10793334D01*
%TO.C,C7*%
X-18037858Y11933334D02*
X-17990239Y11885715D01*
X-17990239Y11885715D02*
X-17942620Y11742858D01*
X-17942620Y11742858D02*
X-17942620Y11647620D01*
X-17942620Y11647620D02*
X-17990239Y11504763D01*
X-17990239Y11504763D02*
X-18085477Y11409525D01*
X-18085477Y11409525D02*
X-18180715Y11361906D01*
X-18180715Y11361906D02*
X-18371191Y11314287D01*
X-18371191Y11314287D02*
X-18514048Y11314287D01*
X-18514048Y11314287D02*
X-18704524Y11361906D01*
X-18704524Y11361906D02*
X-18799762Y11409525D01*
X-18799762Y11409525D02*
X-18895000Y11504763D01*
X-18895000Y11504763D02*
X-18942620Y11647620D01*
X-18942620Y11647620D02*
X-18942620Y11742858D01*
X-18942620Y11742858D02*
X-18895000Y11885715D01*
X-18895000Y11885715D02*
X-18847381Y11933334D01*
X-18942620Y12266668D02*
X-18942620Y12933334D01*
X-18942620Y12933334D02*
X-17942620Y12504763D01*
%TO.C,C18*%
X20237142Y-3772142D02*
X20189523Y-3819761D01*
X20189523Y-3819761D02*
X20046666Y-3867380D01*
X20046666Y-3867380D02*
X19951428Y-3867380D01*
X19951428Y-3867380D02*
X19808571Y-3819761D01*
X19808571Y-3819761D02*
X19713333Y-3724523D01*
X19713333Y-3724523D02*
X19665714Y-3629285D01*
X19665714Y-3629285D02*
X19618095Y-3438809D01*
X19618095Y-3438809D02*
X19618095Y-3295952D01*
X19618095Y-3295952D02*
X19665714Y-3105476D01*
X19665714Y-3105476D02*
X19713333Y-3010238D01*
X19713333Y-3010238D02*
X19808571Y-2915000D01*
X19808571Y-2915000D02*
X19951428Y-2867380D01*
X19951428Y-2867380D02*
X20046666Y-2867380D01*
X20046666Y-2867380D02*
X20189523Y-2915000D01*
X20189523Y-2915000D02*
X20237142Y-2962619D01*
X21189523Y-3867380D02*
X20618095Y-3867380D01*
X20903809Y-3867380D02*
X20903809Y-2867380D01*
X20903809Y-2867380D02*
X20808571Y-3010238D01*
X20808571Y-3010238D02*
X20713333Y-3105476D01*
X20713333Y-3105476D02*
X20618095Y-3153095D01*
X21760952Y-3295952D02*
X21665714Y-3248333D01*
X21665714Y-3248333D02*
X21618095Y-3200714D01*
X21618095Y-3200714D02*
X21570476Y-3105476D01*
X21570476Y-3105476D02*
X21570476Y-3057857D01*
X21570476Y-3057857D02*
X21618095Y-2962619D01*
X21618095Y-2962619D02*
X21665714Y-2915000D01*
X21665714Y-2915000D02*
X21760952Y-2867380D01*
X21760952Y-2867380D02*
X21951428Y-2867380D01*
X21951428Y-2867380D02*
X22046666Y-2915000D01*
X22046666Y-2915000D02*
X22094285Y-2962619D01*
X22094285Y-2962619D02*
X22141904Y-3057857D01*
X22141904Y-3057857D02*
X22141904Y-3105476D01*
X22141904Y-3105476D02*
X22094285Y-3200714D01*
X22094285Y-3200714D02*
X22046666Y-3248333D01*
X22046666Y-3248333D02*
X21951428Y-3295952D01*
X21951428Y-3295952D02*
X21760952Y-3295952D01*
X21760952Y-3295952D02*
X21665714Y-3343571D01*
X21665714Y-3343571D02*
X21618095Y-3391190D01*
X21618095Y-3391190D02*
X21570476Y-3486428D01*
X21570476Y-3486428D02*
X21570476Y-3676904D01*
X21570476Y-3676904D02*
X21618095Y-3772142D01*
X21618095Y-3772142D02*
X21665714Y-3819761D01*
X21665714Y-3819761D02*
X21760952Y-3867380D01*
X21760952Y-3867380D02*
X21951428Y-3867380D01*
X21951428Y-3867380D02*
X22046666Y-3819761D01*
X22046666Y-3819761D02*
X22094285Y-3772142D01*
X22094285Y-3772142D02*
X22141904Y-3676904D01*
X22141904Y-3676904D02*
X22141904Y-3486428D01*
X22141904Y-3486428D02*
X22094285Y-3391190D01*
X22094285Y-3391190D02*
X22046666Y-3343571D01*
X22046666Y-3343571D02*
X21951428Y-3295952D01*
%TO.C,C12*%
X9189642Y-9952142D02*
X9142023Y-9999761D01*
X9142023Y-9999761D02*
X8999166Y-10047380D01*
X8999166Y-10047380D02*
X8903928Y-10047380D01*
X8903928Y-10047380D02*
X8761071Y-9999761D01*
X8761071Y-9999761D02*
X8665833Y-9904523D01*
X8665833Y-9904523D02*
X8618214Y-9809285D01*
X8618214Y-9809285D02*
X8570595Y-9618809D01*
X8570595Y-9618809D02*
X8570595Y-9475952D01*
X8570595Y-9475952D02*
X8618214Y-9285476D01*
X8618214Y-9285476D02*
X8665833Y-9190238D01*
X8665833Y-9190238D02*
X8761071Y-9095000D01*
X8761071Y-9095000D02*
X8903928Y-9047380D01*
X8903928Y-9047380D02*
X8999166Y-9047380D01*
X8999166Y-9047380D02*
X9142023Y-9095000D01*
X9142023Y-9095000D02*
X9189642Y-9142619D01*
X10142023Y-10047380D02*
X9570595Y-10047380D01*
X9856309Y-10047380D02*
X9856309Y-9047380D01*
X9856309Y-9047380D02*
X9761071Y-9190238D01*
X9761071Y-9190238D02*
X9665833Y-9285476D01*
X9665833Y-9285476D02*
X9570595Y-9333095D01*
X10522976Y-9142619D02*
X10570595Y-9095000D01*
X10570595Y-9095000D02*
X10665833Y-9047380D01*
X10665833Y-9047380D02*
X10903928Y-9047380D01*
X10903928Y-9047380D02*
X10999166Y-9095000D01*
X10999166Y-9095000D02*
X11046785Y-9142619D01*
X11046785Y-9142619D02*
X11094404Y-9237857D01*
X11094404Y-9237857D02*
X11094404Y-9333095D01*
X11094404Y-9333095D02*
X11046785Y-9475952D01*
X11046785Y-9475952D02*
X10475357Y-10047380D01*
X10475357Y-10047380D02*
X11094404Y-10047380D01*
%TO.C,C15*%
X-20412858Y11812858D02*
X-20460477Y11765239D01*
X-20460477Y11765239D02*
X-20603334Y11717620D01*
X-20603334Y11717620D02*
X-20698572Y11717620D01*
X-20698572Y11717620D02*
X-20841429Y11765239D01*
X-20841429Y11765239D02*
X-20936667Y11860477D01*
X-20936667Y11860477D02*
X-20984286Y11955715D01*
X-20984286Y11955715D02*
X-21031905Y12146191D01*
X-21031905Y12146191D02*
X-21031905Y12289048D01*
X-21031905Y12289048D02*
X-20984286Y12479524D01*
X-20984286Y12479524D02*
X-20936667Y12574762D01*
X-20936667Y12574762D02*
X-20841429Y12670000D01*
X-20841429Y12670000D02*
X-20698572Y12717620D01*
X-20698572Y12717620D02*
X-20603334Y12717620D01*
X-20603334Y12717620D02*
X-20460477Y12670000D01*
X-20460477Y12670000D02*
X-20412858Y12622381D01*
X-19460477Y11717620D02*
X-20031905Y11717620D01*
X-19746191Y11717620D02*
X-19746191Y12717620D01*
X-19746191Y12717620D02*
X-19841429Y12574762D01*
X-19841429Y12574762D02*
X-19936667Y12479524D01*
X-19936667Y12479524D02*
X-20031905Y12431905D01*
X-18555715Y12717620D02*
X-19031905Y12717620D01*
X-19031905Y12717620D02*
X-19079524Y12241429D01*
X-19079524Y12241429D02*
X-19031905Y12289048D01*
X-19031905Y12289048D02*
X-18936667Y12336667D01*
X-18936667Y12336667D02*
X-18698572Y12336667D01*
X-18698572Y12336667D02*
X-18603334Y12289048D01*
X-18603334Y12289048D02*
X-18555715Y12241429D01*
X-18555715Y12241429D02*
X-18508096Y12146191D01*
X-18508096Y12146191D02*
X-18508096Y11908096D01*
X-18508096Y11908096D02*
X-18555715Y11812858D01*
X-18555715Y11812858D02*
X-18603334Y11765239D01*
X-18603334Y11765239D02*
X-18698572Y11717620D01*
X-18698572Y11717620D02*
X-18936667Y11717620D01*
X-18936667Y11717620D02*
X-19031905Y11765239D01*
X-19031905Y11765239D02*
X-19079524Y11812858D01*
%TO.C,C4*%
X-2457858Y7944375D02*
X-2410239Y7896756D01*
X-2410239Y7896756D02*
X-2362620Y7753899D01*
X-2362620Y7753899D02*
X-2362620Y7658661D01*
X-2362620Y7658661D02*
X-2410239Y7515804D01*
X-2410239Y7515804D02*
X-2505477Y7420566D01*
X-2505477Y7420566D02*
X-2600715Y7372947D01*
X-2600715Y7372947D02*
X-2791191Y7325328D01*
X-2791191Y7325328D02*
X-2934048Y7325328D01*
X-2934048Y7325328D02*
X-3124524Y7372947D01*
X-3124524Y7372947D02*
X-3219762Y7420566D01*
X-3219762Y7420566D02*
X-3315000Y7515804D01*
X-3315000Y7515804D02*
X-3362620Y7658661D01*
X-3362620Y7658661D02*
X-3362620Y7753899D01*
X-3362620Y7753899D02*
X-3315000Y7896756D01*
X-3315000Y7896756D02*
X-3267381Y7944375D01*
X-3029286Y8801518D02*
X-2362620Y8801518D01*
X-3410239Y8563423D02*
X-2695953Y8325328D01*
X-2695953Y8325328D02*
X-2695953Y8944375D01*
%TO.C,C14*%
X-20412858Y19742858D02*
X-20460477Y19695239D01*
X-20460477Y19695239D02*
X-20603334Y19647620D01*
X-20603334Y19647620D02*
X-20698572Y19647620D01*
X-20698572Y19647620D02*
X-20841429Y19695239D01*
X-20841429Y19695239D02*
X-20936667Y19790477D01*
X-20936667Y19790477D02*
X-20984286Y19885715D01*
X-20984286Y19885715D02*
X-21031905Y20076191D01*
X-21031905Y20076191D02*
X-21031905Y20219048D01*
X-21031905Y20219048D02*
X-20984286Y20409524D01*
X-20984286Y20409524D02*
X-20936667Y20504762D01*
X-20936667Y20504762D02*
X-20841429Y20600000D01*
X-20841429Y20600000D02*
X-20698572Y20647620D01*
X-20698572Y20647620D02*
X-20603334Y20647620D01*
X-20603334Y20647620D02*
X-20460477Y20600000D01*
X-20460477Y20600000D02*
X-20412858Y20552381D01*
X-19460477Y19647620D02*
X-20031905Y19647620D01*
X-19746191Y19647620D02*
X-19746191Y20647620D01*
X-19746191Y20647620D02*
X-19841429Y20504762D01*
X-19841429Y20504762D02*
X-19936667Y20409524D01*
X-19936667Y20409524D02*
X-20031905Y20361905D01*
X-18603334Y20314286D02*
X-18603334Y19647620D01*
X-18841429Y20695239D02*
X-19079524Y19980953D01*
X-19079524Y19980953D02*
X-18460477Y19980953D01*
%TO.C,U5*%
X-14751905Y20807620D02*
X-14751905Y19998096D01*
X-14751905Y19998096D02*
X-14704286Y19902858D01*
X-14704286Y19902858D02*
X-14656667Y19855239D01*
X-14656667Y19855239D02*
X-14561429Y19807620D01*
X-14561429Y19807620D02*
X-14370953Y19807620D01*
X-14370953Y19807620D02*
X-14275715Y19855239D01*
X-14275715Y19855239D02*
X-14228096Y19902858D01*
X-14228096Y19902858D02*
X-14180477Y19998096D01*
X-14180477Y19998096D02*
X-14180477Y20807620D01*
X-13228096Y20807620D02*
X-13704286Y20807620D01*
X-13704286Y20807620D02*
X-13751905Y20331429D01*
X-13751905Y20331429D02*
X-13704286Y20379048D01*
X-13704286Y20379048D02*
X-13609048Y20426667D01*
X-13609048Y20426667D02*
X-13370953Y20426667D01*
X-13370953Y20426667D02*
X-13275715Y20379048D01*
X-13275715Y20379048D02*
X-13228096Y20331429D01*
X-13228096Y20331429D02*
X-13180477Y20236191D01*
X-13180477Y20236191D02*
X-13180477Y19998096D01*
X-13180477Y19998096D02*
X-13228096Y19902858D01*
X-13228096Y19902858D02*
X-13275715Y19855239D01*
X-13275715Y19855239D02*
X-13370953Y19807620D01*
X-13370953Y19807620D02*
X-13609048Y19807620D01*
X-13609048Y19807620D02*
X-13704286Y19855239D01*
X-13704286Y19855239D02*
X-13751905Y19902858D01*
%TO.C,J1*%
X-18142620Y23576667D02*
X-17428334Y23576667D01*
X-17428334Y23576667D02*
X-17285477Y23529048D01*
X-17285477Y23529048D02*
X-17190239Y23433810D01*
X-17190239Y23433810D02*
X-17142620Y23290953D01*
X-17142620Y23290953D02*
X-17142620Y23195715D01*
X-17142620Y24576667D02*
X-17142620Y24005239D01*
X-17142620Y24290953D02*
X-18142620Y24290953D01*
X-18142620Y24290953D02*
X-17999762Y24195715D01*
X-17999762Y24195715D02*
X-17904524Y24100477D01*
X-17904524Y24100477D02*
X-17856905Y24005239D01*
%TO.C,F1*%
X8516666Y26746429D02*
X8183333Y26746429D01*
X8183333Y26222620D02*
X8183333Y27222620D01*
X8183333Y27222620D02*
X8659523Y27222620D01*
X9564285Y26222620D02*
X8992857Y26222620D01*
X9278571Y26222620D02*
X9278571Y27222620D01*
X9278571Y27222620D02*
X9183333Y27079762D01*
X9183333Y27079762D02*
X9088095Y26984524D01*
X9088095Y26984524D02*
X8992857Y26936905D01*
%TO.C,C16*%
X-3887858Y5168184D02*
X-3840239Y5120565D01*
X-3840239Y5120565D02*
X-3792620Y4977708D01*
X-3792620Y4977708D02*
X-3792620Y4882470D01*
X-3792620Y4882470D02*
X-3840239Y4739613D01*
X-3840239Y4739613D02*
X-3935477Y4644375D01*
X-3935477Y4644375D02*
X-4030715Y4596756D01*
X-4030715Y4596756D02*
X-4221191Y4549137D01*
X-4221191Y4549137D02*
X-4364048Y4549137D01*
X-4364048Y4549137D02*
X-4554524Y4596756D01*
X-4554524Y4596756D02*
X-4649762Y4644375D01*
X-4649762Y4644375D02*
X-4745000Y4739613D01*
X-4745000Y4739613D02*
X-4792620Y4882470D01*
X-4792620Y4882470D02*
X-4792620Y4977708D01*
X-4792620Y4977708D02*
X-4745000Y5120565D01*
X-4745000Y5120565D02*
X-4697381Y5168184D01*
X-3792620Y6120565D02*
X-3792620Y5549137D01*
X-3792620Y5834851D02*
X-4792620Y5834851D01*
X-4792620Y5834851D02*
X-4649762Y5739613D01*
X-4649762Y5739613D02*
X-4554524Y5644375D01*
X-4554524Y5644375D02*
X-4506905Y5549137D01*
X-4792620Y6977708D02*
X-4792620Y6787232D01*
X-4792620Y6787232D02*
X-4745000Y6691994D01*
X-4745000Y6691994D02*
X-4697381Y6644375D01*
X-4697381Y6644375D02*
X-4554524Y6549137D01*
X-4554524Y6549137D02*
X-4364048Y6501518D01*
X-4364048Y6501518D02*
X-3983096Y6501518D01*
X-3983096Y6501518D02*
X-3887858Y6549137D01*
X-3887858Y6549137D02*
X-3840239Y6596756D01*
X-3840239Y6596756D02*
X-3792620Y6691994D01*
X-3792620Y6691994D02*
X-3792620Y6882470D01*
X-3792620Y6882470D02*
X-3840239Y6977708D01*
X-3840239Y6977708D02*
X-3887858Y7025327D01*
X-3887858Y7025327D02*
X-3983096Y7072946D01*
X-3983096Y7072946D02*
X-4221191Y7072946D01*
X-4221191Y7072946D02*
X-4316429Y7025327D01*
X-4316429Y7025327D02*
X-4364048Y6977708D01*
X-4364048Y6977708D02*
X-4411667Y6882470D01*
X-4411667Y6882470D02*
X-4411667Y6691994D01*
X-4411667Y6691994D02*
X-4364048Y6596756D01*
X-4364048Y6596756D02*
X-4316429Y6549137D01*
X-4316429Y6549137D02*
X-4221191Y6501518D01*
D11*
%TO.C,C13*%
X-16222164Y14790000D02*
X-16437836Y14790000D01*
X-16222164Y14070000D02*
X-16437836Y14070000D01*
%TO.C,U6*%
X10360000Y4410000D02*
X12160000Y4410000D01*
X10360000Y4410000D02*
X9560000Y4410000D01*
X10360000Y7530000D02*
X11160000Y7530000D01*
X10360000Y7530000D02*
X9560000Y7530000D01*
%TO.C,FB1*%
X-17365000Y9148748D02*
X-17365000Y9671252D01*
X-15895000Y9148748D02*
X-15895000Y9671252D01*
%TO.C,C1*%
X-14209420Y19890000D02*
X-14490580Y19890000D01*
X-14209420Y20910000D02*
X-14490580Y20910000D01*
%TO.C,Q1*%
X5107500Y16975000D02*
X3307500Y16975000D01*
X5107500Y16975000D02*
X5907500Y16975000D01*
X5107500Y13855000D02*
X4307500Y13855000D01*
X5107500Y13855000D02*
X5907500Y13855000D01*
%TO.C,C5*%
X-11537164Y6640000D02*
X-11752836Y6640000D01*
X-11537164Y7360000D02*
X-11752836Y7360000D01*
%TO.C,SW1*%
X15310000Y-13970000D02*
X16100000Y-13970000D01*
X17110000Y-13370000D02*
X17110000Y-7670000D01*
X14260000Y-12120000D02*
X14260000Y-10420000D01*
X17110000Y-11920000D02*
X18400000Y-11920000D01*
X18400000Y-11920000D02*
X18610000Y-11720000D01*
X18610000Y-11720000D02*
X18610000Y-10820000D01*
X18400000Y-10620000D02*
X18610000Y-10820000D01*
X18400000Y-10620000D02*
X17110000Y-10620000D01*
X14260000Y-9120000D02*
X14260000Y-8920000D01*
X16100000Y-7070000D02*
X15310000Y-7070000D01*
%TO.C,U9*%
X19500000Y-1560000D02*
X21175000Y-1560000D01*
X19500000Y-1560000D02*
X18850000Y-1560000D01*
X19500000Y1560000D02*
X20150000Y1560000D01*
X19500000Y1560000D02*
X18850000Y1560000D01*
%TO.C,U2*%
X10100000Y-12470000D02*
X11775000Y-12470000D01*
X10100000Y-12470000D02*
X9450000Y-12470000D01*
X10100000Y-9350000D02*
X10750000Y-9350000D01*
X10100000Y-9350000D02*
X9450000Y-9350000D01*
%TO.C,Y1*%
X-18110000Y18105000D02*
X-21410000Y18105000D01*
X-21410000Y18105000D02*
X-21410000Y14105000D01*
D10*
%TO.C,U3*%
X2760000Y21680000D02*
X2760000Y23280000D01*
X2760000Y23680000D02*
X2760000Y23980000D01*
X-440000Y21680000D02*
X2760000Y21680000D01*
X-440000Y21680000D02*
X-440000Y23280000D01*
X-440000Y23280000D02*
X2760000Y23280000D01*
D11*
%TO.C,C9*%
X13778748Y25000000D02*
X15201252Y25000000D01*
X13778748Y23180000D02*
X15201252Y23180000D01*
%TO.C,C2*%
X-16182164Y17540000D02*
X-16397836Y17540000D01*
X-16182164Y18260000D02*
X-16397836Y18260000D01*
%TO.C,R1*%
X3960000Y23692836D02*
X3960000Y23477164D01*
X3240000Y23692836D02*
X3240000Y23477164D01*
%TO.C,C11*%
X7782500Y-11688748D02*
X7782500Y-13111252D01*
X5962500Y-11688748D02*
X5962500Y-13111252D01*
%TO.C,U1*%
X18890000Y15830000D02*
X12880000Y15830000D01*
X16640000Y22650000D02*
X12880000Y22650000D01*
X12880000Y15830000D02*
X12880000Y17090000D01*
X12880000Y22650000D02*
X12880000Y21390000D01*
%TO.C,C17*%
X-21760000Y1517836D02*
X-21760000Y1302164D01*
X-22480000Y1517836D02*
X-22480000Y1302164D01*
%TO.C,C8*%
X-16430000Y11982164D02*
X-16430000Y12197836D01*
X-15710000Y11982164D02*
X-15710000Y12197836D01*
%TO.C,C10*%
X10691252Y13580000D02*
X9268748Y13580000D01*
X10691252Y15400000D02*
X9268748Y15400000D01*
%TO.C,C3*%
X-12302836Y21990000D02*
X-12087164Y21990000D01*
X-12302836Y21270000D02*
X-12087164Y21270000D01*
%TO.C,J2*%
X-14410000Y26195000D02*
X-6730000Y26195000D01*
X-14410000Y26195000D02*
X-14410000Y28855000D01*
X-6730000Y26195000D02*
X-6730000Y28855000D01*
X-17010000Y27525000D02*
X-17010000Y28855000D01*
X-17010000Y28855000D02*
X-15680000Y28855000D01*
X-14410000Y28855000D02*
X-6730000Y28855000D01*
%TO.C,R5*%
X-16506359Y15110000D02*
X-16813641Y15110000D01*
X-16506359Y15870000D02*
X-16813641Y15870000D01*
%TO.C,U8*%
X0Y-1560000D02*
X1675000Y-1560000D01*
X0Y-1560000D02*
X-650000Y-1560000D01*
X0Y1560000D02*
X650000Y1560000D01*
X0Y1560000D02*
X-650000Y1560000D01*
%TO.C,C6*%
X-2477836Y19380000D02*
X-2262164Y19380000D01*
X-2477836Y18660000D02*
X-2262164Y18660000D01*
%TO.C,C19*%
X2150000Y-887836D02*
X2150000Y-672164D01*
X2870000Y-887836D02*
X2870000Y-672164D01*
%TO.C,U4*%
X-6265000Y-1737500D02*
X-6265000Y62500D01*
X-6265000Y-1737500D02*
X-6265000Y-2537500D01*
X-9385000Y-1737500D02*
X-9385000Y-937500D01*
X-9385000Y-1737500D02*
X-9385000Y-2537500D01*
%TO.C,D1*%
X5390000Y17265000D02*
X7090000Y17265000D01*
X5390000Y17265000D02*
X5390000Y19925000D01*
X7090000Y17265000D02*
X7090000Y19925000D01*
%TO.C,U7*%
X-19500000Y1560000D02*
X-21175000Y1560000D01*
X-19500000Y1560000D02*
X-18850000Y1560000D01*
X-19500000Y-1560000D02*
X-20150000Y-1560000D01*
X-19500000Y-1560000D02*
X-18850000Y-1560000D01*
%TO.C,R2*%
X-1398000Y24724836D02*
X-1398000Y24509164D01*
X-2118000Y24724836D02*
X-2118000Y24509164D01*
%TO.C,R4*%
X-1720000Y9806359D02*
X-1720000Y10113641D01*
X-960000Y9806359D02*
X-960000Y10113641D01*
%TO.C,C7*%
X-17510000Y11992164D02*
X-17510000Y12207836D01*
X-16790000Y11992164D02*
X-16790000Y12207836D01*
%TO.C,C18*%
X20987836Y-2700000D02*
X20772164Y-2700000D01*
X20987836Y-1980000D02*
X20772164Y-1980000D01*
%TO.C,C12*%
X10543752Y-8740000D02*
X9121248Y-8740000D01*
X10543752Y-6920000D02*
X9121248Y-6920000D01*
%TO.C,C15*%
X-19662164Y12885000D02*
X-19877836Y12885000D01*
X-19662164Y13605000D02*
X-19877836Y13605000D01*
%TO.C,C4*%
X-3530000Y8218877D02*
X-3530000Y8003205D01*
X-4250000Y8218877D02*
X-4250000Y8003205D01*
%TO.C,C14*%
X-19877836Y19215000D02*
X-19662164Y19215000D01*
X-19877836Y18495000D02*
X-19662164Y18495000D01*
%TO.C,U5*%
X-13710000Y19460000D02*
X-13710000Y18510000D01*
X-13710000Y18510000D02*
X-15050000Y18510000D01*
X-13710000Y9240000D02*
X-13710000Y10190000D01*
X-12760000Y19460000D02*
X-13710000Y19460000D01*
X-12760000Y9240000D02*
X-13710000Y9240000D01*
X-4440000Y19460000D02*
X-3490000Y19460000D01*
X-4440000Y9240000D02*
X-3490000Y9240000D01*
X-3490000Y19460000D02*
X-3490000Y18510000D01*
X-3490000Y9240000D02*
X-3490000Y10190000D01*
%TO.C,J1*%
X-13470000Y22580000D02*
X-5790000Y22580000D01*
X-13470000Y22580000D02*
X-13470000Y25240000D01*
X-5790000Y22580000D02*
X-5790000Y25240000D01*
X-16070000Y23910000D02*
X-16070000Y25240000D01*
X-16070000Y25240000D02*
X-14740000Y25240000D01*
X-13470000Y25240000D02*
X-5790000Y25240000D01*
%TO.C,F1*%
X8247936Y25680000D02*
X9452064Y25680000D01*
X8247936Y23860000D02*
X9452064Y23860000D01*
%TO.C,C16*%
X-5105000Y6072293D02*
X-5105000Y5549789D01*
X-6575000Y6072293D02*
X-6575000Y5549789D01*
%TD*%
%LPC*%
D12*
%TO.C,C13*%
X-15850000Y14430000D03*
X-16810000Y14430000D03*
%TD*%
D13*
%TO.C,U6*%
X11497500Y5020000D03*
X11497500Y5970000D03*
X11497500Y6920000D03*
X9222500Y6920000D03*
X9222500Y5020000D03*
%TD*%
D14*
%TO.C,FB1*%
X-16630000Y8460000D03*
X-16630000Y10360000D03*
%TD*%
D15*
%TO.C,C1*%
X-13575000Y20400000D03*
X-15125000Y20400000D03*
%TD*%
D16*
%TO.C,Q1*%
X3970000Y16365000D03*
X3970000Y15415000D03*
X3970000Y14465000D03*
X6245000Y14465000D03*
X6245000Y16365000D03*
%TD*%
D17*
%TO.C,P1*%
X3200000Y26895000D03*
X2400000Y26895000D03*
D18*
X1250000Y26895000D03*
X250000Y26895000D03*
X-250000Y26895000D03*
X-1250000Y26895000D03*
D17*
X-2400000Y26895000D03*
X-3200000Y26895000D03*
X-3200000Y26895000D03*
X-2400000Y26895000D03*
D18*
X-1750000Y26895000D03*
X-750000Y26895000D03*
X750000Y26895000D03*
X1750000Y26895000D03*
D17*
X2400000Y26895000D03*
X3200000Y26895000D03*
D19*
X5619999Y28119999D03*
D20*
X5619999Y32119999D03*
D19*
X-5619999Y28119999D03*
D20*
X-5619999Y32119999D03*
%TD*%
D12*
%TO.C,C5*%
X-11165000Y7000000D03*
X-12125000Y7000000D03*
%TD*%
D21*
%TO.C,SW1*%
X14600000Y-14170000D03*
X16810000Y-14170000D03*
D22*
X15710000Y-12020000D03*
X15710000Y-9020000D03*
D21*
X14600000Y-6870000D03*
X16810000Y-6870000D03*
D23*
X13950000Y-12770000D03*
X13950000Y-9770000D03*
X13950000Y-8270000D03*
%TD*%
D24*
%TO.C,U9*%
X20437500Y-950000D03*
X20437500Y950000D03*
X18562500Y0D03*
%TD*%
%TO.C,U2*%
X11037500Y-11860000D03*
X11037500Y-9960000D03*
X9162500Y-10910000D03*
%TD*%
D25*
%TO.C,Y1*%
X-20610000Y17205000D03*
X-20610000Y15005000D03*
X-18910000Y15005000D03*
X-18910000Y17205000D03*
%TD*%
D26*
%TO.C,U3*%
X1910000Y23480000D03*
D27*
X210000Y23480000D03*
X210000Y21480000D03*
X2110000Y21480000D03*
%TD*%
D28*
%TO.C,C9*%
X13015000Y24090000D03*
X15965000Y24090000D03*
%TD*%
D12*
%TO.C,C2*%
X-15810000Y17900000D03*
X-16770000Y17900000D03*
%TD*%
D29*
%TO.C,R1*%
X3600000Y24065000D03*
X3600000Y23105000D03*
%TD*%
D30*
%TO.C,C11*%
X6872500Y-10925000D03*
X6872500Y-13875000D03*
%TD*%
D22*
%TO.C,SW4*%
X5800000Y8370000D03*
X2800000Y8370000D03*
D31*
X6800000Y5620000D03*
X4300000Y5620000D03*
X1800000Y5620000D03*
X6800000Y11120000D03*
X4300000Y11120000D03*
X1800000Y11120000D03*
%TD*%
D32*
%TO.C,U1*%
X17940000Y16940000D03*
X17940000Y19240000D03*
D33*
X11640000Y19240000D03*
D32*
X17940000Y21540000D03*
%TD*%
D29*
%TO.C,C17*%
X-22120000Y1890000D03*
X-22120000Y930000D03*
%TD*%
D34*
%TO.C,C8*%
X-16070000Y11610000D03*
X-16070000Y12570000D03*
%TD*%
D35*
%TO.C,C10*%
X11455000Y14490000D03*
X8505000Y14490000D03*
%TD*%
D22*
%TO.C,SW2*%
X-11460000Y-7550000D03*
X-8460000Y-7550000D03*
D36*
X-12460000Y-4800000D03*
X-9960000Y-4800000D03*
X-7460000Y-4800000D03*
X-12460000Y-10300000D03*
X-9960000Y-10300000D03*
X-7460000Y-10300000D03*
%TD*%
D37*
%TO.C,C3*%
X-12675000Y21630000D03*
X-11715000Y21630000D03*
%TD*%
D38*
%TO.C,J2*%
X-15680000Y27525000D03*
D39*
X-13139999Y27524999D03*
X-10599999Y27524999D03*
X-8059999Y27524999D03*
%TD*%
D40*
%TO.C,R5*%
X-16150000Y15490000D03*
X-17170000Y15490000D03*
%TD*%
D24*
%TO.C,U8*%
X937500Y-950000D03*
X937500Y950000D03*
X-937500Y0D03*
%TD*%
D37*
%TO.C,C6*%
X-2850000Y19020000D03*
X-1890000Y19020000D03*
%TD*%
D34*
%TO.C,C19*%
X2510000Y-1260000D03*
X2510000Y-300000D03*
%TD*%
D41*
%TO.C,U4*%
X-6875000Y-600000D03*
X-7825000Y-600000D03*
X-8775000Y-600000D03*
X-8775000Y-2875000D03*
X-6875000Y-2875000D03*
%TD*%
D42*
%TO.C,D1*%
X6240000Y17825000D03*
X6240000Y19925000D03*
%TD*%
D43*
%TO.C,U7*%
X-20437500Y950000D03*
X-20437500Y-950000D03*
X-18562500Y0D03*
%TD*%
D29*
%TO.C,R2*%
X-1758000Y25097000D03*
X-1758000Y24137000D03*
%TD*%
D44*
%TO.C,R4*%
X-1340000Y9450000D03*
X-1340000Y10470000D03*
%TD*%
D34*
%TO.C,C7*%
X-17150000Y11620000D03*
X-17150000Y12580000D03*
%TD*%
D12*
%TO.C,C18*%
X21360000Y-2340000D03*
X20400000Y-2340000D03*
%TD*%
D35*
%TO.C,C12*%
X11307500Y-7830000D03*
X8357500Y-7830000D03*
%TD*%
D12*
%TO.C,C15*%
X-19290000Y13245000D03*
X-20250000Y13245000D03*
%TD*%
D29*
%TO.C,C4*%
X-3890000Y8591041D03*
X-3890000Y7631041D03*
%TD*%
D37*
%TO.C,C14*%
X-20250000Y18855000D03*
X-19290000Y18855000D03*
%TD*%
D45*
%TO.C,U5*%
X-14275000Y18100000D03*
X-14275000Y17600000D03*
X-14275000Y17100000D03*
X-14275000Y16600000D03*
X-14275000Y16100000D03*
X-14275000Y15600000D03*
X-14275000Y15100000D03*
X-14275000Y14600000D03*
X-14275000Y14100000D03*
X-14275000Y13600000D03*
X-14275000Y13100000D03*
X-14275000Y12600000D03*
X-14275000Y12100000D03*
X-14275000Y11600000D03*
X-14275000Y11100000D03*
X-14275000Y10600000D03*
D46*
X-12350000Y8675000D03*
X-11850000Y8675000D03*
X-11350000Y8675000D03*
X-10850000Y8675000D03*
X-10350000Y8675000D03*
X-9850000Y8675000D03*
X-9350000Y8675000D03*
X-8850000Y8675000D03*
X-8350000Y8675000D03*
X-7850000Y8675000D03*
X-7350000Y8675000D03*
X-6850000Y8675000D03*
X-6350000Y8675000D03*
X-5850000Y8675000D03*
X-5350000Y8675000D03*
X-4850000Y8675000D03*
D45*
X-2925000Y10600000D03*
X-2925000Y11100000D03*
X-2925000Y11600000D03*
X-2925000Y12100000D03*
X-2925000Y12600000D03*
X-2925000Y13100000D03*
X-2925000Y13600000D03*
X-2925000Y14100000D03*
X-2925000Y14600000D03*
X-2925000Y15100000D03*
X-2925000Y15600000D03*
X-2925000Y16100000D03*
X-2925000Y16600000D03*
X-2925000Y17100000D03*
X-2925000Y17600000D03*
X-2925000Y18100000D03*
D46*
X-4850000Y20025000D03*
X-5350000Y20025000D03*
X-5850000Y20025000D03*
X-6350000Y20025000D03*
X-6850000Y20025000D03*
X-7350000Y20025000D03*
X-7850000Y20025000D03*
X-8350000Y20025000D03*
X-8850000Y20025000D03*
X-9350000Y20025000D03*
X-9850000Y20025000D03*
X-10350000Y20025000D03*
X-10850000Y20025000D03*
X-11350000Y20025000D03*
X-11850000Y20025000D03*
X-12350000Y20025000D03*
%TD*%
D38*
%TO.C,J1*%
X-14740000Y23910000D03*
D39*
X-12199999Y23909999D03*
X-9659999Y23909999D03*
X-7119999Y23909999D03*
%TD*%
D47*
%TO.C,F1*%
X7450000Y24770000D03*
X10250000Y24770000D03*
%TD*%
D48*
%TO.C,C16*%
X-5840000Y6761041D03*
X-5840000Y4861041D03*
%TD*%
D49*
%TO.C,H3*%
X0Y-13000000D03*
%TD*%
D50*
%TO.C,REF\u002A\u002A*%
X24580000Y0D03*
X14420000Y0D03*
%TD*%
%TO.C,REF\u002A\u002A*%
X5080000Y0D03*
X-5080000Y0D03*
%TD*%
D49*
%TO.C,H2*%
X-24500000Y13500000D03*
%TD*%
%TO.C,H1*%
X24500000Y13000000D03*
%TD*%
D50*
%TO.C,REF\u002A\u002A*%
X-14420000Y0D03*
X-24580000Y0D03*
%TD*%
M02*
