%TF.GenerationSoftware,KiCad,Pcbnew,(7.0.0-0)*%
%TF.CreationDate,2023-04-04T22:37:46-05:00*%
%TF.ProjectId,RP2040_minimal,52503230-3430-45f6-9d69-6e696d616c2e,REV1*%
%TF.SameCoordinates,Original*%
%TF.FileFunction,Soldermask,Top*%
%TF.FilePolarity,Negative*%
%FSLAX46Y46*%
G04 Gerber Fmt 4.6, Leading zero omitted, Abs format (unit mm)*
G04 Created by KiCad (PCBNEW (7.0.0-0)) date 2023-04-04 22:37:46*
%MOMM*%
%LPD*%
G01*
G04 APERTURE LIST*
G04 Aperture macros list*
%AMRoundRect*
0 Rectangle with rounded corners*
0 $1 Rounding radius*
0 $2 $3 $4 $5 $6 $7 $8 $9 X,Y pos of 4 corners*
0 Add a 4 corners polygon primitive as box body*
4,1,4,$2,$3,$4,$5,$6,$7,$8,$9,$2,$3,0*
0 Add four circle primitives for the rounded corners*
1,1,$1+$1,$2,$3*
1,1,$1+$1,$4,$5*
1,1,$1+$1,$6,$7*
1,1,$1+$1,$8,$9*
0 Add four rect primitives between the rounded corners*
20,1,$1+$1,$2,$3,$4,$5,0*
20,1,$1+$1,$4,$5,$6,$7,0*
20,1,$1+$1,$6,$7,$8,$9,0*
20,1,$1+$1,$8,$9,$2,$3,0*%
G04 Aperture macros list end*
%TA.AperFunction,Profile*%
%ADD10C,0.120000*%
%TD*%
%ADD11RoundRect,0.301000X0.475000X-0.250000X0.475000X0.250000X-0.475000X0.250000X-0.475000X-0.250000X0*%
%ADD12RoundRect,0.276000X0.225000X0.250000X-0.225000X0.250000X-0.225000X-0.250000X0.225000X-0.250000X0*%
%ADD13RoundRect,0.191000X0.140000X0.170000X-0.140000X0.170000X-0.140000X-0.170000X0.140000X-0.170000X0*%
%ADD14RoundRect,0.186000X-0.185000X0.135000X-0.185000X-0.135000X0.185000X-0.135000X0.185000X0.135000X0*%
%ADD15RoundRect,0.051000X0.300000X0.575000X-0.300000X0.575000X-0.300000X-0.575000X0.300000X-0.575000X0*%
%ADD16RoundRect,0.051000X0.150000X0.575000X-0.150000X0.575000X-0.150000X-0.575000X0.150000X-0.575000X0*%
%ADD17O,1.102000X1.902000*%
%ADD18O,1.102000X2.302000*%
%ADD19RoundRect,0.201000X0.587500X0.150000X-0.587500X0.150000X-0.587500X-0.150000X0.587500X-0.150000X0*%
%ADD20RoundRect,0.201000X0.150000X-0.587500X0.150000X0.587500X-0.150000X0.587500X-0.150000X-0.587500X0*%
%ADD21RoundRect,0.051000X-0.600000X0.700000X-0.600000X-0.700000X0.600000X-0.700000X0.600000X0.700000X0*%
%ADD22RoundRect,0.050000X0.500000X0.350000X-0.500000X0.350000X-0.500000X-0.350000X0.500000X-0.350000X0*%
%ADD23RoundRect,0.050000X0.300000X0.350000X-0.300000X0.350000X-0.300000X-0.350000X0.300000X-0.350000X0*%
%ADD24RoundRect,0.301000X-0.325000X-0.650000X0.325000X-0.650000X0.325000X0.650000X-0.325000X0.650000X0*%
%ADD25RoundRect,0.191000X-0.170000X0.140000X-0.170000X-0.140000X0.170000X-0.140000X0.170000X0.140000X0*%
%ADD26RoundRect,0.301000X0.325000X0.650000X-0.325000X0.650000X-0.325000X-0.650000X0.325000X-0.650000X0*%
%ADD27RoundRect,0.191000X0.170000X-0.140000X0.170000X0.140000X-0.170000X0.140000X-0.170000X-0.140000X0*%
%ADD28RoundRect,0.301000X-0.650000X0.325000X-0.650000X-0.325000X0.650000X-0.325000X0.650000X0.325000X0*%
%ADD29RoundRect,0.191000X-0.140000X-0.170000X0.140000X-0.170000X0.140000X0.170000X-0.140000X0.170000X0*%
%ADD30RoundRect,0.186000X0.135000X0.185000X-0.135000X0.185000X-0.135000X-0.185000X0.135000X-0.185000X0*%
%ADD31RoundRect,0.186000X0.185000X-0.135000X0.185000X0.135000X-0.185000X0.135000X-0.185000X-0.135000X0*%
%ADD32RoundRect,0.301000X0.650000X-0.325000X0.650000X0.325000X-0.650000X0.325000X-0.650000X-0.325000X0*%
%ADD33RoundRect,0.126000X-0.700000X-0.075000X0.700000X-0.075000X0.700000X0.075000X-0.700000X0.075000X0*%
%ADD34RoundRect,0.126000X-0.075000X-0.700000X0.075000X-0.700000X0.075000X0.700000X-0.075000X0.700000X0*%
%ADD35RoundRect,0.051000X0.850000X-0.850000X0.850000X0.850000X-0.850000X0.850000X-0.850000X-0.850000X0*%
%ADD36O,1.802000X1.802000*%
%ADD37RoundRect,0.301000X-0.375000X-0.625000X0.375000X-0.625000X0.375000X0.625000X-0.375000X0.625000X0*%
%ADD38RoundRect,0.301000X-0.475000X0.250000X-0.475000X-0.250000X0.475000X-0.250000X0.475000X0.250000X0*%
%ADD39RoundRect,0.201000X0.150000X-0.512500X0.150000X0.512500X-0.150000X0.512500X-0.150000X-0.512500X0*%
%ADD40C,3.302000*%
%ADD41C,1.802000*%
G04 APERTURE END LIST*
D10*
%TO.C,P1*%
X4620000Y27520000D02*
X4625000Y33620000D01*
X4025000Y27495000D02*
X-4025000Y27495000D01*
X-4620000Y27520000D02*
X-4625000Y33620000D01*
X4025000Y27495000D02*
G75*
G03*
X4620000Y27520000I297500J12500D01*
G01*
X-4620000Y27520000D02*
G75*
G03*
X-4025000Y27495000I297500J-12500D01*
G01*
%TD*%
D11*
%TO.C,FB1*%
X-16630000Y8460000D03*
X-16630000Y10360000D03*
%TD*%
D12*
%TO.C,C1*%
X-13575000Y20400000D03*
X-15125000Y20400000D03*
%TD*%
D13*
%TO.C,C12*%
X-16570000Y7175000D03*
X-17530000Y7175000D03*
%TD*%
D14*
%TO.C,R6*%
X11877500Y17395000D03*
X11877500Y16375000D03*
%TD*%
D15*
%TO.C,P1*%
X3200000Y26895000D03*
X2400000Y26895000D03*
D16*
X1250000Y26895000D03*
X250000Y26895000D03*
X-250000Y26895000D03*
X-1250000Y26895000D03*
D15*
X-2400000Y26895000D03*
X-3200000Y26895000D03*
X-3200000Y26895000D03*
X-2400000Y26895000D03*
D16*
X-1750000Y26895000D03*
X-750000Y26895000D03*
X750000Y26895000D03*
X1750000Y26895000D03*
D15*
X2400000Y26895000D03*
X3200000Y26895000D03*
D17*
X5619999Y28119999D03*
D18*
X5619999Y32119999D03*
D17*
X-5619999Y28119999D03*
D18*
X-5619999Y32119999D03*
%TD*%
D13*
%TO.C,C5*%
X-11580000Y7040000D03*
X-12540000Y7040000D03*
%TD*%
D19*
%TO.C,U8*%
X20437500Y-950000D03*
X20437500Y950000D03*
X18562500Y0D03*
%TD*%
D20*
%TO.C,U1*%
X9325000Y7612500D03*
X11225000Y7612500D03*
X10275000Y9487500D03*
%TD*%
D21*
%TO.C,Y1*%
X-20512272Y16681742D03*
X-20512272Y14481742D03*
X-18812272Y14481742D03*
X-18812272Y16681742D03*
%TD*%
D22*
%TO.C,U3*%
X1910000Y23480000D03*
D23*
X210000Y23480000D03*
X210000Y21480000D03*
X2110000Y21480000D03*
%TD*%
D24*
%TO.C,C9*%
X4165000Y7587500D03*
X7115000Y7587500D03*
%TD*%
D13*
%TO.C,C2*%
X-15810000Y17900000D03*
X-16770000Y17900000D03*
%TD*%
D25*
%TO.C,R1*%
X3600000Y24065000D03*
X3600000Y23105000D03*
%TD*%
D26*
%TO.C,C7*%
X10260000Y11777500D03*
X7310000Y11777500D03*
%TD*%
D27*
%TO.C,C18*%
X-16820000Y-1860000D03*
X-16820000Y-900000D03*
%TD*%
%TO.C,C14*%
X-16070000Y11610000D03*
X-16070000Y12570000D03*
%TD*%
D28*
%TO.C,C10*%
X1247813Y10981187D03*
X1247813Y8031187D03*
%TD*%
D29*
%TO.C,C3*%
X-12675000Y21630000D03*
X-11715000Y21630000D03*
%TD*%
D30*
%TO.C,R5*%
X-16020000Y15230000D03*
X-17040000Y15230000D03*
%TD*%
D31*
%TO.C,R7*%
X6750000Y17190000D03*
X6750000Y18210000D03*
%TD*%
D19*
%TO.C,U7*%
X937500Y-950000D03*
X937500Y950000D03*
X-937500Y0D03*
%TD*%
D29*
%TO.C,C6*%
X-2850000Y19020000D03*
X-1890000Y19020000D03*
%TD*%
D25*
%TO.C,C20*%
X2450000Y10000D03*
X2450000Y-950000D03*
%TD*%
D19*
%TO.C,U9*%
X-18562500Y-950000D03*
X-18562500Y950000D03*
X-20437500Y0D03*
%TD*%
D25*
%TO.C,R2*%
X-1758000Y25097000D03*
X-1758000Y24137000D03*
%TD*%
D31*
%TO.C,R4*%
X-1250000Y10130000D03*
X-1250000Y11150000D03*
%TD*%
D27*
%TO.C,C13*%
X-17150000Y11620000D03*
X-17150000Y12580000D03*
%TD*%
D25*
%TO.C,C19*%
X21970000Y-50000D03*
X21970000Y-1010000D03*
%TD*%
D32*
%TO.C,C8*%
X13220000Y7555000D03*
X13220000Y10505000D03*
%TD*%
D13*
%TO.C,C16*%
X-19192272Y12721742D03*
X-20152272Y12721742D03*
%TD*%
D25*
%TO.C,C4*%
X-3890000Y8591041D03*
X-3890000Y7631041D03*
%TD*%
D19*
%TO.C,Q1*%
X10175000Y16225000D03*
X10175000Y18125000D03*
X8300000Y17175000D03*
%TD*%
D29*
%TO.C,C15*%
X-20157272Y18201742D03*
X-19197272Y18201742D03*
%TD*%
D33*
%TO.C,U5*%
X-14275000Y18100000D03*
X-14275000Y17600000D03*
X-14275000Y17100000D03*
X-14275000Y16600000D03*
X-14275000Y16100000D03*
X-14275000Y15600000D03*
X-14275000Y15100000D03*
X-14275000Y14600000D03*
X-14275000Y14100000D03*
X-14275000Y13600000D03*
X-14275000Y13100000D03*
X-14275000Y12600000D03*
X-14275000Y12100000D03*
X-14275000Y11600000D03*
X-14275000Y11100000D03*
X-14275000Y10600000D03*
D34*
X-12350000Y8675000D03*
X-11850000Y8675000D03*
X-11350000Y8675000D03*
X-10850000Y8675000D03*
X-10350000Y8675000D03*
X-9850000Y8675000D03*
X-9350000Y8675000D03*
X-8850000Y8675000D03*
X-8350000Y8675000D03*
X-7850000Y8675000D03*
X-7350000Y8675000D03*
X-6850000Y8675000D03*
X-6350000Y8675000D03*
X-5850000Y8675000D03*
X-5350000Y8675000D03*
X-4850000Y8675000D03*
D33*
X-2925000Y10600000D03*
X-2925000Y11100000D03*
X-2925000Y11600000D03*
X-2925000Y12100000D03*
X-2925000Y12600000D03*
X-2925000Y13100000D03*
X-2925000Y13600000D03*
X-2925000Y14100000D03*
X-2925000Y14600000D03*
X-2925000Y15100000D03*
X-2925000Y15600000D03*
X-2925000Y16100000D03*
X-2925000Y16600000D03*
X-2925000Y17100000D03*
X-2925000Y17600000D03*
X-2925000Y18100000D03*
D34*
X-4850000Y20025000D03*
X-5350000Y20025000D03*
X-5850000Y20025000D03*
X-6350000Y20025000D03*
X-6850000Y20025000D03*
X-7350000Y20025000D03*
X-7850000Y20025000D03*
X-8350000Y20025000D03*
X-8850000Y20025000D03*
X-9350000Y20025000D03*
X-9850000Y20025000D03*
X-10350000Y20025000D03*
X-10850000Y20025000D03*
X-11350000Y20025000D03*
X-11850000Y20025000D03*
X-12350000Y20025000D03*
%TD*%
D35*
%TO.C,J1*%
X-16530000Y26350000D03*
D36*
X-13989999Y26349999D03*
X-11449999Y26349999D03*
X-8909999Y26349999D03*
%TD*%
D37*
%TO.C,F1*%
X7450000Y24770000D03*
X10250000Y24770000D03*
%TD*%
D38*
%TO.C,C17*%
X-5390000Y6660000D03*
X-5390000Y4760000D03*
%TD*%
D39*
%TO.C,U2*%
X3650000Y9832500D03*
X4600000Y9832500D03*
X5550000Y9832500D03*
X5550000Y12107500D03*
X3650000Y12107500D03*
%TD*%
D40*
%TO.C,H3*%
X0Y-13500000D03*
%TD*%
D41*
%TO.C,REF\u002A\u002A*%
X24580000Y0D03*
X14420000Y0D03*
%TD*%
%TO.C,REF\u002A\u002A*%
X5080000Y0D03*
X-5080000Y0D03*
%TD*%
D40*
%TO.C,H2*%
X-24500000Y13500000D03*
%TD*%
%TO.C,H1*%
X24500000Y13500000D03*
%TD*%
D41*
%TO.C,REF\u002A\u002A*%
X-14420000Y0D03*
X-24580000Y0D03*
%TD*%
M02*
