%TF.GenerationSoftware,KiCad,Pcbnew,(7.0.0-0)*%
%TF.CreationDate,2023-03-04T18:51:26-06:00*%
%TF.ProjectId,plate,706c6174-652e-46b6-9963-61645f706362,rev?*%
%TF.SameCoordinates,Original*%
%TF.FileFunction,Legend,Top*%
%TF.FilePolarity,Positive*%
%FSLAX46Y46*%
G04 Gerber Fmt 4.6, Leading zero omitted, Abs format (unit mm)*
G04 Created by KiCad (PCBNEW (7.0.0-0)) date 2023-03-04 18:51:26*
%MOMM*%
%LPD*%
G01*
G04 APERTURE LIST*
%ADD10C,4.000000*%
%ADD11C,0.150000*%
G04 APERTURE END LIST*
D10*
X138000000Y-100000000D02*
G75*
G03*
X138000000Y-100000000I-38000000J0D01*
G01*
D11*
%TO.C,H3*%
X66238095Y-96167380D02*
X66238095Y-95167380D01*
X66238095Y-95643571D02*
X66809523Y-95643571D01*
X66809523Y-96167380D02*
X66809523Y-95167380D01*
X67190476Y-95167380D02*
X67809523Y-95167380D01*
X67809523Y-95167380D02*
X67476190Y-95548333D01*
X67476190Y-95548333D02*
X67619047Y-95548333D01*
X67619047Y-95548333D02*
X67714285Y-95595952D01*
X67714285Y-95595952D02*
X67761904Y-95643571D01*
X67761904Y-95643571D02*
X67809523Y-95738809D01*
X67809523Y-95738809D02*
X67809523Y-95976904D01*
X67809523Y-95976904D02*
X67761904Y-96072142D01*
X67761904Y-96072142D02*
X67714285Y-96119761D01*
X67714285Y-96119761D02*
X67619047Y-96167380D01*
X67619047Y-96167380D02*
X67333333Y-96167380D01*
X67333333Y-96167380D02*
X67238095Y-96119761D01*
X67238095Y-96119761D02*
X67190476Y-96072142D01*
%TO.C,H2*%
X132238095Y-96167380D02*
X132238095Y-95167380D01*
X132238095Y-95643571D02*
X132809523Y-95643571D01*
X132809523Y-96167380D02*
X132809523Y-95167380D01*
X133238095Y-95262619D02*
X133285714Y-95215000D01*
X133285714Y-95215000D02*
X133380952Y-95167380D01*
X133380952Y-95167380D02*
X133619047Y-95167380D01*
X133619047Y-95167380D02*
X133714285Y-95215000D01*
X133714285Y-95215000D02*
X133761904Y-95262619D01*
X133761904Y-95262619D02*
X133809523Y-95357857D01*
X133809523Y-95357857D02*
X133809523Y-95453095D01*
X133809523Y-95453095D02*
X133761904Y-95595952D01*
X133761904Y-95595952D02*
X133190476Y-96167380D01*
X133190476Y-96167380D02*
X133809523Y-96167380D01*
%TD*%
M02*
