M48
; DRILL file {KiCad (7.0.0-0)} date Tuesday, March 07, 2023 at 08:42:41 PM
; FORMAT={-:-/ absolute / inch / decimal}
; #@! TF.CreationDate,2023-03-07T20:42:41-06:00
; #@! TF.GenerationSoftware,Kicad,Pcbnew,(7.0.0-0)
; #@! TF.FileFunction,NonPlated,1,2,NPTH
FMAT,2
INCH
; #@! TA.AperFunction,NonPlated,NPTH,ComponentDrill
T1C0.0118
; #@! TA.AperFunction,NonPlated,NPTH,ComponentDrill
T2C0.0669
; #@! TA.AperFunction,NonPlated,NPTH,ComponentDrill
T3C0.0906
; #@! TA.AperFunction,NonPlated,NPTH,ComponentDrill
T4C0.1260
%
G90
G05
T2
X-0.9677Y0.0
X-0.5677Y0.0
X-0.2Y0.0
X0.2Y0.0
X0.5677Y0.0
X0.9677Y0.0
T3
X-0.3937Y-0.7874
X0.3937Y-0.7874
T4
X-1.063Y0.5512
X0.0Y-1.1417
X1.063Y0.5512
T1
G00X-0.4008Y1.1205
M15
G01X-0.4008Y0.6283
M16
G05
G00X-0.4008Y1.1205
M15
G01X-0.3634Y1.1205
M16
G05
G00X-0.4008Y0.6283
M15
G01X-0.3634Y0.6283
M16
G05
G00X-0.3634Y1.15
M15
G01X-0.3634Y1.1205
M16
G05
G00X-0.3634Y0.6283
M15
G01X-0.3634Y0.5988
M16
G05
G00X-0.3634Y1.15
M15
G01X0.2697Y1.15
M16
G05
G00X-0.3634Y0.5988
M15
G01X0.2697Y0.5988
M16
G05
G00X0.2697Y1.15
M15
G01X0.2697Y1.1205
M16
G05
G00X0.2697Y0.6283
M15
G01X0.2697Y0.5988
M16
G05
G00X0.2697Y1.1205
M15
G01X0.3071Y1.1205
M16
G05
G00X0.2697Y0.6283
M15
G01X0.3071Y0.6283
M16
G05
G00X0.3071Y1.1205
M15
G01X0.3071Y0.6283
M16
G05
T0
M30
