%TF.GenerationSoftware,KiCad,Pcbnew,(7.0.0-0)*%
%TF.CreationDate,2023-03-07T20:42:41-06:00*%
%TF.ProjectId,RP2040_minimal,52503230-3430-45f6-9d69-6e696d616c2e,REV1*%
%TF.SameCoordinates,Original*%
%TF.FileFunction,Legend,Top*%
%TF.FilePolarity,Positive*%
%FSLAX46Y46*%
G04 Gerber Fmt 4.6, Leading zero omitted, Abs format (unit mm)*
G04 Created by KiCad (PCBNEW (7.0.0-0)) date 2023-03-07 20:42:41*
%MOMM*%
%LPD*%
G01*
G04 APERTURE LIST*
%ADD10C,0.150000*%
%ADD11C,0.120000*%
%ADD12O,0.402000X12.902000*%
%ADD13O,1.352000X0.402000*%
%ADD14O,0.402000X1.152000*%
%ADD15O,16.483250X0.402000*%
%ADD16C,2.402000*%
%ADD17C,1.802000*%
%ADD18C,3.302000*%
G04 APERTURE END LIST*
D10*
%TO.C,H1*%
X26238095Y17832620D02*
X26238095Y18832620D01*
X26238095Y18356429D02*
X26809523Y18356429D01*
X26809523Y17832620D02*
X26809523Y18832620D01*
X27809523Y17832620D02*
X27238095Y17832620D01*
X27523809Y17832620D02*
X27523809Y18832620D01*
X27523809Y18832620D02*
X27428571Y18689762D01*
X27428571Y18689762D02*
X27333333Y18594524D01*
X27333333Y18594524D02*
X27238095Y18546905D01*
D11*
%TO.C,REF\u002A\u002A*%
X6985000Y-6985000D02*
X-6985000Y-6985000D01*
X6985000Y6985000D02*
X6985000Y-6985000D01*
X-6985000Y-6985000D02*
X-6985000Y6985000D01*
X-6985000Y6985000D02*
X6985000Y6985000D01*
X26485000Y-6985000D02*
X12515000Y-6985000D01*
X26485000Y6985000D02*
X26485000Y-6985000D01*
X12515000Y-6985000D02*
X12515000Y6985000D01*
X12515000Y6985000D02*
X26485000Y6985000D01*
X-26485000Y6985000D02*
X-12515000Y6985000D01*
X-26485000Y-6985000D02*
X-26485000Y6985000D01*
X-12515000Y6985000D02*
X-12515000Y-6985000D01*
X-12515000Y-6985000D02*
X-26485000Y-6985000D01*
%TD*%
%LPC*%
D12*
%TO.C,REF\u002A\u002A*%
X-10180624Y22209999D03*
D13*
X-9705624Y28459999D03*
X-9705624Y15959999D03*
D14*
X-9230624Y28834999D03*
X-9230624Y15584999D03*
D15*
X-1189999Y29209999D03*
X-1189999Y15209999D03*
D14*
X6850624Y28834999D03*
X6850624Y15584999D03*
D13*
X7325624Y28459999D03*
X7325624Y15959999D03*
D12*
X7800624Y22209999D03*
%TD*%
D16*
%TO.C,REF\u002A\u002A*%
X10000000Y-20000000D03*
%TD*%
%TO.C,REF\u002A\u002A*%
X-10000000Y-20000000D03*
%TD*%
D17*
%TO.C,REF\u002A\u002A*%
X5080000Y0D03*
X-5080000Y0D03*
%TD*%
%TO.C,REF\u002A\u002A*%
X24580000Y0D03*
X14420000Y0D03*
%TD*%
%TO.C,REF\u002A\u002A*%
X-24580000Y0D03*
X-14420000Y0D03*
%TD*%
D18*
%TO.C,H3*%
X0Y-29000000D03*
%TD*%
%TO.C,H2*%
X-27000000Y14000000D03*
%TD*%
%TO.C,H1*%
X27000000Y14000000D03*
%TD*%
M02*
