G04 #@! TF.GenerationSoftware,KiCad,Pcbnew,(7.0.0-0)*
G04 #@! TF.CreationDate,2023-03-01T20:47:15-06:00*
G04 #@! TF.ProjectId,RP2040_minimal,52503230-3430-45f6-9d69-6e696d616c2e,REV1*
G04 #@! TF.SameCoordinates,Original*
G04 #@! TF.FileFunction,Copper,L1,Top*
G04 #@! TF.FilePolarity,Positive*
%FSLAX46Y46*%
G04 Gerber Fmt 4.6, Leading zero omitted, Abs format (unit mm)*
G04 Created by KiCad (PCBNEW (7.0.0-0)) date 2023-03-01 20:47:15*
%MOMM*%
%LPD*%
G01*
G04 APERTURE LIST*
G04 #@! TA.AperFunction,ComponentPad*
%ADD10C,1.700000*%
G04 #@! TD*
G04 #@! TA.AperFunction,ComponentPad*
%ADD11C,2.000000*%
G04 #@! TD*
G04 #@! TA.AperFunction,ComponentPad*
%ADD12R,1.700000X1.700000*%
G04 #@! TD*
G04 #@! TA.AperFunction,ComponentPad*
%ADD13O,1.700000X1.700000*%
G04 #@! TD*
G04 #@! TA.AperFunction,ComponentPad*
%ADD14C,0.600000*%
G04 #@! TD*
G04 #@! TA.AperFunction,ComponentPad*
%ADD15O,1.000000X1.800000*%
G04 #@! TD*
G04 #@! TA.AperFunction,ComponentPad*
%ADD16O,1.000000X2.100000*%
G04 #@! TD*
G04 #@! TA.AperFunction,ViaPad*
%ADD17C,0.600000*%
G04 #@! TD*
G04 #@! TA.AperFunction,Conductor*
%ADD18C,0.150000*%
G04 #@! TD*
G04 #@! TA.AperFunction,Conductor*
%ADD19C,0.300000*%
G04 #@! TD*
G04 #@! TA.AperFunction,Conductor*
%ADD20C,0.400000*%
G04 #@! TD*
G04 #@! TA.AperFunction,Conductor*
%ADD21C,0.250000*%
G04 #@! TD*
G04 APERTURE END LIST*
D10*
X84708000Y-99990000D03*
X80218000Y-99940000D03*
D11*
X85968000Y-102480000D03*
X78958000Y-102480000D03*
D12*
X125983999Y-101091999D03*
D10*
X120138000Y-99990000D03*
X115648000Y-99940000D03*
D11*
X121398000Y-102480000D03*
X114388000Y-102480000D03*
D12*
X125699999Y-148868999D03*
D13*
X123159999Y-148868999D03*
X120619999Y-148868999D03*
X118079999Y-148868999D03*
X115539999Y-148868999D03*
D14*
X114912500Y-115452500D03*
X113637500Y-115452500D03*
X112362500Y-115452500D03*
X114912500Y-116727500D03*
X113637500Y-116727500D03*
X112362500Y-116727500D03*
X114912500Y-118002500D03*
X113637500Y-118002500D03*
X112362500Y-118002500D03*
D15*
X95679999Y-98924999D03*
D16*
X95679999Y-103104999D03*
D15*
X104319999Y-98924999D03*
D16*
X104319999Y-103104999D03*
D17*
X121762000Y-116318000D03*
X126562500Y-114652500D03*
X124147500Y-115890000D03*
X128370000Y-110430000D03*
X125130000Y-110470000D03*
X125162500Y-119352500D03*
X113370000Y-112040000D03*
X95000000Y-136090000D03*
X77290000Y-113710000D03*
X99170000Y-120350000D03*
X63650000Y-146260000D03*
X112965878Y-109755878D03*
X115620000Y-122590000D03*
X120492000Y-113841500D03*
X109280000Y-123350000D03*
X116760000Y-111990000D03*
X81420000Y-131050000D03*
X123610000Y-133400000D03*
X127734680Y-143764000D03*
X105797500Y-120730000D03*
X99180000Y-131290000D03*
X107520000Y-102730000D03*
X70280000Y-116380000D03*
X122651000Y-117524500D03*
X84545000Y-133655000D03*
X121444490Y-117143494D03*
X96840000Y-108590000D03*
X103130000Y-106450000D03*
X128262500Y-119352500D03*
X115450000Y-128330000D03*
X133654000Y-106405000D03*
X105810000Y-119740000D03*
X74180000Y-135270000D03*
X71730000Y-140840000D03*
X83620000Y-119490000D03*
X95990000Y-128230000D03*
X79520000Y-125210000D03*
X114420000Y-136400000D03*
X104080000Y-133480000D03*
X110350000Y-123400000D03*
X124400000Y-108060000D03*
X93245000Y-112850000D03*
X122662500Y-111936500D03*
X103300000Y-104780000D03*
X118630000Y-131237500D03*
X104780000Y-116730000D03*
X136560000Y-140435000D03*
X97190000Y-106400000D03*
X96105000Y-104565000D03*
X104760000Y-115760000D03*
X121444504Y-118262500D03*
X81620000Y-110150000D03*
X107350000Y-123360000D03*
X124097500Y-113590000D03*
X108350000Y-102670000D03*
X125730000Y-121158000D03*
X110740000Y-111680000D03*
X97200000Y-101210000D03*
X119470000Y-104320000D03*
X125730000Y-124206000D03*
X103200000Y-101190000D03*
X117690000Y-104360000D03*
X109320000Y-110290000D03*
X108837494Y-116527500D03*
X111537500Y-117417500D03*
X118862500Y-117562500D03*
X115747500Y-117365000D03*
X118110000Y-144018000D03*
X115570000Y-144018000D03*
X116586000Y-102870000D03*
X117094000Y-101600000D03*
X99080000Y-102650000D03*
X100355500Y-102615878D03*
X125730000Y-144018000D03*
X123190000Y-144018000D03*
X120650000Y-144018000D03*
D18*
X117690000Y-104360000D02*
X117730000Y-104320000D01*
X103180000Y-101210000D02*
X103200000Y-101190000D01*
D19*
X97200000Y-101210000D02*
X103180000Y-101210000D01*
D18*
X109320000Y-110290000D02*
X109350000Y-110290000D01*
X117730000Y-104320000D02*
X119470000Y-104320000D01*
X109350000Y-110290000D02*
X110740000Y-111680000D01*
X125730000Y-121158000D02*
X125730000Y-124206000D01*
D20*
X115804970Y-117320000D02*
X115772470Y-117352500D01*
X108837494Y-116527500D02*
X110647500Y-116527500D01*
X110647500Y-116527500D02*
X111537500Y-117417500D01*
X118862500Y-117562500D02*
X118620000Y-117320000D01*
X118620000Y-117320000D02*
X115804970Y-117320000D01*
D18*
X118110000Y-144018000D02*
X118110000Y-148839000D01*
X118110000Y-148839000D02*
X118080000Y-148869000D01*
X115570000Y-144018000D02*
X115570000Y-148839000D01*
X115570000Y-148839000D02*
X115540000Y-148869000D01*
X116586000Y-102870000D02*
X117094000Y-102362000D01*
X117094000Y-102362000D02*
X117094000Y-101600000D01*
D21*
X99114122Y-102615878D02*
X100355500Y-102615878D01*
X99080000Y-102650000D02*
X99114122Y-102615878D01*
D18*
X125730000Y-144018000D02*
X125730000Y-148839000D01*
X125730000Y-148839000D02*
X125700000Y-148869000D01*
X123190000Y-144018000D02*
X123190000Y-148839000D01*
X123190000Y-148839000D02*
X123160000Y-148869000D01*
X120650000Y-148839000D02*
X120620000Y-148869000D01*
X120650000Y-144018000D02*
X120650000Y-148839000D01*
G04 #@! TA.AperFunction,Conductor*
G36*
X137002777Y-97300655D02*
G01*
X137296701Y-97317162D01*
X137307724Y-97318404D01*
X137595224Y-97367252D01*
X137606018Y-97369715D01*
X137886251Y-97450449D01*
X137896722Y-97454113D01*
X137896890Y-97454183D01*
X138166134Y-97565708D01*
X138176136Y-97570525D01*
X138431354Y-97711578D01*
X138440755Y-97717485D01*
X138678575Y-97886228D01*
X138687254Y-97893149D01*
X138694369Y-97899507D01*
X138904697Y-98087467D01*
X138912532Y-98095302D01*
X138980169Y-98170988D01*
X139106850Y-98312745D01*
X139113771Y-98321424D01*
X139282514Y-98559244D01*
X139288421Y-98568645D01*
X139429474Y-98823863D01*
X139434291Y-98833865D01*
X139545884Y-99103273D01*
X139549551Y-99113752D01*
X139588762Y-99249854D01*
X139622553Y-99367147D01*
X139630280Y-99393966D01*
X139632749Y-99404788D01*
X139637677Y-99433789D01*
X139681594Y-99692270D01*
X139682837Y-99703302D01*
X139699344Y-99997222D01*
X139699500Y-100002773D01*
X139699500Y-153997227D01*
X139699344Y-154002778D01*
X139682837Y-154296697D01*
X139681594Y-154307729D01*
X139632750Y-154595209D01*
X139630280Y-154606033D01*
X139549551Y-154886247D01*
X139545884Y-154896726D01*
X139434291Y-155166134D01*
X139429474Y-155176136D01*
X139288421Y-155431354D01*
X139282514Y-155440755D01*
X139113771Y-155678575D01*
X139106850Y-155687254D01*
X138912540Y-155904689D01*
X138904689Y-155912540D01*
X138687254Y-156106850D01*
X138678575Y-156113771D01*
X138440755Y-156282514D01*
X138431354Y-156288421D01*
X138176136Y-156429474D01*
X138166134Y-156434291D01*
X137896726Y-156545884D01*
X137886247Y-156549551D01*
X137606033Y-156630280D01*
X137595209Y-156632750D01*
X137307729Y-156681594D01*
X137296697Y-156682837D01*
X137002778Y-156699344D01*
X136997227Y-156699500D01*
X63047008Y-156699500D01*
X63046526Y-156699463D01*
X63045729Y-156699210D01*
X63043372Y-156699224D01*
X63043364Y-156699224D01*
X63000960Y-156699488D01*
X62995364Y-156699365D01*
X62701084Y-156684539D01*
X62689958Y-156683345D01*
X62402024Y-156635867D01*
X62391104Y-156633425D01*
X62110374Y-156553759D01*
X62099799Y-156550101D01*
X61829844Y-156439262D01*
X61819750Y-156434434D01*
X61810728Y-156429474D01*
X61564024Y-156293838D01*
X61554552Y-156287910D01*
X61316321Y-156119352D01*
X61307568Y-156112384D01*
X61089886Y-155918026D01*
X61081973Y-155910113D01*
X60887615Y-155692431D01*
X60880646Y-155683677D01*
X60877036Y-155678575D01*
X60712086Y-155445443D01*
X60706164Y-155435980D01*
X60565561Y-155180242D01*
X60560740Y-155170162D01*
X60449896Y-154900196D01*
X60446240Y-154889625D01*
X60366571Y-154608883D01*
X60364135Y-154597988D01*
X60316653Y-154310040D01*
X60315460Y-154298915D01*
X60309041Y-154171496D01*
X60300633Y-154004615D01*
X60300511Y-153999057D01*
X60300790Y-153954271D01*
X60300536Y-153953473D01*
X60300500Y-153952992D01*
X60300500Y-152062635D01*
X64445718Y-152062635D01*
X64446198Y-152066594D01*
X64446199Y-152066601D01*
X64475411Y-152307185D01*
X64475412Y-152307193D01*
X64475893Y-152311149D01*
X64477003Y-152314983D01*
X64477004Y-152314985D01*
X64544429Y-152547767D01*
X64544431Y-152547773D01*
X64545541Y-152551604D01*
X64652859Y-152777772D01*
X64655123Y-152781052D01*
X64655126Y-152781057D01*
X64792795Y-152980504D01*
X64795068Y-152983797D01*
X64797833Y-152986676D01*
X64797835Y-152986678D01*
X64887672Y-153080208D01*
X64968484Y-153164341D01*
X65168615Y-153314730D01*
X65390279Y-153431069D01*
X65627734Y-153510343D01*
X65874831Y-153550500D01*
X66060480Y-153550500D01*
X66062481Y-153550500D01*
X66249527Y-153535400D01*
X66492591Y-153475490D01*
X66722897Y-153377366D01*
X66934481Y-153243568D01*
X67121862Y-153077563D01*
X67280188Y-152883650D01*
X67405357Y-152666850D01*
X67494128Y-152432780D01*
X67544202Y-152187500D01*
X67549234Y-152062635D01*
X133445718Y-152062635D01*
X133446198Y-152066594D01*
X133446199Y-152066601D01*
X133475411Y-152307185D01*
X133475412Y-152307193D01*
X133475893Y-152311149D01*
X133477003Y-152314983D01*
X133477004Y-152314985D01*
X133544429Y-152547767D01*
X133544431Y-152547773D01*
X133545541Y-152551604D01*
X133652859Y-152777772D01*
X133655123Y-152781052D01*
X133655126Y-152781057D01*
X133792795Y-152980504D01*
X133795068Y-152983797D01*
X133797833Y-152986676D01*
X133797835Y-152986678D01*
X133887672Y-153080208D01*
X133968484Y-153164341D01*
X134168615Y-153314730D01*
X134390279Y-153431069D01*
X134627734Y-153510343D01*
X134874831Y-153550500D01*
X135060480Y-153550500D01*
X135062481Y-153550500D01*
X135249527Y-153535400D01*
X135492591Y-153475490D01*
X135722897Y-153377366D01*
X135934481Y-153243568D01*
X136121862Y-153077563D01*
X136280188Y-152883650D01*
X136405357Y-152666850D01*
X136494128Y-152432780D01*
X136544202Y-152187500D01*
X136554282Y-151937365D01*
X136524107Y-151688851D01*
X136454459Y-151448396D01*
X136347141Y-151222228D01*
X136204932Y-151016203D01*
X136114868Y-150922437D01*
X136034272Y-150838528D01*
X136034270Y-150838526D01*
X136031516Y-150835659D01*
X136028338Y-150833271D01*
X136028336Y-150833269D01*
X135834569Y-150687663D01*
X135831385Y-150685270D01*
X135827857Y-150683418D01*
X135827855Y-150683417D01*
X135613251Y-150570783D01*
X135613243Y-150570779D01*
X135609721Y-150568931D01*
X135605938Y-150567668D01*
X135376053Y-150490921D01*
X135376049Y-150490920D01*
X135372266Y-150489657D01*
X135368334Y-150489018D01*
X135368326Y-150489016D01*
X135129106Y-150450139D01*
X135129095Y-150450138D01*
X135125169Y-150449500D01*
X134937519Y-150449500D01*
X134935548Y-150449659D01*
X134935525Y-150449660D01*
X134754453Y-150464278D01*
X134754444Y-150464279D01*
X134750473Y-150464600D01*
X134746595Y-150465555D01*
X134746594Y-150465556D01*
X134511287Y-150523554D01*
X134511285Y-150523554D01*
X134507409Y-150524510D01*
X134503745Y-150526070D01*
X134503736Y-150526074D01*
X134280772Y-150621070D01*
X134280764Y-150621074D01*
X134277103Y-150622634D01*
X134273743Y-150624758D01*
X134273731Y-150624765D01*
X134068896Y-150754296D01*
X134068891Y-150754299D01*
X134065519Y-150756432D01*
X134062533Y-150759076D01*
X134062528Y-150759081D01*
X133881124Y-150919791D01*
X133881119Y-150919795D01*
X133878138Y-150922437D01*
X133875621Y-150925519D01*
X133875613Y-150925528D01*
X133722332Y-151113263D01*
X133719812Y-151116350D01*
X133717827Y-151119786D01*
X133717820Y-151119798D01*
X133596635Y-151329698D01*
X133596630Y-151329707D01*
X133594643Y-151333150D01*
X133593233Y-151336866D01*
X133593229Y-151336876D01*
X133507287Y-151563487D01*
X133507284Y-151563495D01*
X133505872Y-151567220D01*
X133505073Y-151571129D01*
X133505072Y-151571136D01*
X133481824Y-151685014D01*
X133455798Y-151812500D01*
X133455637Y-151816484D01*
X133455637Y-151816488D01*
X133445878Y-152058645D01*
X133445878Y-152058654D01*
X133445718Y-152062635D01*
X67549234Y-152062635D01*
X67554282Y-151937365D01*
X67524107Y-151688851D01*
X67454459Y-151448396D01*
X67347141Y-151222228D01*
X67204932Y-151016203D01*
X67114868Y-150922437D01*
X67034272Y-150838528D01*
X67034270Y-150838526D01*
X67031516Y-150835659D01*
X67028338Y-150833271D01*
X67028336Y-150833269D01*
X66834569Y-150687663D01*
X66831385Y-150685270D01*
X66827857Y-150683418D01*
X66827855Y-150683417D01*
X66613251Y-150570783D01*
X66613243Y-150570779D01*
X66609721Y-150568931D01*
X66605938Y-150567668D01*
X66376053Y-150490921D01*
X66376049Y-150490920D01*
X66372266Y-150489657D01*
X66368334Y-150489018D01*
X66368326Y-150489016D01*
X66129106Y-150450139D01*
X66129095Y-150450138D01*
X66125169Y-150449500D01*
X65937519Y-150449500D01*
X65935548Y-150449659D01*
X65935525Y-150449660D01*
X65754453Y-150464278D01*
X65754444Y-150464279D01*
X65750473Y-150464600D01*
X65746595Y-150465555D01*
X65746594Y-150465556D01*
X65511287Y-150523554D01*
X65511285Y-150523554D01*
X65507409Y-150524510D01*
X65503745Y-150526070D01*
X65503736Y-150526074D01*
X65280772Y-150621070D01*
X65280764Y-150621074D01*
X65277103Y-150622634D01*
X65273743Y-150624758D01*
X65273731Y-150624765D01*
X65068896Y-150754296D01*
X65068891Y-150754299D01*
X65065519Y-150756432D01*
X65062533Y-150759076D01*
X65062528Y-150759081D01*
X64881124Y-150919791D01*
X64881119Y-150919795D01*
X64878138Y-150922437D01*
X64875621Y-150925519D01*
X64875613Y-150925528D01*
X64722332Y-151113263D01*
X64719812Y-151116350D01*
X64717827Y-151119786D01*
X64717820Y-151119798D01*
X64596635Y-151329698D01*
X64596630Y-151329707D01*
X64594643Y-151333150D01*
X64593233Y-151336866D01*
X64593229Y-151336876D01*
X64507287Y-151563487D01*
X64507284Y-151563495D01*
X64505872Y-151567220D01*
X64505073Y-151571129D01*
X64505072Y-151571136D01*
X64481824Y-151685014D01*
X64455798Y-151812500D01*
X64455637Y-151816484D01*
X64455637Y-151816488D01*
X64445878Y-152058645D01*
X64445878Y-152058654D01*
X64445718Y-152062635D01*
X60300500Y-152062635D01*
X60300500Y-148869000D01*
X114484417Y-148869000D01*
X114504700Y-149074934D01*
X114564768Y-149272954D01*
X114567062Y-149277246D01*
X114567063Y-149277248D01*
X114660023Y-149451163D01*
X114660025Y-149451166D01*
X114662315Y-149455450D01*
X114793590Y-149615410D01*
X114953550Y-149746685D01*
X115136046Y-149844232D01*
X115334066Y-149904300D01*
X115540000Y-149924583D01*
X115745934Y-149904300D01*
X115943954Y-149844232D01*
X116126450Y-149746685D01*
X116286410Y-149615410D01*
X116417685Y-149455450D01*
X116515232Y-149272954D01*
X116575300Y-149074934D01*
X116595583Y-148869000D01*
X117024417Y-148869000D01*
X117044700Y-149074934D01*
X117104768Y-149272954D01*
X117107062Y-149277246D01*
X117107063Y-149277248D01*
X117200023Y-149451163D01*
X117200025Y-149451166D01*
X117202315Y-149455450D01*
X117333590Y-149615410D01*
X117493550Y-149746685D01*
X117676046Y-149844232D01*
X117874066Y-149904300D01*
X118080000Y-149924583D01*
X118285934Y-149904300D01*
X118483954Y-149844232D01*
X118666450Y-149746685D01*
X118826410Y-149615410D01*
X118957685Y-149455450D01*
X119055232Y-149272954D01*
X119115300Y-149074934D01*
X119135583Y-148869000D01*
X119564417Y-148869000D01*
X119584700Y-149074934D01*
X119644768Y-149272954D01*
X119647062Y-149277246D01*
X119647063Y-149277248D01*
X119740023Y-149451163D01*
X119740025Y-149451166D01*
X119742315Y-149455450D01*
X119873590Y-149615410D01*
X120033550Y-149746685D01*
X120216046Y-149844232D01*
X120414066Y-149904300D01*
X120620000Y-149924583D01*
X120825934Y-149904300D01*
X121023954Y-149844232D01*
X121206450Y-149746685D01*
X121366410Y-149615410D01*
X121497685Y-149455450D01*
X121595232Y-149272954D01*
X121655300Y-149074934D01*
X121675583Y-148869000D01*
X122104417Y-148869000D01*
X122124700Y-149074934D01*
X122184768Y-149272954D01*
X122187062Y-149277246D01*
X122187063Y-149277248D01*
X122280023Y-149451163D01*
X122280025Y-149451166D01*
X122282315Y-149455450D01*
X122413590Y-149615410D01*
X122573550Y-149746685D01*
X122756046Y-149844232D01*
X122954066Y-149904300D01*
X123160000Y-149924583D01*
X123365934Y-149904300D01*
X123563954Y-149844232D01*
X123746450Y-149746685D01*
X123756121Y-149738748D01*
X124649500Y-149738748D01*
X124650446Y-149743506D01*
X124650447Y-149743511D01*
X124651534Y-149748976D01*
X124661133Y-149797231D01*
X124666550Y-149805338D01*
X124666551Y-149805340D01*
X124700028Y-149855441D01*
X124705448Y-149863552D01*
X124771769Y-149907867D01*
X124830252Y-149919500D01*
X126564890Y-149919500D01*
X126569748Y-149919500D01*
X126628231Y-149907867D01*
X126694552Y-149863552D01*
X126738867Y-149797231D01*
X126750500Y-149738748D01*
X126750500Y-147999252D01*
X126738867Y-147940769D01*
X126694552Y-147874448D01*
X126686441Y-147869028D01*
X126636340Y-147835551D01*
X126636338Y-147835550D01*
X126628231Y-147830133D01*
X126618667Y-147828230D01*
X126618666Y-147828230D01*
X126574511Y-147819447D01*
X126574506Y-147819446D01*
X126569748Y-147818500D01*
X126564890Y-147818500D01*
X126104500Y-147818500D01*
X126055000Y-147805237D01*
X126018763Y-147769000D01*
X126005500Y-147719500D01*
X126005500Y-144489951D01*
X126017609Y-144442506D01*
X126050975Y-144406668D01*
X126051135Y-144406565D01*
X126061128Y-144400143D01*
X126155377Y-144291373D01*
X126215165Y-144160457D01*
X126235647Y-144018000D01*
X126215165Y-143875543D01*
X126155377Y-143744627D01*
X126061128Y-143635857D01*
X126055174Y-143632030D01*
X126055171Y-143632028D01*
X125946010Y-143561875D01*
X125946008Y-143561874D01*
X125940053Y-143558047D01*
X125801961Y-143517500D01*
X125658039Y-143517500D01*
X125651248Y-143519493D01*
X125651247Y-143519494D01*
X125526740Y-143556052D01*
X125526737Y-143556053D01*
X125519947Y-143558047D01*
X125513994Y-143561872D01*
X125513989Y-143561875D01*
X125404828Y-143632028D01*
X125404822Y-143632033D01*
X125398872Y-143635857D01*
X125394236Y-143641206D01*
X125394235Y-143641208D01*
X125309263Y-143739271D01*
X125309260Y-143739275D01*
X125304623Y-143744627D01*
X125301680Y-143751070D01*
X125301678Y-143751074D01*
X125247778Y-143869097D01*
X125247776Y-143869102D01*
X125244835Y-143875543D01*
X125243827Y-143882551D01*
X125243826Y-143882556D01*
X125225361Y-144010989D01*
X125224353Y-144018000D01*
X125225361Y-144025011D01*
X125243826Y-144153443D01*
X125243827Y-144153446D01*
X125244835Y-144160457D01*
X125304623Y-144291373D01*
X125398872Y-144400143D01*
X125408727Y-144406476D01*
X125409025Y-144406668D01*
X125442391Y-144442506D01*
X125454500Y-144489951D01*
X125454500Y-147719500D01*
X125441237Y-147769000D01*
X125405000Y-147805237D01*
X125355500Y-147818500D01*
X124830252Y-147818500D01*
X124825494Y-147819446D01*
X124825488Y-147819447D01*
X124781333Y-147828230D01*
X124781330Y-147828231D01*
X124771769Y-147830133D01*
X124763663Y-147835549D01*
X124763659Y-147835551D01*
X124713558Y-147869028D01*
X124713555Y-147869030D01*
X124705448Y-147874448D01*
X124700030Y-147882555D01*
X124700028Y-147882558D01*
X124666551Y-147932659D01*
X124666549Y-147932663D01*
X124661133Y-147940769D01*
X124659231Y-147950330D01*
X124659230Y-147950333D01*
X124650447Y-147994488D01*
X124650446Y-147994494D01*
X124649500Y-147999252D01*
X124649500Y-149738748D01*
X123756121Y-149738748D01*
X123906410Y-149615410D01*
X124037685Y-149455450D01*
X124135232Y-149272954D01*
X124195300Y-149074934D01*
X124215583Y-148869000D01*
X124195300Y-148663066D01*
X124135232Y-148465046D01*
X124037685Y-148282550D01*
X123906410Y-148122590D01*
X123746450Y-147991315D01*
X123742166Y-147989025D01*
X123742163Y-147989023D01*
X123568248Y-147896063D01*
X123568246Y-147896062D01*
X123563954Y-147893768D01*
X123549769Y-147889465D01*
X123535762Y-147885216D01*
X123499225Y-147864911D01*
X123474324Y-147831337D01*
X123465500Y-147790479D01*
X123465500Y-144489951D01*
X123477609Y-144442506D01*
X123510975Y-144406668D01*
X123511135Y-144406565D01*
X123521128Y-144400143D01*
X123615377Y-144291373D01*
X123675165Y-144160457D01*
X123695647Y-144018000D01*
X123675165Y-143875543D01*
X123615377Y-143744627D01*
X123521128Y-143635857D01*
X123515174Y-143632030D01*
X123515171Y-143632028D01*
X123406010Y-143561875D01*
X123406008Y-143561874D01*
X123400053Y-143558047D01*
X123261961Y-143517500D01*
X123118039Y-143517500D01*
X123111248Y-143519493D01*
X123111247Y-143519494D01*
X122986740Y-143556052D01*
X122986737Y-143556053D01*
X122979947Y-143558047D01*
X122973994Y-143561872D01*
X122973989Y-143561875D01*
X122864828Y-143632028D01*
X122864822Y-143632033D01*
X122858872Y-143635857D01*
X122854236Y-143641206D01*
X122854235Y-143641208D01*
X122769263Y-143739271D01*
X122769260Y-143739275D01*
X122764623Y-143744627D01*
X122761680Y-143751070D01*
X122761678Y-143751074D01*
X122707778Y-143869097D01*
X122707776Y-143869102D01*
X122704835Y-143875543D01*
X122703827Y-143882551D01*
X122703826Y-143882556D01*
X122685361Y-144010989D01*
X122684353Y-144018000D01*
X122685361Y-144025011D01*
X122703826Y-144153443D01*
X122703827Y-144153446D01*
X122704835Y-144160457D01*
X122764623Y-144291373D01*
X122858872Y-144400143D01*
X122868727Y-144406476D01*
X122869025Y-144406668D01*
X122902391Y-144442506D01*
X122914500Y-144489951D01*
X122914500Y-147772279D01*
X122905675Y-147813137D01*
X122880775Y-147846711D01*
X122844237Y-147867015D01*
X122837604Y-147869028D01*
X122760709Y-147892353D01*
X122760704Y-147892354D01*
X122756046Y-147893768D01*
X122751757Y-147896060D01*
X122751751Y-147896063D01*
X122577836Y-147989023D01*
X122577828Y-147989028D01*
X122573550Y-147991315D01*
X122569796Y-147994394D01*
X122569791Y-147994399D01*
X122417354Y-148119500D01*
X122417348Y-148119505D01*
X122413590Y-148122590D01*
X122410505Y-148126348D01*
X122410500Y-148126354D01*
X122285399Y-148278791D01*
X122285394Y-148278796D01*
X122282315Y-148282550D01*
X122280028Y-148286828D01*
X122280023Y-148286836D01*
X122187063Y-148460751D01*
X122187060Y-148460757D01*
X122184768Y-148465046D01*
X122183355Y-148469702D01*
X122183354Y-148469706D01*
X122126112Y-148658409D01*
X122126110Y-148658415D01*
X122124700Y-148663066D01*
X122104417Y-148869000D01*
X121675583Y-148869000D01*
X121655300Y-148663066D01*
X121595232Y-148465046D01*
X121497685Y-148282550D01*
X121366410Y-148122590D01*
X121206450Y-147991315D01*
X121202166Y-147989025D01*
X121202163Y-147989023D01*
X121028248Y-147896063D01*
X121028246Y-147896062D01*
X121023954Y-147893768D01*
X121009769Y-147889465D01*
X120995762Y-147885216D01*
X120959225Y-147864911D01*
X120934324Y-147831337D01*
X120925500Y-147790479D01*
X120925500Y-144489951D01*
X120937609Y-144442506D01*
X120970975Y-144406668D01*
X120971135Y-144406565D01*
X120981128Y-144400143D01*
X121075377Y-144291373D01*
X121135165Y-144160457D01*
X121155647Y-144018000D01*
X121135165Y-143875543D01*
X121075377Y-143744627D01*
X120981128Y-143635857D01*
X120975174Y-143632030D01*
X120975171Y-143632028D01*
X120866010Y-143561875D01*
X120866008Y-143561874D01*
X120860053Y-143558047D01*
X120721961Y-143517500D01*
X120578039Y-143517500D01*
X120571248Y-143519493D01*
X120571247Y-143519494D01*
X120446740Y-143556052D01*
X120446737Y-143556053D01*
X120439947Y-143558047D01*
X120433994Y-143561872D01*
X120433989Y-143561875D01*
X120324828Y-143632028D01*
X120324822Y-143632033D01*
X120318872Y-143635857D01*
X120314236Y-143641206D01*
X120314235Y-143641208D01*
X120229263Y-143739271D01*
X120229260Y-143739275D01*
X120224623Y-143744627D01*
X120221680Y-143751070D01*
X120221678Y-143751074D01*
X120167778Y-143869097D01*
X120167776Y-143869102D01*
X120164835Y-143875543D01*
X120163827Y-143882551D01*
X120163826Y-143882556D01*
X120145361Y-144010989D01*
X120144353Y-144018000D01*
X120145361Y-144025011D01*
X120163826Y-144153443D01*
X120163827Y-144153446D01*
X120164835Y-144160457D01*
X120224623Y-144291373D01*
X120318872Y-144400143D01*
X120328727Y-144406476D01*
X120329025Y-144406668D01*
X120362391Y-144442506D01*
X120374500Y-144489951D01*
X120374500Y-147772279D01*
X120365675Y-147813137D01*
X120340775Y-147846711D01*
X120304237Y-147867015D01*
X120297604Y-147869028D01*
X120220709Y-147892353D01*
X120220704Y-147892354D01*
X120216046Y-147893768D01*
X120211757Y-147896060D01*
X120211751Y-147896063D01*
X120037836Y-147989023D01*
X120037828Y-147989028D01*
X120033550Y-147991315D01*
X120029796Y-147994394D01*
X120029791Y-147994399D01*
X119877354Y-148119500D01*
X119877348Y-148119505D01*
X119873590Y-148122590D01*
X119870505Y-148126348D01*
X119870500Y-148126354D01*
X119745399Y-148278791D01*
X119745394Y-148278796D01*
X119742315Y-148282550D01*
X119740028Y-148286828D01*
X119740023Y-148286836D01*
X119647063Y-148460751D01*
X119647060Y-148460757D01*
X119644768Y-148465046D01*
X119643355Y-148469702D01*
X119643354Y-148469706D01*
X119586112Y-148658409D01*
X119586110Y-148658415D01*
X119584700Y-148663066D01*
X119564417Y-148869000D01*
X119135583Y-148869000D01*
X119115300Y-148663066D01*
X119055232Y-148465046D01*
X118957685Y-148282550D01*
X118826410Y-148122590D01*
X118666450Y-147991315D01*
X118662166Y-147989025D01*
X118662163Y-147989023D01*
X118488248Y-147896063D01*
X118488246Y-147896062D01*
X118483954Y-147893768D01*
X118469769Y-147889465D01*
X118455762Y-147885216D01*
X118419225Y-147864911D01*
X118394324Y-147831337D01*
X118385500Y-147790479D01*
X118385500Y-144489951D01*
X118397609Y-144442506D01*
X118430975Y-144406668D01*
X118431135Y-144406565D01*
X118441128Y-144400143D01*
X118535377Y-144291373D01*
X118595165Y-144160457D01*
X118615647Y-144018000D01*
X118595165Y-143875543D01*
X118535377Y-143744627D01*
X118441128Y-143635857D01*
X118435174Y-143632030D01*
X118435171Y-143632028D01*
X118326010Y-143561875D01*
X118326008Y-143561874D01*
X118320053Y-143558047D01*
X118181961Y-143517500D01*
X118038039Y-143517500D01*
X118031248Y-143519493D01*
X118031247Y-143519494D01*
X117906740Y-143556052D01*
X117906737Y-143556053D01*
X117899947Y-143558047D01*
X117893994Y-143561872D01*
X117893989Y-143561875D01*
X117784828Y-143632028D01*
X117784822Y-143632033D01*
X117778872Y-143635857D01*
X117774236Y-143641206D01*
X117774235Y-143641208D01*
X117689263Y-143739271D01*
X117689260Y-143739275D01*
X117684623Y-143744627D01*
X117681680Y-143751070D01*
X117681678Y-143751074D01*
X117627778Y-143869097D01*
X117627776Y-143869102D01*
X117624835Y-143875543D01*
X117623827Y-143882551D01*
X117623826Y-143882556D01*
X117605361Y-144010989D01*
X117604353Y-144018000D01*
X117605361Y-144025011D01*
X117623826Y-144153443D01*
X117623827Y-144153446D01*
X117624835Y-144160457D01*
X117684623Y-144291373D01*
X117778872Y-144400143D01*
X117788727Y-144406476D01*
X117789025Y-144406668D01*
X117822391Y-144442506D01*
X117834500Y-144489951D01*
X117834500Y-147772279D01*
X117825675Y-147813137D01*
X117800775Y-147846711D01*
X117764237Y-147867015D01*
X117757604Y-147869028D01*
X117680709Y-147892353D01*
X117680704Y-147892354D01*
X117676046Y-147893768D01*
X117671757Y-147896060D01*
X117671751Y-147896063D01*
X117497836Y-147989023D01*
X117497828Y-147989028D01*
X117493550Y-147991315D01*
X117489796Y-147994394D01*
X117489791Y-147994399D01*
X117337354Y-148119500D01*
X117337348Y-148119505D01*
X117333590Y-148122590D01*
X117330505Y-148126348D01*
X117330500Y-148126354D01*
X117205399Y-148278791D01*
X117205394Y-148278796D01*
X117202315Y-148282550D01*
X117200028Y-148286828D01*
X117200023Y-148286836D01*
X117107063Y-148460751D01*
X117107060Y-148460757D01*
X117104768Y-148465046D01*
X117103355Y-148469702D01*
X117103354Y-148469706D01*
X117046112Y-148658409D01*
X117046110Y-148658415D01*
X117044700Y-148663066D01*
X117024417Y-148869000D01*
X116595583Y-148869000D01*
X116575300Y-148663066D01*
X116515232Y-148465046D01*
X116417685Y-148282550D01*
X116286410Y-148122590D01*
X116126450Y-147991315D01*
X116122166Y-147989025D01*
X116122163Y-147989023D01*
X115948248Y-147896063D01*
X115948246Y-147896062D01*
X115943954Y-147893768D01*
X115929769Y-147889465D01*
X115915762Y-147885216D01*
X115879225Y-147864911D01*
X115854324Y-147831337D01*
X115845500Y-147790479D01*
X115845500Y-144489951D01*
X115857609Y-144442506D01*
X115890975Y-144406668D01*
X115891135Y-144406565D01*
X115901128Y-144400143D01*
X115995377Y-144291373D01*
X116055165Y-144160457D01*
X116075647Y-144018000D01*
X116055165Y-143875543D01*
X115995377Y-143744627D01*
X115901128Y-143635857D01*
X115895174Y-143632030D01*
X115895171Y-143632028D01*
X115786010Y-143561875D01*
X115786008Y-143561874D01*
X115780053Y-143558047D01*
X115641961Y-143517500D01*
X115498039Y-143517500D01*
X115491248Y-143519493D01*
X115491247Y-143519494D01*
X115366740Y-143556052D01*
X115366737Y-143556053D01*
X115359947Y-143558047D01*
X115353994Y-143561872D01*
X115353989Y-143561875D01*
X115244828Y-143632028D01*
X115244822Y-143632033D01*
X115238872Y-143635857D01*
X115234236Y-143641206D01*
X115234235Y-143641208D01*
X115149263Y-143739271D01*
X115149260Y-143739275D01*
X115144623Y-143744627D01*
X115141680Y-143751070D01*
X115141678Y-143751074D01*
X115087778Y-143869097D01*
X115087776Y-143869102D01*
X115084835Y-143875543D01*
X115083827Y-143882551D01*
X115083826Y-143882556D01*
X115065361Y-144010989D01*
X115064353Y-144018000D01*
X115065361Y-144025011D01*
X115083826Y-144153443D01*
X115083827Y-144153446D01*
X115084835Y-144160457D01*
X115144623Y-144291373D01*
X115238872Y-144400143D01*
X115248727Y-144406476D01*
X115249025Y-144406668D01*
X115282391Y-144442506D01*
X115294500Y-144489951D01*
X115294500Y-147772279D01*
X115285675Y-147813137D01*
X115260775Y-147846711D01*
X115224237Y-147867015D01*
X115217604Y-147869028D01*
X115140709Y-147892353D01*
X115140704Y-147892354D01*
X115136046Y-147893768D01*
X115131757Y-147896060D01*
X115131751Y-147896063D01*
X114957836Y-147989023D01*
X114957828Y-147989028D01*
X114953550Y-147991315D01*
X114949796Y-147994394D01*
X114949791Y-147994399D01*
X114797354Y-148119500D01*
X114797348Y-148119505D01*
X114793590Y-148122590D01*
X114790505Y-148126348D01*
X114790500Y-148126354D01*
X114665399Y-148278791D01*
X114665394Y-148278796D01*
X114662315Y-148282550D01*
X114660028Y-148286828D01*
X114660023Y-148286836D01*
X114567063Y-148460751D01*
X114567060Y-148460757D01*
X114564768Y-148465046D01*
X114563355Y-148469702D01*
X114563354Y-148469706D01*
X114506112Y-148658409D01*
X114506110Y-148658415D01*
X114504700Y-148663066D01*
X114484417Y-148869000D01*
X60300500Y-148869000D01*
X60300500Y-135846793D01*
X78475599Y-135846793D01*
X78476445Y-135855924D01*
X78476445Y-135855927D01*
X78479078Y-135884338D01*
X78479500Y-135893472D01*
X78479500Y-135902844D01*
X78480340Y-135907343D01*
X78480341Y-135907344D01*
X78481222Y-135912059D01*
X78482483Y-135921105D01*
X78485116Y-135949521D01*
X78485118Y-135949531D01*
X78485965Y-135958660D01*
X78490053Y-135966871D01*
X78491432Y-135971716D01*
X78493252Y-135976416D01*
X78494939Y-135985433D01*
X78514793Y-136017498D01*
X78519228Y-136025460D01*
X78536042Y-136059228D01*
X78542820Y-136065407D01*
X78545859Y-136069431D01*
X78549251Y-136073152D01*
X78554081Y-136080952D01*
X78584170Y-136103674D01*
X78591195Y-136109507D01*
X78619067Y-136134916D01*
X78627627Y-136138232D01*
X78631912Y-136140885D01*
X78636414Y-136143126D01*
X78643736Y-136148656D01*
X78680002Y-136158974D01*
X78688657Y-136161874D01*
X78723827Y-136175500D01*
X78733004Y-136175500D01*
X78737951Y-136176425D01*
X78742966Y-136176889D01*
X78751793Y-136179401D01*
X78789337Y-136175922D01*
X78798472Y-136175500D01*
X82124272Y-136175500D01*
X82133763Y-136176823D01*
X82133836Y-136176044D01*
X82142967Y-136176890D01*
X82151793Y-136179401D01*
X82189337Y-136175922D01*
X82198472Y-136175500D01*
X82203263Y-136175500D01*
X82207844Y-136175500D01*
X82217049Y-136173778D01*
X82226107Y-136172514D01*
X82263660Y-136169035D01*
X82271876Y-136164943D01*
X82276714Y-136163567D01*
X82281411Y-136161747D01*
X82290433Y-136160061D01*
X82322491Y-136140210D01*
X82330463Y-136135770D01*
X82364228Y-136118958D01*
X82370413Y-136112172D01*
X82374434Y-136109136D01*
X82378147Y-136105750D01*
X82385952Y-136100919D01*
X82408673Y-136070829D01*
X82414504Y-136063806D01*
X82439916Y-136035933D01*
X82443230Y-136027375D01*
X82445873Y-136023108D01*
X82448122Y-136018591D01*
X82453656Y-136011264D01*
X82463977Y-135974983D01*
X82466872Y-135966348D01*
X82480500Y-135931173D01*
X82480500Y-135921998D01*
X82481425Y-135917050D01*
X82481889Y-135912033D01*
X82484401Y-135903207D01*
X82480922Y-135865662D01*
X82480500Y-135856528D01*
X82480500Y-135716793D01*
X98025599Y-135716793D01*
X98026445Y-135725924D01*
X98026445Y-135725927D01*
X98029078Y-135754338D01*
X98029500Y-135763472D01*
X98029500Y-135772844D01*
X98030340Y-135777343D01*
X98030341Y-135777344D01*
X98031222Y-135782059D01*
X98032483Y-135791105D01*
X98035116Y-135819521D01*
X98035118Y-135819531D01*
X98035965Y-135828660D01*
X98040053Y-135836871D01*
X98041432Y-135841716D01*
X98043252Y-135846416D01*
X98044939Y-135855433D01*
X98064793Y-135887498D01*
X98069228Y-135895460D01*
X98086042Y-135929228D01*
X98092820Y-135935407D01*
X98095859Y-135939431D01*
X98099251Y-135943152D01*
X98104081Y-135950952D01*
X98134170Y-135973674D01*
X98141195Y-135979507D01*
X98169067Y-136004916D01*
X98177627Y-136008232D01*
X98181912Y-136010885D01*
X98186414Y-136013126D01*
X98193736Y-136018656D01*
X98230002Y-136028974D01*
X98238657Y-136031874D01*
X98273827Y-136045500D01*
X98283004Y-136045500D01*
X98287951Y-136046425D01*
X98292966Y-136046889D01*
X98301793Y-136049401D01*
X98339337Y-136045922D01*
X98348472Y-136045500D01*
X101674272Y-136045500D01*
X101683763Y-136046823D01*
X101683836Y-136046044D01*
X101692967Y-136046890D01*
X101701793Y-136049401D01*
X101739337Y-136045922D01*
X101748472Y-136045500D01*
X101753263Y-136045500D01*
X101757844Y-136045500D01*
X101767049Y-136043778D01*
X101776107Y-136042514D01*
X101813660Y-136039035D01*
X101821876Y-136034943D01*
X101826714Y-136033567D01*
X101831411Y-136031747D01*
X101840433Y-136030061D01*
X101872491Y-136010210D01*
X101880463Y-136005770D01*
X101914228Y-135988958D01*
X101920413Y-135982172D01*
X101924434Y-135979136D01*
X101928147Y-135975750D01*
X101935952Y-135970919D01*
X101958673Y-135940829D01*
X101964504Y-135933806D01*
X101989916Y-135905933D01*
X101993230Y-135897375D01*
X101995873Y-135893108D01*
X101998122Y-135888591D01*
X102003656Y-135881264D01*
X102013977Y-135844983D01*
X102016872Y-135836348D01*
X102030500Y-135801173D01*
X102030500Y-135791998D01*
X102031425Y-135787050D01*
X102031889Y-135782033D01*
X102034401Y-135773207D01*
X102030922Y-135735662D01*
X102030500Y-135726528D01*
X102030500Y-135551793D01*
X117475599Y-135551793D01*
X117476445Y-135560924D01*
X117476445Y-135560927D01*
X117479078Y-135589338D01*
X117479500Y-135598472D01*
X117479500Y-135607844D01*
X117480340Y-135612343D01*
X117480341Y-135612344D01*
X117481222Y-135617059D01*
X117482483Y-135626105D01*
X117485116Y-135654521D01*
X117485118Y-135654531D01*
X117485965Y-135663660D01*
X117490053Y-135671871D01*
X117491432Y-135676716D01*
X117493252Y-135681416D01*
X117494939Y-135690433D01*
X117514793Y-135722498D01*
X117519228Y-135730460D01*
X117536042Y-135764228D01*
X117542820Y-135770407D01*
X117545859Y-135774431D01*
X117549251Y-135778152D01*
X117554081Y-135785952D01*
X117584170Y-135808674D01*
X117591195Y-135814507D01*
X117619067Y-135839916D01*
X117627627Y-135843232D01*
X117631912Y-135845885D01*
X117636414Y-135848126D01*
X117643736Y-135853656D01*
X117680002Y-135863974D01*
X117688657Y-135866874D01*
X117723827Y-135880500D01*
X117733004Y-135880500D01*
X117737951Y-135881425D01*
X117742966Y-135881889D01*
X117751793Y-135884401D01*
X117789337Y-135880922D01*
X117798472Y-135880500D01*
X121124272Y-135880500D01*
X121133763Y-135881823D01*
X121133836Y-135881044D01*
X121142967Y-135881890D01*
X121151793Y-135884401D01*
X121189337Y-135880922D01*
X121198472Y-135880500D01*
X121203263Y-135880500D01*
X121207844Y-135880500D01*
X121217049Y-135878778D01*
X121226107Y-135877514D01*
X121263660Y-135874035D01*
X121271876Y-135869943D01*
X121276714Y-135868567D01*
X121281411Y-135866747D01*
X121290433Y-135865061D01*
X121322491Y-135845210D01*
X121330463Y-135840770D01*
X121364228Y-135823958D01*
X121370413Y-135817172D01*
X121374434Y-135814136D01*
X121378147Y-135810750D01*
X121385952Y-135805919D01*
X121408673Y-135775829D01*
X121414504Y-135768806D01*
X121439916Y-135740933D01*
X121443230Y-135732375D01*
X121445873Y-135728108D01*
X121448122Y-135723591D01*
X121453656Y-135716264D01*
X121463977Y-135679983D01*
X121466872Y-135671348D01*
X121480500Y-135636173D01*
X121480500Y-135626998D01*
X121481425Y-135622050D01*
X121481889Y-135617033D01*
X121484401Y-135608207D01*
X121480922Y-135570662D01*
X121480500Y-135561528D01*
X121480500Y-132635728D01*
X121481823Y-132626236D01*
X121481044Y-132626164D01*
X121481890Y-132617032D01*
X121484401Y-132608207D01*
X121480922Y-132570662D01*
X121480500Y-132561528D01*
X121480500Y-132556737D01*
X121480500Y-132552156D01*
X121478778Y-132542945D01*
X121477514Y-132533897D01*
X121474035Y-132496340D01*
X121469945Y-132488127D01*
X121468569Y-132483289D01*
X121466747Y-132478586D01*
X121465061Y-132469567D01*
X121445217Y-132437518D01*
X121440766Y-132429528D01*
X121435557Y-132419067D01*
X121423958Y-132395772D01*
X121417179Y-132389592D01*
X121414145Y-132385574D01*
X121410748Y-132381848D01*
X121405919Y-132374048D01*
X121375833Y-132351328D01*
X121368798Y-132345487D01*
X121340933Y-132320084D01*
X121332381Y-132316770D01*
X121328104Y-132314122D01*
X121323582Y-132311870D01*
X121316264Y-132306344D01*
X121307443Y-132303834D01*
X121307441Y-132303833D01*
X121280001Y-132296026D01*
X121271332Y-132293120D01*
X121244726Y-132282813D01*
X121244723Y-132282812D01*
X121236173Y-132279500D01*
X121227002Y-132279500D01*
X121222053Y-132278575D01*
X121217030Y-132278109D01*
X121208207Y-132275599D01*
X121199074Y-132276445D01*
X121199072Y-132276445D01*
X121170662Y-132279078D01*
X121161528Y-132279500D01*
X117835728Y-132279500D01*
X117826236Y-132278176D01*
X117826164Y-132278956D01*
X117817030Y-132278109D01*
X117808207Y-132275599D01*
X117799074Y-132276445D01*
X117799072Y-132276445D01*
X117770662Y-132279078D01*
X117761528Y-132279500D01*
X117752156Y-132279500D01*
X117747661Y-132280339D01*
X117747650Y-132280341D01*
X117742939Y-132281222D01*
X117733895Y-132282483D01*
X117705478Y-132285117D01*
X117705472Y-132285118D01*
X117696340Y-132285965D01*
X117688130Y-132290051D01*
X117683283Y-132291431D01*
X117678577Y-132293253D01*
X117669567Y-132294939D01*
X117661774Y-132299763D01*
X117661771Y-132299765D01*
X117637516Y-132314783D01*
X117629534Y-132319229D01*
X117603985Y-132331951D01*
X117603979Y-132331954D01*
X117595772Y-132336042D01*
X117589594Y-132342817D01*
X117585563Y-132345862D01*
X117581840Y-132349255D01*
X117574048Y-132354081D01*
X117568522Y-132361397D01*
X117568520Y-132361400D01*
X117551322Y-132384174D01*
X117545488Y-132391199D01*
X117520084Y-132419067D01*
X117516772Y-132427614D01*
X117514124Y-132431891D01*
X117511870Y-132436417D01*
X117506344Y-132443736D01*
X117503834Y-132452554D01*
X117503831Y-132452562D01*
X117496024Y-132480002D01*
X117493120Y-132488669D01*
X117482812Y-132515276D01*
X117482811Y-132515278D01*
X117479500Y-132523827D01*
X117479500Y-132532997D01*
X117478575Y-132537946D01*
X117478109Y-132542969D01*
X117475599Y-132551793D01*
X117476445Y-132560924D01*
X117476445Y-132560927D01*
X117479078Y-132589338D01*
X117479500Y-132598472D01*
X117479500Y-135524272D01*
X117478176Y-135533763D01*
X117478956Y-135533836D01*
X117478109Y-135542969D01*
X117475599Y-135551793D01*
X102030500Y-135551793D01*
X102030500Y-132800728D01*
X102031823Y-132791236D01*
X102031044Y-132791164D01*
X102031890Y-132782032D01*
X102034401Y-132773207D01*
X102030922Y-132735662D01*
X102030500Y-132726528D01*
X102030500Y-132721737D01*
X102030500Y-132717156D01*
X102028778Y-132707945D01*
X102027514Y-132698897D01*
X102024035Y-132661340D01*
X102019945Y-132653127D01*
X102018569Y-132648289D01*
X102016747Y-132643586D01*
X102015061Y-132634567D01*
X101995217Y-132602518D01*
X101990766Y-132594528D01*
X101985557Y-132584067D01*
X101973958Y-132560772D01*
X101967179Y-132554592D01*
X101964145Y-132550574D01*
X101960748Y-132546848D01*
X101955919Y-132539048D01*
X101925833Y-132516328D01*
X101918798Y-132510487D01*
X101913298Y-132505473D01*
X101890933Y-132485084D01*
X101882381Y-132481770D01*
X101878104Y-132479122D01*
X101873582Y-132476870D01*
X101866264Y-132471344D01*
X101857443Y-132468834D01*
X101857441Y-132468833D01*
X101830001Y-132461026D01*
X101821332Y-132458120D01*
X101794726Y-132447813D01*
X101794723Y-132447812D01*
X101786173Y-132444500D01*
X101777002Y-132444500D01*
X101772053Y-132443575D01*
X101767030Y-132443109D01*
X101758207Y-132440599D01*
X101749074Y-132441445D01*
X101749072Y-132441445D01*
X101720662Y-132444078D01*
X101711528Y-132444500D01*
X98385728Y-132444500D01*
X98376236Y-132443176D01*
X98376164Y-132443956D01*
X98367030Y-132443109D01*
X98358207Y-132440599D01*
X98349074Y-132441445D01*
X98349072Y-132441445D01*
X98320662Y-132444078D01*
X98311528Y-132444500D01*
X98302156Y-132444500D01*
X98297661Y-132445339D01*
X98297650Y-132445341D01*
X98292939Y-132446222D01*
X98283895Y-132447483D01*
X98255478Y-132450117D01*
X98255472Y-132450118D01*
X98246340Y-132450965D01*
X98238130Y-132455051D01*
X98233283Y-132456431D01*
X98228577Y-132458253D01*
X98219567Y-132459939D01*
X98211774Y-132464763D01*
X98211771Y-132464765D01*
X98187516Y-132479783D01*
X98179534Y-132484229D01*
X98153985Y-132496951D01*
X98153979Y-132496954D01*
X98145772Y-132501042D01*
X98139594Y-132507817D01*
X98135563Y-132510862D01*
X98131840Y-132514255D01*
X98124048Y-132519081D01*
X98118522Y-132526397D01*
X98118520Y-132526400D01*
X98101322Y-132549174D01*
X98095488Y-132556199D01*
X98091320Y-132560772D01*
X98077236Y-132576222D01*
X98070084Y-132584067D01*
X98066772Y-132592614D01*
X98064124Y-132596891D01*
X98061870Y-132601417D01*
X98056344Y-132608736D01*
X98053834Y-132617554D01*
X98053831Y-132617562D01*
X98046024Y-132645002D01*
X98043120Y-132653669D01*
X98032812Y-132680276D01*
X98032811Y-132680278D01*
X98029500Y-132688827D01*
X98029500Y-132697997D01*
X98028575Y-132702946D01*
X98028109Y-132707969D01*
X98025599Y-132716793D01*
X98026445Y-132725924D01*
X98026445Y-132725927D01*
X98029078Y-132754338D01*
X98029500Y-132763472D01*
X98029500Y-135689272D01*
X98028176Y-135698763D01*
X98028956Y-135698836D01*
X98028109Y-135707969D01*
X98025599Y-135716793D01*
X82480500Y-135716793D01*
X82480500Y-132930728D01*
X82481823Y-132921236D01*
X82481044Y-132921164D01*
X82481890Y-132912032D01*
X82484401Y-132903207D01*
X82480922Y-132865662D01*
X82480500Y-132856528D01*
X82480500Y-132851737D01*
X82480500Y-132847156D01*
X82478778Y-132837945D01*
X82477514Y-132828897D01*
X82474035Y-132791340D01*
X82469945Y-132783127D01*
X82468569Y-132778289D01*
X82466747Y-132773586D01*
X82465061Y-132764567D01*
X82445217Y-132732518D01*
X82440766Y-132724528D01*
X82437095Y-132717156D01*
X82423958Y-132690772D01*
X82417179Y-132684592D01*
X82414145Y-132680574D01*
X82410748Y-132676848D01*
X82405919Y-132669048D01*
X82375833Y-132646328D01*
X82368798Y-132640487D01*
X82362304Y-132634567D01*
X82340933Y-132615084D01*
X82332381Y-132611770D01*
X82328104Y-132609122D01*
X82323582Y-132606870D01*
X82316264Y-132601344D01*
X82307443Y-132598834D01*
X82307441Y-132598833D01*
X82280001Y-132591026D01*
X82271332Y-132588120D01*
X82244726Y-132577813D01*
X82244723Y-132577812D01*
X82236173Y-132574500D01*
X82227002Y-132574500D01*
X82222053Y-132573575D01*
X82217030Y-132573109D01*
X82208207Y-132570599D01*
X82199074Y-132571445D01*
X82199072Y-132571445D01*
X82170662Y-132574078D01*
X82161528Y-132574500D01*
X78835728Y-132574500D01*
X78826236Y-132573176D01*
X78826164Y-132573956D01*
X78817030Y-132573109D01*
X78808207Y-132570599D01*
X78799074Y-132571445D01*
X78799072Y-132571445D01*
X78770662Y-132574078D01*
X78761528Y-132574500D01*
X78752156Y-132574500D01*
X78747661Y-132575339D01*
X78747650Y-132575341D01*
X78742939Y-132576222D01*
X78733895Y-132577483D01*
X78705478Y-132580117D01*
X78705472Y-132580118D01*
X78696340Y-132580965D01*
X78688130Y-132585051D01*
X78683283Y-132586431D01*
X78678577Y-132588253D01*
X78669567Y-132589939D01*
X78661774Y-132594763D01*
X78661771Y-132594765D01*
X78637516Y-132609783D01*
X78629534Y-132614229D01*
X78603985Y-132626951D01*
X78603979Y-132626954D01*
X78595772Y-132631042D01*
X78589594Y-132637817D01*
X78585563Y-132640862D01*
X78581840Y-132644255D01*
X78574048Y-132649081D01*
X78568522Y-132656397D01*
X78568520Y-132656400D01*
X78551322Y-132679174D01*
X78545488Y-132686199D01*
X78520084Y-132714067D01*
X78516772Y-132722614D01*
X78514124Y-132726891D01*
X78511870Y-132731417D01*
X78506344Y-132738736D01*
X78503834Y-132747554D01*
X78503831Y-132747562D01*
X78496024Y-132775002D01*
X78493120Y-132783669D01*
X78482812Y-132810276D01*
X78482811Y-132810278D01*
X78479500Y-132818827D01*
X78479500Y-132827997D01*
X78478575Y-132832946D01*
X78478109Y-132837969D01*
X78475599Y-132846793D01*
X78476445Y-132855924D01*
X78476445Y-132855927D01*
X78479078Y-132884338D01*
X78479500Y-132893472D01*
X78479500Y-135819272D01*
X78478176Y-135828763D01*
X78478956Y-135828836D01*
X78478109Y-135837969D01*
X78475599Y-135846793D01*
X60300500Y-135846793D01*
X60300500Y-130048390D01*
X74465824Y-130048390D01*
X74466583Y-130053348D01*
X74466584Y-130053357D01*
X74494335Y-130234505D01*
X74494336Y-130234512D01*
X74495097Y-130239474D01*
X74496841Y-130244184D01*
X74496842Y-130244186D01*
X74560490Y-130416041D01*
X74560493Y-130416048D01*
X74562236Y-130420753D01*
X74564892Y-130425015D01*
X74564893Y-130425016D01*
X74617451Y-130509339D01*
X74664491Y-130584807D01*
X74797677Y-130724919D01*
X74801791Y-130727783D01*
X74801793Y-130727784D01*
X74886291Y-130786596D01*
X74956342Y-130835353D01*
X75133988Y-130911587D01*
X75323344Y-130950500D01*
X75465695Y-130950500D01*
X75468206Y-130950500D01*
X75612321Y-130935845D01*
X75796768Y-130877974D01*
X75965791Y-130784159D01*
X76112468Y-130658240D01*
X76230796Y-130505373D01*
X76315930Y-130331816D01*
X76364385Y-130144674D01*
X76369268Y-130048390D01*
X84625824Y-130048390D01*
X84626583Y-130053348D01*
X84626584Y-130053357D01*
X84654335Y-130234505D01*
X84654336Y-130234512D01*
X84655097Y-130239474D01*
X84656841Y-130244184D01*
X84656842Y-130244186D01*
X84720490Y-130416041D01*
X84720493Y-130416048D01*
X84722236Y-130420753D01*
X84724892Y-130425015D01*
X84724893Y-130425016D01*
X84777451Y-130509339D01*
X84824491Y-130584807D01*
X84957677Y-130724919D01*
X84961791Y-130727783D01*
X84961793Y-130727784D01*
X85046291Y-130786596D01*
X85116342Y-130835353D01*
X85293988Y-130911587D01*
X85483344Y-130950500D01*
X85625695Y-130950500D01*
X85628206Y-130950500D01*
X85772321Y-130935845D01*
X85956768Y-130877974D01*
X86125791Y-130784159D01*
X86272468Y-130658240D01*
X86390796Y-130505373D01*
X86475930Y-130331816D01*
X86524385Y-130144674D01*
X86529268Y-130048390D01*
X93965824Y-130048390D01*
X93966583Y-130053348D01*
X93966584Y-130053357D01*
X93994335Y-130234505D01*
X93994336Y-130234512D01*
X93995097Y-130239474D01*
X93996841Y-130244184D01*
X93996842Y-130244186D01*
X94060490Y-130416041D01*
X94060493Y-130416048D01*
X94062236Y-130420753D01*
X94064892Y-130425015D01*
X94064893Y-130425016D01*
X94117451Y-130509339D01*
X94164491Y-130584807D01*
X94297677Y-130724919D01*
X94301791Y-130727783D01*
X94301793Y-130727784D01*
X94386291Y-130786596D01*
X94456342Y-130835353D01*
X94633988Y-130911587D01*
X94823344Y-130950500D01*
X94965695Y-130950500D01*
X94968206Y-130950500D01*
X95112321Y-130935845D01*
X95296768Y-130877974D01*
X95465791Y-130784159D01*
X95612468Y-130658240D01*
X95730796Y-130505373D01*
X95815930Y-130331816D01*
X95864385Y-130144674D01*
X95869268Y-130048390D01*
X104125824Y-130048390D01*
X104126583Y-130053348D01*
X104126584Y-130053357D01*
X104154335Y-130234505D01*
X104154336Y-130234512D01*
X104155097Y-130239474D01*
X104156841Y-130244184D01*
X104156842Y-130244186D01*
X104220490Y-130416041D01*
X104220493Y-130416048D01*
X104222236Y-130420753D01*
X104224892Y-130425015D01*
X104224893Y-130425016D01*
X104277451Y-130509339D01*
X104324491Y-130584807D01*
X104457677Y-130724919D01*
X104461791Y-130727783D01*
X104461793Y-130727784D01*
X104546291Y-130786596D01*
X104616342Y-130835353D01*
X104793988Y-130911587D01*
X104983344Y-130950500D01*
X105125695Y-130950500D01*
X105128206Y-130950500D01*
X105272321Y-130935845D01*
X105456768Y-130877974D01*
X105625791Y-130784159D01*
X105772468Y-130658240D01*
X105890796Y-130505373D01*
X105975930Y-130331816D01*
X106024385Y-130144674D01*
X106029268Y-130048390D01*
X113465824Y-130048390D01*
X113466583Y-130053348D01*
X113466584Y-130053357D01*
X113494335Y-130234505D01*
X113494336Y-130234512D01*
X113495097Y-130239474D01*
X113496841Y-130244184D01*
X113496842Y-130244186D01*
X113560490Y-130416041D01*
X113560493Y-130416048D01*
X113562236Y-130420753D01*
X113564892Y-130425015D01*
X113564893Y-130425016D01*
X113617451Y-130509339D01*
X113664491Y-130584807D01*
X113797677Y-130724919D01*
X113801791Y-130727783D01*
X113801793Y-130727784D01*
X113886291Y-130786596D01*
X113956342Y-130835353D01*
X114133988Y-130911587D01*
X114323344Y-130950500D01*
X114465695Y-130950500D01*
X114468206Y-130950500D01*
X114612321Y-130935845D01*
X114796768Y-130877974D01*
X114965791Y-130784159D01*
X115112468Y-130658240D01*
X115230796Y-130505373D01*
X115315930Y-130331816D01*
X115364385Y-130144674D01*
X115369268Y-130048390D01*
X123625824Y-130048390D01*
X123626583Y-130053348D01*
X123626584Y-130053357D01*
X123654335Y-130234505D01*
X123654336Y-130234512D01*
X123655097Y-130239474D01*
X123656841Y-130244184D01*
X123656842Y-130244186D01*
X123720490Y-130416041D01*
X123720493Y-130416048D01*
X123722236Y-130420753D01*
X123724892Y-130425015D01*
X123724893Y-130425016D01*
X123777451Y-130509339D01*
X123824491Y-130584807D01*
X123957677Y-130724919D01*
X123961791Y-130727783D01*
X123961793Y-130727784D01*
X124046291Y-130786596D01*
X124116342Y-130835353D01*
X124293988Y-130911587D01*
X124483344Y-130950500D01*
X124625695Y-130950500D01*
X124628206Y-130950500D01*
X124772321Y-130935845D01*
X124956768Y-130877974D01*
X125125791Y-130784159D01*
X125272468Y-130658240D01*
X125390796Y-130505373D01*
X125475930Y-130331816D01*
X125524385Y-130144674D01*
X125534176Y-129951610D01*
X125504903Y-129760526D01*
X125437764Y-129579247D01*
X125335509Y-129415193D01*
X125202323Y-129275081D01*
X125198208Y-129272217D01*
X125198206Y-129272215D01*
X125047779Y-129167515D01*
X125047776Y-129167513D01*
X125043658Y-129164647D01*
X125039042Y-129162666D01*
X125039040Y-129162665D01*
X124870620Y-129090390D01*
X124870616Y-129090388D01*
X124866012Y-129088413D01*
X124861108Y-129087405D01*
X124861101Y-129087403D01*
X124681567Y-129050509D01*
X124681564Y-129050508D01*
X124676656Y-129049500D01*
X124531794Y-129049500D01*
X124529297Y-129049753D01*
X124529295Y-129049754D01*
X124392677Y-129063646D01*
X124392669Y-129063647D01*
X124387679Y-129064155D01*
X124382893Y-129065656D01*
X124382886Y-129065658D01*
X124208021Y-129120523D01*
X124208017Y-129120524D01*
X124203232Y-129122026D01*
X124198850Y-129124457D01*
X124198841Y-129124462D01*
X124038600Y-129213403D01*
X124038594Y-129213406D01*
X124034209Y-129215841D01*
X124030403Y-129219107D01*
X124030399Y-129219111D01*
X123891338Y-129338491D01*
X123891329Y-129338499D01*
X123887532Y-129341760D01*
X123884466Y-129345720D01*
X123884462Y-129345725D01*
X123772274Y-129490660D01*
X123772271Y-129490664D01*
X123769204Y-129494627D01*
X123766997Y-129499125D01*
X123766994Y-129499131D01*
X123686278Y-129663681D01*
X123686275Y-129663687D01*
X123684070Y-129668184D01*
X123682815Y-129673027D01*
X123682812Y-129673038D01*
X123658874Y-129765494D01*
X123635615Y-129855326D01*
X123635361Y-129860334D01*
X123635360Y-129860341D01*
X123626078Y-130043373D01*
X123625824Y-130048390D01*
X115369268Y-130048390D01*
X115374176Y-129951610D01*
X115344903Y-129760526D01*
X115277764Y-129579247D01*
X115175509Y-129415193D01*
X115042323Y-129275081D01*
X115038208Y-129272217D01*
X115038206Y-129272215D01*
X114887779Y-129167515D01*
X114887776Y-129167513D01*
X114883658Y-129164647D01*
X114879042Y-129162666D01*
X114879040Y-129162665D01*
X114710620Y-129090390D01*
X114710616Y-129090388D01*
X114706012Y-129088413D01*
X114701108Y-129087405D01*
X114701101Y-129087403D01*
X114521567Y-129050509D01*
X114521564Y-129050508D01*
X114516656Y-129049500D01*
X114371794Y-129049500D01*
X114369297Y-129049753D01*
X114369295Y-129049754D01*
X114232677Y-129063646D01*
X114232669Y-129063647D01*
X114227679Y-129064155D01*
X114222893Y-129065656D01*
X114222886Y-129065658D01*
X114048021Y-129120523D01*
X114048017Y-129120524D01*
X114043232Y-129122026D01*
X114038850Y-129124457D01*
X114038841Y-129124462D01*
X113878600Y-129213403D01*
X113878594Y-129213406D01*
X113874209Y-129215841D01*
X113870403Y-129219107D01*
X113870399Y-129219111D01*
X113731338Y-129338491D01*
X113731329Y-129338499D01*
X113727532Y-129341760D01*
X113724466Y-129345720D01*
X113724462Y-129345725D01*
X113612274Y-129490660D01*
X113612271Y-129490664D01*
X113609204Y-129494627D01*
X113606997Y-129499125D01*
X113606994Y-129499131D01*
X113526278Y-129663681D01*
X113526275Y-129663687D01*
X113524070Y-129668184D01*
X113522815Y-129673027D01*
X113522812Y-129673038D01*
X113498874Y-129765494D01*
X113475615Y-129855326D01*
X113475361Y-129860334D01*
X113475360Y-129860341D01*
X113466078Y-130043373D01*
X113465824Y-130048390D01*
X106029268Y-130048390D01*
X106034176Y-129951610D01*
X106004903Y-129760526D01*
X105937764Y-129579247D01*
X105835509Y-129415193D01*
X105702323Y-129275081D01*
X105698208Y-129272217D01*
X105698206Y-129272215D01*
X105547779Y-129167515D01*
X105547776Y-129167513D01*
X105543658Y-129164647D01*
X105539042Y-129162666D01*
X105539040Y-129162665D01*
X105370620Y-129090390D01*
X105370616Y-129090388D01*
X105366012Y-129088413D01*
X105361108Y-129087405D01*
X105361101Y-129087403D01*
X105181567Y-129050509D01*
X105181564Y-129050508D01*
X105176656Y-129049500D01*
X105031794Y-129049500D01*
X105029297Y-129049753D01*
X105029295Y-129049754D01*
X104892677Y-129063646D01*
X104892669Y-129063647D01*
X104887679Y-129064155D01*
X104882893Y-129065656D01*
X104882886Y-129065658D01*
X104708021Y-129120523D01*
X104708017Y-129120524D01*
X104703232Y-129122026D01*
X104698850Y-129124457D01*
X104698841Y-129124462D01*
X104538600Y-129213403D01*
X104538594Y-129213406D01*
X104534209Y-129215841D01*
X104530403Y-129219107D01*
X104530399Y-129219111D01*
X104391338Y-129338491D01*
X104391329Y-129338499D01*
X104387532Y-129341760D01*
X104384466Y-129345720D01*
X104384462Y-129345725D01*
X104272274Y-129490660D01*
X104272271Y-129490664D01*
X104269204Y-129494627D01*
X104266997Y-129499125D01*
X104266994Y-129499131D01*
X104186278Y-129663681D01*
X104186275Y-129663687D01*
X104184070Y-129668184D01*
X104182815Y-129673027D01*
X104182812Y-129673038D01*
X104158874Y-129765494D01*
X104135615Y-129855326D01*
X104135361Y-129860334D01*
X104135360Y-129860341D01*
X104126078Y-130043373D01*
X104125824Y-130048390D01*
X95869268Y-130048390D01*
X95874176Y-129951610D01*
X95844903Y-129760526D01*
X95777764Y-129579247D01*
X95675509Y-129415193D01*
X95542323Y-129275081D01*
X95538208Y-129272217D01*
X95538206Y-129272215D01*
X95387779Y-129167515D01*
X95387776Y-129167513D01*
X95383658Y-129164647D01*
X95379042Y-129162666D01*
X95379040Y-129162665D01*
X95210620Y-129090390D01*
X95210616Y-129090388D01*
X95206012Y-129088413D01*
X95201108Y-129087405D01*
X95201101Y-129087403D01*
X95021567Y-129050509D01*
X95021564Y-129050508D01*
X95016656Y-129049500D01*
X94871794Y-129049500D01*
X94869297Y-129049753D01*
X94869295Y-129049754D01*
X94732677Y-129063646D01*
X94732669Y-129063647D01*
X94727679Y-129064155D01*
X94722893Y-129065656D01*
X94722886Y-129065658D01*
X94548021Y-129120523D01*
X94548017Y-129120524D01*
X94543232Y-129122026D01*
X94538850Y-129124457D01*
X94538841Y-129124462D01*
X94378600Y-129213403D01*
X94378594Y-129213406D01*
X94374209Y-129215841D01*
X94370403Y-129219107D01*
X94370399Y-129219111D01*
X94231338Y-129338491D01*
X94231329Y-129338499D01*
X94227532Y-129341760D01*
X94224466Y-129345720D01*
X94224462Y-129345725D01*
X94112274Y-129490660D01*
X94112271Y-129490664D01*
X94109204Y-129494627D01*
X94106997Y-129499125D01*
X94106994Y-129499131D01*
X94026278Y-129663681D01*
X94026275Y-129663687D01*
X94024070Y-129668184D01*
X94022815Y-129673027D01*
X94022812Y-129673038D01*
X93998874Y-129765494D01*
X93975615Y-129855326D01*
X93975361Y-129860334D01*
X93975360Y-129860341D01*
X93966078Y-130043373D01*
X93965824Y-130048390D01*
X86529268Y-130048390D01*
X86534176Y-129951610D01*
X86504903Y-129760526D01*
X86437764Y-129579247D01*
X86335509Y-129415193D01*
X86202323Y-129275081D01*
X86198208Y-129272217D01*
X86198206Y-129272215D01*
X86047779Y-129167515D01*
X86047776Y-129167513D01*
X86043658Y-129164647D01*
X86039042Y-129162666D01*
X86039040Y-129162665D01*
X85870620Y-129090390D01*
X85870616Y-129090388D01*
X85866012Y-129088413D01*
X85861108Y-129087405D01*
X85861101Y-129087403D01*
X85681567Y-129050509D01*
X85681564Y-129050508D01*
X85676656Y-129049500D01*
X85531794Y-129049500D01*
X85529297Y-129049753D01*
X85529295Y-129049754D01*
X85392677Y-129063646D01*
X85392669Y-129063647D01*
X85387679Y-129064155D01*
X85382893Y-129065656D01*
X85382886Y-129065658D01*
X85208021Y-129120523D01*
X85208017Y-129120524D01*
X85203232Y-129122026D01*
X85198850Y-129124457D01*
X85198841Y-129124462D01*
X85038600Y-129213403D01*
X85038594Y-129213406D01*
X85034209Y-129215841D01*
X85030403Y-129219107D01*
X85030399Y-129219111D01*
X84891338Y-129338491D01*
X84891329Y-129338499D01*
X84887532Y-129341760D01*
X84884466Y-129345720D01*
X84884462Y-129345725D01*
X84772274Y-129490660D01*
X84772271Y-129490664D01*
X84769204Y-129494627D01*
X84766997Y-129499125D01*
X84766994Y-129499131D01*
X84686278Y-129663681D01*
X84686275Y-129663687D01*
X84684070Y-129668184D01*
X84682815Y-129673027D01*
X84682812Y-129673038D01*
X84658874Y-129765494D01*
X84635615Y-129855326D01*
X84635361Y-129860334D01*
X84635360Y-129860341D01*
X84626078Y-130043373D01*
X84625824Y-130048390D01*
X76369268Y-130048390D01*
X76374176Y-129951610D01*
X76344903Y-129760526D01*
X76277764Y-129579247D01*
X76175509Y-129415193D01*
X76042323Y-129275081D01*
X76038208Y-129272217D01*
X76038206Y-129272215D01*
X75887779Y-129167515D01*
X75887776Y-129167513D01*
X75883658Y-129164647D01*
X75879042Y-129162666D01*
X75879040Y-129162665D01*
X75710620Y-129090390D01*
X75710616Y-129090388D01*
X75706012Y-129088413D01*
X75701108Y-129087405D01*
X75701101Y-129087403D01*
X75521567Y-129050509D01*
X75521564Y-129050508D01*
X75516656Y-129049500D01*
X75371794Y-129049500D01*
X75369297Y-129049753D01*
X75369295Y-129049754D01*
X75232677Y-129063646D01*
X75232669Y-129063647D01*
X75227679Y-129064155D01*
X75222893Y-129065656D01*
X75222886Y-129065658D01*
X75048021Y-129120523D01*
X75048017Y-129120524D01*
X75043232Y-129122026D01*
X75038850Y-129124457D01*
X75038841Y-129124462D01*
X74878600Y-129213403D01*
X74878594Y-129213406D01*
X74874209Y-129215841D01*
X74870403Y-129219107D01*
X74870399Y-129219111D01*
X74731338Y-129338491D01*
X74731329Y-129338499D01*
X74727532Y-129341760D01*
X74724466Y-129345720D01*
X74724462Y-129345725D01*
X74612274Y-129490660D01*
X74612271Y-129490664D01*
X74609204Y-129494627D01*
X74606997Y-129499125D01*
X74606994Y-129499131D01*
X74526278Y-129663681D01*
X74526275Y-129663687D01*
X74524070Y-129668184D01*
X74522815Y-129673027D01*
X74522812Y-129673038D01*
X74498874Y-129765494D01*
X74475615Y-129855326D01*
X74475361Y-129860334D01*
X74475360Y-129860341D01*
X74466078Y-130043373D01*
X74465824Y-130048390D01*
X60300500Y-130048390D01*
X60300500Y-124206000D01*
X125224353Y-124206000D01*
X125225361Y-124213011D01*
X125243826Y-124341443D01*
X125243827Y-124341446D01*
X125244835Y-124348457D01*
X125304623Y-124479373D01*
X125398872Y-124588143D01*
X125519947Y-124665953D01*
X125658039Y-124706500D01*
X125794883Y-124706500D01*
X125801961Y-124706500D01*
X125940053Y-124665953D01*
X126061128Y-124588143D01*
X126155377Y-124479373D01*
X126215165Y-124348457D01*
X126235647Y-124206000D01*
X126215165Y-124063543D01*
X126155377Y-123932627D01*
X126061128Y-123823857D01*
X126050975Y-123817332D01*
X126017609Y-123781494D01*
X126005500Y-123734049D01*
X126005500Y-121629951D01*
X126017609Y-121582506D01*
X126050975Y-121546668D01*
X126051135Y-121546565D01*
X126061128Y-121540143D01*
X126155377Y-121431373D01*
X126215165Y-121300457D01*
X126235647Y-121158000D01*
X126215165Y-121015543D01*
X126155377Y-120884627D01*
X126061128Y-120775857D01*
X126055174Y-120772030D01*
X126055171Y-120772028D01*
X125946010Y-120701875D01*
X125946008Y-120701874D01*
X125940053Y-120698047D01*
X125801961Y-120657500D01*
X125658039Y-120657500D01*
X125651248Y-120659493D01*
X125651247Y-120659494D01*
X125526740Y-120696052D01*
X125526737Y-120696053D01*
X125519947Y-120698047D01*
X125513994Y-120701872D01*
X125513989Y-120701875D01*
X125404828Y-120772028D01*
X125404822Y-120772033D01*
X125398872Y-120775857D01*
X125394236Y-120781206D01*
X125394235Y-120781208D01*
X125309263Y-120879271D01*
X125309260Y-120879275D01*
X125304623Y-120884627D01*
X125301680Y-120891070D01*
X125301678Y-120891074D01*
X125247778Y-121009097D01*
X125247776Y-121009102D01*
X125244835Y-121015543D01*
X125243827Y-121022551D01*
X125243826Y-121022556D01*
X125225361Y-121150989D01*
X125224353Y-121158000D01*
X125225361Y-121165011D01*
X125243826Y-121293443D01*
X125243827Y-121293446D01*
X125244835Y-121300457D01*
X125304623Y-121431373D01*
X125398872Y-121540143D01*
X125408727Y-121546476D01*
X125409025Y-121546668D01*
X125442391Y-121582506D01*
X125454500Y-121629951D01*
X125454500Y-123734049D01*
X125442391Y-123781494D01*
X125409024Y-123817332D01*
X125398872Y-123823857D01*
X125394236Y-123829206D01*
X125394235Y-123829208D01*
X125309263Y-123927271D01*
X125309260Y-123927275D01*
X125304623Y-123932627D01*
X125301680Y-123939070D01*
X125301678Y-123939074D01*
X125247778Y-124057097D01*
X125247776Y-124057102D01*
X125244835Y-124063543D01*
X125243827Y-124070551D01*
X125243826Y-124070556D01*
X125225361Y-124198989D01*
X125224353Y-124206000D01*
X60300500Y-124206000D01*
X60300500Y-118522220D01*
X112059283Y-118522220D01*
X112063146Y-118527488D01*
X112065911Y-118529084D01*
X112199875Y-118584573D01*
X112212300Y-118587902D01*
X112356066Y-118606830D01*
X112368934Y-118606830D01*
X112512699Y-118587902D01*
X112525124Y-118584573D01*
X112659090Y-118529083D01*
X112661853Y-118527488D01*
X112665715Y-118522220D01*
X113334283Y-118522220D01*
X113338146Y-118527488D01*
X113340911Y-118529084D01*
X113474875Y-118584573D01*
X113487300Y-118587902D01*
X113631066Y-118606830D01*
X113643934Y-118606830D01*
X113787699Y-118587902D01*
X113800124Y-118584573D01*
X113934090Y-118529083D01*
X113936853Y-118527488D01*
X113940715Y-118522220D01*
X114609283Y-118522220D01*
X114613146Y-118527488D01*
X114615911Y-118529084D01*
X114749875Y-118584573D01*
X114762300Y-118587902D01*
X114906066Y-118606830D01*
X114918934Y-118606830D01*
X115062699Y-118587902D01*
X115075124Y-118584573D01*
X115209090Y-118529083D01*
X115211853Y-118527488D01*
X115215716Y-118522219D01*
X115210402Y-118512534D01*
X114921714Y-118223846D01*
X114912499Y-118218526D01*
X114903285Y-118223846D01*
X114614599Y-118512531D01*
X114609283Y-118522220D01*
X113940715Y-118522220D01*
X113940716Y-118522219D01*
X113935402Y-118512534D01*
X113646714Y-118223846D01*
X113637499Y-118218526D01*
X113628285Y-118223846D01*
X113339599Y-118512531D01*
X113334283Y-118522220D01*
X112665715Y-118522220D01*
X112665716Y-118522219D01*
X112660402Y-118512534D01*
X112371714Y-118223846D01*
X112362499Y-118218526D01*
X112353285Y-118223846D01*
X112064599Y-118512531D01*
X112059283Y-118522220D01*
X60300500Y-118522220D01*
X60300500Y-116527500D01*
X108331847Y-116527500D01*
X108332855Y-116534511D01*
X108351320Y-116662943D01*
X108351321Y-116662946D01*
X108352329Y-116669957D01*
X108355271Y-116676399D01*
X108355272Y-116676402D01*
X108382816Y-116736714D01*
X108412117Y-116800873D01*
X108506366Y-116909643D01*
X108512320Y-116913469D01*
X108512322Y-116913471D01*
X108589830Y-116963282D01*
X108627441Y-116987453D01*
X108765533Y-117028000D01*
X108902377Y-117028000D01*
X108909455Y-117028000D01*
X109047547Y-116987453D01*
X109115603Y-116943715D01*
X109169126Y-116928000D01*
X110440599Y-116928000D01*
X110478485Y-116935536D01*
X110510603Y-116956996D01*
X111018754Y-117465147D01*
X111037278Y-117490836D01*
X111046742Y-117521060D01*
X111052335Y-117559957D01*
X111055275Y-117566394D01*
X111055276Y-117566398D01*
X111109178Y-117684425D01*
X111112123Y-117690873D01*
X111116762Y-117696227D01*
X111116763Y-117696228D01*
X111129908Y-117711398D01*
X111206372Y-117799643D01*
X111212326Y-117803469D01*
X111212328Y-117803471D01*
X111289089Y-117852802D01*
X111327447Y-117877453D01*
X111465539Y-117918000D01*
X111602383Y-117918000D01*
X111609461Y-117918000D01*
X111622664Y-117914123D01*
X111631280Y-117911594D01*
X111691551Y-117913029D01*
X111739813Y-117949159D01*
X111756882Y-118002557D01*
X111757323Y-118002500D01*
X111757644Y-118004938D01*
X111758170Y-118006584D01*
X111758170Y-118008934D01*
X111777097Y-118152699D01*
X111780426Y-118165124D01*
X111835918Y-118299094D01*
X111837508Y-118301849D01*
X111842779Y-118305714D01*
X111852466Y-118300400D01*
X112150368Y-118002499D01*
X112578526Y-118002499D01*
X112583846Y-118011714D01*
X112872534Y-118300402D01*
X112882219Y-118305716D01*
X112887488Y-118301853D01*
X112889083Y-118299090D01*
X112908536Y-118252127D01*
X112944998Y-118207697D01*
X113000000Y-118191012D01*
X113055002Y-118207697D01*
X113091464Y-118252127D01*
X113110918Y-118299094D01*
X113112508Y-118301849D01*
X113117779Y-118305714D01*
X113127466Y-118300400D01*
X113416151Y-118011716D01*
X113421473Y-118002499D01*
X113853526Y-118002499D01*
X113858846Y-118011714D01*
X114147534Y-118300402D01*
X114157219Y-118305716D01*
X114162488Y-118301853D01*
X114164083Y-118299090D01*
X114183536Y-118252127D01*
X114219998Y-118207697D01*
X114275000Y-118191012D01*
X114330002Y-118207697D01*
X114366464Y-118252127D01*
X114385918Y-118299094D01*
X114387508Y-118301849D01*
X114392779Y-118305714D01*
X114402466Y-118300400D01*
X114691151Y-118011716D01*
X114696473Y-118002499D01*
X114691153Y-117993285D01*
X114402466Y-117704598D01*
X114392780Y-117699284D01*
X114387511Y-117703147D01*
X114385916Y-117705910D01*
X114366464Y-117752873D01*
X114330001Y-117797303D01*
X114275000Y-117813987D01*
X114219999Y-117797303D01*
X114183536Y-117752873D01*
X114164083Y-117705910D01*
X114162486Y-117703144D01*
X114157219Y-117699283D01*
X114147532Y-117704598D01*
X113858846Y-117993285D01*
X113853526Y-118002499D01*
X113421473Y-118002499D01*
X113416153Y-117993285D01*
X113127466Y-117704598D01*
X113117780Y-117699284D01*
X113112511Y-117703147D01*
X113110916Y-117705910D01*
X113091464Y-117752873D01*
X113055001Y-117797303D01*
X113000000Y-117813987D01*
X112944999Y-117797303D01*
X112908536Y-117752873D01*
X112889083Y-117705910D01*
X112887486Y-117703144D01*
X112882219Y-117699283D01*
X112872532Y-117704598D01*
X112583846Y-117993285D01*
X112578526Y-118002499D01*
X112150368Y-118002499D01*
X112362500Y-117790368D01*
X112660400Y-117492466D01*
X112665714Y-117482779D01*
X112661849Y-117477508D01*
X112659094Y-117475918D01*
X112612127Y-117456464D01*
X112567697Y-117420002D01*
X112551012Y-117365000D01*
X112567697Y-117309998D01*
X112612127Y-117273536D01*
X112659090Y-117254083D01*
X112661853Y-117252488D01*
X112665715Y-117247220D01*
X113334283Y-117247220D01*
X113338146Y-117252488D01*
X113340911Y-117254084D01*
X113387872Y-117273536D01*
X113432302Y-117309998D01*
X113448987Y-117365000D01*
X113432303Y-117420001D01*
X113387873Y-117456464D01*
X113340910Y-117475916D01*
X113338147Y-117477511D01*
X113334284Y-117482780D01*
X113339598Y-117492466D01*
X113628285Y-117781153D01*
X113637499Y-117786473D01*
X113646716Y-117781151D01*
X113935400Y-117492466D01*
X113940714Y-117482779D01*
X113936849Y-117477508D01*
X113934094Y-117475918D01*
X113887127Y-117456464D01*
X113842697Y-117420002D01*
X113826012Y-117365000D01*
X113842697Y-117309998D01*
X113887127Y-117273536D01*
X113934090Y-117254083D01*
X113936853Y-117252488D01*
X113940715Y-117247220D01*
X114609283Y-117247220D01*
X114613146Y-117252488D01*
X114615911Y-117254084D01*
X114662872Y-117273536D01*
X114707302Y-117309998D01*
X114723987Y-117365000D01*
X114707303Y-117420001D01*
X114662873Y-117456464D01*
X114615910Y-117475916D01*
X114613147Y-117477511D01*
X114609284Y-117482780D01*
X114614598Y-117492466D01*
X115422534Y-118300402D01*
X115432219Y-118305716D01*
X115437488Y-118301853D01*
X115439083Y-118299090D01*
X115494573Y-118165124D01*
X115497902Y-118152699D01*
X115516830Y-118008934D01*
X115516830Y-117996066D01*
X115512414Y-117962524D01*
X115518121Y-117914179D01*
X115546182Y-117874398D01*
X115589811Y-117852802D01*
X115638457Y-117854611D01*
X115675539Y-117865500D01*
X115812383Y-117865500D01*
X115819461Y-117865500D01*
X115957553Y-117824953D01*
X116078628Y-117747143D01*
X116081642Y-117743664D01*
X116110166Y-117726742D01*
X116144762Y-117720500D01*
X118320810Y-117720500D01*
X118374333Y-117736216D01*
X118410863Y-117778373D01*
X118434180Y-117829430D01*
X118434181Y-117829432D01*
X118437123Y-117835873D01*
X118531372Y-117944643D01*
X118537326Y-117948469D01*
X118537328Y-117948471D01*
X118611388Y-117996066D01*
X118652447Y-118022453D01*
X118790539Y-118063000D01*
X118927383Y-118063000D01*
X118934461Y-118063000D01*
X119072553Y-118022453D01*
X119193628Y-117944643D01*
X119287877Y-117835873D01*
X119347665Y-117704957D01*
X119368147Y-117562500D01*
X119347665Y-117420043D01*
X119287877Y-117289127D01*
X119193628Y-117180357D01*
X119187674Y-117176530D01*
X119187671Y-117176528D01*
X119078510Y-117106375D01*
X119078508Y-117106374D01*
X119072553Y-117102547D01*
X119015588Y-117085820D01*
X118950115Y-117066596D01*
X118908003Y-117041610D01*
X118880916Y-117014523D01*
X118880909Y-117014516D01*
X118880905Y-117014513D01*
X118858342Y-116991950D01*
X118851402Y-116988413D01*
X118851397Y-116988410D01*
X118836850Y-116980998D01*
X118823609Y-116972884D01*
X118810392Y-116963282D01*
X118810389Y-116963280D01*
X118804090Y-116958704D01*
X118796687Y-116956298D01*
X118796680Y-116956295D01*
X118781140Y-116951246D01*
X118766796Y-116945305D01*
X118745304Y-116934354D01*
X118737609Y-116933135D01*
X118737606Y-116933134D01*
X118721474Y-116930579D01*
X118706374Y-116926953D01*
X118690844Y-116921907D01*
X118690839Y-116921906D01*
X118683433Y-116919500D01*
X118675643Y-116919500D01*
X116008311Y-116919500D01*
X115967185Y-116910554D01*
X115963511Y-116908876D01*
X115957553Y-116905047D01*
X115950757Y-116903051D01*
X115950756Y-116903051D01*
X115826252Y-116866494D01*
X115819461Y-116864500D01*
X115675539Y-116864500D01*
X115668752Y-116866492D01*
X115668743Y-116866494D01*
X115638456Y-116875387D01*
X115589809Y-116877196D01*
X115546181Y-116855600D01*
X115518121Y-116815820D01*
X115512414Y-116767474D01*
X115516830Y-116733932D01*
X115516830Y-116721066D01*
X115497902Y-116577300D01*
X115494573Y-116564875D01*
X115439084Y-116430912D01*
X115437486Y-116428144D01*
X115432218Y-116424283D01*
X115422534Y-116429596D01*
X114912500Y-116939632D01*
X114614599Y-117237531D01*
X114609283Y-117247220D01*
X113940715Y-117247220D01*
X113940716Y-117247219D01*
X113935402Y-117237534D01*
X113646714Y-116948846D01*
X113637499Y-116943526D01*
X113628285Y-116948846D01*
X113339599Y-117237531D01*
X113334283Y-117247220D01*
X112665715Y-117247220D01*
X112665716Y-117247219D01*
X112660402Y-117237534D01*
X112150367Y-116727499D01*
X112578526Y-116727499D01*
X112583846Y-116736714D01*
X112872534Y-117025402D01*
X112882219Y-117030716D01*
X112887488Y-117026853D01*
X112889083Y-117024090D01*
X112908536Y-116977127D01*
X112944998Y-116932697D01*
X113000000Y-116916012D01*
X113055002Y-116932697D01*
X113091464Y-116977127D01*
X113110918Y-117024094D01*
X113112508Y-117026849D01*
X113117779Y-117030714D01*
X113127466Y-117025400D01*
X113416151Y-116736716D01*
X113421473Y-116727499D01*
X113853526Y-116727499D01*
X113858846Y-116736714D01*
X114147534Y-117025402D01*
X114157219Y-117030716D01*
X114162488Y-117026853D01*
X114164083Y-117024090D01*
X114183536Y-116977127D01*
X114219998Y-116932697D01*
X114275000Y-116916012D01*
X114330002Y-116932697D01*
X114366464Y-116977127D01*
X114385918Y-117024094D01*
X114387508Y-117026849D01*
X114392779Y-117030714D01*
X114402466Y-117025400D01*
X114691151Y-116736716D01*
X114696473Y-116727499D01*
X114691153Y-116718285D01*
X114402466Y-116429598D01*
X114392780Y-116424284D01*
X114387511Y-116428147D01*
X114385916Y-116430910D01*
X114366464Y-116477873D01*
X114330001Y-116522303D01*
X114275000Y-116538987D01*
X114219999Y-116522303D01*
X114183536Y-116477873D01*
X114164083Y-116430910D01*
X114162486Y-116428144D01*
X114157219Y-116424283D01*
X114147532Y-116429598D01*
X113858846Y-116718285D01*
X113853526Y-116727499D01*
X113421473Y-116727499D01*
X113416153Y-116718285D01*
X113127466Y-116429598D01*
X113117780Y-116424284D01*
X113112511Y-116428147D01*
X113110916Y-116430910D01*
X113091464Y-116477873D01*
X113055001Y-116522303D01*
X113000000Y-116538987D01*
X112944999Y-116522303D01*
X112908536Y-116477873D01*
X112889083Y-116430910D01*
X112887486Y-116428144D01*
X112882219Y-116424283D01*
X112872532Y-116429598D01*
X112583846Y-116718285D01*
X112578526Y-116727499D01*
X112150367Y-116727499D01*
X111852466Y-116429598D01*
X111842780Y-116424284D01*
X111837511Y-116428147D01*
X111835915Y-116430912D01*
X111780426Y-116564875D01*
X111777097Y-116577300D01*
X111758170Y-116721066D01*
X111758170Y-116733934D01*
X111769373Y-116819032D01*
X111763665Y-116867378D01*
X111735604Y-116907158D01*
X111691975Y-116928754D01*
X111643328Y-116926944D01*
X111625115Y-116921596D01*
X111583003Y-116896610D01*
X110908416Y-116222023D01*
X110908415Y-116222022D01*
X110908409Y-116222016D01*
X110908405Y-116222013D01*
X110885842Y-116199450D01*
X110878902Y-116195913D01*
X110878897Y-116195910D01*
X110864350Y-116188498D01*
X110851109Y-116180384D01*
X110837892Y-116170782D01*
X110837889Y-116170780D01*
X110831590Y-116166204D01*
X110824187Y-116163798D01*
X110824180Y-116163795D01*
X110808640Y-116158746D01*
X110794296Y-116152805D01*
X110772804Y-116141854D01*
X110765109Y-116140635D01*
X110765106Y-116140634D01*
X110748974Y-116138079D01*
X110733874Y-116134453D01*
X110718344Y-116129407D01*
X110718339Y-116129406D01*
X110710933Y-116127000D01*
X110703143Y-116127000D01*
X109169126Y-116127000D01*
X109115603Y-116111284D01*
X109053504Y-116071375D01*
X109053502Y-116071374D01*
X109047547Y-116067547D01*
X108909455Y-116027000D01*
X108765533Y-116027000D01*
X108758742Y-116028993D01*
X108758741Y-116028994D01*
X108634234Y-116065552D01*
X108634231Y-116065553D01*
X108627441Y-116067547D01*
X108621488Y-116071372D01*
X108621483Y-116071375D01*
X108512322Y-116141528D01*
X108512316Y-116141533D01*
X108506366Y-116145357D01*
X108501730Y-116150706D01*
X108501729Y-116150708D01*
X108416757Y-116248771D01*
X108416754Y-116248775D01*
X108412117Y-116254127D01*
X108409174Y-116260570D01*
X108409172Y-116260574D01*
X108355272Y-116378597D01*
X108355270Y-116378602D01*
X108352329Y-116385043D01*
X108351321Y-116392051D01*
X108351320Y-116392056D01*
X108345923Y-116429596D01*
X108331847Y-116527500D01*
X60300500Y-116527500D01*
X60300500Y-115972220D01*
X112059283Y-115972220D01*
X112063146Y-115977488D01*
X112065911Y-115979084D01*
X112112872Y-115998536D01*
X112157302Y-116034998D01*
X112173987Y-116090000D01*
X112157303Y-116145001D01*
X112112873Y-116181464D01*
X112065910Y-116200916D01*
X112063147Y-116202511D01*
X112059284Y-116207780D01*
X112064598Y-116217466D01*
X112353285Y-116506153D01*
X112362499Y-116511473D01*
X112371716Y-116506151D01*
X112660400Y-116217466D01*
X112665714Y-116207779D01*
X112661849Y-116202508D01*
X112659094Y-116200918D01*
X112612127Y-116181464D01*
X112567697Y-116145002D01*
X112551012Y-116090000D01*
X112567697Y-116034998D01*
X112612127Y-115998536D01*
X112659090Y-115979083D01*
X112661853Y-115977488D01*
X112665715Y-115972220D01*
X113334283Y-115972220D01*
X113338146Y-115977488D01*
X113340911Y-115979084D01*
X113387872Y-115998536D01*
X113432302Y-116034998D01*
X113448987Y-116090000D01*
X113432303Y-116145001D01*
X113387873Y-116181464D01*
X113340910Y-116200916D01*
X113338147Y-116202511D01*
X113334284Y-116207780D01*
X113339598Y-116217466D01*
X113628285Y-116506153D01*
X113637499Y-116511473D01*
X113646716Y-116506151D01*
X113935400Y-116217466D01*
X113940714Y-116207779D01*
X113936849Y-116202508D01*
X113934094Y-116200918D01*
X113887127Y-116181464D01*
X113842697Y-116145002D01*
X113826012Y-116090000D01*
X113842697Y-116034998D01*
X113887127Y-115998536D01*
X113934090Y-115979083D01*
X113936853Y-115977488D01*
X113940715Y-115972220D01*
X114609283Y-115972220D01*
X114613146Y-115977488D01*
X114615911Y-115979084D01*
X114662872Y-115998536D01*
X114707302Y-116034998D01*
X114723987Y-116090000D01*
X114707303Y-116145001D01*
X114662873Y-116181464D01*
X114615910Y-116200916D01*
X114613147Y-116202511D01*
X114609284Y-116207780D01*
X114614598Y-116217466D01*
X114903285Y-116506153D01*
X114912499Y-116511473D01*
X114921716Y-116506151D01*
X115210400Y-116217466D01*
X115215714Y-116207779D01*
X115211849Y-116202508D01*
X115209094Y-116200918D01*
X115162127Y-116181464D01*
X115117697Y-116145002D01*
X115101012Y-116090000D01*
X115117697Y-116034998D01*
X115162127Y-115998536D01*
X115209090Y-115979083D01*
X115211853Y-115977488D01*
X115215716Y-115972219D01*
X115210402Y-115962534D01*
X114921714Y-115673846D01*
X114912499Y-115668526D01*
X114903285Y-115673846D01*
X114614599Y-115962531D01*
X114609283Y-115972220D01*
X113940715Y-115972220D01*
X113940716Y-115972219D01*
X113935402Y-115962534D01*
X113646714Y-115673846D01*
X113637499Y-115668526D01*
X113628285Y-115673846D01*
X113339599Y-115962531D01*
X113334283Y-115972220D01*
X112665715Y-115972220D01*
X112665716Y-115972219D01*
X112660402Y-115962534D01*
X112371714Y-115673846D01*
X112362499Y-115668526D01*
X112353285Y-115673846D01*
X112064599Y-115962531D01*
X112059283Y-115972220D01*
X60300500Y-115972220D01*
X60300500Y-115458934D01*
X111758170Y-115458934D01*
X111777097Y-115602699D01*
X111780426Y-115615124D01*
X111835918Y-115749094D01*
X111837508Y-115751849D01*
X111842779Y-115755714D01*
X111852466Y-115750400D01*
X112141151Y-115461716D01*
X112146473Y-115452499D01*
X112578526Y-115452499D01*
X112583846Y-115461714D01*
X112872534Y-115750402D01*
X112882219Y-115755716D01*
X112887488Y-115751853D01*
X112889083Y-115749090D01*
X112908536Y-115702127D01*
X112944998Y-115657697D01*
X113000000Y-115641012D01*
X113055002Y-115657697D01*
X113091464Y-115702127D01*
X113110918Y-115749094D01*
X113112508Y-115751849D01*
X113117779Y-115755714D01*
X113127466Y-115750400D01*
X113416151Y-115461716D01*
X113421473Y-115452499D01*
X113853526Y-115452499D01*
X113858846Y-115461714D01*
X114147534Y-115750402D01*
X114157219Y-115755716D01*
X114162488Y-115751853D01*
X114164083Y-115749090D01*
X114183536Y-115702127D01*
X114219998Y-115657697D01*
X114275000Y-115641012D01*
X114330002Y-115657697D01*
X114366464Y-115702127D01*
X114385918Y-115749094D01*
X114387508Y-115751849D01*
X114392779Y-115755714D01*
X114402466Y-115750400D01*
X114691151Y-115461716D01*
X114696473Y-115452499D01*
X115128526Y-115452499D01*
X115133846Y-115461714D01*
X115422534Y-115750402D01*
X115432219Y-115755716D01*
X115437488Y-115751853D01*
X115439083Y-115749090D01*
X115494573Y-115615124D01*
X115497902Y-115602699D01*
X115516830Y-115458934D01*
X115516830Y-115446066D01*
X115497902Y-115302300D01*
X115494573Y-115289875D01*
X115439084Y-115155912D01*
X115437486Y-115153144D01*
X115432219Y-115149283D01*
X115422532Y-115154598D01*
X115133846Y-115443285D01*
X115128526Y-115452499D01*
X114696473Y-115452499D01*
X114691153Y-115443285D01*
X114402466Y-115154598D01*
X114392780Y-115149284D01*
X114387511Y-115153147D01*
X114385916Y-115155910D01*
X114366464Y-115202873D01*
X114330001Y-115247303D01*
X114275000Y-115263987D01*
X114219999Y-115247303D01*
X114183536Y-115202873D01*
X114164083Y-115155910D01*
X114162486Y-115153144D01*
X114157219Y-115149283D01*
X114147532Y-115154598D01*
X113858846Y-115443285D01*
X113853526Y-115452499D01*
X113421473Y-115452499D01*
X113416153Y-115443285D01*
X113127466Y-115154598D01*
X113117780Y-115149284D01*
X113112511Y-115153147D01*
X113110916Y-115155910D01*
X113091464Y-115202873D01*
X113055001Y-115247303D01*
X113000000Y-115263987D01*
X112944999Y-115247303D01*
X112908536Y-115202873D01*
X112889083Y-115155910D01*
X112887486Y-115153144D01*
X112882219Y-115149283D01*
X112872532Y-115154598D01*
X112583846Y-115443285D01*
X112578526Y-115452499D01*
X112146473Y-115452499D01*
X112141153Y-115443285D01*
X111852466Y-115154598D01*
X111842780Y-115149284D01*
X111837511Y-115153147D01*
X111835915Y-115155912D01*
X111780426Y-115289875D01*
X111777097Y-115302300D01*
X111758170Y-115446066D01*
X111758170Y-115458934D01*
X60300500Y-115458934D01*
X60300500Y-114932780D01*
X112059284Y-114932780D01*
X112064598Y-114942466D01*
X112353285Y-115231153D01*
X112362499Y-115236473D01*
X112371716Y-115231151D01*
X112660400Y-114942466D01*
X112665713Y-114932780D01*
X113334284Y-114932780D01*
X113339598Y-114942466D01*
X113628285Y-115231153D01*
X113637499Y-115236473D01*
X113646716Y-115231151D01*
X113935400Y-114942466D01*
X113940713Y-114932780D01*
X114609284Y-114932780D01*
X114614598Y-114942466D01*
X114903285Y-115231153D01*
X114912499Y-115236473D01*
X114921716Y-115231151D01*
X115210400Y-114942466D01*
X115215714Y-114932779D01*
X115211849Y-114927508D01*
X115209094Y-114925918D01*
X115075124Y-114870426D01*
X115062699Y-114867097D01*
X114918934Y-114848170D01*
X114906066Y-114848170D01*
X114762300Y-114867097D01*
X114749875Y-114870426D01*
X114615912Y-114925915D01*
X114613147Y-114927511D01*
X114609284Y-114932780D01*
X113940713Y-114932780D01*
X113940714Y-114932779D01*
X113936849Y-114927508D01*
X113934094Y-114925918D01*
X113800124Y-114870426D01*
X113787699Y-114867097D01*
X113643934Y-114848170D01*
X113631066Y-114848170D01*
X113487300Y-114867097D01*
X113474875Y-114870426D01*
X113340912Y-114925915D01*
X113338147Y-114927511D01*
X113334284Y-114932780D01*
X112665713Y-114932780D01*
X112665714Y-114932779D01*
X112661849Y-114927508D01*
X112659094Y-114925918D01*
X112525124Y-114870426D01*
X112512699Y-114867097D01*
X112368934Y-114848170D01*
X112356066Y-114848170D01*
X112212300Y-114867097D01*
X112199875Y-114870426D01*
X112065912Y-114925915D01*
X112063147Y-114927511D01*
X112059284Y-114932780D01*
X60300500Y-114932780D01*
X60300500Y-110290000D01*
X108814353Y-110290000D01*
X108815361Y-110297010D01*
X108815361Y-110297011D01*
X108833826Y-110425443D01*
X108833827Y-110425446D01*
X108834835Y-110432457D01*
X108894623Y-110563373D01*
X108988872Y-110672143D01*
X109109947Y-110749953D01*
X109248039Y-110790500D01*
X109384883Y-110790500D01*
X109391961Y-110790500D01*
X109398752Y-110788505D01*
X109402278Y-110787999D01*
X109447631Y-110792057D01*
X109486371Y-110815987D01*
X110213897Y-111543513D01*
X110237826Y-111582252D01*
X110241886Y-111627604D01*
X110234353Y-111680000D01*
X110235361Y-111687011D01*
X110253826Y-111815443D01*
X110253827Y-111815446D01*
X110254835Y-111822457D01*
X110314623Y-111953373D01*
X110408872Y-112062143D01*
X110529947Y-112139953D01*
X110668039Y-112180500D01*
X110804883Y-112180500D01*
X110811961Y-112180500D01*
X110950053Y-112139953D01*
X111071128Y-112062143D01*
X111165377Y-111953373D01*
X111225165Y-111822457D01*
X111245647Y-111680000D01*
X111225165Y-111537543D01*
X111165377Y-111406627D01*
X111071128Y-111297857D01*
X111065174Y-111294030D01*
X111065171Y-111294028D01*
X110956010Y-111223875D01*
X110956008Y-111223874D01*
X110950053Y-111220047D01*
X110811961Y-111179500D01*
X110670124Y-111179500D01*
X110632238Y-111171964D01*
X110600120Y-111150504D01*
X109849873Y-110400257D01*
X109825943Y-110361517D01*
X109821885Y-110316163D01*
X109824639Y-110297010D01*
X109825647Y-110290000D01*
X109805165Y-110147543D01*
X109745377Y-110016627D01*
X109651128Y-109907857D01*
X109645174Y-109904030D01*
X109645171Y-109904028D01*
X109536010Y-109833875D01*
X109536008Y-109833874D01*
X109530053Y-109830047D01*
X109391961Y-109789500D01*
X109248039Y-109789500D01*
X109241248Y-109791493D01*
X109241247Y-109791494D01*
X109116740Y-109828052D01*
X109116737Y-109828053D01*
X109109947Y-109830047D01*
X109103994Y-109833872D01*
X109103989Y-109833875D01*
X108994828Y-109904028D01*
X108994822Y-109904033D01*
X108988872Y-109907857D01*
X108984236Y-109913206D01*
X108984235Y-109913208D01*
X108899263Y-110011271D01*
X108899260Y-110011275D01*
X108894623Y-110016627D01*
X108891680Y-110023070D01*
X108891678Y-110023074D01*
X108837778Y-110141097D01*
X108837776Y-110141102D01*
X108834835Y-110147543D01*
X108833827Y-110154551D01*
X108833826Y-110154556D01*
X108815361Y-110282989D01*
X108814353Y-110290000D01*
X60300500Y-110290000D01*
X60300500Y-103697147D01*
X94880000Y-103697147D01*
X94880311Y-103702691D01*
X94894499Y-103828613D01*
X94896959Y-103839391D01*
X94952827Y-103999054D01*
X94957622Y-104009011D01*
X95047618Y-104152239D01*
X95054507Y-104160878D01*
X95174121Y-104280492D01*
X95182760Y-104287381D01*
X95325988Y-104377377D01*
X95335945Y-104382172D01*
X95495615Y-104438042D01*
X95506378Y-104440499D01*
X95516111Y-104441595D01*
X95526954Y-104439753D01*
X95530000Y-104429183D01*
X95830000Y-104429183D01*
X95833045Y-104439753D01*
X95843888Y-104441595D01*
X95853621Y-104440499D01*
X95864384Y-104438042D01*
X96024054Y-104382172D01*
X96034011Y-104377377D01*
X96177239Y-104287381D01*
X96185878Y-104280492D01*
X96305492Y-104160878D01*
X96312381Y-104152239D01*
X96402377Y-104009011D01*
X96407172Y-103999054D01*
X96463040Y-103839391D01*
X96465500Y-103828613D01*
X96479688Y-103702691D01*
X96480000Y-103697147D01*
X103520000Y-103697147D01*
X103520311Y-103702691D01*
X103534499Y-103828613D01*
X103536959Y-103839391D01*
X103592827Y-103999054D01*
X103597622Y-104009011D01*
X103687618Y-104152239D01*
X103694507Y-104160878D01*
X103814121Y-104280492D01*
X103822760Y-104287381D01*
X103965988Y-104377377D01*
X103975945Y-104382172D01*
X104135615Y-104438042D01*
X104146378Y-104440499D01*
X104156111Y-104441595D01*
X104166954Y-104439753D01*
X104170000Y-104429183D01*
X104470000Y-104429183D01*
X104473045Y-104439753D01*
X104483888Y-104441595D01*
X104493621Y-104440499D01*
X104504384Y-104438042D01*
X104664054Y-104382172D01*
X104674011Y-104377377D01*
X104701666Y-104360000D01*
X117184353Y-104360000D01*
X117185361Y-104367011D01*
X117203826Y-104495443D01*
X117203827Y-104495446D01*
X117204835Y-104502457D01*
X117207777Y-104508899D01*
X117207778Y-104508902D01*
X117248801Y-104598728D01*
X117264623Y-104633373D01*
X117358872Y-104742143D01*
X117364826Y-104745969D01*
X117364828Y-104745971D01*
X117420808Y-104781947D01*
X117479947Y-104819953D01*
X117618039Y-104860500D01*
X117754883Y-104860500D01*
X117761961Y-104860500D01*
X117900053Y-104819953D01*
X118021128Y-104742143D01*
X118115377Y-104633373D01*
X118116454Y-104634306D01*
X118145136Y-104607607D01*
X118192577Y-104595500D01*
X119001254Y-104595500D01*
X119042380Y-104604446D01*
X119076074Y-104629669D01*
X119138872Y-104702143D01*
X119259947Y-104779953D01*
X119398039Y-104820500D01*
X119534883Y-104820500D01*
X119541961Y-104820500D01*
X119680053Y-104779953D01*
X119801128Y-104702143D01*
X119895377Y-104593373D01*
X119955165Y-104462457D01*
X119975647Y-104320000D01*
X119955165Y-104177543D01*
X119895377Y-104046627D01*
X119801128Y-103937857D01*
X119795174Y-103934030D01*
X119795171Y-103934028D01*
X119686010Y-103863875D01*
X119686008Y-103863874D01*
X119680053Y-103860047D01*
X119609704Y-103839391D01*
X119548752Y-103821494D01*
X119541961Y-103819500D01*
X119398039Y-103819500D01*
X119391248Y-103821493D01*
X119391247Y-103821494D01*
X119266740Y-103858052D01*
X119266737Y-103858053D01*
X119259947Y-103860047D01*
X119253994Y-103863872D01*
X119253989Y-103863875D01*
X119144828Y-103934028D01*
X119144822Y-103934033D01*
X119138872Y-103937857D01*
X119134236Y-103943206D01*
X119134235Y-103943208D01*
X119076073Y-104010331D01*
X119042380Y-104035554D01*
X119001254Y-104044500D01*
X118124086Y-104044500D01*
X118082960Y-104035554D01*
X118049267Y-104010331D01*
X118039495Y-103999054D01*
X118021128Y-103977857D01*
X118015174Y-103974030D01*
X118015171Y-103974028D01*
X117906010Y-103903875D01*
X117906008Y-103903874D01*
X117900053Y-103900047D01*
X117761961Y-103859500D01*
X117618039Y-103859500D01*
X117611248Y-103861493D01*
X117611247Y-103861494D01*
X117486740Y-103898052D01*
X117486737Y-103898053D01*
X117479947Y-103900047D01*
X117473994Y-103903872D01*
X117473989Y-103903875D01*
X117364828Y-103974028D01*
X117364822Y-103974033D01*
X117358872Y-103977857D01*
X117354236Y-103983206D01*
X117354235Y-103983208D01*
X117269263Y-104081271D01*
X117269260Y-104081275D01*
X117264623Y-104086627D01*
X117261680Y-104093070D01*
X117261678Y-104093074D01*
X117207778Y-104211097D01*
X117207776Y-104211102D01*
X117204835Y-104217543D01*
X117203827Y-104224551D01*
X117203826Y-104224556D01*
X117195784Y-104280492D01*
X117184353Y-104360000D01*
X104701666Y-104360000D01*
X104817239Y-104287381D01*
X104825878Y-104280492D01*
X104945492Y-104160878D01*
X104952381Y-104152239D01*
X105042377Y-104009011D01*
X105047172Y-103999054D01*
X105103040Y-103839391D01*
X105105500Y-103828613D01*
X105119688Y-103702691D01*
X105120000Y-103697147D01*
X105120000Y-103268033D01*
X105117245Y-103257754D01*
X105106967Y-103255000D01*
X104483033Y-103255000D01*
X104472754Y-103257754D01*
X104470000Y-103268033D01*
X104470000Y-104429183D01*
X104170000Y-104429183D01*
X104170000Y-103268033D01*
X104167245Y-103257754D01*
X104156967Y-103255000D01*
X103533033Y-103255000D01*
X103522754Y-103257754D01*
X103520000Y-103268033D01*
X103520000Y-103697147D01*
X96480000Y-103697147D01*
X96480000Y-103268033D01*
X96477245Y-103257754D01*
X96466967Y-103255000D01*
X95843033Y-103255000D01*
X95832754Y-103257754D01*
X95830000Y-103268033D01*
X95830000Y-104429183D01*
X95530000Y-104429183D01*
X95530000Y-103268033D01*
X95527245Y-103257754D01*
X95516967Y-103255000D01*
X94893033Y-103255000D01*
X94882754Y-103257754D01*
X94880000Y-103268033D01*
X94880000Y-103697147D01*
X60300500Y-103697147D01*
X60300500Y-102062635D01*
X64445718Y-102062635D01*
X64446198Y-102066594D01*
X64446199Y-102066601D01*
X64475411Y-102307185D01*
X64475412Y-102307193D01*
X64475893Y-102311149D01*
X64477003Y-102314983D01*
X64477004Y-102314985D01*
X64544429Y-102547767D01*
X64544431Y-102547773D01*
X64545541Y-102551604D01*
X64547249Y-102555204D01*
X64547250Y-102555206D01*
X64650240Y-102772254D01*
X64652859Y-102777772D01*
X64655123Y-102781052D01*
X64655126Y-102781057D01*
X64761847Y-102935668D01*
X64795068Y-102983797D01*
X64797833Y-102986676D01*
X64797835Y-102986678D01*
X64922414Y-103116378D01*
X64968484Y-103164341D01*
X65168615Y-103314730D01*
X65390279Y-103431069D01*
X65627734Y-103510343D01*
X65874831Y-103550500D01*
X66060480Y-103550500D01*
X66062481Y-103550500D01*
X66249527Y-103535400D01*
X66492591Y-103475490D01*
X66722897Y-103377366D01*
X66934481Y-103243568D01*
X67121862Y-103077563D01*
X67280188Y-102883650D01*
X67405357Y-102666850D01*
X67476220Y-102480000D01*
X77752357Y-102480000D01*
X77752779Y-102484554D01*
X77769990Y-102670301D01*
X77772885Y-102701536D01*
X77774134Y-102705926D01*
X77774135Y-102705931D01*
X77832517Y-102911123D01*
X77832519Y-102911129D01*
X77833771Y-102915528D01*
X77932942Y-103114689D01*
X77935694Y-103118333D01*
X77935697Y-103118338D01*
X77958647Y-103148728D01*
X78067019Y-103292236D01*
X78231438Y-103442124D01*
X78420599Y-103559247D01*
X78424866Y-103560900D01*
X78623790Y-103637964D01*
X78623792Y-103637964D01*
X78628060Y-103639618D01*
X78846757Y-103680500D01*
X79064660Y-103680500D01*
X79069243Y-103680500D01*
X79287940Y-103639618D01*
X79495401Y-103559247D01*
X79684562Y-103442124D01*
X79848981Y-103292236D01*
X79983058Y-103114689D01*
X80082229Y-102915528D01*
X80143115Y-102701536D01*
X80163643Y-102480000D01*
X84762357Y-102480000D01*
X84762779Y-102484554D01*
X84779990Y-102670301D01*
X84782885Y-102701536D01*
X84784134Y-102705926D01*
X84784135Y-102705931D01*
X84842517Y-102911123D01*
X84842519Y-102911129D01*
X84843771Y-102915528D01*
X84942942Y-103114689D01*
X84945694Y-103118333D01*
X84945697Y-103118338D01*
X84968647Y-103148728D01*
X85077019Y-103292236D01*
X85241438Y-103442124D01*
X85430599Y-103559247D01*
X85434866Y-103560900D01*
X85633790Y-103637964D01*
X85633792Y-103637964D01*
X85638060Y-103639618D01*
X85856757Y-103680500D01*
X86074660Y-103680500D01*
X86079243Y-103680500D01*
X86297940Y-103639618D01*
X86505401Y-103559247D01*
X86694562Y-103442124D01*
X86858981Y-103292236D01*
X86993058Y-103114689D01*
X87079064Y-102941967D01*
X94880000Y-102941967D01*
X94882754Y-102952245D01*
X94893033Y-102955000D01*
X95516967Y-102955000D01*
X95527245Y-102952245D01*
X95530000Y-102941967D01*
X95830000Y-102941967D01*
X95832754Y-102952245D01*
X95843033Y-102955000D01*
X96466967Y-102955000D01*
X96477245Y-102952245D01*
X96480000Y-102941967D01*
X96480000Y-102937633D01*
X96493718Y-102887354D01*
X96531070Y-102851009D01*
X96581704Y-102838670D01*
X96631589Y-102853756D01*
X96666899Y-102892085D01*
X96676646Y-102910895D01*
X96775245Y-103016469D01*
X96898672Y-103091526D01*
X97037772Y-103130500D01*
X97142570Y-103130500D01*
X97145949Y-103130500D01*
X97253111Y-103115771D01*
X97385609Y-103058219D01*
X97497665Y-102967054D01*
X97580971Y-102849037D01*
X97629346Y-102712921D01*
X97633650Y-102650000D01*
X98574353Y-102650000D01*
X98575361Y-102657011D01*
X98593826Y-102785443D01*
X98593827Y-102785446D01*
X98594835Y-102792457D01*
X98597777Y-102798899D01*
X98597778Y-102798902D01*
X98651040Y-102915528D01*
X98654623Y-102923373D01*
X98748872Y-103032143D01*
X98869947Y-103109953D01*
X99008039Y-103150500D01*
X99144883Y-103150500D01*
X99151961Y-103150500D01*
X99290053Y-103109953D01*
X99411128Y-103032143D01*
X99445332Y-102992669D01*
X99460169Y-102975547D01*
X99493862Y-102950324D01*
X99534988Y-102941378D01*
X99930079Y-102941378D01*
X99971205Y-102950324D01*
X100004896Y-102975544D01*
X100024372Y-102998021D01*
X100030326Y-103001847D01*
X100030328Y-103001849D01*
X100069139Y-103026791D01*
X100145447Y-103075831D01*
X100283539Y-103116378D01*
X100420383Y-103116378D01*
X100427461Y-103116378D01*
X100565553Y-103075831D01*
X100686628Y-102998021D01*
X100780877Y-102889251D01*
X100840665Y-102758335D01*
X100857506Y-102641199D01*
X102360796Y-102641199D01*
X102362172Y-102647823D01*
X102362173Y-102647830D01*
X102387260Y-102768554D01*
X102390186Y-102782634D01*
X102456646Y-102910895D01*
X102555245Y-103016469D01*
X102678672Y-103091526D01*
X102817772Y-103130500D01*
X102922570Y-103130500D01*
X102925949Y-103130500D01*
X103033111Y-103115771D01*
X103165609Y-103058219D01*
X103277665Y-102967054D01*
X103340119Y-102878576D01*
X103377872Y-102846556D01*
X103426406Y-102836816D01*
X103473589Y-102851791D01*
X103507624Y-102887738D01*
X103520000Y-102935668D01*
X103520000Y-102941967D01*
X103522754Y-102952245D01*
X103533033Y-102955000D01*
X104156967Y-102955000D01*
X104167245Y-102952245D01*
X104170000Y-102941967D01*
X104470000Y-102941967D01*
X104472754Y-102952245D01*
X104483033Y-102955000D01*
X105106967Y-102955000D01*
X105117245Y-102952245D01*
X105120000Y-102941967D01*
X105120000Y-102512853D01*
X105119688Y-102507308D01*
X105116611Y-102480000D01*
X113182357Y-102480000D01*
X113182779Y-102484554D01*
X113199990Y-102670301D01*
X113202885Y-102701536D01*
X113204134Y-102705926D01*
X113204135Y-102705931D01*
X113262517Y-102911123D01*
X113262519Y-102911129D01*
X113263771Y-102915528D01*
X113362942Y-103114689D01*
X113365694Y-103118333D01*
X113365697Y-103118338D01*
X113388647Y-103148728D01*
X113497019Y-103292236D01*
X113661438Y-103442124D01*
X113850599Y-103559247D01*
X113854866Y-103560900D01*
X114053790Y-103637964D01*
X114053792Y-103637964D01*
X114058060Y-103639618D01*
X114276757Y-103680500D01*
X114494660Y-103680500D01*
X114499243Y-103680500D01*
X114717940Y-103639618D01*
X114925401Y-103559247D01*
X115114562Y-103442124D01*
X115278981Y-103292236D01*
X115413058Y-103114689D01*
X115512229Y-102915528D01*
X115525183Y-102870000D01*
X116080353Y-102870000D01*
X116081361Y-102877011D01*
X116099826Y-103005443D01*
X116099827Y-103005446D01*
X116100835Y-103012457D01*
X116103777Y-103018899D01*
X116103778Y-103018902D01*
X116154533Y-103130039D01*
X116160623Y-103143373D01*
X116165262Y-103148727D01*
X116165263Y-103148728D01*
X116176305Y-103161471D01*
X116254872Y-103252143D01*
X116260826Y-103255969D01*
X116260828Y-103255971D01*
X116279597Y-103268033D01*
X116375947Y-103329953D01*
X116514039Y-103370500D01*
X116650883Y-103370500D01*
X116657961Y-103370500D01*
X116796053Y-103329953D01*
X116917128Y-103252143D01*
X117011377Y-103143373D01*
X117071165Y-103012457D01*
X117091647Y-102870000D01*
X117084113Y-102817603D01*
X117088171Y-102772254D01*
X117112099Y-102733515D01*
X117262732Y-102582882D01*
X117277729Y-102570575D01*
X117292624Y-102560624D01*
X117315548Y-102526317D01*
X117346496Y-102480000D01*
X120192357Y-102480000D01*
X120192779Y-102484554D01*
X120209990Y-102670301D01*
X120212885Y-102701536D01*
X120214134Y-102705926D01*
X120214135Y-102705931D01*
X120272517Y-102911123D01*
X120272519Y-102911129D01*
X120273771Y-102915528D01*
X120372942Y-103114689D01*
X120375694Y-103118333D01*
X120375697Y-103118338D01*
X120398647Y-103148728D01*
X120507019Y-103292236D01*
X120671438Y-103442124D01*
X120860599Y-103559247D01*
X120864866Y-103560900D01*
X121063790Y-103637964D01*
X121063792Y-103637964D01*
X121068060Y-103639618D01*
X121286757Y-103680500D01*
X121504660Y-103680500D01*
X121509243Y-103680500D01*
X121727940Y-103639618D01*
X121935401Y-103559247D01*
X122124562Y-103442124D01*
X122288981Y-103292236D01*
X122423058Y-103114689D01*
X122522229Y-102915528D01*
X122583115Y-102701536D01*
X122603643Y-102480000D01*
X122583115Y-102258464D01*
X122522229Y-102044472D01*
X122481037Y-101961748D01*
X124933500Y-101961748D01*
X124934446Y-101966506D01*
X124934447Y-101966511D01*
X124943230Y-102010666D01*
X124945133Y-102020231D01*
X124950550Y-102028338D01*
X124950551Y-102028340D01*
X124984028Y-102078441D01*
X124989448Y-102086552D01*
X125055769Y-102130867D01*
X125114252Y-102142500D01*
X126848890Y-102142500D01*
X126853748Y-102142500D01*
X126912231Y-102130867D01*
X126978552Y-102086552D01*
X126994533Y-102062635D01*
X133445718Y-102062635D01*
X133446198Y-102066594D01*
X133446199Y-102066601D01*
X133475411Y-102307185D01*
X133475412Y-102307193D01*
X133475893Y-102311149D01*
X133477003Y-102314983D01*
X133477004Y-102314985D01*
X133544429Y-102547767D01*
X133544431Y-102547773D01*
X133545541Y-102551604D01*
X133547249Y-102555204D01*
X133547250Y-102555206D01*
X133650240Y-102772254D01*
X133652859Y-102777772D01*
X133655123Y-102781052D01*
X133655126Y-102781057D01*
X133761847Y-102935668D01*
X133795068Y-102983797D01*
X133797833Y-102986676D01*
X133797835Y-102986678D01*
X133922414Y-103116378D01*
X133968484Y-103164341D01*
X134168615Y-103314730D01*
X134390279Y-103431069D01*
X134627734Y-103510343D01*
X134874831Y-103550500D01*
X135060480Y-103550500D01*
X135062481Y-103550500D01*
X135249527Y-103535400D01*
X135492591Y-103475490D01*
X135722897Y-103377366D01*
X135934481Y-103243568D01*
X136121862Y-103077563D01*
X136280188Y-102883650D01*
X136405357Y-102666850D01*
X136494128Y-102432780D01*
X136544202Y-102187500D01*
X136554282Y-101937365D01*
X136524107Y-101688851D01*
X136454459Y-101448396D01*
X136347141Y-101222228D01*
X136204932Y-101016203D01*
X136165837Y-100975501D01*
X136034272Y-100838528D01*
X136034270Y-100838526D01*
X136031516Y-100835659D01*
X136028338Y-100833271D01*
X136028336Y-100833269D01*
X135914932Y-100748052D01*
X135831385Y-100685270D01*
X135827857Y-100683418D01*
X135827855Y-100683417D01*
X135613251Y-100570783D01*
X135613243Y-100570779D01*
X135609721Y-100568931D01*
X135534711Y-100543889D01*
X135376053Y-100490921D01*
X135376049Y-100490920D01*
X135372266Y-100489657D01*
X135368334Y-100489018D01*
X135368326Y-100489016D01*
X135129106Y-100450139D01*
X135129095Y-100450138D01*
X135125169Y-100449500D01*
X134937519Y-100449500D01*
X134935548Y-100449659D01*
X134935525Y-100449660D01*
X134754453Y-100464278D01*
X134754444Y-100464279D01*
X134750473Y-100464600D01*
X134746595Y-100465555D01*
X134746594Y-100465556D01*
X134511287Y-100523554D01*
X134511285Y-100523554D01*
X134507409Y-100524510D01*
X134503745Y-100526070D01*
X134503736Y-100526074D01*
X134280772Y-100621070D01*
X134280764Y-100621074D01*
X134277103Y-100622634D01*
X134273743Y-100624758D01*
X134273731Y-100624765D01*
X134068896Y-100754296D01*
X134068891Y-100754299D01*
X134065519Y-100756432D01*
X134062533Y-100759076D01*
X134062528Y-100759081D01*
X133881124Y-100919791D01*
X133881119Y-100919795D01*
X133878138Y-100922437D01*
X133875621Y-100925519D01*
X133875613Y-100925528D01*
X133722332Y-101113263D01*
X133719812Y-101116350D01*
X133717827Y-101119786D01*
X133717820Y-101119798D01*
X133596635Y-101329698D01*
X133596630Y-101329707D01*
X133594643Y-101333150D01*
X133593233Y-101336866D01*
X133593229Y-101336876D01*
X133507287Y-101563487D01*
X133507284Y-101563495D01*
X133505872Y-101567220D01*
X133505073Y-101571129D01*
X133505072Y-101571136D01*
X133464800Y-101768404D01*
X133455798Y-101812500D01*
X133455637Y-101816484D01*
X133455637Y-101816488D01*
X133445878Y-102058645D01*
X133445878Y-102058654D01*
X133445718Y-102062635D01*
X126994533Y-102062635D01*
X127022867Y-102020231D01*
X127034500Y-101961748D01*
X127034500Y-100222252D01*
X127022867Y-100163769D01*
X126978552Y-100097448D01*
X126970441Y-100092028D01*
X126920340Y-100058551D01*
X126920338Y-100058550D01*
X126912231Y-100053133D01*
X126902667Y-100051230D01*
X126902666Y-100051230D01*
X126858511Y-100042447D01*
X126858506Y-100042446D01*
X126853748Y-100041500D01*
X125114252Y-100041500D01*
X125109494Y-100042446D01*
X125109488Y-100042447D01*
X125065333Y-100051230D01*
X125065330Y-100051231D01*
X125055769Y-100053133D01*
X125047663Y-100058549D01*
X125047659Y-100058551D01*
X124997558Y-100092028D01*
X124997555Y-100092030D01*
X124989448Y-100097448D01*
X124984030Y-100105555D01*
X124984028Y-100105558D01*
X124950551Y-100155659D01*
X124950549Y-100155663D01*
X124945133Y-100163769D01*
X124943231Y-100173330D01*
X124943230Y-100173333D01*
X124934447Y-100217488D01*
X124934446Y-100217494D01*
X124933500Y-100222252D01*
X124933500Y-101961748D01*
X122481037Y-101961748D01*
X122423058Y-101845311D01*
X122398280Y-101812500D01*
X122345386Y-101742457D01*
X122288981Y-101667764D01*
X122124562Y-101517876D01*
X122068837Y-101483373D01*
X121939290Y-101403161D01*
X121935401Y-101400753D01*
X121931138Y-101399101D01*
X121931133Y-101399099D01*
X121732209Y-101322035D01*
X121732201Y-101322032D01*
X121727940Y-101320382D01*
X121723436Y-101319540D01*
X121513749Y-101280342D01*
X121513745Y-101280341D01*
X121509243Y-101279500D01*
X121286757Y-101279500D01*
X121282255Y-101280341D01*
X121282250Y-101280342D01*
X121072563Y-101319540D01*
X121072560Y-101319540D01*
X121068060Y-101320382D01*
X121063801Y-101322031D01*
X121063790Y-101322035D01*
X120864866Y-101399099D01*
X120864857Y-101399103D01*
X120860599Y-101400753D01*
X120856713Y-101403158D01*
X120856709Y-101403161D01*
X120675326Y-101515468D01*
X120675321Y-101515471D01*
X120671438Y-101517876D01*
X120668063Y-101520952D01*
X120668056Y-101520958D01*
X120524369Y-101651947D01*
X120507019Y-101667764D01*
X120504268Y-101671406D01*
X120504266Y-101671409D01*
X120375697Y-101841661D01*
X120375690Y-101841670D01*
X120372942Y-101845311D01*
X120370904Y-101849403D01*
X120370902Y-101849407D01*
X120275813Y-102040370D01*
X120275811Y-102040375D01*
X120273771Y-102044472D01*
X120272520Y-102048866D01*
X120272517Y-102048876D01*
X120214135Y-102254068D01*
X120214133Y-102254075D01*
X120212885Y-102258464D01*
X120212463Y-102263009D01*
X120212463Y-102263014D01*
X120196387Y-102436512D01*
X120192357Y-102480000D01*
X117346496Y-102480000D01*
X117353515Y-102469495D01*
X117365019Y-102411658D01*
X117369500Y-102389133D01*
X117369500Y-102389129D01*
X117374896Y-102362000D01*
X117371401Y-102344433D01*
X117369500Y-102325121D01*
X117369500Y-102071951D01*
X117381609Y-102024506D01*
X117414975Y-101988668D01*
X117415135Y-101988565D01*
X117425128Y-101982143D01*
X117519377Y-101873373D01*
X117579165Y-101742457D01*
X117599647Y-101600000D01*
X117579165Y-101457543D01*
X117519377Y-101326627D01*
X117425128Y-101217857D01*
X117419174Y-101214030D01*
X117419171Y-101214028D01*
X117310010Y-101143875D01*
X117310008Y-101143874D01*
X117304053Y-101140047D01*
X117235090Y-101119798D01*
X117172752Y-101101494D01*
X117165961Y-101099500D01*
X117022039Y-101099500D01*
X117015248Y-101101493D01*
X117015247Y-101101494D01*
X116890740Y-101138052D01*
X116890737Y-101138053D01*
X116883947Y-101140047D01*
X116877994Y-101143872D01*
X116877989Y-101143875D01*
X116768828Y-101214028D01*
X116768822Y-101214033D01*
X116762872Y-101217857D01*
X116758236Y-101223206D01*
X116758235Y-101223208D01*
X116673263Y-101321271D01*
X116673260Y-101321275D01*
X116668623Y-101326627D01*
X116665680Y-101333070D01*
X116665678Y-101333074D01*
X116611778Y-101451097D01*
X116611776Y-101451102D01*
X116608835Y-101457543D01*
X116607827Y-101464551D01*
X116607826Y-101464556D01*
X116590556Y-101584680D01*
X116588353Y-101600000D01*
X116589361Y-101607011D01*
X116607826Y-101735443D01*
X116607827Y-101735446D01*
X116608835Y-101742457D01*
X116611777Y-101748899D01*
X116611778Y-101748902D01*
X116650012Y-101832622D01*
X116668623Y-101873373D01*
X116762872Y-101982143D01*
X116772727Y-101988476D01*
X116773025Y-101988668D01*
X116806391Y-102024506D01*
X116818500Y-102071951D01*
X116818500Y-102206877D01*
X116810964Y-102244763D01*
X116789503Y-102276881D01*
X116725879Y-102340504D01*
X116693761Y-102361964D01*
X116655876Y-102369500D01*
X116514039Y-102369500D01*
X116507248Y-102371493D01*
X116507247Y-102371494D01*
X116382740Y-102408052D01*
X116382737Y-102408053D01*
X116375947Y-102410047D01*
X116369994Y-102413872D01*
X116369989Y-102413875D01*
X116260828Y-102484028D01*
X116260822Y-102484033D01*
X116254872Y-102487857D01*
X116250236Y-102493206D01*
X116250235Y-102493208D01*
X116165263Y-102591271D01*
X116165260Y-102591275D01*
X116160623Y-102596627D01*
X116157680Y-102603070D01*
X116157678Y-102603074D01*
X116103778Y-102721097D01*
X116103776Y-102721102D01*
X116100835Y-102727543D01*
X116099827Y-102734551D01*
X116099826Y-102734556D01*
X116082572Y-102854568D01*
X116080353Y-102870000D01*
X115525183Y-102870000D01*
X115573115Y-102701536D01*
X115593643Y-102480000D01*
X115573115Y-102258464D01*
X115512229Y-102044472D01*
X115413058Y-101845311D01*
X115388280Y-101812500D01*
X115335386Y-101742457D01*
X115278981Y-101667764D01*
X115114562Y-101517876D01*
X115058837Y-101483373D01*
X114929290Y-101403161D01*
X114925401Y-101400753D01*
X114921138Y-101399101D01*
X114921133Y-101399099D01*
X114722209Y-101322035D01*
X114722201Y-101322032D01*
X114717940Y-101320382D01*
X114713436Y-101319540D01*
X114503749Y-101280342D01*
X114503745Y-101280341D01*
X114499243Y-101279500D01*
X114276757Y-101279500D01*
X114272255Y-101280341D01*
X114272250Y-101280342D01*
X114062563Y-101319540D01*
X114062560Y-101319540D01*
X114058060Y-101320382D01*
X114053801Y-101322031D01*
X114053790Y-101322035D01*
X113854866Y-101399099D01*
X113854857Y-101399103D01*
X113850599Y-101400753D01*
X113846713Y-101403158D01*
X113846709Y-101403161D01*
X113665326Y-101515468D01*
X113665321Y-101515471D01*
X113661438Y-101517876D01*
X113658063Y-101520952D01*
X113658056Y-101520958D01*
X113514369Y-101651947D01*
X113497019Y-101667764D01*
X113494268Y-101671406D01*
X113494266Y-101671409D01*
X113365697Y-101841661D01*
X113365690Y-101841670D01*
X113362942Y-101845311D01*
X113360904Y-101849403D01*
X113360902Y-101849407D01*
X113265813Y-102040370D01*
X113265811Y-102040375D01*
X113263771Y-102044472D01*
X113262520Y-102048866D01*
X113262517Y-102048876D01*
X113204135Y-102254068D01*
X113204133Y-102254075D01*
X113202885Y-102258464D01*
X113202463Y-102263009D01*
X113202463Y-102263014D01*
X113186387Y-102436512D01*
X113182357Y-102480000D01*
X105116611Y-102480000D01*
X105105500Y-102381386D01*
X105103040Y-102370608D01*
X105047172Y-102210945D01*
X105042377Y-102200988D01*
X104952381Y-102057760D01*
X104945492Y-102049121D01*
X104825878Y-101929507D01*
X104817239Y-101922618D01*
X104674011Y-101832622D01*
X104664054Y-101827827D01*
X104504384Y-101771957D01*
X104493621Y-101769500D01*
X104483888Y-101768404D01*
X104473045Y-101770246D01*
X104470000Y-101780817D01*
X104470000Y-102941967D01*
X104170000Y-102941967D01*
X104170000Y-101780817D01*
X104166954Y-101770246D01*
X104156111Y-101768404D01*
X104146378Y-101769500D01*
X104135615Y-101771957D01*
X103975945Y-101827827D01*
X103965988Y-101832622D01*
X103822760Y-101922618D01*
X103814121Y-101929507D01*
X103694507Y-102049121D01*
X103687618Y-102057760D01*
X103597622Y-102200988D01*
X103592825Y-102210950D01*
X103541573Y-102357421D01*
X103508237Y-102403387D01*
X103455126Y-102423475D01*
X103399714Y-102411077D01*
X103360230Y-102370272D01*
X103323354Y-102299105D01*
X103224755Y-102193531D01*
X103218973Y-102190015D01*
X103218972Y-102190014D01*
X103107110Y-102121990D01*
X103107109Y-102121989D01*
X103101328Y-102118474D01*
X103094814Y-102116649D01*
X103094810Y-102116647D01*
X102968747Y-102081326D01*
X102968743Y-102081325D01*
X102962228Y-102079500D01*
X102854051Y-102079500D01*
X102850704Y-102079959D01*
X102850704Y-102079960D01*
X102753597Y-102093306D01*
X102753589Y-102093307D01*
X102746889Y-102094229D01*
X102740683Y-102096924D01*
X102740678Y-102096926D01*
X102620602Y-102149082D01*
X102620595Y-102149086D01*
X102614391Y-102151781D01*
X102609142Y-102156051D01*
X102609136Y-102156055D01*
X102507589Y-102238671D01*
X102507586Y-102238673D01*
X102502335Y-102242946D01*
X102498433Y-102248473D01*
X102498429Y-102248478D01*
X102422933Y-102355431D01*
X102422930Y-102355435D01*
X102419029Y-102360963D01*
X102416762Y-102367339D01*
X102416761Y-102367343D01*
X102372922Y-102490695D01*
X102372920Y-102490700D01*
X102370654Y-102497079D01*
X102370192Y-102503833D01*
X102370191Y-102503838D01*
X102362528Y-102615878D01*
X102360796Y-102641199D01*
X100857506Y-102641199D01*
X100861147Y-102615878D01*
X100840665Y-102473421D01*
X100780877Y-102342505D01*
X100686628Y-102233735D01*
X100680674Y-102229908D01*
X100680671Y-102229906D01*
X100571510Y-102159753D01*
X100571508Y-102159752D01*
X100565553Y-102155925D01*
X100550462Y-102151494D01*
X100434252Y-102117372D01*
X100427461Y-102115378D01*
X100283539Y-102115378D01*
X100276748Y-102117371D01*
X100276747Y-102117372D01*
X100152240Y-102153930D01*
X100152237Y-102153931D01*
X100145447Y-102155925D01*
X100139494Y-102159750D01*
X100139489Y-102159753D01*
X100030328Y-102229906D01*
X100030322Y-102229911D01*
X100024372Y-102233735D01*
X100004896Y-102256211D01*
X99971205Y-102281432D01*
X99930079Y-102290378D01*
X99472504Y-102290378D01*
X99437906Y-102284136D01*
X99411823Y-102268660D01*
X99411128Y-102267857D01*
X99405168Y-102264026D01*
X99405166Y-102264025D01*
X99296010Y-102193875D01*
X99296008Y-102193874D01*
X99290053Y-102190047D01*
X99267793Y-102183511D01*
X99158752Y-102151494D01*
X99151961Y-102149500D01*
X99008039Y-102149500D01*
X99001248Y-102151493D01*
X99001247Y-102151494D01*
X98876740Y-102188052D01*
X98876737Y-102188053D01*
X98869947Y-102190047D01*
X98863994Y-102193872D01*
X98863989Y-102193875D01*
X98754828Y-102264028D01*
X98754822Y-102264033D01*
X98748872Y-102267857D01*
X98744236Y-102273206D01*
X98744235Y-102273208D01*
X98659263Y-102371271D01*
X98659260Y-102371275D01*
X98654623Y-102376627D01*
X98651680Y-102383070D01*
X98651678Y-102383074D01*
X98597778Y-102501097D01*
X98597776Y-102501102D01*
X98594835Y-102507543D01*
X98593827Y-102514551D01*
X98593826Y-102514556D01*
X98584002Y-102582887D01*
X98574353Y-102650000D01*
X97633650Y-102650000D01*
X97639204Y-102568801D01*
X97635820Y-102552518D01*
X97622384Y-102487857D01*
X97609814Y-102427366D01*
X97543354Y-102299105D01*
X97444755Y-102193531D01*
X97438973Y-102190015D01*
X97438972Y-102190014D01*
X97327110Y-102121990D01*
X97327109Y-102121989D01*
X97321328Y-102118474D01*
X97314814Y-102116649D01*
X97314810Y-102116647D01*
X97188747Y-102081326D01*
X97188743Y-102081325D01*
X97182228Y-102079500D01*
X97074051Y-102079500D01*
X97070704Y-102079959D01*
X97070704Y-102079960D01*
X96973597Y-102093306D01*
X96973589Y-102093307D01*
X96966889Y-102094229D01*
X96960683Y-102096924D01*
X96960678Y-102096926D01*
X96840602Y-102149082D01*
X96840595Y-102149086D01*
X96834391Y-102151781D01*
X96829142Y-102156051D01*
X96829136Y-102156055D01*
X96727589Y-102238671D01*
X96727586Y-102238673D01*
X96722335Y-102242946D01*
X96718433Y-102248473D01*
X96718429Y-102248478D01*
X96642930Y-102355435D01*
X96642926Y-102355440D01*
X96639029Y-102360963D01*
X96637358Y-102365662D01*
X96598460Y-102405863D01*
X96543048Y-102418260D01*
X96489938Y-102398172D01*
X96456601Y-102352205D01*
X96407172Y-102210945D01*
X96402377Y-102200988D01*
X96312381Y-102057760D01*
X96305492Y-102049121D01*
X96185878Y-101929507D01*
X96177239Y-101922618D01*
X96034011Y-101832622D01*
X96024054Y-101827827D01*
X95864384Y-101771957D01*
X95853621Y-101769500D01*
X95843888Y-101768404D01*
X95833045Y-101770246D01*
X95830000Y-101780817D01*
X95830000Y-102941967D01*
X95530000Y-102941967D01*
X95530000Y-101780817D01*
X95526954Y-101770246D01*
X95516111Y-101768404D01*
X95506378Y-101769500D01*
X95495615Y-101771957D01*
X95335945Y-101827827D01*
X95325988Y-101832622D01*
X95182760Y-101922618D01*
X95174121Y-101929507D01*
X95054507Y-102049121D01*
X95047618Y-102057760D01*
X94957622Y-102200988D01*
X94952827Y-102210945D01*
X94896959Y-102370608D01*
X94894499Y-102381386D01*
X94880311Y-102507308D01*
X94880000Y-102512853D01*
X94880000Y-102941967D01*
X87079064Y-102941967D01*
X87092229Y-102915528D01*
X87153115Y-102701536D01*
X87173643Y-102480000D01*
X87153115Y-102258464D01*
X87092229Y-102044472D01*
X86993058Y-101845311D01*
X86968280Y-101812500D01*
X86915386Y-101742457D01*
X86858981Y-101667764D01*
X86694562Y-101517876D01*
X86638837Y-101483373D01*
X86509290Y-101403161D01*
X86505401Y-101400753D01*
X86501138Y-101399101D01*
X86501133Y-101399099D01*
X86302209Y-101322035D01*
X86302201Y-101322032D01*
X86297940Y-101320382D01*
X86293436Y-101319540D01*
X86083749Y-101280342D01*
X86083745Y-101280341D01*
X86079243Y-101279500D01*
X85856757Y-101279500D01*
X85852255Y-101280341D01*
X85852250Y-101280342D01*
X85642563Y-101319540D01*
X85642560Y-101319540D01*
X85638060Y-101320382D01*
X85633801Y-101322031D01*
X85633790Y-101322035D01*
X85434866Y-101399099D01*
X85434857Y-101399103D01*
X85430599Y-101400753D01*
X85426713Y-101403158D01*
X85426709Y-101403161D01*
X85245326Y-101515468D01*
X85245321Y-101515471D01*
X85241438Y-101517876D01*
X85238063Y-101520952D01*
X85238056Y-101520958D01*
X85094369Y-101651947D01*
X85077019Y-101667764D01*
X85074268Y-101671406D01*
X85074266Y-101671409D01*
X84945697Y-101841661D01*
X84945690Y-101841670D01*
X84942942Y-101845311D01*
X84940904Y-101849403D01*
X84940902Y-101849407D01*
X84845813Y-102040370D01*
X84845811Y-102040375D01*
X84843771Y-102044472D01*
X84842520Y-102048866D01*
X84842517Y-102048876D01*
X84784135Y-102254068D01*
X84784133Y-102254075D01*
X84782885Y-102258464D01*
X84782463Y-102263009D01*
X84782463Y-102263014D01*
X84766387Y-102436512D01*
X84762357Y-102480000D01*
X80163643Y-102480000D01*
X80143115Y-102258464D01*
X80082229Y-102044472D01*
X79983058Y-101845311D01*
X79958280Y-101812500D01*
X79905386Y-101742457D01*
X79848981Y-101667764D01*
X79684562Y-101517876D01*
X79628837Y-101483373D01*
X79499290Y-101403161D01*
X79495401Y-101400753D01*
X79491138Y-101399101D01*
X79491133Y-101399099D01*
X79292209Y-101322035D01*
X79292201Y-101322032D01*
X79287940Y-101320382D01*
X79283436Y-101319540D01*
X79073749Y-101280342D01*
X79073745Y-101280341D01*
X79069243Y-101279500D01*
X78846757Y-101279500D01*
X78842255Y-101280341D01*
X78842250Y-101280342D01*
X78632563Y-101319540D01*
X78632560Y-101319540D01*
X78628060Y-101320382D01*
X78623801Y-101322031D01*
X78623790Y-101322035D01*
X78424866Y-101399099D01*
X78424857Y-101399103D01*
X78420599Y-101400753D01*
X78416713Y-101403158D01*
X78416709Y-101403161D01*
X78235326Y-101515468D01*
X78235321Y-101515471D01*
X78231438Y-101517876D01*
X78228063Y-101520952D01*
X78228056Y-101520958D01*
X78084369Y-101651947D01*
X78067019Y-101667764D01*
X78064268Y-101671406D01*
X78064266Y-101671409D01*
X77935697Y-101841661D01*
X77935690Y-101841670D01*
X77932942Y-101845311D01*
X77930904Y-101849403D01*
X77930902Y-101849407D01*
X77835813Y-102040370D01*
X77835811Y-102040375D01*
X77833771Y-102044472D01*
X77832520Y-102048866D01*
X77832517Y-102048876D01*
X77774135Y-102254068D01*
X77774133Y-102254075D01*
X77772885Y-102258464D01*
X77772463Y-102263009D01*
X77772463Y-102263014D01*
X77756387Y-102436512D01*
X77752357Y-102480000D01*
X67476220Y-102480000D01*
X67494128Y-102432780D01*
X67544202Y-102187500D01*
X67554282Y-101937365D01*
X67524107Y-101688851D01*
X67454459Y-101448396D01*
X67347141Y-101222228D01*
X67338701Y-101210000D01*
X96694353Y-101210000D01*
X96695361Y-101217011D01*
X96713826Y-101345443D01*
X96713827Y-101345446D01*
X96714835Y-101352457D01*
X96717777Y-101358899D01*
X96717778Y-101358902D01*
X96765489Y-101463373D01*
X96774623Y-101483373D01*
X96868872Y-101592143D01*
X96874826Y-101595969D01*
X96874828Y-101595971D01*
X96892007Y-101607011D01*
X96989947Y-101669953D01*
X97128039Y-101710500D01*
X97264883Y-101710500D01*
X97271961Y-101710500D01*
X97410053Y-101669953D01*
X97531128Y-101592143D01*
X97535769Y-101586786D01*
X97538201Y-101584680D01*
X97568435Y-101566742D01*
X97603032Y-101560500D01*
X102821687Y-101560500D01*
X102875209Y-101576215D01*
X102989947Y-101649953D01*
X103128039Y-101690500D01*
X103264883Y-101690500D01*
X103271961Y-101690500D01*
X103410053Y-101649953D01*
X103531128Y-101572143D01*
X103625377Y-101463373D01*
X103685165Y-101332457D01*
X103705647Y-101190000D01*
X103685165Y-101047543D01*
X103625377Y-100916627D01*
X103572069Y-100855106D01*
X114949089Y-100855106D01*
X114953677Y-100862389D01*
X114955889Y-100864059D01*
X115129315Y-100971439D01*
X115137472Y-100975501D01*
X115327669Y-101049184D01*
X115336442Y-101051679D01*
X115536930Y-101089157D01*
X115546020Y-101090000D01*
X115749980Y-101090000D01*
X115759069Y-101089157D01*
X115959557Y-101051679D01*
X115968330Y-101049184D01*
X116158527Y-100975501D01*
X116166684Y-100971439D01*
X116340108Y-100864060D01*
X116342322Y-100862388D01*
X116346909Y-100855106D01*
X116341583Y-100845715D01*
X115657214Y-100161346D01*
X115647999Y-100156026D01*
X115638785Y-100161346D01*
X114954415Y-100845715D01*
X114949089Y-100855106D01*
X103572069Y-100855106D01*
X103531128Y-100807857D01*
X103525174Y-100804030D01*
X103525171Y-100804028D01*
X103416010Y-100733875D01*
X103416008Y-100733874D01*
X103410053Y-100730047D01*
X103271961Y-100689500D01*
X103128039Y-100689500D01*
X103121248Y-100691493D01*
X103121247Y-100691494D01*
X102996740Y-100728052D01*
X102996737Y-100728053D01*
X102989947Y-100730047D01*
X102983994Y-100733872D01*
X102983989Y-100733875D01*
X102874828Y-100804028D01*
X102874822Y-100804033D01*
X102868872Y-100807857D01*
X102854862Y-100824026D01*
X102853732Y-100825330D01*
X102820039Y-100850553D01*
X102778912Y-100859500D01*
X97603032Y-100859500D01*
X97568435Y-100853258D01*
X97538201Y-100835320D01*
X97535768Y-100833212D01*
X97531128Y-100827857D01*
X97457030Y-100780237D01*
X97416010Y-100753875D01*
X97416008Y-100753874D01*
X97410053Y-100750047D01*
X97374129Y-100739499D01*
X97278752Y-100711494D01*
X97271961Y-100709500D01*
X97128039Y-100709500D01*
X97121248Y-100711493D01*
X97121247Y-100711494D01*
X96996740Y-100748052D01*
X96996737Y-100748053D01*
X96989947Y-100750047D01*
X96983994Y-100753872D01*
X96983989Y-100753875D01*
X96874828Y-100824028D01*
X96874822Y-100824033D01*
X96868872Y-100827857D01*
X96864236Y-100833206D01*
X96864235Y-100833208D01*
X96779263Y-100931271D01*
X96779260Y-100931275D01*
X96774623Y-100936627D01*
X96771680Y-100943070D01*
X96771678Y-100943074D01*
X96717778Y-101061097D01*
X96717776Y-101061102D01*
X96714835Y-101067543D01*
X96713827Y-101074551D01*
X96713826Y-101074556D01*
X96695361Y-101202989D01*
X96694353Y-101210000D01*
X67338701Y-101210000D01*
X67204932Y-101016203D01*
X67165837Y-100975501D01*
X67050195Y-100855106D01*
X79519089Y-100855106D01*
X79523677Y-100862389D01*
X79525889Y-100864059D01*
X79699315Y-100971439D01*
X79707472Y-100975501D01*
X79897669Y-101049184D01*
X79906442Y-101051679D01*
X80106930Y-101089157D01*
X80116020Y-101090000D01*
X80319980Y-101090000D01*
X80329069Y-101089157D01*
X80529557Y-101051679D01*
X80538330Y-101049184D01*
X80728527Y-100975501D01*
X80736684Y-100971439D01*
X80910108Y-100864060D01*
X80912322Y-100862388D01*
X80916909Y-100855106D01*
X80911583Y-100845715D01*
X80227214Y-100161346D01*
X80218000Y-100156026D01*
X80208785Y-100161346D01*
X79524415Y-100845715D01*
X79519089Y-100855106D01*
X67050195Y-100855106D01*
X67034272Y-100838528D01*
X67034270Y-100838526D01*
X67031516Y-100835659D01*
X67028338Y-100833271D01*
X67028336Y-100833269D01*
X66914932Y-100748052D01*
X66831385Y-100685270D01*
X66827857Y-100683418D01*
X66827855Y-100683417D01*
X66613251Y-100570783D01*
X66613243Y-100570779D01*
X66609721Y-100568931D01*
X66534711Y-100543889D01*
X66376053Y-100490921D01*
X66376049Y-100490920D01*
X66372266Y-100489657D01*
X66368334Y-100489018D01*
X66368326Y-100489016D01*
X66129106Y-100450139D01*
X66129095Y-100450138D01*
X66125169Y-100449500D01*
X65937519Y-100449500D01*
X65935548Y-100449659D01*
X65935525Y-100449660D01*
X65754453Y-100464278D01*
X65754444Y-100464279D01*
X65750473Y-100464600D01*
X65746595Y-100465555D01*
X65746594Y-100465556D01*
X65511287Y-100523554D01*
X65511285Y-100523554D01*
X65507409Y-100524510D01*
X65503745Y-100526070D01*
X65503736Y-100526074D01*
X65280772Y-100621070D01*
X65280764Y-100621074D01*
X65277103Y-100622634D01*
X65273743Y-100624758D01*
X65273731Y-100624765D01*
X65068896Y-100754296D01*
X65068891Y-100754299D01*
X65065519Y-100756432D01*
X65062533Y-100759076D01*
X65062528Y-100759081D01*
X64881124Y-100919791D01*
X64881119Y-100919795D01*
X64878138Y-100922437D01*
X64875621Y-100925519D01*
X64875613Y-100925528D01*
X64722332Y-101113263D01*
X64719812Y-101116350D01*
X64717827Y-101119786D01*
X64717820Y-101119798D01*
X64596635Y-101329698D01*
X64596630Y-101329707D01*
X64594643Y-101333150D01*
X64593233Y-101336866D01*
X64593229Y-101336876D01*
X64507287Y-101563487D01*
X64507284Y-101563495D01*
X64505872Y-101567220D01*
X64505073Y-101571129D01*
X64505072Y-101571136D01*
X64464800Y-101768404D01*
X64455798Y-101812500D01*
X64455637Y-101816484D01*
X64455637Y-101816488D01*
X64445878Y-102058645D01*
X64445878Y-102058654D01*
X64445718Y-102062635D01*
X60300500Y-102062635D01*
X60300500Y-100002817D01*
X60300656Y-99997257D01*
X60303287Y-99950492D01*
X60303621Y-99944554D01*
X79063495Y-99944554D01*
X79082316Y-100147665D01*
X79083989Y-100156613D01*
X79139809Y-100352803D01*
X79143105Y-100361309D01*
X79234018Y-100543889D01*
X79238823Y-100551648D01*
X79297125Y-100628852D01*
X79306011Y-100635456D01*
X79315721Y-100630145D01*
X79996653Y-99949214D01*
X80001973Y-99940000D01*
X80434026Y-99940000D01*
X80439346Y-99949214D01*
X81120277Y-100630145D01*
X81129986Y-100635456D01*
X81138873Y-100628852D01*
X81197180Y-100551643D01*
X81201979Y-100543892D01*
X81292894Y-100361309D01*
X81296190Y-100352803D01*
X81352010Y-100156613D01*
X81353683Y-100147665D01*
X81368294Y-99990000D01*
X83652417Y-99990000D01*
X83672700Y-100195934D01*
X83732768Y-100393954D01*
X83735062Y-100398246D01*
X83735063Y-100398248D01*
X83828023Y-100572163D01*
X83828025Y-100572166D01*
X83830315Y-100576450D01*
X83833398Y-100580207D01*
X83833399Y-100580208D01*
X83924728Y-100691494D01*
X83961590Y-100736410D01*
X84121550Y-100867685D01*
X84304046Y-100965232D01*
X84502066Y-101025300D01*
X84708000Y-101045583D01*
X84913934Y-101025300D01*
X85111954Y-100965232D01*
X85294450Y-100867685D01*
X85454410Y-100736410D01*
X85585685Y-100576450D01*
X85683232Y-100393954D01*
X85743300Y-100195934D01*
X85763583Y-99990000D01*
X85743300Y-99784066D01*
X85683232Y-99586046D01*
X85585685Y-99403550D01*
X85555810Y-99367147D01*
X94880000Y-99367147D01*
X94880311Y-99372691D01*
X94894499Y-99498613D01*
X94896959Y-99509391D01*
X94952827Y-99669054D01*
X94957622Y-99679011D01*
X95047618Y-99822239D01*
X95054507Y-99830878D01*
X95174121Y-99950492D01*
X95182760Y-99957381D01*
X95325988Y-100047377D01*
X95335945Y-100052172D01*
X95495615Y-100108042D01*
X95506378Y-100110499D01*
X95516111Y-100111595D01*
X95526954Y-100109753D01*
X95530000Y-100099183D01*
X95830000Y-100099183D01*
X95833045Y-100109753D01*
X95843888Y-100111595D01*
X95853621Y-100110499D01*
X95864384Y-100108042D01*
X96024054Y-100052172D01*
X96034011Y-100047377D01*
X96177239Y-99957381D01*
X96185878Y-99950492D01*
X96305492Y-99830878D01*
X96312381Y-99822239D01*
X96402377Y-99679011D01*
X96407172Y-99669054D01*
X96463040Y-99509391D01*
X96465500Y-99498613D01*
X96479688Y-99372691D01*
X96480000Y-99367147D01*
X103520000Y-99367147D01*
X103520311Y-99372691D01*
X103534499Y-99498613D01*
X103536959Y-99509391D01*
X103592827Y-99669054D01*
X103597622Y-99679011D01*
X103687618Y-99822239D01*
X103694507Y-99830878D01*
X103814121Y-99950492D01*
X103822760Y-99957381D01*
X103965988Y-100047377D01*
X103975945Y-100052172D01*
X104135615Y-100108042D01*
X104146378Y-100110499D01*
X104156111Y-100111595D01*
X104166954Y-100109753D01*
X104170000Y-100099183D01*
X104470000Y-100099183D01*
X104473045Y-100109753D01*
X104483888Y-100111595D01*
X104493621Y-100110499D01*
X104504384Y-100108042D01*
X104664054Y-100052172D01*
X104674011Y-100047377D01*
X104817239Y-99957381D01*
X104825878Y-99950492D01*
X104831816Y-99944554D01*
X114493495Y-99944554D01*
X114512316Y-100147665D01*
X114513989Y-100156613D01*
X114569809Y-100352803D01*
X114573105Y-100361309D01*
X114664018Y-100543889D01*
X114668823Y-100551648D01*
X114727125Y-100628852D01*
X114736011Y-100635456D01*
X114745721Y-100630145D01*
X115426653Y-99949214D01*
X115431973Y-99940000D01*
X115864026Y-99940000D01*
X115869346Y-99949214D01*
X116550277Y-100630145D01*
X116559986Y-100635456D01*
X116568873Y-100628852D01*
X116627180Y-100551643D01*
X116631979Y-100543892D01*
X116722894Y-100361309D01*
X116726190Y-100352803D01*
X116782010Y-100156613D01*
X116783683Y-100147665D01*
X116798294Y-99990000D01*
X119082417Y-99990000D01*
X119102700Y-100195934D01*
X119162768Y-100393954D01*
X119165062Y-100398246D01*
X119165063Y-100398248D01*
X119258023Y-100572163D01*
X119258025Y-100572166D01*
X119260315Y-100576450D01*
X119263398Y-100580207D01*
X119263399Y-100580208D01*
X119354728Y-100691494D01*
X119391590Y-100736410D01*
X119551550Y-100867685D01*
X119734046Y-100965232D01*
X119932066Y-101025300D01*
X120138000Y-101045583D01*
X120343934Y-101025300D01*
X120541954Y-100965232D01*
X120724450Y-100867685D01*
X120884410Y-100736410D01*
X121015685Y-100576450D01*
X121113232Y-100393954D01*
X121173300Y-100195934D01*
X121193583Y-99990000D01*
X121173300Y-99784066D01*
X121113232Y-99586046D01*
X121015685Y-99403550D01*
X120884410Y-99243590D01*
X120724450Y-99112315D01*
X120720166Y-99110025D01*
X120720163Y-99110023D01*
X120546248Y-99017063D01*
X120546246Y-99017062D01*
X120541954Y-99014768D01*
X120537293Y-99013354D01*
X120348590Y-98956112D01*
X120348586Y-98956111D01*
X120343934Y-98954700D01*
X120138000Y-98934417D01*
X120133157Y-98934894D01*
X119936908Y-98954223D01*
X119936907Y-98954223D01*
X119932066Y-98954700D01*
X119927415Y-98956110D01*
X119927409Y-98956112D01*
X119738706Y-99013354D01*
X119738702Y-99013355D01*
X119734046Y-99014768D01*
X119729757Y-99017060D01*
X119729751Y-99017063D01*
X119555836Y-99110023D01*
X119555828Y-99110028D01*
X119551550Y-99112315D01*
X119547796Y-99115394D01*
X119547791Y-99115399D01*
X119395354Y-99240500D01*
X119395348Y-99240505D01*
X119391590Y-99243590D01*
X119388505Y-99247348D01*
X119388500Y-99247354D01*
X119263399Y-99399791D01*
X119263394Y-99399796D01*
X119260315Y-99403550D01*
X119258028Y-99407828D01*
X119258023Y-99407836D01*
X119165063Y-99581751D01*
X119165060Y-99581757D01*
X119162768Y-99586046D01*
X119161355Y-99590702D01*
X119161354Y-99590706D01*
X119104112Y-99779409D01*
X119104110Y-99779415D01*
X119102700Y-99784066D01*
X119102223Y-99788907D01*
X119102223Y-99788908D01*
X119082894Y-99985157D01*
X119082417Y-99990000D01*
X116798294Y-99990000D01*
X116802505Y-99944554D01*
X116802505Y-99935446D01*
X116783683Y-99732334D01*
X116782010Y-99723386D01*
X116726190Y-99527196D01*
X116722894Y-99518690D01*
X116631979Y-99336107D01*
X116627180Y-99328356D01*
X116568871Y-99251144D01*
X116559987Y-99244542D01*
X116550277Y-99249853D01*
X115869346Y-99930785D01*
X115864026Y-99940000D01*
X115431973Y-99940000D01*
X115426653Y-99930785D01*
X114745722Y-99249854D01*
X114736011Y-99244543D01*
X114727126Y-99251145D01*
X114668816Y-99328359D01*
X114664021Y-99336104D01*
X114573105Y-99518690D01*
X114569809Y-99527196D01*
X114513989Y-99723386D01*
X114512316Y-99732334D01*
X114493495Y-99935446D01*
X114493495Y-99944554D01*
X104831816Y-99944554D01*
X104945492Y-99830878D01*
X104952381Y-99822239D01*
X105042377Y-99679011D01*
X105047172Y-99669054D01*
X105103040Y-99509391D01*
X105105500Y-99498613D01*
X105119688Y-99372691D01*
X105120000Y-99367147D01*
X105120000Y-99088033D01*
X105117245Y-99077754D01*
X105106967Y-99075000D01*
X104483033Y-99075000D01*
X104472754Y-99077754D01*
X104470000Y-99088033D01*
X104470000Y-100099183D01*
X104170000Y-100099183D01*
X104170000Y-99088033D01*
X104167245Y-99077754D01*
X104156967Y-99075000D01*
X103533033Y-99075000D01*
X103522754Y-99077754D01*
X103520000Y-99088033D01*
X103520000Y-99367147D01*
X96480000Y-99367147D01*
X96480000Y-99088033D01*
X96477245Y-99077754D01*
X96466967Y-99075000D01*
X95843033Y-99075000D01*
X95832754Y-99077754D01*
X95830000Y-99088033D01*
X95830000Y-100099183D01*
X95530000Y-100099183D01*
X95530000Y-99088033D01*
X95527245Y-99077754D01*
X95516967Y-99075000D01*
X94893033Y-99075000D01*
X94882754Y-99077754D01*
X94880000Y-99088033D01*
X94880000Y-99367147D01*
X85555810Y-99367147D01*
X85454410Y-99243590D01*
X85294450Y-99112315D01*
X85290166Y-99110025D01*
X85290163Y-99110023D01*
X85130893Y-99024891D01*
X114949090Y-99024891D01*
X114954417Y-99034285D01*
X115638785Y-99718653D01*
X115648000Y-99723973D01*
X115657214Y-99718653D01*
X116341580Y-99034286D01*
X116346908Y-99024891D01*
X116342321Y-99017610D01*
X116340110Y-99015940D01*
X116166684Y-98908560D01*
X116158527Y-98904498D01*
X115968330Y-98830815D01*
X115959557Y-98828320D01*
X115759069Y-98790842D01*
X115749980Y-98790000D01*
X115546020Y-98790000D01*
X115536930Y-98790842D01*
X115336442Y-98828320D01*
X115327669Y-98830815D01*
X115137472Y-98904498D01*
X115129315Y-98908560D01*
X114955881Y-99015945D01*
X114953678Y-99017608D01*
X114949090Y-99024891D01*
X85130893Y-99024891D01*
X85116248Y-99017063D01*
X85116246Y-99017062D01*
X85111954Y-99014768D01*
X85107293Y-99013354D01*
X84918590Y-98956112D01*
X84918586Y-98956111D01*
X84913934Y-98954700D01*
X84708000Y-98934417D01*
X84703157Y-98934894D01*
X84506908Y-98954223D01*
X84506907Y-98954223D01*
X84502066Y-98954700D01*
X84497415Y-98956110D01*
X84497409Y-98956112D01*
X84308706Y-99013354D01*
X84308702Y-99013355D01*
X84304046Y-99014768D01*
X84299757Y-99017060D01*
X84299751Y-99017063D01*
X84125836Y-99110023D01*
X84125828Y-99110028D01*
X84121550Y-99112315D01*
X84117796Y-99115394D01*
X84117791Y-99115399D01*
X83965354Y-99240500D01*
X83965348Y-99240505D01*
X83961590Y-99243590D01*
X83958505Y-99247348D01*
X83958500Y-99247354D01*
X83833399Y-99399791D01*
X83833394Y-99399796D01*
X83830315Y-99403550D01*
X83828028Y-99407828D01*
X83828023Y-99407836D01*
X83735063Y-99581751D01*
X83735060Y-99581757D01*
X83732768Y-99586046D01*
X83731355Y-99590702D01*
X83731354Y-99590706D01*
X83674112Y-99779409D01*
X83674110Y-99779415D01*
X83672700Y-99784066D01*
X83672223Y-99788907D01*
X83672223Y-99788908D01*
X83652894Y-99985157D01*
X83652417Y-99990000D01*
X81368294Y-99990000D01*
X81372505Y-99944554D01*
X81372505Y-99935446D01*
X81353683Y-99732334D01*
X81352010Y-99723386D01*
X81296190Y-99527196D01*
X81292894Y-99518690D01*
X81201979Y-99336107D01*
X81197180Y-99328356D01*
X81138871Y-99251144D01*
X81129987Y-99244542D01*
X81120277Y-99249853D01*
X80439346Y-99930785D01*
X80434026Y-99940000D01*
X80001973Y-99940000D01*
X79996653Y-99930785D01*
X79315722Y-99249854D01*
X79306011Y-99244543D01*
X79297126Y-99251145D01*
X79238816Y-99328359D01*
X79234021Y-99336104D01*
X79143105Y-99518690D01*
X79139809Y-99527196D01*
X79083989Y-99723386D01*
X79082316Y-99732334D01*
X79063495Y-99935446D01*
X79063495Y-99944554D01*
X60303621Y-99944554D01*
X60317190Y-99703321D01*
X60318431Y-99692321D01*
X60367303Y-99404818D01*
X60369769Y-99394018D01*
X60450518Y-99113798D01*
X60454180Y-99103336D01*
X60486677Y-99024891D01*
X79519090Y-99024891D01*
X79524417Y-99034285D01*
X80208785Y-99718653D01*
X80218000Y-99723973D01*
X80227214Y-99718653D01*
X80911580Y-99034286D01*
X80916908Y-99024891D01*
X80912321Y-99017610D01*
X80910110Y-99015940D01*
X80736684Y-98908560D01*
X80728527Y-98904498D01*
X80538330Y-98830815D01*
X80529557Y-98828320D01*
X80329069Y-98790842D01*
X80319980Y-98790000D01*
X80116020Y-98790000D01*
X80106930Y-98790842D01*
X79906442Y-98828320D01*
X79897669Y-98830815D01*
X79707472Y-98904498D01*
X79699315Y-98908560D01*
X79525881Y-99015945D01*
X79523678Y-99017608D01*
X79519090Y-99024891D01*
X60486677Y-99024891D01*
X60565790Y-98833920D01*
X60570599Y-98823937D01*
X60604852Y-98761967D01*
X94880000Y-98761967D01*
X94882754Y-98772245D01*
X94893033Y-98775000D01*
X95516967Y-98775000D01*
X95527245Y-98772245D01*
X95530000Y-98761967D01*
X95830000Y-98761967D01*
X95832754Y-98772245D01*
X95843033Y-98775000D01*
X96466967Y-98775000D01*
X96477245Y-98772245D01*
X96480000Y-98761967D01*
X103520000Y-98761967D01*
X103522754Y-98772245D01*
X103533033Y-98775000D01*
X104156967Y-98775000D01*
X104167245Y-98772245D01*
X104170000Y-98761967D01*
X104470000Y-98761967D01*
X104472754Y-98772245D01*
X104483033Y-98775000D01*
X105106967Y-98775000D01*
X105117245Y-98772245D01*
X105120000Y-98761967D01*
X105120000Y-98482853D01*
X105119688Y-98477308D01*
X105105500Y-98351386D01*
X105103040Y-98340608D01*
X105047172Y-98180945D01*
X105042377Y-98170988D01*
X104952381Y-98027760D01*
X104945492Y-98019121D01*
X104825878Y-97899507D01*
X104817239Y-97892618D01*
X104674011Y-97802622D01*
X104664054Y-97797827D01*
X104504384Y-97741957D01*
X104493621Y-97739500D01*
X104483888Y-97738404D01*
X104473045Y-97740246D01*
X104470000Y-97750817D01*
X104470000Y-98761967D01*
X104170000Y-98761967D01*
X104170000Y-97750817D01*
X104166954Y-97740246D01*
X104156111Y-97738404D01*
X104146378Y-97739500D01*
X104135615Y-97741957D01*
X103975945Y-97797827D01*
X103965988Y-97802622D01*
X103822760Y-97892618D01*
X103814121Y-97899507D01*
X103694507Y-98019121D01*
X103687618Y-98027760D01*
X103597622Y-98170988D01*
X103592827Y-98180945D01*
X103536959Y-98340608D01*
X103534499Y-98351386D01*
X103520311Y-98477308D01*
X103520000Y-98482853D01*
X103520000Y-98761967D01*
X96480000Y-98761967D01*
X96480000Y-98482853D01*
X96479688Y-98477308D01*
X96465500Y-98351386D01*
X96463040Y-98340608D01*
X96407172Y-98180945D01*
X96402377Y-98170988D01*
X96312381Y-98027760D01*
X96305492Y-98019121D01*
X96185878Y-97899507D01*
X96177239Y-97892618D01*
X96034011Y-97802622D01*
X96024054Y-97797827D01*
X95864384Y-97741957D01*
X95853621Y-97739500D01*
X95843888Y-97738404D01*
X95833045Y-97740246D01*
X95830000Y-97750817D01*
X95830000Y-98761967D01*
X95530000Y-98761967D01*
X95530000Y-97750817D01*
X95526954Y-97740246D01*
X95516111Y-97738404D01*
X95506378Y-97739500D01*
X95495615Y-97741957D01*
X95335945Y-97797827D01*
X95325988Y-97802622D01*
X95182760Y-97892618D01*
X95174121Y-97899507D01*
X95054507Y-98019121D01*
X95047618Y-98027760D01*
X94957622Y-98170988D01*
X94952827Y-98180945D01*
X94896959Y-98340608D01*
X94894499Y-98351386D01*
X94880311Y-98477308D01*
X94880000Y-98482853D01*
X94880000Y-98761967D01*
X60604852Y-98761967D01*
X60711668Y-98568714D01*
X60717571Y-98559321D01*
X60759952Y-98499594D01*
X60886319Y-98321503D01*
X60893237Y-98312829D01*
X61087563Y-98095381D01*
X61095381Y-98087563D01*
X61312833Y-97893233D01*
X61321503Y-97886319D01*
X61559326Y-97717567D01*
X61568714Y-97711668D01*
X61823937Y-97570599D01*
X61833920Y-97565790D01*
X62103336Y-97454180D01*
X62113798Y-97450518D01*
X62394018Y-97369769D01*
X62404818Y-97367303D01*
X62692321Y-97318431D01*
X62703321Y-97317190D01*
X62997256Y-97300656D01*
X63002817Y-97300500D01*
X136952405Y-97300500D01*
X136997227Y-97300500D01*
X137002777Y-97300655D01*
G37*
G04 #@! TD.AperFunction*
M02*
