G04 #@! TF.GenerationSoftware,KiCad,Pcbnew,7.0.5*
G04 #@! TF.CreationDate,2024-03-22T21:31:36-05:00*
G04 #@! TF.ProjectId,plate,706c6174-652e-46b6-9963-61645f706362,REV1*
G04 #@! TF.SameCoordinates,Original*
G04 #@! TF.FileFunction,Copper,L1,Top*
G04 #@! TF.FilePolarity,Positive*
%FSLAX46Y46*%
G04 Gerber Fmt 4.6, Leading zero omitted, Abs format (unit mm)*
G04 Created by KiCad (PCBNEW 7.0.5) date 2024-03-22 21:31:36*
%MOMM*%
%LPD*%
G01*
G04 APERTURE LIST*
G04 APERTURE END LIST*
G04 #@! TA.AperFunction,Conductor*
G36*
X100582500Y-66305548D02*
G01*
X101743512Y-66345646D01*
X101745179Y-66345733D01*
X102904088Y-66425879D01*
X102905714Y-66426019D01*
X103573560Y-66495435D01*
X104061176Y-66546119D01*
X104062872Y-66546325D01*
X104695043Y-66634182D01*
X105213475Y-66706232D01*
X105215101Y-66706486D01*
X106359531Y-66906017D01*
X106361199Y-66906338D01*
X107498021Y-67145244D01*
X107499644Y-67145614D01*
X108627592Y-67423628D01*
X108629201Y-67424055D01*
X109123077Y-67564032D01*
X109173905Y-67598089D01*
X109195009Y-67655520D01*
X109181709Y-67708965D01*
X107040000Y-71399999D01*
X107040000Y-71400000D01*
X115332206Y-71417990D01*
X115332205Y-71417989D01*
X115321870Y-71399999D01*
X114353872Y-69714945D01*
X114341281Y-69655069D01*
X114366289Y-69599228D01*
X114419343Y-69568750D01*
X114480179Y-69575278D01*
X114482649Y-69576425D01*
X115142795Y-69894335D01*
X115144301Y-69895092D01*
X116172893Y-70434939D01*
X116174392Y-70435759D01*
X117183734Y-71010785D01*
X117185204Y-71011656D01*
X117844443Y-71417990D01*
X118174083Y-71621169D01*
X118175522Y-71622091D01*
X118654209Y-71940447D01*
X119142804Y-72265394D01*
X119144167Y-72266334D01*
X119575549Y-72575223D01*
X120088683Y-72942651D01*
X120090055Y-72943670D01*
X120168371Y-73003943D01*
X121010638Y-73652165D01*
X121011893Y-73653164D01*
X121825146Y-74325000D01*
X121907508Y-74393040D01*
X121908807Y-74394151D01*
X122778332Y-75164483D01*
X122779581Y-75165629D01*
X122937676Y-75315742D01*
X123621972Y-75965489D01*
X123623191Y-75966687D01*
X124437492Y-76795166D01*
X124438635Y-76796369D01*
X125223867Y-77652475D01*
X125224981Y-77653733D01*
X125980192Y-78536428D01*
X125981255Y-78537713D01*
X126705527Y-79445922D01*
X126706569Y-79447276D01*
X127399086Y-80379975D01*
X127400061Y-80381336D01*
X127561633Y-80615413D01*
X127926007Y-81143301D01*
X127943503Y-81201931D01*
X127930161Y-81249225D01*
X126481319Y-83746168D01*
X126481319Y-83746169D01*
X129460140Y-83752631D01*
X129518289Y-83771665D01*
X129546778Y-83804117D01*
X129839016Y-84338315D01*
X129839810Y-84339828D01*
X130361813Y-85377566D01*
X130362555Y-85379105D01*
X130848432Y-86434254D01*
X130849120Y-86435818D01*
X131298288Y-87507104D01*
X131298922Y-87508691D01*
X131710852Y-88594863D01*
X131711430Y-88596471D01*
X132085612Y-89696177D01*
X132086135Y-89697804D01*
X132422142Y-90809789D01*
X132422608Y-90811433D01*
X132720034Y-91934350D01*
X132720443Y-91936009D01*
X132978932Y-93068530D01*
X132979283Y-93070202D01*
X133198529Y-94210967D01*
X133198823Y-94212651D01*
X133378565Y-95360312D01*
X133378800Y-95362005D01*
X133518816Y-96515144D01*
X133518993Y-96516844D01*
X133619130Y-97674204D01*
X133619248Y-97675909D01*
X133673362Y-98719953D01*
X133679376Y-98835967D01*
X133679434Y-98837658D01*
X133686008Y-99218465D01*
X133699485Y-99999146D01*
X133699485Y-100000852D01*
X133685758Y-100796067D01*
X133679435Y-101162324D01*
X133679376Y-101164013D01*
X133665299Y-101435620D01*
X133619248Y-102324090D01*
X133619130Y-102325795D01*
X133518993Y-103483155D01*
X133518816Y-103484855D01*
X133378800Y-104637994D01*
X133378565Y-104639687D01*
X133198823Y-105787348D01*
X133198529Y-105789032D01*
X132979283Y-106929797D01*
X132978932Y-106931469D01*
X132720443Y-108063990D01*
X132720034Y-108065649D01*
X132422608Y-109188566D01*
X132422142Y-109190210D01*
X132086135Y-110302195D01*
X132085612Y-110303822D01*
X131711430Y-111403528D01*
X131710852Y-111405136D01*
X131298922Y-112491308D01*
X131298288Y-112492895D01*
X130849120Y-113564181D01*
X130848432Y-113565745D01*
X130362555Y-114620894D01*
X130361813Y-114622433D01*
X129839810Y-115660171D01*
X129839016Y-115661684D01*
X129281493Y-116680810D01*
X129280647Y-116682295D01*
X128688304Y-117681530D01*
X128687407Y-117682985D01*
X128060890Y-118661235D01*
X128059944Y-118662658D01*
X127400081Y-119618635D01*
X127399086Y-119620024D01*
X126706569Y-120552723D01*
X126705527Y-120554077D01*
X126454562Y-120868778D01*
X126070403Y-121350499D01*
X125981281Y-121462254D01*
X125980192Y-121463571D01*
X125224981Y-122346266D01*
X125223848Y-122347545D01*
X124438669Y-123203594D01*
X124437492Y-123204833D01*
X123623191Y-124033312D01*
X123621972Y-124034510D01*
X122779591Y-124834361D01*
X122778332Y-124835516D01*
X121908807Y-125605848D01*
X121907508Y-125606959D01*
X121605439Y-125856502D01*
X121011927Y-126346807D01*
X121010620Y-126347849D01*
X120090055Y-127056329D01*
X120088683Y-127057348D01*
X119144193Y-127733647D01*
X119142786Y-127734618D01*
X118175522Y-128377908D01*
X118174083Y-128378830D01*
X117185204Y-128988343D01*
X117183734Y-128989214D01*
X116174392Y-129564240D01*
X116172893Y-129565060D01*
X115144309Y-130104903D01*
X115142782Y-130105671D01*
X114096178Y-130609689D01*
X114094625Y-130610403D01*
X113031269Y-131077987D01*
X113029693Y-131078648D01*
X111950808Y-131509260D01*
X111949210Y-131509866D01*
X110889593Y-131890939D01*
X110828437Y-131892840D01*
X110777844Y-131858431D01*
X110770252Y-131847103D01*
X108650883Y-128157788D01*
X108650882Y-128157788D01*
X105745357Y-133165184D01*
X105699799Y-133206026D01*
X105676732Y-133213027D01*
X105215150Y-133293505D01*
X105213461Y-133293769D01*
X104062872Y-133453674D01*
X104061176Y-133453880D01*
X102905742Y-133573977D01*
X102904040Y-133574124D01*
X101745187Y-133654265D01*
X101743480Y-133654354D01*
X101206559Y-133672898D01*
X100582500Y-133694451D01*
X100580820Y-133694480D01*
X99419180Y-133694480D01*
X99417499Y-133694451D01*
X98769115Y-133672058D01*
X98256519Y-133654354D01*
X98254812Y-133654265D01*
X97095959Y-133574124D01*
X97094257Y-133573977D01*
X95938823Y-133453880D01*
X95937127Y-133453674D01*
X94786538Y-133293769D01*
X94784850Y-133293505D01*
X93640478Y-133093984D01*
X93638800Y-133093661D01*
X92501978Y-132854755D01*
X92500312Y-132854375D01*
X91372443Y-132576380D01*
X91370791Y-132575942D01*
X90253180Y-132259181D01*
X90251544Y-132258687D01*
X89236660Y-131932801D01*
X89187036Y-131897008D01*
X89181091Y-131887867D01*
X87516956Y-128991005D01*
X93573897Y-128991005D01*
X95776040Y-128995782D01*
X95834189Y-129014816D01*
X95870046Y-129064394D01*
X95869913Y-129125579D01*
X95861454Y-129144468D01*
X95233897Y-130226004D01*
X95233897Y-130226005D01*
X99380000Y-130235000D01*
X98039210Y-127901005D01*
X111933897Y-127901005D01*
X116080000Y-127910000D01*
X114014738Y-124314872D01*
X114014737Y-124314872D01*
X111933897Y-127901004D01*
X111933897Y-127901005D01*
X98039210Y-127901005D01*
X97314738Y-126639872D01*
X97314737Y-126639872D01*
X96923144Y-127314744D01*
X96877585Y-127355586D01*
X96816722Y-127361850D01*
X96763800Y-127331142D01*
X96751674Y-127314376D01*
X95654738Y-125404872D01*
X95654737Y-125404872D01*
X93573897Y-128991004D01*
X93573897Y-128991005D01*
X87516956Y-128991005D01*
X87120000Y-128300000D01*
X87119999Y-128300000D01*
X85852896Y-130483731D01*
X85807338Y-130524573D01*
X85746474Y-130530837D01*
X85724313Y-130523241D01*
X84857217Y-130105671D01*
X84855690Y-130104903D01*
X83827106Y-129565060D01*
X83825607Y-129564240D01*
X82816265Y-128989214D01*
X82814795Y-128988343D01*
X81825916Y-128378830D01*
X81824477Y-128377908D01*
X80857213Y-127734618D01*
X80855820Y-127733656D01*
X80327822Y-127355586D01*
X79911316Y-127057348D01*
X79909944Y-127056329D01*
X78989379Y-126347849D01*
X78988099Y-126346830D01*
X78092484Y-125606953D01*
X78091192Y-125605848D01*
X77221667Y-124835516D01*
X77220408Y-124834361D01*
X76378027Y-124034510D01*
X76376808Y-124033312D01*
X75562507Y-123204833D01*
X75561365Y-123203631D01*
X75334357Y-122956133D01*
X116379159Y-122956133D01*
X120525262Y-122965128D01*
X118460000Y-119370000D01*
X118459999Y-119370000D01*
X116379159Y-122956132D01*
X116379159Y-122956133D01*
X75334357Y-122956133D01*
X75192993Y-122802010D01*
X79367794Y-122802010D01*
X87660000Y-122820000D01*
X87659999Y-122819999D01*
X87649664Y-122802009D01*
X87104682Y-121853326D01*
X90704581Y-121853326D01*
X94850684Y-121862321D01*
X94703514Y-121606133D01*
X103019159Y-121606133D01*
X107165262Y-121615128D01*
X105907769Y-119426133D01*
X107389159Y-119426133D01*
X111535262Y-119435128D01*
X111535261Y-119435127D01*
X111550298Y-119435160D01*
X111564476Y-119422450D01*
X111625340Y-119416185D01*
X111678262Y-119446891D01*
X111701647Y-119493663D01*
X111724721Y-119609665D01*
X111823764Y-119901433D01*
X111960039Y-120177770D01*
X112131215Y-120433953D01*
X112131222Y-120433964D01*
X112334380Y-120665620D01*
X112566036Y-120868778D01*
X112822229Y-121039960D01*
X113098566Y-121176235D01*
X113098568Y-121176235D01*
X113098573Y-121176238D01*
X113280575Y-121238019D01*
X113390334Y-121275278D01*
X113390336Y-121275278D01*
X113390341Y-121275280D01*
X113692540Y-121335391D01*
X113923059Y-121350500D01*
X114076941Y-121350500D01*
X114307460Y-121335391D01*
X114609659Y-121275280D01*
X114901427Y-121176238D01*
X115177771Y-121039960D01*
X115433964Y-120868778D01*
X115665620Y-120665620D01*
X115868778Y-120433964D01*
X116039960Y-120177772D01*
X116176238Y-119901427D01*
X116275280Y-119609659D01*
X116335391Y-119307460D01*
X116355543Y-119000000D01*
X116335391Y-118692540D01*
X116275280Y-118390341D01*
X116176238Y-118098573D01*
X116061298Y-117865498D01*
X116052518Y-117804946D01*
X116081007Y-117750797D01*
X116135882Y-117723736D01*
X116150299Y-117722711D01*
X123525192Y-117738712D01*
X120935508Y-113230691D01*
X125232688Y-113230691D01*
X129511236Y-113239973D01*
X127380000Y-109530000D01*
X127379999Y-109530000D01*
X125232688Y-113230690D01*
X125232688Y-113230691D01*
X120935508Y-113230691D01*
X119394668Y-110548458D01*
X119394667Y-110548458D01*
X115587870Y-117109108D01*
X115542312Y-117149950D01*
X115481448Y-117156214D01*
X115436966Y-117133854D01*
X115433973Y-117131229D01*
X115433963Y-117131221D01*
X115177770Y-116960039D01*
X114901433Y-116823764D01*
X114609665Y-116724721D01*
X114307457Y-116664608D01*
X114076941Y-116649500D01*
X113923059Y-116649500D01*
X113692542Y-116664608D01*
X113390334Y-116724721D01*
X113098566Y-116823764D01*
X112822229Y-116960039D01*
X112566036Y-117131221D01*
X112566035Y-117131223D01*
X112334382Y-117334378D01*
X112334378Y-117334382D01*
X112131223Y-117566035D01*
X112131214Y-117566046D01*
X111960044Y-117822220D01*
X111960040Y-117822226D01*
X111823764Y-118098566D01*
X111724721Y-118390334D01*
X111664608Y-118692542D01*
X111644457Y-118999999D01*
X111644457Y-119000000D01*
X111662806Y-119279964D01*
X111647745Y-119339267D01*
X111600703Y-119378391D01*
X111539649Y-119382393D01*
X111487902Y-119349743D01*
X111478179Y-119335760D01*
X109470000Y-115840000D01*
X109469999Y-115840000D01*
X107389159Y-119426132D01*
X107389159Y-119426133D01*
X105907769Y-119426133D01*
X105100000Y-118020000D01*
X105099999Y-118020000D01*
X103019159Y-121606132D01*
X103019159Y-121606133D01*
X94703514Y-121606133D01*
X93206391Y-119000000D01*
X97644457Y-119000000D01*
X97664608Y-119307457D01*
X97724721Y-119609665D01*
X97823764Y-119901433D01*
X97960039Y-120177770D01*
X98131215Y-120433953D01*
X98131222Y-120433964D01*
X98334380Y-120665620D01*
X98566036Y-120868778D01*
X98822229Y-121039960D01*
X99098566Y-121176235D01*
X99098568Y-121176235D01*
X99098573Y-121176238D01*
X99280575Y-121238019D01*
X99390334Y-121275278D01*
X99390336Y-121275278D01*
X99390341Y-121275280D01*
X99692540Y-121335391D01*
X99923059Y-121350500D01*
X100076941Y-121350500D01*
X100307460Y-121335391D01*
X100609659Y-121275280D01*
X100901427Y-121176238D01*
X101177771Y-121039960D01*
X101433964Y-120868778D01*
X101665620Y-120665620D01*
X101868778Y-120433964D01*
X102039960Y-120177772D01*
X102176238Y-119901427D01*
X102275280Y-119609659D01*
X102335391Y-119307460D01*
X102355543Y-119000000D01*
X102335391Y-118692540D01*
X102275280Y-118390341D01*
X102176238Y-118098573D01*
X102039960Y-117822229D01*
X101868778Y-117566036D01*
X101665620Y-117334380D01*
X101433964Y-117131222D01*
X101428954Y-117127874D01*
X101177770Y-116960039D01*
X100901433Y-116823764D01*
X100609665Y-116724721D01*
X100307457Y-116664608D01*
X100076941Y-116649500D01*
X99923059Y-116649500D01*
X99692542Y-116664608D01*
X99390334Y-116724721D01*
X99098566Y-116823764D01*
X98822229Y-116960039D01*
X98566036Y-117131221D01*
X98566035Y-117131223D01*
X98334382Y-117334378D01*
X98334378Y-117334382D01*
X98131223Y-117566035D01*
X98131214Y-117566046D01*
X97960044Y-117822220D01*
X97960040Y-117822226D01*
X97823764Y-118098566D01*
X97724721Y-118390334D01*
X97664608Y-118692542D01*
X97644457Y-118999999D01*
X97644457Y-119000000D01*
X93206391Y-119000000D01*
X92785422Y-118267193D01*
X92785421Y-118267193D01*
X90704581Y-121853325D01*
X90704581Y-121853326D01*
X87104682Y-121853326D01*
X86805980Y-121333357D01*
X86793390Y-121273482D01*
X86818398Y-121217641D01*
X86859999Y-121190300D01*
X86901427Y-121176238D01*
X87177771Y-121039960D01*
X87433964Y-120868778D01*
X87665620Y-120665620D01*
X87868778Y-120433964D01*
X88039960Y-120177772D01*
X88176238Y-119901427D01*
X88275280Y-119609659D01*
X88335391Y-119307460D01*
X88355543Y-119000000D01*
X88335391Y-118692540D01*
X88275280Y-118390341D01*
X88176238Y-118098573D01*
X88039960Y-117822229D01*
X87868778Y-117566036D01*
X87665620Y-117334380D01*
X87433964Y-117131222D01*
X87428954Y-117127874D01*
X87177770Y-116960039D01*
X86901433Y-116823764D01*
X86609665Y-116724721D01*
X86307457Y-116664608D01*
X86076941Y-116649500D01*
X85923059Y-116649500D01*
X85692542Y-116664608D01*
X85390334Y-116724721D01*
X85098566Y-116823764D01*
X84822229Y-116960039D01*
X84566035Y-117131222D01*
X84541212Y-117152992D01*
X84484995Y-117177145D01*
X84425319Y-117163641D01*
X84390093Y-117127874D01*
X84293678Y-116960039D01*
X83616946Y-115782010D01*
X90707794Y-115782010D01*
X99000000Y-115800000D01*
X94869476Y-108609746D01*
X94869475Y-108609746D01*
X90707794Y-115782009D01*
X90707794Y-115782010D01*
X83616946Y-115782010D01*
X83529476Y-115629746D01*
X83529475Y-115629746D01*
X79367794Y-122802009D01*
X79367794Y-122802010D01*
X75192993Y-122802010D01*
X74776129Y-122347520D01*
X74775018Y-122346266D01*
X74019807Y-121463571D01*
X74018749Y-121462292D01*
X73294458Y-120554060D01*
X73293430Y-120552723D01*
X73053273Y-120229273D01*
X75427337Y-120229273D01*
X79573440Y-120238268D01*
X77508178Y-116643140D01*
X77508177Y-116643140D01*
X75427337Y-120229272D01*
X75427337Y-120229273D01*
X73053273Y-120229273D01*
X72600913Y-119620024D01*
X72599945Y-119618674D01*
X71940037Y-118662631D01*
X71939109Y-118661235D01*
X71338691Y-117723736D01*
X71312588Y-117682978D01*
X71311720Y-117681571D01*
X70719346Y-116682285D01*
X70718506Y-116680810D01*
X70160983Y-115661684D01*
X70160189Y-115660171D01*
X69823586Y-114991005D01*
X74053897Y-114991005D01*
X78200000Y-115000000D01*
X77086122Y-113061005D01*
X81913897Y-113061005D01*
X86060000Y-113070000D01*
X85256331Y-111671005D01*
X86883897Y-111671005D01*
X91030000Y-111680000D01*
X88964738Y-108084872D01*
X88964737Y-108084872D01*
X86883897Y-111671004D01*
X86883897Y-111671005D01*
X85256331Y-111671005D01*
X83994738Y-109474872D01*
X83994737Y-109474872D01*
X81913897Y-113061004D01*
X81913897Y-113061005D01*
X77086122Y-113061005D01*
X76134738Y-111404872D01*
X76134737Y-111404872D01*
X74053897Y-114991004D01*
X74053897Y-114991005D01*
X69823586Y-114991005D01*
X69823585Y-114991004D01*
X69638178Y-114622417D01*
X69637465Y-114620938D01*
X69362788Y-114024442D01*
X69151567Y-113565745D01*
X69150879Y-113564181D01*
X68701711Y-112492895D01*
X68701077Y-112491308D01*
X68389977Y-111671004D01*
X68289140Y-111405119D01*
X68288580Y-111403560D01*
X68056266Y-110720800D01*
X68055422Y-110659621D01*
X68090699Y-110609629D01*
X68148623Y-110589920D01*
X68150121Y-110589911D01*
X72800000Y-110600000D01*
X70715735Y-106971794D01*
X73645599Y-106971794D01*
X73649289Y-107011615D01*
X73649500Y-107016184D01*
X73649500Y-107027845D01*
X73651641Y-107039305D01*
X73652272Y-107043831D01*
X73655964Y-107083656D01*
X73655965Y-107083661D01*
X73656167Y-107084066D01*
X73664855Y-107109987D01*
X73664937Y-107110428D01*
X73664940Y-107110436D01*
X73685990Y-107144433D01*
X73688213Y-107148424D01*
X73706042Y-107184228D01*
X73706369Y-107184526D01*
X73723842Y-107205567D01*
X73724079Y-107205950D01*
X73724081Y-107205952D01*
X73755995Y-107230052D01*
X73759509Y-107232970D01*
X73789067Y-107259916D01*
X73789483Y-107260077D01*
X73813377Y-107273385D01*
X73813736Y-107273656D01*
X73852200Y-107284599D01*
X73856518Y-107286046D01*
X73893827Y-107300500D01*
X73894273Y-107300500D01*
X73921364Y-107304279D01*
X73921793Y-107304401D01*
X73961614Y-107300711D01*
X73966184Y-107300500D01*
X87894273Y-107300500D01*
X87921364Y-107304279D01*
X87921793Y-107304401D01*
X87961614Y-107300711D01*
X87966184Y-107300500D01*
X87977844Y-107300500D01*
X87989315Y-107298355D01*
X87993819Y-107297726D01*
X88033660Y-107294035D01*
X88034054Y-107293838D01*
X88060000Y-107285141D01*
X88060433Y-107285061D01*
X88094434Y-107264008D01*
X88098410Y-107261792D01*
X88134228Y-107243958D01*
X88134519Y-107243638D01*
X88155576Y-107226151D01*
X88155952Y-107225919D01*
X88180049Y-107194007D01*
X88182973Y-107190487D01*
X88196455Y-107175698D01*
X88209916Y-107160933D01*
X88210076Y-107160521D01*
X88223395Y-107136609D01*
X88223656Y-107136264D01*
X88234605Y-107097778D01*
X88236043Y-107093487D01*
X88250500Y-107056173D01*
X88250500Y-107055726D01*
X88254279Y-107028635D01*
X88254401Y-107028207D01*
X88250711Y-106988384D01*
X88250500Y-106983815D01*
X88250500Y-106971794D01*
X92695599Y-106971794D01*
X92699289Y-107011615D01*
X92699500Y-107016184D01*
X92699500Y-107027845D01*
X92701641Y-107039305D01*
X92702272Y-107043831D01*
X92705964Y-107083656D01*
X92705965Y-107083661D01*
X92706167Y-107084066D01*
X92714855Y-107109987D01*
X92714937Y-107110428D01*
X92714940Y-107110436D01*
X92735990Y-107144433D01*
X92738213Y-107148424D01*
X92756042Y-107184228D01*
X92756369Y-107184526D01*
X92773842Y-107205567D01*
X92774079Y-107205950D01*
X92774081Y-107205952D01*
X92805995Y-107230052D01*
X92809509Y-107232970D01*
X92839067Y-107259916D01*
X92839483Y-107260077D01*
X92863377Y-107273385D01*
X92863736Y-107273656D01*
X92902200Y-107284599D01*
X92906518Y-107286046D01*
X92943827Y-107300500D01*
X92944273Y-107300500D01*
X92971364Y-107304279D01*
X92971793Y-107304401D01*
X93011614Y-107300711D01*
X93016184Y-107300500D01*
X106614129Y-107300500D01*
X106672320Y-107319407D01*
X106708284Y-107368907D01*
X106708284Y-107430093D01*
X106699758Y-107449186D01*
X102851877Y-114080643D01*
X102851877Y-114080644D01*
X111144083Y-114098634D01*
X107233767Y-107291710D01*
X107221177Y-107231836D01*
X107246185Y-107175995D01*
X107246269Y-107175901D01*
X107259916Y-107160933D01*
X107260076Y-107160521D01*
X107273395Y-107136609D01*
X107273656Y-107136264D01*
X107284605Y-107097778D01*
X107286043Y-107093487D01*
X107300500Y-107056173D01*
X107300500Y-107055726D01*
X107304279Y-107028635D01*
X107304401Y-107028207D01*
X107300711Y-106988384D01*
X107300500Y-106983815D01*
X107300500Y-106971794D01*
X111745599Y-106971794D01*
X111749289Y-107011615D01*
X111749500Y-107016184D01*
X111749500Y-107027845D01*
X111751641Y-107039305D01*
X111752272Y-107043831D01*
X111755964Y-107083656D01*
X111755965Y-107083661D01*
X111756167Y-107084066D01*
X111764855Y-107109987D01*
X111764937Y-107110428D01*
X111764940Y-107110436D01*
X111785990Y-107144433D01*
X111788213Y-107148424D01*
X111806042Y-107184228D01*
X111806369Y-107184526D01*
X111823842Y-107205567D01*
X111824079Y-107205950D01*
X111824081Y-107205952D01*
X111855995Y-107230052D01*
X111859509Y-107232970D01*
X111889067Y-107259916D01*
X111889483Y-107260077D01*
X111913377Y-107273385D01*
X111913736Y-107273656D01*
X111952200Y-107284599D01*
X111956518Y-107286046D01*
X111993827Y-107300500D01*
X111994273Y-107300500D01*
X112021364Y-107304279D01*
X112021793Y-107304401D01*
X112061614Y-107300711D01*
X112066184Y-107300500D01*
X125994273Y-107300500D01*
X126021364Y-107304279D01*
X126021793Y-107304401D01*
X126061614Y-107300711D01*
X126066184Y-107300500D01*
X126077844Y-107300500D01*
X126089315Y-107298355D01*
X126093819Y-107297726D01*
X126133660Y-107294035D01*
X126134054Y-107293838D01*
X126160000Y-107285141D01*
X126160433Y-107285061D01*
X126194434Y-107264008D01*
X126198410Y-107261792D01*
X126234228Y-107243958D01*
X126234519Y-107243638D01*
X126255576Y-107226151D01*
X126255952Y-107225919D01*
X126280049Y-107194007D01*
X126282973Y-107190487D01*
X126296455Y-107175698D01*
X126309916Y-107160933D01*
X126310076Y-107160521D01*
X126323395Y-107136609D01*
X126323656Y-107136264D01*
X126334605Y-107097778D01*
X126336043Y-107093487D01*
X126350500Y-107056173D01*
X126350500Y-107055726D01*
X126354279Y-107028635D01*
X126354401Y-107028207D01*
X126350711Y-106988384D01*
X126350500Y-106983815D01*
X126350500Y-105431005D01*
X128483897Y-105431005D01*
X132630000Y-105440000D01*
X130564738Y-101844872D01*
X130564737Y-101844872D01*
X128483897Y-105431004D01*
X128483897Y-105431005D01*
X126350500Y-105431005D01*
X126350500Y-100120192D01*
X126350500Y-99086133D01*
X127659159Y-99086133D01*
X128827978Y-99088668D01*
X128886126Y-99107702D01*
X128921983Y-99157280D01*
X128921850Y-99218465D01*
X128914830Y-99234787D01*
X128817119Y-99415340D01*
X128739065Y-99642706D01*
X128699500Y-99879807D01*
X128699500Y-100120192D01*
X128739065Y-100357293D01*
X128817119Y-100584659D01*
X128931527Y-100796067D01*
X128931528Y-100796067D01*
X129079175Y-100985764D01*
X129256031Y-101148571D01*
X129256033Y-101148572D01*
X129256035Y-101148574D01*
X129457267Y-101280046D01*
X129457272Y-101280049D01*
X129677409Y-101376610D01*
X129910437Y-101435620D01*
X130090010Y-101450500D01*
X130209982Y-101450500D01*
X130209990Y-101450500D01*
X130389563Y-101435620D01*
X130622591Y-101376610D01*
X130842728Y-101280049D01*
X131043969Y-101148571D01*
X131220825Y-100985764D01*
X131368472Y-100796067D01*
X131482882Y-100584656D01*
X131560934Y-100357297D01*
X131600500Y-100120192D01*
X131600500Y-99879808D01*
X131560934Y-99642703D01*
X131482882Y-99415344D01*
X131388276Y-99240528D01*
X131377210Y-99180355D01*
X131403627Y-99125166D01*
X131457437Y-99096045D01*
X131475557Y-99094412D01*
X131805262Y-99095128D01*
X129740000Y-95500000D01*
X129739999Y-95500000D01*
X127659159Y-99086132D01*
X127659159Y-99086133D01*
X126350500Y-99086133D01*
X126350500Y-93055718D01*
X126354281Y-93028629D01*
X126354401Y-93028207D01*
X126350711Y-92988384D01*
X126350500Y-92983815D01*
X126350500Y-92972157D01*
X126350432Y-92971793D01*
X126348354Y-92960678D01*
X126347727Y-92956185D01*
X126344035Y-92916340D01*
X126343837Y-92915943D01*
X126335140Y-92889992D01*
X126335060Y-92889564D01*
X126318843Y-92863374D01*
X126314006Y-92855562D01*
X126311785Y-92851575D01*
X126293958Y-92815771D01*
X126293956Y-92815769D01*
X126293628Y-92815470D01*
X126276154Y-92794427D01*
X126275919Y-92794048D01*
X126243994Y-92769940D01*
X126240489Y-92767028D01*
X126210932Y-92740083D01*
X126210930Y-92740082D01*
X126210509Y-92739919D01*
X126186622Y-92726614D01*
X126186266Y-92726345D01*
X126186261Y-92726343D01*
X126147800Y-92715399D01*
X126143464Y-92713946D01*
X126106175Y-92699500D01*
X126106173Y-92699500D01*
X126105727Y-92699500D01*
X126078636Y-92695721D01*
X126078207Y-92695599D01*
X126038385Y-92699289D01*
X126033816Y-92699500D01*
X112105727Y-92699500D01*
X112078636Y-92695721D01*
X112078207Y-92695599D01*
X112038385Y-92699289D01*
X112033816Y-92699500D01*
X112022156Y-92699500D01*
X112010696Y-92701641D01*
X112006170Y-92702272D01*
X111966344Y-92705964D01*
X111966334Y-92705966D01*
X111965929Y-92706169D01*
X111940012Y-92714855D01*
X111939570Y-92714937D01*
X111939568Y-92714938D01*
X111905573Y-92735986D01*
X111901580Y-92738211D01*
X111865769Y-92756043D01*
X111865465Y-92756378D01*
X111844435Y-92773840D01*
X111844053Y-92774076D01*
X111844047Y-92774081D01*
X111819944Y-92805998D01*
X111817023Y-92809516D01*
X111790085Y-92839064D01*
X111790081Y-92839070D01*
X111789918Y-92839493D01*
X111776616Y-92863374D01*
X111776348Y-92863728D01*
X111776344Y-92863736D01*
X111765398Y-92902202D01*
X111763945Y-92906536D01*
X111749500Y-92943825D01*
X111749500Y-92944272D01*
X111745722Y-92971361D01*
X111745599Y-92971790D01*
X111745599Y-92971794D01*
X111749289Y-93011615D01*
X111749500Y-93016184D01*
X111749499Y-106944272D01*
X111745724Y-106971351D01*
X111745600Y-106971786D01*
X111745599Y-106971794D01*
X107300500Y-106971794D01*
X107300500Y-93055726D01*
X107304279Y-93028635D01*
X107304401Y-93028207D01*
X107300711Y-92988384D01*
X107300500Y-92983815D01*
X107300500Y-92972157D01*
X107300432Y-92971793D01*
X107298354Y-92960678D01*
X107297727Y-92956185D01*
X107294035Y-92916340D01*
X107293837Y-92915943D01*
X107285140Y-92889992D01*
X107285060Y-92889564D01*
X107268843Y-92863374D01*
X107264006Y-92855562D01*
X107261785Y-92851575D01*
X107243958Y-92815771D01*
X107243956Y-92815769D01*
X107243628Y-92815470D01*
X107226154Y-92794427D01*
X107225919Y-92794048D01*
X107193994Y-92769940D01*
X107190489Y-92767028D01*
X107160932Y-92740083D01*
X107160930Y-92740082D01*
X107160509Y-92739919D01*
X107136622Y-92726614D01*
X107136266Y-92726345D01*
X107136261Y-92726343D01*
X107097800Y-92715399D01*
X107093464Y-92713946D01*
X107056175Y-92699500D01*
X107056173Y-92699500D01*
X107055727Y-92699500D01*
X107028636Y-92695721D01*
X107028207Y-92695599D01*
X106988385Y-92699289D01*
X106983816Y-92699500D01*
X93055727Y-92699500D01*
X93028636Y-92695721D01*
X93028207Y-92695599D01*
X92988385Y-92699289D01*
X92983816Y-92699500D01*
X92972156Y-92699500D01*
X92960696Y-92701641D01*
X92956170Y-92702272D01*
X92916344Y-92705964D01*
X92916334Y-92705966D01*
X92915929Y-92706169D01*
X92890012Y-92714855D01*
X92889570Y-92714937D01*
X92889568Y-92714938D01*
X92855573Y-92735986D01*
X92851580Y-92738211D01*
X92815769Y-92756043D01*
X92815465Y-92756378D01*
X92794435Y-92773840D01*
X92794053Y-92774076D01*
X92794047Y-92774081D01*
X92769944Y-92805998D01*
X92767023Y-92809516D01*
X92740085Y-92839064D01*
X92740081Y-92839070D01*
X92739918Y-92839493D01*
X92726616Y-92863374D01*
X92726348Y-92863728D01*
X92726344Y-92863736D01*
X92715398Y-92902202D01*
X92713945Y-92906536D01*
X92699500Y-92943825D01*
X92699500Y-92944272D01*
X92695722Y-92971361D01*
X92695599Y-92971790D01*
X92695599Y-92971794D01*
X92699289Y-93011615D01*
X92699500Y-93016184D01*
X92699500Y-106944272D01*
X92695722Y-106971361D01*
X92695599Y-106971790D01*
X92695599Y-106971794D01*
X88250500Y-106971794D01*
X88250500Y-93055726D01*
X88254279Y-93028635D01*
X88254401Y-93028207D01*
X88250711Y-92988384D01*
X88250500Y-92983815D01*
X88250500Y-92972157D01*
X88250432Y-92971793D01*
X88248354Y-92960678D01*
X88247727Y-92956185D01*
X88244035Y-92916340D01*
X88243837Y-92915943D01*
X88235140Y-92889992D01*
X88235060Y-92889564D01*
X88218843Y-92863374D01*
X88214006Y-92855562D01*
X88211785Y-92851575D01*
X88193958Y-92815771D01*
X88193956Y-92815769D01*
X88193628Y-92815470D01*
X88176154Y-92794427D01*
X88175919Y-92794048D01*
X88143994Y-92769940D01*
X88140489Y-92767028D01*
X88110932Y-92740083D01*
X88110930Y-92740082D01*
X88110509Y-92739919D01*
X88086622Y-92726614D01*
X88086266Y-92726345D01*
X88086261Y-92726343D01*
X88047800Y-92715399D01*
X88043464Y-92713946D01*
X88006175Y-92699500D01*
X88006173Y-92699500D01*
X88005727Y-92699500D01*
X87978636Y-92695721D01*
X87978207Y-92695599D01*
X87938385Y-92699289D01*
X87933816Y-92699500D01*
X74005727Y-92699500D01*
X73978636Y-92695721D01*
X73978207Y-92695599D01*
X73938385Y-92699289D01*
X73933816Y-92699500D01*
X73922156Y-92699500D01*
X73910696Y-92701641D01*
X73906170Y-92702272D01*
X73866344Y-92705964D01*
X73866334Y-92705966D01*
X73865929Y-92706169D01*
X73840012Y-92714855D01*
X73839570Y-92714937D01*
X73839568Y-92714938D01*
X73805573Y-92735986D01*
X73801580Y-92738211D01*
X73765769Y-92756043D01*
X73765465Y-92756378D01*
X73744435Y-92773840D01*
X73744053Y-92774076D01*
X73744047Y-92774081D01*
X73719944Y-92805998D01*
X73717023Y-92809516D01*
X73690085Y-92839064D01*
X73690081Y-92839070D01*
X73689918Y-92839493D01*
X73676616Y-92863374D01*
X73676348Y-92863728D01*
X73676344Y-92863736D01*
X73665398Y-92902202D01*
X73663945Y-92906536D01*
X73649500Y-92943825D01*
X73649500Y-92944272D01*
X73645722Y-92971361D01*
X73645599Y-92971790D01*
X73645599Y-92971794D01*
X73649289Y-93011615D01*
X73649500Y-93016184D01*
X73649500Y-106944272D01*
X73645722Y-106971361D01*
X73645599Y-106971790D01*
X73645599Y-106971794D01*
X70715735Y-106971794D01*
X68669476Y-103409746D01*
X68669475Y-103409746D01*
X67055628Y-106191058D01*
X67010070Y-106231900D01*
X66949206Y-106238164D01*
X66896284Y-106207456D01*
X66872778Y-106160057D01*
X66801470Y-105789032D01*
X66801180Y-105787375D01*
X66621431Y-104639669D01*
X66621199Y-104637994D01*
X66484020Y-103508223D01*
X66481180Y-103484832D01*
X66481006Y-103483155D01*
X66380869Y-102325795D01*
X66380753Y-102324121D01*
X66320620Y-101163955D01*
X66320566Y-101162397D01*
X66302575Y-100120192D01*
X68399500Y-100120192D01*
X68439065Y-100357293D01*
X68517119Y-100584659D01*
X68631528Y-100796066D01*
X68631528Y-100796067D01*
X68779175Y-100985764D01*
X68956031Y-101148571D01*
X68956033Y-101148572D01*
X68956035Y-101148574D01*
X69157267Y-101280046D01*
X69157272Y-101280049D01*
X69377409Y-101376610D01*
X69610437Y-101435620D01*
X69790010Y-101450500D01*
X69909982Y-101450500D01*
X69909990Y-101450500D01*
X70089563Y-101435620D01*
X70322591Y-101376610D01*
X70542728Y-101280049D01*
X70743969Y-101148571D01*
X70920825Y-100985764D01*
X71068472Y-100796067D01*
X71182882Y-100584656D01*
X71260934Y-100357297D01*
X71300500Y-100120192D01*
X71300500Y-99879808D01*
X71260934Y-99642703D01*
X71182882Y-99415344D01*
X71068472Y-99203933D01*
X70920825Y-99014236D01*
X70743969Y-98851429D01*
X70743966Y-98851427D01*
X70743964Y-98851425D01*
X70542732Y-98719953D01*
X70542727Y-98719950D01*
X70439157Y-98674520D01*
X70322591Y-98623390D01*
X70322587Y-98623389D01*
X70322585Y-98623388D01*
X70089561Y-98564379D01*
X69909999Y-98549500D01*
X69909990Y-98549500D01*
X69790010Y-98549500D01*
X69790000Y-98549500D01*
X69610438Y-98564379D01*
X69610437Y-98564379D01*
X69377414Y-98623388D01*
X69157272Y-98719950D01*
X69157267Y-98719953D01*
X68956035Y-98851425D01*
X68779172Y-99014239D01*
X68631530Y-99203929D01*
X68631528Y-99203932D01*
X68517119Y-99415340D01*
X68439065Y-99642706D01*
X68399500Y-99879807D01*
X68399500Y-100120192D01*
X66302575Y-100120192D01*
X66300514Y-100000810D01*
X66300514Y-99999189D01*
X66320566Y-98837600D01*
X66320620Y-98836046D01*
X66380753Y-97675874D01*
X66380869Y-97674204D01*
X66481006Y-96516844D01*
X66481179Y-96515173D01*
X66544202Y-95996133D01*
X68239159Y-95996133D01*
X72385262Y-96005128D01*
X70320000Y-92410000D01*
X70319999Y-92410000D01*
X68239159Y-95996132D01*
X68239159Y-95996133D01*
X66544202Y-95996133D01*
X66621203Y-95361971D01*
X66621434Y-95360312D01*
X66801182Y-94212614D01*
X66801470Y-94210967D01*
X67020716Y-93070202D01*
X67021067Y-93068530D01*
X67187119Y-92341005D01*
X108850000Y-92341005D01*
X112996103Y-92350000D01*
X112220580Y-91000000D01*
X116400000Y-91000000D01*
X124692206Y-91017990D01*
X120561682Y-83827736D01*
X120561681Y-83827736D01*
X116400000Y-90999999D01*
X116400000Y-91000000D01*
X112220580Y-91000000D01*
X110930841Y-88754872D01*
X110930840Y-88754872D01*
X108850000Y-92341004D01*
X108850000Y-92341005D01*
X67187119Y-92341005D01*
X67279572Y-91935941D01*
X67279946Y-91934424D01*
X67577391Y-90811432D01*
X67577857Y-90809789D01*
X67686574Y-90450000D01*
X67913881Y-89697750D01*
X67914376Y-89696210D01*
X67958679Y-89566005D01*
X83228897Y-89566005D01*
X85087583Y-89570037D01*
X85145732Y-89589071D01*
X85181589Y-89638649D01*
X85181456Y-89699834D01*
X85172997Y-89718723D01*
X84753897Y-90441004D01*
X84753897Y-90441005D01*
X88900000Y-90450000D01*
X87964929Y-88822264D01*
X98813318Y-88822264D01*
X107105524Y-88840254D01*
X104248083Y-83866133D01*
X108439159Y-83866133D01*
X112585262Y-83875128D01*
X110520000Y-80280000D01*
X110519999Y-80280000D01*
X108439159Y-83866132D01*
X108439159Y-83866133D01*
X104248083Y-83866133D01*
X102975000Y-81650000D01*
X102974999Y-81650000D01*
X98813318Y-88822263D01*
X98813318Y-88822264D01*
X87964929Y-88822264D01*
X86834738Y-86854872D01*
X86834737Y-86854872D01*
X86407061Y-87591930D01*
X86361503Y-87632772D01*
X86300639Y-87639036D01*
X86247717Y-87608328D01*
X86235591Y-87591562D01*
X85309738Y-85979872D01*
X85309737Y-85979872D01*
X83228897Y-89566004D01*
X83228897Y-89566005D01*
X67958679Y-89566005D01*
X68288587Y-88596420D01*
X68289134Y-88594898D01*
X68701094Y-87508647D01*
X68701711Y-87507104D01*
X68740378Y-87414883D01*
X69150879Y-86435818D01*
X69151567Y-86434254D01*
X69330290Y-86046133D01*
X77999159Y-86046133D01*
X82145262Y-86055128D01*
X80080000Y-82460000D01*
X80079999Y-82460000D01*
X77999159Y-86046132D01*
X77999159Y-86046133D01*
X69330290Y-86046133D01*
X69360802Y-85979872D01*
X69637475Y-85379039D01*
X69638167Y-85377605D01*
X70160193Y-84339819D01*
X70160983Y-84338315D01*
X70419295Y-83866133D01*
X70718512Y-83319177D01*
X70719331Y-83317739D01*
X71311736Y-82318402D01*
X71312571Y-82317047D01*
X71697072Y-81716683D01*
X84270232Y-81716683D01*
X88416335Y-81725678D01*
X88285120Y-81497264D01*
X88838318Y-81497264D01*
X92502448Y-81505213D01*
X92560597Y-81524247D01*
X92596454Y-81573825D01*
X92596321Y-81635010D01*
X92587862Y-81653899D01*
X91663318Y-83247263D01*
X91663318Y-83247264D01*
X99955524Y-83265254D01*
X98180985Y-80176207D01*
X114422937Y-80176207D01*
X117085898Y-80181984D01*
X117144047Y-80201018D01*
X117179904Y-80250596D01*
X117179771Y-80311781D01*
X117171312Y-80330670D01*
X116178897Y-82041004D01*
X116178897Y-82041005D01*
X120325000Y-82050000D01*
X119340013Y-80335374D01*
X119327423Y-80275499D01*
X119352431Y-80219658D01*
X119405485Y-80189180D01*
X119426072Y-80187061D01*
X122715143Y-80194197D01*
X118584619Y-73003943D01*
X118584618Y-73003943D01*
X114422937Y-80176206D01*
X114422937Y-80176207D01*
X98180985Y-80176207D01*
X97770203Y-79461133D01*
X105744159Y-79461133D01*
X109890262Y-79470128D01*
X107825000Y-75875000D01*
X107824999Y-75875000D01*
X105744159Y-79461132D01*
X105744159Y-79461133D01*
X97770203Y-79461133D01*
X95825000Y-76075000D01*
X95824999Y-76075000D01*
X94996653Y-77502575D01*
X94951095Y-77543417D01*
X94890231Y-77549681D01*
X94837309Y-77518973D01*
X94825183Y-77502207D01*
X93741706Y-75616133D01*
X100119159Y-75616133D01*
X104265262Y-75625128D01*
X102200000Y-72030000D01*
X102199999Y-72030000D01*
X100119159Y-75616132D01*
X100119159Y-75616133D01*
X93741706Y-75616133D01*
X93000000Y-74325000D01*
X92999999Y-74325000D01*
X88838318Y-81497263D01*
X88838318Y-81497264D01*
X88285120Y-81497264D01*
X86351073Y-78130550D01*
X86351072Y-78130550D01*
X84270232Y-81716682D01*
X84270232Y-81716683D01*
X71697072Y-81716683D01*
X71939110Y-81338762D01*
X71940019Y-81337394D01*
X72599964Y-80381298D01*
X72600913Y-80379975D01*
X72634028Y-80335375D01*
X72964166Y-79890736D01*
X73014034Y-79855289D01*
X73043862Y-79850755D01*
X79785786Y-79865382D01*
X77172191Y-75315739D01*
X77159601Y-75255866D01*
X77184609Y-75200025D01*
X77189855Y-75194648D01*
X77220449Y-75165600D01*
X77221636Y-75164510D01*
X78091214Y-74394131D01*
X78092449Y-74393075D01*
X78988133Y-73653141D01*
X78989331Y-73652187D01*
X79909953Y-72943662D01*
X79911316Y-72942651D01*
X79950318Y-72914723D01*
X80855858Y-72266315D01*
X80857167Y-72265412D01*
X81824485Y-71622085D01*
X81825882Y-71621190D01*
X82814818Y-71011641D01*
X82816265Y-71010785D01*
X83381594Y-70688715D01*
X83825632Y-70435744D01*
X83827076Y-70434954D01*
X84855721Y-69895080D01*
X84857180Y-69894346D01*
X85903887Y-69390279D01*
X85905343Y-69389610D01*
X86968786Y-68921988D01*
X86970262Y-68921369D01*
X88049246Y-68490718D01*
X88050751Y-68490147D01*
X89143924Y-68097006D01*
X89145509Y-68096468D01*
X89324840Y-68038883D01*
X89619450Y-67944281D01*
X89680634Y-67944493D01*
X89730010Y-67980627D01*
X89748716Y-68038883D01*
X89735346Y-68088227D01*
X88040000Y-71009999D01*
X88040000Y-71010000D01*
X92186103Y-71018995D01*
X91601651Y-70001605D01*
X91589061Y-69941730D01*
X91614069Y-69885889D01*
X91667123Y-69855411D01*
X91687710Y-69853292D01*
X94316103Y-69858995D01*
X92797553Y-67215563D01*
X92784963Y-67155688D01*
X92809971Y-67099847D01*
X92863025Y-67069369D01*
X93638800Y-66906338D01*
X93640457Y-66906018D01*
X94784906Y-66706485D01*
X94786515Y-66706233D01*
X95455828Y-66613214D01*
X95937127Y-66546325D01*
X95938823Y-66546119D01*
X96281326Y-66510518D01*
X97094290Y-66426019D01*
X97095906Y-66425879D01*
X98254823Y-66345733D01*
X98256484Y-66345646D01*
X99417499Y-66305548D01*
X99419180Y-66305520D01*
X100580820Y-66305520D01*
X100582500Y-66305548D01*
G37*
G04 #@! TD.AperFunction*
G04 #@! TA.AperFunction,Conductor*
G36*
X91446920Y-67424736D02*
G01*
X91493684Y-67464191D01*
X91508327Y-67523598D01*
X91495216Y-67566113D01*
X90931706Y-68537269D01*
X90886148Y-68578111D01*
X90825284Y-68584375D01*
X90772362Y-68553667D01*
X90760236Y-68536901D01*
X90359130Y-67838671D01*
X90346539Y-67778795D01*
X90371547Y-67722954D01*
X90417975Y-67694110D01*
X91370813Y-67424051D01*
X91372393Y-67423632D01*
X91385895Y-67420304D01*
X91446920Y-67424736D01*
G37*
G04 #@! TD.AperFunction*
M02*
