%TF.GenerationSoftware,KiCad,Pcbnew,(7.0.0-0)*%
%TF.CreationDate,2023-04-23T04:20:55-05:00*%
%TF.ProjectId,RP2040_minimal,52503230-3430-45f6-9d69-6e696d616c2e,REV1*%
%TF.SameCoordinates,Original*%
%TF.FileFunction,Other,Comment*%
%FSLAX46Y46*%
G04 Gerber Fmt 4.6, Leading zero omitted, Abs format (unit mm)*
G04 Created by KiCad (PCBNEW (7.0.0-0)) date 2023-04-23 04:20:55*
%MOMM*%
%LPD*%
G01*
G04 APERTURE LIST*
%ADD10C,0.100000*%
%ADD11C,0.037500*%
%ADD12C,0.120000*%
%ADD13C,0.150000*%
G04 APERTURE END LIST*
D10*
X33000000Y0D02*
G75*
G03*
X33000000Y0I-33000000J0D01*
G01*
D11*
%TO.C,P1*%
X903571Y34004715D02*
X903571Y33704715D01*
X903571Y33704715D02*
X789285Y33704715D01*
X789285Y33704715D02*
X760714Y33719000D01*
X760714Y33719000D02*
X746428Y33733286D01*
X746428Y33733286D02*
X732142Y33761858D01*
X732142Y33761858D02*
X732142Y33804715D01*
X732142Y33804715D02*
X746428Y33833286D01*
X746428Y33833286D02*
X760714Y33847572D01*
X760714Y33847572D02*
X789285Y33861858D01*
X789285Y33861858D02*
X903571Y33861858D01*
X432142Y33976143D02*
X446428Y33990429D01*
X446428Y33990429D02*
X489285Y34004715D01*
X489285Y34004715D02*
X517857Y34004715D01*
X517857Y34004715D02*
X560714Y33990429D01*
X560714Y33990429D02*
X589285Y33961858D01*
X589285Y33961858D02*
X603571Y33933286D01*
X603571Y33933286D02*
X617857Y33876143D01*
X617857Y33876143D02*
X617857Y33833286D01*
X617857Y33833286D02*
X603571Y33776143D01*
X603571Y33776143D02*
X589285Y33747572D01*
X589285Y33747572D02*
X560714Y33719000D01*
X560714Y33719000D02*
X517857Y33704715D01*
X517857Y33704715D02*
X489285Y33704715D01*
X489285Y33704715D02*
X446428Y33719000D01*
X446428Y33719000D02*
X432142Y33733286D01*
X203571Y33847572D02*
X160714Y33861858D01*
X160714Y33861858D02*
X146428Y33876143D01*
X146428Y33876143D02*
X132142Y33904715D01*
X132142Y33904715D02*
X132142Y33947572D01*
X132142Y33947572D02*
X146428Y33976143D01*
X146428Y33976143D02*
X160714Y33990429D01*
X160714Y33990429D02*
X189285Y34004715D01*
X189285Y34004715D02*
X303571Y34004715D01*
X303571Y34004715D02*
X303571Y33704715D01*
X303571Y33704715D02*
X203571Y33704715D01*
X203571Y33704715D02*
X175000Y33719000D01*
X175000Y33719000D02*
X160714Y33733286D01*
X160714Y33733286D02*
X146428Y33761858D01*
X146428Y33761858D02*
X146428Y33790429D01*
X146428Y33790429D02*
X160714Y33819000D01*
X160714Y33819000D02*
X175000Y33833286D01*
X175000Y33833286D02*
X203571Y33847572D01*
X203571Y33847572D02*
X303571Y33847572D01*
X-176429Y33847572D02*
X-276429Y33847572D01*
X-319286Y34004715D02*
X-176429Y34004715D01*
X-176429Y34004715D02*
X-176429Y33704715D01*
X-176429Y33704715D02*
X-319286Y33704715D01*
X-447858Y34004715D02*
X-447858Y33704715D01*
X-447858Y33704715D02*
X-519287Y33704715D01*
X-519287Y33704715D02*
X-562144Y33719000D01*
X-562144Y33719000D02*
X-590715Y33747572D01*
X-590715Y33747572D02*
X-605001Y33776143D01*
X-605001Y33776143D02*
X-619287Y33833286D01*
X-619287Y33833286D02*
X-619287Y33876143D01*
X-619287Y33876143D02*
X-605001Y33933286D01*
X-605001Y33933286D02*
X-590715Y33961858D01*
X-590715Y33961858D02*
X-562144Y33990429D01*
X-562144Y33990429D02*
X-519287Y34004715D01*
X-519287Y34004715D02*
X-447858Y34004715D01*
X-905001Y33719000D02*
X-876429Y33704715D01*
X-876429Y33704715D02*
X-833572Y33704715D01*
X-833572Y33704715D02*
X-790715Y33719000D01*
X-790715Y33719000D02*
X-762144Y33747572D01*
X-762144Y33747572D02*
X-747858Y33776143D01*
X-747858Y33776143D02*
X-733572Y33833286D01*
X-733572Y33833286D02*
X-733572Y33876143D01*
X-733572Y33876143D02*
X-747858Y33933286D01*
X-747858Y33933286D02*
X-762144Y33961858D01*
X-762144Y33961858D02*
X-790715Y33990429D01*
X-790715Y33990429D02*
X-833572Y34004715D01*
X-833572Y34004715D02*
X-862144Y34004715D01*
X-862144Y34004715D02*
X-905001Y33990429D01*
X-905001Y33990429D02*
X-919287Y33976143D01*
X-919287Y33976143D02*
X-919287Y33876143D01*
X-919287Y33876143D02*
X-862144Y33876143D01*
X-1047858Y33847572D02*
X-1147858Y33847572D01*
X-1190715Y34004715D02*
X-1047858Y34004715D01*
X-1047858Y34004715D02*
X-1047858Y33704715D01*
X-1047858Y33704715D02*
X-1190715Y33704715D01*
D12*
X4500000Y34220000D02*
X-4500000Y34220000D01*
D13*
%TO.C,H3*%
X3750000Y-25000000D02*
G75*
G03*
X3750000Y-25000000I-3750000J0D01*
G01*
%TO.C,H2*%
X-18000000Y12000000D02*
G75*
G03*
X-18000000Y12000000I-5500000J0D01*
G01*
%TO.C,H1*%
X29020000Y12040000D02*
G75*
G03*
X29020000Y12040000I-5500000J0D01*
G01*
%TD*%
M02*
