%TF.GenerationSoftware,KiCad,Pcbnew,(7.0.0-0)*%
%TF.CreationDate,2023-04-23T02:26:44-05:00*%
%TF.ProjectId,RP2040_minimal,52503230-3430-45f6-9d69-6e696d616c2e,REV1*%
%TF.SameCoordinates,Original*%
%TF.FileFunction,Paste,Bot*%
%TF.FilePolarity,Positive*%
%FSLAX46Y46*%
G04 Gerber Fmt 4.6, Leading zero omitted, Abs format (unit mm)*
G04 Created by KiCad (PCBNEW (7.0.0-0)) date 2023-04-23 02:26:44*
%MOMM*%
%LPD*%
G01*
G04 APERTURE LIST*
G04 Aperture macros list*
%AMRoundRect*
0 Rectangle with rounded corners*
0 $1 Rounding radius*
0 $2 $3 $4 $5 $6 $7 $8 $9 X,Y pos of 4 corners*
0 Add a 4 corners polygon primitive as box body*
4,1,4,$2,$3,$4,$5,$6,$7,$8,$9,$2,$3,0*
0 Add four circle primitives for the rounded corners*
1,1,$1+$1,$2,$3*
1,1,$1+$1,$4,$5*
1,1,$1+$1,$6,$7*
1,1,$1+$1,$8,$9*
0 Add four rect primitives between the rounded corners*
20,1,$1+$1,$2,$3,$4,$5,0*
20,1,$1+$1,$4,$5,$6,$7,0*
20,1,$1+$1,$6,$7,$8,$9,0*
20,1,$1+$1,$8,$9,$2,$3,0*%
G04 Aperture macros list end*
%ADD10RoundRect,0.300000X0.500000X0.300000X-0.500000X0.300000X-0.500000X-0.300000X0.500000X-0.300000X0*%
%ADD11R,1.500000X0.900000*%
%ADD12RoundRect,0.140000X-0.170000X0.140000X-0.170000X-0.140000X0.170000X-0.140000X0.170000X0.140000X0*%
%ADD13RoundRect,0.140000X0.140000X0.170000X-0.140000X0.170000X-0.140000X-0.170000X0.140000X-0.170000X0*%
%ADD14R,1.000000X0.750000*%
%ADD15RoundRect,0.135000X0.135000X0.185000X-0.135000X0.185000X-0.135000X-0.185000X0.135000X-0.185000X0*%
%ADD16RoundRect,0.140000X0.170000X-0.140000X0.170000X0.140000X-0.170000X0.140000X-0.170000X-0.140000X0*%
%ADD17RoundRect,0.140000X-0.140000X-0.170000X0.140000X-0.170000X0.140000X0.170000X-0.140000X0.170000X0*%
G04 APERTURE END LIST*
D10*
%TO.C,SW4*%
X14650000Y-17400000D03*
X9375000Y-17400000D03*
X14625000Y-20600000D03*
X9375000Y-20600000D03*
%TD*%
D11*
%TO.C,D10*%
X-14819999Y22319999D03*
X-14819999Y19019999D03*
X-19719999Y19019999D03*
X-19719999Y22319999D03*
%TD*%
D12*
%TO.C,C29*%
X-18000000Y-14470000D03*
X-18000000Y-15430000D03*
%TD*%
D13*
%TO.C,C30*%
X-15400000Y23910000D03*
X-16360000Y23910000D03*
%TD*%
D10*
%TO.C,SW3*%
X-9350000Y-17400000D03*
X-14625000Y-17400000D03*
X-9375000Y-20600000D03*
X-14625000Y-20600000D03*
%TD*%
D14*
%TO.C,SW2*%
X-11339999Y10984999D03*
X-5339999Y10984999D03*
X-11339999Y14734999D03*
X-5339999Y14734999D03*
%TD*%
D12*
%TO.C,C23*%
X23520000Y-5350000D03*
X23520000Y-6310000D03*
%TD*%
D11*
%TO.C,D1*%
X-17049999Y-5349999D03*
X-17049999Y-8649999D03*
X-21949999Y-8649999D03*
X-21949999Y-5349999D03*
%TD*%
D12*
%TO.C,C21*%
X-15450000Y-5320000D03*
X-15450000Y-6280000D03*
%TD*%
%TO.C,C25*%
X18560000Y22750000D03*
X18560000Y21790000D03*
%TD*%
D14*
%TO.C,SW1*%
X-11849999Y17104999D03*
X-5849999Y17104999D03*
X-11849999Y20854999D03*
X-5849999Y20854999D03*
%TD*%
D12*
%TO.C,C22*%
X4030000Y-5290000D03*
X4030000Y-6250000D03*
%TD*%
D13*
%TO.C,C28*%
X-5010000Y-23170000D03*
X-5970000Y-23170000D03*
%TD*%
D11*
%TO.C,D3*%
X21949999Y-5349999D03*
X21949999Y-8649999D03*
X17049999Y-8649999D03*
X17049999Y-5349999D03*
%TD*%
D15*
%TO.C,R4*%
X-9965000Y22375000D03*
X-10985000Y22375000D03*
%TD*%
D11*
%TO.C,D2*%
X2449999Y-5349999D03*
X2449999Y-8649999D03*
X-2449999Y-8649999D03*
X-2449999Y-5349999D03*
%TD*%
D12*
%TO.C,C26*%
X26045000Y-14745000D03*
X26045000Y-15705000D03*
%TD*%
D10*
%TO.C,SW5*%
X2650000Y-17400000D03*
X-2625000Y-17400000D03*
X2625000Y-20600000D03*
X-2625000Y-20600000D03*
%TD*%
D11*
%TO.C,D4*%
X2879999Y17259999D03*
X2879999Y13959999D03*
X-2019999Y13959999D03*
X-2019999Y17259999D03*
%TD*%
D16*
%TO.C,C24*%
X3360000Y18920000D03*
X3360000Y19880000D03*
%TD*%
D12*
%TO.C,C11*%
X-12290000Y14030000D03*
X-12290000Y13070000D03*
%TD*%
D11*
%TO.C,D8*%
X-5049999Y-24849999D03*
X-5049999Y-28149999D03*
X-9949999Y-28149999D03*
X-9949999Y-24849999D03*
%TD*%
%TO.C,D9*%
X-19579999Y-14449999D03*
X-19579999Y-17749999D03*
X-24479999Y-17749999D03*
X-24479999Y-14449999D03*
%TD*%
%TO.C,D6*%
X24474999Y-14854999D03*
X24474999Y-18154999D03*
X19574999Y-18154999D03*
X19574999Y-14854999D03*
%TD*%
%TO.C,D7*%
X9949999Y-24849999D03*
X9949999Y-28149999D03*
X5049999Y-28149999D03*
X5049999Y-24849999D03*
%TD*%
%TO.C,D5*%
X17059999Y22629999D03*
X17059999Y19329999D03*
X12159999Y19329999D03*
X12159999Y22629999D03*
%TD*%
D17*
%TO.C,C27*%
X9890000Y-23200000D03*
X10850000Y-23200000D03*
%TD*%
M02*
