%TF.GenerationSoftware,KiCad,Pcbnew,(7.0.0-0)*%
%TF.CreationDate,2023-04-23T02:26:44-05:00*%
%TF.ProjectId,RP2040_minimal,52503230-3430-45f6-9d69-6e696d616c2e,REV1*%
%TF.SameCoordinates,Original*%
%TF.FileFunction,Legend,Top*%
%TF.FilePolarity,Positive*%
%FSLAX46Y46*%
G04 Gerber Fmt 4.6, Leading zero omitted, Abs format (unit mm)*
G04 Created by KiCad (PCBNEW (7.0.0-0)) date 2023-04-23 02:26:44*
%MOMM*%
%LPD*%
G01*
G04 APERTURE LIST*
G04 Aperture macros list*
%AMRoundRect*
0 Rectangle with rounded corners*
0 $1 Rounding radius*
0 $2 $3 $4 $5 $6 $7 $8 $9 X,Y pos of 4 corners*
0 Add a 4 corners polygon primitive as box body*
4,1,4,$2,$3,$4,$5,$6,$7,$8,$9,$2,$3,0*
0 Add four circle primitives for the rounded corners*
1,1,$1+$1,$2,$3*
1,1,$1+$1,$4,$5*
1,1,$1+$1,$6,$7*
1,1,$1+$1,$8,$9*
0 Add four rect primitives between the rounded corners*
20,1,$1+$1,$2,$3,$4,$5,0*
20,1,$1+$1,$4,$5,$6,$7,0*
20,1,$1+$1,$6,$7,$8,$9,0*
20,1,$1+$1,$8,$9,$2,$3,0*%
G04 Aperture macros list end*
%ADD10C,0.150000*%
%ADD11C,0.120000*%
%ADD12C,4.402000*%
%ADD13RoundRect,0.301000X0.475000X-0.250000X0.475000X0.250000X-0.475000X0.250000X-0.475000X-0.250000X0*%
%ADD14RoundRect,0.276000X0.225000X0.250000X-0.225000X0.250000X-0.225000X-0.250000X0.225000X-0.250000X0*%
%ADD15RoundRect,0.191000X0.140000X0.170000X-0.140000X0.170000X-0.140000X-0.170000X0.140000X-0.170000X0*%
%ADD16RoundRect,0.186000X-0.185000X0.135000X-0.185000X-0.135000X0.185000X-0.135000X0.185000X0.135000X0*%
%ADD17RoundRect,0.051000X0.300000X0.575000X-0.300000X0.575000X-0.300000X-0.575000X0.300000X-0.575000X0*%
%ADD18RoundRect,0.051000X0.150000X0.575000X-0.150000X0.575000X-0.150000X-0.575000X0.150000X-0.575000X0*%
%ADD19O,1.102000X1.902000*%
%ADD20O,1.102000X2.302000*%
%ADD21RoundRect,0.201000X0.587500X0.150000X-0.587500X0.150000X-0.587500X-0.150000X0.587500X-0.150000X0*%
%ADD22RoundRect,0.201000X0.150000X-0.587500X0.150000X0.587500X-0.150000X0.587500X-0.150000X-0.587500X0*%
%ADD23RoundRect,0.051000X-0.600000X0.700000X-0.600000X-0.700000X0.600000X-0.700000X0.600000X0.700000X0*%
%ADD24RoundRect,0.050000X0.500000X0.350000X-0.500000X0.350000X-0.500000X-0.350000X0.500000X-0.350000X0*%
%ADD25RoundRect,0.050000X0.300000X0.350000X-0.300000X0.350000X-0.300000X-0.350000X0.300000X-0.350000X0*%
%ADD26RoundRect,0.301000X-0.325000X-0.650000X0.325000X-0.650000X0.325000X0.650000X-0.325000X0.650000X0*%
%ADD27RoundRect,0.191000X-0.170000X0.140000X-0.170000X-0.140000X0.170000X-0.140000X0.170000X0.140000X0*%
%ADD28RoundRect,0.301000X0.325000X0.650000X-0.325000X0.650000X-0.325000X-0.650000X0.325000X-0.650000X0*%
%ADD29RoundRect,0.191000X0.170000X-0.140000X0.170000X0.140000X-0.170000X0.140000X-0.170000X-0.140000X0*%
%ADD30RoundRect,0.301000X-0.650000X0.325000X-0.650000X-0.325000X0.650000X-0.325000X0.650000X0.325000X0*%
%ADD31RoundRect,0.191000X-0.140000X-0.170000X0.140000X-0.170000X0.140000X0.170000X-0.140000X0.170000X0*%
%ADD32RoundRect,0.186000X0.135000X0.185000X-0.135000X0.185000X-0.135000X-0.185000X0.135000X-0.185000X0*%
%ADD33RoundRect,0.186000X0.185000X-0.135000X0.185000X0.135000X-0.185000X0.135000X-0.185000X-0.135000X0*%
%ADD34RoundRect,0.301000X0.650000X-0.325000X0.650000X0.325000X-0.650000X0.325000X-0.650000X-0.325000X0*%
%ADD35RoundRect,0.126000X-0.700000X-0.075000X0.700000X-0.075000X0.700000X0.075000X-0.700000X0.075000X0*%
%ADD36RoundRect,0.126000X-0.075000X-0.700000X0.075000X-0.700000X0.075000X0.700000X-0.075000X0.700000X0*%
%ADD37RoundRect,0.051000X0.850000X-0.850000X0.850000X0.850000X-0.850000X0.850000X-0.850000X-0.850000X0*%
%ADD38O,1.802000X1.802000*%
%ADD39RoundRect,0.301000X-0.375000X-0.625000X0.375000X-0.625000X0.375000X0.625000X-0.375000X0.625000X0*%
%ADD40RoundRect,0.301000X-0.475000X0.250000X-0.475000X-0.250000X0.475000X-0.250000X0.475000X0.250000X0*%
%ADD41RoundRect,0.201000X0.150000X-0.512500X0.150000X0.512500X-0.150000X0.512500X-0.150000X-0.512500X0*%
%ADD42C,1.802000*%
%ADD43C,6.502000*%
G04 APERTURE END LIST*
D10*
%TO.C,FB1*%
X-18466429Y8576667D02*
X-18466429Y8243334D01*
X-17942620Y8243334D02*
X-18942620Y8243334D01*
X-18942620Y8243334D02*
X-18942620Y8719524D01*
X-18466429Y9433810D02*
X-18418810Y9576667D01*
X-18418810Y9576667D02*
X-18371191Y9624286D01*
X-18371191Y9624286D02*
X-18275953Y9671905D01*
X-18275953Y9671905D02*
X-18133096Y9671905D01*
X-18133096Y9671905D02*
X-18037858Y9624286D01*
X-18037858Y9624286D02*
X-17990239Y9576667D01*
X-17990239Y9576667D02*
X-17942620Y9481429D01*
X-17942620Y9481429D02*
X-17942620Y9100477D01*
X-17942620Y9100477D02*
X-18942620Y9100477D01*
X-18942620Y9100477D02*
X-18942620Y9433810D01*
X-18942620Y9433810D02*
X-18895000Y9529048D01*
X-18895000Y9529048D02*
X-18847381Y9576667D01*
X-18847381Y9576667D02*
X-18752143Y9624286D01*
X-18752143Y9624286D02*
X-18656905Y9624286D01*
X-18656905Y9624286D02*
X-18561667Y9576667D01*
X-18561667Y9576667D02*
X-18514048Y9529048D01*
X-18514048Y9529048D02*
X-18466429Y9433810D01*
X-18466429Y9433810D02*
X-18466429Y9100477D01*
X-17942620Y10624286D02*
X-17942620Y10052858D01*
X-17942620Y10338572D02*
X-18942620Y10338572D01*
X-18942620Y10338572D02*
X-18799762Y10243334D01*
X-18799762Y10243334D02*
X-18704524Y10148096D01*
X-18704524Y10148096D02*
X-18656905Y10052858D01*
%TO.C,C1*%
X-14516667Y18697858D02*
X-14564286Y18650239D01*
X-14564286Y18650239D02*
X-14707143Y18602620D01*
X-14707143Y18602620D02*
X-14802381Y18602620D01*
X-14802381Y18602620D02*
X-14945238Y18650239D01*
X-14945238Y18650239D02*
X-15040476Y18745477D01*
X-15040476Y18745477D02*
X-15088095Y18840715D01*
X-15088095Y18840715D02*
X-15135714Y19031191D01*
X-15135714Y19031191D02*
X-15135714Y19174048D01*
X-15135714Y19174048D02*
X-15088095Y19364524D01*
X-15088095Y19364524D02*
X-15040476Y19459762D01*
X-15040476Y19459762D02*
X-14945238Y19555000D01*
X-14945238Y19555000D02*
X-14802381Y19602620D01*
X-14802381Y19602620D02*
X-14707143Y19602620D01*
X-14707143Y19602620D02*
X-14564286Y19555000D01*
X-14564286Y19555000D02*
X-14516667Y19507381D01*
X-13564286Y18602620D02*
X-14135714Y18602620D01*
X-13850000Y18602620D02*
X-13850000Y19602620D01*
X-13850000Y19602620D02*
X-13945238Y19459762D01*
X-13945238Y19459762D02*
X-14040476Y19364524D01*
X-14040476Y19364524D02*
X-14135714Y19316905D01*
%TO.C,C12*%
X-17692858Y5742858D02*
X-17740477Y5695239D01*
X-17740477Y5695239D02*
X-17883334Y5647620D01*
X-17883334Y5647620D02*
X-17978572Y5647620D01*
X-17978572Y5647620D02*
X-18121429Y5695239D01*
X-18121429Y5695239D02*
X-18216667Y5790477D01*
X-18216667Y5790477D02*
X-18264286Y5885715D01*
X-18264286Y5885715D02*
X-18311905Y6076191D01*
X-18311905Y6076191D02*
X-18311905Y6219048D01*
X-18311905Y6219048D02*
X-18264286Y6409524D01*
X-18264286Y6409524D02*
X-18216667Y6504762D01*
X-18216667Y6504762D02*
X-18121429Y6600000D01*
X-18121429Y6600000D02*
X-17978572Y6647620D01*
X-17978572Y6647620D02*
X-17883334Y6647620D01*
X-17883334Y6647620D02*
X-17740477Y6600000D01*
X-17740477Y6600000D02*
X-17692858Y6552381D01*
X-16740477Y5647620D02*
X-17311905Y5647620D01*
X-17026191Y5647620D02*
X-17026191Y6647620D01*
X-17026191Y6647620D02*
X-17121429Y6504762D01*
X-17121429Y6504762D02*
X-17216667Y6409524D01*
X-17216667Y6409524D02*
X-17311905Y6361905D01*
X-16359524Y6552381D02*
X-16311905Y6600000D01*
X-16311905Y6600000D02*
X-16216667Y6647620D01*
X-16216667Y6647620D02*
X-15978572Y6647620D01*
X-15978572Y6647620D02*
X-15883334Y6600000D01*
X-15883334Y6600000D02*
X-15835715Y6552381D01*
X-15835715Y6552381D02*
X-15788096Y6457143D01*
X-15788096Y6457143D02*
X-15788096Y6361905D01*
X-15788096Y6361905D02*
X-15835715Y6219048D01*
X-15835715Y6219048D02*
X-16407143Y5647620D01*
X-16407143Y5647620D02*
X-15788096Y5647620D01*
%TO.C,R6*%
X13414880Y16718334D02*
X12938690Y16385001D01*
X13414880Y16146906D02*
X12414880Y16146906D01*
X12414880Y16146906D02*
X12414880Y16527858D01*
X12414880Y16527858D02*
X12462500Y16623096D01*
X12462500Y16623096D02*
X12510119Y16670715D01*
X12510119Y16670715D02*
X12605357Y16718334D01*
X12605357Y16718334D02*
X12748214Y16718334D01*
X12748214Y16718334D02*
X12843452Y16670715D01*
X12843452Y16670715D02*
X12891071Y16623096D01*
X12891071Y16623096D02*
X12938690Y16527858D01*
X12938690Y16527858D02*
X12938690Y16146906D01*
X12414880Y17575477D02*
X12414880Y17385001D01*
X12414880Y17385001D02*
X12462500Y17289763D01*
X12462500Y17289763D02*
X12510119Y17242144D01*
X12510119Y17242144D02*
X12652976Y17146906D01*
X12652976Y17146906D02*
X12843452Y17099287D01*
X12843452Y17099287D02*
X13224404Y17099287D01*
X13224404Y17099287D02*
X13319642Y17146906D01*
X13319642Y17146906D02*
X13367261Y17194525D01*
X13367261Y17194525D02*
X13414880Y17289763D01*
X13414880Y17289763D02*
X13414880Y17480239D01*
X13414880Y17480239D02*
X13367261Y17575477D01*
X13367261Y17575477D02*
X13319642Y17623096D01*
X13319642Y17623096D02*
X13224404Y17670715D01*
X13224404Y17670715D02*
X12986309Y17670715D01*
X12986309Y17670715D02*
X12891071Y17623096D01*
X12891071Y17623096D02*
X12843452Y17575477D01*
X12843452Y17575477D02*
X12795833Y17480239D01*
X12795833Y17480239D02*
X12795833Y17289763D01*
X12795833Y17289763D02*
X12843452Y17194525D01*
X12843452Y17194525D02*
X12891071Y17146906D01*
X12891071Y17146906D02*
X12986309Y17099287D01*
%TO.C,P1*%
X388094Y32737381D02*
X388094Y31737381D01*
X388094Y31737381D02*
X7142Y31737381D01*
X7142Y31737381D02*
X-88096Y31785000D01*
X-88096Y31785000D02*
X-135715Y31832620D01*
X-135715Y31832620D02*
X-183334Y31927858D01*
X-183334Y31927858D02*
X-183334Y32070715D01*
X-183334Y32070715D02*
X-135715Y32165953D01*
X-135715Y32165953D02*
X-88096Y32213572D01*
X-88096Y32213572D02*
X7142Y32261191D01*
X7142Y32261191D02*
X388094Y32261191D01*
X-1135715Y32737381D02*
X-564287Y32737381D01*
X-850001Y32737381D02*
X-850001Y31737381D01*
X-850001Y31737381D02*
X-754763Y31880239D01*
X-754763Y31880239D02*
X-659525Y31975477D01*
X-659525Y31975477D02*
X-564287Y32023096D01*
%TO.C,C5*%
X-12226667Y5607858D02*
X-12274286Y5560239D01*
X-12274286Y5560239D02*
X-12417143Y5512620D01*
X-12417143Y5512620D02*
X-12512381Y5512620D01*
X-12512381Y5512620D02*
X-12655238Y5560239D01*
X-12655238Y5560239D02*
X-12750476Y5655477D01*
X-12750476Y5655477D02*
X-12798095Y5750715D01*
X-12798095Y5750715D02*
X-12845714Y5941191D01*
X-12845714Y5941191D02*
X-12845714Y6084048D01*
X-12845714Y6084048D02*
X-12798095Y6274524D01*
X-12798095Y6274524D02*
X-12750476Y6369762D01*
X-12750476Y6369762D02*
X-12655238Y6465000D01*
X-12655238Y6465000D02*
X-12512381Y6512620D01*
X-12512381Y6512620D02*
X-12417143Y6512620D01*
X-12417143Y6512620D02*
X-12274286Y6465000D01*
X-12274286Y6465000D02*
X-12226667Y6417381D01*
X-11321905Y6512620D02*
X-11798095Y6512620D01*
X-11798095Y6512620D02*
X-11845714Y6036429D01*
X-11845714Y6036429D02*
X-11798095Y6084048D01*
X-11798095Y6084048D02*
X-11702857Y6131667D01*
X-11702857Y6131667D02*
X-11464762Y6131667D01*
X-11464762Y6131667D02*
X-11369524Y6084048D01*
X-11369524Y6084048D02*
X-11321905Y6036429D01*
X-11321905Y6036429D02*
X-11274286Y5941191D01*
X-11274286Y5941191D02*
X-11274286Y5703096D01*
X-11274286Y5703096D02*
X-11321905Y5607858D01*
X-11321905Y5607858D02*
X-11369524Y5560239D01*
X-11369524Y5560239D02*
X-11464762Y5512620D01*
X-11464762Y5512620D02*
X-11702857Y5512620D01*
X-11702857Y5512620D02*
X-11798095Y5560239D01*
X-11798095Y5560239D02*
X-11845714Y5607858D01*
%TO.C,U5*%
X18738095Y-1767380D02*
X18738095Y-2576904D01*
X18738095Y-2576904D02*
X18785714Y-2672142D01*
X18785714Y-2672142D02*
X18833333Y-2719761D01*
X18833333Y-2719761D02*
X18928571Y-2767380D01*
X18928571Y-2767380D02*
X19119047Y-2767380D01*
X19119047Y-2767380D02*
X19214285Y-2719761D01*
X19214285Y-2719761D02*
X19261904Y-2672142D01*
X19261904Y-2672142D02*
X19309523Y-2576904D01*
X19309523Y-2576904D02*
X19309523Y-1767380D01*
X20261904Y-1767380D02*
X19785714Y-1767380D01*
X19785714Y-1767380D02*
X19738095Y-2243571D01*
X19738095Y-2243571D02*
X19785714Y-2195952D01*
X19785714Y-2195952D02*
X19880952Y-2148333D01*
X19880952Y-2148333D02*
X20119047Y-2148333D01*
X20119047Y-2148333D02*
X20214285Y-2195952D01*
X20214285Y-2195952D02*
X20261904Y-2243571D01*
X20261904Y-2243571D02*
X20309523Y-2338809D01*
X20309523Y-2338809D02*
X20309523Y-2576904D01*
X20309523Y-2576904D02*
X20261904Y-2672142D01*
X20261904Y-2672142D02*
X20214285Y-2719761D01*
X20214285Y-2719761D02*
X20119047Y-2767380D01*
X20119047Y-2767380D02*
X19880952Y-2767380D01*
X19880952Y-2767380D02*
X19785714Y-2719761D01*
X19785714Y-2719761D02*
X19738095Y-2672142D01*
%TO.C,U1*%
X7242380Y7788096D02*
X8051904Y7788096D01*
X8051904Y7788096D02*
X8147142Y7835715D01*
X8147142Y7835715D02*
X8194761Y7883334D01*
X8194761Y7883334D02*
X8242380Y7978572D01*
X8242380Y7978572D02*
X8242380Y8169048D01*
X8242380Y8169048D02*
X8194761Y8264286D01*
X8194761Y8264286D02*
X8147142Y8311905D01*
X8147142Y8311905D02*
X8051904Y8359524D01*
X8051904Y8359524D02*
X7242380Y8359524D01*
X8242380Y9359524D02*
X8242380Y8788096D01*
X8242380Y9073810D02*
X7242380Y9073810D01*
X7242380Y9073810D02*
X7385238Y8978572D01*
X7385238Y8978572D02*
X7480476Y8883334D01*
X7480476Y8883334D02*
X7528095Y8788096D01*
%TO.C,Y1*%
X-16626903Y15153810D02*
X-16150713Y15153810D01*
X-17150713Y14820477D02*
X-16626903Y15153810D01*
X-16626903Y15153810D02*
X-17150713Y15487143D01*
X-16150713Y16344286D02*
X-16150713Y15772858D01*
X-16150713Y16058572D02*
X-17150713Y16058572D01*
X-17150713Y16058572D02*
X-17007855Y15963334D01*
X-17007855Y15963334D02*
X-16912617Y15868096D01*
X-16912617Y15868096D02*
X-16864998Y15772858D01*
%TO.C,U3*%
X626666Y20922834D02*
X626666Y20356167D01*
X626666Y20356167D02*
X660000Y20289500D01*
X660000Y20289500D02*
X693333Y20256167D01*
X693333Y20256167D02*
X760000Y20222834D01*
X760000Y20222834D02*
X893333Y20222834D01*
X893333Y20222834D02*
X960000Y20256167D01*
X960000Y20256167D02*
X993333Y20289500D01*
X993333Y20289500D02*
X1026666Y20356167D01*
X1026666Y20356167D02*
X1026666Y20922834D01*
X1293333Y20922834D02*
X1726666Y20922834D01*
X1726666Y20922834D02*
X1493333Y20656167D01*
X1493333Y20656167D02*
X1593333Y20656167D01*
X1593333Y20656167D02*
X1659999Y20622834D01*
X1659999Y20622834D02*
X1693333Y20589500D01*
X1693333Y20589500D02*
X1726666Y20522834D01*
X1726666Y20522834D02*
X1726666Y20356167D01*
X1726666Y20356167D02*
X1693333Y20289500D01*
X1693333Y20289500D02*
X1659999Y20256167D01*
X1659999Y20256167D02*
X1593333Y20222834D01*
X1593333Y20222834D02*
X1393333Y20222834D01*
X1393333Y20222834D02*
X1326666Y20256167D01*
X1326666Y20256167D02*
X1293333Y20289500D01*
X211666Y24784500D02*
X445000Y24784500D01*
X545000Y24417834D02*
X211666Y24417834D01*
X211666Y24417834D02*
X211666Y25117834D01*
X211666Y25117834D02*
X545000Y25117834D01*
X811666Y24451167D02*
X911666Y24417834D01*
X911666Y24417834D02*
X1078333Y24417834D01*
X1078333Y24417834D02*
X1144999Y24451167D01*
X1144999Y24451167D02*
X1178333Y24484500D01*
X1178333Y24484500D02*
X1211666Y24551167D01*
X1211666Y24551167D02*
X1211666Y24617834D01*
X1211666Y24617834D02*
X1178333Y24684500D01*
X1178333Y24684500D02*
X1144999Y24717834D01*
X1144999Y24717834D02*
X1078333Y24751167D01*
X1078333Y24751167D02*
X944999Y24784500D01*
X944999Y24784500D02*
X878333Y24817834D01*
X878333Y24817834D02*
X844999Y24851167D01*
X844999Y24851167D02*
X811666Y24917834D01*
X811666Y24917834D02*
X811666Y24984500D01*
X811666Y24984500D02*
X844999Y25051167D01*
X844999Y25051167D02*
X878333Y25084500D01*
X878333Y25084500D02*
X944999Y25117834D01*
X944999Y25117834D02*
X1111666Y25117834D01*
X1111666Y25117834D02*
X1211666Y25084500D01*
X1511666Y24417834D02*
X1511666Y25117834D01*
X1511666Y25117834D02*
X1678333Y25117834D01*
X1678333Y25117834D02*
X1778333Y25084500D01*
X1778333Y25084500D02*
X1845000Y25017834D01*
X1845000Y25017834D02*
X1878333Y24951167D01*
X1878333Y24951167D02*
X1911666Y24817834D01*
X1911666Y24817834D02*
X1911666Y24717834D01*
X1911666Y24717834D02*
X1878333Y24584500D01*
X1878333Y24584500D02*
X1845000Y24517834D01*
X1845000Y24517834D02*
X1778333Y24451167D01*
X1778333Y24451167D02*
X1678333Y24417834D01*
X1678333Y24417834D02*
X1511666Y24417834D01*
%TO.C,C9*%
X5613333Y8735358D02*
X5565714Y8687739D01*
X5565714Y8687739D02*
X5422857Y8640120D01*
X5422857Y8640120D02*
X5327619Y8640120D01*
X5327619Y8640120D02*
X5184762Y8687739D01*
X5184762Y8687739D02*
X5089524Y8782977D01*
X5089524Y8782977D02*
X5041905Y8878215D01*
X5041905Y8878215D02*
X4994286Y9068691D01*
X4994286Y9068691D02*
X4994286Y9211548D01*
X4994286Y9211548D02*
X5041905Y9402024D01*
X5041905Y9402024D02*
X5089524Y9497262D01*
X5089524Y9497262D02*
X5184762Y9592500D01*
X5184762Y9592500D02*
X5327619Y9640120D01*
X5327619Y9640120D02*
X5422857Y9640120D01*
X5422857Y9640120D02*
X5565714Y9592500D01*
X5565714Y9592500D02*
X5613333Y9544881D01*
X6089524Y8640120D02*
X6280000Y8640120D01*
X6280000Y8640120D02*
X6375238Y8687739D01*
X6375238Y8687739D02*
X6422857Y8735358D01*
X6422857Y8735358D02*
X6518095Y8878215D01*
X6518095Y8878215D02*
X6565714Y9068691D01*
X6565714Y9068691D02*
X6565714Y9449643D01*
X6565714Y9449643D02*
X6518095Y9544881D01*
X6518095Y9544881D02*
X6470476Y9592500D01*
X6470476Y9592500D02*
X6375238Y9640120D01*
X6375238Y9640120D02*
X6184762Y9640120D01*
X6184762Y9640120D02*
X6089524Y9592500D01*
X6089524Y9592500D02*
X6041905Y9544881D01*
X6041905Y9544881D02*
X5994286Y9449643D01*
X5994286Y9449643D02*
X5994286Y9211548D01*
X5994286Y9211548D02*
X6041905Y9116310D01*
X6041905Y9116310D02*
X6089524Y9068691D01*
X6089524Y9068691D02*
X6184762Y9021072D01*
X6184762Y9021072D02*
X6375238Y9021072D01*
X6375238Y9021072D02*
X6470476Y9068691D01*
X6470476Y9068691D02*
X6518095Y9116310D01*
X6518095Y9116310D02*
X6565714Y9211548D01*
%TO.C,C2*%
X-23585184Y20003770D02*
X-23537565Y19956151D01*
X-23537565Y19956151D02*
X-23489946Y19813294D01*
X-23489946Y19813294D02*
X-23489946Y19718056D01*
X-23489946Y19718056D02*
X-23537565Y19575199D01*
X-23537565Y19575199D02*
X-23632803Y19479961D01*
X-23632803Y19479961D02*
X-23728041Y19432342D01*
X-23728041Y19432342D02*
X-23918517Y19384723D01*
X-23918517Y19384723D02*
X-24061374Y19384723D01*
X-24061374Y19384723D02*
X-24251850Y19432342D01*
X-24251850Y19432342D02*
X-24347088Y19479961D01*
X-24347088Y19479961D02*
X-24442326Y19575199D01*
X-24442326Y19575199D02*
X-24489946Y19718056D01*
X-24489946Y19718056D02*
X-24489946Y19813294D01*
X-24489946Y19813294D02*
X-24442326Y19956151D01*
X-24442326Y19956151D02*
X-24394707Y20003770D01*
X-24394707Y20384723D02*
X-24442326Y20432342D01*
X-24442326Y20432342D02*
X-24489946Y20527580D01*
X-24489946Y20527580D02*
X-24489946Y20765675D01*
X-24489946Y20765675D02*
X-24442326Y20860913D01*
X-24442326Y20860913D02*
X-24394707Y20908532D01*
X-24394707Y20908532D02*
X-24299469Y20956151D01*
X-24299469Y20956151D02*
X-24204231Y20956151D01*
X-24204231Y20956151D02*
X-24061374Y20908532D01*
X-24061374Y20908532D02*
X-23489946Y20337104D01*
X-23489946Y20337104D02*
X-23489946Y20956151D01*
%TO.C,C7*%
X8618333Y9655358D02*
X8570714Y9607739D01*
X8570714Y9607739D02*
X8427857Y9560120D01*
X8427857Y9560120D02*
X8332619Y9560120D01*
X8332619Y9560120D02*
X8189762Y9607739D01*
X8189762Y9607739D02*
X8094524Y9702977D01*
X8094524Y9702977D02*
X8046905Y9798215D01*
X8046905Y9798215D02*
X7999286Y9988691D01*
X7999286Y9988691D02*
X7999286Y10131548D01*
X7999286Y10131548D02*
X8046905Y10322024D01*
X8046905Y10322024D02*
X8094524Y10417262D01*
X8094524Y10417262D02*
X8189762Y10512500D01*
X8189762Y10512500D02*
X8332619Y10560120D01*
X8332619Y10560120D02*
X8427857Y10560120D01*
X8427857Y10560120D02*
X8570714Y10512500D01*
X8570714Y10512500D02*
X8618333Y10464881D01*
X8951667Y10560120D02*
X9618333Y10560120D01*
X9618333Y10560120D02*
X9189762Y9560120D01*
%TO.C,C15*%
X-17707858Y-2022857D02*
X-17660239Y-2070476D01*
X-17660239Y-2070476D02*
X-17612620Y-2213333D01*
X-17612620Y-2213333D02*
X-17612620Y-2308571D01*
X-17612620Y-2308571D02*
X-17660239Y-2451428D01*
X-17660239Y-2451428D02*
X-17755477Y-2546666D01*
X-17755477Y-2546666D02*
X-17850715Y-2594285D01*
X-17850715Y-2594285D02*
X-18041191Y-2641904D01*
X-18041191Y-2641904D02*
X-18184048Y-2641904D01*
X-18184048Y-2641904D02*
X-18374524Y-2594285D01*
X-18374524Y-2594285D02*
X-18469762Y-2546666D01*
X-18469762Y-2546666D02*
X-18565000Y-2451428D01*
X-18565000Y-2451428D02*
X-18612620Y-2308571D01*
X-18612620Y-2308571D02*
X-18612620Y-2213333D01*
X-18612620Y-2213333D02*
X-18565000Y-2070476D01*
X-18565000Y-2070476D02*
X-18517381Y-2022857D01*
X-17612620Y-1070476D02*
X-17612620Y-1641904D01*
X-17612620Y-1356190D02*
X-18612620Y-1356190D01*
X-18612620Y-1356190D02*
X-18469762Y-1451428D01*
X-18469762Y-1451428D02*
X-18374524Y-1546666D01*
X-18374524Y-1546666D02*
X-18326905Y-1641904D01*
X-18612620Y-165714D02*
X-18612620Y-641904D01*
X-18612620Y-641904D02*
X-18136429Y-689523D01*
X-18136429Y-689523D02*
X-18184048Y-641904D01*
X-18184048Y-641904D02*
X-18231667Y-546666D01*
X-18231667Y-546666D02*
X-18231667Y-308571D01*
X-18231667Y-308571D02*
X-18184048Y-213333D01*
X-18184048Y-213333D02*
X-18136429Y-165714D01*
X-18136429Y-165714D02*
X-18041191Y-118095D01*
X-18041191Y-118095D02*
X-17803096Y-118095D01*
X-17803096Y-118095D02*
X-17707858Y-165714D01*
X-17707858Y-165714D02*
X-17660239Y-213333D01*
X-17660239Y-213333D02*
X-17612620Y-308571D01*
X-17612620Y-308571D02*
X-17612620Y-546666D01*
X-17612620Y-546666D02*
X-17660239Y-641904D01*
X-17660239Y-641904D02*
X-17707858Y-689523D01*
%TO.C,C14*%
X-16817858Y10547143D02*
X-16770239Y10499524D01*
X-16770239Y10499524D02*
X-16722620Y10356667D01*
X-16722620Y10356667D02*
X-16722620Y10261429D01*
X-16722620Y10261429D02*
X-16770239Y10118572D01*
X-16770239Y10118572D02*
X-16865477Y10023334D01*
X-16865477Y10023334D02*
X-16960715Y9975715D01*
X-16960715Y9975715D02*
X-17151191Y9928096D01*
X-17151191Y9928096D02*
X-17294048Y9928096D01*
X-17294048Y9928096D02*
X-17484524Y9975715D01*
X-17484524Y9975715D02*
X-17579762Y10023334D01*
X-17579762Y10023334D02*
X-17675000Y10118572D01*
X-17675000Y10118572D02*
X-17722620Y10261429D01*
X-17722620Y10261429D02*
X-17722620Y10356667D01*
X-17722620Y10356667D02*
X-17675000Y10499524D01*
X-17675000Y10499524D02*
X-17627381Y10547143D01*
X-16722620Y11499524D02*
X-16722620Y10928096D01*
X-16722620Y11213810D02*
X-17722620Y11213810D01*
X-17722620Y11213810D02*
X-17579762Y11118572D01*
X-17579762Y11118572D02*
X-17484524Y11023334D01*
X-17484524Y11023334D02*
X-17436905Y10928096D01*
X-17389286Y12356667D02*
X-16722620Y12356667D01*
X-17770239Y12118572D02*
X-17055953Y11880477D01*
X-17055953Y11880477D02*
X-17055953Y12499524D01*
%TO.C,C10*%
X3369955Y8863330D02*
X3417574Y8815711D01*
X3417574Y8815711D02*
X3465193Y8672854D01*
X3465193Y8672854D02*
X3465193Y8577616D01*
X3465193Y8577616D02*
X3417574Y8434759D01*
X3417574Y8434759D02*
X3322336Y8339521D01*
X3322336Y8339521D02*
X3227098Y8291902D01*
X3227098Y8291902D02*
X3036622Y8244283D01*
X3036622Y8244283D02*
X2893765Y8244283D01*
X2893765Y8244283D02*
X2703289Y8291902D01*
X2703289Y8291902D02*
X2608051Y8339521D01*
X2608051Y8339521D02*
X2512813Y8434759D01*
X2512813Y8434759D02*
X2465193Y8577616D01*
X2465193Y8577616D02*
X2465193Y8672854D01*
X2465193Y8672854D02*
X2512813Y8815711D01*
X2512813Y8815711D02*
X2560432Y8863330D01*
X3465193Y9815711D02*
X3465193Y9244283D01*
X3465193Y9529997D02*
X2465193Y9529997D01*
X2465193Y9529997D02*
X2608051Y9434759D01*
X2608051Y9434759D02*
X2703289Y9339521D01*
X2703289Y9339521D02*
X2750908Y9244283D01*
X2465193Y10434759D02*
X2465193Y10529997D01*
X2465193Y10529997D02*
X2512813Y10625235D01*
X2512813Y10625235D02*
X2560432Y10672854D01*
X2560432Y10672854D02*
X2655670Y10720473D01*
X2655670Y10720473D02*
X2846146Y10768092D01*
X2846146Y10768092D02*
X3084241Y10768092D01*
X3084241Y10768092D02*
X3274717Y10720473D01*
X3274717Y10720473D02*
X3369955Y10672854D01*
X3369955Y10672854D02*
X3417574Y10625235D01*
X3417574Y10625235D02*
X3465193Y10529997D01*
X3465193Y10529997D02*
X3465193Y10434759D01*
X3465193Y10434759D02*
X3417574Y10339521D01*
X3417574Y10339521D02*
X3369955Y10291902D01*
X3369955Y10291902D02*
X3274717Y10244283D01*
X3274717Y10244283D02*
X3084241Y10196664D01*
X3084241Y10196664D02*
X2846146Y10196664D01*
X2846146Y10196664D02*
X2655670Y10244283D01*
X2655670Y10244283D02*
X2560432Y10291902D01*
X2560432Y10291902D02*
X2512813Y10339521D01*
X2512813Y10339521D02*
X2465193Y10434759D01*
%TO.C,C3*%
X-12361667Y22517858D02*
X-12409286Y22470239D01*
X-12409286Y22470239D02*
X-12552143Y22422620D01*
X-12552143Y22422620D02*
X-12647381Y22422620D01*
X-12647381Y22422620D02*
X-12790238Y22470239D01*
X-12790238Y22470239D02*
X-12885476Y22565477D01*
X-12885476Y22565477D02*
X-12933095Y22660715D01*
X-12933095Y22660715D02*
X-12980714Y22851191D01*
X-12980714Y22851191D02*
X-12980714Y22994048D01*
X-12980714Y22994048D02*
X-12933095Y23184524D01*
X-12933095Y23184524D02*
X-12885476Y23279762D01*
X-12885476Y23279762D02*
X-12790238Y23375000D01*
X-12790238Y23375000D02*
X-12647381Y23422620D01*
X-12647381Y23422620D02*
X-12552143Y23422620D01*
X-12552143Y23422620D02*
X-12409286Y23375000D01*
X-12409286Y23375000D02*
X-12361667Y23327381D01*
X-12028333Y23422620D02*
X-11409286Y23422620D01*
X-11409286Y23422620D02*
X-11742619Y23041667D01*
X-11742619Y23041667D02*
X-11599762Y23041667D01*
X-11599762Y23041667D02*
X-11504524Y22994048D01*
X-11504524Y22994048D02*
X-11456905Y22946429D01*
X-11456905Y22946429D02*
X-11409286Y22851191D01*
X-11409286Y22851191D02*
X-11409286Y22613096D01*
X-11409286Y22613096D02*
X-11456905Y22517858D01*
X-11456905Y22517858D02*
X-11504524Y22470239D01*
X-11504524Y22470239D02*
X-11599762Y22422620D01*
X-11599762Y22422620D02*
X-11885476Y22422620D01*
X-11885476Y22422620D02*
X-11980714Y22470239D01*
X-11980714Y22470239D02*
X-12028333Y22517858D01*
%TO.C,R3*%
X-16466667Y13352620D02*
X-16800000Y13828810D01*
X-17038095Y13352620D02*
X-17038095Y14352620D01*
X-17038095Y14352620D02*
X-16657143Y14352620D01*
X-16657143Y14352620D02*
X-16561905Y14305000D01*
X-16561905Y14305000D02*
X-16514286Y14257381D01*
X-16514286Y14257381D02*
X-16466667Y14162143D01*
X-16466667Y14162143D02*
X-16466667Y14019286D01*
X-16466667Y14019286D02*
X-16514286Y13924048D01*
X-16514286Y13924048D02*
X-16561905Y13876429D01*
X-16561905Y13876429D02*
X-16657143Y13828810D01*
X-16657143Y13828810D02*
X-17038095Y13828810D01*
X-16133333Y14352620D02*
X-15514286Y14352620D01*
X-15514286Y14352620D02*
X-15847619Y13971667D01*
X-15847619Y13971667D02*
X-15704762Y13971667D01*
X-15704762Y13971667D02*
X-15609524Y13924048D01*
X-15609524Y13924048D02*
X-15561905Y13876429D01*
X-15561905Y13876429D02*
X-15514286Y13781191D01*
X-15514286Y13781191D02*
X-15514286Y13543096D01*
X-15514286Y13543096D02*
X-15561905Y13447858D01*
X-15561905Y13447858D02*
X-15609524Y13400239D01*
X-15609524Y13400239D02*
X-15704762Y13352620D01*
X-15704762Y13352620D02*
X-15990476Y13352620D01*
X-15990476Y13352620D02*
X-16085714Y13400239D01*
X-16085714Y13400239D02*
X-16133333Y13447858D01*
%TO.C,R7*%
X5947380Y17533334D02*
X5471190Y17200001D01*
X5947380Y16961906D02*
X4947380Y16961906D01*
X4947380Y16961906D02*
X4947380Y17342858D01*
X4947380Y17342858D02*
X4995000Y17438096D01*
X4995000Y17438096D02*
X5042619Y17485715D01*
X5042619Y17485715D02*
X5137857Y17533334D01*
X5137857Y17533334D02*
X5280714Y17533334D01*
X5280714Y17533334D02*
X5375952Y17485715D01*
X5375952Y17485715D02*
X5423571Y17438096D01*
X5423571Y17438096D02*
X5471190Y17342858D01*
X5471190Y17342858D02*
X5471190Y16961906D01*
X4947380Y17866668D02*
X4947380Y18533334D01*
X4947380Y18533334D02*
X5947380Y18104763D01*
%TO.C,U4*%
X-761905Y-1767380D02*
X-761905Y-2576904D01*
X-761905Y-2576904D02*
X-714286Y-2672142D01*
X-714286Y-2672142D02*
X-666667Y-2719761D01*
X-666667Y-2719761D02*
X-571429Y-2767380D01*
X-571429Y-2767380D02*
X-380953Y-2767380D01*
X-380953Y-2767380D02*
X-285715Y-2719761D01*
X-285715Y-2719761D02*
X-238096Y-2672142D01*
X-238096Y-2672142D02*
X-190477Y-2576904D01*
X-190477Y-2576904D02*
X-190477Y-1767380D01*
X714285Y-2100714D02*
X714285Y-2767380D01*
X476190Y-1719761D02*
X238095Y-2434047D01*
X238095Y-2434047D02*
X857142Y-2434047D01*
%TO.C,C6*%
X-2536667Y19907858D02*
X-2584286Y19860239D01*
X-2584286Y19860239D02*
X-2727143Y19812620D01*
X-2727143Y19812620D02*
X-2822381Y19812620D01*
X-2822381Y19812620D02*
X-2965238Y19860239D01*
X-2965238Y19860239D02*
X-3060476Y19955477D01*
X-3060476Y19955477D02*
X-3108095Y20050715D01*
X-3108095Y20050715D02*
X-3155714Y20241191D01*
X-3155714Y20241191D02*
X-3155714Y20384048D01*
X-3155714Y20384048D02*
X-3108095Y20574524D01*
X-3108095Y20574524D02*
X-3060476Y20669762D01*
X-3060476Y20669762D02*
X-2965238Y20765000D01*
X-2965238Y20765000D02*
X-2822381Y20812620D01*
X-2822381Y20812620D02*
X-2727143Y20812620D01*
X-2727143Y20812620D02*
X-2584286Y20765000D01*
X-2584286Y20765000D02*
X-2536667Y20717381D01*
X-1679524Y20812620D02*
X-1870000Y20812620D01*
X-1870000Y20812620D02*
X-1965238Y20765000D01*
X-1965238Y20765000D02*
X-2012857Y20717381D01*
X-2012857Y20717381D02*
X-2108095Y20574524D01*
X-2108095Y20574524D02*
X-2155714Y20384048D01*
X-2155714Y20384048D02*
X-2155714Y20003096D01*
X-2155714Y20003096D02*
X-2108095Y19907858D01*
X-2108095Y19907858D02*
X-2060476Y19860239D01*
X-2060476Y19860239D02*
X-1965238Y19812620D01*
X-1965238Y19812620D02*
X-1774762Y19812620D01*
X-1774762Y19812620D02*
X-1679524Y19860239D01*
X-1679524Y19860239D02*
X-1631905Y19907858D01*
X-1631905Y19907858D02*
X-1584286Y20003096D01*
X-1584286Y20003096D02*
X-1584286Y20241191D01*
X-1584286Y20241191D02*
X-1631905Y20336429D01*
X-1631905Y20336429D02*
X-1679524Y20384048D01*
X-1679524Y20384048D02*
X-1774762Y20431667D01*
X-1774762Y20431667D02*
X-1965238Y20431667D01*
X-1965238Y20431667D02*
X-2060476Y20384048D01*
X-2060476Y20384048D02*
X-2108095Y20336429D01*
X-2108095Y20336429D02*
X-2155714Y20241191D01*
%TO.C,C17*%
X3882142Y-1112857D02*
X3929761Y-1160476D01*
X3929761Y-1160476D02*
X3977380Y-1303333D01*
X3977380Y-1303333D02*
X3977380Y-1398571D01*
X3977380Y-1398571D02*
X3929761Y-1541428D01*
X3929761Y-1541428D02*
X3834523Y-1636666D01*
X3834523Y-1636666D02*
X3739285Y-1684285D01*
X3739285Y-1684285D02*
X3548809Y-1731904D01*
X3548809Y-1731904D02*
X3405952Y-1731904D01*
X3405952Y-1731904D02*
X3215476Y-1684285D01*
X3215476Y-1684285D02*
X3120238Y-1636666D01*
X3120238Y-1636666D02*
X3025000Y-1541428D01*
X3025000Y-1541428D02*
X2977380Y-1398571D01*
X2977380Y-1398571D02*
X2977380Y-1303333D01*
X2977380Y-1303333D02*
X3025000Y-1160476D01*
X3025000Y-1160476D02*
X3072619Y-1112857D01*
X3977380Y-160476D02*
X3977380Y-731904D01*
X3977380Y-446190D02*
X2977380Y-446190D01*
X2977380Y-446190D02*
X3120238Y-541428D01*
X3120238Y-541428D02*
X3215476Y-636666D01*
X3215476Y-636666D02*
X3263095Y-731904D01*
X2977380Y172858D02*
X2977380Y839524D01*
X2977380Y839524D02*
X3977380Y410953D01*
%TO.C,C8*%
X11992142Y8883334D02*
X12039761Y8835715D01*
X12039761Y8835715D02*
X12087380Y8692858D01*
X12087380Y8692858D02*
X12087380Y8597620D01*
X12087380Y8597620D02*
X12039761Y8454763D01*
X12039761Y8454763D02*
X11944523Y8359525D01*
X11944523Y8359525D02*
X11849285Y8311906D01*
X11849285Y8311906D02*
X11658809Y8264287D01*
X11658809Y8264287D02*
X11515952Y8264287D01*
X11515952Y8264287D02*
X11325476Y8311906D01*
X11325476Y8311906D02*
X11230238Y8359525D01*
X11230238Y8359525D02*
X11135000Y8454763D01*
X11135000Y8454763D02*
X11087380Y8597620D01*
X11087380Y8597620D02*
X11087380Y8692858D01*
X11087380Y8692858D02*
X11135000Y8835715D01*
X11135000Y8835715D02*
X11182619Y8883334D01*
X11515952Y9454763D02*
X11468333Y9359525D01*
X11468333Y9359525D02*
X11420714Y9311906D01*
X11420714Y9311906D02*
X11325476Y9264287D01*
X11325476Y9264287D02*
X11277857Y9264287D01*
X11277857Y9264287D02*
X11182619Y9311906D01*
X11182619Y9311906D02*
X11135000Y9359525D01*
X11135000Y9359525D02*
X11087380Y9454763D01*
X11087380Y9454763D02*
X11087380Y9645239D01*
X11087380Y9645239D02*
X11135000Y9740477D01*
X11135000Y9740477D02*
X11182619Y9788096D01*
X11182619Y9788096D02*
X11277857Y9835715D01*
X11277857Y9835715D02*
X11325476Y9835715D01*
X11325476Y9835715D02*
X11420714Y9788096D01*
X11420714Y9788096D02*
X11468333Y9740477D01*
X11468333Y9740477D02*
X11515952Y9645239D01*
X11515952Y9645239D02*
X11515952Y9454763D01*
X11515952Y9454763D02*
X11563571Y9359525D01*
X11563571Y9359525D02*
X11611190Y9311906D01*
X11611190Y9311906D02*
X11706428Y9264287D01*
X11706428Y9264287D02*
X11896904Y9264287D01*
X11896904Y9264287D02*
X11992142Y9311906D01*
X11992142Y9311906D02*
X12039761Y9359525D01*
X12039761Y9359525D02*
X12087380Y9454763D01*
X12087380Y9454763D02*
X12087380Y9645239D01*
X12087380Y9645239D02*
X12039761Y9740477D01*
X12039761Y9740477D02*
X11992142Y9788096D01*
X11992142Y9788096D02*
X11896904Y9835715D01*
X11896904Y9835715D02*
X11706428Y9835715D01*
X11706428Y9835715D02*
X11611190Y9788096D01*
X11611190Y9788096D02*
X11563571Y9740477D01*
X11563571Y9740477D02*
X11515952Y9645239D01*
%TO.C,U6*%
X-20261905Y-1767380D02*
X-20261905Y-2576904D01*
X-20261905Y-2576904D02*
X-20214286Y-2672142D01*
X-20214286Y-2672142D02*
X-20166667Y-2719761D01*
X-20166667Y-2719761D02*
X-20071429Y-2767380D01*
X-20071429Y-2767380D02*
X-19880953Y-2767380D01*
X-19880953Y-2767380D02*
X-19785715Y-2719761D01*
X-19785715Y-2719761D02*
X-19738096Y-2672142D01*
X-19738096Y-2672142D02*
X-19690477Y-2576904D01*
X-19690477Y-2576904D02*
X-19690477Y-1767380D01*
X-18785715Y-1767380D02*
X-18976191Y-1767380D01*
X-18976191Y-1767380D02*
X-19071429Y-1815000D01*
X-19071429Y-1815000D02*
X-19119048Y-1862619D01*
X-19119048Y-1862619D02*
X-19214286Y-2005476D01*
X-19214286Y-2005476D02*
X-19261905Y-2195952D01*
X-19261905Y-2195952D02*
X-19261905Y-2576904D01*
X-19261905Y-2576904D02*
X-19214286Y-2672142D01*
X-19214286Y-2672142D02*
X-19166667Y-2719761D01*
X-19166667Y-2719761D02*
X-19071429Y-2767380D01*
X-19071429Y-2767380D02*
X-18880953Y-2767380D01*
X-18880953Y-2767380D02*
X-18785715Y-2719761D01*
X-18785715Y-2719761D02*
X-18738096Y-2672142D01*
X-18738096Y-2672142D02*
X-18690477Y-2576904D01*
X-18690477Y-2576904D02*
X-18690477Y-2338809D01*
X-18690477Y-2338809D02*
X-18738096Y-2243571D01*
X-18738096Y-2243571D02*
X-18785715Y-2195952D01*
X-18785715Y-2195952D02*
X-18880953Y-2148333D01*
X-18880953Y-2148333D02*
X-19071429Y-2148333D01*
X-19071429Y-2148333D02*
X-19166667Y-2195952D01*
X-19166667Y-2195952D02*
X-19214286Y-2243571D01*
X-19214286Y-2243571D02*
X-19261905Y-2338809D01*
%TO.C,R5*%
X-2052620Y10473334D02*
X-2528810Y10140001D01*
X-2052620Y9901906D02*
X-3052620Y9901906D01*
X-3052620Y9901906D02*
X-3052620Y10282858D01*
X-3052620Y10282858D02*
X-3005000Y10378096D01*
X-3005000Y10378096D02*
X-2957381Y10425715D01*
X-2957381Y10425715D02*
X-2862143Y10473334D01*
X-2862143Y10473334D02*
X-2719286Y10473334D01*
X-2719286Y10473334D02*
X-2624048Y10425715D01*
X-2624048Y10425715D02*
X-2576429Y10378096D01*
X-2576429Y10378096D02*
X-2528810Y10282858D01*
X-2528810Y10282858D02*
X-2528810Y9901906D01*
X-3052620Y11378096D02*
X-3052620Y10901906D01*
X-3052620Y10901906D02*
X-2576429Y10854287D01*
X-2576429Y10854287D02*
X-2624048Y10901906D01*
X-2624048Y10901906D02*
X-2671667Y10997144D01*
X-2671667Y10997144D02*
X-2671667Y11235239D01*
X-2671667Y11235239D02*
X-2624048Y11330477D01*
X-2624048Y11330477D02*
X-2576429Y11378096D01*
X-2576429Y11378096D02*
X-2481191Y11425715D01*
X-2481191Y11425715D02*
X-2243096Y11425715D01*
X-2243096Y11425715D02*
X-2147858Y11378096D01*
X-2147858Y11378096D02*
X-2100239Y11330477D01*
X-2100239Y11330477D02*
X-2052620Y11235239D01*
X-2052620Y11235239D02*
X-2052620Y10997144D01*
X-2052620Y10997144D02*
X-2100239Y10901906D01*
X-2100239Y10901906D02*
X-2147858Y10854287D01*
%TO.C,C13*%
X-18037858Y11457143D02*
X-17990239Y11409524D01*
X-17990239Y11409524D02*
X-17942620Y11266667D01*
X-17942620Y11266667D02*
X-17942620Y11171429D01*
X-17942620Y11171429D02*
X-17990239Y11028572D01*
X-17990239Y11028572D02*
X-18085477Y10933334D01*
X-18085477Y10933334D02*
X-18180715Y10885715D01*
X-18180715Y10885715D02*
X-18371191Y10838096D01*
X-18371191Y10838096D02*
X-18514048Y10838096D01*
X-18514048Y10838096D02*
X-18704524Y10885715D01*
X-18704524Y10885715D02*
X-18799762Y10933334D01*
X-18799762Y10933334D02*
X-18895000Y11028572D01*
X-18895000Y11028572D02*
X-18942620Y11171429D01*
X-18942620Y11171429D02*
X-18942620Y11266667D01*
X-18942620Y11266667D02*
X-18895000Y11409524D01*
X-18895000Y11409524D02*
X-18847381Y11457143D01*
X-17942620Y12409524D02*
X-17942620Y11838096D01*
X-17942620Y12123810D02*
X-18942620Y12123810D01*
X-18942620Y12123810D02*
X-18799762Y12028572D01*
X-18799762Y12028572D02*
X-18704524Y11933334D01*
X-18704524Y11933334D02*
X-18656905Y11838096D01*
X-18942620Y12742858D02*
X-18942620Y13361905D01*
X-18942620Y13361905D02*
X-18561667Y13028572D01*
X-18561667Y13028572D02*
X-18561667Y13171429D01*
X-18561667Y13171429D02*
X-18514048Y13266667D01*
X-18514048Y13266667D02*
X-18466429Y13314286D01*
X-18466429Y13314286D02*
X-18371191Y13361905D01*
X-18371191Y13361905D02*
X-18133096Y13361905D01*
X-18133096Y13361905D02*
X-18037858Y13314286D01*
X-18037858Y13314286D02*
X-17990239Y13266667D01*
X-17990239Y13266667D02*
X-17942620Y13171429D01*
X-17942620Y13171429D02*
X-17942620Y12885715D01*
X-17942620Y12885715D02*
X-17990239Y12790477D01*
X-17990239Y12790477D02*
X-18037858Y12742858D01*
%TO.C,C19*%
X-19923223Y11339600D02*
X-19970842Y11291981D01*
X-19970842Y11291981D02*
X-20113699Y11244362D01*
X-20113699Y11244362D02*
X-20208937Y11244362D01*
X-20208937Y11244362D02*
X-20351794Y11291981D01*
X-20351794Y11291981D02*
X-20447032Y11387219D01*
X-20447032Y11387219D02*
X-20494651Y11482457D01*
X-20494651Y11482457D02*
X-20542270Y11672933D01*
X-20542270Y11672933D02*
X-20542270Y11815790D01*
X-20542270Y11815790D02*
X-20494651Y12006266D01*
X-20494651Y12006266D02*
X-20447032Y12101504D01*
X-20447032Y12101504D02*
X-20351794Y12196742D01*
X-20351794Y12196742D02*
X-20208937Y12244362D01*
X-20208937Y12244362D02*
X-20113699Y12244362D01*
X-20113699Y12244362D02*
X-19970842Y12196742D01*
X-19970842Y12196742D02*
X-19923223Y12149123D01*
X-18970842Y11244362D02*
X-19542270Y11244362D01*
X-19256556Y11244362D02*
X-19256556Y12244362D01*
X-19256556Y12244362D02*
X-19351794Y12101504D01*
X-19351794Y12101504D02*
X-19447032Y12006266D01*
X-19447032Y12006266D02*
X-19542270Y11958647D01*
X-18494651Y11244362D02*
X-18304175Y11244362D01*
X-18304175Y11244362D02*
X-18208937Y11291981D01*
X-18208937Y11291981D02*
X-18161318Y11339600D01*
X-18161318Y11339600D02*
X-18066080Y11482457D01*
X-18066080Y11482457D02*
X-18018461Y11672933D01*
X-18018461Y11672933D02*
X-18018461Y12053885D01*
X-18018461Y12053885D02*
X-18066080Y12149123D01*
X-18066080Y12149123D02*
X-18113699Y12196742D01*
X-18113699Y12196742D02*
X-18208937Y12244362D01*
X-18208937Y12244362D02*
X-18399413Y12244362D01*
X-18399413Y12244362D02*
X-18494651Y12196742D01*
X-18494651Y12196742D02*
X-18542270Y12149123D01*
X-18542270Y12149123D02*
X-18589889Y12053885D01*
X-18589889Y12053885D02*
X-18589889Y11815790D01*
X-18589889Y11815790D02*
X-18542270Y11720552D01*
X-18542270Y11720552D02*
X-18494651Y11672933D01*
X-18494651Y11672933D02*
X-18399413Y11625314D01*
X-18399413Y11625314D02*
X-18208937Y11625314D01*
X-18208937Y11625314D02*
X-18113699Y11672933D01*
X-18113699Y11672933D02*
X-18066080Y11720552D01*
X-18066080Y11720552D02*
X-18018461Y11815790D01*
%TO.C,C4*%
X-2457858Y7944375D02*
X-2410239Y7896756D01*
X-2410239Y7896756D02*
X-2362620Y7753899D01*
X-2362620Y7753899D02*
X-2362620Y7658661D01*
X-2362620Y7658661D02*
X-2410239Y7515804D01*
X-2410239Y7515804D02*
X-2505477Y7420566D01*
X-2505477Y7420566D02*
X-2600715Y7372947D01*
X-2600715Y7372947D02*
X-2791191Y7325328D01*
X-2791191Y7325328D02*
X-2934048Y7325328D01*
X-2934048Y7325328D02*
X-3124524Y7372947D01*
X-3124524Y7372947D02*
X-3219762Y7420566D01*
X-3219762Y7420566D02*
X-3315000Y7515804D01*
X-3315000Y7515804D02*
X-3362620Y7658661D01*
X-3362620Y7658661D02*
X-3362620Y7753899D01*
X-3362620Y7753899D02*
X-3315000Y7896756D01*
X-3315000Y7896756D02*
X-3267381Y7944375D01*
X-3029286Y8801518D02*
X-2362620Y8801518D01*
X-3410239Y8563423D02*
X-2695953Y8325328D01*
X-2695953Y8325328D02*
X-2695953Y8944375D01*
%TO.C,Q1*%
X9254761Y13562381D02*
X9159523Y13610000D01*
X9159523Y13610000D02*
X9064285Y13705239D01*
X9064285Y13705239D02*
X8921428Y13848096D01*
X8921428Y13848096D02*
X8826190Y13895715D01*
X8826190Y13895715D02*
X8730952Y13895715D01*
X8778571Y13657620D02*
X8683333Y13705239D01*
X8683333Y13705239D02*
X8588095Y13800477D01*
X8588095Y13800477D02*
X8540476Y13990953D01*
X8540476Y13990953D02*
X8540476Y14324286D01*
X8540476Y14324286D02*
X8588095Y14514762D01*
X8588095Y14514762D02*
X8683333Y14610000D01*
X8683333Y14610000D02*
X8778571Y14657620D01*
X8778571Y14657620D02*
X8969047Y14657620D01*
X8969047Y14657620D02*
X9064285Y14610000D01*
X9064285Y14610000D02*
X9159523Y14514762D01*
X9159523Y14514762D02*
X9207142Y14324286D01*
X9207142Y14324286D02*
X9207142Y13990953D01*
X9207142Y13990953D02*
X9159523Y13800477D01*
X9159523Y13800477D02*
X9064285Y13705239D01*
X9064285Y13705239D02*
X8969047Y13657620D01*
X8969047Y13657620D02*
X8778571Y13657620D01*
X10159523Y13657620D02*
X9588095Y13657620D01*
X9873809Y13657620D02*
X9873809Y14657620D01*
X9873809Y14657620D02*
X9778571Y14514762D01*
X9778571Y14514762D02*
X9683333Y14419524D01*
X9683333Y14419524D02*
X9588095Y14371905D01*
%TO.C,C18*%
X-19928223Y19139600D02*
X-19975842Y19091981D01*
X-19975842Y19091981D02*
X-20118699Y19044362D01*
X-20118699Y19044362D02*
X-20213937Y19044362D01*
X-20213937Y19044362D02*
X-20356794Y19091981D01*
X-20356794Y19091981D02*
X-20452032Y19187219D01*
X-20452032Y19187219D02*
X-20499651Y19282457D01*
X-20499651Y19282457D02*
X-20547270Y19472933D01*
X-20547270Y19472933D02*
X-20547270Y19615790D01*
X-20547270Y19615790D02*
X-20499651Y19806266D01*
X-20499651Y19806266D02*
X-20452032Y19901504D01*
X-20452032Y19901504D02*
X-20356794Y19996742D01*
X-20356794Y19996742D02*
X-20213937Y20044362D01*
X-20213937Y20044362D02*
X-20118699Y20044362D01*
X-20118699Y20044362D02*
X-19975842Y19996742D01*
X-19975842Y19996742D02*
X-19928223Y19949123D01*
X-18975842Y19044362D02*
X-19547270Y19044362D01*
X-19261556Y19044362D02*
X-19261556Y20044362D01*
X-19261556Y20044362D02*
X-19356794Y19901504D01*
X-19356794Y19901504D02*
X-19452032Y19806266D01*
X-19452032Y19806266D02*
X-19547270Y19758647D01*
X-18404413Y19615790D02*
X-18499651Y19663409D01*
X-18499651Y19663409D02*
X-18547270Y19711028D01*
X-18547270Y19711028D02*
X-18594889Y19806266D01*
X-18594889Y19806266D02*
X-18594889Y19853885D01*
X-18594889Y19853885D02*
X-18547270Y19949123D01*
X-18547270Y19949123D02*
X-18499651Y19996742D01*
X-18499651Y19996742D02*
X-18404413Y20044362D01*
X-18404413Y20044362D02*
X-18213937Y20044362D01*
X-18213937Y20044362D02*
X-18118699Y19996742D01*
X-18118699Y19996742D02*
X-18071080Y19949123D01*
X-18071080Y19949123D02*
X-18023461Y19853885D01*
X-18023461Y19853885D02*
X-18023461Y19806266D01*
X-18023461Y19806266D02*
X-18071080Y19711028D01*
X-18071080Y19711028D02*
X-18118699Y19663409D01*
X-18118699Y19663409D02*
X-18213937Y19615790D01*
X-18213937Y19615790D02*
X-18404413Y19615790D01*
X-18404413Y19615790D02*
X-18499651Y19568171D01*
X-18499651Y19568171D02*
X-18547270Y19520552D01*
X-18547270Y19520552D02*
X-18594889Y19425314D01*
X-18594889Y19425314D02*
X-18594889Y19234838D01*
X-18594889Y19234838D02*
X-18547270Y19139600D01*
X-18547270Y19139600D02*
X-18499651Y19091981D01*
X-18499651Y19091981D02*
X-18404413Y19044362D01*
X-18404413Y19044362D02*
X-18213937Y19044362D01*
X-18213937Y19044362D02*
X-18118699Y19091981D01*
X-18118699Y19091981D02*
X-18071080Y19139600D01*
X-18071080Y19139600D02*
X-18023461Y19234838D01*
X-18023461Y19234838D02*
X-18023461Y19425314D01*
X-18023461Y19425314D02*
X-18071080Y19520552D01*
X-18071080Y19520552D02*
X-18118699Y19568171D01*
X-18118699Y19568171D02*
X-18213937Y19615790D01*
%TO.C,U7*%
X-14751905Y20807620D02*
X-14751905Y19998096D01*
X-14751905Y19998096D02*
X-14704286Y19902858D01*
X-14704286Y19902858D02*
X-14656667Y19855239D01*
X-14656667Y19855239D02*
X-14561429Y19807620D01*
X-14561429Y19807620D02*
X-14370953Y19807620D01*
X-14370953Y19807620D02*
X-14275715Y19855239D01*
X-14275715Y19855239D02*
X-14228096Y19902858D01*
X-14228096Y19902858D02*
X-14180477Y19998096D01*
X-14180477Y19998096D02*
X-14180477Y20807620D01*
X-13799524Y20807620D02*
X-13132858Y20807620D01*
X-13132858Y20807620D02*
X-13561429Y19807620D01*
%TO.C,J1*%
X-19932620Y26016667D02*
X-19218334Y26016667D01*
X-19218334Y26016667D02*
X-19075477Y25969048D01*
X-19075477Y25969048D02*
X-18980239Y25873810D01*
X-18980239Y25873810D02*
X-18932620Y25730953D01*
X-18932620Y25730953D02*
X-18932620Y25635715D01*
X-18932620Y27016667D02*
X-18932620Y26445239D01*
X-18932620Y26730953D02*
X-19932620Y26730953D01*
X-19932620Y26730953D02*
X-19789762Y26635715D01*
X-19789762Y26635715D02*
X-19694524Y26540477D01*
X-19694524Y26540477D02*
X-19646905Y26445239D01*
%TO.C,F1*%
X7086666Y24496429D02*
X6753333Y24496429D01*
X6753333Y23972620D02*
X6753333Y24972620D01*
X6753333Y24972620D02*
X7229523Y24972620D01*
X8134285Y23972620D02*
X7562857Y23972620D01*
X7848571Y23972620D02*
X7848571Y24972620D01*
X7848571Y24972620D02*
X7753333Y24829762D01*
X7753333Y24829762D02*
X7658095Y24734524D01*
X7658095Y24734524D02*
X7562857Y24686905D01*
%TO.C,C20*%
X-3437858Y5067143D02*
X-3390239Y5019524D01*
X-3390239Y5019524D02*
X-3342620Y4876667D01*
X-3342620Y4876667D02*
X-3342620Y4781429D01*
X-3342620Y4781429D02*
X-3390239Y4638572D01*
X-3390239Y4638572D02*
X-3485477Y4543334D01*
X-3485477Y4543334D02*
X-3580715Y4495715D01*
X-3580715Y4495715D02*
X-3771191Y4448096D01*
X-3771191Y4448096D02*
X-3914048Y4448096D01*
X-3914048Y4448096D02*
X-4104524Y4495715D01*
X-4104524Y4495715D02*
X-4199762Y4543334D01*
X-4199762Y4543334D02*
X-4295000Y4638572D01*
X-4295000Y4638572D02*
X-4342620Y4781429D01*
X-4342620Y4781429D02*
X-4342620Y4876667D01*
X-4342620Y4876667D02*
X-4295000Y5019524D01*
X-4295000Y5019524D02*
X-4247381Y5067143D01*
X-4247381Y5448096D02*
X-4295000Y5495715D01*
X-4295000Y5495715D02*
X-4342620Y5590953D01*
X-4342620Y5590953D02*
X-4342620Y5829048D01*
X-4342620Y5829048D02*
X-4295000Y5924286D01*
X-4295000Y5924286D02*
X-4247381Y5971905D01*
X-4247381Y5971905D02*
X-4152143Y6019524D01*
X-4152143Y6019524D02*
X-4056905Y6019524D01*
X-4056905Y6019524D02*
X-3914048Y5971905D01*
X-3914048Y5971905D02*
X-3342620Y5400477D01*
X-3342620Y5400477D02*
X-3342620Y6019524D01*
X-4342620Y6638572D02*
X-4342620Y6733810D01*
X-4342620Y6733810D02*
X-4295000Y6829048D01*
X-4295000Y6829048D02*
X-4247381Y6876667D01*
X-4247381Y6876667D02*
X-4152143Y6924286D01*
X-4152143Y6924286D02*
X-3961667Y6971905D01*
X-3961667Y6971905D02*
X-3723572Y6971905D01*
X-3723572Y6971905D02*
X-3533096Y6924286D01*
X-3533096Y6924286D02*
X-3437858Y6876667D01*
X-3437858Y6876667D02*
X-3390239Y6829048D01*
X-3390239Y6829048D02*
X-3342620Y6733810D01*
X-3342620Y6733810D02*
X-3342620Y6638572D01*
X-3342620Y6638572D02*
X-3390239Y6543334D01*
X-3390239Y6543334D02*
X-3437858Y6495715D01*
X-3437858Y6495715D02*
X-3533096Y6448096D01*
X-3533096Y6448096D02*
X-3723572Y6400477D01*
X-3723572Y6400477D02*
X-3961667Y6400477D01*
X-3961667Y6400477D02*
X-4152143Y6448096D01*
X-4152143Y6448096D02*
X-4247381Y6495715D01*
X-4247381Y6495715D02*
X-4295000Y6543334D01*
X-4295000Y6543334D02*
X-4342620Y6638572D01*
%TO.C,U2*%
X1567380Y10208096D02*
X2376904Y10208096D01*
X2376904Y10208096D02*
X2472142Y10255715D01*
X2472142Y10255715D02*
X2519761Y10303334D01*
X2519761Y10303334D02*
X2567380Y10398572D01*
X2567380Y10398572D02*
X2567380Y10589048D01*
X2567380Y10589048D02*
X2519761Y10684286D01*
X2519761Y10684286D02*
X2472142Y10731905D01*
X2472142Y10731905D02*
X2376904Y10779524D01*
X2376904Y10779524D02*
X1567380Y10779524D01*
X1662619Y11208096D02*
X1615000Y11255715D01*
X1615000Y11255715D02*
X1567380Y11350953D01*
X1567380Y11350953D02*
X1567380Y11589048D01*
X1567380Y11589048D02*
X1615000Y11684286D01*
X1615000Y11684286D02*
X1662619Y11731905D01*
X1662619Y11731905D02*
X1757857Y11779524D01*
X1757857Y11779524D02*
X1853095Y11779524D01*
X1853095Y11779524D02*
X1995952Y11731905D01*
X1995952Y11731905D02*
X2567380Y11160477D01*
X2567380Y11160477D02*
X2567380Y11779524D01*
D11*
%TO.C,FB1*%
X-17365000Y9148748D02*
X-17365000Y9671252D01*
X-15895000Y9148748D02*
X-15895000Y9671252D01*
%TO.C,C1*%
X-14209420Y19890000D02*
X-14490580Y19890000D01*
X-14209420Y20910000D02*
X-14490580Y20910000D01*
%TO.C,C12*%
X-16942164Y6815000D02*
X-17157836Y6815000D01*
X-16942164Y7535000D02*
X-17157836Y7535000D01*
%TO.C,R6*%
X12257500Y17038641D02*
X12257500Y16731359D01*
X11497500Y17038641D02*
X11497500Y16731359D01*
%TO.C,C5*%
X-11952164Y6680000D02*
X-12167836Y6680000D01*
X-11952164Y7400000D02*
X-12167836Y7400000D01*
%TO.C,U5*%
X19500000Y-1560000D02*
X21175000Y-1560000D01*
X19500000Y-1560000D02*
X18850000Y-1560000D01*
X19500000Y1560000D02*
X20150000Y1560000D01*
X19500000Y1560000D02*
X18850000Y1560000D01*
%TO.C,U1*%
X8715000Y8550000D02*
X8715000Y6875000D01*
X8715000Y8550000D02*
X8715000Y9200000D01*
X11835000Y8550000D02*
X11835000Y7900000D01*
X11835000Y8550000D02*
X11835000Y9200000D01*
%TO.C,Y1*%
X-17318093Y17630000D02*
X-20618093Y17630000D01*
X-20618093Y17630000D02*
X-20618093Y13630000D01*
D10*
%TO.C,U3*%
X2760000Y21680000D02*
X2760000Y23280000D01*
X2760000Y23680000D02*
X2760000Y23980000D01*
X-440000Y21680000D02*
X2760000Y21680000D01*
X-440000Y21680000D02*
X-440000Y23280000D01*
X-440000Y23280000D02*
X2760000Y23280000D01*
D11*
%TO.C,C9*%
X4928748Y8497500D02*
X6351252Y8497500D01*
X4928748Y6677500D02*
X6351252Y6677500D01*
%TO.C,C2*%
X-16182164Y17540000D02*
X-16397836Y17540000D01*
X-16182164Y18260000D02*
X-16397836Y18260000D01*
%TO.C,R1*%
X3962500Y23107836D02*
X3962500Y22892164D01*
X3242500Y23107836D02*
X3242500Y22892164D01*
%TO.C,C7*%
X9496252Y10867500D02*
X8073748Y10867500D01*
X9496252Y12687500D02*
X8073748Y12687500D01*
%TO.C,C15*%
X-17180000Y-1487836D02*
X-17180000Y-1272164D01*
X-16460000Y-1487836D02*
X-16460000Y-1272164D01*
%TO.C,C14*%
X-16430000Y11982164D02*
X-16430000Y12197836D01*
X-15710000Y11982164D02*
X-15710000Y12197836D01*
%TO.C,C10*%
X2157813Y10217439D02*
X2157813Y8794935D01*
X337813Y10217439D02*
X337813Y8794935D01*
%TO.C,C3*%
X-12302836Y21990000D02*
X-12087164Y21990000D01*
X-12302836Y21270000D02*
X-12087164Y21270000D01*
%TO.C,R3*%
X-16146359Y14510000D02*
X-16453641Y14510000D01*
X-16146359Y15270000D02*
X-16453641Y15270000D01*
%TO.C,R7*%
X6370000Y17546359D02*
X6370000Y17853641D01*
X7130000Y17546359D02*
X7130000Y17853641D01*
%TO.C,U4*%
X0Y-1560000D02*
X1675000Y-1560000D01*
X0Y-1560000D02*
X-650000Y-1560000D01*
X0Y1560000D02*
X650000Y1560000D01*
X0Y1560000D02*
X-650000Y1560000D01*
%TO.C,C6*%
X-2477836Y19380000D02*
X-2262164Y19380000D01*
X-2477836Y18660000D02*
X-2262164Y18660000D01*
%TO.C,C17*%
X2810000Y-362164D02*
X2810000Y-577836D01*
X2090000Y-362164D02*
X2090000Y-577836D01*
%TO.C,C8*%
X12660000Y8338748D02*
X12660000Y9761252D01*
X14480000Y8338748D02*
X14480000Y9761252D01*
%TO.C,U6*%
X-19500000Y-1560000D02*
X-17825000Y-1560000D01*
X-19500000Y-1560000D02*
X-20150000Y-1560000D01*
X-19500000Y1560000D02*
X-18850000Y1560000D01*
X-19500000Y1560000D02*
X-20150000Y1560000D01*
%TO.C,R2*%
X-1320000Y22967836D02*
X-1320000Y22752164D01*
X-2040000Y22967836D02*
X-2040000Y22752164D01*
%TO.C,R5*%
X-1630000Y10486359D02*
X-1630000Y10793641D01*
X-870000Y10486359D02*
X-870000Y10793641D01*
%TO.C,C13*%
X-17510000Y11992164D02*
X-17510000Y12207836D01*
X-16790000Y11992164D02*
X-16790000Y12207836D01*
%TO.C,C16*%
X22330000Y-422164D02*
X22330000Y-637836D01*
X21610000Y-422164D02*
X21610000Y-637836D01*
%TO.C,C19*%
X-19172529Y12411742D02*
X-19388201Y12411742D01*
X-19172529Y13131742D02*
X-19388201Y13131742D01*
%TO.C,C4*%
X-3530000Y8218877D02*
X-3530000Y8003205D01*
X-4250000Y8218877D02*
X-4250000Y8003205D01*
%TO.C,Q1*%
X9237500Y15615000D02*
X10912500Y15615000D01*
X9237500Y15615000D02*
X8587500Y15615000D01*
X9237500Y18735000D02*
X9887500Y18735000D01*
X9237500Y18735000D02*
X8587500Y18735000D01*
%TO.C,C18*%
X-19393201Y18611742D02*
X-19177529Y18611742D01*
X-19393201Y17891742D02*
X-19177529Y17891742D01*
%TO.C,U7*%
X-13710000Y19460000D02*
X-13710000Y18510000D01*
X-13710000Y18510000D02*
X-15050000Y18510000D01*
X-13710000Y9240000D02*
X-13710000Y10190000D01*
X-12760000Y19460000D02*
X-13710000Y19460000D01*
X-12760000Y9240000D02*
X-13710000Y9240000D01*
X-4440000Y19460000D02*
X-3490000Y19460000D01*
X-4440000Y9240000D02*
X-3490000Y9240000D01*
X-3490000Y19460000D02*
X-3490000Y18510000D01*
X-3490000Y9240000D02*
X-3490000Y10190000D01*
%TO.C,J1*%
X-15260000Y25020000D02*
X-7580000Y25020000D01*
X-15260000Y25020000D02*
X-15260000Y27680000D01*
X-7580000Y25020000D02*
X-7580000Y27680000D01*
X-17860000Y26350000D02*
X-17860000Y27680000D01*
X-17860000Y27680000D02*
X-16530000Y27680000D01*
X-15260000Y27680000D02*
X-7580000Y27680000D01*
%TO.C,F1*%
X6817936Y23430000D02*
X8022064Y23430000D01*
X6817936Y21610000D02*
X8022064Y21610000D01*
%TO.C,C20*%
X-4655000Y5971252D02*
X-4655000Y5448748D01*
X-6125000Y5971252D02*
X-6125000Y5448748D01*
%TO.C,U2*%
X3040000Y10970000D02*
X3040000Y9170000D01*
X3040000Y10970000D02*
X3040000Y11770000D01*
X6160000Y10970000D02*
X6160000Y10170000D01*
X6160000Y10970000D02*
X6160000Y11770000D01*
%TD*%
%LPC*%
D12*
%TO.C,H3*%
X0Y-25000000D03*
%TD*%
D13*
%TO.C,FB1*%
X-16630000Y8460000D03*
X-16630000Y10360000D03*
%TD*%
D14*
%TO.C,C1*%
X-13575000Y20400000D03*
X-15125000Y20400000D03*
%TD*%
D15*
%TO.C,C12*%
X-16570000Y7175000D03*
X-17530000Y7175000D03*
%TD*%
D16*
%TO.C,R6*%
X11877500Y17395000D03*
X11877500Y16375000D03*
%TD*%
D17*
%TO.C,P1*%
X3200000Y26895000D03*
X2400000Y26895000D03*
D18*
X1250000Y26895000D03*
X250000Y26895000D03*
X-250000Y26895000D03*
X-1250000Y26895000D03*
D17*
X-2400000Y26895000D03*
X-3200000Y26895000D03*
X-3200000Y26895000D03*
X-2400000Y26895000D03*
D18*
X-1750000Y26895000D03*
X-750000Y26895000D03*
X750000Y26895000D03*
X1750000Y26895000D03*
D17*
X2400000Y26895000D03*
X3200000Y26895000D03*
D19*
X5619999Y28119999D03*
D20*
X5619999Y32119999D03*
D19*
X-5619999Y28119999D03*
D20*
X-5619999Y32119999D03*
%TD*%
D15*
%TO.C,C5*%
X-11580000Y7040000D03*
X-12540000Y7040000D03*
%TD*%
D21*
%TO.C,U5*%
X20437500Y-950000D03*
X20437500Y950000D03*
X18562500Y0D03*
%TD*%
D22*
%TO.C,U1*%
X9325000Y7612500D03*
X11225000Y7612500D03*
X10275000Y9487500D03*
%TD*%
D23*
%TO.C,Y1*%
X-19818093Y16730000D03*
X-19818093Y14530000D03*
X-18118093Y14530000D03*
X-18118093Y16730000D03*
%TD*%
D24*
%TO.C,U3*%
X1910000Y23480000D03*
D25*
X210000Y23480000D03*
X210000Y21480000D03*
X2110000Y21480000D03*
%TD*%
D26*
%TO.C,C9*%
X4165000Y7587500D03*
X7115000Y7587500D03*
%TD*%
D15*
%TO.C,C2*%
X-15810000Y17900000D03*
X-16770000Y17900000D03*
%TD*%
D27*
%TO.C,R1*%
X3602500Y23480000D03*
X3602500Y22520000D03*
%TD*%
D28*
%TO.C,C7*%
X10260000Y11777500D03*
X7310000Y11777500D03*
%TD*%
D29*
%TO.C,C15*%
X-16820000Y-1860000D03*
X-16820000Y-900000D03*
%TD*%
%TO.C,C14*%
X-16070000Y11610000D03*
X-16070000Y12570000D03*
%TD*%
D30*
%TO.C,C10*%
X1247813Y10981187D03*
X1247813Y8031187D03*
%TD*%
D31*
%TO.C,C3*%
X-12675000Y21630000D03*
X-11715000Y21630000D03*
%TD*%
D32*
%TO.C,R3*%
X-15790000Y14890000D03*
X-16810000Y14890000D03*
%TD*%
D33*
%TO.C,R7*%
X6750000Y17190000D03*
X6750000Y18210000D03*
%TD*%
D21*
%TO.C,U4*%
X937500Y-950000D03*
X937500Y950000D03*
X-937500Y0D03*
%TD*%
D31*
%TO.C,C6*%
X-2850000Y19020000D03*
X-1890000Y19020000D03*
%TD*%
D27*
%TO.C,C17*%
X2450000Y10000D03*
X2450000Y-950000D03*
%TD*%
D34*
%TO.C,C8*%
X13570000Y7575000D03*
X13570000Y10525000D03*
%TD*%
D21*
%TO.C,U6*%
X-18562500Y-950000D03*
X-18562500Y950000D03*
X-20437500Y0D03*
%TD*%
D27*
%TO.C,R2*%
X-1680000Y23340000D03*
X-1680000Y22380000D03*
%TD*%
D33*
%TO.C,R5*%
X-1250000Y10130000D03*
X-1250000Y11150000D03*
%TD*%
D29*
%TO.C,C13*%
X-17150000Y11620000D03*
X-17150000Y12580000D03*
%TD*%
D27*
%TO.C,C16*%
X21970000Y-50000D03*
X21970000Y-1010000D03*
%TD*%
D15*
%TO.C,C19*%
X-18800365Y12771742D03*
X-19760365Y12771742D03*
%TD*%
D27*
%TO.C,C4*%
X-3890000Y8591041D03*
X-3890000Y7631041D03*
%TD*%
D21*
%TO.C,Q1*%
X10175000Y16225000D03*
X10175000Y18125000D03*
X8300000Y17175000D03*
%TD*%
D31*
%TO.C,C18*%
X-19765365Y18251742D03*
X-18805365Y18251742D03*
%TD*%
D35*
%TO.C,U7*%
X-14275000Y18100000D03*
X-14275000Y17600000D03*
X-14275000Y17100000D03*
X-14275000Y16600000D03*
X-14275000Y16100000D03*
X-14275000Y15600000D03*
X-14275000Y15100000D03*
X-14275000Y14600000D03*
X-14275000Y14100000D03*
X-14275000Y13600000D03*
X-14275000Y13100000D03*
X-14275000Y12600000D03*
X-14275000Y12100000D03*
X-14275000Y11600000D03*
X-14275000Y11100000D03*
X-14275000Y10600000D03*
D36*
X-12350000Y8675000D03*
X-11850000Y8675000D03*
X-11350000Y8675000D03*
X-10850000Y8675000D03*
X-10350000Y8675000D03*
X-9850000Y8675000D03*
X-9350000Y8675000D03*
X-8850000Y8675000D03*
X-8350000Y8675000D03*
X-7850000Y8675000D03*
X-7350000Y8675000D03*
X-6850000Y8675000D03*
X-6350000Y8675000D03*
X-5850000Y8675000D03*
X-5350000Y8675000D03*
X-4850000Y8675000D03*
D35*
X-2925000Y10600000D03*
X-2925000Y11100000D03*
X-2925000Y11600000D03*
X-2925000Y12100000D03*
X-2925000Y12600000D03*
X-2925000Y13100000D03*
X-2925000Y13600000D03*
X-2925000Y14100000D03*
X-2925000Y14600000D03*
X-2925000Y15100000D03*
X-2925000Y15600000D03*
X-2925000Y16100000D03*
X-2925000Y16600000D03*
X-2925000Y17100000D03*
X-2925000Y17600000D03*
X-2925000Y18100000D03*
D36*
X-4850000Y20025000D03*
X-5350000Y20025000D03*
X-5850000Y20025000D03*
X-6350000Y20025000D03*
X-6850000Y20025000D03*
X-7350000Y20025000D03*
X-7850000Y20025000D03*
X-8350000Y20025000D03*
X-8850000Y20025000D03*
X-9350000Y20025000D03*
X-9850000Y20025000D03*
X-10350000Y20025000D03*
X-10850000Y20025000D03*
X-11350000Y20025000D03*
X-11850000Y20025000D03*
X-12350000Y20025000D03*
%TD*%
D37*
%TO.C,J1*%
X-16530000Y26350000D03*
D38*
X-13989999Y26349999D03*
X-11449999Y26349999D03*
X-8909999Y26349999D03*
%TD*%
D39*
%TO.C,F1*%
X6020000Y22520000D03*
X8820000Y22520000D03*
%TD*%
D40*
%TO.C,C20*%
X-5390000Y6660000D03*
X-5390000Y4760000D03*
%TD*%
D41*
%TO.C,U2*%
X3650000Y9832500D03*
X4600000Y9832500D03*
X5550000Y9832500D03*
X5550000Y12107500D03*
X3650000Y12107500D03*
%TD*%
D42*
%TO.C,REF\u002A\u002A*%
X24580000Y0D03*
X14420000Y0D03*
%TD*%
%TO.C,REF\u002A\u002A*%
X5080000Y0D03*
X-5080000Y0D03*
%TD*%
D43*
%TO.C,H2*%
X-23500000Y12000000D03*
%TD*%
%TO.C,H1*%
X23500000Y12000000D03*
%TD*%
D42*
%TO.C,REF\u002A\u002A*%
X-14420000Y0D03*
X-24580000Y0D03*
%TD*%
M02*
