%TF.GenerationSoftware,KiCad,Pcbnew,(7.0.0-0)*%
%TF.CreationDate,2023-04-04T22:37:47-05:00*%
%TF.ProjectId,RP2040_minimal,52503230-3430-45f6-9d69-6e696d616c2e,REV1*%
%TF.SameCoordinates,Original*%
%TF.FileFunction,Soldermask,Bot*%
%TF.FilePolarity,Negative*%
%FSLAX46Y46*%
G04 Gerber Fmt 4.6, Leading zero omitted, Abs format (unit mm)*
G04 Created by KiCad (PCBNEW (7.0.0-0)) date 2023-04-04 22:37:47*
%MOMM*%
%LPD*%
G01*
G04 APERTURE LIST*
G04 Aperture macros list*
%AMRoundRect*
0 Rectangle with rounded corners*
0 $1 Rounding radius*
0 $2 $3 $4 $5 $6 $7 $8 $9 X,Y pos of 4 corners*
0 Add a 4 corners polygon primitive as box body*
4,1,4,$2,$3,$4,$5,$6,$7,$8,$9,$2,$3,0*
0 Add four circle primitives for the rounded corners*
1,1,$1+$1,$2,$3*
1,1,$1+$1,$4,$5*
1,1,$1+$1,$6,$7*
1,1,$1+$1,$8,$9*
0 Add four rect primitives between the rounded corners*
20,1,$1+$1,$2,$3,$4,$5,0*
20,1,$1+$1,$4,$5,$6,$7,0*
20,1,$1+$1,$6,$7,$8,$9,0*
20,1,$1+$1,$8,$9,$2,$3,0*%
G04 Aperture macros list end*
%TA.AperFunction,Profile*%
%ADD10C,0.120000*%
%TD*%
%ADD11O,1.102000X1.902000*%
%ADD12O,1.102000X2.302000*%
%ADD13RoundRect,0.051000X0.850000X-0.850000X0.850000X0.850000X-0.850000X0.850000X-0.850000X-0.850000X0*%
%ADD14O,1.802000X1.802000*%
%ADD15RoundRect,0.051000X0.775000X0.650000X-0.775000X0.650000X-0.775000X-0.650000X0.775000X-0.650000X0*%
%ADD16RoundRect,0.051000X0.750000X0.450000X-0.750000X0.450000X-0.750000X-0.450000X0.750000X-0.450000X0*%
%ADD17RoundRect,0.191000X-0.170000X0.140000X-0.170000X-0.140000X0.170000X-0.140000X0.170000X0.140000X0*%
%ADD18C,3.302000*%
%ADD19RoundRect,0.191000X0.140000X0.170000X-0.140000X0.170000X-0.140000X-0.170000X0.140000X-0.170000X0*%
%ADD20RoundRect,0.051000X0.500000X0.375000X-0.500000X0.375000X-0.500000X-0.375000X0.500000X-0.375000X0*%
%ADD21C,1.802000*%
%ADD22RoundRect,0.191000X-0.140000X-0.170000X0.140000X-0.170000X0.140000X0.170000X-0.140000X0.170000X0*%
%ADD23RoundRect,0.186000X0.135000X0.185000X-0.135000X0.185000X-0.135000X-0.185000X0.135000X-0.185000X0*%
%ADD24RoundRect,0.051000X0.970000X0.870000X-0.970000X0.870000X-0.970000X-0.870000X0.970000X-0.870000X0*%
%ADD25RoundRect,0.051000X1.060000X0.920000X-1.060000X0.920000X-1.060000X-0.920000X1.060000X-0.920000X0*%
%ADD26RoundRect,0.051000X1.025000X0.905000X-1.025000X0.905000X-1.025000X-0.905000X1.025000X-0.905000X0*%
%ADD27RoundRect,0.051000X1.060000X0.930000X-1.060000X0.930000X-1.060000X-0.930000X1.060000X-0.930000X0*%
%ADD28RoundRect,0.191000X0.170000X-0.140000X0.170000X0.140000X-0.170000X0.140000X-0.170000X-0.140000X0*%
G04 APERTURE END LIST*
D10*
%TO.C,P1*%
X4620000Y27520000D02*
X4625000Y33620000D01*
X4025000Y27495000D02*
X-4025000Y27495000D01*
X-4620000Y27520000D02*
X-4625000Y33620000D01*
X4025000Y27495000D02*
G75*
G03*
X4620000Y27520000I297500J12500D01*
G01*
X-4620000Y27520000D02*
G75*
G03*
X-4025000Y27495000I297500J-12500D01*
G01*
%TD*%
D11*
%TO.C,P1*%
X5619999Y28119999D03*
D12*
X5619999Y32119999D03*
D11*
X-5619999Y28119999D03*
D12*
X-5619999Y32119999D03*
%TD*%
D13*
%TO.C,J1*%
X-16530000Y26350000D03*
D14*
X-13989999Y26349999D03*
X-11449999Y26349999D03*
X-8909999Y26349999D03*
%TD*%
D15*
%TO.C,SW7*%
X15975000Y-16750000D03*
X8025000Y-16750000D03*
X15975000Y-21250000D03*
X8025000Y-21250000D03*
%TD*%
D16*
%TO.C,D9*%
X-14820000Y22320000D03*
X-14820000Y19020000D03*
X-19720000Y19020000D03*
X-19720000Y22320000D03*
%TD*%
D17*
%TO.C,C28*%
X-17870000Y-12210000D03*
X-17870000Y-13170000D03*
%TD*%
D18*
%TO.C,H3*%
X0Y-13500000D03*
%TD*%
D19*
%TO.C,C29*%
X-15400000Y23910000D03*
X-16360000Y23910000D03*
%TD*%
D15*
%TO.C,SW6*%
X-8025000Y-16750000D03*
X-15975000Y-16750000D03*
X-8025000Y-21250000D03*
X-15975000Y-21250000D03*
%TD*%
D20*
%TO.C,SW5*%
X-5340000Y14735000D03*
X-11340000Y14735000D03*
X-5340000Y10985000D03*
X-11340000Y10985000D03*
%TD*%
D21*
%TO.C,REF\u002A\u002A*%
X24580000Y0D03*
X14420000Y0D03*
%TD*%
D17*
%TO.C,C23*%
X23520000Y-5350000D03*
X23520000Y-6310000D03*
%TD*%
D16*
%TO.C,D1*%
X-17050000Y-5350000D03*
X-17050000Y-8650000D03*
X-21950000Y-8650000D03*
X-21950000Y-5350000D03*
%TD*%
D17*
%TO.C,C21*%
X-15450000Y-5320000D03*
X-15450000Y-6280000D03*
%TD*%
D21*
%TO.C,REF\u002A\u002A*%
X5080000Y0D03*
X-5080000Y0D03*
%TD*%
D17*
%TO.C,C25*%
X18560000Y22750000D03*
X18560000Y21790000D03*
%TD*%
D20*
%TO.C,SW3*%
X-5850000Y20855000D03*
X-11850000Y20855000D03*
X-5850000Y17105000D03*
X-11850000Y17105000D03*
%TD*%
D18*
%TO.C,H2*%
X-24500000Y13500000D03*
%TD*%
D17*
%TO.C,C22*%
X4030000Y-5290000D03*
X4030000Y-6250000D03*
%TD*%
D22*
%TO.C,C27*%
X4110000Y-25700000D03*
X5070000Y-25700000D03*
%TD*%
D16*
%TO.C,D3*%
X21950000Y-5350000D03*
X21950000Y-8650000D03*
X17050000Y-8650000D03*
X17050000Y-5350000D03*
%TD*%
D23*
%TO.C,R3*%
X-9965000Y22375000D03*
X-10985000Y22375000D03*
%TD*%
D18*
%TO.C,H1*%
X24500000Y13500000D03*
%TD*%
D16*
%TO.C,D2*%
X2450000Y-5350000D03*
X2450000Y-8650000D03*
X-2450000Y-8650000D03*
X-2450000Y-5350000D03*
%TD*%
D17*
%TO.C,C26*%
X26370000Y-12270000D03*
X26370000Y-13230000D03*
%TD*%
D24*
%TO.C,SW8*%
X3570000Y-19180000D03*
D25*
X-3340000Y-19220000D03*
D26*
X3480000Y-22810000D03*
D27*
X-3290000Y-22800000D03*
%TD*%
D16*
%TO.C,D4*%
X2880000Y17260000D03*
X2880000Y13960000D03*
X-2020000Y13960000D03*
X-2020000Y17260000D03*
%TD*%
D28*
%TO.C,C24*%
X3360000Y18920000D03*
X3360000Y19880000D03*
%TD*%
D17*
%TO.C,C11*%
X-12290000Y14030000D03*
X-12290000Y13070000D03*
%TD*%
D21*
%TO.C,REF\u002A\u002A*%
X-14420000Y0D03*
X-24580000Y0D03*
%TD*%
D16*
%TO.C,D7*%
X2450000Y-25850000D03*
X2450000Y-29150000D03*
X-2450000Y-29150000D03*
X-2450000Y-25850000D03*
%TD*%
%TO.C,D8*%
X-19450000Y-12190000D03*
X-19450000Y-15490000D03*
X-24350000Y-15490000D03*
X-24350000Y-12190000D03*
%TD*%
%TO.C,D6*%
X24800000Y-12380000D03*
X24800000Y-15680000D03*
X19900000Y-15680000D03*
X19900000Y-12380000D03*
%TD*%
%TO.C,D5*%
X17060000Y22630000D03*
X17060000Y19330000D03*
X12160000Y19330000D03*
X12160000Y22630000D03*
%TD*%
M02*
