M48
; DRILL file {KiCad (7.0.0-0)} date Sunday, April 23, 2023 at 02:26:44 AM
; FORMAT={-:-/ absolute / inch / decimal}
; #@! TF.CreationDate,2023-04-23T02:26:44-05:00
; #@! TF.GenerationSoftware,Kicad,Pcbnew,(7.0.0-0)
; #@! TF.FileFunction,Plated,1,4,PTH
FMAT,2
INCH
; #@! TA.AperFunction,Plated,PTH,ViaDrill
T1C0.0138
; #@! TA.AperFunction,Plated,PTH,ViaDrill
T2C0.0157
; #@! TA.AperFunction,Plated,PTH,ComponentDrill
T3C0.0236
; #@! TA.AperFunction,Plated,PTH,ComponentDrill
T4C0.0394
%
G90
G05
T1
X0.0083Y1.0094
X0.012Y0.9593
T2
X-1.2533Y0.2084
X-1.2533Y0.1297
X-1.2533Y0.0509
X-1.2533Y-0.0278
X-1.2533Y-0.1065
X-1.2533Y-0.1853
X-1.1746Y-0.3428
X-1.1746Y-0.4215
X-1.0958Y0.4446
X-1.0958Y0.3659
X-1.0958Y0.2872
X-1.0958Y0.2084
X-1.0958Y0.1297
X-1.0958Y0.0509
X-1.0958Y-0.0278
X-1.0958Y-0.1065
X-1.0958Y-0.1853
X-1.0958Y-0.4215
X-1.0958Y-0.5002
X-1.0958Y-0.579
X-1.0171Y0.7596
X-1.0171Y-0.5002
X-1.0154Y0.2382
X-0.9383Y0.8383
X-0.9383Y0.2872
X-0.9383Y0.1297
X-0.9383Y-0.1065
X-0.9383Y-0.3428
X-0.9383Y-0.8152
X-0.8596Y0.9171
X-0.8596Y0.6809
X-0.8596Y0.2872
X-0.8596Y0.1297
X-0.8596Y-0.1065
X-0.8596Y-0.8152
X-0.8596Y-0.8939
X-0.8531Y-0.0004
X-0.8397Y0.6039
X-0.8358Y0.7496
X-0.7809Y0.9958
X-0.7809Y0.3659
X-0.7809Y0.1297
X-0.7809Y-0.1065
X-0.7809Y-0.1853
X-0.7809Y-0.264
X-0.7809Y-0.8939
X-0.7809Y-0.9727
X-0.7807Y0.2071
X-0.7768Y0.2803
X-0.7697Y0.4681
X-0.7236Y0.2705
X-0.7021Y0.1297
X-0.7021Y-0.1065
X-0.7021Y-0.7365
X-0.7021Y-0.9727
X-0.6995Y0.7173
X-0.6781Y0.9396
X-0.6752Y0.526
X-0.6654Y-0.6063
X-0.6638Y0.7413
X-0.6315Y0.5272
X-0.6289Y-0.0732
X-0.627Y0.001
X-0.6234Y-0.7365
X-0.6234Y-1.0514
X-0.6087Y-0.2787
X-0.598Y0.3827
X-0.5705Y0.1622
X-0.5701Y0.8374
X-0.5446Y1.1533
X-0.5446Y-0.1853
X-0.5446Y-0.264
X-0.5446Y-0.3428
X-0.5446Y-0.5002
X-0.5446Y-0.7365
X-0.5446Y-0.8939
X-0.5446Y-1.1302
X-0.5272Y0.2681
X-0.524Y0.3177
X-0.5059Y0.4484
X-0.5012Y0.6354
X-0.5Y0.1921
X-0.4965Y0.5909
X-0.4764Y0.8888
X-0.4689Y-0.8134
X-0.4659Y1.1533
X-0.4659Y0.0509
X-0.4659Y-0.0278
X-0.4659Y-0.1853
X-0.4659Y-0.264
X-0.4659Y-0.3428
X-0.4659Y-0.5002
X-0.4659Y-0.8939
X-0.4659Y-0.9727
X-0.4659Y-1.1302
X-0.4604Y-0.6805
X-0.4516Y0.1949
X-0.4504Y0.6244
X-0.4386Y0.5291
X-0.4331Y0.9232
X-0.4283Y0.6701
X-0.4213Y0.2228
X-0.4197Y0.2736
X-0.413Y0.8463
X-0.3976Y0.5457
X-0.3929Y0.715
X-0.3872Y1.232
X-0.3872Y1.1533
X-0.3872Y0.1297
X-0.3872Y0.0509
X-0.3872Y-0.0278
X-0.3872Y-0.1853
X-0.3872Y-0.264
X-0.3872Y-0.3428
X-0.3872Y-0.5002
X-0.3872Y-0.7365
X-0.3872Y-0.8939
X-0.365Y0.4555
X-0.3543Y0.6752
X-0.3531Y0.9661
X-0.3283Y0.5063
X-0.324Y0.8602
X-0.3106Y0.7232
X-0.3091Y0.1132
X-0.3084Y1.232
X-0.3084Y1.1533
X-0.3084Y-0.0278
X-0.3084Y-0.1853
X-0.3084Y-0.264
X-0.3084Y-0.3428
X-0.3084Y-0.5002
X-0.3084Y-0.7365
X-0.3084Y-0.8152
X-0.3084Y-0.9727
X-0.3084Y-1.1302
X-0.3084Y-1.2089
X-0.3031Y0.4567
X-0.2744Y0.272
X-0.2744Y0.1768
X-0.2724Y0.0854
X-0.2717Y0.2248
X-0.2703Y-0.912
X-0.2661Y0.8823
X-0.2622Y0.394
X-0.2512Y0.6433
X-0.2297Y-0.1853
X-0.2297Y-0.264
X-0.2297Y-1.2089
X-0.213Y0.1445
X-0.2102Y0.5366
X-0.2098Y0.3976
X-0.2083Y0.0854
X-0.1957Y0.9831
X-0.1929Y0.6252
X-0.178Y1.0446
X-0.1744Y0.6815
X-0.172Y0.9232
X-0.172Y0.4618
X-0.1622Y1.0157
X-0.1614Y0.1445
X-0.1614Y0.0831
X-0.1539Y0.2654
X-0.152Y0.1906
X-0.1509Y-0.5002
X-0.1509Y-0.7365
X-0.1509Y-1.2089
X-0.1287Y0.9583
X-0.1122Y0.824
X-0.1118Y0.1016
X-0.1059Y1.0126
X-0.1029Y0.8793
X-0.0831Y0.0
X-0.0722Y0.2872
X-0.0722Y0.2084
X-0.0722Y-0.5002
X-0.0722Y-0.7365
X-0.0722Y-1.1302
X-0.0722Y-1.2089
X-0.072Y0.7854
X-0.0713Y0.1146
X-0.065Y0.8413
X-0.0539Y0.4748
X-0.0209Y0.1157
X-0.0148Y0.4173
X-0.0043Y-0.6906
X0.0Y-0.811
X0.0065Y0.5234
X0.0065Y0.2084
X0.0065Y-0.1853
X0.0065Y-0.264
X0.0065Y-0.5002
X0.0065Y-1.1302
X0.0065Y-1.2089
X0.0307Y0.1177
X0.062Y0.3593
X0.0748Y0.8862
X0.0853Y0.7596
X0.0853Y0.2084
X0.0853Y-0.5002
X0.0853Y-0.7365
X0.0853Y-1.1302
X0.0853Y-1.2089
X0.0965Y0.0339
X0.1043Y1.0138
X0.1496Y1.0224
X0.1591Y-0.2811
X0.164Y0.2084
X0.164Y-0.3428
X0.164Y-0.5002
X0.164Y-0.6577
X0.164Y-0.7365
X0.164Y-1.2089
X0.173Y0.787
X0.1731Y0.4252
X0.1768Y1.0443
X0.1799Y0.911
X0.224Y0.3095
X0.2246Y0.677
X0.2343Y1.0354
X0.2409Y0.8071
X0.2428Y0.2084
X0.2428Y-0.1853
X0.2428Y-0.264
X0.2428Y-0.3428
X0.2428Y-0.8939
X0.2428Y-1.2089
X0.257Y0.3503
X0.286Y0.3932
X0.31Y0.7185
X0.3215Y1.232
X0.3215Y1.1533
X0.3215Y1.0746
X0.3215Y0.9958
X0.3215Y0.6021
X0.3215Y0.2084
X0.3215Y0.0509
X0.3215Y-0.0278
X0.3215Y-0.1853
X0.3215Y-0.264
X0.3215Y-0.3428
X0.3215Y-0.5002
X0.3215Y-0.7365
X0.3215Y-0.9727
X0.3215Y-1.2089
X0.3386Y0.4695
X0.3632Y0.3445
X0.4002Y1.1533
X0.4002Y1.0746
X0.4002Y0.8383
X0.4002Y0.2084
X0.4002Y0.0509
X0.4002Y-0.0278
X0.4002Y-0.1853
X0.4002Y-0.264
X0.4002Y-0.3428
X0.4002Y-0.5002
X0.4002Y-0.7365
X0.463Y-0.913
X0.4772Y0.9768
X0.4781Y0.415
X0.479Y1.1533
X0.479Y1.0746
X0.479Y0.2084
X0.479Y0.0509
X0.479Y-0.0278
X0.479Y-0.1853
X0.479Y-0.264
X0.479Y-0.3428
X0.479Y-0.5002
X0.479Y-0.579
X0.479Y-0.9727
X0.479Y-1.1302
X0.4804Y-0.6886
X0.4811Y-0.8114
X0.5577Y1.1533
X0.5577Y1.0746
X0.5577Y0.9171
X0.5577Y0.5234
X0.5577Y0.3659
X0.5577Y0.2084
X0.5577Y-0.1853
X0.5577Y-0.264
X0.5577Y-0.5002
X0.5577Y-0.579
X0.5577Y-0.7365
X0.5577Y-0.8939
X0.5577Y-0.9727
X0.5577Y-1.1302
X0.6365Y1.0746
X0.6365Y0.9958
X0.6365Y0.6021
X0.6365Y0.5234
X0.6365Y0.4446
X0.6365Y0.3659
X0.6365Y0.2084
X0.6365Y-0.5002
X0.6365Y-0.579
X0.6365Y-0.6577
X0.6365Y-0.7365
X0.6365Y-0.8152
X0.6365Y-0.8939
X0.6803Y0.0
X0.7152Y0.9958
X0.7152Y0.6021
X0.7152Y0.5234
X0.7152Y0.4446
X0.7152Y0.3659
X0.7152Y0.2084
X0.7152Y-0.264
X0.7152Y-0.5002
X0.7152Y-0.7365
X0.7152Y-0.8152
X0.7323Y0.8224
X0.7939Y0.9958
X0.7939Y0.9171
X0.7939Y0.8383
X0.7939Y0.6021
X0.7939Y0.3659
X0.7939Y0.2084
X0.7939Y-0.1853
X0.7939Y-0.4215
X0.7939Y-0.5002
X0.7939Y-0.9727
X0.8654Y0.0319
X0.8727Y0.9171
X0.8727Y0.8383
X0.8727Y0.2084
X0.8727Y0.1297
X0.8727Y-0.4215
X0.8727Y-0.8939
X0.9264Y-0.2811
X0.9514Y0.8383
X0.9514Y0.2872
X0.9514Y0.1297
X0.9514Y-0.3428
X0.9514Y-0.8152
X1.027Y-0.6514
X1.0302Y0.7596
X1.0302Y0.2872
X1.0302Y0.2084
X1.0302Y-0.1065
X1.0302Y-0.264
X1.0302Y-0.5002
X1.0302Y-0.7365
X1.1089Y-0.4215
X1.1089Y-0.5002
X1.1089Y-0.579
X1.1876Y0.4446
X1.1876Y0.3659
X1.1876Y0.2872
X1.1876Y0.2084
X1.1876Y0.1297
X1.1876Y0.0509
X1.1876Y-0.0278
X1.1876Y-0.1065
X1.1876Y-0.1853
X1.1876Y-0.264
X1.1876Y-0.3428
X1.1876Y-0.4215
X1.2664Y0.1297
X1.2664Y0.0509
X1.2664Y-0.0278
X1.2664Y-0.1065
T4
X-0.6508Y1.0374
X-0.5508Y1.0374
X-0.4508Y1.0374
X-0.3508Y1.0374
T3
G00X-0.2213Y1.2409
M15
G01X-0.2213Y1.2882
M16
G05
G00X-0.2213Y1.0913
M15
G01X-0.2213Y1.1228
M16
G05
G00X0.2213Y1.2409
M15
G01X0.2213Y1.2882
M16
G05
G00X0.2213Y1.0913
M15
G01X0.2213Y1.1228
M16
G05
T0
M30
