%TF.GenerationSoftware,KiCad,Pcbnew,(7.0.0-0)*%
%TF.CreationDate,2023-03-14T22:07:24-05:00*%
%TF.ProjectId,RP2040_minimal,52503230-3430-45f6-9d69-6e696d616c2e,REV1*%
%TF.SameCoordinates,Original*%
%TF.FileFunction,Legend,Top*%
%TF.FilePolarity,Positive*%
%FSLAX46Y46*%
G04 Gerber Fmt 4.6, Leading zero omitted, Abs format (unit mm)*
G04 Created by KiCad (PCBNEW (7.0.0-0)) date 2023-03-14 22:07:24*
%MOMM*%
%LPD*%
G01*
G04 APERTURE LIST*
G04 Aperture macros list*
%AMRoundRect*
0 Rectangle with rounded corners*
0 $1 Rounding radius*
0 $2 $3 $4 $5 $6 $7 $8 $9 X,Y pos of 4 corners*
0 Add a 4 corners polygon primitive as box body*
4,1,4,$2,$3,$4,$5,$6,$7,$8,$9,$2,$3,0*
0 Add four circle primitives for the rounded corners*
1,1,$1+$1,$2,$3*
1,1,$1+$1,$4,$5*
1,1,$1+$1,$6,$7*
1,1,$1+$1,$8,$9*
0 Add four rect primitives between the rounded corners*
20,1,$1+$1,$2,$3,$4,$5,0*
20,1,$1+$1,$4,$5,$6,$7,0*
20,1,$1+$1,$6,$7,$8,$9,0*
20,1,$1+$1,$8,$9,$2,$3,0*%
G04 Aperture macros list end*
%ADD10C,0.150000*%
%ADD11C,0.120000*%
%ADD12RoundRect,0.294750X0.243750X0.456250X-0.243750X0.456250X-0.243750X-0.456250X0.243750X-0.456250X0*%
%ADD13RoundRect,0.198500X-0.147500X-0.172500X0.147500X-0.172500X0.147500X0.172500X-0.147500X0.172500X0*%
%ADD14RoundRect,0.198500X0.147500X0.172500X-0.147500X0.172500X-0.147500X-0.172500X0.147500X-0.172500X0*%
%ADD15RoundRect,0.051000X1.000000X0.750000X-1.000000X0.750000X-1.000000X-0.750000X1.000000X-0.750000X0*%
%ADD16RoundRect,0.051000X1.000000X1.900000X-1.000000X1.900000X-1.000000X-1.900000X1.000000X-1.900000X0*%
%ADD17RoundRect,0.201000X-0.650000X-0.150000X0.650000X-0.150000X0.650000X0.150000X-0.650000X0.150000X0*%
%ADD18RoundRect,0.198500X-0.172500X0.147500X-0.172500X-0.147500X0.172500X-0.147500X0.172500X0.147500X0*%
%ADD19RoundRect,0.101000X-0.050000X0.387500X-0.050000X-0.387500X0.050000X-0.387500X0.050000X0.387500X0*%
%ADD20RoundRect,0.101000X-0.387500X0.050000X-0.387500X-0.050000X0.387500X-0.050000X0.387500X0.050000X0*%
%ADD21RoundRect,0.195000X-1.456000X1.456000X-1.456000X-1.456000X1.456000X-1.456000X1.456000X1.456000X0*%
%ADD22RoundRect,0.198500X0.172500X-0.147500X0.172500X0.147500X-0.172500X0.147500X-0.172500X-0.147500X0*%
%ADD23RoundRect,0.051000X-1.300000X0.950000X-1.300000X-0.950000X1.300000X-0.950000X1.300000X0.950000X0*%
%ADD24RoundRect,0.191000X0.140000X0.170000X-0.140000X0.170000X-0.140000X-0.170000X0.140000X-0.170000X0*%
%ADD25RoundRect,0.201000X0.512500X0.150000X-0.512500X0.150000X-0.512500X-0.150000X0.512500X-0.150000X0*%
%ADD26RoundRect,0.276000X0.225000X0.250000X-0.225000X0.250000X-0.225000X-0.250000X0.225000X-0.250000X0*%
%ADD27RoundRect,0.201000X-0.512500X-0.150000X0.512500X-0.150000X0.512500X0.150000X-0.512500X0.150000X0*%
%ADD28RoundRect,0.050000X0.500000X0.350000X-0.500000X0.350000X-0.500000X-0.350000X0.500000X-0.350000X0*%
%ADD29RoundRect,0.050000X0.300000X0.350000X-0.300000X0.350000X-0.300000X-0.350000X0.300000X-0.350000X0*%
%ADD30RoundRect,0.201000X0.587500X0.150000X-0.587500X0.150000X-0.587500X-0.150000X0.587500X-0.150000X0*%
%ADD31RoundRect,0.191000X-0.170000X0.140000X-0.170000X-0.140000X0.170000X-0.140000X0.170000X0.140000X0*%
%ADD32RoundRect,0.191000X-0.140000X-0.170000X0.140000X-0.170000X0.140000X0.170000X-0.140000X0.170000X0*%
%ADD33RoundRect,0.051000X0.300000X0.575000X-0.300000X0.575000X-0.300000X-0.575000X0.300000X-0.575000X0*%
%ADD34RoundRect,0.051000X0.150000X0.575000X-0.150000X0.575000X-0.150000X-0.575000X0.150000X-0.575000X0*%
%ADD35O,1.102000X1.902000*%
%ADD36O,1.102000X2.302000*%
%ADD37RoundRect,0.301000X-0.375000X-0.625000X0.375000X-0.625000X0.375000X0.625000X-0.375000X0.625000X0*%
%ADD38C,3.302000*%
%ADD39C,1.802000*%
%ADD40C,4.402000*%
G04 APERTURE END LIST*
D10*
%TO.C,C2*%
X8103333Y17287858D02*
X8055714Y17240239D01*
X8055714Y17240239D02*
X7912857Y17192620D01*
X7912857Y17192620D02*
X7817619Y17192620D01*
X7817619Y17192620D02*
X7674762Y17240239D01*
X7674762Y17240239D02*
X7579524Y17335477D01*
X7579524Y17335477D02*
X7531905Y17430715D01*
X7531905Y17430715D02*
X7484286Y17621191D01*
X7484286Y17621191D02*
X7484286Y17764048D01*
X7484286Y17764048D02*
X7531905Y17954524D01*
X7531905Y17954524D02*
X7579524Y18049762D01*
X7579524Y18049762D02*
X7674762Y18145000D01*
X7674762Y18145000D02*
X7817619Y18192620D01*
X7817619Y18192620D02*
X7912857Y18192620D01*
X7912857Y18192620D02*
X8055714Y18145000D01*
X8055714Y18145000D02*
X8103333Y18097381D01*
X8484286Y18097381D02*
X8531905Y18145000D01*
X8531905Y18145000D02*
X8627143Y18192620D01*
X8627143Y18192620D02*
X8865238Y18192620D01*
X8865238Y18192620D02*
X8960476Y18145000D01*
X8960476Y18145000D02*
X9008095Y18097381D01*
X9008095Y18097381D02*
X9055714Y18002143D01*
X9055714Y18002143D02*
X9055714Y17906905D01*
X9055714Y17906905D02*
X9008095Y17764048D01*
X9008095Y17764048D02*
X8436667Y17192620D01*
X8436667Y17192620D02*
X9055714Y17192620D01*
%TO.C,C12*%
X2492142Y10456358D02*
X2444523Y10408739D01*
X2444523Y10408739D02*
X2301666Y10361120D01*
X2301666Y10361120D02*
X2206428Y10361120D01*
X2206428Y10361120D02*
X2063571Y10408739D01*
X2063571Y10408739D02*
X1968333Y10503977D01*
X1968333Y10503977D02*
X1920714Y10599215D01*
X1920714Y10599215D02*
X1873095Y10789691D01*
X1873095Y10789691D02*
X1873095Y10932548D01*
X1873095Y10932548D02*
X1920714Y11123024D01*
X1920714Y11123024D02*
X1968333Y11218262D01*
X1968333Y11218262D02*
X2063571Y11313500D01*
X2063571Y11313500D02*
X2206428Y11361120D01*
X2206428Y11361120D02*
X2301666Y11361120D01*
X2301666Y11361120D02*
X2444523Y11313500D01*
X2444523Y11313500D02*
X2492142Y11265881D01*
X3444523Y10361120D02*
X2873095Y10361120D01*
X3158809Y10361120D02*
X3158809Y11361120D01*
X3158809Y11361120D02*
X3063571Y11218262D01*
X3063571Y11218262D02*
X2968333Y11123024D01*
X2968333Y11123024D02*
X2873095Y11075405D01*
X3825476Y11265881D02*
X3873095Y11313500D01*
X3873095Y11313500D02*
X3968333Y11361120D01*
X3968333Y11361120D02*
X4206428Y11361120D01*
X4206428Y11361120D02*
X4301666Y11313500D01*
X4301666Y11313500D02*
X4349285Y11265881D01*
X4349285Y11265881D02*
X4396904Y11170643D01*
X4396904Y11170643D02*
X4396904Y11075405D01*
X4396904Y11075405D02*
X4349285Y10932548D01*
X4349285Y10932548D02*
X3777857Y10361120D01*
X3777857Y10361120D02*
X4396904Y10361120D01*
%TO.C,C11*%
X3342142Y12105358D02*
X3294523Y12057739D01*
X3294523Y12057739D02*
X3151666Y12010120D01*
X3151666Y12010120D02*
X3056428Y12010120D01*
X3056428Y12010120D02*
X2913571Y12057739D01*
X2913571Y12057739D02*
X2818333Y12152977D01*
X2818333Y12152977D02*
X2770714Y12248215D01*
X2770714Y12248215D02*
X2723095Y12438691D01*
X2723095Y12438691D02*
X2723095Y12581548D01*
X2723095Y12581548D02*
X2770714Y12772024D01*
X2770714Y12772024D02*
X2818333Y12867262D01*
X2818333Y12867262D02*
X2913571Y12962500D01*
X2913571Y12962500D02*
X3056428Y13010120D01*
X3056428Y13010120D02*
X3151666Y13010120D01*
X3151666Y13010120D02*
X3294523Y12962500D01*
X3294523Y12962500D02*
X3342142Y12914881D01*
X4294523Y12010120D02*
X3723095Y12010120D01*
X4008809Y12010120D02*
X4008809Y13010120D01*
X4008809Y13010120D02*
X3913571Y12867262D01*
X3913571Y12867262D02*
X3818333Y12772024D01*
X3818333Y12772024D02*
X3723095Y12724405D01*
X5246904Y12010120D02*
X4675476Y12010120D01*
X4961190Y12010120D02*
X4961190Y13010120D01*
X4961190Y13010120D02*
X4865952Y12867262D01*
X4865952Y12867262D02*
X4770714Y12772024D01*
X4770714Y12772024D02*
X4675476Y12724405D01*
%TO.C,C8*%
X-7766667Y9192858D02*
X-7814286Y9145239D01*
X-7814286Y9145239D02*
X-7957143Y9097620D01*
X-7957143Y9097620D02*
X-8052381Y9097620D01*
X-8052381Y9097620D02*
X-8195238Y9145239D01*
X-8195238Y9145239D02*
X-8290476Y9240477D01*
X-8290476Y9240477D02*
X-8338095Y9335715D01*
X-8338095Y9335715D02*
X-8385714Y9526191D01*
X-8385714Y9526191D02*
X-8385714Y9669048D01*
X-8385714Y9669048D02*
X-8338095Y9859524D01*
X-8338095Y9859524D02*
X-8290476Y9954762D01*
X-8290476Y9954762D02*
X-8195238Y10050000D01*
X-8195238Y10050000D02*
X-8052381Y10097620D01*
X-8052381Y10097620D02*
X-7957143Y10097620D01*
X-7957143Y10097620D02*
X-7814286Y10050000D01*
X-7814286Y10050000D02*
X-7766667Y10002381D01*
X-7195238Y9669048D02*
X-7290476Y9716667D01*
X-7290476Y9716667D02*
X-7338095Y9764286D01*
X-7338095Y9764286D02*
X-7385714Y9859524D01*
X-7385714Y9859524D02*
X-7385714Y9907143D01*
X-7385714Y9907143D02*
X-7338095Y10002381D01*
X-7338095Y10002381D02*
X-7290476Y10050000D01*
X-7290476Y10050000D02*
X-7195238Y10097620D01*
X-7195238Y10097620D02*
X-7004762Y10097620D01*
X-7004762Y10097620D02*
X-6909524Y10050000D01*
X-6909524Y10050000D02*
X-6861905Y10002381D01*
X-6861905Y10002381D02*
X-6814286Y9907143D01*
X-6814286Y9907143D02*
X-6814286Y9859524D01*
X-6814286Y9859524D02*
X-6861905Y9764286D01*
X-6861905Y9764286D02*
X-6909524Y9716667D01*
X-6909524Y9716667D02*
X-7004762Y9669048D01*
X-7004762Y9669048D02*
X-7195238Y9669048D01*
X-7195238Y9669048D02*
X-7290476Y9621429D01*
X-7290476Y9621429D02*
X-7338095Y9573810D01*
X-7338095Y9573810D02*
X-7385714Y9478572D01*
X-7385714Y9478572D02*
X-7385714Y9288096D01*
X-7385714Y9288096D02*
X-7338095Y9192858D01*
X-7338095Y9192858D02*
X-7290476Y9145239D01*
X-7290476Y9145239D02*
X-7195238Y9097620D01*
X-7195238Y9097620D02*
X-7004762Y9097620D01*
X-7004762Y9097620D02*
X-6909524Y9145239D01*
X-6909524Y9145239D02*
X-6861905Y9192858D01*
X-6861905Y9192858D02*
X-6814286Y9288096D01*
X-6814286Y9288096D02*
X-6814286Y9478572D01*
X-6814286Y9478572D02*
X-6861905Y9573810D01*
X-6861905Y9573810D02*
X-6909524Y9621429D01*
X-6909524Y9621429D02*
X-7004762Y9669048D01*
%TO.C,U1*%
X14302380Y11820596D02*
X15111904Y11820596D01*
X15111904Y11820596D02*
X15207142Y11868215D01*
X15207142Y11868215D02*
X15254761Y11915834D01*
X15254761Y11915834D02*
X15302380Y12011072D01*
X15302380Y12011072D02*
X15302380Y12201548D01*
X15302380Y12201548D02*
X15254761Y12296786D01*
X15254761Y12296786D02*
X15207142Y12344405D01*
X15207142Y12344405D02*
X15111904Y12392024D01*
X15111904Y12392024D02*
X14302380Y12392024D01*
X15302380Y13392024D02*
X15302380Y12820596D01*
X15302380Y13106310D02*
X14302380Y13106310D01*
X14302380Y13106310D02*
X14445238Y13011072D01*
X14445238Y13011072D02*
X14540476Y12915834D01*
X14540476Y12915834D02*
X14588095Y12820596D01*
%TO.C,U4*%
X-10279405Y23347620D02*
X-10279405Y22538096D01*
X-10279405Y22538096D02*
X-10231786Y22442858D01*
X-10231786Y22442858D02*
X-10184167Y22395239D01*
X-10184167Y22395239D02*
X-10088929Y22347620D01*
X-10088929Y22347620D02*
X-9898453Y22347620D01*
X-9898453Y22347620D02*
X-9803215Y22395239D01*
X-9803215Y22395239D02*
X-9755596Y22442858D01*
X-9755596Y22442858D02*
X-9707977Y22538096D01*
X-9707977Y22538096D02*
X-9707977Y23347620D01*
X-8803215Y23014286D02*
X-8803215Y22347620D01*
X-9041310Y23395239D02*
X-9279405Y22680953D01*
X-9279405Y22680953D02*
X-8660358Y22680953D01*
%TO.C,C17*%
X-15334377Y13811143D02*
X-15286758Y13763524D01*
X-15286758Y13763524D02*
X-15239139Y13620667D01*
X-15239139Y13620667D02*
X-15239139Y13525429D01*
X-15239139Y13525429D02*
X-15286758Y13382572D01*
X-15286758Y13382572D02*
X-15381996Y13287334D01*
X-15381996Y13287334D02*
X-15477234Y13239715D01*
X-15477234Y13239715D02*
X-15667710Y13192096D01*
X-15667710Y13192096D02*
X-15810567Y13192096D01*
X-15810567Y13192096D02*
X-16001043Y13239715D01*
X-16001043Y13239715D02*
X-16096281Y13287334D01*
X-16096281Y13287334D02*
X-16191519Y13382572D01*
X-16191519Y13382572D02*
X-16239139Y13525429D01*
X-16239139Y13525429D02*
X-16239139Y13620667D01*
X-16239139Y13620667D02*
X-16191519Y13763524D01*
X-16191519Y13763524D02*
X-16143900Y13811143D01*
X-15239139Y14763524D02*
X-15239139Y14192096D01*
X-15239139Y14477810D02*
X-16239139Y14477810D01*
X-16239139Y14477810D02*
X-16096281Y14382572D01*
X-16096281Y14382572D02*
X-16001043Y14287334D01*
X-16001043Y14287334D02*
X-15953424Y14192096D01*
X-16239139Y15096858D02*
X-16239139Y15763524D01*
X-16239139Y15763524D02*
X-15239139Y15334953D01*
%TO.C,C5*%
X2673333Y15642858D02*
X2625714Y15595239D01*
X2625714Y15595239D02*
X2482857Y15547620D01*
X2482857Y15547620D02*
X2387619Y15547620D01*
X2387619Y15547620D02*
X2244762Y15595239D01*
X2244762Y15595239D02*
X2149524Y15690477D01*
X2149524Y15690477D02*
X2101905Y15785715D01*
X2101905Y15785715D02*
X2054286Y15976191D01*
X2054286Y15976191D02*
X2054286Y16119048D01*
X2054286Y16119048D02*
X2101905Y16309524D01*
X2101905Y16309524D02*
X2149524Y16404762D01*
X2149524Y16404762D02*
X2244762Y16500000D01*
X2244762Y16500000D02*
X2387619Y16547620D01*
X2387619Y16547620D02*
X2482857Y16547620D01*
X2482857Y16547620D02*
X2625714Y16500000D01*
X2625714Y16500000D02*
X2673333Y16452381D01*
X3578095Y16547620D02*
X3101905Y16547620D01*
X3101905Y16547620D02*
X3054286Y16071429D01*
X3054286Y16071429D02*
X3101905Y16119048D01*
X3101905Y16119048D02*
X3197143Y16166667D01*
X3197143Y16166667D02*
X3435238Y16166667D01*
X3435238Y16166667D02*
X3530476Y16119048D01*
X3530476Y16119048D02*
X3578095Y16071429D01*
X3578095Y16071429D02*
X3625714Y15976191D01*
X3625714Y15976191D02*
X3625714Y15738096D01*
X3625714Y15738096D02*
X3578095Y15642858D01*
X3578095Y15642858D02*
X3530476Y15595239D01*
X3530476Y15595239D02*
X3435238Y15547620D01*
X3435238Y15547620D02*
X3197143Y15547620D01*
X3197143Y15547620D02*
X3101905Y15595239D01*
X3101905Y15595239D02*
X3054286Y15642858D01*
%TO.C,C7*%
X-4644167Y18960358D02*
X-4691786Y18912739D01*
X-4691786Y18912739D02*
X-4834643Y18865120D01*
X-4834643Y18865120D02*
X-4929881Y18865120D01*
X-4929881Y18865120D02*
X-5072738Y18912739D01*
X-5072738Y18912739D02*
X-5167976Y19007977D01*
X-5167976Y19007977D02*
X-5215595Y19103215D01*
X-5215595Y19103215D02*
X-5263214Y19293691D01*
X-5263214Y19293691D02*
X-5263214Y19436548D01*
X-5263214Y19436548D02*
X-5215595Y19627024D01*
X-5215595Y19627024D02*
X-5167976Y19722262D01*
X-5167976Y19722262D02*
X-5072738Y19817500D01*
X-5072738Y19817500D02*
X-4929881Y19865120D01*
X-4929881Y19865120D02*
X-4834643Y19865120D01*
X-4834643Y19865120D02*
X-4691786Y19817500D01*
X-4691786Y19817500D02*
X-4644167Y19769881D01*
X-4310833Y19865120D02*
X-3644167Y19865120D01*
X-3644167Y19865120D02*
X-4072738Y18865120D01*
%TO.C,C10*%
X-10741866Y15137143D02*
X-10694247Y15089524D01*
X-10694247Y15089524D02*
X-10646628Y14946667D01*
X-10646628Y14946667D02*
X-10646628Y14851429D01*
X-10646628Y14851429D02*
X-10694247Y14708572D01*
X-10694247Y14708572D02*
X-10789485Y14613334D01*
X-10789485Y14613334D02*
X-10884723Y14565715D01*
X-10884723Y14565715D02*
X-11075199Y14518096D01*
X-11075199Y14518096D02*
X-11218056Y14518096D01*
X-11218056Y14518096D02*
X-11408532Y14565715D01*
X-11408532Y14565715D02*
X-11503770Y14613334D01*
X-11503770Y14613334D02*
X-11599008Y14708572D01*
X-11599008Y14708572D02*
X-11646628Y14851429D01*
X-11646628Y14851429D02*
X-11646628Y14946667D01*
X-11646628Y14946667D02*
X-11599008Y15089524D01*
X-11599008Y15089524D02*
X-11551389Y15137143D01*
X-10646628Y16089524D02*
X-10646628Y15518096D01*
X-10646628Y15803810D02*
X-11646628Y15803810D01*
X-11646628Y15803810D02*
X-11503770Y15708572D01*
X-11503770Y15708572D02*
X-11408532Y15613334D01*
X-11408532Y15613334D02*
X-11360913Y15518096D01*
X-11646628Y16708572D02*
X-11646628Y16803810D01*
X-11646628Y16803810D02*
X-11599008Y16899048D01*
X-11599008Y16899048D02*
X-11551389Y16946667D01*
X-11551389Y16946667D02*
X-11456151Y16994286D01*
X-11456151Y16994286D02*
X-11265675Y17041905D01*
X-11265675Y17041905D02*
X-11027580Y17041905D01*
X-11027580Y17041905D02*
X-10837104Y16994286D01*
X-10837104Y16994286D02*
X-10741866Y16946667D01*
X-10741866Y16946667D02*
X-10694247Y16899048D01*
X-10694247Y16899048D02*
X-10646628Y16803810D01*
X-10646628Y16803810D02*
X-10646628Y16708572D01*
X-10646628Y16708572D02*
X-10694247Y16613334D01*
X-10694247Y16613334D02*
X-10741866Y16565715D01*
X-10741866Y16565715D02*
X-10837104Y16518096D01*
X-10837104Y16518096D02*
X-11027580Y16470477D01*
X-11027580Y16470477D02*
X-11265675Y16470477D01*
X-11265675Y16470477D02*
X-11456151Y16518096D01*
X-11456151Y16518096D02*
X-11551389Y16565715D01*
X-11551389Y16565715D02*
X-11599008Y16613334D01*
X-11599008Y16613334D02*
X-11646628Y16708572D01*
%TO.C,R5*%
X3674209Y14240120D02*
X3340876Y14716310D01*
X3102781Y14240120D02*
X3102781Y15240120D01*
X3102781Y15240120D02*
X3483733Y15240120D01*
X3483733Y15240120D02*
X3578971Y15192500D01*
X3578971Y15192500D02*
X3626590Y15144881D01*
X3626590Y15144881D02*
X3674209Y15049643D01*
X3674209Y15049643D02*
X3674209Y14906786D01*
X3674209Y14906786D02*
X3626590Y14811548D01*
X3626590Y14811548D02*
X3578971Y14763929D01*
X3578971Y14763929D02*
X3483733Y14716310D01*
X3483733Y14716310D02*
X3102781Y14716310D01*
X4578971Y15240120D02*
X4102781Y15240120D01*
X4102781Y15240120D02*
X4055162Y14763929D01*
X4055162Y14763929D02*
X4102781Y14811548D01*
X4102781Y14811548D02*
X4198019Y14859167D01*
X4198019Y14859167D02*
X4436114Y14859167D01*
X4436114Y14859167D02*
X4531352Y14811548D01*
X4531352Y14811548D02*
X4578971Y14763929D01*
X4578971Y14763929D02*
X4626590Y14668691D01*
X4626590Y14668691D02*
X4626590Y14430596D01*
X4626590Y14430596D02*
X4578971Y14335358D01*
X4578971Y14335358D02*
X4531352Y14287739D01*
X4531352Y14287739D02*
X4436114Y14240120D01*
X4436114Y14240120D02*
X4198019Y14240120D01*
X4198019Y14240120D02*
X4102781Y14287739D01*
X4102781Y14287739D02*
X4055162Y14335358D01*
%TO.C,C4*%
X-11847858Y12265834D02*
X-11800239Y12218215D01*
X-11800239Y12218215D02*
X-11752620Y12075358D01*
X-11752620Y12075358D02*
X-11752620Y11980120D01*
X-11752620Y11980120D02*
X-11800239Y11837263D01*
X-11800239Y11837263D02*
X-11895477Y11742025D01*
X-11895477Y11742025D02*
X-11990715Y11694406D01*
X-11990715Y11694406D02*
X-12181191Y11646787D01*
X-12181191Y11646787D02*
X-12324048Y11646787D01*
X-12324048Y11646787D02*
X-12514524Y11694406D01*
X-12514524Y11694406D02*
X-12609762Y11742025D01*
X-12609762Y11742025D02*
X-12705000Y11837263D01*
X-12705000Y11837263D02*
X-12752620Y11980120D01*
X-12752620Y11980120D02*
X-12752620Y12075358D01*
X-12752620Y12075358D02*
X-12705000Y12218215D01*
X-12705000Y12218215D02*
X-12657381Y12265834D01*
X-12419286Y13122977D02*
X-11752620Y13122977D01*
X-12800239Y12884882D02*
X-12085953Y12646787D01*
X-12085953Y12646787D02*
X-12085953Y13265834D01*
%TO.C,C1*%
X15283333Y22017858D02*
X15235714Y21970239D01*
X15235714Y21970239D02*
X15092857Y21922620D01*
X15092857Y21922620D02*
X14997619Y21922620D01*
X14997619Y21922620D02*
X14854762Y21970239D01*
X14854762Y21970239D02*
X14759524Y22065477D01*
X14759524Y22065477D02*
X14711905Y22160715D01*
X14711905Y22160715D02*
X14664286Y22351191D01*
X14664286Y22351191D02*
X14664286Y22494048D01*
X14664286Y22494048D02*
X14711905Y22684524D01*
X14711905Y22684524D02*
X14759524Y22779762D01*
X14759524Y22779762D02*
X14854762Y22875000D01*
X14854762Y22875000D02*
X14997619Y22922620D01*
X14997619Y22922620D02*
X15092857Y22922620D01*
X15092857Y22922620D02*
X15235714Y22875000D01*
X15235714Y22875000D02*
X15283333Y22827381D01*
X16235714Y21922620D02*
X15664286Y21922620D01*
X15950000Y21922620D02*
X15950000Y22922620D01*
X15950000Y22922620D02*
X15854762Y22779762D01*
X15854762Y22779762D02*
X15759524Y22684524D01*
X15759524Y22684524D02*
X15664286Y22636905D01*
%TO.C,C6*%
X-7994167Y18990358D02*
X-8041786Y18942739D01*
X-8041786Y18942739D02*
X-8184643Y18895120D01*
X-8184643Y18895120D02*
X-8279881Y18895120D01*
X-8279881Y18895120D02*
X-8422738Y18942739D01*
X-8422738Y18942739D02*
X-8517976Y19037977D01*
X-8517976Y19037977D02*
X-8565595Y19133215D01*
X-8565595Y19133215D02*
X-8613214Y19323691D01*
X-8613214Y19323691D02*
X-8613214Y19466548D01*
X-8613214Y19466548D02*
X-8565595Y19657024D01*
X-8565595Y19657024D02*
X-8517976Y19752262D01*
X-8517976Y19752262D02*
X-8422738Y19847500D01*
X-8422738Y19847500D02*
X-8279881Y19895120D01*
X-8279881Y19895120D02*
X-8184643Y19895120D01*
X-8184643Y19895120D02*
X-8041786Y19847500D01*
X-8041786Y19847500D02*
X-7994167Y19799881D01*
X-7137024Y19895120D02*
X-7327500Y19895120D01*
X-7327500Y19895120D02*
X-7422738Y19847500D01*
X-7422738Y19847500D02*
X-7470357Y19799881D01*
X-7470357Y19799881D02*
X-7565595Y19657024D01*
X-7565595Y19657024D02*
X-7613214Y19466548D01*
X-7613214Y19466548D02*
X-7613214Y19085596D01*
X-7613214Y19085596D02*
X-7565595Y18990358D01*
X-7565595Y18990358D02*
X-7517976Y18942739D01*
X-7517976Y18942739D02*
X-7422738Y18895120D01*
X-7422738Y18895120D02*
X-7232262Y18895120D01*
X-7232262Y18895120D02*
X-7137024Y18942739D01*
X-7137024Y18942739D02*
X-7089405Y18990358D01*
X-7089405Y18990358D02*
X-7041786Y19085596D01*
X-7041786Y19085596D02*
X-7041786Y19323691D01*
X-7041786Y19323691D02*
X-7089405Y19418929D01*
X-7089405Y19418929D02*
X-7137024Y19466548D01*
X-7137024Y19466548D02*
X-7232262Y19514167D01*
X-7232262Y19514167D02*
X-7422738Y19514167D01*
X-7422738Y19514167D02*
X-7517976Y19466548D01*
X-7517976Y19466548D02*
X-7565595Y19418929D01*
X-7565595Y19418929D02*
X-7613214Y19323691D01*
%TO.C,U5*%
X-2117620Y18633096D02*
X-1308096Y18633096D01*
X-1308096Y18633096D02*
X-1212858Y18680715D01*
X-1212858Y18680715D02*
X-1165239Y18728334D01*
X-1165239Y18728334D02*
X-1117620Y18823572D01*
X-1117620Y18823572D02*
X-1117620Y19014048D01*
X-1117620Y19014048D02*
X-1165239Y19109286D01*
X-1165239Y19109286D02*
X-1212858Y19156905D01*
X-1212858Y19156905D02*
X-1308096Y19204524D01*
X-1308096Y19204524D02*
X-2117620Y19204524D01*
X-2117620Y20156905D02*
X-2117620Y19680715D01*
X-2117620Y19680715D02*
X-1641429Y19633096D01*
X-1641429Y19633096D02*
X-1689048Y19680715D01*
X-1689048Y19680715D02*
X-1736667Y19775953D01*
X-1736667Y19775953D02*
X-1736667Y20014048D01*
X-1736667Y20014048D02*
X-1689048Y20109286D01*
X-1689048Y20109286D02*
X-1641429Y20156905D01*
X-1641429Y20156905D02*
X-1546191Y20204524D01*
X-1546191Y20204524D02*
X-1308096Y20204524D01*
X-1308096Y20204524D02*
X-1212858Y20156905D01*
X-1212858Y20156905D02*
X-1165239Y20109286D01*
X-1165239Y20109286D02*
X-1117620Y20014048D01*
X-1117620Y20014048D02*
X-1117620Y19775953D01*
X-1117620Y19775953D02*
X-1165239Y19680715D01*
X-1165239Y19680715D02*
X-1212858Y19633096D01*
%TO.C,C16*%
X-14420377Y20881143D02*
X-14372758Y20833524D01*
X-14372758Y20833524D02*
X-14325139Y20690667D01*
X-14325139Y20690667D02*
X-14325139Y20595429D01*
X-14325139Y20595429D02*
X-14372758Y20452572D01*
X-14372758Y20452572D02*
X-14467996Y20357334D01*
X-14467996Y20357334D02*
X-14563234Y20309715D01*
X-14563234Y20309715D02*
X-14753710Y20262096D01*
X-14753710Y20262096D02*
X-14896567Y20262096D01*
X-14896567Y20262096D02*
X-15087043Y20309715D01*
X-15087043Y20309715D02*
X-15182281Y20357334D01*
X-15182281Y20357334D02*
X-15277519Y20452572D01*
X-15277519Y20452572D02*
X-15325139Y20595429D01*
X-15325139Y20595429D02*
X-15325139Y20690667D01*
X-15325139Y20690667D02*
X-15277519Y20833524D01*
X-15277519Y20833524D02*
X-15229900Y20881143D01*
X-14325139Y21833524D02*
X-14325139Y21262096D01*
X-14325139Y21547810D02*
X-15325139Y21547810D01*
X-15325139Y21547810D02*
X-15182281Y21452572D01*
X-15182281Y21452572D02*
X-15087043Y21357334D01*
X-15087043Y21357334D02*
X-15039424Y21262096D01*
X-15325139Y22690667D02*
X-15325139Y22500191D01*
X-15325139Y22500191D02*
X-15277519Y22404953D01*
X-15277519Y22404953D02*
X-15229900Y22357334D01*
X-15229900Y22357334D02*
X-15087043Y22262096D01*
X-15087043Y22262096D02*
X-14896567Y22214477D01*
X-14896567Y22214477D02*
X-14515615Y22214477D01*
X-14515615Y22214477D02*
X-14420377Y22262096D01*
X-14420377Y22262096D02*
X-14372758Y22309715D01*
X-14372758Y22309715D02*
X-14325139Y22404953D01*
X-14325139Y22404953D02*
X-14325139Y22595429D01*
X-14325139Y22595429D02*
X-14372758Y22690667D01*
X-14372758Y22690667D02*
X-14420377Y22738286D01*
X-14420377Y22738286D02*
X-14515615Y22785905D01*
X-14515615Y22785905D02*
X-14753710Y22785905D01*
X-14753710Y22785905D02*
X-14848948Y22738286D01*
X-14848948Y22738286D02*
X-14896567Y22690667D01*
X-14896567Y22690667D02*
X-14944186Y22595429D01*
X-14944186Y22595429D02*
X-14944186Y22404953D01*
X-14944186Y22404953D02*
X-14896567Y22309715D01*
X-14896567Y22309715D02*
X-14848948Y22262096D01*
X-14848948Y22262096D02*
X-14753710Y22214477D01*
%TO.C,R6*%
X3674209Y12940120D02*
X3340876Y13416310D01*
X3102781Y12940120D02*
X3102781Y13940120D01*
X3102781Y13940120D02*
X3483733Y13940120D01*
X3483733Y13940120D02*
X3578971Y13892500D01*
X3578971Y13892500D02*
X3626590Y13844881D01*
X3626590Y13844881D02*
X3674209Y13749643D01*
X3674209Y13749643D02*
X3674209Y13606786D01*
X3674209Y13606786D02*
X3626590Y13511548D01*
X3626590Y13511548D02*
X3578971Y13463929D01*
X3578971Y13463929D02*
X3483733Y13416310D01*
X3483733Y13416310D02*
X3102781Y13416310D01*
X4531352Y13940120D02*
X4340876Y13940120D01*
X4340876Y13940120D02*
X4245638Y13892500D01*
X4245638Y13892500D02*
X4198019Y13844881D01*
X4198019Y13844881D02*
X4102781Y13702024D01*
X4102781Y13702024D02*
X4055162Y13511548D01*
X4055162Y13511548D02*
X4055162Y13130596D01*
X4055162Y13130596D02*
X4102781Y13035358D01*
X4102781Y13035358D02*
X4150400Y12987739D01*
X4150400Y12987739D02*
X4245638Y12940120D01*
X4245638Y12940120D02*
X4436114Y12940120D01*
X4436114Y12940120D02*
X4531352Y12987739D01*
X4531352Y12987739D02*
X4578971Y13035358D01*
X4578971Y13035358D02*
X4626590Y13130596D01*
X4626590Y13130596D02*
X4626590Y13368691D01*
X4626590Y13368691D02*
X4578971Y13463929D01*
X4578971Y13463929D02*
X4531352Y13511548D01*
X4531352Y13511548D02*
X4436114Y13559167D01*
X4436114Y13559167D02*
X4245638Y13559167D01*
X4245638Y13559167D02*
X4150400Y13511548D01*
X4150400Y13511548D02*
X4102781Y13463929D01*
X4102781Y13463929D02*
X4055162Y13368691D01*
%TO.C,C3*%
X2663333Y17212858D02*
X2615714Y17165239D01*
X2615714Y17165239D02*
X2472857Y17117620D01*
X2472857Y17117620D02*
X2377619Y17117620D01*
X2377619Y17117620D02*
X2234762Y17165239D01*
X2234762Y17165239D02*
X2139524Y17260477D01*
X2139524Y17260477D02*
X2091905Y17355715D01*
X2091905Y17355715D02*
X2044286Y17546191D01*
X2044286Y17546191D02*
X2044286Y17689048D01*
X2044286Y17689048D02*
X2091905Y17879524D01*
X2091905Y17879524D02*
X2139524Y17974762D01*
X2139524Y17974762D02*
X2234762Y18070000D01*
X2234762Y18070000D02*
X2377619Y18117620D01*
X2377619Y18117620D02*
X2472857Y18117620D01*
X2472857Y18117620D02*
X2615714Y18070000D01*
X2615714Y18070000D02*
X2663333Y18022381D01*
X2996667Y18117620D02*
X3615714Y18117620D01*
X3615714Y18117620D02*
X3282381Y17736667D01*
X3282381Y17736667D02*
X3425238Y17736667D01*
X3425238Y17736667D02*
X3520476Y17689048D01*
X3520476Y17689048D02*
X3568095Y17641429D01*
X3568095Y17641429D02*
X3615714Y17546191D01*
X3615714Y17546191D02*
X3615714Y17308096D01*
X3615714Y17308096D02*
X3568095Y17212858D01*
X3568095Y17212858D02*
X3520476Y17165239D01*
X3520476Y17165239D02*
X3425238Y17117620D01*
X3425238Y17117620D02*
X3139524Y17117620D01*
X3139524Y17117620D02*
X3044286Y17165239D01*
X3044286Y17165239D02*
X2996667Y17212858D01*
%TO.C,R8*%
X-12625139Y18257334D02*
X-13101329Y17924001D01*
X-12625139Y17685906D02*
X-13625139Y17685906D01*
X-13625139Y17685906D02*
X-13625139Y18066858D01*
X-13625139Y18066858D02*
X-13577519Y18162096D01*
X-13577519Y18162096D02*
X-13529900Y18209715D01*
X-13529900Y18209715D02*
X-13434662Y18257334D01*
X-13434662Y18257334D02*
X-13291805Y18257334D01*
X-13291805Y18257334D02*
X-13196567Y18209715D01*
X-13196567Y18209715D02*
X-13148948Y18162096D01*
X-13148948Y18162096D02*
X-13101329Y18066858D01*
X-13101329Y18066858D02*
X-13101329Y17685906D01*
X-13196567Y18828763D02*
X-13244186Y18733525D01*
X-13244186Y18733525D02*
X-13291805Y18685906D01*
X-13291805Y18685906D02*
X-13387043Y18638287D01*
X-13387043Y18638287D02*
X-13434662Y18638287D01*
X-13434662Y18638287D02*
X-13529900Y18685906D01*
X-13529900Y18685906D02*
X-13577519Y18733525D01*
X-13577519Y18733525D02*
X-13625139Y18828763D01*
X-13625139Y18828763D02*
X-13625139Y19019239D01*
X-13625139Y19019239D02*
X-13577519Y19114477D01*
X-13577519Y19114477D02*
X-13529900Y19162096D01*
X-13529900Y19162096D02*
X-13434662Y19209715D01*
X-13434662Y19209715D02*
X-13387043Y19209715D01*
X-13387043Y19209715D02*
X-13291805Y19162096D01*
X-13291805Y19162096D02*
X-13244186Y19114477D01*
X-13244186Y19114477D02*
X-13196567Y19019239D01*
X-13196567Y19019239D02*
X-13196567Y18828763D01*
X-13196567Y18828763D02*
X-13148948Y18733525D01*
X-13148948Y18733525D02*
X-13101329Y18685906D01*
X-13101329Y18685906D02*
X-13006091Y18638287D01*
X-13006091Y18638287D02*
X-12815615Y18638287D01*
X-12815615Y18638287D02*
X-12720377Y18685906D01*
X-12720377Y18685906D02*
X-12672758Y18733525D01*
X-12672758Y18733525D02*
X-12625139Y18828763D01*
X-12625139Y18828763D02*
X-12625139Y19019239D01*
X-12625139Y19019239D02*
X-12672758Y19114477D01*
X-12672758Y19114477D02*
X-12720377Y19162096D01*
X-12720377Y19162096D02*
X-12815615Y19209715D01*
X-12815615Y19209715D02*
X-13006091Y19209715D01*
X-13006091Y19209715D02*
X-13101329Y19162096D01*
X-13101329Y19162096D02*
X-13148948Y19114477D01*
X-13148948Y19114477D02*
X-13196567Y19019239D01*
%TO.C,Y1*%
X-15325648Y17486310D02*
X-14849458Y17486310D01*
X-15849458Y17152977D02*
X-15325648Y17486310D01*
X-15325648Y17486310D02*
X-15849458Y17819643D01*
X-14849458Y18676786D02*
X-14849458Y18105358D01*
X-14849458Y18391072D02*
X-15849458Y18391072D01*
X-15849458Y18391072D02*
X-15706600Y18295834D01*
X-15706600Y18295834D02*
X-15611362Y18200596D01*
X-15611362Y18200596D02*
X-15563743Y18105358D01*
%TO.C,R9*%
X-11556667Y28402620D02*
X-11890000Y28878810D01*
X-12128095Y28402620D02*
X-12128095Y29402620D01*
X-12128095Y29402620D02*
X-11747143Y29402620D01*
X-11747143Y29402620D02*
X-11651905Y29355000D01*
X-11651905Y29355000D02*
X-11604286Y29307381D01*
X-11604286Y29307381D02*
X-11556667Y29212143D01*
X-11556667Y29212143D02*
X-11556667Y29069286D01*
X-11556667Y29069286D02*
X-11604286Y28974048D01*
X-11604286Y28974048D02*
X-11651905Y28926429D01*
X-11651905Y28926429D02*
X-11747143Y28878810D01*
X-11747143Y28878810D02*
X-12128095Y28878810D01*
X-11080476Y28402620D02*
X-10890000Y28402620D01*
X-10890000Y28402620D02*
X-10794762Y28450239D01*
X-10794762Y28450239D02*
X-10747143Y28497858D01*
X-10747143Y28497858D02*
X-10651905Y28640715D01*
X-10651905Y28640715D02*
X-10604286Y28831191D01*
X-10604286Y28831191D02*
X-10604286Y29212143D01*
X-10604286Y29212143D02*
X-10651905Y29307381D01*
X-10651905Y29307381D02*
X-10699524Y29355000D01*
X-10699524Y29355000D02*
X-10794762Y29402620D01*
X-10794762Y29402620D02*
X-10985238Y29402620D01*
X-10985238Y29402620D02*
X-11080476Y29355000D01*
X-11080476Y29355000D02*
X-11128095Y29307381D01*
X-11128095Y29307381D02*
X-11175714Y29212143D01*
X-11175714Y29212143D02*
X-11175714Y28974048D01*
X-11175714Y28974048D02*
X-11128095Y28878810D01*
X-11128095Y28878810D02*
X-11080476Y28831191D01*
X-11080476Y28831191D02*
X-10985238Y28783572D01*
X-10985238Y28783572D02*
X-10794762Y28783572D01*
X-10794762Y28783572D02*
X-10699524Y28831191D01*
X-10699524Y28831191D02*
X-10651905Y28878810D01*
X-10651905Y28878810D02*
X-10604286Y28974048D01*
%TO.C,Q1*%
X-18452739Y22247381D02*
X-18547977Y22295000D01*
X-18547977Y22295000D02*
X-18643215Y22390239D01*
X-18643215Y22390239D02*
X-18786072Y22533096D01*
X-18786072Y22533096D02*
X-18881310Y22580715D01*
X-18881310Y22580715D02*
X-18976548Y22580715D01*
X-18928929Y22342620D02*
X-19024167Y22390239D01*
X-19024167Y22390239D02*
X-19119405Y22485477D01*
X-19119405Y22485477D02*
X-19167024Y22675953D01*
X-19167024Y22675953D02*
X-19167024Y23009286D01*
X-19167024Y23009286D02*
X-19119405Y23199762D01*
X-19119405Y23199762D02*
X-19024167Y23295000D01*
X-19024167Y23295000D02*
X-18928929Y23342620D01*
X-18928929Y23342620D02*
X-18738453Y23342620D01*
X-18738453Y23342620D02*
X-18643215Y23295000D01*
X-18643215Y23295000D02*
X-18547977Y23199762D01*
X-18547977Y23199762D02*
X-18500358Y23009286D01*
X-18500358Y23009286D02*
X-18500358Y22675953D01*
X-18500358Y22675953D02*
X-18547977Y22485477D01*
X-18547977Y22485477D02*
X-18643215Y22390239D01*
X-18643215Y22390239D02*
X-18738453Y22342620D01*
X-18738453Y22342620D02*
X-18928929Y22342620D01*
X-17547977Y22342620D02*
X-18119405Y22342620D01*
X-17833691Y22342620D02*
X-17833691Y23342620D01*
X-17833691Y23342620D02*
X-17928929Y23199762D01*
X-17928929Y23199762D02*
X-18024167Y23104524D01*
X-18024167Y23104524D02*
X-18119405Y23056905D01*
%TO.C,R4*%
X7223333Y9122620D02*
X6890000Y9598810D01*
X6651905Y9122620D02*
X6651905Y10122620D01*
X6651905Y10122620D02*
X7032857Y10122620D01*
X7032857Y10122620D02*
X7128095Y10075000D01*
X7128095Y10075000D02*
X7175714Y10027381D01*
X7175714Y10027381D02*
X7223333Y9932143D01*
X7223333Y9932143D02*
X7223333Y9789286D01*
X7223333Y9789286D02*
X7175714Y9694048D01*
X7175714Y9694048D02*
X7128095Y9646429D01*
X7128095Y9646429D02*
X7032857Y9598810D01*
X7032857Y9598810D02*
X6651905Y9598810D01*
X8080476Y9789286D02*
X8080476Y9122620D01*
X7842381Y10170239D02*
X7604286Y9455953D01*
X7604286Y9455953D02*
X8223333Y9455953D01*
%TO.C,S3*%
X16952381Y-2719761D02*
X17095238Y-2767380D01*
X17095238Y-2767380D02*
X17333333Y-2767380D01*
X17333333Y-2767380D02*
X17428571Y-2719761D01*
X17428571Y-2719761D02*
X17476190Y-2672142D01*
X17476190Y-2672142D02*
X17523809Y-2576904D01*
X17523809Y-2576904D02*
X17523809Y-2481666D01*
X17523809Y-2481666D02*
X17476190Y-2386428D01*
X17476190Y-2386428D02*
X17428571Y-2338809D01*
X17428571Y-2338809D02*
X17333333Y-2291190D01*
X17333333Y-2291190D02*
X17142857Y-2243571D01*
X17142857Y-2243571D02*
X17047619Y-2195952D01*
X17047619Y-2195952D02*
X17000000Y-2148333D01*
X17000000Y-2148333D02*
X16952381Y-2053095D01*
X16952381Y-2053095D02*
X16952381Y-1957857D01*
X16952381Y-1957857D02*
X17000000Y-1862619D01*
X17000000Y-1862619D02*
X17047619Y-1815000D01*
X17047619Y-1815000D02*
X17142857Y-1767380D01*
X17142857Y-1767380D02*
X17380952Y-1767380D01*
X17380952Y-1767380D02*
X17523809Y-1815000D01*
X17904762Y-2719761D02*
X18047619Y-2767380D01*
X18047619Y-2767380D02*
X18285714Y-2767380D01*
X18285714Y-2767380D02*
X18380952Y-2719761D01*
X18380952Y-2719761D02*
X18428571Y-2672142D01*
X18428571Y-2672142D02*
X18476190Y-2576904D01*
X18476190Y-2576904D02*
X18476190Y-2481666D01*
X18476190Y-2481666D02*
X18428571Y-2386428D01*
X18428571Y-2386428D02*
X18380952Y-2338809D01*
X18380952Y-2338809D02*
X18285714Y-2291190D01*
X18285714Y-2291190D02*
X18095238Y-2243571D01*
X18095238Y-2243571D02*
X18000000Y-2195952D01*
X18000000Y-2195952D02*
X17952381Y-2148333D01*
X17952381Y-2148333D02*
X17904762Y-2053095D01*
X17904762Y-2053095D02*
X17904762Y-1957857D01*
X17904762Y-1957857D02*
X17952381Y-1862619D01*
X17952381Y-1862619D02*
X18000000Y-1815000D01*
X18000000Y-1815000D02*
X18095238Y-1767380D01*
X18095238Y-1767380D02*
X18333333Y-1767380D01*
X18333333Y-1767380D02*
X18476190Y-1815000D01*
X18809524Y-1767380D02*
X19428571Y-1767380D01*
X19428571Y-1767380D02*
X19095238Y-2148333D01*
X19095238Y-2148333D02*
X19238095Y-2148333D01*
X19238095Y-2148333D02*
X19333333Y-2195952D01*
X19333333Y-2195952D02*
X19380952Y-2243571D01*
X19380952Y-2243571D02*
X19428571Y-2338809D01*
X19428571Y-2338809D02*
X19428571Y-2576904D01*
X19428571Y-2576904D02*
X19380952Y-2672142D01*
X19380952Y-2672142D02*
X19333333Y-2719761D01*
X19333333Y-2719761D02*
X19238095Y-2767380D01*
X19238095Y-2767380D02*
X18952381Y-2767380D01*
X18952381Y-2767380D02*
X18857143Y-2719761D01*
X18857143Y-2719761D02*
X18809524Y-2672142D01*
X19904762Y-2767380D02*
X20095238Y-2767380D01*
X20095238Y-2767380D02*
X20190476Y-2719761D01*
X20190476Y-2719761D02*
X20238095Y-2672142D01*
X20238095Y-2672142D02*
X20333333Y-2529285D01*
X20333333Y-2529285D02*
X20380952Y-2338809D01*
X20380952Y-2338809D02*
X20380952Y-1957857D01*
X20380952Y-1957857D02*
X20333333Y-1862619D01*
X20333333Y-1862619D02*
X20285714Y-1815000D01*
X20285714Y-1815000D02*
X20190476Y-1767380D01*
X20190476Y-1767380D02*
X20000000Y-1767380D01*
X20000000Y-1767380D02*
X19904762Y-1815000D01*
X19904762Y-1815000D02*
X19857143Y-1862619D01*
X19857143Y-1862619D02*
X19809524Y-1957857D01*
X19809524Y-1957857D02*
X19809524Y-2195952D01*
X19809524Y-2195952D02*
X19857143Y-2291190D01*
X19857143Y-2291190D02*
X19904762Y-2338809D01*
X19904762Y-2338809D02*
X20000000Y-2386428D01*
X20000000Y-2386428D02*
X20190476Y-2386428D01*
X20190476Y-2386428D02*
X20285714Y-2338809D01*
X20285714Y-2338809D02*
X20333333Y-2291190D01*
X20333333Y-2291190D02*
X20380952Y-2195952D01*
X20809524Y-2243571D02*
X21142857Y-2243571D01*
X21285714Y-2767380D02*
X20809524Y-2767380D01*
X20809524Y-2767380D02*
X20809524Y-1767380D01*
X20809524Y-1767380D02*
X21285714Y-1767380D01*
X21571429Y-1767380D02*
X22142857Y-1767380D01*
X21857143Y-2767380D02*
X21857143Y-1767380D01*
%TO.C,R1*%
X14238333Y7125120D02*
X13905000Y7601310D01*
X13666905Y7125120D02*
X13666905Y8125120D01*
X13666905Y8125120D02*
X14047857Y8125120D01*
X14047857Y8125120D02*
X14143095Y8077500D01*
X14143095Y8077500D02*
X14190714Y8029881D01*
X14190714Y8029881D02*
X14238333Y7934643D01*
X14238333Y7934643D02*
X14238333Y7791786D01*
X14238333Y7791786D02*
X14190714Y7696548D01*
X14190714Y7696548D02*
X14143095Y7648929D01*
X14143095Y7648929D02*
X14047857Y7601310D01*
X14047857Y7601310D02*
X13666905Y7601310D01*
X15190714Y7125120D02*
X14619286Y7125120D01*
X14905000Y7125120D02*
X14905000Y8125120D01*
X14905000Y8125120D02*
X14809762Y7982262D01*
X14809762Y7982262D02*
X14714524Y7887024D01*
X14714524Y7887024D02*
X14619286Y7839405D01*
%TO.C,U3*%
X3756666Y20777834D02*
X3756666Y20211167D01*
X3756666Y20211167D02*
X3790000Y20144500D01*
X3790000Y20144500D02*
X3823333Y20111167D01*
X3823333Y20111167D02*
X3890000Y20077834D01*
X3890000Y20077834D02*
X4023333Y20077834D01*
X4023333Y20077834D02*
X4090000Y20111167D01*
X4090000Y20111167D02*
X4123333Y20144500D01*
X4123333Y20144500D02*
X4156666Y20211167D01*
X4156666Y20211167D02*
X4156666Y20777834D01*
X4423333Y20777834D02*
X4856666Y20777834D01*
X4856666Y20777834D02*
X4623333Y20511167D01*
X4623333Y20511167D02*
X4723333Y20511167D01*
X4723333Y20511167D02*
X4789999Y20477834D01*
X4789999Y20477834D02*
X4823333Y20444500D01*
X4823333Y20444500D02*
X4856666Y20377834D01*
X4856666Y20377834D02*
X4856666Y20211167D01*
X4856666Y20211167D02*
X4823333Y20144500D01*
X4823333Y20144500D02*
X4789999Y20111167D01*
X4789999Y20111167D02*
X4723333Y20077834D01*
X4723333Y20077834D02*
X4523333Y20077834D01*
X4523333Y20077834D02*
X4456666Y20111167D01*
X4456666Y20111167D02*
X4423333Y20144500D01*
X3456666Y24544500D02*
X3690000Y24544500D01*
X3790000Y24177834D02*
X3456666Y24177834D01*
X3456666Y24177834D02*
X3456666Y24877834D01*
X3456666Y24877834D02*
X3790000Y24877834D01*
X4056666Y24211167D02*
X4156666Y24177834D01*
X4156666Y24177834D02*
X4323333Y24177834D01*
X4323333Y24177834D02*
X4389999Y24211167D01*
X4389999Y24211167D02*
X4423333Y24244500D01*
X4423333Y24244500D02*
X4456666Y24311167D01*
X4456666Y24311167D02*
X4456666Y24377834D01*
X4456666Y24377834D02*
X4423333Y24444500D01*
X4423333Y24444500D02*
X4389999Y24477834D01*
X4389999Y24477834D02*
X4323333Y24511167D01*
X4323333Y24511167D02*
X4189999Y24544500D01*
X4189999Y24544500D02*
X4123333Y24577834D01*
X4123333Y24577834D02*
X4089999Y24611167D01*
X4089999Y24611167D02*
X4056666Y24677834D01*
X4056666Y24677834D02*
X4056666Y24744500D01*
X4056666Y24744500D02*
X4089999Y24811167D01*
X4089999Y24811167D02*
X4123333Y24844500D01*
X4123333Y24844500D02*
X4189999Y24877834D01*
X4189999Y24877834D02*
X4356666Y24877834D01*
X4356666Y24877834D02*
X4456666Y24844500D01*
X4756666Y24177834D02*
X4756666Y24877834D01*
X4756666Y24877834D02*
X4923333Y24877834D01*
X4923333Y24877834D02*
X5023333Y24844500D01*
X5023333Y24844500D02*
X5090000Y24777834D01*
X5090000Y24777834D02*
X5123333Y24711167D01*
X5123333Y24711167D02*
X5156666Y24577834D01*
X5156666Y24577834D02*
X5156666Y24477834D01*
X5156666Y24477834D02*
X5123333Y24344500D01*
X5123333Y24344500D02*
X5090000Y24277834D01*
X5090000Y24277834D02*
X5023333Y24211167D01*
X5023333Y24211167D02*
X4923333Y24177834D01*
X4923333Y24177834D02*
X4756666Y24177834D01*
%TO.C,S2*%
X-2547619Y2080239D02*
X-2404762Y2032620D01*
X-2404762Y2032620D02*
X-2166667Y2032620D01*
X-2166667Y2032620D02*
X-2071429Y2080239D01*
X-2071429Y2080239D02*
X-2023810Y2127858D01*
X-2023810Y2127858D02*
X-1976191Y2223096D01*
X-1976191Y2223096D02*
X-1976191Y2318334D01*
X-1976191Y2318334D02*
X-2023810Y2413572D01*
X-2023810Y2413572D02*
X-2071429Y2461191D01*
X-2071429Y2461191D02*
X-2166667Y2508810D01*
X-2166667Y2508810D02*
X-2357143Y2556429D01*
X-2357143Y2556429D02*
X-2452381Y2604048D01*
X-2452381Y2604048D02*
X-2500000Y2651667D01*
X-2500000Y2651667D02*
X-2547619Y2746905D01*
X-2547619Y2746905D02*
X-2547619Y2842143D01*
X-2547619Y2842143D02*
X-2500000Y2937381D01*
X-2500000Y2937381D02*
X-2452381Y2985000D01*
X-2452381Y2985000D02*
X-2357143Y3032620D01*
X-2357143Y3032620D02*
X-2119048Y3032620D01*
X-2119048Y3032620D02*
X-1976191Y2985000D01*
X-1595238Y2080239D02*
X-1452381Y2032620D01*
X-1452381Y2032620D02*
X-1214286Y2032620D01*
X-1214286Y2032620D02*
X-1119048Y2080239D01*
X-1119048Y2080239D02*
X-1071429Y2127858D01*
X-1071429Y2127858D02*
X-1023810Y2223096D01*
X-1023810Y2223096D02*
X-1023810Y2318334D01*
X-1023810Y2318334D02*
X-1071429Y2413572D01*
X-1071429Y2413572D02*
X-1119048Y2461191D01*
X-1119048Y2461191D02*
X-1214286Y2508810D01*
X-1214286Y2508810D02*
X-1404762Y2556429D01*
X-1404762Y2556429D02*
X-1500000Y2604048D01*
X-1500000Y2604048D02*
X-1547619Y2651667D01*
X-1547619Y2651667D02*
X-1595238Y2746905D01*
X-1595238Y2746905D02*
X-1595238Y2842143D01*
X-1595238Y2842143D02*
X-1547619Y2937381D01*
X-1547619Y2937381D02*
X-1500000Y2985000D01*
X-1500000Y2985000D02*
X-1404762Y3032620D01*
X-1404762Y3032620D02*
X-1166667Y3032620D01*
X-1166667Y3032620D02*
X-1023810Y2985000D01*
X-690476Y3032620D02*
X-71429Y3032620D01*
X-71429Y3032620D02*
X-404762Y2651667D01*
X-404762Y2651667D02*
X-261905Y2651667D01*
X-261905Y2651667D02*
X-166667Y2604048D01*
X-166667Y2604048D02*
X-119048Y2556429D01*
X-119048Y2556429D02*
X-71429Y2461191D01*
X-71429Y2461191D02*
X-71429Y2223096D01*
X-71429Y2223096D02*
X-119048Y2127858D01*
X-119048Y2127858D02*
X-166667Y2080239D01*
X-166667Y2080239D02*
X-261905Y2032620D01*
X-261905Y2032620D02*
X-547619Y2032620D01*
X-547619Y2032620D02*
X-642857Y2080239D01*
X-642857Y2080239D02*
X-690476Y2127858D01*
X404762Y2032620D02*
X595238Y2032620D01*
X595238Y2032620D02*
X690476Y2080239D01*
X690476Y2080239D02*
X738095Y2127858D01*
X738095Y2127858D02*
X833333Y2270715D01*
X833333Y2270715D02*
X880952Y2461191D01*
X880952Y2461191D02*
X880952Y2842143D01*
X880952Y2842143D02*
X833333Y2937381D01*
X833333Y2937381D02*
X785714Y2985000D01*
X785714Y2985000D02*
X690476Y3032620D01*
X690476Y3032620D02*
X500000Y3032620D01*
X500000Y3032620D02*
X404762Y2985000D01*
X404762Y2985000D02*
X357143Y2937381D01*
X357143Y2937381D02*
X309524Y2842143D01*
X309524Y2842143D02*
X309524Y2604048D01*
X309524Y2604048D02*
X357143Y2508810D01*
X357143Y2508810D02*
X404762Y2461191D01*
X404762Y2461191D02*
X500000Y2413572D01*
X500000Y2413572D02*
X690476Y2413572D01*
X690476Y2413572D02*
X785714Y2461191D01*
X785714Y2461191D02*
X833333Y2508810D01*
X833333Y2508810D02*
X880952Y2604048D01*
X1309524Y2556429D02*
X1642857Y2556429D01*
X1785714Y2032620D02*
X1309524Y2032620D01*
X1309524Y2032620D02*
X1309524Y3032620D01*
X1309524Y3032620D02*
X1785714Y3032620D01*
X2071429Y3032620D02*
X2642857Y3032620D01*
X2357143Y2032620D02*
X2357143Y3032620D01*
%TO.C,S1*%
X-22047619Y2080239D02*
X-21904762Y2032620D01*
X-21904762Y2032620D02*
X-21666667Y2032620D01*
X-21666667Y2032620D02*
X-21571429Y2080239D01*
X-21571429Y2080239D02*
X-21523810Y2127858D01*
X-21523810Y2127858D02*
X-21476191Y2223096D01*
X-21476191Y2223096D02*
X-21476191Y2318334D01*
X-21476191Y2318334D02*
X-21523810Y2413572D01*
X-21523810Y2413572D02*
X-21571429Y2461191D01*
X-21571429Y2461191D02*
X-21666667Y2508810D01*
X-21666667Y2508810D02*
X-21857143Y2556429D01*
X-21857143Y2556429D02*
X-21952381Y2604048D01*
X-21952381Y2604048D02*
X-22000000Y2651667D01*
X-22000000Y2651667D02*
X-22047619Y2746905D01*
X-22047619Y2746905D02*
X-22047619Y2842143D01*
X-22047619Y2842143D02*
X-22000000Y2937381D01*
X-22000000Y2937381D02*
X-21952381Y2985000D01*
X-21952381Y2985000D02*
X-21857143Y3032620D01*
X-21857143Y3032620D02*
X-21619048Y3032620D01*
X-21619048Y3032620D02*
X-21476191Y2985000D01*
X-21095238Y2080239D02*
X-20952381Y2032620D01*
X-20952381Y2032620D02*
X-20714286Y2032620D01*
X-20714286Y2032620D02*
X-20619048Y2080239D01*
X-20619048Y2080239D02*
X-20571429Y2127858D01*
X-20571429Y2127858D02*
X-20523810Y2223096D01*
X-20523810Y2223096D02*
X-20523810Y2318334D01*
X-20523810Y2318334D02*
X-20571429Y2413572D01*
X-20571429Y2413572D02*
X-20619048Y2461191D01*
X-20619048Y2461191D02*
X-20714286Y2508810D01*
X-20714286Y2508810D02*
X-20904762Y2556429D01*
X-20904762Y2556429D02*
X-21000000Y2604048D01*
X-21000000Y2604048D02*
X-21047619Y2651667D01*
X-21047619Y2651667D02*
X-21095238Y2746905D01*
X-21095238Y2746905D02*
X-21095238Y2842143D01*
X-21095238Y2842143D02*
X-21047619Y2937381D01*
X-21047619Y2937381D02*
X-21000000Y2985000D01*
X-21000000Y2985000D02*
X-20904762Y3032620D01*
X-20904762Y3032620D02*
X-20666667Y3032620D01*
X-20666667Y3032620D02*
X-20523810Y2985000D01*
X-20190476Y3032620D02*
X-19571429Y3032620D01*
X-19571429Y3032620D02*
X-19904762Y2651667D01*
X-19904762Y2651667D02*
X-19761905Y2651667D01*
X-19761905Y2651667D02*
X-19666667Y2604048D01*
X-19666667Y2604048D02*
X-19619048Y2556429D01*
X-19619048Y2556429D02*
X-19571429Y2461191D01*
X-19571429Y2461191D02*
X-19571429Y2223096D01*
X-19571429Y2223096D02*
X-19619048Y2127858D01*
X-19619048Y2127858D02*
X-19666667Y2080239D01*
X-19666667Y2080239D02*
X-19761905Y2032620D01*
X-19761905Y2032620D02*
X-20047619Y2032620D01*
X-20047619Y2032620D02*
X-20142857Y2080239D01*
X-20142857Y2080239D02*
X-20190476Y2127858D01*
X-19095238Y2032620D02*
X-18904762Y2032620D01*
X-18904762Y2032620D02*
X-18809524Y2080239D01*
X-18809524Y2080239D02*
X-18761905Y2127858D01*
X-18761905Y2127858D02*
X-18666667Y2270715D01*
X-18666667Y2270715D02*
X-18619048Y2461191D01*
X-18619048Y2461191D02*
X-18619048Y2842143D01*
X-18619048Y2842143D02*
X-18666667Y2937381D01*
X-18666667Y2937381D02*
X-18714286Y2985000D01*
X-18714286Y2985000D02*
X-18809524Y3032620D01*
X-18809524Y3032620D02*
X-19000000Y3032620D01*
X-19000000Y3032620D02*
X-19095238Y2985000D01*
X-19095238Y2985000D02*
X-19142857Y2937381D01*
X-19142857Y2937381D02*
X-19190476Y2842143D01*
X-19190476Y2842143D02*
X-19190476Y2604048D01*
X-19190476Y2604048D02*
X-19142857Y2508810D01*
X-19142857Y2508810D02*
X-19095238Y2461191D01*
X-19095238Y2461191D02*
X-19000000Y2413572D01*
X-19000000Y2413572D02*
X-18809524Y2413572D01*
X-18809524Y2413572D02*
X-18714286Y2461191D01*
X-18714286Y2461191D02*
X-18666667Y2508810D01*
X-18666667Y2508810D02*
X-18619048Y2604048D01*
X-18190476Y2556429D02*
X-17857143Y2556429D01*
X-17714286Y2032620D02*
X-18190476Y2032620D01*
X-18190476Y2032620D02*
X-18190476Y3032620D01*
X-18190476Y3032620D02*
X-17714286Y3032620D01*
X-17428571Y3032620D02*
X-16857143Y3032620D01*
X-17142857Y2032620D02*
X-17142857Y3032620D01*
%TO.C,C18*%
X-15377858Y-1142857D02*
X-15330239Y-1190476D01*
X-15330239Y-1190476D02*
X-15282620Y-1333333D01*
X-15282620Y-1333333D02*
X-15282620Y-1428571D01*
X-15282620Y-1428571D02*
X-15330239Y-1571428D01*
X-15330239Y-1571428D02*
X-15425477Y-1666666D01*
X-15425477Y-1666666D02*
X-15520715Y-1714285D01*
X-15520715Y-1714285D02*
X-15711191Y-1761904D01*
X-15711191Y-1761904D02*
X-15854048Y-1761904D01*
X-15854048Y-1761904D02*
X-16044524Y-1714285D01*
X-16044524Y-1714285D02*
X-16139762Y-1666666D01*
X-16139762Y-1666666D02*
X-16235000Y-1571428D01*
X-16235000Y-1571428D02*
X-16282620Y-1428571D01*
X-16282620Y-1428571D02*
X-16282620Y-1333333D01*
X-16282620Y-1333333D02*
X-16235000Y-1190476D01*
X-16235000Y-1190476D02*
X-16187381Y-1142857D01*
X-15282620Y-190476D02*
X-15282620Y-761904D01*
X-15282620Y-476190D02*
X-16282620Y-476190D01*
X-16282620Y-476190D02*
X-16139762Y-571428D01*
X-16139762Y-571428D02*
X-16044524Y-666666D01*
X-16044524Y-666666D02*
X-15996905Y-761904D01*
X-15854048Y380953D02*
X-15901667Y285715D01*
X-15901667Y285715D02*
X-15949286Y238096D01*
X-15949286Y238096D02*
X-16044524Y190477D01*
X-16044524Y190477D02*
X-16092143Y190477D01*
X-16092143Y190477D02*
X-16187381Y238096D01*
X-16187381Y238096D02*
X-16235000Y285715D01*
X-16235000Y285715D02*
X-16282620Y380953D01*
X-16282620Y380953D02*
X-16282620Y571429D01*
X-16282620Y571429D02*
X-16235000Y666667D01*
X-16235000Y666667D02*
X-16187381Y714286D01*
X-16187381Y714286D02*
X-16092143Y761905D01*
X-16092143Y761905D02*
X-16044524Y761905D01*
X-16044524Y761905D02*
X-15949286Y714286D01*
X-15949286Y714286D02*
X-15901667Y666667D01*
X-15901667Y666667D02*
X-15854048Y571429D01*
X-15854048Y571429D02*
X-15854048Y380953D01*
X-15854048Y380953D02*
X-15806429Y285715D01*
X-15806429Y285715D02*
X-15758810Y238096D01*
X-15758810Y238096D02*
X-15663572Y190477D01*
X-15663572Y190477D02*
X-15473096Y190477D01*
X-15473096Y190477D02*
X-15377858Y238096D01*
X-15377858Y238096D02*
X-15330239Y285715D01*
X-15330239Y285715D02*
X-15282620Y380953D01*
X-15282620Y380953D02*
X-15282620Y571429D01*
X-15282620Y571429D02*
X-15330239Y666667D01*
X-15330239Y666667D02*
X-15377858Y714286D01*
X-15377858Y714286D02*
X-15473096Y761905D01*
X-15473096Y761905D02*
X-15663572Y761905D01*
X-15663572Y761905D02*
X-15758810Y714286D01*
X-15758810Y714286D02*
X-15806429Y666667D01*
X-15806429Y666667D02*
X-15854048Y571429D01*
%TO.C,C20*%
X18272142Y833143D02*
X18319761Y785524D01*
X18319761Y785524D02*
X18367380Y642667D01*
X18367380Y642667D02*
X18367380Y547429D01*
X18367380Y547429D02*
X18319761Y404572D01*
X18319761Y404572D02*
X18224523Y309334D01*
X18224523Y309334D02*
X18129285Y261715D01*
X18129285Y261715D02*
X17938809Y214096D01*
X17938809Y214096D02*
X17795952Y214096D01*
X17795952Y214096D02*
X17605476Y261715D01*
X17605476Y261715D02*
X17510238Y309334D01*
X17510238Y309334D02*
X17415000Y404572D01*
X17415000Y404572D02*
X17367380Y547429D01*
X17367380Y547429D02*
X17367380Y642667D01*
X17367380Y642667D02*
X17415000Y785524D01*
X17415000Y785524D02*
X17462619Y833143D01*
X17462619Y1214096D02*
X17415000Y1261715D01*
X17415000Y1261715D02*
X17367380Y1356953D01*
X17367380Y1356953D02*
X17367380Y1595048D01*
X17367380Y1595048D02*
X17415000Y1690286D01*
X17415000Y1690286D02*
X17462619Y1737905D01*
X17462619Y1737905D02*
X17557857Y1785524D01*
X17557857Y1785524D02*
X17653095Y1785524D01*
X17653095Y1785524D02*
X17795952Y1737905D01*
X17795952Y1737905D02*
X18367380Y1166477D01*
X18367380Y1166477D02*
X18367380Y1785524D01*
X17367380Y2404572D02*
X17367380Y2499810D01*
X17367380Y2499810D02*
X17415000Y2595048D01*
X17415000Y2595048D02*
X17462619Y2642667D01*
X17462619Y2642667D02*
X17557857Y2690286D01*
X17557857Y2690286D02*
X17748333Y2737905D01*
X17748333Y2737905D02*
X17986428Y2737905D01*
X17986428Y2737905D02*
X18176904Y2690286D01*
X18176904Y2690286D02*
X18272142Y2642667D01*
X18272142Y2642667D02*
X18319761Y2595048D01*
X18319761Y2595048D02*
X18367380Y2499810D01*
X18367380Y2499810D02*
X18367380Y2404572D01*
X18367380Y2404572D02*
X18319761Y2309334D01*
X18319761Y2309334D02*
X18272142Y2261715D01*
X18272142Y2261715D02*
X18176904Y2214096D01*
X18176904Y2214096D02*
X17986428Y2166477D01*
X17986428Y2166477D02*
X17748333Y2166477D01*
X17748333Y2166477D02*
X17557857Y2214096D01*
X17557857Y2214096D02*
X17462619Y2261715D01*
X17462619Y2261715D02*
X17415000Y2309334D01*
X17415000Y2309334D02*
X17367380Y2404572D01*
%TO.C,C19*%
X4132142Y-1082857D02*
X4179761Y-1130476D01*
X4179761Y-1130476D02*
X4227380Y-1273333D01*
X4227380Y-1273333D02*
X4227380Y-1368571D01*
X4227380Y-1368571D02*
X4179761Y-1511428D01*
X4179761Y-1511428D02*
X4084523Y-1606666D01*
X4084523Y-1606666D02*
X3989285Y-1654285D01*
X3989285Y-1654285D02*
X3798809Y-1701904D01*
X3798809Y-1701904D02*
X3655952Y-1701904D01*
X3655952Y-1701904D02*
X3465476Y-1654285D01*
X3465476Y-1654285D02*
X3370238Y-1606666D01*
X3370238Y-1606666D02*
X3275000Y-1511428D01*
X3275000Y-1511428D02*
X3227380Y-1368571D01*
X3227380Y-1368571D02*
X3227380Y-1273333D01*
X3227380Y-1273333D02*
X3275000Y-1130476D01*
X3275000Y-1130476D02*
X3322619Y-1082857D01*
X4227380Y-130476D02*
X4227380Y-701904D01*
X4227380Y-416190D02*
X3227380Y-416190D01*
X3227380Y-416190D02*
X3370238Y-511428D01*
X3370238Y-511428D02*
X3465476Y-606666D01*
X3465476Y-606666D02*
X3513095Y-701904D01*
X4227380Y345715D02*
X4227380Y536191D01*
X4227380Y536191D02*
X4179761Y631429D01*
X4179761Y631429D02*
X4132142Y679048D01*
X4132142Y679048D02*
X3989285Y774286D01*
X3989285Y774286D02*
X3798809Y821905D01*
X3798809Y821905D02*
X3417857Y821905D01*
X3417857Y821905D02*
X3322619Y774286D01*
X3322619Y774286D02*
X3275000Y726667D01*
X3275000Y726667D02*
X3227380Y631429D01*
X3227380Y631429D02*
X3227380Y440953D01*
X3227380Y440953D02*
X3275000Y345715D01*
X3275000Y345715D02*
X3322619Y298096D01*
X3322619Y298096D02*
X3417857Y250477D01*
X3417857Y250477D02*
X3655952Y250477D01*
X3655952Y250477D02*
X3751190Y298096D01*
X3751190Y298096D02*
X3798809Y345715D01*
X3798809Y345715D02*
X3846428Y440953D01*
X3846428Y440953D02*
X3846428Y631429D01*
X3846428Y631429D02*
X3798809Y726667D01*
X3798809Y726667D02*
X3751190Y774286D01*
X3751190Y774286D02*
X3655952Y821905D01*
%TO.C,P1*%
X388094Y37967381D02*
X388094Y36967381D01*
X388094Y36967381D02*
X7142Y36967381D01*
X7142Y36967381D02*
X-88096Y37015000D01*
X-88096Y37015000D02*
X-135715Y37062620D01*
X-135715Y37062620D02*
X-183334Y37157858D01*
X-183334Y37157858D02*
X-183334Y37300715D01*
X-183334Y37300715D02*
X-135715Y37395953D01*
X-135715Y37395953D02*
X-88096Y37443572D01*
X-88096Y37443572D02*
X7142Y37491191D01*
X7142Y37491191D02*
X388094Y37491191D01*
X-1135715Y37967381D02*
X-564287Y37967381D01*
X-850001Y37967381D02*
X-850001Y36967381D01*
X-850001Y36967381D02*
X-754763Y37110239D01*
X-754763Y37110239D02*
X-659525Y37205477D01*
X-659525Y37205477D02*
X-564287Y37253096D01*
%TO.C,F1*%
X8096666Y27816429D02*
X7763333Y27816429D01*
X7763333Y27292620D02*
X7763333Y28292620D01*
X7763333Y28292620D02*
X8239523Y28292620D01*
X9144285Y27292620D02*
X8572857Y27292620D01*
X8858571Y27292620D02*
X8858571Y28292620D01*
X8858571Y28292620D02*
X8763333Y28149762D01*
X8763333Y28149762D02*
X8668095Y28054524D01*
X8668095Y28054524D02*
X8572857Y28006905D01*
D11*
%TO.C,C2*%
X8528578Y18500000D02*
X8011422Y18500000D01*
X8528578Y19920000D02*
X8011422Y19920000D01*
%TO.C,U1*%
X19230000Y15770000D02*
X13220000Y15770000D01*
X16980000Y22590000D02*
X13220000Y22590000D01*
X13220000Y15770000D02*
X13220000Y17030000D01*
X13220000Y22590000D02*
X13220000Y21330000D01*
%TO.C,U4*%
X-12280000Y29232500D02*
X-12280000Y28972500D01*
X-12280000Y28972500D02*
X-13955000Y28972500D01*
X-12280000Y23782500D02*
X-12280000Y24042500D01*
X-9555000Y29232500D02*
X-12280000Y29232500D01*
X-9555000Y29232500D02*
X-6830000Y29232500D01*
X-9555000Y23782500D02*
X-12280000Y23782500D01*
X-9555000Y23782500D02*
X-6830000Y23782500D01*
X-6830000Y29232500D02*
X-6830000Y28972500D01*
X-6830000Y23782500D02*
X-6830000Y24042500D01*
%TO.C,C1*%
X15708578Y23230000D02*
X15191422Y23230000D01*
X15708578Y24650000D02*
X15191422Y24650000D01*
%TO.C,U5*%
X-9695000Y19295000D02*
X-9045000Y19295000D01*
X-2475000Y18645000D02*
X-2475000Y19295000D01*
X-9695000Y18645000D02*
X-9695000Y19295000D01*
X-2475000Y12725000D02*
X-2475000Y12075000D01*
X-9695000Y12725000D02*
X-9695000Y12075000D01*
X-2475000Y12075000D02*
X-3125000Y12075000D01*
X-9695000Y12075000D02*
X-9045000Y12075000D01*
%TO.C,Y1*%
X-15956838Y20962500D02*
X-15956838Y14962500D01*
X-19676838Y20962500D02*
X-19676838Y14962500D01*
%TO.C,R9*%
X-11282164Y29570000D02*
X-11497836Y29570000D01*
X-11282164Y30290000D02*
X-11497836Y30290000D01*
%TO.C,Q1*%
X-18357500Y23550000D02*
X-16557500Y23550000D01*
X-18357500Y23550000D02*
X-19157500Y23550000D01*
X-18357500Y26670000D02*
X-17557500Y26670000D01*
X-18357500Y26670000D02*
X-19157500Y26670000D01*
%TO.C,R4*%
X7530580Y10410000D02*
X7249420Y10410000D01*
X7530580Y11430000D02*
X7249420Y11430000D01*
%TO.C,S3*%
X19500000Y-1560000D02*
X20300000Y-1560000D01*
%TO.C,R1*%
X14740580Y10510000D02*
X14459420Y10510000D01*
X14740580Y11530000D02*
X14459420Y11530000D01*
D10*
%TO.C,U3*%
X5890000Y21535000D02*
X5890000Y23135000D01*
X5890000Y23535000D02*
X5890000Y23835000D01*
X2690000Y21535000D02*
X5890000Y21535000D01*
X2690000Y21535000D02*
X2690000Y23135000D01*
X2690000Y23135000D02*
X5890000Y23135000D01*
D11*
%TO.C,S2*%
X0Y1560000D02*
X-800000Y1560000D01*
%TO.C,U2*%
X10867500Y10350000D02*
X12542500Y10350000D01*
X10867500Y10350000D02*
X10217500Y10350000D01*
X10867500Y13470000D02*
X11517500Y13470000D01*
X10867500Y13470000D02*
X10217500Y13470000D01*
%TO.C,R2*%
X2214000Y29523836D02*
X2214000Y29308164D01*
X1494000Y29523836D02*
X1494000Y29308164D01*
%TO.C,S1*%
X-19500000Y1560000D02*
X-20300000Y1560000D01*
%TO.C,C18*%
X-16450000Y-392164D02*
X-16450000Y-607836D01*
X-17170000Y-392164D02*
X-17170000Y-607836D01*
%TO.C,C20*%
X17200000Y1583836D02*
X17200000Y1368164D01*
X16480000Y1583836D02*
X16480000Y1368164D01*
%TO.C,R3*%
X-2070000Y29507836D02*
X-2070000Y29292164D01*
X-2790000Y29507836D02*
X-2790000Y29292164D01*
%TO.C,C19*%
X3060000Y-332164D02*
X3060000Y-547836D01*
X2340000Y-332164D02*
X2340000Y-547836D01*
%TO.C,R7*%
X-13437836Y30300000D02*
X-13222164Y30300000D01*
X-13437836Y29580000D02*
X-13222164Y29580000D01*
%TO.C,F1*%
X7827936Y26750000D02*
X9032064Y26750000D01*
X7827936Y24930000D02*
X9032064Y24930000D01*
%TD*%
%LPC*%
D12*
%TO.C,C2*%
X9207500Y19210000D03*
X7332500Y19210000D03*
%TD*%
D13*
%TO.C,C12*%
X-45000Y11682500D03*
X925000Y11682500D03*
%TD*%
%TO.C,C11*%
X-45000Y12682500D03*
X925000Y12682500D03*
%TD*%
D14*
%TO.C,C8*%
X-7115000Y10635000D03*
X-8085000Y10635000D03*
%TD*%
D15*
%TO.C,U1*%
X18280000Y16880000D03*
X18280000Y19180000D03*
D16*
X11980000Y19180000D03*
D15*
X18280000Y21480000D03*
%TD*%
D17*
%TO.C,U4*%
X-13155000Y28412500D03*
X-13155000Y27142500D03*
X-13155000Y25872500D03*
X-13155000Y24602500D03*
X-5955000Y24602500D03*
X-5955000Y25872500D03*
X-5955000Y27142500D03*
X-5955000Y28412500D03*
%TD*%
D18*
%TO.C,C17*%
X-14792519Y16724000D03*
X-14792519Y15754000D03*
%TD*%
D13*
%TO.C,C5*%
X-160000Y15715000D03*
X810000Y15715000D03*
%TD*%
D14*
%TO.C,C7*%
X-3992500Y20402500D03*
X-4962500Y20402500D03*
%TD*%
%TO.C,C10*%
X-12114008Y15280000D03*
X-13084008Y15280000D03*
%TD*%
%TO.C,R5*%
X810876Y14697500D03*
X-159124Y14697500D03*
%TD*%
%TO.C,C4*%
X-11520000Y13832500D03*
X-12490000Y13832500D03*
%TD*%
D12*
%TO.C,C1*%
X16387500Y23940000D03*
X14512500Y23940000D03*
%TD*%
D14*
%TO.C,C6*%
X-7342500Y20432500D03*
X-8312500Y20432500D03*
%TD*%
D19*
%TO.C,U5*%
X-3485000Y19122500D03*
X-3885000Y19122500D03*
X-4285000Y19122500D03*
X-4685000Y19122500D03*
X-5085000Y19122500D03*
X-5485000Y19122500D03*
X-5885000Y19122500D03*
X-6285000Y19122500D03*
X-6685000Y19122500D03*
X-7085000Y19122500D03*
X-7485000Y19122500D03*
X-7885000Y19122500D03*
X-8285000Y19122500D03*
X-8685000Y19122500D03*
D20*
X-9522500Y18285000D03*
X-9522500Y17885000D03*
X-9522500Y17485000D03*
X-9522500Y17085000D03*
X-9522500Y16685000D03*
X-9522500Y16285000D03*
X-9522500Y15885000D03*
X-9522500Y15485000D03*
X-9522500Y15085000D03*
X-9522500Y14685000D03*
X-9522500Y14285000D03*
X-9522500Y13885000D03*
X-9522500Y13485000D03*
X-9522500Y13085000D03*
D19*
X-8685000Y12247500D03*
X-8285000Y12247500D03*
X-7885000Y12247500D03*
X-7485000Y12247500D03*
X-7085000Y12247500D03*
X-6685000Y12247500D03*
X-6285000Y12247500D03*
X-5885000Y12247500D03*
X-5485000Y12247500D03*
X-5085000Y12247500D03*
X-4685000Y12247500D03*
X-4285000Y12247500D03*
X-3885000Y12247500D03*
X-3485000Y12247500D03*
D20*
X-2647500Y13085000D03*
X-2647500Y13485000D03*
X-2647500Y13885000D03*
X-2647500Y14285000D03*
X-2647500Y14685000D03*
X-2647500Y15085000D03*
X-2647500Y15485000D03*
X-2647500Y15885000D03*
X-2647500Y16285000D03*
X-2647500Y16685000D03*
X-2647500Y17085000D03*
X-2647500Y17485000D03*
X-2647500Y17885000D03*
X-2647500Y18285000D03*
D21*
X-6085000Y15685000D03*
%TD*%
D22*
%TO.C,C16*%
X-14792519Y18724000D03*
X-14792519Y19694000D03*
%TD*%
D14*
%TO.C,R6*%
X810876Y13697500D03*
X-159124Y13697500D03*
%TD*%
D13*
%TO.C,C3*%
X-170000Y16795000D03*
X800000Y16795000D03*
%TD*%
%TO.C,C15*%
X-5940000Y29907500D03*
X-4970000Y29907500D03*
%TD*%
D14*
%TO.C,R8*%
X-12422519Y17024000D03*
X-13392519Y17024000D03*
%TD*%
D23*
%TO.C,Y1*%
X-17816838Y20112500D03*
X-17816838Y15812500D03*
%TD*%
D24*
%TO.C,R9*%
X-10910000Y29930000D03*
X-11870000Y29930000D03*
%TD*%
D25*
%TO.C,Q1*%
X-17220000Y24160000D03*
X-17220000Y25110000D03*
X-17220000Y26060000D03*
X-19495000Y26060000D03*
X-19495000Y24160000D03*
%TD*%
D26*
%TO.C,R4*%
X8165000Y10920000D03*
X6615000Y10920000D03*
%TD*%
D27*
%TO.C,S3*%
X18362500Y950000D03*
X18362500Y-950000D03*
X20637500Y0D03*
%TD*%
D26*
%TO.C,R1*%
X15375000Y11020000D03*
X13825000Y11020000D03*
%TD*%
D28*
%TO.C,U3*%
X5040000Y23335000D03*
D29*
X3340000Y23335000D03*
X3340000Y21335000D03*
X5240000Y21335000D03*
%TD*%
D25*
%TO.C,S2*%
X1137500Y-950000D03*
X1137500Y950000D03*
X-1137500Y0D03*
%TD*%
D30*
%TO.C,U2*%
X11805000Y10960000D03*
X11805000Y12860000D03*
X9930000Y11910000D03*
%TD*%
D31*
%TO.C,R2*%
X1854000Y29896000D03*
X1854000Y28936000D03*
%TD*%
D13*
%TO.C,C14*%
X-445000Y10050000D03*
X525000Y10050000D03*
%TD*%
D25*
%TO.C,S1*%
X-18362500Y-950000D03*
X-18362500Y950000D03*
X-20637500Y0D03*
%TD*%
D31*
%TO.C,C18*%
X-16810000Y-20000D03*
X-16810000Y-980000D03*
%TD*%
D18*
%TO.C,C9*%
X-2775000Y11057500D03*
X-2775000Y10087500D03*
%TD*%
%TO.C,C13*%
X-1745000Y11057500D03*
X-1745000Y10087500D03*
%TD*%
D31*
%TO.C,C20*%
X16840000Y1956000D03*
X16840000Y996000D03*
%TD*%
%TO.C,R3*%
X-2430000Y29880000D03*
X-2430000Y28920000D03*
%TD*%
%TO.C,C19*%
X2700000Y40000D03*
X2700000Y-920000D03*
%TD*%
D32*
%TO.C,R7*%
X-13810000Y29940000D03*
X-12850000Y29940000D03*
%TD*%
D33*
%TO.C,P1*%
X3200000Y32125000D03*
X2400000Y32125000D03*
D34*
X1250000Y32125000D03*
X250000Y32125000D03*
X-250000Y32125000D03*
X-1250000Y32125000D03*
D33*
X-2400000Y32125000D03*
X-3200000Y32125000D03*
X-3200000Y32125000D03*
X-2400000Y32125000D03*
D34*
X-1750000Y32125000D03*
X-750000Y32125000D03*
X750000Y32125000D03*
X1750000Y32125000D03*
D33*
X2400000Y32125000D03*
X3200000Y32125000D03*
D35*
X5619999Y33349999D03*
D36*
X5619999Y37349999D03*
D35*
X-5619999Y33349999D03*
D36*
X-5619999Y37349999D03*
%TD*%
D37*
%TO.C,F1*%
X7030000Y25840000D03*
X9830000Y25840000D03*
%TD*%
D38*
%TO.C,H3*%
X0Y-29000000D03*
%TD*%
D39*
%TO.C,REF\u002A\u002A*%
X24580000Y0D03*
X14420000Y0D03*
%TD*%
%TO.C,REF\u002A\u002A*%
X5080000Y0D03*
X-5080000Y0D03*
%TD*%
D38*
%TO.C,H2*%
X-27000000Y14000000D03*
%TD*%
%TO.C,H1*%
X27000000Y14000000D03*
%TD*%
D39*
%TO.C,REF\u002A\u002A*%
X-14420000Y0D03*
X-24580000Y0D03*
%TD*%
D40*
%TO.C,H4*%
X-11000000Y-14000000D03*
%TD*%
%TO.C,H5*%
X11000000Y-14000000D03*
%TD*%
M02*
